<?xml version="1.0" encoding="UTF-8" standalone="no"?>
<!DOCTYPE svg PUBLIC "-//W3C//DTD SVG 1.1//EN"
 "http://www.w3.org/Graphics/SVG/1.1/DTD/svg11.dtd">
<!-- Generated by graphviz version 2.36.0 (20140111.2315)
 -->
<!-- Title: %3 Pages: 1 -->
<svg width="152pt" height="316pt"
 viewBox="0.00 0.00 152.00 316.00" xmlns="http://www.w3.org/2000/svg" xmlns:xlink="http://www.w3.org/1999/xlink">
<g id="graph0" class="graph" transform="scale(1 1) rotate(0) translate(4 312)">
<title>%3</title>
<polygon fill="white" stroke="none" points="-4,4 -4,-312 148,-312 148,4 -4,4"/>
<!-- 0 -->
<g id="node1" class="node"><title>0</title>
<ellipse fill="lightblue" stroke="black" cx="22" cy="-286" rx="17.5909" ry="18"/>
<ellipse fill="none" stroke="black" cx="22" cy="-286" rx="21.5" ry="22"/>
<text text-anchor="middle" x="22" y="-282.3" font-family="Times,serif" font-size="14.00">0</text>
</g>
<!-- 0&#45;&gt;0 -->
<g id="edge1" class="edge"><title>0&#45;&gt;0</title>
<path fill="none" stroke="black" d="M42.0663,-294.734C52.0736,-295.943 61,-293.031 61,-286 61,-281.496 57.3366,-278.682 52.0725,-277.559"/>
<polygon fill="black" stroke="black" points="52.1646,-274.061 42.0663,-277.266 51.9594,-281.057 52.1646,-274.061"/>
<text text-anchor="middle" x="64.5" y="-282.3" font-family="Times,serif" font-size="14.00">b</text>
</g>
<!-- 1 -->
<g id="node2" class="node"><title>1</title>
<ellipse fill="lightblue" stroke="black" cx="22" cy="-194" rx="18" ry="18"/>
<text text-anchor="middle" x="22" y="-190.3" font-family="Times,serif" font-size="14.00">1</text>
</g>
<!-- 0&#45;&gt;1 -->
<g id="edge2" class="edge"><title>0&#45;&gt;1</title>
<path fill="none" stroke="black" d="M22,-263.671C22,-251.284 22,-235.552 22,-222.272"/>
<polygon fill="black" stroke="black" points="25.5001,-222.258 22,-212.258 18.5001,-222.258 25.5001,-222.258"/>
<text text-anchor="middle" x="25.5" y="-234.3" font-family="Times,serif" font-size="14.00">a</text>
</g>
<!-- 1&#45;&gt;1 -->
<g id="edge3" class="edge"><title>1&#45;&gt;1</title>
<path fill="none" stroke="black" d="M38.2903,-201.668C48.3892,-203.517 58,-200.961 58,-194 58,-189.541 54.0557,-186.889 48.5656,-186.045"/>
<polygon fill="black" stroke="black" points="48.1887,-182.554 38.2903,-186.332 48.384,-189.552 48.1887,-182.554"/>
<text text-anchor="middle" x="61.5" y="-190.3" font-family="Times,serif" font-size="14.00">a</text>
</g>
<!-- 3 -->
<g id="node4" class="node"><title>3</title>
<ellipse fill="lightblue" stroke="black" cx="61" cy="-106" rx="18" ry="18"/>
<text text-anchor="middle" x="61" y="-102.3" font-family="Times,serif" font-size="14.00">3</text>
</g>
<!-- 1&#45;&gt;3 -->
<g id="edge4" class="edge"><title>1&#45;&gt;3</title>
<path fill="none" stroke="black" d="M29.1532,-177.226C34.8706,-164.619 42.9938,-146.706 49.6049,-132.128"/>
<polygon fill="black" stroke="black" points="52.9496,-133.227 53.8921,-122.674 46.5745,-130.335 52.9496,-133.227"/>
<text text-anchor="middle" x="48.5" y="-146.3" font-family="Times,serif" font-size="14.00">b</text>
</g>
<!-- 2 -->
<g id="node3" class="node"><title>2</title>
<ellipse fill="lightblue" stroke="black" cx="61" cy="-18" rx="18" ry="18"/>
<text text-anchor="middle" x="61" y="-14.3" font-family="Times,serif" font-size="14.00">2</text>
</g>
<!-- 2&#45;&gt;2 -->
<g id="edge5" class="edge"><title>2&#45;&gt;2</title>
<path fill="none" stroke="black" d="M77.2903,-25.6679C87.3892,-27.5169 97,-24.9609 97,-18 97,-13.5406 93.0557,-10.8891 87.5656,-10.0454"/>
<polygon fill="black" stroke="black" points="87.1887,-6.55441 77.2903,-10.3321 87.384,-13.5517 87.1887,-6.55441"/>
<text text-anchor="middle" x="100.5" y="-14.3" font-family="Times,serif" font-size="14.00">b</text>
</g>
<!-- 2&#45;&gt;3 -->
<g id="edge6" class="edge"><title>2&#45;&gt;3</title>
<path fill="none" stroke="black" d="M61,-36.084C61,-47.8607 61,-63.7741 61,-77.342"/>
<polygon fill="black" stroke="black" points="57.5001,-77.5966 61,-87.5966 64.5001,-77.5967 57.5001,-77.5966"/>
<text text-anchor="middle" x="64.5" y="-58.3" font-family="Times,serif" font-size="14.00">a</text>
</g>
<!-- 3&#45;&gt;2 -->
<g id="edge7" class="edge"><title>3&#45;&gt;2</title>
<path fill="none" stroke="black" d="M50.33,-91.1629C46.2506,-85.0305 42.0807,-77.512 40,-70 38.1018,-63.1469 38.1018,-60.8531 40,-54 41.1704,-49.7745 43.0018,-45.5469 45.1063,-41.5652"/>
<polygon fill="black" stroke="black" points="48.1978,-43.2152 50.33,-32.8371 42.1913,-39.6203 48.1978,-43.2152"/>
<text text-anchor="middle" x="48.5" y="-58.3" font-family="Times,serif" font-size="14.00">b,a</text>
</g>
<!-- 4 -->
<g id="node5" class="node"><title>4</title>
<ellipse fill="green" stroke="black" cx="101" cy="-194" rx="18" ry="18"/>
<text text-anchor="middle" x="101" y="-190.3" font-family="Times,serif" font-size="14.00">4</text>
</g>
<!-- 4&#45;&gt;3 -->
<g id="edge8" class="edge"><title>4&#45;&gt;3</title>
<path fill="none" stroke="black" d="M93.6634,-177.226C87.7993,-164.619 79.4679,-146.706 72.6873,-132.128"/>
<polygon fill="black" stroke="black" points="75.681,-130.265 68.2901,-122.674 69.3339,-133.217 75.681,-130.265"/>
<text text-anchor="middle" x="87.5" y="-146.3" font-family="Times,serif" font-size="14.00">b</text>
</g>
<!-- 4&#45;&gt;4 -->
<g id="edge9" class="edge"><title>4&#45;&gt;4</title>
<path fill="none" stroke="black" d="M117.29,-201.668C127.389,-203.517 137,-200.961 137,-194 137,-189.541 133.056,-186.889 127.566,-186.045"/>
<polygon fill="black" stroke="black" points="127.189,-182.554 117.29,-186.332 127.384,-189.552 127.189,-182.554"/>
<text text-anchor="middle" x="140.5" y="-190.3" font-family="Times,serif" font-size="14.00">a</text>
</g>
</g>
</svg>
