<?xml version="1.0" encoding="UTF-8" standalone="no"?>
<!DOCTYPE svg PUBLIC "-//W3C//DTD SVG 1.1//EN"
 "http://www.w3.org/Graphics/SVG/1.1/DTD/svg11.dtd">
<!-- Generated by graphviz version 2.36.0 (20140111.2315)
 -->
<!-- Title: %3 Pages: 1 -->
<svg width="137pt" height="228pt"
 viewBox="0.00 0.00 137.00 228.00" xmlns="http://www.w3.org/2000/svg" xmlns:xlink="http://www.w3.org/1999/xlink">
<g id="graph0" class="graph" transform="scale(1 1) rotate(0) translate(4 224)">
<title>%3</title>
<polygon fill="white" stroke="none" points="-4,4 -4,-224 133,-224 133,4 -4,4"/>
<!-- 0 -->
<g id="node1" class="node"><title>0</title>
<ellipse fill="lightblue" stroke="black" cx="41" cy="-198" rx="17.5909" ry="18"/>
<ellipse fill="none" stroke="black" cx="41" cy="-198" rx="21.5" ry="22"/>
<text text-anchor="middle" x="41" y="-194.3" font-family="Times,serif" font-size="14.00">0</text>
</g>
<!-- 1 -->
<g id="node2" class="node"><title>1</title>
<ellipse fill="lightblue" stroke="black" cx="18" cy="-18" rx="18" ry="18"/>
<text text-anchor="middle" x="18" y="-14.3" font-family="Times,serif" font-size="14.00">1</text>
</g>
<!-- 0&#45;&gt;1 -->
<g id="edge1" class="edge"><title>0&#45;&gt;1</title>
<path fill="none" stroke="black" d="M38.2713,-175.882C34.098,-143.584 26.1303,-81.9218 21.5248,-46.279"/>
<polygon fill="black" stroke="black" points="24.9641,-45.5831 20.2114,-36.1141 18.0218,-46.4802 24.9641,-45.5831"/>
<text text-anchor="middle" x="34.5" y="-102.3" font-family="Times,serif" font-size="14.00">b</text>
</g>
<!-- 3 -->
<g id="node4" class="node"><title>3</title>
<ellipse fill="lightblue" stroke="black" cx="72" cy="-106" rx="18" ry="18"/>
<text text-anchor="middle" x="72" y="-102.3" font-family="Times,serif" font-size="14.00">3</text>
</g>
<!-- 0&#45;&gt;3 -->
<g id="edge2" class="edge"><title>0&#45;&gt;3</title>
<path fill="none" stroke="black" d="M47.8799,-177.026C52.3583,-164.024 58.2443,-146.936 63.0807,-132.895"/>
<polygon fill="black" stroke="black" points="66.4341,-133.906 66.3816,-123.311 59.8157,-131.626 66.4341,-133.906"/>
<text text-anchor="middle" x="62.5" y="-146.3" font-family="Times,serif" font-size="14.00">a</text>
</g>
<!-- 1&#45;&gt;0 -->
<g id="edge3" class="edge"><title>1&#45;&gt;0</title>
<path fill="none" stroke="black" d="M12.7122,-35.5563C6.82597,-56.4065 -0.995844,-93.2269 6,-124 9.66048,-140.102 17.3326,-156.799 24.5633,-170.154"/>
<polygon fill="black" stroke="black" points="21.7234,-172.243 29.6867,-179.232 27.8195,-168.803 21.7234,-172.243"/>
<text text-anchor="middle" x="14.5" y="-102.3" font-family="Times,serif" font-size="14.00">b,a</text>
</g>
<!-- 2 -->
<g id="node3" class="node"><title>2</title>
<ellipse fill="green" stroke="black" cx="111" cy="-18" rx="18" ry="18"/>
<text text-anchor="middle" x="111" y="-14.3" font-family="Times,serif" font-size="14.00">2</text>
</g>
<!-- 2&#45;&gt;0 -->
<g id="edge4" class="edge"><title>2&#45;&gt;0</title>
<path fill="none" stroke="black" d="M111.943,-36.1079C112.485,-57.5273 111.294,-94.9348 99,-124 90.8824,-143.192 76.2621,-161.542 63.7319,-175.043"/>
<polygon fill="black" stroke="black" points="61.0657,-172.767 56.6608,-182.402 66.1132,-177.617 61.0657,-172.767"/>
<text text-anchor="middle" x="111.5" y="-102.3" font-family="Times,serif" font-size="14.00">a</text>
</g>
<!-- 2&#45;&gt;3 -->
<g id="edge5" class="edge"><title>2&#45;&gt;3</title>
<path fill="none" stroke="black" d="M104.248,-35.1605C99.9862,-45.2309 94.3027,-58.4286 89,-70 87.4909,-73.2932 85.868,-76.7424 84.2454,-80.1379"/>
<polygon fill="black" stroke="black" points="80.9733,-78.8646 79.7672,-89.3905 87.2741,-81.9142 80.9733,-78.8646"/>
<text text-anchor="middle" x="98.5" y="-58.3" font-family="Times,serif" font-size="14.00">b</text>
</g>
<!-- 3&#45;&gt;1 -->
<g id="edge6" class="edge"><title>3&#45;&gt;1</title>
<path fill="none" stroke="black" d="M62.8396,-90.4113C54.6164,-77.315 42.3971,-57.8546 32.7902,-42.5548"/>
<polygon fill="black" stroke="black" points="35.4871,-40.268 27.2053,-33.6603 29.5589,-43.9904 35.4871,-40.268"/>
<text text-anchor="middle" x="52.5" y="-58.3" font-family="Times,serif" font-size="14.00">b</text>
</g>
<!-- 3&#45;&gt;2 -->
<g id="edge7" class="edge"><title>3&#45;&gt;2</title>
<path fill="none" stroke="black" d="M74.1673,-87.8577C75.9046,-77.6625 78.9197,-64.6778 84,-54 86.3306,-49.1014 89.4328,-44.2395 92.7027,-39.7675"/>
<polygon fill="black" stroke="black" points="95.5897,-41.759 99.0387,-31.7412 90.0953,-37.4217 95.5897,-41.759"/>
<text text-anchor="middle" x="87.5" y="-58.3" font-family="Times,serif" font-size="14.00">a</text>
</g>
</g>
</svg>
