<?xml version="1.0" encoding="UTF-8" standalone="no"?>
<!DOCTYPE svg PUBLIC "-//W3C//DTD SVG 1.1//EN"
 "http://www.w3.org/Graphics/SVG/1.1/DTD/svg11.dtd">
<!-- Generated by graphviz version 2.36.0 (20140111.2315)
 -->
<!-- Title: %3 Pages: 1 -->
<svg width="117pt" height="316pt"
 viewBox="0.00 0.00 117.00 316.00" xmlns="http://www.w3.org/2000/svg" xmlns:xlink="http://www.w3.org/1999/xlink">
<g id="graph0" class="graph" transform="scale(1 1) rotate(0) translate(4 312)">
<title>%3</title>
<polygon fill="white" stroke="none" points="-4,4 -4,-312 113,-312 113,4 -4,4"/>
<!-- 0 -->
<g id="node1" class="node"><title>0</title>
<ellipse fill="lightblue" stroke="black" cx="71" cy="-286" rx="17.5909" ry="18"/>
<ellipse fill="none" stroke="black" cx="71" cy="-286" rx="21.5" ry="22"/>
<text text-anchor="middle" x="71" y="-282.3" font-family="Times,serif" font-size="14.00">0</text>
</g>
<!-- 2 -->
<g id="node3" class="node"><title>2</title>
<ellipse fill="lightblue" stroke="black" cx="18" cy="-194" rx="18" ry="18"/>
<text text-anchor="middle" x="18" y="-190.3" font-family="Times,serif" font-size="14.00">2</text>
</g>
<!-- 0&#45;&gt;2 -->
<g id="edge1" class="edge"><title>0&#45;&gt;2</title>
<path fill="none" stroke="black" d="M60.2747,-266.787C52.1088,-252.921 40.8008,-233.718 31.9347,-218.663"/>
<polygon fill="black" stroke="black" points="34.8701,-216.75 26.7797,-209.909 28.8383,-220.302 34.8701,-216.75"/>
<text text-anchor="middle" x="56.5" y="-234.3" font-family="Times,serif" font-size="14.00">b,a</text>
</g>
<!-- 1 -->
<g id="node2" class="node"><title>1</title>
<ellipse fill="lightblue" stroke="black" cx="66" cy="-18" rx="18" ry="18"/>
<text text-anchor="middle" x="66" y="-14.3" font-family="Times,serif" font-size="14.00">1</text>
</g>
<!-- 1&#45;&gt;0 -->
<g id="edge2" class="edge"><title>1&#45;&gt;0</title>
<path fill="none" stroke="black" d="M67.2365,-36.0024C68.1913,-49.9616 69.4408,-70.2499 70,-88 71.8456,-146.588 71.6682,-215.025 71.3494,-253.864"/>
<polygon fill="black" stroke="black" points="67.8483,-253.97 71.2572,-264.001 74.8481,-254.034 67.8483,-253.97"/>
<text text-anchor="middle" x="74.5" y="-146.3" font-family="Times,serif" font-size="14.00">b</text>
</g>
<!-- 1&#45;&gt;1 -->
<g id="edge3" class="edge"><title>1&#45;&gt;1</title>
<path fill="none" stroke="black" d="M82.2903,-25.6679C92.3892,-27.5169 102,-24.9609 102,-18 102,-13.5406 98.0557,-10.8891 92.5656,-10.0454"/>
<polygon fill="black" stroke="black" points="92.1887,-6.55441 82.2903,-10.3321 92.384,-13.5517 92.1887,-6.55441"/>
<text text-anchor="middle" x="105.5" y="-14.3" font-family="Times,serif" font-size="14.00">a</text>
</g>
<!-- 2&#45;&gt;2 -->
<g id="edge4" class="edge"><title>2&#45;&gt;2</title>
<path fill="none" stroke="black" d="M34.2903,-201.668C44.3892,-203.517 54,-200.961 54,-194 54,-189.541 50.0557,-186.889 44.5656,-186.045"/>
<polygon fill="black" stroke="black" points="44.1887,-182.554 34.2903,-186.332 44.384,-189.552 44.1887,-182.554"/>
<text text-anchor="middle" x="57.5" y="-190.3" font-family="Times,serif" font-size="14.00">a</text>
</g>
<!-- 3 -->
<g id="node4" class="node"><title>3</title>
<ellipse fill="green" stroke="black" cx="18" cy="-106" rx="18" ry="18"/>
<text text-anchor="middle" x="18" y="-102.3" font-family="Times,serif" font-size="14.00">3</text>
</g>
<!-- 2&#45;&gt;3 -->
<g id="edge5" class="edge"><title>2&#45;&gt;3</title>
<path fill="none" stroke="black" d="M18,-175.597C18,-163.746 18,-147.817 18,-134.292"/>
<polygon fill="black" stroke="black" points="21.5001,-134.084 18,-124.084 14.5001,-134.084 21.5001,-134.084"/>
<text text-anchor="middle" x="21.5" y="-146.3" font-family="Times,serif" font-size="14.00">b</text>
</g>
<!-- 3&#45;&gt;1 -->
<g id="edge6" class="edge"><title>3&#45;&gt;1</title>
<path fill="none" stroke="black" d="M26.361,-90.0199C33.6123,-77.0279 44.2374,-57.9914 52.6623,-42.8968"/>
<polygon fill="black" stroke="black" points="55.7563,-44.5347 57.5738,-34.0969 49.6439,-41.1231 55.7563,-44.5347"/>
<text text-anchor="middle" x="50.5" y="-58.3" font-family="Times,serif" font-size="14.00">a</text>
</g>
<!-- 3&#45;&gt;3 -->
<g id="edge7" class="edge"><title>3&#45;&gt;3</title>
<path fill="none" stroke="black" d="M34.2903,-113.668C44.3892,-115.517 54,-112.961 54,-106 54,-101.541 50.0557,-98.8891 44.5656,-98.0454"/>
<polygon fill="black" stroke="black" points="44.1887,-94.5544 34.2903,-98.3321 44.384,-101.552 44.1887,-94.5544"/>
<text text-anchor="middle" x="57.5" y="-102.3" font-family="Times,serif" font-size="14.00">b</text>
</g>
</g>
</svg>
