<?xml version="1.0" encoding="UTF-8" standalone="no"?>
<!DOCTYPE svg PUBLIC "-//W3C//DTD SVG 1.1//EN"
 "http://www.w3.org/Graphics/SVG/1.1/DTD/svg11.dtd">
<!-- Generated by graphviz version 2.36.0 (20140111.2315)
 -->
<!-- Title: %3 Pages: 1 -->
<svg width="153pt" height="228pt"
 viewBox="0.00 0.00 153.00 228.00" xmlns="http://www.w3.org/2000/svg" xmlns:xlink="http://www.w3.org/1999/xlink">
<g id="graph0" class="graph" transform="scale(1 1) rotate(0) translate(4 224)">
<title>%3</title>
<polygon fill="white" stroke="none" points="-4,4 -4,-224 149,-224 149,4 -4,4"/>
<!-- 0 -->
<g id="node1" class="node"><title>0</title>
<ellipse fill="lightblue" stroke="black" cx="70" cy="-106" rx="18" ry="18"/>
<text text-anchor="middle" x="70" y="-102.3" font-family="Times,serif" font-size="14.00">0</text>
</g>
<!-- 1 -->
<g id="node2" class="node"><title>1</title>
<ellipse fill="lightblue" stroke="black" cx="18" cy="-18" rx="18" ry="18"/>
<text text-anchor="middle" x="18" y="-14.3" font-family="Times,serif" font-size="14.00">1</text>
</g>
<!-- 0&#45;&gt;1 -->
<g id="edge1" class="edge"><title>0&#45;&gt;1</title>
<path fill="none" stroke="black" d="M53.1967,-99.4084C40.1837,-94.0874 23.0606,-84.6838 15,-70 10.9787,-62.6745 10.3237,-53.8329 11.102,-45.5836"/>
<polygon fill="black" stroke="black" points="14.5736,-46.0392 12.7087,-35.6098 7.66272,-44.9259 14.5736,-46.0392"/>
<text text-anchor="middle" x="18.5" y="-58.3" font-family="Times,serif" font-size="14.00">a</text>
</g>
<!-- 2 -->
<g id="node3" class="node"><title>2</title>
<ellipse fill="green" stroke="black" cx="102" cy="-18" rx="18" ry="18"/>
<text text-anchor="middle" x="102" y="-14.3" font-family="Times,serif" font-size="14.00">2</text>
</g>
<!-- 0&#45;&gt;2 -->
<g id="edge2" class="edge"><title>0&#45;&gt;2</title>
<path fill="none" stroke="black" d="M69.344,-87.9113C69.5152,-77.7352 70.738,-64.7517 75,-54 76.9991,-48.957 79.9527,-44.0304 83.1814,-39.5405"/>
<polygon fill="black" stroke="black" points="86.0674,-41.5346 89.5505,-31.5286 80.5878,-37.1786 86.0674,-41.5346"/>
<text text-anchor="middle" x="78.5" y="-58.3" font-family="Times,serif" font-size="14.00">b</text>
</g>
<!-- 1&#45;&gt;0 -->
<g id="edge3" class="edge"><title>1&#45;&gt;0</title>
<path fill="none" stroke="black" d="M26.9539,-33.8084C34.8252,-46.8262 46.4232,-66.0076 55.5979,-81.1811"/>
<polygon fill="black" stroke="black" points="52.773,-83.2736 60.9423,-90.0199 58.7631,-79.6516 52.773,-83.2736"/>
<text text-anchor="middle" x="52.5" y="-58.3" font-family="Times,serif" font-size="14.00">a</text>
</g>
<!-- 1&#45;&gt;1 -->
<g id="edge4" class="edge"><title>1&#45;&gt;1</title>
<path fill="none" stroke="black" d="M34.2903,-25.6679C44.3892,-27.5169 54,-24.9609 54,-18 54,-13.5406 50.0557,-10.8891 44.5656,-10.0454"/>
<polygon fill="black" stroke="black" points="44.1887,-6.55441 34.2903,-10.3321 44.384,-13.5517 44.1887,-6.55441"/>
<text text-anchor="middle" x="57.5" y="-14.3" font-family="Times,serif" font-size="14.00">b</text>
</g>
<!-- 2&#45;&gt;0 -->
<g id="edge5" class="edge"><title>2&#45;&gt;0</title>
<path fill="none" stroke="black" d="M96.008,-35.1034C91.4115,-47.4565 84.9737,-64.7582 79.6533,-79.0569"/>
<polygon fill="black" stroke="black" points="76.2261,-78.2312 76.019,-88.8241 82.7866,-80.6724 76.2261,-78.2312"/>
<text text-anchor="middle" x="91.5" y="-58.3" font-family="Times,serif" font-size="14.00">a</text>
</g>
<!-- 2&#45;&gt;2 -->
<g id="edge6" class="edge"><title>2&#45;&gt;2</title>
<path fill="none" stroke="black" d="M118.29,-25.6679C128.389,-27.5169 138,-24.9609 138,-18 138,-13.5406 134.056,-10.8891 128.566,-10.0454"/>
<polygon fill="black" stroke="black" points="128.189,-6.55441 118.29,-10.3321 128.384,-13.5517 128.189,-6.55441"/>
<text text-anchor="middle" x="141.5" y="-14.3" font-family="Times,serif" font-size="14.00">b</text>
</g>
<!-- 3 -->
<g id="node4" class="node"><title>3</title>
<ellipse fill="lightblue" stroke="black" cx="105" cy="-198" rx="17.5909" ry="18"/>
<ellipse fill="none" stroke="black" cx="105" cy="-198" rx="21.5" ry="22"/>
<text text-anchor="middle" x="105" y="-194.3" font-family="Times,serif" font-size="14.00">3</text>
</g>
<!-- 3&#45;&gt;0 -->
<g id="edge7" class="edge"><title>3&#45;&gt;0</title>
<path fill="none" stroke="black" d="M97.2324,-177.026C92.1437,-163.941 85.4454,-146.717 79.9654,-132.625"/>
<polygon fill="black" stroke="black" points="83.1174,-131.074 76.2308,-123.022 76.5933,-133.611 83.1174,-131.074"/>
<text text-anchor="middle" x="92.5" y="-146.3" font-family="Times,serif" font-size="14.00">b</text>
</g>
<!-- 3&#45;&gt;2 -->
<g id="edge8" class="edge"><title>3&#45;&gt;2</title>
<path fill="none" stroke="black" d="M104.644,-175.882C104.1,-143.584 103.06,-81.9218 102.46,-46.279"/>
<polygon fill="black" stroke="black" points="105.957,-46.0536 102.288,-36.1141 98.9575,-46.1717 105.957,-46.0536"/>
<text text-anchor="middle" x="106.5" y="-102.3" font-family="Times,serif" font-size="14.00">a</text>
</g>
</g>
</svg>
