<?xml version="1.0" encoding="UTF-8" standalone="no"?>
<!DOCTYPE svg PUBLIC "-//W3C//DTD SVG 1.1//EN"
 "http://www.w3.org/Graphics/SVG/1.1/DTD/svg11.dtd">
<!-- Generated by graphviz version 2.36.0 (20140111.2315)
 -->
<!-- Title: %3 Pages: 1 -->
<svg width="135pt" height="404pt"
 viewBox="0.00 0.00 135.00 404.00" xmlns="http://www.w3.org/2000/svg" xmlns:xlink="http://www.w3.org/1999/xlink">
<g id="graph0" class="graph" transform="scale(1 1) rotate(0) translate(4 400)">
<title>%3</title>
<polygon fill="white" stroke="none" points="-4,4 -4,-400 131,-400 131,4 -4,4"/>
<!-- 0 -->
<g id="node1" class="node"><title>0</title>
<ellipse fill="lightblue" stroke="black" cx="84" cy="-290" rx="18" ry="18"/>
<text text-anchor="middle" x="84" y="-286.3" font-family="Times,serif" font-size="14.00">0</text>
</g>
<!-- 0&#45;&gt;0 -->
<g id="edge1" class="edge"><title>0&#45;&gt;0</title>
<path fill="none" stroke="black" d="M100.29,-297.668C110.389,-299.517 120,-296.961 120,-290 120,-285.541 116.056,-282.889 110.566,-282.045"/>
<polygon fill="black" stroke="black" points="110.189,-278.554 100.29,-282.332 110.384,-285.552 110.189,-278.554"/>
<text text-anchor="middle" x="123.5" y="-286.3" font-family="Times,serif" font-size="14.00">a</text>
</g>
<!-- 2 -->
<g id="node3" class="node"><title>2</title>
<ellipse fill="lightblue" stroke="black" cx="31" cy="-202" rx="18" ry="18"/>
<text text-anchor="middle" x="31" y="-198.3" font-family="Times,serif" font-size="14.00">2</text>
</g>
<!-- 0&#45;&gt;2 -->
<g id="edge2" class="edge"><title>0&#45;&gt;2</title>
<path fill="none" stroke="black" d="M74.7681,-274.02C66.7123,-260.948 54.8855,-241.758 45.5561,-226.619"/>
<polygon fill="black" stroke="black" points="48.3523,-224.485 40.1261,-217.808 42.393,-228.158 48.3523,-224.485"/>
<text text-anchor="middle" x="66.5" y="-242.3" font-family="Times,serif" font-size="14.00">b</text>
</g>
<!-- 1 -->
<g id="node2" class="node"><title>1</title>
<ellipse fill="lightblue" stroke="black" cx="84" cy="-378" rx="18" ry="18"/>
<text text-anchor="middle" x="84" y="-374.3" font-family="Times,serif" font-size="14.00">1</text>
</g>
<!-- 1&#45;&gt;0 -->
<g id="edge3" class="edge"><title>1&#45;&gt;0</title>
<path fill="none" stroke="black" d="M84,-359.597C84,-347.746 84,-331.817 84,-318.292"/>
<polygon fill="black" stroke="black" points="87.5001,-318.084 84,-308.084 80.5001,-318.084 87.5001,-318.084"/>
<text text-anchor="middle" x="87.5" y="-330.3" font-family="Times,serif" font-size="14.00">a</text>
</g>
<!-- 1&#45;&gt;1 -->
<g id="edge4" class="edge"><title>1&#45;&gt;1</title>
<path fill="none" stroke="black" d="M100.29,-385.668C110.389,-387.517 120,-384.961 120,-378 120,-373.541 116.056,-370.889 110.566,-370.045"/>
<polygon fill="black" stroke="black" points="110.189,-366.554 100.29,-370.332 110.384,-373.552 110.189,-366.554"/>
<text text-anchor="middle" x="123.5" y="-374.3" font-family="Times,serif" font-size="14.00">b</text>
</g>
<!-- 4 -->
<g id="node5" class="node"><title>4</title>
<ellipse fill="green" stroke="black" cx="18" cy="-114" rx="18" ry="18"/>
<text text-anchor="middle" x="18" y="-110.3" font-family="Times,serif" font-size="14.00">4</text>
</g>
<!-- 2&#45;&gt;4 -->
<g id="edge5" class="edge"><title>2&#45;&gt;4</title>
<path fill="none" stroke="black" d="M28.4316,-184.009C26.6155,-171.995 24.1434,-155.641 22.0616,-141.869"/>
<polygon fill="black" stroke="black" points="25.5185,-141.32 20.563,-131.956 18.5971,-142.366 25.5185,-141.32"/>
<text text-anchor="middle" x="34.5" y="-154.3" font-family="Times,serif" font-size="14.00">b,a</text>
</g>
<!-- 3 -->
<g id="node4" class="node"><title>3</title>
<ellipse fill="lightblue" stroke="black" cx="66" cy="-22" rx="17.5909" ry="18"/>
<ellipse fill="none" stroke="black" cx="66" cy="-22" rx="21.5" ry="22"/>
<text text-anchor="middle" x="66" y="-18.3" font-family="Times,serif" font-size="14.00">3</text>
</g>
<!-- 3&#45;&gt;0 -->
<g id="edge6" class="edge"><title>3&#45;&gt;0</title>
<path fill="none" stroke="black" d="M67.4365,-44.2283C70.6823,-92.1943 78.5785,-208.882 82.1688,-261.939"/>
<polygon fill="black" stroke="black" points="78.6794,-262.215 82.8466,-271.956 85.6634,-261.742 78.6794,-262.215"/>
<text text-anchor="middle" x="84.5" y="-154.3" font-family="Times,serif" font-size="14.00">b,a</text>
</g>
<!-- 4&#45;&gt;3 -->
<g id="edge7" class="edge"><title>4&#45;&gt;3</title>
<path fill="none" stroke="black" d="M26.1425,-97.7327C32.9648,-84.941 42.8813,-66.3476 51.116,-50.9075"/>
<polygon fill="black" stroke="black" points="54.3656,-52.252 55.9833,-41.7813 48.1891,-48.9578 54.3656,-52.252"/>
<text text-anchor="middle" x="48.5" y="-66.3" font-family="Times,serif" font-size="14.00">b</text>
</g>
<!-- 4&#45;&gt;4 -->
<g id="edge8" class="edge"><title>4&#45;&gt;4</title>
<path fill="none" stroke="black" d="M34.2903,-121.668C44.3892,-123.517 54,-120.961 54,-114 54,-109.541 50.0557,-106.889 44.5656,-106.045"/>
<polygon fill="black" stroke="black" points="44.1887,-102.554 34.2903,-106.332 44.384,-109.552 44.1887,-102.554"/>
<text text-anchor="middle" x="57.5" y="-110.3" font-family="Times,serif" font-size="14.00">a</text>
</g>
</g>
</svg>
