<?xml version="1.0" encoding="UTF-8" standalone="no"?>
<!DOCTYPE svg PUBLIC "-//W3C//DTD SVG 1.1//EN"
 "http://www.w3.org/Graphics/SVG/1.1/DTD/svg11.dtd">
<!-- Generated by graphviz version 2.36.0 (20140111.2315)
 -->
<!-- Title: %3 Pages: 1 -->
<svg width="123pt" height="316pt"
 viewBox="0.00 0.00 123.00 316.00" xmlns="http://www.w3.org/2000/svg" xmlns:xlink="http://www.w3.org/1999/xlink">
<g id="graph0" class="graph" transform="scale(1 1) rotate(0) translate(4 312)">
<title>%3</title>
<polygon fill="white" stroke="none" points="-4,4 -4,-312 119,-312 119,4 -4,4"/>
<!-- 0 -->
<g id="node1" class="node"><title>0</title>
<ellipse fill="green" stroke="black" cx="61" cy="-290" rx="18" ry="18"/>
<text text-anchor="middle" x="61" y="-286.3" font-family="Times,serif" font-size="14.00">0</text>
</g>
<!-- 2 -->
<g id="node3" class="node"><title>2</title>
<ellipse fill="lightblue" stroke="black" cx="61" cy="-198" rx="17.5909" ry="18"/>
<ellipse fill="none" stroke="black" cx="61" cy="-198" rx="21.5" ry="22"/>
<text text-anchor="middle" x="61" y="-194.3" font-family="Times,serif" font-size="14.00">2</text>
</g>
<!-- 0&#45;&gt;2 -->
<g id="edge1" class="edge"><title>0&#45;&gt;2</title>
<path fill="none" stroke="black" d="M61,-271.647C61,-259.924 61,-244.114 61,-230.237"/>
<polygon fill="black" stroke="black" points="64.5001,-230.101 61,-220.101 57.5001,-230.101 64.5001,-230.101"/>
<text text-anchor="middle" x="69.5" y="-242.3" font-family="Times,serif" font-size="14.00">b,a</text>
</g>
<!-- 1 -->
<g id="node2" class="node"><title>1</title>
<ellipse fill="lightblue" stroke="black" cx="18" cy="-106" rx="18" ry="18"/>
<text text-anchor="middle" x="18" y="-102.3" font-family="Times,serif" font-size="14.00">1</text>
</g>
<!-- 1&#45;&gt;2 -->
<g id="edge2" class="edge"><title>1&#45;&gt;2</title>
<path fill="none" stroke="black" d="M25.392,-122.472C31.4683,-135.189 40.2364,-153.541 47.5512,-168.851"/>
<polygon fill="black" stroke="black" points="44.4117,-170.399 51.8808,-177.913 50.7278,-167.381 44.4117,-170.399"/>
<text text-anchor="middle" x="45.5" y="-146.3" font-family="Times,serif" font-size="14.00">b</text>
</g>
<!-- 3 -->
<g id="node4" class="node"><title>3</title>
<ellipse fill="lightblue" stroke="black" cx="72" cy="-18" rx="18" ry="18"/>
<text text-anchor="middle" x="72" y="-14.3" font-family="Times,serif" font-size="14.00">3</text>
</g>
<!-- 1&#45;&gt;3 -->
<g id="edge3" class="edge"><title>1&#45;&gt;3</title>
<path fill="none" stroke="black" d="M27.1604,-90.4113C35.3836,-77.315 47.6029,-57.8546 57.2098,-42.5548"/>
<polygon fill="black" stroke="black" points="60.4411,-43.9904 62.7947,-33.6603 54.5129,-40.268 60.4411,-43.9904"/>
<text text-anchor="middle" x="52.5" y="-58.3" font-family="Times,serif" font-size="14.00">a</text>
</g>
<!-- 2&#45;&gt;1 -->
<g id="edge4" class="edge"><title>2&#45;&gt;1</title>
<path fill="none" stroke="black" d="M44.4093,-183.914C36.8981,-177.038 28.6719,-167.973 24,-158 20.6198,-150.785 18.8685,-142.391 18.0207,-134.522"/>
<polygon fill="black" stroke="black" points="21.4962,-134.028 17.3566,-124.275 14.5108,-134.48 21.4962,-134.028"/>
<text text-anchor="middle" x="27.5" y="-146.3" font-family="Times,serif" font-size="14.00">b</text>
</g>
<!-- 2&#45;&gt;3 -->
<g id="edge5" class="edge"><title>2&#45;&gt;3</title>
<path fill="none" stroke="black" d="M62.305,-175.882C64.301,-143.584 68.1116,-81.9218 70.3142,-46.279"/>
<polygon fill="black" stroke="black" points="73.8188,-46.3109 70.9424,-36.1141 66.8322,-45.8791 73.8188,-46.3109"/>
<text text-anchor="middle" x="70.5" y="-102.3" font-family="Times,serif" font-size="14.00">a</text>
</g>
<!-- 3&#45;&gt;2 -->
<g id="edge6" class="edge"><title>3&#45;&gt;2</title>
<path fill="none" stroke="black" d="M78.1997,-35.1371C80.1442,-40.9865 82.034,-47.7043 83,-54 90.0221,-99.7635 87.4964,-112.906 77,-158 76.1958,-161.455 75.1226,-164.999 73.9111,-168.476"/>
<polygon fill="black" stroke="black" points="70.5849,-167.373 70.2389,-177.963 77.1129,-169.9 70.5849,-167.373"/>
<text text-anchor="middle" x="89.5" y="-102.3" font-family="Times,serif" font-size="14.00">a</text>
</g>
<!-- 3&#45;&gt;3 -->
<g id="edge7" class="edge"><title>3&#45;&gt;3</title>
<path fill="none" stroke="black" d="M88.2903,-25.6679C98.3892,-27.5169 108,-24.9609 108,-18 108,-13.5406 104.056,-10.8891 98.5656,-10.0454"/>
<polygon fill="black" stroke="black" points="98.1887,-6.55441 88.2903,-10.3321 98.384,-13.5517 98.1887,-6.55441"/>
<text text-anchor="middle" x="111.5" y="-14.3" font-family="Times,serif" font-size="14.00">b</text>
</g>
</g>
</svg>
