<?xml version="1.0" encoding="UTF-8" standalone="no"?>
<!DOCTYPE svg PUBLIC "-//W3C//DTD SVG 1.1//EN"
 "http://www.w3.org/Graphics/SVG/1.1/DTD/svg11.dtd">
<!-- Generated by graphviz version 2.36.0 (20140111.2315)
 -->
<!-- Title: %3 Pages: 1 -->
<svg width="109pt" height="316pt"
 viewBox="0.00 0.00 109.00 316.00" xmlns="http://www.w3.org/2000/svg" xmlns:xlink="http://www.w3.org/1999/xlink">
<g id="graph0" class="graph" transform="scale(1 1) rotate(0) translate(4 312)">
<title>%3</title>
<polygon fill="white" stroke="none" points="-4,4 -4,-312 105,-312 105,4 -4,4"/>
<!-- 0 -->
<g id="node1" class="node"><title>0</title>
<ellipse fill="lightblue" stroke="black" cx="58" cy="-290" rx="18" ry="18"/>
<text text-anchor="middle" x="58" y="-286.3" font-family="Times,serif" font-size="14.00">0</text>
</g>
<!-- 0&#45;&gt;0 -->
<g id="edge1" class="edge"><title>0&#45;&gt;0</title>
<path fill="none" stroke="black" d="M74.2903,-297.668C84.3892,-299.517 94,-296.961 94,-290 94,-285.541 90.0557,-282.889 84.5656,-282.045"/>
<polygon fill="black" stroke="black" points="84.1887,-278.554 74.2903,-282.332 84.384,-285.552 84.1887,-278.554"/>
<text text-anchor="middle" x="97.5" y="-286.3" font-family="Times,serif" font-size="14.00">a</text>
</g>
<!-- 2 -->
<g id="node3" class="node"><title>2</title>
<ellipse fill="green" stroke="black" cx="58" cy="-198" rx="17.5909" ry="18"/>
<ellipse fill="none" stroke="black" cx="58" cy="-198" rx="21.5" ry="22"/>
<text text-anchor="middle" x="58" y="-194.3" font-family="Times,serif" font-size="14.00">2</text>
</g>
<!-- 0&#45;&gt;2 -->
<g id="edge2" class="edge"><title>0&#45;&gt;2</title>
<path fill="none" stroke="black" d="M51.3664,-273.258C49.201,-267.332 47.0772,-260.463 46,-254 44.595,-245.57 45.55,-236.482 47.4167,-228.169"/>
<polygon fill="black" stroke="black" points="50.7966,-229.077 50.0484,-218.509 44.0427,-227.237 50.7966,-229.077"/>
<text text-anchor="middle" x="49.5" y="-242.3" font-family="Times,serif" font-size="14.00">b</text>
</g>
<!-- 1 -->
<g id="node2" class="node"><title>1</title>
<ellipse fill="lightblue" stroke="black" cx="18" cy="-106" rx="18" ry="18"/>
<text text-anchor="middle" x="18" y="-102.3" font-family="Times,serif" font-size="14.00">1</text>
</g>
<!-- 3 -->
<g id="node4" class="node"><title>3</title>
<ellipse fill="lightblue" stroke="black" cx="50" cy="-18" rx="18" ry="18"/>
<text text-anchor="middle" x="50" y="-14.3" font-family="Times,serif" font-size="14.00">3</text>
</g>
<!-- 1&#45;&gt;3 -->
<g id="edge3" class="edge"><title>1&#45;&gt;3</title>
<path fill="none" stroke="black" d="M24.019,-88.8241C28.6226,-76.4516 35.0619,-59.1462 40.3779,-44.8593"/>
<polygon fill="black" stroke="black" points="43.8009,-45.6962 44.008,-35.1034 37.2404,-43.255 43.8009,-45.6962"/>
<text text-anchor="middle" x="45.5" y="-58.3" font-family="Times,serif" font-size="14.00">b,a</text>
</g>
<!-- 2&#45;&gt;0 -->
<g id="edge4" class="edge"><title>2&#45;&gt;0</title>
<path fill="none" stroke="black" d="M58,-220.101C58,-232.48 58,-248.258 58,-261.59"/>
<polygon fill="black" stroke="black" points="54.5001,-261.647 58,-271.647 61.5001,-261.647 54.5001,-261.647"/>
<text text-anchor="middle" x="61.5" y="-242.3" font-family="Times,serif" font-size="14.00">a</text>
</g>
<!-- 2&#45;&gt;1 -->
<g id="edge5" class="edge"><title>2&#45;&gt;1</title>
<path fill="none" stroke="black" d="M49.3206,-177.471C43.4212,-164.198 35.5624,-146.515 29.1928,-132.184"/>
<polygon fill="black" stroke="black" points="32.3232,-130.609 25.0634,-122.893 25.9265,-133.452 32.3232,-130.609"/>
<text text-anchor="middle" x="44.5" y="-146.3" font-family="Times,serif" font-size="14.00">b</text>
</g>
<!-- 3&#45;&gt;2 -->
<g id="edge6" class="edge"><title>3&#45;&gt;2</title>
<path fill="none" stroke="black" d="M54.5979,-35.6032C55.9822,-41.3784 57.3151,-47.9301 58,-54 62.2947,-92.0629 61.4126,-136.188 60.0338,-165.243"/>
<polygon fill="black" stroke="black" points="56.5194,-165.427 59.4908,-175.596 63.5098,-165.793 56.5194,-165.427"/>
<text text-anchor="middle" x="64.5" y="-102.3" font-family="Times,serif" font-size="14.00">a</text>
</g>
<!-- 3&#45;&gt;3 -->
<g id="edge7" class="edge"><title>3&#45;&gt;3</title>
<path fill="none" stroke="black" d="M66.2903,-25.6679C76.3892,-27.5169 86,-24.9609 86,-18 86,-13.5406 82.0557,-10.8891 76.5656,-10.0454"/>
<polygon fill="black" stroke="black" points="76.1887,-6.55441 66.2903,-10.3321 76.384,-13.5517 76.1887,-6.55441"/>
<text text-anchor="middle" x="89.5" y="-14.3" font-family="Times,serif" font-size="14.00">b</text>
</g>
</g>
</svg>
