<?xml version="1.0" encoding="UTF-8" standalone="no"?>
<!DOCTYPE svg PUBLIC "-//W3C//DTD SVG 1.1//EN"
 "http://www.w3.org/Graphics/SVG/1.1/DTD/svg11.dtd">
<!-- Generated by graphviz version 2.36.0 (20140111.2315)
 -->
<!-- Title: %3 Pages: 1 -->
<svg width="141pt" height="316pt"
 viewBox="0.00 0.00 141.00 316.00" xmlns="http://www.w3.org/2000/svg" xmlns:xlink="http://www.w3.org/1999/xlink">
<g id="graph0" class="graph" transform="scale(1 1) rotate(0) translate(4 312)">
<title>%3</title>
<polygon fill="white" stroke="none" points="-4,4 -4,-312 137,-312 137,4 -4,4"/>
<!-- 0 -->
<g id="node1" class="node"><title>0</title>
<ellipse fill="lightblue" stroke="black" cx="72" cy="-286" rx="17.5909" ry="18"/>
<ellipse fill="none" stroke="black" cx="72" cy="-286" rx="21.5" ry="22"/>
<text text-anchor="middle" x="72" y="-282.3" font-family="Times,serif" font-size="14.00">0</text>
</g>
<!-- 0&#45;&gt;0 -->
<g id="edge1" class="edge"><title>0&#45;&gt;0</title>
<path fill="none" stroke="black" d="M92.0663,-294.734C102.074,-295.943 111,-293.031 111,-286 111,-281.496 107.337,-278.682 102.072,-277.559"/>
<polygon fill="black" stroke="black" points="102.165,-274.061 92.0663,-277.266 101.959,-281.057 102.165,-274.061"/>
<text text-anchor="middle" x="114.5" y="-282.3" font-family="Times,serif" font-size="14.00">b</text>
</g>
<!-- 2 -->
<g id="node3" class="node"><title>2</title>
<ellipse fill="green" stroke="black" cx="18" cy="-194" rx="18" ry="18"/>
<text text-anchor="middle" x="18" y="-190.3" font-family="Times,serif" font-size="14.00">2</text>
</g>
<!-- 0&#45;&gt;2 -->
<g id="edge2" class="edge"><title>0&#45;&gt;2</title>
<path fill="none" stroke="black" d="M61.0723,-266.787C52.7523,-252.921 41.231,-233.718 32.1976,-218.663"/>
<polygon fill="black" stroke="black" points="35.0916,-216.683 26.9454,-209.909 29.0892,-220.285 35.0916,-216.683"/>
<text text-anchor="middle" x="52.5" y="-234.3" font-family="Times,serif" font-size="14.00">a</text>
</g>
<!-- 1 -->
<g id="node2" class="node"><title>1</title>
<ellipse fill="lightblue" stroke="black" cx="90" cy="-18" rx="18" ry="18"/>
<text text-anchor="middle" x="90" y="-14.3" font-family="Times,serif" font-size="14.00">1</text>
</g>
<!-- 1&#45;&gt;0 -->
<g id="edge3" class="edge"><title>1&#45;&gt;0</title>
<path fill="none" stroke="black" d="M90.9488,-36.2254C92.7253,-74.3267 95.3406,-168.514 83,-246 82.5177,-249.029 81.8806,-252.157 81.1555,-255.263"/>
<polygon fill="black" stroke="black" points="77.7638,-254.399 78.6211,-264.959 84.5363,-256.169 77.7638,-254.399"/>
<text text-anchor="middle" x="94.5" y="-146.3" font-family="Times,serif" font-size="14.00">b</text>
</g>
<!-- 1&#45;&gt;1 -->
<g id="edge4" class="edge"><title>1&#45;&gt;1</title>
<path fill="none" stroke="black" d="M106.29,-25.6679C116.389,-27.5169 126,-24.9609 126,-18 126,-13.5406 122.056,-10.8891 116.566,-10.0454"/>
<polygon fill="black" stroke="black" points="116.189,-6.55441 106.29,-10.3321 116.384,-13.5517 116.189,-6.55441"/>
<text text-anchor="middle" x="129.5" y="-14.3" font-family="Times,serif" font-size="14.00">a</text>
</g>
<!-- 3 -->
<g id="node4" class="node"><title>3</title>
<ellipse fill="lightblue" stroke="black" cx="61" cy="-106" rx="18" ry="18"/>
<text text-anchor="middle" x="61" y="-102.3" font-family="Times,serif" font-size="14.00">3</text>
</g>
<!-- 2&#45;&gt;3 -->
<g id="edge5" class="edge"><title>2&#45;&gt;3</title>
<path fill="none" stroke="black" d="M24.6648,-177.192C29.0646,-167.026 35.0892,-153.596 41,-142 42.8772,-138.317 44.9528,-134.471 47.0353,-130.732"/>
<polygon fill="black" stroke="black" points="50.2062,-132.237 52.1171,-121.816 44.1246,-128.771 50.2062,-132.237"/>
<text text-anchor="middle" x="49.5" y="-146.3" font-family="Times,serif" font-size="14.00">b,a</text>
</g>
<!-- 3&#45;&gt;0 -->
<g id="edge6" class="edge"><title>3&#45;&gt;0</title>
<path fill="none" stroke="black" d="M62.0576,-124.114C63.8989,-153.909 67.7191,-215.727 70.0512,-253.464"/>
<polygon fill="black" stroke="black" points="66.5847,-254.117 70.695,-263.882 73.5714,-253.685 66.5847,-254.117"/>
<text text-anchor="middle" x="70.5" y="-190.3" font-family="Times,serif" font-size="14.00">a</text>
</g>
<!-- 3&#45;&gt;1 -->
<g id="edge7" class="edge"><title>3&#45;&gt;1</title>
<path fill="none" stroke="black" d="M66.4547,-88.8241C70.6004,-76.5299 76.3885,-59.365 81.1884,-45.1309"/>
<polygon fill="black" stroke="black" points="84.5923,-45.99 84.4712,-35.3958 77.9593,-43.7532 84.5923,-45.99"/>
<text text-anchor="middle" x="81.5" y="-58.3" font-family="Times,serif" font-size="14.00">b</text>
</g>
</g>
</svg>
