<?xml version="1.0" encoding="UTF-8" standalone="no"?>
<!DOCTYPE svg PUBLIC "-//W3C//DTD SVG 1.1//EN"
 "http://www.w3.org/Graphics/SVG/1.1/DTD/svg11.dtd">
<!-- Generated by graphviz version 2.36.0 (20140111.2315)
 -->
<!-- Title: %3 Pages: 1 -->
<svg width="167pt" height="316pt"
 viewBox="0.00 0.00 167.13 316.00" xmlns="http://www.w3.org/2000/svg" xmlns:xlink="http://www.w3.org/1999/xlink">
<g id="graph0" class="graph" transform="scale(1 1) rotate(0) translate(4 312)">
<title>%3</title>
<polygon fill="white" stroke="none" points="-4,4 -4,-312 163.131,-312 163.131,4 -4,4"/>
<!-- 0 -->
<g id="node1" class="node"><title>0</title>
<ellipse fill="green" stroke="black" cx="42.1312" cy="-286" rx="17.5909" ry="18"/>
<ellipse fill="none" stroke="black" cx="42.1312" cy="-286" rx="21.5" ry="22"/>
<text text-anchor="middle" x="42.1312" y="-282.3" font-family="Times,serif" font-size="14.00">0</text>
</g>
<!-- 3 -->
<g id="node4" class="node"><title>3</title>
<ellipse fill="lightblue" stroke="black" cx="42.1312" cy="-194" rx="18" ry="18"/>
<text text-anchor="middle" x="42.1312" y="-190.3" font-family="Times,serif" font-size="14.00">3</text>
</g>
<!-- 0&#45;&gt;3 -->
<g id="edge1" class="edge"><title>0&#45;&gt;3</title>
<path fill="none" stroke="black" d="M42.1312,-263.671C42.1312,-251.284 42.1312,-235.552 42.1312,-222.272"/>
<polygon fill="black" stroke="black" points="45.6313,-222.258 42.1312,-212.258 38.6313,-222.258 45.6313,-222.258"/>
<text text-anchor="middle" x="50.6312" y="-234.3" font-family="Times,serif" font-size="14.00">b,a</text>
</g>
<!-- 1 -->
<g id="node2" class="node"><title>1</title>
<ellipse fill="lightblue" stroke="black" cx="141.131" cy="-286" rx="18" ry="18"/>
<text text-anchor="middle" x="141.131" y="-282.3" font-family="Times,serif" font-size="14.00">1</text>
</g>
<!-- 2 -->
<g id="node3" class="node"><title>2</title>
<ellipse fill="lightblue" stroke="black" cx="91.1312" cy="-106" rx="18" ry="18"/>
<text text-anchor="middle" x="91.1312" y="-102.3" font-family="Times,serif" font-size="14.00">2</text>
</g>
<!-- 1&#45;&gt;2 -->
<g id="edge2" class="edge"><title>1&#45;&gt;2</title>
<path fill="none" stroke="black" d="M136.517,-268.573C127.832,-237.656 108.993,-170.586 98.5227,-133.314"/>
<polygon fill="black" stroke="black" points="101.881,-132.327 95.807,-123.646 95.1418,-134.22 101.881,-132.327"/>
<text text-anchor="middle" x="123.631" y="-190.3" font-family="Times,serif" font-size="14.00">b</text>
</g>
<!-- 1&#45;&gt;3 -->
<g id="edge3" class="edge"><title>1&#45;&gt;3</title>
<path fill="none" stroke="black" d="M128.189,-273.234C111.513,-258.074 82.3307,-231.545 62.6249,-213.631"/>
<polygon fill="black" stroke="black" points="64.8307,-210.906 55.0769,-206.769 60.122,-216.085 64.8307,-210.906"/>
<text text-anchor="middle" x="100.631" y="-234.3" font-family="Times,serif" font-size="14.00">a</text>
</g>
<!-- 2&#45;&gt;0 -->
<g id="edge4" class="edge"><title>2&#45;&gt;0</title>
<path fill="none" stroke="black" d="M89.3453,-124.131C86.1971,-150.818 78.4873,-203.65 63.1312,-246 61.6862,-249.985 59.8898,-254.063 57.9603,-258.007"/>
<polygon fill="black" stroke="black" points="54.8596,-256.384 53.3194,-266.866 61.0602,-259.632 54.8596,-256.384"/>
<text text-anchor="middle" x="84.6312" y="-190.3" font-family="Times,serif" font-size="14.00">a</text>
</g>
<!-- 4 -->
<g id="node5" class="node"><title>4</title>
<ellipse fill="lightblue" stroke="black" cx="20.1312" cy="-18" rx="18" ry="18"/>
<text text-anchor="middle" x="20.1312" y="-14.3" font-family="Times,serif" font-size="14.00">4</text>
</g>
<!-- 2&#45;&gt;4 -->
<g id="edge5" class="edge"><title>2&#45;&gt;4</title>
<path fill="none" stroke="black" d="M82.0541,-90.1555C75.3809,-79.6693 65.8219,-65.4942 56.1312,-54 51.4501,-48.4477 46.0031,-42.8024 40.7844,-37.7126"/>
<polygon fill="black" stroke="black" points="43.0828,-35.0687 33.4176,-30.7287 38.2667,-40.1487 43.0828,-35.0687"/>
<text text-anchor="middle" x="70.6312" y="-58.3" font-family="Times,serif" font-size="14.00">b</text>
</g>
<!-- 3&#45;&gt;2 -->
<g id="edge6" class="edge"><title>3&#45;&gt;2</title>
<path fill="none" stroke="black" d="M50.6664,-178.02C58.0688,-165.028 68.9152,-145.991 77.5156,-130.897"/>
<polygon fill="black" stroke="black" points="80.62,-132.518 82.5295,-122.097 74.5379,-129.053 80.62,-132.518"/>
<text text-anchor="middle" x="73.6312" y="-146.3" font-family="Times,serif" font-size="14.00">a</text>
</g>
<!-- 3&#45;&gt;4 -->
<g id="edge7" class="edge"><title>3&#45;&gt;4</title>
<path fill="none" stroke="black" d="M33.7334,-177.944C26.6515,-164.329 17.0603,-143.489 13.1312,-124 7.84949,-97.8013 10.8897,-67.2584 14.4657,-45.8907"/>
<polygon fill="black" stroke="black" points="17.9347,-46.3773 16.2866,-35.9114 11.0484,-45.1207 17.9347,-46.3773"/>
<text text-anchor="middle" x="16.6312" y="-102.3" font-family="Times,serif" font-size="14.00">b</text>
</g>
<!-- 4&#45;&gt;0 -->
<g id="edge8" class="edge"><title>4&#45;&gt;0</title>
<path fill="none" stroke="black" d="M13.474,-35.11C11.3627,-40.9569 9.28031,-47.68 8.13124,-54 -4.4426,-123.157 -1.68535,-143.75 15.1312,-212 18.7894,-226.846 24.4888,-242.831 29.7103,-256.046"/>
<polygon fill="black" stroke="black" points="26.5633,-257.599 33.5682,-265.548 33.049,-254.966 26.5633,-257.599"/>
<text text-anchor="middle" x="7.63124" y="-146.3" font-family="Times,serif" font-size="14.00">b</text>
</g>
<!-- 4&#45;&gt;3 -->
<g id="edge9" class="edge"><title>4&#45;&gt;3</title>
<path fill="none" stroke="black" d="M23.7853,-35.6804C24.9671,-41.4617 26.209,-47.9976 27.1312,-54 33.0534,-92.5461 37.4505,-137.461 39.904,-165.567"/>
<polygon fill="black" stroke="black" points="36.4409,-166.15 40.7773,-175.816 43.4156,-165.555 36.4409,-166.15"/>
<text text-anchor="middle" x="38.6312" y="-102.3" font-family="Times,serif" font-size="14.00">a</text>
</g>
</g>
</svg>
