<?xml version="1.0" encoding="UTF-8" standalone="no"?>
<!DOCTYPE svg PUBLIC "-//W3C//DTD SVG 1.1//EN"
 "http://www.w3.org/Graphics/SVG/1.1/DTD/svg11.dtd">
<!-- Generated by graphviz version 2.36.0 (20140111.2315)
 -->
<!-- Title: %3 Pages: 1 -->
<svg width="158pt" height="228pt"
 viewBox="0.00 0.00 158.00 228.00" xmlns="http://www.w3.org/2000/svg" xmlns:xlink="http://www.w3.org/1999/xlink">
<g id="graph0" class="graph" transform="scale(1 1) rotate(0) translate(4 224)">
<title>%3</title>
<polygon fill="white" stroke="none" points="-4,4 -4,-224 154,-224 154,4 -4,4"/>
<!-- 0 -->
<g id="node1" class="node"><title>0</title>
<ellipse fill="lightblue" stroke="black" cx="18" cy="-110" rx="18" ry="18"/>
<text text-anchor="middle" x="18" y="-106.3" font-family="Times,serif" font-size="14.00">0</text>
</g>
<!-- 2 -->
<g id="node3" class="node"><title>2</title>
<ellipse fill="lightblue" stroke="black" cx="65" cy="-18" rx="18" ry="18"/>
<text text-anchor="middle" x="65" y="-14.3" font-family="Times,serif" font-size="14.00">2</text>
</g>
<!-- 0&#45;&gt;2 -->
<g id="edge1" class="edge"><title>0&#45;&gt;2</title>
<path fill="none" stroke="black" d="M10.7312,-93.1392C6.58919,-81.6196 3.40661,-66.011 10,-54 16.2344,-42.643 27.89,-34.4446 38.8722,-28.8508"/>
<polygon fill="black" stroke="black" points="40.5549,-31.9301 48.1967,-24.5916 37.6465,-25.5629 40.5549,-31.9301"/>
<text text-anchor="middle" x="18.5" y="-58.3" font-family="Times,serif" font-size="14.00">b,a</text>
</g>
<!-- 1 -->
<g id="node2" class="node"><title>1</title>
<ellipse fill="green" stroke="black" cx="101" cy="-202" rx="18" ry="18"/>
<text text-anchor="middle" x="101" y="-198.3" font-family="Times,serif" font-size="14.00">1</text>
</g>
<!-- 1&#45;&gt;2 -->
<g id="edge2" class="edge"><title>1&#45;&gt;2</title>
<path fill="none" stroke="black" d="M97.6777,-184.204C91.409,-152.512 77.7911,-83.6661 70.2644,-45.6147"/>
<polygon fill="black" stroke="black" points="73.6882,-44.8861 68.3142,-35.7553 66.8213,-46.2444 73.6882,-44.8861"/>
<text text-anchor="middle" x="91.5" y="-106.3" font-family="Times,serif" font-size="14.00">b</text>
</g>
<!-- 3 -->
<g id="node4" class="node"><title>3</title>
<ellipse fill="lightblue" stroke="black" cx="128" cy="-110" rx="17.5909" ry="18"/>
<ellipse fill="none" stroke="black" cx="128" cy="-110" rx="21.5" ry="22"/>
<text text-anchor="middle" x="128" y="-106.3" font-family="Times,serif" font-size="14.00">3</text>
</g>
<!-- 1&#45;&gt;3 -->
<g id="edge3" class="edge"><title>1&#45;&gt;3</title>
<path fill="none" stroke="black" d="M105.952,-184.493C109.614,-172.288 114.7,-155.333 119.065,-140.784"/>
<polygon fill="black" stroke="black" points="122.424,-141.768 121.945,-131.184 115.719,-139.756 122.424,-141.768"/>
<text text-anchor="middle" x="119.5" y="-154.3" font-family="Times,serif" font-size="14.00">a</text>
</g>
<!-- 2&#45;&gt;0 -->
<g id="edge4" class="edge"><title>2&#45;&gt;0</title>
<path fill="none" stroke="black" d="M56.988,-34.3422C49.8181,-48.0717 39.1806,-68.4415 30.8274,-84.437"/>
<polygon fill="black" stroke="black" points="27.4996,-83.2484 25.9729,-93.7327 33.7044,-86.4888 27.4996,-83.2484"/>
<text text-anchor="middle" x="54.5" y="-58.3" font-family="Times,serif" font-size="14.00">b,a</text>
</g>
<!-- 3&#45;&gt;2 -->
<g id="edge5" class="edge"><title>3&#45;&gt;2</title>
<path fill="none" stroke="black" d="M117.895,-90.4262C111.713,-79.528 103.399,-65.6533 95,-54 91.5489,-49.2118 87.5964,-44.2777 83.7178,-39.6791"/>
<polygon fill="black" stroke="black" points="86.1377,-37.1275 76.9405,-31.868 80.8505,-41.715 86.1377,-37.1275"/>
<text text-anchor="middle" x="112.5" y="-58.3" font-family="Times,serif" font-size="14.00">b,a</text>
</g>
</g>
</svg>
