<?xml version="1.0" encoding="UTF-8" standalone="no"?>
<!DOCTYPE svg PUBLIC "-//W3C//DTD SVG 1.1//EN"
 "http://www.w3.org/Graphics/SVG/1.1/DTD/svg11.dtd">
<!-- Generated by graphviz version 2.36.0 (20140111.2315)
 -->
<!-- Title: %3 Pages: 1 -->
<svg width="165pt" height="228pt"
 viewBox="0.00 0.00 165.00 228.00" xmlns="http://www.w3.org/2000/svg" xmlns:xlink="http://www.w3.org/1999/xlink">
<g id="graph0" class="graph" transform="scale(1 1) rotate(0) translate(4 224)">
<title>%3</title>
<polygon fill="white" stroke="none" points="-4,4 -4,-224 161,-224 161,4 -4,4"/>
<!-- 0 -->
<g id="node1" class="node"><title>0</title>
<ellipse fill="lightblue" stroke="black" cx="22" cy="-110" rx="17.5909" ry="18"/>
<ellipse fill="none" stroke="black" cx="22" cy="-110" rx="21.5" ry="22"/>
<text text-anchor="middle" x="22" y="-106.3" font-family="Times,serif" font-size="14.00">0</text>
</g>
<!-- 0&#45;&gt;0 -->
<g id="edge1" class="edge"><title>0&#45;&gt;0</title>
<path fill="none" stroke="black" d="M42.0663,-118.734C52.0736,-119.943 61,-117.031 61,-110 61,-105.496 57.3366,-102.682 52.0725,-101.559"/>
<polygon fill="black" stroke="black" points="52.1646,-98.0605 42.0663,-101.266 51.9594,-105.057 52.1646,-98.0605"/>
<text text-anchor="middle" x="64.5" y="-106.3" font-family="Times,serif" font-size="14.00">b</text>
</g>
<!-- 3 -->
<g id="node4" class="node"><title>3</title>
<ellipse fill="green" stroke="black" cx="61" cy="-18" rx="18" ry="18"/>
<text text-anchor="middle" x="61" y="-14.3" font-family="Times,serif" font-size="14.00">3</text>
</g>
<!-- 0&#45;&gt;3 -->
<g id="edge2" class="edge"><title>0&#45;&gt;3</title>
<path fill="none" stroke="black" d="M18.5894,-88.04C17.7811,-77.4041 18.2635,-64.5404 23,-54 26.2857,-46.6881 31.9088,-40.2157 37.8368,-34.8878"/>
<polygon fill="black" stroke="black" points="40.3381,-37.3667 45.9185,-28.3606 35.9398,-31.921 40.3381,-37.3667"/>
<text text-anchor="middle" x="31" y="-58.3" font-family="Times,serif" font-size="14.00">c,a</text>
</g>
<!-- 1 -->
<g id="node2" class="node"><title>1</title>
<ellipse fill="lightblue" stroke="black" cx="105" cy="-202" rx="18" ry="18"/>
<text text-anchor="middle" x="105" y="-198.3" font-family="Times,serif" font-size="14.00">1</text>
</g>
<!-- 1&#45;&gt;1 -->
<g id="edge3" class="edge"><title>1&#45;&gt;1</title>
<path fill="none" stroke="black" d="M121.29,-209.668C131.389,-211.517 141,-208.961 141,-202 141,-197.541 137.056,-194.889 131.566,-194.045"/>
<polygon fill="black" stroke="black" points="131.189,-190.554 121.29,-194.332 131.384,-197.552 131.189,-190.554"/>
<text text-anchor="middle" x="144.5" y="-198.3" font-family="Times,serif" font-size="14.00">c</text>
</g>
<!-- 2 -->
<g id="node3" class="node"><title>2</title>
<ellipse fill="lightblue" stroke="black" cx="105" cy="-110" rx="18" ry="18"/>
<text text-anchor="middle" x="105" y="-106.3" font-family="Times,serif" font-size="14.00">2</text>
</g>
<!-- 1&#45;&gt;2 -->
<g id="edge4" class="edge"><title>1&#45;&gt;2</title>
<path fill="none" stroke="black" d="M105,-183.647C105,-170.823 105,-153.108 105,-138.381"/>
<polygon fill="black" stroke="black" points="108.5,-138.3 105,-128.3 101.5,-138.3 108.5,-138.3"/>
<text text-anchor="middle" x="113.5" y="-154.3" font-family="Times,serif" font-size="14.00">b,a</text>
</g>
<!-- 2&#45;&gt;2 -->
<g id="edge5" class="edge"><title>2&#45;&gt;2</title>
<path fill="none" stroke="black" d="M121.29,-118.365C131.389,-120.382 141,-117.594 141,-110 141,-105.135 137.056,-102.243 131.566,-101.322"/>
<polygon fill="black" stroke="black" points="131.179,-97.8323 121.29,-101.635 131.392,-104.829 131.179,-97.8323"/>
<text text-anchor="middle" x="149" y="-106.3" font-family="Times,serif" font-size="14.00">c,a</text>
</g>
<!-- 2&#45;&gt;3 -->
<g id="edge6" class="edge"><title>2&#45;&gt;3</title>
<path fill="none" stroke="black" d="M97.3358,-93.3232C90.6479,-79.6435 80.8295,-59.5602 73.0843,-43.718"/>
<polygon fill="black" stroke="black" points="76.1129,-41.9438 68.5764,-34.4972 69.8242,-45.0183 76.1129,-41.9438"/>
<text text-anchor="middle" x="89.5" y="-58.3" font-family="Times,serif" font-size="14.00">b</text>
</g>
<!-- 3&#45;&gt;0 -->
<g id="edge7" class="edge"><title>3&#45;&gt;0</title>
<path fill="none" stroke="black" d="M54.0797,-35.0855C49.7548,-45.1277 44.0639,-58.3221 39,-70 37.5758,-73.2845 36.0814,-76.7232 34.5946,-80.1401"/>
<polygon fill="black" stroke="black" points="31.2737,-78.9999 30.4887,-89.5657 37.6912,-81.7955 31.2737,-78.9999"/>
<text text-anchor="middle" x="49.5" y="-58.3" font-family="Times,serif" font-size="14.00">a</text>
</g>
<!-- 3&#45;&gt;3 -->
<g id="edge8" class="edge"><title>3&#45;&gt;3</title>
<path fill="none" stroke="black" d="M77.2903,-25.6679C87.3892,-27.5169 97,-24.9609 97,-18 97,-13.5406 93.0557,-10.8891 87.5656,-10.0454"/>
<polygon fill="black" stroke="black" points="87.1887,-6.55441 77.2903,-10.3321 87.384,-13.5517 87.1887,-6.55441"/>
<text text-anchor="middle" x="105.5" y="-14.3" font-family="Times,serif" font-size="14.00">b,c</text>
</g>
</g>
</svg>
