<?xml version="1.0" encoding="UTF-8" standalone="no"?>
<!DOCTYPE svg PUBLIC "-//W3C//DTD SVG 1.1//EN"
 "http://www.w3.org/Graphics/SVG/1.1/DTD/svg11.dtd">
<!-- Generated by graphviz version 2.36.0 (20140111.2315)
 -->
<!-- Title: %3 Pages: 1 -->
<svg width="103pt" height="404pt"
 viewBox="0.00 0.00 103.00 404.00" xmlns="http://www.w3.org/2000/svg" xmlns:xlink="http://www.w3.org/1999/xlink">
<g id="graph0" class="graph" transform="scale(1 1) rotate(0) translate(4 400)">
<title>%3</title>
<polygon fill="white" stroke="none" points="-4,4 -4,-400 99,-400 99,4 -4,4"/>
<!-- 0 -->
<g id="node1" class="node"><title>0</title>
<ellipse fill="lightblue" stroke="black" cx="48" cy="-374" rx="17.5909" ry="18"/>
<ellipse fill="none" stroke="black" cx="48" cy="-374" rx="21.5" ry="22"/>
<text text-anchor="middle" x="48" y="-370.3" font-family="Times,serif" font-size="14.00">0</text>
</g>
<!-- 0&#45;&gt;0 -->
<g id="edge1" class="edge"><title>0&#45;&gt;0</title>
<path fill="none" stroke="black" d="M68.0663,-382.734C78.0736,-383.943 87,-381.031 87,-374 87,-369.496 83.3366,-366.682 78.0725,-365.559"/>
<polygon fill="black" stroke="black" points="78.1646,-362.061 68.0663,-365.266 77.9594,-369.057 78.1646,-362.061"/>
<text text-anchor="middle" x="90.5" y="-370.3" font-family="Times,serif" font-size="14.00">b</text>
</g>
<!-- 2 -->
<g id="node3" class="node"><title>2</title>
<ellipse fill="lightblue" stroke="black" cx="48" cy="-282" rx="18" ry="18"/>
<text text-anchor="middle" x="48" y="-278.3" font-family="Times,serif" font-size="14.00">2</text>
</g>
<!-- 0&#45;&gt;2 -->
<g id="edge2" class="edge"><title>0&#45;&gt;2</title>
<path fill="none" stroke="black" d="M48,-351.671C48,-339.284 48,-323.552 48,-310.272"/>
<polygon fill="black" stroke="black" points="51.5001,-310.258 48,-300.258 44.5001,-310.258 51.5001,-310.258"/>
<text text-anchor="middle" x="51.5" y="-322.3" font-family="Times,serif" font-size="14.00">a</text>
</g>
<!-- 1 -->
<g id="node2" class="node"><title>1</title>
<ellipse fill="lightblue" stroke="black" cx="18" cy="-194" rx="18" ry="18"/>
<text text-anchor="middle" x="18" y="-190.3" font-family="Times,serif" font-size="14.00">1</text>
</g>
<!-- 1&#45;&gt;2 -->
<g id="edge3" class="edge"><title>1&#45;&gt;2</title>
<path fill="none" stroke="black" d="M23.6175,-211.103C27.9267,-223.457 33.9622,-240.758 38.9501,-255.057"/>
<polygon fill="black" stroke="black" points="35.7587,-256.535 42.3572,-264.824 42.3681,-254.229 35.7587,-256.535"/>
<text text-anchor="middle" x="38.5" y="-234.3" font-family="Times,serif" font-size="14.00">a</text>
</g>
<!-- 3 -->
<g id="node4" class="node"><title>3</title>
<ellipse fill="green" stroke="black" cx="49" cy="-106" rx="18" ry="18"/>
<text text-anchor="middle" x="49" y="-102.3" font-family="Times,serif" font-size="14.00">3</text>
</g>
<!-- 1&#45;&gt;3 -->
<g id="edge4" class="edge"><title>1&#45;&gt;3</title>
<path fill="none" stroke="black" d="M23.8309,-176.824C28.2907,-164.452 34.5287,-147.146 39.6786,-132.859"/>
<polygon fill="black" stroke="black" points="43.0968,-133.698 43.1953,-123.103 36.5115,-131.324 43.0968,-133.698"/>
<text text-anchor="middle" x="39.5" y="-146.3" font-family="Times,serif" font-size="14.00">b</text>
</g>
<!-- 2&#45;&gt;1 -->
<g id="edge5" class="edge"><title>2&#45;&gt;1</title>
<path fill="none" stroke="black" d="M35.6868,-268.848C30.1568,-262.581 24.1724,-254.482 21,-246 18.223,-238.575 17.0193,-230.119 16.6289,-222.256"/>
<polygon fill="black" stroke="black" points="20.1269,-222.019 16.5293,-212.054 13.1272,-222.088 20.1269,-222.019"/>
<text text-anchor="middle" x="24.5" y="-234.3" font-family="Times,serif" font-size="14.00">b</text>
</g>
<!-- 2&#45;&gt;3 -->
<g id="edge6" class="edge"><title>2&#45;&gt;3</title>
<path fill="none" stroke="black" d="M48.0977,-263.999C48.271,-233.853 48.6334,-170.79 48.8424,-134.43"/>
<polygon fill="black" stroke="black" points="52.3443,-134.09 48.9019,-124.07 45.3444,-134.049 52.3443,-134.09"/>
<text text-anchor="middle" x="51.5" y="-190.3" font-family="Times,serif" font-size="14.00">a</text>
</g>
<!-- 3&#45;&gt;1 -->
<g id="edge7" class="edge"><title>3&#45;&gt;1</title>
<path fill="none" stroke="black" d="M36.4781,-119.5C31.0435,-125.728 25.1999,-133.693 22,-142 19.1468,-149.407 17.7983,-157.859 17.2516,-165.722"/>
<polygon fill="black" stroke="black" points="13.7469,-165.825 16.9371,-175.928 20.7436,-166.04 13.7469,-165.825"/>
<text text-anchor="middle" x="25.5" y="-146.3" font-family="Times,serif" font-size="14.00">a</text>
</g>
<!-- 4 -->
<g id="node5" class="node"><title>4</title>
<ellipse fill="lightblue" stroke="black" cx="19" cy="-18" rx="18" ry="18"/>
<text text-anchor="middle" x="19" y="-14.3" font-family="Times,serif" font-size="14.00">4</text>
</g>
<!-- 3&#45;&gt;4 -->
<g id="edge8" class="edge"><title>3&#45;&gt;4</title>
<path fill="none" stroke="black" d="M43.3572,-88.8241C39.0413,-76.4516 33.0045,-59.1462 28.0207,-44.8593"/>
<polygon fill="black" stroke="black" points="31.216,-43.3926 24.6175,-35.1034 24.6066,-45.6982 31.216,-43.3926"/>
<text text-anchor="middle" x="39.5" y="-58.3" font-family="Times,serif" font-size="14.00">b</text>
</g>
<!-- 4&#45;&gt;1 -->
<g id="edge9" class="edge"><title>4&#45;&gt;1</title>
<path fill="none" stroke="black" d="M16.0715,-36.0378C15.2253,-41.731 14.4177,-48.1223 14,-54 10.7234,-100.106 11.3716,-111.853 14,-158 14.1461,-160.565 14.3519,-163.23 14.5939,-165.893"/>
<polygon fill="black" stroke="black" points="11.1244,-166.367 15.6569,-175.944 18.0856,-165.631 11.1244,-166.367"/>
<text text-anchor="middle" x="16.5" y="-102.3" font-family="Times,serif" font-size="14.00">a</text>
</g>
<!-- 4&#45;&gt;3 -->
<g id="edge10" class="edge"><title>4&#45;&gt;3</title>
<path fill="none" stroke="black" d="M17.5293,-36.0538C17.2502,-46.2176 17.9607,-59.2004 22,-70 23.9332,-75.1686 26.9106,-80.195 30.193,-84.7513"/>
<polygon fill="black" stroke="black" points="27.6997,-87.2366 36.6868,-92.8476 33.1602,-82.8568 27.6997,-87.2366"/>
<text text-anchor="middle" x="25.5" y="-58.3" font-family="Times,serif" font-size="14.00">b</text>
</g>
</g>
</svg>
