<?xml version="1.0" encoding="UTF-8" standalone="no"?>
<!DOCTYPE svg PUBLIC "-//W3C//DTD SVG 1.1//EN"
 "http://www.w3.org/Graphics/SVG/1.1/DTD/svg11.dtd">
<!-- Generated by graphviz version 2.36.0 (20140111.2315)
 -->
<!-- Title: %3 Pages: 1 -->
<svg width="136pt" height="228pt"
 viewBox="0.00 0.00 136.00 228.00" xmlns="http://www.w3.org/2000/svg" xmlns:xlink="http://www.w3.org/1999/xlink">
<g id="graph0" class="graph" transform="scale(1 1) rotate(0) translate(4 224)">
<title>%3</title>
<polygon fill="white" stroke="none" points="-4,4 -4,-224 132,-224 132,4 -4,4"/>
<!-- 0 -->
<g id="node1" class="node"><title>0</title>
<ellipse fill="lightblue" stroke="black" cx="21" cy="-114" rx="18" ry="18"/>
<text text-anchor="middle" x="21" y="-110.3" font-family="Times,serif" font-size="14.00">0</text>
</g>
<!-- 0&#45;&gt;0 -->
<g id="edge1" class="edge"><title>0&#45;&gt;0</title>
<path fill="none" stroke="black" d="M37.2903,-121.668C47.3892,-123.517 57,-120.961 57,-114 57,-109.541 53.0557,-106.889 47.5656,-106.045"/>
<polygon fill="black" stroke="black" points="47.1887,-102.554 37.2903,-106.332 47.384,-109.552 47.1887,-102.554"/>
<text text-anchor="middle" x="60.5" y="-110.3" font-family="Times,serif" font-size="14.00">a</text>
</g>
<!-- 3 -->
<g id="node4" class="node"><title>3</title>
<ellipse fill="green" stroke="black" cx="21" cy="-22" rx="17.5909" ry="18"/>
<ellipse fill="none" stroke="black" cx="21" cy="-22" rx="21.5" ry="22"/>
<text text-anchor="middle" x="21" y="-18.3" font-family="Times,serif" font-size="14.00">3</text>
</g>
<!-- 0&#45;&gt;3 -->
<g id="edge2" class="edge"><title>0&#45;&gt;3</title>
<path fill="none" stroke="black" d="M14.3664,-97.2577C12.201,-91.3321 10.0772,-84.4629 9,-78 7.59501,-69.57 8.55001,-60.4818 10.4167,-52.1686"/>
<polygon fill="black" stroke="black" points="13.7966,-53.0774 13.0484,-42.509 7.04274,-51.2373 13.7966,-53.0774"/>
<text text-anchor="middle" x="12.5" y="-66.3" font-family="Times,serif" font-size="14.00">b</text>
</g>
<!-- 1 -->
<g id="node2" class="node"><title>1</title>
<ellipse fill="lightblue" stroke="black" cx="75" cy="-202" rx="18" ry="18"/>
<text text-anchor="middle" x="75" y="-198.3" font-family="Times,serif" font-size="14.00">1</text>
</g>
<!-- 1&#45;&gt;1 -->
<g id="edge3" class="edge"><title>1&#45;&gt;1</title>
<path fill="none" stroke="black" d="M91.2903,-209.668C101.389,-211.517 111,-208.961 111,-202 111,-197.541 107.056,-194.889 101.566,-194.045"/>
<polygon fill="black" stroke="black" points="101.189,-190.554 91.2903,-194.332 101.384,-197.552 101.189,-190.554"/>
<text text-anchor="middle" x="119.5" y="-198.3" font-family="Times,serif" font-size="14.00">b,a</text>
</g>
<!-- 2 -->
<g id="node3" class="node"><title>2</title>
<ellipse fill="lightblue" stroke="black" cx="21" cy="-202" rx="18" ry="18"/>
<text text-anchor="middle" x="21" y="-198.3" font-family="Times,serif" font-size="14.00">2</text>
</g>
<!-- 2&#45;&gt;0 -->
<g id="edge4" class="edge"><title>2&#45;&gt;0</title>
<path fill="none" stroke="black" d="M21,-183.597C21,-171.746 21,-155.817 21,-142.292"/>
<polygon fill="black" stroke="black" points="24.5001,-142.084 21,-132.084 17.5001,-142.084 24.5001,-142.084"/>
<text text-anchor="middle" x="29.5" y="-154.3" font-family="Times,serif" font-size="14.00">b,a</text>
</g>
<!-- 3&#45;&gt;0 -->
<g id="edge5" class="edge"><title>3&#45;&gt;0</title>
<path fill="none" stroke="black" d="M21,-44.101C21,-56.4798 21,-72.2575 21,-85.5903"/>
<polygon fill="black" stroke="black" points="17.5001,-85.6471 21,-95.6471 24.5001,-85.6471 17.5001,-85.6471"/>
<text text-anchor="middle" x="29.5" y="-66.3" font-family="Times,serif" font-size="14.00">b,a</text>
</g>
</g>
</svg>
