<?xml version="1.0" encoding="UTF-8" standalone="no"?>
<!DOCTYPE svg PUBLIC "-//W3C//DTD SVG 1.1//EN"
 "http://www.w3.org/Graphics/SVG/1.1/DTD/svg11.dtd">
<!-- Generated by graphviz version 2.36.0 (20140111.2315)
 -->
<!-- Title: %3 Pages: 1 -->
<svg width="131pt" height="228pt"
 viewBox="0.00 0.00 131.00 228.00" xmlns="http://www.w3.org/2000/svg" xmlns:xlink="http://www.w3.org/1999/xlink">
<g id="graph0" class="graph" transform="scale(1 1) rotate(0) translate(4 224)">
<title>%3</title>
<polygon fill="white" stroke="none" points="-4,4 -4,-224 127,-224 127,4 -4,4"/>
<!-- 0 -->
<g id="node1" class="node"><title>0</title>
<ellipse fill="lightblue" stroke="black" cx="22" cy="-202" rx="18" ry="18"/>
<text text-anchor="middle" x="22" y="-198.3" font-family="Times,serif" font-size="14.00">0</text>
</g>
<!-- 1 -->
<g id="node2" class="node"><title>1</title>
<ellipse fill="lightblue" stroke="black" cx="22" cy="-110" rx="17.5909" ry="18"/>
<ellipse fill="none" stroke="black" cx="22" cy="-110" rx="21.5" ry="22"/>
<text text-anchor="middle" x="22" y="-106.3" font-family="Times,serif" font-size="14.00">1</text>
</g>
<!-- 0&#45;&gt;1 -->
<g id="edge1" class="edge"><title>0&#45;&gt;1</title>
<path fill="none" stroke="black" d="M22,-183.647C22,-171.924 22,-156.114 22,-142.237"/>
<polygon fill="black" stroke="black" points="25.5001,-142.101 22,-132.101 18.5001,-142.101 25.5001,-142.101"/>
<text text-anchor="middle" x="30.5" y="-154.3" font-family="Times,serif" font-size="14.00">b,a</text>
</g>
<!-- 3 -->
<g id="node4" class="node"><title>3</title>
<ellipse fill="lightblue" stroke="black" cx="50" cy="-18" rx="18" ry="18"/>
<text text-anchor="middle" x="50" y="-14.3" font-family="Times,serif" font-size="14.00">3</text>
</g>
<!-- 1&#45;&gt;3 -->
<g id="edge2" class="edge"><title>1&#45;&gt;3</title>
<path fill="none" stroke="black" d="M26.555,-88.4439C29.0331,-78.03 32.3382,-65.2424 36,-54 37.0337,-50.8264 38.2111,-47.5282 39.4341,-44.281"/>
<polygon fill="black" stroke="black" points="42.7333,-45.455 43.1409,-34.868 36.2201,-42.8901 42.7333,-45.455"/>
<text text-anchor="middle" x="44.5" y="-58.3" font-family="Times,serif" font-size="14.00">b,a</text>
</g>
<!-- 2 -->
<g id="node3" class="node"><title>2</title>
<ellipse fill="green" stroke="black" cx="80" cy="-110" rx="18" ry="18"/>
<text text-anchor="middle" x="80" y="-106.3" font-family="Times,serif" font-size="14.00">2</text>
</g>
<!-- 2&#45;&gt;2 -->
<g id="edge3" class="edge"><title>2&#45;&gt;2</title>
<path fill="none" stroke="black" d="M96.2903,-118.365C106.389,-120.382 116,-117.594 116,-110 116,-105.135 112.056,-102.243 106.566,-101.322"/>
<polygon fill="black" stroke="black" points="106.179,-97.8323 96.2903,-101.635 106.392,-104.829 106.179,-97.8323"/>
<text text-anchor="middle" x="119.5" y="-106.3" font-family="Times,serif" font-size="14.00">b</text>
</g>
<!-- 2&#45;&gt;3 -->
<g id="edge4" class="edge"><title>2&#45;&gt;3</title>
<path fill="none" stroke="black" d="M74.4975,-92.4926C70.0995,-79.2985 63.851,-60.5529 58.7655,-45.2964"/>
<polygon fill="black" stroke="black" points="61.9503,-43.7828 55.4676,-35.4027 55.3095,-45.9964 61.9503,-43.7828"/>
<text text-anchor="middle" x="69.5" y="-58.3" font-family="Times,serif" font-size="14.00">a</text>
</g>
<!-- 3&#45;&gt;3 -->
<g id="edge5" class="edge"><title>3&#45;&gt;3</title>
<path fill="none" stroke="black" d="M66.2903,-25.6679C76.3892,-27.5169 86,-24.9609 86,-18 86,-13.5406 82.0557,-10.8891 76.5656,-10.0454"/>
<polygon fill="black" stroke="black" points="76.1887,-6.55441 66.2903,-10.3321 76.384,-13.5517 76.1887,-6.55441"/>
<text text-anchor="middle" x="94.5" y="-14.3" font-family="Times,serif" font-size="14.00">b,a</text>
</g>
</g>
</svg>
