<?xml version="1.0" encoding="UTF-8" standalone="no"?>
<!DOCTYPE svg PUBLIC "-//W3C//DTD SVG 1.1//EN"
 "http://www.w3.org/Graphics/SVG/1.1/DTD/svg11.dtd">
<!-- Generated by graphviz version 2.36.0 (20140111.2315)
 -->
<!-- Title: %3 Pages: 1 -->
<svg width="172pt" height="316pt"
 viewBox="0.00 0.00 172.00 316.00" xmlns="http://www.w3.org/2000/svg" xmlns:xlink="http://www.w3.org/1999/xlink">
<g id="graph0" class="graph" transform="scale(1 1) rotate(0) translate(4 312)">
<title>%3</title>
<polygon fill="white" stroke="none" points="-4,4 -4,-312 168,-312 168,4 -4,4"/>
<!-- 0 -->
<g id="node1" class="node"><title>0</title>
<ellipse fill="lightblue" stroke="black" cx="62" cy="-202" rx="18" ry="18"/>
<text text-anchor="middle" x="62" y="-198.3" font-family="Times,serif" font-size="14.00">0</text>
</g>
<!-- 1 -->
<g id="node2" class="node"><title>1</title>
<ellipse fill="green" stroke="black" cx="18" cy="-110" rx="18" ry="18"/>
<text text-anchor="middle" x="18" y="-106.3" font-family="Times,serif" font-size="14.00">1</text>
</g>
<!-- 0&#45;&gt;1 -->
<g id="edge1" class="edge"><title>0&#45;&gt;1</title>
<path fill="none" stroke="black" d="M46.2931,-192.509C36.848,-186.472 25.6032,-177.418 20,-166 15.8854,-157.615 14.6214,-147.615 14.631,-138.455"/>
<polygon fill="black" stroke="black" points="18.138,-138.395 15.1328,-128.235 11.1464,-138.052 18.138,-138.395"/>
<text text-anchor="middle" x="23.5" y="-154.3" font-family="Times,serif" font-size="14.00">a</text>
</g>
<!-- 3 -->
<g id="node4" class="node"><title>3</title>
<ellipse fill="lightblue" stroke="black" cx="76" cy="-110" rx="17.5909" ry="18"/>
<ellipse fill="none" stroke="black" cx="76" cy="-110" rx="21.5" ry="22"/>
<text text-anchor="middle" x="76" y="-106.3" font-family="Times,serif" font-size="14.00">3</text>
</g>
<!-- 0&#45;&gt;3 -->
<g id="edge2" class="edge"><title>0&#45;&gt;3</title>
<path fill="none" stroke="black" d="M64.6333,-184.072C66.4637,-172.305 68.9575,-156.273 71.1428,-142.225"/>
<polygon fill="black" stroke="black" points="74.659,-142.391 72.7378,-131.971 67.7422,-141.315 74.659,-142.391"/>
<text text-anchor="middle" x="72.5" y="-154.3" font-family="Times,serif" font-size="14.00">b</text>
</g>
<!-- 1&#45;&gt;0 -->
<g id="edge3" class="edge"><title>1&#45;&gt;0</title>
<path fill="none" stroke="black" d="M25.5764,-126.497C32.2367,-140.12 42.0504,-160.194 49.8136,-176.073"/>
<polygon fill="black" stroke="black" points="46.7993,-177.877 54.3358,-185.323 53.088,-174.802 46.7993,-177.877"/>
<text text-anchor="middle" x="46.5" y="-154.3" font-family="Times,serif" font-size="14.00">a</text>
</g>
<!-- 4 -->
<g id="node5" class="node"><title>4</title>
<ellipse fill="lightblue" stroke="black" cx="48" cy="-18" rx="18" ry="18"/>
<text text-anchor="middle" x="48" y="-14.3" font-family="Times,serif" font-size="14.00">4</text>
</g>
<!-- 1&#45;&gt;4 -->
<g id="edge4" class="edge"><title>1&#45;&gt;4</title>
<path fill="none" stroke="black" d="M16.3535,-91.6161C15.9238,-80.5179 16.5365,-66.0117 21,-54 22.9222,-48.8273 25.8947,-43.7991 29.1759,-39.2423"/>
<polygon fill="black" stroke="black" points="32.1431,-41.1368 35.671,-31.1466 26.6832,-36.7563 32.1431,-41.1368"/>
<text text-anchor="middle" x="24.5" y="-58.3" font-family="Times,serif" font-size="14.00">b</text>
</g>
<!-- 2 -->
<g id="node3" class="node"><title>2</title>
<ellipse fill="lightblue" stroke="black" cx="131" cy="-290" rx="18" ry="18"/>
<text text-anchor="middle" x="131" y="-286.3" font-family="Times,serif" font-size="14.00">2</text>
</g>
<!-- 2&#45;&gt;0 -->
<g id="edge5" class="edge"><title>2&#45;&gt;0</title>
<path fill="none" stroke="black" d="M120.219,-275.562C109.245,-261.885 92.0649,-240.472 79.2073,-224.447"/>
<polygon fill="black" stroke="black" points="81.9212,-222.236 72.9333,-216.627 76.4613,-226.617 81.9212,-222.236"/>
<text text-anchor="middle" x="105.5" y="-242.3" font-family="Times,serif" font-size="14.00">b</text>
</g>
<!-- 2&#45;&gt;4 -->
<g id="edge6" class="edge"><title>2&#45;&gt;4</title>
<path fill="none" stroke="black" d="M137.066,-272.771C149.346,-237.086 173.422,-150.044 142,-88 127.898,-60.1543 96.6847,-40.8213 74.0875,-29.8477"/>
<polygon fill="black" stroke="black" points="75.2519,-26.5306 64.7049,-25.5247 72.3226,-32.8882 75.2519,-26.5306"/>
<text text-anchor="middle" x="160.5" y="-154.3" font-family="Times,serif" font-size="14.00">a</text>
</g>
<!-- 3&#45;&gt;3 -->
<g id="edge7" class="edge"><title>3&#45;&gt;3</title>
<path fill="none" stroke="black" d="M96.0663,-118.734C106.074,-119.943 115,-117.031 115,-110 115,-105.496 111.337,-102.682 106.072,-101.559"/>
<polygon fill="black" stroke="black" points="106.165,-98.0605 96.0663,-101.266 105.959,-105.057 106.165,-98.0605"/>
<text text-anchor="middle" x="123.5" y="-106.3" font-family="Times,serif" font-size="14.00">b,a</text>
</g>
<!-- 4&#45;&gt;1 -->
<g id="edge8" class="edge"><title>4&#45;&gt;1</title>
<path fill="none" stroke="black" d="M42.5324,-35.4027C38.1442,-48.5674 31.8975,-67.3075 26.8059,-82.5824"/>
<polygon fill="black" stroke="black" points="23.3444,-81.899 23.5025,-92.4926 29.9852,-84.1126 23.3444,-81.899"/>
<text text-anchor="middle" x="38.5" y="-58.3" font-family="Times,serif" font-size="14.00">b</text>
</g>
<!-- 4&#45;&gt;4 -->
<g id="edge9" class="edge"><title>4&#45;&gt;4</title>
<path fill="none" stroke="black" d="M64.2903,-25.6679C74.3892,-27.5169 84,-24.9609 84,-18 84,-13.5406 80.0557,-10.8891 74.5656,-10.0454"/>
<polygon fill="black" stroke="black" points="74.1887,-6.55441 64.2903,-10.3321 74.384,-13.5517 74.1887,-6.55441"/>
<text text-anchor="middle" x="87.5" y="-14.3" font-family="Times,serif" font-size="14.00">a</text>
</g>
</g>
</svg>
