<?xml version="1.0" encoding="UTF-8" standalone="no"?>
<!DOCTYPE svg PUBLIC "-//W3C//DTD SVG 1.1//EN"
 "http://www.w3.org/Graphics/SVG/1.1/DTD/svg11.dtd">
<!-- Generated by graphviz version 2.36.0 (20140111.2315)
 -->
<!-- Title: %3 Pages: 1 -->
<svg width="181pt" height="228pt"
 viewBox="0.00 0.00 181.00 228.00" xmlns="http://www.w3.org/2000/svg" xmlns:xlink="http://www.w3.org/1999/xlink">
<g id="graph0" class="graph" transform="scale(1 1) rotate(0) translate(4 224)">
<title>%3</title>
<polygon fill="white" stroke="none" points="-4,4 -4,-224 177,-224 177,4 -4,4"/>
<!-- 0 -->
<g id="node1" class="node"><title>0</title>
<ellipse fill="lightblue" stroke="black" cx="60" cy="-198" rx="17.5909" ry="18"/>
<ellipse fill="none" stroke="black" cx="60" cy="-198" rx="21.5" ry="22"/>
<text text-anchor="middle" x="60" y="-194.3" font-family="Times,serif" font-size="14.00">0</text>
</g>
<!-- 2 -->
<g id="node3" class="node"><title>2</title>
<ellipse fill="green" stroke="black" cx="18" cy="-106" rx="18" ry="18"/>
<text text-anchor="middle" x="18" y="-102.3" font-family="Times,serif" font-size="14.00">2</text>
</g>
<!-- 0&#45;&gt;2 -->
<g id="edge1" class="edge"><title>0&#45;&gt;2</title>
<path fill="none" stroke="black" d="M41.3092,-187.024C30.8881,-180.339 18.8596,-170.477 13,-158 9.43666,-150.413 9.17351,-141.502 10.264,-133.27"/>
<polygon fill="black" stroke="black" points="13.718,-133.845 12.2227,-123.356 6.85074,-132.488 13.718,-133.845"/>
<text text-anchor="middle" x="16.5" y="-146.3" font-family="Times,serif" font-size="14.00">a</text>
</g>
<!-- 3 -->
<g id="node4" class="node"><title>3</title>
<ellipse fill="lightblue" stroke="black" cx="76" cy="-106" rx="18" ry="18"/>
<text text-anchor="middle" x="76" y="-102.3" font-family="Times,serif" font-size="14.00">3</text>
</g>
<!-- 0&#45;&gt;3 -->
<g id="edge2" class="edge"><title>0&#45;&gt;3</title>
<path fill="none" stroke="black" d="M63.7109,-176.126C65.9399,-163.588 68.7996,-147.502 71.1994,-134.003"/>
<polygon fill="black" stroke="black" points="74.7002,-134.307 73.0046,-123.849 67.8082,-133.082 74.7002,-134.307"/>
<text text-anchor="middle" x="73.5" y="-146.3" font-family="Times,serif" font-size="14.00">b</text>
</g>
<!-- 1 -->
<g id="node2" class="node"><title>1</title>
<ellipse fill="lightblue" stroke="black" cx="130" cy="-18" rx="18" ry="18"/>
<text text-anchor="middle" x="130" y="-14.3" font-family="Times,serif" font-size="14.00">1</text>
</g>
<!-- 1&#45;&gt;0 -->
<g id="edge3" class="edge"><title>1&#45;&gt;0</title>
<path fill="none" stroke="black" d="M133.237,-35.7344C136.585,-57.0888 139.831,-94.7608 128,-124 119.204,-145.739 100.69,-164.903 85.1987,-178.135"/>
<polygon fill="black" stroke="black" points="82.9547,-175.449 77.4408,-184.496 87.393,-180.862 82.9547,-175.449"/>
<text text-anchor="middle" x="138.5" y="-102.3" font-family="Times,serif" font-size="14.00">b</text>
</g>
<!-- 1&#45;&gt;1 -->
<g id="edge4" class="edge"><title>1&#45;&gt;1</title>
<path fill="none" stroke="black" d="M146.29,-25.6679C156.389,-27.5169 166,-24.9609 166,-18 166,-13.5406 162.056,-10.8891 156.566,-10.0454"/>
<polygon fill="black" stroke="black" points="156.189,-6.55441 146.29,-10.3321 156.384,-13.5517 156.189,-6.55441"/>
<text text-anchor="middle" x="169.5" y="-14.3" font-family="Times,serif" font-size="14.00">a</text>
</g>
<!-- 2&#45;&gt;0 -->
<g id="edge5" class="edge"><title>2&#45;&gt;0</title>
<path fill="none" stroke="black" d="M25.3549,-122.76C31.236,-135.363 39.6352,-153.361 46.6905,-168.48"/>
<polygon fill="black" stroke="black" points="43.6923,-170.332 51.0929,-177.913 50.0356,-167.371 43.6923,-170.332"/>
<text text-anchor="middle" x="50.5" y="-146.3" font-family="Times,serif" font-size="14.00">b,a</text>
</g>
<!-- 3&#45;&gt;1 -->
<g id="edge6" class="edge"><title>3&#45;&gt;1</title>
<path fill="none" stroke="black" d="M85.1604,-90.4113C93.3836,-77.315 105.603,-57.8546 115.21,-42.5548"/>
<polygon fill="black" stroke="black" points="118.441,-43.9904 120.795,-33.6603 112.513,-40.268 118.441,-43.9904"/>
<text text-anchor="middle" x="111.5" y="-58.3" font-family="Times,serif" font-size="14.00">a</text>
</g>
<!-- 3&#45;&gt;3 -->
<g id="edge7" class="edge"><title>3&#45;&gt;3</title>
<path fill="none" stroke="black" d="M92.2903,-113.668C102.389,-115.517 112,-112.961 112,-106 112,-101.541 108.056,-98.8891 102.566,-98.0454"/>
<polygon fill="black" stroke="black" points="102.189,-94.5544 92.2903,-98.3321 102.384,-101.552 102.189,-94.5544"/>
<text text-anchor="middle" x="115.5" y="-102.3" font-family="Times,serif" font-size="14.00">b</text>
</g>
</g>
</svg>
