<?xml version="1.0" encoding="UTF-8" standalone="no"?>
<!DOCTYPE svg PUBLIC "-//W3C//DTD SVG 1.1//EN"
 "http://www.w3.org/Graphics/SVG/1.1/DTD/svg11.dtd">
<!-- Generated by graphviz version 2.36.0 (20140111.2315)
 -->
<!-- Title: %3 Pages: 1 -->
<svg width="157pt" height="316pt"
 viewBox="0.00 0.00 157.00 316.00" xmlns="http://www.w3.org/2000/svg" xmlns:xlink="http://www.w3.org/1999/xlink">
<g id="graph0" class="graph" transform="scale(1 1) rotate(0) translate(4 312)">
<title>%3</title>
<polygon fill="white" stroke="none" points="-4,4 -4,-312 153,-312 153,4 -4,4"/>
<!-- 0 -->
<g id="node1" class="node"><title>0</title>
<ellipse fill="lightblue" stroke="black" cx="77" cy="-290" rx="18" ry="18"/>
<text text-anchor="middle" x="77" y="-286.3" font-family="Times,serif" font-size="14.00">0</text>
</g>
<!-- 0&#45;&gt;0 -->
<g id="edge1" class="edge"><title>0&#45;&gt;0</title>
<path fill="none" stroke="black" d="M93.2903,-297.668C103.389,-299.517 113,-296.961 113,-290 113,-285.541 109.056,-282.889 103.566,-282.045"/>
<polygon fill="black" stroke="black" points="103.189,-278.554 93.2903,-282.332 103.384,-285.552 103.189,-278.554"/>
<text text-anchor="middle" x="116.5" y="-286.3" font-family="Times,serif" font-size="14.00">a</text>
</g>
<!-- 1 -->
<g id="node2" class="node"><title>1</title>
<ellipse fill="lightblue" stroke="black" cx="18" cy="-202" rx="18" ry="18"/>
<text text-anchor="middle" x="18" y="-198.3" font-family="Times,serif" font-size="14.00">1</text>
</g>
<!-- 0&#45;&gt;1 -->
<g id="edge2" class="edge"><title>0&#45;&gt;1</title>
<path fill="none" stroke="black" d="M67.2573,-274.799C58.1191,-261.479 44.2996,-241.335 33.6218,-225.771"/>
<polygon fill="black" stroke="black" points="36.3004,-223.488 27.7571,-217.222 30.5282,-227.448 36.3004,-223.488"/>
<text text-anchor="middle" x="56.5" y="-242.3" font-family="Times,serif" font-size="14.00">b</text>
</g>
<!-- 1&#45;&gt;1 -->
<g id="edge3" class="edge"><title>1&#45;&gt;1</title>
<path fill="none" stroke="black" d="M34.2903,-209.668C44.3892,-211.517 54,-208.961 54,-202 54,-197.541 50.0557,-194.889 44.5656,-194.045"/>
<polygon fill="black" stroke="black" points="44.1887,-190.554 34.2903,-194.332 44.384,-197.552 44.1887,-190.554"/>
<text text-anchor="middle" x="57.5" y="-198.3" font-family="Times,serif" font-size="14.00">a</text>
</g>
<!-- 4 -->
<g id="node5" class="node"><title>4</title>
<ellipse fill="lightblue" stroke="black" cx="72" cy="-110" rx="17.5909" ry="18"/>
<ellipse fill="none" stroke="black" cx="72" cy="-110" rx="21.5" ry="22"/>
<text text-anchor="middle" x="72" y="-106.3" font-family="Times,serif" font-size="14.00">4</text>
</g>
<!-- 1&#45;&gt;4 -->
<g id="edge4" class="edge"><title>1&#45;&gt;4</title>
<path fill="none" stroke="black" d="M26.917,-186.138C34.7299,-173.117 46.2815,-153.864 55.7355,-138.107"/>
<polygon fill="black" stroke="black" points="58.8716,-139.683 61.0153,-129.308 52.8691,-136.082 58.8716,-139.683"/>
<text text-anchor="middle" x="52.5" y="-154.3" font-family="Times,serif" font-size="14.00">b</text>
</g>
<!-- 2 -->
<g id="node3" class="node"><title>2</title>
<ellipse fill="green" stroke="black" cx="131" cy="-110" rx="18" ry="18"/>
<text text-anchor="middle" x="131" y="-106.3" font-family="Times,serif" font-size="14.00">2</text>
</g>
<!-- 3 -->
<g id="node4" class="node"><title>3</title>
<ellipse fill="lightblue" stroke="black" cx="101" cy="-18" rx="18" ry="18"/>
<text text-anchor="middle" x="101" y="-14.3" font-family="Times,serif" font-size="14.00">3</text>
</g>
<!-- 2&#45;&gt;3 -->
<g id="edge5" class="edge"><title>2&#45;&gt;3</title>
<path fill="none" stroke="black" d="M125.498,-92.4926C121.1,-79.2985 114.851,-60.5529 109.765,-45.2964"/>
<polygon fill="black" stroke="black" points="112.95,-43.7828 106.468,-35.4027 106.31,-45.9964 112.95,-43.7828"/>
<text text-anchor="middle" x="125.5" y="-58.3" font-family="Times,serif" font-size="14.00">b,a</text>
</g>
<!-- 3&#45;&gt;3 -->
<g id="edge6" class="edge"><title>3&#45;&gt;3</title>
<path fill="none" stroke="black" d="M117.29,-25.6679C127.389,-27.5169 137,-24.9609 137,-18 137,-13.5406 133.056,-10.8891 127.566,-10.0454"/>
<polygon fill="black" stroke="black" points="127.189,-6.55441 117.29,-10.3321 127.384,-13.5517 127.189,-6.55441"/>
<text text-anchor="middle" x="140.5" y="-14.3" font-family="Times,serif" font-size="14.00">a</text>
</g>
<!-- 3&#45;&gt;4 -->
<g id="edge7" class="edge"><title>3&#45;&gt;4</title>
<path fill="none" stroke="black" d="M95.7036,-35.437C91.7902,-47.5821 86.3521,-64.4589 81.6717,-78.9843"/>
<polygon fill="black" stroke="black" points="78.3162,-77.9861 78.5805,-88.5776 84.9789,-80.133 78.3162,-77.9861"/>
<text text-anchor="middle" x="92.5" y="-58.3" font-family="Times,serif" font-size="14.00">b</text>
</g>
<!-- 4&#45;&gt;0 -->
<g id="edge8" class="edge"><title>4&#45;&gt;0</title>
<path fill="none" stroke="black" d="M72.5929,-132.107C73.5005,-164.417 75.234,-226.132 76.2351,-261.771"/>
<polygon fill="black" stroke="black" points="72.7411,-262.035 76.5206,-271.933 79.7383,-261.838 72.7411,-262.035"/>
<text text-anchor="middle" x="78.5" y="-198.3" font-family="Times,serif" font-size="14.00">b</text>
</g>
<!-- 4&#45;&gt;3 -->
<g id="edge9" class="edge"><title>4&#45;&gt;3</title>
<path fill="none" stroke="black" d="M69.7948,-88.0555C69.4208,-77.5426 70.1038,-64.7836 74,-54 75.8752,-48.8101 78.8271,-43.7743 82.103,-39.2156"/>
<polygon fill="black" stroke="black" points="85.0704,-41.1102 88.6038,-31.1219 79.6128,-36.7267 85.0704,-41.1102"/>
<text text-anchor="middle" x="77.5" y="-58.3" font-family="Times,serif" font-size="14.00">a</text>
</g>
</g>
</svg>
