<?xml version="1.0" encoding="UTF-8" standalone="no"?>
<!DOCTYPE svg PUBLIC "-//W3C//DTD SVG 1.1//EN"
 "http://www.w3.org/Graphics/SVG/1.1/DTD/svg11.dtd">
<!-- Generated by graphviz version 2.36.0 (20140111.2315)
 -->
<!-- Title: %3 Pages: 1 -->
<svg width="134pt" height="316pt"
 viewBox="0.00 0.00 134.00 316.00" xmlns="http://www.w3.org/2000/svg" xmlns:xlink="http://www.w3.org/1999/xlink">
<g id="graph0" class="graph" transform="scale(1 1) rotate(0) translate(4 312)">
<title>%3</title>
<polygon fill="white" stroke="none" points="-4,4 -4,-312 130,-312 130,4 -4,4"/>
<!-- 0 -->
<g id="node1" class="node"><title>0</title>
<ellipse fill="green" stroke="black" cx="76" cy="-290" rx="18" ry="18"/>
<text text-anchor="middle" x="76" y="-286.3" font-family="Times,serif" font-size="14.00">0</text>
</g>
<!-- 1 -->
<g id="node2" class="node"><title>1</title>
<ellipse fill="lightblue" stroke="black" cx="22" cy="-114" rx="18" ry="18"/>
<text text-anchor="middle" x="22" y="-110.3" font-family="Times,serif" font-size="14.00">1</text>
</g>
<!-- 0&#45;&gt;1 -->
<g id="edge1" class="edge"><title>0&#45;&gt;1</title>
<path fill="none" stroke="black" d="M67.2177,-274.155C59.5062,-260.51 48.5284,-239.502 42,-220 33.3828,-194.258 28.0832,-163.65 25.1235,-142.142"/>
<polygon fill="black" stroke="black" points="28.5766,-141.554 23.819,-132.088 21.6348,-142.455 28.5766,-141.554"/>
<text text-anchor="middle" x="45.5" y="-198.3" font-family="Times,serif" font-size="14.00">b</text>
</g>
<!-- 4 -->
<g id="node5" class="node"><title>4</title>
<ellipse fill="lightblue" stroke="black" cx="76" cy="-202" rx="18" ry="18"/>
<text text-anchor="middle" x="76" y="-198.3" font-family="Times,serif" font-size="14.00">4</text>
</g>
<!-- 0&#45;&gt;4 -->
<g id="edge2" class="edge"><title>0&#45;&gt;4</title>
<path fill="none" stroke="black" d="M76,-271.597C76,-259.746 76,-243.817 76,-230.292"/>
<polygon fill="black" stroke="black" points="79.5001,-230.084 76,-220.084 72.5001,-230.084 79.5001,-230.084"/>
<text text-anchor="middle" x="79.5" y="-242.3" font-family="Times,serif" font-size="14.00">a</text>
</g>
<!-- 1&#45;&gt;1 -->
<g id="edge3" class="edge"><title>1&#45;&gt;1</title>
<path fill="none" stroke="black" d="M38.2903,-121.668C48.3892,-123.517 58,-120.961 58,-114 58,-109.541 54.0557,-106.889 48.5656,-106.045"/>
<polygon fill="black" stroke="black" points="48.1887,-102.554 38.2903,-106.332 48.384,-109.552 48.1887,-102.554"/>
<text text-anchor="middle" x="61.5" y="-110.3" font-family="Times,serif" font-size="14.00">b</text>
</g>
<!-- 3 -->
<g id="node4" class="node"><title>3</title>
<ellipse fill="lightblue" stroke="black" cx="22" cy="-22" rx="17.5909" ry="18"/>
<ellipse fill="none" stroke="black" cx="22" cy="-22" rx="21.5" ry="22"/>
<text text-anchor="middle" x="22" y="-18.3" font-family="Times,serif" font-size="14.00">3</text>
</g>
<!-- 1&#45;&gt;3 -->
<g id="edge4" class="edge"><title>1&#45;&gt;3</title>
<path fill="none" stroke="black" d="M15.3664,-97.2577C13.201,-91.3321 11.0772,-84.4629 10,-78 8.59501,-69.57 9.55001,-60.4818 11.4167,-52.1686"/>
<polygon fill="black" stroke="black" points="14.7966,-53.0774 14.0484,-42.509 8.04274,-51.2373 14.7966,-53.0774"/>
<text text-anchor="middle" x="13.5" y="-66.3" font-family="Times,serif" font-size="14.00">a</text>
</g>
<!-- 2 -->
<g id="node3" class="node"><title>2</title>
<ellipse fill="lightblue" stroke="black" cx="108" cy="-114" rx="18" ry="18"/>
<text text-anchor="middle" x="108" y="-110.3" font-family="Times,serif" font-size="14.00">2</text>
</g>
<!-- 2&#45;&gt;0 -->
<g id="edge5" class="edge"><title>2&#45;&gt;0</title>
<path fill="none" stroke="black" d="M108.879,-132.315C109.556,-153.312 109.476,-189.659 103,-220 99.7476,-235.238 93.5286,-251.503 87.8782,-264.412"/>
<polygon fill="black" stroke="black" points="84.6735,-263.005 83.7268,-273.557 91.0475,-265.898 84.6735,-263.005"/>
<text text-anchor="middle" x="110.5" y="-198.3" font-family="Times,serif" font-size="14.00">b</text>
</g>
<!-- 2&#45;&gt;4 -->
<g id="edge6" class="edge"><title>2&#45;&gt;4</title>
<path fill="none" stroke="black" d="M102.008,-131.103C97.4115,-143.457 90.9737,-160.758 85.6533,-175.057"/>
<polygon fill="black" stroke="black" points="82.2261,-174.231 82.019,-184.824 88.7866,-176.672 82.2261,-174.231"/>
<text text-anchor="middle" x="97.5" y="-154.3" font-family="Times,serif" font-size="14.00">a</text>
</g>
<!-- 3&#45;&gt;1 -->
<g id="edge7" class="edge"><title>3&#45;&gt;1</title>
<path fill="none" stroke="black" d="M22,-44.101C22,-56.4798 22,-72.2575 22,-85.5903"/>
<polygon fill="black" stroke="black" points="18.5001,-85.6471 22,-95.6471 25.5001,-85.6471 18.5001,-85.6471"/>
<text text-anchor="middle" x="25.5" y="-66.3" font-family="Times,serif" font-size="14.00">b</text>
</g>
<!-- 3&#45;&gt;3 -->
<g id="edge8" class="edge"><title>3&#45;&gt;3</title>
<path fill="none" stroke="black" d="M42.0663,-30.7341C52.0736,-31.9426 61,-29.0312 61,-22 61,-17.4956 57.3366,-14.682 52.0725,-13.5592"/>
<polygon fill="black" stroke="black" points="52.1646,-10.0605 42.0663,-13.2659 51.9594,-17.0575 52.1646,-10.0605"/>
<text text-anchor="middle" x="64.5" y="-18.3" font-family="Times,serif" font-size="14.00">a</text>
</g>
<!-- 4&#45;&gt;1 -->
<g id="edge9" class="edge"><title>4&#45;&gt;1</title>
<path fill="none" stroke="black" d="M66.8396,-186.411C58.6164,-173.315 46.3971,-153.855 36.7902,-138.555"/>
<polygon fill="black" stroke="black" points="39.4871,-136.268 31.2053,-129.66 33.5589,-139.99 39.4871,-136.268"/>
<text text-anchor="middle" x="56.5" y="-154.3" font-family="Times,serif" font-size="14.00">b</text>
</g>
<!-- 4&#45;&gt;2 -->
<g id="edge10" class="edge"><title>4&#45;&gt;2</title>
<path fill="none" stroke="black" d="M75.344,-183.911C75.5152,-173.735 76.738,-160.752 81,-150 82.9991,-144.957 85.9527,-140.03 89.1814,-135.54"/>
<polygon fill="black" stroke="black" points="92.0674,-137.535 95.5505,-127.529 86.5878,-133.179 92.0674,-137.535"/>
<text text-anchor="middle" x="84.5" y="-154.3" font-family="Times,serif" font-size="14.00">a</text>
</g>
</g>
</svg>
