<?xml version="1.0" encoding="UTF-8" standalone="no"?>
<!DOCTYPE svg PUBLIC "-//W3C//DTD SVG 1.1//EN"
 "http://www.w3.org/Graphics/SVG/1.1/DTD/svg11.dtd">
<!-- Generated by graphviz version 2.36.0 (20140111.2315)
 -->
<!-- Title: %3 Pages: 1 -->
<svg width="187pt" height="228pt"
 viewBox="0.00 0.00 187.00 228.00" xmlns="http://www.w3.org/2000/svg" xmlns:xlink="http://www.w3.org/1999/xlink">
<g id="graph0" class="graph" transform="scale(1 1) rotate(0) translate(4 224)">
<title>%3</title>
<polygon fill="white" stroke="none" points="-4,4 -4,-224 183,-224 183,4 -4,4"/>
<!-- 0 -->
<g id="node1" class="node"><title>0</title>
<ellipse fill="lightblue" stroke="black" cx="62" cy="-202" rx="18" ry="18"/>
<text text-anchor="middle" x="62" y="-198.3" font-family="Times,serif" font-size="14.00">0</text>
</g>
<!-- 2 -->
<g id="node3" class="node"><title>2</title>
<ellipse fill="lightblue" stroke="black" cx="18" cy="-110" rx="18" ry="18"/>
<text text-anchor="middle" x="18" y="-106.3" font-family="Times,serif" font-size="14.00">2</text>
</g>
<!-- 0&#45;&gt;2 -->
<g id="edge1" class="edge"><title>0&#45;&gt;2</title>
<path fill="none" stroke="black" d="M45.7319,-193.794C34.8487,-188.003 21.3915,-178.729 15,-166 10.6974,-157.431 10.2253,-147.138 11.2433,-137.785"/>
<polygon fill="black" stroke="black" points="14.7214,-138.204 12.9009,-127.767 7.8153,-137.061 14.7214,-138.204"/>
<text text-anchor="middle" x="18.5" y="-154.3" font-family="Times,serif" font-size="14.00">b</text>
</g>
<!-- 3 -->
<g id="node4" class="node"><title>3</title>
<ellipse fill="green" stroke="black" cx="79" cy="-110" rx="17.5909" ry="18"/>
<ellipse fill="none" stroke="black" cx="79" cy="-110" rx="21.5" ry="22"/>
<text text-anchor="middle" x="79" y="-106.3" font-family="Times,serif" font-size="14.00">3</text>
</g>
<!-- 0&#45;&gt;3 -->
<g id="edge2" class="edge"><title>0&#45;&gt;3</title>
<path fill="none" stroke="black" d="M65.1976,-184.072C67.4575,-172.107 70.5501,-155.735 73.2352,-141.52"/>
<polygon fill="black" stroke="black" points="76.6836,-142.12 75.1005,-131.644 69.8052,-140.821 76.6836,-142.12"/>
<text text-anchor="middle" x="75.5" y="-154.3" font-family="Times,serif" font-size="14.00">a</text>
</g>
<!-- 1 -->
<g id="node2" class="node"><title>1</title>
<ellipse fill="lightblue" stroke="black" cx="136" cy="-18" rx="18" ry="18"/>
<text text-anchor="middle" x="136" y="-14.3" font-family="Times,serif" font-size="14.00">1</text>
</g>
<!-- 1&#45;&gt;0 -->
<g id="edge3" class="edge"><title>1&#45;&gt;0</title>
<path fill="none" stroke="black" d="M139.812,-35.9358C144.099,-58.8081 148.802,-100.349 135,-132 124.909,-155.141 102.887,-174.175 85.6542,-186.347"/>
<polygon fill="black" stroke="black" points="83.5006,-183.578 77.1679,-192.072 87.4153,-189.381 83.5006,-183.578"/>
<text text-anchor="middle" x="147.5" y="-106.3" font-family="Times,serif" font-size="14.00">a</text>
</g>
<!-- 1&#45;&gt;1 -->
<g id="edge4" class="edge"><title>1&#45;&gt;1</title>
<path fill="none" stroke="black" d="M152.29,-25.6679C162.389,-27.5169 172,-24.9609 172,-18 172,-13.5406 168.056,-10.8891 162.566,-10.0454"/>
<polygon fill="black" stroke="black" points="162.189,-6.55441 152.29,-10.3321 162.384,-13.5517 162.189,-6.55441"/>
<text text-anchor="middle" x="175.5" y="-14.3" font-family="Times,serif" font-size="14.00">b</text>
</g>
<!-- 2&#45;&gt;0 -->
<g id="edge5" class="edge"><title>2&#45;&gt;0</title>
<path fill="none" stroke="black" d="M25.5764,-126.497C32.2367,-140.12 42.0504,-160.194 49.8136,-176.073"/>
<polygon fill="black" stroke="black" points="46.7993,-177.877 54.3358,-185.323 53.088,-174.802 46.7993,-177.877"/>
<text text-anchor="middle" x="52.5" y="-154.3" font-family="Times,serif" font-size="14.00">b,a</text>
</g>
<!-- 3&#45;&gt;1 -->
<g id="edge6" class="edge"><title>3&#45;&gt;1</title>
<path fill="none" stroke="black" d="M90.2614,-91.2189C99.0741,-77.3041 111.409,-57.8274 121.049,-42.6066"/>
<polygon fill="black" stroke="black" points="124.254,-44.0881 126.647,-33.7672 118.34,-40.3427 124.254,-44.0881"/>
<text text-anchor="middle" x="116.5" y="-58.3" font-family="Times,serif" font-size="14.00">b</text>
</g>
<!-- 3&#45;&gt;3 -->
<g id="edge7" class="edge"><title>3&#45;&gt;3</title>
<path fill="none" stroke="black" d="M99.0663,-118.734C109.074,-119.943 118,-117.031 118,-110 118,-105.496 114.337,-102.682 109.072,-101.559"/>
<polygon fill="black" stroke="black" points="109.165,-98.0605 99.0663,-101.266 108.959,-105.057 109.165,-98.0605"/>
<text text-anchor="middle" x="121.5" y="-106.3" font-family="Times,serif" font-size="14.00">a</text>
</g>
</g>
</svg>
