<?xml version="1.0" encoding="UTF-8" standalone="no"?>
<!DOCTYPE svg PUBLIC "-//W3C//DTD SVG 1.1//EN"
 "http://www.w3.org/Graphics/SVG/1.1/DTD/svg11.dtd">
<!-- Generated by graphviz version 2.36.0 (20140111.2315)
 -->
<!-- Title: %3 Pages: 1 -->
<svg width="143pt" height="316pt"
 viewBox="0.00 0.00 142.71 316.00" xmlns="http://www.w3.org/2000/svg" xmlns:xlink="http://www.w3.org/1999/xlink">
<g id="graph0" class="graph" transform="scale(1 1) rotate(0) translate(4 312)">
<title>%3</title>
<polygon fill="white" stroke="none" points="-4,4 -4,-312 138.706,-312 138.706,4 -4,4"/>
<!-- 0 -->
<g id="node1" class="node"><title>0</title>
<ellipse fill="lightblue" stroke="black" cx="28.7062" cy="-202" rx="18" ry="18"/>
<text text-anchor="middle" x="28.7062" y="-198.3" font-family="Times,serif" font-size="14.00">0</text>
</g>
<!-- 0&#45;&gt;0 -->
<g id="edge1" class="edge"><title>0&#45;&gt;0</title>
<path fill="none" stroke="black" d="M44.9965,-209.668C55.0954,-211.517 64.7062,-208.961 64.7062,-202 64.7062,-197.541 60.7619,-194.889 55.2718,-194.045"/>
<polygon fill="black" stroke="black" points="54.8949,-190.554 44.9965,-194.332 55.0902,-197.552 54.8949,-190.554"/>
<text text-anchor="middle" x="68.2062" y="-198.3" font-family="Times,serif" font-size="14.00">a</text>
</g>
<!-- 2 -->
<g id="node3" class="node"><title>2</title>
<ellipse fill="lightblue" stroke="black" cx="71.7062" cy="-114" rx="18" ry="18"/>
<text text-anchor="middle" x="71.7062" y="-110.3" font-family="Times,serif" font-size="14.00">2</text>
</g>
<!-- 0&#45;&gt;2 -->
<g id="edge2" class="edge"><title>0&#45;&gt;2</title>
<path fill="none" stroke="black" d="M36.3937,-185.625C42.7746,-172.863 51.9701,-154.472 59.378,-139.656"/>
<polygon fill="black" stroke="black" points="62.5985,-141.041 63.9402,-130.532 56.3375,-137.911 62.5985,-141.041"/>
<text text-anchor="middle" x="57.2062" y="-154.3" font-family="Times,serif" font-size="14.00">b</text>
</g>
<!-- 1 -->
<g id="node2" class="node"><title>1</title>
<ellipse fill="lightblue" stroke="black" cx="61.7062" cy="-22" rx="17.5909" ry="18"/>
<ellipse fill="none" stroke="black" cx="61.7062" cy="-22" rx="21.5" ry="22"/>
<text text-anchor="middle" x="61.7062" y="-18.3" font-family="Times,serif" font-size="14.00">1</text>
</g>
<!-- 1&#45;&gt;0 -->
<g id="edge3" class="edge"><title>1&#45;&gt;0</title>
<path fill="none" stroke="black" d="M53.808,-42.8012C48.3704,-57.2966 41.4723,-77.5701 37.7062,-96 32.4034,-121.95 30.22,-152.128 29.3237,-173.454"/>
<polygon fill="black" stroke="black" points="25.816,-173.613 28.9626,-183.73 32.8117,-173.859 25.816,-173.613"/>
<text text-anchor="middle" x="41.2062" y="-110.3" font-family="Times,serif" font-size="14.00">a</text>
</g>
<!-- 1&#45;&gt;2 -->
<g id="edge4" class="edge"><title>1&#45;&gt;2</title>
<path fill="none" stroke="black" d="M62.1561,-44.219C62.5534,-54.458 63.3008,-66.9001 64.7062,-78 65.0518,-80.7299 65.4882,-83.5659 65.9734,-86.389"/>
<polygon fill="black" stroke="black" points="62.5604,-87.1767 67.87,-96.3451 69.4368,-85.8668 62.5604,-87.1767"/>
<text text-anchor="middle" x="68.2062" y="-66.3" font-family="Times,serif" font-size="14.00">b</text>
</g>
<!-- 2&#45;&gt;1 -->
<g id="edge5" class="edge"><title>2&#45;&gt;1</title>
<path fill="none" stroke="black" d="M71.7309,-95.9446C71.5725,-86.0094 71.0725,-73.2594 69.7062,-62 69.3742,-59.264 68.9515,-56.4341 68.4745,-53.606"/>
<polygon fill="black" stroke="black" points="71.8688,-52.7185 66.5735,-43.5419 64.9904,-54.0178 71.8688,-52.7185"/>
<text text-anchor="middle" x="74.2062" y="-66.3" font-family="Times,serif" font-size="14.00">a</text>
</g>
<!-- 2&#45;&gt;2 -->
<g id="edge6" class="edge"><title>2&#45;&gt;2</title>
<path fill="none" stroke="black" d="M87.9965,-121.668C98.0954,-123.517 107.706,-120.961 107.706,-114 107.706,-109.541 103.762,-106.889 98.2718,-106.045"/>
<polygon fill="black" stroke="black" points="97.8949,-102.554 87.9965,-106.332 98.0902,-109.552 97.8949,-102.554"/>
<text text-anchor="middle" x="111.206" y="-110.3" font-family="Times,serif" font-size="14.00">b</text>
</g>
<!-- 3 -->
<g id="node4" class="node"><title>3</title>
<ellipse fill="green" stroke="black" cx="107.706" cy="-202" rx="18" ry="18"/>
<text text-anchor="middle" x="107.706" y="-198.3" font-family="Times,serif" font-size="14.00">3</text>
</g>
<!-- 3&#45;&gt;1 -->
<g id="edge7" class="edge"><title>3&#45;&gt;1</title>
<path fill="none" stroke="black" d="M114.84,-185.214C123.271,-164.235 134.833,-126.29 123.706,-96 116.111,-75.3244 99.775,-56.4997 85.7778,-43.1465"/>
<polygon fill="black" stroke="black" points="88.0525,-40.4837 78.3126,-36.3139 83.3263,-45.6474 88.0525,-40.4837"/>
<text text-anchor="middle" x="131.206" y="-110.3" font-family="Times,serif" font-size="14.00">b</text>
</g>
<!-- 3&#45;&gt;2 -->
<g id="edge8" class="edge"><title>3&#45;&gt;2</title>
<path fill="none" stroke="black" d="M101.103,-185.226C95.8586,-172.697 88.421,-154.93 82.3393,-140.401"/>
<polygon fill="black" stroke="black" points="85.4792,-138.838 78.3892,-130.965 79.0221,-141.541 85.4792,-138.838"/>
<text text-anchor="middle" x="96.2062" y="-154.3" font-family="Times,serif" font-size="14.00">a</text>
</g>
<!-- 4 -->
<g id="node5" class="node"><title>4</title>
<ellipse fill="lightblue" stroke="black" cx="21.7062" cy="-290" rx="18" ry="18"/>
<text text-anchor="middle" x="21.7062" y="-286.3" font-family="Times,serif" font-size="14.00">4</text>
</g>
<!-- 4&#45;&gt;1 -->
<g id="edge9" class="edge"><title>4&#45;&gt;1</title>
<path fill="none" stroke="black" d="M15.6118,-272.834C10.7509,-259.028 4.33649,-238.523 1.7062,-220 -0.543313,-204.159 -0.581444,-199.836 1.7062,-184 9.78925,-128.047 14.6903,-113.636 37.7062,-62 39.6148,-57.718 41.9176,-53.3393 44.3316,-49.1358"/>
<polygon fill="black" stroke="black" points="47.4867,-50.6831 49.6843,-40.3187 41.503,-47.0505 47.4867,-50.6831"/>
<text text-anchor="middle" x="10.2062" y="-154.3" font-family="Times,serif" font-size="14.00">b</text>
</g>
<!-- 4&#45;&gt;3 -->
<g id="edge10" class="edge"><title>4&#45;&gt;3</title>
<path fill="none" stroke="black" d="M34.0279,-276.678C48.2052,-262.501 71.6663,-239.04 88.302,-222.404"/>
<polygon fill="black" stroke="black" points="90.8111,-224.845 95.4074,-215.299 85.8614,-219.895 90.8111,-224.845"/>
<text text-anchor="middle" x="75.2062" y="-242.3" font-family="Times,serif" font-size="14.00">a</text>
</g>
</g>
</svg>
