<?xml version="1.0" encoding="UTF-8" standalone="no"?>
<!DOCTYPE svg PUBLIC "-//W3C//DTD SVG 1.1//EN"
 "http://www.w3.org/Graphics/SVG/1.1/DTD/svg11.dtd">
<!-- Generated by graphviz version 2.36.0 (20140111.2315)
 -->
<!-- Title: %3 Pages: 1 -->
<svg width="145pt" height="316pt"
 viewBox="0.00 0.00 145.44 316.00" xmlns="http://www.w3.org/2000/svg" xmlns:xlink="http://www.w3.org/1999/xlink">
<g id="graph0" class="graph" transform="scale(1 1) rotate(0) translate(4 312)">
<title>%3</title>
<polygon fill="white" stroke="none" points="-4,4 -4,-312 141.441,-312 141.441,4 -4,4"/>
<!-- 0 -->
<g id="node1" class="node"><title>0</title>
<ellipse fill="lightblue" stroke="black" cx="50.4405" cy="-198" rx="17.5909" ry="18"/>
<ellipse fill="none" stroke="black" cx="50.4405" cy="-198" rx="21.5" ry="22"/>
<text text-anchor="middle" x="50.4405" y="-194.3" font-family="Times,serif" font-size="14.00">0</text>
</g>
<!-- 2 -->
<g id="node3" class="node"><title>2</title>
<ellipse fill="lightblue" stroke="black" cx="31.4405" cy="-18" rx="18" ry="18"/>
<text text-anchor="middle" x="31.4405" y="-14.3" font-family="Times,serif" font-size="14.00">2</text>
</g>
<!-- 0&#45;&gt;2 -->
<g id="edge1" class="edge"><title>0&#45;&gt;2</title>
<path fill="none" stroke="black" d="M35.4659,-181.815C23.2261,-168.065 7.1958,-146.559 2.44055,-124 -0.859529,-108.344 -0.721491,-103.684 2.44055,-88 5.57152,-72.4697 12.298,-56.0816 18.4851,-43.1753"/>
<polygon fill="black" stroke="black" points="21.7027,-44.5662 23.0427,-34.0564 15.4412,-41.4367 21.7027,-44.5662"/>
<text text-anchor="middle" x="5.94055" y="-102.3" font-family="Times,serif" font-size="14.00">b</text>
</g>
<!-- 3 -->
<g id="node4" class="node"><title>3</title>
<ellipse fill="lightblue" stroke="black" cx="74.4405" cy="-106" rx="18" ry="18"/>
<text text-anchor="middle" x="74.4405" y="-102.3" font-family="Times,serif" font-size="14.00">3</text>
</g>
<!-- 0&#45;&gt;3 -->
<g id="edge2" class="edge"><title>0&#45;&gt;3</title>
<path fill="none" stroke="black" d="M55.8865,-176.578C59.2809,-163.849 63.6846,-147.335 67.3499,-133.59"/>
<polygon fill="black" stroke="black" points="70.7851,-134.291 69.9799,-123.727 64.0214,-132.488 70.7851,-134.291"/>
<text text-anchor="middle" x="67.9405" y="-146.3" font-family="Times,serif" font-size="14.00">a</text>
</g>
<!-- 1 -->
<g id="node2" class="node"><title>1</title>
<ellipse fill="lightblue" stroke="black" cx="119.441" cy="-18" rx="18" ry="18"/>
<text text-anchor="middle" x="119.441" y="-14.3" font-family="Times,serif" font-size="14.00">1</text>
</g>
<!-- 1&#45;&gt;0 -->
<g id="edge3" class="edge"><title>1&#45;&gt;0</title>
<path fill="none" stroke="black" d="M118.866,-36.0179C117.628,-57.3443 113.725,-94.6559 101.441,-124 93.9752,-141.833 81.6345,-159.662 70.9626,-173.236"/>
<polygon fill="black" stroke="black" points="68.1671,-171.127 64.5919,-181.1 73.6063,-175.533 68.1671,-171.127"/>
<text text-anchor="middle" x="119.941" y="-102.3" font-family="Times,serif" font-size="14.00">b,a</text>
</g>
<!-- 2&#45;&gt;0 -->
<g id="edge4" class="edge"><title>2&#45;&gt;0</title>
<path fill="none" stroke="black" d="M32.6406,-36.1217C34.1606,-56.9279 37.0007,-93.0876 40.4405,-124 41.9658,-137.707 43.98,-152.816 45.8007,-165.715"/>
<polygon fill="black" stroke="black" points="42.3846,-166.55 47.2697,-175.951 49.3136,-165.556 42.3846,-166.55"/>
<text text-anchor="middle" x="43.9405" y="-102.3" font-family="Times,serif" font-size="14.00">a</text>
</g>
<!-- 2&#45;&gt;2 -->
<g id="edge5" class="edge"><title>2&#45;&gt;2</title>
<path fill="none" stroke="black" d="M47.7308,-25.6679C57.8297,-27.5169 67.4405,-24.9609 67.4405,-18 67.4405,-13.5406 63.4963,-10.8891 58.0062,-10.0454"/>
<polygon fill="black" stroke="black" points="57.6293,-6.55441 47.7308,-10.3321 57.8246,-13.5517 57.6293,-6.55441"/>
<text text-anchor="middle" x="70.9405" y="-14.3" font-family="Times,serif" font-size="14.00">b</text>
</g>
<!-- 3&#45;&gt;1 -->
<g id="edge6" class="edge"><title>3&#45;&gt;1</title>
<path fill="none" stroke="black" d="M82.4856,-89.6249C89.2047,-76.784 98.9062,-58.2434 106.683,-43.3808"/>
<polygon fill="black" stroke="black" points="109.93,-44.725 111.465,-34.242 103.728,-41.4796 109.93,-44.725"/>
<text text-anchor="middle" x="103.941" y="-58.3" font-family="Times,serif" font-size="14.00">b</text>
</g>
<!-- 3&#45;&gt;2 -->
<g id="edge7" class="edge"><title>3&#45;&gt;2</title>
<path fill="none" stroke="black" d="M66.753,-89.6249C60.3722,-76.8633 51.1766,-58.4721 43.7688,-43.6565"/>
<polygon fill="black" stroke="black" points="46.8092,-41.9109 39.2065,-34.5319 40.5482,-45.0415 46.8092,-41.9109"/>
<text text-anchor="middle" x="59.9405" y="-58.3" font-family="Times,serif" font-size="14.00">a</text>
</g>
<!-- 4 -->
<g id="node5" class="node"><title>4</title>
<ellipse fill="green" stroke="black" cx="50.4405" cy="-290" rx="18" ry="18"/>
<text text-anchor="middle" x="50.4405" y="-286.3" font-family="Times,serif" font-size="14.00">4</text>
</g>
<!-- 4&#45;&gt;0 -->
<g id="edge8" class="edge"><title>4&#45;&gt;0</title>
<path fill="none" stroke="black" d="M50.4405,-271.647C50.4405,-259.924 50.4405,-244.114 50.4405,-230.237"/>
<polygon fill="black" stroke="black" points="53.9406,-230.101 50.4405,-220.101 46.9406,-230.101 53.9406,-230.101"/>
<text text-anchor="middle" x="53.9405" y="-242.3" font-family="Times,serif" font-size="14.00">a</text>
</g>
<!-- 4&#45;&gt;4 -->
<g id="edge9" class="edge"><title>4&#45;&gt;4</title>
<path fill="none" stroke="black" d="M66.7308,-297.668C76.8297,-299.517 86.4405,-296.961 86.4405,-290 86.4405,-285.541 82.4963,-282.889 77.0062,-282.045"/>
<polygon fill="black" stroke="black" points="76.6293,-278.554 66.7308,-282.332 76.8246,-285.552 76.6293,-278.554"/>
<text text-anchor="middle" x="89.9405" y="-286.3" font-family="Times,serif" font-size="14.00">b</text>
</g>
</g>
</svg>
