<?xml version="1.0" encoding="UTF-8" standalone="no"?>
<!DOCTYPE svg PUBLIC "-//W3C//DTD SVG 1.1//EN"
 "http://www.w3.org/Graphics/SVG/1.1/DTD/svg11.dtd">
<!-- Generated by graphviz version 2.36.0 (20140111.2315)
 -->
<!-- Title: %3 Pages: 1 -->
<svg width="98pt" height="316pt"
 viewBox="0.00 0.00 98.00 316.00" xmlns="http://www.w3.org/2000/svg" xmlns:xlink="http://www.w3.org/1999/xlink">
<g id="graph0" class="graph" transform="scale(1 1) rotate(0) translate(4 312)">
<title>%3</title>
<polygon fill="white" stroke="none" points="-4,4 -4,-312 94,-312 94,4 -4,4"/>
<!-- 0 -->
<g id="node1" class="node"><title>0</title>
<ellipse fill="lightblue" stroke="black" cx="18" cy="-202" rx="18" ry="18"/>
<text text-anchor="middle" x="18" y="-198.3" font-family="Times,serif" font-size="14.00">0</text>
</g>
<!-- 0&#45;&gt;0 -->
<g id="edge1" class="edge"><title>0&#45;&gt;0</title>
<path fill="none" stroke="black" d="M34.2903,-209.668C44.3892,-211.517 54,-208.961 54,-202 54,-197.541 50.0557,-194.889 44.5656,-194.045"/>
<polygon fill="black" stroke="black" points="44.1887,-190.554 34.2903,-194.332 44.384,-197.552 44.1887,-190.554"/>
<text text-anchor="middle" x="57.5" y="-198.3" font-family="Times,serif" font-size="14.00">b</text>
</g>
<!-- 2 -->
<g id="node3" class="node"><title>2</title>
<ellipse fill="green" stroke="black" cx="62" cy="-110" rx="17.5909" ry="18"/>
<ellipse fill="none" stroke="black" cx="62" cy="-110" rx="21.5" ry="22"/>
<text text-anchor="middle" x="62" y="-106.3" font-family="Times,serif" font-size="14.00">2</text>
</g>
<!-- 0&#45;&gt;2 -->
<g id="edge2" class="edge"><title>0&#45;&gt;2</title>
<path fill="none" stroke="black" d="M27.8105,-186.698C31.8532,-180.487 36.4187,-173.036 40,-166 44.1243,-157.897 48.0238,-148.832 51.3618,-140.435"/>
<polygon fill="black" stroke="black" points="54.6744,-141.572 55.0022,-130.982 48.1421,-139.056 54.6744,-141.572"/>
<text text-anchor="middle" x="49.5" y="-154.3" font-family="Times,serif" font-size="14.00">a</text>
</g>
<!-- 1 -->
<g id="node2" class="node"><title>1</title>
<ellipse fill="lightblue" stroke="black" cx="32" cy="-18" rx="18" ry="18"/>
<text text-anchor="middle" x="32" y="-14.3" font-family="Times,serif" font-size="14.00">1</text>
</g>
<!-- 1&#45;&gt;0 -->
<g id="edge3" class="edge"><title>1&#45;&gt;0</title>
<path fill="none" stroke="black" d="M29.3741,-36.066C28.548,-41.761 27.6759,-48.1463 27,-54 22.2151,-95.4415 19.8736,-143.769 18.8046,-173.372"/>
<polygon fill="black" stroke="black" points="15.2938,-173.635 18.4548,-183.748 22.2899,-173.871 15.2938,-173.635"/>
<text text-anchor="middle" x="26.5" y="-106.3" font-family="Times,serif" font-size="14.00">b</text>
</g>
<!-- 1&#45;&gt;2 -->
<g id="edge4" class="edge"><title>1&#45;&gt;2</title>
<path fill="none" stroke="black" d="M30.7325,-35.9808C30.5254,-46.1187 31.2402,-59.0999 35,-70 36.7345,-75.0286 39.3127,-80.0025 42.1983,-84.6292"/>
<polygon fill="black" stroke="black" points="39.4272,-86.776 47.9855,-93.0216 45.1899,-82.8022 39.4272,-86.776"/>
<text text-anchor="middle" x="38.5" y="-58.3" font-family="Times,serif" font-size="14.00">a</text>
</g>
<!-- 2&#45;&gt;0 -->
<g id="edge5" class="edge"><title>2&#45;&gt;0</title>
<path fill="none" stroke="black" d="M48.7985,-127.818C44.0044,-134.467 38.8302,-142.34 35,-150 31.1261,-157.748 27.8267,-166.581 25.1943,-174.695"/>
<polygon fill="black" stroke="black" points="21.7884,-173.865 22.2238,-184.451 28.4848,-175.904 21.7884,-173.865"/>
<text text-anchor="middle" x="38.5" y="-154.3" font-family="Times,serif" font-size="14.00">a</text>
</g>
<!-- 2&#45;&gt;1 -->
<g id="edge6" class="edge"><title>2&#45;&gt;1</title>
<path fill="none" stroke="black" d="M55.342,-89.0261C51.0081,-76.0244 45.312,-58.9359 40.6316,-44.8948"/>
<polygon fill="black" stroke="black" points="43.9199,-43.6914 37.4371,-35.3114 37.2791,-45.905 43.9199,-43.6914"/>
<text text-anchor="middle" x="51.5" y="-58.3" font-family="Times,serif" font-size="14.00">b</text>
</g>
<!-- 3 -->
<g id="node4" class="node"><title>3</title>
<ellipse fill="lightblue" stroke="black" cx="72" cy="-290" rx="18" ry="18"/>
<text text-anchor="middle" x="72" y="-286.3" font-family="Times,serif" font-size="14.00">3</text>
</g>
<!-- 3&#45;&gt;0 -->
<g id="edge7" class="edge"><title>3&#45;&gt;0</title>
<path fill="none" stroke="black" d="M62.8396,-274.411C54.6164,-261.315 42.3971,-241.855 32.7902,-226.555"/>
<polygon fill="black" stroke="black" points="35.4871,-224.268 27.2053,-217.66 29.5589,-227.99 35.4871,-224.268"/>
<text text-anchor="middle" x="52.5" y="-242.3" font-family="Times,serif" font-size="14.00">b</text>
</g>
<!-- 3&#45;&gt;2 -->
<g id="edge8" class="edge"><title>3&#45;&gt;2</title>
<path fill="none" stroke="black" d="M72.1467,-271.885C72.2159,-251.085 71.9854,-214.932 70,-184 69.1195,-170.283 67.5618,-155.172 66.0534,-142.274"/>
<polygon fill="black" stroke="black" points="69.4909,-141.547 64.8139,-132.04 62.5417,-142.388 69.4909,-141.547"/>
<text text-anchor="middle" x="74.5" y="-198.3" font-family="Times,serif" font-size="14.00">a</text>
</g>
</g>
</svg>
