<?xml version="1.0" encoding="UTF-8" standalone="no"?>
<!DOCTYPE svg PUBLIC "-//W3C//DTD SVG 1.1//EN"
 "http://www.w3.org/Graphics/SVG/1.1/DTD/svg11.dtd">
<!-- Generated by graphviz version 2.36.0 (20140111.2315)
 -->
<!-- Title: %3 Pages: 1 -->
<svg width="123pt" height="404pt"
 viewBox="0.00 0.00 123.00 404.00" xmlns="http://www.w3.org/2000/svg" xmlns:xlink="http://www.w3.org/1999/xlink">
<g id="graph0" class="graph" transform="scale(1 1) rotate(0) translate(4 400)">
<title>%3</title>
<polygon fill="white" stroke="none" points="-4,4 -4,-400 119,-400 119,4 -4,4"/>
<!-- 0 -->
<g id="node1" class="node"><title>0</title>
<ellipse fill="lightblue" stroke="black" cx="57" cy="-286" rx="17.5909" ry="18"/>
<ellipse fill="none" stroke="black" cx="57" cy="-286" rx="21.5" ry="22"/>
<text text-anchor="middle" x="57" y="-282.3" font-family="Times,serif" font-size="14.00">0</text>
</g>
<!-- 2 -->
<g id="node3" class="node"><title>2</title>
<ellipse fill="green" stroke="black" cx="72" cy="-106" rx="18" ry="18"/>
<text text-anchor="middle" x="72" y="-102.3" font-family="Times,serif" font-size="14.00">2</text>
</g>
<!-- 0&#45;&gt;2 -->
<g id="edge1" class="edge"><title>0&#45;&gt;2</title>
<path fill="none" stroke="black" d="M58.7796,-263.882C61.5013,-231.584 66.6976,-169.922 69.7012,-134.279"/>
<polygon fill="black" stroke="black" points="73.2056,-134.373 70.5578,-124.114 66.2304,-133.785 73.2056,-134.373"/>
<text text-anchor="middle" x="68.5" y="-190.3" font-family="Times,serif" font-size="14.00">a</text>
</g>
<!-- 3 -->
<g id="node4" class="node"><title>3</title>
<ellipse fill="lightblue" stroke="black" cx="18" cy="-194" rx="18" ry="18"/>
<text text-anchor="middle" x="18" y="-190.3" font-family="Times,serif" font-size="14.00">3</text>
</g>
<!-- 0&#45;&gt;3 -->
<g id="edge2" class="edge"><title>0&#45;&gt;3</title>
<path fill="none" stroke="black" d="M48.5376,-265.471C42.7857,-252.198 35.1233,-234.515 28.913,-220.184"/>
<polygon fill="black" stroke="black" points="32.0744,-218.677 24.8868,-210.893 25.6515,-221.46 32.0744,-218.677"/>
<text text-anchor="middle" x="43.5" y="-234.3" font-family="Times,serif" font-size="14.00">b</text>
</g>
<!-- 1 -->
<g id="node2" class="node"><title>1</title>
<ellipse fill="lightblue" stroke="black" cx="89" cy="-378" rx="18" ry="18"/>
<text text-anchor="middle" x="89" y="-374.3" font-family="Times,serif" font-size="14.00">1</text>
</g>
<!-- 1&#45;&gt;0 -->
<g id="edge3" class="edge"><title>1&#45;&gt;0</title>
<path fill="none" stroke="black" d="M83.279,-360.91C78.9263,-348.668 72.8135,-331.475 67.5787,-316.753"/>
<polygon fill="black" stroke="black" points="70.7752,-315.295 64.1273,-307.046 64.1797,-317.64 70.7752,-315.295"/>
<text text-anchor="middle" x="78.5" y="-330.3" font-family="Times,serif" font-size="14.00">b</text>
</g>
<!-- 1&#45;&gt;2 -->
<g id="edge4" class="edge"><title>1&#45;&gt;2</title>
<path fill="none" stroke="black" d="M90.0044,-359.754C91.9494,-320.693 94.9759,-222.596 82,-142 81.5291,-139.075 80.8954,-136.048 80.1743,-133.054"/>
<polygon fill="black" stroke="black" points="83.4962,-131.932 77.4954,-123.2 76.7413,-133.768 83.4962,-131.932"/>
<text text-anchor="middle" x="94.5" y="-234.3" font-family="Times,serif" font-size="14.00">a</text>
</g>
<!-- 2&#45;&gt;2 -->
<g id="edge5" class="edge"><title>2&#45;&gt;2</title>
<path fill="none" stroke="black" d="M88.2903,-113.668C98.3892,-115.517 108,-112.961 108,-106 108,-101.541 104.056,-98.8891 98.5656,-98.0454"/>
<polygon fill="black" stroke="black" points="98.1887,-94.5544 88.2903,-98.3321 98.384,-101.552 98.1887,-94.5544"/>
<text text-anchor="middle" x="111.5" y="-102.3" font-family="Times,serif" font-size="14.00">a</text>
</g>
<!-- 4 -->
<g id="node5" class="node"><title>4</title>
<ellipse fill="lightblue" stroke="black" cx="50" cy="-18" rx="18" ry="18"/>
<text text-anchor="middle" x="50" y="-14.3" font-family="Times,serif" font-size="14.00">4</text>
</g>
<!-- 2&#45;&gt;4 -->
<g id="edge6" class="edge"><title>2&#45;&gt;4</title>
<path fill="none" stroke="black" d="M67.7582,-88.4183C64.6538,-76.283 60.3769,-59.5643 56.7983,-45.5752"/>
<polygon fill="black" stroke="black" points="60.098,-44.3513 54.2288,-35.5308 53.3164,-46.0862 60.098,-44.3513"/>
<text text-anchor="middle" x="65.5" y="-58.3" font-family="Times,serif" font-size="14.00">b</text>
</g>
<!-- 3&#45;&gt;2 -->
<g id="edge7" class="edge"><title>3&#45;&gt;2</title>
<path fill="none" stroke="black" d="M27.1604,-178.411C35.3836,-165.315 47.6029,-145.855 57.2098,-130.555"/>
<polygon fill="black" stroke="black" points="60.4411,-131.99 62.7947,-121.66 54.5129,-128.268 60.4411,-131.99"/>
<text text-anchor="middle" x="53.5" y="-146.3" font-family="Times,serif" font-size="14.00">a</text>
</g>
<!-- 3&#45;&gt;4 -->
<g id="edge8" class="edge"><title>3&#45;&gt;4</title>
<path fill="none" stroke="black" d="M21.1266,-175.999C26.7089,-145.645 38.4287,-81.9188 45.0929,-45.6823"/>
<polygon fill="black" stroke="black" points="48.5413,-46.2817 46.9079,-35.8135 41.6568,-45.0155 48.5413,-46.2817"/>
<text text-anchor="middle" x="41.5" y="-102.3" font-family="Times,serif" font-size="14.00">b</text>
</g>
<!-- 4&#45;&gt;2 -->
<g id="edge9" class="edge"><title>4&#45;&gt;2</title>
<path fill="none" stroke="black" d="M49.1629,-36.3123C49.1338,-46.3331 49.8838,-59.0831 53,-70 54.1209,-73.9267 55.7359,-77.9046 57.5574,-81.7009"/>
<polygon fill="black" stroke="black" points="54.536,-83.4729 62.3466,-90.6314 60.7049,-80.1645 54.536,-83.4729"/>
<text text-anchor="middle" x="56.5" y="-58.3" font-family="Times,serif" font-size="14.00">a</text>
</g>
<!-- 4&#45;&gt;4 -->
<g id="edge10" class="edge"><title>4&#45;&gt;4</title>
<path fill="none" stroke="black" d="M66.2903,-25.6679C76.3892,-27.5169 86,-24.9609 86,-18 86,-13.5406 82.0557,-10.8891 76.5656,-10.0454"/>
<polygon fill="black" stroke="black" points="76.1887,-6.55441 66.2903,-10.3321 76.384,-13.5517 76.1887,-6.55441"/>
<text text-anchor="middle" x="89.5" y="-14.3" font-family="Times,serif" font-size="14.00">b</text>
</g>
</g>
</svg>
