<?xml version="1.0" encoding="UTF-8" standalone="no"?>
<!DOCTYPE svg PUBLIC "-//W3C//DTD SVG 1.1//EN"
 "http://www.w3.org/Graphics/SVG/1.1/DTD/svg11.dtd">
<!-- Generated by graphviz version 2.36.0 (20140111.2315)
 -->
<!-- Title: %3 Pages: 1 -->
<svg width="132pt" height="404pt"
 viewBox="0.00 0.00 132.00 404.00" xmlns="http://www.w3.org/2000/svg" xmlns:xlink="http://www.w3.org/1999/xlink">
<g id="graph0" class="graph" transform="scale(1 1) rotate(0) translate(4 400)">
<title>%3</title>
<polygon fill="white" stroke="none" points="-4,4 -4,-400 128,-400 128,4 -4,4"/>
<!-- 0 -->
<g id="node1" class="node"><title>0</title>
<ellipse fill="lightblue" stroke="black" cx="91" cy="-378" rx="18" ry="18"/>
<text text-anchor="middle" x="91" y="-374.3" font-family="Times,serif" font-size="14.00">0</text>
</g>
<!-- 1 -->
<g id="node2" class="node"><title>1</title>
<ellipse fill="lightblue" stroke="black" cx="77" cy="-198" rx="17.5909" ry="18"/>
<ellipse fill="none" stroke="black" cx="77" cy="-198" rx="21.5" ry="22"/>
<text text-anchor="middle" x="77" y="-194.3" font-family="Times,serif" font-size="14.00">1</text>
</g>
<!-- 0&#45;&gt;1 -->
<g id="edge1" class="edge"><title>0&#45;&gt;1</title>
<path fill="none" stroke="black" d="M83.8097,-361.229C77.9671,-347.497 70.1904,-326.884 67,-308 62.5656,-281.753 65.9781,-251.594 69.9778,-229.663"/>
<polygon fill="black" stroke="black" points="73.4591,-230.099 71.9567,-219.611 66.591,-228.747 73.4591,-230.099"/>
<text text-anchor="middle" x="70.5" y="-286.3" font-family="Times,serif" font-size="14.00">a</text>
</g>
<!-- 4 -->
<g id="node5" class="node"><title>4</title>
<ellipse fill="green" stroke="black" cx="101" cy="-290" rx="18" ry="18"/>
<text text-anchor="middle" x="101" y="-286.3" font-family="Times,serif" font-size="14.00">4</text>
</g>
<!-- 0&#45;&gt;4 -->
<g id="edge2" class="edge"><title>0&#45;&gt;4</title>
<path fill="none" stroke="black" d="M91.4125,-359.945C91.7999,-350.01 92.5499,-337.26 94,-326 94.3515,-323.271 94.7916,-320.435 95.2791,-317.613"/>
<polygon fill="black" stroke="black" points="98.7424,-318.136 97.1784,-307.657 91.8664,-316.824 98.7424,-318.136"/>
<text text-anchor="middle" x="97.5" y="-330.3" font-family="Times,serif" font-size="14.00">b</text>
</g>
<!-- 1&#45;&gt;1 -->
<g id="edge3" class="edge"><title>1&#45;&gt;1</title>
<path fill="none" stroke="black" d="M97.0663,-206.734C107.074,-207.943 116,-205.031 116,-198 116,-193.496 112.337,-190.682 107.072,-189.559"/>
<polygon fill="black" stroke="black" points="107.165,-186.061 97.0663,-189.266 106.959,-193.057 107.165,-186.061"/>
<text text-anchor="middle" x="119.5" y="-194.3" font-family="Times,serif" font-size="14.00">a</text>
</g>
<!-- 2 -->
<g id="node3" class="node"><title>2</title>
<ellipse fill="lightblue" stroke="black" cx="18" cy="-106" rx="18" ry="18"/>
<text text-anchor="middle" x="18" y="-102.3" font-family="Times,serif" font-size="14.00">2</text>
</g>
<!-- 1&#45;&gt;2 -->
<g id="edge4" class="edge"><title>1&#45;&gt;2</title>
<path fill="none" stroke="black" d="M65.3435,-179.219C56.0794,-165.087 43.0546,-145.219 33.0108,-129.898"/>
<polygon fill="black" stroke="black" points="35.9023,-127.925 27.4927,-121.48 30.0481,-131.762 35.9023,-127.925"/>
<text text-anchor="middle" x="55.5" y="-146.3" font-family="Times,serif" font-size="14.00">b</text>
</g>
<!-- 2&#45;&gt;2 -->
<g id="edge5" class="edge"><title>2&#45;&gt;2</title>
<path fill="none" stroke="black" d="M34.2903,-113.668C44.3892,-115.517 54,-112.961 54,-106 54,-101.541 50.0557,-98.8891 44.5656,-98.0454"/>
<polygon fill="black" stroke="black" points="44.1887,-94.5544 34.2903,-98.3321 44.384,-101.552 44.1887,-94.5544"/>
<text text-anchor="middle" x="57.5" y="-102.3" font-family="Times,serif" font-size="14.00">a</text>
</g>
<!-- 3 -->
<g id="node4" class="node"><title>3</title>
<ellipse fill="lightblue" stroke="black" cx="48" cy="-18" rx="18" ry="18"/>
<text text-anchor="middle" x="48" y="-14.3" font-family="Times,serif" font-size="14.00">3</text>
</g>
<!-- 2&#45;&gt;3 -->
<g id="edge6" class="edge"><title>2&#45;&gt;3</title>
<path fill="none" stroke="black" d="M16.5293,-87.9462C16.2502,-77.7824 16.9607,-64.7996 21,-54 22.9332,-48.8314 25.9106,-43.805 29.193,-39.2487"/>
<polygon fill="black" stroke="black" points="32.1602,-41.1432 35.6868,-31.1524 26.6997,-36.7634 32.1602,-41.1432"/>
<text text-anchor="middle" x="24.5" y="-58.3" font-family="Times,serif" font-size="14.00">b</text>
</g>
<!-- 3&#45;&gt;1 -->
<g id="edge7" class="edge"><title>3&#45;&gt;1</title>
<path fill="none" stroke="black" d="M54.2914,-34.8854C59.4597,-48.6893 66.4817,-69.3431 70,-88 74.8922,-113.942 76.5336,-143.905 77.0131,-165.842"/>
<polygon fill="black" stroke="black" points="73.5145,-165.968 77.1643,-175.914 80.5137,-165.863 73.5145,-165.968"/>
<text text-anchor="middle" x="77.5" y="-102.3" font-family="Times,serif" font-size="14.00">b</text>
</g>
<!-- 3&#45;&gt;2 -->
<g id="edge8" class="edge"><title>3&#45;&gt;2</title>
<path fill="none" stroke="black" d="M42.3825,-35.1034C38.0733,-47.4565 32.0378,-64.7582 27.0499,-79.0569"/>
<polygon fill="black" stroke="black" points="23.6319,-78.2292 23.6428,-88.8241 30.2413,-80.5349 23.6319,-78.2292"/>
<text text-anchor="middle" x="39.5" y="-58.3" font-family="Times,serif" font-size="14.00">a</text>
</g>
<!-- 4&#45;&gt;0 -->
<g id="edge9" class="edge"><title>4&#45;&gt;0</title>
<path fill="none" stroke="black" d="M101.119,-308.067C100.992,-318.007 100.492,-330.757 99,-342 98.6358,-344.744 98.1573,-347.589 97.615,-350.417"/>
<polygon fill="black" stroke="black" points="94.1534,-349.866 95.4621,-360.38 100.995,-351.345 94.1534,-349.866"/>
<text text-anchor="middle" x="103.5" y="-330.3" font-family="Times,serif" font-size="14.00">b</text>
</g>
<!-- 4&#45;&gt;1 -->
<g id="edge10" class="edge"><title>4&#45;&gt;1</title>
<path fill="none" stroke="black" d="M96.598,-272.493C93.3966,-260.487 88.9694,-243.885 85.1328,-229.498"/>
<polygon fill="black" stroke="black" points="88.428,-228.271 82.4694,-219.51 81.6643,-230.075 88.428,-228.271"/>
<text text-anchor="middle" x="94.5" y="-242.3" font-family="Times,serif" font-size="14.00">a</text>
</g>
</g>
</svg>
