<?xml version="1.0" encoding="UTF-8" standalone="no"?>
<!DOCTYPE svg PUBLIC "-//W3C//DTD SVG 1.1//EN"
 "http://www.w3.org/Graphics/SVG/1.1/DTD/svg11.dtd">
<!-- Generated by graphviz version 2.36.0 (20140111.2315)
 -->
<!-- Title: %3 Pages: 1 -->
<svg width="148pt" height="316pt"
 viewBox="0.00 0.00 148.00 316.00" xmlns="http://www.w3.org/2000/svg" xmlns:xlink="http://www.w3.org/1999/xlink">
<g id="graph0" class="graph" transform="scale(1 1) rotate(0) translate(4 312)">
<title>%3</title>
<polygon fill="white" stroke="none" points="-4,4 -4,-312 144,-312 144,4 -4,4"/>
<!-- 0 -->
<g id="node1" class="node"><title>0</title>
<ellipse fill="lightblue" stroke="black" cx="115" cy="-286" rx="17.5909" ry="18"/>
<ellipse fill="none" stroke="black" cx="115" cy="-286" rx="21.5" ry="22"/>
<text text-anchor="middle" x="115" y="-282.3" font-family="Times,serif" font-size="14.00">0</text>
</g>
<!-- 2 -->
<g id="node3" class="node"><title>2</title>
<ellipse fill="lightblue" stroke="black" cx="86" cy="-194" rx="18" ry="18"/>
<text text-anchor="middle" x="86" y="-190.3" font-family="Times,serif" font-size="14.00">2</text>
</g>
<!-- 0&#45;&gt;2 -->
<g id="edge1" class="edge"><title>0&#45;&gt;2</title>
<path fill="none" stroke="black" d="M108.419,-264.578C104.291,-251.766 98.9276,-235.12 94.4817,-221.322"/>
<polygon fill="black" stroke="black" points="97.6947,-219.882 91.2964,-211.437 91.0321,-222.029 97.6947,-219.882"/>
<text text-anchor="middle" x="105.5" y="-234.3" font-family="Times,serif" font-size="14.00">a</text>
</g>
<!-- 3 -->
<g id="node4" class="node"><title>3</title>
<ellipse fill="lightblue" stroke="black" cx="97" cy="-18" rx="18" ry="18"/>
<text text-anchor="middle" x="97" y="-14.3" font-family="Times,serif" font-size="14.00">3</text>
</g>
<!-- 0&#45;&gt;3 -->
<g id="edge2" class="edge"><title>0&#45;&gt;3</title>
<path fill="none" stroke="black" d="M116.355,-263.776C118.529,-222.841 121.31,-130.284 108,-54 107.487,-51.0588 106.793,-48.0212 106.001,-45.0211"/>
<polygon fill="black" stroke="black" points="109.272,-43.7407 103.056,-35.1606 102.564,-45.744 109.272,-43.7407"/>
<text text-anchor="middle" x="120.5" y="-146.3" font-family="Times,serif" font-size="14.00">b</text>
</g>
<!-- 1 -->
<g id="node2" class="node"><title>1</title>
<ellipse fill="green" stroke="black" cx="18" cy="-106" rx="18" ry="18"/>
<text text-anchor="middle" x="18" y="-102.3" font-family="Times,serif" font-size="14.00">1</text>
</g>
<!-- 1&#45;&gt;1 -->
<g id="edge3" class="edge"><title>1&#45;&gt;1</title>
<path fill="none" stroke="black" d="M34.2903,-113.668C44.3892,-115.517 54,-112.961 54,-106 54,-101.541 50.0557,-98.8891 44.5656,-98.0454"/>
<polygon fill="black" stroke="black" points="44.1887,-94.5544 34.2903,-98.3321 44.384,-101.552 44.1887,-94.5544"/>
<text text-anchor="middle" x="57.5" y="-102.3" font-family="Times,serif" font-size="14.00">a</text>
</g>
<!-- 1&#45;&gt;3 -->
<g id="edge4" class="edge"><title>1&#45;&gt;3</title>
<path fill="none" stroke="black" d="M29.9984,-91.9385C42.833,-77.9666 63.3578,-55.6231 78.312,-39.3439"/>
<polygon fill="black" stroke="black" points="80.9601,-41.6349 85.1475,-31.9027 75.8049,-36.8994 80.9601,-41.6349"/>
<text text-anchor="middle" x="68.5" y="-58.3" font-family="Times,serif" font-size="14.00">b</text>
</g>
<!-- 2&#45;&gt;1 -->
<g id="edge5" class="edge"><title>2&#45;&gt;1</title>
<path fill="none" stroke="black" d="M75.0746,-179.183C64.3045,-165.562 47.6855,-144.543 35.153,-128.694"/>
<polygon fill="black" stroke="black" points="37.6219,-126.173 28.6741,-120.5 32.131,-130.515 37.6219,-126.173"/>
<text text-anchor="middle" x="67.5" y="-146.3" font-family="Times,serif" font-size="14.00">b,a</text>
</g>
<!-- 3&#45;&gt;2 -->
<g id="edge6" class="edge"><title>3&#45;&gt;2</title>
<path fill="none" stroke="black" d="M95.9209,-36.0697C94.0119,-66.266 90.0248,-129.334 87.7288,-165.653"/>
<polygon fill="black" stroke="black" points="84.2127,-165.798 87.0748,-175.999 91.1988,-166.24 84.2127,-165.798"/>
<text text-anchor="middle" x="95.5" y="-102.3" font-family="Times,serif" font-size="14.00">a</text>
</g>
<!-- 3&#45;&gt;3 -->
<g id="edge7" class="edge"><title>3&#45;&gt;3</title>
<path fill="none" stroke="black" d="M113.29,-25.6679C123.389,-27.5169 133,-24.9609 133,-18 133,-13.5406 129.056,-10.8891 123.566,-10.0454"/>
<polygon fill="black" stroke="black" points="123.189,-6.55441 113.29,-10.3321 123.384,-13.5517 123.189,-6.55441"/>
<text text-anchor="middle" x="136.5" y="-14.3" font-family="Times,serif" font-size="14.00">b</text>
</g>
</g>
</svg>
