<?xml version="1.0" encoding="UTF-8" standalone="no"?>
<!DOCTYPE svg PUBLIC "-//W3C//DTD SVG 1.1//EN"
 "http://www.w3.org/Graphics/SVG/1.1/DTD/svg11.dtd">
<!-- Generated by graphviz version 2.36.0 (20140111.2315)
 -->
<!-- Title: %3 Pages: 1 -->
<svg width="145pt" height="316pt"
 viewBox="0.00 0.00 145.00 316.00" xmlns="http://www.w3.org/2000/svg" xmlns:xlink="http://www.w3.org/1999/xlink">
<g id="graph0" class="graph" transform="scale(1 1) rotate(0) translate(4 312)">
<title>%3</title>
<polygon fill="white" stroke="none" points="-4,4 -4,-312 141,-312 141,4 -4,4"/>
<!-- 0 -->
<g id="node1" class="node"><title>0</title>
<ellipse fill="lightblue" stroke="black" cx="31" cy="-290" rx="18" ry="18"/>
<text text-anchor="middle" x="31" y="-286.3" font-family="Times,serif" font-size="14.00">0</text>
</g>
<!-- 3 -->
<g id="node4" class="node"><title>3</title>
<ellipse fill="lightblue" stroke="black" cx="78" cy="-198" rx="17.5909" ry="18"/>
<ellipse fill="none" stroke="black" cx="78" cy="-198" rx="21.5" ry="22"/>
<text text-anchor="middle" x="78" y="-194.3" font-family="Times,serif" font-size="14.00">3</text>
</g>
<!-- 0&#45;&gt;3 -->
<g id="edge1" class="edge"><title>0&#45;&gt;3</title>
<path fill="none" stroke="black" d="M38.9729,-273.733C45.653,-260.941 55.3629,-242.348 63.4261,-226.907"/>
<polygon fill="black" stroke="black" points="66.6653,-228.266 68.192,-217.781 60.4605,-225.025 66.6653,-228.266"/>
<text text-anchor="middle" x="60.5" y="-242.3" font-family="Times,serif" font-size="14.00">a</text>
</g>
<!-- 4 -->
<g id="node5" class="node"><title>4</title>
<ellipse fill="green" stroke="black" cx="44" cy="-106" rx="18" ry="18"/>
<text text-anchor="middle" x="44" y="-102.3" font-family="Times,serif" font-size="14.00">4</text>
</g>
<!-- 0&#45;&gt;4 -->
<g id="edge2" class="edge"><title>0&#45;&gt;4</title>
<path fill="none" stroke="black" d="M32.223,-271.878C34.4781,-240.307 39.309,-172.673 42.0309,-134.568"/>
<polygon fill="black" stroke="black" points="45.5493,-134.433 42.7708,-124.209 38.5671,-133.934 45.5493,-134.433"/>
<text text-anchor="middle" x="43.5" y="-194.3" font-family="Times,serif" font-size="14.00">b</text>
</g>
<!-- 1 -->
<g id="node2" class="node"><title>1</title>
<ellipse fill="lightblue" stroke="black" cx="18" cy="-18" rx="18" ry="18"/>
<text text-anchor="middle" x="18" y="-14.3" font-family="Times,serif" font-size="14.00">1</text>
</g>
<!-- 1&#45;&gt;0 -->
<g id="edge3" class="edge"><title>1&#45;&gt;0</title>
<path fill="none" stroke="black" d="M12.8288,-35.5689C11.2715,-41.3413 9.77173,-47.9 9,-54 8.10746,-61.0549 8.64416,-62.8978 9,-70 12.4754,-139.367 22.1057,-220.629 27.3992,-261.929"/>
<polygon fill="black" stroke="black" points="23.949,-262.54 28.7069,-272.006 30.8908,-261.639 23.949,-262.54"/>
<text text-anchor="middle" x="19.5" y="-146.3" font-family="Times,serif" font-size="14.00">b</text>
</g>
<!-- 1&#45;&gt;4 -->
<g id="edge4" class="edge"><title>1&#45;&gt;4</title>
<path fill="none" stroke="black" d="M26.9841,-33.8751C30.2819,-39.93 33.754,-47.1142 36,-54 38.4458,-61.4981 40.1554,-69.8677 41.346,-77.6235"/>
<polygon fill="black" stroke="black" points="37.8944,-78.2214 42.6681,-87.6798 44.8346,-77.3088 37.8944,-78.2214"/>
<text text-anchor="middle" x="43.5" y="-58.3" font-family="Times,serif" font-size="14.00">a</text>
</g>
<!-- 2 -->
<g id="node3" class="node"><title>2</title>
<ellipse fill="lightblue" stroke="black" cx="94" cy="-290" rx="18" ry="18"/>
<text text-anchor="middle" x="94" y="-286.3" font-family="Times,serif" font-size="14.00">2</text>
</g>
<!-- 2&#45;&gt;2 -->
<g id="edge5" class="edge"><title>2&#45;&gt;2</title>
<path fill="none" stroke="black" d="M110.29,-297.668C120.389,-299.517 130,-296.961 130,-290 130,-285.541 126.056,-282.889 120.566,-282.045"/>
<polygon fill="black" stroke="black" points="120.189,-278.554 110.29,-282.332 120.384,-285.552 120.189,-278.554"/>
<text text-anchor="middle" x="133.5" y="-286.3" font-family="Times,serif" font-size="14.00">a</text>
</g>
<!-- 2&#45;&gt;3 -->
<g id="edge6" class="edge"><title>2&#45;&gt;3</title>
<path fill="none" stroke="black" d="M90.9905,-272.072C88.8986,-260.305 86.0486,-244.273 83.5511,-230.225"/>
<polygon fill="black" stroke="black" points="86.9246,-229.204 81.7283,-219.971 80.0327,-230.43 86.9246,-229.204"/>
<text text-anchor="middle" x="90.5" y="-242.3" font-family="Times,serif" font-size="14.00">b</text>
</g>
<!-- 3&#45;&gt;3 -->
<g id="edge7" class="edge"><title>3&#45;&gt;3</title>
<path fill="none" stroke="black" d="M98.0663,-206.734C108.074,-207.943 117,-205.031 117,-198 117,-193.496 113.337,-190.682 108.072,-189.559"/>
<polygon fill="black" stroke="black" points="108.165,-186.061 98.0663,-189.266 107.959,-193.057 108.165,-186.061"/>
<text text-anchor="middle" x="120.5" y="-194.3" font-family="Times,serif" font-size="14.00">b</text>
</g>
<!-- 3&#45;&gt;4 -->
<g id="edge8" class="edge"><title>3&#45;&gt;4</title>
<path fill="none" stroke="black" d="M70.4543,-177.026C65.5111,-163.941 59.0041,-146.717 53.6806,-132.625"/>
<polygon fill="black" stroke="black" points="56.861,-131.14 50.0528,-123.022 50.3127,-133.614 56.861,-131.14"/>
<text text-anchor="middle" x="66.5" y="-146.3" font-family="Times,serif" font-size="14.00">a</text>
</g>
<!-- 4&#45;&gt;1 -->
<g id="edge9" class="edge"><title>4&#45;&gt;1</title>
<path fill="none" stroke="black" d="M30.8612,-93.404C24.7839,-87.1556 18.2111,-78.9084 15,-70 12.2395,-62.3418 11.8441,-53.6195 12.4726,-45.5804"/>
<polygon fill="black" stroke="black" points="15.9577,-45.9205 13.7759,-35.5528 9.01613,-45.0182 15.9577,-45.9205"/>
<text text-anchor="middle" x="23.5" y="-58.3" font-family="Times,serif" font-size="14.00">b,a</text>
</g>
</g>
</svg>
