<?xml version="1.0" encoding="UTF-8" standalone="no"?>
<!DOCTYPE svg PUBLIC "-//W3C//DTD SVG 1.1//EN"
 "http://www.w3.org/Graphics/SVG/1.1/DTD/svg11.dtd">
<!-- Generated by graphviz version 2.36.0 (20140111.2315)
 -->
<!-- Title: %3 Pages: 1 -->
<svg width="167pt" height="316pt"
 viewBox="0.00 0.00 167.00 316.00" xmlns="http://www.w3.org/2000/svg" xmlns:xlink="http://www.w3.org/1999/xlink">
<g id="graph0" class="graph" transform="scale(1 1) rotate(0) translate(4 312)">
<title>%3</title>
<polygon fill="white" stroke="none" points="-4,4 -4,-312 163,-312 163,4 -4,4"/>
<!-- 0 -->
<g id="node1" class="node"><title>0</title>
<ellipse fill="lightblue" stroke="black" cx="116" cy="-202" rx="18" ry="18"/>
<text text-anchor="middle" x="116" y="-198.3" font-family="Times,serif" font-size="14.00">0</text>
</g>
<!-- 0&#45;&gt;0 -->
<g id="edge1" class="edge"><title>0&#45;&gt;0</title>
<path fill="none" stroke="black" d="M132.29,-209.668C142.389,-211.517 152,-208.961 152,-202 152,-197.541 148.056,-194.889 142.566,-194.045"/>
<polygon fill="black" stroke="black" points="142.189,-190.554 132.29,-194.332 142.384,-197.552 142.189,-190.554"/>
<text text-anchor="middle" x="155.5" y="-198.3" font-family="Times,serif" font-size="14.00">b</text>
</g>
<!-- 2 -->
<g id="node3" class="node"><title>2</title>
<ellipse fill="lightblue" stroke="black" cx="61" cy="-114" rx="18" ry="18"/>
<text text-anchor="middle" x="61" y="-110.3" font-family="Times,serif" font-size="14.00">2</text>
</g>
<!-- 0&#45;&gt;2 -->
<g id="edge2" class="edge"><title>0&#45;&gt;2</title>
<path fill="none" stroke="black" d="M107.846,-185.536C102.279,-175.271 94.5679,-161.602 87,-150 84.2008,-145.709 81.0642,-141.24 77.9643,-136.987"/>
<polygon fill="black" stroke="black" points="80.5579,-134.61 71.7728,-128.688 74.9474,-138.796 80.5579,-134.61"/>
<text text-anchor="middle" x="99.5" y="-154.3" font-family="Times,serif" font-size="14.00">a</text>
</g>
<!-- 1 -->
<g id="node2" class="node"><title>1</title>
<ellipse fill="lightblue" stroke="black" cx="18" cy="-202" rx="18" ry="18"/>
<text text-anchor="middle" x="18" y="-198.3" font-family="Times,serif" font-size="14.00">1</text>
</g>
<!-- 1&#45;&gt;2 -->
<g id="edge3" class="edge"><title>1&#45;&gt;2</title>
<path fill="none" stroke="black" d="M25.6875,-185.625C32.0684,-172.863 41.2639,-154.472 48.6718,-139.656"/>
<polygon fill="black" stroke="black" points="51.8923,-141.041 53.234,-130.532 45.6313,-137.911 51.8923,-141.041"/>
<text text-anchor="middle" x="46.5" y="-154.3" font-family="Times,serif" font-size="14.00">a</text>
</g>
<!-- 4 -->
<g id="node5" class="node"><title>4</title>
<ellipse fill="lightblue" stroke="black" cx="71" cy="-22" rx="17.5909" ry="18"/>
<ellipse fill="none" stroke="black" cx="71" cy="-22" rx="21.5" ry="22"/>
<text text-anchor="middle" x="71" y="-18.3" font-family="Times,serif" font-size="14.00">4</text>
</g>
<!-- 1&#45;&gt;4 -->
<g id="edge4" class="edge"><title>1&#45;&gt;4</title>
<path fill="none" stroke="black" d="M17.1221,-183.801C16.568,-162.609 17.3377,-125.757 27,-96 32.5858,-78.7974 42.8679,-61.3807 52.0884,-47.8757"/>
<polygon fill="black" stroke="black" points="55.019,-49.7934 57.9342,-39.6075 49.3033,-45.7522 55.019,-49.7934"/>
<text text-anchor="middle" x="30.5" y="-110.3" font-family="Times,serif" font-size="14.00">b</text>
</g>
<!-- 2&#45;&gt;2 -->
<g id="edge5" class="edge"><title>2&#45;&gt;2</title>
<path fill="none" stroke="black" d="M77.2903,-121.668C87.3892,-123.517 97,-120.961 97,-114 97,-109.541 93.0557,-106.889 87.5656,-106.045"/>
<polygon fill="black" stroke="black" points="87.1887,-102.554 77.2903,-106.332 87.384,-109.552 87.1887,-102.554"/>
<text text-anchor="middle" x="100.5" y="-110.3" font-family="Times,serif" font-size="14.00">a</text>
</g>
<!-- 2&#45;&gt;4 -->
<g id="edge6" class="edge"><title>2&#45;&gt;4</title>
<path fill="none" stroke="black" d="M58.7351,-95.912C57.8135,-85.966 57.3135,-73.216 59,-62 59.4592,-58.9461 60.11,-55.8014 60.8738,-52.6853"/>
<polygon fill="black" stroke="black" points="64.2664,-53.5495 63.6025,-42.9755 57.5275,-51.6557 64.2664,-53.5495"/>
<text text-anchor="middle" x="62.5" y="-66.3" font-family="Times,serif" font-size="14.00">b</text>
</g>
<!-- 3 -->
<g id="node4" class="node"><title>3</title>
<ellipse fill="green" stroke="black" cx="92" cy="-290" rx="18" ry="18"/>
<text text-anchor="middle" x="92" y="-286.3" font-family="Times,serif" font-size="14.00">3</text>
</g>
<!-- 3&#45;&gt;0 -->
<g id="edge7" class="edge"><title>3&#45;&gt;0</title>
<path fill="none" stroke="black" d="M96.6274,-272.418C100.047,-260.164 104.771,-243.236 108.698,-229.165"/>
<polygon fill="black" stroke="black" points="112.07,-230.104 111.387,-219.531 105.328,-228.222 112.07,-230.104"/>
<text text-anchor="middle" x="109.5" y="-242.3" font-family="Times,serif" font-size="14.00">a</text>
</g>
<!-- 3&#45;&gt;2 -->
<g id="edge8" class="edge"><title>3&#45;&gt;2</title>
<path fill="none" stroke="black" d="M88.9711,-271.999C83.5633,-241.645 72.2097,-177.919 65.7537,-141.682"/>
<polygon fill="black" stroke="black" points="69.1953,-141.045 63.9955,-131.813 62.3038,-142.272 69.1953,-141.045"/>
<text text-anchor="middle" x="82.5" y="-198.3" font-family="Times,serif" font-size="14.00">b</text>
</g>
<!-- 4&#45;&gt;0 -->
<g id="edge9" class="edge"><title>4&#45;&gt;0</title>
<path fill="none" stroke="black" d="M83.977,-39.8958C93.9986,-54.0304 107.117,-75.1752 113,-96 120.253,-121.673 120.196,-152.291 118.816,-173.819"/>
<polygon fill="black" stroke="black" points="115.319,-173.644 118.031,-183.885 122.298,-174.187 115.319,-173.644"/>
<text text-anchor="middle" x="121.5" y="-110.3" font-family="Times,serif" font-size="14.00">a</text>
</g>
<!-- 4&#45;&gt;2 -->
<g id="edge10" class="edge"><title>4&#45;&gt;2</title>
<path fill="none" stroke="black" d="M68.6698,-43.9715C67.28,-56.4798 65.5008,-72.493 64.0059,-85.9467"/>
<polygon fill="black" stroke="black" points="60.5067,-85.7463 62.8809,-96.0717 67.4639,-86.5194 60.5067,-85.7463"/>
<text text-anchor="middle" x="69.5" y="-66.3" font-family="Times,serif" font-size="14.00">b</text>
</g>
</g>
</svg>
