<?xml version="1.0" encoding="UTF-8" standalone="no"?>
<!DOCTYPE svg PUBLIC "-//W3C//DTD SVG 1.1//EN"
 "http://www.w3.org/Graphics/SVG/1.1/DTD/svg11.dtd">
<!-- Generated by graphviz version 2.36.0 (20140111.2315)
 -->
<!-- Title: %3 Pages: 1 -->
<svg width="115pt" height="316pt"
 viewBox="0.00 0.00 115.32 316.00" xmlns="http://www.w3.org/2000/svg" xmlns:xlink="http://www.w3.org/1999/xlink">
<g id="graph0" class="graph" transform="scale(1 1) rotate(0) translate(4 312)">
<title>%3</title>
<polygon fill="white" stroke="none" points="-4,4 -4,-312 111.32,-312 111.32,4 -4,4"/>
<!-- 0 -->
<g id="node1" class="node"><title>0</title>
<ellipse fill="lightblue" stroke="black" cx="64.32" cy="-290" rx="18" ry="18"/>
<text text-anchor="middle" x="64.32" y="-286.3" font-family="Times,serif" font-size="14.00">0</text>
</g>
<!-- 0&#45;&gt;0 -->
<g id="edge1" class="edge"><title>0&#45;&gt;0</title>
<path fill="none" stroke="black" d="M80.6102,-297.668C90.7091,-299.517 100.32,-296.961 100.32,-290 100.32,-285.541 96.3757,-282.889 90.8856,-282.045"/>
<polygon fill="black" stroke="black" points="90.5087,-278.554 80.6102,-282.332 90.704,-285.552 90.5087,-278.554"/>
<text text-anchor="middle" x="103.82" y="-286.3" font-family="Times,serif" font-size="14.00">a</text>
</g>
<!-- 3 -->
<g id="node4" class="node"><title>3</title>
<ellipse fill="green" stroke="black" cx="32.32" cy="-198" rx="17.5909" ry="18"/>
<ellipse fill="none" stroke="black" cx="32.32" cy="-198" rx="21.5" ry="22"/>
<text text-anchor="middle" x="32.32" y="-194.3" font-family="Times,serif" font-size="14.00">3</text>
</g>
<!-- 0&#45;&gt;3 -->
<g id="edge2" class="edge"><title>0&#45;&gt;3</title>
<path fill="none" stroke="black" d="M58.599,-272.91C54.2463,-260.668 48.1334,-243.475 42.8987,-228.753"/>
<polygon fill="black" stroke="black" points="46.0952,-227.295 39.4473,-219.046 39.4997,-229.64 46.0952,-227.295"/>
<text text-anchor="middle" x="53.82" y="-242.3" font-family="Times,serif" font-size="14.00">b</text>
</g>
<!-- 1 -->
<g id="node2" class="node"><title>1</title>
<ellipse fill="lightblue" stroke="black" cx="36.32" cy="-18" rx="18" ry="18"/>
<text text-anchor="middle" x="36.32" y="-14.3" font-family="Times,serif" font-size="14.00">1</text>
</g>
<!-- 1&#45;&gt;0 -->
<g id="edge3" class="edge"><title>1&#45;&gt;0</title>
<path fill="none" stroke="black" d="M46.3583,-33.0421C50.3311,-39.2092 54.5919,-46.6981 57.32,-54 62.6902,-68.3742 61.9435,-72.7173 63.32,-88 68.8899,-149.843 67.2,-222.821 65.6515,-261.579"/>
<polygon fill="black" stroke="black" points="62.1358,-261.872 65.2042,-272.013 69.1294,-262.172 62.1358,-261.872"/>
<text text-anchor="middle" x="69.82" y="-146.3" font-family="Times,serif" font-size="14.00">b</text>
</g>
<!-- 1&#45;&gt;1 -->
<g id="edge4" class="edge"><title>1&#45;&gt;1</title>
<path fill="none" stroke="black" d="M52.6102,-25.6679C62.7091,-27.5169 72.32,-24.9609 72.32,-18 72.32,-13.5406 68.3757,-10.8891 62.8856,-10.0454"/>
<polygon fill="black" stroke="black" points="62.5087,-6.55441 52.6102,-10.3321 62.704,-13.5517 62.5087,-6.55441"/>
<text text-anchor="middle" x="75.82" y="-14.3" font-family="Times,serif" font-size="14.00">a</text>
</g>
<!-- 2 -->
<g id="node3" class="node"><title>2</title>
<ellipse fill="lightblue" stroke="black" cx="36.32" cy="-106" rx="18" ry="18"/>
<text text-anchor="middle" x="36.32" y="-102.3" font-family="Times,serif" font-size="14.00">2</text>
</g>
<!-- 2&#45;&gt;1 -->
<g id="edge5" class="edge"><title>2&#45;&gt;1</title>
<path fill="none" stroke="black" d="M36.32,-87.5966C36.32,-75.7459 36.32,-59.8169 36.32,-46.2917"/>
<polygon fill="black" stroke="black" points="39.8201,-46.084 36.32,-36.084 32.8201,-46.084 39.8201,-46.084"/>
<text text-anchor="middle" x="44.82" y="-58.3" font-family="Times,serif" font-size="14.00">b,a</text>
</g>
<!-- 3&#45;&gt;1 -->
<g id="edge6" class="edge"><title>3&#45;&gt;1</title>
<path fill="none" stroke="black" d="M21.4698,-178.599C10.0957,-157.02 -5.16255,-120.114 2.31996,-88 6.09973,-71.7779 14.2672,-54.984 21.6496,-42.0263"/>
<polygon fill="black" stroke="black" points="24.716,-43.7174 26.8125,-33.3321 18.6972,-40.1433 24.716,-43.7174"/>
<text text-anchor="middle" x="5.81996" y="-102.3" font-family="Times,serif" font-size="14.00">a</text>
</g>
<!-- 3&#45;&gt;2 -->
<g id="edge7" class="edge"><title>3&#45;&gt;2</title>
<path fill="none" stroke="black" d="M33.2679,-175.671C33.8184,-163.284 34.5176,-147.552 35.1079,-134.272"/>
<polygon fill="black" stroke="black" points="38.6054,-134.404 35.5529,-124.258 31.6123,-134.093 38.6054,-134.404"/>
<text text-anchor="middle" x="37.82" y="-146.3" font-family="Times,serif" font-size="14.00">b</text>
</g>
</g>
</svg>
