<?xml version="1.0" encoding="UTF-8" standalone="no"?>
<!DOCTYPE svg PUBLIC "-//W3C//DTD SVG 1.1//EN"
 "http://www.w3.org/Graphics/SVG/1.1/DTD/svg11.dtd">
<!-- Generated by graphviz version 2.36.0 (20140111.2315)
 -->
<!-- Title: %3 Pages: 1 -->
<svg width="158pt" height="316pt"
 viewBox="0.00 0.00 158.00 316.00" xmlns="http://www.w3.org/2000/svg" xmlns:xlink="http://www.w3.org/1999/xlink">
<g id="graph0" class="graph" transform="scale(1 1) rotate(0) translate(4 312)">
<title>%3</title>
<polygon fill="white" stroke="none" points="-4,4 -4,-312 154,-312 154,4 -4,4"/>
<!-- 0 -->
<g id="node1" class="node"><title>0</title>
<ellipse fill="lightblue" stroke="black" cx="79" cy="-202" rx="18" ry="18"/>
<text text-anchor="middle" x="79" y="-198.3" font-family="Times,serif" font-size="14.00">0</text>
</g>
<!-- 1 -->
<g id="node2" class="node"><title>1</title>
<ellipse fill="lightblue" stroke="black" cx="21" cy="-110" rx="17.5909" ry="18"/>
<ellipse fill="none" stroke="black" cx="21" cy="-110" rx="21.5" ry="22"/>
<text text-anchor="middle" x="21" y="-106.3" font-family="Times,serif" font-size="14.00">1</text>
</g>
<!-- 0&#45;&gt;1 -->
<g id="edge1" class="edge"><title>0&#45;&gt;1</title>
<path fill="none" stroke="black" d="M62.503,-194.466C50.5441,-188.81 35.1039,-179.412 27,-166 22.739,-158.948 20.6598,-150.446 19.7788,-142.259"/>
<polygon fill="black" stroke="black" points="23.2691,-141.983 19.2296,-132.188 16.2794,-142.364 23.2691,-141.983"/>
<text text-anchor="middle" x="30.5" y="-154.3" font-family="Times,serif" font-size="14.00">b</text>
</g>
<!-- 2 -->
<g id="node3" class="node"><title>2</title>
<ellipse fill="lightblue" stroke="black" cx="100" cy="-18" rx="18" ry="18"/>
<text text-anchor="middle" x="100" y="-14.3" font-family="Times,serif" font-size="14.00">2</text>
</g>
<!-- 0&#45;&gt;2 -->
<g id="edge2" class="edge"><title>0&#45;&gt;2</title>
<path fill="none" stroke="black" d="M80.9756,-183.878C84.6278,-152.226 92.4621,-84.3282 96.8527,-46.2765"/>
<polygon fill="black" stroke="black" points="100.376,-46.2793 98.0449,-35.944 93.4217,-45.4769 100.376,-46.2793"/>
<text text-anchor="middle" x="94.5" y="-106.3" font-family="Times,serif" font-size="14.00">a</text>
</g>
<!-- 1&#45;&gt;0 -->
<g id="edge3" class="edge"><title>1&#45;&gt;0</title>
<path fill="none" stroke="black" d="M32.4914,-128.832C41.6022,-142.969 54.3978,-162.824 64.2621,-178.131"/>
<polygon fill="black" stroke="black" points="61.3222,-180.03 69.6813,-186.54 67.2062,-176.238 61.3222,-180.03"/>
<text text-anchor="middle" x="58.5" y="-154.3" font-family="Times,serif" font-size="14.00">a</text>
</g>
<!-- 1&#45;&gt;2 -->
<g id="edge4" class="edge"><title>1&#45;&gt;2</title>
<path fill="none" stroke="black" d="M31.47,-90.7267C38.304,-79.5483 47.8231,-65.278 58,-54 63.8123,-47.5588 70.8285,-41.2553 77.4479,-35.8122"/>
<polygon fill="black" stroke="black" points="79.8355,-38.3859 85.4997,-29.4323 75.4882,-32.8994 79.8355,-38.3859"/>
<text text-anchor="middle" x="61.5" y="-58.3" font-family="Times,serif" font-size="14.00">b</text>
</g>
<!-- 2&#45;&gt;0 -->
<g id="edge5" class="edge"><title>2&#45;&gt;0</title>
<path fill="none" stroke="black" d="M104.598,-35.6032C105.982,-41.3784 107.315,-47.9301 108,-54 113.603,-103.661 112.796,-118.265 98,-166 96.791,-169.901 95.1285,-173.864 93.2862,-177.654"/>
<polygon fill="black" stroke="black" points="90.1389,-176.117 88.4918,-186.583 96.3061,-179.429 90.1389,-176.117"/>
<text text-anchor="middle" x="114.5" y="-106.3" font-family="Times,serif" font-size="14.00">b</text>
</g>
<!-- 2&#45;&gt;2 -->
<g id="edge6" class="edge"><title>2&#45;&gt;2</title>
<path fill="none" stroke="black" d="M116.29,-25.6679C126.389,-27.5169 136,-24.9609 136,-18 136,-13.5406 132.056,-10.8891 126.566,-10.0454"/>
<polygon fill="black" stroke="black" points="126.189,-6.55441 116.29,-10.3321 126.384,-13.5517 126.189,-6.55441"/>
<text text-anchor="middle" x="139.5" y="-14.3" font-family="Times,serif" font-size="14.00">a</text>
</g>
<!-- 3 -->
<g id="node4" class="node"><title>3</title>
<ellipse fill="green" stroke="black" cx="132" cy="-290" rx="18" ry="18"/>
<text text-anchor="middle" x="132" y="-286.3" font-family="Times,serif" font-size="14.00">3</text>
</g>
<!-- 3&#45;&gt;0 -->
<g id="edge7" class="edge"><title>3&#45;&gt;0</title>
<path fill="none" stroke="black" d="M122.768,-274.02C114.712,-260.948 102.885,-241.758 93.5561,-226.619"/>
<polygon fill="black" stroke="black" points="96.3523,-224.485 88.1261,-217.808 90.393,-228.158 96.3523,-224.485"/>
<text text-anchor="middle" x="113.5" y="-242.3" font-family="Times,serif" font-size="14.00">a</text>
</g>
<!-- 3&#45;&gt;2 -->
<g id="edge8" class="edge"><title>3&#45;&gt;2</title>
<path fill="none" stroke="black" d="M134.192,-271.972C138.649,-232.545 146.401,-132.369 122,-54 120.618,-49.5629 118.528,-45.1313 116.177,-40.9863"/>
<polygon fill="black" stroke="black" points="119.094,-39.0509 110.783,-32.479 113.182,-42.7988 119.094,-39.0509"/>
<text text-anchor="middle" x="141.5" y="-154.3" font-family="Times,serif" font-size="14.00">b</text>
</g>
</g>
</svg>
