<?xml version="1.0" encoding="UTF-8" standalone="no"?>
<!DOCTYPE svg PUBLIC "-//W3C//DTD SVG 1.1//EN"
 "http://www.w3.org/Graphics/SVG/1.1/DTD/svg11.dtd">
<!-- Generated by graphviz version 2.36.0 (20140111.2315)
 -->
<!-- Title: %3 Pages: 1 -->
<svg width="116pt" height="404pt"
 viewBox="0.00 0.00 116.00 404.00" xmlns="http://www.w3.org/2000/svg" xmlns:xlink="http://www.w3.org/1999/xlink">
<g id="graph0" class="graph" transform="scale(1 1) rotate(0) translate(4 400)">
<title>%3</title>
<polygon fill="white" stroke="none" points="-4,4 -4,-400 112,-400 112,4 -4,4"/>
<!-- 0 -->
<g id="node1" class="node"><title>0</title>
<ellipse fill="lightblue" stroke="black" cx="65" cy="-290" rx="18" ry="18"/>
<text text-anchor="middle" x="65" y="-286.3" font-family="Times,serif" font-size="14.00">0</text>
</g>
<!-- 0&#45;&gt;0 -->
<g id="edge1" class="edge"><title>0&#45;&gt;0</title>
<path fill="none" stroke="black" d="M81.2903,-297.668C91.3892,-299.517 101,-296.961 101,-290 101,-285.541 97.0557,-282.889 91.5656,-282.045"/>
<polygon fill="black" stroke="black" points="91.1887,-278.554 81.2903,-282.332 91.384,-285.552 91.1887,-278.554"/>
<text text-anchor="middle" x="104.5" y="-286.3" font-family="Times,serif" font-size="14.00">a</text>
</g>
<!-- 4 -->
<g id="node5" class="node"><title>4</title>
<ellipse fill="lightblue" stroke="black" cx="22" cy="-198" rx="17.5909" ry="18"/>
<ellipse fill="none" stroke="black" cx="22" cy="-198" rx="21.5" ry="22"/>
<text text-anchor="middle" x="22" y="-194.3" font-family="Times,serif" font-size="14.00">4</text>
</g>
<!-- 0&#45;&gt;4 -->
<g id="edge2" class="edge"><title>0&#45;&gt;4</title>
<path fill="none" stroke="black" d="M57.51,-273.323C51.5095,-260.764 42.9302,-242.807 35.7077,-227.691"/>
<polygon fill="black" stroke="black" points="38.6673,-225.766 31.1982,-218.252 32.3512,-228.784 38.6673,-225.766"/>
<text text-anchor="middle" x="51.5" y="-242.3" font-family="Times,serif" font-size="14.00">b</text>
</g>
<!-- 1 -->
<g id="node2" class="node"><title>1</title>
<ellipse fill="green" stroke="black" cx="76" cy="-106" rx="18" ry="18"/>
<text text-anchor="middle" x="76" y="-102.3" font-family="Times,serif" font-size="14.00">1</text>
</g>
<!-- 1&#45;&gt;0 -->
<g id="edge3" class="edge"><title>1&#45;&gt;0</title>
<path fill="none" stroke="black" d="M74.9599,-124.209C73.0477,-155.847 68.9597,-223.486 66.6598,-261.537"/>
<polygon fill="black" stroke="black" points="63.1446,-261.685 66.0349,-271.878 70.1319,-262.107 63.1446,-261.685"/>
<text text-anchor="middle" x="74.5" y="-194.3" font-family="Times,serif" font-size="14.00">a</text>
</g>
<!-- 2 -->
<g id="node3" class="node"><title>2</title>
<ellipse fill="lightblue" stroke="black" cx="23" cy="-18" rx="18" ry="18"/>
<text text-anchor="middle" x="23" y="-14.3" font-family="Times,serif" font-size="14.00">2</text>
</g>
<!-- 1&#45;&gt;2 -->
<g id="edge4" class="edge"><title>1&#45;&gt;2</title>
<path fill="none" stroke="black" d="M66.7681,-90.0199C58.7123,-76.9482 46.8855,-57.7576 37.5561,-42.6194"/>
<polygon fill="black" stroke="black" points="40.3523,-40.4853 32.1261,-33.8084 34.393,-44.1579 40.3523,-40.4853"/>
<text text-anchor="middle" x="58.5" y="-58.3" font-family="Times,serif" font-size="14.00">b</text>
</g>
<!-- 2&#45;&gt;4 -->
<g id="edge5" class="edge"><title>2&#45;&gt;4</title>
<path fill="none" stroke="black" d="M22.9039,-36.1141C22.7365,-65.9087 22.3892,-127.727 22.1772,-165.464"/>
<polygon fill="black" stroke="black" points="18.675,-165.863 22.1186,-175.882 25.6749,-165.902 18.675,-165.863"/>
<text text-anchor="middle" x="31.5" y="-102.3" font-family="Times,serif" font-size="14.00">b,a</text>
</g>
<!-- 3 -->
<g id="node4" class="node"><title>3</title>
<ellipse fill="lightblue" stroke="black" cx="65" cy="-378" rx="18" ry="18"/>
<text text-anchor="middle" x="65" y="-374.3" font-family="Times,serif" font-size="14.00">3</text>
</g>
<!-- 3&#45;&gt;0 -->
<g id="edge6" class="edge"><title>3&#45;&gt;0</title>
<path fill="none" stroke="black" d="M65,-359.597C65,-347.746 65,-331.817 65,-318.292"/>
<polygon fill="black" stroke="black" points="68.5001,-318.084 65,-308.084 61.5001,-318.084 68.5001,-318.084"/>
<text text-anchor="middle" x="68.5" y="-330.3" font-family="Times,serif" font-size="14.00">a</text>
</g>
<!-- 3&#45;&gt;3 -->
<g id="edge7" class="edge"><title>3&#45;&gt;3</title>
<path fill="none" stroke="black" d="M81.2903,-385.668C91.3892,-387.517 101,-384.961 101,-378 101,-373.541 97.0557,-370.889 91.5656,-370.045"/>
<polygon fill="black" stroke="black" points="91.1887,-366.554 81.2903,-370.332 91.384,-373.552 91.1887,-366.554"/>
<text text-anchor="middle" x="104.5" y="-374.3" font-family="Times,serif" font-size="14.00">b</text>
</g>
<!-- 4&#45;&gt;1 -->
<g id="edge8" class="edge"><title>4&#45;&gt;1</title>
<path fill="none" stroke="black" d="M32.9277,-178.787C41.2477,-164.921 52.769,-145.718 61.8024,-130.663"/>
<polygon fill="black" stroke="black" points="64.9108,-132.285 67.0546,-121.909 58.9084,-128.683 64.9108,-132.285"/>
<text text-anchor="middle" x="57.5" y="-146.3" font-family="Times,serif" font-size="14.00">b</text>
</g>
<!-- 4&#45;&gt;2 -->
<g id="edge9" class="edge"><title>4&#45;&gt;2</title>
<path fill="none" stroke="black" d="M17.9621,-176.117C14.2193,-154.186 9.56913,-118.689 12,-88 13.1075,-74.018 15.4586,-58.5904 17.7039,-45.8754"/>
<polygon fill="black" stroke="black" points="21.1674,-46.3924 19.5355,-35.924 14.2831,-45.1253 21.1674,-46.3924"/>
<text text-anchor="middle" x="15.5" y="-102.3" font-family="Times,serif" font-size="14.00">a</text>
</g>
</g>
</svg>
