<?xml version="1.0" encoding="UTF-8" standalone="no"?>
<!DOCTYPE svg PUBLIC "-//W3C//DTD SVG 1.1//EN"
 "http://www.w3.org/Graphics/SVG/1.1/DTD/svg11.dtd">
<!-- Generated by graphviz version 2.36.0 (20140111.2315)
 -->
<!-- Title: %3 Pages: 1 -->
<svg width="144pt" height="228pt"
 viewBox="0.00 0.00 144.00 228.00" xmlns="http://www.w3.org/2000/svg" xmlns:xlink="http://www.w3.org/1999/xlink">
<g id="graph0" class="graph" transform="scale(1 1) rotate(0) translate(4 224)">
<title>%3</title>
<polygon fill="white" stroke="none" points="-4,4 -4,-224 140,-224 140,4 -4,4"/>
<!-- 0 -->
<g id="node1" class="node"><title>0</title>
<ellipse fill="lightblue" stroke="black" cx="50" cy="-202" rx="18" ry="18"/>
<text text-anchor="middle" x="50" y="-198.3" font-family="Times,serif" font-size="14.00">0</text>
</g>
<!-- 0&#45;&gt;0 -->
<g id="edge1" class="edge"><title>0&#45;&gt;0</title>
<path fill="none" stroke="black" d="M66.2903,-209.668C76.3892,-211.517 86,-208.961 86,-202 86,-197.541 82.0557,-194.889 76.5656,-194.045"/>
<polygon fill="black" stroke="black" points="76.1887,-190.554 66.2903,-194.332 76.384,-197.552 76.1887,-190.554"/>
<text text-anchor="middle" x="89.5" y="-198.3" font-family="Times,serif" font-size="14.00">a</text>
</g>
<!-- 2 -->
<g id="node3" class="node"><title>2</title>
<ellipse fill="lightblue" stroke="black" cx="50" cy="-114" rx="18" ry="18"/>
<text text-anchor="middle" x="50" y="-110.3" font-family="Times,serif" font-size="14.00">2</text>
</g>
<!-- 0&#45;&gt;2 -->
<g id="edge2" class="edge"><title>0&#45;&gt;2</title>
<path fill="none" stroke="black" d="M50,-183.597C50,-171.746 50,-155.817 50,-142.292"/>
<polygon fill="black" stroke="black" points="53.5001,-142.084 50,-132.084 46.5001,-142.084 53.5001,-142.084"/>
<text text-anchor="middle" x="53.5" y="-154.3" font-family="Times,serif" font-size="14.00">b</text>
</g>
<!-- 1 -->
<g id="node2" class="node"><title>1</title>
<ellipse fill="green" stroke="black" cx="22" cy="-22" rx="17.5909" ry="18"/>
<ellipse fill="none" stroke="black" cx="22" cy="-22" rx="21.5" ry="22"/>
<text text-anchor="middle" x="22" y="-18.3" font-family="Times,serif" font-size="14.00">1</text>
</g>
<!-- 1&#45;&gt;0 -->
<g id="edge3" class="edge"><title>1&#45;&gt;0</title>
<path fill="none" stroke="black" d="M17.4243,-43.7918C13.3392,-65.9507 8.98986,-101.914 16,-132 19.7798,-148.222 27.9472,-165.016 35.3297,-177.974"/>
<polygon fill="black" stroke="black" points="32.3772,-179.857 40.4926,-186.668 38.396,-176.283 32.3772,-179.857"/>
<text text-anchor="middle" x="19.5" y="-110.3" font-family="Times,serif" font-size="14.00">b</text>
</g>
<!-- 1&#45;&gt;2 -->
<g id="edge4" class="edge"><title>1&#45;&gt;2</title>
<path fill="none" stroke="black" d="M28.2794,-43.1837C32.2638,-55.9908 37.4622,-72.6998 41.7743,-86.5604"/>
<polygon fill="black" stroke="black" points="38.5516,-87.9838 44.8644,-96.4926 45.2356,-85.9043 38.5516,-87.9838"/>
<text text-anchor="middle" x="42.5" y="-66.3" font-family="Times,serif" font-size="14.00">a</text>
</g>
<!-- 2&#45;&gt;1 -->
<g id="edge5" class="edge"><title>2&#45;&gt;1</title>
<path fill="none" stroke="black" d="M38.0583,-100.055C33.0835,-93.852 27.8178,-86.0328 25,-78 22.3809,-70.5336 21.1415,-62.148 20.6634,-54.2174"/>
<polygon fill="black" stroke="black" points="24.1613,-54.0824 20.4216,-44.1696 17.1633,-54.2509 24.1613,-54.0824"/>
<text text-anchor="middle" x="28.5" y="-66.3" font-family="Times,serif" font-size="14.00">a</text>
</g>
<!-- 3 -->
<g id="node4" class="node"><title>3</title>
<ellipse fill="lightblue" stroke="black" cx="93" cy="-22" rx="18" ry="18"/>
<text text-anchor="middle" x="93" y="-18.3" font-family="Times,serif" font-size="14.00">3</text>
</g>
<!-- 2&#45;&gt;3 -->
<g id="edge6" class="edge"><title>2&#45;&gt;3</title>
<path fill="none" stroke="black" d="M57.49,-97.3232C64.0259,-83.6435 73.6212,-63.5602 81.1903,-47.718"/>
<polygon fill="black" stroke="black" points="84.4428,-49.0291 85.5958,-38.4972 78.1267,-46.0113 84.4428,-49.0291"/>
<text text-anchor="middle" x="77.5" y="-66.3" font-family="Times,serif" font-size="14.00">b</text>
</g>
<!-- 3&#45;&gt;0 -->
<g id="edge7" class="edge"><title>3&#45;&gt;0</title>
<path fill="none" stroke="black" d="M90.5606,-39.8517C88.9818,-50.7377 86.878,-65.2073 85,-78 81.4761,-102.005 83.238,-108.554 77,-132 72.9939,-147.057 66.7344,-163.313 61.2506,-176.262"/>
<polygon fill="black" stroke="black" points="58.0356,-174.879 57.2585,-185.445 64.4552,-177.669 58.0356,-174.879"/>
<text text-anchor="middle" x="85.5" y="-110.3" font-family="Times,serif" font-size="14.00">a</text>
</g>
<!-- 3&#45;&gt;3 -->
<g id="edge8" class="edge"><title>3&#45;&gt;3</title>
<path fill="none" stroke="black" d="M109.29,-30.365C119.389,-32.3821 129,-29.5938 129,-22 129,-17.1353 125.056,-14.2427 119.566,-13.3222"/>
<polygon fill="black" stroke="black" points="119.179,-9.83225 109.29,-13.635 119.392,-16.829 119.179,-9.83225"/>
<text text-anchor="middle" x="132.5" y="-18.3" font-family="Times,serif" font-size="14.00">b</text>
</g>
</g>
</svg>
