<?xml version="1.0" encoding="UTF-8" standalone="no"?>
<!DOCTYPE svg PUBLIC "-//W3C//DTD SVG 1.1//EN"
 "http://www.w3.org/Graphics/SVG/1.1/DTD/svg11.dtd">
<!-- Generated by graphviz version 2.36.0 (20140111.2315)
 -->
<!-- Title: %3 Pages: 1 -->
<svg width="105pt" height="404pt"
 viewBox="0.00 0.00 105.00 404.00" xmlns="http://www.w3.org/2000/svg" xmlns:xlink="http://www.w3.org/1999/xlink">
<g id="graph0" class="graph" transform="scale(1 1) rotate(0) translate(4 400)">
<title>%3</title>
<polygon fill="white" stroke="none" points="-4,4 -4,-400 101,-400 101,4 -4,4"/>
<!-- 0 -->
<g id="node1" class="node"><title>0</title>
<ellipse fill="green" stroke="black" cx="50" cy="-110" rx="17.5909" ry="18"/>
<ellipse fill="none" stroke="black" cx="50" cy="-110" rx="21.5" ry="22"/>
<text text-anchor="middle" x="50" y="-106.3" font-family="Times,serif" font-size="14.00">0</text>
</g>
<!-- 0&#45;&gt;0 -->
<g id="edge1" class="edge"><title>0&#45;&gt;0</title>
<path fill="none" stroke="black" d="M70.0663,-118.734C80.0736,-119.943 89,-117.031 89,-110 89,-105.496 85.3366,-102.682 80.0725,-101.559"/>
<polygon fill="black" stroke="black" points="80.1646,-98.0605 70.0663,-101.266 79.9594,-105.057 80.1646,-98.0605"/>
<text text-anchor="middle" x="92.5" y="-106.3" font-family="Times,serif" font-size="14.00">b</text>
</g>
<!-- 1 -->
<g id="node2" class="node"><title>1</title>
<ellipse fill="lightblue" stroke="black" cx="33" cy="-18" rx="18" ry="18"/>
<text text-anchor="middle" x="33" y="-14.3" font-family="Times,serif" font-size="14.00">1</text>
</g>
<!-- 0&#45;&gt;1 -->
<g id="edge2" class="edge"><title>0&#45;&gt;1</title>
<path fill="none" stroke="black" d="M41.7572,-89.4737C39.5069,-83.3447 37.3259,-76.4842 36,-70 34.4363,-62.3531 33.5932,-53.9371 33.16,-46.1843"/>
<polygon fill="black" stroke="black" points="36.6566,-46.0236 32.7942,-36.1579 29.6612,-46.2789 36.6566,-46.0236"/>
<text text-anchor="middle" x="39.5" y="-58.3" font-family="Times,serif" font-size="14.00">a</text>
</g>
<!-- 1&#45;&gt;0 -->
<g id="edge3" class="edge"><title>1&#45;&gt;0</title>
<path fill="none" stroke="black" d="M37.0385,-35.6894C38.378,-41.4715 39.8256,-48.0055 41,-54 42.5262,-61.7904 43.9986,-70.2367 45.2948,-78.1183"/>
<polygon fill="black" stroke="black" points="41.8484,-78.7315 46.8872,-88.0514 48.7601,-77.6234 41.8484,-78.7315"/>
<text text-anchor="middle" x="51.5" y="-58.3" font-family="Times,serif" font-size="14.00">b,a</text>
</g>
<!-- 2 -->
<g id="node3" class="node"><title>2</title>
<ellipse fill="lightblue" stroke="black" cx="46" cy="-290" rx="18" ry="18"/>
<text text-anchor="middle" x="46" y="-286.3" font-family="Times,serif" font-size="14.00">2</text>
</g>
<!-- 2&#45;&gt;2 -->
<g id="edge4" class="edge"><title>2&#45;&gt;2</title>
<path fill="none" stroke="black" d="M62.2903,-297.668C72.3892,-299.517 82,-296.961 82,-290 82,-285.541 78.0557,-282.889 72.5656,-282.045"/>
<polygon fill="black" stroke="black" points="72.1887,-278.554 62.2903,-282.332 72.384,-285.552 72.1887,-278.554"/>
<text text-anchor="middle" x="85.5" y="-286.3" font-family="Times,serif" font-size="14.00">b</text>
</g>
<!-- 4 -->
<g id="node5" class="node"><title>4</title>
<ellipse fill="lightblue" stroke="black" cx="49" cy="-202" rx="18" ry="18"/>
<text text-anchor="middle" x="49" y="-198.3" font-family="Times,serif" font-size="14.00">4</text>
</g>
<!-- 2&#45;&gt;4 -->
<g id="edge5" class="edge"><title>2&#45;&gt;4</title>
<path fill="none" stroke="black" d="M46.5927,-272.009C47.005,-260.19 47.5638,-244.171 48.0392,-230.542"/>
<polygon fill="black" stroke="black" points="51.5474,-230.366 48.3983,-220.25 44.5517,-230.122 51.5474,-230.366"/>
<text text-anchor="middle" x="50.5" y="-242.3" font-family="Times,serif" font-size="14.00">a</text>
</g>
<!-- 3 -->
<g id="node4" class="node"><title>3</title>
<ellipse fill="lightblue" stroke="black" cx="19" cy="-378" rx="18" ry="18"/>
<text text-anchor="middle" x="19" y="-374.3" font-family="Times,serif" font-size="14.00">3</text>
</g>
<!-- 3&#45;&gt;1 -->
<g id="edge6" class="edge"><title>3&#45;&gt;1</title>
<path fill="none" stroke="black" d="M13.1961,-360.749C7.60858,-343.63 0,-315.771 0,-291 0,-291 0,-291 0,-109 0,-85.4096 10.1177,-60.3501 19.1485,-42.6812"/>
<polygon fill="black" stroke="black" points="22.3338,-44.1474 23.9826,-33.6817 16.1671,-40.8349 22.3338,-44.1474"/>
<text text-anchor="middle" x="3.5" y="-198.3" font-family="Times,serif" font-size="14.00">b</text>
</g>
<!-- 3&#45;&gt;2 -->
<g id="edge7" class="edge"><title>3&#45;&gt;2</title>
<path fill="none" stroke="black" d="M24.2059,-360.418C28.0532,-348.164 33.3677,-331.236 37.7856,-317.165"/>
<polygon fill="black" stroke="black" points="41.154,-318.12 40.8101,-307.531 34.4754,-316.023 41.154,-318.12"/>
<text text-anchor="middle" x="37.5" y="-330.3" font-family="Times,serif" font-size="14.00">a</text>
</g>
<!-- 4&#45;&gt;0 -->
<g id="edge8" class="edge"><title>4&#45;&gt;0</title>
<path fill="none" stroke="black" d="M49.1928,-183.647C49.3231,-171.924 49.4987,-156.114 49.6529,-142.237"/>
<polygon fill="black" stroke="black" points="53.1541,-142.139 49.7655,-132.101 46.1546,-142.061 53.1541,-142.139"/>
<text text-anchor="middle" x="57.5" y="-154.3" font-family="Times,serif" font-size="14.00">b,a</text>
</g>
</g>
</svg>
