<?xml version="1.0" encoding="UTF-8" standalone="no"?>
<!DOCTYPE svg PUBLIC "-//W3C//DTD SVG 1.1//EN"
 "http://www.w3.org/Graphics/SVG/1.1/DTD/svg11.dtd">
<!-- Generated by graphviz version 2.36.0 (20140111.2315)
 -->
<!-- Title: %3 Pages: 1 -->
<svg width="159pt" height="316pt"
 viewBox="0.00 0.00 159.00 316.00" xmlns="http://www.w3.org/2000/svg" xmlns:xlink="http://www.w3.org/1999/xlink">
<g id="graph0" class="graph" transform="scale(1 1) rotate(0) translate(4 312)">
<title>%3</title>
<polygon fill="white" stroke="none" points="-4,4 -4,-312 155,-312 155,4 -4,4"/>
<!-- 0 -->
<g id="node1" class="node"><title>0</title>
<ellipse fill="lightblue" stroke="black" cx="60" cy="-202" rx="18" ry="18"/>
<text text-anchor="middle" x="60" y="-198.3" font-family="Times,serif" font-size="14.00">0</text>
</g>
<!-- 0&#45;&gt;0 -->
<g id="edge1" class="edge"><title>0&#45;&gt;0</title>
<path fill="none" stroke="black" d="M76.2903,-209.668C86.3892,-211.517 96,-208.961 96,-202 96,-197.541 92.0557,-194.889 86.5656,-194.045"/>
<polygon fill="black" stroke="black" points="86.1887,-190.554 76.2903,-194.332 86.384,-197.552 86.1887,-190.554"/>
<text text-anchor="middle" x="99.5" y="-198.3" font-family="Times,serif" font-size="14.00">c</text>
</g>
<!-- 2 -->
<g id="node3" class="node"><title>2</title>
<ellipse fill="lightblue" stroke="black" cx="18" cy="-114" rx="18" ry="18"/>
<text text-anchor="middle" x="18" y="-110.3" font-family="Times,serif" font-size="14.00">2</text>
</g>
<!-- 0&#45;&gt;2 -->
<g id="edge2" class="edge"><title>0&#45;&gt;2</title>
<path fill="none" stroke="black" d="M44.6884,-191.653C36.1113,-185.513 26.1345,-176.654 21,-166 17.4659,-158.667 16.0803,-150.036 15.7569,-141.981"/>
<polygon fill="black" stroke="black" points="19.2576,-141.914 15.8522,-131.882 12.2579,-141.848 19.2576,-141.914"/>
<text text-anchor="middle" x="29.5" y="-154.3" font-family="Times,serif" font-size="14.00">b,a</text>
</g>
<!-- 1 -->
<g id="node2" class="node"><title>1</title>
<ellipse fill="green" stroke="black" cx="82" cy="-22" rx="17.5909" ry="18"/>
<ellipse fill="none" stroke="black" cx="82" cy="-22" rx="21.5" ry="22"/>
<text text-anchor="middle" x="82" y="-18.3" font-family="Times,serif" font-size="14.00">1</text>
</g>
<!-- 1&#45;&gt;0 -->
<g id="edge3" class="edge"><title>1&#45;&gt;0</title>
<path fill="none" stroke="black" d="M79.9118,-43.9212C77.6694,-65.8834 73.8999,-101.406 70,-132 68.2303,-145.883 66.0192,-161.301 64.1265,-174.036"/>
<polygon fill="black" stroke="black" points="60.6528,-173.599 62.6282,-184.008 67.5751,-174.64 60.6528,-173.599"/>
<text text-anchor="middle" x="77.5" y="-110.3" font-family="Times,serif" font-size="14.00">a</text>
</g>
<!-- 1&#45;&gt;1 -->
<g id="edge4" class="edge"><title>1&#45;&gt;1</title>
<path fill="none" stroke="black" d="M102.066,-30.7341C112.074,-31.9426 121,-29.0312 121,-22 121,-17.4956 117.337,-14.682 112.072,-13.5592"/>
<polygon fill="black" stroke="black" points="112.165,-10.0605 102.066,-13.2659 111.959,-17.0575 112.165,-10.0605"/>
<text text-anchor="middle" x="124.5" y="-18.3" font-family="Times,serif" font-size="14.00">c</text>
</g>
<!-- 1&#45;&gt;2 -->
<g id="edge5" class="edge"><title>1&#45;&gt;2</title>
<path fill="none" stroke="black" d="M69.6602,-40.3529C59.5211,-54.6109 45.0829,-74.9146 34.0467,-90.4344"/>
<polygon fill="black" stroke="black" points="30.9429,-88.7596 28,-98.9375 36.6476,-92.8163 30.9429,-88.7596"/>
<text text-anchor="middle" x="56.5" y="-66.3" font-family="Times,serif" font-size="14.00">b</text>
</g>
<!-- 2&#45;&gt;0 -->
<g id="edge6" class="edge"><title>2&#45;&gt;0</title>
<path fill="none" stroke="black" d="M26.9384,-129.788C30.5356,-135.952 34.6228,-143.238 38,-150 42.0433,-158.096 46.0786,-167.109 49.5684,-175.28"/>
<polygon fill="black" stroke="black" points="46.4266,-176.839 53.5185,-184.71 52.8831,-174.134 46.4266,-176.839"/>
<text text-anchor="middle" x="48.5" y="-154.3" font-family="Times,serif" font-size="14.00">a</text>
</g>
<!-- 2&#45;&gt;1 -->
<g id="edge7" class="edge"><title>2&#45;&gt;1</title>
<path fill="none" stroke="black" d="M20.3615,-95.8091C22.4233,-85.3508 26.1988,-72.1073 33,-62 38.7663,-53.4305 47.0008,-45.8505 55.0775,-39.7057"/>
<polygon fill="black" stroke="black" points="57.2051,-42.4874 63.327,-33.8403 53.1489,-36.7824 57.2051,-42.4874"/>
<text text-anchor="middle" x="36.5" y="-66.3" font-family="Times,serif" font-size="14.00">c</text>
</g>
<!-- 2&#45;&gt;2 -->
<g id="edge8" class="edge"><title>2&#45;&gt;2</title>
<path fill="none" stroke="black" d="M34.2903,-121.668C44.3892,-123.517 54,-120.961 54,-114 54,-109.541 50.0557,-106.889 44.5656,-106.045"/>
<polygon fill="black" stroke="black" points="44.1887,-102.554 34.2903,-106.332 44.384,-109.552 44.1887,-102.554"/>
<text text-anchor="middle" x="57.5" y="-110.3" font-family="Times,serif" font-size="14.00">b</text>
</g>
<!-- 3 -->
<g id="node4" class="node"><title>3</title>
<ellipse fill="lightblue" stroke="black" cx="108" cy="-290" rx="18" ry="18"/>
<text text-anchor="middle" x="108" y="-286.3" font-family="Times,serif" font-size="14.00">3</text>
</g>
<!-- 3&#45;&gt;0 -->
<g id="edge9" class="edge"><title>3&#45;&gt;0</title>
<path fill="none" stroke="black" d="M99.639,-274.02C92.3877,-261.028 81.7626,-241.991 73.3377,-226.897"/>
<polygon fill="black" stroke="black" points="76.3561,-225.123 68.4262,-218.097 70.2437,-228.535 76.3561,-225.123"/>
<text text-anchor="middle" x="91.5" y="-242.3" font-family="Times,serif" font-size="14.00">a</text>
</g>
<!-- 3&#45;&gt;1 -->
<g id="edge10" class="edge"><title>3&#45;&gt;1</title>
<path fill="none" stroke="black" d="M109.261,-271.998C110.229,-258.04 111.486,-237.751 112,-220 112.463,-204.007 113.362,-199.942 112,-184 107.316,-129.18 101.857,-115.938 91,-62 90.4344,-59.19 89.8174,-56.273 89.1802,-53.3564"/>
<polygon fill="black" stroke="black" points="92.5941,-52.5842 86.9817,-43.598 85.7652,-54.1227 92.5941,-52.5842"/>
<text text-anchor="middle" x="113.5" y="-154.3" font-family="Times,serif" font-size="14.00">b</text>
</g>
<!-- 3&#45;&gt;3 -->
<g id="edge11" class="edge"><title>3&#45;&gt;3</title>
<path fill="none" stroke="black" d="M124.29,-297.668C134.389,-299.517 144,-296.961 144,-290 144,-285.541 140.056,-282.889 134.566,-282.045"/>
<polygon fill="black" stroke="black" points="134.189,-278.554 124.29,-282.332 134.384,-285.552 134.189,-278.554"/>
<text text-anchor="middle" x="147.5" y="-286.3" font-family="Times,serif" font-size="14.00">c</text>
</g>
</g>
</svg>
