<?xml version="1.0" encoding="UTF-8" standalone="no"?>
<!DOCTYPE svg PUBLIC "-//W3C//DTD SVG 1.1//EN"
 "http://www.w3.org/Graphics/SVG/1.1/DTD/svg11.dtd">
<!-- Generated by graphviz version 2.36.0 (20140111.2315)
 -->
<!-- Title: %3 Pages: 1 -->
<svg width="131pt" height="228pt"
 viewBox="0.00 0.00 131.00 228.00" xmlns="http://www.w3.org/2000/svg" xmlns:xlink="http://www.w3.org/1999/xlink">
<g id="graph0" class="graph" transform="scale(1 1) rotate(0) translate(4 224)">
<title>%3</title>
<polygon fill="white" stroke="none" points="-4,4 -4,-224 127,-224 127,4 -4,4"/>
<!-- 0 -->
<g id="node1" class="node"><title>0</title>
<ellipse fill="lightblue" stroke="black" cx="22" cy="-198" rx="17.5909" ry="18"/>
<ellipse fill="none" stroke="black" cx="22" cy="-198" rx="21.5" ry="22"/>
<text text-anchor="middle" x="22" y="-194.3" font-family="Times,serif" font-size="14.00">0</text>
</g>
<!-- 0&#45;&gt;0 -->
<g id="edge1" class="edge"><title>0&#45;&gt;0</title>
<path fill="none" stroke="black" d="M42.0663,-206.734C52.0736,-207.943 61,-205.031 61,-198 61,-193.496 57.3366,-190.682 52.0725,-189.559"/>
<polygon fill="black" stroke="black" points="52.1646,-186.061 42.0663,-189.266 51.9594,-193.057 52.1646,-186.061"/>
<text text-anchor="middle" x="64.5" y="-194.3" font-family="Times,serif" font-size="14.00">a</text>
</g>
<!-- 1 -->
<g id="node2" class="node"><title>1</title>
<ellipse fill="lightblue" stroke="black" cx="76" cy="-106" rx="18" ry="18"/>
<text text-anchor="middle" x="76" y="-102.3" font-family="Times,serif" font-size="14.00">1</text>
</g>
<!-- 0&#45;&gt;1 -->
<g id="edge2" class="edge"><title>0&#45;&gt;1</title>
<path fill="none" stroke="black" d="M32.9277,-178.787C41.2477,-164.921 52.769,-145.718 61.8024,-130.663"/>
<polygon fill="black" stroke="black" points="64.9108,-132.285 67.0546,-121.909 58.9084,-128.683 64.9108,-132.285"/>
<text text-anchor="middle" x="57.5" y="-146.3" font-family="Times,serif" font-size="14.00">b</text>
</g>
<!-- 1&#45;&gt;1 -->
<g id="edge3" class="edge"><title>1&#45;&gt;1</title>
<path fill="none" stroke="black" d="M92.2903,-113.668C102.389,-115.517 112,-112.961 112,-106 112,-101.541 108.056,-98.8891 102.566,-98.0454"/>
<polygon fill="black" stroke="black" points="102.189,-94.5544 92.2903,-98.3321 102.384,-101.552 102.189,-94.5544"/>
<text text-anchor="middle" x="115.5" y="-102.3" font-family="Times,serif" font-size="14.00">b</text>
</g>
<!-- 2 -->
<g id="node3" class="node"><title>2</title>
<ellipse fill="lightblue" stroke="black" cx="76" cy="-18" rx="18" ry="18"/>
<text text-anchor="middle" x="76" y="-14.3" font-family="Times,serif" font-size="14.00">2</text>
</g>
<!-- 1&#45;&gt;2 -->
<g id="edge4" class="edge"><title>1&#45;&gt;2</title>
<path fill="none" stroke="black" d="M69.3664,-89.2577C67.201,-83.3321 65.0772,-76.4629 64,-70 62.8309,-62.9856 62.8309,-61.0144 64,-54 64.5217,-50.8695 65.2891,-47.6437 66.1877,-44.476"/>
<polygon fill="black" stroke="black" points="69.5891,-45.3348 69.3664,-34.7423 62.9349,-43.1618 69.5891,-45.3348"/>
<text text-anchor="middle" x="67.5" y="-58.3" font-family="Times,serif" font-size="14.00">a</text>
</g>
<!-- 2&#45;&gt;1 -->
<g id="edge5" class="edge"><title>2&#45;&gt;1</title>
<path fill="none" stroke="black" d="M76,-36.084C76,-47.8607 76,-63.7741 76,-77.342"/>
<polygon fill="black" stroke="black" points="72.5001,-77.5966 76,-87.5966 79.5001,-77.5967 72.5001,-77.5966"/>
<text text-anchor="middle" x="79.5" y="-58.3" font-family="Times,serif" font-size="14.00">b</text>
</g>
<!-- 2&#45;&gt;2 -->
<g id="edge6" class="edge"><title>2&#45;&gt;2</title>
<path fill="none" stroke="black" d="M92.2903,-25.6679C102.389,-27.5169 112,-24.9609 112,-18 112,-13.5406 108.056,-10.8891 102.566,-10.0454"/>
<polygon fill="black" stroke="black" points="102.189,-6.55441 92.2903,-10.3321 102.384,-13.5517 102.189,-6.55441"/>
<text text-anchor="middle" x="115.5" y="-14.3" font-family="Times,serif" font-size="14.00">a</text>
</g>
<!-- 3 -->
<g id="node4" class="node"><title>3</title>
<ellipse fill="green" stroke="black" cx="105" cy="-198" rx="18" ry="18"/>
<text text-anchor="middle" x="105" y="-194.3" font-family="Times,serif" font-size="14.00">3</text>
</g>
<!-- 3&#45;&gt;1 -->
<g id="edge7" class="edge"><title>3&#45;&gt;1</title>
<path fill="none" stroke="black" d="M99.681,-180.493C95.4295,-167.299 89.3893,-148.553 84.4733,-133.296"/>
<polygon fill="black" stroke="black" points="87.6837,-131.847 81.2853,-123.403 81.021,-133.994 87.6837,-131.847"/>
<text text-anchor="middle" x="100.5" y="-146.3" font-family="Times,serif" font-size="14.00">b,a</text>
</g>
</g>
</svg>
