<?xml version="1.0" encoding="UTF-8" standalone="no"?>
<!DOCTYPE svg PUBLIC "-//W3C//DTD SVG 1.1//EN"
 "http://www.w3.org/Graphics/SVG/1.1/DTD/svg11.dtd">
<!-- Generated by graphviz version 2.36.0 (20140111.2315)
 -->
<!-- Title: %3 Pages: 1 -->
<svg width="113pt" height="404pt"
 viewBox="0.00 0.00 112.90 404.00" xmlns="http://www.w3.org/2000/svg" xmlns:xlink="http://www.w3.org/1999/xlink">
<g id="graph0" class="graph" transform="scale(1 1) rotate(0) translate(4 400)">
<title>%3</title>
<polygon fill="white" stroke="none" points="-4,4 -4,-400 108.899,-400 108.899,4 -4,4"/>
<!-- 0 -->
<g id="node1" class="node"><title>0</title>
<ellipse fill="lightblue" stroke="black" cx="31.8985" cy="-290" rx="18" ry="18"/>
<text text-anchor="middle" x="31.8985" y="-286.3" font-family="Times,serif" font-size="14.00">0</text>
</g>
<!-- 1 -->
<g id="node2" class="node"><title>1</title>
<ellipse fill="lightblue" stroke="black" cx="82.8985" cy="-198" rx="17.5909" ry="18"/>
<ellipse fill="none" stroke="black" cx="82.8985" cy="-198" rx="21.5" ry="22"/>
<text text-anchor="middle" x="82.8985" y="-194.3" font-family="Times,serif" font-size="14.00">1</text>
</g>
<!-- 0&#45;&gt;1 -->
<g id="edge1" class="edge"><title>0&#45;&gt;1</title>
<path fill="none" stroke="black" d="M40.55,-273.733C47.9145,-260.737 58.6727,-241.752 67.5026,-226.169"/>
<polygon fill="black" stroke="black" points="70.5534,-227.885 72.4385,-217.459 64.4632,-224.434 70.5534,-227.885"/>
<text text-anchor="middle" x="63.3985" y="-242.3" font-family="Times,serif" font-size="14.00">a</text>
</g>
<!-- 2 -->
<g id="node3" class="node"><title>2</title>
<ellipse fill="lightblue" stroke="black" cx="31.8985" cy="-106" rx="18" ry="18"/>
<text text-anchor="middle" x="31.8985" y="-102.3" font-family="Times,serif" font-size="14.00">2</text>
</g>
<!-- 0&#45;&gt;2 -->
<g id="edge2" class="edge"><title>0&#45;&gt;2</title>
<path fill="none" stroke="black" d="M23.5007,-273.944C16.4188,-260.329 6.82759,-239.489 2.89854,-220 -0.966179,-200.83 -0.966179,-195.17 2.89854,-176 6.0295,-160.47 12.756,-144.082 18.943,-131.175"/>
<polygon fill="black" stroke="black" points="22.1607,-132.566 23.5007,-122.056 15.8992,-129.437 22.1607,-132.566"/>
<text text-anchor="middle" x="6.39854" y="-194.3" font-family="Times,serif" font-size="14.00">b</text>
</g>
<!-- 1&#45;&gt;2 -->
<g id="edge3" class="edge"><title>1&#45;&gt;2</title>
<path fill="none" stroke="black" d="M72.3313,-178.352C64.5768,-164.668 53.9777,-145.963 45.5769,-131.138"/>
<polygon fill="black" stroke="black" points="48.4011,-129.023 40.4258,-122.048 42.3109,-132.474 48.4011,-129.023"/>
<text text-anchor="middle" x="63.3985" y="-146.3" font-family="Times,serif" font-size="14.00">a</text>
</g>
<!-- 4 -->
<g id="node5" class="node"><title>4</title>
<ellipse fill="lightblue" stroke="black" cx="61.8985" cy="-18" rx="18" ry="18"/>
<text text-anchor="middle" x="61.8985" y="-14.3" font-family="Times,serif" font-size="14.00">4</text>
</g>
<!-- 1&#45;&gt;4 -->
<g id="edge4" class="edge"><title>1&#45;&gt;4</title>
<path fill="none" stroke="black" d="M80.4071,-175.882C76.5967,-143.584 69.3219,-81.9218 65.1168,-46.279"/>
<polygon fill="black" stroke="black" points="68.5652,-45.6351 63.9176,-36.1141 61.6135,-46.4553 68.5652,-45.6351"/>
<text text-anchor="middle" x="77.3985" y="-102.3" font-family="Times,serif" font-size="14.00">b</text>
</g>
<!-- 2&#45;&gt;0 -->
<g id="edge5" class="edge"><title>2&#45;&gt;0</title>
<path fill="none" stroke="black" d="M31.8985,-124.209C31.8985,-155.847 31.8985,-223.486 31.8985,-261.537"/>
<polygon fill="black" stroke="black" points="28.3986,-261.878 31.8985,-271.878 35.3986,-261.878 28.3986,-261.878"/>
<text text-anchor="middle" x="35.3985" y="-194.3" font-family="Times,serif" font-size="14.00">a</text>
</g>
<!-- 2&#45;&gt;4 -->
<g id="edge6" class="edge"><title>2&#45;&gt;4</title>
<path fill="none" stroke="black" d="M37.5413,-88.8241C41.8573,-76.4516 47.8941,-59.1462 52.8779,-44.8593"/>
<polygon fill="black" stroke="black" points="56.292,-45.6982 56.2811,-35.1034 49.6826,-43.3926 56.292,-45.6982"/>
<text text-anchor="middle" x="52.3985" y="-58.3" font-family="Times,serif" font-size="14.00">b</text>
</g>
<!-- 3 -->
<g id="node4" class="node"><title>3</title>
<ellipse fill="green" stroke="black" cx="67.8985" cy="-378" rx="18" ry="18"/>
<text text-anchor="middle" x="67.8985" y="-374.3" font-family="Times,serif" font-size="14.00">3</text>
</g>
<!-- 3&#45;&gt;0 -->
<g id="edge7" class="edge"><title>3&#45;&gt;0</title>
<path fill="none" stroke="black" d="M61.2956,-361.226C56.0509,-348.697 48.6133,-330.93 42.5317,-316.401"/>
<polygon fill="black" stroke="black" points="45.6715,-314.838 38.5815,-306.965 39.2144,-317.541 45.6715,-314.838"/>
<text text-anchor="middle" x="56.3985" y="-330.3" font-family="Times,serif" font-size="14.00">b</text>
</g>
<!-- 3&#45;&gt;1 -->
<g id="edge8" class="edge"><title>3&#45;&gt;1</title>
<path fill="none" stroke="black" d="M69.3368,-359.933C71.8462,-330.154 77.0598,-268.286 80.2416,-230.529"/>
<polygon fill="black" stroke="black" points="83.7677,-230.366 81.1199,-220.107 76.7924,-229.778 83.7677,-230.366"/>
<text text-anchor="middle" x="79.3985" y="-286.3" font-family="Times,serif" font-size="14.00">a</text>
</g>
<!-- 4&#45;&gt;2 -->
<g id="edge9" class="edge"><title>4&#45;&gt;2</title>
<path fill="none" stroke="black" d="M49.5853,-31.1524C44.0553,-37.4193 38.071,-45.5182 34.8985,-54 32.1215,-61.4247 30.9179,-69.8814 30.5275,-77.7444"/>
<polygon fill="black" stroke="black" points="27.0258,-77.9124 30.4278,-87.9462 34.0254,-77.9809 27.0258,-77.9124"/>
<text text-anchor="middle" x="38.3985" y="-58.3" font-family="Times,serif" font-size="14.00">b</text>
</g>
<!-- 4&#45;&gt;4 -->
<g id="edge10" class="edge"><title>4&#45;&gt;4</title>
<path fill="none" stroke="black" d="M78.1888,-25.6679C88.2877,-27.5169 97.8985,-24.9609 97.8985,-18 97.8985,-13.5406 93.9542,-10.8891 88.4642,-10.0454"/>
<polygon fill="black" stroke="black" points="88.0873,-6.55441 78.1888,-10.3321 88.2826,-13.5517 88.0873,-6.55441"/>
<text text-anchor="middle" x="101.399" y="-14.3" font-family="Times,serif" font-size="14.00">a</text>
</g>
</g>
</svg>
