<?xml version="1.0" encoding="UTF-8" standalone="no"?>
<!DOCTYPE svg PUBLIC "-//W3C//DTD SVG 1.1//EN"
 "http://www.w3.org/Graphics/SVG/1.1/DTD/svg11.dtd">
<!-- Generated by graphviz version 2.36.0 (20140111.2315)
 -->
<!-- Title: %3 Pages: 1 -->
<svg width="99pt" height="404pt"
 viewBox="0.00 0.00 99.00 404.00" xmlns="http://www.w3.org/2000/svg" xmlns:xlink="http://www.w3.org/1999/xlink">
<g id="graph0" class="graph" transform="scale(1 1) rotate(0) translate(4 400)">
<title>%3</title>
<polygon fill="white" stroke="none" points="-4,4 -4,-400 95,-400 95,4 -4,4"/>
<!-- 0 -->
<g id="node1" class="node"><title>0</title>
<ellipse fill="lightblue" stroke="black" cx="19" cy="-290" rx="18" ry="18"/>
<text text-anchor="middle" x="19" y="-286.3" font-family="Times,serif" font-size="14.00">0</text>
</g>
<!-- 0&#45;&gt;0 -->
<g id="edge1" class="edge"><title>0&#45;&gt;0</title>
<path fill="none" stroke="black" d="M35.2903,-297.668C45.3892,-299.517 55,-296.961 55,-290 55,-285.541 51.0557,-282.889 45.5656,-282.045"/>
<polygon fill="black" stroke="black" points="45.1887,-278.554 35.2903,-282.332 45.384,-285.552 45.1887,-278.554"/>
<text text-anchor="middle" x="58.5" y="-286.3" font-family="Times,serif" font-size="14.00">b</text>
</g>
<!-- 3 -->
<g id="node4" class="node"><title>3</title>
<ellipse fill="lightblue" stroke="black" cx="53" cy="-202" rx="18" ry="18"/>
<text text-anchor="middle" x="53" y="-198.3" font-family="Times,serif" font-size="14.00">3</text>
</g>
<!-- 0&#45;&gt;3 -->
<g id="edge2" class="edge"><title>0&#45;&gt;3</title>
<path fill="none" stroke="black" d="M29.3326,-274.94C33.4635,-268.77 37.9538,-261.283 41,-254 44.1724,-246.415 46.6006,-237.828 48.4146,-229.892"/>
<polygon fill="black" stroke="black" points="51.868,-230.475 50.4564,-219.974 45.0118,-229.063 51.868,-230.475"/>
<text text-anchor="middle" x="49.5" y="-242.3" font-family="Times,serif" font-size="14.00">a</text>
</g>
<!-- 1 -->
<g id="node2" class="node"><title>1</title>
<ellipse fill="green" stroke="black" cx="21" cy="-22" rx="17.5909" ry="18"/>
<ellipse fill="none" stroke="black" cx="21" cy="-22" rx="21.5" ry="22"/>
<text text-anchor="middle" x="21" y="-18.3" font-family="Times,serif" font-size="14.00">1</text>
</g>
<!-- 2 -->
<g id="node3" class="node"><title>2</title>
<ellipse fill="lightblue" stroke="black" cx="21" cy="-114" rx="18" ry="18"/>
<text text-anchor="middle" x="21" y="-110.3" font-family="Times,serif" font-size="14.00">2</text>
</g>
<!-- 1&#45;&gt;2 -->
<g id="edge3" class="edge"><title>1&#45;&gt;2</title>
<path fill="none" stroke="black" d="M21,-44.101C21,-56.4798 21,-72.2575 21,-85.5903"/>
<polygon fill="black" stroke="black" points="17.5001,-85.6471 21,-95.6471 24.5001,-85.6471 17.5001,-85.6471"/>
<text text-anchor="middle" x="29.5" y="-66.3" font-family="Times,serif" font-size="14.00">b,a</text>
</g>
<!-- 2&#45;&gt;0 -->
<g id="edge4" class="edge"><title>2&#45;&gt;0</title>
<path fill="none" stroke="black" d="M20.3697,-132.011C19.8853,-145.975 19.257,-166.265 19,-184 18.6177,-210.387 18.6677,-240.507 18.7834,-261.701"/>
<polygon fill="black" stroke="black" points="15.2847,-261.926 18.848,-271.903 22.2846,-261.881 15.2847,-261.926"/>
<text text-anchor="middle" x="22.5" y="-198.3" font-family="Times,serif" font-size="14.00">b</text>
</g>
<!-- 2&#45;&gt;1 -->
<g id="edge5" class="edge"><title>2&#45;&gt;1</title>
<path fill="none" stroke="black" d="M14.8003,-96.8629C12.8558,-91.0135 10.966,-84.2957 10,-78 8.7331,-69.7435 9.55032,-60.8448 11.1972,-52.6613"/>
<polygon fill="black" stroke="black" points="14.6377,-53.3273 13.6325,-42.7802 7.84112,-51.6521 14.6377,-53.3273"/>
<text text-anchor="middle" x="13.5" y="-66.3" font-family="Times,serif" font-size="14.00">a</text>
</g>
<!-- 3&#45;&gt;0 -->
<g id="edge6" class="edge"><title>3&#45;&gt;0</title>
<path fill="none" stroke="black" d="M44.9413,-218.483C41.9539,-224.498 38.6512,-231.494 36,-238 32.7807,-245.9 29.693,-254.661 27.0534,-262.66"/>
<polygon fill="black" stroke="black" points="23.6947,-261.672 23.9733,-272.263 30.3602,-263.81 23.6947,-261.672"/>
<text text-anchor="middle" x="39.5" y="-242.3" font-family="Times,serif" font-size="14.00">b</text>
</g>
<!-- 3&#45;&gt;2 -->
<g id="edge7" class="edge"><title>3&#45;&gt;2</title>
<path fill="none" stroke="black" d="M46.981,-184.824C42.3774,-172.452 35.9381,-155.146 30.6221,-140.859"/>
<polygon fill="black" stroke="black" points="33.7596,-139.255 26.992,-131.103 27.1991,-141.696 33.7596,-139.255"/>
<text text-anchor="middle" x="42.5" y="-154.3" font-family="Times,serif" font-size="14.00">a</text>
</g>
<!-- 4 -->
<g id="node5" class="node"><title>4</title>
<ellipse fill="lightblue" stroke="black" cx="73" cy="-378" rx="18" ry="18"/>
<text text-anchor="middle" x="73" y="-374.3" font-family="Times,serif" font-size="14.00">4</text>
</g>
<!-- 4&#45;&gt;0 -->
<g id="edge8" class="edge"><title>4&#45;&gt;0</title>
<path fill="none" stroke="black" d="M63.8396,-362.411C55.6164,-349.315 43.3971,-329.855 33.7902,-314.555"/>
<polygon fill="black" stroke="black" points="36.4871,-312.268 28.2053,-305.66 30.5589,-315.99 36.4871,-312.268"/>
<text text-anchor="middle" x="53.5" y="-330.3" font-family="Times,serif" font-size="14.00">b</text>
</g>
<!-- 4&#45;&gt;3 -->
<g id="edge9" class="edge"><title>4&#45;&gt;3</title>
<path fill="none" stroke="black" d="M73.9089,-359.808C74.7284,-338.932 75.2366,-302.704 71,-272 69.017,-257.628 65.0776,-241.955 61.3885,-229.184"/>
<polygon fill="black" stroke="black" points="64.6274,-227.801 58.397,-219.231 57.9236,-229.816 64.6274,-227.801"/>
<text text-anchor="middle" x="76.5" y="-286.3" font-family="Times,serif" font-size="14.00">a</text>
</g>
</g>
</svg>
