<?xml version="1.0" encoding="UTF-8" standalone="no"?>
<!DOCTYPE svg PUBLIC "-//W3C//DTD SVG 1.1//EN"
 "http://www.w3.org/Graphics/SVG/1.1/DTD/svg11.dtd">
<!-- Generated by graphviz version 2.36.0 (20140111.2315)
 -->
<!-- Title: %3 Pages: 1 -->
<svg width="138pt" height="404pt"
 viewBox="0.00 0.00 138.00 404.00" xmlns="http://www.w3.org/2000/svg" xmlns:xlink="http://www.w3.org/1999/xlink">
<g id="graph0" class="graph" transform="scale(1 1) rotate(0) translate(4 400)">
<title>%3</title>
<polygon fill="white" stroke="none" points="-4,4 -4,-400 134,-400 134,4 -4,4"/>
<!-- 0 -->
<g id="node1" class="node"><title>0</title>
<ellipse fill="lightblue" stroke="black" cx="61" cy="-378" rx="18" ry="18"/>
<text text-anchor="middle" x="61" y="-374.3" font-family="Times,serif" font-size="14.00">0</text>
</g>
<!-- 3 -->
<g id="node4" class="node"><title>3</title>
<ellipse fill="lightblue" stroke="black" cx="18" cy="-290" rx="18" ry="18"/>
<text text-anchor="middle" x="18" y="-286.3" font-family="Times,serif" font-size="14.00">3</text>
</g>
<!-- 0&#45;&gt;3 -->
<g id="edge1" class="edge"><title>0&#45;&gt;3</title>
<path fill="none" stroke="black" d="M45.7638,-367.616C37.2134,-361.464 27.2382,-352.604 22,-342 18.4444,-334.802 16.901,-326.329 16.3921,-318.379"/>
<polygon fill="black" stroke="black" points="19.8918,-318.324 16.2368,-308.379 12.8926,-318.433 19.8918,-318.324"/>
<text text-anchor="middle" x="25.5" y="-330.3" font-family="Times,serif" font-size="14.00">b</text>
</g>
<!-- 4 -->
<g id="node5" class="node"><title>4</title>
<ellipse fill="lightblue" stroke="black" cx="44" cy="-202" rx="18" ry="18"/>
<text text-anchor="middle" x="44" y="-198.3" font-family="Times,serif" font-size="14.00">4</text>
</g>
<!-- 0&#45;&gt;4 -->
<g id="edge2" class="edge"><title>0&#45;&gt;4</title>
<path fill="none" stroke="black" d="M59.339,-359.999C56.3937,-329.853 50.2323,-266.79 46.68,-230.43"/>
<polygon fill="black" stroke="black" points="50.1236,-229.682 45.6677,-220.07 43.1568,-230.363 50.1236,-229.682"/>
<text text-anchor="middle" x="57.5" y="-286.3" font-family="Times,serif" font-size="14.00">a</text>
</g>
<!-- 1 -->
<g id="node2" class="node"><title>1</title>
<ellipse fill="lightblue" stroke="black" cx="42" cy="-114" rx="18" ry="18"/>
<text text-anchor="middle" x="42" y="-110.3" font-family="Times,serif" font-size="14.00">1</text>
</g>
<!-- 1&#45;&gt;1 -->
<g id="edge3" class="edge"><title>1&#45;&gt;1</title>
<path fill="none" stroke="black" d="M58.2903,-121.668C68.3892,-123.517 78,-120.961 78,-114 78,-109.541 74.0557,-106.889 68.5656,-106.045"/>
<polygon fill="black" stroke="black" points="68.1887,-102.554 58.2903,-106.332 68.384,-109.552 68.1887,-102.554"/>
<text text-anchor="middle" x="81.5" y="-110.3" font-family="Times,serif" font-size="14.00">b</text>
</g>
<!-- 2 -->
<g id="node3" class="node"><title>2</title>
<ellipse fill="green" stroke="black" cx="90" cy="-22" rx="17.5909" ry="18"/>
<ellipse fill="none" stroke="black" cx="90" cy="-22" rx="21.5" ry="22"/>
<text text-anchor="middle" x="90" y="-18.3" font-family="Times,serif" font-size="14.00">2</text>
</g>
<!-- 1&#45;&gt;2 -->
<g id="edge4" class="edge"><title>1&#45;&gt;2</title>
<path fill="none" stroke="black" d="M50.1425,-97.7327C56.9648,-84.941 66.8813,-66.3476 75.116,-50.9075"/>
<polygon fill="black" stroke="black" points="78.3656,-52.252 79.9833,-41.7813 72.1891,-48.9578 78.3656,-52.252"/>
<text text-anchor="middle" x="71.5" y="-66.3" font-family="Times,serif" font-size="14.00">a</text>
</g>
<!-- 2&#45;&gt;0 -->
<g id="edge5" class="edge"><title>2&#45;&gt;0</title>
<path fill="none" stroke="black" d="M98.0443,-42.6494C104.677,-60.64 113,-88.1642 113,-113 113,-291 113,-291 113,-291 113,-316.94 95.462,-341.756 80.7563,-358.005"/>
<polygon fill="black" stroke="black" points="78.2105,-355.603 73.8539,-365.26 83.2822,-360.427 78.2105,-355.603"/>
<text text-anchor="middle" x="121.5" y="-198.3" font-family="Times,serif" font-size="14.00">b,a</text>
</g>
<!-- 3&#45;&gt;0 -->
<g id="edge6" class="edge"><title>3&#45;&gt;0</title>
<path fill="none" stroke="black" d="M25.766,-306.532C32.1697,-319.339 41.3694,-337.739 48.7626,-352.525"/>
<polygon fill="black" stroke="black" points="45.7098,-354.246 53.3125,-361.625 51.9708,-351.115 45.7098,-354.246"/>
<text text-anchor="middle" x="46.5" y="-330.3" font-family="Times,serif" font-size="14.00">a</text>
</g>
<!-- 3&#45;&gt;4 -->
<g id="edge7" class="edge"><title>3&#45;&gt;4</title>
<path fill="none" stroke="black" d="M15.3729,-272.04C14.4416,-261.909 14.3851,-248.928 18,-238 19.6804,-232.92 22.4151,-227.977 25.4939,-223.482"/>
<polygon fill="black" stroke="black" points="28.3305,-225.535 31.6514,-215.474 22.7812,-221.268 28.3305,-225.535"/>
<text text-anchor="middle" x="21.5" y="-242.3" font-family="Times,serif" font-size="14.00">b</text>
</g>
<!-- 4&#45;&gt;1 -->
<g id="edge8" class="edge"><title>4&#45;&gt;1</title>
<path fill="none" stroke="black" d="M43.5953,-183.597C43.3197,-171.746 42.9492,-155.817 42.6347,-142.292"/>
<polygon fill="black" stroke="black" points="46.1289,-142 42.3973,-132.084 39.1308,-142.163 46.1289,-142"/>
<text text-anchor="middle" x="46.5" y="-154.3" font-family="Times,serif" font-size="14.00">b</text>
</g>
<!-- 4&#45;&gt;3 -->
<g id="edge9" class="edge"><title>4&#45;&gt;3</title>
<path fill="none" stroke="black" d="M39.0023,-219.531C35.3015,-231.772 30.1845,-248.698 25.9279,-262.777"/>
<polygon fill="black" stroke="black" points="22.5568,-261.833 23.0131,-272.418 29.2573,-263.859 22.5568,-261.833"/>
<text text-anchor="middle" x="36.5" y="-242.3" font-family="Times,serif" font-size="14.00">a</text>
</g>
</g>
</svg>
