<?xml version="1.0" encoding="UTF-8" standalone="no"?>
<!DOCTYPE svg PUBLIC "-//W3C//DTD SVG 1.1//EN"
 "http://www.w3.org/Graphics/SVG/1.1/DTD/svg11.dtd">
<!-- Generated by graphviz version 2.36.0 (20140111.2315)
 -->
<!-- Title: %3 Pages: 1 -->
<svg width="119pt" height="316pt"
 viewBox="0.00 0.00 119.00 316.00" xmlns="http://www.w3.org/2000/svg" xmlns:xlink="http://www.w3.org/1999/xlink">
<g id="graph0" class="graph" transform="scale(1 1) rotate(0) translate(4 312)">
<title>%3</title>
<polygon fill="white" stroke="none" points="-4,4 -4,-312 115,-312 115,4 -4,4"/>
<!-- 0 -->
<g id="node1" class="node"><title>0</title>
<ellipse fill="green" stroke="black" cx="56" cy="-194" rx="18" ry="18"/>
<text text-anchor="middle" x="56" y="-190.3" font-family="Times,serif" font-size="14.00">0</text>
</g>
<!-- 3 -->
<g id="node4" class="node"><title>3</title>
<ellipse fill="lightblue" stroke="black" cx="18" cy="-106" rx="18" ry="18"/>
<text text-anchor="middle" x="18" y="-102.3" font-family="Times,serif" font-size="14.00">3</text>
</g>
<!-- 0&#45;&gt;3 -->
<g id="edge1" class="edge"><title>0&#45;&gt;3</title>
<path fill="none" stroke="black" d="M39.9562,-185.367C29.6085,-179.482 17.0008,-170.27 11,-158 7.2035,-150.238 7.2733,-141.064 8.83045,-132.652"/>
<polygon fill="black" stroke="black" points="12.2339,-133.469 11.3076,-122.915 5.44997,-131.743 12.2339,-133.469"/>
<text text-anchor="middle" x="19.5" y="-146.3" font-family="Times,serif" font-size="14.00">b,a</text>
</g>
<!-- 1 -->
<g id="node2" class="node"><title>1</title>
<ellipse fill="lightblue" stroke="black" cx="89" cy="-286" rx="17.5909" ry="18"/>
<ellipse fill="none" stroke="black" cx="89" cy="-286" rx="21.5" ry="22"/>
<text text-anchor="middle" x="89" y="-282.3" font-family="Times,serif" font-size="14.00">1</text>
</g>
<!-- 1&#45;&gt;0 -->
<g id="edge2" class="edge"><title>1&#45;&gt;0</title>
<path fill="none" stroke="black" d="M81.6762,-265.026C76.8784,-251.941 70.5628,-234.717 65.3959,-220.625"/>
<polygon fill="black" stroke="black" points="68.6035,-219.206 61.8748,-211.022 62.0313,-221.616 68.6035,-219.206"/>
<text text-anchor="middle" x="77.5" y="-234.3" font-family="Times,serif" font-size="14.00">b</text>
</g>
<!-- 2 -->
<g id="node3" class="node"><title>2</title>
<ellipse fill="lightblue" stroke="black" cx="61" cy="-18" rx="18" ry="18"/>
<text text-anchor="middle" x="61" y="-14.3" font-family="Times,serif" font-size="14.00">2</text>
</g>
<!-- 1&#45;&gt;2 -->
<g id="edge3" class="edge"><title>1&#45;&gt;2</title>
<path fill="none" stroke="black" d="M89.4539,-263.714C89.9065,-222.674 88.8731,-129.945 73,-54 72.3634,-50.9544 71.5382,-47.8083 70.6184,-44.7087"/>
<polygon fill="black" stroke="black" points="73.9224,-43.5519 67.4733,-35.146 67.2728,-45.7389 73.9224,-43.5519"/>
<text text-anchor="middle" x="89.5" y="-146.3" font-family="Times,serif" font-size="14.00">a</text>
</g>
<!-- 2&#45;&gt;0 -->
<g id="edge4" class="edge"><title>2&#45;&gt;0</title>
<path fill="none" stroke="black" d="M60.5095,-36.0697C59.6418,-66.266 57.8295,-129.334 56.7858,-165.653"/>
<polygon fill="black" stroke="black" points="53.2773,-165.903 56.4885,-175.999 60.2744,-166.104 53.2773,-165.903"/>
<text text-anchor="middle" x="61.5" y="-102.3" font-family="Times,serif" font-size="14.00">b</text>
</g>
<!-- 2&#45;&gt;3 -->
<g id="edge5" class="edge"><title>2&#45;&gt;3</title>
<path fill="none" stroke="black" d="M53.234,-34.5319C46.8303,-47.3394 37.6306,-65.7389 30.2374,-80.5251"/>
<polygon fill="black" stroke="black" points="27.0292,-79.1154 25.6875,-89.6249 33.2902,-82.2459 27.0292,-79.1154"/>
<text text-anchor="middle" x="46.5" y="-58.3" font-family="Times,serif" font-size="14.00">a</text>
</g>
<!-- 3&#45;&gt;0 -->
<g id="edge6" class="edge"><title>3&#45;&gt;0</title>
<path fill="none" stroke="black" d="M24.9256,-122.674C30.484,-135.253 38.3965,-153.161 44.8459,-167.757"/>
<polygon fill="black" stroke="black" points="41.7871,-169.494 49.0302,-177.226 48.1899,-166.665 41.7871,-169.494"/>
<text text-anchor="middle" x="43.5" y="-146.3" font-family="Times,serif" font-size="14.00">a</text>
</g>
<!-- 3&#45;&gt;2 -->
<g id="edge7" class="edge"><title>3&#45;&gt;2</title>
<path fill="none" stroke="black" d="M17.1517,-87.6256C17.3354,-77.3482 18.8014,-64.3585 24,-54 27.4902,-47.0455 32.953,-40.7365 38.6198,-35.4509"/>
<polygon fill="black" stroke="black" points="40.957,-38.0578 46.3075,-28.9133 36.4222,-32.7253 40.957,-38.0578"/>
<text text-anchor="middle" x="27.5" y="-58.3" font-family="Times,serif" font-size="14.00">b</text>
</g>
</g>
</svg>
