<?xml version="1.0" encoding="UTF-8" standalone="no"?>
<!DOCTYPE svg PUBLIC "-//W3C//DTD SVG 1.1//EN"
 "http://www.w3.org/Graphics/SVG/1.1/DTD/svg11.dtd">
<!-- Generated by graphviz version 2.36.0 (20140111.2315)
 -->
<!-- Title: %3 Pages: 1 -->
<svg width="131pt" height="316pt"
 viewBox="0.00 0.00 131.00 316.00" xmlns="http://www.w3.org/2000/svg" xmlns:xlink="http://www.w3.org/1999/xlink">
<g id="graph0" class="graph" transform="scale(1 1) rotate(0) translate(4 312)">
<title>%3</title>
<polygon fill="white" stroke="none" points="-4,4 -4,-312 127,-312 127,4 -4,4"/>
<!-- 0 -->
<g id="node1" class="node"><title>0</title>
<ellipse fill="green" stroke="black" cx="42" cy="-194" rx="18" ry="18"/>
<text text-anchor="middle" x="42" y="-190.3" font-family="Times,serif" font-size="14.00">0</text>
</g>
<!-- 0&#45;&gt;0 -->
<g id="edge1" class="edge"><title>0&#45;&gt;0</title>
<path fill="none" stroke="black" d="M58.2903,-201.668C68.3892,-203.517 78,-200.961 78,-194 78,-189.541 74.0557,-186.889 68.5656,-186.045"/>
<polygon fill="black" stroke="black" points="68.1887,-182.554 58.2903,-186.332 68.384,-189.552 68.1887,-182.554"/>
<text text-anchor="middle" x="81.5" y="-190.3" font-family="Times,serif" font-size="14.00">a</text>
</g>
<!-- 2 -->
<g id="node3" class="node"><title>2</title>
<ellipse fill="lightblue" stroke="black" cx="42" cy="-106" rx="18" ry="18"/>
<text text-anchor="middle" x="42" y="-102.3" font-family="Times,serif" font-size="14.00">2</text>
</g>
<!-- 0&#45;&gt;2 -->
<g id="edge2" class="edge"><title>0&#45;&gt;2</title>
<path fill="none" stroke="black" d="M42,-175.597C42,-163.746 42,-147.817 42,-134.292"/>
<polygon fill="black" stroke="black" points="45.5001,-134.084 42,-124.084 38.5001,-134.084 45.5001,-134.084"/>
<text text-anchor="middle" x="45.5" y="-146.3" font-family="Times,serif" font-size="14.00">b</text>
</g>
<!-- 1 -->
<g id="node2" class="node"><title>1</title>
<ellipse fill="lightblue" stroke="black" cx="18" cy="-286" rx="18" ry="18"/>
<text text-anchor="middle" x="18" y="-282.3" font-family="Times,serif" font-size="14.00">1</text>
</g>
<!-- 1&#45;&gt;0 -->
<g id="edge3" class="edge"><title>1&#45;&gt;0</title>
<path fill="none" stroke="black" d="M20.1985,-267.947C21.8325,-256.981 24.4038,-242.498 28,-230 28.923,-226.792 30.0338,-223.474 31.2211,-220.216"/>
<polygon fill="black" stroke="black" points="34.5228,-221.382 34.9005,-210.794 28.0024,-218.836 34.5228,-221.382"/>
<text text-anchor="middle" x="36.5" y="-234.3" font-family="Times,serif" font-size="14.00">b,a</text>
</g>
<!-- 3 -->
<g id="node4" class="node"><title>3</title>
<ellipse fill="lightblue" stroke="black" cx="42" cy="-18" rx="18" ry="18"/>
<text text-anchor="middle" x="42" y="-14.3" font-family="Times,serif" font-size="14.00">3</text>
</g>
<!-- 2&#45;&gt;3 -->
<g id="edge4" class="edge"><title>2&#45;&gt;3</title>
<path fill="none" stroke="black" d="M42,-87.5966C42,-75.7459 42,-59.8169 42,-46.2917"/>
<polygon fill="black" stroke="black" points="45.5001,-46.084 42,-36.084 38.5001,-46.084 45.5001,-46.084"/>
<text text-anchor="middle" x="50.5" y="-58.3" font-family="Times,serif" font-size="14.00">b,a</text>
</g>
<!-- 3&#45;&gt;3 -->
<g id="edge5" class="edge"><title>3&#45;&gt;3</title>
<path fill="none" stroke="black" d="M58.2903,-25.6679C68.3892,-27.5169 78,-24.9609 78,-18 78,-13.5406 74.0557,-10.8891 68.5656,-10.0454"/>
<polygon fill="black" stroke="black" points="68.1887,-6.55441 58.2903,-10.3321 68.384,-13.5517 68.1887,-6.55441"/>
<text text-anchor="middle" x="86.5" y="-14.3" font-family="Times,serif" font-size="14.00">b,a</text>
</g>
<!-- 4 -->
<g id="node5" class="node"><title>4</title>
<ellipse fill="lightblue" stroke="black" cx="76" cy="-286" rx="17.5909" ry="18"/>
<ellipse fill="none" stroke="black" cx="76" cy="-286" rx="21.5" ry="22"/>
<text text-anchor="middle" x="76" y="-282.3" font-family="Times,serif" font-size="14.00">4</text>
</g>
<!-- 4&#45;&gt;0 -->
<g id="edge6" class="edge"><title>4&#45;&gt;0</title>
<path fill="none" stroke="black" d="M68.4543,-265.026C63.5111,-251.941 57.0041,-234.717 51.6806,-220.625"/>
<polygon fill="black" stroke="black" points="54.861,-219.14 48.0528,-211.022 48.3127,-221.614 54.861,-219.14"/>
<text text-anchor="middle" x="64.5" y="-234.3" font-family="Times,serif" font-size="14.00">b</text>
</g>
<!-- 4&#45;&gt;4 -->
<g id="edge7" class="edge"><title>4&#45;&gt;4</title>
<path fill="none" stroke="black" d="M96.0663,-294.734C106.074,-295.943 115,-293.031 115,-286 115,-281.496 111.337,-278.682 106.072,-277.559"/>
<polygon fill="black" stroke="black" points="106.165,-274.061 96.0663,-277.266 105.959,-281.057 106.165,-274.061"/>
<text text-anchor="middle" x="118.5" y="-282.3" font-family="Times,serif" font-size="14.00">a</text>
</g>
</g>
</svg>
