<?xml version="1.0" encoding="UTF-8" standalone="no"?>
<!DOCTYPE svg PUBLIC "-//W3C//DTD SVG 1.1//EN"
 "http://www.w3.org/Graphics/SVG/1.1/DTD/svg11.dtd">
<!-- Generated by graphviz version 2.36.0 (20140111.2315)
 -->
<!-- Title: %3 Pages: 1 -->
<svg width="176pt" height="316pt"
 viewBox="0.00 0.00 176.00 316.00" xmlns="http://www.w3.org/2000/svg" xmlns:xlink="http://www.w3.org/1999/xlink">
<g id="graph0" class="graph" transform="scale(1 1) rotate(0) translate(4 312)">
<title>%3</title>
<polygon fill="white" stroke="none" points="-4,4 -4,-312 172,-312 172,4 -4,4"/>
<!-- 0 -->
<g id="node1" class="node"><title>0</title>
<ellipse fill="green" stroke="black" cx="111" cy="-198" rx="17.5909" ry="18"/>
<ellipse fill="none" stroke="black" cx="111" cy="-198" rx="21.5" ry="22"/>
<text text-anchor="middle" x="111" y="-194.3" font-family="Times,serif" font-size="14.00">0</text>
</g>
<!-- 1 -->
<g id="node2" class="node"><title>1</title>
<ellipse fill="lightblue" stroke="black" cx="18" cy="-106" rx="18" ry="18"/>
<text text-anchor="middle" x="18" y="-102.3" font-family="Times,serif" font-size="14.00">1</text>
</g>
<!-- 0&#45;&gt;1 -->
<g id="edge1" class="edge"><title>0&#45;&gt;1</title>
<path fill="none" stroke="black" d="M95.6429,-182.138C79.8948,-166.898 55.3267,-143.123 38.0531,-126.406"/>
<polygon fill="black" stroke="black" points="40.3077,-123.718 30.6877,-119.278 35.4397,-128.748 40.3077,-123.718"/>
<text text-anchor="middle" x="74.5" y="-146.3" font-family="Times,serif" font-size="14.00">a</text>
</g>
<!-- 2 -->
<g id="node3" class="node"><title>2</title>
<ellipse fill="lightblue" stroke="black" cx="118" cy="-18" rx="18" ry="18"/>
<text text-anchor="middle" x="118" y="-14.3" font-family="Times,serif" font-size="14.00">2</text>
</g>
<!-- 0&#45;&gt;2 -->
<g id="edge2" class="edge"><title>0&#45;&gt;2</title>
<path fill="none" stroke="black" d="M110.364,-175.68C109.857,-153.695 109.46,-118.428 111,-88 111.703,-74.0958 113.199,-58.6757 114.629,-45.9456"/>
<polygon fill="black" stroke="black" points="118.109,-46.3161 115.794,-35.9772 111.156,-45.5029 118.109,-46.3161"/>
<text text-anchor="middle" x="114.5" y="-102.3" font-family="Times,serif" font-size="14.00">b</text>
</g>
<!-- 1&#45;&gt;1 -->
<g id="edge3" class="edge"><title>1&#45;&gt;1</title>
<path fill="none" stroke="black" d="M34.2903,-113.668C44.3892,-115.517 54,-112.961 54,-106 54,-101.541 50.0557,-98.8891 44.5656,-98.0454"/>
<polygon fill="black" stroke="black" points="44.1887,-94.5544 34.2903,-98.3321 44.384,-101.552 44.1887,-94.5544"/>
<text text-anchor="middle" x="57.5" y="-102.3" font-family="Times,serif" font-size="14.00">b</text>
</g>
<!-- 1&#45;&gt;2 -->
<g id="edge4" class="edge"><title>1&#45;&gt;2</title>
<path fill="none" stroke="black" d="M31.2736,-93.1502C42.973,-82.7485 60.5173,-67.2541 76,-54 82.5908,-48.3579 89.8295,-42.2828 96.4133,-36.8032"/>
<polygon fill="black" stroke="black" points="98.8417,-39.3362 104.304,-30.2582 94.3729,-33.9483 98.8417,-39.3362"/>
<text text-anchor="middle" x="79.5" y="-58.3" font-family="Times,serif" font-size="14.00">a</text>
</g>
<!-- 2&#45;&gt;0 -->
<g id="edge5" class="edge"><title>2&#45;&gt;0</title>
<path fill="none" stroke="black" d="M122.598,-35.6032C123.982,-41.3784 125.315,-47.9301 126,-54 131.183,-99.9393 131.923,-112.453 124,-158 123.437,-161.234 122.657,-164.566 121.756,-167.855"/>
<polygon fill="black" stroke="black" points="118.398,-166.867 118.784,-177.455 125.085,-168.937 118.398,-166.867"/>
<text text-anchor="middle" x="132.5" y="-102.3" font-family="Times,serif" font-size="14.00">b</text>
</g>
<!-- 2&#45;&gt;2 -->
<g id="edge6" class="edge"><title>2&#45;&gt;2</title>
<path fill="none" stroke="black" d="M134.29,-25.6679C144.389,-27.5169 154,-24.9609 154,-18 154,-13.5406 150.056,-10.8891 144.566,-10.0454"/>
<polygon fill="black" stroke="black" points="144.189,-6.55441 134.29,-10.3321 144.384,-13.5517 144.189,-6.55441"/>
<text text-anchor="middle" x="157.5" y="-14.3" font-family="Times,serif" font-size="14.00">a</text>
</g>
<!-- 3 -->
<g id="node4" class="node"><title>3</title>
<ellipse fill="lightblue" stroke="black" cx="150" cy="-290" rx="18" ry="18"/>
<text text-anchor="middle" x="150" y="-286.3" font-family="Times,serif" font-size="14.00">3</text>
</g>
<!-- 3&#45;&gt;0 -->
<g id="edge7" class="edge"><title>3&#45;&gt;0</title>
<path fill="none" stroke="black" d="M143.207,-273.323C137.8,-260.847 130.086,-243.044 123.562,-227.989"/>
<polygon fill="black" stroke="black" points="126.671,-226.361 119.483,-218.577 120.248,-229.144 126.671,-226.361"/>
<text text-anchor="middle" x="136.5" y="-242.3" font-family="Times,serif" font-size="14.00">b</text>
</g>
<!-- 3&#45;&gt;2 -->
<g id="edge8" class="edge"><title>3&#45;&gt;2</title>
<path fill="none" stroke="black" d="M152.192,-271.972C156.649,-232.545 164.401,-132.369 140,-54 138.618,-49.5629 136.528,-45.1313 134.177,-40.9863"/>
<polygon fill="black" stroke="black" points="137.094,-39.0509 128.783,-32.479 131.182,-42.7988 137.094,-39.0509"/>
<text text-anchor="middle" x="159.5" y="-146.3" font-family="Times,serif" font-size="14.00">a</text>
</g>
</g>
</svg>
