<?xml version="1.0" encoding="UTF-8" standalone="no"?>
<!DOCTYPE svg PUBLIC "-//W3C//DTD SVG 1.1//EN"
 "http://www.w3.org/Graphics/SVG/1.1/DTD/svg11.dtd">
<!-- Generated by graphviz version 2.36.0 (20140111.2315)
 -->
<!-- Title: %3 Pages: 1 -->
<svg width="111pt" height="404pt"
 viewBox="0.00 0.00 111.00 404.00" xmlns="http://www.w3.org/2000/svg" xmlns:xlink="http://www.w3.org/1999/xlink">
<g id="graph0" class="graph" transform="scale(1 1) rotate(0) translate(4 400)">
<title>%3</title>
<polygon fill="white" stroke="none" points="-4,4 -4,-400 107,-400 107,4 -4,4"/>
<!-- 0 -->
<g id="node1" class="node"><title>0</title>
<ellipse fill="green" stroke="black" cx="72" cy="-282" rx="18" ry="18"/>
<text text-anchor="middle" x="72" y="-278.3" font-family="Times,serif" font-size="14.00">0</text>
</g>
<!-- 4 -->
<g id="node5" class="node"><title>4</title>
<ellipse fill="lightblue" stroke="black" cx="18" cy="-194" rx="18" ry="18"/>
<text text-anchor="middle" x="18" y="-190.3" font-family="Times,serif" font-size="14.00">4</text>
</g>
<!-- 0&#45;&gt;4 -->
<g id="edge1" class="edge"><title>0&#45;&gt;4</title>
<path fill="none" stroke="black" d="M59.5288,-268.786C53.4335,-262.38 46.2913,-254.178 41,-246 35.9183,-238.146 31.4048,-228.983 27.7513,-220.608"/>
<polygon fill="black" stroke="black" points="30.9395,-219.159 23.8748,-211.263 24.4738,-221.841 30.9395,-219.159"/>
<text text-anchor="middle" x="49.5" y="-234.3" font-family="Times,serif" font-size="14.00">b,a</text>
</g>
<!-- 1 -->
<g id="node2" class="node"><title>1</title>
<ellipse fill="lightblue" stroke="black" cx="60" cy="-106" rx="18" ry="18"/>
<text text-anchor="middle" x="60" y="-102.3" font-family="Times,serif" font-size="14.00">1</text>
</g>
<!-- 1&#45;&gt;0 -->
<g id="edge2" class="edge"><title>1&#45;&gt;0</title>
<path fill="none" stroke="black" d="M61.1772,-124.07C63.2597,-154.266 67.6093,-217.334 70.114,-253.653"/>
<polygon fill="black" stroke="black" points="66.6477,-254.264 70.8275,-263.999 73.6311,-253.782 66.6477,-254.264"/>
<text text-anchor="middle" x="71.5" y="-190.3" font-family="Times,serif" font-size="14.00">a</text>
</g>
<!-- 2 -->
<g id="node3" class="node"><title>2</title>
<ellipse fill="lightblue" stroke="black" cx="60" cy="-18" rx="18" ry="18"/>
<text text-anchor="middle" x="60" y="-14.3" font-family="Times,serif" font-size="14.00">2</text>
</g>
<!-- 1&#45;&gt;2 -->
<g id="edge3" class="edge"><title>1&#45;&gt;2</title>
<path fill="none" stroke="black" d="M60,-87.5966C60,-75.7459 60,-59.8169 60,-46.2917"/>
<polygon fill="black" stroke="black" points="63.5001,-46.084 60,-36.084 56.5001,-46.084 63.5001,-46.084"/>
<text text-anchor="middle" x="63.5" y="-58.3" font-family="Times,serif" font-size="14.00">b</text>
</g>
<!-- 2&#45;&gt;0 -->
<g id="edge4" class="edge"><title>2&#45;&gt;0</title>
<path fill="none" stroke="black" d="M67.9526,-34.3976C74.5358,-48.0637 83.3746,-68.7863 87,-88 100.023,-157.017 96.3973,-176.868 84,-246 83.4508,-249.063 82.6798,-252.219 81.7907,-255.325"/>
<polygon fill="black" stroke="black" points="78.4433,-254.301 78.6742,-264.893 85.0991,-256.469 78.4433,-254.301"/>
<text text-anchor="middle" x="98.5" y="-146.3" font-family="Times,serif" font-size="14.00">b</text>
</g>
<!-- 2&#45;&gt;2 -->
<g id="edge5" class="edge"><title>2&#45;&gt;2</title>
<path fill="none" stroke="black" d="M76.2903,-25.6679C86.3892,-27.5169 96,-24.9609 96,-18 96,-13.5406 92.0557,-10.8891 86.5656,-10.0454"/>
<polygon fill="black" stroke="black" points="86.1887,-6.55441 76.2903,-10.3321 86.384,-13.5517 86.1887,-6.55441"/>
<text text-anchor="middle" x="99.5" y="-14.3" font-family="Times,serif" font-size="14.00">a</text>
</g>
<!-- 3 -->
<g id="node4" class="node"><title>3</title>
<ellipse fill="lightblue" stroke="black" cx="72" cy="-374" rx="17.5909" ry="18"/>
<ellipse fill="none" stroke="black" cx="72" cy="-374" rx="21.5" ry="22"/>
<text text-anchor="middle" x="72" y="-370.3" font-family="Times,serif" font-size="14.00">3</text>
</g>
<!-- 3&#45;&gt;0 -->
<g id="edge6" class="edge"><title>3&#45;&gt;0</title>
<path fill="none" stroke="black" d="M72,-351.671C72,-339.284 72,-323.552 72,-310.272"/>
<polygon fill="black" stroke="black" points="75.5001,-310.258 72,-300.258 68.5001,-310.258 75.5001,-310.258"/>
<text text-anchor="middle" x="80.5" y="-322.3" font-family="Times,serif" font-size="14.00">b,a</text>
</g>
<!-- 4&#45;&gt;1 -->
<g id="edge7" class="edge"><title>4&#45;&gt;1</title>
<path fill="none" stroke="black" d="M25.5088,-177.625C31.7412,-164.863 40.7229,-146.472 47.9585,-131.656"/>
<polygon fill="black" stroke="black" points="51.1712,-133.054 52.4146,-122.532 44.8812,-129.982 51.1712,-133.054"/>
<text text-anchor="middle" x="46.5" y="-146.3" font-family="Times,serif" font-size="14.00">a</text>
</g>
<!-- 4&#45;&gt;2 -->
<g id="edge8" class="edge"><title>4&#45;&gt;2</title>
<path fill="none" stroke="black" d="M17.3329,-175.933C16.9545,-154.874 17.7537,-118.155 26,-88 30.3653,-72.037 38.4714,-55.36 45.6738,-42.4009"/>
<polygon fill="black" stroke="black" points="48.7355,-44.0977 50.6921,-33.6851 42.6692,-40.6048 48.7355,-44.0977"/>
<text text-anchor="middle" x="29.5" y="-102.3" font-family="Times,serif" font-size="14.00">b</text>
</g>
</g>
</svg>
