<?xml version="1.0" encoding="UTF-8" standalone="no"?>
<!DOCTYPE svg PUBLIC "-//W3C//DTD SVG 1.1//EN"
 "http://www.w3.org/Graphics/SVG/1.1/DTD/svg11.dtd">
<!-- Generated by graphviz version 2.36.0 (20140111.2315)
 -->
<!-- Title: %3 Pages: 1 -->
<svg width="124pt" height="404pt"
 viewBox="0.00 0.00 124.00 404.00" xmlns="http://www.w3.org/2000/svg" xmlns:xlink="http://www.w3.org/1999/xlink">
<g id="graph0" class="graph" transform="scale(1 1) rotate(0) translate(4 400)">
<title>%3</title>
<polygon fill="white" stroke="none" points="-4,4 -4,-400 120,-400 120,4 -4,4"/>
<!-- 0 -->
<g id="node1" class="node"><title>0</title>
<ellipse fill="lightblue" stroke="black" cx="19" cy="-290" rx="18" ry="18"/>
<text text-anchor="middle" x="19" y="-286.3" font-family="Times,serif" font-size="14.00">0</text>
</g>
<!-- 1 -->
<g id="node2" class="node"><title>1</title>
<ellipse fill="green" stroke="black" cx="69" cy="-198" rx="17.5909" ry="18"/>
<ellipse fill="none" stroke="black" cx="69" cy="-198" rx="21.5" ry="22"/>
<text text-anchor="middle" x="69" y="-194.3" font-family="Times,serif" font-size="14.00">1</text>
</g>
<!-- 0&#45;&gt;1 -->
<g id="edge1" class="edge"><title>0&#45;&gt;1</title>
<path fill="none" stroke="black" d="M27.4818,-273.733C34.6345,-260.858 45.0523,-242.106 53.6627,-226.607"/>
<polygon fill="black" stroke="black" points="56.9481,-227.9 58.745,-217.459 50.829,-224.501 56.9481,-227.9"/>
<text text-anchor="middle" x="49.5" y="-242.3" font-family="Times,serif" font-size="14.00">a</text>
</g>
<!-- 3 -->
<g id="node4" class="node"><title>3</title>
<ellipse fill="lightblue" stroke="black" cx="18" cy="-106" rx="18" ry="18"/>
<text text-anchor="middle" x="18" y="-102.3" font-family="Times,serif" font-size="14.00">3</text>
</g>
<!-- 0&#45;&gt;3 -->
<g id="edge2" class="edge"><title>0&#45;&gt;3</title>
<path fill="none" stroke="black" d="M18.9059,-271.878C18.7325,-240.307 18.3608,-172.673 18.1515,-134.568"/>
<polygon fill="black" stroke="black" points="21.6495,-134.19 18.0946,-124.209 14.6496,-134.228 21.6495,-134.19"/>
<text text-anchor="middle" x="22.5" y="-194.3" font-family="Times,serif" font-size="14.00">b</text>
</g>
<!-- 1&#45;&gt;1 -->
<g id="edge3" class="edge"><title>1&#45;&gt;1</title>
<path fill="none" stroke="black" d="M89.0663,-206.734C99.0736,-207.943 108,-205.031 108,-198 108,-193.496 104.337,-190.682 99.0725,-189.559"/>
<polygon fill="black" stroke="black" points="99.1646,-186.061 89.0663,-189.266 98.9594,-193.057 99.1646,-186.061"/>
<text text-anchor="middle" x="111.5" y="-194.3" font-family="Times,serif" font-size="14.00">a</text>
</g>
<!-- 1&#45;&gt;3 -->
<g id="edge4" class="edge"><title>1&#45;&gt;3</title>
<path fill="none" stroke="black" d="M58.4328,-178.352C50.6783,-164.668 40.0792,-145.963 31.6784,-131.138"/>
<polygon fill="black" stroke="black" points="34.5025,-129.023 26.5273,-122.048 28.4124,-132.474 34.5025,-129.023"/>
<text text-anchor="middle" x="49.5" y="-146.3" font-family="Times,serif" font-size="14.00">b</text>
</g>
<!-- 2 -->
<g id="node3" class="node"><title>2</title>
<ellipse fill="lightblue" stroke="black" cx="54" cy="-378" rx="18" ry="18"/>
<text text-anchor="middle" x="54" y="-374.3" font-family="Times,serif" font-size="14.00">2</text>
</g>
<!-- 2&#45;&gt;0 -->
<g id="edge5" class="edge"><title>2&#45;&gt;0</title>
<path fill="none" stroke="black" d="M47.4168,-360.824C42.3004,-348.252 35.1113,-330.588 29.2443,-316.172"/>
<polygon fill="black" stroke="black" points="32.4469,-314.756 25.4355,-306.813 25.9633,-317.395 32.4469,-314.756"/>
<text text-anchor="middle" x="42.5" y="-330.3" font-family="Times,serif" font-size="14.00">a</text>
</g>
<!-- 2&#45;&gt;1 -->
<g id="edge6" class="edge"><title>2&#45;&gt;1</title>
<path fill="none" stroke="black" d="M55.4383,-359.933C57.9477,-330.154 63.1613,-268.286 66.343,-230.529"/>
<polygon fill="black" stroke="black" points="69.8692,-230.366 67.2213,-220.107 62.8939,-229.778 69.8692,-230.366"/>
<text text-anchor="middle" x="65.5" y="-286.3" font-family="Times,serif" font-size="14.00">b</text>
</g>
<!-- 3&#45;&gt;3 -->
<g id="edge7" class="edge"><title>3&#45;&gt;3</title>
<path fill="none" stroke="black" d="M34.2903,-113.668C44.3892,-115.517 54,-112.961 54,-106 54,-101.541 50.0557,-98.8891 44.5656,-98.0454"/>
<polygon fill="black" stroke="black" points="44.1887,-94.5544 34.2903,-98.3321 44.384,-101.552 44.1887,-94.5544"/>
<text text-anchor="middle" x="57.5" y="-102.3" font-family="Times,serif" font-size="14.00">a</text>
</g>
<!-- 4 -->
<g id="node5" class="node"><title>4</title>
<ellipse fill="lightblue" stroke="black" cx="72" cy="-18" rx="18" ry="18"/>
<text text-anchor="middle" x="72" y="-14.3" font-family="Times,serif" font-size="14.00">4</text>
</g>
<!-- 3&#45;&gt;4 -->
<g id="edge8" class="edge"><title>3&#45;&gt;4</title>
<path fill="none" stroke="black" d="M27.1604,-90.4113C35.3836,-77.315 47.6029,-57.8546 57.2098,-42.5548"/>
<polygon fill="black" stroke="black" points="60.4411,-43.9904 62.7947,-33.6603 54.5129,-40.268 60.4411,-43.9904"/>
<text text-anchor="middle" x="52.5" y="-58.3" font-family="Times,serif" font-size="14.00">b</text>
</g>
<!-- 4&#45;&gt;1 -->
<g id="edge9" class="edge"><title>4&#45;&gt;1</title>
<path fill="none" stroke="black" d="M71.7116,-36.1141C71.2094,-65.9087 70.1675,-127.727 69.5315,-165.464"/>
<polygon fill="black" stroke="black" points="66.025,-165.824 69.3559,-175.882 73.024,-165.943 66.025,-165.824"/>
<text text-anchor="middle" x="73.5" y="-102.3" font-family="Times,serif" font-size="14.00">a</text>
</g>
<!-- 4&#45;&gt;4 -->
<g id="edge10" class="edge"><title>4&#45;&gt;4</title>
<path fill="none" stroke="black" d="M88.2903,-25.6679C98.3892,-27.5169 108,-24.9609 108,-18 108,-13.5406 104.056,-10.8891 98.5656,-10.0454"/>
<polygon fill="black" stroke="black" points="98.1887,-6.55441 88.2903,-10.3321 98.384,-13.5517 98.1887,-6.55441"/>
<text text-anchor="middle" x="111.5" y="-14.3" font-family="Times,serif" font-size="14.00">b</text>
</g>
</g>
</svg>
