<?xml version="1.0" encoding="UTF-8" standalone="no"?>
<!DOCTYPE svg PUBLIC "-//W3C//DTD SVG 1.1//EN"
 "http://www.w3.org/Graphics/SVG/1.1/DTD/svg11.dtd">
<!-- Generated by graphviz version 2.36.0 (20140111.2315)
 -->
<!-- Title: %3 Pages: 1 -->
<svg width="99pt" height="316pt"
 viewBox="0.00 0.00 99.00 316.00" xmlns="http://www.w3.org/2000/svg" xmlns:xlink="http://www.w3.org/1999/xlink">
<g id="graph0" class="graph" transform="scale(1 1) rotate(0) translate(4 312)">
<title>%3</title>
<polygon fill="white" stroke="none" points="-4,4 -4,-312 95,-312 95,4 -4,4"/>
<!-- 0 -->
<g id="node1" class="node"><title>0</title>
<ellipse fill="lightblue" stroke="black" cx="48" cy="-202" rx="18" ry="18"/>
<text text-anchor="middle" x="48" y="-198.3" font-family="Times,serif" font-size="14.00">0</text>
</g>
<!-- 0&#45;&gt;0 -->
<g id="edge1" class="edge"><title>0&#45;&gt;0</title>
<path fill="none" stroke="black" d="M64.2903,-209.668C74.3892,-211.517 84,-208.961 84,-202 84,-197.541 80.0557,-194.889 74.5656,-194.045"/>
<polygon fill="black" stroke="black" points="74.1887,-190.554 64.2903,-194.332 74.384,-197.552 74.1887,-190.554"/>
<text text-anchor="middle" x="87.5" y="-198.3" font-family="Times,serif" font-size="14.00">a</text>
</g>
<!-- 2 -->
<g id="node3" class="node"><title>2</title>
<ellipse fill="lightblue" stroke="black" cx="18" cy="-114" rx="18" ry="18"/>
<text text-anchor="middle" x="18" y="-110.3" font-family="Times,serif" font-size="14.00">2</text>
</g>
<!-- 0&#45;&gt;2 -->
<g id="edge2" class="edge"><title>0&#45;&gt;2</title>
<path fill="none" stroke="black" d="M35.6868,-188.848C30.1568,-182.581 24.1724,-174.482 21,-166 18.223,-158.575 17.0193,-150.119 16.6289,-142.256"/>
<polygon fill="black" stroke="black" points="20.1269,-142.019 16.5293,-132.054 13.1272,-142.088 20.1269,-142.019"/>
<text text-anchor="middle" x="24.5" y="-154.3" font-family="Times,serif" font-size="14.00">b</text>
</g>
<!-- 1 -->
<g id="node2" class="node"><title>1</title>
<ellipse fill="green" stroke="black" cx="48" cy="-290" rx="18" ry="18"/>
<text text-anchor="middle" x="48" y="-286.3" font-family="Times,serif" font-size="14.00">1</text>
</g>
<!-- 1&#45;&gt;0 -->
<g id="edge3" class="edge"><title>1&#45;&gt;0</title>
<path fill="none" stroke="black" d="M48,-271.597C48,-259.746 48,-243.817 48,-230.292"/>
<polygon fill="black" stroke="black" points="51.5001,-230.084 48,-220.084 44.5001,-230.084 51.5001,-230.084"/>
<text text-anchor="middle" x="56.5" y="-242.3" font-family="Times,serif" font-size="14.00">b,a</text>
</g>
<!-- 2&#45;&gt;0 -->
<g id="edge4" class="edge"><title>2&#45;&gt;0</title>
<path fill="none" stroke="black" d="M23.6175,-131.103C27.9267,-143.457 33.9622,-160.758 38.9501,-175.057"/>
<polygon fill="black" stroke="black" points="35.7587,-176.535 42.3572,-184.824 42.3681,-174.229 35.7587,-176.535"/>
<text text-anchor="middle" x="39.5" y="-154.3" font-family="Times,serif" font-size="14.00">a</text>
</g>
<!-- 3 -->
<g id="node4" class="node"><title>3</title>
<ellipse fill="lightblue" stroke="black" cx="48" cy="-22" rx="17.5909" ry="18"/>
<ellipse fill="none" stroke="black" cx="48" cy="-22" rx="21.5" ry="22"/>
<text text-anchor="middle" x="48" y="-18.3" font-family="Times,serif" font-size="14.00">3</text>
</g>
<!-- 2&#45;&gt;3 -->
<g id="edge5" class="edge"><title>2&#45;&gt;3</title>
<path fill="none" stroke="black" d="M16.7325,-96.0192C16.5254,-85.8813 17.2402,-72.9001 21,-62 22.7345,-56.9714 25.3127,-51.9975 28.1983,-47.3708"/>
<polygon fill="black" stroke="black" points="31.1899,-49.1978 33.9855,-38.9784 25.4272,-45.224 31.1899,-49.1978"/>
<text text-anchor="middle" x="24.5" y="-66.3" font-family="Times,serif" font-size="14.00">b</text>
</g>
<!-- 3&#45;&gt;0 -->
<g id="edge6" class="edge"><title>3&#45;&gt;0</title>
<path fill="none" stroke="black" d="M48,-44.1069C48,-76.4168 48,-138.132 48,-173.771"/>
<polygon fill="black" stroke="black" points="44.5001,-173.933 48,-183.933 51.5001,-173.933 44.5001,-173.933"/>
<text text-anchor="middle" x="51.5" y="-110.3" font-family="Times,serif" font-size="14.00">a</text>
</g>
<!-- 3&#45;&gt;2 -->
<g id="edge7" class="edge"><title>3&#45;&gt;2</title>
<path fill="none" stroke="black" d="M41.2721,-43.1837C36.9612,-56.1164 31.3241,-73.0278 26.6776,-86.9672"/>
<polygon fill="black" stroke="black" points="23.3444,-85.899 23.5025,-96.4926 29.9852,-88.1126 23.3444,-85.899"/>
<text text-anchor="middle" x="38.5" y="-66.3" font-family="Times,serif" font-size="14.00">b</text>
</g>
</g>
</svg>
