<?xml version="1.0" encoding="UTF-8" standalone="no"?>
<!DOCTYPE svg PUBLIC "-//W3C//DTD SVG 1.1//EN"
 "http://www.w3.org/Graphics/SVG/1.1/DTD/svg11.dtd">
<!-- Generated by graphviz version 2.36.0 (20140111.2315)
 -->
<!-- Title: %3 Pages: 1 -->
<svg width="162pt" height="316pt"
 viewBox="0.00 0.00 162.00 316.00" xmlns="http://www.w3.org/2000/svg" xmlns:xlink="http://www.w3.org/1999/xlink">
<g id="graph0" class="graph" transform="scale(1 1) rotate(0) translate(4 312)">
<title>%3</title>
<polygon fill="white" stroke="none" points="-4,4 -4,-312 158,-312 158,4 -4,4"/>
<!-- 0 -->
<g id="node1" class="node"><title>0</title>
<ellipse fill="lightblue" stroke="black" cx="24" cy="-198" rx="18" ry="18"/>
<text text-anchor="middle" x="24" y="-194.3" font-family="Times,serif" font-size="14.00">0</text>
</g>
<!-- 0&#45;&gt;0 -->
<g id="edge1" class="edge"><title>0&#45;&gt;0</title>
<path fill="none" stroke="black" d="M40.2903,-206.365C50.3892,-208.382 60,-205.594 60,-198 60,-193.135 56.0557,-190.243 50.5656,-189.322"/>
<polygon fill="black" stroke="black" points="50.1791,-185.832 40.2903,-189.635 50.3922,-192.829 50.1791,-185.832"/>
<text text-anchor="middle" x="63.5" y="-194.3" font-family="Times,serif" font-size="14.00">a</text>
</g>
<!-- 4 -->
<g id="node5" class="node"><title>4</title>
<ellipse fill="lightblue" stroke="black" cx="50" cy="-106" rx="18" ry="18"/>
<text text-anchor="middle" x="50" y="-102.3" font-family="Times,serif" font-size="14.00">4</text>
</g>
<!-- 0&#45;&gt;4 -->
<g id="edge2" class="edge"><title>0&#45;&gt;4</title>
<path fill="none" stroke="black" d="M30.2746,-180.818C32.8526,-173.855 35.7534,-165.588 38,-158 40.2984,-150.238 42.449,-141.709 44.2769,-133.884"/>
<polygon fill="black" stroke="black" points="47.6914,-134.652 46.4791,-124.127 40.8632,-133.111 47.6914,-134.652"/>
<text text-anchor="middle" x="46.5" y="-146.3" font-family="Times,serif" font-size="14.00">b</text>
</g>
<!-- 1 -->
<g id="node2" class="node"><title>1</title>
<ellipse fill="lightblue" stroke="black" cx="18" cy="-18" rx="18" ry="18"/>
<text text-anchor="middle" x="18" y="-14.3" font-family="Times,serif" font-size="14.00">1</text>
</g>
<!-- 1&#45;&gt;0 -->
<g id="edge3" class="edge"><title>1&#45;&gt;0</title>
<path fill="none" stroke="black" d="M17.3697,-36.0107C16.8853,-49.9745 16.257,-70.2652 16,-88 15.7682,-103.998 15.1272,-108.024 16,-124 16.8287,-139.168 18.6189,-156.03 20.2962,-169.724"/>
<polygon fill="black" stroke="black" points="16.861,-170.456 21.5965,-179.934 23.8049,-169.571 16.861,-170.456"/>
<text text-anchor="middle" x="19.5" y="-102.3" font-family="Times,serif" font-size="14.00">a</text>
</g>
<!-- 1&#45;&gt;1 -->
<g id="edge4" class="edge"><title>1&#45;&gt;1</title>
<path fill="none" stroke="black" d="M34.2903,-25.6679C44.3892,-27.5169 54,-24.9609 54,-18 54,-13.5406 50.0557,-10.8891 44.5656,-10.0454"/>
<polygon fill="black" stroke="black" points="44.1887,-6.55441 34.2903,-10.3321 44.384,-13.5517 44.1887,-6.55441"/>
<text text-anchor="middle" x="57.5" y="-14.3" font-family="Times,serif" font-size="14.00">b</text>
</g>
<!-- 2 -->
<g id="node3" class="node"><title>2</title>
<ellipse fill="green" stroke="black" cx="107" cy="-198" rx="17.5909" ry="18"/>
<ellipse fill="none" stroke="black" cx="107" cy="-198" rx="21.5" ry="22"/>
<text text-anchor="middle" x="107" y="-194.3" font-family="Times,serif" font-size="14.00">2</text>
</g>
<!-- 2&#45;&gt;2 -->
<g id="edge5" class="edge"><title>2&#45;&gt;2</title>
<path fill="none" stroke="black" d="M127.066,-206.734C137.074,-207.943 146,-205.031 146,-198 146,-193.496 142.337,-190.682 137.072,-189.559"/>
<polygon fill="black" stroke="black" points="137.165,-186.061 127.066,-189.266 136.959,-193.057 137.165,-186.061"/>
<text text-anchor="middle" x="149.5" y="-194.3" font-family="Times,serif" font-size="14.00">a</text>
</g>
<!-- 2&#45;&gt;4 -->
<g id="edge6" class="edge"><title>2&#45;&gt;4</title>
<path fill="none" stroke="black" d="M95.7386,-179.219C86.9259,-165.304 74.5907,-145.827 64.9508,-130.607"/>
<polygon fill="black" stroke="black" points="67.66,-128.343 59.3525,-121.767 61.7462,-132.088 67.66,-128.343"/>
<text text-anchor="middle" x="84.5" y="-146.3" font-family="Times,serif" font-size="14.00">b</text>
</g>
<!-- 3 -->
<g id="node4" class="node"><title>3</title>
<ellipse fill="lightblue" stroke="black" cx="107" cy="-290" rx="18" ry="18"/>
<text text-anchor="middle" x="107" y="-286.3" font-family="Times,serif" font-size="14.00">3</text>
</g>
<!-- 3&#45;&gt;2 -->
<g id="edge7" class="edge"><title>3&#45;&gt;2</title>
<path fill="none" stroke="black" d="M107,-271.647C107,-259.924 107,-244.114 107,-230.237"/>
<polygon fill="black" stroke="black" points="110.5,-230.101 107,-220.101 103.5,-230.101 110.5,-230.101"/>
<text text-anchor="middle" x="115.5" y="-242.3" font-family="Times,serif" font-size="14.00">b,a</text>
</g>
<!-- 4&#45;&gt;0 -->
<g id="edge8" class="edge"><title>4&#45;&gt;0</title>
<path fill="none" stroke="black" d="M41.5602,-121.937C38.4519,-128.001 35.1651,-135.175 33,-142 30.1823,-150.883 28.2109,-160.866 26.8478,-169.866"/>
<polygon fill="black" stroke="black" points="23.3687,-169.477 25.5128,-179.852 30.307,-170.404 23.3687,-169.477"/>
<text text-anchor="middle" x="36.5" y="-146.3" font-family="Times,serif" font-size="14.00">b</text>
</g>
<!-- 4&#45;&gt;1 -->
<g id="edge9" class="edge"><title>4&#45;&gt;1</title>
<path fill="none" stroke="black" d="M43.981,-88.8241C39.3774,-76.4516 32.9381,-59.1462 27.6221,-44.8593"/>
<polygon fill="black" stroke="black" points="30.7596,-43.255 23.992,-35.1034 24.1991,-45.6962 30.7596,-43.255"/>
<text text-anchor="middle" x="40.5" y="-58.3" font-family="Times,serif" font-size="14.00">a</text>
</g>
</g>
</svg>
