<?xml version="1.0" encoding="UTF-8" standalone="no"?>
<!DOCTYPE svg PUBLIC "-//W3C//DTD SVG 1.1//EN"
 "http://www.w3.org/Graphics/SVG/1.1/DTD/svg11.dtd">
<!-- Generated by graphviz version 2.36.0 (20140111.2315)
 -->
<!-- Title: %3 Pages: 1 -->
<svg width="184pt" height="228pt"
 viewBox="0.00 0.00 184.00 228.00" xmlns="http://www.w3.org/2000/svg" xmlns:xlink="http://www.w3.org/1999/xlink">
<g id="graph0" class="graph" transform="scale(1 1) rotate(0) translate(4 224)">
<title>%3</title>
<polygon fill="white" stroke="none" points="-4,4 -4,-224 180,-224 180,4 -4,4"/>
<!-- 0 -->
<g id="node1" class="node"><title>0</title>
<ellipse fill="green" stroke="black" cx="101" cy="-110" rx="17.5909" ry="18"/>
<ellipse fill="none" stroke="black" cx="101" cy="-110" rx="21.5" ry="22"/>
<text text-anchor="middle" x="101" y="-106.3" font-family="Times,serif" font-size="14.00">0</text>
</g>
<!-- 0&#45;&gt;0 -->
<g id="edge1" class="edge"><title>0&#45;&gt;0</title>
<path fill="none" stroke="black" d="M121.066,-118.734C131.074,-119.943 140,-117.031 140,-110 140,-105.496 136.337,-102.682 131.072,-101.559"/>
<polygon fill="black" stroke="black" points="131.165,-98.0605 121.066,-101.266 130.959,-105.057 131.165,-98.0605"/>
<text text-anchor="middle" x="143.5" y="-106.3" font-family="Times,serif" font-size="14.00">b</text>
</g>
<!-- 3 -->
<g id="node4" class="node"><title>3</title>
<ellipse fill="lightblue" stroke="black" cx="101" cy="-18" rx="18" ry="18"/>
<text text-anchor="middle" x="101" y="-14.3" font-family="Times,serif" font-size="14.00">3</text>
</g>
<!-- 0&#45;&gt;3 -->
<g id="edge2" class="edge"><title>0&#45;&gt;3</title>
<path fill="none" stroke="black" d="M93.0484,-89.491C89.7168,-79.0175 87.0237,-65.8575 89,-54 89.5217,-50.8695 90.2891,-47.6437 91.1877,-44.476"/>
<polygon fill="black" stroke="black" points="94.5891,-45.3348 94.3664,-34.7423 87.9349,-43.1618 94.5891,-45.3348"/>
<text text-anchor="middle" x="92.5" y="-58.3" font-family="Times,serif" font-size="14.00">a</text>
</g>
<!-- 1 -->
<g id="node2" class="node"><title>1</title>
<ellipse fill="lightblue" stroke="black" cx="18" cy="-110" rx="18" ry="18"/>
<text text-anchor="middle" x="18" y="-106.3" font-family="Times,serif" font-size="14.00">1</text>
</g>
<!-- 1&#45;&gt;1 -->
<g id="edge3" class="edge"><title>1&#45;&gt;1</title>
<path fill="none" stroke="black" d="M34.2903,-118.365C44.3892,-120.382 54,-117.594 54,-110 54,-105.135 50.0557,-102.243 44.5656,-101.322"/>
<polygon fill="black" stroke="black" points="44.1791,-97.8323 34.2903,-101.635 44.3922,-104.829 44.1791,-97.8323"/>
<text text-anchor="middle" x="57.5" y="-106.3" font-family="Times,serif" font-size="14.00">b</text>
</g>
<!-- 1&#45;&gt;3 -->
<g id="edge4" class="edge"><title>1&#45;&gt;3</title>
<path fill="none" stroke="black" d="M29.8919,-96.1052C43.5746,-81.2685 66.2173,-56.7162 82.2727,-39.3067"/>
<polygon fill="black" stroke="black" points="84.9237,-41.5949 89.1302,-31.8709 79.7778,-36.8493 84.9237,-41.5949"/>
<text text-anchor="middle" x="70.5" y="-58.3" font-family="Times,serif" font-size="14.00">a</text>
</g>
<!-- 2 -->
<g id="node3" class="node"><title>2</title>
<ellipse fill="lightblue" stroke="black" cx="158" cy="-202" rx="18" ry="18"/>
<text text-anchor="middle" x="158" y="-198.3" font-family="Times,serif" font-size="14.00">2</text>
</g>
<!-- 2&#45;&gt;0 -->
<g id="edge5" class="edge"><title>2&#45;&gt;0</title>
<path fill="none" stroke="black" d="M148.588,-186.138C140.288,-173.033 127.991,-153.617 117.976,-137.805"/>
<polygon fill="black" stroke="black" points="120.699,-135.562 112.391,-128.986 114.785,-139.307 120.699,-135.562"/>
<text text-anchor="middle" x="138.5" y="-154.3" font-family="Times,serif" font-size="14.00">a</text>
</g>
<!-- 2&#45;&gt;3 -->
<g id="edge6" class="edge"><title>2&#45;&gt;3</title>
<path fill="none" stroke="black" d="M161.253,-183.923C164.821,-161.249 168.621,-120.306 157,-88 149.951,-68.404 134.766,-50.2894 121.985,-37.5422"/>
<polygon fill="black" stroke="black" points="124.082,-34.7058 114.432,-30.3336 119.249,-39.7697 124.082,-34.7058"/>
<text text-anchor="middle" x="168.5" y="-106.3" font-family="Times,serif" font-size="14.00">b</text>
</g>
<!-- 3&#45;&gt;0 -->
<g id="edge7" class="edge"><title>3&#45;&gt;0</title>
<path fill="none" stroke="black" d="M101,-36.2581C101,-47.9274 101,-63.6781 101,-77.539"/>
<polygon fill="black" stroke="black" points="97.5001,-77.6712 101,-87.6713 104.5,-77.6713 97.5001,-77.6712"/>
<text text-anchor="middle" x="109.5" y="-58.3" font-family="Times,serif" font-size="14.00">b,a</text>
</g>
</g>
</svg>
