<?xml version="1.0" encoding="UTF-8" standalone="no"?>
<!DOCTYPE svg PUBLIC "-//W3C//DTD SVG 1.1//EN"
 "http://www.w3.org/Graphics/SVG/1.1/DTD/svg11.dtd">
<!-- Generated by graphviz version 2.36.0 (20140111.2315)
 -->
<!-- Title: %3 Pages: 1 -->
<svg width="118pt" height="404pt"
 viewBox="0.00 0.00 117.85 404.00" xmlns="http://www.w3.org/2000/svg" xmlns:xlink="http://www.w3.org/1999/xlink">
<g id="graph0" class="graph" transform="scale(1 1) rotate(0) translate(4 400)">
<title>%3</title>
<polygon fill="white" stroke="none" points="-4,4 -4,-400 113.852,-400 113.852,4 -4,4"/>
<!-- 0 -->
<g id="node1" class="node"><title>0</title>
<ellipse fill="lightblue" stroke="black" cx="30.8522" cy="-286" rx="17.5909" ry="18"/>
<ellipse fill="none" stroke="black" cx="30.8522" cy="-286" rx="21.5" ry="22"/>
<text text-anchor="middle" x="30.8522" y="-282.3" font-family="Times,serif" font-size="14.00">0</text>
</g>
<!-- 1 -->
<g id="node2" class="node"><title>1</title>
<ellipse fill="lightblue" stroke="black" cx="30.8522" cy="-194" rx="18" ry="18"/>
<text text-anchor="middle" x="30.8522" y="-190.3" font-family="Times,serif" font-size="14.00">1</text>
</g>
<!-- 0&#45;&gt;1 -->
<g id="edge1" class="edge"><title>0&#45;&gt;1</title>
<path fill="none" stroke="black" d="M30.8522,-263.671C30.8522,-251.284 30.8522,-235.552 30.8522,-222.272"/>
<polygon fill="black" stroke="black" points="34.3523,-222.258 30.8522,-212.258 27.3523,-222.258 34.3523,-222.258"/>
<text text-anchor="middle" x="34.3522" y="-234.3" font-family="Times,serif" font-size="14.00">a</text>
</g>
<!-- 4 -->
<g id="node5" class="node"><title>4</title>
<ellipse fill="lightblue" stroke="black" cx="23.8522" cy="-18" rx="18" ry="18"/>
<text text-anchor="middle" x="23.8522" y="-14.3" font-family="Times,serif" font-size="14.00">4</text>
</g>
<!-- 0&#45;&gt;4 -->
<g id="edge2" class="edge"><title>0&#45;&gt;4</title>
<path fill="none" stroke="black" d="M21.7046,-266.005C15.2828,-251.57 7.25707,-231.021 3.85224,-212 -6.70949,-152.998 7.07305,-82.7757 16.4608,-45.4353"/>
<polygon fill="black" stroke="black" points="19.9461,-45.9408 19.0848,-35.381 13.1729,-44.173 19.9461,-45.9408"/>
<text text-anchor="middle" x="4.35224" y="-146.3" font-family="Times,serif" font-size="14.00">b</text>
</g>
<!-- 2 -->
<g id="node3" class="node"><title>2</title>
<ellipse fill="green" stroke="black" cx="66.8522" cy="-106" rx="18" ry="18"/>
<text text-anchor="middle" x="66.8522" y="-102.3" font-family="Times,serif" font-size="14.00">2</text>
</g>
<!-- 1&#45;&gt;2 -->
<g id="edge3" class="edge"><title>1&#45;&gt;2</title>
<path fill="none" stroke="black" d="M37.4552,-177.226C42.6998,-164.697 50.1374,-146.93 56.2191,-132.401"/>
<polygon fill="black" stroke="black" points="59.5363,-133.541 60.1692,-122.965 53.0792,-130.838 59.5363,-133.541"/>
<text text-anchor="middle" x="60.3522" y="-146.3" font-family="Times,serif" font-size="14.00">b,a</text>
</g>
<!-- 2&#45;&gt;2 -->
<g id="edge4" class="edge"><title>2&#45;&gt;2</title>
<path fill="none" stroke="black" d="M83.1425,-113.668C93.2414,-115.517 102.852,-112.961 102.852,-106 102.852,-101.541 98.9079,-98.8891 93.4179,-98.0454"/>
<polygon fill="black" stroke="black" points="93.041,-94.5544 83.1425,-98.3321 93.2363,-101.552 93.041,-94.5544"/>
<text text-anchor="middle" x="106.352" y="-102.3" font-family="Times,serif" font-size="14.00">a</text>
</g>
<!-- 2&#45;&gt;4 -->
<g id="edge5" class="edge"><title>2&#45;&gt;4</title>
<path fill="none" stroke="black" d="M59.1647,-89.6249C52.7839,-76.8633 43.5883,-58.4721 36.1805,-43.6565"/>
<polygon fill="black" stroke="black" points="39.2209,-41.9109 31.6182,-34.5319 32.9599,-45.0415 39.2209,-41.9109"/>
<text text-anchor="middle" x="52.3522" y="-58.3" font-family="Times,serif" font-size="14.00">b</text>
</g>
<!-- 3 -->
<g id="node4" class="node"><title>3</title>
<ellipse fill="lightblue" stroke="black" cx="66.8522" cy="-378" rx="18" ry="18"/>
<text text-anchor="middle" x="66.8522" y="-374.3" font-family="Times,serif" font-size="14.00">3</text>
</g>
<!-- 3&#45;&gt;0 -->
<g id="edge6" class="edge"><title>3&#45;&gt;0</title>
<path fill="none" stroke="black" d="M60.4162,-360.91C55.4391,-348.467 48.4164,-330.91 42.4645,-316.031"/>
<polygon fill="black" stroke="black" points="45.7037,-314.704 38.7401,-306.72 39.2044,-317.304 45.7037,-314.704"/>
<text text-anchor="middle" x="55.3522" y="-330.3" font-family="Times,serif" font-size="14.00">a</text>
</g>
<!-- 3&#45;&gt;2 -->
<g id="edge7" class="edge"><title>3&#45;&gt;2</title>
<path fill="none" stroke="black" d="M67.4778,-359.966C68.7957,-323.128 71.8209,-233.302 72.8522,-158 72.9496,-150.89 73.4552,-149.086 72.8522,-142 72.6327,-139.42 72.3237,-136.745 71.9605,-134.074"/>
<polygon fill="black" stroke="black" points="75.3885,-133.344 70.3657,-124.015 68.4748,-134.44 75.3885,-133.344"/>
<text text-anchor="middle" x="74.3522" y="-234.3" font-family="Times,serif" font-size="14.00">b</text>
</g>
<!-- 4&#45;&gt;1 -->
<g id="edge8" class="edge"><title>4&#45;&gt;1</title>
<path fill="none" stroke="black" d="M24.5389,-36.0697C25.7537,-66.266 28.291,-129.334 29.7521,-165.653"/>
<polygon fill="black" stroke="black" points="26.2691,-166.148 30.1683,-175.999 33.2634,-165.867 26.2691,-166.148"/>
<text text-anchor="middle" x="32.3522" y="-102.3" font-family="Times,serif" font-size="14.00">a</text>
</g>
<!-- 4&#45;&gt;4 -->
<g id="edge9" class="edge"><title>4&#45;&gt;4</title>
<path fill="none" stroke="black" d="M40.1425,-25.6679C50.2414,-27.5169 59.8522,-24.9609 59.8522,-18 59.8522,-13.5406 55.9079,-10.8891 50.4179,-10.0454"/>
<polygon fill="black" stroke="black" points="50.041,-6.55441 40.1425,-10.3321 50.2363,-13.5517 50.041,-6.55441"/>
<text text-anchor="middle" x="63.3522" y="-14.3" font-family="Times,serif" font-size="14.00">b</text>
</g>
</g>
</svg>
