<?xml version="1.0" encoding="UTF-8" standalone="no"?>
<!DOCTYPE svg PUBLIC "-//W3C//DTD SVG 1.1//EN"
 "http://www.w3.org/Graphics/SVG/1.1/DTD/svg11.dtd">
<!-- Generated by graphviz version 2.36.0 (20140111.2315)
 -->
<!-- Title: %3 Pages: 1 -->
<svg width="150pt" height="316pt"
 viewBox="0.00 0.00 150.00 316.00" xmlns="http://www.w3.org/2000/svg" xmlns:xlink="http://www.w3.org/1999/xlink">
<g id="graph0" class="graph" transform="scale(1 1) rotate(0) translate(4 312)">
<title>%3</title>
<polygon fill="white" stroke="none" points="-4,4 -4,-312 146,-312 146,4 -4,4"/>
<!-- 0 -->
<g id="node1" class="node"><title>0</title>
<ellipse fill="green" stroke="black" cx="48" cy="-290" rx="18" ry="18"/>
<text text-anchor="middle" x="48" y="-286.3" font-family="Times,serif" font-size="14.00">0</text>
</g>
<!-- 1 -->
<g id="node2" class="node"><title>1</title>
<ellipse fill="lightblue" stroke="black" cx="18" cy="-202" rx="18" ry="18"/>
<text text-anchor="middle" x="18" y="-198.3" font-family="Times,serif" font-size="14.00">1</text>
</g>
<!-- 0&#45;&gt;1 -->
<g id="edge1" class="edge"><title>0&#45;&gt;1</title>
<path fill="none" stroke="black" d="M42.3572,-272.824C38.0413,-260.452 32.0045,-243.146 27.0207,-228.859"/>
<polygon fill="black" stroke="black" points="30.216,-227.393 23.6175,-219.103 23.6066,-229.698 30.216,-227.393"/>
<text text-anchor="middle" x="38.5" y="-242.3" font-family="Times,serif" font-size="14.00">b</text>
</g>
<!-- 3 -->
<g id="node4" class="node"><title>3</title>
<ellipse fill="lightblue" stroke="black" cx="98" cy="-18" rx="18" ry="18"/>
<text text-anchor="middle" x="98" y="-14.3" font-family="Times,serif" font-size="14.00">3</text>
</g>
<!-- 0&#45;&gt;3 -->
<g id="edge2" class="edge"><title>0&#45;&gt;3</title>
<path fill="none" stroke="black" d="M63.4914,-280.447C81.8972,-269.291 111.662,-247.865 124,-220 150.144,-160.953 125.441,-83.2658 109.358,-44.0108"/>
<polygon fill="black" stroke="black" points="112.523,-42.5081 105.393,-34.6708 106.079,-45.2434 112.523,-42.5081"/>
<text text-anchor="middle" x="138.5" y="-154.3" font-family="Times,serif" font-size="14.00">a</text>
</g>
<!-- 1&#45;&gt;0 -->
<g id="edge3" class="edge"><title>1&#45;&gt;0</title>
<path fill="none" stroke="black" d="M16.5293,-220.054C16.2502,-230.218 16.9607,-243.2 21,-254 22.9332,-259.169 25.9106,-264.195 29.193,-268.751"/>
<polygon fill="black" stroke="black" points="26.6997,-271.237 35.6868,-276.848 32.1602,-266.857 26.6997,-271.237"/>
<text text-anchor="middle" x="24.5" y="-242.3" font-family="Times,serif" font-size="14.00">a</text>
</g>
<!-- 4 -->
<g id="node5" class="node"><title>4</title>
<ellipse fill="lightblue" stroke="black" cx="68" cy="-110" rx="17.5909" ry="18"/>
<ellipse fill="none" stroke="black" cx="68" cy="-110" rx="21.5" ry="22"/>
<text text-anchor="middle" x="68" y="-106.3" font-family="Times,serif" font-size="14.00">4</text>
</g>
<!-- 1&#45;&gt;4 -->
<g id="edge4" class="edge"><title>1&#45;&gt;4</title>
<path fill="none" stroke="black" d="M26.4818,-185.733C33.6345,-172.858 44.0523,-154.106 52.6627,-138.607"/>
<polygon fill="black" stroke="black" points="55.9481,-139.9 57.745,-129.459 49.829,-136.501 55.9481,-139.9"/>
<text text-anchor="middle" x="48.5" y="-154.3" font-family="Times,serif" font-size="14.00">b</text>
</g>
<!-- 2 -->
<g id="node3" class="node"><title>2</title>
<ellipse fill="lightblue" stroke="black" cx="72" cy="-202" rx="18" ry="18"/>
<text text-anchor="middle" x="72" y="-198.3" font-family="Times,serif" font-size="14.00">2</text>
</g>
<!-- 2&#45;&gt;2 -->
<g id="edge5" class="edge"><title>2&#45;&gt;2</title>
<path fill="none" stroke="black" d="M88.2903,-209.668C98.3892,-211.517 108,-208.961 108,-202 108,-197.541 104.056,-194.889 98.5656,-194.045"/>
<polygon fill="black" stroke="black" points="98.1887,-190.554 88.2903,-194.332 98.384,-197.552 98.1887,-190.554"/>
<text text-anchor="middle" x="111.5" y="-198.3" font-family="Times,serif" font-size="14.00">a</text>
</g>
<!-- 2&#45;&gt;4 -->
<g id="edge6" class="edge"><title>2&#45;&gt;4</title>
<path fill="none" stroke="black" d="M71.2288,-183.647C70.7077,-171.924 70.0051,-156.114 69.3883,-142.237"/>
<polygon fill="black" stroke="black" points="72.8785,-141.936 68.9378,-132.101 65.8854,-142.247 72.8785,-141.936"/>
<text text-anchor="middle" x="73.5" y="-154.3" font-family="Times,serif" font-size="14.00">b</text>
</g>
<!-- 3&#45;&gt;3 -->
<g id="edge7" class="edge"><title>3&#45;&gt;3</title>
<path fill="none" stroke="black" d="M114.29,-25.6679C124.389,-27.5169 134,-24.9609 134,-18 134,-13.5406 130.056,-10.8891 124.566,-10.0454"/>
<polygon fill="black" stroke="black" points="124.189,-6.55441 114.29,-10.3321 124.384,-13.5517 124.189,-6.55441"/>
<text text-anchor="middle" x="137.5" y="-14.3" font-family="Times,serif" font-size="14.00">b</text>
</g>
<!-- 3&#45;&gt;4 -->
<g id="edge8" class="edge"><title>3&#45;&gt;4</title>
<path fill="none" stroke="black" d="M85.671,-31.1466C80.1373,-37.412 74.1543,-45.5114 71,-54 68.2207,-61.4793 66.9345,-69.9257 66.4632,-77.9144"/>
<polygon fill="black" stroke="black" points="62.9616,-77.9632 66.2561,-88.0327 69.9601,-78.1065 62.9616,-77.9632"/>
<text text-anchor="middle" x="74.5" y="-58.3" font-family="Times,serif" font-size="14.00">a</text>
</g>
<!-- 4&#45;&gt;3 -->
<g id="edge9" class="edge"><title>4&#45;&gt;3</title>
<path fill="none" stroke="black" d="M74.658,-89.0261C78.9919,-76.0244 84.688,-58.9359 89.3684,-44.8948"/>
<polygon fill="black" stroke="black" points="92.7209,-45.905 92.5629,-35.3114 86.0801,-43.6914 92.7209,-45.905"/>
<text text-anchor="middle" x="88.5" y="-58.3" font-family="Times,serif" font-size="14.00">b</text>
</g>
<!-- 4&#45;&gt;4 -->
<g id="edge10" class="edge"><title>4&#45;&gt;4</title>
<path fill="none" stroke="black" d="M88.0663,-118.734C98.0736,-119.943 107,-117.031 107,-110 107,-105.496 103.337,-102.682 98.0725,-101.559"/>
<polygon fill="black" stroke="black" points="98.1646,-98.0605 88.0663,-101.266 97.9594,-105.057 98.1646,-98.0605"/>
<text text-anchor="middle" x="110.5" y="-106.3" font-family="Times,serif" font-size="14.00">a</text>
</g>
</g>
</svg>
