<?xml version="1.0" encoding="UTF-8" standalone="no"?>
<!DOCTYPE svg PUBLIC "-//W3C//DTD SVG 1.1//EN"
 "http://www.w3.org/Graphics/SVG/1.1/DTD/svg11.dtd">
<!-- Generated by graphviz version 2.36.0 (20140111.2315)
 -->
<!-- Title: %3 Pages: 1 -->
<svg width="121pt" height="316pt"
 viewBox="0.00 0.00 121.00 316.00" xmlns="http://www.w3.org/2000/svg" xmlns:xlink="http://www.w3.org/1999/xlink">
<g id="graph0" class="graph" transform="scale(1 1) rotate(0) translate(4 312)">
<title>%3</title>
<polygon fill="white" stroke="none" points="-4,4 -4,-312 117,-312 117,4 -4,4"/>
<!-- 0 -->
<g id="node1" class="node"><title>0</title>
<ellipse fill="green" stroke="black" cx="95" cy="-290" rx="18" ry="18"/>
<text text-anchor="middle" x="95" y="-286.3" font-family="Times,serif" font-size="14.00">0</text>
</g>
<!-- 1 -->
<g id="node2" class="node"><title>1</title>
<ellipse fill="lightblue" stroke="black" cx="47" cy="-202" rx="18" ry="18"/>
<text text-anchor="middle" x="47" y="-198.3" font-family="Times,serif" font-size="14.00">1</text>
</g>
<!-- 0&#45;&gt;1 -->
<g id="edge1" class="edge"><title>0&#45;&gt;1</title>
<path fill="none" stroke="black" d="M86.639,-274.02C79.3877,-261.028 68.7626,-241.991 60.3377,-226.897"/>
<polygon fill="black" stroke="black" points="63.3561,-225.123 55.4262,-218.097 57.2437,-228.535 63.3561,-225.123"/>
<text text-anchor="middle" x="78.5" y="-242.3" font-family="Times,serif" font-size="14.00">b</text>
</g>
<!-- 3 -->
<g id="node4" class="node"><title>3</title>
<ellipse fill="lightblue" stroke="black" cx="67" cy="-18" rx="18" ry="18"/>
<text text-anchor="middle" x="67" y="-14.3" font-family="Times,serif" font-size="14.00">3</text>
</g>
<!-- 0&#45;&gt;3 -->
<g id="edge2" class="edge"><title>0&#45;&gt;3</title>
<path fill="none" stroke="black" d="M96.2606,-271.998C97.2293,-258.04 98.4859,-237.751 99,-220 101.156,-145.549 91.7743,-126.793 76,-54 75.41,-51.2771 74.7538,-48.4458 74.0722,-45.6255"/>
<polygon fill="black" stroke="black" points="77.4019,-44.5147 71.565,-35.6727 70.6139,-46.2248 77.4019,-44.5147"/>
<text text-anchor="middle" x="100.5" y="-154.3" font-family="Times,serif" font-size="14.00">a</text>
</g>
<!-- 1&#45;&gt;1 -->
<g id="edge3" class="edge"><title>1&#45;&gt;1</title>
<path fill="none" stroke="black" d="M63.2903,-209.668C73.3892,-211.517 83,-208.961 83,-202 83,-197.541 79.0557,-194.889 73.5656,-194.045"/>
<polygon fill="black" stroke="black" points="73.1887,-190.554 63.2903,-194.332 73.384,-197.552 73.1887,-190.554"/>
<text text-anchor="middle" x="86.5" y="-198.3" font-family="Times,serif" font-size="14.00">a</text>
</g>
<!-- 2 -->
<g id="node3" class="node"><title>2</title>
<ellipse fill="lightblue" stroke="black" cx="21" cy="-110" rx="17.5909" ry="18"/>
<ellipse fill="none" stroke="black" cx="21" cy="-110" rx="21.5" ry="22"/>
<text text-anchor="middle" x="21" y="-106.3" font-family="Times,serif" font-size="14.00">2</text>
</g>
<!-- 1&#45;&gt;2 -->
<g id="edge4" class="edge"><title>1&#45;&gt;2</title>
<path fill="none" stroke="black" d="M34.9233,-188.101C29.9212,-181.907 24.6715,-174.083 22,-166 19.4993,-158.434 18.5225,-149.957 18.3419,-141.968"/>
<polygon fill="black" stroke="black" points="21.843,-141.916 18.5018,-131.862 14.8439,-141.805 21.843,-141.916"/>
<text text-anchor="middle" x="25.5" y="-154.3" font-family="Times,serif" font-size="14.00">b</text>
</g>
<!-- 2&#45;&gt;1 -->
<g id="edge5" class="edge"><title>2&#45;&gt;1</title>
<path fill="none" stroke="black" d="M26.8309,-131.184C30.5307,-143.991 35.3577,-160.7 39.3619,-174.56"/>
<polygon fill="black" stroke="black" points="36.0932,-175.857 42.2312,-184.493 42.8182,-173.914 36.0932,-175.857"/>
<text text-anchor="middle" x="39.5" y="-154.3" font-family="Times,serif" font-size="14.00">a</text>
</g>
<!-- 2&#45;&gt;3 -->
<g id="edge6" class="edge"><title>2&#45;&gt;3</title>
<path fill="none" stroke="black" d="M19.7656,-87.8455C19.9957,-77.1582 21.6298,-64.3073 27,-54 30.9572,-46.4047 37.3027,-39.7163 43.7846,-34.2755"/>
<polygon fill="black" stroke="black" points="46.0769,-36.9289 51.8985,-28.0768 41.8273,-31.3664 46.0769,-36.9289"/>
<text text-anchor="middle" x="30.5" y="-58.3" font-family="Times,serif" font-size="14.00">b</text>
</g>
<!-- 3&#45;&gt;1 -->
<g id="edge7" class="edge"><title>3&#45;&gt;1</title>
<path fill="none" stroke="black" d="M65.138,-35.944C61.6748,-67.4593 54.2148,-135.345 50.021,-173.509"/>
<polygon fill="black" stroke="black" points="46.4949,-173.555 48.8816,-183.878 53.453,-174.32 46.4949,-173.555"/>
<text text-anchor="middle" x="62.5" y="-106.3" font-family="Times,serif" font-size="14.00">a</text>
</g>
<!-- 3&#45;&gt;2 -->
<g id="edge8" class="edge"><title>3&#45;&gt;2</title>
<path fill="none" stroke="black" d="M59.0923,-34.4716C52.592,-47.1895 43.2123,-65.5412 35.3871,-80.8513"/>
<polygon fill="black" stroke="black" points="32.1901,-79.416 30.7554,-89.9133 38.4231,-82.6019 32.1901,-79.416"/>
<text text-anchor="middle" x="51.5" y="-58.3" font-family="Times,serif" font-size="14.00">b</text>
</g>
</g>
</svg>
