<?xml version="1.0" encoding="UTF-8" standalone="no"?>
<!DOCTYPE svg PUBLIC "-//W3C//DTD SVG 1.1//EN"
 "http://www.w3.org/Graphics/SVG/1.1/DTD/svg11.dtd">
<!-- Generated by graphviz version 2.36.0 (20140111.2315)
 -->
<!-- Title: %3 Pages: 1 -->
<svg width="176pt" height="228pt"
 viewBox="0.00 0.00 176.00 228.00" xmlns="http://www.w3.org/2000/svg" xmlns:xlink="http://www.w3.org/1999/xlink">
<g id="graph0" class="graph" transform="scale(1 1) rotate(0) translate(4 224)">
<title>%3</title>
<polygon fill="white" stroke="none" points="-4,4 -4,-224 172,-224 172,4 -4,4"/>
<!-- 0 -->
<g id="node1" class="node"><title>0</title>
<ellipse fill="green" stroke="black" cx="69" cy="-198" rx="17.5909" ry="18"/>
<ellipse fill="none" stroke="black" cx="69" cy="-198" rx="21.5" ry="22"/>
<text text-anchor="middle" x="69" y="-194.3" font-family="Times,serif" font-size="14.00">0</text>
</g>
<!-- 3 -->
<g id="node4" class="node"><title>3</title>
<ellipse fill="lightblue" stroke="black" cx="18" cy="-106" rx="18" ry="18"/>
<text text-anchor="middle" x="18" y="-102.3" font-family="Times,serif" font-size="14.00">3</text>
</g>
<!-- 0&#45;&gt;3 -->
<g id="edge1" class="edge"><title>0&#45;&gt;3</title>
<path fill="none" stroke="black" d="M58.4328,-178.352C50.6783,-164.668 40.0792,-145.963 31.6784,-131.138"/>
<polygon fill="black" stroke="black" points="34.5025,-129.023 26.5273,-122.048 28.4124,-132.474 34.5025,-129.023"/>
<text text-anchor="middle" x="55.5" y="-146.3" font-family="Times,serif" font-size="14.00">b,a</text>
</g>
<!-- 1 -->
<g id="node2" class="node"><title>1</title>
<ellipse fill="lightblue" stroke="black" cx="97" cy="-18" rx="18" ry="18"/>
<text text-anchor="middle" x="97" y="-14.3" font-family="Times,serif" font-size="14.00">1</text>
</g>
<!-- 1&#45;&gt;0 -->
<g id="edge2" class="edge"><title>1&#45;&gt;0</title>
<path fill="none" stroke="black" d="M94.3354,-35.939C89.6246,-65.8863 79.7637,-128.573 73.829,-166.301"/>
<polygon fill="black" stroke="black" points="70.3633,-165.81 72.2668,-176.233 77.2782,-166.898 70.3633,-165.81"/>
<text text-anchor="middle" x="94.5" y="-102.3" font-family="Times,serif" font-size="14.00">b,a</text>
</g>
<!-- 2 -->
<g id="node3" class="node"><title>2</title>
<ellipse fill="lightblue" stroke="black" cx="150" cy="-106" rx="18" ry="18"/>
<text text-anchor="middle" x="150" y="-102.3" font-family="Times,serif" font-size="14.00">2</text>
</g>
<!-- 2&#45;&gt;1 -->
<g id="edge3" class="edge"><title>2&#45;&gt;1</title>
<path fill="none" stroke="black" d="M140.768,-90.0199C132.712,-76.9482 120.885,-57.7576 111.556,-42.6194"/>
<polygon fill="black" stroke="black" points="114.352,-40.4853 106.126,-33.8084 108.393,-44.1579 114.352,-40.4853"/>
<text text-anchor="middle" x="136.5" y="-58.3" font-family="Times,serif" font-size="14.00">b,a</text>
</g>
<!-- 3&#45;&gt;1 -->
<g id="edge4" class="edge"><title>3&#45;&gt;1</title>
<path fill="none" stroke="black" d="M29.9984,-91.9385C42.833,-77.9666 63.3578,-55.6231 78.312,-39.3439"/>
<polygon fill="black" stroke="black" points="80.9601,-41.6349 85.1475,-31.9027 75.8049,-36.8994 80.9601,-41.6349"/>
<text text-anchor="middle" x="68.5" y="-58.3" font-family="Times,serif" font-size="14.00">b</text>
</g>
<!-- 3&#45;&gt;3 -->
<g id="edge5" class="edge"><title>3&#45;&gt;3</title>
<path fill="none" stroke="black" d="M34.2903,-113.668C44.3892,-115.517 54,-112.961 54,-106 54,-101.541 50.0557,-98.8891 44.5656,-98.0454"/>
<polygon fill="black" stroke="black" points="44.1887,-94.5544 34.2903,-98.3321 44.384,-101.552 44.1887,-94.5544"/>
<text text-anchor="middle" x="57.5" y="-102.3" font-family="Times,serif" font-size="14.00">a</text>
</g>
</g>
</svg>
