<?xml version="1.0" encoding="UTF-8" standalone="no"?>
<!DOCTYPE svg PUBLIC "-//W3C//DTD SVG 1.1//EN"
 "http://www.w3.org/Graphics/SVG/1.1/DTD/svg11.dtd">
<!-- Generated by graphviz version 2.36.0 (20140111.2315)
 -->
<!-- Title: %3 Pages: 1 -->
<svg width="123pt" height="228pt"
 viewBox="0.00 0.00 123.00 228.00" xmlns="http://www.w3.org/2000/svg" xmlns:xlink="http://www.w3.org/1999/xlink">
<g id="graph0" class="graph" transform="scale(1 1) rotate(0) translate(4 224)">
<title>%3</title>
<polygon fill="white" stroke="none" points="-4,4 -4,-224 119,-224 119,4 -4,4"/>
<!-- 0 -->
<g id="node1" class="node"><title>0</title>
<ellipse fill="lightblue" stroke="black" cx="18" cy="-202" rx="18" ry="18"/>
<text text-anchor="middle" x="18" y="-198.3" font-family="Times,serif" font-size="14.00">0</text>
</g>
<!-- 3 -->
<g id="node4" class="node"><title>3</title>
<ellipse fill="green" stroke="black" cx="41" cy="-110" rx="17.5909" ry="18"/>
<ellipse fill="none" stroke="black" cx="41" cy="-110" rx="21.5" ry="22"/>
<text text-anchor="middle" x="41" y="-106.3" font-family="Times,serif" font-size="14.00">3</text>
</g>
<!-- 0&#45;&gt;3 -->
<g id="edge1" class="edge"><title>0&#45;&gt;3</title>
<path fill="none" stroke="black" d="M19.7766,-183.812C21.0354,-173.832 23.0354,-161.082 26,-150 26.8623,-146.776 27.8991,-143.452 29.0197,-140.167"/>
<polygon fill="black" stroke="black" points="32.3817,-141.165 32.5428,-130.572 25.8106,-138.753 32.3817,-141.165"/>
<text text-anchor="middle" x="34.5" y="-154.3" font-family="Times,serif" font-size="14.00">b,a</text>
</g>
<!-- 1 -->
<g id="node2" class="node"><title>1</title>
<ellipse fill="lightblue" stroke="black" cx="41" cy="-18" rx="18" ry="18"/>
<text text-anchor="middle" x="41" y="-14.3" font-family="Times,serif" font-size="14.00">1</text>
</g>
<!-- 1&#45;&gt;1 -->
<g id="edge2" class="edge"><title>1&#45;&gt;1</title>
<path fill="none" stroke="black" d="M57.2903,-25.6679C67.3892,-27.5169 77,-24.9609 77,-18 77,-13.5406 73.0557,-10.8891 67.5656,-10.0454"/>
<polygon fill="black" stroke="black" points="67.1887,-6.55441 57.2903,-10.3321 67.384,-13.5517 67.1887,-6.55441"/>
<text text-anchor="middle" x="85.5" y="-14.3" font-family="Times,serif" font-size="14.00">b,a</text>
</g>
<!-- 2 -->
<g id="node3" class="node"><title>2</title>
<ellipse fill="lightblue" stroke="black" cx="72" cy="-202" rx="18" ry="18"/>
<text text-anchor="middle" x="72" y="-198.3" font-family="Times,serif" font-size="14.00">2</text>
</g>
<!-- 2&#45;&gt;2 -->
<g id="edge3" class="edge"><title>2&#45;&gt;2</title>
<path fill="none" stroke="black" d="M88.2903,-209.668C98.3892,-211.517 108,-208.961 108,-202 108,-197.541 104.056,-194.889 98.5656,-194.045"/>
<polygon fill="black" stroke="black" points="98.1887,-190.554 88.2903,-194.332 98.384,-197.552 98.1887,-190.554"/>
<text text-anchor="middle" x="111.5" y="-198.3" font-family="Times,serif" font-size="14.00">a</text>
</g>
<!-- 2&#45;&gt;3 -->
<g id="edge4" class="edge"><title>2&#45;&gt;3</title>
<path fill="none" stroke="black" d="M66.3141,-184.493C62.0819,-172.206 56.1914,-155.104 51.1575,-140.49"/>
<polygon fill="black" stroke="black" points="54.4062,-139.174 47.8403,-130.859 47.7878,-141.454 54.4062,-139.174"/>
<text text-anchor="middle" x="62.5" y="-154.3" font-family="Times,serif" font-size="14.00">b</text>
</g>
<!-- 3&#45;&gt;1 -->
<g id="edge5" class="edge"><title>3&#45;&gt;1</title>
<path fill="none" stroke="black" d="M41,-87.6713C41,-75.2844 41,-59.5523 41,-46.2721"/>
<polygon fill="black" stroke="black" points="44.5001,-46.258 41,-36.2581 37.5001,-46.2581 44.5001,-46.258"/>
<text text-anchor="middle" x="44.5" y="-58.3" font-family="Times,serif" font-size="14.00">a</text>
</g>
<!-- 3&#45;&gt;3 -->
<g id="edge6" class="edge"><title>3&#45;&gt;3</title>
<path fill="none" stroke="black" d="M61.0663,-118.734C71.0736,-119.943 80,-117.031 80,-110 80,-105.496 76.3366,-102.682 71.0725,-101.559"/>
<polygon fill="black" stroke="black" points="71.1646,-98.0605 61.0663,-101.266 70.9594,-105.057 71.1646,-98.0605"/>
<text text-anchor="middle" x="83.5" y="-106.3" font-family="Times,serif" font-size="14.00">b</text>
</g>
</g>
</svg>
