<?xml version="1.0" encoding="UTF-8" standalone="no"?>
<!DOCTYPE svg PUBLIC "-//W3C//DTD SVG 1.1//EN"
 "http://www.w3.org/Graphics/SVG/1.1/DTD/svg11.dtd">
<!-- Generated by graphviz version 2.36.0 (20140111.2315)
 -->
<!-- Title: %3 Pages: 1 -->
<svg width="220pt" height="228pt"
 viewBox="0.00 0.00 220.00 228.00" xmlns="http://www.w3.org/2000/svg" xmlns:xlink="http://www.w3.org/1999/xlink">
<g id="graph0" class="graph" transform="scale(1 1) rotate(0) translate(4 224)">
<title>%3</title>
<polygon fill="white" stroke="none" points="-4,4 -4,-224 216,-224 216,4 -4,4"/>
<!-- 0 -->
<g id="node1" class="node"><title>0</title>
<ellipse fill="green" stroke="black" cx="105" cy="-202" rx="18" ry="18"/>
<text text-anchor="middle" x="105" y="-198.3" font-family="Times,serif" font-size="14.00">0</text>
</g>
<!-- 1 -->
<g id="node2" class="node"><title>1</title>
<ellipse fill="lightblue" stroke="black" cx="22" cy="-110" rx="17.5909" ry="18"/>
<ellipse fill="none" stroke="black" cx="22" cy="-110" rx="21.5" ry="22"/>
<text text-anchor="middle" x="22" y="-106.3" font-family="Times,serif" font-size="14.00">1</text>
</g>
<!-- 0&#45;&gt;1 -->
<g id="edge1" class="edge"><title>0&#45;&gt;1</title>
<path fill="none" stroke="black" d="M93.1081,-188.105C80.1251,-174.027 59.075,-151.202 43.2399,-134.031"/>
<polygon fill="black" stroke="black" points="45.7314,-131.57 36.379,-126.592 40.5855,-136.316 45.7314,-131.57"/>
<text text-anchor="middle" x="74.5" y="-154.3" font-family="Times,serif" font-size="14.00">b</text>
</g>
<!-- 3 -->
<g id="node4" class="node"><title>3</title>
<ellipse fill="lightblue" stroke="black" cx="98" cy="-18" rx="18" ry="18"/>
<text text-anchor="middle" x="98" y="-14.3" font-family="Times,serif" font-size="14.00">3</text>
</g>
<!-- 0&#45;&gt;3 -->
<g id="edge2" class="edge"><title>0&#45;&gt;3</title>
<path fill="none" stroke="black" d="M104.341,-183.878C103.127,-152.307 100.526,-84.6735 99.0603,-46.5676"/>
<polygon fill="black" stroke="black" points="102.544,-46.0673 98.6619,-36.2092 95.5489,-46.3364 102.544,-46.0673"/>
<text text-anchor="middle" x="105.5" y="-106.3" font-family="Times,serif" font-size="14.00">a</text>
</g>
<!-- 1&#45;&gt;1 -->
<g id="edge3" class="edge"><title>1&#45;&gt;1</title>
<path fill="none" stroke="black" d="M42.0663,-118.734C52.0736,-119.943 61,-117.031 61,-110 61,-105.496 57.3366,-102.682 52.0725,-101.559"/>
<polygon fill="black" stroke="black" points="52.1646,-98.0605 42.0663,-101.266 51.9594,-105.057 52.1646,-98.0605"/>
<text text-anchor="middle" x="64.5" y="-106.3" font-family="Times,serif" font-size="14.00">b</text>
</g>
<!-- 1&#45;&gt;3 -->
<g id="edge4" class="edge"><title>1&#45;&gt;3</title>
<path fill="none" stroke="black" d="M26.5239,-88.3097C29.7267,-77.244 34.9228,-63.899 43,-54 50.8888,-44.3319 62.1837,-36.4998 72.4878,-30.7153"/>
<polygon fill="black" stroke="black" points="74.3021,-33.7164 81.546,-25.9848 71.0617,-27.5115 74.3021,-33.7164"/>
<text text-anchor="middle" x="46.5" y="-58.3" font-family="Times,serif" font-size="14.00">a</text>
</g>
<!-- 2 -->
<g id="node3" class="node"><title>2</title>
<ellipse fill="lightblue" stroke="black" cx="159" cy="-202" rx="18" ry="18"/>
<text text-anchor="middle" x="159" y="-198.3" font-family="Times,serif" font-size="14.00">2</text>
</g>
<!-- 2&#45;&gt;2 -->
<g id="edge5" class="edge"><title>2&#45;&gt;2</title>
<path fill="none" stroke="black" d="M175.29,-209.668C185.389,-211.517 195,-208.961 195,-202 195,-197.541 191.056,-194.889 185.566,-194.045"/>
<polygon fill="black" stroke="black" points="185.189,-190.554 175.29,-194.332 185.384,-197.552 185.189,-190.554"/>
<text text-anchor="middle" x="203.5" y="-198.3" font-family="Times,serif" font-size="14.00">b,a</text>
</g>
<!-- 3&#45;&gt;0 -->
<g id="edge6" class="edge"><title>3&#45;&gt;0</title>
<path fill="none" stroke="black" d="M105.975,-34.2732C108.717,-40.2618 111.478,-47.2953 113,-54 133.729,-145.298 121.389,-139.664 117,-166 116.478,-169.13 115.711,-172.356 114.812,-175.524"/>
<polygon fill="black" stroke="black" points="111.411,-174.665 111.634,-185.258 118.065,-176.838 111.411,-174.665"/>
<text text-anchor="middle" x="127.5" y="-106.3" font-family="Times,serif" font-size="14.00">b</text>
</g>
<!-- 3&#45;&gt;1 -->
<g id="edge7" class="edge"><title>3&#45;&gt;1</title>
<path fill="none" stroke="black" d="M86.7566,-32.3146C75.0474,-46.1807 56.4575,-68.1951 42.1932,-85.087"/>
<polygon fill="black" stroke="black" points="39.365,-83.0113 35.5873,-92.9098 44.7132,-87.5276 39.365,-83.0113"/>
<text text-anchor="middle" x="70.5" y="-58.3" font-family="Times,serif" font-size="14.00">a</text>
</g>
</g>
</svg>
