<?xml version="1.0" encoding="UTF-8" standalone="no"?>
<!DOCTYPE svg PUBLIC "-//W3C//DTD SVG 1.1//EN"
 "http://www.w3.org/Graphics/SVG/1.1/DTD/svg11.dtd">
<!-- Generated by graphviz version 2.36.0 (20140111.2315)
 -->
<!-- Title: %3 Pages: 1 -->
<svg width="120pt" height="316pt"
 viewBox="0.00 0.00 120.33 316.00" xmlns="http://www.w3.org/2000/svg" xmlns:xlink="http://www.w3.org/1999/xlink">
<g id="graph0" class="graph" transform="scale(1 1) rotate(0) translate(4 312)">
<title>%3</title>
<polygon fill="white" stroke="none" points="-4,4 -4,-312 116.331,-312 116.331,4 -4,4"/>
<!-- 0 -->
<g id="node1" class="node"><title>0</title>
<ellipse fill="lightblue" stroke="black" cx="63.3308" cy="-286" rx="17.5909" ry="18"/>
<ellipse fill="none" stroke="black" cx="63.3308" cy="-286" rx="21.5" ry="22"/>
<text text-anchor="middle" x="63.3308" y="-282.3" font-family="Times,serif" font-size="14.00">0</text>
</g>
<!-- 1 -->
<g id="node2" class="node"><title>1</title>
<ellipse fill="green" stroke="black" cx="30.3308" cy="-18" rx="18" ry="18"/>
<text text-anchor="middle" x="30.3308" y="-14.3" font-family="Times,serif" font-size="14.00">1</text>
</g>
<!-- 0&#45;&gt;1 -->
<g id="edge1" class="edge"><title>0&#45;&gt;1</title>
<path fill="none" stroke="black" d="M44.9193,-274.316C34.8655,-267.504 23.1155,-257.754 16.3308,-246 -3.50323,-211.638 4.676,-197.534 1.33075,-158 -2.60684,-111.466 3.66424,-98.9499 16.3308,-54 17.236,-50.7874 18.3362,-47.4658 19.5178,-44.206"/>
<polygon fill="black" stroke="black" points="22.8199,-45.3716 23.1929,-34.7834 16.2984,-42.828 22.8199,-45.3716"/>
<text text-anchor="middle" x="4.83075" y="-146.3" font-family="Times,serif" font-size="14.00">a</text>
</g>
<!-- 2 -->
<g id="node3" class="node"><title>2</title>
<ellipse fill="lightblue" stroke="black" cx="76.3308" cy="-194" rx="18" ry="18"/>
<text text-anchor="middle" x="76.3308" y="-190.3" font-family="Times,serif" font-size="14.00">2</text>
</g>
<!-- 0&#45;&gt;2 -->
<g id="edge2" class="edge"><title>0&#45;&gt;2</title>
<path fill="none" stroke="black" d="M67.9702,-264.427C69.1923,-258.502 70.4217,-252.014 71.3308,-246 72.5009,-238.259 73.4574,-229.813 74.2088,-222.063"/>
<polygon fill="black" stroke="black" points="77.699,-222.328 75.1073,-212.055 70.727,-221.702 77.699,-222.328"/>
<text text-anchor="middle" x="75.8308" y="-234.3" font-family="Times,serif" font-size="14.00">b</text>
</g>
<!-- 1&#45;&gt;0 -->
<g id="edge3" class="edge"><title>1&#45;&gt;0</title>
<path fill="none" stroke="black" d="M31.4871,-36.1029C33.8854,-69.8523 39.9701,-147.357 49.3308,-212 51.3591,-226.008 54.2192,-241.412 56.8261,-254.446"/>
<polygon fill="black" stroke="black" points="53.4119,-255.22 58.8417,-264.318 60.2704,-253.82 53.4119,-255.22"/>
<text text-anchor="middle" x="45.8308" y="-146.3" font-family="Times,serif" font-size="14.00">a</text>
</g>
<!-- 1&#45;&gt;1 -->
<g id="edge4" class="edge"><title>1&#45;&gt;1</title>
<path fill="none" stroke="black" d="M46.621,-25.6679C56.7199,-27.5169 66.3308,-24.9609 66.3308,-18 66.3308,-13.5406 62.3865,-10.8891 56.8964,-10.0454"/>
<polygon fill="black" stroke="black" points="56.5195,-6.55441 46.621,-10.3321 56.7148,-13.5517 56.5195,-6.55441"/>
<text text-anchor="middle" x="69.8308" y="-14.3" font-family="Times,serif" font-size="14.00">b</text>
</g>
<!-- 2&#45;&gt;0 -->
<g id="edge5" class="edge"><title>2&#45;&gt;0</title>
<path fill="none" stroke="black" d="M70.8823,-211.208C69.1323,-217.064 67.3775,-223.768 66.3308,-230 65.0458,-237.651 64.274,-245.976 63.8191,-253.779"/>
<polygon fill="black" stroke="black" points="60.3132,-253.843 63.3769,-263.985 67.3066,-254.146 60.3132,-253.843"/>
<text text-anchor="middle" x="69.8308" y="-234.3" font-family="Times,serif" font-size="14.00">b</text>
</g>
<!-- 3 -->
<g id="node4" class="node"><title>3</title>
<ellipse fill="lightblue" stroke="black" cx="76.3308" cy="-106" rx="18" ry="18"/>
<text text-anchor="middle" x="76.3308" y="-102.3" font-family="Times,serif" font-size="14.00">3</text>
</g>
<!-- 2&#45;&gt;3 -->
<g id="edge6" class="edge"><title>2&#45;&gt;3</title>
<path fill="none" stroke="black" d="M76.3308,-175.597C76.3308,-163.746 76.3308,-147.817 76.3308,-134.292"/>
<polygon fill="black" stroke="black" points="79.8309,-134.084 76.3308,-124.084 72.8309,-134.084 79.8309,-134.084"/>
<text text-anchor="middle" x="79.8308" y="-146.3" font-family="Times,serif" font-size="14.00">a</text>
</g>
<!-- 3&#45;&gt;0 -->
<g id="edge7" class="edge"><title>3&#45;&gt;0</title>
<path fill="none" stroke="black" d="M85,-121.951C95.7041,-142.314 111.547,-179.908 103.331,-212 99.0207,-228.835 89.9341,-245.961 81.5091,-259.391"/>
<polygon fill="black" stroke="black" points="78.3916,-257.763 75.8491,-268.048 84.2507,-261.593 78.3916,-257.763"/>
<text text-anchor="middle" x="108.831" y="-190.3" font-family="Times,serif" font-size="14.00">a</text>
</g>
<!-- 3&#45;&gt;1 -->
<g id="edge8" class="edge"><title>3&#45;&gt;1</title>
<path fill="none" stroke="black" d="M68.1069,-89.6249C61.2385,-76.784 51.3214,-58.2434 43.3717,-43.3808"/>
<polygon fill="black" stroke="black" points="46.2863,-41.409 38.4834,-34.242 40.1138,-44.7106 46.2863,-41.409"/>
<text text-anchor="middle" x="60.8308" y="-58.3" font-family="Times,serif" font-size="14.00">b</text>
</g>
</g>
</svg>
