<?xml version="1.0" encoding="UTF-8" standalone="no"?>
<!DOCTYPE svg PUBLIC "-//W3C//DTD SVG 1.1//EN"
 "http://www.w3.org/Graphics/SVG/1.1/DTD/svg11.dtd">
<!-- Generated by graphviz version 2.36.0 (20140111.2315)
 -->
<!-- Title: %3 Pages: 1 -->
<svg width="144pt" height="228pt"
 viewBox="0.00 0.00 144.00 228.00" xmlns="http://www.w3.org/2000/svg" xmlns:xlink="http://www.w3.org/1999/xlink">
<g id="graph0" class="graph" transform="scale(1 1) rotate(0) translate(4 224)">
<title>%3</title>
<polygon fill="white" stroke="none" points="-4,4 -4,-224 140,-224 140,4 -4,4"/>
<!-- 0 -->
<g id="node1" class="node"><title>0</title>
<ellipse fill="green" stroke="black" cx="99" cy="-198" rx="17.5909" ry="18"/>
<ellipse fill="none" stroke="black" cx="99" cy="-198" rx="21.5" ry="22"/>
<text text-anchor="middle" x="99" y="-194.3" font-family="Times,serif" font-size="14.00">0</text>
</g>
<!-- 1 -->
<g id="node2" class="node"><title>1</title>
<ellipse fill="lightblue" stroke="black" cx="45" cy="-106" rx="18" ry="18"/>
<text text-anchor="middle" x="45" y="-102.3" font-family="Times,serif" font-size="14.00">1</text>
</g>
<!-- 0&#45;&gt;1 -->
<g id="edge1" class="edge"><title>0&#45;&gt;1</title>
<path fill="none" stroke="black" d="M88.0723,-178.787C79.7523,-164.921 68.231,-145.718 59.1976,-130.663"/>
<polygon fill="black" stroke="black" points="62.0916,-128.683 53.9454,-121.909 56.0892,-132.285 62.0916,-128.683"/>
<text text-anchor="middle" x="79.5" y="-146.3" font-family="Times,serif" font-size="14.00">b</text>
</g>
<!-- 3 -->
<g id="node4" class="node"><title>3</title>
<ellipse fill="lightblue" stroke="black" cx="99" cy="-18" rx="18" ry="18"/>
<text text-anchor="middle" x="99" y="-14.3" font-family="Times,serif" font-size="14.00">3</text>
</g>
<!-- 0&#45;&gt;3 -->
<g id="edge2" class="edge"><title>0&#45;&gt;3</title>
<path fill="none" stroke="black" d="M99,-175.882C99,-143.584 99,-81.9218 99,-46.279"/>
<polygon fill="black" stroke="black" points="102.5,-46.114 99,-36.1141 95.5001,-46.1141 102.5,-46.114"/>
<text text-anchor="middle" x="102.5" y="-102.3" font-family="Times,serif" font-size="14.00">a</text>
</g>
<!-- 2 -->
<g id="node3" class="node"><title>2</title>
<ellipse fill="lightblue" stroke="black" cx="18" cy="-18" rx="18" ry="18"/>
<text text-anchor="middle" x="18" y="-14.3" font-family="Times,serif" font-size="14.00">2</text>
</g>
<!-- 1&#45;&gt;2 -->
<g id="edge3" class="edge"><title>1&#45;&gt;2</title>
<path fill="none" stroke="black" d="M32.7246,-92.5012C27.4437,-86.2742 21.8392,-78.309 19,-70 16.4408,-62.5102 15.5466,-54.034 15.4668,-46.1729"/>
<polygon fill="black" stroke="black" points="18.971,-46.0889 15.783,-35.9851 11.9744,-45.8717 18.971,-46.0889"/>
<text text-anchor="middle" x="22.5" y="-58.3" font-family="Times,serif" font-size="14.00">a</text>
</g>
<!-- 1&#45;&gt;3 -->
<g id="edge4" class="edge"><title>1&#45;&gt;3</title>
<path fill="none" stroke="black" d="M54.1604,-90.4113C62.3836,-77.315 74.6029,-57.8546 84.2098,-42.5548"/>
<polygon fill="black" stroke="black" points="87.4411,-43.9904 89.7947,-33.6603 81.5129,-40.268 87.4411,-43.9904"/>
<text text-anchor="middle" x="80.5" y="-58.3" font-family="Times,serif" font-size="14.00">b</text>
</g>
<!-- 2&#45;&gt;1 -->
<g id="edge5" class="edge"><title>2&#45;&gt;1</title>
<path fill="none" stroke="black" d="M23.1899,-35.5308C27.0331,-47.7721 32.3469,-64.6975 36.7672,-78.777"/>
<polygon fill="black" stroke="black" points="33.4594,-79.9259 39.7941,-88.4183 40.138,-77.8291 33.4594,-79.9259"/>
<text text-anchor="middle" x="37.5" y="-58.3" font-family="Times,serif" font-size="14.00">a</text>
</g>
<!-- 2&#45;&gt;2 -->
<g id="edge6" class="edge"><title>2&#45;&gt;2</title>
<path fill="none" stroke="black" d="M34.2903,-25.6679C44.3892,-27.5169 54,-24.9609 54,-18 54,-13.5406 50.0557,-10.8891 44.5656,-10.0454"/>
<polygon fill="black" stroke="black" points="44.1887,-6.55441 34.2903,-10.3321 44.384,-13.5517 44.1887,-6.55441"/>
<text text-anchor="middle" x="57.5" y="-14.3" font-family="Times,serif" font-size="14.00">b</text>
</g>
<!-- 3&#45;&gt;0 -->
<g id="edge7" class="edge"><title>3&#45;&gt;0</title>
<path fill="none" stroke="black" d="M106.733,-34.6425C109.259,-40.5573 111.738,-47.4451 113,-54 121.741,-99.3882 120.926,-112.462 113,-158 112.433,-161.26 111.617,-164.608 110.661,-167.907"/>
<polygon fill="black" stroke="black" points="107.299,-166.925 107.478,-177.518 113.944,-169.125 107.299,-166.925"/>
<text text-anchor="middle" x="127.5" y="-102.3" font-family="Times,serif" font-size="14.00">b,a</text>
</g>
</g>
</svg>
