<?xml version="1.0" encoding="UTF-8" standalone="no"?>
<!DOCTYPE svg PUBLIC "-//W3C//DTD SVG 1.1//EN"
 "http://www.w3.org/Graphics/SVG/1.1/DTD/svg11.dtd">
<!-- Generated by graphviz version 2.38.0 (20140413.2041)
 -->
<!-- Title: %3 Pages: 1 -->
<svg width="89pt" height="201pt"
 viewBox="0.00 0.00 89.00 201.00" xmlns="http://www.w3.org/2000/svg" xmlns:xlink="http://www.w3.org/1999/xlink">
<g id="graph0" class="graph" transform="scale(1 1) rotate(0) translate(4 197)">
<title>%3</title>
<polygon fill="white" stroke="none" points="-4,4 -4,-197 85,-197 85,4 -4,4"/>
<!-- a -->
<g id="node1" class="node"><title>a</title>
<polygon fill="none" stroke="black" points="0,-83.5 0,-119.5 54,-119.5 54,-83.5 0,-83.5"/>
</g>
<!-- b -->
<g id="node3" class="node"><title>b</title>
<polygon fill="none" stroke="black" points="27,-0.5 27,-46.5 81,-46.5 81,-0.5 27,-0.5"/>
<text text-anchor="middle" x="54" y="-31.3" font-family="Times,serif" font-size="14.00">b*</text>
<polyline fill="none" stroke="black" points="27,-23.5 81,-23.5 "/>
<text text-anchor="middle" x="54" y="-8.3" font-family="Times,serif" font-size="14.00">ba*</text>
</g>
<!-- a&#45;&gt;b -->
<g id="edge1" class="edge"><title>a&#45;&gt;b</title>
<path fill="none" stroke="black" d="M33.1267,-83.2544C35.9604,-75.2782 39.4192,-65.5422 42.6999,-56.3076"/>
<polygon fill="black" stroke="black" points="46.1023,-57.1855 46.1519,-46.5908 39.5062,-54.8421 46.1023,-57.1855"/>
</g>
<!-- 1 -->
<g id="node2" class="node"><title>1</title>
<polygon fill="none" stroke="black" points="27,-156.5 27,-192.5 81,-192.5 81,-156.5 27,-156.5"/>
<text text-anchor="middle" x="54" y="-170.8" font-family="Times,serif" font-size="14.00">1*</text>
</g>
<!-- 1&#45;&gt;a -->
<g id="edge2" class="edge"><title>1&#45;&gt;a</title>
<path fill="none" stroke="black" d="M47.4641,-156.313C44.3466,-148.115 40.5468,-138.123 37.0716,-128.985"/>
<polygon fill="black" stroke="black" points="40.3017,-127.632 33.4758,-119.529 33.7589,-130.12 40.3017,-127.632"/>
</g>
<!-- 1&#45;&gt;b -->
<g id="edge3" class="edge"><title>1&#45;&gt;b</title>
<path fill="none" stroke="black" d="M57.6539,-156.245C59.6759,-145.807 61.9808,-132.202 63,-120 64.3688,-103.613 64.2539,-99.3966 63,-83 62.3427,-74.4047 61.1497,-65.1607 59.8427,-56.6161"/>
<polygon fill="black" stroke="black" points="63.2789,-55.9402 58.2203,-46.6311 56.3695,-57.063 63.2789,-55.9402"/>
</g>
</g>
</svg>
