<?xml version="1.0" encoding="UTF-8" standalone="no"?>
<!DOCTYPE svg PUBLIC "-//W3C//DTD SVG 1.1//EN"
 "http://www.w3.org/Graphics/SVG/1.1/DTD/svg11.dtd">
<!-- Generated by graphviz version 2.36.0 (20140111.2315)
 -->
<!-- Title: %3 Pages: 1 -->
<svg width="128pt" height="316pt"
 viewBox="0.00 0.00 128.00 316.00" xmlns="http://www.w3.org/2000/svg" xmlns:xlink="http://www.w3.org/1999/xlink">
<g id="graph0" class="graph" transform="scale(1 1) rotate(0) translate(4 312)">
<title>%3</title>
<polygon fill="white" stroke="none" points="-4,4 -4,-312 124,-312 124,4 -4,4"/>
<!-- 0 -->
<g id="node1" class="node"><title>0</title>
<ellipse fill="lightblue" stroke="black" cx="82" cy="-286" rx="17.5909" ry="18"/>
<ellipse fill="none" stroke="black" cx="82" cy="-286" rx="21.5" ry="22"/>
<text text-anchor="middle" x="82" y="-282.3" font-family="Times,serif" font-size="14.00">0</text>
</g>
<!-- 1 -->
<g id="node2" class="node"><title>1</title>
<ellipse fill="green" stroke="black" cx="18" cy="-194" rx="18" ry="18"/>
<text text-anchor="middle" x="18" y="-190.3" font-family="Times,serif" font-size="14.00">1</text>
</g>
<!-- 0&#45;&gt;1 -->
<g id="edge1" class="edge"><title>0&#45;&gt;1</title>
<path fill="none" stroke="black" d="M64.7988,-272.4C56.1648,-265.39 46.0677,-256.061 39,-246 33.6989,-238.454 29.4142,-229.367 26.1314,-220.967"/>
<polygon fill="black" stroke="black" points="29.4221,-219.774 22.7371,-211.555 22.8373,-222.149 29.4221,-219.774"/>
<text text-anchor="middle" x="42.5" y="-234.3" font-family="Times,serif" font-size="14.00">c</text>
</g>
<!-- 2 -->
<g id="node3" class="node"><title>2</title>
<ellipse fill="lightblue" stroke="black" cx="75" cy="-106" rx="18" ry="18"/>
<text text-anchor="middle" x="75" y="-102.3" font-family="Times,serif" font-size="14.00">2</text>
</g>
<!-- 0&#45;&gt;2 -->
<g id="edge2" class="edge"><title>0&#45;&gt;2</title>
<path fill="none" stroke="black" d="M81.1695,-263.882C79.8994,-231.584 77.4745,-169.922 76.0728,-134.279"/>
<polygon fill="black" stroke="black" points="79.5634,-133.969 75.673,-124.114 72.5688,-134.244 79.5634,-133.969"/>
<text text-anchor="middle" x="82.5" y="-190.3" font-family="Times,serif" font-size="14.00">a</text>
</g>
<!-- 3 -->
<g id="node4" class="node"><title>3</title>
<ellipse fill="lightblue" stroke="black" cx="77" cy="-18" rx="18" ry="18"/>
<text text-anchor="middle" x="77" y="-14.3" font-family="Times,serif" font-size="14.00">3</text>
</g>
<!-- 0&#45;&gt;3 -->
<g id="edge3" class="edge"><title>0&#45;&gt;3</title>
<path fill="none" stroke="black" d="M89.1378,-264.981C91.0204,-258.952 92.8461,-252.27 94,-246 106.726,-176.849 114.159,-157.253 102,-88 99.3574,-72.9487 93.7035,-56.8553 88.44,-44"/>
<polygon fill="black" stroke="black" points="91.5144,-42.2875 84.3674,-34.4663 85.0771,-45.0373 91.5144,-42.2875"/>
<text text-anchor="middle" x="111.5" y="-146.3" font-family="Times,serif" font-size="14.00">b</text>
</g>
<!-- 1&#45;&gt;0 -->
<g id="edge4" class="edge"><title>1&#45;&gt;0</title>
<path fill="none" stroke="black" d="M29.2102,-208.396C34.4572,-214.82 40.7028,-222.691 46,-230 52.5297,-239.009 59.3076,-249.134 65.1974,-258.218"/>
<polygon fill="black" stroke="black" points="62.4045,-260.346 70.7491,-266.875 68.2969,-256.567 62.4045,-260.346"/>
<text text-anchor="middle" x="59.5" y="-234.3" font-family="Times,serif" font-size="14.00">a</text>
</g>
<!-- 1&#45;&gt;1 -->
<g id="edge5" class="edge"><title>1&#45;&gt;1</title>
<path fill="none" stroke="black" d="M34.2903,-201.668C44.3892,-203.517 54,-200.961 54,-194 54,-189.541 50.0557,-186.889 44.5656,-186.045"/>
<polygon fill="black" stroke="black" points="44.1887,-182.554 34.2903,-186.332 44.384,-189.552 44.1887,-182.554"/>
<text text-anchor="middle" x="57.5" y="-190.3" font-family="Times,serif" font-size="14.00">c</text>
</g>
<!-- 1&#45;&gt;2 -->
<g id="edge6" class="edge"><title>1&#45;&gt;2</title>
<path fill="none" stroke="black" d="M26.1857,-177.968C31.9639,-167.647 40.0613,-153.745 48,-142 51.0379,-137.506 54.4568,-132.825 57.8145,-128.403"/>
<polygon fill="black" stroke="black" points="60.7099,-130.381 64.0801,-120.336 55.1816,-126.087 60.7099,-130.381"/>
<text text-anchor="middle" x="51.5" y="-146.3" font-family="Times,serif" font-size="14.00">b</text>
</g>
<!-- 2&#45;&gt;1 -->
<g id="edge7" class="edge"><title>2&#45;&gt;1</title>
<path fill="none" stroke="black" d="M69.7172,-123.424C65.9443,-133.837 60.2568,-147.309 53,-158 48.9793,-163.924 43.8687,-169.699 38.8034,-174.794"/>
<polygon fill="black" stroke="black" points="36.3698,-172.279 31.5469,-181.712 41.1999,-177.345 36.3698,-172.279"/>
<text text-anchor="middle" x="64.5" y="-146.3" font-family="Times,serif" font-size="14.00">b</text>
</g>
<!-- 2&#45;&gt;3 -->
<g id="edge8" class="edge"><title>2&#45;&gt;3</title>
<path fill="none" stroke="black" d="M65.7917,-89.9731C60.7319,-79.893 56.0307,-66.2661 59,-54 59.9053,-50.2603 61.2833,-46.4722 62.8822,-42.8381"/>
<polygon fill="black" stroke="black" points="66.1023,-44.2246 67.4577,-33.7168 59.8454,-41.0859 66.1023,-44.2246"/>
<text text-anchor="middle" x="67" y="-58.3" font-family="Times,serif" font-size="14.00">c,a</text>
</g>
<!-- 3&#45;&gt;1 -->
<g id="edge9" class="edge"><title>3&#45;&gt;1</title>
<path fill="none" stroke="black" d="M66.6475,-33.2207C62.4049,-39.4179 57.6457,-46.8811 54,-54 35.461,-90.2009 25.9301,-136.718 21.4554,-165.698"/>
<polygon fill="black" stroke="black" points="17.9492,-165.489 19.9797,-175.888 24.8769,-166.492 17.9492,-165.489"/>
<text text-anchor="middle" x="42.5" y="-102.3" font-family="Times,serif" font-size="14.00">c</text>
</g>
<!-- 3&#45;&gt;2 -->
<g id="edge10" class="edge"><title>3&#45;&gt;2</title>
<path fill="none" stroke="black" d="M76.6027,-36.084C76.3288,-47.8607 75.9587,-63.7741 75.6432,-77.342"/>
<polygon fill="black" stroke="black" points="72.1383,-77.5179 75.4047,-87.5966 79.1364,-77.6807 72.1383,-77.5179"/>
<text text-anchor="middle" x="79.5" y="-58.3" font-family="Times,serif" font-size="14.00">a</text>
</g>
<!-- 3&#45;&gt;3 -->
<g id="edge11" class="edge"><title>3&#45;&gt;3</title>
<path fill="none" stroke="black" d="M93.2903,-25.6679C103.389,-27.5169 113,-24.9609 113,-18 113,-13.5406 109.056,-10.8891 103.566,-10.0454"/>
<polygon fill="black" stroke="black" points="103.189,-6.55441 93.2903,-10.3321 103.384,-13.5517 103.189,-6.55441"/>
<text text-anchor="middle" x="116.5" y="-14.3" font-family="Times,serif" font-size="14.00">b</text>
</g>
</g>
</svg>
