<?xml version="1.0" encoding="UTF-8" standalone="no"?>
<!DOCTYPE svg PUBLIC "-//W3C//DTD SVG 1.1//EN"
 "http://www.w3.org/Graphics/SVG/1.1/DTD/svg11.dtd">
<!-- Generated by graphviz version 2.36.0 (20140111.2315)
 -->
<!-- Title: %3 Pages: 1 -->
<svg width="158pt" height="316pt"
 viewBox="0.00 0.00 158.00 316.00" xmlns="http://www.w3.org/2000/svg" xmlns:xlink="http://www.w3.org/1999/xlink">
<g id="graph0" class="graph" transform="scale(1 1) rotate(0) translate(4 312)">
<title>%3</title>
<polygon fill="white" stroke="none" points="-4,4 -4,-312 154,-312 154,4 -4,4"/>
<!-- 0 -->
<g id="node1" class="node"><title>0</title>
<ellipse fill="lightblue" stroke="black" cx="97" cy="-290" rx="18" ry="18"/>
<text text-anchor="middle" x="97" y="-286.3" font-family="Times,serif" font-size="14.00">0</text>
</g>
<!-- 2 -->
<g id="node3" class="node"><title>2</title>
<ellipse fill="green" stroke="black" cx="18" cy="-202" rx="18" ry="18"/>
<text text-anchor="middle" x="18" y="-198.3" font-family="Times,serif" font-size="14.00">2</text>
</g>
<!-- 0&#45;&gt;2 -->
<g id="edge1" class="edge"><title>0&#45;&gt;2</title>
<path fill="none" stroke="black" d="M85.0016,-275.938C72.167,-261.967 51.6422,-239.623 36.688,-223.344"/>
<polygon fill="black" stroke="black" points="39.1951,-220.899 29.8525,-215.903 34.0399,-225.635 39.1951,-220.899"/>
<text text-anchor="middle" x="68.5" y="-242.3" font-family="Times,serif" font-size="14.00">a</text>
</g>
<!-- 3 -->
<g id="node4" class="node"><title>3</title>
<ellipse fill="lightblue" stroke="black" cx="97" cy="-110" rx="17.5909" ry="18"/>
<ellipse fill="none" stroke="black" cx="97" cy="-110" rx="21.5" ry="22"/>
<text text-anchor="middle" x="97" y="-106.3" font-family="Times,serif" font-size="14.00">3</text>
</g>
<!-- 0&#45;&gt;3 -->
<g id="edge2" class="edge"><title>0&#45;&gt;3</title>
<path fill="none" stroke="black" d="M97,-271.933C97,-242.154 97,-180.286 97,-142.529"/>
<polygon fill="black" stroke="black" points="100.5,-142.107 97,-132.107 93.5001,-142.107 100.5,-142.107"/>
<text text-anchor="middle" x="100.5" y="-198.3" font-family="Times,serif" font-size="14.00">b</text>
</g>
<!-- 1 -->
<g id="node2" class="node"><title>1</title>
<ellipse fill="lightblue" stroke="black" cx="97" cy="-18" rx="18" ry="18"/>
<text text-anchor="middle" x="97" y="-14.3" font-family="Times,serif" font-size="14.00">1</text>
</g>
<!-- 1&#45;&gt;1 -->
<g id="edge3" class="edge"><title>1&#45;&gt;1</title>
<path fill="none" stroke="black" d="M113.29,-25.6679C123.389,-27.5169 133,-24.9609 133,-18 133,-13.5406 129.056,-10.8891 123.566,-10.0454"/>
<polygon fill="black" stroke="black" points="123.189,-6.55441 113.29,-10.3321 123.384,-13.5517 123.189,-6.55441"/>
<text text-anchor="middle" x="141.5" y="-14.3" font-family="Times,serif" font-size="14.00">b,a</text>
</g>
<!-- 2&#45;&gt;2 -->
<g id="edge4" class="edge"><title>2&#45;&gt;2</title>
<path fill="none" stroke="black" d="M34.2903,-209.668C44.3892,-211.517 54,-208.961 54,-202 54,-197.541 50.0557,-194.889 44.5656,-194.045"/>
<polygon fill="black" stroke="black" points="44.1887,-190.554 34.2903,-194.332 44.384,-197.552 44.1887,-190.554"/>
<text text-anchor="middle" x="57.5" y="-198.3" font-family="Times,serif" font-size="14.00">b</text>
</g>
<!-- 2&#45;&gt;3 -->
<g id="edge5" class="edge"><title>2&#45;&gt;3</title>
<path fill="none" stroke="black" d="M29.6567,-187.72C41.8286,-173.853 61.1775,-151.81 76.0184,-134.903"/>
<polygon fill="black" stroke="black" points="78.9241,-136.898 82.8906,-127.074 73.6633,-132.28 78.9241,-136.898"/>
<text text-anchor="middle" x="66.5" y="-154.3" font-family="Times,serif" font-size="14.00">a</text>
</g>
<!-- 3&#45;&gt;0 -->
<g id="edge6" class="edge"><title>3&#45;&gt;0</title>
<path fill="none" stroke="black" d="M105.478,-130.482C107.738,-136.609 109.865,-143.48 111,-150 118.926,-195.538 119.741,-208.612 111,-254 110.369,-257.277 109.433,-260.638 108.34,-263.919"/>
<polygon fill="black" stroke="black" points="105.034,-262.767 104.733,-273.358 111.572,-265.266 105.034,-262.767"/>
<text text-anchor="middle" x="120.5" y="-198.3" font-family="Times,serif" font-size="14.00">a</text>
</g>
<!-- 3&#45;&gt;1 -->
<g id="edge7" class="edge"><title>3&#45;&gt;1</title>
<path fill="none" stroke="black" d="M97,-87.6713C97,-75.2844 97,-59.5523 97,-46.2721"/>
<polygon fill="black" stroke="black" points="100.5,-46.258 97,-36.2581 93.5001,-46.2581 100.5,-46.258"/>
<text text-anchor="middle" x="100.5" y="-58.3" font-family="Times,serif" font-size="14.00">b</text>
</g>
</g>
</svg>
