<?xml version="1.0" encoding="UTF-8" standalone="no"?>
<!DOCTYPE svg PUBLIC "-//W3C//DTD SVG 1.1//EN"
 "http://www.w3.org/Graphics/SVG/1.1/DTD/svg11.dtd">
<!-- Generated by graphviz version 2.36.0 (20140111.2315)
 -->
<!-- Title: %3 Pages: 1 -->
<svg width="227pt" height="404pt"
 viewBox="0.00 0.00 227.00 404.00" xmlns="http://www.w3.org/2000/svg" xmlns:xlink="http://www.w3.org/1999/xlink">
<g id="graph0" class="graph" transform="scale(1 1) rotate(0) translate(4 400)">
<title>%3</title>
<polygon fill="white" stroke="none" points="-4,4 -4,-400 223,-400 223,4 -4,4"/>
<!-- 0 -->
<g id="node1" class="node"><title>0</title>
<ellipse fill="lightblue" stroke="black" cx="140" cy="-378" rx="18" ry="18"/>
<text text-anchor="middle" x="140" y="-374.3" font-family="Times,serif" font-size="14.00">0</text>
</g>
<!-- 1 -->
<g id="node2" class="node"><title>1</title>
<ellipse fill="lightblue" stroke="black" cx="87" cy="-290" rx="18" ry="18"/>
<text text-anchor="middle" x="87" y="-286.3" font-family="Times,serif" font-size="14.00">1</text>
</g>
<!-- 0&#45;&gt;1 -->
<g id="edge1" class="edge"><title>0&#45;&gt;1</title>
<path fill="none" stroke="black" d="M130.768,-362.02C122.712,-348.948 110.885,-329.758 101.556,-314.619"/>
<polygon fill="black" stroke="black" points="104.352,-312.485 96.1261,-305.808 98.393,-316.158 104.352,-312.485"/>
<text text-anchor="middle" x="121.5" y="-330.3" font-family="Times,serif" font-size="14.00">c</text>
</g>
<!-- 3 -->
<g id="node4" class="node"><title>3</title>
<ellipse fill="lightblue" stroke="black" cx="84" cy="-18" rx="18" ry="18"/>
<text text-anchor="middle" x="84" y="-14.3" font-family="Times,serif" font-size="14.00">3</text>
</g>
<!-- 0&#45;&gt;3 -->
<g id="edge2" class="edge"><title>0&#45;&gt;3</title>
<path fill="none" stroke="black" d="M122.269,-374.551C84.5969,-368.245 0,-347.765 0,-291 0,-291 0,-291 0,-109 0,-73.9387 34.4917,-46.8561 59.271,-31.9235"/>
<polygon fill="black" stroke="black" points="61.2658,-34.8143 68.2002,-26.804 57.7841,-28.7416 61.2658,-34.8143"/>
<text text-anchor="middle" x="3.5" y="-198.3" font-family="Times,serif" font-size="14.00">a</text>
</g>
<!-- 4 -->
<g id="node5" class="node"><title>4</title>
<ellipse fill="lightblue" stroke="black" cx="135" cy="-110" rx="17.5909" ry="18"/>
<ellipse fill="none" stroke="black" cx="135" cy="-110" rx="21.5" ry="22"/>
<text text-anchor="middle" x="135" y="-106.3" font-family="Times,serif" font-size="14.00">4</text>
</g>
<!-- 0&#45;&gt;4 -->
<g id="edge3" class="edge"><title>0&#45;&gt;4</title>
<path fill="none" stroke="black" d="M141.964,-359.93C145.544,-326.238 152.293,-248.831 147,-184 145.854,-169.96 143.487,-154.551 141.156,-141.523"/>
<polygon fill="black" stroke="black" points="144.59,-140.846 139.318,-131.656 137.709,-142.128 144.59,-140.846"/>
<text text-anchor="middle" x="151.5" y="-242.3" font-family="Times,serif" font-size="14.00">b</text>
</g>
<!-- 1&#45;&gt;1 -->
<g id="edge4" class="edge"><title>1&#45;&gt;1</title>
<path fill="none" stroke="black" d="M103.29,-297.668C113.389,-299.517 123,-296.961 123,-290 123,-285.541 119.056,-282.889 113.566,-282.045"/>
<polygon fill="black" stroke="black" points="113.189,-278.554 103.29,-282.332 113.384,-285.552 113.189,-278.554"/>
<text text-anchor="middle" x="126.5" y="-286.3" font-family="Times,serif" font-size="14.00">a</text>
</g>
<!-- 2 -->
<g id="node3" class="node"><title>2</title>
<ellipse fill="green" stroke="black" cx="95" cy="-202" rx="18" ry="18"/>
<text text-anchor="middle" x="95" y="-198.3" font-family="Times,serif" font-size="14.00">2</text>
</g>
<!-- 1&#45;&gt;2 -->
<g id="edge5" class="edge"><title>1&#45;&gt;2</title>
<path fill="none" stroke="black" d="M88.5805,-272.009C89.6872,-260.112 91.1897,-243.961 92.4628,-230.275"/>
<polygon fill="black" stroke="black" points="95.9814,-230.237 93.4227,-219.956 89.0115,-229.588 95.9814,-230.237"/>
<text text-anchor="middle" x="94.5" y="-242.3" font-family="Times,serif" font-size="14.00">c</text>
</g>
<!-- 1&#45;&gt;3 -->
<g id="edge6" class="edge"><title>1&#45;&gt;3</title>
<path fill="none" stroke="black" d="M81.1619,-272.813C76.5145,-258.994 70.4047,-238.482 68,-220 59.9081,-157.808 70.9783,-84.2219 78.3533,-45.6484"/>
<polygon fill="black" stroke="black" points="81.8069,-46.2252 80.3164,-35.7358 74.9403,-44.8653 81.8069,-46.2252"/>
<text text-anchor="middle" x="68.5" y="-154.3" font-family="Times,serif" font-size="14.00">b</text>
</g>
<!-- 2&#45;&gt;1 -->
<g id="edge7" class="edge"><title>2&#45;&gt;1</title>
<path fill="none" stroke="black" d="M88.3664,-218.742C86.201,-224.668 84.0772,-231.537 83,-238 81.7151,-245.709 81.7863,-254.145 82.433,-261.896"/>
<polygon fill="black" stroke="black" points="78.9658,-262.382 83.5983,-271.91 85.9188,-261.573 78.9658,-262.382"/>
<text text-anchor="middle" x="86.5" y="-242.3" font-family="Times,serif" font-size="14.00">a</text>
</g>
<!-- 2&#45;&gt;2 -->
<g id="edge8" class="edge"><title>2&#45;&gt;2</title>
<path fill="none" stroke="black" d="M111.29,-209.668C121.389,-211.517 131,-208.961 131,-202 131,-197.541 127.056,-194.889 121.566,-194.045"/>
<polygon fill="black" stroke="black" points="121.189,-190.554 111.29,-194.332 121.384,-197.552 121.189,-190.554"/>
<text text-anchor="middle" x="134.5" y="-198.3" font-family="Times,serif" font-size="14.00">b</text>
</g>
<!-- 2&#45;&gt;4 -->
<g id="edge9" class="edge"><title>2&#45;&gt;4</title>
<path fill="none" stroke="black" d="M106.958,-188.257C112.269,-181.977 118.171,-174.037 122,-166 125.561,-158.526 128.186,-150.004 130.107,-141.937"/>
<polygon fill="black" stroke="black" points="133.548,-142.581 132.179,-132.075 126.697,-141.141 133.548,-142.581"/>
<text text-anchor="middle" x="130.5" y="-154.3" font-family="Times,serif" font-size="14.00">c</text>
</g>
<!-- 3&#45;&gt;0 -->
<g id="edge10" class="edge"><title>3&#45;&gt;0</title>
<path fill="none" stroke="black" d="M101.529,-22.6746C136.585,-31.1606 212,-55.6197 212,-109 212,-291 212,-291 212,-291 212,-321.669 184.747,-347.153 163.775,-362.223"/>
<polygon fill="black" stroke="black" points="161.555,-359.501 155.269,-368.029 165.502,-365.282 161.555,-359.501"/>
<text text-anchor="middle" x="215.5" y="-198.3" font-family="Times,serif" font-size="14.00">a</text>
</g>
<!-- 3&#45;&gt;2 -->
<g id="edge11" class="edge"><title>3&#45;&gt;2</title>
<path fill="none" stroke="black" d="M85.0401,-36.2092C86.9523,-67.8466 91.0403,-135.486 93.3402,-173.537"/>
<polygon fill="black" stroke="black" points="89.8681,-174.107 93.9651,-183.878 96.8554,-173.685 89.8681,-174.107"/>
<text text-anchor="middle" x="93.5" y="-106.3" font-family="Times,serif" font-size="14.00">c</text>
</g>
<!-- 3&#45;&gt;3 -->
<g id="edge12" class="edge"><title>3&#45;&gt;3</title>
<path fill="none" stroke="black" d="M100.29,-25.6679C110.389,-27.5169 120,-24.9609 120,-18 120,-13.5406 116.056,-10.8891 110.566,-10.0454"/>
<polygon fill="black" stroke="black" points="110.189,-6.55441 100.29,-10.3321 110.384,-13.5517 110.189,-6.55441"/>
<text text-anchor="middle" x="123.5" y="-14.3" font-family="Times,serif" font-size="14.00">b</text>
</g>
<!-- 4&#45;&gt;2 -->
<g id="edge13" class="edge"><title>4&#45;&gt;2</title>
<path fill="none" stroke="black" d="M125.931,-130.397C123.043,-136.64 119.857,-143.599 117,-150 113.311,-158.263 109.371,-167.322 105.859,-175.482"/>
<polygon fill="black" stroke="black" points="102.555,-174.306 101.833,-184.876 108.989,-177.063 102.555,-174.306"/>
<text text-anchor="middle" x="120.5" y="-154.3" font-family="Times,serif" font-size="14.00">c</text>
</g>
<!-- 4&#45;&gt;3 -->
<g id="edge14" class="edge"><title>4&#45;&gt;3</title>
<path fill="none" stroke="black" d="M124.433,-90.3519C116.678,-76.6676 106.079,-57.9633 97.6784,-43.1383"/>
<polygon fill="black" stroke="black" points="100.503,-41.0228 92.5273,-34.0481 94.4124,-44.4739 100.503,-41.0228"/>
<text text-anchor="middle" x="115.5" y="-58.3" font-family="Times,serif" font-size="14.00">b</text>
</g>
<!-- 4&#45;&gt;4 -->
<g id="edge15" class="edge"><title>4&#45;&gt;4</title>
<path fill="none" stroke="black" d="M155.066,-118.734C165.074,-119.943 174,-117.031 174,-110 174,-105.496 170.337,-102.682 165.072,-101.559"/>
<polygon fill="black" stroke="black" points="165.165,-98.0605 155.066,-101.266 164.959,-105.057 165.165,-98.0605"/>
<text text-anchor="middle" x="177.5" y="-106.3" font-family="Times,serif" font-size="14.00">a</text>
</g>
</g>
</svg>
