<?xml version="1.0" encoding="UTF-8" standalone="no"?>
<!DOCTYPE svg PUBLIC "-//W3C//DTD SVG 1.1//EN"
 "http://www.w3.org/Graphics/SVG/1.1/DTD/svg11.dtd">
<!-- Generated by graphviz version 2.36.0 (20140111.2315)
 -->
<!-- Title: %3 Pages: 1 -->
<svg width="119pt" height="316pt"
 viewBox="0.00 0.00 119.00 316.00" xmlns="http://www.w3.org/2000/svg" xmlns:xlink="http://www.w3.org/1999/xlink">
<g id="graph0" class="graph" transform="scale(1 1) rotate(0) translate(4 312)">
<title>%3</title>
<polygon fill="white" stroke="none" points="-4,4 -4,-312 115,-312 115,4 -4,4"/>
<!-- 0 -->
<g id="node1" class="node"><title>0</title>
<ellipse fill="green" stroke="black" cx="22" cy="-22" rx="17.5909" ry="18"/>
<ellipse fill="none" stroke="black" cx="22" cy="-22" rx="21.5" ry="22"/>
<text text-anchor="middle" x="22" y="-18.3" font-family="Times,serif" font-size="14.00">0</text>
</g>
<!-- 0&#45;&gt;0 -->
<g id="edge1" class="edge"><title>0&#45;&gt;0</title>
<path fill="none" stroke="black" d="M42.0663,-30.7341C52.0736,-31.9426 61,-29.0312 61,-22 61,-17.4956 57.3366,-14.682 52.0725,-13.5592"/>
<polygon fill="black" stroke="black" points="52.1646,-10.0605 42.0663,-13.2659 51.9594,-17.0575 52.1646,-10.0605"/>
<text text-anchor="middle" x="69.5" y="-18.3" font-family="Times,serif" font-size="14.00">b,a</text>
</g>
<!-- 1 -->
<g id="node2" class="node"><title>1</title>
<ellipse fill="lightblue" stroke="black" cx="49" cy="-290" rx="18" ry="18"/>
<text text-anchor="middle" x="49" y="-286.3" font-family="Times,serif" font-size="14.00">1</text>
</g>
<!-- 1&#45;&gt;0 -->
<g id="edge2" class="edge"><title>1&#45;&gt;0</title>
<path fill="none" stroke="black" d="M41.0474,-273.602C34.4642,-259.936 25.6254,-239.214 22,-220 11.1026,-162.246 14.8353,-93.2611 18.4671,-54.1467"/>
<polygon fill="black" stroke="black" points="21.9752,-54.2367 19.4765,-43.9407 15.0091,-53.5476 21.9752,-54.2367"/>
<text text-anchor="middle" x="19.5" y="-154.3" font-family="Times,serif" font-size="14.00">b</text>
</g>
<!-- 2 -->
<g id="node3" class="node"><title>2</title>
<ellipse fill="lightblue" stroke="black" cx="49" cy="-202" rx="18" ry="18"/>
<text text-anchor="middle" x="49" y="-198.3" font-family="Times,serif" font-size="14.00">2</text>
</g>
<!-- 1&#45;&gt;2 -->
<g id="edge3" class="edge"><title>1&#45;&gt;2</title>
<path fill="none" stroke="black" d="M49,-271.597C49,-259.746 49,-243.817 49,-230.292"/>
<polygon fill="black" stroke="black" points="52.5001,-230.084 49,-220.084 45.5001,-230.084 52.5001,-230.084"/>
<text text-anchor="middle" x="52.5" y="-242.3" font-family="Times,serif" font-size="14.00">a</text>
</g>
<!-- 2&#45;&gt;2 -->
<g id="edge4" class="edge"><title>2&#45;&gt;2</title>
<path fill="none" stroke="black" d="M65.2903,-209.668C75.3892,-211.517 85,-208.961 85,-202 85,-197.541 81.0557,-194.889 75.5656,-194.045"/>
<polygon fill="black" stroke="black" points="75.1887,-190.554 65.2903,-194.332 75.384,-197.552 75.1887,-190.554"/>
<text text-anchor="middle" x="88.5" y="-198.3" font-family="Times,serif" font-size="14.00">a</text>
</g>
<!-- 3 -->
<g id="node4" class="node"><title>3</title>
<ellipse fill="lightblue" stroke="black" cx="49" cy="-114" rx="18" ry="18"/>
<text text-anchor="middle" x="49" y="-110.3" font-family="Times,serif" font-size="14.00">3</text>
</g>
<!-- 2&#45;&gt;3 -->
<g id="edge5" class="edge"><title>2&#45;&gt;3</title>
<path fill="none" stroke="black" d="M49,-183.597C49,-171.746 49,-155.817 49,-142.292"/>
<polygon fill="black" stroke="black" points="52.5001,-142.084 49,-132.084 45.5001,-142.084 52.5001,-142.084"/>
<text text-anchor="middle" x="52.5" y="-154.3" font-family="Times,serif" font-size="14.00">b</text>
</g>
<!-- 3&#45;&gt;0 -->
<g id="edge6" class="edge"><title>3&#45;&gt;0</title>
<path fill="none" stroke="black" d="M44.0478,-96.4926C40.3864,-84.2881 35.3,-67.3335 30.9352,-52.7842"/>
<polygon fill="black" stroke="black" points="34.2811,-51.7563 28.0551,-43.1837 27.5763,-53.7678 34.2811,-51.7563"/>
<text text-anchor="middle" x="41.5" y="-66.3" font-family="Times,serif" font-size="14.00">a</text>
</g>
<!-- 3&#45;&gt;1 -->
<g id="edge7" class="edge"><title>3&#45;&gt;1</title>
<path fill="none" stroke="black" d="M61.7653,-126.756C74.5137,-139.446 93.289,-160.956 101,-184 106.077,-199.173 106.077,-204.827 101,-220 94.6143,-239.083 80.6409,-257.115 68.786,-269.956"/>
<polygon fill="black" stroke="black" points="66.1826,-267.614 61.7653,-277.244 71.2239,-272.47 66.1826,-267.614"/>
<text text-anchor="middle" x="107.5" y="-198.3" font-family="Times,serif" font-size="14.00">b</text>
</g>
</g>
</svg>
