<?xml version="1.0" encoding="UTF-8" standalone="no"?>
<!DOCTYPE svg PUBLIC "-//W3C//DTD SVG 1.1//EN"
 "http://www.w3.org/Graphics/SVG/1.1/DTD/svg11.dtd">
<!-- Generated by graphviz version 2.36.0 (20140111.2315)
 -->
<!-- Title: %3 Pages: 1 -->
<svg width="149pt" height="316pt"
 viewBox="0.00 0.00 149.45 316.00" xmlns="http://www.w3.org/2000/svg" xmlns:xlink="http://www.w3.org/1999/xlink">
<g id="graph0" class="graph" transform="scale(1 1) rotate(0) translate(4 312)">
<title>%3</title>
<polygon fill="white" stroke="none" points="-4,4 -4,-312 145.448,-312 145.448,4 -4,4"/>
<!-- 0 -->
<g id="node1" class="node"><title>0</title>
<ellipse fill="green" stroke="black" cx="94.4483" cy="-286" rx="17.5909" ry="18"/>
<ellipse fill="none" stroke="black" cx="94.4483" cy="-286" rx="21.5" ry="22"/>
<text text-anchor="middle" x="94.4483" y="-282.3" font-family="Times,serif" font-size="14.00">0</text>
</g>
<!-- 0&#45;&gt;0 -->
<g id="edge1" class="edge"><title>0&#45;&gt;0</title>
<path fill="none" stroke="black" d="M114.515,-294.734C124.522,-295.943 133.448,-293.031 133.448,-286 133.448,-281.496 129.785,-278.682 124.521,-277.559"/>
<polygon fill="black" stroke="black" points="124.613,-274.061 114.515,-277.266 124.408,-281.057 124.613,-274.061"/>
<text text-anchor="middle" x="136.948" y="-282.3" font-family="Times,serif" font-size="14.00">a</text>
</g>
<!-- 2 -->
<g id="node3" class="node"><title>2</title>
<ellipse fill="lightblue" stroke="black" cx="39.4483" cy="-194" rx="18" ry="18"/>
<text text-anchor="middle" x="39.4483" y="-190.3" font-family="Times,serif" font-size="14.00">2</text>
</g>
<!-- 0&#45;&gt;2 -->
<g id="edge2" class="edge"><title>0&#45;&gt;2</title>
<path fill="none" stroke="black" d="M83.3183,-266.787C74.8442,-252.921 63.1096,-233.718 53.9089,-218.663"/>
<polygon fill="black" stroke="black" points="56.7604,-216.617 48.5594,-209.909 50.7874,-220.267 56.7604,-216.617"/>
<text text-anchor="middle" x="72.9483" y="-234.3" font-family="Times,serif" font-size="14.00">b</text>
</g>
<!-- 3 -->
<g id="node4" class="node"><title>3</title>
<ellipse fill="lightblue" stroke="black" cx="102.448" cy="-18" rx="18" ry="18"/>
<text text-anchor="middle" x="102.448" y="-14.3" font-family="Times,serif" font-size="14.00">3</text>
</g>
<!-- 0&#45;&gt;3 -->
<g id="edge3" class="edge"><title>0&#45;&gt;3</title>
<path fill="none" stroke="black" d="M96.9749,-263.953C98.5984,-249.39 100.563,-229.548 101.448,-212 104.428,-152.911 103.773,-83.5178 103.08,-46.1447"/>
<polygon fill="black" stroke="black" points="106.577,-45.9814 102.877,-36.0539 99.5788,-46.1223 106.577,-45.9814"/>
<text text-anchor="middle" x="106.948" y="-146.3" font-family="Times,serif" font-size="14.00">c</text>
</g>
<!-- 1 -->
<g id="node2" class="node"><title>1</title>
<ellipse fill="lightblue" stroke="black" cx="30.4483" cy="-106" rx="18" ry="18"/>
<text text-anchor="middle" x="30.4483" y="-102.3" font-family="Times,serif" font-size="14.00">1</text>
</g>
<!-- 1&#45;&gt;0 -->
<g id="edge4" class="edge"><title>1&#45;&gt;0</title>
<path fill="none" stroke="black" d="M21.1303,-121.554C9.04139,-142.425 -8.89699,-181.68 5.44832,-212 17.956,-238.436 45.2478,-258.503 66.3335,-270.844"/>
<polygon fill="black" stroke="black" points="64.7821,-273.986 75.2187,-275.811 68.1976,-267.876 64.7821,-273.986"/>
<text text-anchor="middle" x="8.94832" y="-190.3" font-family="Times,serif" font-size="14.00">b</text>
</g>
<!-- 1&#45;&gt;2 -->
<g id="edge5" class="edge"><title>1&#45;&gt;2</title>
<path fill="none" stroke="black" d="M30.4444,-124.053C30.6097,-133.987 31.1097,-146.737 32.4483,-158 32.7731,-160.733 33.1958,-163.57 33.6727,-166.394"/>
<polygon fill="black" stroke="black" points="30.2589,-167.178 35.5594,-176.352 37.1365,-165.875 30.2589,-167.178"/>
<text text-anchor="middle" x="35.9483" y="-146.3" font-family="Times,serif" font-size="14.00">a</text>
</g>
<!-- 1&#45;&gt;3 -->
<g id="edge6" class="edge"><title>1&#45;&gt;3</title>
<path fill="none" stroke="black" d="M39.1023,-90.0511C45.5076,-79.5158 54.7686,-65.3248 64.4483,-54 69.4965,-48.0939 75.4793,-42.1773 81.1861,-36.9335"/>
<polygon fill="black" stroke="black" points="83.5382,-39.5257 88.6836,-30.2642 78.8856,-34.2956 83.5382,-39.5257"/>
<text text-anchor="middle" x="67.9483" y="-58.3" font-family="Times,serif" font-size="14.00">c</text>
</g>
<!-- 2&#45;&gt;1 -->
<g id="edge7" class="edge"><title>2&#45;&gt;1</title>
<path fill="none" stroke="black" d="M39.4523,-175.947C39.2869,-166.013 38.7869,-153.263 37.4483,-142 37.1236,-139.267 36.7008,-136.43 36.2239,-133.606"/>
<polygon fill="black" stroke="black" points="39.6378,-132.822 34.3372,-123.648 32.7602,-134.125 39.6378,-132.822"/>
<text text-anchor="middle" x="41.9483" y="-146.3" font-family="Times,serif" font-size="14.00">c</text>
</g>
<!-- 2&#45;&gt;2 -->
<g id="edge8" class="edge"><title>2&#45;&gt;2</title>
<path fill="none" stroke="black" d="M55.7386,-201.668C65.8375,-203.517 75.4483,-200.961 75.4483,-194 75.4483,-189.541 71.504,-186.889 66.0139,-186.045"/>
<polygon fill="black" stroke="black" points="65.637,-182.554 55.7386,-186.332 65.8324,-189.552 65.637,-182.554"/>
<text text-anchor="middle" x="83.9483" y="-190.3" font-family="Times,serif" font-size="14.00">b,a</text>
</g>
<!-- 3&#45;&gt;0 -->
<g id="edge9" class="edge"><title>3&#45;&gt;0</title>
<path fill="none" stroke="black" d="M110.077,-34.6634C112.591,-40.5805 115.09,-47.4644 116.448,-54 119.525,-68.8012 117.226,-72.884 117.448,-88 118.481,-158.237 131.238,-178.045 113.448,-246 112.476,-249.716 111.136,-253.499 109.615,-257.175"/>
<polygon fill="black" stroke="black" points="106.307,-255.991 105.291,-266.537 112.662,-258.926 106.307,-255.991"/>
<text text-anchor="middle" x="129.948" y="-146.3" font-family="Times,serif" font-size="14.00">b,c</text>
</g>
<!-- 3&#45;&gt;2 -->
<g id="edge10" class="edge"><title>3&#45;&gt;2</title>
<path fill="none" stroke="black" d="M96.5568,-35.2718C85.5542,-65.6601 61.8108,-131.237 48.6686,-167.535"/>
<polygon fill="black" stroke="black" points="45.3758,-166.348 45.2623,-176.942 51.9577,-168.731 45.3758,-166.348"/>
<text text-anchor="middle" x="79.9483" y="-102.3" font-family="Times,serif" font-size="14.00">a</text>
</g>
</g>
</svg>
