<?xml version="1.0" encoding="UTF-8" standalone="no"?>
<!DOCTYPE svg PUBLIC "-//W3C//DTD SVG 1.1//EN"
 "http://www.w3.org/Graphics/SVG/1.1/DTD/svg11.dtd">
<!-- Generated by graphviz version 2.36.0 (20140111.2315)
 -->
<!-- Title: %3 Pages: 1 -->
<svg width="131pt" height="228pt"
 viewBox="0.00 0.00 131.00 228.00" xmlns="http://www.w3.org/2000/svg" xmlns:xlink="http://www.w3.org/1999/xlink">
<g id="graph0" class="graph" transform="scale(1 1) rotate(0) translate(4 224)">
<title>%3</title>
<polygon fill="white" stroke="none" points="-4,4 -4,-224 127,-224 127,4 -4,4"/>
<!-- 0 -->
<g id="node1" class="node"><title>0</title>
<ellipse fill="lightblue" stroke="black" cx="71" cy="-202" rx="18" ry="18"/>
<text text-anchor="middle" x="71" y="-198.3" font-family="Times,serif" font-size="14.00">0</text>
</g>
<!-- 1 -->
<g id="node2" class="node"><title>1</title>
<ellipse fill="lightblue" stroke="black" cx="18" cy="-110" rx="18" ry="18"/>
<text text-anchor="middle" x="18" y="-106.3" font-family="Times,serif" font-size="14.00">1</text>
</g>
<!-- 0&#45;&gt;1 -->
<g id="edge1" class="edge"><title>0&#45;&gt;1</title>
<path fill="none" stroke="black" d="M62.2481,-186.138C54.0392,-172.199 41.625,-151.118 32.0332,-134.83"/>
<polygon fill="black" stroke="black" points="34.8552,-132.725 26.7649,-125.884 28.8234,-136.277 34.8552,-132.725"/>
<text text-anchor="middle" x="52.5" y="-154.3" font-family="Times,serif" font-size="14.00">b</text>
</g>
<!-- 3 -->
<g id="node4" class="node"><title>3</title>
<ellipse fill="lightblue" stroke="black" cx="101" cy="-110" rx="17.5909" ry="18"/>
<ellipse fill="none" stroke="black" cx="101" cy="-110" rx="21.5" ry="22"/>
<text text-anchor="middle" x="101" y="-106.3" font-family="Times,serif" font-size="14.00">3</text>
</g>
<!-- 0&#45;&gt;3 -->
<g id="edge2" class="edge"><title>0&#45;&gt;3</title>
<path fill="none" stroke="black" d="M69.7325,-184.019C69.5254,-173.881 70.2402,-160.9 74,-150 75.7345,-144.971 78.3127,-139.997 81.1983,-135.371"/>
<polygon fill="black" stroke="black" points="84.1899,-137.198 86.9855,-126.978 78.4272,-133.224 84.1899,-137.198"/>
<text text-anchor="middle" x="77.5" y="-154.3" font-family="Times,serif" font-size="14.00">a</text>
</g>
<!-- 1&#45;&gt;1 -->
<g id="edge3" class="edge"><title>1&#45;&gt;1</title>
<path fill="none" stroke="black" d="M34.2903,-118.365C44.3892,-120.382 54,-117.594 54,-110 54,-105.135 50.0557,-102.243 44.5656,-101.322"/>
<polygon fill="black" stroke="black" points="44.1791,-97.8323 34.2903,-101.635 44.3922,-104.829 44.1791,-97.8323"/>
<text text-anchor="middle" x="57.5" y="-106.3" font-family="Times,serif" font-size="14.00">a</text>
</g>
<!-- 2 -->
<g id="node3" class="node"><title>2</title>
<ellipse fill="green" stroke="black" cx="48" cy="-18" rx="18" ry="18"/>
<text text-anchor="middle" x="48" y="-14.3" font-family="Times,serif" font-size="14.00">2</text>
</g>
<!-- 1&#45;&gt;2 -->
<g id="edge4" class="edge"><title>1&#45;&gt;2</title>
<path fill="none" stroke="black" d="M16.3535,-91.6161C15.9238,-80.5179 16.5365,-66.0117 21,-54 22.9222,-48.8273 25.8947,-43.7991 29.1759,-39.2423"/>
<polygon fill="black" stroke="black" points="32.1431,-41.1368 35.671,-31.1466 26.6832,-36.7563 32.1431,-41.1368"/>
<text text-anchor="middle" x="24.5" y="-58.3" font-family="Times,serif" font-size="14.00">b</text>
</g>
<!-- 2&#45;&gt;1 -->
<g id="edge5" class="edge"><title>2&#45;&gt;1</title>
<path fill="none" stroke="black" d="M42.5324,-35.4027C38.1442,-48.5674 31.8975,-67.3075 26.8059,-82.5824"/>
<polygon fill="black" stroke="black" points="23.3444,-81.899 23.5025,-92.4926 29.9852,-84.1126 23.3444,-81.899"/>
<text text-anchor="middle" x="39.5" y="-58.3" font-family="Times,serif" font-size="14.00">a</text>
</g>
<!-- 2&#45;&gt;2 -->
<g id="edge6" class="edge"><title>2&#45;&gt;2</title>
<path fill="none" stroke="black" d="M64.2903,-25.6679C74.3892,-27.5169 84,-24.9609 84,-18 84,-13.5406 80.0557,-10.8891 74.5656,-10.0454"/>
<polygon fill="black" stroke="black" points="74.1887,-6.55441 64.2903,-10.3321 74.384,-13.5517 74.1887,-6.55441"/>
<text text-anchor="middle" x="87.5" y="-14.3" font-family="Times,serif" font-size="14.00">b</text>
</g>
<!-- 3&#45;&gt;0 -->
<g id="edge7" class="edge"><title>3&#45;&gt;0</title>
<path fill="none" stroke="black" d="M94.2721,-131.184C89.9612,-144.116 84.3241,-161.028 79.6776,-174.967"/>
<polygon fill="black" stroke="black" points="76.3444,-173.899 76.5025,-184.493 82.9852,-176.113 76.3444,-173.899"/>
<text text-anchor="middle" x="90.5" y="-154.3" font-family="Times,serif" font-size="14.00">b</text>
</g>
<!-- 3&#45;&gt;2 -->
<g id="edge8" class="edge"><title>3&#45;&gt;2</title>
<path fill="none" stroke="black" d="M90.2747,-90.7872C82.1088,-76.9205 70.8008,-57.7184 61.9347,-42.6627"/>
<polygon fill="black" stroke="black" points="64.8701,-40.7498 56.7797,-33.909 58.8383,-44.3019 64.8701,-40.7498"/>
<text text-anchor="middle" x="80.5" y="-58.3" font-family="Times,serif" font-size="14.00">a</text>
</g>
</g>
</svg>
