<?xml version="1.0" encoding="UTF-8" standalone="no"?>
<!DOCTYPE svg PUBLIC "-//W3C//DTD SVG 1.1//EN"
 "http://www.w3.org/Graphics/SVG/1.1/DTD/svg11.dtd">
<!-- Generated by graphviz version 2.36.0 (20140111.2315)
 -->
<!-- Title: %3 Pages: 1 -->
<svg width="101pt" height="316pt"
 viewBox="0.00 0.00 101.00 316.00" xmlns="http://www.w3.org/2000/svg" xmlns:xlink="http://www.w3.org/1999/xlink">
<g id="graph0" class="graph" transform="scale(1 1) rotate(0) translate(4 312)">
<title>%3</title>
<polygon fill="white" stroke="none" points="-4,4 -4,-312 97,-312 97,4 -4,4"/>
<!-- 0 -->
<g id="node1" class="node"><title>0</title>
<ellipse fill="green" stroke="black" cx="45" cy="-286" rx="17.5909" ry="18"/>
<ellipse fill="none" stroke="black" cx="45" cy="-286" rx="21.5" ry="22"/>
<text text-anchor="middle" x="45" y="-282.3" font-family="Times,serif" font-size="14.00">0</text>
</g>
<!-- 3 -->
<g id="node4" class="node"><title>3</title>
<ellipse fill="lightblue" stroke="black" cx="18" cy="-194" rx="18" ry="18"/>
<text text-anchor="middle" x="18" y="-190.3" font-family="Times,serif" font-size="14.00">3</text>
</g>
<!-- 0&#45;&gt;3 -->
<g id="edge1" class="edge"><title>0&#45;&gt;3</title>
<path fill="none" stroke="black" d="M26.9497,-273.607C17.9401,-266.814 7.93197,-257.31 3,-246 -0.752479,-237.395 0.845226,-227.576 4.13388,-218.867"/>
<polygon fill="black" stroke="black" points="7.38311,-220.178 8.37031,-209.629 1.02029,-217.26 7.38311,-220.178"/>
<text text-anchor="middle" x="6.5" y="-234.3" font-family="Times,serif" font-size="14.00">b</text>
</g>
<!-- 4 -->
<g id="node5" class="node"><title>4</title>
<ellipse fill="lightblue" stroke="black" cx="75" cy="-194" rx="18" ry="18"/>
<text text-anchor="middle" x="75" y="-190.3" font-family="Times,serif" font-size="14.00">4</text>
</g>
<!-- 0&#45;&gt;4 -->
<g id="edge2" class="edge"><title>0&#45;&gt;4</title>
<path fill="none" stroke="black" d="M51.5155,-264.863C54.9054,-254.445 59.1379,-241.527 63,-230 63.9885,-227.05 65.0325,-223.963 66.0756,-220.897"/>
<polygon fill="black" stroke="black" points="69.4111,-221.96 69.336,-211.365 62.7878,-219.694 69.4111,-221.96"/>
<text text-anchor="middle" x="66.5" y="-234.3" font-family="Times,serif" font-size="14.00">a</text>
</g>
<!-- 1 -->
<g id="node2" class="node"><title>1</title>
<ellipse fill="lightblue" stroke="black" cx="45" cy="-18" rx="18" ry="18"/>
<text text-anchor="middle" x="45" y="-14.3" font-family="Times,serif" font-size="14.00">1</text>
</g>
<!-- 2 -->
<g id="node3" class="node"><title>2</title>
<ellipse fill="lightblue" stroke="black" cx="45" cy="-106" rx="18" ry="18"/>
<text text-anchor="middle" x="45" y="-102.3" font-family="Times,serif" font-size="14.00">2</text>
</g>
<!-- 1&#45;&gt;2 -->
<g id="edge3" class="edge"><title>1&#45;&gt;2</title>
<path fill="none" stroke="black" d="M45,-36.084C45,-47.8607 45,-63.7741 45,-77.342"/>
<polygon fill="black" stroke="black" points="41.5001,-77.5966 45,-87.5966 48.5001,-77.5967 41.5001,-77.5966"/>
<text text-anchor="middle" x="53.5" y="-58.3" font-family="Times,serif" font-size="14.00">b,a</text>
</g>
<!-- 2&#45;&gt;1 -->
<g id="edge4" class="edge"><title>2&#45;&gt;1</title>
<path fill="none" stroke="black" d="M38.8003,-88.8629C36.8558,-83.0135 34.966,-76.2957 34,-70 32.9215,-62.9712 32.9215,-61.0288 34,-54 34.4528,-51.0489 35.1086,-48.005 35.8779,-45.0013"/>
<polygon fill="black" stroke="black" points="39.3155,-45.7194 38.8003,-35.1371 32.6038,-43.7309 39.3155,-45.7194"/>
<text text-anchor="middle" x="37.5" y="-58.3" font-family="Times,serif" font-size="14.00">a</text>
</g>
<!-- 2&#45;&gt;3 -->
<g id="edge5" class="edge"><title>2&#45;&gt;3</title>
<path fill="none" stroke="black" d="M39.8101,-123.531C35.9669,-135.772 30.6531,-152.698 26.2328,-166.777"/>
<polygon fill="black" stroke="black" points="22.862,-165.829 23.2059,-176.418 29.5406,-167.926 22.862,-165.829"/>
<text text-anchor="middle" x="36.5" y="-146.3" font-family="Times,serif" font-size="14.00">b</text>
</g>
<!-- 3&#45;&gt;0 -->
<g id="edge6" class="edge"><title>3&#45;&gt;0</title>
<path fill="none" stroke="black" d="M22.8119,-211.553C25.7289,-221.539 29.543,-234.511 33,-246 33.8898,-248.957 34.8246,-252.038 35.7631,-255.115"/>
<polygon fill="black" stroke="black" points="32.4465,-256.238 38.7239,-264.773 39.139,-254.186 32.4465,-256.238"/>
<text text-anchor="middle" x="36.5" y="-234.3" font-family="Times,serif" font-size="14.00">a</text>
</g>
<!-- 3&#45;&gt;2 -->
<g id="edge7" class="edge"><title>3&#45;&gt;2</title>
<path fill="none" stroke="black" d="M15.3009,-176.015C14.3441,-165.876 14.2861,-152.895 18,-142 19.7805,-136.777 22.691,-131.727 25.9562,-127.164"/>
<polygon fill="black" stroke="black" points="28.924,-129.059 32.4684,-119.074 23.4713,-124.669 28.924,-129.059"/>
<text text-anchor="middle" x="21.5" y="-146.3" font-family="Times,serif" font-size="14.00">b</text>
</g>
<!-- 4&#45;&gt;0 -->
<g id="edge8" class="edge"><title>4&#45;&gt;0</title>
<path fill="none" stroke="black" d="M74.3177,-212.396C73.5069,-222.445 71.7569,-235.195 68,-246 66.5076,-250.292 64.5162,-254.635 62.3274,-258.786"/>
<polygon fill="black" stroke="black" points="59.2827,-257.06 57.3374,-267.475 65.3528,-260.546 59.2827,-257.06"/>
<text text-anchor="middle" x="74.5" y="-234.3" font-family="Times,serif" font-size="14.00">a</text>
</g>
<!-- 4&#45;&gt;2 -->
<g id="edge9" class="edge"><title>4&#45;&gt;2</title>
<path fill="none" stroke="black" d="M69.3572,-176.824C65.0413,-164.452 59.0045,-147.146 54.0207,-132.859"/>
<polygon fill="black" stroke="black" points="57.216,-131.393 50.6175,-123.103 50.6066,-133.698 57.216,-131.393"/>
<text text-anchor="middle" x="65.5" y="-146.3" font-family="Times,serif" font-size="14.00">b</text>
</g>
</g>
</svg>
