<?xml version="1.0" encoding="UTF-8" standalone="no"?>
<!DOCTYPE svg PUBLIC "-//W3C//DTD SVG 1.1//EN"
 "http://www.w3.org/Graphics/SVG/1.1/DTD/svg11.dtd">
<!-- Generated by graphviz version 2.36.0 (20140111.2315)
 -->
<!-- Title: %3 Pages: 1 -->
<svg width="172pt" height="316pt"
 viewBox="0.00 0.00 172.00 316.00" xmlns="http://www.w3.org/2000/svg" xmlns:xlink="http://www.w3.org/1999/xlink">
<g id="graph0" class="graph" transform="scale(1 1) rotate(0) translate(4 312)">
<title>%3</title>
<polygon fill="white" stroke="none" points="-4,4 -4,-312 168,-312 168,4 -4,4"/>
<!-- 0 -->
<g id="node1" class="node"><title>0</title>
<ellipse fill="lightblue" stroke="black" cx="45" cy="-290" rx="18" ry="18"/>
<text text-anchor="middle" x="45" y="-286.3" font-family="Times,serif" font-size="14.00">0</text>
</g>
<!-- 0&#45;&gt;0 -->
<g id="edge1" class="edge"><title>0&#45;&gt;0</title>
<path fill="none" stroke="black" d="M61.2903,-297.668C71.3892,-299.517 81,-296.961 81,-290 81,-285.541 77.0557,-282.889 71.5656,-282.045"/>
<polygon fill="black" stroke="black" points="71.1887,-278.554 61.2903,-282.332 71.384,-285.552 71.1887,-278.554"/>
<text text-anchor="middle" x="84.5" y="-286.3" font-family="Times,serif" font-size="14.00">b</text>
</g>
<!-- 4 -->
<g id="node5" class="node"><title>4</title>
<ellipse fill="green" stroke="black" cx="18" cy="-202" rx="18" ry="18"/>
<text text-anchor="middle" x="18" y="-198.3" font-family="Times,serif" font-size="14.00">4</text>
</g>
<!-- 0&#45;&gt;4 -->
<g id="edge2" class="edge"><title>0&#45;&gt;4</title>
<path fill="none" stroke="black" d="M32.4684,-276.926C26.8867,-270.677 20.9219,-262.571 18,-254 15.4467,-246.51 14.6762,-238.033 14.7549,-230.172"/>
<polygon fill="black" stroke="black" points="18.2606,-230.158 15.3009,-219.985 11.2706,-229.783 18.2606,-230.158"/>
<text text-anchor="middle" x="21.5" y="-242.3" font-family="Times,serif" font-size="14.00">a</text>
</g>
<!-- 1 -->
<g id="node2" class="node"><title>1</title>
<ellipse fill="lightblue" stroke="black" cx="117" cy="-110" rx="17.5909" ry="18"/>
<ellipse fill="none" stroke="black" cx="117" cy="-110" rx="21.5" ry="22"/>
<text text-anchor="middle" x="117" y="-106.3" font-family="Times,serif" font-size="14.00">1</text>
</g>
<!-- 1&#45;&gt;1 -->
<g id="edge3" class="edge"><title>1&#45;&gt;1</title>
<path fill="none" stroke="black" d="M137.066,-118.734C147.074,-119.943 156,-117.031 156,-110 156,-105.496 152.337,-102.682 147.072,-101.559"/>
<polygon fill="black" stroke="black" points="147.165,-98.0605 137.066,-101.266 146.959,-105.057 147.165,-98.0605"/>
<text text-anchor="middle" x="159.5" y="-106.3" font-family="Times,serif" font-size="14.00">b</text>
</g>
<!-- 3 -->
<g id="node4" class="node"><title>3</title>
<ellipse fill="lightblue" stroke="black" cx="67" cy="-18" rx="18" ry="18"/>
<text text-anchor="middle" x="67" y="-14.3" font-family="Times,serif" font-size="14.00">3</text>
</g>
<!-- 1&#45;&gt;3 -->
<g id="edge4" class="edge"><title>1&#45;&gt;3</title>
<path fill="none" stroke="black" d="M106.64,-90.3519C99.0375,-76.6676 88.6463,-57.9633 80.4102,-43.1383"/>
<polygon fill="black" stroke="black" points="83.2761,-41.09 75.3601,-34.0481 77.157,-44.4895 83.2761,-41.09"/>
<text text-anchor="middle" x="97.5" y="-58.3" font-family="Times,serif" font-size="14.00">a</text>
</g>
<!-- 2 -->
<g id="node3" class="node"><title>2</title>
<ellipse fill="lightblue" stroke="black" cx="21" cy="-110" rx="18" ry="18"/>
<text text-anchor="middle" x="21" y="-106.3" font-family="Times,serif" font-size="14.00">2</text>
</g>
<!-- 2&#45;&gt;3 -->
<g id="edge5" class="edge"><title>2&#45;&gt;3</title>
<path fill="none" stroke="black" d="M27.749,-92.8844C32.5318,-81.7963 39.2708,-66.8152 46,-54 48.0013,-50.1886 50.2354,-46.2152 52.4791,-42.3712"/>
<polygon fill="black" stroke="black" points="55.4923,-44.1519 57.6266,-33.7742 49.4866,-40.5558 55.4923,-44.1519"/>
<text text-anchor="middle" x="49.5" y="-58.3" font-family="Times,serif" font-size="14.00">a</text>
</g>
<!-- 2&#45;&gt;4 -->
<g id="edge6" class="edge"><title>2&#45;&gt;4</title>
<path fill="none" stroke="black" d="M20.4335,-127.994C20.0064,-140.808 19.4117,-158.65 18.9171,-173.488"/>
<polygon fill="black" stroke="black" points="15.4136,-173.536 18.5784,-183.647 22.4097,-173.769 15.4136,-173.536"/>
<text text-anchor="middle" x="22.5" y="-154.3" font-family="Times,serif" font-size="14.00">b</text>
</g>
<!-- 3&#45;&gt;0 -->
<g id="edge7" class="edge"><title>3&#45;&gt;0</title>
<path fill="none" stroke="black" d="M65.6021,-36.1564C61.8903,-81.7103 51.7622,-206.009 47.2365,-261.551"/>
<polygon fill="black" stroke="black" points="43.7334,-261.448 46.4097,-271.7 50.7103,-262.017 43.7334,-261.448"/>
<text text-anchor="middle" x="59.5" y="-154.3" font-family="Times,serif" font-size="14.00">b</text>
</g>
<!-- 3&#45;&gt;3 -->
<g id="edge8" class="edge"><title>3&#45;&gt;3</title>
<path fill="none" stroke="black" d="M83.2903,-25.6679C93.3892,-27.5169 103,-24.9609 103,-18 103,-13.5406 99.0557,-10.8891 93.5656,-10.0454"/>
<polygon fill="black" stroke="black" points="93.1887,-6.55441 83.2903,-10.3321 93.384,-13.5517 93.1887,-6.55441"/>
<text text-anchor="middle" x="106.5" y="-14.3" font-family="Times,serif" font-size="14.00">a</text>
</g>
<!-- 4&#45;&gt;0 -->
<g id="edge9" class="edge"><title>4&#45;&gt;0</title>
<path fill="none" stroke="black" d="M23.1899,-219.531C27.0331,-231.772 32.3469,-248.698 36.7672,-262.777"/>
<polygon fill="black" stroke="black" points="33.4594,-263.926 39.7941,-272.418 40.138,-261.829 33.4594,-263.926"/>
<text text-anchor="middle" x="36.5" y="-242.3" font-family="Times,serif" font-size="14.00">b</text>
</g>
<!-- 4&#45;&gt;2 -->
<g id="edge10" class="edge"><title>4&#45;&gt;2</title>
<path fill="none" stroke="black" d="M12.362,-184.821C10.5941,-178.968 8.87653,-172.258 8,-166 7.01368,-158.958 6.86093,-157.019 8,-150 8.70738,-145.641 9.83225,-141.111 11.1315,-136.747"/>
<polygon fill="black" stroke="black" points="14.5301,-137.618 14.365,-127.025 7.88787,-135.409 14.5301,-137.618"/>
<text text-anchor="middle" x="11.5" y="-154.3" font-family="Times,serif" font-size="14.00">a</text>
</g>
</g>
</svg>
