<?xml version="1.0" encoding="UTF-8" standalone="no"?>
<!DOCTYPE svg PUBLIC "-//W3C//DTD SVG 1.1//EN"
 "http://www.w3.org/Graphics/SVG/1.1/DTD/svg11.dtd">
<!-- Generated by graphviz version 2.36.0 (20140111.2315)
 -->
<!-- Title: %3 Pages: 1 -->
<svg width="115pt" height="316pt"
 viewBox="0.00 0.00 115.00 316.00" xmlns="http://www.w3.org/2000/svg" xmlns:xlink="http://www.w3.org/1999/xlink">
<g id="graph0" class="graph" transform="scale(1 1) rotate(0) translate(4 312)">
<title>%3</title>
<polygon fill="white" stroke="none" points="-4,4 -4,-312 111,-312 111,4 -4,4"/>
<!-- 0 -->
<g id="node1" class="node"><title>0</title>
<ellipse fill="lightblue" stroke="black" cx="21" cy="-198" rx="17.5909" ry="18"/>
<ellipse fill="none" stroke="black" cx="21" cy="-198" rx="21.5" ry="22"/>
<text text-anchor="middle" x="21" y="-194.3" font-family="Times,serif" font-size="14.00">0</text>
</g>
<!-- 0&#45;&gt;0 -->
<g id="edge1" class="edge"><title>0&#45;&gt;0</title>
<path fill="none" stroke="black" d="M41.0663,-206.734C51.0736,-207.943 60,-205.031 60,-198 60,-193.496 56.3366,-190.682 51.0725,-189.559"/>
<polygon fill="black" stroke="black" points="51.1646,-186.061 41.0663,-189.266 50.9594,-193.057 51.1646,-186.061"/>
<text text-anchor="middle" x="63.5" y="-194.3" font-family="Times,serif" font-size="14.00">b</text>
</g>
<!-- 3 -->
<g id="node4" class="node"><title>3</title>
<ellipse fill="lightblue" stroke="black" cx="64" cy="-106" rx="18" ry="18"/>
<text text-anchor="middle" x="64" y="-102.3" font-family="Times,serif" font-size="14.00">3</text>
</g>
<!-- 0&#45;&gt;3 -->
<g id="edge2" class="edge"><title>0&#45;&gt;3</title>
<path fill="none" stroke="black" d="M30.1192,-177.913C36.5289,-164.498 45.1657,-146.421 52.1149,-131.876"/>
<polygon fill="black" stroke="black" points="55.455,-133.003 56.608,-122.472 49.1389,-129.986 55.455,-133.003"/>
<text text-anchor="middle" x="49.5" y="-146.3" font-family="Times,serif" font-size="14.00">a</text>
</g>
<!-- 1 -->
<g id="node2" class="node"><title>1</title>
<ellipse fill="green" stroke="black" cx="78" cy="-290" rx="18" ry="18"/>
<text text-anchor="middle" x="78" y="-286.3" font-family="Times,serif" font-size="14.00">1</text>
</g>
<!-- 1&#45;&gt;0 -->
<g id="edge3" class="edge"><title>1&#45;&gt;0</title>
<path fill="none" stroke="black" d="M68.5876,-274.138C60.2878,-261.033 47.9908,-241.617 37.9764,-225.805"/>
<polygon fill="black" stroke="black" points="40.6988,-223.562 32.3914,-216.986 34.7851,-227.307 40.6988,-223.562"/>
<text text-anchor="middle" x="57.5" y="-242.3" font-family="Times,serif" font-size="14.00">b</text>
</g>
<!-- 1&#45;&gt;3 -->
<g id="edge4" class="edge"><title>1&#45;&gt;3</title>
<path fill="none" stroke="black" d="M78.7951,-271.72C79.5999,-249.509 80.3052,-209.779 77,-176 75.6182,-161.878 72.8051,-146.332 70.1481,-133.577"/>
<polygon fill="black" stroke="black" points="73.5271,-132.643 67.9878,-123.612 66.686,-134.127 73.5271,-132.643"/>
<text text-anchor="middle" x="82.5" y="-194.3" font-family="Times,serif" font-size="14.00">a</text>
</g>
<!-- 2 -->
<g id="node3" class="node"><title>2</title>
<ellipse fill="lightblue" stroke="black" cx="40" cy="-18" rx="18" ry="18"/>
<text text-anchor="middle" x="40" y="-14.3" font-family="Times,serif" font-size="14.00">2</text>
</g>
<!-- 2&#45;&gt;0 -->
<g id="edge5" class="edge"><title>2&#45;&gt;0</title>
<path fill="none" stroke="black" d="M37.2424,-35.9759C35.049,-49.9196 32.0228,-70.2002 30,-88 27.0336,-114.104 24.6447,-143.83 23.0756,-165.639"/>
<polygon fill="black" stroke="black" points="19.5812,-165.438 22.3723,-175.658 26.5641,-165.928 19.5812,-165.438"/>
<text text-anchor="middle" x="33.5" y="-102.3" font-family="Times,serif" font-size="14.00">b</text>
</g>
<!-- 2&#45;&gt;2 -->
<g id="edge6" class="edge"><title>2&#45;&gt;2</title>
<path fill="none" stroke="black" d="M56.2903,-25.6679C66.3892,-27.5169 76,-24.9609 76,-18 76,-13.5406 72.0557,-10.8891 66.5656,-10.0454"/>
<polygon fill="black" stroke="black" points="66.1887,-6.55441 56.2903,-10.3321 66.384,-13.5517 66.1887,-6.55441"/>
<text text-anchor="middle" x="79.5" y="-14.3" font-family="Times,serif" font-size="14.00">a</text>
</g>
<!-- 3&#45;&gt;2 -->
<g id="edge7" class="edge"><title>3&#45;&gt;2</title>
<path fill="none" stroke="black" d="M59.3726,-88.4183C55.9528,-76.164 51.2287,-59.2361 47.3017,-45.1645"/>
<polygon fill="black" stroke="black" points="50.6725,-44.2219 44.6132,-35.5308 43.9301,-46.1035 50.6725,-44.2219"/>
<text text-anchor="middle" x="57.5" y="-58.3" font-family="Times,serif" font-size="14.00">b</text>
</g>
<!-- 3&#45;&gt;3 -->
<g id="edge8" class="edge"><title>3&#45;&gt;3</title>
<path fill="none" stroke="black" d="M80.2903,-113.668C90.3892,-115.517 100,-112.961 100,-106 100,-101.541 96.0557,-98.8891 90.5656,-98.0454"/>
<polygon fill="black" stroke="black" points="90.1887,-94.5544 80.2903,-98.3321 90.384,-101.552 90.1887,-94.5544"/>
<text text-anchor="middle" x="103.5" y="-102.3" font-family="Times,serif" font-size="14.00">a</text>
</g>
</g>
</svg>
