<?xml version="1.0" encoding="UTF-8" standalone="no"?>
<!DOCTYPE svg PUBLIC "-//W3C//DTD SVG 1.1//EN"
 "http://www.w3.org/Graphics/SVG/1.1/DTD/svg11.dtd">
<!-- Generated by graphviz version 2.36.0 (20140111.2315)
 -->
<!-- Title: %3 Pages: 1 -->
<svg width="137pt" height="228pt"
 viewBox="0.00 0.00 137.00 228.00" xmlns="http://www.w3.org/2000/svg" xmlns:xlink="http://www.w3.org/1999/xlink">
<g id="graph0" class="graph" transform="scale(1 1) rotate(0) translate(4 224)">
<title>%3</title>
<polygon fill="white" stroke="none" points="-4,4 -4,-224 133,-224 133,4 -4,4"/>
<!-- 0 -->
<g id="node1" class="node"><title>0</title>
<ellipse fill="lightblue" stroke="black" cx="18" cy="-198" rx="18" ry="18"/>
<text text-anchor="middle" x="18" y="-194.3" font-family="Times,serif" font-size="14.00">0</text>
</g>
<!-- 0&#45;&gt;0 -->
<g id="edge1" class="edge"><title>0&#45;&gt;0</title>
<path fill="none" stroke="black" d="M34.2903,-206.365C44.3892,-208.382 54,-205.594 54,-198 54,-193.135 50.0557,-190.243 44.5656,-189.322"/>
<polygon fill="black" stroke="black" points="44.1791,-185.832 34.2903,-189.635 44.3922,-192.829 44.1791,-185.832"/>
<text text-anchor="middle" x="57.5" y="-194.3" font-family="Times,serif" font-size="14.00">a</text>
</g>
<!-- 3 -->
<g id="node4" class="node"><title>3</title>
<ellipse fill="lightblue" stroke="black" cx="49" cy="-106" rx="18" ry="18"/>
<text text-anchor="middle" x="49" y="-102.3" font-family="Times,serif" font-size="14.00">3</text>
</g>
<!-- 0&#45;&gt;3 -->
<g id="edge2" class="edge"><title>0&#45;&gt;3</title>
<path fill="none" stroke="black" d="M23.6859,-180.493C28.2305,-167.299 34.6873,-148.553 39.9424,-133.296"/>
<polygon fill="black" stroke="black" points="43.4026,-133.997 43.3502,-123.403 36.7842,-131.718 43.4026,-133.997"/>
<text text-anchor="middle" x="39.5" y="-146.3" font-family="Times,serif" font-size="14.00">b</text>
</g>
<!-- 1 -->
<g id="node2" class="node"><title>1</title>
<ellipse fill="lightblue" stroke="black" cx="107" cy="-198" rx="17.5909" ry="18"/>
<ellipse fill="none" stroke="black" cx="107" cy="-198" rx="21.5" ry="22"/>
<text text-anchor="middle" x="107" y="-194.3" font-family="Times,serif" font-size="14.00">1</text>
</g>
<!-- 2 -->
<g id="node3" class="node"><title>2</title>
<ellipse fill="green" stroke="black" cx="49" cy="-18" rx="18" ry="18"/>
<text text-anchor="middle" x="49" y="-14.3" font-family="Times,serif" font-size="14.00">2</text>
</g>
<!-- 1&#45;&gt;2 -->
<g id="edge3" class="edge"><title>1&#45;&gt;2</title>
<path fill="none" stroke="black" d="M109.398,-175.784C111.137,-153.271 111.605,-117.015 101,-88 94.1774,-69.3327 80.4871,-51.5047 68.866,-38.648"/>
<polygon fill="black" stroke="black" points="71.3776,-36.2098 61.9774,-31.3223 66.278,-41.005 71.3776,-36.2098"/>
<text text-anchor="middle" x="111.5" y="-102.3" font-family="Times,serif" font-size="14.00">a</text>
</g>
<!-- 1&#45;&gt;3 -->
<g id="edge4" class="edge"><title>1&#45;&gt;3</title>
<path fill="none" stroke="black" d="M95.5411,-179.219C86.4339,-165.087 73.6299,-145.219 63.7564,-129.898"/>
<polygon fill="black" stroke="black" points="66.6908,-127.99 58.3318,-121.48 60.8068,-131.782 66.6908,-127.99"/>
<text text-anchor="middle" x="84.5" y="-146.3" font-family="Times,serif" font-size="14.00">b</text>
</g>
<!-- 2&#45;&gt;0 -->
<g id="edge5" class="edge"><title>2&#45;&gt;0</title>
<path fill="none" stroke="black" d="M39.4926,-33.3321C31.1705,-46.798 19.6972,-67.8405 15,-88 8.61332,-115.411 10.6566,-147.746 13.4924,-170.042"/>
<polygon fill="black" stroke="black" points="10.0509,-170.702 14.9148,-180.115 16.9821,-169.723 10.0509,-170.702"/>
<text text-anchor="middle" x="18.5" y="-102.3" font-family="Times,serif" font-size="14.00">a</text>
</g>
<!-- 2&#45;&gt;2 -->
<g id="edge6" class="edge"><title>2&#45;&gt;2</title>
<path fill="none" stroke="black" d="M65.2903,-25.6679C75.3892,-27.5169 85,-24.9609 85,-18 85,-13.5406 81.0557,-10.8891 75.5656,-10.0454"/>
<polygon fill="black" stroke="black" points="75.1887,-6.55441 65.2903,-10.3321 75.384,-13.5517 75.1887,-6.55441"/>
<text text-anchor="middle" x="88.5" y="-14.3" font-family="Times,serif" font-size="14.00">b</text>
</g>
<!-- 3&#45;&gt;2 -->
<g id="edge7" class="edge"><title>3&#45;&gt;2</title>
<path fill="none" stroke="black" d="M49,-87.5966C49,-75.7459 49,-59.8169 49,-46.2917"/>
<polygon fill="black" stroke="black" points="52.5001,-46.084 49,-36.084 45.5001,-46.084 52.5001,-46.084"/>
<text text-anchor="middle" x="52.5" y="-58.3" font-family="Times,serif" font-size="14.00">a</text>
</g>
<!-- 3&#45;&gt;3 -->
<g id="edge8" class="edge"><title>3&#45;&gt;3</title>
<path fill="none" stroke="black" d="M65.2903,-113.668C75.3892,-115.517 85,-112.961 85,-106 85,-101.541 81.0557,-98.8891 75.5656,-98.0454"/>
<polygon fill="black" stroke="black" points="75.1887,-94.5544 65.2903,-98.3321 75.384,-101.552 75.1887,-94.5544"/>
<text text-anchor="middle" x="88.5" y="-102.3" font-family="Times,serif" font-size="14.00">b</text>
</g>
</g>
</svg>
