<?xml version="1.0" encoding="UTF-8" standalone="no"?>
<!DOCTYPE svg PUBLIC "-//W3C//DTD SVG 1.1//EN"
 "http://www.w3.org/Graphics/SVG/1.1/DTD/svg11.dtd">
<!-- Generated by graphviz version 2.36.0 (20140111.2315)
 -->
<!-- Title: %3 Pages: 1 -->
<svg width="98pt" height="404pt"
 viewBox="0.00 0.00 98.00 404.00" xmlns="http://www.w3.org/2000/svg" xmlns:xlink="http://www.w3.org/1999/xlink">
<g id="graph0" class="graph" transform="scale(1 1) rotate(0) translate(4 400)">
<title>%3</title>
<polygon fill="white" stroke="none" points="-4,4 -4,-400 94,-400 94,4 -4,4"/>
<!-- 0 -->
<g id="node1" class="node"><title>0</title>
<ellipse fill="lightblue" stroke="black" cx="18" cy="-290" rx="18" ry="18"/>
<text text-anchor="middle" x="18" y="-286.3" font-family="Times,serif" font-size="14.00">0</text>
</g>
<!-- 0&#45;&gt;0 -->
<g id="edge1" class="edge"><title>0&#45;&gt;0</title>
<path fill="none" stroke="black" d="M34.2903,-297.668C44.3892,-299.517 54,-296.961 54,-290 54,-285.541 50.0557,-282.889 44.5656,-282.045"/>
<polygon fill="black" stroke="black" points="44.1887,-278.554 34.2903,-282.332 44.384,-285.552 44.1887,-278.554"/>
<text text-anchor="middle" x="57.5" y="-286.3" font-family="Times,serif" font-size="14.00">b</text>
</g>
<!-- 4 -->
<g id="node5" class="node"><title>4</title>
<ellipse fill="lightblue" stroke="black" cx="48" cy="-198" rx="17.5909" ry="18"/>
<ellipse fill="none" stroke="black" cx="48" cy="-198" rx="21.5" ry="22"/>
<text text-anchor="middle" x="48" y="-194.3" font-family="Times,serif" font-size="14.00">4</text>
</g>
<!-- 0&#45;&gt;4 -->
<g id="edge2" class="edge"><title>0&#45;&gt;4</title>
<path fill="none" stroke="black" d="M16.7325,-272.019C16.5254,-261.881 17.2402,-248.9 21,-238 22.7345,-232.971 25.3127,-227.997 28.1983,-223.371"/>
<polygon fill="black" stroke="black" points="31.1899,-225.198 33.9855,-214.978 25.4272,-221.224 31.1899,-225.198"/>
<text text-anchor="middle" x="24.5" y="-242.3" font-family="Times,serif" font-size="14.00">a</text>
</g>
<!-- 1 -->
<g id="node2" class="node"><title>1</title>
<ellipse fill="lightblue" stroke="black" cx="72" cy="-378" rx="18" ry="18"/>
<text text-anchor="middle" x="72" y="-374.3" font-family="Times,serif" font-size="14.00">1</text>
</g>
<!-- 1&#45;&gt;0 -->
<g id="edge3" class="edge"><title>1&#45;&gt;0</title>
<path fill="none" stroke="black" d="M62.8396,-362.411C54.6164,-349.315 42.3971,-329.855 32.7902,-314.555"/>
<polygon fill="black" stroke="black" points="35.4871,-312.268 27.2053,-305.66 29.5589,-315.99 35.4871,-312.268"/>
<text text-anchor="middle" x="52.5" y="-330.3" font-family="Times,serif" font-size="14.00">a</text>
</g>
<!-- 1&#45;&gt;4 -->
<g id="edge4" class="edge"><title>1&#45;&gt;4</title>
<path fill="none" stroke="black" d="M73.1037,-359.779C74.115,-338.875 74.812,-302.619 70,-272 67.691,-257.308 63.1709,-241.45 58.8254,-228.28"/>
<polygon fill="black" stroke="black" points="62.1285,-227.122 55.5759,-218.797 55.5064,-229.391 62.1285,-227.122"/>
<text text-anchor="middle" x="76.5" y="-286.3" font-family="Times,serif" font-size="14.00">b</text>
</g>
<!-- 2 -->
<g id="node3" class="node"><title>2</title>
<ellipse fill="green" stroke="black" cx="48" cy="-18" rx="18" ry="18"/>
<text text-anchor="middle" x="48" y="-14.3" font-family="Times,serif" font-size="14.00">2</text>
</g>
<!-- 3 -->
<g id="node4" class="node"><title>3</title>
<ellipse fill="lightblue" stroke="black" cx="68" cy="-106" rx="18" ry="18"/>
<text text-anchor="middle" x="68" y="-102.3" font-family="Times,serif" font-size="14.00">3</text>
</g>
<!-- 2&#45;&gt;3 -->
<g id="edge5" class="edge"><title>2&#45;&gt;3</title>
<path fill="none" stroke="black" d="M51.8751,-35.6629C54.6686,-47.6751 58.4993,-64.147 61.726,-78.022"/>
<polygon fill="black" stroke="black" points="58.3744,-79.0619 64.0486,-88.0092 65.1925,-77.4763 58.3744,-79.0619"/>
<text text-anchor="middle" x="62.5" y="-58.3" font-family="Times,serif" font-size="14.00">b</text>
</g>
<!-- 2&#45;&gt;4 -->
<g id="edge6" class="edge"><title>2&#45;&gt;4</title>
<path fill="none" stroke="black" d="M43.661,-35.5886C40.2639,-49.4771 35.8199,-69.8785 34,-88 31.3295,-114.592 35.7732,-144.718 40.3451,-166.549"/>
<polygon fill="black" stroke="black" points="36.9813,-167.546 42.5692,-176.547 43.8143,-166.026 36.9813,-167.546"/>
<text text-anchor="middle" x="37.5" y="-102.3" font-family="Times,serif" font-size="14.00">a</text>
</g>
<!-- 3&#45;&gt;2 -->
<g id="edge7" class="edge"><title>3&#45;&gt;2</title>
<path fill="none" stroke="black" d="M59.1938,-90.1685C56.035,-84.1196 52.8094,-76.9282 51,-70 49.0278,-62.4482 48.0569,-54.0618 47.6321,-46.3071"/>
<polygon fill="black" stroke="black" points="51.1294,-46.1588 47.3485,-36.2616 44.1322,-46.3565 51.1294,-46.1588"/>
<text text-anchor="middle" x="54.5" y="-58.3" font-family="Times,serif" font-size="14.00">b</text>
</g>
<!-- 3&#45;&gt;4 -->
<g id="edge8" class="edge"><title>3&#45;&gt;4</title>
<path fill="none" stroke="black" d="M64.2558,-123.849C61.6094,-135.758 57.9861,-152.062 54.8319,-166.256"/>
<polygon fill="black" stroke="black" points="51.3914,-165.605 52.6387,-176.126 58.2247,-167.123 51.3914,-165.605"/>
<text text-anchor="middle" x="62.5" y="-146.3" font-family="Times,serif" font-size="14.00">a</text>
</g>
<!-- 4&#45;&gt;0 -->
<g id="edge9" class="edge"><title>4&#45;&gt;0</title>
<path fill="none" stroke="black" d="M41.2721,-219.184C36.9612,-232.116 31.3241,-249.028 26.6776,-262.967"/>
<polygon fill="black" stroke="black" points="23.3444,-261.899 23.5025,-272.493 29.9852,-264.113 23.3444,-261.899"/>
<text text-anchor="middle" x="38.5" y="-242.3" font-family="Times,serif" font-size="14.00">b</text>
</g>
<!-- 4&#45;&gt;3 -->
<g id="edge10" class="edge"><title>4&#45;&gt;3</title>
<path fill="none" stroke="black" d="M47.21,-175.807C47.3136,-165.463 48.172,-152.924 51,-142 51.9534,-138.317 53.3099,-134.561 54.8461,-130.942"/>
<polygon fill="black" stroke="black" points="58.0467,-132.362 59.1785,-121.828 51.7245,-129.357 58.0467,-132.362"/>
<text text-anchor="middle" x="54.5" y="-146.3" font-family="Times,serif" font-size="14.00">a</text>
</g>
</g>
</svg>
