<?xml version="1.0" encoding="UTF-8" standalone="no"?>
<!DOCTYPE svg PUBLIC "-//W3C//DTD SVG 1.1//EN"
 "http://www.w3.org/Graphics/SVG/1.1/DTD/svg11.dtd">
<!-- Generated by graphviz version 2.36.0 (20140111.2315)
 -->
<!-- Title: %3 Pages: 1 -->
<svg width="150pt" height="140pt"
 viewBox="0.00 0.00 150.00 140.00" xmlns="http://www.w3.org/2000/svg" xmlns:xlink="http://www.w3.org/1999/xlink">
<g id="graph0" class="graph" transform="scale(1 1) rotate(0) translate(4 136)">
<title>%3</title>
<polygon fill="white" stroke="none" points="-4,4 -4,-136 146,-136 146,4 -4,4"/>
<!-- 0 -->
<g id="node1" class="node"><title>0</title>
<ellipse fill="green" stroke="black" cx="80" cy="-18" rx="18" ry="18"/>
<text text-anchor="middle" x="80" y="-14.3" font-family="Times,serif" font-size="14.00">0</text>
</g>
<!-- 0&#45;&gt;0 -->
<g id="edge1" class="edge"><title>0&#45;&gt;0</title>
<path fill="none" stroke="black" d="M96.2903,-25.6679C106.389,-27.5169 116,-24.9609 116,-18 116,-13.5406 112.056,-10.8891 106.566,-10.0454"/>
<polygon fill="black" stroke="black" points="106.189,-6.55441 96.2903,-10.3321 106.384,-13.5517 106.189,-6.55441"/>
<text text-anchor="middle" x="124.5" y="-14.3" font-family="Times,serif" font-size="14.00">b,a</text>
</g>
<!-- 1 -->
<g id="node2" class="node"><title>1</title>
<ellipse fill="lightblue" stroke="black" cx="29" cy="-110" rx="17.5909" ry="18"/>
<ellipse fill="none" stroke="black" cx="29" cy="-110" rx="21.5" ry="22"/>
<text text-anchor="middle" x="29" y="-106.3" font-family="Times,serif" font-size="14.00">1</text>
</g>
<!-- 1&#45;&gt;0 -->
<g id="edge2" class="edge"><title>1&#45;&gt;0</title>
<path fill="none" stroke="black" d="M39.5672,-90.3519C47.3217,-76.6676 57.9208,-57.9633 66.3216,-43.1383"/>
<polygon fill="black" stroke="black" points="69.5876,-44.4739 71.4727,-34.0481 63.4975,-41.0228 69.5876,-44.4739"/>
<text text-anchor="middle" x="62.5" y="-58.3" font-family="Times,serif" font-size="14.00">b</text>
</g>
<!-- 2 -->
<g id="node3" class="node"><title>2</title>
<ellipse fill="lightblue" stroke="black" cx="18" cy="-18" rx="18" ry="18"/>
<text text-anchor="middle" x="18" y="-14.3" font-family="Times,serif" font-size="14.00">2</text>
</g>
<!-- 1&#45;&gt;2 -->
<g id="edge3" class="edge"><title>1&#45;&gt;2</title>
<path fill="none" stroke="black" d="M14.7346,-93.104C9.67921,-86.4507 4.60277,-78.3321 2,-70 -0.744416,-61.2144 1.03972,-51.5807 4.2552,-43.0751"/>
<polygon fill="black" stroke="black" points="7.55249,-44.2789 8.50183,-33.7267 1.17925,-41.3837 7.55249,-44.2789"/>
<text text-anchor="middle" x="5.5" y="-58.3" font-family="Times,serif" font-size="14.00">a</text>
</g>
<!-- 2&#45;&gt;1 -->
<g id="edge4" class="edge"><title>2&#45;&gt;1</title>
<path fill="none" stroke="black" d="M20.0949,-36.1402C21.5354,-47.926 23.4897,-63.9154 25.2005,-77.9129"/>
<polygon fill="black" stroke="black" points="21.7613,-78.6245 26.4487,-88.126 28.7096,-77.7752 21.7613,-78.6245"/>
<text text-anchor="middle" x="33.5" y="-58.3" font-family="Times,serif" font-size="14.00">b,a</text>
</g>
<!-- 3 -->
<g id="node4" class="node"><title>3</title>
<ellipse fill="lightblue" stroke="black" cx="99" cy="-110" rx="18" ry="18"/>
<text text-anchor="middle" x="99" y="-106.3" font-family="Times,serif" font-size="14.00">3</text>
</g>
<!-- 3&#45;&gt;0 -->
<g id="edge5" class="edge"><title>3&#45;&gt;0</title>
<path fill="none" stroke="black" d="M95.4262,-92.0717C92.6928,-79.1238 88.8695,-61.0134 85.7131,-46.062"/>
<polygon fill="black" stroke="black" points="89.0479,-44.9138 83.5577,-35.8524 82.1989,-46.3597 89.0479,-44.9138"/>
<text text-anchor="middle" x="93.5" y="-58.3" font-family="Times,serif" font-size="14.00">b</text>
</g>
<!-- 3&#45;&gt;3 -->
<g id="edge6" class="edge"><title>3&#45;&gt;3</title>
<path fill="none" stroke="black" d="M115.29,-118.365C125.389,-120.382 135,-117.594 135,-110 135,-105.135 131.056,-102.243 125.566,-101.322"/>
<polygon fill="black" stroke="black" points="125.179,-97.8323 115.29,-101.635 125.392,-104.829 125.179,-97.8323"/>
<text text-anchor="middle" x="138.5" y="-106.3" font-family="Times,serif" font-size="14.00">a</text>
</g>
</g>
</svg>
