<?xml version="1.0" encoding="UTF-8" standalone="no"?>
<!DOCTYPE svg PUBLIC "-//W3C//DTD SVG 1.1//EN"
 "http://www.w3.org/Graphics/SVG/1.1/DTD/svg11.dtd">
<!-- Generated by graphviz version 2.36.0 (20140111.2315)
 -->
<!-- Title: %3 Pages: 1 -->
<svg width="169pt" height="228pt"
 viewBox="0.00 0.00 169.00 228.00" xmlns="http://www.w3.org/2000/svg" xmlns:xlink="http://www.w3.org/1999/xlink">
<g id="graph0" class="graph" transform="scale(1 1) rotate(0) translate(4 224)">
<title>%3</title>
<polygon fill="white" stroke="none" points="-4,4 -4,-224 165,-224 165,4 -4,4"/>
<!-- 0 -->
<g id="node1" class="node"><title>0</title>
<ellipse fill="lightblue" stroke="black" cx="72" cy="-202" rx="18" ry="18"/>
<text text-anchor="middle" x="72" y="-198.3" font-family="Times,serif" font-size="14.00">0</text>
</g>
<!-- 2 -->
<g id="node3" class="node"><title>2</title>
<ellipse fill="lightblue" stroke="black" cx="18" cy="-114" rx="18" ry="18"/>
<text text-anchor="middle" x="18" y="-110.3" font-family="Times,serif" font-size="14.00">2</text>
</g>
<!-- 0&#45;&gt;2 -->
<g id="edge1" class="edge"><title>0&#45;&gt;2</title>
<path fill="none" stroke="black" d="M56.1853,-192.739C46.2121,-186.687 33.946,-177.53 27,-166 22.7417,-158.932 20.3799,-150.376 19.1022,-142.308"/>
<polygon fill="black" stroke="black" points="22.5568,-141.704 17.9785,-132.15 15.5992,-142.474 22.5568,-141.704"/>
<text text-anchor="middle" x="30.5" y="-154.3" font-family="Times,serif" font-size="14.00">a</text>
</g>
<!-- 3 -->
<g id="node4" class="node"><title>3</title>
<ellipse fill="lightblue" stroke="black" cx="97" cy="-114" rx="18" ry="18"/>
<text text-anchor="middle" x="97" y="-110.3" font-family="Times,serif" font-size="14.00">3</text>
</g>
<!-- 0&#45;&gt;3 -->
<g id="edge2" class="edge"><title>0&#45;&gt;3</title>
<path fill="none" stroke="black" d="M76.8203,-184.418C80.3825,-172.164 85.3035,-155.236 89.394,-141.165"/>
<polygon fill="black" stroke="black" points="92.7639,-142.11 92.1945,-131.531 86.0422,-140.156 92.7639,-142.11"/>
<text text-anchor="middle" x="89.5" y="-154.3" font-family="Times,serif" font-size="14.00">b</text>
</g>
<!-- 1 -->
<g id="node2" class="node"><title>1</title>
<ellipse fill="green" stroke="black" cx="127" cy="-22" rx="17.5909" ry="18"/>
<ellipse fill="none" stroke="black" cx="127" cy="-22" rx="21.5" ry="22"/>
<text text-anchor="middle" x="127" y="-18.3" font-family="Times,serif" font-size="14.00">1</text>
</g>
<!-- 1&#45;&gt;0 -->
<g id="edge3" class="edge"><title>1&#45;&gt;0</title>
<path fill="none" stroke="black" d="M137.312,-41.4932C148.291,-63.8001 162.384,-102.034 149,-132 138.291,-155.975 114.678,-175.081 96.4056,-187.053"/>
<polygon fill="black" stroke="black" points="94.315,-184.233 87.6893,-192.5 98.0245,-190.169 94.315,-184.233"/>
<text text-anchor="middle" x="157.5" y="-110.3" font-family="Times,serif" font-size="14.00">b</text>
</g>
<!-- 1&#45;&gt;3 -->
<g id="edge4" class="edge"><title>1&#45;&gt;3</title>
<path fill="none" stroke="black" d="M120.272,-43.1837C115.961,-56.1164 110.324,-73.0278 105.678,-86.9672"/>
<polygon fill="black" stroke="black" points="102.344,-85.899 102.502,-96.4926 108.985,-88.1126 102.344,-85.899"/>
<text text-anchor="middle" x="116.5" y="-66.3" font-family="Times,serif" font-size="14.00">a</text>
</g>
<!-- 2&#45;&gt;0 -->
<g id="edge5" class="edge"><title>2&#45;&gt;0</title>
<path fill="none" stroke="black" d="M27.2053,-129.66C35.443,-142.78 47.6649,-162.244 57.2622,-177.529"/>
<polygon fill="black" stroke="black" points="54.5578,-179.804 62.8396,-186.411 60.486,-176.081 54.5578,-179.804"/>
<text text-anchor="middle" x="53.5" y="-154.3" font-family="Times,serif" font-size="14.00">a</text>
</g>
<!-- 2&#45;&gt;2 -->
<g id="edge6" class="edge"><title>2&#45;&gt;2</title>
<path fill="none" stroke="black" d="M34.2903,-121.668C44.3892,-123.517 54,-120.961 54,-114 54,-109.541 50.0557,-106.889 44.5656,-106.045"/>
<polygon fill="black" stroke="black" points="44.1887,-102.554 34.2903,-106.332 44.384,-109.552 44.1887,-102.554"/>
<text text-anchor="middle" x="57.5" y="-110.3" font-family="Times,serif" font-size="14.00">b</text>
</g>
<!-- 3&#45;&gt;1 -->
<g id="edge7" class="edge"><title>3&#45;&gt;1</title>
<path fill="none" stroke="black" d="M95.7325,-96.0192C95.5254,-85.8813 96.2402,-72.9001 100,-62 101.735,-56.9714 104.313,-51.9975 107.198,-47.3708"/>
<polygon fill="black" stroke="black" points="110.19,-49.1978 112.985,-38.9784 104.427,-45.224 110.19,-49.1978"/>
<text text-anchor="middle" x="103.5" y="-66.3" font-family="Times,serif" font-size="14.00">b</text>
</g>
<!-- 3&#45;&gt;3 -->
<g id="edge8" class="edge"><title>3&#45;&gt;3</title>
<path fill="none" stroke="black" d="M113.29,-121.668C123.389,-123.517 133,-120.961 133,-114 133,-109.541 129.056,-106.889 123.566,-106.045"/>
<polygon fill="black" stroke="black" points="123.189,-102.554 113.29,-106.332 123.384,-109.552 123.189,-102.554"/>
<text text-anchor="middle" x="136.5" y="-110.3" font-family="Times,serif" font-size="14.00">a</text>
</g>
</g>
</svg>
