<?xml version="1.0" encoding="UTF-8" standalone="no"?>
<!DOCTYPE svg PUBLIC "-//W3C//DTD SVG 1.1//EN"
 "http://www.w3.org/Graphics/SVG/1.1/DTD/svg11.dtd">
<!-- Generated by graphviz version 2.36.0 (20140111.2315)
 -->
<!-- Title: %3 Pages: 1 -->
<svg width="169pt" height="316pt"
 viewBox="0.00 0.00 169.00 316.00" xmlns="http://www.w3.org/2000/svg" xmlns:xlink="http://www.w3.org/1999/xlink">
<g id="graph0" class="graph" transform="scale(1 1) rotate(0) translate(4 312)">
<title>%3</title>
<polygon fill="white" stroke="none" points="-4,4 -4,-312 165,-312 165,4 -4,4"/>
<!-- 0 -->
<g id="node1" class="node"><title>0</title>
<ellipse fill="lightblue" stroke="black" cx="76" cy="-290" rx="18" ry="18"/>
<text text-anchor="middle" x="76" y="-286.3" font-family="Times,serif" font-size="14.00">0</text>
</g>
<!-- 1 -->
<g id="node2" class="node"><title>1</title>
<ellipse fill="lightblue" stroke="black" cx="76" cy="-202" rx="18" ry="18"/>
<text text-anchor="middle" x="76" y="-198.3" font-family="Times,serif" font-size="14.00">1</text>
</g>
<!-- 0&#45;&gt;1 -->
<g id="edge1" class="edge"><title>0&#45;&gt;1</title>
<path fill="none" stroke="black" d="M76,-271.597C76,-259.746 76,-243.817 76,-230.292"/>
<polygon fill="black" stroke="black" points="79.5001,-230.084 76,-220.084 72.5001,-230.084 79.5001,-230.084"/>
<text text-anchor="middle" x="84.5" y="-242.3" font-family="Times,serif" font-size="14.00">b,a</text>
</g>
<!-- 3 -->
<g id="node4" class="node"><title>3</title>
<ellipse fill="lightblue" stroke="black" cx="18" cy="-110" rx="18" ry="18"/>
<text text-anchor="middle" x="18" y="-106.3" font-family="Times,serif" font-size="14.00">3</text>
</g>
<!-- 1&#45;&gt;3 -->
<g id="edge2" class="edge"><title>1&#45;&gt;3</title>
<path fill="none" stroke="black" d="M58.9499,-195.641C45.4855,-190.415 27.5846,-181.023 19,-166 14.2492,-157.686 13.0664,-147.448 13.3855,-138.068"/>
<polygon fill="black" stroke="black" points="16.8821,-138.259 14.2738,-127.99 9.90912,-137.644 16.8821,-138.259"/>
<text text-anchor="middle" x="22.5" y="-154.3" font-family="Times,serif" font-size="14.00">a</text>
</g>
<!-- 4 -->
<g id="node5" class="node"><title>4</title>
<ellipse fill="lightblue" stroke="black" cx="76" cy="-110" rx="17.5909" ry="18"/>
<ellipse fill="none" stroke="black" cx="76" cy="-110" rx="21.5" ry="22"/>
<text text-anchor="middle" x="76" y="-106.3" font-family="Times,serif" font-size="14.00">4</text>
</g>
<!-- 1&#45;&gt;4 -->
<g id="edge3" class="edge"><title>1&#45;&gt;4</title>
<path fill="none" stroke="black" d="M76,-183.647C76,-171.924 76,-156.114 76,-142.237"/>
<polygon fill="black" stroke="black" points="79.5001,-142.101 76,-132.101 72.5001,-142.101 79.5001,-142.101"/>
<text text-anchor="middle" x="79.5" y="-154.3" font-family="Times,serif" font-size="14.00">b</text>
</g>
<!-- 2 -->
<g id="node3" class="node"><title>2</title>
<ellipse fill="green" stroke="black" cx="118" cy="-18" rx="18" ry="18"/>
<text text-anchor="middle" x="118" y="-14.3" font-family="Times,serif" font-size="14.00">2</text>
</g>
<!-- 2&#45;&gt;1 -->
<g id="edge4" class="edge"><title>2&#45;&gt;1</title>
<path fill="none" stroke="black" d="M124.383,-34.8425C132.4,-57.1607 143.764,-98.8376 132,-132 125.038,-151.627 109.848,-169.74 97.0431,-182.479"/>
<polygon fill="black" stroke="black" points="94.3052,-180.252 89.4732,-189.681 99.1305,-185.324 94.3052,-180.252"/>
<text text-anchor="middle" x="140.5" y="-106.3" font-family="Times,serif" font-size="14.00">a</text>
</g>
<!-- 2&#45;&gt;2 -->
<g id="edge5" class="edge"><title>2&#45;&gt;2</title>
<path fill="none" stroke="black" d="M134.29,-25.6679C144.389,-27.5169 154,-24.9609 154,-18 154,-13.5406 150.056,-10.8891 144.566,-10.0454"/>
<polygon fill="black" stroke="black" points="144.189,-6.55441 134.29,-10.3321 144.384,-13.5517 144.189,-6.55441"/>
<text text-anchor="middle" x="157.5" y="-14.3" font-family="Times,serif" font-size="14.00">b</text>
</g>
<!-- 3&#45;&gt;1 -->
<g id="edge6" class="edge"><title>3&#45;&gt;1</title>
<path fill="none" stroke="black" d="M27.2956,-125.424C36.4195,-139.582 50.4807,-161.401 61.1535,-177.962"/>
<polygon fill="black" stroke="black" points="58.3222,-180.03 66.6813,-186.54 64.2062,-176.238 58.3222,-180.03"/>
<text text-anchor="middle" x="55.5" y="-154.3" font-family="Times,serif" font-size="14.00">a</text>
</g>
<!-- 3&#45;&gt;2 -->
<g id="edge7" class="edge"><title>3&#45;&gt;2</title>
<path fill="none" stroke="black" d="M31.0733,-97.2341C47.9174,-82.0743 77.3944,-55.545 97.2994,-37.6306"/>
<polygon fill="black" stroke="black" points="99.832,-40.06 104.924,-30.7688 95.1492,-34.857 99.832,-40.06"/>
<text text-anchor="middle" x="79.5" y="-58.3" font-family="Times,serif" font-size="14.00">b</text>
</g>
<!-- 4&#45;&gt;1 -->
<g id="edge8" class="edge"><title>4&#45;&gt;1</title>
<path fill="none" stroke="black" d="M81.4737,-131.333C83.6215,-141.69 85.2982,-154.494 84,-166 83.6897,-168.75 83.2463,-171.6 82.7253,-174.431"/>
<polygon fill="black" stroke="black" points="79.2628,-173.886 80.5979,-184.397 86.1086,-175.348 79.2628,-173.886"/>
<text text-anchor="middle" x="87.5" y="-154.3" font-family="Times,serif" font-size="14.00">b</text>
</g>
<!-- 4&#45;&gt;4 -->
<g id="edge9" class="edge"><title>4&#45;&gt;4</title>
<path fill="none" stroke="black" d="M96.0663,-118.734C106.074,-119.943 115,-117.031 115,-110 115,-105.496 111.337,-102.682 106.072,-101.559"/>
<polygon fill="black" stroke="black" points="106.165,-98.0605 96.0663,-101.266 105.959,-105.057 106.165,-98.0605"/>
<text text-anchor="middle" x="118.5" y="-106.3" font-family="Times,serif" font-size="14.00">a</text>
</g>
</g>
</svg>
