<?xml version="1.0" encoding="UTF-8" standalone="no"?>
<!DOCTYPE svg PUBLIC "-//W3C//DTD SVG 1.1//EN"
 "http://www.w3.org/Graphics/SVG/1.1/DTD/svg11.dtd">
<!-- Generated by graphviz version 2.36.0 (20140111.2315)
 -->
<!-- Title: %3 Pages: 1 -->
<svg width="209pt" height="228pt"
 viewBox="0.00 0.00 209.00 228.00" xmlns="http://www.w3.org/2000/svg" xmlns:xlink="http://www.w3.org/1999/xlink">
<g id="graph0" class="graph" transform="scale(1 1) rotate(0) translate(4 224)">
<title>%3</title>
<polygon fill="white" stroke="none" points="-4,4 -4,-224 205,-224 205,4 -4,4"/>
<!-- 0 -->
<g id="node1" class="node"><title>0</title>
<ellipse fill="green" stroke="black" cx="130" cy="-18" rx="18" ry="18"/>
<text text-anchor="middle" x="130" y="-14.3" font-family="Times,serif" font-size="14.00">0</text>
</g>
<!-- 0&#45;&gt;0 -->
<g id="edge1" class="edge"><title>0&#45;&gt;0</title>
<path fill="none" stroke="black" d="M146.29,-25.6679C156.389,-27.5169 166,-24.9609 166,-18 166,-13.5406 162.056,-10.8891 156.566,-10.0454"/>
<polygon fill="black" stroke="black" points="156.189,-6.55441 146.29,-10.3321 156.384,-13.5517 156.189,-6.55441"/>
<text text-anchor="middle" x="174.5" y="-14.3" font-family="Times,serif" font-size="14.00">b,a</text>
</g>
<!-- 1 -->
<g id="node2" class="node"><title>1</title>
<ellipse fill="lightblue" stroke="black" cx="21" cy="-110" rx="17.5909" ry="18"/>
<ellipse fill="none" stroke="black" cx="21" cy="-110" rx="21.5" ry="22"/>
<text text-anchor="middle" x="21" y="-106.3" font-family="Times,serif" font-size="14.00">1</text>
</g>
<!-- 1&#45;&gt;1 -->
<g id="edge2" class="edge"><title>1&#45;&gt;1</title>
<path fill="none" stroke="black" d="M41.0663,-118.734C51.0736,-119.943 60,-117.031 60,-110 60,-105.496 56.3366,-102.682 51.0725,-101.559"/>
<polygon fill="black" stroke="black" points="51.1646,-98.0605 41.0663,-101.266 50.9594,-105.057 51.1646,-98.0605"/>
<text text-anchor="middle" x="63.5" y="-106.3" font-family="Times,serif" font-size="14.00">a</text>
</g>
<!-- 4 -->
<g id="node5" class="node"><title>4</title>
<ellipse fill="lightblue" stroke="black" cx="51" cy="-202" rx="18" ry="18"/>
<text text-anchor="middle" x="51" y="-198.3" font-family="Times,serif" font-size="14.00">4</text>
</g>
<!-- 1&#45;&gt;4 -->
<g id="edge3" class="edge"><title>1&#45;&gt;4</title>
<path fill="none" stroke="black" d="M27.7279,-131.184C32.0388,-144.116 37.6759,-161.028 42.3224,-174.967"/>
<polygon fill="black" stroke="black" points="39.0148,-176.113 45.4975,-184.493 45.6556,-173.899 39.0148,-176.113"/>
<text text-anchor="middle" x="41.5" y="-154.3" font-family="Times,serif" font-size="14.00">b</text>
</g>
<!-- 2 -->
<g id="node3" class="node"><title>2</title>
<ellipse fill="lightblue" stroke="black" cx="104" cy="-110" rx="18" ry="18"/>
<text text-anchor="middle" x="104" y="-106.3" font-family="Times,serif" font-size="14.00">2</text>
</g>
<!-- 2&#45;&gt;0 -->
<g id="edge4" class="edge"><title>2&#45;&gt;0</title>
<path fill="none" stroke="black" d="M106.477,-91.9225C108.297,-80.9465 111.13,-66.4613 115,-54 116.052,-50.6144 117.321,-47.1115 118.67,-43.6889"/>
<polygon fill="black" stroke="black" points="121.918,-44.9946 122.572,-34.4199 115.466,-42.2786 121.918,-44.9946"/>
<text text-anchor="middle" x="123.5" y="-58.3" font-family="Times,serif" font-size="14.00">b,a</text>
</g>
<!-- 3 -->
<g id="node4" class="node"><title>3</title>
<ellipse fill="lightblue" stroke="black" cx="158" cy="-110" rx="18" ry="18"/>
<text text-anchor="middle" x="158" y="-106.3" font-family="Times,serif" font-size="14.00">3</text>
</g>
<!-- 3&#45;&gt;0 -->
<g id="edge5" class="edge"><title>3&#45;&gt;0</title>
<path fill="none" stroke="black" d="M152.864,-92.4926C148.76,-79.2985 142.928,-60.5529 138.181,-45.2964"/>
<polygon fill="black" stroke="black" points="141.416,-43.9116 135.103,-35.4027 134.732,-45.9911 141.416,-43.9116"/>
<text text-anchor="middle" x="148.5" y="-58.3" font-family="Times,serif" font-size="14.00">b</text>
</g>
<!-- 3&#45;&gt;3 -->
<g id="edge6" class="edge"><title>3&#45;&gt;3</title>
<path fill="none" stroke="black" d="M174.29,-118.365C184.389,-120.382 194,-117.594 194,-110 194,-105.135 190.056,-102.243 184.566,-101.322"/>
<polygon fill="black" stroke="black" points="184.179,-97.8323 174.29,-101.635 184.392,-104.829 184.179,-97.8323"/>
<text text-anchor="middle" x="197.5" y="-106.3" font-family="Times,serif" font-size="14.00">a</text>
</g>
<!-- 4&#45;&gt;1 -->
<g id="edge7" class="edge"><title>4&#45;&gt;1</title>
<path fill="none" stroke="black" d="M38.671,-188.853C33.1373,-182.588 27.1543,-174.489 24,-166 21.2207,-158.521 19.9345,-150.074 19.4632,-142.086"/>
<polygon fill="black" stroke="black" points="22.9601,-141.894 19.2561,-131.967 15.9616,-142.037 22.9601,-141.894"/>
<text text-anchor="middle" x="27.5" y="-154.3" font-family="Times,serif" font-size="14.00">b</text>
</g>
<!-- 4&#45;&gt;2 -->
<g id="edge8" class="edge"><title>4&#45;&gt;2</title>
<path fill="none" stroke="black" d="M59.7519,-186.138C67.9608,-172.199 80.375,-151.118 89.9668,-134.83"/>
<polygon fill="black" stroke="black" points="93.1766,-136.277 95.2351,-125.884 87.1448,-132.725 93.1766,-136.277"/>
<text text-anchor="middle" x="83.5" y="-154.3" font-family="Times,serif" font-size="14.00">a</text>
</g>
</g>
</svg>
