<?xml version="1.0" encoding="UTF-8" standalone="no"?>
<!DOCTYPE svg PUBLIC "-//W3C//DTD SVG 1.1//EN"
 "http://www.w3.org/Graphics/SVG/1.1/DTD/svg11.dtd">
<!-- Generated by graphviz version 2.36.0 (20140111.2315)
 -->
<!-- Title: %3 Pages: 1 -->
<svg width="162pt" height="316pt"
 viewBox="0.00 0.00 162.00 316.00" xmlns="http://www.w3.org/2000/svg" xmlns:xlink="http://www.w3.org/1999/xlink">
<g id="graph0" class="graph" transform="scale(1 1) rotate(0) translate(4 312)">
<title>%3</title>
<polygon fill="white" stroke="none" points="-4,4 -4,-312 158,-312 158,4 -4,4"/>
<!-- 0 -->
<g id="node1" class="node"><title>0</title>
<ellipse fill="lightblue" stroke="black" cx="18" cy="-290" rx="18" ry="18"/>
<text text-anchor="middle" x="18" y="-286.3" font-family="Times,serif" font-size="14.00">0</text>
</g>
<!-- 0&#45;&gt;0 -->
<g id="edge1" class="edge"><title>0&#45;&gt;0</title>
<path fill="none" stroke="black" d="M34.2903,-297.668C44.3892,-299.517 54,-296.961 54,-290 54,-285.541 50.0557,-282.889 44.5656,-282.045"/>
<polygon fill="black" stroke="black" points="44.1887,-278.554 34.2903,-282.332 44.384,-285.552 44.1887,-278.554"/>
<text text-anchor="middle" x="62.5" y="-286.3" font-family="Times,serif" font-size="14.00">b,a</text>
</g>
<!-- 1 -->
<g id="node2" class="node"><title>1</title>
<ellipse fill="lightblue" stroke="black" cx="107" cy="-290" rx="18" ry="18"/>
<text text-anchor="middle" x="107" y="-286.3" font-family="Times,serif" font-size="14.00">1</text>
</g>
<!-- 2 -->
<g id="node3" class="node"><title>2</title>
<ellipse fill="lightblue" stroke="black" cx="77" cy="-202" rx="18" ry="18"/>
<text text-anchor="middle" x="77" y="-198.3" font-family="Times,serif" font-size="14.00">2</text>
</g>
<!-- 1&#45;&gt;2 -->
<g id="edge2" class="edge"><title>1&#45;&gt;2</title>
<path fill="none" stroke="black" d="M94.6868,-276.848C89.1568,-270.581 83.1724,-262.482 80,-254 77.223,-246.575 76.0193,-238.119 75.6289,-230.256"/>
<polygon fill="black" stroke="black" points="79.1269,-230.019 75.5293,-220.054 72.1272,-230.088 79.1269,-230.019"/>
<text text-anchor="middle" x="83.5" y="-242.3" font-family="Times,serif" font-size="14.00">a</text>
</g>
<!-- 3 -->
<g id="node4" class="node"><title>3</title>
<ellipse fill="green" stroke="black" cx="107" cy="-114" rx="18" ry="18"/>
<text text-anchor="middle" x="107" y="-110.3" font-family="Times,serif" font-size="14.00">3</text>
</g>
<!-- 1&#45;&gt;3 -->
<g id="edge3" class="edge"><title>1&#45;&gt;3</title>
<path fill="none" stroke="black" d="M107,-271.999C107,-241.853 107,-178.79 107,-142.43"/>
<polygon fill="black" stroke="black" points="110.5,-142.07 107,-132.07 103.5,-142.07 110.5,-142.07"/>
<text text-anchor="middle" x="110.5" y="-198.3" font-family="Times,serif" font-size="14.00">b</text>
</g>
<!-- 2&#45;&gt;1 -->
<g id="edge4" class="edge"><title>2&#45;&gt;1</title>
<path fill="none" stroke="black" d="M82.6175,-219.103C86.9267,-231.457 92.9622,-248.758 97.9501,-263.057"/>
<polygon fill="black" stroke="black" points="94.7587,-264.535 101.357,-272.824 101.368,-262.229 94.7587,-264.535"/>
<text text-anchor="middle" x="97.5" y="-242.3" font-family="Times,serif" font-size="14.00">b</text>
</g>
<!-- 2&#45;&gt;3 -->
<g id="edge5" class="edge"><title>2&#45;&gt;3</title>
<path fill="none" stroke="black" d="M75.5293,-183.946C75.2502,-173.782 75.9607,-160.8 80,-150 81.9332,-144.831 84.9106,-139.805 88.193,-135.249"/>
<polygon fill="black" stroke="black" points="91.1602,-137.143 94.6868,-127.152 85.6997,-132.763 91.1602,-137.143"/>
<text text-anchor="middle" x="83.5" y="-154.3" font-family="Times,serif" font-size="14.00">a</text>
</g>
<!-- 3&#45;&gt;2 -->
<g id="edge6" class="edge"><title>3&#45;&gt;2</title>
<path fill="none" stroke="black" d="M101.383,-131.103C97.0733,-143.457 91.0378,-160.758 86.0499,-175.057"/>
<polygon fill="black" stroke="black" points="82.6319,-174.229 82.6428,-184.824 89.2413,-176.535 82.6319,-174.229"/>
<text text-anchor="middle" x="97.5" y="-154.3" font-family="Times,serif" font-size="14.00">b</text>
</g>
<!-- 4 -->
<g id="node5" class="node"><title>4</title>
<ellipse fill="lightblue" stroke="black" cx="107" cy="-22" rx="17.5909" ry="18"/>
<ellipse fill="none" stroke="black" cx="107" cy="-22" rx="21.5" ry="22"/>
<text text-anchor="middle" x="107" y="-18.3" font-family="Times,serif" font-size="14.00">4</text>
</g>
<!-- 3&#45;&gt;4 -->
<g id="edge7" class="edge"><title>3&#45;&gt;4</title>
<path fill="none" stroke="black" d="M100.366,-97.2577C98.201,-91.3321 96.0772,-84.4629 95,-78 93.595,-69.57 94.55,-60.4818 96.4167,-52.1686"/>
<polygon fill="black" stroke="black" points="99.7966,-53.0774 99.0484,-42.509 93.0427,-51.2373 99.7966,-53.0774"/>
<text text-anchor="middle" x="98.5" y="-66.3" font-family="Times,serif" font-size="14.00">a</text>
</g>
<!-- 4&#45;&gt;3 -->
<g id="edge8" class="edge"><title>4&#45;&gt;3</title>
<path fill="none" stroke="black" d="M107,-44.101C107,-56.4798 107,-72.2575 107,-85.5903"/>
<polygon fill="black" stroke="black" points="103.5,-85.6471 107,-95.6471 110.5,-85.6471 103.5,-85.6471"/>
<text text-anchor="middle" x="110.5" y="-66.3" font-family="Times,serif" font-size="14.00">b</text>
</g>
<!-- 4&#45;&gt;4 -->
<g id="edge9" class="edge"><title>4&#45;&gt;4</title>
<path fill="none" stroke="black" d="M127.066,-30.7341C137.074,-31.9426 146,-29.0312 146,-22 146,-17.4956 142.337,-14.682 137.072,-13.5592"/>
<polygon fill="black" stroke="black" points="137.165,-10.0605 127.066,-13.2659 136.959,-17.0575 137.165,-10.0605"/>
<text text-anchor="middle" x="149.5" y="-18.3" font-family="Times,serif" font-size="14.00">a</text>
</g>
</g>
</svg>
