<?xml version="1.0" encoding="UTF-8" standalone="no"?>
<!DOCTYPE svg PUBLIC "-//W3C//DTD SVG 1.1//EN"
 "http://www.w3.org/Graphics/SVG/1.1/DTD/svg11.dtd">
<!-- Generated by graphviz version 2.36.0 (20140111.2315)
 -->
<!-- Title: %3 Pages: 1 -->
<svg width="132pt" height="316pt"
 viewBox="0.00 0.00 132.00 316.00" xmlns="http://www.w3.org/2000/svg" xmlns:xlink="http://www.w3.org/1999/xlink">
<g id="graph0" class="graph" transform="scale(1 1) rotate(0) translate(4 312)">
<title>%3</title>
<polygon fill="white" stroke="none" points="-4,4 -4,-312 128,-312 128,4 -4,4"/>
<!-- 0 -->
<g id="node1" class="node"><title>0</title>
<ellipse fill="lightblue" stroke="black" cx="77" cy="-194" rx="18" ry="18"/>
<text text-anchor="middle" x="77" y="-190.3" font-family="Times,serif" font-size="14.00">0</text>
</g>
<!-- 1 -->
<g id="node2" class="node"><title>1</title>
<ellipse fill="green" stroke="black" cx="18" cy="-106" rx="18" ry="18"/>
<text text-anchor="middle" x="18" y="-102.3" font-family="Times,serif" font-size="14.00">1</text>
</g>
<!-- 0&#45;&gt;1 -->
<g id="edge1" class="edge"><title>0&#45;&gt;1</title>
<path fill="none" stroke="black" d="M67.2573,-178.799C58.1191,-165.479 44.2996,-145.335 33.6218,-129.771"/>
<polygon fill="black" stroke="black" points="36.3004,-127.488 27.7571,-121.222 30.5282,-131.448 36.3004,-127.488"/>
<text text-anchor="middle" x="56.5" y="-146.3" font-family="Times,serif" font-size="14.00">b</text>
</g>
<!-- 2 -->
<g id="node3" class="node"><title>2</title>
<ellipse fill="lightblue" stroke="black" cx="48" cy="-18" rx="18" ry="18"/>
<text text-anchor="middle" x="48" y="-14.3" font-family="Times,serif" font-size="14.00">2</text>
</g>
<!-- 0&#45;&gt;2 -->
<g id="edge2" class="edge"><title>0&#45;&gt;2</title>
<path fill="none" stroke="black" d="M77.122,-175.743C76.9788,-154.804 75.7927,-118.513 70,-88 67.2059,-73.2819 62.2471,-57.3174 57.7438,-44.4549"/>
<polygon fill="black" stroke="black" points="60.9752,-43.0988 54.28,-34.8876 54.3933,-45.4818 60.9752,-43.0988"/>
<text text-anchor="middle" x="78.5" y="-102.3" font-family="Times,serif" font-size="14.00">a</text>
</g>
<!-- 1&#45;&gt;1 -->
<g id="edge3" class="edge"><title>1&#45;&gt;1</title>
<path fill="none" stroke="black" d="M34.2903,-113.668C44.3892,-115.517 54,-112.961 54,-106 54,-101.541 50.0557,-98.8891 44.5656,-98.0454"/>
<polygon fill="black" stroke="black" points="44.1887,-94.5544 34.2903,-98.3321 44.384,-101.552 44.1887,-94.5544"/>
<text text-anchor="middle" x="57.5" y="-102.3" font-family="Times,serif" font-size="14.00">b</text>
</g>
<!-- 1&#45;&gt;2 -->
<g id="edge4" class="edge"><title>1&#45;&gt;2</title>
<path fill="none" stroke="black" d="M16.5293,-87.9462C16.2502,-77.7824 16.9607,-64.7996 21,-54 22.9332,-48.8314 25.9106,-43.805 29.193,-39.2487"/>
<polygon fill="black" stroke="black" points="32.1602,-41.1432 35.6868,-31.1524 26.6997,-36.7634 32.1602,-41.1432"/>
<text text-anchor="middle" x="24.5" y="-58.3" font-family="Times,serif" font-size="14.00">a</text>
</g>
<!-- 2&#45;&gt;1 -->
<g id="edge5" class="edge"><title>2&#45;&gt;1</title>
<path fill="none" stroke="black" d="M42.3825,-35.1034C38.0733,-47.4565 32.0378,-64.7582 27.0499,-79.0569"/>
<polygon fill="black" stroke="black" points="23.6319,-78.2292 23.6428,-88.8241 30.2413,-80.5349 23.6319,-78.2292"/>
<text text-anchor="middle" x="39.5" y="-58.3" font-family="Times,serif" font-size="14.00">b</text>
</g>
<!-- 2&#45;&gt;2 -->
<g id="edge6" class="edge"><title>2&#45;&gt;2</title>
<path fill="none" stroke="black" d="M64.2903,-25.6679C74.3892,-27.5169 84,-24.9609 84,-18 84,-13.5406 80.0557,-10.8891 74.5656,-10.0454"/>
<polygon fill="black" stroke="black" points="74.1887,-6.55441 64.2903,-10.3321 74.384,-13.5517 74.1887,-6.55441"/>
<text text-anchor="middle" x="87.5" y="-14.3" font-family="Times,serif" font-size="14.00">a</text>
</g>
<!-- 3 -->
<g id="node4" class="node"><title>3</title>
<ellipse fill="lightblue" stroke="black" cx="77" cy="-286" rx="17.5909" ry="18"/>
<ellipse fill="none" stroke="black" cx="77" cy="-286" rx="21.5" ry="22"/>
<text text-anchor="middle" x="77" y="-282.3" font-family="Times,serif" font-size="14.00">3</text>
</g>
<!-- 3&#45;&gt;0 -->
<g id="edge7" class="edge"><title>3&#45;&gt;0</title>
<path fill="none" stroke="black" d="M77,-263.671C77,-251.284 77,-235.552 77,-222.272"/>
<polygon fill="black" stroke="black" points="80.5001,-222.258 77,-212.258 73.5001,-222.258 80.5001,-222.258"/>
<text text-anchor="middle" x="80.5" y="-234.3" font-family="Times,serif" font-size="14.00">b</text>
</g>
<!-- 3&#45;&gt;3 -->
<g id="edge8" class="edge"><title>3&#45;&gt;3</title>
<path fill="none" stroke="black" d="M97.0663,-294.734C107.074,-295.943 116,-293.031 116,-286 116,-281.496 112.337,-278.682 107.072,-277.559"/>
<polygon fill="black" stroke="black" points="107.165,-274.061 97.0663,-277.266 106.959,-281.057 107.165,-274.061"/>
<text text-anchor="middle" x="119.5" y="-282.3" font-family="Times,serif" font-size="14.00">a</text>
</g>
</g>
</svg>
