<?xml version="1.0" encoding="UTF-8" standalone="no"?>
<!DOCTYPE svg PUBLIC "-//W3C//DTD SVG 1.1//EN"
 "http://www.w3.org/Graphics/SVG/1.1/DTD/svg11.dtd">
<!-- Generated by graphviz version 2.36.0 (20140111.2315)
 -->
<!-- Title: %3 Pages: 1 -->
<svg width="154pt" height="316pt"
 viewBox="0.00 0.00 154.00 316.00" xmlns="http://www.w3.org/2000/svg" xmlns:xlink="http://www.w3.org/1999/xlink">
<g id="graph0" class="graph" transform="scale(1 1) rotate(0) translate(4 312)">
<title>%3</title>
<polygon fill="white" stroke="none" points="-4,4 -4,-312 150,-312 150,4 -4,4"/>
<!-- 0 -->
<g id="node1" class="node"><title>0</title>
<ellipse fill="lightblue" stroke="black" cx="62" cy="-198" rx="17.5909" ry="18"/>
<ellipse fill="none" stroke="black" cx="62" cy="-198" rx="21.5" ry="22"/>
<text text-anchor="middle" x="62" y="-194.3" font-family="Times,serif" font-size="14.00">0</text>
</g>
<!-- 1 -->
<g id="node2" class="node"><title>1</title>
<ellipse fill="lightblue" stroke="black" cx="18" cy="-106" rx="18" ry="18"/>
<text text-anchor="middle" x="18" y="-102.3" font-family="Times,serif" font-size="14.00">1</text>
</g>
<!-- 0&#45;&gt;1 -->
<g id="edge1" class="edge"><title>0&#45;&gt;1</title>
<path fill="none" stroke="black" d="M44.1257,-185.528C35.1677,-178.712 25.1527,-169.211 20,-158 16.6928,-150.804 15.451,-142.417 15.2357,-134.546"/>
<polygon fill="black" stroke="black" points="18.7406,-134.377 15.4806,-124.296 11.7426,-134.209 18.7406,-134.377"/>
<text text-anchor="middle" x="23.5" y="-146.3" font-family="Times,serif" font-size="14.00">a</text>
</g>
<!-- 2 -->
<g id="node3" class="node"><title>2</title>
<ellipse fill="lightblue" stroke="black" cx="75" cy="-106" rx="18" ry="18"/>
<text text-anchor="middle" x="75" y="-102.3" font-family="Times,serif" font-size="14.00">2</text>
</g>
<!-- 0&#45;&gt;2 -->
<g id="edge2" class="edge"><title>0&#45;&gt;2</title>
<path fill="none" stroke="black" d="M65.0151,-176.126C66.8262,-163.588 69.1497,-147.502 71.0995,-134.003"/>
<polygon fill="black" stroke="black" points="74.6006,-134.247 72.5662,-123.849 67.6725,-133.246 74.6006,-134.247"/>
<text text-anchor="middle" x="72.5" y="-146.3" font-family="Times,serif" font-size="14.00">b</text>
</g>
<!-- 1&#45;&gt;0 -->
<g id="edge3" class="edge"><title>1&#45;&gt;0</title>
<path fill="none" stroke="black" d="M25.5639,-122.472C31.7815,-135.189 40.7535,-153.541 48.2384,-168.851"/>
<polygon fill="black" stroke="black" points="45.1322,-170.467 52.6687,-177.913 51.4209,-167.392 45.1322,-170.467"/>
<text text-anchor="middle" x="45.5" y="-146.3" font-family="Times,serif" font-size="14.00">b</text>
</g>
<!-- 3 -->
<g id="node4" class="node"><title>3</title>
<ellipse fill="green" stroke="black" cx="62" cy="-18" rx="18" ry="18"/>
<text text-anchor="middle" x="62" y="-14.3" font-family="Times,serif" font-size="14.00">3</text>
</g>
<!-- 1&#45;&gt;3 -->
<g id="edge4" class="edge"><title>1&#45;&gt;3</title>
<path fill="none" stroke="black" d="M12.9716,-88.5283C10.7387,-78.0967 9.66669,-64.6213 15,-54 19.7437,-44.553 28.3794,-37.0088 36.9663,-31.3791"/>
<polygon fill="black" stroke="black" points="38.8988,-34.3028 45.7319,-26.2059 35.341,-28.2743 38.8988,-34.3028"/>
<text text-anchor="middle" x="18.5" y="-58.3" font-family="Times,serif" font-size="14.00">a</text>
</g>
<!-- 2&#45;&gt;2 -->
<g id="edge5" class="edge"><title>2&#45;&gt;2</title>
<path fill="none" stroke="black" d="M91.2903,-113.668C101.389,-115.517 111,-112.961 111,-106 111,-101.541 107.056,-98.8891 101.566,-98.0454"/>
<polygon fill="black" stroke="black" points="101.189,-94.5544 91.2903,-98.3321 101.384,-101.552 101.189,-94.5544"/>
<text text-anchor="middle" x="114.5" y="-102.3" font-family="Times,serif" font-size="14.00">a</text>
</g>
<!-- 2&#45;&gt;3 -->
<g id="edge6" class="edge"><title>2&#45;&gt;3</title>
<path fill="none" stroke="black" d="M72.4316,-88.0092C70.6155,-75.9947 68.1434,-59.641 66.0616,-45.8691"/>
<polygon fill="black" stroke="black" points="69.5185,-45.3201 64.563,-35.9555 62.5971,-46.3664 69.5185,-45.3201"/>
<text text-anchor="middle" x="72.5" y="-58.3" font-family="Times,serif" font-size="14.00">b</text>
</g>
<!-- 3&#45;&gt;1 -->
<g id="edge7" class="edge"><title>3&#45;&gt;1</title>
<path fill="none" stroke="black" d="M54.2018,-34.242C47.6523,-47.0433 38.17,-65.5768 30.5529,-80.4647"/>
<polygon fill="black" stroke="black" points="27.3053,-79.1282 25.8663,-89.6249 33.537,-82.3166 27.3053,-79.1282"/>
<text text-anchor="middle" x="51.5" y="-58.3" font-family="Times,serif" font-size="14.00">b,a</text>
</g>
<!-- 4 -->
<g id="node5" class="node"><title>4</title>
<ellipse fill="lightblue" stroke="black" cx="119" cy="-290" rx="18" ry="18"/>
<text text-anchor="middle" x="119" y="-286.3" font-family="Times,serif" font-size="14.00">4</text>
</g>
<!-- 4&#45;&gt;0 -->
<g id="edge8" class="edge"><title>4&#45;&gt;0</title>
<path fill="none" stroke="black" d="M109.588,-274.138C101.288,-261.033 88.9908,-241.617 78.9764,-225.805"/>
<polygon fill="black" stroke="black" points="81.6988,-223.562 73.3914,-216.986 75.7851,-227.307 81.6988,-223.562"/>
<text text-anchor="middle" x="98.5" y="-242.3" font-family="Times,serif" font-size="14.00">a</text>
</g>
<!-- 4&#45;&gt;3 -->
<g id="edge9" class="edge"><title>4&#45;&gt;3</title>
<path fill="none" stroke="black" d="M123.974,-272.62C133.772,-237.363 152.506,-152.273 127,-88 118.446,-66.4457 99.6167,-47.715 84.4145,-35.2296"/>
<polygon fill="black" stroke="black" points="86.4562,-32.3827 76.4303,-28.9576 82.1319,-37.8874 86.4562,-32.3827"/>
<text text-anchor="middle" x="142.5" y="-146.3" font-family="Times,serif" font-size="14.00">b</text>
</g>
</g>
</svg>
