<?xml version="1.0" encoding="UTF-8" standalone="no"?>
<!DOCTYPE svg PUBLIC "-//W3C//DTD SVG 1.1//EN"
 "http://www.w3.org/Graphics/SVG/1.1/DTD/svg11.dtd">
<!-- Generated by graphviz version 2.36.0 (20140111.2315)
 -->
<!-- Title: %3 Pages: 1 -->
<svg width="172pt" height="228pt"
 viewBox="0.00 0.00 172.00 228.00" xmlns="http://www.w3.org/2000/svg" xmlns:xlink="http://www.w3.org/1999/xlink">
<g id="graph0" class="graph" transform="scale(1 1) rotate(0) translate(4 224)">
<title>%3</title>
<polygon fill="white" stroke="none" points="-4,4 -4,-224 168,-224 168,4 -4,4"/>
<!-- 0 -->
<g id="node1" class="node"><title>0</title>
<ellipse fill="green" stroke="black" cx="18" cy="-202" rx="18" ry="18"/>
<text text-anchor="middle" x="18" y="-198.3" font-family="Times,serif" font-size="14.00">0</text>
</g>
<!-- 1 -->
<g id="node2" class="node"><title>1</title>
<ellipse fill="lightblue" stroke="black" cx="42" cy="-22" rx="17.5909" ry="18"/>
<ellipse fill="none" stroke="black" cx="42" cy="-22" rx="21.5" ry="22"/>
<text text-anchor="middle" x="42" y="-18.3" font-family="Times,serif" font-size="14.00">1</text>
</g>
<!-- 0&#45;&gt;1 -->
<g id="edge1" class="edge"><title>0&#45;&gt;1</title>
<path fill="none" stroke="black" d="M13.277,-184.437C8.0451,-163.579 1.19001,-126.751 8,-96 11.5271,-80.0731 18.902,-63.4998 25.8846,-50.178"/>
<polygon fill="black" stroke="black" points="29.1167,-51.5619 30.839,-41.108 22.9735,-48.2062 29.1167,-51.5619"/>
<text text-anchor="middle" x="11.5" y="-110.3" font-family="Times,serif" font-size="14.00">a</text>
</g>
<!-- 3 -->
<g id="node4" class="node"><title>3</title>
<ellipse fill="lightblue" stroke="black" cx="42" cy="-114" rx="18" ry="18"/>
<text text-anchor="middle" x="42" y="-110.3" font-family="Times,serif" font-size="14.00">3</text>
</g>
<!-- 0&#45;&gt;3 -->
<g id="edge2" class="edge"><title>0&#45;&gt;3</title>
<path fill="none" stroke="black" d="M22.6274,-184.418C26.0472,-172.164 30.7713,-155.236 34.6983,-141.165"/>
<polygon fill="black" stroke="black" points="38.0699,-142.104 37.3868,-131.531 31.3275,-140.222 38.0699,-142.104"/>
<text text-anchor="middle" x="35.5" y="-154.3" font-family="Times,serif" font-size="14.00">b</text>
</g>
<!-- 1&#45;&gt;1 -->
<g id="edge3" class="edge"><title>1&#45;&gt;1</title>
<path fill="none" stroke="black" d="M62.0663,-30.7341C72.0736,-31.9426 81,-29.0312 81,-22 81,-17.4956 77.3366,-14.682 72.0725,-13.5592"/>
<polygon fill="black" stroke="black" points="72.1646,-10.0605 62.0663,-13.2659 71.9594,-17.0575 72.1646,-10.0605"/>
<text text-anchor="middle" x="89.5" y="-18.3" font-family="Times,serif" font-size="14.00">b,a</text>
</g>
<!-- 2 -->
<g id="node3" class="node"><title>2</title>
<ellipse fill="lightblue" stroke="black" cx="121" cy="-114" rx="18" ry="18"/>
<text text-anchor="middle" x="121" y="-110.3" font-family="Times,serif" font-size="14.00">2</text>
</g>
<!-- 2&#45;&gt;1 -->
<g id="edge4" class="edge"><title>2&#45;&gt;1</title>
<path fill="none" stroke="black" d="M109.343,-99.7202C97.1714,-85.8534 77.8225,-63.8105 62.9816,-46.9031"/>
<polygon fill="black" stroke="black" points="65.3367,-44.2805 56.1094,-39.074 60.0759,-48.8983 65.3367,-44.2805"/>
<text text-anchor="middle" x="91.5" y="-66.3" font-family="Times,serif" font-size="14.00">a</text>
</g>
<!-- 2&#45;&gt;2 -->
<g id="edge5" class="edge"><title>2&#45;&gt;2</title>
<path fill="none" stroke="black" d="M137.29,-121.668C147.389,-123.517 157,-120.961 157,-114 157,-109.541 153.056,-106.889 147.566,-106.045"/>
<polygon fill="black" stroke="black" points="147.189,-102.554 137.29,-106.332 147.384,-109.552 147.189,-102.554"/>
<text text-anchor="middle" x="160.5" y="-110.3" font-family="Times,serif" font-size="14.00">b</text>
</g>
<!-- 3&#45;&gt;1 -->
<g id="edge6" class="edge"><title>3&#45;&gt;1</title>
<path fill="none" stroke="black" d="M42,-95.6471C42,-83.9242 42,-68.1144 42,-54.2369"/>
<polygon fill="black" stroke="black" points="45.5001,-54.101 42,-44.101 38.5001,-54.101 45.5001,-54.101"/>
<text text-anchor="middle" x="45.5" y="-66.3" font-family="Times,serif" font-size="14.00">a</text>
</g>
<!-- 3&#45;&gt;3 -->
<g id="edge7" class="edge"><title>3&#45;&gt;3</title>
<path fill="none" stroke="black" d="M58.2903,-121.668C68.3892,-123.517 78,-120.961 78,-114 78,-109.541 74.0557,-106.889 68.5656,-106.045"/>
<polygon fill="black" stroke="black" points="68.1887,-102.554 58.2903,-106.332 68.384,-109.552 68.1887,-102.554"/>
<text text-anchor="middle" x="81.5" y="-110.3" font-family="Times,serif" font-size="14.00">b</text>
</g>
</g>
</svg>
