<?xml version="1.0" encoding="UTF-8" standalone="no"?>
<!DOCTYPE svg PUBLIC "-//W3C//DTD SVG 1.1//EN"
 "http://www.w3.org/Graphics/SVG/1.1/DTD/svg11.dtd">
<!-- Generated by graphviz version 2.36.0 (20140111.2315)
 -->
<!-- Title: %3 Pages: 1 -->
<svg width="131pt" height="316pt"
 viewBox="0.00 0.00 131.00 316.00" xmlns="http://www.w3.org/2000/svg" xmlns:xlink="http://www.w3.org/1999/xlink">
<g id="graph0" class="graph" transform="scale(1 1) rotate(0) translate(4 312)">
<title>%3</title>
<polygon fill="white" stroke="none" points="-4,4 -4,-312 127,-312 127,4 -4,4"/>
<!-- 0 -->
<g id="node1" class="node"><title>0</title>
<ellipse fill="lightblue" stroke="black" cx="21" cy="-198" rx="17.5909" ry="18"/>
<ellipse fill="none" stroke="black" cx="21" cy="-198" rx="21.5" ry="22"/>
<text text-anchor="middle" x="21" y="-194.3" font-family="Times,serif" font-size="14.00">0</text>
</g>
<!-- 1 -->
<g id="node2" class="node"><title>1</title>
<ellipse fill="lightblue" stroke="black" cx="72" cy="-106" rx="18" ry="18"/>
<text text-anchor="middle" x="72" y="-102.3" font-family="Times,serif" font-size="14.00">1</text>
</g>
<!-- 0&#45;&gt;1 -->
<g id="edge1" class="edge"><title>0&#45;&gt;1</title>
<path fill="none" stroke="black" d="M31.5672,-178.352C39.3217,-164.668 49.9208,-145.963 58.3216,-131.138"/>
<polygon fill="black" stroke="black" points="61.5876,-132.474 63.4727,-122.048 55.4975,-129.023 61.5876,-132.474"/>
<text text-anchor="middle" x="54.5" y="-146.3" font-family="Times,serif" font-size="14.00">b</text>
</g>
<!-- 2 -->
<g id="node3" class="node"><title>2</title>
<ellipse fill="green" stroke="black" cx="79" cy="-18" rx="18" ry="18"/>
<text text-anchor="middle" x="79" y="-14.3" font-family="Times,serif" font-size="14.00">2</text>
</g>
<!-- 0&#45;&gt;2 -->
<g id="edge2" class="edge"><title>0&#45;&gt;2</title>
<path fill="none" stroke="black" d="M22.5169,-175.703C24.518,-153.435 28.9116,-117.666 38,-88 42.892,-72.0318 45.5566,-68.4091 54,-54 56.5554,-49.6391 59.5072,-45.1375 62.4672,-40.8744"/>
<polygon fill="black" stroke="black" points="65.4345,-42.7429 68.43,-32.5803 59.7508,-38.6567 65.4345,-42.7429"/>
<text text-anchor="middle" x="41.5" y="-102.3" font-family="Times,serif" font-size="14.00">a</text>
</g>
<!-- 1&#45;&gt;2 -->
<g id="edge3" class="edge"><title>1&#45;&gt;2</title>
<path fill="none" stroke="black" d="M64.3777,-89.3407C60.4286,-79.2332 57.0002,-65.8137 60,-54 61.005,-50.042 62.5577,-46.0474 64.3517,-42.2436"/>
<polygon fill="black" stroke="black" points="67.4996,-43.7793 69.1343,-33.3113 61.3284,-40.4751 67.4996,-43.7793"/>
<text text-anchor="middle" x="68.5" y="-58.3" font-family="Times,serif" font-size="14.00">b,a</text>
</g>
<!-- 2&#45;&gt;1 -->
<g id="edge4" class="edge"><title>2&#45;&gt;1</title>
<path fill="none" stroke="black" d="M78.7692,-36.0283C78.5256,-45.9544 78.0256,-58.7044 77,-70 76.7669,-72.5674 76.4757,-75.2345 76.1517,-77.8994"/>
<polygon fill="black" stroke="black" points="72.6642,-77.5726 74.7936,-87.9513 79.6011,-78.51 72.6642,-77.5726"/>
<text text-anchor="middle" x="81.5" y="-58.3" font-family="Times,serif" font-size="14.00">a</text>
</g>
<!-- 2&#45;&gt;2 -->
<g id="edge5" class="edge"><title>2&#45;&gt;2</title>
<path fill="none" stroke="black" d="M95.2903,-25.6679C105.389,-27.5169 115,-24.9609 115,-18 115,-13.5406 111.056,-10.8891 105.566,-10.0454"/>
<polygon fill="black" stroke="black" points="105.189,-6.55441 95.2903,-10.3321 105.384,-13.5517 105.189,-6.55441"/>
<text text-anchor="middle" x="118.5" y="-14.3" font-family="Times,serif" font-size="14.00">b</text>
</g>
<!-- 3 -->
<g id="node4" class="node"><title>3</title>
<ellipse fill="lightblue" stroke="black" cx="81" cy="-198" rx="18" ry="18"/>
<text text-anchor="middle" x="81" y="-194.3" font-family="Times,serif" font-size="14.00">3</text>
</g>
<!-- 3&#45;&gt;1 -->
<g id="edge6" class="edge"><title>3&#45;&gt;1</title>
<path fill="none" stroke="black" d="M79.3072,-180.072C78.0206,-167.206 76.2242,-149.242 74.7346,-134.346"/>
<polygon fill="black" stroke="black" points="78.1936,-133.76 73.7158,-124.158 71.2283,-134.457 78.1936,-133.76"/>
<text text-anchor="middle" x="80.5" y="-146.3" font-family="Times,serif" font-size="14.00">a</text>
</g>
<!-- 4 -->
<g id="node5" class="node"><title>4</title>
<ellipse fill="lightblue" stroke="black" cx="105" cy="-290" rx="18" ry="18"/>
<text text-anchor="middle" x="105" y="-286.3" font-family="Times,serif" font-size="14.00">4</text>
</g>
<!-- 3&#45;&gt;4 -->
<g id="edge7" class="edge"><title>3&#45;&gt;4</title>
<path fill="none" stroke="black" d="M85.4553,-215.708C88.9666,-228.875 93.9277,-247.479 97.9729,-262.648"/>
<polygon fill="black" stroke="black" points="94.6395,-263.732 100.598,-272.493 101.403,-261.928 94.6395,-263.732"/>
<text text-anchor="middle" x="98.5" y="-242.3" font-family="Times,serif" font-size="14.00">b</text>
</g>
<!-- 4&#45;&gt;2 -->
<g id="edge8" class="edge"><title>4&#45;&gt;2</title>
<path fill="none" stroke="black" d="M106.336,-271.854C108.656,-236.889 112.025,-154.997 99,-88 96.1828,-73.5093 91.6954,-57.6684 87.6844,-44.8235"/>
<polygon fill="black" stroke="black" points="90.9996,-43.6993 84.6109,-35.2474 84.3344,-45.8386 90.9996,-43.6993"/>
<text text-anchor="middle" x="110.5" y="-146.3" font-family="Times,serif" font-size="14.00">a</text>
</g>
<!-- 4&#45;&gt;3 -->
<g id="edge9" class="edge"><title>4&#45;&gt;3</title>
<path fill="none" stroke="black" d="M93.1191,-276.447C88.0243,-270.208 82.6435,-262.249 80,-254 77.1511,-245.11 76.6236,-234.99 77.0601,-225.876"/>
<polygon fill="black" stroke="black" points="80.5592,-226.037 77.934,-215.772 73.5852,-225.433 80.5592,-226.037"/>
<text text-anchor="middle" x="83.5" y="-242.3" font-family="Times,serif" font-size="14.00">b</text>
</g>
</g>
</svg>
