<?xml version="1.0" encoding="UTF-8" standalone="no"?>
<!DOCTYPE svg PUBLIC "-//W3C//DTD SVG 1.1//EN"
 "http://www.w3.org/Graphics/SVG/1.1/DTD/svg11.dtd">
<!-- Generated by graphviz version 2.36.0 (20140111.2315)
 -->
<!-- Title: %3 Pages: 1 -->
<svg width="117pt" height="316pt"
 viewBox="0.00 0.00 117.07 316.00" xmlns="http://www.w3.org/2000/svg" xmlns:xlink="http://www.w3.org/1999/xlink">
<g id="graph0" class="graph" transform="scale(1 1) rotate(0) translate(4 312)">
<title>%3</title>
<polygon fill="white" stroke="none" points="-4,4 -4,-312 113.069,-312 113.069,4 -4,4"/>
<!-- 0 -->
<g id="node1" class="node"><title>0</title>
<ellipse fill="lightblue" stroke="black" cx="66.0689" cy="-290" rx="18" ry="18"/>
<text text-anchor="middle" x="66.0689" y="-286.3" font-family="Times,serif" font-size="14.00">0</text>
</g>
<!-- 0&#45;&gt;0 -->
<g id="edge1" class="edge"><title>0&#45;&gt;0</title>
<path fill="none" stroke="black" d="M82.3592,-297.668C92.4581,-299.517 102.069,-296.961 102.069,-290 102.069,-285.541 98.1246,-282.889 92.6345,-282.045"/>
<polygon fill="black" stroke="black" points="92.2576,-278.554 82.3592,-282.332 92.4529,-285.552 92.2576,-278.554"/>
<text text-anchor="middle" x="105.569" y="-286.3" font-family="Times,serif" font-size="14.00">a</text>
</g>
<!-- 3 -->
<g id="node4" class="node"><title>3</title>
<ellipse fill="green" stroke="black" cx="22.0689" cy="-198" rx="17.5909" ry="18"/>
<ellipse fill="none" stroke="black" cx="22.0689" cy="-198" rx="21.5" ry="22"/>
<text text-anchor="middle" x="22.0689" y="-194.3" font-family="Times,serif" font-size="14.00">3</text>
</g>
<!-- 0&#45;&gt;3 -->
<g id="edge2" class="edge"><title>0&#45;&gt;3</title>
<path fill="none" stroke="black" d="M58.4047,-273.323C52.1654,-260.561 43.2014,-242.226 35.7381,-226.96"/>
<polygon fill="black" stroke="black" points="38.8594,-225.375 31.3229,-217.929 32.5707,-228.45 38.8594,-225.375"/>
<text text-anchor="middle" x="50.5689" y="-242.3" font-family="Times,serif" font-size="14.00">b</text>
</g>
<!-- 1 -->
<g id="node2" class="node"><title>1</title>
<ellipse fill="lightblue" stroke="black" cx="48.0689" cy="-106" rx="18" ry="18"/>
<text text-anchor="middle" x="48.0689" y="-102.3" font-family="Times,serif" font-size="14.00">1</text>
</g>
<!-- 2 -->
<g id="node3" class="node"><title>2</title>
<ellipse fill="lightblue" stroke="black" cx="24.0689" cy="-18" rx="18" ry="18"/>
<text text-anchor="middle" x="24.0689" y="-14.3" font-family="Times,serif" font-size="14.00">2</text>
</g>
<!-- 1&#45;&gt;2 -->
<g id="edge3" class="edge"><title>1&#45;&gt;2</title>
<path fill="none" stroke="black" d="M43.4415,-88.4183C40.0217,-76.164 35.2976,-59.2361 31.3706,-45.1645"/>
<polygon fill="black" stroke="black" points="34.7414,-44.2219 28.6821,-35.5308 27.999,-46.1035 34.7414,-44.2219"/>
<text text-anchor="middle" x="46.5689" y="-58.3" font-family="Times,serif" font-size="14.00">b,a</text>
</g>
<!-- 2&#45;&gt;0 -->
<g id="edge4" class="edge"><title>2&#45;&gt;0</title>
<path fill="none" stroke="black" d="M37.5019,-30.3666C44.5386,-36.798 52.9417,-45.2821 59.0689,-54 68.672,-67.6636 71.4256,-71.7015 75.0689,-88 88.7559,-149.229 78.8065,-223.485 71.6504,-262.347"/>
<polygon fill="black" stroke="black" points="68.1823,-261.848 69.7281,-272.329 75.056,-263.171 68.1823,-261.848"/>
<text text-anchor="middle" x="84.5689" y="-146.3" font-family="Times,serif" font-size="14.00">a</text>
</g>
<!-- 2&#45;&gt;3 -->
<g id="edge5" class="edge"><title>2&#45;&gt;3</title>
<path fill="none" stroke="black" d="M20.919,-35.9395C18.498,-49.8621 15.357,-70.132 14.0689,-88 12.1696,-114.348 14.702,-144.274 17.4077,-166.095"/>
<polygon fill="black" stroke="black" points="13.9505,-166.65 18.7312,-176.105 20.8901,-165.733 13.9505,-166.65"/>
<text text-anchor="middle" x="17.5689" y="-102.3" font-family="Times,serif" font-size="14.00">b</text>
</g>
<!-- 3&#45;&gt;1 -->
<g id="edge6" class="edge"><title>3&#45;&gt;1</title>
<path fill="none" stroke="black" d="M27.9687,-176.578C31.6699,-163.766 36.4787,-147.12 40.4647,-133.322"/>
<polygon fill="black" stroke="black" points="43.9075,-134.016 43.3204,-123.437 37.1824,-132.073 43.9075,-134.016"/>
<text text-anchor="middle" x="40.5689" y="-146.3" font-family="Times,serif" font-size="14.00">b</text>
</g>
<!-- 3&#45;&gt;2 -->
<g id="edge7" class="edge"><title>3&#45;&gt;2</title>
<path fill="none" stroke="black" d="M15.5803,-176.834C13.716,-170.801 11.7375,-164.153 10.0689,-158 1.87377,-127.778 -1.97133,-119.052 2.0689,-88 4.00181,-73.1443 8.9011,-57.1703 13.5868,-44.3369"/>
<polygon fill="black" stroke="black" points="16.9313,-45.3899 17.2381,-34.7995 10.394,-42.8871 16.9313,-45.3899"/>
<text text-anchor="middle" x="5.5689" y="-102.3" font-family="Times,serif" font-size="14.00">a</text>
</g>
</g>
</svg>
