<?xml version="1.0" encoding="UTF-8" standalone="no"?>
<!DOCTYPE svg PUBLIC "-//W3C//DTD SVG 1.1//EN"
 "http://www.w3.org/Graphics/SVG/1.1/DTD/svg11.dtd">
<!-- Generated by graphviz version 2.36.0 (20140111.2315)
 -->
<!-- Title: %3 Pages: 1 -->
<svg width="118pt" height="316pt"
 viewBox="0.00 0.00 118.49 316.00" xmlns="http://www.w3.org/2000/svg" xmlns:xlink="http://www.w3.org/1999/xlink">
<g id="graph0" class="graph" transform="scale(1 1) rotate(0) translate(4 312)">
<title>%3</title>
<polygon fill="white" stroke="none" points="-4,4 -4,-312 114.495,-312 114.495,4 -4,4"/>
<!-- 0 -->
<g id="node1" class="node"><title>0</title>
<ellipse fill="lightblue" stroke="black" cx="30.454" cy="-290" rx="18" ry="18"/>
<text text-anchor="middle" x="30.454" y="-286.3" font-family="Times,serif" font-size="14.00">0</text>
</g>
<!-- 1 -->
<g id="node2" class="node"><title>1</title>
<ellipse fill="lightblue" stroke="black" cx="54.454" cy="-202" rx="18" ry="18"/>
<text text-anchor="middle" x="54.454" y="-198.3" font-family="Times,serif" font-size="14.00">1</text>
</g>
<!-- 0&#45;&gt;1 -->
<g id="edge1" class="edge"><title>0&#45;&gt;1</title>
<path fill="none" stroke="black" d="M35.0814,-272.418C38.5012,-260.164 43.2253,-243.236 47.1522,-229.165"/>
<polygon fill="black" stroke="black" points="50.5239,-230.104 49.8407,-219.531 43.7815,-228.222 50.5239,-230.104"/>
<text text-anchor="middle" x="47.954" y="-242.3" font-family="Times,serif" font-size="14.00">b</text>
</g>
<!-- 2 -->
<g id="node3" class="node"><title>2</title>
<ellipse fill="lightblue" stroke="black" cx="26.454" cy="-18" rx="18" ry="18"/>
<text text-anchor="middle" x="26.454" y="-14.3" font-family="Times,serif" font-size="14.00">2</text>
</g>
<!-- 0&#45;&gt;2 -->
<g id="edge2" class="edge"><title>0&#45;&gt;2</title>
<path fill="none" stroke="black" d="M23.6434,-273.229C21.3382,-267.3 18.967,-260.436 17.454,-254 0.518208,-181.96 -4.0778,-161.51 4.45396,-88 6.18109,-73.119 11.0661,-57.1432 15.7955,-44.3152"/>
<polygon fill="black" stroke="black" points="19.1394,-45.3723 19.4916,-34.7833 12.6129,-42.8415 19.1394,-45.3723"/>
<text text-anchor="middle" x="3.95396" y="-154.3" font-family="Times,serif" font-size="14.00">a</text>
</g>
<!-- 1&#45;&gt;1 -->
<g id="edge3" class="edge"><title>1&#45;&gt;1</title>
<path fill="none" stroke="black" d="M70.7442,-209.668C80.8431,-211.517 90.454,-208.961 90.454,-202 90.454,-197.541 86.5097,-194.889 81.0196,-194.045"/>
<polygon fill="black" stroke="black" points="80.6427,-190.554 70.7442,-194.332 80.838,-197.552 80.6427,-190.554"/>
<text text-anchor="middle" x="93.954" y="-198.3" font-family="Times,serif" font-size="14.00">b</text>
</g>
<!-- 3 -->
<g id="node4" class="node"><title>3</title>
<ellipse fill="green" stroke="black" cx="35.454" cy="-110" rx="17.5909" ry="18"/>
<ellipse fill="none" stroke="black" cx="35.454" cy="-110" rx="21.5" ry="22"/>
<text text-anchor="middle" x="35.454" y="-106.3" font-family="Times,serif" font-size="14.00">3</text>
</g>
<!-- 1&#45;&gt;3 -->
<g id="edge4" class="edge"><title>1&#45;&gt;3</title>
<path fill="none" stroke="black" d="M50.8802,-184.072C48.3544,-172.107 44.8979,-155.735 41.897,-141.52"/>
<polygon fill="black" stroke="black" points="45.3024,-140.706 39.8122,-131.644 38.4533,-142.152 45.3024,-140.706"/>
<text text-anchor="middle" x="49.954" y="-154.3" font-family="Times,serif" font-size="14.00">a</text>
</g>
<!-- 2&#45;&gt;0 -->
<g id="edge5" class="edge"><title>2&#45;&gt;0</title>
<path fill="none" stroke="black" d="M36.3666,-33.1233C54.9222,-60.5909 94.1379,-123.805 106.454,-184 109.661,-199.675 112.932,-205.37 106.454,-220 95.9477,-243.729 72.8037,-262.788 54.7984,-274.812"/>
<polygon fill="black" stroke="black" points="52.5026,-272.125 45.9454,-280.447 56.261,-278.03 52.5026,-272.125"/>
<text text-anchor="middle" x="104.954" y="-154.3" font-family="Times,serif" font-size="14.00">a</text>
</g>
<!-- 2&#45;&gt;3 -->
<g id="edge6" class="edge"><title>2&#45;&gt;3</title>
<path fill="none" stroke="black" d="M28.1508,-35.968C29.3186,-47.6459 30.9049,-63.5097 32.3008,-77.4688"/>
<polygon fill="black" stroke="black" points="28.8433,-78.0692 33.3211,-87.6713 35.8086,-77.3726 28.8433,-78.0692"/>
<text text-anchor="middle" x="34.954" y="-58.3" font-family="Times,serif" font-size="14.00">b</text>
</g>
<!-- 3&#45;&gt;0 -->
<g id="edge7" class="edge"><title>3&#45;&gt;0</title>
<path fill="none" stroke="black" d="M30.0584,-131.595C26.5391,-146.124 22.2732,-166.108 20.454,-184 18.8355,-199.918 19.3036,-204.041 20.454,-220 21.4603,-233.959 23.5975,-249.385 25.6388,-262.104"/>
<polygon fill="black" stroke="black" points="22.2023,-262.775 27.304,-272.061 29.1064,-261.62 22.2023,-262.775"/>
<text text-anchor="middle" x="23.954" y="-198.3" font-family="Times,serif" font-size="14.00">a</text>
</g>
<!-- 3&#45;&gt;2 -->
<g id="edge8" class="edge"><title>3&#45;&gt;2</title>
<path fill="none" stroke="black" d="M25.5287,-90.4743C22.6535,-84.1612 19.9011,-76.9414 18.454,-70 16.7752,-61.9473 17.3284,-53.1133 18.7291,-45.0934"/>
<polygon fill="black" stroke="black" points="22.1852,-45.675 20.942,-35.1534 15.3525,-44.1538 22.1852,-45.675"/>
<text text-anchor="middle" x="21.954" y="-58.3" font-family="Times,serif" font-size="14.00">b</text>
</g>
</g>
</svg>
