<?xml version="1.0" encoding="UTF-8" standalone="no"?>
<!DOCTYPE svg PUBLIC "-//W3C//DTD SVG 1.1//EN"
 "http://www.w3.org/Graphics/SVG/1.1/DTD/svg11.dtd">
<!-- Generated by graphviz version 2.36.0 (20140111.2315)
 -->
<!-- Title: %3 Pages: 1 -->
<svg width="115pt" height="316pt"
 viewBox="0.00 0.00 115.00 316.00" xmlns="http://www.w3.org/2000/svg" xmlns:xlink="http://www.w3.org/1999/xlink">
<g id="graph0" class="graph" transform="scale(1 1) rotate(0) translate(4 312)">
<title>%3</title>
<polygon fill="white" stroke="none" points="-4,4 -4,-312 111,-312 111,4 -4,4"/>
<!-- 0 -->
<g id="node1" class="node"><title>0</title>
<ellipse fill="lightblue" stroke="black" cx="18" cy="-290" rx="18" ry="18"/>
<text text-anchor="middle" x="18" y="-286.3" font-family="Times,serif" font-size="14.00">0</text>
</g>
<!-- 0&#45;&gt;0 -->
<g id="edge1" class="edge"><title>0&#45;&gt;0</title>
<path fill="none" stroke="black" d="M34.2903,-297.668C44.3892,-299.517 54,-296.961 54,-290 54,-285.541 50.0557,-282.889 44.5656,-282.045"/>
<polygon fill="black" stroke="black" points="44.1887,-278.554 34.2903,-282.332 44.384,-285.552 44.1887,-278.554"/>
<text text-anchor="middle" x="57.5" y="-286.3" font-family="Times,serif" font-size="14.00">b</text>
</g>
<!-- 4 -->
<g id="node5" class="node"><title>4</title>
<ellipse fill="lightblue" stroke="black" cx="18" cy="-202" rx="18" ry="18"/>
<text text-anchor="middle" x="18" y="-198.3" font-family="Times,serif" font-size="14.00">4</text>
</g>
<!-- 0&#45;&gt;4 -->
<g id="edge2" class="edge"><title>0&#45;&gt;4</title>
<path fill="none" stroke="black" d="M11.3664,-273.258C9.20098,-267.332 7.07716,-260.463 6,-254 4.83094,-246.986 4.83094,-245.014 6,-238 6.52175,-234.87 7.28906,-231.644 8.18773,-228.476"/>
<polygon fill="black" stroke="black" points="11.5891,-229.335 11.3664,-218.742 4.93495,-227.162 11.5891,-229.335"/>
<text text-anchor="middle" x="9.5" y="-242.3" font-family="Times,serif" font-size="14.00">a</text>
</g>
<!-- 1 -->
<g id="node2" class="node"><title>1</title>
<ellipse fill="lightblue" stroke="black" cx="42" cy="-110" rx="17.5909" ry="18"/>
<ellipse fill="none" stroke="black" cx="42" cy="-110" rx="21.5" ry="22"/>
<text text-anchor="middle" x="42" y="-106.3" font-family="Times,serif" font-size="14.00">1</text>
</g>
<!-- 2 -->
<g id="node3" class="node"><title>2</title>
<ellipse fill="green" stroke="black" cx="45" cy="-18" rx="18" ry="18"/>
<text text-anchor="middle" x="45" y="-14.3" font-family="Times,serif" font-size="14.00">2</text>
</g>
<!-- 1&#45;&gt;2 -->
<g id="edge3" class="edge"><title>1&#45;&gt;2</title>
<path fill="none" stroke="black" d="M35.5255,-88.8807C32.9807,-78.467 31.0753,-65.5482 33,-54 33.5217,-50.8695 34.2891,-47.6437 35.1877,-44.476"/>
<polygon fill="black" stroke="black" points="38.5891,-45.3348 38.3664,-34.7423 31.9349,-43.1618 38.5891,-45.3348"/>
<text text-anchor="middle" x="36.5" y="-58.3" font-family="Times,serif" font-size="14.00">a</text>
</g>
<!-- 1&#45;&gt;4 -->
<g id="edge4" class="edge"><title>1&#45;&gt;4</title>
<path fill="none" stroke="black" d="M36.5306,-131.51C33.121,-144.296 28.7001,-160.875 25.0315,-174.632"/>
<polygon fill="black" stroke="black" points="21.5968,-173.928 22.402,-184.493 28.3605,-175.732 21.5968,-173.928"/>
<text text-anchor="middle" x="34.5" y="-154.3" font-family="Times,serif" font-size="14.00">b</text>
</g>
<!-- 2&#45;&gt;1 -->
<g id="edge5" class="edge"><title>2&#45;&gt;1</title>
<path fill="none" stroke="black" d="M44.4247,-36.2581C44.0358,-47.9274 43.5107,-63.6781 43.0487,-77.539"/>
<polygon fill="black" stroke="black" points="39.5461,-77.5602 42.711,-87.6713 46.5423,-77.7934 39.5461,-77.5602"/>
<text text-anchor="middle" x="46.5" y="-58.3" font-family="Times,serif" font-size="14.00">b</text>
</g>
<!-- 2&#45;&gt;4 -->
<g id="edge6" class="edge"><title>2&#45;&gt;4</title>
<path fill="none" stroke="black" d="M33.9474,-32.5114C23.9025,-45.732 9.79464,-66.9044 4,-88 -3.9915,-117.093 2.52214,-151.661 9.08578,-174.835"/>
<polygon fill="black" stroke="black" points="5.80164,-176.066 12.0531,-184.62 12.5004,-174.035 5.80164,-176.066"/>
<text text-anchor="middle" x="7.5" y="-106.3" font-family="Times,serif" font-size="14.00">a</text>
</g>
<!-- 3 -->
<g id="node4" class="node"><title>3</title>
<ellipse fill="lightblue" stroke="black" cx="89" cy="-202" rx="18" ry="18"/>
<text text-anchor="middle" x="89" y="-198.3" font-family="Times,serif" font-size="14.00">3</text>
</g>
<!-- 3&#45;&gt;1 -->
<g id="edge7" class="edge"><title>3&#45;&gt;1</title>
<path fill="none" stroke="black" d="M81.0271,-185.733C74.347,-172.941 64.6371,-154.348 56.5739,-138.907"/>
<polygon fill="black" stroke="black" points="59.5395,-137.025 51.808,-129.781 53.3347,-140.266 59.5395,-137.025"/>
<text text-anchor="middle" x="72.5" y="-154.3" font-family="Times,serif" font-size="14.00">b</text>
</g>
<!-- 3&#45;&gt;2 -->
<g id="edge8" class="edge"><title>3&#45;&gt;2</title>
<path fill="none" stroke="black" d="M87.6281,-183.911C85.5634,-161.567 80.9128,-121.349 72,-88 67.977,-72.9472 61.7166,-56.692 56.2365,-43.742"/>
<polygon fill="black" stroke="black" points="59.4419,-42.3361 52.248,-34.5579 53.0212,-45.1245 59.4419,-42.3361"/>
<text text-anchor="middle" x="83.5" y="-106.3" font-family="Times,serif" font-size="14.00">a</text>
</g>
<!-- 4&#45;&gt;0 -->
<g id="edge9" class="edge"><title>4&#45;&gt;0</title>
<path fill="none" stroke="black" d="M18,-220.084C18,-231.861 18,-247.774 18,-261.342"/>
<polygon fill="black" stroke="black" points="14.5001,-261.597 18,-271.597 21.5001,-261.597 14.5001,-261.597"/>
<text text-anchor="middle" x="21.5" y="-242.3" font-family="Times,serif" font-size="14.00">b</text>
</g>
<!-- 4&#45;&gt;1 -->
<g id="edge10" class="edge"><title>4&#45;&gt;1</title>
<path fill="none" stroke="black" d="M17.1768,-183.692C17.1524,-173.672 17.9024,-160.922 21,-150 22.1802,-145.838 23.8557,-141.623 25.7517,-137.578"/>
<polygon fill="black" stroke="black" points="28.9357,-139.041 30.447,-128.555 22.7261,-135.81 28.9357,-139.041"/>
<text text-anchor="middle" x="24.5" y="-154.3" font-family="Times,serif" font-size="14.00">a</text>
</g>
</g>
</svg>
