<?xml version="1.0" encoding="UTF-8" standalone="no"?>
<!DOCTYPE svg PUBLIC "-//W3C//DTD SVG 1.1//EN"
 "http://www.w3.org/Graphics/SVG/1.1/DTD/svg11.dtd">
<!-- Generated by graphviz version 2.36.0 (20140111.2315)
 -->
<!-- Title: %3 Pages: 1 -->
<svg width="152pt" height="316pt"
 viewBox="0.00 0.00 152.00 316.00" xmlns="http://www.w3.org/2000/svg" xmlns:xlink="http://www.w3.org/1999/xlink">
<g id="graph0" class="graph" transform="scale(1 1) rotate(0) translate(4 312)">
<title>%3</title>
<polygon fill="white" stroke="none" points="-4,4 -4,-312 148,-312 148,4 -4,4"/>
<!-- 0 -->
<g id="node1" class="node"><title>0</title>
<ellipse fill="lightblue" stroke="black" cx="101" cy="-198" rx="17.5909" ry="18"/>
<ellipse fill="none" stroke="black" cx="101" cy="-198" rx="21.5" ry="22"/>
<text text-anchor="middle" x="101" y="-194.3" font-family="Times,serif" font-size="14.00">0</text>
</g>
<!-- 1 -->
<g id="node2" class="node"><title>1</title>
<ellipse fill="green" stroke="black" cx="65" cy="-106" rx="18" ry="18"/>
<text text-anchor="middle" x="65" y="-102.3" font-family="Times,serif" font-size="14.00">1</text>
</g>
<!-- 0&#45;&gt;1 -->
<g id="edge1" class="edge"><title>0&#45;&gt;1</title>
<path fill="none" stroke="black" d="M93.1885,-177.471C87.8791,-164.198 80.8062,-146.515 75.0735,-132.184"/>
<polygon fill="black" stroke="black" points="78.3207,-130.878 71.3571,-122.893 71.8214,-133.477 78.3207,-130.878"/>
<text text-anchor="middle" x="93.5" y="-146.3" font-family="Times,serif" font-size="14.00">b,a</text>
</g>
<!-- 1&#45;&gt;1 -->
<g id="edge2" class="edge"><title>1&#45;&gt;1</title>
<path fill="none" stroke="black" d="M81.2903,-113.668C91.3892,-115.517 101,-112.961 101,-106 101,-101.541 97.0557,-98.8891 91.5656,-98.0454"/>
<polygon fill="black" stroke="black" points="91.1887,-94.5544 81.2903,-98.3321 91.384,-101.552 91.1887,-94.5544"/>
<text text-anchor="middle" x="104.5" y="-102.3" font-family="Times,serif" font-size="14.00">a</text>
</g>
<!-- 3 -->
<g id="node4" class="node"><title>3</title>
<ellipse fill="lightblue" stroke="black" cx="65" cy="-18" rx="18" ry="18"/>
<text text-anchor="middle" x="65" y="-14.3" font-family="Times,serif" font-size="14.00">3</text>
</g>
<!-- 1&#45;&gt;3 -->
<g id="edge3" class="edge"><title>1&#45;&gt;3</title>
<path fill="none" stroke="black" d="M58.3664,-89.2577C56.201,-83.3321 54.0772,-76.4629 53,-70 51.8309,-62.9856 51.8309,-61.0144 53,-54 53.5217,-50.8695 54.2891,-47.6437 55.1877,-44.476"/>
<polygon fill="black" stroke="black" points="58.5891,-45.3348 58.3664,-34.7423 51.9349,-43.1618 58.5891,-45.3348"/>
<text text-anchor="middle" x="56.5" y="-58.3" font-family="Times,serif" font-size="14.00">b</text>
</g>
<!-- 2 -->
<g id="node3" class="node"><title>2</title>
<ellipse fill="lightblue" stroke="black" cx="18" cy="-198" rx="18" ry="18"/>
<text text-anchor="middle" x="18" y="-194.3" font-family="Times,serif" font-size="14.00">2</text>
</g>
<!-- 2&#45;&gt;1 -->
<g id="edge4" class="edge"><title>2&#45;&gt;1</title>
<path fill="none" stroke="black" d="M25.9729,-181.733C33.1302,-168.027 43.7655,-147.662 52.127,-131.65"/>
<polygon fill="black" stroke="black" points="55.4613,-132.826 56.988,-122.342 49.2565,-129.586 55.4613,-132.826"/>
<text text-anchor="middle" x="48.5" y="-146.3" font-family="Times,serif" font-size="14.00">a</text>
</g>
<!-- 2&#45;&gt;2 -->
<g id="edge5" class="edge"><title>2&#45;&gt;2</title>
<path fill="none" stroke="black" d="M34.2903,-206.365C44.3892,-208.382 54,-205.594 54,-198 54,-193.135 50.0557,-190.243 44.5656,-189.322"/>
<polygon fill="black" stroke="black" points="44.1791,-185.832 34.2903,-189.635 44.3922,-192.829 44.1791,-185.832"/>
<text text-anchor="middle" x="57.5" y="-194.3" font-family="Times,serif" font-size="14.00">b</text>
</g>
<!-- 3&#45;&gt;1 -->
<g id="edge6" class="edge"><title>3&#45;&gt;1</title>
<path fill="none" stroke="black" d="M65,-36.084C65,-47.8607 65,-63.7741 65,-77.342"/>
<polygon fill="black" stroke="black" points="61.5001,-77.5966 65,-87.5966 68.5001,-77.5967 61.5001,-77.5966"/>
<text text-anchor="middle" x="68.5" y="-58.3" font-family="Times,serif" font-size="14.00">a</text>
</g>
<!-- 3&#45;&gt;3 -->
<g id="edge7" class="edge"><title>3&#45;&gt;3</title>
<path fill="none" stroke="black" d="M81.2903,-25.6679C91.3892,-27.5169 101,-24.9609 101,-18 101,-13.5406 97.0557,-10.8891 91.5656,-10.0454"/>
<polygon fill="black" stroke="black" points="91.1887,-6.55441 81.2903,-10.3321 91.384,-13.5517 91.1887,-6.55441"/>
<text text-anchor="middle" x="104.5" y="-14.3" font-family="Times,serif" font-size="14.00">b</text>
</g>
<!-- 4 -->
<g id="node5" class="node"><title>4</title>
<ellipse fill="lightblue" stroke="black" cx="101" cy="-290" rx="18" ry="18"/>
<text text-anchor="middle" x="101" y="-286.3" font-family="Times,serif" font-size="14.00">4</text>
</g>
<!-- 4&#45;&gt;0 -->
<g id="edge8" class="edge"><title>4&#45;&gt;0</title>
<path fill="none" stroke="black" d="M101,-271.647C101,-259.924 101,-244.114 101,-230.237"/>
<polygon fill="black" stroke="black" points="104.5,-230.101 101,-220.101 97.5001,-230.101 104.5,-230.101"/>
<text text-anchor="middle" x="104.5" y="-242.3" font-family="Times,serif" font-size="14.00">a</text>
</g>
<!-- 4&#45;&gt;4 -->
<g id="edge9" class="edge"><title>4&#45;&gt;4</title>
<path fill="none" stroke="black" d="M117.29,-297.668C127.389,-299.517 137,-296.961 137,-290 137,-285.541 133.056,-282.889 127.566,-282.045"/>
<polygon fill="black" stroke="black" points="127.189,-278.554 117.29,-282.332 127.384,-285.552 127.189,-278.554"/>
<text text-anchor="middle" x="140.5" y="-286.3" font-family="Times,serif" font-size="14.00">b</text>
</g>
</g>
</svg>
