<?xml version="1.0" encoding="UTF-8" standalone="no"?>
<!DOCTYPE svg PUBLIC "-//W3C//DTD SVG 1.1//EN"
 "http://www.w3.org/Graphics/SVG/1.1/DTD/svg11.dtd">
<!-- Generated by graphviz version 2.36.0 (20140111.2315)
 -->
<!-- Title: %3 Pages: 1 -->
<svg width="110pt" height="316pt"
 viewBox="0.00 0.00 110.00 316.00" xmlns="http://www.w3.org/2000/svg" xmlns:xlink="http://www.w3.org/1999/xlink">
<g id="graph0" class="graph" transform="scale(1 1) rotate(0) translate(4 312)">
<title>%3</title>
<polygon fill="white" stroke="none" points="-4,4 -4,-312 106,-312 106,4 -4,4"/>
<!-- 0 -->
<g id="node1" class="node"><title>0</title>
<ellipse fill="lightblue" stroke="black" cx="84" cy="-290" rx="18" ry="18"/>
<text text-anchor="middle" x="84" y="-286.3" font-family="Times,serif" font-size="14.00">0</text>
</g>
<!-- 2 -->
<g id="node3" class="node"><title>2</title>
<ellipse fill="lightblue" stroke="black" cx="22" cy="-198" rx="17.5909" ry="18"/>
<ellipse fill="none" stroke="black" cx="22" cy="-198" rx="21.5" ry="22"/>
<text text-anchor="middle" x="22" y="-194.3" font-family="Times,serif" font-size="14.00">2</text>
</g>
<!-- 0&#45;&gt;2 -->
<g id="edge1" class="edge"><title>0&#45;&gt;2</title>
<path fill="none" stroke="black" d="M74.0386,-274.54C64.8542,-261.208 51.0047,-241.104 39.902,-224.987"/>
<polygon fill="black" stroke="black" points="42.6188,-222.761 34.0634,-216.511 36.8542,-226.732 42.6188,-222.761"/>
<text text-anchor="middle" x="67.5" y="-242.3" font-family="Times,serif" font-size="14.00">b,a</text>
</g>
<!-- 1 -->
<g id="node2" class="node"><title>1</title>
<ellipse fill="green" stroke="black" cx="75" cy="-106" rx="18" ry="18"/>
<text text-anchor="middle" x="75" y="-102.3" font-family="Times,serif" font-size="14.00">1</text>
</g>
<!-- 1&#45;&gt;0 -->
<g id="edge2" class="edge"><title>1&#45;&gt;0</title>
<path fill="none" stroke="black" d="M75.851,-124.209C77.4155,-155.847 80.7603,-223.486 82.642,-261.537"/>
<polygon fill="black" stroke="black" points="79.1636,-262.063 83.1533,-271.878 86.155,-261.717 79.1636,-262.063"/>
<text text-anchor="middle" x="83.5" y="-194.3" font-family="Times,serif" font-size="14.00">b</text>
</g>
<!-- 3 -->
<g id="node4" class="node"><title>3</title>
<ellipse fill="lightblue" stroke="black" cx="55" cy="-18" rx="18" ry="18"/>
<text text-anchor="middle" x="55" y="-14.3" font-family="Times,serif" font-size="14.00">3</text>
</g>
<!-- 1&#45;&gt;3 -->
<g id="edge3" class="edge"><title>1&#45;&gt;3</title>
<path fill="none" stroke="black" d="M71.0486,-88.0092C68.2364,-75.9167 64.402,-59.4284 61.1863,-45.6011"/>
<polygon fill="black" stroke="black" points="64.5493,-44.6102 58.8751,-35.6629 57.7313,-46.1958 64.5493,-44.6102"/>
<text text-anchor="middle" x="70.5" y="-58.3" font-family="Times,serif" font-size="14.00">a</text>
</g>
<!-- 2&#45;&gt;1 -->
<g id="edge4" class="edge"><title>2&#45;&gt;1</title>
<path fill="none" stroke="black" d="M32.7253,-178.787C40.8912,-164.921 52.1992,-145.718 61.0653,-130.663"/>
<polygon fill="black" stroke="black" points="64.1617,-132.302 66.2203,-121.909 58.1299,-128.75 64.1617,-132.302"/>
<text text-anchor="middle" x="57.5" y="-146.3" font-family="Times,serif" font-size="14.00">b</text>
</g>
<!-- 2&#45;&gt;2 -->
<g id="edge5" class="edge"><title>2&#45;&gt;2</title>
<path fill="none" stroke="black" d="M42.0663,-206.734C52.0736,-207.943 61,-205.031 61,-198 61,-193.496 57.3366,-190.682 52.0725,-189.559"/>
<polygon fill="black" stroke="black" points="52.1646,-186.061 42.0663,-189.266 51.9594,-193.057 52.1646,-186.061"/>
<text text-anchor="middle" x="64.5" y="-194.3" font-family="Times,serif" font-size="14.00">a</text>
</g>
<!-- 3&#45;&gt;1 -->
<g id="edge6" class="edge"><title>3&#45;&gt;1</title>
<path fill="none" stroke="black" d="M54.3485,-36.2616C54.3813,-46.2655 55.1313,-59.0155 58,-70 58.9612,-73.6806 60.3222,-77.4355 61.8604,-81.0539"/>
<polygon fill="black" stroke="black" points="58.739,-82.6401 66.1938,-90.1685 65.0609,-79.6344 58.739,-82.6401"/>
<text text-anchor="middle" x="61.5" y="-58.3" font-family="Times,serif" font-size="14.00">a</text>
</g>
<!-- 3&#45;&gt;2 -->
<g id="edge7" class="edge"><title>3&#45;&gt;2</title>
<path fill="none" stroke="black" d="M51.4759,-35.7061C48.5638,-49.6646 44.3748,-70.1028 41,-88 36.0446,-114.279 30.8598,-144.212 27.1606,-166.053"/>
<polygon fill="black" stroke="black" points="23.6825,-165.63 25.4715,-176.073 30.5851,-166.794 23.6825,-165.63"/>
<text text-anchor="middle" x="44.5" y="-102.3" font-family="Times,serif" font-size="14.00">b</text>
</g>
</g>
</svg>
