<?xml version="1.0" encoding="UTF-8" standalone="no"?>
<!DOCTYPE svg PUBLIC "-//W3C//DTD SVG 1.1//EN"
 "http://www.w3.org/Graphics/SVG/1.1/DTD/svg11.dtd">
<!-- Generated by graphviz version 2.36.0 (20140111.2315)
 -->
<!-- Title: %3 Pages: 1 -->
<svg width="101pt" height="316pt"
 viewBox="0.00 0.00 101.00 316.00" xmlns="http://www.w3.org/2000/svg" xmlns:xlink="http://www.w3.org/1999/xlink">
<g id="graph0" class="graph" transform="scale(1 1) rotate(0) translate(4 312)">
<title>%3</title>
<polygon fill="white" stroke="none" points="-4,4 -4,-312 97,-312 97,4 -4,4"/>
<!-- 0 -->
<g id="node1" class="node"><title>0</title>
<ellipse fill="lightblue" stroke="black" cx="61" cy="-286" rx="17.5909" ry="18"/>
<ellipse fill="none" stroke="black" cx="61" cy="-286" rx="21.5" ry="22"/>
<text text-anchor="middle" x="61" y="-282.3" font-family="Times,serif" font-size="14.00">0</text>
</g>
<!-- 2 -->
<g id="node3" class="node"><title>2</title>
<ellipse fill="lightblue" stroke="black" cx="18" cy="-194" rx="18" ry="18"/>
<text text-anchor="middle" x="18" y="-190.3" font-family="Times,serif" font-size="14.00">2</text>
</g>
<!-- 0&#45;&gt;2 -->
<g id="edge1" class="edge"><title>0&#45;&gt;2</title>
<path fill="none" stroke="black" d="M43.7461,-272.51C35.6791,-265.657 26.8092,-256.436 22,-246 18.6778,-238.791 17.1877,-230.399 16.6555,-222.53"/>
<polygon fill="black" stroke="black" points="20.1496,-222.206 16.4412,-212.282 13.1511,-222.353 20.1496,-222.206"/>
<text text-anchor="middle" x="25.5" y="-234.3" font-family="Times,serif" font-size="14.00">b</text>
</g>
<!-- 3 -->
<g id="node4" class="node"><title>3</title>
<ellipse fill="green" stroke="black" cx="72" cy="-106" rx="18" ry="18"/>
<text text-anchor="middle" x="72" y="-102.3" font-family="Times,serif" font-size="14.00">3</text>
</g>
<!-- 0&#45;&gt;3 -->
<g id="edge2" class="edge"><title>0&#45;&gt;3</title>
<path fill="none" stroke="black" d="M62.305,-263.882C64.301,-231.584 68.1116,-169.922 70.3142,-134.279"/>
<polygon fill="black" stroke="black" points="73.8188,-134.311 70.9424,-124.114 66.8322,-133.879 73.8188,-134.311"/>
<text text-anchor="middle" x="70.5" y="-190.3" font-family="Times,serif" font-size="14.00">a</text>
</g>
<!-- 1 -->
<g id="node2" class="node"><title>1</title>
<ellipse fill="lightblue" stroke="black" cx="50" cy="-18" rx="18" ry="18"/>
<text text-anchor="middle" x="50" y="-14.3" font-family="Times,serif" font-size="14.00">1</text>
</g>
<!-- 1&#45;&gt;2 -->
<g id="edge3" class="edge"><title>1&#45;&gt;2</title>
<path fill="none" stroke="black" d="M46.9079,-35.8135C41.3509,-66.0297 29.6333,-129.744 22.9483,-166.093"/>
<polygon fill="black" stroke="black" points="19.4931,-165.531 21.1266,-175.999 26.3777,-166.797 19.4931,-165.531"/>
<text text-anchor="middle" x="40.5" y="-102.3" font-family="Times,serif" font-size="14.00">a</text>
</g>
<!-- 1&#45;&gt;3 -->
<g id="edge4" class="edge"><title>1&#45;&gt;3</title>
<path fill="none" stroke="black" d="M54.2288,-35.5308C57.3299,-47.6532 61.6061,-64.3693 65.1867,-78.3661"/>
<polygon fill="black" stroke="black" points="61.889,-79.5977 67.7582,-88.4183 68.6706,-77.8629 61.889,-79.5977"/>
<text text-anchor="middle" x="65.5" y="-58.3" font-family="Times,serif" font-size="14.00">b</text>
</g>
<!-- 2&#45;&gt;0 -->
<g id="edge5" class="edge"><title>2&#45;&gt;0</title>
<path fill="none" stroke="black" d="M25.392,-210.472C31.4683,-223.189 40.2364,-241.541 47.5512,-256.851"/>
<polygon fill="black" stroke="black" points="44.4117,-258.399 51.8808,-265.913 50.7278,-255.381 44.4117,-258.399"/>
<text text-anchor="middle" x="45.5" y="-234.3" font-family="Times,serif" font-size="14.00">a</text>
</g>
<!-- 2&#45;&gt;3 -->
<g id="edge6" class="edge"><title>2&#45;&gt;3</title>
<path fill="none" stroke="black" d="M27.1604,-178.411C35.3836,-165.315 47.6029,-145.855 57.2098,-130.555"/>
<polygon fill="black" stroke="black" points="60.4411,-131.99 62.7947,-121.66 54.5129,-128.268 60.4411,-131.99"/>
<text text-anchor="middle" x="52.5" y="-146.3" font-family="Times,serif" font-size="14.00">b</text>
</g>
<!-- 3&#45;&gt;0 -->
<g id="edge7" class="edge"><title>3&#45;&gt;0</title>
<path fill="none" stroke="black" d="M78.1997,-123.137C80.1442,-128.986 82.034,-135.704 83,-142 90.0221,-187.763 87.4964,-200.906 77,-246 76.1958,-249.455 75.1226,-252.999 73.9111,-256.476"/>
<polygon fill="black" stroke="black" points="70.5849,-255.373 70.2389,-265.963 77.1129,-257.9 70.5849,-255.373"/>
<text text-anchor="middle" x="89.5" y="-190.3" font-family="Times,serif" font-size="14.00">a</text>
</g>
<!-- 3&#45;&gt;1 -->
<g id="edge8" class="edge"><title>3&#45;&gt;1</title>
<path fill="none" stroke="black" d="M62.3466,-90.6314C58.7514,-84.5315 55.0496,-77.1803 53,-70 50.8576,-62.4946 49.8337,-54.1228 49.4123,-46.3672"/>
<polygon fill="black" stroke="black" points="52.9099,-46.2224 49.1629,-36.3123 45.9121,-46.3961 52.9099,-46.2224"/>
<text text-anchor="middle" x="56.5" y="-58.3" font-family="Times,serif" font-size="14.00">b</text>
</g>
</g>
</svg>
