<?xml version="1.0" encoding="UTF-8" standalone="no"?>
<!DOCTYPE svg PUBLIC "-//W3C//DTD SVG 1.1//EN"
 "http://www.w3.org/Graphics/SVG/1.1/DTD/svg11.dtd">
<!-- Generated by graphviz version 2.36.0 (20140111.2315)
 -->
<!-- Title: %3 Pages: 1 -->
<svg width="137pt" height="316pt"
 viewBox="0.00 0.00 137.00 316.00" xmlns="http://www.w3.org/2000/svg" xmlns:xlink="http://www.w3.org/1999/xlink">
<g id="graph0" class="graph" transform="scale(1 1) rotate(0) translate(4 312)">
<title>%3</title>
<polygon fill="white" stroke="none" points="-4,4 -4,-312 133,-312 133,4 -4,4"/>
<!-- 0 -->
<g id="node1" class="node"><title>0</title>
<ellipse fill="lightblue" stroke="black" cx="18" cy="-114" rx="18" ry="18"/>
<text text-anchor="middle" x="18" y="-110.3" font-family="Times,serif" font-size="14.00">0</text>
</g>
<!-- 2 -->
<g id="node3" class="node"><title>2</title>
<ellipse fill="lightblue" stroke="black" cx="72" cy="-22" rx="17.5909" ry="18"/>
<ellipse fill="none" stroke="black" cx="72" cy="-22" rx="21.5" ry="22"/>
<text text-anchor="middle" x="72" y="-18.3" font-family="Times,serif" font-size="14.00">2</text>
</g>
<!-- 0&#45;&gt;2 -->
<g id="edge1" class="edge"><title>0&#45;&gt;2</title>
<path fill="none" stroke="black" d="M24.0748,-96.8626C28.2393,-86.5644 34.2233,-73.1119 41,-62 44.0398,-57.0156 47.6318,-51.9482 51.2735,-47.1883"/>
<polygon fill="black" stroke="black" points="54.2755,-49.0373 57.7735,-39.0366 48.8024,-44.6732 54.2755,-49.0373"/>
<text text-anchor="middle" x="49.5" y="-66.3" font-family="Times,serif" font-size="14.00">b,a</text>
</g>
<!-- 1 -->
<g id="node2" class="node"><title>1</title>
<ellipse fill="green" stroke="black" cx="61" cy="-202" rx="18" ry="18"/>
<text text-anchor="middle" x="61" y="-198.3" font-family="Times,serif" font-size="14.00">1</text>
</g>
<!-- 1&#45;&gt;0 -->
<g id="edge2" class="edge"><title>1&#45;&gt;0</title>
<path fill="none" stroke="black" d="M53.3125,-185.625C46.9316,-172.863 37.7361,-154.472 30.3282,-139.656"/>
<polygon fill="black" stroke="black" points="33.3687,-137.911 25.766,-130.532 27.1077,-141.041 33.3687,-137.911"/>
<text text-anchor="middle" x="47.5" y="-154.3" font-family="Times,serif" font-size="14.00">b</text>
</g>
<!-- 1&#45;&gt;2 -->
<g id="edge3" class="edge"><title>1&#45;&gt;2</title>
<path fill="none" stroke="black" d="M62.0547,-183.933C63.895,-154.154 67.7183,-92.2862 70.0516,-54.5293"/>
<polygon fill="black" stroke="black" points="73.5721,-54.3038 70.6956,-44.1069 66.5854,-53.872 73.5721,-54.3038"/>
<text text-anchor="middle" x="71.5" y="-110.3" font-family="Times,serif" font-size="14.00">a</text>
</g>
<!-- 2&#45;&gt;2 -->
<g id="edge4" class="edge"><title>2&#45;&gt;2</title>
<path fill="none" stroke="black" d="M92.0663,-30.7341C102.074,-31.9426 111,-29.0312 111,-22 111,-17.4956 107.337,-14.682 102.072,-13.5592"/>
<polygon fill="black" stroke="black" points="102.165,-10.0605 92.0663,-13.2659 101.959,-17.0575 102.165,-10.0605"/>
<text text-anchor="middle" x="119.5" y="-18.3" font-family="Times,serif" font-size="14.00">b,a</text>
</g>
<!-- 3 -->
<g id="node4" class="node"><title>3</title>
<ellipse fill="lightblue" stroke="black" cx="90" cy="-290" rx="18" ry="18"/>
<text text-anchor="middle" x="90" y="-286.3" font-family="Times,serif" font-size="14.00">3</text>
</g>
<!-- 3&#45;&gt;1 -->
<g id="edge5" class="edge"><title>3&#45;&gt;1</title>
<path fill="none" stroke="black" d="M84.5453,-272.824C80.3996,-260.53 74.6115,-243.365 69.8116,-229.131"/>
<polygon fill="black" stroke="black" points="73.0407,-227.753 66.5288,-219.396 66.4077,-229.99 73.0407,-227.753"/>
<text text-anchor="middle" x="81.5" y="-242.3" font-family="Times,serif" font-size="14.00">a</text>
</g>
<!-- 3&#45;&gt;2 -->
<g id="edge6" class="edge"><title>3&#45;&gt;2</title>
<path fill="none" stroke="black" d="M91.1639,-271.759C93.3858,-233.626 96.9353,-139.379 84,-62 83.4908,-58.954 82.8071,-55.8145 82.023,-52.7017"/>
<polygon fill="black" stroke="black" points="85.3656,-51.66 79.2673,-42.9962 78.6318,-53.5719 85.3656,-51.66"/>
<text text-anchor="middle" x="95.5" y="-154.3" font-family="Times,serif" font-size="14.00">b</text>
</g>
</g>
</svg>
