<?xml version="1.0" encoding="UTF-8" standalone="no"?>
<!DOCTYPE svg PUBLIC "-//W3C//DTD SVG 1.1//EN"
 "http://www.w3.org/Graphics/SVG/1.1/DTD/svg11.dtd">
<!-- Generated by graphviz version 2.36.0 (20140111.2315)
 -->
<!-- Title: %3 Pages: 1 -->
<svg width="93pt" height="404pt"
 viewBox="0.00 0.00 93.00 404.00" xmlns="http://www.w3.org/2000/svg" xmlns:xlink="http://www.w3.org/1999/xlink">
<g id="graph0" class="graph" transform="scale(1 1) rotate(0) translate(4 400)">
<title>%3</title>
<polygon fill="white" stroke="none" points="-4,4 -4,-400 89,-400 89,4 -4,4"/>
<!-- 0 -->
<g id="node1" class="node"><title>0</title>
<ellipse fill="lightblue" stroke="black" cx="21" cy="-198" rx="17.5909" ry="18"/>
<ellipse fill="none" stroke="black" cx="21" cy="-198" rx="21.5" ry="22"/>
<text text-anchor="middle" x="21" y="-194.3" font-family="Times,serif" font-size="14.00">0</text>
</g>
<!-- 0&#45;&gt;0 -->
<g id="edge1" class="edge"><title>0&#45;&gt;0</title>
<path fill="none" stroke="black" d="M41.0663,-206.734C51.0736,-207.943 60,-205.031 60,-198 60,-193.496 56.3366,-190.682 51.0725,-189.559"/>
<polygon fill="black" stroke="black" points="51.1646,-186.061 41.0663,-189.266 50.9594,-193.057 51.1646,-186.061"/>
<text text-anchor="middle" x="63.5" y="-194.3" font-family="Times,serif" font-size="14.00">b</text>
</g>
<!-- 4 -->
<g id="node5" class="node"><title>4</title>
<ellipse fill="lightblue" stroke="black" cx="67" cy="-106" rx="18" ry="18"/>
<text text-anchor="middle" x="67" y="-102.3" font-family="Times,serif" font-size="14.00">4</text>
</g>
<!-- 0&#45;&gt;4 -->
<g id="edge2" class="edge"><title>0&#45;&gt;4</title>
<path fill="none" stroke="black" d="M32.7892,-179.062C36.8683,-172.548 41.3326,-165.054 45,-158 49.1744,-149.971 53.2446,-140.975 56.7261,-132.8"/>
<polygon fill="black" stroke="black" points="60.0452,-133.934 60.6482,-123.356 53.5805,-131.249 60.0452,-133.934"/>
<text text-anchor="middle" x="55.5" y="-146.3" font-family="Times,serif" font-size="14.00">a</text>
</g>
<!-- 1 -->
<g id="node2" class="node"><title>1</title>
<ellipse fill="lightblue" stroke="black" cx="40" cy="-378" rx="18" ry="18"/>
<text text-anchor="middle" x="40" y="-374.3" font-family="Times,serif" font-size="14.00">1</text>
</g>
<!-- 1&#45;&gt;0 -->
<g id="edge3" class="edge"><title>1&#45;&gt;0</title>
<path fill="none" stroke="black" d="M37.2424,-360.024C35.049,-346.08 32.0228,-325.8 30,-308 27.0336,-281.896 24.6447,-252.17 23.0756,-230.361"/>
<polygon fill="black" stroke="black" points="26.5641,-230.072 22.3723,-220.342 19.5812,-230.562 26.5641,-230.072"/>
<text text-anchor="middle" x="33.5" y="-286.3" font-family="Times,serif" font-size="14.00">b</text>
</g>
<!-- 2 -->
<g id="node3" class="node"><title>2</title>
<ellipse fill="lightblue" stroke="black" cx="64" cy="-290" rx="18" ry="18"/>
<text text-anchor="middle" x="64" y="-286.3" font-family="Times,serif" font-size="14.00">2</text>
</g>
<!-- 1&#45;&gt;2 -->
<g id="edge4" class="edge"><title>1&#45;&gt;2</title>
<path fill="none" stroke="black" d="M44.6274,-360.418C48.0472,-348.164 52.7713,-331.236 56.6983,-317.165"/>
<polygon fill="black" stroke="black" points="60.0699,-318.104 59.3868,-307.531 53.3275,-316.222 60.0699,-318.104"/>
<text text-anchor="middle" x="57.5" y="-330.3" font-family="Times,serif" font-size="14.00">a</text>
</g>
<!-- 2&#45;&gt;0 -->
<g id="edge5" class="edge"><title>2&#45;&gt;0</title>
<path fill="none" stroke="black" d="M56.51,-273.323C50.5095,-260.764 41.9302,-242.807 34.7077,-227.691"/>
<polygon fill="black" stroke="black" points="37.6673,-225.766 30.1982,-218.252 31.3512,-228.784 37.6673,-225.766"/>
<text text-anchor="middle" x="49.5" y="-242.3" font-family="Times,serif" font-size="14.00">a</text>
</g>
<!-- 2&#45;&gt;4 -->
<g id="edge6" class="edge"><title>2&#45;&gt;4</title>
<path fill="none" stroke="black" d="M68.0297,-272.392C71.1844,-258.492 75.3113,-238.084 77,-220 79.7506,-190.545 75.8304,-156.751 72.1208,-133.852"/>
<polygon fill="black" stroke="black" points="75.5454,-133.114 70.4014,-123.852 68.6467,-134.3 75.5454,-133.114"/>
<text text-anchor="middle" x="80.5" y="-194.3" font-family="Times,serif" font-size="14.00">b</text>
</g>
<!-- 3 -->
<g id="node4" class="node"><title>3</title>
<ellipse fill="green" stroke="black" cx="37" cy="-18" rx="18" ry="18"/>
<text text-anchor="middle" x="37" y="-14.3" font-family="Times,serif" font-size="14.00">3</text>
</g>
<!-- 3&#45;&gt;0 -->
<g id="edge7" class="edge"><title>3&#45;&gt;0</title>
<path fill="none" stroke="black" d="M34.3355,-36.0617C33.5068,-41.7564 32.643,-48.1426 32,-54 27.808,-92.1882 24.6734,-136.288 22.8442,-165.302"/>
<polygon fill="black" stroke="black" points="19.329,-165.443 22.2077,-175.64 26.3158,-165.874 19.329,-165.443"/>
<text text-anchor="middle" x="31.5" y="-102.3" font-family="Times,serif" font-size="14.00">b</text>
</g>
<!-- 3&#45;&gt;4 -->
<g id="edge8" class="edge"><title>3&#45;&gt;4</title>
<path fill="none" stroke="black" d="M35.5293,-36.0538C35.2502,-46.2176 35.9607,-59.2004 40,-70 41.9332,-75.1686 44.9106,-80.195 48.193,-84.7513"/>
<polygon fill="black" stroke="black" points="45.6997,-87.2366 54.6868,-92.8476 51.1602,-82.8568 45.6997,-87.2366"/>
<text text-anchor="middle" x="43.5" y="-58.3" font-family="Times,serif" font-size="14.00">a</text>
</g>
<!-- 4&#45;&gt;0 -->
<g id="edge9" class="edge"><title>4&#45;&gt;0</title>
<path fill="none" stroke="black" d="M55.4002,-119.925C50.1677,-126.245 44.2276,-134.166 40,-142 35.8389,-149.711 32.3164,-158.51 29.4774,-166.776"/>
<polygon fill="black" stroke="black" points="26.0852,-165.892 26.3565,-176.483 32.7493,-168.034 26.0852,-165.892"/>
<text text-anchor="middle" x="43.5" y="-146.3" font-family="Times,serif" font-size="14.00">a</text>
</g>
<!-- 4&#45;&gt;3 -->
<g id="edge10" class="edge"><title>4&#45;&gt;3</title>
<path fill="none" stroke="black" d="M61.3572,-88.8241C57.0413,-76.4516 51.0045,-59.1462 46.0207,-44.8593"/>
<polygon fill="black" stroke="black" points="49.216,-43.3926 42.6175,-35.1034 42.6066,-45.6982 49.216,-43.3926"/>
<text text-anchor="middle" x="57.5" y="-58.3" font-family="Times,serif" font-size="14.00">b</text>
</g>
</g>
</svg>
