<?xml version="1.0" encoding="UTF-8" standalone="no"?>
<!DOCTYPE svg PUBLIC "-//W3C//DTD SVG 1.1//EN"
 "http://www.w3.org/Graphics/SVG/1.1/DTD/svg11.dtd">
<!-- Generated by graphviz version 2.36.0 (20140111.2315)
 -->
<!-- Title: %3 Pages: 1 -->
<svg width="131pt" height="316pt"
 viewBox="0.00 0.00 131.00 316.00" xmlns="http://www.w3.org/2000/svg" xmlns:xlink="http://www.w3.org/1999/xlink">
<g id="graph0" class="graph" transform="scale(1 1) rotate(0) translate(4 312)">
<title>%3</title>
<polygon fill="white" stroke="none" points="-4,4 -4,-312 127,-312 127,4 -4,4"/>
<!-- 0 -->
<g id="node1" class="node"><title>0</title>
<ellipse fill="lightblue" stroke="black" cx="80" cy="-290" rx="18" ry="18"/>
<text text-anchor="middle" x="80" y="-286.3" font-family="Times,serif" font-size="14.00">0</text>
</g>
<!-- 0&#45;&gt;0 -->
<g id="edge1" class="edge"><title>0&#45;&gt;0</title>
<path fill="none" stroke="black" d="M96.2903,-297.668C106.389,-299.517 116,-296.961 116,-290 116,-285.541 112.056,-282.889 106.566,-282.045"/>
<polygon fill="black" stroke="black" points="106.189,-278.554 96.2903,-282.332 106.384,-285.552 106.189,-278.554"/>
<text text-anchor="middle" x="119.5" y="-286.3" font-family="Times,serif" font-size="14.00">b</text>
</g>
<!-- 2 -->
<g id="node3" class="node"><title>2</title>
<ellipse fill="lightblue" stroke="black" cx="22" cy="-198" rx="17.5909" ry="18"/>
<ellipse fill="none" stroke="black" cx="22" cy="-198" rx="21.5" ry="22"/>
<text text-anchor="middle" x="22" y="-194.3" font-family="Times,serif" font-size="14.00">2</text>
</g>
<!-- 0&#45;&gt;2 -->
<g id="edge2" class="edge"><title>0&#45;&gt;2</title>
<path fill="none" stroke="black" d="M70.6813,-274.54C62.1434,-261.292 49.2963,-241.356 38.9433,-225.291"/>
<polygon fill="black" stroke="black" points="41.8505,-223.341 33.4914,-216.832 35.9665,-227.133 41.8505,-223.341"/>
<text text-anchor="middle" x="60.5" y="-242.3" font-family="Times,serif" font-size="14.00">a</text>
</g>
<!-- 1 -->
<g id="node2" class="node"><title>1</title>
<ellipse fill="green" stroke="black" cx="69" cy="-106" rx="18" ry="18"/>
<text text-anchor="middle" x="69" y="-102.3" font-family="Times,serif" font-size="14.00">1</text>
</g>
<!-- 1&#45;&gt;0 -->
<g id="edge3" class="edge"><title>1&#45;&gt;0</title>
<path fill="none" stroke="black" d="M70.0401,-124.209C71.9523,-155.847 76.0403,-223.486 78.3402,-261.537"/>
<polygon fill="black" stroke="black" points="74.8681,-262.107 78.9651,-271.878 81.8554,-261.685 74.8681,-262.107"/>
<text text-anchor="middle" x="78.5" y="-194.3" font-family="Times,serif" font-size="14.00">a</text>
</g>
<!-- 3 -->
<g id="node4" class="node"><title>3</title>
<ellipse fill="lightblue" stroke="black" cx="98" cy="-18" rx="18" ry="18"/>
<text text-anchor="middle" x="98" y="-14.3" font-family="Times,serif" font-size="14.00">3</text>
</g>
<!-- 1&#45;&gt;3 -->
<g id="edge4" class="edge"><title>1&#45;&gt;3</title>
<path fill="none" stroke="black" d="M74.4547,-88.8241C78.6004,-76.5299 84.3885,-59.365 89.1884,-45.1309"/>
<polygon fill="black" stroke="black" points="92.5923,-45.99 92.4712,-35.3958 85.9593,-43.7532 92.5923,-45.99"/>
<text text-anchor="middle" x="89.5" y="-58.3" font-family="Times,serif" font-size="14.00">b</text>
</g>
<!-- 2&#45;&gt;1 -->
<g id="edge5" class="edge"><title>2&#45;&gt;1</title>
<path fill="none" stroke="black" d="M31.0795,-177.761C36.1855,-167.134 42.7688,-153.746 49,-142 50.9371,-138.349 53.0449,-134.519 55.1416,-130.788"/>
<polygon fill="black" stroke="black" points="58.312,-132.294 60.227,-121.873 52.2318,-128.825 58.312,-132.294"/>
<text text-anchor="middle" x="57.5" y="-146.3" font-family="Times,serif" font-size="14.00">b,a</text>
</g>
<!-- 3&#45;&gt;0 -->
<g id="edge6" class="edge"><title>3&#45;&gt;0</title>
<path fill="none" stroke="black" d="M99.1247,-35.9764C101.349,-74.8855 104.965,-173.363 91,-254 90.4905,-256.942 89.7988,-259.98 89.0087,-262.98"/>
<polygon fill="black" stroke="black" points="85.5719,-262.258 86.0651,-272.841 92.2794,-264.26 85.5719,-262.258"/>
<text text-anchor="middle" x="108.5" y="-146.3" font-family="Times,serif" font-size="14.00">b,a</text>
</g>
</g>
</svg>
