<?xml version="1.0" encoding="UTF-8" standalone="no"?>
<!DOCTYPE svg PUBLIC "-//W3C//DTD SVG 1.1//EN"
 "http://www.w3.org/Graphics/SVG/1.1/DTD/svg11.dtd">
<!-- Generated by graphviz version 2.36.0 (20140111.2315)
 -->
<!-- Title: %3 Pages: 1 -->
<svg width="141pt" height="404pt"
 viewBox="0.00 0.00 141.00 404.00" xmlns="http://www.w3.org/2000/svg" xmlns:xlink="http://www.w3.org/1999/xlink">
<g id="graph0" class="graph" transform="scale(1 1) rotate(0) translate(4 400)">
<title>%3</title>
<polygon fill="white" stroke="none" points="-4,4 -4,-400 137,-400 137,4 -4,4"/>
<!-- 0 -->
<g id="node1" class="node"><title>0</title>
<ellipse fill="lightblue" stroke="black" cx="90" cy="-378" rx="18" ry="18"/>
<text text-anchor="middle" x="90" y="-374.3" font-family="Times,serif" font-size="14.00">0</text>
</g>
<!-- 0&#45;&gt;0 -->
<g id="edge1" class="edge"><title>0&#45;&gt;0</title>
<path fill="none" stroke="black" d="M106.29,-385.668C116.389,-387.517 126,-384.961 126,-378 126,-373.541 122.056,-370.889 116.566,-370.045"/>
<polygon fill="black" stroke="black" points="116.189,-366.554 106.29,-370.332 116.384,-373.552 116.189,-366.554"/>
<text text-anchor="middle" x="129.5" y="-374.3" font-family="Times,serif" font-size="14.00">b</text>
</g>
<!-- 2 -->
<g id="node3" class="node"><title>2</title>
<ellipse fill="lightblue" stroke="black" cx="90" cy="-290" rx="18" ry="18"/>
<text text-anchor="middle" x="90" y="-286.3" font-family="Times,serif" font-size="14.00">2</text>
</g>
<!-- 0&#45;&gt;2 -->
<g id="edge2" class="edge"><title>0&#45;&gt;2</title>
<path fill="none" stroke="black" d="M83.3664,-361.258C81.201,-355.332 79.0772,-348.463 78,-342 76.8309,-334.986 76.8309,-333.014 78,-326 78.5217,-322.87 79.2891,-319.644 80.1877,-316.476"/>
<polygon fill="black" stroke="black" points="83.5891,-317.335 83.3664,-306.742 76.9349,-315.162 83.5891,-317.335"/>
<text text-anchor="middle" x="81.5" y="-330.3" font-family="Times,serif" font-size="14.00">a</text>
</g>
<!-- 1 -->
<g id="node2" class="node"><title>1</title>
<ellipse fill="lightblue" stroke="black" cx="60" cy="-202" rx="18" ry="18"/>
<text text-anchor="middle" x="60" y="-198.3" font-family="Times,serif" font-size="14.00">1</text>
</g>
<!-- 1&#45;&gt;2 -->
<g id="edge3" class="edge"><title>1&#45;&gt;2</title>
<path fill="none" stroke="black" d="M65.6175,-219.103C69.9267,-231.457 75.9622,-248.758 80.9501,-263.057"/>
<polygon fill="black" stroke="black" points="77.7587,-264.535 84.3572,-272.824 84.3681,-262.229 77.7587,-264.535"/>
<text text-anchor="middle" x="81.5" y="-242.3" font-family="Times,serif" font-size="14.00">b</text>
</g>
<!-- 3 -->
<g id="node4" class="node"><title>3</title>
<ellipse fill="lightblue" stroke="black" cx="22" cy="-110" rx="17.5909" ry="18"/>
<ellipse fill="none" stroke="black" cx="22" cy="-110" rx="21.5" ry="22"/>
<text text-anchor="middle" x="22" y="-106.3" font-family="Times,serif" font-size="14.00">3</text>
</g>
<!-- 1&#45;&gt;3 -->
<g id="edge4" class="edge"><title>1&#45;&gt;3</title>
<path fill="none" stroke="black" d="M46.2775,-189.793C39.6,-183.53 32.1384,-175.152 28,-166 24.698,-158.697 22.9111,-150.313 22.0023,-142.326"/>
<polygon fill="black" stroke="black" points="25.4806,-141.9 21.2601,-132.182 18.4993,-142.411 25.4806,-141.9"/>
<text text-anchor="middle" x="31.5" y="-154.3" font-family="Times,serif" font-size="14.00">a</text>
</g>
<!-- 2&#45;&gt;0 -->
<g id="edge5" class="edge"><title>2&#45;&gt;0</title>
<path fill="none" stroke="black" d="M90,-308.084C90,-319.861 90,-335.774 90,-349.342"/>
<polygon fill="black" stroke="black" points="86.5001,-349.597 90,-359.597 93.5001,-349.597 86.5001,-349.597"/>
<text text-anchor="middle" x="93.5" y="-330.3" font-family="Times,serif" font-size="14.00">b</text>
</g>
<!-- 2&#45;&gt;1 -->
<g id="edge6" class="edge"><title>2&#45;&gt;1</title>
<path fill="none" stroke="black" d="M77.6868,-276.848C72.1568,-270.581 66.1724,-262.482 63,-254 60.223,-246.575 59.0193,-238.119 58.6289,-230.256"/>
<polygon fill="black" stroke="black" points="62.1269,-230.019 58.5293,-220.054 55.1272,-230.088 62.1269,-230.019"/>
<text text-anchor="middle" x="66.5" y="-242.3" font-family="Times,serif" font-size="14.00">a</text>
</g>
<!-- 3&#45;&gt;1 -->
<g id="edge7" class="edge"><title>3&#45;&gt;1</title>
<path fill="none" stroke="black" d="M30.1892,-130.395C35.7722,-143.618 43.2217,-161.262 49.277,-175.603"/>
<polygon fill="black" stroke="black" points="46.0922,-177.059 53.2064,-184.91 52.541,-174.336 46.0922,-177.059"/>
<text text-anchor="middle" x="48.5" y="-154.3" font-family="Times,serif" font-size="14.00">a</text>
</g>
<!-- 4 -->
<g id="node5" class="node"><title>4</title>
<ellipse fill="green" stroke="black" cx="80" cy="-18" rx="18" ry="18"/>
<text text-anchor="middle" x="80" y="-14.3" font-family="Times,serif" font-size="14.00">4</text>
</g>
<!-- 3&#45;&gt;4 -->
<g id="edge8" class="edge"><title>3&#45;&gt;4</title>
<path fill="none" stroke="black" d="M33.4589,-91.2189C42.5661,-77.0872 55.3701,-57.2188 65.2436,-41.8979"/>
<polygon fill="black" stroke="black" points="68.1932,-43.7821 70.6682,-33.4804 62.3092,-39.9901 68.1932,-43.7821"/>
<text text-anchor="middle" x="60.5" y="-58.3" font-family="Times,serif" font-size="14.00">b</text>
</g>
<!-- 4&#45;&gt;1 -->
<g id="edge9" class="edge"><title>4&#45;&gt;1</title>
<path fill="none" stroke="black" d="M78.138,-35.944C74.6748,-67.4593 67.2148,-135.345 63.021,-173.509"/>
<polygon fill="black" stroke="black" points="59.4949,-173.555 61.8816,-183.878 66.453,-174.32 59.4949,-173.555"/>
<text text-anchor="middle" x="76.5" y="-106.3" font-family="Times,serif" font-size="14.00">b</text>
</g>
<!-- 4&#45;&gt;2 -->
<g id="edge10" class="edge"><title>4&#45;&gt;2</title>
<path fill="none" stroke="black" d="M85.638,-35.1786C87.4059,-41.0319 89.1235,-47.7415 90,-54 100.433,-128.495 95.8382,-217.582 92.4502,-261.601"/>
<polygon fill="black" stroke="black" points="88.9442,-261.535 91.6247,-271.785 95.9213,-262.1 88.9442,-261.535"/>
<text text-anchor="middle" x="99.5" y="-154.3" font-family="Times,serif" font-size="14.00">a</text>
</g>
</g>
</svg>
