<?xml version="1.0" encoding="UTF-8" standalone="no"?>
<!DOCTYPE svg PUBLIC "-//W3C//DTD SVG 1.1//EN"
 "http://www.w3.org/Graphics/SVG/1.1/DTD/svg11.dtd">
<!-- Generated by graphviz version 2.36.0 (20140111.2315)
 -->
<!-- Title: %3 Pages: 1 -->
<svg width="156pt" height="228pt"
 viewBox="0.00 0.00 156.00 228.00" xmlns="http://www.w3.org/2000/svg" xmlns:xlink="http://www.w3.org/1999/xlink">
<g id="graph0" class="graph" transform="scale(1 1) rotate(0) translate(4 224)">
<title>%3</title>
<polygon fill="white" stroke="none" points="-4,4 -4,-224 152,-224 152,4 -4,4"/>
<!-- 0 -->
<g id="node1" class="node"><title>0</title>
<ellipse fill="green" stroke="black" cx="22" cy="-198" rx="17.5909" ry="18"/>
<ellipse fill="none" stroke="black" cx="22" cy="-198" rx="21.5" ry="22"/>
<text text-anchor="middle" x="22" y="-194.3" font-family="Times,serif" font-size="14.00">0</text>
</g>
<!-- 0&#45;&gt;0 -->
<g id="edge1" class="edge"><title>0&#45;&gt;0</title>
<path fill="none" stroke="black" d="M42.0663,-206.734C52.0736,-207.943 61,-205.031 61,-198 61,-193.496 57.3366,-190.682 52.0725,-189.559"/>
<polygon fill="black" stroke="black" points="52.1646,-186.061 42.0663,-189.266 51.9594,-193.057 52.1646,-186.061"/>
<text text-anchor="middle" x="64.5" y="-194.3" font-family="Times,serif" font-size="14.00">b</text>
</g>
<!-- 3 -->
<g id="node4" class="node"><title>3</title>
<ellipse fill="lightblue" stroke="black" cx="52" cy="-106" rx="18" ry="18"/>
<text text-anchor="middle" x="52" y="-102.3" font-family="Times,serif" font-size="14.00">3</text>
</g>
<!-- 0&#45;&gt;3 -->
<g id="edge2" class="edge"><title>0&#45;&gt;3</title>
<path fill="none" stroke="black" d="M20.2561,-176.033C20.0938,-165.514 21.0028,-152.757 25,-142 26.9222,-136.827 29.8947,-131.799 33.1759,-127.242"/>
<polygon fill="black" stroke="black" points="36.1431,-129.137 39.671,-119.147 30.6832,-124.756 36.1431,-129.137"/>
<text text-anchor="middle" x="28.5" y="-146.3" font-family="Times,serif" font-size="14.00">a</text>
</g>
<!-- 1 -->
<g id="node2" class="node"><title>1</title>
<ellipse fill="lightblue" stroke="black" cx="105" cy="-198" rx="18" ry="18"/>
<text text-anchor="middle" x="105" y="-194.3" font-family="Times,serif" font-size="14.00">1</text>
</g>
<!-- 1&#45;&gt;1 -->
<g id="edge3" class="edge"><title>1&#45;&gt;1</title>
<path fill="none" stroke="black" d="M121.29,-206.365C131.389,-208.382 141,-205.594 141,-198 141,-193.135 137.056,-190.243 131.566,-189.322"/>
<polygon fill="black" stroke="black" points="131.179,-185.832 121.29,-189.635 131.392,-192.829 131.179,-185.832"/>
<text text-anchor="middle" x="144.5" y="-194.3" font-family="Times,serif" font-size="14.00">a</text>
</g>
<!-- 1&#45;&gt;3 -->
<g id="edge4" class="edge"><title>1&#45;&gt;3</title>
<path fill="none" stroke="black" d="M96.2481,-182.138C88.0392,-168.199 75.625,-147.118 66.0332,-130.83"/>
<polygon fill="black" stroke="black" points="68.8552,-128.725 60.7649,-121.884 62.8234,-132.277 68.8552,-128.725"/>
<text text-anchor="middle" x="84.5" y="-146.3" font-family="Times,serif" font-size="14.00">b</text>
</g>
<!-- 2 -->
<g id="node3" class="node"><title>2</title>
<ellipse fill="lightblue" stroke="black" cx="52" cy="-18" rx="18" ry="18"/>
<text text-anchor="middle" x="52" y="-14.3" font-family="Times,serif" font-size="14.00">2</text>
</g>
<!-- 2&#45;&gt;2 -->
<g id="edge5" class="edge"><title>2&#45;&gt;2</title>
<path fill="none" stroke="black" d="M68.2903,-25.6679C78.3892,-27.5169 88,-24.9609 88,-18 88,-13.5406 84.0557,-10.8891 78.5656,-10.0454"/>
<polygon fill="black" stroke="black" points="78.1887,-6.55441 68.2903,-10.3321 78.384,-13.5517 78.1887,-6.55441"/>
<text text-anchor="middle" x="91.5" y="-14.3" font-family="Times,serif" font-size="14.00">a</text>
</g>
<!-- 2&#45;&gt;3 -->
<g id="edge6" class="edge"><title>2&#45;&gt;3</title>
<path fill="none" stroke="black" d="M52,-36.084C52,-47.8607 52,-63.7741 52,-77.342"/>
<polygon fill="black" stroke="black" points="48.5001,-77.5966 52,-87.5966 55.5001,-77.5967 48.5001,-77.5966"/>
<text text-anchor="middle" x="55.5" y="-58.3" font-family="Times,serif" font-size="14.00">b</text>
</g>
<!-- 3&#45;&gt;0 -->
<g id="edge7" class="edge"><title>3&#45;&gt;0</title>
<path fill="none" stroke="black" d="M46.5629,-123.311C42.4764,-135.571 36.7659,-152.702 31.8793,-167.362"/>
<polygon fill="black" stroke="black" points="28.4999,-166.432 28.658,-177.026 35.1407,-168.646 28.4999,-166.432"/>
<text text-anchor="middle" x="43.5" y="-146.3" font-family="Times,serif" font-size="14.00">a</text>
</g>
<!-- 3&#45;&gt;2 -->
<g id="edge8" class="edge"><title>3&#45;&gt;2</title>
<path fill="none" stroke="black" d="M45.8003,-88.8629C43.8558,-83.0135 41.966,-76.2957 41,-70 39.9215,-62.9712 39.9215,-61.0288 41,-54 41.4528,-51.0489 42.1086,-48.005 42.8779,-45.0013"/>
<polygon fill="black" stroke="black" points="46.3155,-45.7194 45.8003,-35.1371 39.6038,-43.7309 46.3155,-45.7194"/>
<text text-anchor="middle" x="44.5" y="-58.3" font-family="Times,serif" font-size="14.00">b</text>
</g>
</g>
</svg>
