<?xml version="1.0" encoding="UTF-8" standalone="no"?>
<!DOCTYPE svg PUBLIC "-//W3C//DTD SVG 1.1//EN"
 "http://www.w3.org/Graphics/SVG/1.1/DTD/svg11.dtd">
<!-- Generated by graphviz version 2.36.0 (20140111.2315)
 -->
<!-- Title: %3 Pages: 1 -->
<svg width="203pt" height="228pt"
 viewBox="0.00 0.00 203.00 228.00" xmlns="http://www.w3.org/2000/svg" xmlns:xlink="http://www.w3.org/1999/xlink">
<g id="graph0" class="graph" transform="scale(1 1) rotate(0) translate(4 224)">
<title>%3</title>
<polygon fill="white" stroke="none" points="-4,4 -4,-224 199,-224 199,4 -4,4"/>
<!-- 0 -->
<g id="node1" class="node"><title>0</title>
<ellipse fill="lightblue" stroke="black" cx="140" cy="-202" rx="18" ry="18"/>
<text text-anchor="middle" x="140" y="-198.3" font-family="Times,serif" font-size="14.00">0</text>
</g>
<!-- 1 -->
<g id="node2" class="node"><title>1</title>
<ellipse fill="green" stroke="black" cx="18" cy="-110" rx="18" ry="18"/>
<text text-anchor="middle" x="18" y="-106.3" font-family="Times,serif" font-size="14.00">1</text>
</g>
<!-- 0&#45;&gt;1 -->
<g id="edge1" class="edge"><title>0&#45;&gt;1</title>
<path fill="none" stroke="black" d="M125.051,-191.901C114.051,-185.065 98.8413,-175.315 86,-166 69.8687,-154.298 52.4041,-140.138 39.2135,-129.116"/>
<polygon fill="black" stroke="black" points="41.123,-126.149 31.2196,-122.384 36.6139,-131.503 41.123,-126.149"/>
<text text-anchor="middle" x="89.5" y="-154.3" font-family="Times,serif" font-size="14.00">c</text>
</g>
<!-- 2 -->
<g id="node3" class="node"><title>2</title>
<ellipse fill="lightblue" stroke="black" cx="127" cy="-18" rx="18" ry="18"/>
<text text-anchor="middle" x="127" y="-14.3" font-family="Times,serif" font-size="14.00">2</text>
</g>
<!-- 0&#45;&gt;2 -->
<g id="edge2" class="edge"><title>0&#45;&gt;2</title>
<path fill="none" stroke="black" d="M132.81,-185.229C126.967,-171.497 119.19,-150.884 116,-132 111.039,-102.638 115.764,-68.578 120.471,-45.5903"/>
<polygon fill="black" stroke="black" points="123.946,-46.0817 122.667,-35.5643 117.108,-44.5838 123.946,-46.0817"/>
<text text-anchor="middle" x="119.5" y="-106.3" font-family="Times,serif" font-size="14.00">a</text>
</g>
<!-- 3 -->
<g id="node4" class="node"><title>3</title>
<ellipse fill="lightblue" stroke="black" cx="154" cy="-110" rx="17.5909" ry="18"/>
<ellipse fill="none" stroke="black" cx="154" cy="-110" rx="21.5" ry="22"/>
<text text-anchor="middle" x="154" y="-106.3" font-family="Times,serif" font-size="14.00">3</text>
</g>
<!-- 0&#45;&gt;3 -->
<g id="edge3" class="edge"><title>0&#45;&gt;3</title>
<path fill="none" stroke="black" d="M140.086,-183.896C140.365,-173.945 141.115,-161.195 143,-150 143.509,-146.976 144.164,-143.851 144.9,-140.747"/>
<polygon fill="black" stroke="black" points="148.291,-141.614 147.449,-131.053 141.521,-139.834 148.291,-141.614"/>
<text text-anchor="middle" x="146.5" y="-154.3" font-family="Times,serif" font-size="14.00">b</text>
</g>
<!-- 1&#45;&gt;1 -->
<g id="edge4" class="edge"><title>1&#45;&gt;1</title>
<path fill="none" stroke="black" d="M34.2903,-118.365C44.3892,-120.382 54,-117.594 54,-110 54,-105.135 50.0557,-102.243 44.5656,-101.322"/>
<polygon fill="black" stroke="black" points="44.1791,-97.8323 34.2903,-101.635 44.3922,-104.829 44.1791,-97.8323"/>
<text text-anchor="middle" x="62.5" y="-106.3" font-family="Times,serif" font-size="14.00">b,c</text>
</g>
<!-- 1&#45;&gt;2 -->
<g id="edge5" class="edge"><title>1&#45;&gt;2</title>
<path fill="none" stroke="black" d="M31.8049,-97.6014C50.3964,-82.2507 83.6669,-54.7796 105.538,-36.7213"/>
<polygon fill="black" stroke="black" points="107.824,-39.3719 113.307,-30.306 103.368,-33.9741 107.824,-39.3719"/>
<text text-anchor="middle" x="85.5" y="-58.3" font-family="Times,serif" font-size="14.00">a</text>
</g>
<!-- 2&#45;&gt;0 -->
<g id="edge6" class="edge"><title>2&#45;&gt;0</title>
<path fill="none" stroke="black" d="M140.734,-29.637C155.159,-41.8555 176.739,-63.4121 184,-88 189.539,-106.755 189.476,-113.227 184,-132 178.892,-149.509 167.843,-166.809 158.095,-179.707"/>
<polygon fill="black" stroke="black" points="155.092,-177.863 151.644,-187.881 160.586,-182.2 155.092,-177.863"/>
<text text-anchor="middle" x="191.5" y="-106.3" font-family="Times,serif" font-size="14.00">c</text>
</g>
<!-- 2&#45;&gt;2 -->
<g id="edge7" class="edge"><title>2&#45;&gt;2</title>
<path fill="none" stroke="black" d="M143.29,-25.6679C153.389,-27.5169 163,-24.9609 163,-18 163,-13.5406 159.056,-10.8891 153.566,-10.0454"/>
<polygon fill="black" stroke="black" points="153.189,-6.55441 143.29,-10.3321 153.384,-13.5517 153.189,-6.55441"/>
<text text-anchor="middle" x="171.5" y="-14.3" font-family="Times,serif" font-size="14.00">b,a</text>
</g>
<!-- 3&#45;&gt;0 -->
<g id="edge8" class="edge"><title>3&#45;&gt;0</title>
<path fill="none" stroke="black" d="M152.289,-131.972C151.302,-142.264 149.881,-154.823 148,-166 147.541,-168.73 147,-171.565 146.42,-174.388"/>
<polygon fill="black" stroke="black" points="142.96,-173.825 144.222,-184.344 149.796,-175.334 142.96,-173.825"/>
<text text-anchor="middle" x="153.5" y="-154.3" font-family="Times,serif" font-size="14.00">b</text>
</g>
<!-- 3&#45;&gt;2 -->
<g id="edge9" class="edge"><title>3&#45;&gt;2</title>
<path fill="none" stroke="black" d="M147.873,-88.5776C144.03,-75.7659 139.036,-59.1201 134.897,-45.3224"/>
<polygon fill="black" stroke="black" points="138.157,-44.0096 131.931,-35.437 131.452,-46.0211 138.157,-44.0096"/>
<text text-anchor="middle" x="150" y="-58.3" font-family="Times,serif" font-size="14.00">c,a</text>
</g>
</g>
</svg>
