<?xml version="1.0" encoding="UTF-8" standalone="no"?>
<!DOCTYPE svg PUBLIC "-//W3C//DTD SVG 1.1//EN"
 "http://www.w3.org/Graphics/SVG/1.1/DTD/svg11.dtd">
<!-- Generated by graphviz version 2.36.0 (20140111.2315)
 -->
<!-- Title: %3 Pages: 1 -->
<svg width="153pt" height="228pt"
 viewBox="0.00 0.00 153.00 228.00" xmlns="http://www.w3.org/2000/svg" xmlns:xlink="http://www.w3.org/1999/xlink">
<g id="graph0" class="graph" transform="scale(1 1) rotate(0) translate(4 224)">
<title>%3</title>
<polygon fill="white" stroke="none" points="-4,4 -4,-224 149,-224 149,4 -4,4"/>
<!-- 0 -->
<g id="node1" class="node"><title>0</title>
<ellipse fill="green" stroke="black" cx="60" cy="-198" rx="17.5909" ry="18"/>
<ellipse fill="none" stroke="black" cx="60" cy="-198" rx="21.5" ry="22"/>
<text text-anchor="middle" x="60" y="-194.3" font-family="Times,serif" font-size="14.00">0</text>
</g>
<!-- 1 -->
<g id="node2" class="node"><title>1</title>
<ellipse fill="lightblue" stroke="black" cx="18" cy="-106" rx="18" ry="18"/>
<text text-anchor="middle" x="18" y="-102.3" font-family="Times,serif" font-size="14.00">1</text>
</g>
<!-- 0&#45;&gt;1 -->
<g id="edge1" class="edge"><title>0&#45;&gt;1</title>
<path fill="none" stroke="black" d="M41.9497,-185.607C32.9401,-178.814 22.932,-169.31 18,-158 14.7517,-150.551 13.8326,-141.888 13.99,-133.839"/>
<polygon fill="black" stroke="black" points="17.4881,-133.989 14.7118,-123.765 10.506,-133.489 17.4881,-133.989"/>
<text text-anchor="middle" x="21.5" y="-146.3" font-family="Times,serif" font-size="14.00">a</text>
</g>
<!-- 2 -->
<g id="node3" class="node"><title>2</title>
<ellipse fill="lightblue" stroke="black" cx="72" cy="-106" rx="18" ry="18"/>
<text text-anchor="middle" x="72" y="-102.3" font-family="Times,serif" font-size="14.00">2</text>
</g>
<!-- 0&#45;&gt;2 -->
<g id="edge2" class="edge"><title>0&#45;&gt;2</title>
<path fill="none" stroke="black" d="M62.7832,-176.126C64.444,-163.67 66.5717,-147.712 68.3642,-134.268"/>
<polygon fill="black" stroke="black" points="71.8622,-134.515 69.7146,-124.14 64.9236,-133.59 71.8622,-134.515"/>
<text text-anchor="middle" x="70.5" y="-146.3" font-family="Times,serif" font-size="14.00">b</text>
</g>
<!-- 1&#45;&gt;0 -->
<g id="edge3" class="edge"><title>1&#45;&gt;0</title>
<path fill="none" stroke="black" d="M25.3549,-122.76C31.236,-135.363 39.6352,-153.361 46.6905,-168.48"/>
<polygon fill="black" stroke="black" points="43.6923,-170.332 51.0929,-177.913 50.0356,-167.371 43.6923,-170.332"/>
<text text-anchor="middle" x="44.5" y="-146.3" font-family="Times,serif" font-size="14.00">a</text>
</g>
<!-- 3 -->
<g id="node4" class="node"><title>3</title>
<ellipse fill="lightblue" stroke="black" cx="72" cy="-18" rx="18" ry="18"/>
<text text-anchor="middle" x="72" y="-14.3" font-family="Times,serif" font-size="14.00">3</text>
</g>
<!-- 1&#45;&gt;3 -->
<g id="edge4" class="edge"><title>1&#45;&gt;3</title>
<path fill="none" stroke="black" d="M27.1604,-90.4113C35.3836,-77.315 47.6029,-57.8546 57.2098,-42.5548"/>
<polygon fill="black" stroke="black" points="60.4411,-43.9904 62.7947,-33.6603 54.5129,-40.268 60.4411,-43.9904"/>
<text text-anchor="middle" x="52.5" y="-58.3" font-family="Times,serif" font-size="14.00">b</text>
</g>
<!-- 2&#45;&gt;2 -->
<g id="edge5" class="edge"><title>2&#45;&gt;2</title>
<path fill="none" stroke="black" d="M88.2903,-113.668C98.3892,-115.517 108,-112.961 108,-106 108,-101.541 104.056,-98.8891 98.5656,-98.0454"/>
<polygon fill="black" stroke="black" points="98.1887,-94.5544 88.2903,-98.3321 98.384,-101.552 98.1887,-94.5544"/>
<text text-anchor="middle" x="111.5" y="-102.3" font-family="Times,serif" font-size="14.00">b</text>
</g>
<!-- 2&#45;&gt;3 -->
<g id="edge6" class="edge"><title>2&#45;&gt;3</title>
<path fill="none" stroke="black" d="M72,-87.5966C72,-75.7459 72,-59.8169 72,-46.2917"/>
<polygon fill="black" stroke="black" points="75.5001,-46.084 72,-36.084 68.5001,-46.084 75.5001,-46.084"/>
<text text-anchor="middle" x="75.5" y="-58.3" font-family="Times,serif" font-size="14.00">a</text>
</g>
<!-- 3&#45;&gt;0 -->
<g id="edge7" class="edge"><title>3&#45;&gt;0</title>
<path fill="none" stroke="black" d="M84.7653,-30.7563C97.5137,-43.4458 116.289,-64.9558 124,-88 129.077,-103.173 129.635,-109.025 124,-124 116.087,-145.03 99.0595,-163.953 84.5565,-177.261"/>
<polygon fill="black" stroke="black" points="82.0301,-174.822 76.8328,-184.055 86.6532,-180.078 82.0301,-174.822"/>
<text text-anchor="middle" x="136.5" y="-102.3" font-family="Times,serif" font-size="14.00">b,a</text>
</g>
</g>
</svg>
