<?xml version="1.0" encoding="UTF-8" standalone="no"?>
<!DOCTYPE svg PUBLIC "-//W3C//DTD SVG 1.1//EN"
 "http://www.w3.org/Graphics/SVG/1.1/DTD/svg11.dtd">
<!-- Generated by graphviz version 2.36.0 (20140111.2315)
 -->
<!-- Title: %3 Pages: 1 -->
<svg width="166pt" height="228pt"
 viewBox="0.00 0.00 165.60 228.00" xmlns="http://www.w3.org/2000/svg" xmlns:xlink="http://www.w3.org/1999/xlink">
<g id="graph0" class="graph" transform="scale(1 1) rotate(0) translate(4 224)">
<title>%3</title>
<polygon fill="white" stroke="none" points="-4,4 -4,-224 161.598,-224 161.598,4 -4,4"/>
<!-- 0 -->
<g id="node1" class="node"><title>0</title>
<ellipse fill="green" stroke="black" cx="46.5975" cy="-198" rx="17.5909" ry="18"/>
<ellipse fill="none" stroke="black" cx="46.5975" cy="-198" rx="21.5" ry="22"/>
<text text-anchor="middle" x="46.5975" y="-194.3" font-family="Times,serif" font-size="14.00">0</text>
</g>
<!-- 1 -->
<g id="node2" class="node"><title>1</title>
<ellipse fill="lightblue" stroke="black" cx="36.5975" cy="-18" rx="18" ry="18"/>
<text text-anchor="middle" x="36.5975" y="-14.3" font-family="Times,serif" font-size="14.00">1</text>
</g>
<!-- 0&#45;&gt;1 -->
<g id="edge1" class="edge"><title>0&#45;&gt;1</title>
<path fill="none" stroke="black" d="M33.0588,-180.535C22.4408,-166.487 8.50443,-145.243 2.59754,-124 -5.36188,-95.3759 8.7934,-62.9067 21.1943,-41.7509"/>
<polygon fill="black" stroke="black" points="24.2289,-43.4983 26.5071,-33.1513 18.2736,-39.8192 24.2289,-43.4983"/>
<text text-anchor="middle" x="6.09754" y="-102.3" font-family="Times,serif" font-size="14.00">a</text>
</g>
<!-- 2 -->
<g id="node3" class="node"><title>2</title>
<ellipse fill="lightblue" stroke="black" cx="36.5975" cy="-106" rx="18" ry="18"/>
<text text-anchor="middle" x="36.5975" y="-102.3" font-family="Times,serif" font-size="14.00">2</text>
</g>
<!-- 0&#45;&gt;2 -->
<g id="edge2" class="edge"><title>0&#45;&gt;2</title>
<path fill="none" stroke="black" d="M39.2,-177.024C37.3102,-170.997 35.5456,-164.305 34.5975,-158 33.4381,-150.289 33.3121,-141.853 33.646,-134.102"/>
<polygon fill="black" stroke="black" points="37.1402,-134.304 34.3327,-124.088 30.1566,-133.825 37.1402,-134.304"/>
<text text-anchor="middle" x="38.0975" y="-146.3" font-family="Times,serif" font-size="14.00">b</text>
</g>
<!-- 1&#45;&gt;0 -->
<g id="edge3" class="edge"><title>1&#45;&gt;0</title>
<path fill="none" stroke="black" d="M44.5502,-34.3976C51.1334,-48.0637 59.9722,-68.7863 63.5975,-88 68.6558,-114.808 62.822,-145.529 56.6511,-167.509"/>
<polygon fill="black" stroke="black" points="53.2518,-166.66 53.7358,-177.244 59.9575,-168.669 53.2518,-166.66"/>
<text text-anchor="middle" x="68.0975" y="-102.3" font-family="Times,serif" font-size="14.00">b</text>
</g>
<!-- 1&#45;&gt;1 -->
<g id="edge4" class="edge"><title>1&#45;&gt;1</title>
<path fill="none" stroke="black" d="M52.8878,-25.6679C62.9867,-27.5169 72.5975,-24.9609 72.5975,-18 72.5975,-13.5406 68.6532,-10.8891 63.1632,-10.0454"/>
<polygon fill="black" stroke="black" points="62.7863,-6.55441 52.8878,-10.3321 62.9816,-13.5517 62.7863,-6.55441"/>
<text text-anchor="middle" x="76.0975" y="-14.3" font-family="Times,serif" font-size="14.00">a</text>
</g>
<!-- 2&#45;&gt;0 -->
<g id="edge5" class="edge"><title>2&#45;&gt;0</title>
<path fill="none" stroke="black" d="M38.502,-124.14C39.8115,-135.926 41.5881,-151.915 43.1434,-165.913"/>
<polygon fill="black" stroke="black" points="39.6952,-166.574 44.2782,-176.126 46.6524,-165.801 39.6952,-166.574"/>
<text text-anchor="middle" x="45.0975" y="-146.3" font-family="Times,serif" font-size="14.00">a</text>
</g>
<!-- 2&#45;&gt;1 -->
<g id="edge6" class="edge"><title>2&#45;&gt;1</title>
<path fill="none" stroke="black" d="M36.5975,-87.5966C36.5975,-75.7459 36.5975,-59.8169 36.5975,-46.2917"/>
<polygon fill="black" stroke="black" points="40.0976,-46.084 36.5975,-36.084 33.0976,-46.084 40.0976,-46.084"/>
<text text-anchor="middle" x="40.0975" y="-58.3" font-family="Times,serif" font-size="14.00">b</text>
</g>
<!-- 3 -->
<g id="node4" class="node"><title>3</title>
<ellipse fill="lightblue" stroke="black" cx="104.598" cy="-198" rx="18" ry="18"/>
<text text-anchor="middle" x="104.598" y="-194.3" font-family="Times,serif" font-size="14.00">3</text>
</g>
<!-- 3&#45;&gt;3 -->
<g id="edge7" class="edge"><title>3&#45;&gt;3</title>
<path fill="none" stroke="black" d="M120.888,-206.365C130.987,-208.382 140.598,-205.594 140.598,-198 140.598,-193.135 136.653,-190.243 131.163,-189.322"/>
<polygon fill="black" stroke="black" points="130.777,-185.832 120.888,-189.635 130.99,-192.829 130.777,-185.832"/>
<text text-anchor="middle" x="149.098" y="-194.3" font-family="Times,serif" font-size="14.00">b,a</text>
</g>
</g>
</svg>
