<?xml version="1.0" encoding="UTF-8" standalone="no"?>
<!DOCTYPE svg PUBLIC "-//W3C//DTD SVG 1.1//EN"
 "http://www.w3.org/Graphics/SVG/1.1/DTD/svg11.dtd">
<!-- Generated by graphviz version 2.36.0 (20140111.2315)
 -->
<!-- Title: %3 Pages: 1 -->
<svg width="112pt" height="316pt"
 viewBox="0.00 0.00 112.00 316.00" xmlns="http://www.w3.org/2000/svg" xmlns:xlink="http://www.w3.org/1999/xlink">
<g id="graph0" class="graph" transform="scale(1 1) rotate(0) translate(4 312)">
<title>%3</title>
<polygon fill="white" stroke="none" points="-4,4 -4,-312 108,-312 108,4 -4,4"/>
<!-- 0 -->
<g id="node1" class="node"><title>0</title>
<ellipse fill="lightblue" stroke="black" cx="68" cy="-290" rx="18" ry="18"/>
<text text-anchor="middle" x="68" y="-286.3" font-family="Times,serif" font-size="14.00">0</text>
</g>
<!-- 1 -->
<g id="node2" class="node"><title>1</title>
<ellipse fill="green" stroke="black" cx="18" cy="-202" rx="18" ry="18"/>
<text text-anchor="middle" x="18" y="-198.3" font-family="Times,serif" font-size="14.00">1</text>
</g>
<!-- 0&#45;&gt;1 -->
<g id="edge1" class="edge"><title>0&#45;&gt;1</title>
<path fill="none" stroke="black" d="M51.6214,-282.172C40.241,-276.465 25.9219,-267.132 19,-254 15.2101,-246.81 14.0092,-238.22 14.028,-230.158"/>
<polygon fill="black" stroke="black" points="17.5306,-230.219 14.6401,-220.026 10.5433,-229.797 17.5306,-230.219"/>
<text text-anchor="middle" x="27" y="-242.3" font-family="Times,serif" font-size="14.00">c,a</text>
</g>
<!-- 3 -->
<g id="node4" class="node"><title>3</title>
<ellipse fill="lightblue" stroke="black" cx="48" cy="-110" rx="17.5909" ry="18"/>
<ellipse fill="none" stroke="black" cx="48" cy="-110" rx="21.5" ry="22"/>
<text text-anchor="middle" x="48" y="-106.3" font-family="Times,serif" font-size="14.00">3</text>
</g>
<!-- 0&#45;&gt;3 -->
<g id="edge2" class="edge"><title>0&#45;&gt;3</title>
<path fill="none" stroke="black" d="M66.5631,-271.848C64.2961,-245.571 59.5698,-193.79 54,-150 53.6748,-147.443 53.3155,-144.795 52.9393,-142.139"/>
<polygon fill="black" stroke="black" points="56.3682,-141.4 51.4401,-132.022 49.4438,-142.427 56.3682,-141.4"/>
<text text-anchor="middle" x="64.5" y="-198.3" font-family="Times,serif" font-size="14.00">b</text>
</g>
<!-- 1&#45;&gt;0 -->
<g id="edge3" class="edge"><title>1&#45;&gt;0</title>
<path fill="none" stroke="black" d="M26.6095,-217.808C34.178,-230.826 45.33,-250.008 54.1518,-265.181"/>
<polygon fill="black" stroke="black" points="51.2386,-267.134 59.2907,-274.02 57.2902,-263.616 51.2386,-267.134"/>
<text text-anchor="middle" x="50.5" y="-242.3" font-family="Times,serif" font-size="14.00">a</text>
</g>
<!-- 1&#45;&gt;3 -->
<g id="edge4" class="edge"><title>1&#45;&gt;3</title>
<path fill="none" stroke="black" d="M10.8368,-185.334C7.15315,-174.984 4.32065,-161.297 9,-150 12.0231,-142.702 17.1481,-136.057 22.7062,-130.403"/>
<polygon fill="black" stroke="black" points="25.4006,-132.68 30.3973,-123.338 20.6651,-127.525 25.4006,-132.68"/>
<text text-anchor="middle" x="17.5" y="-154.3" font-family="Times,serif" font-size="14.00">b,c</text>
</g>
<!-- 2 -->
<g id="node3" class="node"><title>2</title>
<ellipse fill="lightblue" stroke="black" cx="48" cy="-18" rx="18" ry="18"/>
<text text-anchor="middle" x="48" y="-14.3" font-family="Times,serif" font-size="14.00">2</text>
</g>
<!-- 2&#45;&gt;0 -->
<g id="edge5" class="edge"><title>2&#45;&gt;0</title>
<path fill="none" stroke="black" d="M56.685,-34.0187C64.0094,-47.6085 73.9304,-68.4332 78,-88 93.0233,-160.232 88.2331,-180.935 78,-254 77.5891,-256.934 76.9934,-259.966 76.2944,-262.964"/>
<polygon fill="black" stroke="black" points="72.8606,-262.255 73.638,-272.821 79.6195,-264.077 72.8606,-262.255"/>
<text text-anchor="middle" x="95.5" y="-154.3" font-family="Times,serif" font-size="14.00">b,a</text>
</g>
<!-- 2&#45;&gt;1 -->
<g id="edge6" class="edge"><title>2&#45;&gt;1</title>
<path fill="none" stroke="black" d="M38.0947,-33.0536C29.1622,-46.4944 16.4657,-67.6693 10,-88 3.48331,-108.491 -1.26909,-145.201 3,-166 3.7128,-169.473 4.78516,-173.026 6.03516,-176.475"/>
<polygon fill="black" stroke="black" points="2.81942,-177.857 9.87739,-185.759 9.28743,-175.18 2.81942,-177.857"/>
<text text-anchor="middle" x="13.5" y="-106.3" font-family="Times,serif" font-size="14.00">c</text>
</g>
<!-- 3&#45;&gt;1 -->
<g id="edge7" class="edge"><title>3&#45;&gt;1</title>
<path fill="none" stroke="black" d="M41.2721,-131.184C36.9612,-144.116 31.3241,-161.028 26.6776,-174.967"/>
<polygon fill="black" stroke="black" points="23.3444,-173.899 23.5025,-184.493 29.9852,-176.113 23.3444,-173.899"/>
<text text-anchor="middle" x="42" y="-154.3" font-family="Times,serif" font-size="14.00">c,a</text>
</g>
<!-- 3&#45;&gt;2 -->
<g id="edge8" class="edge"><title>3&#45;&gt;2</title>
<path fill="none" stroke="black" d="M48,-87.6713C48,-75.2844 48,-59.5523 48,-46.2721"/>
<polygon fill="black" stroke="black" points="51.5001,-46.258 48,-36.2581 44.5001,-46.2581 51.5001,-46.258"/>
<text text-anchor="middle" x="51.5" y="-58.3" font-family="Times,serif" font-size="14.00">b</text>
</g>
</g>
</svg>
