<?xml version="1.0" encoding="UTF-8" standalone="no"?>
<!DOCTYPE svg PUBLIC "-//W3C//DTD SVG 1.1//EN"
 "http://www.w3.org/Graphics/SVG/1.1/DTD/svg11.dtd">
<!-- Generated by graphviz version 2.36.0 (20140111.2315)
 -->
<!-- Title: %3 Pages: 1 -->
<svg width="137pt" height="228pt"
 viewBox="0.00 0.00 137.00 228.00" xmlns="http://www.w3.org/2000/svg" xmlns:xlink="http://www.w3.org/1999/xlink">
<g id="graph0" class="graph" transform="scale(1 1) rotate(0) translate(4 224)">
<title>%3</title>
<polygon fill="white" stroke="none" points="-4,4 -4,-224 133,-224 133,4 -4,4"/>
<!-- 0 -->
<g id="node1" class="node"><title>0</title>
<ellipse fill="lightblue" stroke="black" cx="39" cy="-198" rx="17.5909" ry="18"/>
<ellipse fill="none" stroke="black" cx="39" cy="-198" rx="21.5" ry="22"/>
<text text-anchor="middle" x="39" y="-194.3" font-family="Times,serif" font-size="14.00">0</text>
</g>
<!-- 1 -->
<g id="node2" class="node"><title>1</title>
<ellipse fill="green" stroke="black" cx="70" cy="-106" rx="18" ry="18"/>
<text text-anchor="middle" x="70" y="-102.3" font-family="Times,serif" font-size="14.00">1</text>
</g>
<!-- 0&#45;&gt;1 -->
<g id="edge1" class="edge"><title>0&#45;&gt;1</title>
<path fill="none" stroke="black" d="M45.8799,-177.026C50.3583,-164.024 56.2443,-146.936 61.0807,-132.895"/>
<polygon fill="black" stroke="black" points="64.4341,-133.906 64.3816,-123.311 57.8157,-131.626 64.4341,-133.906"/>
<text text-anchor="middle" x="60.5" y="-146.3" font-family="Times,serif" font-size="14.00">a</text>
</g>
<!-- 2 -->
<g id="node3" class="node"><title>2</title>
<ellipse fill="lightblue" stroke="black" cx="18" cy="-18" rx="18" ry="18"/>
<text text-anchor="middle" x="18" y="-14.3" font-family="Times,serif" font-size="14.00">2</text>
</g>
<!-- 0&#45;&gt;2 -->
<g id="edge2" class="edge"><title>0&#45;&gt;2</title>
<path fill="none" stroke="black" d="M36.5086,-175.882C32.6981,-143.584 25.4234,-81.9218 21.2183,-46.279"/>
<polygon fill="black" stroke="black" points="24.6667,-45.6351 20.0191,-36.1141 17.7149,-46.4553 24.6667,-45.6351"/>
<text text-anchor="middle" x="33.5" y="-102.3" font-family="Times,serif" font-size="14.00">b</text>
</g>
<!-- 1&#45;&gt;2 -->
<g id="edge3" class="edge"><title>1&#45;&gt;2</title>
<path fill="none" stroke="black" d="M60.9423,-90.0199C53.0385,-76.9482 41.4348,-57.7576 32.2815,-42.6194"/>
<polygon fill="black" stroke="black" points="35.1232,-40.5547 26.9539,-33.8084 29.1331,-44.1767 35.1232,-40.5547"/>
<text text-anchor="middle" x="51.5" y="-58.3" font-family="Times,serif" font-size="14.00">a</text>
</g>
<!-- 3 -->
<g id="node4" class="node"><title>3</title>
<ellipse fill="lightblue" stroke="black" cx="111" cy="-18" rx="18" ry="18"/>
<text text-anchor="middle" x="111" y="-14.3" font-family="Times,serif" font-size="14.00">3</text>
</g>
<!-- 1&#45;&gt;3 -->
<g id="edge4" class="edge"><title>1&#45;&gt;3</title>
<path fill="none" stroke="black" d="M78.6262,-89.8221C81.989,-83.7255 85.797,-76.5919 89,-70 92.9548,-61.8607 96.9665,-52.8355 100.462,-44.6676"/>
<polygon fill="black" stroke="black" points="103.774,-45.8213 104.431,-35.2469 97.3228,-43.1035 103.774,-45.8213"/>
<text text-anchor="middle" x="99.5" y="-58.3" font-family="Times,serif" font-size="14.00">b</text>
</g>
<!-- 2&#45;&gt;0 -->
<g id="edge5" class="edge"><title>2&#45;&gt;0</title>
<path fill="none" stroke="black" d="M15.5963,-35.8561C13.0635,-56.703 10.0681,-93.2079 15,-124 17.3875,-138.906 22.3534,-154.897 27.1519,-168.102"/>
<polygon fill="black" stroke="black" points="23.9305,-169.479 30.7433,-177.593 30.4775,-167.001 23.9305,-169.479"/>
<text text-anchor="middle" x="18.5" y="-102.3" font-family="Times,serif" font-size="14.00">b</text>
</g>
<!-- 2&#45;&gt;2 -->
<g id="edge6" class="edge"><title>2&#45;&gt;2</title>
<path fill="none" stroke="black" d="M34.2903,-25.6679C44.3892,-27.5169 54,-24.9609 54,-18 54,-13.5406 50.0557,-10.8891 44.5656,-10.0454"/>
<polygon fill="black" stroke="black" points="44.1887,-6.55441 34.2903,-10.3321 44.384,-13.5517 44.1887,-6.55441"/>
<text text-anchor="middle" x="57.5" y="-14.3" font-family="Times,serif" font-size="14.00">a</text>
</g>
<!-- 3&#45;&gt;0 -->
<g id="edge7" class="edge"><title>3&#45;&gt;0</title>
<path fill="none" stroke="black" d="M111.701,-36.1974C111.921,-57.709 110.107,-95.2118 97,-124 88.3653,-142.965 73.748,-161.316 61.3485,-174.875"/>
<polygon fill="black" stroke="black" points="58.6847,-172.598 54.3662,-182.273 63.7754,-177.403 58.6847,-172.598"/>
<text text-anchor="middle" x="110.5" y="-102.3" font-family="Times,serif" font-size="14.00">b</text>
</g>
<!-- 3&#45;&gt;1 -->
<g id="edge8" class="edge"><title>3&#45;&gt;1</title>
<path fill="none" stroke="black" d="M99.1709,-31.8056C93.8881,-38.0998 87.972,-46.033 84,-54 80.297,-61.4275 77.4635,-69.9681 75.3473,-77.9098"/>
<polygon fill="black" stroke="black" points="71.8894,-77.3208 72.9655,-87.8609 78.6972,-78.9503 71.8894,-77.3208"/>
<text text-anchor="middle" x="87.5" y="-58.3" font-family="Times,serif" font-size="14.00">a</text>
</g>
</g>
</svg>
