<?xml version="1.0" encoding="UTF-8" standalone="no"?>
<!DOCTYPE svg PUBLIC "-//W3C//DTD SVG 1.1//EN"
 "http://www.w3.org/Graphics/SVG/1.1/DTD/svg11.dtd">
<!-- Generated by graphviz version 2.36.0 (20140111.2315)
 -->
<!-- Title: %3 Pages: 1 -->
<svg width="131pt" height="228pt"
 viewBox="0.00 0.00 131.00 228.00" xmlns="http://www.w3.org/2000/svg" xmlns:xlink="http://www.w3.org/1999/xlink">
<g id="graph0" class="graph" transform="scale(1 1) rotate(0) translate(4 224)">
<title>%3</title>
<polygon fill="white" stroke="none" points="-4,4 -4,-224 127,-224 127,4 -4,4"/>
<!-- 0 -->
<g id="node1" class="node"><title>0</title>
<ellipse fill="lightblue" stroke="black" cx="77" cy="-202" rx="18" ry="18"/>
<text text-anchor="middle" x="77" y="-198.3" font-family="Times,serif" font-size="14.00">0</text>
</g>
<!-- 3 -->
<g id="node4" class="node"><title>3</title>
<ellipse fill="lightblue" stroke="black" cx="31" cy="-110" rx="17.5909" ry="18"/>
<ellipse fill="none" stroke="black" cx="31" cy="-110" rx="21.5" ry="22"/>
<text text-anchor="middle" x="31" y="-106.3" font-family="Times,serif" font-size="14.00">3</text>
</g>
<!-- 0&#45;&gt;3 -->
<g id="edge1" class="edge"><title>0&#45;&gt;3</title>
<path fill="none" stroke="black" d="M69.1967,-185.733C62.6588,-172.941 53.1554,-154.348 45.2638,-138.907"/>
<polygon fill="black" stroke="black" points="48.267,-137.093 40.5994,-129.781 42.034,-140.279 48.267,-137.093"/>
<text text-anchor="middle" x="67.5" y="-154.3" font-family="Times,serif" font-size="14.00">b,a</text>
</g>
<!-- 1 -->
<g id="node2" class="node"><title>1</title>
<ellipse fill="lightblue" stroke="black" cx="18" cy="-18" rx="18" ry="18"/>
<text text-anchor="middle" x="18" y="-14.3" font-family="Times,serif" font-size="14.00">1</text>
</g>
<!-- 1&#45;&gt;3 -->
<g id="edge2" class="edge"><title>1&#45;&gt;3</title>
<path fill="none" stroke="black" d="M20.4338,-35.8491C22.1372,-47.6422 24.4633,-63.7462 26.4995,-77.8425"/>
<polygon fill="black" stroke="black" points="23.0911,-78.7291 27.9849,-88.126 30.0192,-77.7283 23.0911,-78.7291"/>
<text text-anchor="middle" x="34.5" y="-58.3" font-family="Times,serif" font-size="14.00">b,a</text>
</g>
<!-- 2 -->
<g id="node3" class="node"><title>2</title>
<ellipse fill="green" stroke="black" cx="80" cy="-18" rx="18" ry="18"/>
<text text-anchor="middle" x="80" y="-14.3" font-family="Times,serif" font-size="14.00">2</text>
</g>
<!-- 2&#45;&gt;0 -->
<g id="edge3" class="edge"><title>2&#45;&gt;0</title>
<path fill="none" stroke="black" d="M79.7163,-36.2092C79.1948,-67.8466 78.0799,-135.486 77.4527,-173.537"/>
<polygon fill="black" stroke="black" points="73.9476,-173.822 77.2822,-183.878 80.9467,-173.937 73.9476,-173.822"/>
<text text-anchor="middle" x="81.5" y="-106.3" font-family="Times,serif" font-size="14.00">b</text>
</g>
<!-- 2&#45;&gt;2 -->
<g id="edge4" class="edge"><title>2&#45;&gt;2</title>
<path fill="none" stroke="black" d="M96.2903,-25.6679C106.389,-27.5169 116,-24.9609 116,-18 116,-13.5406 112.056,-10.8891 106.566,-10.0454"/>
<polygon fill="black" stroke="black" points="106.189,-6.55441 96.2903,-10.3321 106.384,-13.5517 106.189,-6.55441"/>
<text text-anchor="middle" x="119.5" y="-14.3" font-family="Times,serif" font-size="14.00">a</text>
</g>
<!-- 3&#45;&gt;1 -->
<g id="edge5" class="edge"><title>3&#45;&gt;1</title>
<path fill="none" stroke="black" d="M20.495,-90.5339C17.4509,-84.2247 14.5358,-76.9922 13,-70 11.2942,-62.2338 11.389,-53.6741 12.2349,-45.8216"/>
<polygon fill="black" stroke="black" points="15.732,-46.1017 13.7555,-35.6928 8.80953,-45.0624 15.732,-46.1017"/>
<text text-anchor="middle" x="16.5" y="-58.3" font-family="Times,serif" font-size="14.00">a</text>
</g>
<!-- 3&#45;&gt;2 -->
<g id="edge6" class="edge"><title>3&#45;&gt;2</title>
<path fill="none" stroke="black" d="M41.1528,-90.3519C48.6032,-76.6676 58.7867,-57.9633 66.858,-43.1383"/>
<polygon fill="black" stroke="black" points="70.0993,-44.5044 71.8071,-34.0481 63.9515,-41.1572 70.0993,-44.5044"/>
<text text-anchor="middle" x="62.5" y="-58.3" font-family="Times,serif" font-size="14.00">b</text>
</g>
</g>
</svg>
