<?xml version="1.0" encoding="UTF-8" standalone="no"?>
<!DOCTYPE svg PUBLIC "-//W3C//DTD SVG 1.1//EN"
 "http://www.w3.org/Graphics/SVG/1.1/DTD/svg11.dtd">
<!-- Generated by graphviz version 2.36.0 (20140111.2315)
 -->
<!-- Title: %3 Pages: 1 -->
<svg width="99pt" height="316pt"
 viewBox="0.00 0.00 99.00 316.00" xmlns="http://www.w3.org/2000/svg" xmlns:xlink="http://www.w3.org/1999/xlink">
<g id="graph0" class="graph" transform="scale(1 1) rotate(0) translate(4 312)">
<title>%3</title>
<polygon fill="white" stroke="none" points="-4,4 -4,-312 95,-312 95,4 -4,4"/>
<!-- 0 -->
<g id="node1" class="node"><title>0</title>
<ellipse fill="lightblue" stroke="black" cx="18" cy="-202" rx="18" ry="18"/>
<text text-anchor="middle" x="18" y="-198.3" font-family="Times,serif" font-size="14.00">0</text>
</g>
<!-- 0&#45;&gt;0 -->
<g id="edge1" class="edge"><title>0&#45;&gt;0</title>
<path fill="none" stroke="black" d="M34.2903,-209.668C44.3892,-211.517 54,-208.961 54,-202 54,-197.541 50.0557,-194.889 44.5656,-194.045"/>
<polygon fill="black" stroke="black" points="44.1887,-190.554 34.2903,-194.332 44.384,-197.552 44.1887,-190.554"/>
<text text-anchor="middle" x="57.5" y="-198.3" font-family="Times,serif" font-size="14.00">a</text>
</g>
<!-- 2 -->
<g id="node3" class="node"><title>2</title>
<ellipse fill="lightblue" stroke="black" cx="48" cy="-110" rx="17.5909" ry="18"/>
<ellipse fill="none" stroke="black" cx="48" cy="-110" rx="21.5" ry="22"/>
<text text-anchor="middle" x="48" y="-106.3" font-family="Times,serif" font-size="14.00">2</text>
</g>
<!-- 0&#45;&gt;2 -->
<g id="edge2" class="edge"><title>0&#45;&gt;2</title>
<path fill="none" stroke="black" d="M16.7325,-184.019C16.5254,-173.881 17.2402,-160.9 21,-150 22.7345,-144.971 25.3127,-139.997 28.1983,-135.371"/>
<polygon fill="black" stroke="black" points="31.1899,-137.198 33.9855,-126.978 25.4272,-133.224 31.1899,-137.198"/>
<text text-anchor="middle" x="24.5" y="-154.3" font-family="Times,serif" font-size="14.00">b</text>
</g>
<!-- 1 -->
<g id="node2" class="node"><title>1</title>
<ellipse fill="green" stroke="black" cx="72" cy="-290" rx="18" ry="18"/>
<text text-anchor="middle" x="72" y="-286.3" font-family="Times,serif" font-size="14.00">1</text>
</g>
<!-- 1&#45;&gt;0 -->
<g id="edge3" class="edge"><title>1&#45;&gt;0</title>
<path fill="none" stroke="black" d="M62.8396,-274.411C54.6164,-261.315 42.3971,-241.855 32.7902,-226.555"/>
<polygon fill="black" stroke="black" points="35.4871,-224.268 27.2053,-217.66 29.5589,-227.99 35.4871,-224.268"/>
<text text-anchor="middle" x="52.5" y="-242.3" font-family="Times,serif" font-size="14.00">b</text>
</g>
<!-- 1&#45;&gt;2 -->
<g id="edge4" class="edge"><title>1&#45;&gt;2</title>
<path fill="none" stroke="black" d="M73.1037,-271.779C74.115,-250.875 74.812,-214.619 70,-184 67.691,-169.308 63.1709,-153.45 58.8254,-140.28"/>
<polygon fill="black" stroke="black" points="62.1285,-139.122 55.5759,-130.797 55.5064,-141.391 62.1285,-139.122"/>
<text text-anchor="middle" x="76.5" y="-198.3" font-family="Times,serif" font-size="14.00">a</text>
</g>
<!-- 2&#45;&gt;0 -->
<g id="edge5" class="edge"><title>2&#45;&gt;0</title>
<path fill="none" stroke="black" d="M41.2721,-131.184C36.9612,-144.116 31.3241,-161.028 26.6776,-174.967"/>
<polygon fill="black" stroke="black" points="23.3444,-173.899 23.5025,-184.493 29.9852,-176.113 23.3444,-173.899"/>
<text text-anchor="middle" x="38.5" y="-154.3" font-family="Times,serif" font-size="14.00">b</text>
</g>
<!-- 3 -->
<g id="node4" class="node"><title>3</title>
<ellipse fill="lightblue" stroke="black" cx="48" cy="-18" rx="18" ry="18"/>
<text text-anchor="middle" x="48" y="-14.3" font-family="Times,serif" font-size="14.00">3</text>
</g>
<!-- 2&#45;&gt;3 -->
<g id="edge6" class="edge"><title>2&#45;&gt;3</title>
<path fill="none" stroke="black" d="M40.0484,-89.491C36.7168,-79.0175 34.0237,-65.8575 36,-54 36.5217,-50.8695 37.2891,-47.6437 38.1877,-44.476"/>
<polygon fill="black" stroke="black" points="41.5891,-45.3348 41.3664,-34.7423 34.9349,-43.1618 41.5891,-45.3348"/>
<text text-anchor="middle" x="39.5" y="-58.3" font-family="Times,serif" font-size="14.00">a</text>
</g>
<!-- 3&#45;&gt;2 -->
<g id="edge7" class="edge"><title>3&#45;&gt;2</title>
<path fill="none" stroke="black" d="M48,-36.2581C48,-47.9274 48,-63.6781 48,-77.539"/>
<polygon fill="black" stroke="black" points="44.5001,-77.6712 48,-87.6713 51.5001,-77.6713 44.5001,-77.6712"/>
<text text-anchor="middle" x="51.5" y="-58.3" font-family="Times,serif" font-size="14.00">a</text>
</g>
<!-- 3&#45;&gt;3 -->
<g id="edge8" class="edge"><title>3&#45;&gt;3</title>
<path fill="none" stroke="black" d="M64.2903,-25.6679C74.3892,-27.5169 84,-24.9609 84,-18 84,-13.5406 80.0557,-10.8891 74.5656,-10.0454"/>
<polygon fill="black" stroke="black" points="74.1887,-6.55441 64.2903,-10.3321 74.384,-13.5517 74.1887,-6.55441"/>
<text text-anchor="middle" x="87.5" y="-14.3" font-family="Times,serif" font-size="14.00">b</text>
</g>
</g>
</svg>
