<?xml version="1.0" encoding="UTF-8" standalone="no"?>
<!DOCTYPE svg PUBLIC "-//W3C//DTD SVG 1.1//EN"
 "http://www.w3.org/Graphics/SVG/1.1/DTD/svg11.dtd">
<!-- Generated by graphviz version 2.36.0 (20140111.2315)
 -->
<!-- Title: %3 Pages: 1 -->
<svg width="115pt" height="316pt"
 viewBox="0.00 0.00 115.00 316.00" xmlns="http://www.w3.org/2000/svg" xmlns:xlink="http://www.w3.org/1999/xlink">
<g id="graph0" class="graph" transform="scale(1 1) rotate(0) translate(4 312)">
<title>%3</title>
<polygon fill="white" stroke="none" points="-4,4 -4,-312 111,-312 111,4 -4,4"/>
<!-- 0 -->
<g id="node1" class="node"><title>0</title>
<ellipse fill="green" stroke="black" cx="53" cy="-290" rx="18" ry="18"/>
<text text-anchor="middle" x="53" y="-286.3" font-family="Times,serif" font-size="14.00">0</text>
</g>
<!-- 0&#45;&gt;0 -->
<g id="edge1" class="edge"><title>0&#45;&gt;0</title>
<path fill="none" stroke="black" d="M69.2903,-297.668C79.3892,-299.517 89,-296.961 89,-290 89,-285.541 85.0557,-282.889 79.5656,-282.045"/>
<polygon fill="black" stroke="black" points="79.1887,-278.554 69.2903,-282.332 79.384,-285.552 79.1887,-278.554"/>
<text text-anchor="middle" x="92.5" y="-286.3" font-family="Times,serif" font-size="14.00">a</text>
</g>
<!-- 2 -->
<g id="node3" class="node"><title>2</title>
<ellipse fill="lightblue" stroke="black" cx="21" cy="-198" rx="17.5909" ry="18"/>
<ellipse fill="none" stroke="black" cx="21" cy="-198" rx="21.5" ry="22"/>
<text text-anchor="middle" x="21" y="-194.3" font-family="Times,serif" font-size="14.00">2</text>
</g>
<!-- 0&#45;&gt;2 -->
<g id="edge2" class="edge"><title>0&#45;&gt;2</title>
<path fill="none" stroke="black" d="M37.8581,-280.039C29.1094,-273.929 18.8934,-264.967 14,-254 10.5143,-246.188 10.2922,-237.172 11.4879,-228.73"/>
<polygon fill="black" stroke="black" points="14.9365,-229.335 13.5254,-218.835 8.08036,-227.924 14.9365,-229.335"/>
<text text-anchor="middle" x="22.5" y="-242.3" font-family="Times,serif" font-size="14.00">b,c</text>
</g>
<!-- 1 -->
<g id="node2" class="node"><title>1</title>
<ellipse fill="lightblue" stroke="black" cx="38" cy="-106" rx="18" ry="18"/>
<text text-anchor="middle" x="38" y="-102.3" font-family="Times,serif" font-size="14.00">1</text>
</g>
<!-- 1&#45;&gt;2 -->
<g id="edge3" class="edge"><title>1&#45;&gt;2</title>
<path fill="none" stroke="black" d="M34.8174,-123.849C32.568,-135.758 29.4882,-152.062 26.8071,-166.256"/>
<polygon fill="black" stroke="black" points="23.3598,-165.65 24.9429,-176.126 30.2382,-166.949 23.3598,-165.65"/>
<text text-anchor="middle" x="34.5" y="-146.3" font-family="Times,serif" font-size="14.00">a</text>
</g>
<!-- 3 -->
<g id="node4" class="node"><title>3</title>
<ellipse fill="lightblue" stroke="black" cx="64" cy="-18" rx="18" ry="18"/>
<text text-anchor="middle" x="64" y="-14.3" font-family="Times,serif" font-size="14.00">3</text>
</g>
<!-- 1&#45;&gt;3 -->
<g id="edge4" class="edge"><title>1&#45;&gt;3</title>
<path fill="none" stroke="black" d="M42.7868,-88.4397C45.6949,-78.4509 49.5085,-65.4787 53,-54 53.8689,-51.1436 54.7883,-48.1597 55.7108,-45.1909"/>
<polygon fill="black" stroke="black" points="59.1402,-45.9511 58.789,-35.3621 52.4602,-43.8589 59.1402,-45.9511"/>
<text text-anchor="middle" x="61.5" y="-58.3" font-family="Times,serif" font-size="14.00">b,c</text>
</g>
<!-- 2&#45;&gt;0 -->
<g id="edge5" class="edge"><title>2&#45;&gt;0</title>
<path fill="none" stroke="black" d="M28.1273,-219.046C32.7713,-232.107 38.8736,-249.27 43.8716,-263.326"/>
<polygon fill="black" stroke="black" points="40.6311,-264.66 47.279,-272.91 47.2266,-262.315 40.6311,-264.66"/>
<text text-anchor="middle" x="47" y="-242.3" font-family="Times,serif" font-size="14.00">c,a</text>
</g>
<!-- 2&#45;&gt;1 -->
<g id="edge6" class="edge"><title>2&#45;&gt;1</title>
<path fill="none" stroke="black" d="M17.4904,-176.073C16.437,-165.68 16.2016,-153.021 19,-142 20.005,-138.042 21.5577,-134.047 23.3517,-130.244"/>
<polygon fill="black" stroke="black" points="26.4996,-131.779 28.1343,-121.311 20.3284,-128.475 26.4996,-131.779"/>
<text text-anchor="middle" x="22.5" y="-146.3" font-family="Times,serif" font-size="14.00">b</text>
</g>
<!-- 3&#45;&gt;0 -->
<g id="edge7" class="edge"><title>3&#45;&gt;0</title>
<path fill="none" stroke="black" d="M67.5135,-36.0151C68.529,-41.7067 69.4982,-48.1029 70,-54 70.6029,-61.0855 70.2123,-62.8921 70,-70 67.5545,-151.887 68.3797,-172.615 59,-254 58.7035,-256.572 58.3429,-259.243 57.947,-261.91"/>
<polygon fill="black" stroke="black" points="54.4625,-261.531 56.3075,-271.964 61.3713,-262.658 54.4625,-261.531"/>
<text text-anchor="middle" x="75" y="-146.3" font-family="Times,serif" font-size="14.00">c,a</text>
</g>
<!-- 3&#45;&gt;3 -->
<g id="edge8" class="edge"><title>3&#45;&gt;3</title>
<path fill="none" stroke="black" d="M80.2903,-25.6679C90.3892,-27.5169 100,-24.9609 100,-18 100,-13.5406 96.0557,-10.8891 90.5656,-10.0454"/>
<polygon fill="black" stroke="black" points="90.1887,-6.55441 80.2903,-10.3321 90.384,-13.5517 90.1887,-6.55441"/>
<text text-anchor="middle" x="103.5" y="-14.3" font-family="Times,serif" font-size="14.00">b</text>
</g>
</g>
</svg>
