<?xml version="1.0" encoding="UTF-8" standalone="no"?>
<!DOCTYPE svg PUBLIC "-//W3C//DTD SVG 1.1//EN"
 "http://www.w3.org/Graphics/SVG/1.1/DTD/svg11.dtd">
<!-- Generated by graphviz version 2.36.0 (20140111.2315)
 -->
<!-- Title: %3 Pages: 1 -->
<svg width="148pt" height="316pt"
 viewBox="0.00 0.00 148.05 316.00" xmlns="http://www.w3.org/2000/svg" xmlns:xlink="http://www.w3.org/1999/xlink">
<g id="graph0" class="graph" transform="scale(1 1) rotate(0) translate(4 312)">
<title>%3</title>
<polygon fill="white" stroke="none" points="-4,4 -4,-312 144.053,-312 144.053,4 -4,4"/>
<!-- 0 -->
<g id="node1" class="node"><title>0</title>
<ellipse fill="lightblue" stroke="black" cx="83.0528" cy="-286" rx="17.5909" ry="18"/>
<ellipse fill="none" stroke="black" cx="83.0528" cy="-286" rx="21.5" ry="22"/>
<text text-anchor="middle" x="83.0528" y="-282.3" font-family="Times,serif" font-size="14.00">0</text>
</g>
<!-- 0&#45;&gt;0 -->
<g id="edge1" class="edge"><title>0&#45;&gt;0</title>
<path fill="none" stroke="black" d="M103.119,-294.734C113.126,-295.943 122.053,-293.031 122.053,-286 122.053,-281.496 118.389,-278.682 113.125,-277.559"/>
<polygon fill="black" stroke="black" points="113.217,-274.061 103.119,-277.266 113.012,-281.057 113.217,-274.061"/>
<text text-anchor="middle" x="130.553" y="-282.3" font-family="Times,serif" font-size="14.00">b,c</text>
</g>
<!-- 1 -->
<g id="node2" class="node"><title>1</title>
<ellipse fill="lightblue" stroke="black" cx="42.0528" cy="-194" rx="18" ry="18"/>
<text text-anchor="middle" x="42.0528" y="-190.3" font-family="Times,serif" font-size="14.00">1</text>
</g>
<!-- 0&#45;&gt;1 -->
<g id="edge2" class="edge"><title>0&#45;&gt;1</title>
<path fill="none" stroke="black" d="M74.1564,-265.471C68.0712,-252.114 59.9522,-234.291 53.4016,-219.912"/>
<polygon fill="black" stroke="black" points="56.4923,-218.254 49.1615,-210.605 50.1221,-221.156 56.4923,-218.254"/>
<text text-anchor="middle" x="68.5528" y="-234.3" font-family="Times,serif" font-size="14.00">a</text>
</g>
<!-- 2 -->
<g id="node3" class="node"><title>2</title>
<ellipse fill="green" stroke="black" cx="42.0528" cy="-18" rx="18" ry="18"/>
<text text-anchor="middle" x="42.0528" y="-14.3" font-family="Times,serif" font-size="14.00">2</text>
</g>
<!-- 1&#45;&gt;2 -->
<g id="edge3" class="edge"><title>1&#45;&gt;2</title>
<path fill="none" stroke="black" d="M31.349,-179.143C21.8013,-165.841 8.5137,-144.76 3.05278,-124 -1.01759,-108.526 -1.01759,-103.474 3.05278,-88 7.48978,-71.1327 17.0936,-54.0532 25.6602,-41.1066"/>
<polygon fill="black" stroke="black" points="28.5532,-43.0765 31.349,-32.8572 22.7906,-39.1026 28.5532,-43.0765"/>
<text text-anchor="middle" x="11.5528" y="-102.3" font-family="Times,serif" font-size="14.00">b,c</text>
</g>
<!-- 3 -->
<g id="node4" class="node"><title>3</title>
<ellipse fill="lightblue" stroke="black" cx="85.0528" cy="-106" rx="18" ry="18"/>
<text text-anchor="middle" x="85.0528" y="-102.3" font-family="Times,serif" font-size="14.00">3</text>
</g>
<!-- 1&#45;&gt;3 -->
<g id="edge4" class="edge"><title>1&#45;&gt;3</title>
<path fill="none" stroke="black" d="M49.7403,-177.625C56.1211,-164.863 65.3167,-146.472 72.7245,-131.656"/>
<polygon fill="black" stroke="black" points="75.9451,-133.041 77.2868,-122.532 69.6841,-129.911 75.9451,-133.041"/>
<text text-anchor="middle" x="71.5528" y="-146.3" font-family="Times,serif" font-size="14.00">a</text>
</g>
<!-- 2&#45;&gt;1 -->
<g id="edge5" class="edge"><title>2&#45;&gt;1</title>
<path fill="none" stroke="black" d="M42.0528,-36.0697C42.0528,-66.266 42.0528,-129.334 42.0528,-165.653"/>
<polygon fill="black" stroke="black" points="38.5529,-165.999 42.0528,-175.999 45.5529,-165.999 38.5529,-165.999"/>
<text text-anchor="middle" x="45.5528" y="-102.3" font-family="Times,serif" font-size="14.00">c</text>
</g>
<!-- 2&#45;&gt;2 -->
<g id="edge6" class="edge"><title>2&#45;&gt;2</title>
<path fill="none" stroke="black" d="M58.3431,-25.6679C68.4419,-27.5169 78.0528,-24.9609 78.0528,-18 78.0528,-13.5406 74.1085,-10.8891 68.6184,-10.0454"/>
<polygon fill="black" stroke="black" points="68.2415,-6.55441 58.3431,-10.3321 68.4368,-13.5517 68.2415,-6.55441"/>
<text text-anchor="middle" x="86.5528" y="-14.3" font-family="Times,serif" font-size="14.00">b,a</text>
</g>
<!-- 3&#45;&gt;0 -->
<g id="edge7" class="edge"><title>3&#45;&gt;0</title>
<path fill="none" stroke="black" d="M84.8605,-124.114C84.5257,-153.909 83.8311,-215.727 83.4071,-253.464"/>
<polygon fill="black" stroke="black" points="79.9027,-253.843 83.2901,-263.882 86.9023,-253.922 79.9027,-253.843"/>
<text text-anchor="middle" x="87.5528" y="-190.3" font-family="Times,serif" font-size="14.00">c</text>
</g>
<!-- 3&#45;&gt;2 -->
<g id="edge8" class="edge"><title>3&#45;&gt;2</title>
<path fill="none" stroke="black" d="M77.3652,-89.6249C70.9844,-76.8633 61.7888,-58.4721 54.381,-43.6565"/>
<polygon fill="black" stroke="black" points="57.4214,-41.9109 49.8187,-34.5319 51.1604,-45.0415 57.4214,-41.9109"/>
<text text-anchor="middle" x="71.5528" y="-58.3" font-family="Times,serif" font-size="14.00">a</text>
</g>
<!-- 3&#45;&gt;3 -->
<g id="edge9" class="edge"><title>3&#45;&gt;3</title>
<path fill="none" stroke="black" d="M101.343,-113.668C111.442,-115.517 121.053,-112.961 121.053,-106 121.053,-101.541 117.108,-98.8891 111.618,-98.0454"/>
<polygon fill="black" stroke="black" points="111.241,-94.5544 101.343,-98.3321 111.437,-101.552 111.241,-94.5544"/>
<text text-anchor="middle" x="124.553" y="-102.3" font-family="Times,serif" font-size="14.00">b</text>
</g>
</g>
</svg>
