<?xml version="1.0" encoding="UTF-8" standalone="no"?>
<!DOCTYPE svg PUBLIC "-//W3C//DTD SVG 1.1//EN"
 "http://www.w3.org/Graphics/SVG/1.1/DTD/svg11.dtd">
<!-- Generated by graphviz version 2.36.0 (20140111.2315)
 -->
<!-- Title: %3 Pages: 1 -->
<svg width="175pt" height="228pt"
 viewBox="0.00 0.00 175.44 228.00" xmlns="http://www.w3.org/2000/svg" xmlns:xlink="http://www.w3.org/1999/xlink">
<g id="graph0" class="graph" transform="scale(1 1) rotate(0) translate(4 224)">
<title>%3</title>
<polygon fill="white" stroke="none" points="-4,4 -4,-224 171.441,-224 171.441,4 -4,4"/>
<!-- 0 -->
<g id="node1" class="node"><title>0</title>
<ellipse fill="lightblue" stroke="black" cx="52.4405" cy="-198" rx="17.5909" ry="18"/>
<ellipse fill="none" stroke="black" cx="52.4405" cy="-198" rx="21.5" ry="22"/>
<text text-anchor="middle" x="52.4405" y="-194.3" font-family="Times,serif" font-size="14.00">0</text>
</g>
<!-- 1 -->
<g id="node2" class="node"><title>1</title>
<ellipse fill="lightblue" stroke="black" cx="31.4405" cy="-18" rx="18" ry="18"/>
<text text-anchor="middle" x="31.4405" y="-14.3" font-family="Times,serif" font-size="14.00">1</text>
</g>
<!-- 0&#45;&gt;1 -->
<g id="edge1" class="edge"><title>0&#45;&gt;1</title>
<path fill="none" stroke="black" d="M37.2746,-182.355C30.6233,-175.399 23.0673,-166.712 17.4405,-158 8.47995,-144.126 5.84713,-140.161 2.44055,-124 -0.859529,-108.344 -0.721491,-103.684 2.44055,-88 5.57152,-72.4697 12.298,-56.0816 18.4851,-43.1753"/>
<polygon fill="black" stroke="black" points="21.7027,-44.5662 23.0427,-34.0564 15.4412,-41.4367 21.7027,-44.5662"/>
<text text-anchor="middle" x="5.94055" y="-102.3" font-family="Times,serif" font-size="14.00">b</text>
</g>
<!-- 2 -->
<g id="node3" class="node"><title>2</title>
<ellipse fill="green" stroke="black" cx="84.4405" cy="-106" rx="18" ry="18"/>
<text text-anchor="middle" x="84.4405" y="-102.3" font-family="Times,serif" font-size="14.00">2</text>
</g>
<!-- 0&#45;&gt;2 -->
<g id="edge2" class="edge"><title>0&#45;&gt;2</title>
<path fill="none" stroke="black" d="M59.5424,-177.026C64.1652,-164.024 70.2411,-146.936 75.2335,-132.895"/>
<polygon fill="black" stroke="black" points="78.5885,-133.906 78.641,-123.311 71.993,-131.561 78.5885,-133.906"/>
<text text-anchor="middle" x="73.9405" y="-146.3" font-family="Times,serif" font-size="14.00">a</text>
</g>
<!-- 1&#45;&gt;0 -->
<g id="edge3" class="edge"><title>1&#45;&gt;0</title>
<path fill="none" stroke="black" d="M32.5005,-36.1383C33.8826,-56.9607 36.587,-93.1364 40.4405,-124 42.1859,-137.978 44.6384,-153.379 46.8717,-166.417"/>
<polygon fill="black" stroke="black" points="43.4286,-167.046 48.5981,-176.294 50.3241,-165.841 43.4286,-167.046"/>
<text text-anchor="middle" x="48.9405" y="-102.3" font-family="Times,serif" font-size="14.00">b,a</text>
</g>
<!-- 2&#45;&gt;1 -->
<g id="edge4" class="edge"><title>2&#45;&gt;1</title>
<path fill="none" stroke="black" d="M75.2087,-90.0199C67.1528,-76.9482 55.326,-57.7576 45.9967,-42.6194"/>
<polygon fill="black" stroke="black" points="48.7928,-40.4853 40.5667,-33.8084 42.8336,-44.1579 48.7928,-40.4853"/>
<text text-anchor="middle" x="65.9405" y="-58.3" font-family="Times,serif" font-size="14.00">a</text>
</g>
<!-- 3 -->
<g id="node4" class="node"><title>3</title>
<ellipse fill="lightblue" stroke="black" cx="124.441" cy="-18" rx="18" ry="18"/>
<text text-anchor="middle" x="124.441" y="-14.3" font-family="Times,serif" font-size="14.00">3</text>
</g>
<!-- 2&#45;&gt;3 -->
<g id="edge5" class="edge"><title>2&#45;&gt;3</title>
<path fill="none" stroke="black" d="M91.7772,-89.2263C97.6412,-76.6186 105.973,-58.7061 112.753,-44.1276"/>
<polygon fill="black" stroke="black" points="116.107,-45.217 117.15,-34.6737 109.76,-42.2649 116.107,-45.217"/>
<text text-anchor="middle" x="110.941" y="-58.3" font-family="Times,serif" font-size="14.00">b</text>
</g>
<!-- 3&#45;&gt;0 -->
<g id="edge6" class="edge"><title>3&#45;&gt;0</title>
<path fill="none" stroke="black" d="M125.175,-36.1141C125.465,-57.5398 123.869,-94.9538 111.441,-124 103.134,-143.412 88.1222,-161.874 75.32,-175.375"/>
<polygon fill="black" stroke="black" points="72.6153,-173.134 68.1051,-182.721 77.6094,-178.039 72.6153,-173.134"/>
<text text-anchor="middle" x="123.941" y="-102.3" font-family="Times,serif" font-size="14.00">b</text>
</g>
<!-- 3&#45;&gt;3 -->
<g id="edge7" class="edge"><title>3&#45;&gt;3</title>
<path fill="none" stroke="black" d="M140.731,-25.6679C150.83,-27.5169 160.441,-24.9609 160.441,-18 160.441,-13.5406 156.496,-10.8891 151.006,-10.0454"/>
<polygon fill="black" stroke="black" points="150.629,-6.55441 140.731,-10.3321 150.825,-13.5517 150.629,-6.55441"/>
<text text-anchor="middle" x="163.941" y="-14.3" font-family="Times,serif" font-size="14.00">a</text>
</g>
</g>
</svg>
