<?xml version="1.0" encoding="UTF-8" standalone="no"?>
<!DOCTYPE svg PUBLIC "-//W3C//DTD SVG 1.1//EN"
 "http://www.w3.org/Graphics/SVG/1.1/DTD/svg11.dtd">
<!-- Generated by graphviz version 2.36.0 (20140111.2315)
 -->
<!-- Title: %3 Pages: 1 -->
<svg width="136pt" height="316pt"
 viewBox="0.00 0.00 136.00 316.00" xmlns="http://www.w3.org/2000/svg" xmlns:xlink="http://www.w3.org/1999/xlink">
<g id="graph0" class="graph" transform="scale(1 1) rotate(0) translate(4 312)">
<title>%3</title>
<polygon fill="white" stroke="none" points="-4,4 -4,-312 132,-312 132,4 -4,4"/>
<!-- 0 -->
<g id="node1" class="node"><title>0</title>
<ellipse fill="lightblue" stroke="black" cx="97" cy="-290" rx="18" ry="18"/>
<text text-anchor="middle" x="97" y="-286.3" font-family="Times,serif" font-size="14.00">0</text>
</g>
<!-- 1 -->
<g id="node2" class="node"><title>1</title>
<ellipse fill="lightblue" stroke="black" cx="18" cy="-202" rx="18" ry="18"/>
<text text-anchor="middle" x="18" y="-198.3" font-family="Times,serif" font-size="14.00">1</text>
</g>
<!-- 0&#45;&gt;1 -->
<g id="edge1" class="edge"><title>0&#45;&gt;1</title>
<path fill="none" stroke="black" d="M85.0016,-275.938C72.167,-261.967 51.6422,-239.623 36.688,-223.344"/>
<polygon fill="black" stroke="black" points="39.1951,-220.899 29.8525,-215.903 34.0399,-225.635 39.1951,-220.899"/>
<text text-anchor="middle" x="68.5" y="-242.3" font-family="Times,serif" font-size="14.00">a</text>
</g>
<!-- 2 -->
<g id="node3" class="node"><title>2</title>
<ellipse fill="green" stroke="black" cx="76" cy="-110" rx="17.5909" ry="18"/>
<ellipse fill="none" stroke="black" cx="76" cy="-110" rx="21.5" ry="22"/>
<text text-anchor="middle" x="76" y="-106.3" font-family="Times,serif" font-size="14.00">2</text>
</g>
<!-- 0&#45;&gt;2 -->
<g id="edge2" class="edge"><title>0&#45;&gt;2</title>
<path fill="none" stroke="black" d="M94.9864,-271.933C91.4582,-242.026 84.1115,-179.755 79.6626,-142.044"/>
<polygon fill="black" stroke="black" points="83.1378,-141.628 78.4901,-132.107 76.186,-142.448 83.1378,-141.628"/>
<text text-anchor="middle" x="91.5" y="-198.3" font-family="Times,serif" font-size="14.00">b</text>
</g>
<!-- 1&#45;&gt;1 -->
<g id="edge3" class="edge"><title>1&#45;&gt;1</title>
<path fill="none" stroke="black" d="M34.2903,-209.668C44.3892,-211.517 54,-208.961 54,-202 54,-197.541 50.0557,-194.889 44.5656,-194.045"/>
<polygon fill="black" stroke="black" points="44.1887,-190.554 34.2903,-194.332 44.384,-197.552 44.1887,-190.554"/>
<text text-anchor="middle" x="57.5" y="-198.3" font-family="Times,serif" font-size="14.00">b</text>
</g>
<!-- 1&#45;&gt;2 -->
<g id="edge4" class="edge"><title>1&#45;&gt;2</title>
<path fill="none" stroke="black" d="M27.3187,-186.54C35.8566,-173.292 48.7037,-153.356 59.0567,-137.291"/>
<polygon fill="black" stroke="black" points="62.0335,-139.133 64.5086,-128.832 56.1495,-135.341 62.0335,-139.133"/>
<text text-anchor="middle" x="54.5" y="-154.3" font-family="Times,serif" font-size="14.00">a</text>
</g>
<!-- 3 -->
<g id="node4" class="node"><title>3</title>
<ellipse fill="lightblue" stroke="black" cx="110" cy="-18" rx="18" ry="18"/>
<text text-anchor="middle" x="110" y="-14.3" font-family="Times,serif" font-size="14.00">3</text>
</g>
<!-- 2&#45;&gt;3 -->
<g id="edge5" class="edge"><title>2&#45;&gt;3</title>
<path fill="none" stroke="black" d="M69.5187,-88.8712C67.1771,-78.1006 66.1554,-64.8573 71,-54 74.4407,-46.2891 80.5128,-39.5689 86.856,-34.1346"/>
<polygon fill="black" stroke="black" points="89.0784,-36.8406 94.8581,-27.961 84.8025,-31.2983 89.0784,-36.8406"/>
<text text-anchor="middle" x="79.5" y="-58.3" font-family="Times,serif" font-size="14.00">b,a</text>
</g>
<!-- 3&#45;&gt;0 -->
<g id="edge6" class="edge"><title>3&#45;&gt;0</title>
<path fill="none" stroke="black" d="M110.824,-36.1878C112.432,-75.1302 115.013,-173.001 105,-254 104.66,-256.747 104.198,-259.594 103.665,-262.424"/>
<polygon fill="black" stroke="black" points="100.203,-261.876 101.524,-272.388 107.047,-263.347 100.203,-261.876"/>
<text text-anchor="middle" x="114.5" y="-154.3" font-family="Times,serif" font-size="14.00">b</text>
</g>
<!-- 3&#45;&gt;2 -->
<g id="edge7" class="edge"><title>3&#45;&gt;2</title>
<path fill="none" stroke="black" d="M103.947,-35.0221C99.3156,-47.2822 92.7975,-64.5359 87.2211,-79.2971"/>
<polygon fill="black" stroke="black" points="83.8056,-78.4344 83.5457,-89.0261 90.3539,-80.9083 83.8056,-78.4344"/>
<text text-anchor="middle" x="99.5" y="-58.3" font-family="Times,serif" font-size="14.00">a</text>
</g>
</g>
</svg>
