<?xml version="1.0" encoding="UTF-8" standalone="no"?>
<!DOCTYPE svg PUBLIC "-//W3C//DTD SVG 1.1//EN"
 "http://www.w3.org/Graphics/SVG/1.1/DTD/svg11.dtd">
<!-- Generated by graphviz version 2.36.0 (20140111.2315)
 -->
<!-- Title: %3 Pages: 1 -->
<svg width="155pt" height="228pt"
 viewBox="0.00 0.00 155.00 228.00" xmlns="http://www.w3.org/2000/svg" xmlns:xlink="http://www.w3.org/1999/xlink">
<g id="graph0" class="graph" transform="scale(1 1) rotate(0) translate(4 224)">
<title>%3</title>
<polygon fill="white" stroke="none" points="-4,4 -4,-224 151,-224 151,4 -4,4"/>
<!-- 0 -->
<g id="node1" class="node"><title>0</title>
<ellipse fill="lightblue" stroke="black" cx="104" cy="-110" rx="18" ry="18"/>
<text text-anchor="middle" x="104" y="-106.3" font-family="Times,serif" font-size="14.00">0</text>
</g>
<!-- 3 -->
<g id="node4" class="node"><title>3</title>
<ellipse fill="lightblue" stroke="black" cx="64" cy="-18" rx="18" ry="18"/>
<text text-anchor="middle" x="64" y="-14.3" font-family="Times,serif" font-size="14.00">3</text>
</g>
<!-- 0&#45;&gt;3 -->
<g id="edge1" class="edge"><title>0&#45;&gt;3</title>
<path fill="none" stroke="black" d="M89.2946,-98.9137C80.4761,-91.9377 70.0262,-81.8056 65,-70 61.8996,-62.7176 60.8421,-54.3039 60.779,-46.4365"/>
<polygon fill="black" stroke="black" points="64.286,-46.343 61.2108,-36.2043 57.2922,-46.0478 64.286,-46.343"/>
<text text-anchor="middle" x="73.5" y="-58.3" font-family="Times,serif" font-size="14.00">b,a</text>
</g>
<!-- 1 -->
<g id="node2" class="node"><title>1</title>
<ellipse fill="green" stroke="black" cx="21" cy="-110" rx="17.5909" ry="18"/>
<ellipse fill="none" stroke="black" cx="21" cy="-110" rx="21.5" ry="22"/>
<text text-anchor="middle" x="21" y="-106.3" font-family="Times,serif" font-size="14.00">1</text>
</g>
<!-- 1&#45;&gt;1 -->
<g id="edge2" class="edge"><title>1&#45;&gt;1</title>
<path fill="none" stroke="black" d="M41.0663,-118.734C51.0736,-119.943 60,-117.031 60,-110 60,-105.496 56.3366,-102.682 51.0725,-101.559"/>
<polygon fill="black" stroke="black" points="51.1646,-98.0605 41.0663,-101.266 50.9594,-105.057 51.1646,-98.0605"/>
<text text-anchor="middle" x="63.5" y="-106.3" font-family="Times,serif" font-size="14.00">b</text>
</g>
<!-- 1&#45;&gt;3 -->
<g id="edge3" class="edge"><title>1&#45;&gt;3</title>
<path fill="none" stroke="black" d="M30.1192,-89.9133C36.5289,-76.4976 45.1657,-58.4205 52.1149,-43.8759"/>
<polygon fill="black" stroke="black" points="55.455,-45.0035 56.608,-34.4716 49.1389,-41.9857 55.455,-45.0035"/>
<text text-anchor="middle" x="49.5" y="-58.3" font-family="Times,serif" font-size="14.00">a</text>
</g>
<!-- 2 -->
<g id="node3" class="node"><title>2</title>
<ellipse fill="lightblue" stroke="black" cx="104" cy="-202" rx="18" ry="18"/>
<text text-anchor="middle" x="104" y="-198.3" font-family="Times,serif" font-size="14.00">2</text>
</g>
<!-- 2&#45;&gt;0 -->
<g id="edge4" class="edge"><title>2&#45;&gt;0</title>
<path fill="none" stroke="black" d="M104,-183.647C104,-170.823 104,-153.108 104,-138.381"/>
<polygon fill="black" stroke="black" points="107.5,-138.3 104,-128.3 100.5,-138.3 107.5,-138.3"/>
<text text-anchor="middle" x="107.5" y="-154.3" font-family="Times,serif" font-size="14.00">a</text>
</g>
<!-- 2&#45;&gt;2 -->
<g id="edge5" class="edge"><title>2&#45;&gt;2</title>
<path fill="none" stroke="black" d="M120.29,-209.668C130.389,-211.517 140,-208.961 140,-202 140,-197.541 136.056,-194.889 130.566,-194.045"/>
<polygon fill="black" stroke="black" points="130.189,-190.554 120.29,-194.332 130.384,-197.552 130.189,-190.554"/>
<text text-anchor="middle" x="143.5" y="-198.3" font-family="Times,serif" font-size="14.00">b</text>
</g>
<!-- 3&#45;&gt;0 -->
<g id="edge6" class="edge"><title>3&#45;&gt;0</title>
<path fill="none" stroke="black" d="M72.2029,-34.1795C75.393,-40.2764 78.9954,-47.4098 82,-54 86.3235,-63.4833 90.6717,-74.0776 94.3474,-83.4171"/>
<polygon fill="black" stroke="black" points="91.1631,-84.8864 98.039,-92.947 97.6904,-82.3579 91.1631,-84.8864"/>
<text text-anchor="middle" x="91.5" y="-58.3" font-family="Times,serif" font-size="14.00">b</text>
</g>
<!-- 3&#45;&gt;3 -->
<g id="edge7" class="edge"><title>3&#45;&gt;3</title>
<path fill="none" stroke="black" d="M80.2903,-25.6679C90.3892,-27.5169 100,-24.9609 100,-18 100,-13.5406 96.0557,-10.8891 90.5656,-10.0454"/>
<polygon fill="black" stroke="black" points="90.1887,-6.55441 80.2903,-10.3321 90.384,-13.5517 90.1887,-6.55441"/>
<text text-anchor="middle" x="103.5" y="-14.3" font-family="Times,serif" font-size="14.00">a</text>
</g>
</g>
</svg>
