<?xml version="1.0" encoding="UTF-8" standalone="no"?>
<!DOCTYPE svg PUBLIC "-//W3C//DTD SVG 1.1//EN"
 "http://www.w3.org/Graphics/SVG/1.1/DTD/svg11.dtd">
<!-- Generated by graphviz version 2.36.0 (20140111.2315)
 -->
<!-- Title: %3 Pages: 1 -->
<svg width="160pt" height="316pt"
 viewBox="0.00 0.00 160.00 316.00" xmlns="http://www.w3.org/2000/svg" xmlns:xlink="http://www.w3.org/1999/xlink">
<g id="graph0" class="graph" transform="scale(1 1) rotate(0) translate(4 312)">
<title>%3</title>
<polygon fill="white" stroke="none" points="-4,4 -4,-312 156,-312 156,4 -4,4"/>
<!-- 0 -->
<g id="node1" class="node"><title>0</title>
<ellipse fill="green" stroke="black" cx="108" cy="-290" rx="18" ry="18"/>
<text text-anchor="middle" x="108" y="-286.3" font-family="Times,serif" font-size="14.00">0</text>
</g>
<!-- 0&#45;&gt;0 -->
<g id="edge1" class="edge"><title>0&#45;&gt;0</title>
<path fill="none" stroke="black" d="M124.29,-297.668C134.389,-299.517 144,-296.961 144,-290 144,-285.541 140.056,-282.889 134.566,-282.045"/>
<polygon fill="black" stroke="black" points="134.189,-278.554 124.29,-282.332 134.384,-285.552 134.189,-278.554"/>
<text text-anchor="middle" x="147.5" y="-286.3" font-family="Times,serif" font-size="14.00">a</text>
</g>
<!-- 1 -->
<g id="node2" class="node"><title>1</title>
<ellipse fill="lightblue" stroke="black" cx="108" cy="-202" rx="18" ry="18"/>
<text text-anchor="middle" x="108" y="-198.3" font-family="Times,serif" font-size="14.00">1</text>
</g>
<!-- 0&#45;&gt;1 -->
<g id="edge2" class="edge"><title>0&#45;&gt;1</title>
<path fill="none" stroke="black" d="M108,-271.597C108,-259.746 108,-243.817 108,-230.292"/>
<polygon fill="black" stroke="black" points="111.5,-230.084 108,-220.084 104.5,-230.084 111.5,-230.084"/>
<text text-anchor="middle" x="111.5" y="-242.3" font-family="Times,serif" font-size="14.00">b</text>
</g>
<!-- 3 -->
<g id="node4" class="node"><title>3</title>
<ellipse fill="lightblue" stroke="black" cx="73" cy="-114" rx="18" ry="18"/>
<text text-anchor="middle" x="73" y="-110.3" font-family="Times,serif" font-size="14.00">3</text>
</g>
<!-- 1&#45;&gt;3 -->
<g id="edge3" class="edge"><title>1&#45;&gt;3</title>
<path fill="none" stroke="black" d="M101.417,-184.824C96.3004,-172.252 89.1113,-154.588 83.2443,-140.172"/>
<polygon fill="black" stroke="black" points="86.4469,-138.756 79.4355,-130.813 79.9633,-141.395 86.4469,-138.756"/>
<text text-anchor="middle" x="96.5" y="-154.3" font-family="Times,serif" font-size="14.00">b</text>
</g>
<!-- 4 -->
<g id="node5" class="node"><title>4</title>
<ellipse fill="lightblue" stroke="black" cx="105" cy="-22" rx="17.5909" ry="18"/>
<ellipse fill="none" stroke="black" cx="105" cy="-22" rx="21.5" ry="22"/>
<text text-anchor="middle" x="105" y="-18.3" font-family="Times,serif" font-size="14.00">4</text>
</g>
<!-- 1&#45;&gt;4 -->
<g id="edge4" class="edge"><title>1&#45;&gt;4</title>
<path fill="none" stroke="black" d="M107.712,-183.933C107.21,-154.154 106.168,-92.2862 105.531,-54.5293"/>
<polygon fill="black" stroke="black" points="109.024,-54.0465 105.356,-44.1069 102.025,-54.1645 109.024,-54.0465"/>
<text text-anchor="middle" x="109.5" y="-110.3" font-family="Times,serif" font-size="14.00">a</text>
</g>
<!-- 2 -->
<g id="node3" class="node"><title>2</title>
<ellipse fill="lightblue" stroke="black" cx="18" cy="-22" rx="18" ry="18"/>
<text text-anchor="middle" x="18" y="-18.3" font-family="Times,serif" font-size="14.00">2</text>
</g>
<!-- 2&#45;&gt;2 -->
<g id="edge5" class="edge"><title>2&#45;&gt;2</title>
<path fill="none" stroke="black" d="M34.2903,-30.365C44.3892,-32.3821 54,-29.5938 54,-22 54,-17.1353 50.0557,-14.2427 44.5656,-13.3222"/>
<polygon fill="black" stroke="black" points="44.1791,-9.83225 34.2903,-13.635 44.3922,-16.829 44.1791,-9.83225"/>
<text text-anchor="middle" x="57.5" y="-18.3" font-family="Times,serif" font-size="14.00">b</text>
</g>
<!-- 2&#45;&gt;3 -->
<g id="edge6" class="edge"><title>2&#45;&gt;3</title>
<path fill="none" stroke="black" d="M27.0956,-37.8837C35.6189,-51.831 48.5023,-72.9128 58.453,-89.1959"/>
<polygon fill="black" stroke="black" points="55.7168,-91.4306 63.9179,-98.1383 61.6898,-87.7804 55.7168,-91.4306"/>
<text text-anchor="middle" x="53.5" y="-66.3" font-family="Times,serif" font-size="14.00">a</text>
</g>
<!-- 3&#45;&gt;2 -->
<g id="edge7" class="edge"><title>3&#45;&gt;2</title>
<path fill="none" stroke="black" d="M57.6241,-103.819C48.5527,-97.6269 37.5923,-88.6544 31,-78 25.8988,-69.7554 22.7987,-59.6811 20.915,-50.4181"/>
<polygon fill="black" stroke="black" points="24.3503,-49.7389 19.2633,-40.4452 17.4444,-50.8827 24.3503,-49.7389"/>
<text text-anchor="middle" x="34.5" y="-66.3" font-family="Times,serif" font-size="14.00">b</text>
</g>
<!-- 3&#45;&gt;4 -->
<g id="edge8" class="edge"><title>3&#45;&gt;4</title>
<path fill="none" stroke="black" d="M72.5464,-95.9885C72.7893,-85.8398 74.0164,-72.8579 78,-62 79.8322,-57.0061 82.4587,-52.0494 85.3621,-47.4291"/>
<polygon fill="black" stroke="black" points="88.3537,-49.2562 91.1505,-39.0372 82.5914,-45.2816 88.3537,-49.2562"/>
<text text-anchor="middle" x="81.5" y="-66.3" font-family="Times,serif" font-size="14.00">a</text>
</g>
<!-- 4&#45;&gt;3 -->
<g id="edge9" class="edge"><title>4&#45;&gt;3</title>
<path fill="none" stroke="black" d="M97.8727,-43.0455C93.2287,-56.1067 87.1264,-73.2695 82.1284,-87.3263"/>
<polygon fill="black" stroke="black" points="78.7734,-86.3151 78.721,-96.9098 85.3689,-88.6602 78.7734,-86.3151"/>
<text text-anchor="middle" x="93.5" y="-66.3" font-family="Times,serif" font-size="14.00">a</text>
</g>
<!-- 4&#45;&gt;4 -->
<g id="edge10" class="edge"><title>4&#45;&gt;4</title>
<path fill="none" stroke="black" d="M125.066,-30.7341C135.074,-31.9426 144,-29.0312 144,-22 144,-17.4956 140.337,-14.682 135.072,-13.5592"/>
<polygon fill="black" stroke="black" points="135.165,-10.0605 125.066,-13.2659 134.959,-17.0575 135.165,-10.0605"/>
<text text-anchor="middle" x="147.5" y="-18.3" font-family="Times,serif" font-size="14.00">b</text>
</g>
</g>
</svg>
