<?xml version="1.0" encoding="UTF-8" standalone="no"?>
<!DOCTYPE svg PUBLIC "-//W3C//DTD SVG 1.1//EN"
 "http://www.w3.org/Graphics/SVG/1.1/DTD/svg11.dtd">
<!-- Generated by graphviz version 2.36.0 (20140111.2315)
 -->
<!-- Title: %3 Pages: 1 -->
<svg width="153pt" height="316pt"
 viewBox="0.00 0.00 153.00 316.00" xmlns="http://www.w3.org/2000/svg" xmlns:xlink="http://www.w3.org/1999/xlink">
<g id="graph0" class="graph" transform="scale(1 1) rotate(0) translate(4 312)">
<title>%3</title>
<polygon fill="white" stroke="none" points="-4,4 -4,-312 149,-312 149,4 -4,4"/>
<!-- 0 -->
<g id="node1" class="node"><title>0</title>
<ellipse fill="lightblue" stroke="black" cx="98" cy="-194" rx="18" ry="18"/>
<text text-anchor="middle" x="98" y="-190.3" font-family="Times,serif" font-size="14.00">0</text>
</g>
<!-- 0&#45;&gt;0 -->
<g id="edge1" class="edge"><title>0&#45;&gt;0</title>
<path fill="none" stroke="black" d="M114.29,-201.668C124.389,-203.517 134,-200.961 134,-194 134,-189.541 130.056,-186.889 124.566,-186.045"/>
<polygon fill="black" stroke="black" points="124.189,-182.554 114.29,-186.332 124.384,-189.552 124.189,-182.554"/>
<text text-anchor="middle" x="137.5" y="-190.3" font-family="Times,serif" font-size="14.00">b</text>
</g>
<!-- 3 -->
<g id="node4" class="node"><title>3</title>
<ellipse fill="lightblue" stroke="black" cx="57" cy="-106" rx="18" ry="18"/>
<text text-anchor="middle" x="57" y="-102.3" font-family="Times,serif" font-size="14.00">3</text>
</g>
<!-- 0&#45;&gt;3 -->
<g id="edge2" class="edge"><title>0&#45;&gt;3</title>
<path fill="none" stroke="black" d="M90.48,-177.226C84.4115,-164.497 75.7652,-146.361 68.7794,-131.708"/>
<polygon fill="black" stroke="black" points="71.9352,-130.194 64.4724,-122.674 65.6165,-133.207 71.9352,-130.194"/>
<text text-anchor="middle" x="84.5" y="-146.3" font-family="Times,serif" font-size="14.00">a</text>
</g>
<!-- 1 -->
<g id="node2" class="node"><title>1</title>
<ellipse fill="lightblue" stroke="black" cx="18" cy="-194" rx="18" ry="18"/>
<text text-anchor="middle" x="18" y="-190.3" font-family="Times,serif" font-size="14.00">1</text>
</g>
<!-- 2 -->
<g id="node3" class="node"><title>2</title>
<ellipse fill="lightblue" stroke="black" cx="68" cy="-18" rx="18" ry="18"/>
<text text-anchor="middle" x="68" y="-14.3" font-family="Times,serif" font-size="14.00">2</text>
</g>
<!-- 1&#45;&gt;2 -->
<g id="edge3" class="edge"><title>1&#45;&gt;2</title>
<path fill="none" stroke="black" d="M16.678,-175.946C15.5293,-154.899 15.1095,-118.193 23,-88 27.6867,-70.0661 39.1625,-52.6051 49.3515,-39.735"/>
<polygon fill="black" stroke="black" points="52.0909,-41.9146 55.7771,-31.9817 46.7012,-37.4479 52.0909,-41.9146"/>
<text text-anchor="middle" x="26.5" y="-102.3" font-family="Times,serif" font-size="14.00">a</text>
</g>
<!-- 1&#45;&gt;3 -->
<g id="edge4" class="edge"><title>1&#45;&gt;3</title>
<path fill="none" stroke="black" d="M25.1532,-177.226C30.8706,-164.619 38.9938,-146.706 45.6049,-132.128"/>
<polygon fill="black" stroke="black" points="48.9496,-133.227 49.8921,-122.674 42.5745,-130.335 48.9496,-133.227"/>
<text text-anchor="middle" x="44.5" y="-146.3" font-family="Times,serif" font-size="14.00">b</text>
</g>
<!-- 2&#45;&gt;0 -->
<g id="edge5" class="edge"><title>2&#45;&gt;0</title>
<path fill="none" stroke="black" d="M73.0336,-35.2903C74.7446,-41.1542 76.5809,-47.8419 78,-54 86.7964,-92.1721 92.4294,-137.183 95.4048,-165.411"/>
<polygon fill="black" stroke="black" points="91.9582,-166.115 96.4504,-175.71 98.9224,-165.408 91.9582,-166.115"/>
<text text-anchor="middle" x="93.5" y="-102.3" font-family="Times,serif" font-size="14.00">a</text>
</g>
<!-- 2&#45;&gt;3 -->
<g id="edge6" class="edge"><title>2&#45;&gt;3</title>
<path fill="none" stroke="black" d="M68.2329,-36.0833C68.1438,-46.0277 67.6438,-58.7777 66,-70 65.5962,-72.7567 65.0617,-75.6101 64.454,-78.4438"/>
<polygon fill="black" stroke="black" points="60.9919,-77.8691 62.0347,-88.4125 67.7945,-79.52 60.9919,-77.8691"/>
<text text-anchor="middle" x="70.5" y="-58.3" font-family="Times,serif" font-size="14.00">b</text>
</g>
<!-- 3&#45;&gt;2 -->
<g id="edge7" class="edge"><title>3&#45;&gt;2</title>
<path fill="none" stroke="black" d="M49.2246,-89.6998C45.0628,-79.5044 41.4544,-65.8515 45,-54 46.3494,-49.4896 48.4875,-45.0217 50.9291,-40.8634"/>
<polygon fill="black" stroke="black" points="53.9596,-42.6266 56.5705,-32.3585 48.1262,-38.7573 53.9596,-42.6266"/>
<text text-anchor="middle" x="53.5" y="-58.3" font-family="Times,serif" font-size="14.00">b,a</text>
</g>
<!-- 4 -->
<g id="node5" class="node"><title>4</title>
<ellipse fill="green" stroke="black" cx="98" cy="-286" rx="17.5909" ry="18"/>
<ellipse fill="none" stroke="black" cx="98" cy="-286" rx="21.5" ry="22"/>
<text text-anchor="middle" x="98" y="-282.3" font-family="Times,serif" font-size="14.00">4</text>
</g>
<!-- 4&#45;&gt;0 -->
<g id="edge8" class="edge"><title>4&#45;&gt;0</title>
<path fill="none" stroke="black" d="M98,-263.671C98,-251.284 98,-235.552 98,-222.272"/>
<polygon fill="black" stroke="black" points="101.5,-222.258 98,-212.258 94.5001,-222.258 101.5,-222.258"/>
<text text-anchor="middle" x="101.5" y="-234.3" font-family="Times,serif" font-size="14.00">b</text>
</g>
<!-- 4&#45;&gt;4 -->
<g id="edge9" class="edge"><title>4&#45;&gt;4</title>
<path fill="none" stroke="black" d="M118.066,-294.734C128.074,-295.943 137,-293.031 137,-286 137,-281.496 133.337,-278.682 128.072,-277.559"/>
<polygon fill="black" stroke="black" points="128.165,-274.061 118.066,-277.266 127.959,-281.057 128.165,-274.061"/>
<text text-anchor="middle" x="140.5" y="-282.3" font-family="Times,serif" font-size="14.00">a</text>
</g>
</g>
</svg>
