<?xml version="1.0" encoding="UTF-8" standalone="no"?>
<!DOCTYPE svg PUBLIC "-//W3C//DTD SVG 1.1//EN"
 "http://www.w3.org/Graphics/SVG/1.1/DTD/svg11.dtd">
<!-- Generated by graphviz version 2.36.0 (20140111.2315)
 -->
<!-- Title: %3 Pages: 1 -->
<svg width="128pt" height="228pt"
 viewBox="0.00 0.00 128.00 228.00" xmlns="http://www.w3.org/2000/svg" xmlns:xlink="http://www.w3.org/1999/xlink">
<g id="graph0" class="graph" transform="scale(1 1) rotate(0) translate(4 224)">
<title>%3</title>
<polygon fill="white" stroke="none" points="-4,4 -4,-224 124,-224 124,4 -4,4"/>
<!-- 0 -->
<g id="node1" class="node"><title>0</title>
<ellipse fill="lightblue" stroke="black" cx="67" cy="-114" rx="18" ry="18"/>
<text text-anchor="middle" x="67" y="-110.3" font-family="Times,serif" font-size="14.00">0</text>
</g>
<!-- 2 -->
<g id="node3" class="node"><title>2</title>
<ellipse fill="lightblue" stroke="black" cx="47" cy="-22" rx="17.5909" ry="18"/>
<ellipse fill="none" stroke="black" cx="47" cy="-22" rx="21.5" ry="22"/>
<text text-anchor="middle" x="47" y="-18.3" font-family="Times,serif" font-size="14.00">2</text>
</g>
<!-- 0&#45;&gt;2 -->
<g id="edge1" class="edge"><title>0&#45;&gt;2</title>
<path fill="none" stroke="black" d="M67.9873,-95.7711C68.1498,-85.7782 67.6498,-73.0282 65,-62 64.1115,-58.3021 62.8626,-54.5297 61.4322,-50.8593"/>
<polygon fill="black" stroke="black" points="64.5554,-49.2655 57.3447,-41.503 58.1408,-52.0679 64.5554,-49.2655"/>
<text text-anchor="middle" x="75.5" y="-66.3" font-family="Times,serif" font-size="14.00">b,a</text>
</g>
<!-- 1 -->
<g id="node2" class="node"><title>1</title>
<ellipse fill="lightblue" stroke="black" cx="77" cy="-202" rx="18" ry="18"/>
<text text-anchor="middle" x="77" y="-198.3" font-family="Times,serif" font-size="14.00">1</text>
</g>
<!-- 1&#45;&gt;0 -->
<g id="edge2" class="edge"><title>1&#45;&gt;0</title>
<path fill="none" stroke="black" d="M75.0243,-184.009C73.641,-172.112 71.7629,-155.961 70.1715,-142.275"/>
<polygon fill="black" stroke="black" points="73.6032,-141.484 68.9716,-131.956 66.6501,-142.293 73.6032,-141.484"/>
<text text-anchor="middle" x="75.5" y="-154.3" font-family="Times,serif" font-size="14.00">b</text>
</g>
<!-- 1&#45;&gt;1 -->
<g id="edge3" class="edge"><title>1&#45;&gt;1</title>
<path fill="none" stroke="black" d="M93.2903,-209.668C103.389,-211.517 113,-208.961 113,-202 113,-197.541 109.056,-194.889 103.566,-194.045"/>
<polygon fill="black" stroke="black" points="103.189,-190.554 93.2903,-194.332 103.384,-197.552 103.189,-190.554"/>
<text text-anchor="middle" x="116.5" y="-198.3" font-family="Times,serif" font-size="14.00">a</text>
</g>
<!-- 2&#45;&gt;0 -->
<g id="edge4" class="edge"><title>2&#45;&gt;0</title>
<path fill="none" stroke="black" d="M42.5748,-43.7664C41.1646,-54.234 40.711,-67.0061 44,-78 45.3494,-82.5104 47.4875,-86.9783 49.9291,-91.1366"/>
<polygon fill="black" stroke="black" points="47.1262,-93.2427 55.5705,-99.6415 52.9596,-89.3734 47.1262,-93.2427"/>
<text text-anchor="middle" x="52.5" y="-66.3" font-family="Times,serif" font-size="14.00">b,a</text>
</g>
<!-- 3 -->
<g id="node4" class="node"><title>3</title>
<ellipse fill="green" stroke="black" cx="18" cy="-202" rx="18" ry="18"/>
<text text-anchor="middle" x="18" y="-198.3" font-family="Times,serif" font-size="14.00">3</text>
</g>
<!-- 3&#45;&gt;0 -->
<g id="edge5" class="edge"><title>3&#45;&gt;0</title>
<path fill="none" stroke="black" d="M26.5351,-186.02C33.9376,-173.028 44.784,-153.991 53.3844,-138.897"/>
<polygon fill="black" stroke="black" points="56.4887,-140.518 58.3983,-130.097 50.4067,-137.053 56.4887,-140.518"/>
<text text-anchor="middle" x="49.5" y="-154.3" font-family="Times,serif" font-size="14.00">b</text>
</g>
<!-- 3&#45;&gt;2 -->
<g id="edge6" class="edge"><title>3&#45;&gt;2</title>
<path fill="none" stroke="black" d="M19.709,-183.776C22.4706,-157.405 28.4791,-105.502 37,-62 37.5542,-59.1704 38.1895,-56.2402 38.8653,-53.3151"/>
<polygon fill="black" stroke="black" points="42.2789,-54.0899 41.2602,-43.5441 35.4802,-52.4234 42.2789,-54.0899"/>
<text text-anchor="middle" x="33.5" y="-110.3" font-family="Times,serif" font-size="14.00">a</text>
</g>
</g>
</svg>
