<?xml version="1.0" encoding="UTF-8" standalone="no"?>
<!DOCTYPE svg PUBLIC "-//W3C//DTD SVG 1.1//EN"
 "http://www.w3.org/Graphics/SVG/1.1/DTD/svg11.dtd">
<!-- Generated by graphviz version 2.36.0 (20140111.2315)
 -->
<!-- Title: %3 Pages: 1 -->
<svg width="202pt" height="228pt"
 viewBox="0.00 0.00 202.00 228.00" xmlns="http://www.w3.org/2000/svg" xmlns:xlink="http://www.w3.org/1999/xlink">
<g id="graph0" class="graph" transform="scale(1 1) rotate(0) translate(4 224)">
<title>%3</title>
<polygon fill="white" stroke="none" points="-4,4 -4,-224 198,-224 198,4 -4,4"/>
<!-- 0 -->
<g id="node1" class="node"><title>0</title>
<ellipse fill="green" stroke="black" cx="18" cy="-106" rx="18" ry="18"/>
<text text-anchor="middle" x="18" y="-102.3" font-family="Times,serif" font-size="14.00">0</text>
</g>
<!-- 0&#45;&gt;0 -->
<g id="edge1" class="edge"><title>0&#45;&gt;0</title>
<path fill="none" stroke="black" d="M34.2903,-113.668C44.3892,-115.517 54,-112.961 54,-106 54,-101.541 50.0557,-98.8891 44.5656,-98.0454"/>
<polygon fill="black" stroke="black" points="44.1887,-94.5544 34.2903,-98.3321 44.384,-101.552 44.1887,-94.5544"/>
<text text-anchor="middle" x="57.5" y="-102.3" font-family="Times,serif" font-size="14.00">a</text>
</g>
<!-- 3 -->
<g id="node4" class="node"><title>3</title>
<ellipse fill="lightblue" stroke="black" cx="83" cy="-18" rx="18" ry="18"/>
<text text-anchor="middle" x="83" y="-14.3" font-family="Times,serif" font-size="14.00">3</text>
</g>
<!-- 0&#45;&gt;3 -->
<g id="edge2" class="edge"><title>0&#45;&gt;3</title>
<path fill="none" stroke="black" d="M18.8836,-87.626C20.1546,-77.0989 23.1304,-63.8473 30,-54 36.9556,-44.0295 47.7501,-36.1554 57.787,-30.4212"/>
<polygon fill="black" stroke="black" points="59.436,-33.5085 66.6596,-25.758 56.1793,-27.3122 59.436,-33.5085"/>
<text text-anchor="middle" x="33.5" y="-58.3" font-family="Times,serif" font-size="14.00">b</text>
</g>
<!-- 1 -->
<g id="node2" class="node"><title>1</title>
<ellipse fill="lightblue" stroke="black" cx="97" cy="-106" rx="18" ry="18"/>
<text text-anchor="middle" x="97" y="-102.3" font-family="Times,serif" font-size="14.00">1</text>
</g>
<!-- 1&#45;&gt;1 -->
<g id="edge3" class="edge"><title>1&#45;&gt;1</title>
<path fill="none" stroke="black" d="M113.29,-113.668C123.389,-115.517 133,-112.961 133,-106 133,-101.541 129.056,-98.8891 123.566,-98.0454"/>
<polygon fill="black" stroke="black" points="123.189,-94.5544 113.29,-98.3321 123.384,-101.552 123.189,-94.5544"/>
<text text-anchor="middle" x="136.5" y="-102.3" font-family="Times,serif" font-size="14.00">b</text>
</g>
<!-- 1&#45;&gt;3 -->
<g id="edge4" class="edge"><title>1&#45;&gt;3</title>
<path fill="none" stroke="black" d="M94.2341,-88.0092C92.2782,-75.9947 89.616,-59.641 87.374,-45.8691"/>
<polygon fill="black" stroke="black" points="90.8216,-45.2632 85.7602,-35.9555 83.9125,-46.388 90.8216,-45.2632"/>
<text text-anchor="middle" x="95.5" y="-58.3" font-family="Times,serif" font-size="14.00">a</text>
</g>
<!-- 2 -->
<g id="node3" class="node"><title>2</title>
<ellipse fill="lightblue" stroke="black" cx="93" cy="-198" rx="17.5909" ry="18"/>
<ellipse fill="none" stroke="black" cx="93" cy="-198" rx="21.5" ry="22"/>
<text text-anchor="middle" x="93" y="-194.3" font-family="Times,serif" font-size="14.00">2</text>
</g>
<!-- 2&#45;&gt;1 -->
<g id="edge5" class="edge"><title>2&#45;&gt;1</title>
<path fill="none" stroke="black" d="M93.9479,-175.671C94.4985,-163.284 95.1977,-147.552 95.7879,-134.272"/>
<polygon fill="black" stroke="black" points="99.2854,-134.404 96.233,-124.258 92.2923,-134.093 99.2854,-134.404"/>
<text text-anchor="middle" x="99.5" y="-146.3" font-family="Times,serif" font-size="14.00">a</text>
</g>
<!-- 2&#45;&gt;2 -->
<g id="edge6" class="edge"><title>2&#45;&gt;2</title>
<path fill="none" stroke="black" d="M113.066,-206.734C123.074,-207.943 132,-205.031 132,-198 132,-193.496 128.337,-190.682 123.072,-189.559"/>
<polygon fill="black" stroke="black" points="123.165,-186.061 113.066,-189.266 122.959,-193.057 123.165,-186.061"/>
<text text-anchor="middle" x="135.5" y="-194.3" font-family="Times,serif" font-size="14.00">b</text>
</g>
<!-- 3&#45;&gt;0 -->
<g id="edge7" class="edge"><title>3&#45;&gt;0</title>
<path fill="none" stroke="black" d="M72.5825,-32.7831C62.3574,-46.3117 46.5992,-67.161 34.6384,-82.9862"/>
<polygon fill="black" stroke="black" points="31.6809,-81.0945 28.4434,-91.1826 37.2653,-85.3153 31.6809,-81.0945"/>
<text text-anchor="middle" x="60.5" y="-58.3" font-family="Times,serif" font-size="14.00">a</text>
</g>
<!-- 3&#45;&gt;3 -->
<g id="edge8" class="edge"><title>3&#45;&gt;3</title>
<path fill="none" stroke="black" d="M99.2903,-25.6679C109.389,-27.5169 119,-24.9609 119,-18 119,-13.5406 115.056,-10.8891 109.566,-10.0454"/>
<polygon fill="black" stroke="black" points="109.189,-6.55441 99.2903,-10.3321 109.384,-13.5517 109.189,-6.55441"/>
<text text-anchor="middle" x="122.5" y="-14.3" font-family="Times,serif" font-size="14.00">b</text>
</g>
<!-- 4 -->
<g id="node5" class="node"><title>4</title>
<ellipse fill="lightblue" stroke="black" cx="176" cy="-198" rx="18" ry="18"/>
<text text-anchor="middle" x="176" y="-194.3" font-family="Times,serif" font-size="14.00">4</text>
</g>
<!-- 4&#45;&gt;1 -->
<g id="edge9" class="edge"><title>4&#45;&gt;1</title>
<path fill="none" stroke="black" d="M164.343,-183.72C151.434,-169.013 130.451,-145.109 115.336,-127.889"/>
<polygon fill="black" stroke="black" points="117.675,-125.248 108.448,-120.042 112.414,-129.866 117.675,-125.248"/>
<text text-anchor="middle" x="144.5" y="-146.3" font-family="Times,serif" font-size="14.00">a</text>
</g>
<!-- 4&#45;&gt;3 -->
<g id="edge10" class="edge"><title>4&#45;&gt;3</title>
<path fill="none" stroke="black" d="M174.497,-179.762C171.949,-157.395 165.352,-117.721 149,-88 137.808,-67.6577 119.106,-48.9203 104.462,-36.1209"/>
<polygon fill="black" stroke="black" points="106.711,-33.4392 96.8179,-29.6486 102.188,-38.7815 106.711,-33.4392"/>
<text text-anchor="middle" x="166.5" y="-102.3" font-family="Times,serif" font-size="14.00">b</text>
</g>
</g>
</svg>
