<?xml version="1.0" encoding="UTF-8" standalone="no"?>
<!DOCTYPE svg PUBLIC "-//W3C//DTD SVG 1.1//EN"
 "http://www.w3.org/Graphics/SVG/1.1/DTD/svg11.dtd">
<!-- Generated by graphviz version 2.36.0 (20140111.2315)
 -->
<!-- Title: %3 Pages: 1 -->
<svg width="156pt" height="228pt"
 viewBox="0.00 0.00 156.00 228.00" xmlns="http://www.w3.org/2000/svg" xmlns:xlink="http://www.w3.org/1999/xlink">
<g id="graph0" class="graph" transform="scale(1 1) rotate(0) translate(4 224)">
<title>%3</title>
<polygon fill="white" stroke="none" points="-4,4 -4,-224 152,-224 152,4 -4,4"/>
<!-- 0 -->
<g id="node1" class="node"><title>0</title>
<ellipse fill="lightblue" stroke="black" cx="63" cy="-106" rx="18" ry="18"/>
<text text-anchor="middle" x="63" y="-102.3" font-family="Times,serif" font-size="14.00">0</text>
</g>
<!-- 0&#45;&gt;0 -->
<g id="edge1" class="edge"><title>0&#45;&gt;0</title>
<path fill="none" stroke="black" d="M79.2903,-113.668C89.3892,-115.517 99,-112.961 99,-106 99,-101.541 95.0557,-98.8891 89.5656,-98.0454"/>
<polygon fill="black" stroke="black" points="89.1887,-94.5544 79.2903,-98.3321 89.384,-101.552 89.1887,-94.5544"/>
<text text-anchor="middle" x="102.5" y="-102.3" font-family="Times,serif" font-size="14.00">b</text>
</g>
<!-- 3 -->
<g id="node4" class="node"><title>3</title>
<ellipse fill="green" stroke="black" cx="63" cy="-18" rx="18" ry="18"/>
<text text-anchor="middle" x="63" y="-14.3" font-family="Times,serif" font-size="14.00">3</text>
</g>
<!-- 0&#45;&gt;3 -->
<g id="edge2" class="edge"><title>0&#45;&gt;3</title>
<path fill="none" stroke="black" d="M63,-87.5966C63,-75.7459 63,-59.8169 63,-46.2917"/>
<polygon fill="black" stroke="black" points="66.5001,-46.084 63,-36.084 59.5001,-46.084 66.5001,-46.084"/>
<text text-anchor="middle" x="66.5" y="-58.3" font-family="Times,serif" font-size="14.00">a</text>
</g>
<!-- 1 -->
<g id="node2" class="node"><title>1</title>
<ellipse fill="lightblue" stroke="black" cx="22" cy="-198" rx="17.5909" ry="18"/>
<ellipse fill="none" stroke="black" cx="22" cy="-198" rx="21.5" ry="22"/>
<text text-anchor="middle" x="22" y="-194.3" font-family="Times,serif" font-size="14.00">1</text>
</g>
<!-- 1&#45;&gt;0 -->
<g id="edge3" class="edge"><title>1&#45;&gt;0</title>
<path fill="none" stroke="black" d="M30.8964,-177.471C36.9815,-164.114 45.1006,-146.291 51.6511,-131.912"/>
<polygon fill="black" stroke="black" points="54.9306,-133.156 55.8913,-122.605 48.5605,-130.254 54.9306,-133.156"/>
<text text-anchor="middle" x="50.5" y="-146.3" font-family="Times,serif" font-size="14.00">b</text>
</g>
<!-- 1&#45;&gt;1 -->
<g id="edge4" class="edge"><title>1&#45;&gt;1</title>
<path fill="none" stroke="black" d="M42.0663,-206.734C52.0736,-207.943 61,-205.031 61,-198 61,-193.496 57.3366,-190.682 52.0725,-189.559"/>
<polygon fill="black" stroke="black" points="52.1646,-186.061 42.0663,-189.266 51.9594,-193.057 52.1646,-186.061"/>
<text text-anchor="middle" x="64.5" y="-194.3" font-family="Times,serif" font-size="14.00">a</text>
</g>
<!-- 2 -->
<g id="node3" class="node"><title>2</title>
<ellipse fill="lightblue" stroke="black" cx="105" cy="-198" rx="18" ry="18"/>
<text text-anchor="middle" x="105" y="-194.3" font-family="Times,serif" font-size="14.00">2</text>
</g>
<!-- 2&#45;&gt;0 -->
<g id="edge5" class="edge"><title>2&#45;&gt;0</title>
<path fill="none" stroke="black" d="M97.6842,-181.323C91.3003,-167.643 81.9281,-147.56 74.5351,-131.718"/>
<polygon fill="black" stroke="black" points="77.6326,-130.079 70.232,-122.497 71.2893,-133.039 77.6326,-130.079"/>
<text text-anchor="middle" x="89.5" y="-146.3" font-family="Times,serif" font-size="14.00">a</text>
</g>
<!-- 2&#45;&gt;2 -->
<g id="edge6" class="edge"><title>2&#45;&gt;2</title>
<path fill="none" stroke="black" d="M121.29,-206.365C131.389,-208.382 141,-205.594 141,-198 141,-193.135 137.056,-190.243 131.566,-189.322"/>
<polygon fill="black" stroke="black" points="131.179,-185.832 121.29,-189.635 131.392,-192.829 131.179,-185.832"/>
<text text-anchor="middle" x="144.5" y="-194.3" font-family="Times,serif" font-size="14.00">b</text>
</g>
<!-- 3&#45;&gt;3 -->
<g id="edge7" class="edge"><title>3&#45;&gt;3</title>
<path fill="none" stroke="black" d="M79.2903,-25.6679C89.3892,-27.5169 99,-24.9609 99,-18 99,-13.5406 95.0557,-10.8891 89.5656,-10.0454"/>
<polygon fill="black" stroke="black" points="89.1887,-6.55441 79.2903,-10.3321 89.384,-13.5517 89.1887,-6.55441"/>
<text text-anchor="middle" x="107.5" y="-14.3" font-family="Times,serif" font-size="14.00">b,a</text>
</g>
</g>
</svg>
