<?xml version="1.0" encoding="UTF-8" standalone="no"?>
<!DOCTYPE svg PUBLIC "-//W3C//DTD SVG 1.1//EN"
 "http://www.w3.org/Graphics/SVG/1.1/DTD/svg11.dtd">
<!-- Generated by graphviz version 2.36.0 (20140111.2315)
 -->
<!-- Title: %3 Pages: 1 -->
<svg width="129pt" height="404pt"
 viewBox="0.00 0.00 129.00 404.00" xmlns="http://www.w3.org/2000/svg" xmlns:xlink="http://www.w3.org/1999/xlink">
<g id="graph0" class="graph" transform="scale(1 1) rotate(0) translate(4 400)">
<title>%3</title>
<polygon fill="white" stroke="none" points="-4,4 -4,-400 125,-400 125,4 -4,4"/>
<!-- 0 -->
<g id="node1" class="node"><title>0</title>
<ellipse fill="lightblue" stroke="black" cx="18" cy="-290" rx="18" ry="18"/>
<text text-anchor="middle" x="18" y="-286.3" font-family="Times,serif" font-size="14.00">0</text>
</g>
<!-- 0&#45;&gt;0 -->
<g id="edge1" class="edge"><title>0&#45;&gt;0</title>
<path fill="none" stroke="black" d="M34.2903,-297.668C44.3892,-299.517 54,-296.961 54,-290 54,-285.541 50.0557,-282.889 44.5656,-282.045"/>
<polygon fill="black" stroke="black" points="44.1887,-278.554 34.2903,-282.332 44.384,-285.552 44.1887,-278.554"/>
<text text-anchor="middle" x="57.5" y="-286.3" font-family="Times,serif" font-size="14.00">b</text>
</g>
<!-- 1 -->
<g id="node2" class="node"><title>1</title>
<ellipse fill="lightblue" stroke="black" cx="74" cy="-202" rx="18" ry="18"/>
<text text-anchor="middle" x="74" y="-198.3" font-family="Times,serif" font-size="14.00">1</text>
</g>
<!-- 0&#45;&gt;1 -->
<g id="edge2" class="edge"><title>0&#45;&gt;1</title>
<path fill="none" stroke="black" d="M27.4996,-274.411C36.1079,-261.191 48.9388,-241.487 58.9432,-226.123"/>
<polygon fill="black" stroke="black" points="61.93,-227.95 64.4538,-217.66 56.064,-224.13 61.93,-227.95"/>
<text text-anchor="middle" x="54.5" y="-242.3" font-family="Times,serif" font-size="14.00">a</text>
</g>
<!-- 4 -->
<g id="node5" class="node"><title>4</title>
<ellipse fill="lightblue" stroke="black" cx="74" cy="-110" rx="17.5909" ry="18"/>
<ellipse fill="none" stroke="black" cx="74" cy="-110" rx="21.5" ry="22"/>
<text text-anchor="middle" x="74" y="-106.3" font-family="Times,serif" font-size="14.00">4</text>
</g>
<!-- 1&#45;&gt;4 -->
<g id="edge3" class="edge"><title>1&#45;&gt;4</title>
<path fill="none" stroke="black" d="M74,-183.647C74,-171.924 74,-156.114 74,-142.237"/>
<polygon fill="black" stroke="black" points="77.5001,-142.101 74,-132.101 70.5001,-142.101 77.5001,-142.101"/>
<text text-anchor="middle" x="82.5" y="-154.3" font-family="Times,serif" font-size="14.00">b,a</text>
</g>
<!-- 2 -->
<g id="node3" class="node"><title>2</title>
<ellipse fill="green" stroke="black" cx="72" cy="-378" rx="18" ry="18"/>
<text text-anchor="middle" x="72" y="-374.3" font-family="Times,serif" font-size="14.00">2</text>
</g>
<!-- 2&#45;&gt;0 -->
<g id="edge4" class="edge"><title>2&#45;&gt;0</title>
<path fill="none" stroke="black" d="M62.8396,-362.411C54.6164,-349.315 42.3971,-329.855 32.7902,-314.555"/>
<polygon fill="black" stroke="black" points="35.4871,-312.268 27.2053,-305.66 29.5589,-315.99 35.4871,-312.268"/>
<text text-anchor="middle" x="52.5" y="-330.3" font-family="Times,serif" font-size="14.00">a</text>
</g>
<!-- 2&#45;&gt;1 -->
<g id="edge5" class="edge"><title>2&#45;&gt;1</title>
<path fill="none" stroke="black" d="M72.1954,-359.999C72.5419,-329.853 73.2668,-266.79 73.6847,-230.43"/>
<polygon fill="black" stroke="black" points="77.1885,-230.109 73.8038,-220.07 70.189,-230.029 77.1885,-230.109"/>
<text text-anchor="middle" x="76.5" y="-286.3" font-family="Times,serif" font-size="14.00">b</text>
</g>
<!-- 3 -->
<g id="node4" class="node"><title>3</title>
<ellipse fill="lightblue" stroke="black" cx="51" cy="-18" rx="18" ry="18"/>
<text text-anchor="middle" x="51" y="-14.3" font-family="Times,serif" font-size="14.00">3</text>
</g>
<!-- 3&#45;&gt;0 -->
<g id="edge6" class="edge"><title>3&#45;&gt;0</title>
<path fill="none" stroke="black" d="M48.9365,-35.8833C43.3814,-81.3337 28.0749,-206.569 21.3001,-261.999"/>
<polygon fill="black" stroke="black" points="17.8034,-261.76 20.0643,-272.11 24.7517,-262.609 17.8034,-261.76"/>
<text text-anchor="middle" x="37.5" y="-154.3" font-family="Times,serif" font-size="14.00">a</text>
</g>
<!-- 3&#45;&gt;4 -->
<g id="edge7" class="edge"><title>3&#45;&gt;4</title>
<path fill="none" stroke="black" d="M50.2592,-36.2854C50.2623,-46.2973 51.0123,-59.0473 54,-70 55.0732,-73.9343 56.5736,-77.9306 58.2753,-81.7905"/>
<polygon fill="black" stroke="black" points="55.2432,-83.5565 62.7914,-90.9913 61.5271,-80.4722 55.2432,-83.5565"/>
<text text-anchor="middle" x="57.5" y="-58.3" font-family="Times,serif" font-size="14.00">b</text>
</g>
<!-- 4&#45;&gt;3 -->
<g id="edge8" class="edge"><title>4&#45;&gt;3</title>
<path fill="none" stroke="black" d="M68.7809,-88.5776C65.528,-75.8485 61.3078,-59.3347 57.7952,-45.5898"/>
<polygon fill="black" stroke="black" points="61.1418,-44.5493 55.2747,-35.7273 54.3598,-46.2825 61.1418,-44.5493"/>
<text text-anchor="middle" x="66.5" y="-58.3" font-family="Times,serif" font-size="14.00">b</text>
</g>
<!-- 4&#45;&gt;4 -->
<g id="edge9" class="edge"><title>4&#45;&gt;4</title>
<path fill="none" stroke="black" d="M94.0663,-118.734C104.074,-119.943 113,-117.031 113,-110 113,-105.496 109.337,-102.682 104.072,-101.559"/>
<polygon fill="black" stroke="black" points="104.165,-98.0605 94.0663,-101.266 103.959,-105.057 104.165,-98.0605"/>
<text text-anchor="middle" x="116.5" y="-106.3" font-family="Times,serif" font-size="14.00">a</text>
</g>
</g>
</svg>
