<?xml version="1.0" encoding="UTF-8" standalone="no"?>
<!DOCTYPE svg PUBLIC "-//W3C//DTD SVG 1.1//EN"
 "http://www.w3.org/Graphics/SVG/1.1/DTD/svg11.dtd">
<!-- Generated by graphviz version 2.36.0 (20140111.2315)
 -->
<!-- Title: %3 Pages: 1 -->
<svg width="177pt" height="228pt"
 viewBox="0.00 0.00 177.00 228.00" xmlns="http://www.w3.org/2000/svg" xmlns:xlink="http://www.w3.org/1999/xlink">
<g id="graph0" class="graph" transform="scale(1 1) rotate(0) translate(4 224)">
<title>%3</title>
<polygon fill="white" stroke="none" points="-4,4 -4,-224 173,-224 173,4 -4,4"/>
<!-- 0 -->
<g id="node1" class="node"><title>0</title>
<ellipse fill="lightblue" stroke="black" cx="65" cy="-202" rx="18" ry="18"/>
<text text-anchor="middle" x="65" y="-198.3" font-family="Times,serif" font-size="14.00">0</text>
</g>
<!-- 1 -->
<g id="node2" class="node"><title>1</title>
<ellipse fill="lightblue" stroke="black" cx="21" cy="-110" rx="17.5909" ry="18"/>
<ellipse fill="none" stroke="black" cx="21" cy="-110" rx="21.5" ry="22"/>
<text text-anchor="middle" x="21" y="-106.3" font-family="Times,serif" font-size="14.00">1</text>
</g>
<!-- 0&#45;&gt;1 -->
<g id="edge1" class="edge"><title>0&#45;&gt;1</title>
<path fill="none" stroke="black" d="M49.2931,-192.509C39.848,-186.472 28.6032,-177.418 23,-166 19.3892,-158.642 17.9736,-150.04 17.6876,-141.853"/>
<polygon fill="black" stroke="black" points="21.1874,-141.886 17.8492,-131.83 14.1883,-141.773 21.1874,-141.886"/>
<text text-anchor="middle" x="26.5" y="-154.3" font-family="Times,serif" font-size="14.00">a</text>
</g>
<!-- 2 -->
<g id="node3" class="node"><title>2</title>
<ellipse fill="green" stroke="black" cx="79" cy="-110" rx="18" ry="18"/>
<text text-anchor="middle" x="79" y="-106.3" font-family="Times,serif" font-size="14.00">2</text>
</g>
<!-- 0&#45;&gt;2 -->
<g id="edge2" class="edge"><title>0&#45;&gt;2</title>
<path fill="none" stroke="black" d="M67.6333,-184.072C69.6474,-171.124 72.4646,-153.013 74.7903,-138.062"/>
<polygon fill="black" stroke="black" points="78.2998,-138.272 76.3785,-127.852 71.383,-137.196 78.2998,-138.272"/>
<text text-anchor="middle" x="75.5" y="-154.3" font-family="Times,serif" font-size="14.00">b</text>
</g>
<!-- 1&#45;&gt;0 -->
<g id="edge3" class="edge"><title>1&#45;&gt;0</title>
<path fill="none" stroke="black" d="M30.254,-129.929C36.8495,-143.419 45.778,-161.682 52.9327,-176.317"/>
<polygon fill="black" stroke="black" points="49.7993,-177.877 57.3358,-185.323 56.088,-174.802 49.7993,-177.877"/>
<text text-anchor="middle" x="49.5" y="-154.3" font-family="Times,serif" font-size="14.00">b</text>
</g>
<!-- 3 -->
<g id="node4" class="node"><title>3</title>
<ellipse fill="lightblue" stroke="black" cx="126" cy="-18" rx="18" ry="18"/>
<text text-anchor="middle" x="126" y="-14.3" font-family="Times,serif" font-size="14.00">3</text>
</g>
<!-- 1&#45;&gt;3 -->
<g id="edge4" class="edge"><title>1&#45;&gt;3</title>
<path fill="none" stroke="black" d="M37.4062,-94.9375C55.656,-79.2949 85.1837,-53.9854 105.081,-36.9308"/>
<polygon fill="black" stroke="black" points="107.387,-39.5639 112.702,-30.3986 102.831,-34.2491 107.387,-39.5639"/>
<text text-anchor="middle" x="85.5" y="-58.3" font-family="Times,serif" font-size="14.00">a</text>
</g>
<!-- 2&#45;&gt;2 -->
<g id="edge5" class="edge"><title>2&#45;&gt;2</title>
<path fill="none" stroke="black" d="M95.2903,-118.365C105.389,-120.382 115,-117.594 115,-110 115,-105.135 111.056,-102.243 105.566,-101.322"/>
<polygon fill="black" stroke="black" points="105.179,-97.8323 95.2903,-101.635 105.392,-104.829 105.179,-97.8323"/>
<text text-anchor="middle" x="123.5" y="-106.3" font-family="Times,serif" font-size="14.00">b,a</text>
</g>
<!-- 3&#45;&gt;0 -->
<g id="edge6" class="edge"><title>3&#45;&gt;0</title>
<path fill="none" stroke="black" d="M133.147,-34.728C142.294,-57.2681 155.342,-99.6086 141,-132 130.494,-155.729 107.35,-174.788 89.3445,-186.812"/>
<polygon fill="black" stroke="black" points="87.0487,-184.125 80.4914,-192.447 90.8071,-190.03 87.0487,-184.125"/>
<text text-anchor="middle" x="150.5" y="-106.3" font-family="Times,serif" font-size="14.00">a</text>
</g>
<!-- 3&#45;&gt;3 -->
<g id="edge7" class="edge"><title>3&#45;&gt;3</title>
<path fill="none" stroke="black" d="M142.29,-25.6679C152.389,-27.5169 162,-24.9609 162,-18 162,-13.5406 158.056,-10.8891 152.566,-10.0454"/>
<polygon fill="black" stroke="black" points="152.189,-6.55441 142.29,-10.3321 152.384,-13.5517 152.189,-6.55441"/>
<text text-anchor="middle" x="165.5" y="-14.3" font-family="Times,serif" font-size="14.00">b</text>
</g>
</g>
</svg>
