<?xml version="1.0" encoding="UTF-8" standalone="no"?>
<!DOCTYPE svg PUBLIC "-//W3C//DTD SVG 1.1//EN"
 "http://www.w3.org/Graphics/SVG/1.1/DTD/svg11.dtd">
<!-- Generated by graphviz version 2.36.0 (20140111.2315)
 -->
<!-- Title: %3 Pages: 1 -->
<svg width="179pt" height="228pt"
 viewBox="0.00 0.00 179.00 228.00" xmlns="http://www.w3.org/2000/svg" xmlns:xlink="http://www.w3.org/1999/xlink">
<g id="graph0" class="graph" transform="scale(1 1) rotate(0) translate(4 224)">
<title>%3</title>
<polygon fill="white" stroke="none" points="-4,4 -4,-224 175,-224 175,4 -4,4"/>
<!-- 0 -->
<g id="node1" class="node"><title>0</title>
<ellipse fill="lightblue" stroke="black" cx="18" cy="-198" rx="18" ry="18"/>
<text text-anchor="middle" x="18" y="-194.3" font-family="Times,serif" font-size="14.00">0</text>
</g>
<!-- 0&#45;&gt;0 -->
<g id="edge1" class="edge"><title>0&#45;&gt;0</title>
<path fill="none" stroke="black" d="M34.2903,-206.365C44.3892,-208.382 54,-205.594 54,-198 54,-193.135 50.0557,-190.243 44.5656,-189.322"/>
<polygon fill="black" stroke="black" points="44.1791,-185.832 34.2903,-189.635 44.3922,-192.829 44.1791,-185.832"/>
<text text-anchor="middle" x="57.5" y="-194.3" font-family="Times,serif" font-size="14.00">b</text>
</g>
<!-- 1 -->
<g id="node2" class="node"><title>1</title>
<ellipse fill="green" stroke="black" cx="44" cy="-106" rx="18" ry="18"/>
<text text-anchor="middle" x="44" y="-102.3" font-family="Times,serif" font-size="14.00">1</text>
</g>
<!-- 0&#45;&gt;1 -->
<g id="edge2" class="edge"><title>0&#45;&gt;1</title>
<path fill="none" stroke="black" d="M14.7843,-180.178C13.3534,-169.048 12.8092,-154.294 17,-142 18.7805,-136.777 21.691,-131.727 24.9562,-127.164"/>
<polygon fill="black" stroke="black" points="27.924,-129.059 31.4684,-119.074 22.4713,-124.669 27.924,-129.059"/>
<text text-anchor="middle" x="20.5" y="-146.3" font-family="Times,serif" font-size="14.00">a</text>
</g>
<!-- 1&#45;&gt;0 -->
<g id="edge3" class="edge"><title>1&#45;&gt;0</title>
<path fill="none" stroke="black" d="M39.2614,-123.403C35.4583,-136.567 30.0445,-155.308 25.6317,-170.582"/>
<polygon fill="black" stroke="black" points="22.1818,-169.914 22.7688,-180.493 28.9068,-171.857 22.1818,-169.914"/>
<text text-anchor="middle" x="37.5" y="-146.3" font-family="Times,serif" font-size="14.00">a</text>
</g>
<!-- 1&#45;&gt;1 -->
<g id="edge4" class="edge"><title>1&#45;&gt;1</title>
<path fill="none" stroke="black" d="M60.2903,-113.668C70.3892,-115.517 80,-112.961 80,-106 80,-101.541 76.0557,-98.8891 70.5656,-98.0454"/>
<polygon fill="black" stroke="black" points="70.1887,-94.5544 60.2903,-98.3321 70.384,-101.552 70.1887,-94.5544"/>
<text text-anchor="middle" x="83.5" y="-102.3" font-family="Times,serif" font-size="14.00">b</text>
</g>
<!-- 2 -->
<g id="node3" class="node"><title>2</title>
<ellipse fill="lightblue" stroke="black" cx="104" cy="-198" rx="17.5909" ry="18"/>
<ellipse fill="none" stroke="black" cx="104" cy="-198" rx="21.5" ry="22"/>
<text text-anchor="middle" x="104" y="-194.3" font-family="Times,serif" font-size="14.00">2</text>
</g>
<!-- 2&#45;&gt;1 -->
<g id="edge5" class="edge"><title>2&#45;&gt;1</title>
<path fill="none" stroke="black" d="M92.1459,-179.219C82.7248,-165.087 69.4792,-145.219 59.2653,-129.898"/>
<polygon fill="black" stroke="black" points="62.1128,-127.859 53.6536,-121.48 56.2884,-131.742 62.1128,-127.859"/>
<text text-anchor="middle" x="81.5" y="-146.3" font-family="Times,serif" font-size="14.00">b</text>
</g>
<!-- 3 -->
<g id="node4" class="node"><title>3</title>
<ellipse fill="lightblue" stroke="black" cx="128" cy="-106" rx="18" ry="18"/>
<text text-anchor="middle" x="128" y="-102.3" font-family="Times,serif" font-size="14.00">3</text>
</g>
<!-- 2&#45;&gt;3 -->
<g id="edge6" class="edge"><title>2&#45;&gt;3</title>
<path fill="none" stroke="black" d="M102.792,-175.952C102.782,-165.529 103.665,-152.88 107,-142 108.285,-137.808 110.176,-133.598 112.304,-129.623"/>
<polygon fill="black" stroke="black" points="115.396,-131.273 117.529,-120.895 109.39,-127.677 115.396,-131.273"/>
<text text-anchor="middle" x="110.5" y="-146.3" font-family="Times,serif" font-size="14.00">a</text>
</g>
<!-- 3&#45;&gt;2 -->
<g id="edge7" class="edge"><title>3&#45;&gt;2</title>
<path fill="none" stroke="black" d="M123.539,-123.727C120.333,-135.751 115.919,-152.303 112.098,-166.632"/>
<polygon fill="black" stroke="black" points="108.641,-166.013 109.446,-176.578 115.404,-167.817 108.641,-166.013"/>
<text text-anchor="middle" x="121.5" y="-146.3" font-family="Times,serif" font-size="14.00">b</text>
</g>
<!-- 4 -->
<g id="node5" class="node"><title>4</title>
<ellipse fill="lightblue" stroke="black" cx="128" cy="-18" rx="18" ry="18"/>
<text text-anchor="middle" x="128" y="-14.3" font-family="Times,serif" font-size="14.00">4</text>
</g>
<!-- 3&#45;&gt;4 -->
<g id="edge8" class="edge"><title>3&#45;&gt;4</title>
<path fill="none" stroke="black" d="M121.366,-89.2577C119.201,-83.3321 117.077,-76.4629 116,-70 114.831,-62.9856 114.831,-61.0144 116,-54 116.522,-50.8695 117.289,-47.6437 118.188,-44.476"/>
<polygon fill="black" stroke="black" points="121.589,-45.3348 121.366,-34.7423 114.935,-43.1618 121.589,-45.3348"/>
<text text-anchor="middle" x="119.5" y="-58.3" font-family="Times,serif" font-size="14.00">a</text>
</g>
<!-- 4&#45;&gt;3 -->
<g id="edge9" class="edge"><title>4&#45;&gt;3</title>
<path fill="none" stroke="black" d="M128,-36.084C128,-47.8607 128,-63.7741 128,-77.342"/>
<polygon fill="black" stroke="black" points="124.5,-77.5966 128,-87.5966 131.5,-77.5967 124.5,-77.5966"/>
<text text-anchor="middle" x="131.5" y="-58.3" font-family="Times,serif" font-size="14.00">a</text>
</g>
<!-- 4&#45;&gt;4 -->
<g id="edge10" class="edge"><title>4&#45;&gt;4</title>
<path fill="none" stroke="black" d="M144.29,-25.6679C154.389,-27.5169 164,-24.9609 164,-18 164,-13.5406 160.056,-10.8891 154.566,-10.0454"/>
<polygon fill="black" stroke="black" points="154.189,-6.55441 144.29,-10.3321 154.384,-13.5517 154.189,-6.55441"/>
<text text-anchor="middle" x="167.5" y="-14.3" font-family="Times,serif" font-size="14.00">b</text>
</g>
</g>
</svg>
