<?xml version="1.0" encoding="UTF-8" standalone="no"?>
<!DOCTYPE svg PUBLIC "-//W3C//DTD SVG 1.1//EN"
 "http://www.w3.org/Graphics/SVG/1.1/DTD/svg11.dtd">
<!-- Generated by graphviz version 2.36.0 (20140111.2315)
 -->
<!-- Title: %3 Pages: 1 -->
<svg width="132pt" height="404pt"
 viewBox="0.00 0.00 131.78 404.00" xmlns="http://www.w3.org/2000/svg" xmlns:xlink="http://www.w3.org/1999/xlink">
<g id="graph0" class="graph" transform="scale(1 1) rotate(0) translate(4 400)">
<title>%3</title>
<polygon fill="white" stroke="none" points="-4,4 -4,-400 127.778,-400 127.778,4 -4,4"/>
<!-- 0 -->
<g id="node1" class="node"><title>0</title>
<ellipse fill="green" stroke="black" cx="62.7785" cy="-202" rx="18" ry="18"/>
<text text-anchor="middle" x="62.7785" y="-198.3" font-family="Times,serif" font-size="14.00">0</text>
</g>
<!-- 3 -->
<g id="node4" class="node"><title>3</title>
<ellipse fill="lightblue" stroke="black" cx="95.7785" cy="-110" rx="17.5909" ry="18"/>
<ellipse fill="none" stroke="black" cx="95.7785" cy="-110" rx="21.5" ry="22"/>
<text text-anchor="middle" x="95.7785" y="-106.3" font-family="Times,serif" font-size="14.00">3</text>
</g>
<!-- 0&#45;&gt;3 -->
<g id="edge1" class="edge"><title>0&#45;&gt;3</title>
<path fill="none" stroke="black" d="M68.6782,-184.91C73.1971,-172.586 79.5555,-155.244 84.9778,-140.456"/>
<polygon fill="black" stroke="black" points="88.3914,-141.313 88.548,-130.72 81.8193,-138.903 88.3914,-141.313"/>
<text text-anchor="middle" x="84.2785" y="-154.3" font-family="Times,serif" font-size="14.00">b</text>
</g>
<!-- 4 -->
<g id="node5" class="node"><title>4</title>
<ellipse fill="lightblue" stroke="black" cx="48.7785" cy="-18" rx="18" ry="18"/>
<text text-anchor="middle" x="48.7785" y="-14.3" font-family="Times,serif" font-size="14.00">4</text>
</g>
<!-- 0&#45;&gt;4 -->
<g id="edge2" class="edge"><title>0&#45;&gt;4</title>
<path fill="none" stroke="black" d="M47.7681,-191.785C38.4494,-185.46 26.7685,-176.355 18.7785,-166 8.68909,-152.924 7.18507,-148.161 3.77849,-132 -3.50269,-97.4572 -0.0349266,-83.871 18.7785,-54 21.924,-49.0057 25.7469,-43.9843 29.596,-39.3657"/>
<polygon fill="black" stroke="black" points="32.458,-41.41 36.4117,-31.5805 27.1912,-36.7991 32.458,-41.41"/>
<text text-anchor="middle" x="7.27849" y="-106.3" font-family="Times,serif" font-size="14.00">a</text>
</g>
<!-- 1 -->
<g id="node2" class="node"><title>1</title>
<ellipse fill="lightblue" stroke="black" cx="81.7785" cy="-378" rx="18" ry="18"/>
<text text-anchor="middle" x="81.7785" y="-374.3" font-family="Times,serif" font-size="14.00">1</text>
</g>
<!-- 1&#45;&gt;0 -->
<g id="edge3" class="edge"><title>1&#45;&gt;0</title>
<path fill="none" stroke="black" d="M79.0357,-360.022C76.8509,-346.078 73.829,-325.797 71.7785,-308 68.7468,-281.688 66.2658,-251.557 64.6823,-230.341"/>
<polygon fill="black" stroke="black" points="68.1555,-229.845 63.9378,-220.126 61.174,-230.354 68.1555,-229.845"/>
<text text-anchor="middle" x="75.2785" y="-286.3" font-family="Times,serif" font-size="14.00">b</text>
</g>
<!-- 2 -->
<g id="node3" class="node"><title>2</title>
<ellipse fill="lightblue" stroke="black" cx="105.778" cy="-290" rx="18" ry="18"/>
<text text-anchor="middle" x="105.778" y="-286.3" font-family="Times,serif" font-size="14.00">2</text>
</g>
<!-- 1&#45;&gt;2 -->
<g id="edge4" class="edge"><title>1&#45;&gt;2</title>
<path fill="none" stroke="black" d="M86.4059,-360.418C89.8257,-348.164 94.5498,-331.236 98.4768,-317.165"/>
<polygon fill="black" stroke="black" points="101.848,-318.104 101.165,-307.531 95.106,-316.222 101.848,-318.104"/>
<text text-anchor="middle" x="99.2785" y="-330.3" font-family="Times,serif" font-size="14.00">a</text>
</g>
<!-- 2&#45;&gt;0 -->
<g id="edge5" class="edge"><title>2&#45;&gt;0</title>
<path fill="none" stroke="black" d="M98.091,-273.625C91.7101,-260.863 82.5145,-242.472 75.1067,-227.656"/>
<polygon fill="black" stroke="black" points="78.1471,-225.911 70.5445,-218.532 71.8861,-229.041 78.1471,-225.911"/>
<text text-anchor="middle" x="91.2785" y="-242.3" font-family="Times,serif" font-size="14.00">b</text>
</g>
<!-- 2&#45;&gt;3 -->
<g id="edge6" class="edge"><title>2&#45;&gt;3</title>
<path fill="none" stroke="black" d="M104.82,-271.933C103.147,-242.154 99.671,-180.286 97.5498,-142.529"/>
<polygon fill="black" stroke="black" points="101.02,-141.895 96.9643,-132.107 94.0308,-142.288 101.02,-141.895"/>
<text text-anchor="middle" x="104.278" y="-198.3" font-family="Times,serif" font-size="14.00">a</text>
</g>
<!-- 3&#45;&gt;0 -->
<g id="edge7" class="edge"><title>3&#45;&gt;0</title>
<path fill="none" stroke="black" d="M82.0107,-127.068C77.0239,-133.745 71.8644,-141.834 68.7785,-150 65.9617,-157.453 64.3804,-165.919 63.5152,-173.781"/>
<polygon fill="black" stroke="black" points="60.0083,-173.737 62.7306,-183.977 66.9877,-174.275 60.0083,-173.737"/>
<text text-anchor="middle" x="72.2785" y="-154.3" font-family="Times,serif" font-size="14.00">b</text>
</g>
<!-- 3&#45;&gt;4 -->
<g id="edge8" class="edge"><title>3&#45;&gt;4</title>
<path fill="none" stroke="black" d="M82.7861,-92.0736C78.0177,-85.4119 72.8064,-77.5582 68.7785,-70 64.5809,-62.1235 60.7733,-53.1684 57.6337,-44.9839"/>
<polygon fill="black" stroke="black" points="60.8864,-43.6879 54.1542,-35.507 54.3153,-46.1006 60.8864,-43.6879"/>
<text text-anchor="middle" x="72.2785" y="-58.3" font-family="Times,serif" font-size="14.00">a</text>
</g>
<!-- 4&#45;&gt;0 -->
<g id="edge9" class="edge"><title>4&#45;&gt;0</title>
<path fill="none" stroke="black" d="M50.1023,-36.2092C52.5359,-67.8466 57.7389,-135.486 60.666,-173.537"/>
<polygon fill="black" stroke="black" points="57.2047,-174.176 61.4614,-183.878 64.184,-173.639 57.2047,-174.176"/>
<text text-anchor="middle" x="60.2785" y="-106.3" font-family="Times,serif" font-size="14.00">b</text>
</g>
<!-- 4&#45;&gt;3 -->
<g id="edge10" class="edge"><title>4&#45;&gt;3</title>
<path fill="none" stroke="black" d="M59.5514,-32.4654C64.2902,-38.7734 69.6945,-46.5309 73.7785,-54 78.1404,-61.9772 82.1133,-71.0039 85.4457,-79.404"/>
<polygon fill="black" stroke="black" points="82.2221,-80.7739 89.0483,-88.8765 88.7648,-78.2855 82.2221,-80.7739"/>
<text text-anchor="middle" x="84.2785" y="-58.3" font-family="Times,serif" font-size="14.00">a</text>
</g>
</g>
</svg>
