<?xml version="1.0" encoding="UTF-8" standalone="no"?>
<!DOCTYPE svg PUBLIC "-//W3C//DTD SVG 1.1//EN"
 "http://www.w3.org/Graphics/SVG/1.1/DTD/svg11.dtd">
<!-- Generated by graphviz version 2.36.0 (20140111.2315)
 -->
<!-- Title: %3 Pages: 1 -->
<svg width="152pt" height="316pt"
 viewBox="0.00 0.00 152.00 316.00" xmlns="http://www.w3.org/2000/svg" xmlns:xlink="http://www.w3.org/1999/xlink">
<g id="graph0" class="graph" transform="scale(1 1) rotate(0) translate(4 312)">
<title>%3</title>
<polygon fill="white" stroke="none" points="-4,4 -4,-312 148,-312 148,4 -4,4"/>
<!-- 0 -->
<g id="node1" class="node"><title>0</title>
<ellipse fill="green" stroke="black" cx="97" cy="-286" rx="17.5909" ry="18"/>
<ellipse fill="none" stroke="black" cx="97" cy="-286" rx="21.5" ry="22"/>
<text text-anchor="middle" x="97" y="-282.3" font-family="Times,serif" font-size="14.00">0</text>
</g>
<!-- 0&#45;&gt;0 -->
<g id="edge1" class="edge"><title>0&#45;&gt;0</title>
<path fill="none" stroke="black" d="M117.066,-294.734C127.074,-295.943 136,-293.031 136,-286 136,-281.496 132.337,-278.682 127.072,-277.559"/>
<polygon fill="black" stroke="black" points="127.165,-274.061 117.066,-277.266 126.959,-281.057 127.165,-274.061"/>
<text text-anchor="middle" x="139.5" y="-282.3" font-family="Times,serif" font-size="14.00">a</text>
</g>
<!-- 1 -->
<g id="node2" class="node"><title>1</title>
<ellipse fill="lightblue" stroke="black" cx="18" cy="-194" rx="18" ry="18"/>
<text text-anchor="middle" x="18" y="-190.3" font-family="Times,serif" font-size="14.00">1</text>
</g>
<!-- 0&#45;&gt;1 -->
<g id="edge2" class="edge"><title>0&#45;&gt;1</title>
<path fill="none" stroke="black" d="M82.8764,-268.91C69.8755,-254.099 50.5141,-232.041 36.3264,-215.878"/>
<polygon fill="black" stroke="black" points="38.6671,-213.239 29.4398,-208.033 33.4063,-217.857 38.6671,-213.239"/>
<text text-anchor="middle" x="66.5" y="-234.3" font-family="Times,serif" font-size="14.00">c</text>
</g>
<!-- 3 -->
<g id="node4" class="node"><title>3</title>
<ellipse fill="lightblue" stroke="black" cx="51" cy="-106" rx="18" ry="18"/>
<text text-anchor="middle" x="51" y="-102.3" font-family="Times,serif" font-size="14.00">3</text>
</g>
<!-- 0&#45;&gt;3 -->
<g id="edge3" class="edge"><title>0&#45;&gt;3</title>
<path fill="none" stroke="black" d="M92.082,-264.469C86.7871,-242.527 78.0392,-206.744 70,-176 66.2796,-161.772 61.938,-145.951 58.3448,-133.052"/>
<polygon fill="black" stroke="black" points="61.7147,-132.106 55.6498,-123.419 54.9736,-133.992 61.7147,-132.106"/>
<text text-anchor="middle" x="81.5" y="-190.3" font-family="Times,serif" font-size="14.00">b</text>
</g>
<!-- 1&#45;&gt;1 -->
<g id="edge4" class="edge"><title>1&#45;&gt;1</title>
<path fill="none" stroke="black" d="M34.2903,-201.668C44.3892,-203.517 54,-200.961 54,-194 54,-189.541 50.0557,-186.889 44.5656,-186.045"/>
<polygon fill="black" stroke="black" points="44.1887,-182.554 34.2903,-186.332 44.384,-189.552 44.1887,-182.554"/>
<text text-anchor="middle" x="57.5" y="-190.3" font-family="Times,serif" font-size="14.00">b</text>
</g>
<!-- 1&#45;&gt;3 -->
<g id="edge5" class="edge"><title>1&#45;&gt;3</title>
<path fill="none" stroke="black" d="M24.207,-176.824C29.0007,-164.332 35.7242,-146.81 41.2366,-132.444"/>
<polygon fill="black" stroke="black" points="44.5059,-133.694 44.8208,-123.103 37.9705,-131.186 44.5059,-133.694"/>
<text text-anchor="middle" x="46" y="-146.3" font-family="Times,serif" font-size="14.00">c,a</text>
</g>
<!-- 2 -->
<g id="node3" class="node"><title>2</title>
<ellipse fill="lightblue" stroke="black" cx="81" cy="-18" rx="18" ry="18"/>
<text text-anchor="middle" x="81" y="-14.3" font-family="Times,serif" font-size="14.00">2</text>
</g>
<!-- 2&#45;&gt;0 -->
<g id="edge6" class="edge"><title>2&#45;&gt;0</title>
<path fill="none" stroke="black" d="M90.1057,-33.6754C97.9291,-47.2063 108.619,-68.1422 113,-88 125.77,-145.888 114.018,-215.361 105.026,-254.42"/>
<polygon fill="black" stroke="black" points="101.514,-254.055 102.585,-264.595 108.321,-255.688 101.514,-254.055"/>
<text text-anchor="middle" x="121.5" y="-146.3" font-family="Times,serif" font-size="14.00">b</text>
</g>
<!-- 2&#45;&gt;2 -->
<g id="edge7" class="edge"><title>2&#45;&gt;2</title>
<path fill="none" stroke="black" d="M97.2903,-25.6679C107.389,-27.5169 117,-24.9609 117,-18 117,-13.5406 113.056,-10.8891 107.566,-10.0454"/>
<polygon fill="black" stroke="black" points="107.189,-6.55441 97.2903,-10.3321 107.384,-13.5517 107.189,-6.55441"/>
<text text-anchor="middle" x="120.5" y="-14.3" font-family="Times,serif" font-size="14.00">a</text>
</g>
<!-- 2&#45;&gt;3 -->
<g id="edge8" class="edge"><title>2&#45;&gt;3</title>
<path fill="none" stroke="black" d="M75.3825,-35.1034C71.0733,-47.4565 65.0378,-64.7582 60.0499,-79.0569"/>
<polygon fill="black" stroke="black" points="56.6319,-78.2292 56.6428,-88.8241 63.2413,-80.5349 56.6319,-78.2292"/>
<text text-anchor="middle" x="72.5" y="-58.3" font-family="Times,serif" font-size="14.00">c</text>
</g>
<!-- 3&#45;&gt;2 -->
<g id="edge9" class="edge"><title>3&#45;&gt;2</title>
<path fill="none" stroke="black" d="M49.5293,-87.9462C49.2502,-77.7824 49.9607,-64.7996 54,-54 55.9332,-48.8314 58.9106,-43.805 62.193,-39.2487"/>
<polygon fill="black" stroke="black" points="65.1602,-41.1432 68.6868,-31.1524 59.6997,-36.7634 65.1602,-41.1432"/>
<text text-anchor="middle" x="57.5" y="-58.3" font-family="Times,serif" font-size="14.00">a</text>
</g>
<!-- 3&#45;&gt;3 -->
<g id="edge10" class="edge"><title>3&#45;&gt;3</title>
<path fill="none" stroke="black" d="M67.2903,-113.668C77.3892,-115.517 87,-112.961 87,-106 87,-101.541 83.0557,-98.8891 77.5656,-98.0454"/>
<polygon fill="black" stroke="black" points="77.1887,-94.5544 67.2903,-98.3321 77.384,-101.552 77.1887,-94.5544"/>
<text text-anchor="middle" x="95.5" y="-102.3" font-family="Times,serif" font-size="14.00">b,c</text>
</g>
</g>
</svg>
