<?xml version="1.0" encoding="UTF-8" standalone="no"?>
<!DOCTYPE svg PUBLIC "-//W3C//DTD SVG 1.1//EN"
 "http://www.w3.org/Graphics/SVG/1.1/DTD/svg11.dtd">
<!-- Generated by graphviz version 2.36.0 (20140111.2315)
 -->
<!-- Title: %3 Pages: 1 -->
<svg width="170pt" height="228pt"
 viewBox="0.00 0.00 170.00 228.00" xmlns="http://www.w3.org/2000/svg" xmlns:xlink="http://www.w3.org/1999/xlink">
<g id="graph0" class="graph" transform="scale(1 1) rotate(0) translate(4 224)">
<title>%3</title>
<polygon fill="white" stroke="none" points="-4,4 -4,-224 166,-224 166,4 -4,4"/>
<!-- 0 -->
<g id="node1" class="node"><title>0</title>
<ellipse fill="green" stroke="black" cx="102" cy="-198" rx="17.5909" ry="18"/>
<ellipse fill="none" stroke="black" cx="102" cy="-198" rx="21.5" ry="22"/>
<text text-anchor="middle" x="102" y="-194.3" font-family="Times,serif" font-size="14.00">0</text>
</g>
<!-- 2 -->
<g id="node3" class="node"><title>2</title>
<ellipse fill="lightblue" stroke="black" cx="51" cy="-106" rx="18" ry="18"/>
<text text-anchor="middle" x="51" y="-102.3" font-family="Times,serif" font-size="14.00">2</text>
</g>
<!-- 0&#45;&gt;2 -->
<g id="edge1" class="edge"><title>0&#45;&gt;2</title>
<path fill="none" stroke="black" d="M91.4328,-178.352C83.6783,-164.668 73.0792,-145.963 64.6784,-131.138"/>
<polygon fill="black" stroke="black" points="67.5025,-129.023 59.5273,-122.048 61.4124,-132.474 67.5025,-129.023"/>
<text text-anchor="middle" x="87.5" y="-146.3" font-family="Times,serif" font-size="14.00">b,a</text>
</g>
<!-- 3 -->
<g id="node4" class="node"><title>3</title>
<ellipse fill="lightblue" stroke="black" cx="119" cy="-18" rx="18" ry="18"/>
<text text-anchor="middle" x="119" y="-14.3" font-family="Times,serif" font-size="14.00">3</text>
</g>
<!-- 0&#45;&gt;3 -->
<g id="edge2" class="edge"><title>0&#45;&gt;3</title>
<path fill="none" stroke="black" d="M104.017,-175.882C107.102,-143.584 112.991,-81.9218 116.395,-46.279"/>
<polygon fill="black" stroke="black" points="119.899,-46.4016 117.366,-36.1141 112.931,-45.736 119.899,-46.4016"/>
<text text-anchor="middle" x="115.5" y="-102.3" font-family="Times,serif" font-size="14.00">c</text>
</g>
<!-- 1 -->
<g id="node2" class="node"><title>1</title>
<ellipse fill="lightblue" stroke="black" cx="18" cy="-18" rx="18" ry="18"/>
<text text-anchor="middle" x="18" y="-14.3" font-family="Times,serif" font-size="14.00">1</text>
</g>
<!-- 1&#45;&gt;0 -->
<g id="edge3" class="edge"><title>1&#45;&gt;0</title>
<path fill="none" stroke="black" d="M13.4379,-35.6618C8.47067,-57.2693 2.96479,-95.5539 17,-124 29.39,-149.112 54.7228,-169.065 74.5248,-181.72"/>
<polygon fill="black" stroke="black" points="72.8118,-184.775 83.1675,-187.014 76.4679,-178.806 72.8118,-184.775"/>
<text text-anchor="middle" x="20.5" y="-102.3" font-family="Times,serif" font-size="14.00">b</text>
</g>
<!-- 1&#45;&gt;1 -->
<g id="edge4" class="edge"><title>1&#45;&gt;1</title>
<path fill="none" stroke="black" d="M34.2903,-25.6679C44.3892,-27.5169 54,-24.9609 54,-18 54,-13.5406 50.0557,-10.8891 44.5656,-10.0454"/>
<polygon fill="black" stroke="black" points="44.1887,-6.55441 34.2903,-10.3321 44.384,-13.5517 44.1887,-6.55441"/>
<text text-anchor="middle" x="57.5" y="-14.3" font-family="Times,serif" font-size="14.00">a</text>
</g>
<!-- 1&#45;&gt;2 -->
<g id="edge5" class="edge"><title>1&#45;&gt;2</title>
<path fill="none" stroke="black" d="M24.1792,-35.1034C28.9654,-47.5764 35.6875,-65.0946 41.2046,-79.4725"/>
<polygon fill="black" stroke="black" points="37.9427,-80.7417 44.793,-88.8241 44.4781,-78.2339 37.9427,-80.7417"/>
<text text-anchor="middle" x="40.5" y="-58.3" font-family="Times,serif" font-size="14.00">c</text>
</g>
<!-- 2&#45;&gt;1 -->
<g id="edge6" class="edge"><title>2&#45;&gt;1</title>
<path fill="none" stroke="black" d="M37.6395,-93.4015C31.4116,-87.1524 24.5951,-78.9054 21,-70 18.0325,-62.6493 16.7714,-54.215 16.3869,-46.3497"/>
<polygon fill="black" stroke="black" points="19.8857,-46.1117 16.328,-36.1321 12.8858,-46.1521 19.8857,-46.1117"/>
<text text-anchor="middle" x="24.5" y="-58.3" font-family="Times,serif" font-size="14.00">c</text>
</g>
<!-- 2&#45;&gt;2 -->
<g id="edge7" class="edge"><title>2&#45;&gt;2</title>
<path fill="none" stroke="black" d="M67.2903,-113.668C77.3892,-115.517 87,-112.961 87,-106 87,-101.541 83.0557,-98.8891 77.5656,-98.0454"/>
<polygon fill="black" stroke="black" points="77.1887,-94.5544 67.2903,-98.3321 77.384,-101.552 77.1887,-94.5544"/>
<text text-anchor="middle" x="90.5" y="-102.3" font-family="Times,serif" font-size="14.00">a</text>
</g>
<!-- 2&#45;&gt;3 -->
<g id="edge8" class="edge"><title>2&#45;&gt;3</title>
<path fill="none" stroke="black" d="M58.5706,-89.5132C64.0742,-78.9891 72.0962,-65.0309 81,-54 85.88,-47.9542 91.8084,-41.9925 97.517,-36.7501"/>
<polygon fill="black" stroke="black" points="99.8632,-39.3476 105.046,-30.107 95.2319,-34.0987 99.8632,-39.3476"/>
<text text-anchor="middle" x="84.5" y="-58.3" font-family="Times,serif" font-size="14.00">b</text>
</g>
<!-- 3&#45;&gt;0 -->
<g id="edge9" class="edge"><title>3&#45;&gt;0</title>
<path fill="none" stroke="black" d="M124.171,-35.5689C125.728,-41.3413 127.228,-47.9 128,-54 133.819,-99.9922 131.987,-113.218 120,-158 119.017,-161.674 117.711,-165.432 116.25,-169.094"/>
<polygon fill="black" stroke="black" points="112.96,-167.881 112.136,-178.444 119.367,-170.701 112.96,-167.881"/>
<text text-anchor="middle" x="134.5" y="-102.3" font-family="Times,serif" font-size="14.00">a</text>
</g>
<!-- 3&#45;&gt;2 -->
<g id="edge10" class="edge"><title>3&#45;&gt;2</title>
<path fill="none" stroke="black" d="M110.261,-34.3039C104.024,-44.7464 95.1495,-58.6822 86,-70 81.4991,-75.5675 76.2209,-81.2182 71.1479,-86.3081"/>
<polygon fill="black" stroke="black" points="68.7007,-83.8059 63.9769,-93.2894 73.5836,-88.8216 68.7007,-83.8059"/>
<text text-anchor="middle" x="99.5" y="-58.3" font-family="Times,serif" font-size="14.00">b</text>
</g>
<!-- 3&#45;&gt;3 -->
<g id="edge11" class="edge"><title>3&#45;&gt;3</title>
<path fill="none" stroke="black" d="M135.29,-25.6679C145.389,-27.5169 155,-24.9609 155,-18 155,-13.5406 151.056,-10.8891 145.566,-10.0454"/>
<polygon fill="black" stroke="black" points="145.189,-6.55441 135.29,-10.3321 145.384,-13.5517 145.189,-6.55441"/>
<text text-anchor="middle" x="158.5" y="-14.3" font-family="Times,serif" font-size="14.00">c</text>
</g>
</g>
</svg>
