<?xml version="1.0" encoding="UTF-8" standalone="no"?>
<!DOCTYPE svg PUBLIC "-//W3C//DTD SVG 1.1//EN"
 "http://www.w3.org/Graphics/SVG/1.1/DTD/svg11.dtd">
<!-- Generated by graphviz version 2.36.0 (20140111.2315)
 -->
<!-- Title: %3 Pages: 1 -->
<svg width="125pt" height="316pt"
 viewBox="0.00 0.00 125.37 316.00" xmlns="http://www.w3.org/2000/svg" xmlns:xlink="http://www.w3.org/1999/xlink">
<g id="graph0" class="graph" transform="scale(1 1) rotate(0) translate(4 312)">
<title>%3</title>
<polygon fill="white" stroke="none" points="-4,4 -4,-312 121.372,-312 121.372,4 -4,4"/>
<!-- 0 -->
<g id="node1" class="node"><title>0</title>
<ellipse fill="green" stroke="black" cx="31.3715" cy="-194" rx="18" ry="18"/>
<text text-anchor="middle" x="31.3715" y="-190.3" font-family="Times,serif" font-size="14.00">0</text>
</g>
<!-- 1 -->
<g id="node2" class="node"><title>1</title>
<ellipse fill="lightblue" stroke="black" cx="31.3715" cy="-18" rx="18" ry="18"/>
<text text-anchor="middle" x="31.3715" y="-14.3" font-family="Times,serif" font-size="14.00">1</text>
</g>
<!-- 0&#45;&gt;1 -->
<g id="edge1" class="edge"><title>0&#45;&gt;1</title>
<path fill="none" stroke="black" d="M22.9737,-177.944C15.8918,-164.329 6.30059,-143.489 2.37153,-124 -0.79051,-108.316 -0.79051,-103.684 2.37153,-88 5.5025,-72.4697 12.229,-56.0816 18.416,-43.1753"/>
<polygon fill="black" stroke="black" points="21.6337,-44.5662 22.9737,-34.0564 15.3722,-41.4367 21.6337,-44.5662"/>
<text text-anchor="middle" x="5.87153" y="-102.3" font-family="Times,serif" font-size="14.00">a</text>
</g>
<!-- 3 -->
<g id="node4" class="node"><title>3</title>
<ellipse fill="lightblue" stroke="black" cx="74.3715" cy="-106" rx="18" ry="18"/>
<text text-anchor="middle" x="74.3715" y="-102.3" font-family="Times,serif" font-size="14.00">3</text>
</g>
<!-- 0&#45;&gt;3 -->
<g id="edge2" class="edge"><title>0&#45;&gt;3</title>
<path fill="none" stroke="black" d="M39.0591,-177.625C45.4399,-164.863 54.6355,-146.472 62.0433,-131.656"/>
<polygon fill="black" stroke="black" points="65.2639,-133.041 66.6056,-122.532 59.0029,-129.911 65.2639,-133.041"/>
<text text-anchor="middle" x="59.8715" y="-146.3" font-family="Times,serif" font-size="14.00">b</text>
</g>
<!-- 1&#45;&gt;0 -->
<g id="edge3" class="edge"><title>1&#45;&gt;0</title>
<path fill="none" stroke="black" d="M31.3715,-36.0697C31.3715,-66.266 31.3715,-129.334 31.3715,-165.653"/>
<polygon fill="black" stroke="black" points="27.8716,-165.999 31.3715,-175.999 34.8716,-165.999 27.8716,-165.999"/>
<text text-anchor="middle" x="34.8715" y="-102.3" font-family="Times,serif" font-size="14.00">a</text>
</g>
<!-- 1&#45;&gt;1 -->
<g id="edge4" class="edge"><title>1&#45;&gt;1</title>
<path fill="none" stroke="black" d="M47.6618,-25.6679C57.7607,-27.5169 67.3715,-24.9609 67.3715,-18 67.3715,-13.5406 63.4272,-10.8891 57.9372,-10.0454"/>
<polygon fill="black" stroke="black" points="57.5602,-6.55441 47.6618,-10.3321 57.7556,-13.5517 57.5602,-6.55441"/>
<text text-anchor="middle" x="70.8715" y="-14.3" font-family="Times,serif" font-size="14.00">b</text>
</g>
<!-- 2 -->
<g id="node3" class="node"><title>2</title>
<ellipse fill="lightblue" stroke="black" cx="67.3715" cy="-286" rx="17.5909" ry="18"/>
<ellipse fill="none" stroke="black" cx="67.3715" cy="-286" rx="21.5" ry="22"/>
<text text-anchor="middle" x="67.3715" y="-282.3" font-family="Times,serif" font-size="14.00">2</text>
</g>
<!-- 2&#45;&gt;0 -->
<g id="edge5" class="edge"><title>2&#45;&gt;0</title>
<path fill="none" stroke="black" d="M59.5601,-265.471C54.2506,-252.198 47.1777,-234.515 41.4451,-220.184"/>
<polygon fill="black" stroke="black" points="44.6923,-218.878 37.7286,-210.893 38.1929,-221.477 44.6923,-218.878"/>
<text text-anchor="middle" x="54.8715" y="-234.3" font-family="Times,serif" font-size="14.00">a</text>
</g>
<!-- 2&#45;&gt;3 -->
<g id="edge6" class="edge"><title>2&#45;&gt;3</title>
<path fill="none" stroke="black" d="M68.202,-263.882C69.4722,-231.584 71.8971,-169.922 73.2988,-134.279"/>
<polygon fill="black" stroke="black" points="76.8028,-134.244 73.6985,-124.114 69.8082,-133.969 76.8028,-134.244"/>
<text text-anchor="middle" x="74.8715" y="-190.3" font-family="Times,serif" font-size="14.00">b</text>
</g>
<!-- 3&#45;&gt;1 -->
<g id="edge7" class="edge"><title>3&#45;&gt;1</title>
<path fill="none" stroke="black" d="M66.684,-89.6249C60.3032,-76.8633 51.1076,-58.4721 43.6998,-43.6565"/>
<polygon fill="black" stroke="black" points="46.7402,-41.9109 39.1375,-34.5319 40.4792,-45.0415 46.7402,-41.9109"/>
<text text-anchor="middle" x="59.8715" y="-58.3" font-family="Times,serif" font-size="14.00">a</text>
</g>
<!-- 3&#45;&gt;3 -->
<g id="edge8" class="edge"><title>3&#45;&gt;3</title>
<path fill="none" stroke="black" d="M90.6618,-113.668C100.761,-115.517 110.372,-112.961 110.372,-106 110.372,-101.541 106.427,-98.8891 100.937,-98.0454"/>
<polygon fill="black" stroke="black" points="100.56,-94.5544 90.6618,-98.3321 100.756,-101.552 100.56,-94.5544"/>
<text text-anchor="middle" x="113.872" y="-102.3" font-family="Times,serif" font-size="14.00">b</text>
</g>
</g>
</svg>
