<?xml version="1.0" encoding="UTF-8" standalone="no"?>
<!DOCTYPE svg PUBLIC "-//W3C//DTD SVG 1.1//EN"
 "http://www.w3.org/Graphics/SVG/1.1/DTD/svg11.dtd">
<!-- Generated by graphviz version 2.36.0 (20140111.2315)
 -->
<!-- Title: %3 Pages: 1 -->
<svg width="186pt" height="316pt"
 viewBox="0.00 0.00 186.06 316.00" xmlns="http://www.w3.org/2000/svg" xmlns:xlink="http://www.w3.org/1999/xlink">
<g id="graph0" class="graph" transform="scale(1 1) rotate(0) translate(4 312)">
<title>%3</title>
<polygon fill="white" stroke="none" points="-4,4 -4,-312 182.057,-312 182.057,4 -4,4"/>
<!-- 0 -->
<g id="node1" class="node"><title>0</title>
<ellipse fill="lightblue" stroke="black" cx="38.0567" cy="-290" rx="18" ry="18"/>
<text text-anchor="middle" x="38.0567" y="-286.3" font-family="Times,serif" font-size="14.00">0</text>
</g>
<!-- 2 -->
<g id="node3" class="node"><title>2</title>
<ellipse fill="lightblue" stroke="black" cx="38.0567" cy="-202" rx="18" ry="18"/>
<text text-anchor="middle" x="38.0567" y="-198.3" font-family="Times,serif" font-size="14.00">2</text>
</g>
<!-- 0&#45;&gt;2 -->
<g id="edge1" class="edge"><title>0&#45;&gt;2</title>
<path fill="none" stroke="black" d="M38.0567,-271.597C38.0567,-259.746 38.0567,-243.817 38.0567,-230.292"/>
<polygon fill="black" stroke="black" points="41.5568,-230.084 38.0567,-220.084 34.5568,-230.084 41.5568,-230.084"/>
<text text-anchor="middle" x="46.5567" y="-242.3" font-family="Times,serif" font-size="14.00">b,a</text>
</g>
<!-- 1 -->
<g id="node2" class="node"><title>1</title>
<ellipse fill="lightblue" stroke="black" cx="135.057" cy="-114" rx="18" ry="18"/>
<text text-anchor="middle" x="135.057" y="-110.3" font-family="Times,serif" font-size="14.00">1</text>
</g>
<!-- 1&#45;&gt;1 -->
<g id="edge2" class="edge"><title>1&#45;&gt;1</title>
<path fill="none" stroke="black" d="M151.347,-121.668C161.446,-123.517 171.057,-120.961 171.057,-114 171.057,-109.541 167.112,-106.889 161.622,-106.045"/>
<polygon fill="black" stroke="black" points="161.245,-102.554 151.347,-106.332 161.441,-109.552 161.245,-102.554"/>
<text text-anchor="middle" x="174.557" y="-110.3" font-family="Times,serif" font-size="14.00">b</text>
</g>
<!-- 3 -->
<g id="node4" class="node"><title>3</title>
<ellipse fill="green" stroke="black" cx="70.0567" cy="-22" rx="17.5909" ry="18"/>
<ellipse fill="none" stroke="black" cx="70.0567" cy="-22" rx="21.5" ry="22"/>
<text text-anchor="middle" x="70.0567" y="-18.3" font-family="Times,serif" font-size="14.00">3</text>
</g>
<!-- 1&#45;&gt;3 -->
<g id="edge3" class="edge"><title>1&#45;&gt;3</title>
<path fill="none" stroke="black" d="M127.303,-97.2591C121.905,-86.8776 114.231,-73.183 106.057,-62 101.892,-56.3023 96.9963,-50.5228 92.1805,-45.2206"/>
<polygon fill="black" stroke="black" points="94.6699,-42.7585 85.2761,-37.8588 89.5641,-47.5472 94.6699,-42.7585"/>
<text text-anchor="middle" x="118.557" y="-66.3" font-family="Times,serif" font-size="14.00">a</text>
</g>
<!-- 2&#45;&gt;3 -->
<g id="edge4" class="edge"><title>2&#45;&gt;3</title>
<path fill="none" stroke="black" d="M27.5694,-187.242C13.5075,-167.021 -8.33626,-128.186 4.05668,-96 12.2928,-74.6096 30.022,-55.5907 45.0328,-42.332"/>
<polygon fill="black" stroke="black" points="47.6402,-44.7107 53.0149,-35.5803 43.1195,-39.3662 47.6402,-44.7107"/>
<text text-anchor="middle" x="7.55668" y="-110.3" font-family="Times,serif" font-size="14.00">a</text>
</g>
<!-- 4 -->
<g id="node5" class="node"><title>4</title>
<ellipse fill="lightblue" stroke="black" cx="38.0567" cy="-114" rx="18" ry="18"/>
<text text-anchor="middle" x="38.0567" y="-110.3" font-family="Times,serif" font-size="14.00">4</text>
</g>
<!-- 2&#45;&gt;4 -->
<g id="edge5" class="edge"><title>2&#45;&gt;4</title>
<path fill="none" stroke="black" d="M38.0567,-183.597C38.0567,-171.746 38.0567,-155.817 38.0567,-142.292"/>
<polygon fill="black" stroke="black" points="41.5568,-142.084 38.0567,-132.084 34.5568,-142.084 41.5568,-142.084"/>
<text text-anchor="middle" x="41.5567" y="-154.3" font-family="Times,serif" font-size="14.00">b</text>
</g>
<!-- 3&#45;&gt;2 -->
<g id="edge6" class="edge"><title>3&#45;&gt;2</title>
<path fill="none" stroke="black" d="M74.3577,-43.6245C75.9874,-53.9434 77.2032,-66.6274 76.0567,-78 73.5998,-102.369 71.9894,-108.509 65.0567,-132 60.6465,-146.944 54.3652,-163.193 48.9708,-176.167"/>
<polygon fill="black" stroke="black" points="45.7483,-174.802 45.0641,-185.374 52.1922,-177.536 45.7483,-174.802"/>
<text text-anchor="middle" x="76.5567" y="-110.3" font-family="Times,serif" font-size="14.00">b</text>
</g>
<!-- 3&#45;&gt;3 -->
<g id="edge7" class="edge"><title>3&#45;&gt;3</title>
<path fill="none" stroke="black" d="M90.123,-30.7341C100.13,-31.9426 109.057,-29.0312 109.057,-22 109.057,-17.4956 105.393,-14.682 100.129,-13.5592"/>
<polygon fill="black" stroke="black" points="100.221,-10.0605 90.123,-13.2659 100.016,-17.0575 100.221,-10.0605"/>
<text text-anchor="middle" x="112.557" y="-18.3" font-family="Times,serif" font-size="14.00">a</text>
</g>
<!-- 4&#45;&gt;3 -->
<g id="edge8" class="edge"><title>4&#45;&gt;3</title>
<path fill="none" stroke="black" d="M43.7776,-96.9098C48.1304,-84.6677 54.2432,-67.4754 59.478,-52.7526"/>
<polygon fill="black" stroke="black" points="62.877,-53.6402 62.9294,-43.0455 56.2815,-51.2951 62.877,-53.6402"/>
<text text-anchor="middle" x="63.5567" y="-66.3" font-family="Times,serif" font-size="14.00">b,a</text>
</g>
</g>
</svg>
