<?xml version="1.0" encoding="UTF-8" standalone="no"?>
<!DOCTYPE svg PUBLIC "-//W3C//DTD SVG 1.1//EN"
 "http://www.w3.org/Graphics/SVG/1.1/DTD/svg11.dtd">
<!-- Generated by graphviz version 2.36.0 (20140111.2315)
 -->
<!-- Title: %3 Pages: 1 -->
<svg width="100pt" height="404pt"
 viewBox="0.00 0.00 100.37 404.00" xmlns="http://www.w3.org/2000/svg" xmlns:xlink="http://www.w3.org/1999/xlink">
<g id="graph0" class="graph" transform="scale(1 1) rotate(0) translate(4 400)">
<title>%3</title>
<polygon fill="white" stroke="none" points="-4,4 -4,-400 96.3715,-400 96.3715,4 -4,4"/>
<!-- 0 -->
<g id="node1" class="node"><title>0</title>
<ellipse fill="lightblue" stroke="black" cx="69.3715" cy="-378" rx="18" ry="18"/>
<text text-anchor="middle" x="69.3715" y="-374.3" font-family="Times,serif" font-size="14.00">0</text>
</g>
<!-- 1 -->
<g id="node2" class="node"><title>1</title>
<ellipse fill="green" stroke="black" cx="31.3715" cy="-290" rx="18" ry="18"/>
<text text-anchor="middle" x="31.3715" y="-286.3" font-family="Times,serif" font-size="14.00">1</text>
</g>
<!-- 0&#45;&gt;1 -->
<g id="edge1" class="edge"><title>0&#45;&gt;1</title>
<path fill="none" stroke="black" d="M62.4017,-361.226C56.8309,-348.619 48.9161,-330.706 42.4744,-316.128"/>
<polygon fill="black" stroke="black" points="45.5402,-314.406 38.2971,-306.674 39.1374,-317.235 45.5402,-314.406"/>
<text text-anchor="middle" x="62.8715" y="-330.3" font-family="Times,serif" font-size="14.00">b,a</text>
</g>
<!-- 3 -->
<g id="node4" class="node"><title>3</title>
<ellipse fill="lightblue" stroke="black" cx="31.3715" cy="-114" rx="18" ry="18"/>
<text text-anchor="middle" x="31.3715" y="-110.3" font-family="Times,serif" font-size="14.00">3</text>
</g>
<!-- 1&#45;&gt;3 -->
<g id="edge2" class="edge"><title>1&#45;&gt;3</title>
<path fill="none" stroke="black" d="M22.9737,-273.944C15.8918,-260.329 6.30059,-239.489 2.37153,-220 -0.79051,-204.316 -0.79051,-199.684 2.37153,-184 5.5025,-168.47 12.229,-152.082 18.416,-139.175"/>
<polygon fill="black" stroke="black" points="21.6337,-140.566 22.9737,-130.056 15.3722,-137.437 21.6337,-140.566"/>
<text text-anchor="middle" x="5.87153" y="-198.3" font-family="Times,serif" font-size="14.00">a</text>
</g>
<!-- 4 -->
<g id="node5" class="node"><title>4</title>
<ellipse fill="lightblue" stroke="black" cx="74.3715" cy="-202" rx="18" ry="18"/>
<text text-anchor="middle" x="74.3715" y="-198.3" font-family="Times,serif" font-size="14.00">4</text>
</g>
<!-- 1&#45;&gt;4 -->
<g id="edge3" class="edge"><title>1&#45;&gt;4</title>
<path fill="none" stroke="black" d="M39.0591,-273.625C45.4399,-260.863 54.6355,-242.472 62.0433,-227.656"/>
<polygon fill="black" stroke="black" points="65.2639,-229.041 66.6056,-218.532 59.0029,-225.911 65.2639,-229.041"/>
<text text-anchor="middle" x="59.8715" y="-242.3" font-family="Times,serif" font-size="14.00">b</text>
</g>
<!-- 2 -->
<g id="node3" class="node"><title>2</title>
<ellipse fill="lightblue" stroke="black" cx="31.3715" cy="-22" rx="17.5909" ry="18"/>
<ellipse fill="none" stroke="black" cx="31.3715" cy="-22" rx="21.5" ry="22"/>
<text text-anchor="middle" x="31.3715" y="-18.3" font-family="Times,serif" font-size="14.00">2</text>
</g>
<!-- 2&#45;&gt;2 -->
<g id="edge4" class="edge"><title>2&#45;&gt;2</title>
<path fill="none" stroke="black" d="M51.4378,-30.7341C61.4451,-31.9426 70.3715,-29.0312 70.3715,-22 70.3715,-17.4956 66.7081,-14.682 61.444,-13.5592"/>
<polygon fill="black" stroke="black" points="61.5361,-10.0605 51.4378,-13.2659 61.3309,-17.0575 61.5361,-10.0605"/>
<text text-anchor="middle" x="73.8715" y="-18.3" font-family="Times,serif" font-size="14.00">b</text>
</g>
<!-- 2&#45;&gt;3 -->
<g id="edge5" class="edge"><title>2&#45;&gt;3</title>
<path fill="none" stroke="black" d="M31.3715,-44.101C31.3715,-56.4798 31.3715,-72.2575 31.3715,-85.5903"/>
<polygon fill="black" stroke="black" points="27.8716,-85.6471 31.3715,-95.6471 34.8716,-85.6471 27.8716,-85.6471"/>
<text text-anchor="middle" x="34.8715" y="-66.3" font-family="Times,serif" font-size="14.00">a</text>
</g>
<!-- 3&#45;&gt;1 -->
<g id="edge6" class="edge"><title>3&#45;&gt;1</title>
<path fill="none" stroke="black" d="M31.3715,-132.07C31.3715,-162.266 31.3715,-225.334 31.3715,-261.653"/>
<polygon fill="black" stroke="black" points="27.8716,-261.999 31.3715,-271.999 34.8716,-261.999 27.8716,-261.999"/>
<text text-anchor="middle" x="34.8715" y="-198.3" font-family="Times,serif" font-size="14.00">b</text>
</g>
<!-- 3&#45;&gt;2 -->
<g id="edge7" class="edge"><title>3&#45;&gt;2</title>
<path fill="none" stroke="black" d="M25.1718,-96.8629C23.2274,-91.0135 21.3376,-84.2957 20.3715,-78 19.1046,-69.7435 19.9218,-60.8448 21.5687,-52.6613"/>
<polygon fill="black" stroke="black" points="25.0093,-53.3273 24.0041,-42.7802 18.2126,-51.6521 25.0093,-53.3273"/>
<text text-anchor="middle" x="23.8715" y="-66.3" font-family="Times,serif" font-size="14.00">a</text>
</g>
<!-- 4&#45;&gt;0 -->
<g id="edge8" class="edge"><title>4&#45;&gt;0</title>
<path fill="none" stroke="black" d="M74.5165,-220.132C74.6502,-246.383 74.5645,-298.13 72.3715,-342 72.2436,-344.558 72.077,-347.219 71.8877,-349.88"/>
<polygon fill="black" stroke="black" points="68.3927,-349.678 71.0798,-359.927 75.3702,-350.239 68.3927,-349.678"/>
<text text-anchor="middle" x="76.8715" y="-286.3" font-family="Times,serif" font-size="14.00">a</text>
</g>
<!-- 4&#45;&gt;3 -->
<g id="edge9" class="edge"><title>4&#45;&gt;3</title>
<path fill="none" stroke="black" d="M66.684,-185.625C60.3032,-172.863 51.1076,-154.472 43.6998,-139.656"/>
<polygon fill="black" stroke="black" points="46.7402,-137.911 39.1375,-130.532 40.4792,-141.041 46.7402,-137.911"/>
<text text-anchor="middle" x="59.8715" y="-154.3" font-family="Times,serif" font-size="14.00">b</text>
</g>
</g>
</svg>
