<?xml version="1.0" encoding="UTF-8" standalone="no"?>
<!DOCTYPE svg PUBLIC "-//W3C//DTD SVG 1.1//EN"
 "http://www.w3.org/Graphics/SVG/1.1/DTD/svg11.dtd">
<!-- Generated by graphviz version 2.36.0 (20140111.2315)
 -->
<!-- Title: %3 Pages: 1 -->
<svg width="140pt" height="316pt"
 viewBox="0.00 0.00 140.00 316.00" xmlns="http://www.w3.org/2000/svg" xmlns:xlink="http://www.w3.org/1999/xlink">
<g id="graph0" class="graph" transform="scale(1 1) rotate(0) translate(4 312)">
<title>%3</title>
<polygon fill="white" stroke="none" points="-4,4 -4,-312 136,-312 136,4 -4,4"/>
<!-- 0 -->
<g id="node1" class="node"><title>0</title>
<ellipse fill="lightblue" stroke="black" cx="80" cy="-290" rx="18" ry="18"/>
<text text-anchor="middle" x="80" y="-286.3" font-family="Times,serif" font-size="14.00">0</text>
</g>
<!-- 0&#45;&gt;0 -->
<g id="edge1" class="edge"><title>0&#45;&gt;0</title>
<path fill="none" stroke="black" d="M96.2903,-297.668C106.389,-299.517 116,-296.961 116,-290 116,-285.541 112.056,-282.889 106.566,-282.045"/>
<polygon fill="black" stroke="black" points="106.189,-278.554 96.2903,-282.332 106.384,-285.552 106.189,-278.554"/>
<text text-anchor="middle" x="124" y="-286.3" font-family="Times,serif" font-size="14.00">c,a</text>
</g>
<!-- 2 -->
<g id="node3" class="node"><title>2</title>
<ellipse fill="green" stroke="black" cx="23" cy="-198" rx="17.5909" ry="18"/>
<ellipse fill="none" stroke="black" cx="23" cy="-198" rx="21.5" ry="22"/>
<text text-anchor="middle" x="23" y="-194.3" font-family="Times,serif" font-size="14.00">2</text>
</g>
<!-- 0&#45;&gt;2 -->
<g id="edge2" class="edge"><title>0&#45;&gt;2</title>
<path fill="none" stroke="black" d="M70.5876,-274.138C62.2878,-261.033 49.9908,-241.617 39.9764,-225.805"/>
<polygon fill="black" stroke="black" points="42.6988,-223.562 34.3914,-216.986 36.7851,-227.307 42.6988,-223.562"/>
<text text-anchor="middle" x="59.5" y="-242.3" font-family="Times,serif" font-size="14.00">b</text>
</g>
<!-- 1 -->
<g id="node2" class="node"><title>1</title>
<ellipse fill="lightblue" stroke="black" cx="18" cy="-106" rx="18" ry="18"/>
<text text-anchor="middle" x="18" y="-102.3" font-family="Times,serif" font-size="14.00">1</text>
</g>
<!-- 3 -->
<g id="node4" class="node"><title>3</title>
<ellipse fill="lightblue" stroke="black" cx="72" cy="-18" rx="18" ry="18"/>
<text text-anchor="middle" x="72" y="-14.3" font-family="Times,serif" font-size="14.00">3</text>
</g>
<!-- 1&#45;&gt;3 -->
<g id="edge3" class="edge"><title>1&#45;&gt;3</title>
<path fill="none" stroke="black" d="M19.7084,-87.9016C21.368,-77.4782 24.6251,-64.2388 31,-54 35.5911,-46.6262 42.2423,-39.9987 48.8563,-34.5455"/>
<polygon fill="black" stroke="black" points="51.2228,-37.1427 57.0565,-28.2985 46.9808,-31.5744 51.2228,-37.1427"/>
<text text-anchor="middle" x="44.5" y="-58.3" font-family="Times,serif" font-size="14.00">b,c,a</text>
</g>
<!-- 2&#45;&gt;1 -->
<g id="edge4" class="edge"><title>2&#45;&gt;1</title>
<path fill="none" stroke="black" d="M21.8151,-175.671C21.1269,-163.284 20.2529,-147.552 19.5151,-134.272"/>
<polygon fill="black" stroke="black" points="23.0082,-134.048 18.9588,-124.258 16.019,-134.437 23.0082,-134.048"/>
<text text-anchor="middle" x="24.5" y="-146.3" font-family="Times,serif" font-size="14.00">b</text>
</g>
<!-- 2&#45;&gt;2 -->
<g id="edge5" class="edge"><title>2&#45;&gt;2</title>
<path fill="none" stroke="black" d="M43.0663,-206.734C53.0736,-207.943 62,-205.031 62,-198 62,-193.496 58.3366,-190.682 53.0725,-189.559"/>
<polygon fill="black" stroke="black" points="53.1646,-186.061 43.0663,-189.266 52.9594,-193.057 53.1646,-186.061"/>
<text text-anchor="middle" x="70" y="-194.3" font-family="Times,serif" font-size="14.00">c,a</text>
</g>
<!-- 3&#45;&gt;0 -->
<g id="edge6" class="edge"><title>3&#45;&gt;0</title>
<path fill="none" stroke="black" d="M74.9199,-35.9243C80.5347,-70.4845 91.9475,-151.677 88,-220 87.1957,-233.92 85.486,-249.342 83.8528,-262.069"/>
<polygon fill="black" stroke="black" points="80.3766,-261.658 82.5204,-272.034 87.3149,-262.586 80.3766,-261.658"/>
<text text-anchor="middle" x="95.5" y="-146.3" font-family="Times,serif" font-size="14.00">b,a</text>
</g>
<!-- 3&#45;&gt;2 -->
<g id="edge7" class="edge"><title>3&#45;&gt;2</title>
<path fill="none" stroke="black" d="M67.9088,-35.787C62.7932,-56.5643 53.6533,-92.9991 45,-124 41.0407,-138.185 36.3675,-153.828 32.3487,-166.983"/>
<polygon fill="black" stroke="black" points="28.8857,-166.337 29.2923,-176.924 35.5766,-168.394 28.8857,-166.337"/>
<text text-anchor="middle" x="57.5" y="-102.3" font-family="Times,serif" font-size="14.00">c</text>
</g>
</g>
</svg>
