<?xml version="1.0" encoding="UTF-8" standalone="no"?>
<!DOCTYPE svg PUBLIC "-//W3C//DTD SVG 1.1//EN"
 "http://www.w3.org/Graphics/SVG/1.1/DTD/svg11.dtd">
<!-- Generated by graphviz version 2.36.0 (20140111.2315)
 -->
<!-- Title: %3 Pages: 1 -->
<svg width="74pt" height="316pt"
 viewBox="0.00 0.00 73.80 316.00" xmlns="http://www.w3.org/2000/svg" xmlns:xlink="http://www.w3.org/1999/xlink">
<g id="graph0" class="graph" transform="scale(1 1) rotate(0) translate(4 312)">
<title>%3</title>
<polygon fill="white" stroke="none" points="-4,4 -4,-312 69.8007,-312 69.8007,4 -4,4"/>
<!-- 0 -->
<g id="node1" class="node"><title>0</title>
<ellipse fill="lightblue" stroke="black" cx="22.8007" cy="-290" rx="18" ry="18"/>
<text text-anchor="middle" x="22.8007" y="-286.3" font-family="Times,serif" font-size="14.00">0</text>
</g>
<!-- 0&#45;&gt;0 -->
<g id="edge1" class="edge"><title>0&#45;&gt;0</title>
<path fill="none" stroke="black" d="M39.091,-297.668C49.1899,-299.517 58.8007,-296.961 58.8007,-290 58.8007,-285.541 54.8564,-282.889 49.3663,-282.045"/>
<polygon fill="black" stroke="black" points="48.9894,-278.554 39.091,-282.332 49.1847,-285.552 48.9894,-278.554"/>
<text text-anchor="middle" x="62.3007" y="-286.3" font-family="Times,serif" font-size="14.00">a</text>
</g>
<!-- 1 -->
<g id="node2" class="node"><title>1</title>
<ellipse fill="green" stroke="black" cx="22.8007" cy="-202" rx="18" ry="18"/>
<text text-anchor="middle" x="22.8007" y="-198.3" font-family="Times,serif" font-size="14.00">1</text>
</g>
<!-- 0&#45;&gt;1 -->
<g id="edge2" class="edge"><title>0&#45;&gt;1</title>
<path fill="none" stroke="black" d="M22.8007,-271.597C22.8007,-259.746 22.8007,-243.817 22.8007,-230.292"/>
<polygon fill="black" stroke="black" points="26.3008,-230.084 22.8007,-220.084 19.3008,-230.084 26.3008,-230.084"/>
<text text-anchor="middle" x="26.3007" y="-242.3" font-family="Times,serif" font-size="14.00">b</text>
</g>
<!-- 3 -->
<g id="node4" class="node"><title>3</title>
<ellipse fill="lightblue" stroke="black" cx="22.8007" cy="-110" rx="17.5909" ry="18"/>
<ellipse fill="none" stroke="black" cx="22.8007" cy="-110" rx="21.5" ry="22"/>
<text text-anchor="middle" x="22.8007" y="-106.3" font-family="Times,serif" font-size="14.00">3</text>
</g>
<!-- 1&#45;&gt;3 -->
<g id="edge3" class="edge"><title>1&#45;&gt;3</title>
<path fill="none" stroke="black" d="M22.8007,-183.647C22.8007,-171.924 22.8007,-156.114 22.8007,-142.237"/>
<polygon fill="black" stroke="black" points="26.3008,-142.101 22.8007,-132.101 19.3008,-142.101 26.3008,-142.101"/>
<text text-anchor="middle" x="31.3007" y="-154.3" font-family="Times,serif" font-size="14.00">b,a</text>
</g>
<!-- 2 -->
<g id="node3" class="node"><title>2</title>
<ellipse fill="lightblue" stroke="black" cx="22.8007" cy="-18" rx="18" ry="18"/>
<text text-anchor="middle" x="22.8007" y="-14.3" font-family="Times,serif" font-size="14.00">2</text>
</g>
<!-- 2&#45;&gt;2 -->
<g id="edge4" class="edge"><title>2&#45;&gt;2</title>
<path fill="none" stroke="black" d="M39.091,-25.6679C49.1899,-27.5169 58.8007,-24.9609 58.8007,-18 58.8007,-13.5406 54.8564,-10.8891 49.3663,-10.0454"/>
<polygon fill="black" stroke="black" points="48.9894,-6.55441 39.091,-10.3321 49.1847,-13.5517 48.9894,-6.55441"/>
<text text-anchor="middle" x="62.3007" y="-14.3" font-family="Times,serif" font-size="14.00">b</text>
</g>
<!-- 2&#45;&gt;3 -->
<g id="edge5" class="edge"><title>2&#45;&gt;3</title>
<path fill="none" stroke="black" d="M22.8007,-36.2581C22.8007,-47.9274 22.8007,-63.6781 22.8007,-77.539"/>
<polygon fill="black" stroke="black" points="19.3008,-77.6712 22.8007,-87.6713 26.3008,-77.6713 19.3008,-77.6712"/>
<text text-anchor="middle" x="26.3007" y="-58.3" font-family="Times,serif" font-size="14.00">a</text>
</g>
<!-- 3&#45;&gt;2 -->
<g id="edge6" class="edge"><title>3&#45;&gt;2</title>
<path fill="none" stroke="black" d="M10.2579,-91.9403C3.89511,-81.2186 -1.80069,-67.0021 1.80069,-54 2.97109,-49.7745 4.80251,-45.5469 6.90703,-41.5652"/>
<polygon fill="black" stroke="black" points="9.99847,-43.2152 12.1307,-32.8371 3.99202,-39.6203 9.99847,-43.2152"/>
<text text-anchor="middle" x="10.3007" y="-58.3" font-family="Times,serif" font-size="14.00">b,a</text>
</g>
</g>
</svg>
