<?xml version="1.0" encoding="UTF-8" standalone="no"?>
<!DOCTYPE svg PUBLIC "-//W3C//DTD SVG 1.1//EN"
 "http://www.w3.org/Graphics/SVG/1.1/DTD/svg11.dtd">
<!-- Generated by graphviz version 2.36.0 (20140111.2315)
 -->
<!-- Title: %3 Pages: 1 -->
<svg width="131pt" height="316pt"
 viewBox="0.00 0.00 131.00 316.00" xmlns="http://www.w3.org/2000/svg" xmlns:xlink="http://www.w3.org/1999/xlink">
<g id="graph0" class="graph" transform="scale(1 1) rotate(0) translate(4 312)">
<title>%3</title>
<polygon fill="white" stroke="none" points="-4,4 -4,-312 127,-312 127,4 -4,4"/>
<!-- 0 -->
<g id="node1" class="node"><title>0</title>
<ellipse fill="lightblue" stroke="black" cx="22" cy="-286" rx="17.5909" ry="18"/>
<ellipse fill="none" stroke="black" cx="22" cy="-286" rx="21.5" ry="22"/>
<text text-anchor="middle" x="22" y="-282.3" font-family="Times,serif" font-size="14.00">0</text>
</g>
<!-- 0&#45;&gt;0 -->
<g id="edge1" class="edge"><title>0&#45;&gt;0</title>
<path fill="none" stroke="black" d="M42.0663,-294.734C52.0736,-295.943 61,-293.031 61,-286 61,-281.496 57.3366,-278.682 52.0725,-277.559"/>
<polygon fill="black" stroke="black" points="52.1646,-274.061 42.0663,-277.266 51.9594,-281.057 52.1646,-274.061"/>
<text text-anchor="middle" x="64.5" y="-282.3" font-family="Times,serif" font-size="14.00">b</text>
</g>
<!-- 1 -->
<g id="node2" class="node"><title>1</title>
<ellipse fill="lightblue" stroke="black" cx="76" cy="-194" rx="18" ry="18"/>
<text text-anchor="middle" x="76" y="-190.3" font-family="Times,serif" font-size="14.00">1</text>
</g>
<!-- 0&#45;&gt;1 -->
<g id="edge2" class="edge"><title>0&#45;&gt;1</title>
<path fill="none" stroke="black" d="M32.9277,-266.787C41.2477,-252.921 52.769,-233.718 61.8024,-218.663"/>
<polygon fill="black" stroke="black" points="64.9108,-220.285 67.0546,-209.909 58.9084,-216.683 64.9108,-220.285"/>
<text text-anchor="middle" x="56.5" y="-234.3" font-family="Times,serif" font-size="14.00">a</text>
</g>
<!-- 1&#45;&gt;1 -->
<g id="edge3" class="edge"><title>1&#45;&gt;1</title>
<path fill="none" stroke="black" d="M92.2903,-201.668C102.389,-203.517 112,-200.961 112,-194 112,-189.541 108.056,-186.889 102.566,-186.045"/>
<polygon fill="black" stroke="black" points="102.189,-182.554 92.2903,-186.332 102.384,-189.552 102.189,-182.554"/>
<text text-anchor="middle" x="115.5" y="-190.3" font-family="Times,serif" font-size="14.00">a</text>
</g>
<!-- 3 -->
<g id="node4" class="node"><title>3</title>
<ellipse fill="green" stroke="black" cx="76" cy="-106" rx="18" ry="18"/>
<text text-anchor="middle" x="76" y="-102.3" font-family="Times,serif" font-size="14.00">3</text>
</g>
<!-- 1&#45;&gt;3 -->
<g id="edge4" class="edge"><title>1&#45;&gt;3</title>
<path fill="none" stroke="black" d="M76,-175.597C76,-163.746 76,-147.817 76,-134.292"/>
<polygon fill="black" stroke="black" points="79.5001,-134.084 76,-124.084 72.5001,-134.084 79.5001,-134.084"/>
<text text-anchor="middle" x="79.5" y="-146.3" font-family="Times,serif" font-size="14.00">b</text>
</g>
<!-- 2 -->
<g id="node3" class="node"><title>2</title>
<ellipse fill="lightblue" stroke="black" cx="55" cy="-18" rx="18" ry="18"/>
<text text-anchor="middle" x="55" y="-14.3" font-family="Times,serif" font-size="14.00">2</text>
</g>
<!-- 2&#45;&gt;0 -->
<g id="edge5" class="edge"><title>2&#45;&gt;0</title>
<path fill="none" stroke="black" d="M52.902,-35.9109C47.4636,-79.7483 32.8475,-197.562 25.8442,-254.014"/>
<polygon fill="black" stroke="black" points="22.3473,-253.773 24.5895,-264.127 29.2941,-254.634 22.3473,-253.773"/>
<text text-anchor="middle" x="43.5" y="-146.3" font-family="Times,serif" font-size="14.00">b</text>
</g>
<!-- 2&#45;&gt;3 -->
<g id="edge6" class="edge"><title>2&#45;&gt;3</title>
<path fill="none" stroke="black" d="M54.2545,-36.2867C54.2559,-46.299 55.0059,-59.049 58,-70 59.0148,-73.7115 60.454,-77.4838 62.082,-81.1104"/>
<polygon fill="black" stroke="black" points="59.0486,-82.8687 66.6699,-90.2285 65.3017,-79.7224 59.0486,-82.8687"/>
<text text-anchor="middle" x="61.5" y="-58.3" font-family="Times,serif" font-size="14.00">a</text>
</g>
<!-- 3&#45;&gt;2 -->
<g id="edge7" class="edge"><title>3&#45;&gt;2</title>
<path fill="none" stroke="black" d="M71.951,-88.4183C69.0067,-76.3608 64.9575,-59.7785 61.5551,-45.8445"/>
<polygon fill="black" stroke="black" points="64.8806,-44.7085 59.1082,-35.8242 58.0804,-46.3691 64.8806,-44.7085"/>
<text text-anchor="middle" x="75.5" y="-58.3" font-family="Times,serif" font-size="14.00">b,a</text>
</g>
<!-- 4 -->
<g id="node5" class="node"><title>4</title>
<ellipse fill="lightblue" stroke="black" cx="105" cy="-286" rx="18" ry="18"/>
<text text-anchor="middle" x="105" y="-282.3" font-family="Times,serif" font-size="14.00">4</text>
</g>
<!-- 4&#45;&gt;1 -->
<g id="edge8" class="edge"><title>4&#45;&gt;1</title>
<path fill="none" stroke="black" d="M99.681,-268.493C95.4295,-255.299 89.3893,-236.553 84.4733,-221.296"/>
<polygon fill="black" stroke="black" points="87.6837,-219.847 81.2853,-211.403 81.021,-221.994 87.6837,-219.847"/>
<text text-anchor="middle" x="100.5" y="-234.3" font-family="Times,serif" font-size="14.00">b,a</text>
</g>
</g>
</svg>
