<?xml version="1.0" encoding="UTF-8" standalone="no"?>
<!DOCTYPE svg PUBLIC "-//W3C//DTD SVG 1.1//EN"
 "http://www.w3.org/Graphics/SVG/1.1/DTD/svg11.dtd">
<!-- Generated by graphviz version 2.36.0 (20140111.2315)
 -->
<!-- Title: %3 Pages: 1 -->
<svg width="156pt" height="228pt"
 viewBox="0.00 0.00 156.00 228.00" xmlns="http://www.w3.org/2000/svg" xmlns:xlink="http://www.w3.org/1999/xlink">
<g id="graph0" class="graph" transform="scale(1 1) rotate(0) translate(4 224)">
<title>%3</title>
<polygon fill="white" stroke="none" points="-4,4 -4,-224 152,-224 152,4 -4,4"/>
<!-- 0 -->
<g id="node1" class="node"><title>0</title>
<ellipse fill="lightblue" stroke="black" cx="101" cy="-110" rx="17.5909" ry="18"/>
<ellipse fill="none" stroke="black" cx="101" cy="-110" rx="21.5" ry="22"/>
<text text-anchor="middle" x="101" y="-106.3" font-family="Times,serif" font-size="14.00">0</text>
</g>
<!-- 0&#45;&gt;0 -->
<g id="edge1" class="edge"><title>0&#45;&gt;0</title>
<path fill="none" stroke="black" d="M121.066,-118.734C131.074,-119.943 140,-117.031 140,-110 140,-105.496 136.337,-102.682 131.072,-101.559"/>
<polygon fill="black" stroke="black" points="131.165,-98.0605 121.066,-101.266 130.959,-105.057 131.165,-98.0605"/>
<text text-anchor="middle" x="143.5" y="-106.3" font-family="Times,serif" font-size="14.00">a</text>
</g>
<!-- 1 -->
<g id="node2" class="node"><title>1</title>
<ellipse fill="lightblue" stroke="black" cx="71" cy="-18" rx="18" ry="18"/>
<text text-anchor="middle" x="71" y="-14.3" font-family="Times,serif" font-size="14.00">1</text>
</g>
<!-- 0&#45;&gt;1 -->
<g id="edge2" class="edge"><title>0&#45;&gt;1</title>
<path fill="none" stroke="black" d="M86.9855,-93.0216C81.9647,-86.3569 76.8464,-78.2521 74,-70 71.4152,-62.5062 70.2695,-54.0287 69.8732,-46.1678"/>
<polygon fill="black" stroke="black" points="73.3704,-45.9314 69.7325,-35.9808 66.371,-46.0282 73.3704,-45.9314"/>
<text text-anchor="middle" x="77.5" y="-58.3" font-family="Times,serif" font-size="14.00">b</text>
</g>
<!-- 1&#45;&gt;0 -->
<g id="edge3" class="edge"><title>1&#45;&gt;0</title>
<path fill="none" stroke="black" d="M76.4371,-35.3114C80.5236,-47.5707 86.2341,-64.7023 91.1207,-79.3621"/>
<polygon fill="black" stroke="black" points="87.8593,-80.6461 94.342,-89.0261 94.5001,-78.4324 87.8593,-80.6461"/>
<text text-anchor="middle" x="90.5" y="-58.3" font-family="Times,serif" font-size="14.00">a</text>
</g>
<!-- 1&#45;&gt;1 -->
<g id="edge4" class="edge"><title>1&#45;&gt;1</title>
<path fill="none" stroke="black" d="M87.2903,-25.6679C97.3892,-27.5169 107,-24.9609 107,-18 107,-13.5406 103.056,-10.8891 97.5656,-10.0454"/>
<polygon fill="black" stroke="black" points="97.1887,-6.55441 87.2903,-10.3321 97.384,-13.5517 97.1887,-6.55441"/>
<text text-anchor="middle" x="110.5" y="-14.3" font-family="Times,serif" font-size="14.00">b</text>
</g>
<!-- 2 -->
<g id="node3" class="node"><title>2</title>
<ellipse fill="green" stroke="black" cx="18" cy="-110" rx="18" ry="18"/>
<text text-anchor="middle" x="18" y="-106.3" font-family="Times,serif" font-size="14.00">2</text>
</g>
<!-- 2&#45;&gt;1 -->
<g id="edge5" class="edge"><title>2&#45;&gt;1</title>
<path fill="none" stroke="black" d="M26.7519,-94.1383C34.9608,-80.1986 47.375,-59.118 56.9668,-42.8299"/>
<polygon fill="black" stroke="black" points="60.1766,-44.2767 62.2351,-33.8837 54.1448,-40.7246 60.1766,-44.2767"/>
<text text-anchor="middle" x="52.5" y="-58.3" font-family="Times,serif" font-size="14.00">a</text>
</g>
<!-- 2&#45;&gt;2 -->
<g id="edge6" class="edge"><title>2&#45;&gt;2</title>
<path fill="none" stroke="black" d="M34.2903,-118.365C44.3892,-120.382 54,-117.594 54,-110 54,-105.135 50.0557,-102.243 44.5656,-101.322"/>
<polygon fill="black" stroke="black" points="44.1791,-97.8323 34.2903,-101.635 44.3922,-104.829 44.1791,-97.8323"/>
<text text-anchor="middle" x="57.5" y="-106.3" font-family="Times,serif" font-size="14.00">b</text>
</g>
<!-- 3 -->
<g id="node4" class="node"><title>3</title>
<ellipse fill="lightblue" stroke="black" cx="101" cy="-202" rx="18" ry="18"/>
<text text-anchor="middle" x="101" y="-198.3" font-family="Times,serif" font-size="14.00">3</text>
</g>
<!-- 3&#45;&gt;0 -->
<g id="edge7" class="edge"><title>3&#45;&gt;0</title>
<path fill="none" stroke="black" d="M101,-183.647C101,-171.924 101,-156.114 101,-142.237"/>
<polygon fill="black" stroke="black" points="104.5,-142.101 101,-132.101 97.5001,-142.101 104.5,-142.101"/>
<text text-anchor="middle" x="109.5" y="-154.3" font-family="Times,serif" font-size="14.00">b,a</text>
</g>
</g>
</svg>
