<?xml version="1.0" encoding="UTF-8" standalone="no"?>
<!DOCTYPE svg PUBLIC "-//W3C//DTD SVG 1.1//EN"
 "http://www.w3.org/Graphics/SVG/1.1/DTD/svg11.dtd">
<!-- Generated by graphviz version 2.36.0 (20140111.2315)
 -->
<!-- Title: %3 Pages: 1 -->
<svg width="146pt" height="228pt"
 viewBox="0.00 0.00 146.00 228.00" xmlns="http://www.w3.org/2000/svg" xmlns:xlink="http://www.w3.org/1999/xlink">
<g id="graph0" class="graph" transform="scale(1 1) rotate(0) translate(4 224)">
<title>%3</title>
<polygon fill="white" stroke="none" points="-4,4 -4,-224 142,-224 142,4 -4,4"/>
<!-- 0 -->
<g id="node1" class="node"><title>0</title>
<ellipse fill="green" stroke="black" cx="45" cy="-202" rx="18" ry="18"/>
<text text-anchor="middle" x="45" y="-198.3" font-family="Times,serif" font-size="14.00">0</text>
</g>
<!-- 0&#45;&gt;0 -->
<g id="edge1" class="edge"><title>0&#45;&gt;0</title>
<path fill="none" stroke="black" d="M61.2903,-209.668C71.3892,-211.517 81,-208.961 81,-202 81,-197.541 77.0557,-194.889 71.5656,-194.045"/>
<polygon fill="black" stroke="black" points="71.1887,-190.554 61.2903,-194.332 71.384,-197.552 71.1887,-190.554"/>
<text text-anchor="middle" x="84.5" y="-198.3" font-family="Times,serif" font-size="14.00">b</text>
</g>
<!-- 2 -->
<g id="node3" class="node"><title>2</title>
<ellipse fill="lightblue" stroke="black" cx="45" cy="-114" rx="18" ry="18"/>
<text text-anchor="middle" x="45" y="-110.3" font-family="Times,serif" font-size="14.00">2</text>
</g>
<!-- 0&#45;&gt;2 -->
<g id="edge2" class="edge"><title>0&#45;&gt;2</title>
<path fill="none" stroke="black" d="M45,-183.597C45,-171.746 45,-155.817 45,-142.292"/>
<polygon fill="black" stroke="black" points="48.5001,-142.084 45,-132.084 41.5001,-142.084 48.5001,-142.084"/>
<text text-anchor="middle" x="48.5" y="-154.3" font-family="Times,serif" font-size="14.00">a</text>
</g>
<!-- 1 -->
<g id="node2" class="node"><title>1</title>
<ellipse fill="lightblue" stroke="black" cx="21" cy="-22" rx="17.5909" ry="18"/>
<ellipse fill="none" stroke="black" cx="21" cy="-22" rx="21.5" ry="22"/>
<text text-anchor="middle" x="21" y="-18.3" font-family="Times,serif" font-size="14.00">1</text>
</g>
<!-- 1&#45;&gt;2 -->
<g id="edge3" class="edge"><title>1&#45;&gt;2</title>
<path fill="none" stroke="black" d="M26.4694,-43.5104C29.879,-56.2961 34.2999,-72.8748 37.9685,-86.632"/>
<polygon fill="black" stroke="black" points="34.6395,-87.7321 40.598,-96.4926 41.4032,-85.9284 34.6395,-87.7321"/>
<text text-anchor="middle" x="43.5" y="-66.3" font-family="Times,serif" font-size="14.00">b,a</text>
</g>
<!-- 2&#45;&gt;1 -->
<g id="edge4" class="edge"><title>2&#45;&gt;1</title>
<path fill="none" stroke="black" d="M33.1191,-100.447C28.0243,-94.2085 22.6435,-86.2488 20,-78 17.5682,-70.4117 16.8278,-61.9273 16.9346,-53.937"/>
<polygon fill="black" stroke="black" points="20.4357,-54.0122 17.492,-43.8345 13.4463,-53.6265 20.4357,-54.0122"/>
<text text-anchor="middle" x="23.5" y="-66.3" font-family="Times,serif" font-size="14.00">b</text>
</g>
<!-- 3 -->
<g id="node4" class="node"><title>3</title>
<ellipse fill="lightblue" stroke="black" cx="85" cy="-22" rx="18" ry="18"/>
<text text-anchor="middle" x="85" y="-18.3" font-family="Times,serif" font-size="14.00">3</text>
</g>
<!-- 2&#45;&gt;3 -->
<g id="edge5" class="edge"><title>2&#45;&gt;3</title>
<path fill="none" stroke="black" d="M51.9675,-97.3232C58.0103,-83.7269 66.8645,-63.8049 73.8852,-48.0083"/>
<polygon fill="black" stroke="black" points="77.1151,-49.3588 77.9782,-38.7991 70.7184,-46.5157 77.1151,-49.3588"/>
<text text-anchor="middle" x="70.5" y="-66.3" font-family="Times,serif" font-size="14.00">a</text>
</g>
<!-- 3&#45;&gt;3 -->
<g id="edge6" class="edge"><title>3&#45;&gt;3</title>
<path fill="none" stroke="black" d="M101.29,-30.365C111.389,-32.3821 121,-29.5938 121,-22 121,-17.1353 117.056,-14.2427 111.566,-13.3222"/>
<polygon fill="black" stroke="black" points="111.179,-9.83225 101.29,-13.635 111.392,-16.829 111.179,-9.83225"/>
<text text-anchor="middle" x="129.5" y="-18.3" font-family="Times,serif" font-size="14.00">b,a</text>
</g>
</g>
</svg>
