<?xml version="1.0" encoding="UTF-8" standalone="no"?>
<!DOCTYPE svg PUBLIC "-//W3C//DTD SVG 1.1//EN"
 "http://www.w3.org/Graphics/SVG/1.1/DTD/svg11.dtd">
<!-- Generated by graphviz version 2.36.0 (20140111.2315)
 -->
<!-- Title: %3 Pages: 1 -->
<svg width="242pt" height="316pt"
 viewBox="0.00 0.00 242.00 316.00" xmlns="http://www.w3.org/2000/svg" xmlns:xlink="http://www.w3.org/1999/xlink">
<g id="graph0" class="graph" transform="scale(1 1) rotate(0) translate(4 312)">
<title>%3</title>
<polygon fill="white" stroke="none" points="-4,4 -4,-312 238,-312 238,4 -4,4"/>
<!-- 0 -->
<g id="node1" class="node"><title>0</title>
<ellipse fill="lightblue" stroke="black" cx="96" cy="-290" rx="18" ry="18"/>
<text text-anchor="middle" x="96" y="-286.3" font-family="Times,serif" font-size="14.00">0</text>
</g>
<!-- 1 -->
<g id="node2" class="node"><title>1</title>
<ellipse fill="lightblue" stroke="black" cx="55" cy="-202" rx="18" ry="18"/>
<text text-anchor="middle" x="55" y="-198.3" font-family="Times,serif" font-size="14.00">1</text>
</g>
<!-- 0&#45;&gt;1 -->
<g id="edge1" class="edge"><title>0&#45;&gt;1</title>
<path fill="none" stroke="black" d="M81.0746,-279.567C72.7151,-273.397 62.994,-264.536 58,-254 54.6048,-246.837 53.2146,-238.459 52.8433,-230.588"/>
<polygon fill="black" stroke="black" points="56.344,-230.341 52.8758,-220.33 49.344,-230.319 56.344,-230.341"/>
<text text-anchor="middle" x="61.5" y="-242.3" font-family="Times,serif" font-size="14.00">b</text>
</g>
<!-- 3 -->
<g id="node4" class="node"><title>3</title>
<ellipse fill="lightblue" stroke="black" cx="107" cy="-22" rx="17.5909" ry="18"/>
<ellipse fill="none" stroke="black" cx="107" cy="-22" rx="21.5" ry="22"/>
<text text-anchor="middle" x="107" y="-18.3" font-family="Times,serif" font-size="14.00">3</text>
</g>
<!-- 0&#45;&gt;3 -->
<g id="edge2" class="edge"><title>0&#45;&gt;3</title>
<path fill="none" stroke="black" d="M96.7048,-271.956C98.5179,-228.112 103.365,-110.911 105.703,-54.3687"/>
<polygon fill="black" stroke="black" points="109.206,-54.3644 106.122,-44.2283 102.212,-54.0751 109.206,-54.3644"/>
<text text-anchor="middle" x="104.5" y="-154.3" font-family="Times,serif" font-size="14.00">a</text>
</g>
<!-- 1&#45;&gt;0 -->
<g id="edge3" class="edge"><title>1&#45;&gt;0</title>
<path fill="none" stroke="black" d="M62.4724,-218.674C68.5273,-231.374 77.1712,-249.505 84.1656,-264.177"/>
<polygon fill="black" stroke="black" points="81.0172,-265.706 88.48,-273.226 87.3358,-262.693 81.0172,-265.706"/>
<text text-anchor="middle" x="82.5" y="-242.3" font-family="Times,serif" font-size="14.00">b</text>
</g>
<!-- 4 -->
<g id="node5" class="node"><title>4</title>
<ellipse fill="lightblue" stroke="black" cx="18" cy="-114" rx="18" ry="18"/>
<text text-anchor="middle" x="18" y="-110.3" font-family="Times,serif" font-size="14.00">4</text>
</g>
<!-- 1&#45;&gt;4 -->
<g id="edge4" class="edge"><title>1&#45;&gt;4</title>
<path fill="none" stroke="black" d="M41.0732,-190.232C34.0691,-183.975 26.1955,-175.468 22,-166 18.7841,-158.743 17.3261,-150.337 16.7906,-142.469"/>
<polygon fill="black" stroke="black" points="20.2842,-142.147 16.5537,-132.231 13.2861,-142.309 20.2842,-142.147"/>
<text text-anchor="middle" x="25.5" y="-154.3" font-family="Times,serif" font-size="14.00">a</text>
</g>
<!-- 2 -->
<g id="node3" class="node"><title>2</title>
<ellipse fill="green" stroke="black" cx="191" cy="-114" rx="18" ry="18"/>
<text text-anchor="middle" x="191" y="-110.3" font-family="Times,serif" font-size="14.00">2</text>
</g>
<!-- 2&#45;&gt;2 -->
<g id="edge5" class="edge"><title>2&#45;&gt;2</title>
<path fill="none" stroke="black" d="M207.29,-121.668C217.389,-123.517 227,-120.961 227,-114 227,-109.541 223.056,-106.889 217.566,-106.045"/>
<polygon fill="black" stroke="black" points="217.189,-102.554 207.29,-106.332 217.384,-109.552 217.189,-102.554"/>
<text text-anchor="middle" x="230.5" y="-110.3" font-family="Times,serif" font-size="14.00">b</text>
</g>
<!-- 2&#45;&gt;3 -->
<g id="edge6" class="edge"><title>2&#45;&gt;3</title>
<path fill="none" stroke="black" d="M183.097,-97.2481C177.303,-86.6057 168.767,-72.615 159,-62 151.55,-53.9034 142.232,-46.317 133.55,-40.0267"/>
<polygon fill="black" stroke="black" points="135.379,-37.0359 125.172,-34.1974 131.381,-42.7819 135.379,-37.0359"/>
<text text-anchor="middle" x="174.5" y="-66.3" font-family="Times,serif" font-size="14.00">a</text>
</g>
<!-- 3&#45;&gt;0 -->
<g id="edge7" class="edge"><title>3&#45;&gt;0</title>
<path fill="none" stroke="black" d="M114.398,-42.9755C116.287,-49.0032 118.052,-55.6952 119,-62 120.057,-69.0321 119.132,-70.8901 119,-78 117.551,-156.29 128.99,-177.792 111,-254 110.186,-257.45 109.054,-260.991 107.774,-264.432"/>
<polygon fill="black" stroke="black" points="104.523,-263.135 103.914,-273.713 110.986,-265.824 104.523,-263.135"/>
<text text-anchor="middle" x="124.5" y="-154.3" font-family="Times,serif" font-size="14.00">b</text>
</g>
<!-- 3&#45;&gt;1 -->
<g id="edge8" class="edge"><title>3&#45;&gt;1</title>
<path fill="none" stroke="black" d="M99.5775,-42.739C97.3606,-48.8766 94.9922,-55.6886 93,-62 80.7802,-100.713 68.784,-146.196 61.6376,-174.313"/>
<polygon fill="black" stroke="black" points="58.1988,-173.636 59.1458,-184.188 64.9861,-175.348 58.1988,-173.636"/>
<text text-anchor="middle" x="85.5" y="-110.3" font-family="Times,serif" font-size="14.00">a</text>
</g>
<!-- 4&#45;&gt;1 -->
<g id="edge9" class="edge"><title>4&#45;&gt;1</title>
<path fill="none" stroke="black" d="M24.8686,-130.965C30.2818,-143.547 37.9303,-161.324 44.1666,-175.82"/>
<polygon fill="black" stroke="black" points="41.0464,-177.424 48.2136,-185.226 47.4766,-174.657 41.0464,-177.424"/>
<text text-anchor="middle" x="43.5" y="-154.3" font-family="Times,serif" font-size="14.00">a</text>
</g>
<!-- 4&#45;&gt;3 -->
<g id="edge10" class="edge"><title>4&#45;&gt;3</title>
<path fill="none" stroke="black" d="M25.8661,-97.6146C31.8316,-86.8736 40.739,-72.6161 51,-62 59.4474,-53.2602 70.118,-45.2619 79.8732,-38.8143"/>
<polygon fill="black" stroke="black" points="81.9147,-41.6642 88.4847,-33.3523 78.1654,-35.7529 81.9147,-41.6642"/>
<text text-anchor="middle" x="54.5" y="-66.3" font-family="Times,serif" font-size="14.00">b</text>
</g>
</g>
</svg>
