<?xml version="1.0" encoding="UTF-8" standalone="no"?>
<!DOCTYPE svg PUBLIC "-//W3C//DTD SVG 1.1//EN"
 "http://www.w3.org/Graphics/SVG/1.1/DTD/svg11.dtd">
<!-- Generated by graphviz version 2.36.0 (20140111.2315)
 -->
<!-- Title: %3 Pages: 1 -->
<svg width="126pt" height="404pt"
 viewBox="0.00 0.00 126.13 404.00" xmlns="http://www.w3.org/2000/svg" xmlns:xlink="http://www.w3.org/1999/xlink">
<g id="graph0" class="graph" transform="scale(1 1) rotate(0) translate(4 400)">
<title>%3</title>
<polygon fill="white" stroke="none" points="-4,4 -4,-400 122.129,-400 122.129,4 -4,4"/>
<!-- 0 -->
<g id="node1" class="node"><title>0</title>
<ellipse fill="lightblue" stroke="black" cx="75.1289" cy="-290" rx="18" ry="18"/>
<text text-anchor="middle" x="75.1289" y="-286.3" font-family="Times,serif" font-size="14.00">0</text>
</g>
<!-- 0&#45;&gt;0 -->
<g id="edge1" class="edge"><title>0&#45;&gt;0</title>
<path fill="none" stroke="black" d="M91.4192,-297.668C101.518,-299.517 111.129,-296.961 111.129,-290 111.129,-285.541 107.185,-282.889 101.695,-282.045"/>
<polygon fill="black" stroke="black" points="101.318,-278.554 91.4192,-282.332 101.513,-285.552 101.318,-278.554"/>
<text text-anchor="middle" x="114.629" y="-286.3" font-family="Times,serif" font-size="14.00">b</text>
</g>
<!-- 3 -->
<g id="node4" class="node"><title>3</title>
<ellipse fill="lightblue" stroke="black" cx="22.1289" cy="-202" rx="18" ry="18"/>
<text text-anchor="middle" x="22.1289" y="-198.3" font-family="Times,serif" font-size="14.00">3</text>
</g>
<!-- 0&#45;&gt;3 -->
<g id="edge2" class="edge"><title>0&#45;&gt;3</title>
<path fill="none" stroke="black" d="M65.897,-274.02C57.8412,-260.948 46.0144,-241.758 36.6851,-226.619"/>
<polygon fill="black" stroke="black" points="39.4812,-224.485 31.255,-217.808 33.5219,-228.158 39.4812,-224.485"/>
<text text-anchor="middle" x="57.6289" y="-242.3" font-family="Times,serif" font-size="14.00">a</text>
</g>
<!-- 1 -->
<g id="node2" class="node"><title>1</title>
<ellipse fill="green" stroke="black" cx="75.1289" cy="-378" rx="18" ry="18"/>
<text text-anchor="middle" x="75.1289" y="-374.3" font-family="Times,serif" font-size="14.00">1</text>
</g>
<!-- 1&#45;&gt;0 -->
<g id="edge3" class="edge"><title>1&#45;&gt;0</title>
<path fill="none" stroke="black" d="M75.1289,-359.597C75.1289,-347.746 75.1289,-331.817 75.1289,-318.292"/>
<polygon fill="black" stroke="black" points="78.629,-318.084 75.1289,-308.084 71.629,-318.084 78.629,-318.084"/>
<text text-anchor="middle" x="83.6289" y="-330.3" font-family="Times,serif" font-size="14.00">b,a</text>
</g>
<!-- 2 -->
<g id="node3" class="node"><title>2</title>
<ellipse fill="lightblue" stroke="black" cx="41.1289" cy="-18" rx="18" ry="18"/>
<text text-anchor="middle" x="41.1289" y="-14.3" font-family="Times,serif" font-size="14.00">2</text>
</g>
<!-- 2&#45;&gt;0 -->
<g id="edge4" class="edge"><title>2&#45;&gt;0</title>
<path fill="none" stroke="black" d="M49.6657,-34.0507C56.8928,-47.6616 66.7542,-68.4992 71.1289,-88 84.8166,-149.014 81.3053,-223.071 77.9639,-262.033"/>
<polygon fill="black" stroke="black" points="74.4732,-261.773 77.0405,-272.052 81.4437,-262.415 74.4732,-261.773"/>
<text text-anchor="middle" x="83.6289" y="-154.3" font-family="Times,serif" font-size="14.00">b</text>
</g>
<!-- 2&#45;&gt;3 -->
<g id="edge5" class="edge"><title>2&#45;&gt;3</title>
<path fill="none" stroke="black" d="M30.6961,-32.902C21.3907,-46.2356 8.44217,-67.3382 3.12892,-88 -4.51006,-117.706 3.94464,-152.619 11.8782,-175.691"/>
<polygon fill="black" stroke="black" points="8.59598,-176.907 15.3122,-185.101 15.1718,-174.507 8.59598,-176.907"/>
<text text-anchor="middle" x="6.62892" y="-106.3" font-family="Times,serif" font-size="14.00">a</text>
</g>
<!-- 3&#45;&gt;3 -->
<g id="edge6" class="edge"><title>3&#45;&gt;3</title>
<path fill="none" stroke="black" d="M38.4192,-209.668C48.5181,-211.517 58.1289,-208.961 58.1289,-202 58.1289,-197.541 54.1846,-194.889 48.6945,-194.045"/>
<polygon fill="black" stroke="black" points="48.3176,-190.554 38.4192,-194.332 48.513,-197.552 48.3176,-190.554"/>
<text text-anchor="middle" x="61.6289" y="-198.3" font-family="Times,serif" font-size="14.00">b</text>
</g>
<!-- 4 -->
<g id="node5" class="node"><title>4</title>
<ellipse fill="lightblue" stroke="black" cx="41.1289" cy="-110" rx="17.5909" ry="18"/>
<ellipse fill="none" stroke="black" cx="41.1289" cy="-110" rx="21.5" ry="22"/>
<text text-anchor="middle" x="41.1289" y="-106.3" font-family="Times,serif" font-size="14.00">4</text>
</g>
<!-- 3&#45;&gt;4 -->
<g id="edge7" class="edge"><title>3&#45;&gt;4</title>
<path fill="none" stroke="black" d="M22.7552,-183.833C23.3806,-173.86 24.6306,-161.11 27.1289,-150 27.8549,-146.771 28.772,-143.444 29.7881,-140.157"/>
<polygon fill="black" stroke="black" points="33.1458,-141.154 33.0413,-130.56 26.5163,-138.907 33.1458,-141.154"/>
<text text-anchor="middle" x="30.6289" y="-154.3" font-family="Times,serif" font-size="14.00">a</text>
</g>
<!-- 4&#45;&gt;2 -->
<g id="edge8" class="edge"><title>4&#45;&gt;2</title>
<path fill="none" stroke="black" d="M41.1289,-87.6713C41.1289,-75.2844 41.1289,-59.5523 41.1289,-46.2721"/>
<polygon fill="black" stroke="black" points="44.629,-46.258 41.1289,-36.2581 37.629,-46.2581 44.629,-46.258"/>
<text text-anchor="middle" x="44.6289" y="-58.3" font-family="Times,serif" font-size="14.00">a</text>
</g>
<!-- 4&#45;&gt;3 -->
<g id="edge9" class="edge"><title>4&#45;&gt;3</title>
<path fill="none" stroke="black" d="M38.2771,-132.003C36.7303,-142.303 34.6233,-154.859 32.1289,-166 31.4817,-168.891 30.7363,-171.896 29.9503,-174.878"/>
<polygon fill="black" stroke="black" points="26.5206,-174.147 27.2053,-184.719 33.2633,-176.027 26.5206,-174.147"/>
<text text-anchor="middle" x="39.6289" y="-154.3" font-family="Times,serif" font-size="14.00">b</text>
</g>
</g>
</svg>
