<?xml version="1.0" encoding="UTF-8" standalone="no"?>
<!DOCTYPE svg PUBLIC "-//W3C//DTD SVG 1.1//EN"
 "http://www.w3.org/Graphics/SVG/1.1/DTD/svg11.dtd">
<!-- Generated by graphviz version 2.36.0 (20140111.2315)
 -->
<!-- Title: %3 Pages: 1 -->
<svg width="178pt" height="316pt"
 viewBox="0.00 0.00 178.00 316.00" xmlns="http://www.w3.org/2000/svg" xmlns:xlink="http://www.w3.org/1999/xlink">
<g id="graph0" class="graph" transform="scale(1 1) rotate(0) translate(4 312)">
<title>%3</title>
<polygon fill="white" stroke="none" points="-4,4 -4,-312 174,-312 174,4 -4,4"/>
<!-- 0 -->
<g id="node1" class="node"><title>0</title>
<ellipse fill="lightblue" stroke="black" cx="97" cy="-194" rx="18" ry="18"/>
<text text-anchor="middle" x="97" y="-190.3" font-family="Times,serif" font-size="14.00">0</text>
</g>
<!-- 2 -->
<g id="node3" class="node"><title>2</title>
<ellipse fill="lightblue" stroke="black" cx="18" cy="-106" rx="18" ry="18"/>
<text text-anchor="middle" x="18" y="-102.3" font-family="Times,serif" font-size="14.00">2</text>
</g>
<!-- 0&#45;&gt;2 -->
<g id="edge1" class="edge"><title>0&#45;&gt;2</title>
<path fill="none" stroke="black" d="M85.0016,-179.938C72.167,-165.967 51.6422,-143.623 36.688,-127.344"/>
<polygon fill="black" stroke="black" points="39.1951,-124.899 29.8525,-119.903 34.0399,-129.635 39.1951,-124.899"/>
<text text-anchor="middle" x="68.5" y="-146.3" font-family="Times,serif" font-size="14.00">b</text>
</g>
<!-- 4 -->
<g id="node5" class="node"><title>4</title>
<ellipse fill="green" stroke="black" cx="97" cy="-106" rx="18" ry="18"/>
<text text-anchor="middle" x="97" y="-102.3" font-family="Times,serif" font-size="14.00">4</text>
</g>
<!-- 0&#45;&gt;4 -->
<g id="edge2" class="edge"><title>0&#45;&gt;4</title>
<path fill="none" stroke="black" d="M97,-175.597C97,-163.746 97,-147.817 97,-134.292"/>
<polygon fill="black" stroke="black" points="100.5,-134.084 97,-124.084 93.5001,-134.084 100.5,-134.084"/>
<text text-anchor="middle" x="100.5" y="-146.3" font-family="Times,serif" font-size="14.00">a</text>
</g>
<!-- 1 -->
<g id="node2" class="node"><title>1</title>
<ellipse fill="lightblue" stroke="black" cx="72" cy="-18" rx="18" ry="18"/>
<text text-anchor="middle" x="72" y="-14.3" font-family="Times,serif" font-size="14.00">1</text>
</g>
<!-- 1&#45;&gt;1 -->
<g id="edge3" class="edge"><title>1&#45;&gt;1</title>
<path fill="none" stroke="black" d="M88.2903,-25.6679C98.3892,-27.5169 108,-24.9609 108,-18 108,-13.5406 104.056,-10.8891 98.5656,-10.0454"/>
<polygon fill="black" stroke="black" points="98.1887,-6.55441 88.2903,-10.3321 98.384,-13.5517 98.1887,-6.55441"/>
<text text-anchor="middle" x="111.5" y="-14.3" font-family="Times,serif" font-size="14.00">b</text>
</g>
<!-- 1&#45;&gt;2 -->
<g id="edge4" class="edge"><title>1&#45;&gt;2</title>
<path fill="none" stroke="black" d="M62.7947,-33.6603C54.557,-46.7797 42.3351,-66.2441 32.7378,-81.5287"/>
<polygon fill="black" stroke="black" points="29.514,-80.0812 27.1604,-90.4113 35.4422,-83.8036 29.514,-80.0812"/>
<text text-anchor="middle" x="53.5" y="-58.3" font-family="Times,serif" font-size="14.00">a</text>
</g>
<!-- 2&#45;&gt;1 -->
<g id="edge5" class="edge"><title>2&#45;&gt;1</title>
<path fill="none" stroke="black" d="M19.2759,-87.8838C20.6945,-77.4536 23.6877,-64.2135 30,-54 34.6314,-46.5063 41.4251,-39.8458 48.2045,-34.3993"/>
<polygon fill="black" stroke="black" points="50.6592,-36.9372 56.6203,-28.1784 46.4982,-31.3082 50.6592,-36.9372"/>
<text text-anchor="middle" x="33.5" y="-58.3" font-family="Times,serif" font-size="14.00">a</text>
</g>
<!-- 2&#45;&gt;2 -->
<g id="edge6" class="edge"><title>2&#45;&gt;2</title>
<path fill="none" stroke="black" d="M34.2903,-113.668C44.3892,-115.517 54,-112.961 54,-106 54,-101.541 50.0557,-98.8891 44.5656,-98.0454"/>
<polygon fill="black" stroke="black" points="44.1887,-94.5544 34.2903,-98.3321 44.384,-101.552 44.1887,-94.5544"/>
<text text-anchor="middle" x="57.5" y="-102.3" font-family="Times,serif" font-size="14.00">b</text>
</g>
<!-- 3 -->
<g id="node4" class="node"><title>3</title>
<ellipse fill="lightblue" stroke="black" cx="145" cy="-286" rx="17.5909" ry="18"/>
<ellipse fill="none" stroke="black" cx="145" cy="-286" rx="21.5" ry="22"/>
<text text-anchor="middle" x="145" y="-282.3" font-family="Times,serif" font-size="14.00">3</text>
</g>
<!-- 3&#45;&gt;0 -->
<g id="edge7" class="edge"><title>3&#45;&gt;0</title>
<path fill="none" stroke="black" d="M135.054,-266.352C127.801,-252.752 117.903,-234.194 110.02,-219.413"/>
<polygon fill="black" stroke="black" points="112.973,-217.512 105.179,-210.336 106.797,-220.806 112.973,-217.512"/>
<text text-anchor="middle" x="126.5" y="-234.3" font-family="Times,serif" font-size="14.00">a</text>
</g>
<!-- 3&#45;&gt;1 -->
<g id="edge8" class="edge"><title>3&#45;&gt;1</title>
<path fill="none" stroke="black" d="M150.871,-264.596C160.385,-227.536 175.577,-147.502 149,-88 138.291,-64.0246 114.678,-44.9191 96.4056,-32.9466"/>
<polygon fill="black" stroke="black" points="98.0245,-29.8311 87.6893,-27.5 94.315,-35.7674 98.0245,-29.8311"/>
<text text-anchor="middle" x="166.5" y="-146.3" font-family="Times,serif" font-size="14.00">b</text>
</g>
<!-- 4&#45;&gt;1 -->
<g id="edge9" class="edge"><title>4&#45;&gt;1</title>
<path fill="none" stroke="black" d="M92.1797,-88.4183C88.6175,-76.164 83.6965,-59.2361 79.606,-45.1645"/>
<polygon fill="black" stroke="black" points="82.9578,-44.1562 76.8055,-35.5308 76.2361,-46.1103 82.9578,-44.1562"/>
<text text-anchor="middle" x="89.5" y="-58.3" font-family="Times,serif" font-size="14.00">a</text>
</g>
<!-- 4&#45;&gt;4 -->
<g id="edge10" class="edge"><title>4&#45;&gt;4</title>
<path fill="none" stroke="black" d="M113.29,-113.668C123.389,-115.517 133,-112.961 133,-106 133,-101.541 129.056,-98.8891 123.566,-98.0454"/>
<polygon fill="black" stroke="black" points="123.189,-94.5544 113.29,-98.3321 123.384,-101.552 123.189,-94.5544"/>
<text text-anchor="middle" x="136.5" y="-102.3" font-family="Times,serif" font-size="14.00">b</text>
</g>
</g>
</svg>
