<?xml version="1.0" encoding="UTF-8" standalone="no"?>
<!DOCTYPE svg PUBLIC "-//W3C//DTD SVG 1.1//EN"
 "http://www.w3.org/Graphics/SVG/1.1/DTD/svg11.dtd">
<!-- Generated by graphviz version 2.36.0 (20140111.2315)
 -->
<!-- Title: %3 Pages: 1 -->
<svg width="207pt" height="316pt"
 viewBox="0.00 0.00 207.00 316.00" xmlns="http://www.w3.org/2000/svg" xmlns:xlink="http://www.w3.org/1999/xlink">
<g id="graph0" class="graph" transform="scale(1 1) rotate(0) translate(4 312)">
<title>%3</title>
<polygon fill="white" stroke="none" points="-4,4 -4,-312 203,-312 203,4 -4,4"/>
<!-- 0 -->
<g id="node1" class="node"><title>0</title>
<ellipse fill="green" stroke="black" cx="67" cy="-290" rx="18" ry="18"/>
<text text-anchor="middle" x="67" y="-286.3" font-family="Times,serif" font-size="14.00">0</text>
</g>
<!-- 0&#45;&gt;0 -->
<g id="edge1" class="edge"><title>0&#45;&gt;0</title>
<path fill="none" stroke="black" d="M83.2903,-297.668C93.3892,-299.517 103,-296.961 103,-290 103,-285.541 99.0557,-282.889 93.5656,-282.045"/>
<polygon fill="black" stroke="black" points="93.1887,-278.554 83.2903,-282.332 93.384,-285.552 93.1887,-278.554"/>
<text text-anchor="middle" x="106.5" y="-286.3" font-family="Times,serif" font-size="14.00">a</text>
</g>
<!-- 1 -->
<g id="node2" class="node"><title>1</title>
<ellipse fill="lightblue" stroke="black" cx="21" cy="-198" rx="17.5909" ry="18"/>
<ellipse fill="none" stroke="black" cx="21" cy="-198" rx="21.5" ry="22"/>
<text text-anchor="middle" x="21" y="-194.3" font-family="Times,serif" font-size="14.00">1</text>
</g>
<!-- 0&#45;&gt;1 -->
<g id="edge2" class="edge"><title>0&#45;&gt;1</title>
<path fill="none" stroke="black" d="M51.8985,-279.923C43.0869,-273.77 32.628,-264.802 27,-254 23.266,-246.833 21.3383,-238.437 20.4329,-230.393"/>
<polygon fill="black" stroke="black" points="23.9087,-229.906 19.7656,-220.154 16.9235,-230.361 23.9087,-229.906"/>
<text text-anchor="middle" x="30.5" y="-242.3" font-family="Times,serif" font-size="14.00">b</text>
</g>
<!-- 1&#45;&gt;0 -->
<g id="edge3" class="edge"><title>1&#45;&gt;0</title>
<path fill="none" stroke="black" d="M30.5994,-217.781C37.5585,-231.397 47.0313,-249.931 54.5688,-264.678"/>
<polygon fill="black" stroke="black" points="51.529,-266.421 59.1967,-273.733 57.7621,-263.235 51.529,-266.421"/>
<text text-anchor="middle" x="51.5" y="-242.3" font-family="Times,serif" font-size="14.00">a</text>
</g>
<!-- 3 -->
<g id="node4" class="node"><title>3</title>
<ellipse fill="lightblue" stroke="black" cx="65" cy="-106" rx="18" ry="18"/>
<text text-anchor="middle" x="65" y="-102.3" font-family="Times,serif" font-size="14.00">3</text>
</g>
<!-- 1&#45;&gt;3 -->
<g id="edge4" class="edge"><title>1&#45;&gt;3</title>
<path fill="none" stroke="black" d="M30.3313,-177.913C36.9531,-164.369 45.8979,-146.072 53.0431,-131.457"/>
<polygon fill="black" stroke="black" points="56.1883,-132.993 57.4361,-122.472 49.8996,-129.918 56.1883,-132.993"/>
<text text-anchor="middle" x="49.5" y="-146.3" font-family="Times,serif" font-size="14.00">b</text>
</g>
<!-- 2 -->
<g id="node3" class="node"><title>2</title>
<ellipse fill="lightblue" stroke="black" cx="146" cy="-290" rx="18" ry="18"/>
<text text-anchor="middle" x="146" y="-286.3" font-family="Times,serif" font-size="14.00">2</text>
</g>
<!-- 2&#45;&gt;2 -->
<g id="edge5" class="edge"><title>2&#45;&gt;2</title>
<path fill="none" stroke="black" d="M162.29,-297.668C172.389,-299.517 182,-296.961 182,-290 182,-285.541 178.056,-282.889 172.566,-282.045"/>
<polygon fill="black" stroke="black" points="172.189,-278.554 162.29,-282.332 172.384,-285.552 172.189,-278.554"/>
<text text-anchor="middle" x="190.5" y="-286.3" font-family="Times,serif" font-size="14.00">b,a</text>
</g>
<!-- 3&#45;&gt;0 -->
<g id="edge6" class="edge"><title>3&#45;&gt;0</title>
<path fill="none" stroke="black" d="M65.1891,-124.209C65.5368,-155.847 66.2801,-223.486 66.6982,-261.537"/>
<polygon fill="black" stroke="black" points="63.2021,-261.917 66.8118,-271.878 70.2017,-261.84 63.2021,-261.917"/>
<text text-anchor="middle" x="69.5" y="-194.3" font-family="Times,serif" font-size="14.00">a</text>
</g>
<!-- 4 -->
<g id="node5" class="node"><title>4</title>
<ellipse fill="lightblue" stroke="black" cx="92" cy="-18" rx="18" ry="18"/>
<text text-anchor="middle" x="92" y="-14.3" font-family="Times,serif" font-size="14.00">4</text>
</g>
<!-- 3&#45;&gt;4 -->
<g id="edge7" class="edge"><title>3&#45;&gt;4</title>
<path fill="none" stroke="black" d="M62.3009,-88.0153C61.3441,-77.8761 61.2861,-64.8948 65,-54 66.7805,-48.7768 69.691,-43.7265 72.9562,-39.164"/>
<polygon fill="black" stroke="black" points="75.924,-41.0588 79.4684,-31.0744 70.4713,-36.6693 75.924,-41.0588"/>
<text text-anchor="middle" x="68.5" y="-58.3" font-family="Times,serif" font-size="14.00">b</text>
</g>
<!-- 4&#45;&gt;0 -->
<g id="edge8" class="edge"><title>4&#45;&gt;0</title>
<path fill="none" stroke="black" d="M93.1162,-36.0854C95.2443,-75.2206 98.1816,-174.136 80,-254 79.2662,-257.223 78.3088,-260.551 77.2461,-263.815"/>
<polygon fill="black" stroke="black" points="73.9471,-262.646 73.8599,-273.24 80.5349,-265.012 73.9471,-262.646"/>
<text text-anchor="middle" x="96.5" y="-146.3" font-family="Times,serif" font-size="14.00">b</text>
</g>
<!-- 4&#45;&gt;3 -->
<g id="edge9" class="edge"><title>4&#45;&gt;3</title>
<path fill="none" stroke="black" d="M86.8101,-35.5308C82.9669,-47.7721 77.6531,-64.6975 73.2328,-78.777"/>
<polygon fill="black" stroke="black" points="69.862,-77.8291 70.2059,-88.4183 76.5406,-79.9259 69.862,-77.8291"/>
<text text-anchor="middle" x="83.5" y="-58.3" font-family="Times,serif" font-size="14.00">a</text>
</g>
</g>
</svg>
