<?xml version="1.0" encoding="UTF-8" standalone="no"?>
<!DOCTYPE svg PUBLIC "-//W3C//DTD SVG 1.1//EN"
 "http://www.w3.org/Graphics/SVG/1.1/DTD/svg11.dtd">
<!-- Generated by graphviz version 2.36.0 (20140111.2315)
 -->
<!-- Title: %3 Pages: 1 -->
<svg width="132pt" height="316pt"
 viewBox="0.00 0.00 132.00 316.00" xmlns="http://www.w3.org/2000/svg" xmlns:xlink="http://www.w3.org/1999/xlink">
<g id="graph0" class="graph" transform="scale(1 1) rotate(0) translate(4 312)">
<title>%3</title>
<polygon fill="white" stroke="none" points="-4,4 -4,-312 128,-312 128,4 -4,4"/>
<!-- 0 -->
<g id="node1" class="node"><title>0</title>
<ellipse fill="lightblue" stroke="black" cx="18" cy="-202" rx="18" ry="18"/>
<text text-anchor="middle" x="18" y="-198.3" font-family="Times,serif" font-size="14.00">0</text>
</g>
<!-- 3 -->
<g id="node4" class="node"><title>3</title>
<ellipse fill="lightblue" stroke="black" cx="50" cy="-110" rx="17.5909" ry="18"/>
<ellipse fill="none" stroke="black" cx="50" cy="-110" rx="21.5" ry="22"/>
<text text-anchor="middle" x="50" y="-106.3" font-family="Times,serif" font-size="14.00">3</text>
</g>
<!-- 0&#45;&gt;3 -->
<g id="edge1" class="edge"><title>0&#45;&gt;3</title>
<path fill="none" stroke="black" d="M23.721,-184.91C28.0737,-172.668 34.1865,-155.475 39.4213,-140.753"/>
<polygon fill="black" stroke="black" points="42.8203,-141.64 42.8727,-131.046 36.2248,-139.295 42.8203,-141.64"/>
<text text-anchor="middle" x="43.5" y="-154.3" font-family="Times,serif" font-size="14.00">b,a</text>
</g>
<!-- 1 -->
<g id="node2" class="node"><title>1</title>
<ellipse fill="lightblue" stroke="black" cx="53" cy="-290" rx="18" ry="18"/>
<text text-anchor="middle" x="53" y="-286.3" font-family="Times,serif" font-size="14.00">1</text>
</g>
<!-- 1&#45;&gt;0 -->
<g id="edge2" class="edge"><title>1&#45;&gt;0</title>
<path fill="none" stroke="black" d="M46.4168,-272.824C41.3004,-260.252 34.1113,-242.588 28.2443,-228.172"/>
<polygon fill="black" stroke="black" points="31.4469,-226.756 24.4355,-218.813 24.9633,-229.395 31.4469,-226.756"/>
<text text-anchor="middle" x="41.5" y="-242.3" font-family="Times,serif" font-size="14.00">b</text>
</g>
<!-- 1&#45;&gt;3 -->
<g id="edge3" class="edge"><title>1&#45;&gt;3</title>
<path fill="none" stroke="black" d="M54.4468,-271.851C56.4203,-245.578 59.3497,-193.802 56,-150 55.8035,-147.43 55.5351,-144.773 55.2202,-142.11"/>
<polygon fill="black" stroke="black" points="58.6574,-141.413 53.8293,-131.982 51.7225,-142.365 58.6574,-141.413"/>
<text text-anchor="middle" x="60.5" y="-198.3" font-family="Times,serif" font-size="14.00">a</text>
</g>
<!-- 2 -->
<g id="node3" class="node"><title>2</title>
<ellipse fill="lightblue" stroke="black" cx="19" cy="-18" rx="18" ry="18"/>
<text text-anchor="middle" x="19" y="-14.3" font-family="Times,serif" font-size="14.00">2</text>
</g>
<!-- 2&#45;&gt;3 -->
<g id="edge4" class="edge"><title>2&#45;&gt;3</title>
<path fill="none" stroke="black" d="M21.9756,-35.8071C23.9994,-45.8834 27.0319,-58.8609 31,-70 32.289,-73.6184 33.8185,-77.3429 35.4414,-80.9877"/>
<polygon fill="black" stroke="black" points="32.4161,-82.7775 39.8551,-90.3216 38.7443,-79.7851 32.4161,-82.7775"/>
<text text-anchor="middle" x="39.5" y="-58.3" font-family="Times,serif" font-size="14.00">b,a</text>
</g>
<!-- 3&#45;&gt;2 -->
<g id="edge5" class="edge"><title>3&#45;&gt;2</title>
<path fill="none" stroke="black" d="M33.4322,-95.6083C26.3139,-88.7869 18.7739,-79.8554 15,-70 12.085,-62.3876 11.7744,-53.6782 12.5753,-45.6369"/>
<polygon fill="black" stroke="black" points="16.0579,-46.0195 14.1429,-35.5991 9.14173,-44.9393 16.0579,-46.0195"/>
<text text-anchor="middle" x="18.5" y="-58.3" font-family="Times,serif" font-size="14.00">b</text>
</g>
<!-- 4 -->
<g id="node5" class="node"><title>4</title>
<ellipse fill="green" stroke="black" cx="81" cy="-18" rx="18" ry="18"/>
<text text-anchor="middle" x="81" y="-14.3" font-family="Times,serif" font-size="14.00">4</text>
</g>
<!-- 3&#45;&gt;4 -->
<g id="edge6" class="edge"><title>3&#45;&gt;4</title>
<path fill="none" stroke="black" d="M56.8799,-89.0261C61.3583,-76.0244 67.2443,-58.9359 72.0807,-44.8948"/>
<polygon fill="black" stroke="black" points="75.4341,-45.9061 75.3816,-35.3114 68.8157,-43.6264 75.4341,-45.9061"/>
<text text-anchor="middle" x="71.5" y="-58.3" font-family="Times,serif" font-size="14.00">a</text>
</g>
<!-- 4&#45;&gt;3 -->
<g id="edge7" class="edge"><title>4&#45;&gt;3</title>
<path fill="none" stroke="black" d="M82.3353,-36.0045C82.5664,-46.1507 81.853,-59.1325 78,-70 76.1199,-75.3028 73.2847,-80.5206 70.1286,-85.3296"/>
<polygon fill="black" stroke="black" points="67.2625,-83.3201 64.2384,-93.4742 72.9346,-87.4222 67.2625,-83.3201"/>
<text text-anchor="middle" x="84.5" y="-58.3" font-family="Times,serif" font-size="14.00">a</text>
</g>
<!-- 4&#45;&gt;4 -->
<g id="edge8" class="edge"><title>4&#45;&gt;4</title>
<path fill="none" stroke="black" d="M97.2903,-25.6679C107.389,-27.5169 117,-24.9609 117,-18 117,-13.5406 113.056,-10.8891 107.566,-10.0454"/>
<polygon fill="black" stroke="black" points="107.189,-6.55441 97.2903,-10.3321 107.384,-13.5517 107.189,-6.55441"/>
<text text-anchor="middle" x="120.5" y="-14.3" font-family="Times,serif" font-size="14.00">b</text>
</g>
</g>
</svg>
