<?xml version="1.0" encoding="UTF-8" standalone="no"?>
<!DOCTYPE svg PUBLIC "-//W3C//DTD SVG 1.1//EN"
 "http://www.w3.org/Graphics/SVG/1.1/DTD/svg11.dtd">
<!-- Generated by graphviz version 2.36.0 (20140111.2315)
 -->
<!-- Title: %3 Pages: 1 -->
<svg width="118pt" height="316pt"
 viewBox="0.00 0.00 118.00 316.00" xmlns="http://www.w3.org/2000/svg" xmlns:xlink="http://www.w3.org/1999/xlink">
<g id="graph0" class="graph" transform="scale(1 1) rotate(0) translate(4 312)">
<title>%3</title>
<polygon fill="white" stroke="none" points="-4,4 -4,-312 114,-312 114,4 -4,4"/>
<!-- 0 -->
<g id="node1" class="node"><title>0</title>
<ellipse fill="lightblue" stroke="black" cx="46" cy="-106" rx="18" ry="18"/>
<text text-anchor="middle" x="46" y="-102.3" font-family="Times,serif" font-size="14.00">0</text>
</g>
<!-- 0&#45;&gt;0 -->
<g id="edge1" class="edge"><title>0&#45;&gt;0</title>
<path fill="none" stroke="black" d="M62.2903,-113.668C72.3892,-115.517 82,-112.961 82,-106 82,-101.541 78.0557,-98.8891 72.5656,-98.0454"/>
<polygon fill="black" stroke="black" points="72.1887,-94.5544 62.2903,-98.3321 72.384,-101.552 72.1887,-94.5544"/>
<text text-anchor="middle" x="85.5" y="-102.3" font-family="Times,serif" font-size="14.00">b</text>
</g>
<!-- 2 -->
<g id="node3" class="node"><title>2</title>
<ellipse fill="lightblue" stroke="black" cx="25" cy="-18" rx="18" ry="18"/>
<text text-anchor="middle" x="25" y="-14.3" font-family="Times,serif" font-size="14.00">2</text>
</g>
<!-- 0&#45;&gt;2 -->
<g id="edge2" class="edge"><title>0&#45;&gt;2</title>
<path fill="none" stroke="black" d="M36.6699,-90.2285C33.3245,-84.1879 29.9101,-76.9864 28,-70 25.9416,-62.4712 24.9438,-54.0921 24.5208,-46.3369"/>
<polygon fill="black" stroke="black" points="28.0182,-46.1905 24.2545,-36.2867 21.0207,-46.376 28.0182,-46.1905"/>
<text text-anchor="middle" x="31.5" y="-58.3" font-family="Times,serif" font-size="14.00">a</text>
</g>
<!-- 1 -->
<g id="node2" class="node"><title>1</title>
<ellipse fill="lightblue" stroke="black" cx="88" cy="-286" rx="17.5909" ry="18"/>
<ellipse fill="none" stroke="black" cx="88" cy="-286" rx="21.5" ry="22"/>
<text text-anchor="middle" x="88" y="-282.3" font-family="Times,serif" font-size="14.00">1</text>
</g>
<!-- 1&#45;&gt;0 -->
<g id="edge3" class="edge"><title>1&#45;&gt;0</title>
<path fill="none" stroke="black" d="M92.0206,-264.022C95.4662,-241.708 98.6393,-205.616 90,-176 84.8924,-158.491 73.8428,-141.191 64.0951,-128.293"/>
<polygon fill="black" stroke="black" points="66.5864,-125.8 57.6436,-120.119 61.0916,-130.137 66.5864,-125.8"/>
<text text-anchor="middle" x="98.5" y="-190.3" font-family="Times,serif" font-size="14.00">a</text>
</g>
<!-- 4 -->
<g id="node5" class="node"><title>4</title>
<ellipse fill="green" stroke="black" cx="38" cy="-194" rx="18" ry="18"/>
<text text-anchor="middle" x="38" y="-190.3" font-family="Times,serif" font-size="14.00">4</text>
</g>
<!-- 1&#45;&gt;4 -->
<g id="edge4" class="edge"><title>1&#45;&gt;4</title>
<path fill="none" stroke="black" d="M77.64,-266.352C70.0375,-252.668 59.6463,-233.963 51.4102,-219.138"/>
<polygon fill="black" stroke="black" points="54.2761,-217.09 46.3601,-210.048 48.157,-220.489 54.2761,-217.09"/>
<text text-anchor="middle" x="68.5" y="-234.3" font-family="Times,serif" font-size="14.00">b</text>
</g>
<!-- 2&#45;&gt;0 -->
<g id="edge5" class="edge"><title>2&#45;&gt;0</title>
<path fill="none" stroke="black" d="M29.1082,-35.8242C32.0672,-47.9419 36.1194,-64.5365 39.5131,-78.4347"/>
<polygon fill="black" stroke="black" points="36.1787,-79.534 41.951,-88.4183 42.9789,-77.8735 36.1787,-79.534"/>
<text text-anchor="middle" x="40.5" y="-58.3" font-family="Times,serif" font-size="14.00">b</text>
</g>
<!-- 2&#45;&gt;2 -->
<g id="edge6" class="edge"><title>2&#45;&gt;2</title>
<path fill="none" stroke="black" d="M41.2903,-25.6679C51.3892,-27.5169 61,-24.9609 61,-18 61,-13.5406 57.0557,-10.8891 51.5656,-10.0454"/>
<polygon fill="black" stroke="black" points="51.1887,-6.55441 41.2903,-10.3321 51.384,-13.5517 51.1887,-6.55441"/>
<text text-anchor="middle" x="64.5" y="-14.3" font-family="Times,serif" font-size="14.00">a</text>
</g>
<!-- 3 -->
<g id="node4" class="node"><title>3</title>
<ellipse fill="lightblue" stroke="black" cx="18" cy="-286" rx="18" ry="18"/>
<text text-anchor="middle" x="18" y="-282.3" font-family="Times,serif" font-size="14.00">3</text>
</g>
<!-- 3&#45;&gt;2 -->
<g id="edge7" class="edge"><title>3&#45;&gt;2</title>
<path fill="none" stroke="black" d="M15.8968,-267.923C14.1889,-253.15 11.9186,-231.203 11,-212 8.1657,-152.749 15.9013,-83.4173 20.9745,-46.0979"/>
<polygon fill="black" stroke="black" points="24.4647,-46.4115 22.3863,-36.0226 17.5324,-45.4401 24.4647,-46.4115"/>
<text text-anchor="middle" x="14.5" y="-146.3" font-family="Times,serif" font-size="14.00">b</text>
</g>
<!-- 3&#45;&gt;4 -->
<g id="edge8" class="edge"><title>3&#45;&gt;4</title>
<path fill="none" stroke="black" d="M21.7618,-268.072C24.6671,-254.998 28.7419,-236.661 32.0828,-221.627"/>
<polygon fill="black" stroke="black" points="35.5023,-222.374 34.255,-211.852 28.669,-220.855 35.5023,-222.374"/>
<text text-anchor="middle" x="32.5" y="-234.3" font-family="Times,serif" font-size="14.00">a</text>
</g>
<!-- 4&#45;&gt;0 -->
<g id="edge9" class="edge"><title>4&#45;&gt;0</title>
<path fill="none" stroke="black" d="M39.5805,-176.009C40.6872,-164.112 42.1897,-147.961 43.4628,-134.275"/>
<polygon fill="black" stroke="black" points="46.9814,-134.237 44.4227,-123.956 40.0115,-133.588 46.9814,-134.237"/>
<text text-anchor="middle" x="45.5" y="-146.3" font-family="Times,serif" font-size="14.00">b</text>
</g>
<!-- 4&#45;&gt;4 -->
<g id="edge10" class="edge"><title>4&#45;&gt;4</title>
<path fill="none" stroke="black" d="M54.2903,-201.668C64.3892,-203.517 74,-200.961 74,-194 74,-189.541 70.0557,-186.889 64.5656,-186.045"/>
<polygon fill="black" stroke="black" points="64.1887,-182.554 54.2903,-186.332 64.384,-189.552 64.1887,-182.554"/>
<text text-anchor="middle" x="77.5" y="-190.3" font-family="Times,serif" font-size="14.00">a</text>
</g>
</g>
</svg>
