<?xml version="1.0" encoding="UTF-8" standalone="no"?>
<!DOCTYPE svg PUBLIC "-//W3C//DTD SVG 1.1//EN"
 "http://www.w3.org/Graphics/SVG/1.1/DTD/svg11.dtd">
<!-- Generated by graphviz version 2.36.0 (20140111.2315)
 -->
<!-- Title: %3 Pages: 1 -->
<svg width="161pt" height="316pt"
 viewBox="0.00 0.00 161.00 316.00" xmlns="http://www.w3.org/2000/svg" xmlns:xlink="http://www.w3.org/1999/xlink">
<g id="graph0" class="graph" transform="scale(1 1) rotate(0) translate(4 312)">
<title>%3</title>
<polygon fill="white" stroke="none" points="-4,4 -4,-312 157,-312 157,4 -4,4"/>
<!-- 0 -->
<g id="node1" class="node"><title>0</title>
<ellipse fill="lightblue" stroke="black" cx="97" cy="-290" rx="18" ry="18"/>
<text text-anchor="middle" x="97" y="-286.3" font-family="Times,serif" font-size="14.00">0</text>
</g>
<!-- 0&#45;&gt;0 -->
<g id="edge1" class="edge"><title>0&#45;&gt;0</title>
<path fill="none" stroke="black" d="M113.29,-297.668C123.389,-299.517 133,-296.961 133,-290 133,-285.541 129.056,-282.889 123.566,-282.045"/>
<polygon fill="black" stroke="black" points="123.189,-278.554 113.29,-282.332 123.384,-285.552 123.189,-278.554"/>
<text text-anchor="middle" x="136.5" y="-286.3" font-family="Times,serif" font-size="14.00">b</text>
</g>
<!-- 2 -->
<g id="node3" class="node"><title>2</title>
<ellipse fill="lightblue" stroke="black" cx="18" cy="-202" rx="18" ry="18"/>
<text text-anchor="middle" x="18" y="-198.3" font-family="Times,serif" font-size="14.00">2</text>
</g>
<!-- 0&#45;&gt;2 -->
<g id="edge2" class="edge"><title>0&#45;&gt;2</title>
<path fill="none" stroke="black" d="M85.0016,-275.938C72.167,-261.967 51.6422,-239.623 36.688,-223.344"/>
<polygon fill="black" stroke="black" points="39.1951,-220.899 29.8525,-215.903 34.0399,-225.635 39.1951,-220.899"/>
<text text-anchor="middle" x="68.5" y="-242.3" font-family="Times,serif" font-size="14.00">a</text>
</g>
<!-- 3 -->
<g id="node4" class="node"><title>3</title>
<ellipse fill="lightblue" stroke="black" cx="52" cy="-114" rx="18" ry="18"/>
<text text-anchor="middle" x="52" y="-110.3" font-family="Times,serif" font-size="14.00">3</text>
</g>
<!-- 0&#45;&gt;3 -->
<g id="edge3" class="edge"><title>0&#45;&gt;3</title>
<path fill="none" stroke="black" d="M92.7159,-272.265C87.4059,-251.54 78.07,-215.158 70,-184 66.3867,-170.049 62.3376,-154.519 58.9963,-141.73"/>
<polygon fill="black" stroke="black" points="62.2967,-140.517 56.3811,-131.727 55.5244,-142.287 62.2967,-140.517"/>
<text text-anchor="middle" x="82.5" y="-198.3" font-family="Times,serif" font-size="14.00">c</text>
</g>
<!-- 1 -->
<g id="node2" class="node"><title>1</title>
<ellipse fill="green" stroke="black" cx="106" cy="-22" rx="17.5909" ry="18"/>
<ellipse fill="none" stroke="black" cx="106" cy="-22" rx="21.5" ry="22"/>
<text text-anchor="middle" x="106" y="-18.3" font-family="Times,serif" font-size="14.00">1</text>
</g>
<!-- 1&#45;&gt;0 -->
<g id="edge4" class="edge"><title>1&#45;&gt;0</title>
<path fill="none" stroke="black" d="M108.556,-44.0453C110.192,-58.6084 112.16,-78.4503 113,-96 115.837,-155.298 107.149,-224.612 101.484,-261.916"/>
<polygon fill="black" stroke="black" points="97.9966,-261.566 99.9093,-271.987 104.912,-262.648 97.9966,-261.566"/>
<text text-anchor="middle" x="120" y="-154.3" font-family="Times,serif" font-size="14.00">c,a</text>
</g>
<!-- 1&#45;&gt;1 -->
<g id="edge5" class="edge"><title>1&#45;&gt;1</title>
<path fill="none" stroke="black" d="M126.066,-30.7341C136.074,-31.9426 145,-29.0312 145,-22 145,-17.4956 141.337,-14.682 136.072,-13.5592"/>
<polygon fill="black" stroke="black" points="136.165,-10.0605 126.066,-13.2659 135.959,-17.0575 136.165,-10.0605"/>
<text text-anchor="middle" x="148.5" y="-18.3" font-family="Times,serif" font-size="14.00">b</text>
</g>
<!-- 2&#45;&gt;2 -->
<g id="edge6" class="edge"><title>2&#45;&gt;2</title>
<path fill="none" stroke="black" d="M34.2903,-209.668C44.3892,-211.517 54,-208.961 54,-202 54,-197.541 50.0557,-194.889 44.5656,-194.045"/>
<polygon fill="black" stroke="black" points="44.1887,-190.554 34.2903,-194.332 44.384,-197.552 44.1887,-190.554"/>
<text text-anchor="middle" x="57.5" y="-198.3" font-family="Times,serif" font-size="14.00">b</text>
</g>
<!-- 2&#45;&gt;3 -->
<g id="edge7" class="edge"><title>2&#45;&gt;3</title>
<path fill="none" stroke="black" d="M24.3951,-184.824C29.3341,-172.332 36.2613,-154.81 41.9407,-140.444"/>
<polygon fill="black" stroke="black" points="45.2117,-141.69 45.6335,-131.103 38.702,-139.116 45.2117,-141.69"/>
<text text-anchor="middle" x="47" y="-154.3" font-family="Times,serif" font-size="14.00">c,a</text>
</g>
<!-- 3&#45;&gt;1 -->
<g id="edge8" class="edge"><title>3&#45;&gt;1</title>
<path fill="none" stroke="black" d="M60.917,-98.1383C68.7299,-85.1168 80.2815,-65.8641 89.7355,-50.1075"/>
<polygon fill="black" stroke="black" points="92.8716,-51.6834 95.0153,-41.3078 86.8691,-48.0819 92.8716,-51.6834"/>
<text text-anchor="middle" x="85.5" y="-66.3" font-family="Times,serif" font-size="14.00">b</text>
</g>
<!-- 3&#45;&gt;3 -->
<g id="edge9" class="edge"><title>3&#45;&gt;3</title>
<path fill="none" stroke="black" d="M68.2903,-121.668C78.3892,-123.517 88,-120.961 88,-114 88,-109.541 84.0557,-106.889 78.5656,-106.045"/>
<polygon fill="black" stroke="black" points="78.1887,-102.554 68.2903,-106.332 78.384,-109.552 78.1887,-102.554"/>
<text text-anchor="middle" x="96" y="-110.3" font-family="Times,serif" font-size="14.00">c,a</text>
</g>
</g>
</svg>
