<?xml version="1.0" encoding="UTF-8" standalone="no"?>
<!DOCTYPE svg PUBLIC "-//W3C//DTD SVG 1.1//EN"
 "http://www.w3.org/Graphics/SVG/1.1/DTD/svg11.dtd">
<!-- Generated by graphviz version 2.36.0 (20140111.2315)
 -->
<!-- Title: %3 Pages: 1 -->
<svg width="140pt" height="316pt"
 viewBox="0.00 0.00 140.00 316.00" xmlns="http://www.w3.org/2000/svg" xmlns:xlink="http://www.w3.org/1999/xlink">
<g id="graph0" class="graph" transform="scale(1 1) rotate(0) translate(4 312)">
<title>%3</title>
<polygon fill="white" stroke="none" points="-4,4 -4,-312 136,-312 136,4 -4,4"/>
<!-- 0 -->
<g id="node1" class="node"><title>0</title>
<ellipse fill="lightblue" stroke="black" cx="94" cy="-290" rx="18" ry="18"/>
<text text-anchor="middle" x="94" y="-286.3" font-family="Times,serif" font-size="14.00">0</text>
</g>
<!-- 1 -->
<g id="node2" class="node"><title>1</title>
<ellipse fill="lightblue" stroke="black" cx="62" cy="-202" rx="18" ry="18"/>
<text text-anchor="middle" x="62" y="-198.3" font-family="Times,serif" font-size="14.00">1</text>
</g>
<!-- 0&#45;&gt;1 -->
<g id="edge1" class="edge"><title>0&#45;&gt;1</title>
<path fill="none" stroke="black" d="M87.981,-272.824C83.3774,-260.452 76.9381,-243.146 71.6221,-228.859"/>
<polygon fill="black" stroke="black" points="74.7596,-227.255 67.992,-219.103 68.1991,-229.696 74.7596,-227.255"/>
<text text-anchor="middle" x="83.5" y="-242.3" font-family="Times,serif" font-size="14.00">b</text>
</g>
<!-- 3 -->
<g id="node4" class="node"><title>3</title>
<ellipse fill="lightblue" stroke="black" cx="79" cy="-18" rx="18" ry="18"/>
<text text-anchor="middle" x="79" y="-14.3" font-family="Times,serif" font-size="14.00">3</text>
</g>
<!-- 0&#45;&gt;3 -->
<g id="edge2" class="edge"><title>0&#45;&gt;3</title>
<path fill="none" stroke="black" d="M94.8832,-271.789C96.596,-232.801 99.2775,-134.841 88,-54 87.6151,-51.2406 87.0929,-48.3855 86.4926,-45.5507"/>
<polygon fill="black" stroke="black" points="89.8342,-44.4782 84.0823,-35.5807 83.0303,-46.1232 89.8342,-44.4782"/>
<text text-anchor="middle" x="99.5" y="-154.3" font-family="Times,serif" font-size="14.00">a</text>
</g>
<!-- 2 -->
<g id="node3" class="node"><title>2</title>
<ellipse fill="green" stroke="black" cx="21" cy="-110" rx="17.5909" ry="18"/>
<ellipse fill="none" stroke="black" cx="21" cy="-110" rx="21.5" ry="22"/>
<text text-anchor="middle" x="21" y="-106.3" font-family="Times,serif" font-size="14.00">2</text>
</g>
<!-- 1&#45;&gt;2 -->
<g id="edge3" class="edge"><title>1&#45;&gt;2</title>
<path fill="none" stroke="black" d="M47.7109,-190.643C40.2325,-184.395 31.6806,-175.764 27,-166 23.5066,-158.713 21.6613,-150.275 20.7582,-142.23"/>
<polygon fill="black" stroke="black" points="24.2332,-141.746 20.0543,-132.01 17.2498,-142.227 24.2332,-141.746"/>
<text text-anchor="middle" x="30.5" y="-154.3" font-family="Times,serif" font-size="14.00">a</text>
</g>
<!-- 1&#45;&gt;3 -->
<g id="edge4" class="edge"><title>1&#45;&gt;3</title>
<path fill="none" stroke="black" d="M63.5993,-183.878C66.5558,-152.226 72.8979,-84.3282 76.4522,-46.2765"/>
<polygon fill="black" stroke="black" points="79.972,-46.2262 77.4173,-35.944 73.0024,-45.5752 79.972,-46.2262"/>
<text text-anchor="middle" x="75.5" y="-106.3" font-family="Times,serif" font-size="14.00">b</text>
</g>
<!-- 2&#45;&gt;1 -->
<g id="edge5" class="edge"><title>2&#45;&gt;1</title>
<path fill="none" stroke="black" d="M29.7704,-130.252C35.8517,-143.601 44.0085,-161.506 50.5945,-175.964"/>
<polygon fill="black" stroke="black" points="47.5276,-177.674 54.8583,-185.323 53.8977,-174.772 47.5276,-177.674"/>
<text text-anchor="middle" x="48.5" y="-154.3" font-family="Times,serif" font-size="14.00">a</text>
</g>
<!-- 2&#45;&gt;3 -->
<g id="edge6" class="edge"><title>2&#45;&gt;3</title>
<path fill="none" stroke="black" d="M32.4589,-91.2189C41.5661,-77.0872 54.3701,-57.2188 64.2436,-41.8979"/>
<polygon fill="black" stroke="black" points="67.1932,-43.7821 69.6682,-33.4804 61.3092,-39.9901 67.1932,-43.7821"/>
<text text-anchor="middle" x="58.5" y="-58.3" font-family="Times,serif" font-size="14.00">b</text>
</g>
<!-- 3&#45;&gt;3 -->
<g id="edge7" class="edge"><title>3&#45;&gt;3</title>
<path fill="none" stroke="black" d="M95.2903,-25.6679C105.389,-27.5169 115,-24.9609 115,-18 115,-13.5406 111.056,-10.8891 105.566,-10.0454"/>
<polygon fill="black" stroke="black" points="105.189,-6.55441 95.2903,-10.3321 105.384,-13.5517 105.189,-6.55441"/>
<text text-anchor="middle" x="123.5" y="-14.3" font-family="Times,serif" font-size="14.00">b,a</text>
</g>
</g>
</svg>
