<?xml version="1.0" encoding="UTF-8" standalone="no"?>
<!DOCTYPE svg PUBLIC "-//W3C//DTD SVG 1.1//EN"
 "http://www.w3.org/Graphics/SVG/1.1/DTD/svg11.dtd">
<!-- Generated by graphviz version 2.36.0 (20140111.2315)
 -->
<!-- Title: %3 Pages: 1 -->
<svg width="103pt" height="316pt"
 viewBox="0.00 0.00 103.00 316.00" xmlns="http://www.w3.org/2000/svg" xmlns:xlink="http://www.w3.org/1999/xlink">
<g id="graph0" class="graph" transform="scale(1 1) rotate(0) translate(4 312)">
<title>%3</title>
<polygon fill="white" stroke="none" points="-4,4 -4,-312 99,-312 99,4 -4,4"/>
<!-- 0 -->
<g id="node1" class="node"><title>0</title>
<ellipse fill="lightblue" stroke="black" cx="66" cy="-290" rx="18" ry="18"/>
<text text-anchor="middle" x="66" y="-286.3" font-family="Times,serif" font-size="14.00">0</text>
</g>
<!-- 1 -->
<g id="node2" class="node"><title>1</title>
<ellipse fill="lightblue" stroke="black" cx="27" cy="-202" rx="18" ry="18"/>
<text text-anchor="middle" x="27" y="-198.3" font-family="Times,serif" font-size="14.00">1</text>
</g>
<!-- 0&#45;&gt;1 -->
<g id="edge1" class="edge"><title>0&#45;&gt;1</title>
<path fill="none" stroke="black" d="M58.8468,-273.226C53.1294,-260.619 45.0062,-242.706 38.3951,-228.128"/>
<polygon fill="black" stroke="black" points="41.4255,-226.335 34.1079,-218.674 35.0504,-229.227 41.4255,-226.335"/>
<text text-anchor="middle" x="52.5" y="-242.3" font-family="Times,serif" font-size="14.00">a</text>
</g>
<!-- 2 -->
<g id="node3" class="node"><title>2</title>
<ellipse fill="lightblue" stroke="black" cx="48" cy="-110" rx="17.5909" ry="18"/>
<ellipse fill="none" stroke="black" cx="48" cy="-110" rx="21.5" ry="22"/>
<text text-anchor="middle" x="48" y="-106.3" font-family="Times,serif" font-size="14.00">2</text>
</g>
<!-- 0&#45;&gt;2 -->
<g id="edge2" class="edge"><title>0&#45;&gt;2</title>
<path fill="none" stroke="black" d="M69.2269,-271.986C73.6256,-245.457 79.7986,-192.831 69,-150 67.9425,-145.806 66.3359,-141.572 64.4725,-137.518"/>
<polygon fill="black" stroke="black" points="67.5033,-135.759 59.7961,-128.49 61.2877,-138.979 67.5033,-135.759"/>
<text text-anchor="middle" x="83.5" y="-198.3" font-family="Times,serif" font-size="14.00">b,c</text>
</g>
<!-- 1&#45;&gt;2 -->
<g id="edge3" class="edge"><title>1&#45;&gt;2</title>
<path fill="none" stroke="black" d="M30.9499,-184.072C33.7417,-172.107 37.5619,-155.735 40.8787,-141.52"/>
<polygon fill="black" stroke="black" points="44.3191,-142.178 43.183,-131.644 37.5022,-140.587 44.3191,-142.178"/>
<text text-anchor="middle" x="51.5" y="-154.3" font-family="Times,serif" font-size="14.00">b,c,a</text>
</g>
<!-- 2&#45;&gt;1 -->
<g id="edge4" class="edge"><title>2&#45;&gt;1</title>
<path fill="none" stroke="black" d="M34.7916,-127.889C30.4671,-134.421 26.2085,-142.197 24,-150 21.8411,-157.627 21.5553,-166.145 22.0979,-174.002"/>
<polygon fill="black" stroke="black" points="18.6455,-174.62 23.253,-184.16 25.6007,-173.829 18.6455,-174.62"/>
<text text-anchor="middle" x="27.5" y="-154.3" font-family="Times,serif" font-size="14.00">c</text>
</g>
<!-- 2&#45;&gt;2 -->
<g id="edge5" class="edge"><title>2&#45;&gt;2</title>
<path fill="none" stroke="black" d="M68.0663,-118.734C78.0736,-119.943 87,-117.031 87,-110 87,-105.496 83.3366,-102.682 78.0725,-101.559"/>
<polygon fill="black" stroke="black" points="78.1646,-98.0605 68.0663,-101.266 77.9594,-105.057 78.1646,-98.0605"/>
<text text-anchor="middle" x="90.5" y="-106.3" font-family="Times,serif" font-size="14.00">b</text>
</g>
<!-- 3 -->
<g id="node4" class="node"><title>3</title>
<ellipse fill="green" stroke="black" cx="18" cy="-18" rx="18" ry="18"/>
<text text-anchor="middle" x="18" y="-14.3" font-family="Times,serif" font-size="14.00">3</text>
</g>
<!-- 2&#45;&gt;3 -->
<g id="edge6" class="edge"><title>2&#45;&gt;3</title>
<path fill="none" stroke="black" d="M41.342,-89.0261C37.0081,-76.0244 31.312,-58.9359 26.6316,-44.8948"/>
<polygon fill="black" stroke="black" points="29.9199,-43.6914 23.4371,-35.3114 23.2791,-45.905 29.9199,-43.6914"/>
<text text-anchor="middle" x="37.5" y="-58.3" font-family="Times,serif" font-size="14.00">a</text>
</g>
<!-- 3&#45;&gt;1 -->
<g id="edge7" class="edge"><title>3&#45;&gt;1</title>
<path fill="none" stroke="black" d="M15.3741,-36.066C14.548,-41.761 13.6759,-48.1463 13,-54 9.02082,-88.4633 6.48399,-97.4863 10,-132 11.5636,-147.349 13.3226,-151.017 17,-166 17.7061,-168.877 18.4889,-171.874 19.2966,-174.85"/>
<polygon fill="black" stroke="black" points="15.9864,-176.008 22.0636,-184.687 22.7248,-174.112 15.9864,-176.008"/>
<text text-anchor="middle" x="13.5" y="-106.3" font-family="Times,serif" font-size="14.00">a</text>
</g>
<!-- 3&#45;&gt;2 -->
<g id="edge8" class="edge"><title>3&#45;&gt;2</title>
<path fill="none" stroke="black" d="M16.7325,-35.9808C16.5254,-46.1187 17.2402,-59.0999 21,-70 22.7345,-75.0286 25.3127,-80.0025 28.1983,-84.6292"/>
<polygon fill="black" stroke="black" points="25.4272,-86.776 33.9855,-93.0216 31.1899,-82.8022 25.4272,-86.776"/>
<text text-anchor="middle" x="24.5" y="-58.3" font-family="Times,serif" font-size="14.00">c</text>
</g>
<!-- 3&#45;&gt;3 -->
<g id="edge9" class="edge"><title>3&#45;&gt;3</title>
<path fill="none" stroke="black" d="M34.2903,-25.6679C44.3892,-27.5169 54,-24.9609 54,-18 54,-13.5406 50.0557,-10.8891 44.5656,-10.0454"/>
<polygon fill="black" stroke="black" points="44.1887,-6.55441 34.2903,-10.3321 44.384,-13.5517 44.1887,-6.55441"/>
<text text-anchor="middle" x="57.5" y="-14.3" font-family="Times,serif" font-size="14.00">b</text>
</g>
</g>
</svg>
