<?xml version="1.0" encoding="UTF-8" standalone="no"?>
<!DOCTYPE svg PUBLIC "-//W3C//DTD SVG 1.1//EN"
 "http://www.w3.org/Graphics/SVG/1.1/DTD/svg11.dtd">
<!-- Generated by graphviz version 2.36.0 (20140111.2315)
 -->
<!-- Title: %3 Pages: 1 -->
<svg width="190pt" height="228pt"
 viewBox="0.00 0.00 190.00 228.00" xmlns="http://www.w3.org/2000/svg" xmlns:xlink="http://www.w3.org/1999/xlink">
<g id="graph0" class="graph" transform="scale(1 1) rotate(0) translate(4 224)">
<title>%3</title>
<polygon fill="white" stroke="none" points="-4,4 -4,-224 186,-224 186,4 -4,4"/>
<!-- 0 -->
<g id="node1" class="node"><title>0</title>
<ellipse fill="lightblue" stroke="black" cx="102" cy="-202" rx="18" ry="18"/>
<text text-anchor="middle" x="102" y="-198.3" font-family="Times,serif" font-size="14.00">0</text>
</g>
<!-- 0&#45;&gt;0 -->
<g id="edge1" class="edge"><title>0&#45;&gt;0</title>
<path fill="none" stroke="black" d="M118.29,-209.668C128.389,-211.517 138,-208.961 138,-202 138,-197.541 134.056,-194.889 128.566,-194.045"/>
<polygon fill="black" stroke="black" points="128.189,-190.554 118.29,-194.332 128.384,-197.552 128.189,-190.554"/>
<text text-anchor="middle" x="141.5" y="-198.3" font-family="Times,serif" font-size="14.00">a</text>
</g>
<!-- 4 -->
<g id="node5" class="node"><title>4</title>
<ellipse fill="lightblue" stroke="black" cx="67" cy="-114" rx="18" ry="18"/>
<text text-anchor="middle" x="67" y="-110.3" font-family="Times,serif" font-size="14.00">4</text>
</g>
<!-- 0&#45;&gt;4 -->
<g id="edge2" class="edge"><title>0&#45;&gt;4</title>
<path fill="none" stroke="black" d="M95.4168,-184.824C90.3004,-172.252 83.1113,-154.588 77.2443,-140.172"/>
<polygon fill="black" stroke="black" points="80.4469,-138.756 73.4355,-130.813 73.9633,-141.395 80.4469,-138.756"/>
<text text-anchor="middle" x="90.5" y="-154.3" font-family="Times,serif" font-size="14.00">b</text>
</g>
<!-- 1 -->
<g id="node2" class="node"><title>1</title>
<ellipse fill="lightblue" stroke="black" cx="110" cy="-22" rx="17.5909" ry="18"/>
<ellipse fill="none" stroke="black" cx="110" cy="-22" rx="21.5" ry="22"/>
<text text-anchor="middle" x="110" y="-18.3" font-family="Times,serif" font-size="14.00">1</text>
</g>
<!-- 1&#45;&gt;0 -->
<g id="edge3" class="edge"><title>1&#45;&gt;0</title>
<path fill="none" stroke="black" d="M109.051,-44.1069C107.599,-76.4168 104.826,-138.132 103.224,-173.771"/>
<polygon fill="black" stroke="black" points="99.7197,-173.786 102.767,-183.933 106.713,-174.1 99.7197,-173.786"/>
<text text-anchor="middle" x="109.5" y="-110.3" font-family="Times,serif" font-size="14.00">b</text>
</g>
<!-- 1&#45;&gt;4 -->
<g id="edge4" class="edge"><title>1&#45;&gt;4</title>
<path fill="none" stroke="black" d="M100.802,-42.252C94.4239,-55.6012 85.8691,-73.5064 78.9618,-87.9636"/>
<polygon fill="black" stroke="black" points="75.643,-86.7913 74.49,-97.3232 81.9592,-89.809 75.643,-86.7913"/>
<text text-anchor="middle" x="94.5" y="-66.3" font-family="Times,serif" font-size="14.00">a</text>
</g>
<!-- 2 -->
<g id="node3" class="node"><title>2</title>
<ellipse fill="green" stroke="black" cx="18" cy="-22" rx="18" ry="18"/>
<text text-anchor="middle" x="18" y="-18.3" font-family="Times,serif" font-size="14.00">2</text>
</g>
<!-- 2&#45;&gt;2 -->
<g id="edge5" class="edge"><title>2&#45;&gt;2</title>
<path fill="none" stroke="black" d="M34.2903,-30.365C44.3892,-32.3821 54,-29.5938 54,-22 54,-17.1353 50.0557,-14.2427 44.5656,-13.3222"/>
<polygon fill="black" stroke="black" points="44.1791,-9.83225 34.2903,-13.635 44.3922,-16.829 44.1791,-9.83225"/>
<text text-anchor="middle" x="57.5" y="-18.3" font-family="Times,serif" font-size="14.00">a</text>
</g>
<!-- 2&#45;&gt;4 -->
<g id="edge6" class="edge"><title>2&#45;&gt;4</title>
<path fill="none" stroke="black" d="M26.1894,-38.0418C33.7266,-51.8856 45.0375,-72.6608 53.8414,-88.8312"/>
<polygon fill="black" stroke="black" points="50.8321,-90.6236 58.6878,-97.7327 56.98,-87.2764 50.8321,-90.6236"/>
<text text-anchor="middle" x="49.5" y="-66.3" font-family="Times,serif" font-size="14.00">b</text>
</g>
<!-- 3 -->
<g id="node4" class="node"><title>3</title>
<ellipse fill="lightblue" stroke="black" cx="164" cy="-114" rx="18" ry="18"/>
<text text-anchor="middle" x="164" y="-110.3" font-family="Times,serif" font-size="14.00">3</text>
</g>
<!-- 3&#45;&gt;1 -->
<g id="edge7" class="edge"><title>3&#45;&gt;1</title>
<path fill="none" stroke="black" d="M155.58,-97.7027C149.901,-87.5085 142.164,-73.856 135,-62 132.481,-57.8312 129.755,-53.4521 127.06,-49.1956"/>
<polygon fill="black" stroke="black" points="129.987,-47.2758 121.65,-40.7373 124.09,-51.0475 129.987,-47.2758"/>
<text text-anchor="middle" x="152.5" y="-66.3" font-family="Times,serif" font-size="14.00">b,a</text>
</g>
<!-- 4&#45;&gt;1 -->
<g id="edge8" class="edge"><title>4&#45;&gt;1</title>
<path fill="none" stroke="black" d="M66.3566,-95.725C66.613,-85.4828 68.0834,-72.4953 73,-62 76.212,-55.1436 81.1038,-48.7162 86.2884,-43.1345"/>
<polygon fill="black" stroke="black" points="88.7641,-45.6086 93.4093,-36.0864 83.8398,-40.6335 88.7641,-45.6086"/>
<text text-anchor="middle" x="76.5" y="-66.3" font-family="Times,serif" font-size="14.00">b</text>
</g>
<!-- 4&#45;&gt;2 -->
<g id="edge9" class="edge"><title>4&#45;&gt;2</title>
<path fill="none" stroke="black" d="M52.1502,-103.413C43.7367,-97.1883 33.7698,-88.324 28,-78 23.3216,-69.6287 20.7649,-59.5256 19.3891,-50.2749"/>
<polygon fill="black" stroke="black" points="22.8673,-49.8841 18.2873,-40.3303 15.9098,-50.6549 22.8673,-49.8841"/>
<text text-anchor="middle" x="31.5" y="-66.3" font-family="Times,serif" font-size="14.00">a</text>
</g>
</g>
</svg>
