<?xml version="1.0" encoding="UTF-8" standalone="no"?>
<!DOCTYPE svg PUBLIC "-//W3C//DTD SVG 1.1//EN"
 "http://www.w3.org/Graphics/SVG/1.1/DTD/svg11.dtd">
<!-- Generated by graphviz version 2.36.0 (20140111.2315)
 -->
<!-- Title: %3 Pages: 1 -->
<svg width="101pt" height="404pt"
 viewBox="0.00 0.00 100.90 404.00" xmlns="http://www.w3.org/2000/svg" xmlns:xlink="http://www.w3.org/1999/xlink">
<g id="graph0" class="graph" transform="scale(1 1) rotate(0) translate(4 400)">
<title>%3</title>
<polygon fill="white" stroke="none" points="-4,4 -4,-400 96.8982,-400 96.8982,4 -4,4"/>
<!-- 0 -->
<g id="node1" class="node"><title>0</title>
<ellipse fill="green" stroke="black" cx="49.8982" cy="-194" rx="18" ry="18"/>
<text text-anchor="middle" x="49.8982" y="-190.3" font-family="Times,serif" font-size="14.00">0</text>
</g>
<!-- 0&#45;&gt;0 -->
<g id="edge1" class="edge"><title>0&#45;&gt;0</title>
<path fill="none" stroke="black" d="M66.1885,-201.668C76.2874,-203.517 85.8982,-200.961 85.8982,-194 85.8982,-189.541 81.9539,-186.889 76.4638,-186.045"/>
<polygon fill="black" stroke="black" points="76.0869,-182.554 66.1885,-186.332 76.2822,-189.552 76.0869,-182.554"/>
<text text-anchor="middle" x="89.3982" y="-190.3" font-family="Times,serif" font-size="14.00">a</text>
</g>
<!-- 2 -->
<g id="node3" class="node"><title>2</title>
<ellipse fill="lightblue" stroke="black" cx="22.8982" cy="-106" rx="18" ry="18"/>
<text text-anchor="middle" x="22.8982" y="-102.3" font-family="Times,serif" font-size="14.00">2</text>
</g>
<!-- 0&#45;&gt;2 -->
<g id="edge2" class="edge"><title>0&#45;&gt;2</title>
<path fill="none" stroke="black" d="M44.6923,-176.418C40.845,-164.164 35.5305,-147.236 31.1126,-133.165"/>
<polygon fill="black" stroke="black" points="34.4228,-132.023 28.0881,-123.531 27.7442,-134.12 34.4228,-132.023"/>
<text text-anchor="middle" x="41.3982" y="-146.3" font-family="Times,serif" font-size="14.00">b</text>
</g>
<!-- 1 -->
<g id="node2" class="node"><title>1</title>
<ellipse fill="lightblue" stroke="black" cx="22.8982" cy="-18" rx="18" ry="18"/>
<text text-anchor="middle" x="22.8982" y="-14.3" font-family="Times,serif" font-size="14.00">1</text>
</g>
<!-- 1&#45;&gt;1 -->
<g id="edge3" class="edge"><title>1&#45;&gt;1</title>
<path fill="none" stroke="black" d="M39.1885,-25.6679C49.2874,-27.5169 58.8982,-24.9609 58.8982,-18 58.8982,-13.5406 54.9539,-10.8891 49.4638,-10.0454"/>
<polygon fill="black" stroke="black" points="49.0869,-6.55441 39.1885,-10.3321 49.2822,-13.5517 49.0869,-6.55441"/>
<text text-anchor="middle" x="62.3982" y="-14.3" font-family="Times,serif" font-size="14.00">a</text>
</g>
<!-- 1&#45;&gt;2 -->
<g id="edge4" class="edge"><title>1&#45;&gt;2</title>
<path fill="none" stroke="black" d="M22.8982,-36.084C22.8982,-47.8607 22.8982,-63.7741 22.8982,-77.342"/>
<polygon fill="black" stroke="black" points="19.3983,-77.5966 22.8982,-87.5966 26.3983,-77.5967 19.3983,-77.5966"/>
<text text-anchor="middle" x="26.3982" y="-58.3" font-family="Times,serif" font-size="14.00">b</text>
</g>
<!-- 2&#45;&gt;1 -->
<g id="edge5" class="edge"><title>2&#45;&gt;1</title>
<path fill="none" stroke="black" d="M12.2282,-91.1629C8.14876,-85.0305 3.9789,-77.512 1.89819,-70 0,-63.1469 0,-60.8531 1.89819,-54 3.06859,-49.7745 4.90001,-45.5469 7.00454,-41.5652"/>
<polygon fill="black" stroke="black" points="10.096,-43.2152 12.2282,-32.8371 4.08952,-39.6203 10.096,-43.2152"/>
<text text-anchor="middle" x="10.3982" y="-58.3" font-family="Times,serif" font-size="14.00">b,a</text>
</g>
<!-- 3 -->
<g id="node4" class="node"><title>3</title>
<ellipse fill="lightblue" stroke="black" cx="52.8982" cy="-286" rx="17.5909" ry="18"/>
<ellipse fill="none" stroke="black" cx="52.8982" cy="-286" rx="21.5" ry="22"/>
<text text-anchor="middle" x="52.8982" y="-282.3" font-family="Times,serif" font-size="14.00">3</text>
</g>
<!-- 3&#45;&gt;0 -->
<g id="edge6" class="edge"><title>3&#45;&gt;0</title>
<path fill="none" stroke="black" d="M52.1872,-263.671C51.7743,-251.284 51.2499,-235.552 50.8073,-222.272"/>
<polygon fill="black" stroke="black" points="54.3048,-222.136 50.4735,-212.258 47.3087,-222.369 54.3048,-222.136"/>
<text text-anchor="middle" x="59.3982" y="-234.3" font-family="Times,serif" font-size="14.00">b,a</text>
</g>
<!-- 4 -->
<g id="node5" class="node"><title>4</title>
<ellipse fill="lightblue" stroke="black" cx="22.8982" cy="-378" rx="18" ry="18"/>
<text text-anchor="middle" x="22.8982" y="-374.3" font-family="Times,serif" font-size="14.00">4</text>
</g>
<!-- 4&#45;&gt;2 -->
<g id="edge7" class="edge"><title>4&#45;&gt;2</title>
<path fill="none" stroke="black" d="M22.583,-359.987C22.3408,-346.022 22.0267,-325.731 21.8982,-308 21.4494,-246.068 22.1035,-173.4 22.547,-134.649"/>
<polygon fill="black" stroke="black" points="26.0519,-134.249 22.6709,-124.208 19.0524,-134.166 26.0519,-134.249"/>
<text text-anchor="middle" x="24.3982" y="-234.3" font-family="Times,serif" font-size="14.00">b</text>
</g>
<!-- 4&#45;&gt;3 -->
<g id="edge8" class="edge"><title>4&#45;&gt;3</title>
<path fill="none" stroke="black" d="M28.4007,-360.493C32.4688,-348.288 38.1204,-331.333 42.9701,-316.784"/>
<polygon fill="black" stroke="black" points="46.3283,-317.777 46.1703,-307.184 39.6875,-315.564 46.3283,-317.777"/>
<text text-anchor="middle" x="42.3982" y="-330.3" font-family="Times,serif" font-size="14.00">a</text>
</g>
</g>
</svg>
