<?xml version="1.0" encoding="UTF-8" standalone="no"?>
<!DOCTYPE svg PUBLIC "-//W3C//DTD SVG 1.1//EN"
 "http://www.w3.org/Graphics/SVG/1.1/DTD/svg11.dtd">
<!-- Generated by graphviz version 2.36.0 (20140111.2315)
 -->
<!-- Title: %3 Pages: 1 -->
<svg width="86pt" height="316pt"
 viewBox="0.00 0.00 86.00 316.00" xmlns="http://www.w3.org/2000/svg" xmlns:xlink="http://www.w3.org/1999/xlink">
<g id="graph0" class="graph" transform="scale(1 1) rotate(0) translate(4 312)">
<title>%3</title>
<polygon fill="white" stroke="none" points="-4,4 -4,-312 82,-312 82,4 -4,4"/>
<!-- 0 -->
<g id="node1" class="node"><title>0</title>
<ellipse fill="green" stroke="black" cx="21" cy="-22" rx="17.5909" ry="18"/>
<ellipse fill="none" stroke="black" cx="21" cy="-22" rx="21.5" ry="22"/>
<text text-anchor="middle" x="21" y="-18.3" font-family="Times,serif" font-size="14.00">0</text>
</g>
<!-- 0&#45;&gt;0 -->
<g id="edge1" class="edge"><title>0&#45;&gt;0</title>
<path fill="none" stroke="black" d="M41.0663,-30.7341C51.0736,-31.9426 60,-29.0312 60,-22 60,-17.4956 56.3366,-14.682 51.0725,-13.5592"/>
<polygon fill="black" stroke="black" points="51.1646,-10.0605 41.0663,-13.2659 50.9594,-17.0575 51.1646,-10.0605"/>
<text text-anchor="middle" x="68.5" y="-18.3" font-family="Times,serif" font-size="14.00">b,a</text>
</g>
<!-- 1 -->
<g id="node2" class="node"><title>1</title>
<ellipse fill="lightblue" stroke="black" cx="21" cy="-290" rx="18" ry="18"/>
<text text-anchor="middle" x="21" y="-286.3" font-family="Times,serif" font-size="14.00">1</text>
</g>
<!-- 1&#45;&gt;1 -->
<g id="edge2" class="edge"><title>1&#45;&gt;1</title>
<path fill="none" stroke="black" d="M37.2903,-297.668C47.3892,-299.517 57,-296.961 57,-290 57,-285.541 53.0557,-282.889 47.5656,-282.045"/>
<polygon fill="black" stroke="black" points="47.1887,-278.554 37.2903,-282.332 47.384,-285.552 47.1887,-278.554"/>
<text text-anchor="middle" x="60.5" y="-286.3" font-family="Times,serif" font-size="14.00">a</text>
</g>
<!-- 2 -->
<g id="node3" class="node"><title>2</title>
<ellipse fill="lightblue" stroke="black" cx="21" cy="-202" rx="18" ry="18"/>
<text text-anchor="middle" x="21" y="-198.3" font-family="Times,serif" font-size="14.00">2</text>
</g>
<!-- 1&#45;&gt;2 -->
<g id="edge3" class="edge"><title>1&#45;&gt;2</title>
<path fill="none" stroke="black" d="M21,-271.597C21,-259.746 21,-243.817 21,-230.292"/>
<polygon fill="black" stroke="black" points="24.5001,-230.084 21,-220.084 17.5001,-230.084 24.5001,-230.084"/>
<text text-anchor="middle" x="24.5" y="-242.3" font-family="Times,serif" font-size="14.00">b</text>
</g>
<!-- 3 -->
<g id="node4" class="node"><title>3</title>
<ellipse fill="lightblue" stroke="black" cx="21" cy="-114" rx="18" ry="18"/>
<text text-anchor="middle" x="21" y="-110.3" font-family="Times,serif" font-size="14.00">3</text>
</g>
<!-- 2&#45;&gt;3 -->
<g id="edge4" class="edge"><title>2&#45;&gt;3</title>
<path fill="none" stroke="black" d="M21,-183.597C21,-171.746 21,-155.817 21,-142.292"/>
<polygon fill="black" stroke="black" points="24.5001,-142.084 21,-132.084 17.5001,-142.084 24.5001,-142.084"/>
<text text-anchor="middle" x="29.5" y="-154.3" font-family="Times,serif" font-size="14.00">b,a</text>
</g>
<!-- 3&#45;&gt;0 -->
<g id="edge5" class="edge"><title>3&#45;&gt;0</title>
<path fill="none" stroke="black" d="M21,-95.6471C21,-83.9242 21,-68.1144 21,-54.2369"/>
<polygon fill="black" stroke="black" points="24.5001,-54.101 21,-44.101 17.5001,-54.101 24.5001,-54.101"/>
<text text-anchor="middle" x="24.5" y="-66.3" font-family="Times,serif" font-size="14.00">b</text>
</g>
<!-- 3&#45;&gt;3 -->
<g id="edge6" class="edge"><title>3&#45;&gt;3</title>
<path fill="none" stroke="black" d="M37.2903,-121.668C47.3892,-123.517 57,-120.961 57,-114 57,-109.541 53.0557,-106.889 47.5656,-106.045"/>
<polygon fill="black" stroke="black" points="47.1887,-102.554 37.2903,-106.332 47.384,-109.552 47.1887,-102.554"/>
<text text-anchor="middle" x="60.5" y="-110.3" font-family="Times,serif" font-size="14.00">a</text>
</g>
</g>
</svg>
