<?xml version="1.0" encoding="UTF-8" standalone="no"?>
<!DOCTYPE svg PUBLIC "-//W3C//DTD SVG 1.1//EN"
 "http://www.w3.org/Graphics/SVG/1.1/DTD/svg11.dtd">
<!-- Generated by graphviz version 2.36.0 (20140111.2315)
 -->
<!-- Title: %3 Pages: 1 -->
<svg width="183pt" height="228pt"
 viewBox="0.00 0.00 183.00 228.00" xmlns="http://www.w3.org/2000/svg" xmlns:xlink="http://www.w3.org/1999/xlink">
<g id="graph0" class="graph" transform="scale(1 1) rotate(0) translate(4 224)">
<title>%3</title>
<polygon fill="white" stroke="none" points="-4,4 -4,-224 179,-224 179,4 -4,4"/>
<!-- 0 -->
<g id="node1" class="node"><title>0</title>
<ellipse fill="lightblue" stroke="black" cx="18" cy="-202" rx="18" ry="18"/>
<text text-anchor="middle" x="18" y="-198.3" font-family="Times,serif" font-size="14.00">0</text>
</g>
<!-- 4 -->
<g id="node5" class="node"><title>4</title>
<ellipse fill="lightblue" stroke="black" cx="45" cy="-110" rx="18" ry="18"/>
<text text-anchor="middle" x="45" y="-106.3" font-family="Times,serif" font-size="14.00">4</text>
</g>
<!-- 0&#45;&gt;4 -->
<g id="edge1" class="edge"><title>0&#45;&gt;4</title>
<path fill="none" stroke="black" d="M22.8119,-184.447C25.7289,-174.461 29.543,-161.489 33,-150 34.263,-145.803 35.6164,-141.356 36.9429,-137.026"/>
<polygon fill="black" stroke="black" points="40.3382,-137.892 39.9336,-127.305 33.6476,-135.834 40.3382,-137.892"/>
<text text-anchor="middle" x="41.5" y="-154.3" font-family="Times,serif" font-size="14.00">b,a</text>
</g>
<!-- 1 -->
<g id="node2" class="node"><title>1</title>
<ellipse fill="lightblue" stroke="black" cx="128" cy="-110" rx="17.5909" ry="18"/>
<ellipse fill="none" stroke="black" cx="128" cy="-110" rx="21.5" ry="22"/>
<text text-anchor="middle" x="128" y="-106.3" font-family="Times,serif" font-size="14.00">1</text>
</g>
<!-- 1&#45;&gt;1 -->
<g id="edge2" class="edge"><title>1&#45;&gt;1</title>
<path fill="none" stroke="black" d="M148.066,-118.734C158.074,-119.943 167,-117.031 167,-110 167,-105.496 163.337,-102.682 158.072,-101.559"/>
<polygon fill="black" stroke="black" points="158.165,-98.0605 148.066,-101.266 157.959,-105.057 158.165,-98.0605"/>
<text text-anchor="middle" x="170.5" y="-106.3" font-family="Times,serif" font-size="14.00">a</text>
</g>
<!-- 2 -->
<g id="node3" class="node"><title>2</title>
<ellipse fill="green" stroke="black" cx="75" cy="-18" rx="18" ry="18"/>
<text text-anchor="middle" x="75" y="-14.3" font-family="Times,serif" font-size="14.00">2</text>
</g>
<!-- 1&#45;&gt;2 -->
<g id="edge3" class="edge"><title>1&#45;&gt;2</title>
<path fill="none" stroke="black" d="M117.275,-90.7872C109.109,-76.9205 97.8008,-57.7184 88.9347,-42.6627"/>
<polygon fill="black" stroke="black" points="91.8701,-40.7498 83.7797,-33.909 85.8383,-44.3019 91.8701,-40.7498"/>
<text text-anchor="middle" x="107.5" y="-58.3" font-family="Times,serif" font-size="14.00">b</text>
</g>
<!-- 2&#45;&gt;2 -->
<g id="edge4" class="edge"><title>2&#45;&gt;2</title>
<path fill="none" stroke="black" d="M91.2903,-25.6679C101.389,-27.5169 111,-24.9609 111,-18 111,-13.5406 107.056,-10.8891 101.566,-10.0454"/>
<polygon fill="black" stroke="black" points="101.189,-6.55441 91.2903,-10.3321 101.384,-13.5517 101.189,-6.55441"/>
<text text-anchor="middle" x="114.5" y="-14.3" font-family="Times,serif" font-size="14.00">b</text>
</g>
<!-- 2&#45;&gt;4 -->
<g id="edge5" class="edge"><title>2&#45;&gt;4</title>
<path fill="none" stroke="black" d="M69.5324,-35.4027C65.1442,-48.5674 58.8975,-67.3075 53.8059,-82.5824"/>
<polygon fill="black" stroke="black" points="50.3444,-81.899 50.5025,-92.4926 56.9852,-84.1126 50.3444,-81.899"/>
<text text-anchor="middle" x="65.5" y="-58.3" font-family="Times,serif" font-size="14.00">a</text>
</g>
<!-- 3 -->
<g id="node4" class="node"><title>3</title>
<ellipse fill="lightblue" stroke="black" cx="72" cy="-202" rx="18" ry="18"/>
<text text-anchor="middle" x="72" y="-198.3" font-family="Times,serif" font-size="14.00">3</text>
</g>
<!-- 3&#45;&gt;4 -->
<g id="edge6" class="edge"><title>3&#45;&gt;4</title>
<path fill="none" stroke="black" d="M67.0478,-184.493C63.0896,-171.299 57.4659,-152.553 52.8889,-137.296"/>
<polygon fill="black" stroke="black" points="56.1468,-135.975 49.9208,-127.403 49.442,-137.987 56.1468,-135.975"/>
<text text-anchor="middle" x="68.5" y="-154.3" font-family="Times,serif" font-size="14.00">b,a</text>
</g>
<!-- 4&#45;&gt;2 -->
<g id="edge7" class="edge"><title>4&#45;&gt;2</title>
<path fill="none" stroke="black" d="M43.3535,-91.6161C42.9238,-80.5179 43.5365,-66.0117 48,-54 49.9222,-48.8273 52.8947,-43.7991 56.1759,-39.2423"/>
<polygon fill="black" stroke="black" points="59.1431,-41.1368 62.671,-31.1466 53.6832,-36.7563 59.1431,-41.1368"/>
<text text-anchor="middle" x="51.5" y="-58.3" font-family="Times,serif" font-size="14.00">b</text>
</g>
<!-- 4&#45;&gt;4 -->
<g id="edge8" class="edge"><title>4&#45;&gt;4</title>
<path fill="none" stroke="black" d="M61.2903,-118.365C71.3892,-120.382 81,-117.594 81,-110 81,-105.135 77.0557,-102.243 71.5656,-101.322"/>
<polygon fill="black" stroke="black" points="71.1791,-97.8323 61.2903,-101.635 71.3922,-104.829 71.1791,-97.8323"/>
<text text-anchor="middle" x="84.5" y="-106.3" font-family="Times,serif" font-size="14.00">a</text>
</g>
</g>
</svg>
