<?xml version="1.0" encoding="UTF-8" standalone="no"?>
<!DOCTYPE svg PUBLIC "-//W3C//DTD SVG 1.1//EN"
 "http://www.w3.org/Graphics/SVG/1.1/DTD/svg11.dtd">
<!-- Generated by graphviz version 2.36.0 (20140111.2315)
 -->
<!-- Title: %3 Pages: 1 -->
<svg width="105pt" height="316pt"
 viewBox="0.00 0.00 105.00 316.00" xmlns="http://www.w3.org/2000/svg" xmlns:xlink="http://www.w3.org/1999/xlink">
<g id="graph0" class="graph" transform="scale(1 1) rotate(0) translate(4 312)">
<title>%3</title>
<polygon fill="white" stroke="none" points="-4,4 -4,-312 101,-312 101,4 -4,4"/>
<!-- 0 -->
<g id="node1" class="node"><title>0</title>
<ellipse fill="lightblue" stroke="black" cx="54" cy="-290" rx="18" ry="18"/>
<text text-anchor="middle" x="54" y="-286.3" font-family="Times,serif" font-size="14.00">0</text>
</g>
<!-- 0&#45;&gt;0 -->
<g id="edge1" class="edge"><title>0&#45;&gt;0</title>
<path fill="none" stroke="black" d="M70.2903,-297.668C80.3892,-299.517 90,-296.961 90,-290 90,-285.541 86.0557,-282.889 80.5656,-282.045"/>
<polygon fill="black" stroke="black" points="80.1887,-278.554 70.2903,-282.332 80.384,-285.552 80.1887,-278.554"/>
<text text-anchor="middle" x="93.5" y="-286.3" font-family="Times,serif" font-size="14.00">b</text>
</g>
<!-- 3 -->
<g id="node4" class="node"><title>3</title>
<ellipse fill="lightblue" stroke="black" cx="19" cy="-202" rx="18" ry="18"/>
<text text-anchor="middle" x="19" y="-198.3" font-family="Times,serif" font-size="14.00">3</text>
</g>
<!-- 0&#45;&gt;3 -->
<g id="edge2" class="edge"><title>0&#45;&gt;3</title>
<path fill="none" stroke="black" d="M47.4168,-272.824C42.3004,-260.252 35.1113,-242.588 29.2443,-228.172"/>
<polygon fill="black" stroke="black" points="32.4469,-226.756 25.4355,-218.813 25.9633,-229.395 32.4469,-226.756"/>
<text text-anchor="middle" x="42.5" y="-242.3" font-family="Times,serif" font-size="14.00">a</text>
</g>
<!-- 1 -->
<g id="node2" class="node"><title>1</title>
<ellipse fill="lightblue" stroke="black" cx="75" cy="-110" rx="17.5909" ry="18"/>
<ellipse fill="none" stroke="black" cx="75" cy="-110" rx="21.5" ry="22"/>
<text text-anchor="middle" x="75" y="-106.3" font-family="Times,serif" font-size="14.00">1</text>
</g>
<!-- 1&#45;&gt;0 -->
<g id="edge3" class="edge"><title>1&#45;&gt;0</title>
<path fill="none" stroke="black" d="M72.5099,-132.107C68.698,-164.417 61.4171,-226.132 57.2124,-261.771"/>
<polygon fill="black" stroke="black" points="53.7094,-261.591 56.0136,-271.933 60.6612,-262.412 53.7094,-261.591"/>
<text text-anchor="middle" x="69.5" y="-198.3" font-family="Times,serif" font-size="14.00">b</text>
</g>
<!-- 2 -->
<g id="node3" class="node"><title>2</title>
<ellipse fill="green" stroke="black" cx="18" cy="-18" rx="18" ry="18"/>
<text text-anchor="middle" x="18" y="-14.3" font-family="Times,serif" font-size="14.00">2</text>
</g>
<!-- 1&#45;&gt;2 -->
<g id="edge4" class="edge"><title>1&#45;&gt;2</title>
<path fill="none" stroke="black" d="M63.7386,-91.2189C54.9259,-77.3041 42.5907,-57.8274 32.9508,-42.6066"/>
<polygon fill="black" stroke="black" points="35.66,-40.3427 27.3525,-33.7672 29.7462,-44.0881 35.66,-40.3427"/>
<text text-anchor="middle" x="52.5" y="-58.3" font-family="Times,serif" font-size="14.00">a</text>
</g>
<!-- 2&#45;&gt;3 -->
<g id="edge5" class="edge"><title>2&#45;&gt;3</title>
<path fill="none" stroke="black" d="M18.0946,-36.2092C18.2684,-67.8466 18.64,-135.486 18.8491,-173.537"/>
<polygon fill="black" stroke="black" points="15.3509,-173.897 18.9059,-183.878 22.3508,-173.859 15.3509,-173.897"/>
<text text-anchor="middle" x="26.5" y="-106.3" font-family="Times,serif" font-size="14.00">b,a</text>
</g>
<!-- 3&#45;&gt;1 -->
<g id="edge6" class="edge"><title>3&#45;&gt;1</title>
<path fill="none" stroke="black" d="M28.2473,-186.138C36.4015,-173.033 48.4827,-153.617 58.3214,-137.805"/>
<polygon fill="black" stroke="black" points="61.4971,-139.326 63.8085,-128.986 55.5537,-135.628 61.4971,-139.326"/>
<text text-anchor="middle" x="53.5" y="-154.3" font-family="Times,serif" font-size="14.00">a</text>
</g>
<!-- 3&#45;&gt;2 -->
<g id="edge7" class="edge"><title>3&#45;&gt;2</title>
<path fill="none" stroke="black" d="M15.2798,-184.374C12.3674,-170.463 8.55785,-150.05 7,-132 5.31844,-112.517 5.45584,-107.494 7,-88 8.10752,-74.018 10.4586,-58.5904 12.7039,-45.8754"/>
<polygon fill="black" stroke="black" points="16.1674,-46.3924 14.5355,-35.924 9.28308,-45.1253 16.1674,-46.3924"/>
<text text-anchor="middle" x="10.5" y="-106.3" font-family="Times,serif" font-size="14.00">b</text>
</g>
</g>
</svg>
