<?xml version="1.0" encoding="UTF-8" standalone="no"?>
<!DOCTYPE svg PUBLIC "-//W3C//DTD SVG 1.1//EN"
 "http://www.w3.org/Graphics/SVG/1.1/DTD/svg11.dtd">
<!-- Generated by graphviz version 2.36.0 (20140111.2315)
 -->
<!-- Title: %3 Pages: 1 -->
<svg width="131pt" height="316pt"
 viewBox="0.00 0.00 131.00 316.00" xmlns="http://www.w3.org/2000/svg" xmlns:xlink="http://www.w3.org/1999/xlink">
<g id="graph0" class="graph" transform="scale(1 1) rotate(0) translate(4 312)">
<title>%3</title>
<polygon fill="white" stroke="none" points="-4,4 -4,-312 127,-312 127,4 -4,4"/>
<!-- 0 -->
<g id="node1" class="node"><title>0</title>
<ellipse fill="lightblue" stroke="black" cx="80" cy="-194" rx="18" ry="18"/>
<text text-anchor="middle" x="80" y="-190.3" font-family="Times,serif" font-size="14.00">0</text>
</g>
<!-- 2 -->
<g id="node3" class="node"><title>2</title>
<ellipse fill="lightblue" stroke="black" cx="80" cy="-106" rx="18" ry="18"/>
<text text-anchor="middle" x="80" y="-102.3" font-family="Times,serif" font-size="14.00">2</text>
</g>
<!-- 0&#45;&gt;2 -->
<g id="edge1" class="edge"><title>0&#45;&gt;2</title>
<path fill="none" stroke="black" d="M80,-175.597C80,-163.746 80,-147.817 80,-134.292"/>
<polygon fill="black" stroke="black" points="83.5001,-134.084 80,-124.084 76.5001,-134.084 83.5001,-134.084"/>
<text text-anchor="middle" x="88.5" y="-146.3" font-family="Times,serif" font-size="14.00">b,a</text>
</g>
<!-- 1 -->
<g id="node2" class="node"><title>1</title>
<ellipse fill="green" stroke="black" cx="18" cy="-194" rx="18" ry="18"/>
<text text-anchor="middle" x="18" y="-190.3" font-family="Times,serif" font-size="14.00">1</text>
</g>
<!-- 3 -->
<g id="node4" class="node"><title>3</title>
<ellipse fill="lightblue" stroke="black" cx="40" cy="-286" rx="17.5909" ry="18"/>
<ellipse fill="none" stroke="black" cx="40" cy="-286" rx="21.5" ry="22"/>
<text text-anchor="middle" x="40" y="-282.3" font-family="Times,serif" font-size="14.00">3</text>
</g>
<!-- 1&#45;&gt;3 -->
<g id="edge2" class="edge"><title>1&#45;&gt;3</title>
<path fill="none" stroke="black" d="M22.0889,-211.727C25.0281,-223.751 29.074,-240.303 32.5768,-254.632"/>
<polygon fill="black" stroke="black" points="29.2334,-255.695 35.0079,-264.578 36.0332,-254.033 29.2334,-255.695"/>
<text text-anchor="middle" x="39.5" y="-234.3" font-family="Times,serif" font-size="14.00">b,a</text>
</g>
<!-- 2&#45;&gt;2 -->
<g id="edge3" class="edge"><title>2&#45;&gt;2</title>
<path fill="none" stroke="black" d="M96.2903,-113.668C106.389,-115.517 116,-112.961 116,-106 116,-101.541 112.056,-98.8891 106.566,-98.0454"/>
<polygon fill="black" stroke="black" points="106.189,-94.5544 96.2903,-98.3321 106.384,-101.552 106.189,-94.5544"/>
<text text-anchor="middle" x="119.5" y="-102.3" font-family="Times,serif" font-size="14.00">b</text>
</g>
<!-- 4 -->
<g id="node5" class="node"><title>4</title>
<ellipse fill="lightblue" stroke="black" cx="80" cy="-18" rx="18" ry="18"/>
<text text-anchor="middle" x="80" y="-14.3" font-family="Times,serif" font-size="14.00">4</text>
</g>
<!-- 2&#45;&gt;4 -->
<g id="edge4" class="edge"><title>2&#45;&gt;4</title>
<path fill="none" stroke="black" d="M73.3664,-89.2577C71.201,-83.3321 69.0772,-76.4629 68,-70 66.8309,-62.9856 66.8309,-61.0144 68,-54 68.5217,-50.8695 69.2891,-47.6437 70.1877,-44.476"/>
<polygon fill="black" stroke="black" points="73.5891,-45.3348 73.3664,-34.7423 66.9349,-43.1618 73.5891,-45.3348"/>
<text text-anchor="middle" x="71.5" y="-58.3" font-family="Times,serif" font-size="14.00">a</text>
</g>
<!-- 3&#45;&gt;0 -->
<g id="edge5" class="edge"><title>3&#45;&gt;0</title>
<path fill="none" stroke="black" d="M48.6794,-265.471C54.5788,-252.198 62.4376,-234.515 68.8072,-220.184"/>
<polygon fill="black" stroke="black" points="72.0735,-221.452 72.9366,-210.893 65.6768,-218.609 72.0735,-221.452"/>
<text text-anchor="middle" x="67.5" y="-234.3" font-family="Times,serif" font-size="14.00">a</text>
</g>
<!-- 3&#45;&gt;1 -->
<g id="edge6" class="edge"><title>3&#45;&gt;1</title>
<path fill="none" stroke="black" d="M27.336,-268.038C23.191,-261.497 19.1109,-253.735 17,-246 14.9161,-238.364 14.4092,-229.844 14.6321,-221.987"/>
<polygon fill="black" stroke="black" points="18.1362,-222.041 15.3089,-211.831 11.1517,-221.576 18.1362,-222.041"/>
<text text-anchor="middle" x="20.5" y="-234.3" font-family="Times,serif" font-size="14.00">b</text>
</g>
<!-- 4&#45;&gt;2 -->
<g id="edge7" class="edge"><title>4&#45;&gt;2</title>
<path fill="none" stroke="black" d="M80,-36.084C80,-47.8607 80,-63.7741 80,-77.342"/>
<polygon fill="black" stroke="black" points="76.5001,-77.5966 80,-87.5966 83.5001,-77.5967 76.5001,-77.5966"/>
<text text-anchor="middle" x="83.5" y="-58.3" font-family="Times,serif" font-size="14.00">a</text>
</g>
<!-- 4&#45;&gt;4 -->
<g id="edge8" class="edge"><title>4&#45;&gt;4</title>
<path fill="none" stroke="black" d="M96.2903,-25.6679C106.389,-27.5169 116,-24.9609 116,-18 116,-13.5406 112.056,-10.8891 106.566,-10.0454"/>
<polygon fill="black" stroke="black" points="106.189,-6.55441 96.2903,-10.3321 106.384,-13.5517 106.189,-6.55441"/>
<text text-anchor="middle" x="119.5" y="-14.3" font-family="Times,serif" font-size="14.00">b</text>
</g>
</g>
</svg>
