<?xml version="1.0" encoding="UTF-8" standalone="no"?>
<!DOCTYPE svg PUBLIC "-//W3C//DTD SVG 1.1//EN"
 "http://www.w3.org/Graphics/SVG/1.1/DTD/svg11.dtd">
<!-- Generated by graphviz version 2.36.0 (20140111.2315)
 -->
<!-- Title: %3 Pages: 1 -->
<svg width="90pt" height="316pt"
 viewBox="0.00 0.00 90.00 316.00" xmlns="http://www.w3.org/2000/svg" xmlns:xlink="http://www.w3.org/1999/xlink">
<g id="graph0" class="graph" transform="scale(1 1) rotate(0) translate(4 312)">
<title>%3</title>
<polygon fill="white" stroke="none" points="-4,4 -4,-312 86,-312 86,4 -4,4"/>
<!-- 0 -->
<g id="node1" class="node"><title>0</title>
<ellipse fill="lightblue" stroke="black" cx="64" cy="-290" rx="18" ry="18"/>
<text text-anchor="middle" x="64" y="-286.3" font-family="Times,serif" font-size="14.00">0</text>
</g>
<!-- 1 -->
<g id="node2" class="node"><title>1</title>
<ellipse fill="lightblue" stroke="black" cx="24" cy="-202" rx="18" ry="18"/>
<text text-anchor="middle" x="24" y="-198.3" font-family="Times,serif" font-size="14.00">1</text>
</g>
<!-- 0&#45;&gt;1 -->
<g id="edge1" class="edge"><title>0&#45;&gt;1</title>
<path fill="none" stroke="black" d="M48.9336,-280.005C40.2133,-273.882 30.0007,-264.918 25,-254 21.6153,-246.61 20.5291,-237.964 20.5282,-229.912"/>
<polygon fill="black" stroke="black" points="24.0287,-229.992 21.0503,-219.824 17.038,-229.63 24.0287,-229.992"/>
<text text-anchor="middle" x="33.5" y="-242.3" font-family="Times,serif" font-size="14.00">b,a</text>
</g>
<!-- 1&#45;&gt;0 -->
<g id="edge2" class="edge"><title>1&#45;&gt;0</title>
<path fill="none" stroke="black" d="M32.1124,-218.222C35.29,-224.324 38.9076,-231.451 42,-238 45.8637,-246.183 49.851,-255.22 53.3522,-263.385"/>
<polygon fill="black" stroke="black" points="50.216,-264.955 57.3407,-272.796 56.6612,-262.223 50.216,-264.955"/>
<text text-anchor="middle" x="51.5" y="-242.3" font-family="Times,serif" font-size="14.00">b</text>
</g>
<!-- 3 -->
<g id="node4" class="node"><title>3</title>
<ellipse fill="green" stroke="black" cx="18" cy="-114" rx="18" ry="18"/>
<text text-anchor="middle" x="18" y="-110.3" font-family="Times,serif" font-size="14.00">3</text>
</g>
<!-- 1&#45;&gt;3 -->
<g id="edge3" class="edge"><title>1&#45;&gt;3</title>
<path fill="none" stroke="black" d="M22.8146,-184.009C21.99,-172.19 20.8724,-156.171 19.9215,-142.542"/>
<polygon fill="black" stroke="black" points="23.3911,-141.982 19.2035,-132.25 16.408,-142.469 23.3911,-141.982"/>
<text text-anchor="middle" x="25.5" y="-154.3" font-family="Times,serif" font-size="14.00">a</text>
</g>
<!-- 2 -->
<g id="node3" class="node"><title>2</title>
<ellipse fill="lightblue" stroke="black" cx="48" cy="-22" rx="17.5909" ry="18"/>
<ellipse fill="none" stroke="black" cx="48" cy="-22" rx="21.5" ry="22"/>
<text text-anchor="middle" x="48" y="-18.3" font-family="Times,serif" font-size="14.00">2</text>
</g>
<!-- 2&#45;&gt;0 -->
<g id="edge4" class="edge"><title>2&#45;&gt;0</title>
<path fill="none" stroke="black" d="M55.6822,-42.7805C60.8807,-57.2659 67.2782,-77.5359 70,-96 78.6545,-154.71 72.4706,-224.512 67.8316,-261.992"/>
<polygon fill="black" stroke="black" points="64.3354,-261.737 66.5188,-272.104 71.2772,-262.638 64.3354,-261.737"/>
<text text-anchor="middle" x="77.5" y="-154.3" font-family="Times,serif" font-size="14.00">b</text>
</g>
<!-- 2&#45;&gt;3 -->
<g id="edge5" class="edge"><title>2&#45;&gt;3</title>
<path fill="none" stroke="black" d="M41.2721,-43.1837C36.9612,-56.1164 31.3241,-73.0278 26.6776,-86.9672"/>
<polygon fill="black" stroke="black" points="23.3444,-85.899 23.5025,-96.4926 29.9852,-88.1126 23.3444,-85.899"/>
<text text-anchor="middle" x="37.5" y="-66.3" font-family="Times,serif" font-size="14.00">a</text>
</g>
<!-- 3&#45;&gt;2 -->
<g id="edge6" class="edge"><title>3&#45;&gt;2</title>
<path fill="none" stroke="black" d="M16.7325,-96.0192C16.5254,-85.8813 17.2402,-72.9001 21,-62 22.7345,-56.9714 25.3127,-51.9975 28.1983,-47.3708"/>
<polygon fill="black" stroke="black" points="31.1899,-49.1978 33.9855,-38.9784 25.4272,-45.224 31.1899,-49.1978"/>
<text text-anchor="middle" x="24.5" y="-66.3" font-family="Times,serif" font-size="14.00">a</text>
</g>
<!-- 3&#45;&gt;3 -->
<g id="edge7" class="edge"><title>3&#45;&gt;3</title>
<path fill="none" stroke="black" d="M34.2903,-121.668C44.3892,-123.517 54,-120.961 54,-114 54,-109.541 50.0557,-106.889 44.5656,-106.045"/>
<polygon fill="black" stroke="black" points="44.1887,-102.554 34.2903,-106.332 44.384,-109.552 44.1887,-102.554"/>
<text text-anchor="middle" x="57.5" y="-110.3" font-family="Times,serif" font-size="14.00">b</text>
</g>
</g>
</svg>
