<?xml version="1.0" encoding="UTF-8" standalone="no"?>
<!DOCTYPE svg PUBLIC "-//W3C//DTD SVG 1.1//EN"
 "http://www.w3.org/Graphics/SVG/1.1/DTD/svg11.dtd">
<!-- Generated by graphviz version 2.36.0 (20140111.2315)
 -->
<!-- Title: %3 Pages: 1 -->
<svg width="144pt" height="404pt"
 viewBox="0.00 0.00 144.30 404.00" xmlns="http://www.w3.org/2000/svg" xmlns:xlink="http://www.w3.org/1999/xlink">
<g id="graph0" class="graph" transform="scale(1 1) rotate(0) translate(4 400)">
<title>%3</title>
<polygon fill="white" stroke="none" points="-4,4 -4,-400 140.296,-400 140.296,4 -4,4"/>
<!-- 0 -->
<g id="node1" class="node"><title>0</title>
<ellipse fill="lightblue" stroke="black" cx="106.296" cy="-378" rx="18" ry="18"/>
<text text-anchor="middle" x="106.296" y="-374.3" font-family="Times,serif" font-size="14.00">0</text>
</g>
<!-- 1 -->
<g id="node2" class="node"><title>1</title>
<ellipse fill="lightblue" stroke="black" cx="58.2964" cy="-290" rx="18" ry="18"/>
<text text-anchor="middle" x="58.2964" y="-286.3" font-family="Times,serif" font-size="14.00">1</text>
</g>
<!-- 0&#45;&gt;1 -->
<g id="edge1" class="edge"><title>0&#45;&gt;1</title>
<path fill="none" stroke="black" d="M97.9354,-362.02C90.6841,-349.028 80.059,-329.991 71.6341,-314.897"/>
<polygon fill="black" stroke="black" points="74.6525,-313.123 66.7226,-306.097 68.5401,-316.535 74.6525,-313.123"/>
<text text-anchor="middle" x="89.7964" y="-330.3" font-family="Times,serif" font-size="14.00">b</text>
</g>
<!-- 2 -->
<g id="node3" class="node"><title>2</title>
<ellipse fill="lightblue" stroke="black" cx="57.2964" cy="-18" rx="18" ry="18"/>
<text text-anchor="middle" x="57.2964" y="-14.3" font-family="Times,serif" font-size="14.00">2</text>
</g>
<!-- 0&#45;&gt;2 -->
<g id="edge2" class="edge"><title>0&#45;&gt;2</title>
<path fill="none" stroke="black" d="M113.197,-361.171C119.972,-344.169 129.296,-316.192 129.296,-291 129.296,-291 129.296,-291 129.296,-109 129.296,-77.1681 101.493,-50.1438 80.4414,-34.2441"/>
<polygon fill="black" stroke="black" points="82.3756,-31.3239 72.2148,-28.3223 78.286,-37.0051 82.3756,-31.3239"/>
<text text-anchor="middle" x="132.796" y="-198.3" font-family="Times,serif" font-size="14.00">a</text>
</g>
<!-- 1&#45;&gt;1 -->
<g id="edge3" class="edge"><title>1&#45;&gt;1</title>
<path fill="none" stroke="black" d="M74.5867,-297.668C84.6856,-299.517 94.2964,-296.961 94.2964,-290 94.2964,-285.541 90.3521,-282.889 84.862,-282.045"/>
<polygon fill="black" stroke="black" points="84.4851,-278.554 74.5867,-282.332 84.6804,-285.552 84.4851,-278.554"/>
<text text-anchor="middle" x="97.7964" y="-286.3" font-family="Times,serif" font-size="14.00">b</text>
</g>
<!-- 4 -->
<g id="node5" class="node"><title>4</title>
<ellipse fill="green" stroke="black" cx="32.2964" cy="-202" rx="18" ry="18"/>
<text text-anchor="middle" x="32.2964" y="-198.3" font-family="Times,serif" font-size="14.00">4</text>
</g>
<!-- 1&#45;&gt;4 -->
<g id="edge4" class="edge"><title>1&#45;&gt;4</title>
<path fill="none" stroke="black" d="M53.2833,-272.418C49.5785,-260.164 44.4608,-243.236 40.2066,-229.165"/>
<polygon fill="black" stroke="black" points="43.5383,-228.09 37.2941,-219.531 36.8378,-230.116 43.5383,-228.09"/>
<text text-anchor="middle" x="50.7964" y="-242.3" font-family="Times,serif" font-size="14.00">a</text>
</g>
<!-- 2&#45;&gt;1 -->
<g id="edge5" class="edge"><title>2&#45;&gt;1</title>
<path fill="none" stroke="black" d="M48.0936,-33.6913C28.4203,-66.9795 -14.3935,-150.652 5.2964,-220 10.8313,-239.494 25.1203,-257.506 37.4682,-270.235"/>
<polygon fill="black" stroke="black" points="35.2226,-272.935 44.8101,-277.444 40.127,-267.941 35.2226,-272.935"/>
<text text-anchor="middle" x="10.7964" y="-154.3" font-family="Times,serif" font-size="14.00">b,a</text>
</g>
<!-- 3 -->
<g id="node4" class="node"><title>3</title>
<ellipse fill="lightblue" stroke="black" cx="57.2964" cy="-110" rx="17.5909" ry="18"/>
<ellipse fill="none" stroke="black" cx="57.2964" cy="-110" rx="21.5" ry="22"/>
<text text-anchor="middle" x="57.2964" y="-106.3" font-family="Times,serif" font-size="14.00">3</text>
</g>
<!-- 3&#45;&gt;1 -->
<g id="edge6" class="edge"><title>3&#45;&gt;1</title>
<path fill="none" stroke="black" d="M58.0267,-132.081C58.4943,-146.659 59.0568,-166.505 59.2964,-184 59.5155,-199.998 59.4123,-204 59.2964,-220 59.197,-233.713 58.9866,-248.959 58.7843,-261.624"/>
<polygon fill="black" stroke="black" points="55.2788,-261.93 58.6116,-271.987 62.2778,-262.047 55.2788,-261.93"/>
<text text-anchor="middle" x="62.7964" y="-198.3" font-family="Times,serif" font-size="14.00">a</text>
</g>
<!-- 3&#45;&gt;2 -->
<g id="edge7" class="edge"><title>3&#45;&gt;2</title>
<path fill="none" stroke="black" d="M57.2964,-87.6713C57.2964,-75.2844 57.2964,-59.5523 57.2964,-46.2721"/>
<polygon fill="black" stroke="black" points="60.7965,-46.258 57.2964,-36.2581 53.7965,-46.2581 60.7965,-46.258"/>
<text text-anchor="middle" x="60.7964" y="-58.3" font-family="Times,serif" font-size="14.00">b</text>
</g>
<!-- 4&#45;&gt;1 -->
<g id="edge8" class="edge"><title>4&#45;&gt;1</title>
<path fill="none" stroke="black" d="M30.1534,-219.96C29.4744,-230.091 29.6757,-243.072 33.2964,-254 34.886,-258.798 37.3827,-263.506 40.1958,-267.835"/>
<polygon fill="black" stroke="black" points="37.5036,-270.083 46.225,-276.099 43.1586,-265.958 37.5036,-270.083"/>
<text text-anchor="middle" x="36.7964" y="-242.3" font-family="Times,serif" font-size="14.00">a</text>
</g>
<!-- 4&#45;&gt;3 -->
<g id="edge9" class="edge"><title>4&#45;&gt;3</title>
<path fill="none" stroke="black" d="M36.8818,-184.493C40.2166,-172.487 44.8283,-155.885 48.8248,-141.498"/>
<polygon fill="black" stroke="black" points="52.2949,-142.082 51.5991,-131.51 45.5503,-140.209 52.2949,-142.082"/>
<text text-anchor="middle" x="48.7964" y="-154.3" font-family="Times,serif" font-size="14.00">b</text>
</g>
</g>
</svg>
