<?xml version="1.0" encoding="UTF-8" standalone="no"?>
<!DOCTYPE svg PUBLIC "-//W3C//DTD SVG 1.1//EN"
 "http://www.w3.org/Graphics/SVG/1.1/DTD/svg11.dtd">
<!-- Generated by graphviz version 2.36.0 (20140111.2315)
 -->
<!-- Title: %3 Pages: 1 -->
<svg width="83pt" height="404pt"
 viewBox="0.00 0.00 83.00 404.00" xmlns="http://www.w3.org/2000/svg" xmlns:xlink="http://www.w3.org/1999/xlink">
<g id="graph0" class="graph" transform="scale(1 1) rotate(0) translate(4 400)">
<title>%3</title>
<polygon fill="white" stroke="none" points="-4,4 -4,-400 79,-400 79,4 -4,4"/>
<!-- 0 -->
<g id="node1" class="node"><title>0</title>
<ellipse fill="lightblue" stroke="black" cx="22" cy="-18" rx="18" ry="18"/>
<text text-anchor="middle" x="22" y="-14.3" font-family="Times,serif" font-size="14.00">0</text>
</g>
<!-- 0&#45;&gt;0 -->
<g id="edge1" class="edge"><title>0&#45;&gt;0</title>
<path fill="none" stroke="black" d="M38.2903,-25.6679C48.3892,-27.5169 58,-24.9609 58,-18 58,-13.5406 54.0557,-10.8891 48.5656,-10.0454"/>
<polygon fill="black" stroke="black" points="48.1887,-6.55441 38.2903,-10.3321 48.384,-13.5517 48.1887,-6.55441"/>
<text text-anchor="middle" x="66.5" y="-14.3" font-family="Times,serif" font-size="14.00">b,a</text>
</g>
<!-- 1 -->
<g id="node2" class="node"><title>1</title>
<ellipse fill="lightblue" stroke="black" cx="22" cy="-106" rx="18" ry="18"/>
<text text-anchor="middle" x="22" y="-102.3" font-family="Times,serif" font-size="14.00">1</text>
</g>
<!-- 1&#45;&gt;0 -->
<g id="edge2" class="edge"><title>1&#45;&gt;0</title>
<path fill="none" stroke="black" d="M22,-87.5966C22,-75.7459 22,-59.8169 22,-46.2917"/>
<polygon fill="black" stroke="black" points="25.5001,-46.084 22,-36.084 18.5001,-46.084 25.5001,-46.084"/>
<text text-anchor="middle" x="30.5" y="-58.3" font-family="Times,serif" font-size="14.00">b,a</text>
</g>
<!-- 2 -->
<g id="node3" class="node"><title>2</title>
<ellipse fill="green" stroke="black" cx="18" cy="-290" rx="18" ry="18"/>
<text text-anchor="middle" x="18" y="-286.3" font-family="Times,serif" font-size="14.00">2</text>
</g>
<!-- 2&#45;&gt;1 -->
<g id="edge3" class="edge"><title>2&#45;&gt;1</title>
<path fill="none" stroke="black" d="M15.4743,-272.14C12.5038,-250.045 8.29941,-210.094 11,-176 12.1075,-162.018 14.4586,-146.59 16.7039,-133.875"/>
<polygon fill="black" stroke="black" points="20.1674,-134.392 18.5355,-123.924 13.2831,-133.125 20.1674,-134.392"/>
<text text-anchor="middle" x="14.5" y="-194.3" font-family="Times,serif" font-size="14.00">a</text>
</g>
<!-- 4 -->
<g id="node5" class="node"><title>4</title>
<ellipse fill="lightblue" stroke="black" cx="49" cy="-198" rx="17.5909" ry="18"/>
<ellipse fill="none" stroke="black" cx="49" cy="-198" rx="21.5" ry="22"/>
<text text-anchor="middle" x="49" y="-194.3" font-family="Times,serif" font-size="14.00">4</text>
</g>
<!-- 2&#45;&gt;4 -->
<g id="edge4" class="edge"><title>2&#45;&gt;4</title>
<path fill="none" stroke="black" d="M23.6859,-272.493C27.9181,-260.206 33.8086,-243.104 38.8425,-228.49"/>
<polygon fill="black" stroke="black" points="42.2122,-229.454 42.1597,-218.859 35.5938,-227.174 42.2122,-229.454"/>
<text text-anchor="middle" x="38.5" y="-242.3" font-family="Times,serif" font-size="14.00">b</text>
</g>
<!-- 3 -->
<g id="node4" class="node"><title>3</title>
<ellipse fill="lightblue" stroke="black" cx="18" cy="-378" rx="18" ry="18"/>
<text text-anchor="middle" x="18" y="-374.3" font-family="Times,serif" font-size="14.00">3</text>
</g>
<!-- 3&#45;&gt;2 -->
<g id="edge5" class="edge"><title>3&#45;&gt;2</title>
<path fill="none" stroke="black" d="M18,-359.597C18,-347.746 18,-331.817 18,-318.292"/>
<polygon fill="black" stroke="black" points="21.5001,-318.084 18,-308.084 14.5001,-318.084 21.5001,-318.084"/>
<text text-anchor="middle" x="21.5" y="-330.3" font-family="Times,serif" font-size="14.00">b</text>
</g>
<!-- 3&#45;&gt;3 -->
<g id="edge6" class="edge"><title>3&#45;&gt;3</title>
<path fill="none" stroke="black" d="M34.2903,-385.668C44.3892,-387.517 54,-384.961 54,-378 54,-373.541 50.0557,-370.889 44.5656,-370.045"/>
<polygon fill="black" stroke="black" points="44.1887,-366.554 34.2903,-370.332 44.384,-373.552 44.1887,-366.554"/>
<text text-anchor="middle" x="57.5" y="-374.3" font-family="Times,serif" font-size="14.00">a</text>
</g>
<!-- 4&#45;&gt;1 -->
<g id="edge7" class="edge"><title>4&#45;&gt;1</title>
<path fill="none" stroke="black" d="M42.8733,-176.578C39.0298,-163.766 34.036,-147.12 29.8967,-133.322"/>
<polygon fill="black" stroke="black" points="33.1571,-132.01 26.9311,-123.437 26.4523,-134.021 33.1571,-132.01"/>
<text text-anchor="middle" x="45.5" y="-146.3" font-family="Times,serif" font-size="14.00">b,a</text>
</g>
</g>
</svg>
