<?xml version="1.0" encoding="UTF-8" standalone="no"?>
<!DOCTYPE svg PUBLIC "-//W3C//DTD SVG 1.1//EN"
 "http://www.w3.org/Graphics/SVG/1.1/DTD/svg11.dtd">
<!-- Generated by graphviz version 2.36.0 (20140111.2315)
 -->
<!-- Title: %3 Pages: 1 -->
<svg width="109pt" height="316pt"
 viewBox="0.00 0.00 109.00 316.00" xmlns="http://www.w3.org/2000/svg" xmlns:xlink="http://www.w3.org/1999/xlink">
<g id="graph0" class="graph" transform="scale(1 1) rotate(0) translate(4 312)">
<title>%3</title>
<polygon fill="white" stroke="none" points="-4,4 -4,-312 105,-312 105,4 -4,4"/>
<!-- 0 -->
<g id="node1" class="node"><title>0</title>
<ellipse fill="lightblue" stroke="black" cx="72" cy="-286" rx="17.5909" ry="18"/>
<ellipse fill="none" stroke="black" cx="72" cy="-286" rx="21.5" ry="22"/>
<text text-anchor="middle" x="72" y="-282.3" font-family="Times,serif" font-size="14.00">0</text>
</g>
<!-- 1 -->
<g id="node2" class="node"><title>1</title>
<ellipse fill="lightblue" stroke="black" cx="18" cy="-194" rx="18" ry="18"/>
<text text-anchor="middle" x="18" y="-190.3" font-family="Times,serif" font-size="14.00">1</text>
</g>
<!-- 0&#45;&gt;1 -->
<g id="edge1" class="edge"><title>0&#45;&gt;1</title>
<path fill="none" stroke="black" d="M61.0723,-266.787C52.7523,-252.921 41.231,-233.718 32.1976,-218.663"/>
<polygon fill="black" stroke="black" points="35.0916,-216.683 26.9454,-209.909 29.0892,-220.285 35.0916,-216.683"/>
<text text-anchor="middle" x="51.5" y="-234.3" font-family="Times,serif" font-size="14.00">b</text>
</g>
<!-- 2 -->
<g id="node3" class="node"><title>2</title>
<ellipse fill="lightblue" stroke="black" cx="48" cy="-106" rx="18" ry="18"/>
<text text-anchor="middle" x="48" y="-102.3" font-family="Times,serif" font-size="14.00">2</text>
</g>
<!-- 0&#45;&gt;2 -->
<g id="edge2" class="edge"><title>0&#45;&gt;2</title>
<path fill="none" stroke="black" d="M73.4077,-263.941C74.466,-241.866 74.9908,-206.253 70,-176 67.5615,-161.219 62.6273,-145.25 58.0487,-132.401"/>
<polygon fill="black" stroke="black" points="61.2649,-131.007 54.5074,-122.847 54.7013,-133.44 61.2649,-131.007"/>
<text text-anchor="middle" x="76.5" y="-190.3" font-family="Times,serif" font-size="14.00">a</text>
</g>
<!-- 1&#45;&gt;1 -->
<g id="edge3" class="edge"><title>1&#45;&gt;1</title>
<path fill="none" stroke="black" d="M34.2903,-201.668C44.3892,-203.517 54,-200.961 54,-194 54,-189.541 50.0557,-186.889 44.5656,-186.045"/>
<polygon fill="black" stroke="black" points="44.1887,-182.554 34.2903,-186.332 44.384,-189.552 44.1887,-182.554"/>
<text text-anchor="middle" x="57.5" y="-190.3" font-family="Times,serif" font-size="14.00">a</text>
</g>
<!-- 1&#45;&gt;2 -->
<g id="edge4" class="edge"><title>1&#45;&gt;2</title>
<path fill="none" stroke="black" d="M16.5293,-175.946C16.2502,-165.782 16.9607,-152.8 21,-142 22.9332,-136.831 25.9106,-131.805 29.193,-127.249"/>
<polygon fill="black" stroke="black" points="32.1602,-129.143 35.6868,-119.152 26.6997,-124.763 32.1602,-129.143"/>
<text text-anchor="middle" x="24.5" y="-146.3" font-family="Times,serif" font-size="14.00">b</text>
</g>
<!-- 2&#45;&gt;1 -->
<g id="edge5" class="edge"><title>2&#45;&gt;1</title>
<path fill="none" stroke="black" d="M42.3825,-123.103C38.0733,-135.457 32.0378,-152.758 27.0499,-167.057"/>
<polygon fill="black" stroke="black" points="23.6319,-166.229 23.6428,-176.824 30.2413,-168.535 23.6319,-166.229"/>
<text text-anchor="middle" x="39.5" y="-146.3" font-family="Times,serif" font-size="14.00">b</text>
</g>
<!-- 3 -->
<g id="node4" class="node"><title>3</title>
<ellipse fill="green" stroke="black" cx="48" cy="-18" rx="18" ry="18"/>
<text text-anchor="middle" x="48" y="-14.3" font-family="Times,serif" font-size="14.00">3</text>
</g>
<!-- 2&#45;&gt;3 -->
<g id="edge6" class="edge"><title>2&#45;&gt;3</title>
<path fill="none" stroke="black" d="M48,-87.5966C48,-75.7459 48,-59.8169 48,-46.2917"/>
<polygon fill="black" stroke="black" points="51.5001,-46.084 48,-36.084 44.5001,-46.084 51.5001,-46.084"/>
<text text-anchor="middle" x="51.5" y="-58.3" font-family="Times,serif" font-size="14.00">a</text>
</g>
<!-- 3&#45;&gt;3 -->
<g id="edge7" class="edge"><title>3&#45;&gt;3</title>
<path fill="none" stroke="black" d="M64.2903,-25.6679C74.3892,-27.5169 84,-24.9609 84,-18 84,-13.5406 80.0557,-10.8891 74.5656,-10.0454"/>
<polygon fill="black" stroke="black" points="74.1887,-6.55441 64.2903,-10.3321 74.384,-13.5517 74.1887,-6.55441"/>
<text text-anchor="middle" x="92.5" y="-14.3" font-family="Times,serif" font-size="14.00">b,a</text>
</g>
</g>
</svg>
