<?xml version="1.0" encoding="UTF-8" standalone="no"?>
<!DOCTYPE svg PUBLIC "-//W3C//DTD SVG 1.1//EN"
 "http://www.w3.org/Graphics/SVG/1.1/DTD/svg11.dtd">
<!-- Generated by graphviz version 2.36.0 (20140111.2315)
 -->
<!-- Title: %3 Pages: 1 -->
<svg width="150pt" height="316pt"
 viewBox="0.00 0.00 150.00 316.00" xmlns="http://www.w3.org/2000/svg" xmlns:xlink="http://www.w3.org/1999/xlink">
<g id="graph0" class="graph" transform="scale(1 1) rotate(0) translate(4 312)">
<title>%3</title>
<polygon fill="white" stroke="none" points="-4,4 -4,-312 146,-312 146,4 -4,4"/>
<!-- 0 -->
<g id="node1" class="node"><title>0</title>
<ellipse fill="lightblue" stroke="black" cx="67" cy="-198" rx="17.5909" ry="18"/>
<ellipse fill="none" stroke="black" cx="67" cy="-198" rx="21.5" ry="22"/>
<text text-anchor="middle" x="67" y="-194.3" font-family="Times,serif" font-size="14.00">0</text>
</g>
<!-- 0&#45;&gt;0 -->
<g id="edge1" class="edge"><title>0&#45;&gt;0</title>
<path fill="none" stroke="black" d="M87.0663,-206.734C97.0736,-207.943 106,-205.031 106,-198 106,-193.496 102.337,-190.682 97.0725,-189.559"/>
<polygon fill="black" stroke="black" points="97.1646,-186.061 87.0663,-189.266 96.9594,-193.057 97.1646,-186.061"/>
<text text-anchor="middle" x="109.5" y="-194.3" font-family="Times,serif" font-size="14.00">b</text>
</g>
<!-- 4 -->
<g id="node5" class="node"><title>4</title>
<ellipse fill="green" stroke="black" cx="97" cy="-106" rx="18" ry="18"/>
<text text-anchor="middle" x="97" y="-102.3" font-family="Times,serif" font-size="14.00">4</text>
</g>
<!-- 0&#45;&gt;4 -->
<g id="edge2" class="edge"><title>0&#45;&gt;4</title>
<path fill="none" stroke="black" d="M65.2561,-176.033C65.0938,-165.514 66.0028,-152.757 70,-142 71.9222,-136.827 74.8947,-131.799 78.1759,-127.242"/>
<polygon fill="black" stroke="black" points="81.1431,-129.137 84.671,-119.147 75.6832,-124.756 81.1431,-129.137"/>
<text text-anchor="middle" x="73.5" y="-146.3" font-family="Times,serif" font-size="14.00">a</text>
</g>
<!-- 1 -->
<g id="node2" class="node"><title>1</title>
<ellipse fill="lightblue" stroke="black" cx="18" cy="-106" rx="18" ry="18"/>
<text text-anchor="middle" x="18" y="-102.3" font-family="Times,serif" font-size="14.00">1</text>
</g>
<!-- 1&#45;&gt;1 -->
<g id="edge3" class="edge"><title>1&#45;&gt;1</title>
<path fill="none" stroke="black" d="M34.2903,-113.668C44.3892,-115.517 54,-112.961 54,-106 54,-101.541 50.0557,-98.8891 44.5656,-98.0454"/>
<polygon fill="black" stroke="black" points="44.1887,-94.5544 34.2903,-98.3321 44.384,-101.552 44.1887,-94.5544"/>
<text text-anchor="middle" x="57.5" y="-102.3" font-family="Times,serif" font-size="14.00">b</text>
</g>
<!-- 2 -->
<g id="node3" class="node"><title>2</title>
<ellipse fill="lightblue" stroke="black" cx="67" cy="-18" rx="18" ry="18"/>
<text text-anchor="middle" x="67" y="-14.3" font-family="Times,serif" font-size="14.00">2</text>
</g>
<!-- 1&#45;&gt;2 -->
<g id="edge4" class="edge"><title>1&#45;&gt;2</title>
<path fill="none" stroke="black" d="M26.5351,-90.0199C33.9376,-77.0279 44.784,-57.9914 53.3844,-42.8968"/>
<polygon fill="black" stroke="black" points="56.4887,-44.5183 58.3983,-34.0969 50.4067,-41.0529 56.4887,-44.5183"/>
<text text-anchor="middle" x="49.5" y="-58.3" font-family="Times,serif" font-size="14.00">a</text>
</g>
<!-- 2&#45;&gt;2 -->
<g id="edge5" class="edge"><title>2&#45;&gt;2</title>
<path fill="none" stroke="black" d="M83.2903,-25.6679C93.3892,-27.5169 103,-24.9609 103,-18 103,-13.5406 99.0557,-10.8891 93.5656,-10.0454"/>
<polygon fill="black" stroke="black" points="93.1887,-6.55441 83.2903,-10.3321 93.384,-13.5517 93.1887,-6.55441"/>
<text text-anchor="middle" x="106.5" y="-14.3" font-family="Times,serif" font-size="14.00">b</text>
</g>
<!-- 2&#45;&gt;4 -->
<g id="edge6" class="edge"><title>2&#45;&gt;4</title>
<path fill="none" stroke="black" d="M72.6175,-35.1034C76.9267,-47.4565 82.9622,-64.7582 87.9501,-79.0569"/>
<polygon fill="black" stroke="black" points="84.7587,-80.5349 91.3572,-88.8241 91.3681,-78.2292 84.7587,-80.5349"/>
<text text-anchor="middle" x="87.5" y="-58.3" font-family="Times,serif" font-size="14.00">a</text>
</g>
<!-- 3 -->
<g id="node4" class="node"><title>3</title>
<ellipse fill="lightblue" stroke="black" cx="124" cy="-290" rx="18" ry="18"/>
<text text-anchor="middle" x="124" y="-286.3" font-family="Times,serif" font-size="14.00">3</text>
</g>
<!-- 3&#45;&gt;0 -->
<g id="edge7" class="edge"><title>3&#45;&gt;0</title>
<path fill="none" stroke="black" d="M114.588,-274.138C106.288,-261.033 93.9908,-241.617 83.9764,-225.805"/>
<polygon fill="black" stroke="black" points="86.6988,-223.562 78.3914,-216.986 80.7851,-227.307 86.6988,-223.562"/>
<text text-anchor="middle" x="103.5" y="-242.3" font-family="Times,serif" font-size="14.00">b</text>
</g>
<!-- 3&#45;&gt;4 -->
<g id="edge8" class="edge"><title>3&#45;&gt;4</title>
<path fill="none" stroke="black" d="M125.687,-271.975C127.476,-249.7 129.266,-209.557 123,-176 120.154,-160.758 114.18,-144.492 108.676,-131.584"/>
<polygon fill="black" stroke="black" points="111.874,-130.161 104.618,-122.44 105.476,-133 111.874,-130.161"/>
<text text-anchor="middle" x="130.5" y="-194.3" font-family="Times,serif" font-size="14.00">a</text>
</g>
<!-- 4&#45;&gt;0 -->
<g id="edge9" class="edge"><title>4&#45;&gt;0</title>
<path fill="none" stroke="black" d="M91.5629,-123.311C87.4764,-135.571 81.7659,-152.702 76.8793,-167.362"/>
<polygon fill="black" stroke="black" points="73.4999,-166.432 73.658,-177.026 80.1407,-168.646 73.4999,-166.432"/>
<text text-anchor="middle" x="87.5" y="-146.3" font-family="Times,serif" font-size="14.00">a</text>
</g>
<!-- 4&#45;&gt;2 -->
<g id="edge10" class="edge"><title>4&#45;&gt;2</title>
<path fill="none" stroke="black" d="M84.6868,-92.8476C79.1568,-86.5807 73.1724,-78.4818 70,-70 67.223,-62.5753 66.0193,-54.1186 65.6289,-46.2556"/>
<polygon fill="black" stroke="black" points="69.1269,-46.0191 65.5293,-36.0538 62.1272,-46.0876 69.1269,-46.0191"/>
<text text-anchor="middle" x="73.5" y="-58.3" font-family="Times,serif" font-size="14.00">b</text>
</g>
</g>
</svg>
