<?xml version="1.0" encoding="UTF-8" standalone="no"?>
<!DOCTYPE svg PUBLIC "-//W3C//DTD SVG 1.1//EN"
 "http://www.w3.org/Graphics/SVG/1.1/DTD/svg11.dtd">
<!-- Generated by graphviz version 2.36.0 (20140111.2315)
 -->
<!-- Title: %3 Pages: 1 -->
<svg width="160pt" height="228pt"
 viewBox="0.00 0.00 160.00 228.00" xmlns="http://www.w3.org/2000/svg" xmlns:xlink="http://www.w3.org/1999/xlink">
<g id="graph0" class="graph" transform="scale(1 1) rotate(0) translate(4 224)">
<title>%3</title>
<polygon fill="white" stroke="none" points="-4,4 -4,-224 156,-224 156,4 -4,4"/>
<!-- 0 -->
<g id="node1" class="node"><title>0</title>
<ellipse fill="lightblue" stroke="black" cx="22" cy="-198" rx="17.5909" ry="18"/>
<ellipse fill="none" stroke="black" cx="22" cy="-198" rx="21.5" ry="22"/>
<text text-anchor="middle" x="22" y="-194.3" font-family="Times,serif" font-size="14.00">0</text>
</g>
<!-- 2 -->
<g id="node3" class="node"><title>2</title>
<ellipse fill="lightblue" stroke="black" cx="22" cy="-106" rx="18" ry="18"/>
<text text-anchor="middle" x="22" y="-102.3" font-family="Times,serif" font-size="14.00">2</text>
</g>
<!-- 0&#45;&gt;2 -->
<g id="edge1" class="edge"><title>0&#45;&gt;2</title>
<path fill="none" stroke="black" d="M22,-175.671C22,-163.284 22,-147.552 22,-134.272"/>
<polygon fill="black" stroke="black" points="25.5001,-134.258 22,-124.258 18.5001,-134.258 25.5001,-134.258"/>
<text text-anchor="middle" x="30.5" y="-146.3" font-family="Times,serif" font-size="14.00">b,a</text>
</g>
<!-- 1 -->
<g id="node2" class="node"><title>1</title>
<ellipse fill="lightblue" stroke="black" cx="22" cy="-18" rx="18" ry="18"/>
<text text-anchor="middle" x="22" y="-14.3" font-family="Times,serif" font-size="14.00">1</text>
</g>
<!-- 1&#45;&gt;1 -->
<g id="edge2" class="edge"><title>1&#45;&gt;1</title>
<path fill="none" stroke="black" d="M38.2903,-25.6679C48.3892,-27.5169 58,-24.9609 58,-18 58,-13.5406 54.0557,-10.8891 48.5656,-10.0454"/>
<polygon fill="black" stroke="black" points="48.1887,-6.55441 38.2903,-10.3321 48.384,-13.5517 48.1887,-6.55441"/>
<text text-anchor="middle" x="61.5" y="-14.3" font-family="Times,serif" font-size="14.00">a</text>
</g>
<!-- 1&#45;&gt;2 -->
<g id="edge3" class="edge"><title>1&#45;&gt;2</title>
<path fill="none" stroke="black" d="M22,-36.084C22,-47.8607 22,-63.7741 22,-77.342"/>
<polygon fill="black" stroke="black" points="18.5001,-77.5966 22,-87.5966 25.5001,-77.5967 18.5001,-77.5966"/>
<text text-anchor="middle" x="25.5" y="-58.3" font-family="Times,serif" font-size="14.00">b</text>
</g>
<!-- 2&#45;&gt;1 -->
<g id="edge4" class="edge"><title>2&#45;&gt;1</title>
<path fill="none" stroke="black" d="M15.8003,-88.8629C13.8558,-83.0135 11.966,-76.2957 11,-70 9.92147,-62.9712 9.92147,-61.0288 11,-54 11.4528,-51.0489 12.1086,-48.005 12.8779,-45.0013"/>
<polygon fill="black" stroke="black" points="16.3155,-45.7194 15.8003,-35.1371 9.60382,-43.7309 16.3155,-45.7194"/>
<text text-anchor="middle" x="14.5" y="-58.3" font-family="Times,serif" font-size="14.00">b</text>
</g>
<!-- 2&#45;&gt;2 -->
<g id="edge5" class="edge"><title>2&#45;&gt;2</title>
<path fill="none" stroke="black" d="M38.2903,-113.668C48.3892,-115.517 58,-112.961 58,-106 58,-101.541 54.0557,-98.8891 48.5656,-98.0454"/>
<polygon fill="black" stroke="black" points="48.1887,-94.5544 38.2903,-98.3321 48.384,-101.552 48.1887,-94.5544"/>
<text text-anchor="middle" x="61.5" y="-102.3" font-family="Times,serif" font-size="14.00">a</text>
</g>
<!-- 3 -->
<g id="node4" class="node"><title>3</title>
<ellipse fill="lightblue" stroke="black" cx="92" cy="-198" rx="18" ry="18"/>
<text text-anchor="middle" x="92" y="-194.3" font-family="Times,serif" font-size="14.00">3</text>
</g>
<!-- 3&#45;&gt;3 -->
<g id="edge6" class="edge"><title>3&#45;&gt;3</title>
<path fill="none" stroke="black" d="M108.29,-206.365C118.389,-208.382 128,-205.594 128,-198 128,-193.135 124.056,-190.243 118.566,-189.322"/>
<polygon fill="black" stroke="black" points="118.179,-185.832 108.29,-189.635 118.392,-192.829 118.179,-185.832"/>
<text text-anchor="middle" x="131.5" y="-194.3" font-family="Times,serif" font-size="14.00">a</text>
</g>
<!-- 4 -->
<g id="node5" class="node"><title>4</title>
<ellipse fill="green" stroke="black" cx="109" cy="-106" rx="18" ry="18"/>
<text text-anchor="middle" x="109" y="-102.3" font-family="Times,serif" font-size="14.00">4</text>
</g>
<!-- 3&#45;&gt;4 -->
<g id="edge7" class="edge"><title>3&#45;&gt;4</title>
<path fill="none" stroke="black" d="M86.8129,-180.324C84.1833,-169.255 82.2559,-154.515 86,-142 87.3494,-137.49 89.4875,-133.022 91.9291,-128.863"/>
<polygon fill="black" stroke="black" points="94.9596,-130.627 97.5705,-120.359 89.1262,-126.757 94.9596,-130.627"/>
<text text-anchor="middle" x="89.5" y="-146.3" font-family="Times,serif" font-size="14.00">b</text>
</g>
<!-- 4&#45;&gt;3 -->
<g id="edge8" class="edge"><title>4&#45;&gt;3</title>
<path fill="none" stroke="black" d="M105.817,-123.852C103.375,-136.78 99.9548,-154.886 97.1283,-169.85"/>
<polygon fill="black" stroke="black" points="93.6145,-169.596 95.1976,-180.072 100.493,-170.895 93.6145,-169.596"/>
<text text-anchor="middle" x="105.5" y="-146.3" font-family="Times,serif" font-size="14.00">a</text>
</g>
<!-- 4&#45;&gt;4 -->
<g id="edge9" class="edge"><title>4&#45;&gt;4</title>
<path fill="none" stroke="black" d="M125.29,-113.668C135.389,-115.517 145,-112.961 145,-106 145,-101.541 141.056,-98.8891 135.566,-98.0454"/>
<polygon fill="black" stroke="black" points="135.189,-94.5544 125.29,-98.3321 135.384,-101.552 135.189,-94.5544"/>
<text text-anchor="middle" x="148.5" y="-102.3" font-family="Times,serif" font-size="14.00">b</text>
</g>
</g>
</svg>
