<?xml version="1.0" encoding="UTF-8" standalone="no"?>
<!DOCTYPE svg PUBLIC "-//W3C//DTD SVG 1.1//EN"
 "http://www.w3.org/Graphics/SVG/1.1/DTD/svg11.dtd">
<!-- Generated by graphviz version 2.36.0 (20140111.2315)
 -->
<!-- Title: %3 Pages: 1 -->
<svg width="84pt" height="316pt"
 viewBox="0.00 0.00 84.00 316.00" xmlns="http://www.w3.org/2000/svg" xmlns:xlink="http://www.w3.org/1999/xlink">
<g id="graph0" class="graph" transform="scale(1 1) rotate(0) translate(4 312)">
<title>%3</title>
<polygon fill="white" stroke="none" points="-4,4 -4,-312 80,-312 80,4 -4,4"/>
<!-- 0 -->
<g id="node1" class="node"><title>0</title>
<ellipse fill="lightblue" stroke="black" cx="58" cy="-290" rx="18" ry="18"/>
<text text-anchor="middle" x="58" y="-286.3" font-family="Times,serif" font-size="14.00">0</text>
</g>
<!-- 2 -->
<g id="node3" class="node"><title>2</title>
<ellipse fill="green" stroke="black" cx="28" cy="-202" rx="18" ry="18"/>
<text text-anchor="middle" x="28" y="-198.3" font-family="Times,serif" font-size="14.00">2</text>
</g>
<!-- 0&#45;&gt;2 -->
<g id="edge1" class="edge"><title>0&#45;&gt;2</title>
<path fill="none" stroke="black" d="M45.6868,-276.848C40.1568,-270.581 34.1724,-262.482 31,-254 28.223,-246.575 27.0193,-238.119 26.6289,-230.256"/>
<polygon fill="black" stroke="black" points="30.1269,-230.019 26.5293,-220.054 23.1272,-230.088 30.1269,-230.019"/>
<text text-anchor="middle" x="34.5" y="-242.3" font-family="Times,serif" font-size="14.00">b</text>
</g>
<!-- 3 -->
<g id="node4" class="node"><title>3</title>
<ellipse fill="lightblue" stroke="black" cx="51" cy="-110" rx="17.5909" ry="18"/>
<ellipse fill="none" stroke="black" cx="51" cy="-110" rx="21.5" ry="22"/>
<text text-anchor="middle" x="51" y="-106.3" font-family="Times,serif" font-size="14.00">3</text>
</g>
<!-- 0&#45;&gt;3 -->
<g id="edge2" class="edge"><title>0&#45;&gt;3</title>
<path fill="none" stroke="black" d="M57.6488,-271.9C57.1903,-251.114 56.2909,-214.975 55,-184 54.4302,-170.328 53.6309,-155.224 52.8964,-142.319"/>
<polygon fill="black" stroke="black" points="56.3755,-141.857 52.3012,-132.077 49.3873,-142.263 56.3755,-141.857"/>
<text text-anchor="middle" x="59.5" y="-198.3" font-family="Times,serif" font-size="14.00">a</text>
</g>
<!-- 1 -->
<g id="node2" class="node"><title>1</title>
<ellipse fill="lightblue" stroke="black" cx="18" cy="-18" rx="18" ry="18"/>
<text text-anchor="middle" x="18" y="-14.3" font-family="Times,serif" font-size="14.00">1</text>
</g>
<!-- 1&#45;&gt;1 -->
<g id="edge3" class="edge"><title>1&#45;&gt;1</title>
<path fill="none" stroke="black" d="M34.2903,-25.6679C44.3892,-27.5169 54,-24.9609 54,-18 54,-13.5406 50.0557,-10.8891 44.5656,-10.0454"/>
<polygon fill="black" stroke="black" points="44.1887,-6.55441 34.2903,-10.3321 44.384,-13.5517 44.1887,-6.55441"/>
<text text-anchor="middle" x="57.5" y="-14.3" font-family="Times,serif" font-size="14.00">a</text>
</g>
<!-- 1&#45;&gt;2 -->
<g id="edge4" class="edge"><title>1&#45;&gt;2</title>
<path fill="none" stroke="black" d="M15.6661,-35.8972C12.9715,-58.0327 9.34988,-98.0267 13,-132 14.5244,-146.189 17.764,-161.74 20.8436,-174.482"/>
<polygon fill="black" stroke="black" points="17.5137,-175.591 23.3518,-184.432 24.3013,-173.88 17.5137,-175.591"/>
<text text-anchor="middle" x="16.5" y="-106.3" font-family="Times,serif" font-size="14.00">b</text>
</g>
<!-- 2&#45;&gt;0 -->
<g id="edge5" class="edge"><title>2&#45;&gt;0</title>
<path fill="none" stroke="black" d="M33.6175,-219.103C37.9267,-231.457 43.9622,-248.758 48.9501,-263.057"/>
<polygon fill="black" stroke="black" points="45.7587,-264.535 52.3572,-272.824 52.3681,-262.229 45.7587,-264.535"/>
<text text-anchor="middle" x="48.5" y="-242.3" font-family="Times,serif" font-size="14.00">b</text>
</g>
<!-- 2&#45;&gt;3 -->
<g id="edge6" class="edge"><title>2&#45;&gt;3</title>
<path fill="none" stroke="black" d="M27.7603,-183.727C28.0137,-173.719 29.0137,-160.969 32,-150 33.009,-146.294 34.3701,-142.516 35.9029,-138.843"/>
<polygon fill="black" stroke="black" points="39.2106,-140.03 40.2375,-129.485 32.8588,-137.088 39.2106,-140.03"/>
<text text-anchor="middle" x="35.5" y="-154.3" font-family="Times,serif" font-size="14.00">a</text>
</g>
<!-- 3&#45;&gt;1 -->
<g id="edge7" class="edge"><title>3&#45;&gt;1</title>
<path fill="none" stroke="black" d="M43.6762,-89.0261C38.8784,-75.9411 32.5628,-58.7167 27.3959,-44.6252"/>
<polygon fill="black" stroke="black" points="30.6035,-43.206 23.8748,-35.0221 24.0313,-45.6158 30.6035,-43.206"/>
<text text-anchor="middle" x="39.5" y="-58.3" font-family="Times,serif" font-size="14.00">a</text>
</g>
<!-- 3&#45;&gt;2 -->
<g id="edge8" class="edge"><title>3&#45;&gt;2</title>
<path fill="none" stroke="black" d="M45.8259,-131.376C43.19,-141.744 39.9306,-154.545 37,-166 36.3094,-168.699 35.5877,-171.515 34.8662,-174.326"/>
<polygon fill="black" stroke="black" points="31.4106,-173.711 32.3115,-184.267 38.1903,-175.453 31.4106,-173.711"/>
<text text-anchor="middle" x="43.5" y="-154.3" font-family="Times,serif" font-size="14.00">b</text>
</g>
</g>
</svg>
