<?xml version="1.0" encoding="UTF-8" standalone="no"?>
<!DOCTYPE svg PUBLIC "-//W3C//DTD SVG 1.1//EN"
 "http://www.w3.org/Graphics/SVG/1.1/DTD/svg11.dtd">
<!-- Generated by graphviz version 2.36.0 (20140111.2315)
 -->
<!-- Title: %3 Pages: 1 -->
<svg width="125pt" height="316pt"
 viewBox="0.00 0.00 125.00 316.00" xmlns="http://www.w3.org/2000/svg" xmlns:xlink="http://www.w3.org/1999/xlink">
<g id="graph0" class="graph" transform="scale(1 1) rotate(0) translate(4 312)">
<title>%3</title>
<polygon fill="white" stroke="none" points="-4,4 -4,-312 121,-312 121,4 -4,4"/>
<!-- 0 -->
<g id="node1" class="node"><title>0</title>
<ellipse fill="lightblue" stroke="black" cx="21" cy="-198" rx="17.5909" ry="18"/>
<ellipse fill="none" stroke="black" cx="21" cy="-198" rx="21.5" ry="22"/>
<text text-anchor="middle" x="21" y="-194.3" font-family="Times,serif" font-size="14.00">0</text>
</g>
<!-- 0&#45;&gt;0 -->
<g id="edge1" class="edge"><title>0&#45;&gt;0</title>
<path fill="none" stroke="black" d="M41.0663,-206.734C51.0736,-207.943 60,-205.031 60,-198 60,-193.496 56.3366,-190.682 51.0725,-189.559"/>
<polygon fill="black" stroke="black" points="51.1646,-186.061 41.0663,-189.266 50.9594,-193.057 51.1646,-186.061"/>
<text text-anchor="middle" x="63.5" y="-194.3" font-family="Times,serif" font-size="14.00">a</text>
</g>
<!-- 3 -->
<g id="node4" class="node"><title>3</title>
<ellipse fill="green" stroke="black" cx="74" cy="-106" rx="18" ry="18"/>
<text text-anchor="middle" x="74" y="-102.3" font-family="Times,serif" font-size="14.00">3</text>
</g>
<!-- 0&#45;&gt;3 -->
<g id="edge2" class="edge"><title>0&#45;&gt;3</title>
<path fill="none" stroke="black" d="M31.7253,-178.787C39.8912,-164.921 51.1992,-145.718 60.0653,-130.663"/>
<polygon fill="black" stroke="black" points="63.1617,-132.302 65.2203,-121.909 57.1299,-128.75 63.1617,-132.302"/>
<text text-anchor="middle" x="55.5" y="-146.3" font-family="Times,serif" font-size="14.00">b</text>
</g>
<!-- 1 -->
<g id="node2" class="node"><title>1</title>
<ellipse fill="lightblue" stroke="black" cx="78" cy="-290" rx="18" ry="18"/>
<text text-anchor="middle" x="78" y="-286.3" font-family="Times,serif" font-size="14.00">1</text>
</g>
<!-- 1&#45;&gt;0 -->
<g id="edge3" class="edge"><title>1&#45;&gt;0</title>
<path fill="none" stroke="black" d="M68.5876,-274.138C60.2878,-261.033 47.9908,-241.617 37.9764,-225.805"/>
<polygon fill="black" stroke="black" points="40.6988,-223.562 32.3914,-216.986 34.7851,-227.307 40.6988,-223.562"/>
<text text-anchor="middle" x="57.5" y="-242.3" font-family="Times,serif" font-size="14.00">b</text>
</g>
<!-- 1&#45;&gt;3 -->
<g id="edge4" class="edge"><title>1&#45;&gt;3</title>
<path fill="none" stroke="black" d="M78.0327,-271.767C78.0321,-249.606 77.8874,-209.929 77,-176 76.6411,-162.279 76.0034,-147.033 75.4079,-134.369"/>
<polygon fill="black" stroke="black" points="78.8857,-133.826 74.9035,-124.008 71.894,-134.166 78.8857,-133.826"/>
<text text-anchor="middle" x="80.5" y="-194.3" font-family="Times,serif" font-size="14.00">a</text>
</g>
<!-- 2 -->
<g id="node3" class="node"><title>2</title>
<ellipse fill="lightblue" stroke="black" cx="42" cy="-18" rx="18" ry="18"/>
<text text-anchor="middle" x="42" y="-14.3" font-family="Times,serif" font-size="14.00">2</text>
</g>
<!-- 2&#45;&gt;0 -->
<g id="edge5" class="edge"><title>2&#45;&gt;0</title>
<path fill="none" stroke="black" d="M38.6145,-35.9493C35.9382,-49.8775 32.2844,-70.1503 30,-88 26.665,-114.059 24.306,-143.789 22.8421,-165.611"/>
<polygon fill="black" stroke="black" points="19.3465,-165.432 22.1951,-175.637 26.3319,-165.883 19.3465,-165.432"/>
<text text-anchor="middle" x="38.5" y="-102.3" font-family="Times,serif" font-size="14.00">b,a</text>
</g>
<!-- 3&#45;&gt;2 -->
<g id="edge6" class="edge"><title>3&#45;&gt;2</title>
<path fill="none" stroke="black" d="M67.981,-88.8241C63.3774,-76.4516 56.9381,-59.1462 51.6221,-44.8593"/>
<polygon fill="black" stroke="black" points="54.7596,-43.255 47.992,-35.1034 48.1991,-45.6962 54.7596,-43.255"/>
<text text-anchor="middle" x="63.5" y="-58.3" font-family="Times,serif" font-size="14.00">b</text>
</g>
<!-- 3&#45;&gt;3 -->
<g id="edge7" class="edge"><title>3&#45;&gt;3</title>
<path fill="none" stroke="black" d="M90.2903,-113.668C100.389,-115.517 110,-112.961 110,-106 110,-101.541 106.056,-98.8891 100.566,-98.0454"/>
<polygon fill="black" stroke="black" points="100.189,-94.5544 90.2903,-98.3321 100.384,-101.552 100.189,-94.5544"/>
<text text-anchor="middle" x="113.5" y="-102.3" font-family="Times,serif" font-size="14.00">a</text>
</g>
</g>
</svg>
