<?xml version="1.0" encoding="UTF-8" standalone="no"?>
<!DOCTYPE svg PUBLIC "-//W3C//DTD SVG 1.1//EN"
 "http://www.w3.org/Graphics/SVG/1.1/DTD/svg11.dtd">
<!-- Generated by graphviz version 2.36.0 (20140111.2315)
 -->
<!-- Title: %3 Pages: 1 -->
<svg width="154pt" height="228pt"
 viewBox="0.00 0.00 153.98 228.00" xmlns="http://www.w3.org/2000/svg" xmlns:xlink="http://www.w3.org/1999/xlink">
<g id="graph0" class="graph" transform="scale(1 1) rotate(0) translate(4 224)">
<title>%3</title>
<polygon fill="white" stroke="none" points="-4,4 -4,-224 149.983,-224 149.983,4 -4,4"/>
<!-- 0 -->
<g id="node1" class="node"><title>0</title>
<ellipse fill="lightblue" stroke="black" cx="53.9835" cy="-202" rx="18" ry="18"/>
<text text-anchor="middle" x="53.9835" y="-198.3" font-family="Times,serif" font-size="14.00">0</text>
</g>
<!-- 2 -->
<g id="node3" class="node"><title>2</title>
<ellipse fill="lightblue" stroke="black" cx="30.9835" cy="-22" rx="18" ry="18"/>
<text text-anchor="middle" x="30.9835" y="-18.3" font-family="Times,serif" font-size="14.00">2</text>
</g>
<!-- 0&#45;&gt;2 -->
<g id="edge1" class="edge"><title>0&#45;&gt;2</title>
<path fill="none" stroke="black" d="M40.018,-190.133C32.4689,-183.725 23.4054,-175.104 16.9835,-166 7.46324,-152.503 5.39004,-148.161 1.98346,-132 -4.21588,-102.59 7.44412,-69.2619 17.7759,-47.2874"/>
<polygon fill="black" stroke="black" points="21.0523,-48.5584 22.3606,-38.0447 14.7814,-45.4478 21.0523,-48.5584"/>
<text text-anchor="middle" x="5.48346" y="-110.3" font-family="Times,serif" font-size="14.00">b</text>
</g>
<!-- 3 -->
<g id="node4" class="node"><title>3</title>
<ellipse fill="lightblue" stroke="black" cx="87.9835" cy="-114" rx="18" ry="18"/>
<text text-anchor="middle" x="87.9835" y="-110.3" font-family="Times,serif" font-size="14.00">3</text>
</g>
<!-- 0&#45;&gt;3 -->
<g id="edge2" class="edge"><title>0&#45;&gt;3</title>
<path fill="none" stroke="black" d="M60.3786,-184.824C65.3175,-172.332 72.2448,-154.81 77.9242,-140.444"/>
<polygon fill="black" stroke="black" points="81.1952,-141.69 81.617,-131.103 74.6855,-139.116 81.1952,-141.69"/>
<text text-anchor="middle" x="77.4835" y="-154.3" font-family="Times,serif" font-size="14.00">a</text>
</g>
<!-- 1 -->
<g id="node2" class="node"><title>1</title>
<ellipse fill="green" stroke="black" cx="123.983" cy="-22" rx="17.5909" ry="18"/>
<ellipse fill="none" stroke="black" cx="123.983" cy="-22" rx="21.5" ry="22"/>
<text text-anchor="middle" x="123.983" y="-18.3" font-family="Times,serif" font-size="14.00">1</text>
</g>
<!-- 1&#45;&gt;0 -->
<g id="edge3" class="edge"><title>1&#45;&gt;0</title>
<path fill="none" stroke="black" d="M126.06,-44.0138C127.448,-66.6745 127.187,-103.35 114.983,-132 106.341,-152.29 89.3035,-170.746 75.4262,-183.454"/>
<polygon fill="black" stroke="black" points="72.9052,-181.011 67.708,-190.243 77.5283,-186.267 72.9052,-181.011"/>
<text text-anchor="middle" x="127.483" y="-110.3" font-family="Times,serif" font-size="14.00">a</text>
</g>
<!-- 1&#45;&gt;3 -->
<g id="edge4" class="edge"><title>1&#45;&gt;3</title>
<path fill="none" stroke="black" d="M116.096,-42.7196C110.864,-55.799 103.945,-73.0963 98.2804,-87.2576"/>
<polygon fill="black" stroke="black" points="94.8838,-86.3251 94.4195,-96.9098 101.383,-88.9249 94.8838,-86.3251"/>
<text text-anchor="middle" x="111.483" y="-66.3" font-family="Times,serif" font-size="14.00">b</text>
</g>
<!-- 2&#45;&gt;0 -->
<g id="edge5" class="edge"><title>2&#45;&gt;0</title>
<path fill="none" stroke="black" d="M32.8776,-40.0088C35.2984,-61.4695 39.6914,-99.5029 43.9835,-132 45.816,-145.875 48.0332,-161.292 49.9137,-174.028"/>
<polygon fill="black" stroke="black" points="46.4642,-174.627 51.3982,-184.003 53.3879,-173.597 46.4642,-174.627"/>
<text text-anchor="middle" x="52.4835" y="-110.3" font-family="Times,serif" font-size="14.00">b,a</text>
</g>
<!-- 3&#45;&gt;1 -->
<g id="edge6" class="edge"><title>3&#45;&gt;1</title>
<path fill="none" stroke="black" d="M89.1477,-95.9538C90.2871,-85.7927 92.5385,-72.8101 96.9835,-62 99.0064,-57.0803 101.727,-52.1603 104.665,-47.5534"/>
<polygon fill="black" stroke="black" points="107.657,-49.3808 110.456,-39.1625 101.896,-45.4048 107.657,-49.3808"/>
<text text-anchor="middle" x="100.483" y="-66.3" font-family="Times,serif" font-size="14.00">a</text>
</g>
<!-- 3&#45;&gt;2 -->
<g id="edge7" class="edge"><title>3&#45;&gt;2</title>
<path fill="none" stroke="black" d="M78.5711,-98.1383C69.6067,-83.9841 55.9795,-62.4675 45.6017,-46.0814"/>
<polygon fill="black" stroke="black" points="48.5282,-44.1606 40.2207,-37.5851 42.6144,-47.906 48.5282,-44.1606"/>
<text text-anchor="middle" x="67.4835" y="-66.3" font-family="Times,serif" font-size="14.00">b</text>
</g>
</g>
</svg>
