<?xml version="1.0" encoding="UTF-8" standalone="no"?>
<!DOCTYPE svg PUBLIC "-//W3C//DTD SVG 1.1//EN"
 "http://www.w3.org/Graphics/SVG/1.1/DTD/svg11.dtd">
<!-- Generated by graphviz version 2.36.0 (20140111.2315)
 -->
<!-- Title: %3 Pages: 1 -->
<svg width="147pt" height="228pt"
 viewBox="0.00 0.00 147.00 228.00" xmlns="http://www.w3.org/2000/svg" xmlns:xlink="http://www.w3.org/1999/xlink">
<g id="graph0" class="graph" transform="scale(1 1) rotate(0) translate(4 224)">
<title>%3</title>
<polygon fill="white" stroke="none" points="-4,4 -4,-224 143,-224 143,4 -4,4"/>
<!-- 0 -->
<g id="node1" class="node"><title>0</title>
<ellipse fill="lightblue" stroke="black" cx="86" cy="-22" rx="18" ry="18"/>
<text text-anchor="middle" x="86" y="-18.3" font-family="Times,serif" font-size="14.00">0</text>
</g>
<!-- 0&#45;&gt;0 -->
<g id="edge1" class="edge"><title>0&#45;&gt;0</title>
<path fill="none" stroke="black" d="M102.29,-30.365C112.389,-32.3821 122,-29.5938 122,-22 122,-17.1353 118.056,-14.2427 112.566,-13.3222"/>
<polygon fill="black" stroke="black" points="112.179,-9.83225 102.29,-13.635 112.392,-16.829 112.179,-9.83225"/>
<text text-anchor="middle" x="130.5" y="-18.3" font-family="Times,serif" font-size="14.00">b,a</text>
</g>
<!-- 1 -->
<g id="node2" class="node"><title>1</title>
<ellipse fill="lightblue" stroke="black" cx="22" cy="-22" rx="17.5909" ry="18"/>
<ellipse fill="none" stroke="black" cx="22" cy="-22" rx="21.5" ry="22"/>
<text text-anchor="middle" x="22" y="-18.3" font-family="Times,serif" font-size="14.00">1</text>
</g>
<!-- 3 -->
<g id="node4" class="node"><title>3</title>
<ellipse fill="green" stroke="black" cx="46" cy="-114" rx="18" ry="18"/>
<text text-anchor="middle" x="46" y="-110.3" font-family="Times,serif" font-size="14.00">3</text>
</g>
<!-- 1&#45;&gt;3 -->
<g id="edge2" class="edge"><title>1&#45;&gt;3</title>
<path fill="none" stroke="black" d="M27.4694,-43.5104C30.879,-56.2961 35.2999,-72.8748 38.9685,-86.632"/>
<polygon fill="black" stroke="black" points="35.6395,-87.7321 41.598,-96.4926 42.4032,-85.9284 35.6395,-87.7321"/>
<text text-anchor="middle" x="45.5" y="-66.3" font-family="Times,serif" font-size="14.00">b,a</text>
</g>
<!-- 2 -->
<g id="node3" class="node"><title>2</title>
<ellipse fill="lightblue" stroke="black" cx="46" cy="-202" rx="18" ry="18"/>
<text text-anchor="middle" x="46" y="-198.3" font-family="Times,serif" font-size="14.00">2</text>
</g>
<!-- 2&#45;&gt;3 -->
<g id="edge3" class="edge"><title>2&#45;&gt;3</title>
<path fill="none" stroke="black" d="M46,-183.597C46,-171.746 46,-155.817 46,-142.292"/>
<polygon fill="black" stroke="black" points="49.5001,-142.084 46,-132.084 42.5001,-142.084 49.5001,-142.084"/>
<text text-anchor="middle" x="54.5" y="-154.3" font-family="Times,serif" font-size="14.00">b,a</text>
</g>
<!-- 3&#45;&gt;0 -->
<g id="edge4" class="edge"><title>3&#45;&gt;0</title>
<path fill="none" stroke="black" d="M52.9675,-97.3232C59.0103,-83.7269 67.8645,-63.8049 74.8852,-48.0083"/>
<polygon fill="black" stroke="black" points="78.1151,-49.3588 78.9782,-38.7991 71.7184,-46.5157 78.1151,-49.3588"/>
<text text-anchor="middle" x="71.5" y="-66.3" font-family="Times,serif" font-size="14.00">a</text>
</g>
<!-- 3&#45;&gt;1 -->
<g id="edge5" class="edge"><title>3&#45;&gt;1</title>
<path fill="none" stroke="black" d="M34.3342,-100.046C29.5177,-93.8409 24.4864,-86.0228 22,-78 19.6415,-70.39 18.8204,-61.898 18.785,-53.9074"/>
<polygon fill="black" stroke="black" points="22.2865,-53.9211 19.128,-43.8081 15.2905,-53.6835 22.2865,-53.9211"/>
<text text-anchor="middle" x="25.5" y="-66.3" font-family="Times,serif" font-size="14.00">b</text>
</g>
</g>
</svg>
