<?xml version="1.0" encoding="UTF-8" standalone="no"?>
<!DOCTYPE svg PUBLIC "-//W3C//DTD SVG 1.1//EN"
 "http://www.w3.org/Graphics/SVG/1.1/DTD/svg11.dtd">
<!-- Generated by graphviz version 2.36.0 (20140111.2315)
 -->
<!-- Title: %3 Pages: 1 -->
<svg width="112pt" height="316pt"
 viewBox="0.00 0.00 112.00 316.00" xmlns="http://www.w3.org/2000/svg" xmlns:xlink="http://www.w3.org/1999/xlink">
<g id="graph0" class="graph" transform="scale(1 1) rotate(0) translate(4 312)">
<title>%3</title>
<polygon fill="white" stroke="none" points="-4,4 -4,-312 108,-312 108,4 -4,4"/>
<!-- 0 -->
<g id="node1" class="node"><title>0</title>
<ellipse fill="green" stroke="black" cx="18" cy="-194" rx="18" ry="18"/>
<text text-anchor="middle" x="18" y="-190.3" font-family="Times,serif" font-size="14.00">0</text>
</g>
<!-- 0&#45;&gt;0 -->
<g id="edge1" class="edge"><title>0&#45;&gt;0</title>
<path fill="none" stroke="black" d="M34.2903,-201.668C44.3892,-203.517 54,-200.961 54,-194 54,-189.541 50.0557,-186.889 44.5656,-186.045"/>
<polygon fill="black" stroke="black" points="44.1887,-182.554 34.2903,-186.332 44.384,-189.552 44.1887,-182.554"/>
<text text-anchor="middle" x="57.5" y="-190.3" font-family="Times,serif" font-size="14.00">b</text>
</g>
<!-- 1 -->
<g id="node2" class="node"><title>1</title>
<ellipse fill="lightblue" stroke="black" cx="61" cy="-106" rx="18" ry="18"/>
<text text-anchor="middle" x="61" y="-102.3" font-family="Times,serif" font-size="14.00">1</text>
</g>
<!-- 0&#45;&gt;1 -->
<g id="edge2" class="edge"><title>0&#45;&gt;1</title>
<path fill="none" stroke="black" d="M25.6875,-177.625C32.0684,-164.863 41.2639,-146.472 48.6718,-131.656"/>
<polygon fill="black" stroke="black" points="51.8923,-133.041 53.234,-122.532 45.6313,-129.911 51.8923,-133.041"/>
<text text-anchor="middle" x="46.5" y="-146.3" font-family="Times,serif" font-size="14.00">a</text>
</g>
<!-- 1&#45;&gt;1 -->
<g id="edge3" class="edge"><title>1&#45;&gt;1</title>
<path fill="none" stroke="black" d="M77.2903,-113.668C87.3892,-115.517 97,-112.961 97,-106 97,-101.541 93.0557,-98.8891 87.5656,-98.0454"/>
<polygon fill="black" stroke="black" points="87.1887,-94.5544 77.2903,-98.3321 87.384,-101.552 87.1887,-94.5544"/>
<text text-anchor="middle" x="100.5" y="-102.3" font-family="Times,serif" font-size="14.00">a</text>
</g>
<!-- 2 -->
<g id="node3" class="node"><title>2</title>
<ellipse fill="lightblue" stroke="black" cx="37" cy="-18" rx="18" ry="18"/>
<text text-anchor="middle" x="37" y="-14.3" font-family="Times,serif" font-size="14.00">2</text>
</g>
<!-- 1&#45;&gt;2 -->
<g id="edge4" class="edge"><title>1&#45;&gt;2</title>
<path fill="none" stroke="black" d="M56.3726,-88.4183C52.9528,-76.164 48.2287,-59.2361 44.3017,-45.1645"/>
<polygon fill="black" stroke="black" points="47.6725,-44.2219 41.6132,-35.5308 40.9301,-46.1035 47.6725,-44.2219"/>
<text text-anchor="middle" x="54.5" y="-58.3" font-family="Times,serif" font-size="14.00">b</text>
</g>
<!-- 2&#45;&gt;0 -->
<g id="edge5" class="edge"><title>2&#45;&gt;0</title>
<path fill="none" stroke="black" d="M34.2572,-35.9776C32.0724,-49.9223 29.0506,-70.2034 27,-88 23.9683,-114.312 21.4874,-144.443 19.9038,-165.659"/>
<polygon fill="black" stroke="black" points="16.3955,-165.646 19.1593,-175.874 23.377,-166.155 16.3955,-165.646"/>
<text text-anchor="middle" x="30.5" y="-102.3" font-family="Times,serif" font-size="14.00">b</text>
</g>
<!-- 2&#45;&gt;2 -->
<g id="edge6" class="edge"><title>2&#45;&gt;2</title>
<path fill="none" stroke="black" d="M53.2903,-25.6679C63.3892,-27.5169 73,-24.9609 73,-18 73,-13.5406 69.0557,-10.8891 63.5656,-10.0454"/>
<polygon fill="black" stroke="black" points="63.1887,-6.55441 53.2903,-10.3321 63.384,-13.5517 63.1887,-6.55441"/>
<text text-anchor="middle" x="76.5" y="-14.3" font-family="Times,serif" font-size="14.00">a</text>
</g>
<!-- 3 -->
<g id="node4" class="node"><title>3</title>
<ellipse fill="lightblue" stroke="black" cx="72" cy="-286" rx="17.5909" ry="18"/>
<ellipse fill="none" stroke="black" cx="72" cy="-286" rx="21.5" ry="22"/>
<text text-anchor="middle" x="72" y="-282.3" font-family="Times,serif" font-size="14.00">3</text>
</g>
<!-- 3&#45;&gt;0 -->
<g id="edge7" class="edge"><title>3&#45;&gt;0</title>
<path fill="none" stroke="black" d="M61.0723,-266.787C52.7523,-252.921 41.231,-233.718 32.1976,-218.663"/>
<polygon fill="black" stroke="black" points="35.0916,-216.683 26.9454,-209.909 29.0892,-220.285 35.0916,-216.683"/>
<text text-anchor="middle" x="51.5" y="-234.3" font-family="Times,serif" font-size="14.00">a</text>
</g>
<!-- 3&#45;&gt;1 -->
<g id="edge8" class="edge"><title>3&#45;&gt;1</title>
<path fill="none" stroke="black" d="M72.3092,-263.664C72.4637,-241.666 72.2536,-206.389 70,-176 68.967,-162.07 67.0311,-146.647 65.2187,-133.922"/>
<polygon fill="black" stroke="black" points="68.6709,-133.341 63.7479,-123.96 61.746,-134.364 68.6709,-133.341"/>
<text text-anchor="middle" x="74.5" y="-190.3" font-family="Times,serif" font-size="14.00">b</text>
</g>
</g>
</svg>
