<?xml version="1.0" encoding="UTF-8" standalone="no"?>
<!DOCTYPE svg PUBLIC "-//W3C//DTD SVG 1.1//EN"
 "http://www.w3.org/Graphics/SVG/1.1/DTD/svg11.dtd">
<!-- Generated by graphviz version 2.36.0 (20140111.2315)
 -->
<!-- Title: %3 Pages: 1 -->
<svg width="159pt" height="316pt"
 viewBox="0.00 0.00 159.41 316.00" xmlns="http://www.w3.org/2000/svg" xmlns:xlink="http://www.w3.org/1999/xlink">
<g id="graph0" class="graph" transform="scale(1 1) rotate(0) translate(4 312)">
<title>%3</title>
<polygon fill="white" stroke="none" points="-4,4 -4,-312 155.415,-312 155.415,4 -4,4"/>
<!-- 0 -->
<g id="node1" class="node"><title>0</title>
<ellipse fill="lightblue" stroke="black" cx="55.4145" cy="-290" rx="18" ry="18"/>
<text text-anchor="middle" x="55.4145" y="-286.3" font-family="Times,serif" font-size="14.00">0</text>
</g>
<!-- 1 -->
<g id="node2" class="node"><title>1</title>
<ellipse fill="green" stroke="black" cx="41.4145" cy="-106" rx="18" ry="18"/>
<text text-anchor="middle" x="41.4145" y="-102.3" font-family="Times,serif" font-size="14.00">1</text>
</g>
<!-- 0&#45;&gt;1 -->
<g id="edge1" class="edge"><title>0&#45;&gt;1</title>
<path fill="none" stroke="black" d="M47.0167,-273.944C39.9348,-260.329 30.3436,-239.489 26.4145,-220 20.4452,-190.391 26.9253,-155.922 33.1321,-132.912"/>
<polygon fill="black" stroke="black" points="36.5234,-133.783 35.9189,-123.205 29.7952,-131.851 36.5234,-133.783"/>
<text text-anchor="middle" x="29.9145" y="-194.3" font-family="Times,serif" font-size="14.00">b</text>
</g>
<!-- 2 -->
<g id="node3" class="node"><title>2</title>
<ellipse fill="lightblue" stroke="black" cx="71.4145" cy="-18" rx="18" ry="18"/>
<text text-anchor="middle" x="71.4145" y="-14.3" font-family="Times,serif" font-size="14.00">2</text>
</g>
<!-- 0&#45;&gt;2 -->
<g id="edge2" class="edge"><title>0&#45;&gt;2</title>
<path fill="none" stroke="black" d="M43.28,-276.651C37.6955,-270.338 31.4326,-262.256 27.4145,-254 -4.96868,-187.458 -6.54496,-158.974 14.4145,-88 20.4844,-67.4461 36.5602,-49.0104 50.0977,-36.377"/>
<polygon fill="black" stroke="black" points="52.5314,-38.8966 57.6803,-29.637 47.8809,-33.6647 52.5314,-38.8966"/>
<text text-anchor="middle" x="5.91453" y="-146.3" font-family="Times,serif" font-size="14.00">c</text>
</g>
<!-- 3 -->
<g id="node4" class="node"><title>3</title>
<ellipse fill="lightblue" stroke="black" cx="102.415" cy="-198" rx="17.5909" ry="18"/>
<ellipse fill="none" stroke="black" cx="102.415" cy="-198" rx="21.5" ry="22"/>
<text text-anchor="middle" x="102.415" y="-194.3" font-family="Times,serif" font-size="14.00">3</text>
</g>
<!-- 0&#45;&gt;3 -->
<g id="edge3" class="edge"><title>0&#45;&gt;3</title>
<path fill="none" stroke="black" d="M63.3874,-273.733C70.0675,-260.941 79.7774,-242.348 87.8406,-226.907"/>
<polygon fill="black" stroke="black" points="91.0799,-228.266 92.6065,-217.781 84.875,-225.025 91.0799,-228.266"/>
<text text-anchor="middle" x="84.9145" y="-242.3" font-family="Times,serif" font-size="14.00">a</text>
</g>
<!-- 1&#45;&gt;0 -->
<g id="edge4" class="edge"><title>1&#45;&gt;0</title>
<path fill="none" stroke="black" d="M42.7383,-124.209C45.172,-155.847 50.375,-223.486 53.302,-261.537"/>
<polygon fill="black" stroke="black" points="49.8407,-262.176 54.0974,-271.878 56.8201,-261.639 49.8407,-262.176"/>
<text text-anchor="middle" x="52.9145" y="-194.3" font-family="Times,serif" font-size="14.00">c</text>
</g>
<!-- 1&#45;&gt;1 -->
<g id="edge5" class="edge"><title>1&#45;&gt;1</title>
<path fill="none" stroke="black" d="M57.7048,-113.668C67.8037,-115.517 77.4145,-112.961 77.4145,-106 77.4145,-101.541 73.4702,-98.8891 67.9802,-98.0454"/>
<polygon fill="black" stroke="black" points="67.6032,-94.5544 57.7048,-98.3321 67.7986,-101.552 67.6032,-94.5544"/>
<text text-anchor="middle" x="80.9145" y="-102.3" font-family="Times,serif" font-size="14.00">a</text>
</g>
<!-- 1&#45;&gt;2 -->
<g id="edge6" class="edge"><title>1&#45;&gt;2</title>
<path fill="none" stroke="black" d="M47.0573,-88.8241C51.3733,-76.4516 57.4101,-59.1462 62.3939,-44.8593"/>
<polygon fill="black" stroke="black" points="65.808,-45.6982 65.7971,-35.1034 59.1986,-43.3926 65.808,-45.6982"/>
<text text-anchor="middle" x="61.9145" y="-58.3" font-family="Times,serif" font-size="14.00">b</text>
</g>
<!-- 2&#45;&gt;0 -->
<g id="edge7" class="edge"><title>2&#45;&gt;0</title>
<path fill="none" stroke="black" d="M83.8953,-31.329C89.6587,-37.6377 96.1531,-45.7207 100.415,-54 134.8,-120.806 163.057,-151.396 132.415,-220 121.706,-243.975 98.0929,-263.081 79.8201,-275.053"/>
<polygon fill="black" stroke="black" points="77.7296,-272.233 71.1038,-280.5 81.439,-278.169 77.7296,-272.233"/>
<text text-anchor="middle" x="147.915" y="-146.3" font-family="Times,serif" font-size="14.00">a</text>
</g>
<!-- 2&#45;&gt;1 -->
<g id="edge8" class="edge"><title>2&#45;&gt;1</title>
<path fill="none" stroke="black" d="M59.1013,-31.1524C53.5713,-37.4193 47.5869,-45.5182 44.4145,-54 41.6375,-61.4247 40.4338,-69.8814 40.0435,-77.7444"/>
<polygon fill="black" stroke="black" points="36.5417,-77.9124 39.9438,-87.9462 43.5414,-77.9809 36.5417,-77.9124"/>
<text text-anchor="middle" x="47.9145" y="-58.3" font-family="Times,serif" font-size="14.00">c</text>
</g>
<!-- 2&#45;&gt;2 -->
<g id="edge9" class="edge"><title>2&#45;&gt;2</title>
<path fill="none" stroke="black" d="M87.7048,-25.6679C97.8037,-27.5169 107.415,-24.9609 107.415,-18 107.415,-13.5406 103.47,-10.8891 97.9802,-10.0454"/>
<polygon fill="black" stroke="black" points="97.6032,-6.55441 87.7048,-10.3321 97.7986,-13.5517 97.6032,-6.55441"/>
<text text-anchor="middle" x="110.915" y="-14.3" font-family="Times,serif" font-size="14.00">b</text>
</g>
<!-- 3&#45;&gt;1 -->
<g id="edge10" class="edge"><title>3&#45;&gt;1</title>
<path fill="none" stroke="black" d="M90.9235,-179.044C83.9429,-168.237 74.7904,-154.245 66.4145,-142 63.611,-137.901 60.5771,-133.57 57.6216,-129.404"/>
<polygon fill="black" stroke="black" points="60.4274,-127.311 51.7642,-121.212 54.7331,-131.382 60.4274,-127.311"/>
<text text-anchor="middle" x="84.9145" y="-146.3" font-family="Times,serif" font-size="14.00">b,a</text>
</g>
<!-- 3&#45;&gt;2 -->
<g id="edge11" class="edge"><title>3&#45;&gt;2</title>
<path fill="none" stroke="black" d="M102.082,-175.909C101.407,-153.809 99.3905,-118.175 93.4145,-88 90.5041,-73.3045 85.5373,-57.3415 81.0586,-44.4743"/>
<polygon fill="black" stroke="black" points="84.2948,-43.13 77.6201,-34.902 77.7069,-45.4965 84.2948,-43.13"/>
<text text-anchor="middle" x="101.915" y="-102.3" font-family="Times,serif" font-size="14.00">c</text>
</g>
</g>
</svg>
