<?xml version="1.0" encoding="UTF-8" standalone="no"?>
<!DOCTYPE svg PUBLIC "-//W3C//DTD SVG 1.1//EN"
 "http://www.w3.org/Graphics/SVG/1.1/DTD/svg11.dtd">
<!-- Generated by graphviz version 2.36.0 (20140111.2315)
 -->
<!-- Title: %3 Pages: 1 -->
<svg width="117pt" height="228pt"
 viewBox="0.00 0.00 117.34 228.00" xmlns="http://www.w3.org/2000/svg" xmlns:xlink="http://www.w3.org/1999/xlink">
<g id="graph0" class="graph" transform="scale(1 1) rotate(0) translate(4 224)">
<title>%3</title>
<polygon fill="white" stroke="none" points="-4,4 -4,-224 113.343,-224 113.343,4 -4,4"/>
<!-- 0 -->
<g id="node1" class="node"><title>0</title>
<ellipse fill="lightblue" stroke="black" cx="20.3426" cy="-202" rx="18" ry="18"/>
<text text-anchor="middle" x="20.3426" y="-198.3" font-family="Times,serif" font-size="14.00">0</text>
</g>
<!-- 3 -->
<g id="node4" class="node"><title>3</title>
<ellipse fill="lightblue" stroke="black" cx="20.3426" cy="-110" rx="18" ry="18"/>
<text text-anchor="middle" x="20.3426" y="-106.3" font-family="Times,serif" font-size="14.00">3</text>
</g>
<!-- 0&#45;&gt;3 -->
<g id="edge1" class="edge"><title>0&#45;&gt;3</title>
<path fill="none" stroke="black" d="M10.4769,-186.689C6.84915,-180.598 3.18041,-173.237 1.34263,-166 -1.34263,-155.425 1.61939,-143.984 5.94172,-134.29"/>
<polygon fill="black" stroke="black" points="9.11564,-135.77 10.5587,-125.274 2.88515,-132.579 9.11564,-135.77"/>
<text text-anchor="middle" x="9.84263" y="-154.3" font-family="Times,serif" font-size="14.00">b,a</text>
</g>
<!-- 1 -->
<g id="node2" class="node"><title>1</title>
<ellipse fill="lightblue" stroke="black" cx="78.3426" cy="-110" rx="17.5909" ry="18"/>
<ellipse fill="none" stroke="black" cx="78.3426" cy="-110" rx="21.5" ry="22"/>
<text text-anchor="middle" x="78.3426" y="-106.3" font-family="Times,serif" font-size="14.00">1</text>
</g>
<!-- 2 -->
<g id="node3" class="node"><title>2</title>
<ellipse fill="green" stroke="black" cx="56.3426" cy="-18" rx="18" ry="18"/>
<text text-anchor="middle" x="56.3426" y="-14.3" font-family="Times,serif" font-size="14.00">2</text>
</g>
<!-- 1&#45;&gt;2 -->
<g id="edge2" class="edge"><title>1&#45;&gt;2</title>
<path fill="none" stroke="black" d="M73.3505,-88.5776C70.2389,-75.8485 66.2022,-59.3347 62.8424,-45.5898"/>
<polygon fill="black" stroke="black" points="66.206,-44.6101 60.4315,-35.7273 59.4062,-46.2724 66.206,-44.6101"/>
<text text-anchor="middle" x="76.8426" y="-58.3" font-family="Times,serif" font-size="14.00">b,a</text>
</g>
<!-- 2&#45;&gt;2 -->
<g id="edge3" class="edge"><title>2&#45;&gt;2</title>
<path fill="none" stroke="black" d="M72.6329,-25.6679C82.7318,-27.5169 92.3426,-24.9609 92.3426,-18 92.3426,-13.5406 88.3983,-10.8891 82.9082,-10.0454"/>
<polygon fill="black" stroke="black" points="82.5313,-6.55441 72.6329,-10.3321 82.7267,-13.5517 82.5313,-6.55441"/>
<text text-anchor="middle" x="100.843" y="-14.3" font-family="Times,serif" font-size="14.00">b,a</text>
</g>
<!-- 3&#45;&gt;0 -->
<g id="edge4" class="edge"><title>3&#45;&gt;0</title>
<path fill="none" stroke="black" d="M20.3426,-128.3C20.3426,-141.11 20.3426,-158.823 20.3426,-173.557"/>
<polygon fill="black" stroke="black" points="16.8427,-173.647 20.3426,-183.647 23.8427,-173.647 16.8427,-173.647"/>
<text text-anchor="middle" x="23.8426" y="-154.3" font-family="Times,serif" font-size="14.00">a</text>
</g>
<!-- 3&#45;&gt;2 -->
<g id="edge5" class="edge"><title>3&#45;&gt;2</title>
<path fill="none" stroke="black" d="M26.7787,-92.9098C32.154,-79.4717 39.9151,-60.0687 46.1367,-44.5148"/>
<polygon fill="black" stroke="black" points="49.498,-45.5356 49.9623,-34.9509 42.9986,-42.9358 49.498,-45.5356"/>
<text text-anchor="middle" x="44.8426" y="-58.3" font-family="Times,serif" font-size="14.00">b</text>
</g>
</g>
</svg>
