<?xml version="1.0" encoding="UTF-8" standalone="no"?>
<!DOCTYPE svg PUBLIC "-//W3C//DTD SVG 1.1//EN"
 "http://www.w3.org/Graphics/SVG/1.1/DTD/svg11.dtd">
<!-- Generated by graphviz version 2.36.0 (20140111.2315)
 -->
<!-- Title: %3 Pages: 1 -->
<svg width="146pt" height="228pt"
 viewBox="0.00 0.00 146.00 228.00" xmlns="http://www.w3.org/2000/svg" xmlns:xlink="http://www.w3.org/1999/xlink">
<g id="graph0" class="graph" transform="scale(1 1) rotate(0) translate(4 224)">
<title>%3</title>
<polygon fill="white" stroke="none" points="-4,4 -4,-224 142,-224 142,4 -4,4"/>
<!-- 0 -->
<g id="node1" class="node"><title>0</title>
<ellipse fill="lightblue" stroke="black" cx="95" cy="-202" rx="18" ry="18"/>
<text text-anchor="middle" x="95" y="-198.3" font-family="Times,serif" font-size="14.00">0</text>
</g>
<!-- 0&#45;&gt;0 -->
<g id="edge1" class="edge"><title>0&#45;&gt;0</title>
<path fill="none" stroke="black" d="M111.29,-209.668C121.389,-211.517 131,-208.961 131,-202 131,-197.541 127.056,-194.889 121.566,-194.045"/>
<polygon fill="black" stroke="black" points="121.189,-190.554 111.29,-194.332 121.384,-197.552 121.189,-190.554"/>
<text text-anchor="middle" x="134.5" y="-198.3" font-family="Times,serif" font-size="14.00">a</text>
</g>
<!-- 1 -->
<g id="node2" class="node"><title>1</title>
<ellipse fill="green" stroke="black" cx="60" cy="-114" rx="18" ry="18"/>
<text text-anchor="middle" x="60" y="-110.3" font-family="Times,serif" font-size="14.00">1</text>
</g>
<!-- 0&#45;&gt;1 -->
<g id="edge2" class="edge"><title>0&#45;&gt;1</title>
<path fill="none" stroke="black" d="M88.4168,-184.824C83.3004,-172.252 76.1113,-154.588 70.2443,-140.172"/>
<polygon fill="black" stroke="black" points="73.4469,-138.756 66.4355,-130.813 66.9633,-141.395 73.4469,-138.756"/>
<text text-anchor="middle" x="83.5" y="-154.3" font-family="Times,serif" font-size="14.00">b</text>
</g>
<!-- 2 -->
<g id="node3" class="node"><title>2</title>
<ellipse fill="lightblue" stroke="black" cx="114" cy="-22" rx="18" ry="18"/>
<text text-anchor="middle" x="114" y="-18.3" font-family="Times,serif" font-size="14.00">2</text>
</g>
<!-- 1&#45;&gt;2 -->
<g id="edge3" class="edge"><title>1&#45;&gt;2</title>
<path fill="none" stroke="black" d="M68.917,-98.1383C77.2808,-84.1986 89.9292,-63.118 99.7021,-46.8299"/>
<polygon fill="black" stroke="black" points="102.926,-48.2594 105.07,-37.8837 96.9235,-44.6579 102.926,-48.2594"/>
<text text-anchor="middle" x="93.5" y="-66.3" font-family="Times,serif" font-size="14.00">a</text>
</g>
<!-- 3 -->
<g id="node4" class="node"><title>3</title>
<ellipse fill="lightblue" stroke="black" cx="21" cy="-22" rx="17.5909" ry="18"/>
<ellipse fill="none" stroke="black" cx="21" cy="-22" rx="21.5" ry="22"/>
<text text-anchor="middle" x="21" y="-18.3" font-family="Times,serif" font-size="14.00">3</text>
</g>
<!-- 1&#45;&gt;3 -->
<g id="edge4" class="edge"><title>1&#45;&gt;3</title>
<path fill="none" stroke="black" d="M53.2067,-97.3232C47.8002,-84.8467 40.0855,-67.0435 33.5621,-51.9894"/>
<polygon fill="black" stroke="black" points="36.671,-50.3611 29.4835,-42.5772 30.2481,-53.1444 36.671,-50.3611"/>
<text text-anchor="middle" x="46.5" y="-66.3" font-family="Times,serif" font-size="14.00">b</text>
</g>
<!-- 2&#45;&gt;0 -->
<g id="edge5" class="edge"><title>2&#45;&gt;0</title>
<path fill="none" stroke="black" d="M112.184,-40.0157C108.882,-70.9434 101.873,-136.607 97.9024,-173.809"/>
<polygon fill="black" stroke="black" points="94.403,-173.618 96.8218,-183.933 101.364,-174.361 94.403,-173.618"/>
<text text-anchor="middle" x="114.5" y="-110.3" font-family="Times,serif" font-size="14.00">b,a</text>
</g>
<!-- 3&#45;&gt;3 -->
<g id="edge6" class="edge"><title>3&#45;&gt;3</title>
<path fill="none" stroke="black" d="M41.0663,-30.7341C51.0736,-31.9426 60,-29.0312 60,-22 60,-17.4956 56.3366,-14.682 51.0725,-13.5592"/>
<polygon fill="black" stroke="black" points="51.1646,-10.0605 41.0663,-13.2659 50.9594,-17.0575 51.1646,-10.0605"/>
<text text-anchor="middle" x="68.5" y="-18.3" font-family="Times,serif" font-size="14.00">b,a</text>
</g>
</g>
</svg>
