<?xml version="1.0" encoding="UTF-8" standalone="no"?>
<!DOCTYPE svg PUBLIC "-//W3C//DTD SVG 1.1//EN"
 "http://www.w3.org/Graphics/SVG/1.1/DTD/svg11.dtd">
<!-- Generated by graphviz version 2.36.0 (20140111.2315)
 -->
<!-- Title: %3 Pages: 1 -->
<svg width="157pt" height="404pt"
 viewBox="0.00 0.00 157.00 404.00" xmlns="http://www.w3.org/2000/svg" xmlns:xlink="http://www.w3.org/1999/xlink">
<g id="graph0" class="graph" transform="scale(1 1) rotate(0) translate(4 400)">
<title>%3</title>
<polygon fill="white" stroke="none" points="-4,4 -4,-400 153,-400 153,4 -4,4"/>
<!-- 0 -->
<g id="node1" class="node"><title>0</title>
<ellipse fill="lightblue" stroke="black" cx="56" cy="-374" rx="17.5909" ry="18"/>
<ellipse fill="none" stroke="black" cx="56" cy="-374" rx="21.5" ry="22"/>
<text text-anchor="middle" x="56" y="-370.3" font-family="Times,serif" font-size="14.00">0</text>
</g>
<!-- 3 -->
<g id="node4" class="node"><title>3</title>
<ellipse fill="lightblue" stroke="black" cx="18" cy="-282" rx="18" ry="18"/>
<text text-anchor="middle" x="18" y="-278.3" font-family="Times,serif" font-size="14.00">3</text>
</g>
<!-- 0&#45;&gt;3 -->
<g id="edge1" class="edge"><title>0&#45;&gt;3</title>
<path fill="none" stroke="black" d="M47.7546,-353.471C42.1501,-340.198 34.6843,-322.515 28.6332,-308.184"/>
<polygon fill="black" stroke="black" points="31.8244,-306.744 24.7103,-298.893 25.3757,-309.467 31.8244,-306.744"/>
<text text-anchor="middle" x="48.5" y="-322.3" font-family="Times,serif" font-size="14.00">b,a</text>
</g>
<!-- 1 -->
<g id="node2" class="node"><title>1</title>
<ellipse fill="lightblue" stroke="black" cx="67" cy="-194" rx="18" ry="18"/>
<text text-anchor="middle" x="67" y="-190.3" font-family="Times,serif" font-size="14.00">1</text>
</g>
<!-- 1&#45;&gt;0 -->
<g id="edge2" class="edge"><title>1&#45;&gt;0</title>
<path fill="none" stroke="black" d="M65.9424,-212.114C64.1011,-241.909 60.2809,-303.727 57.9488,-341.464"/>
<polygon fill="black" stroke="black" points="54.4286,-341.685 57.305,-351.882 61.4153,-342.117 54.4286,-341.685"/>
<text text-anchor="middle" x="65.5" y="-278.3" font-family="Times,serif" font-size="14.00">a</text>
</g>
<!-- 2 -->
<g id="node3" class="node"><title>2</title>
<ellipse fill="lightblue" stroke="black" cx="106" cy="-106" rx="18" ry="18"/>
<text text-anchor="middle" x="106" y="-102.3" font-family="Times,serif" font-size="14.00">2</text>
</g>
<!-- 1&#45;&gt;2 -->
<g id="edge3" class="edge"><title>1&#45;&gt;2</title>
<path fill="none" stroke="black" d="M74.1532,-177.226C79.8706,-164.619 87.9938,-146.706 94.6049,-132.128"/>
<polygon fill="black" stroke="black" points="97.9496,-133.227 98.8921,-122.674 91.5745,-130.335 97.9496,-133.227"/>
<text text-anchor="middle" x="92.5" y="-146.3" font-family="Times,serif" font-size="14.00">b</text>
</g>
<!-- 2&#45;&gt;2 -->
<g id="edge4" class="edge"><title>2&#45;&gt;2</title>
<path fill="none" stroke="black" d="M122.29,-113.668C132.389,-115.517 142,-112.961 142,-106 142,-101.541 138.056,-98.8891 132.566,-98.0454"/>
<polygon fill="black" stroke="black" points="132.189,-94.5544 122.29,-98.3321 132.384,-101.552 132.189,-94.5544"/>
<text text-anchor="middle" x="145.5" y="-102.3" font-family="Times,serif" font-size="14.00">a</text>
</g>
<!-- 4 -->
<g id="node5" class="node"><title>4</title>
<ellipse fill="green" stroke="black" cx="63" cy="-18" rx="18" ry="18"/>
<text text-anchor="middle" x="63" y="-14.3" font-family="Times,serif" font-size="14.00">4</text>
</g>
<!-- 2&#45;&gt;4 -->
<g id="edge5" class="edge"><title>2&#45;&gt;4</title>
<path fill="none" stroke="black" d="M98.3125,-89.6249C91.9316,-76.8633 82.7361,-58.4721 75.3282,-43.6565"/>
<polygon fill="black" stroke="black" points="78.3687,-41.9109 70.766,-34.5319 72.1077,-45.0415 78.3687,-41.9109"/>
<text text-anchor="middle" x="91.5" y="-58.3" font-family="Times,serif" font-size="14.00">b</text>
</g>
<!-- 3&#45;&gt;1 -->
<g id="edge6" class="edge"><title>3&#45;&gt;1</title>
<path fill="none" stroke="black" d="M26.5351,-266.02C33.9376,-253.028 44.784,-233.991 53.3844,-218.897"/>
<polygon fill="black" stroke="black" points="56.4887,-220.518 58.3983,-210.097 50.4067,-217.053 56.4887,-220.518"/>
<text text-anchor="middle" x="49.5" y="-234.3" font-family="Times,serif" font-size="14.00">b</text>
</g>
<!-- 3&#45;&gt;4 -->
<g id="edge7" class="edge"><title>3&#45;&gt;4</title>
<path fill="none" stroke="black" d="M20.8834,-264.212C28.4851,-219.953 49.1227,-99.7969 58.3881,-45.8513"/>
<polygon fill="black" stroke="black" points="61.839,-46.4353 60.0824,-35.9871 54.94,-45.2503 61.839,-46.4353"/>
<text text-anchor="middle" x="44.5" y="-146.3" font-family="Times,serif" font-size="14.00">a</text>
</g>
<!-- 4&#45;&gt;1 -->
<g id="edge8" class="edge"><title>4&#45;&gt;1</title>
<path fill="none" stroke="black" d="M63.3924,-36.0697C64.0866,-66.266 65.5364,-129.334 66.3713,-165.653"/>
<polygon fill="black" stroke="black" points="62.8802,-166.082 66.6092,-175.999 69.8783,-165.922 62.8802,-166.082"/>
<text text-anchor="middle" x="68.5" y="-102.3" font-family="Times,serif" font-size="14.00">b</text>
</g>
<!-- 4&#45;&gt;4 -->
<g id="edge9" class="edge"><title>4&#45;&gt;4</title>
<path fill="none" stroke="black" d="M79.2903,-25.6679C89.3892,-27.5169 99,-24.9609 99,-18 99,-13.5406 95.0557,-10.8891 89.5656,-10.0454"/>
<polygon fill="black" stroke="black" points="89.1887,-6.55441 79.2903,-10.3321 89.384,-13.5517 89.1887,-6.55441"/>
<text text-anchor="middle" x="102.5" y="-14.3" font-family="Times,serif" font-size="14.00">a</text>
</g>
</g>
</svg>
