<?xml version="1.0" encoding="UTF-8" standalone="no"?>
<!DOCTYPE svg PUBLIC "-//W3C//DTD SVG 1.1//EN"
 "http://www.w3.org/Graphics/SVG/1.1/DTD/svg11.dtd">
<!-- Generated by graphviz version 2.36.0 (20140111.2315)
 -->
<!-- Title: %3 Pages: 1 -->
<svg width="182pt" height="228pt"
 viewBox="0.00 0.00 182.00 228.00" xmlns="http://www.w3.org/2000/svg" xmlns:xlink="http://www.w3.org/1999/xlink">
<g id="graph0" class="graph" transform="scale(1 1) rotate(0) translate(4 224)">
<title>%3</title>
<polygon fill="white" stroke="none" points="-4,4 -4,-224 178,-224 178,4 -4,4"/>
<!-- 0 -->
<g id="node1" class="node"><title>0</title>
<ellipse fill="green" stroke="black" cx="22" cy="-198" rx="17.5909" ry="18"/>
<ellipse fill="none" stroke="black" cx="22" cy="-198" rx="21.5" ry="22"/>
<text text-anchor="middle" x="22" y="-194.3" font-family="Times,serif" font-size="14.00">0</text>
</g>
<!-- 2 -->
<g id="node3" class="node"><title>2</title>
<ellipse fill="lightblue" stroke="black" cx="22" cy="-106" rx="18" ry="18"/>
<text text-anchor="middle" x="22" y="-102.3" font-family="Times,serif" font-size="14.00">2</text>
</g>
<!-- 0&#45;&gt;2 -->
<g id="edge1" class="edge"><title>0&#45;&gt;2</title>
<path fill="none" stroke="black" d="M10.3736,-179.395C4.71785,-168.713 -0.23225,-154.729 3,-142 4.00504,-138.042 5.55766,-134.047 7.35171,-130.244"/>
<polygon fill="black" stroke="black" points="10.4996,-131.779 12.1343,-121.311 4.32845,-128.475 10.4996,-131.779"/>
<text text-anchor="middle" x="11.5" y="-146.3" font-family="Times,serif" font-size="14.00">b,a</text>
</g>
<!-- 1 -->
<g id="node2" class="node"><title>1</title>
<ellipse fill="lightblue" stroke="black" cx="131" cy="-198" rx="18" ry="18"/>
<text text-anchor="middle" x="131" y="-194.3" font-family="Times,serif" font-size="14.00">1</text>
</g>
<!-- 3 -->
<g id="node4" class="node"><title>3</title>
<ellipse fill="lightblue" stroke="black" cx="101" cy="-106" rx="18" ry="18"/>
<text text-anchor="middle" x="101" y="-102.3" font-family="Times,serif" font-size="14.00">3</text>
</g>
<!-- 1&#45;&gt;3 -->
<g id="edge2" class="edge"><title>1&#45;&gt;3</title>
<path fill="none" stroke="black" d="M119.244,-183.937C113.562,-176.8 107.276,-167.498 104,-158 101.415,-150.506 100.27,-142.029 99.8732,-134.168"/>
<polygon fill="black" stroke="black" points="103.37,-133.931 99.7325,-123.981 96.371,-134.028 103.37,-133.931"/>
<text text-anchor="middle" x="107.5" y="-146.3" font-family="Times,serif" font-size="14.00">a</text>
</g>
<!-- 4 -->
<g id="node5" class="node"><title>4</title>
<ellipse fill="lightblue" stroke="black" cx="131" cy="-18" rx="18" ry="18"/>
<text text-anchor="middle" x="131" y="-14.3" font-family="Times,serif" font-size="14.00">4</text>
</g>
<!-- 1&#45;&gt;4 -->
<g id="edge3" class="edge"><title>1&#45;&gt;4</title>
<path fill="none" stroke="black" d="M131,-179.933C131,-148.966 131,-83.2989 131,-46.1292"/>
<polygon fill="black" stroke="black" points="134.5,-46.0157 131,-36.0157 127.5,-46.0158 134.5,-46.0157"/>
<text text-anchor="middle" x="134.5" y="-102.3" font-family="Times,serif" font-size="14.00">b</text>
</g>
<!-- 2&#45;&gt;0 -->
<g id="edge4" class="edge"><title>2&#45;&gt;0</title>
<path fill="none" stroke="black" d="M22,-124.258C22,-135.927 22,-151.678 22,-165.539"/>
<polygon fill="black" stroke="black" points="18.5001,-165.671 22,-175.671 25.5001,-165.671 18.5001,-165.671"/>
<text text-anchor="middle" x="25.5" y="-146.3" font-family="Times,serif" font-size="14.00">a</text>
</g>
<!-- 2&#45;&gt;2 -->
<g id="edge5" class="edge"><title>2&#45;&gt;2</title>
<path fill="none" stroke="black" d="M38.2903,-113.668C48.3892,-115.517 58,-112.961 58,-106 58,-101.541 54.0557,-98.8891 48.5656,-98.0454"/>
<polygon fill="black" stroke="black" points="48.1887,-94.5544 38.2903,-98.3321 48.384,-101.552 48.1887,-94.5544"/>
<text text-anchor="middle" x="61.5" y="-102.3" font-family="Times,serif" font-size="14.00">b</text>
</g>
<!-- 3&#45;&gt;1 -->
<g id="edge6" class="edge"><title>3&#45;&gt;1</title>
<path fill="none" stroke="black" d="M106.468,-123.403C110.856,-136.567 117.103,-155.308 122.194,-170.582"/>
<polygon fill="black" stroke="black" points="119.015,-172.113 125.498,-180.493 125.656,-169.899 119.015,-172.113"/>
<text text-anchor="middle" x="120.5" y="-146.3" font-family="Times,serif" font-size="14.00">b</text>
</g>
<!-- 3&#45;&gt;4 -->
<g id="edge7" class="edge"><title>3&#45;&gt;4</title>
<path fill="none" stroke="black" d="M99.5293,-87.9462C99.2502,-77.7824 99.9607,-64.7996 104,-54 105.933,-48.8314 108.911,-43.805 112.193,-39.2487"/>
<polygon fill="black" stroke="black" points="115.16,-41.1432 118.687,-31.1524 109.7,-36.7634 115.16,-41.1432"/>
<text text-anchor="middle" x="107.5" y="-58.3" font-family="Times,serif" font-size="14.00">a</text>
</g>
<!-- 4&#45;&gt;3 -->
<g id="edge8" class="edge"><title>4&#45;&gt;3</title>
<path fill="none" stroke="black" d="M125.383,-35.1034C121.073,-47.4565 115.038,-64.7582 110.05,-79.0569"/>
<polygon fill="black" stroke="black" points="106.632,-78.2292 106.643,-88.8241 113.241,-80.5349 106.632,-78.2292"/>
<text text-anchor="middle" x="121.5" y="-58.3" font-family="Times,serif" font-size="14.00">a</text>
</g>
<!-- 4&#45;&gt;4 -->
<g id="edge9" class="edge"><title>4&#45;&gt;4</title>
<path fill="none" stroke="black" d="M147.29,-25.6679C157.389,-27.5169 167,-24.9609 167,-18 167,-13.5406 163.056,-10.8891 157.566,-10.0454"/>
<polygon fill="black" stroke="black" points="157.189,-6.55441 147.29,-10.3321 157.384,-13.5517 157.189,-6.55441"/>
<text text-anchor="middle" x="170.5" y="-14.3" font-family="Times,serif" font-size="14.00">b</text>
</g>
</g>
</svg>
