<?xml version="1.0" encoding="UTF-8" standalone="no"?>
<!DOCTYPE svg PUBLIC "-//W3C//DTD SVG 1.1//EN"
 "http://www.w3.org/Graphics/SVG/1.1/DTD/svg11.dtd">
<!-- Generated by graphviz version 2.36.0 (20140111.2315)
 -->
<!-- Title: %3 Pages: 1 -->
<svg width="217pt" height="228pt"
 viewBox="0.00 0.00 216.89 228.00" xmlns="http://www.w3.org/2000/svg" xmlns:xlink="http://www.w3.org/1999/xlink">
<g id="graph0" class="graph" transform="scale(1 1) rotate(0) translate(4 224)">
<title>%3</title>
<polygon fill="white" stroke="none" points="-4,4 -4,-224 212.895,-224 212.895,4 -4,4"/>
<!-- 0 -->
<g id="node1" class="node"><title>0</title>
<ellipse fill="lightblue" stroke="black" cx="25.8945" cy="-198" rx="17.5909" ry="18"/>
<ellipse fill="none" stroke="black" cx="25.8945" cy="-198" rx="21.5" ry="22"/>
<text text-anchor="middle" x="25.8945" y="-194.3" font-family="Times,serif" font-size="14.00">0</text>
</g>
<!-- 1 -->
<g id="node2" class="node"><title>1</title>
<ellipse fill="lightblue" stroke="black" cx="30.8945" cy="-18" rx="18" ry="18"/>
<text text-anchor="middle" x="30.8945" y="-14.3" font-family="Times,serif" font-size="14.00">1</text>
</g>
<!-- 0&#45;&gt;1 -->
<g id="edge1" class="edge"><title>0&#45;&gt;1</title>
<path fill="none" stroke="black" d="M24.6365,-175.682C23.5428,-153.699 22.3547,-118.433 23.8945,-88 24.598,-74.0958 26.094,-58.6757 27.5231,-45.9456"/>
<polygon fill="black" stroke="black" points="31.0035,-46.3161 28.6889,-35.9772 24.0509,-45.5029 31.0035,-46.3161"/>
<text text-anchor="middle" x="31.8945" y="-102.3" font-family="Times,serif" font-size="14.00">c,a</text>
</g>
<!-- 3 -->
<g id="node4" class="node"><title>3</title>
<ellipse fill="lightblue" stroke="black" cx="147.895" cy="-106" rx="18" ry="18"/>
<text text-anchor="middle" x="147.895" y="-102.3" font-family="Times,serif" font-size="14.00">3</text>
</g>
<!-- 0&#45;&gt;3 -->
<g id="edge2" class="edge"><title>0&#45;&gt;3</title>
<path fill="none" stroke="black" d="M43.1154,-184.296C64.7598,-168.329 101.947,-140.896 125.703,-123.371"/>
<polygon fill="black" stroke="black" points="127.825,-126.155 133.794,-117.402 123.669,-120.522 127.825,-126.155"/>
<text text-anchor="middle" x="100.395" y="-146.3" font-family="Times,serif" font-size="14.00">b</text>
</g>
<!-- 1&#45;&gt;0 -->
<g id="edge3" class="edge"><title>1&#45;&gt;0</title>
<path fill="none" stroke="black" d="M22.4966,-34.0564C15.4148,-47.6711 5.82356,-68.511 1.8945,-88 -3.61805,-115.344 4.6578,-146.401 12.9582,-168.35"/>
<polygon fill="black" stroke="black" points="9.7555,-169.768 16.7242,-177.748 16.2532,-167.164 9.7555,-169.768"/>
<text text-anchor="middle" x="10.3945" y="-102.3" font-family="Times,serif" font-size="14.00">b,a</text>
</g>
<!-- 1&#45;&gt;1 -->
<g id="edge4" class="edge"><title>1&#45;&gt;1</title>
<path fill="none" stroke="black" d="M47.1848,-25.6679C57.2837,-27.5169 66.8945,-24.9609 66.8945,-18 66.8945,-13.5406 62.9502,-10.8891 57.4601,-10.0454"/>
<polygon fill="black" stroke="black" points="57.0832,-6.55441 47.1848,-10.3321 57.2785,-13.5517 57.0832,-6.55441"/>
<text text-anchor="middle" x="70.3945" y="-14.3" font-family="Times,serif" font-size="14.00">c</text>
</g>
<!-- 2 -->
<g id="node3" class="node"><title>2</title>
<ellipse fill="green" stroke="black" cx="159.895" cy="-18" rx="18" ry="18"/>
<text text-anchor="middle" x="159.895" y="-14.3" font-family="Times,serif" font-size="14.00">2</text>
</g>
<!-- 2&#45;&gt;0 -->
<g id="edge5" class="edge"><title>2&#45;&gt;0</title>
<path fill="none" stroke="black" d="M149.529,-32.7685C127.04,-62.6427 73.4858,-133.782 44.8005,-171.886"/>
<polygon fill="black" stroke="black" points="41.9611,-169.838 38.743,-179.933 47.5536,-174.048 41.9611,-169.838"/>
<text text-anchor="middle" x="109.395" y="-102.3" font-family="Times,serif" font-size="14.00">a</text>
</g>
<!-- 2&#45;&gt;2 -->
<g id="edge6" class="edge"><title>2&#45;&gt;2</title>
<path fill="none" stroke="black" d="M176.185,-25.6679C186.284,-27.5169 195.895,-24.9609 195.895,-18 195.895,-13.5406 191.95,-10.8891 186.46,-10.0454"/>
<polygon fill="black" stroke="black" points="186.083,-6.55441 176.185,-10.3321 186.279,-13.5517 186.083,-6.55441"/>
<text text-anchor="middle" x="199.395" y="-14.3" font-family="Times,serif" font-size="14.00">c</text>
</g>
<!-- 2&#45;&gt;3 -->
<g id="edge7" class="edge"><title>2&#45;&gt;3</title>
<path fill="none" stroke="black" d="M153.261,-34.7423C151.095,-40.6679 148.972,-47.5371 147.895,-54 146.614,-61.6857 146.213,-70.1138 146.24,-77.8658"/>
<polygon fill="black" stroke="black" points="142.741,-77.9776 146.497,-87.8843 149.739,-77.7977 142.741,-77.9776"/>
<text text-anchor="middle" x="151.395" y="-58.3" font-family="Times,serif" font-size="14.00">b</text>
</g>
<!-- 3&#45;&gt;1 -->
<g id="edge8" class="edge"><title>3&#45;&gt;1</title>
<path fill="none" stroke="black" d="M133.548,-94.4547C113.44,-79.6744 76.6923,-52.6633 53.0536,-35.2879"/>
<polygon fill="black" stroke="black" points="55.1233,-32.4654 44.9929,-29.3629 50.9775,-38.1057 55.1233,-32.4654"/>
<text text-anchor="middle" x="102.395" y="-58.3" font-family="Times,serif" font-size="14.00">b</text>
</g>
<!-- 3&#45;&gt;2 -->
<g id="edge9" class="edge"><title>3&#45;&gt;2</title>
<path fill="none" stroke="black" d="M150.355,-87.9128C151.17,-82.2164 152.077,-75.8356 152.895,-70 153.985,-62.2113 155.153,-53.751 156.217,-46.0011"/>
<polygon fill="black" stroke="black" points="159.697,-46.3854 157.585,-36.0032 152.761,-45.4365 159.697,-46.3854"/>
<text text-anchor="middle" x="158.395" y="-58.3" font-family="Times,serif" font-size="14.00">a</text>
</g>
<!-- 3&#45;&gt;3 -->
<g id="edge10" class="edge"><title>3&#45;&gt;3</title>
<path fill="none" stroke="black" d="M164.185,-113.668C174.284,-115.517 183.895,-112.961 183.895,-106 183.895,-101.541 179.95,-98.8891 174.46,-98.0454"/>
<polygon fill="black" stroke="black" points="174.083,-94.5544 164.185,-98.3321 174.279,-101.552 174.083,-94.5544"/>
<text text-anchor="middle" x="187.395" y="-102.3" font-family="Times,serif" font-size="14.00">c</text>
</g>
<!-- 4 -->
<g id="node5" class="node"><title>4</title>
<ellipse fill="lightblue" stroke="black" cx="147.895" cy="-198" rx="18" ry="18"/>
<text text-anchor="middle" x="147.895" y="-194.3" font-family="Times,serif" font-size="14.00">4</text>
</g>
<!-- 4&#45;&gt;1 -->
<g id="edge11" class="edge"><title>4&#45;&gt;1</title>
<path fill="none" stroke="black" d="M131.057,-190.861C116.23,-184.664 95.0102,-173.751 81.8945,-158 67.2979,-140.471 48.4277,-80.438 38.2253,-45.2607"/>
<polygon fill="black" stroke="black" points="41.5868,-44.2854 35.4698,-35.6348 34.8571,-46.2119 41.5868,-44.2854"/>
<text text-anchor="middle" x="66.3945" y="-102.3" font-family="Times,serif" font-size="14.00">b</text>
</g>
<!-- 4&#45;&gt;2 -->
<g id="edge12" class="edge"><title>4&#45;&gt;2</title>
<path fill="none" stroke="black" d="M160.673,-184.413C173.433,-170.865 192.217,-148.01 199.895,-124 209.252,-94.7359 191.955,-61.7364 177.259,-40.6747"/>
<polygon fill="black" stroke="black" points="179.943,-38.4165 171.205,-32.4249 174.299,-42.5578 179.943,-38.4165"/>
<text text-anchor="middle" x="205.395" y="-102.3" font-family="Times,serif" font-size="14.00">c</text>
</g>
<!-- 4&#45;&gt;3 -->
<g id="edge13" class="edge"><title>4&#45;&gt;3</title>
<path fill="none" stroke="black" d="M147.895,-179.647C147.895,-166.823 147.895,-149.108 147.895,-134.381"/>
<polygon fill="black" stroke="black" points="151.395,-134.3 147.895,-124.3 144.395,-134.3 151.395,-134.3"/>
<text text-anchor="middle" x="151.395" y="-146.3" font-family="Times,serif" font-size="14.00">a</text>
</g>
</g>
</svg>
