<?xml version="1.0" encoding="UTF-8" standalone="no"?>
<!DOCTYPE svg PUBLIC "-//W3C//DTD SVG 1.1//EN"
 "http://www.w3.org/Graphics/SVG/1.1/DTD/svg11.dtd">
<!-- Generated by graphviz version 2.36.0 (20140111.2315)
 -->
<!-- Title: %3 Pages: 1 -->
<svg width="187pt" height="228pt"
 viewBox="0.00 0.00 187.00 228.00" xmlns="http://www.w3.org/2000/svg" xmlns:xlink="http://www.w3.org/1999/xlink">
<g id="graph0" class="graph" transform="scale(1 1) rotate(0) translate(4 224)">
<title>%3</title>
<polygon fill="white" stroke="none" points="-4,4 -4,-224 183,-224 183,4 -4,4"/>
<!-- 0 -->
<g id="node1" class="node"><title>0</title>
<ellipse fill="lightblue" stroke="black" cx="18" cy="-114" rx="18" ry="18"/>
<text text-anchor="middle" x="18" y="-110.3" font-family="Times,serif" font-size="14.00">0</text>
</g>
<!-- 0&#45;&gt;0 -->
<g id="edge1" class="edge"><title>0&#45;&gt;0</title>
<path fill="none" stroke="black" d="M34.2903,-121.668C44.3892,-123.517 54,-120.961 54,-114 54,-109.541 50.0557,-106.889 44.5656,-106.045"/>
<polygon fill="black" stroke="black" points="44.1887,-102.554 34.2903,-106.332 44.384,-109.552 44.1887,-102.554"/>
<text text-anchor="middle" x="57.5" y="-110.3" font-family="Times,serif" font-size="14.00">b</text>
</g>
<!-- 1 -->
<g id="node2" class="node"><title>1</title>
<ellipse fill="lightblue" stroke="black" cx="72" cy="-22" rx="17.5909" ry="18"/>
<ellipse fill="none" stroke="black" cx="72" cy="-22" rx="21.5" ry="22"/>
<text text-anchor="middle" x="72" y="-18.3" font-family="Times,serif" font-size="14.00">1</text>
</g>
<!-- 0&#45;&gt;1 -->
<g id="edge2" class="edge"><title>0&#45;&gt;1</title>
<path fill="none" stroke="black" d="M26.917,-98.1383C34.7299,-85.1168 46.2815,-65.8641 55.7355,-50.1075"/>
<polygon fill="black" stroke="black" points="58.8716,-51.6834 61.0153,-41.3078 52.8691,-48.0819 58.8716,-51.6834"/>
<text text-anchor="middle" x="51.5" y="-66.3" font-family="Times,serif" font-size="14.00">a</text>
</g>
<!-- 1&#45;&gt;1 -->
<g id="edge3" class="edge"><title>1&#45;&gt;1</title>
<path fill="none" stroke="black" d="M92.0663,-30.7341C102.074,-31.9426 111,-29.0312 111,-22 111,-17.4956 107.337,-14.682 102.072,-13.5592"/>
<polygon fill="black" stroke="black" points="102.165,-10.0605 92.0663,-13.2659 101.959,-17.0575 102.165,-10.0605"/>
<text text-anchor="middle" x="119.5" y="-18.3" font-family="Times,serif" font-size="14.00">b,a</text>
</g>
<!-- 2 -->
<g id="node3" class="node"><title>2</title>
<ellipse fill="lightblue" stroke="black" cx="72" cy="-202" rx="18" ry="18"/>
<text text-anchor="middle" x="72" y="-198.3" font-family="Times,serif" font-size="14.00">2</text>
</g>
<!-- 2&#45;&gt;0 -->
<g id="edge4" class="edge"><title>2&#45;&gt;0</title>
<path fill="none" stroke="black" d="M62.8396,-186.411C54.6164,-173.315 42.3971,-153.855 32.7902,-138.555"/>
<polygon fill="black" stroke="black" points="35.4871,-136.268 27.2053,-129.66 29.5589,-139.99 35.4871,-136.268"/>
<text text-anchor="middle" x="52.5" y="-154.3" font-family="Times,serif" font-size="14.00">b</text>
</g>
<!-- 2&#45;&gt;1 -->
<g id="edge5" class="edge"><title>2&#45;&gt;1</title>
<path fill="none" stroke="black" d="M72,-183.933C72,-154.154 72,-92.2862 72,-54.5293"/>
<polygon fill="black" stroke="black" points="75.5001,-54.1069 72,-44.1069 68.5001,-54.107 75.5001,-54.1069"/>
<text text-anchor="middle" x="75.5" y="-110.3" font-family="Times,serif" font-size="14.00">a</text>
</g>
<!-- 3 -->
<g id="node4" class="node"><title>3</title>
<ellipse fill="green" stroke="black" cx="126" cy="-202" rx="18" ry="18"/>
<text text-anchor="middle" x="126" y="-198.3" font-family="Times,serif" font-size="14.00">3</text>
</g>
<!-- 3&#45;&gt;3 -->
<g id="edge6" class="edge"><title>3&#45;&gt;3</title>
<path fill="none" stroke="black" d="M142.29,-209.668C152.389,-211.517 162,-208.961 162,-202 162,-197.541 158.056,-194.889 152.566,-194.045"/>
<polygon fill="black" stroke="black" points="152.189,-190.554 142.29,-194.332 152.384,-197.552 152.189,-190.554"/>
<text text-anchor="middle" x="170.5" y="-198.3" font-family="Times,serif" font-size="14.00">b,a</text>
</g>
</g>
</svg>
