<?xml version="1.0" encoding="UTF-8" standalone="no"?>
<!DOCTYPE svg PUBLIC "-//W3C//DTD SVG 1.1//EN"
 "http://www.w3.org/Graphics/SVG/1.1/DTD/svg11.dtd">
<!-- Generated by graphviz version 2.36.0 (20140111.2315)
 -->
<!-- Title: %3 Pages: 1 -->
<svg width="143pt" height="316pt"
 viewBox="0.00 0.00 143.00 316.00" xmlns="http://www.w3.org/2000/svg" xmlns:xlink="http://www.w3.org/1999/xlink">
<g id="graph0" class="graph" transform="scale(1 1) rotate(0) translate(4 312)">
<title>%3</title>
<polygon fill="white" stroke="none" points="-4,4 -4,-312 139,-312 139,4 -4,4"/>
<!-- 0 -->
<g id="node1" class="node"><title>0</title>
<ellipse fill="lightblue" stroke="black" cx="82" cy="-290" rx="18" ry="18"/>
<text text-anchor="middle" x="82" y="-286.3" font-family="Times,serif" font-size="14.00">0</text>
</g>
<!-- 0&#45;&gt;0 -->
<g id="edge1" class="edge"><title>0&#45;&gt;0</title>
<path fill="none" stroke="black" d="M98.2903,-297.668C108.389,-299.517 118,-296.961 118,-290 118,-285.541 114.056,-282.889 108.566,-282.045"/>
<polygon fill="black" stroke="black" points="108.189,-278.554 98.2903,-282.332 108.384,-285.552 108.189,-278.554"/>
<text text-anchor="middle" x="126.5" y="-286.3" font-family="Times,serif" font-size="14.00">b,c</text>
</g>
<!-- 1 -->
<g id="node2" class="node"><title>1</title>
<ellipse fill="green" stroke="black" cx="82" cy="-202" rx="18" ry="18"/>
<text text-anchor="middle" x="82" y="-198.3" font-family="Times,serif" font-size="14.00">1</text>
</g>
<!-- 0&#45;&gt;1 -->
<g id="edge2" class="edge"><title>0&#45;&gt;1</title>
<path fill="none" stroke="black" d="M82,-271.597C82,-259.746 82,-243.817 82,-230.292"/>
<polygon fill="black" stroke="black" points="85.5001,-230.084 82,-220.084 78.5001,-230.084 85.5001,-230.084"/>
<text text-anchor="middle" x="85.5" y="-242.3" font-family="Times,serif" font-size="14.00">a</text>
</g>
<!-- 1&#45;&gt;1 -->
<g id="edge3" class="edge"><title>1&#45;&gt;1</title>
<path fill="none" stroke="black" d="M98.2903,-209.668C108.389,-211.517 118,-208.961 118,-202 118,-197.541 114.056,-194.889 108.566,-194.045"/>
<polygon fill="black" stroke="black" points="108.189,-190.554 98.2903,-194.332 108.384,-197.552 108.189,-190.554"/>
<text text-anchor="middle" x="121.5" y="-198.3" font-family="Times,serif" font-size="14.00">a</text>
</g>
<!-- 2 -->
<g id="node3" class="node"><title>2</title>
<ellipse fill="lightblue" stroke="black" cx="18" cy="-114" rx="18" ry="18"/>
<text text-anchor="middle" x="18" y="-110.3" font-family="Times,serif" font-size="14.00">2</text>
</g>
<!-- 1&#45;&gt;2 -->
<g id="edge4" class="edge"><title>1&#45;&gt;2</title>
<path fill="none" stroke="black" d="M66.8418,-191.498C57.7743,-185.185 46.5788,-176.198 39,-166 33.4991,-158.598 29.1649,-149.547 25.8982,-141.135"/>
<polygon fill="black" stroke="black" points="29.19,-139.946 22.5477,-131.692 22.5929,-142.286 29.19,-139.946"/>
<text text-anchor="middle" x="42.5" y="-154.3" font-family="Times,serif" font-size="14.00">b</text>
</g>
<!-- 3 -->
<g id="node4" class="node"><title>3</title>
<ellipse fill="lightblue" stroke="black" cx="82" cy="-22" rx="17.5909" ry="18"/>
<ellipse fill="none" stroke="black" cx="82" cy="-22" rx="21.5" ry="22"/>
<text text-anchor="middle" x="82" y="-18.3" font-family="Times,serif" font-size="14.00">3</text>
</g>
<!-- 1&#45;&gt;3 -->
<g id="edge5" class="edge"><title>1&#45;&gt;3</title>
<path fill="none" stroke="black" d="M82,-183.933C82,-154.154 82,-92.2862 82,-54.5293"/>
<polygon fill="black" stroke="black" points="85.5001,-54.1069 82,-44.1069 78.5001,-54.107 85.5001,-54.1069"/>
<text text-anchor="middle" x="85.5" y="-110.3" font-family="Times,serif" font-size="14.00">c</text>
</g>
<!-- 2&#45;&gt;1 -->
<g id="edge6" class="edge"><title>2&#45;&gt;1</title>
<path fill="none" stroke="black" d="M29.0959,-128.48C34.3178,-134.923 40.5754,-142.785 46,-150 52.8388,-159.096 60.1238,-169.31 66.3386,-178.194"/>
<polygon fill="black" stroke="black" points="63.5604,-180.33 72.1404,-186.546 69.3092,-176.336 63.5604,-180.33"/>
<text text-anchor="middle" x="60.5" y="-154.3" font-family="Times,serif" font-size="14.00">b</text>
</g>
<!-- 2&#45;&gt;2 -->
<g id="edge7" class="edge"><title>2&#45;&gt;2</title>
<path fill="none" stroke="black" d="M34.2903,-121.668C44.3892,-123.517 54,-120.961 54,-114 54,-109.541 50.0557,-106.889 44.5656,-106.045"/>
<polygon fill="black" stroke="black" points="44.1887,-102.554 34.2903,-106.332 44.384,-109.552 44.1887,-102.554"/>
<text text-anchor="middle" x="57.5" y="-110.3" font-family="Times,serif" font-size="14.00">c</text>
</g>
<!-- 2&#45;&gt;3 -->
<g id="edge8" class="edge"><title>2&#45;&gt;3</title>
<path fill="none" stroke="black" d="M22.7371,-96.4453C26.2166,-85.9806 31.6246,-72.4995 39,-62 43.9695,-54.9256 50.4366,-48.2133 56.8398,-42.4147"/>
<polygon fill="black" stroke="black" points="59.4791,-44.7626 64.7988,-35.6 54.9264,-39.4454 59.4791,-44.7626"/>
<text text-anchor="middle" x="42.5" y="-66.3" font-family="Times,serif" font-size="14.00">a</text>
</g>
<!-- 3&#45;&gt;1 -->
<g id="edge9" class="edge"><title>3&#45;&gt;1</title>
<path fill="none" stroke="black" d="M90.478,-42.4818C92.7378,-48.609 94.8651,-55.4797 96,-62 103.926,-107.538 104.741,-120.612 96,-166 95.3688,-169.277 94.4335,-172.638 93.3403,-175.919"/>
<polygon fill="black" stroke="black" points="90.0336,-174.767 89.733,-185.358 96.5724,-177.266 90.0336,-174.767"/>
<text text-anchor="middle" x="105.5" y="-110.3" font-family="Times,serif" font-size="14.00">c</text>
</g>
<!-- 3&#45;&gt;2 -->
<g id="edge10" class="edge"><title>3&#45;&gt;2</title>
<path fill="none" stroke="black" d="M70.7491,-41.1254C63.8537,-51.992 54.7063,-65.9874 46,-78 42.772,-82.4538 39.1918,-87.1166 35.7001,-91.5333"/>
<polygon fill="black" stroke="black" points="32.7493,-89.6176 29.2102,-99.6039 38.2044,-94.0043 32.7493,-89.6176"/>
<text text-anchor="middle" x="59.5" y="-66.3" font-family="Times,serif" font-size="14.00">a</text>
</g>
<!-- 3&#45;&gt;3 -->
<g id="edge11" class="edge"><title>3&#45;&gt;3</title>
<path fill="none" stroke="black" d="M102.066,-30.7341C112.074,-31.9426 121,-29.0312 121,-22 121,-17.4956 117.337,-14.682 112.072,-13.5592"/>
<polygon fill="black" stroke="black" points="112.165,-10.0605 102.066,-13.2659 111.959,-17.0575 112.165,-10.0605"/>
<text text-anchor="middle" x="124.5" y="-18.3" font-family="Times,serif" font-size="14.00">b</text>
</g>
</g>
</svg>
