<?xml version="1.0" encoding="UTF-8" standalone="no"?>
<!DOCTYPE svg PUBLIC "-//W3C//DTD SVG 1.1//EN"
 "http://www.w3.org/Graphics/SVG/1.1/DTD/svg11.dtd">
<!-- Generated by graphviz version 2.36.0 (20140111.2315)
 -->
<!-- Title: %3 Pages: 1 -->
<svg width="172pt" height="316pt"
 viewBox="0.00 0.00 172.00 316.00" xmlns="http://www.w3.org/2000/svg" xmlns:xlink="http://www.w3.org/1999/xlink">
<g id="graph0" class="graph" transform="scale(1 1) rotate(0) translate(4 312)">
<title>%3</title>
<polygon fill="white" stroke="none" points="-4,4 -4,-312 167.999,-312 167.999,4 -4,4"/>
<!-- 0 -->
<g id="node1" class="node"><title>0</title>
<ellipse fill="lightblue" stroke="black" cx="141.999" cy="-290" rx="18" ry="18"/>
<text text-anchor="middle" x="141.999" y="-286.3" font-family="Times,serif" font-size="14.00">0</text>
</g>
<!-- 1 -->
<g id="node2" class="node"><title>1</title>
<ellipse fill="green" stroke="black" cx="100.999" cy="-198" rx="17.5909" ry="18"/>
<ellipse fill="none" stroke="black" cx="100.999" cy="-198" rx="21.5" ry="22"/>
<text text-anchor="middle" x="100.999" y="-194.3" font-family="Times,serif" font-size="14.00">1</text>
</g>
<!-- 0&#45;&gt;1 -->
<g id="edge1" class="edge"><title>0&#45;&gt;1</title>
<path fill="none" stroke="black" d="M127.057,-279.575C118.692,-273.408 108.971,-264.547 103.999,-254 100.569,-246.723 99.069,-238.288 98.6016,-230.243"/>
<polygon fill="black" stroke="black" points="102.099,-229.988 98.506,-220.022 95.0997,-230.054 102.099,-229.988"/>
<text text-anchor="middle" x="107.499" y="-242.3" font-family="Times,serif" font-size="14.00">b</text>
</g>
<!-- 2 -->
<g id="node3" class="node"><title>2</title>
<ellipse fill="lightblue" stroke="black" cx="103.999" cy="-18" rx="18" ry="18"/>
<text text-anchor="middle" x="103.999" y="-14.3" font-family="Times,serif" font-size="14.00">2</text>
</g>
<!-- 0&#45;&gt;2 -->
<g id="edge2" class="edge"><title>0&#45;&gt;2</title>
<path fill="none" stroke="black" d="M141.684,-271.934C140.638,-232.839 136.149,-134.003 116.999,-54 116.23,-50.785 115.251,-47.4619 114.176,-44.2014"/>
<polygon fill="black" stroke="black" points="117.464,-42.9998 110.781,-34.7781 110.878,-45.3725 117.464,-42.9998"/>
<text text-anchor="middle" x="141.999" y="-146.3" font-family="Times,serif" font-size="14.00">c,a</text>
</g>
<!-- 1&#45;&gt;0 -->
<g id="edge3" class="edge"><title>1&#45;&gt;0</title>
<path fill="none" stroke="black" d="M109.769,-218.252C115.851,-231.601 124.008,-249.506 130.594,-263.964"/>
<polygon fill="black" stroke="black" points="127.527,-265.674 134.857,-273.323 133.897,-262.772 127.527,-265.674"/>
<text text-anchor="middle" x="128.499" y="-242.3" font-family="Times,serif" font-size="14.00">c</text>
</g>
<!-- 1&#45;&gt;2 -->
<g id="edge4" class="edge"><title>1&#45;&gt;2</title>
<path fill="none" stroke="black" d="M81.1298,-188.617C57.9572,-177.617 20.8117,-155.889 4.99907,-124 -2.10884,-109.666 -0.781384,-102.919 4.99907,-88 17.0398,-56.923 52.3453,-37.8247 77.352,-27.8181"/>
<polygon fill="black" stroke="black" points="78.8811,-30.9827 87.0138,-24.1923 76.4216,-24.429 78.8811,-30.9827"/>
<text text-anchor="middle" x="8.49907" y="-102.3" font-family="Times,serif" font-size="14.00">a</text>
</g>
<!-- 3 -->
<g id="node4" class="node"><title>3</title>
<ellipse fill="lightblue" stroke="black" cx="38.9991" cy="-106" rx="18" ry="18"/>
<text text-anchor="middle" x="38.9991" y="-102.3" font-family="Times,serif" font-size="14.00">3</text>
</g>
<!-- 1&#45;&gt;3 -->
<g id="edge5" class="edge"><title>1&#45;&gt;3</title>
<path fill="none" stroke="black" d="M89.0448,-179.647C79.279,-165.471 65.3958,-145.318 54.7284,-129.833"/>
<polygon fill="black" stroke="black" points="57.4299,-127.585 48.8746,-121.335 51.6654,-131.556 57.4299,-127.585"/>
<text text-anchor="middle" x="77.4991" y="-146.3" font-family="Times,serif" font-size="14.00">b</text>
</g>
<!-- 2&#45;&gt;0 -->
<g id="edge6" class="edge"><title>2&#45;&gt;0</title>
<path fill="none" stroke="black" d="M116.034,-31.3981C121.595,-37.7231 127.867,-45.7999 131.999,-54 139.033,-67.9595 137.17,-72.8448 140.999,-88 159.129,-159.748 166.165,-181.003 153.999,-254 153.477,-257.13 152.71,-260.356 151.811,-263.524"/>
<polygon fill="black" stroke="black" points="148.41,-262.665 148.633,-273.258 155.064,-264.838 148.41,-262.665"/>
<text text-anchor="middle" x="160.499" y="-146.3" font-family="Times,serif" font-size="14.00">b</text>
</g>
<!-- 2&#45;&gt;1 -->
<g id="edge7" class="edge"><title>2&#45;&gt;1</title>
<path fill="none" stroke="black" d="M103.711,-36.1141C103.208,-65.9087 102.167,-127.727 101.531,-165.464"/>
<polygon fill="black" stroke="black" points="98.0241,-165.824 101.355,-175.882 105.023,-165.943 98.0241,-165.824"/>
<text text-anchor="middle" x="105.499" y="-102.3" font-family="Times,serif" font-size="14.00">a</text>
</g>
<!-- 2&#45;&gt;3 -->
<g id="edge8" class="edge"><title>2&#45;&gt;3</title>
<path fill="none" stroke="black" d="M93.5816,-32.7831C83.3565,-46.3117 67.5983,-67.161 55.6374,-82.9862"/>
<polygon fill="black" stroke="black" points="52.6799,-81.0945 49.4424,-91.1826 58.2643,-85.3153 52.6799,-81.0945"/>
<text text-anchor="middle" x="81.4991" y="-58.3" font-family="Times,serif" font-size="14.00">c</text>
</g>
<!-- 3&#45;&gt;2 -->
<g id="edge9" class="edge"><title>3&#45;&gt;2</title>
<path fill="none" stroke="black" d="M37.7698,-87.6308C37.8547,-77.1054 39.513,-63.8541 45.9991,-54 53.526,-42.5645 66.2,-34.2921 77.7839,-28.6705"/>
<polygon fill="black" stroke="black" points="79.3785,-31.7927 87.1211,-24.5606 76.5585,-25.3859 79.3785,-31.7927"/>
<text text-anchor="middle" x="53.9991" y="-58.3" font-family="Times,serif" font-size="14.00">c,a</text>
</g>
<!-- 3&#45;&gt;3 -->
<g id="edge10" class="edge"><title>3&#45;&gt;3</title>
<path fill="none" stroke="black" d="M55.2893,-113.668C65.3882,-115.517 74.9991,-112.961 74.9991,-106 74.9991,-101.541 71.0548,-98.8891 65.5647,-98.0454"/>
<polygon fill="black" stroke="black" points="65.1878,-94.5544 55.2893,-98.3321 65.3831,-101.552 65.1878,-94.5544"/>
<text text-anchor="middle" x="78.4991" y="-102.3" font-family="Times,serif" font-size="14.00">b</text>
</g>
</g>
</svg>
