<?xml version="1.0" encoding="UTF-8" standalone="no"?>
<!DOCTYPE svg PUBLIC "-//W3C//DTD SVG 1.1//EN"
 "http://www.w3.org/Graphics/SVG/1.1/DTD/svg11.dtd">
<!-- Generated by graphviz version 2.36.0 (20140111.2315)
 -->
<!-- Title: %3 Pages: 1 -->
<svg width="101pt" height="228pt"
 viewBox="0.00 0.00 101.00 228.00" xmlns="http://www.w3.org/2000/svg" xmlns:xlink="http://www.w3.org/1999/xlink">
<g id="graph0" class="graph" transform="scale(1 1) rotate(0) translate(4 224)">
<title>%3</title>
<polygon fill="white" stroke="none" points="-4,4 -4,-224 97,-224 97,4 -4,4"/>
<!-- 0 -->
<g id="node1" class="node"><title>0</title>
<ellipse fill="lightblue" stroke="black" cx="45" cy="-198" rx="17.5909" ry="18"/>
<ellipse fill="none" stroke="black" cx="45" cy="-198" rx="21.5" ry="22"/>
<text text-anchor="middle" x="45" y="-194.3" font-family="Times,serif" font-size="14.00">0</text>
</g>
<!-- 1 -->
<g id="node2" class="node"><title>1</title>
<ellipse fill="lightblue" stroke="black" cx="18" cy="-106" rx="18" ry="18"/>
<text text-anchor="middle" x="18" y="-102.3" font-family="Times,serif" font-size="14.00">1</text>
</g>
<!-- 0&#45;&gt;1 -->
<g id="edge1" class="edge"><title>0&#45;&gt;1</title>
<path fill="none" stroke="black" d="M26.9497,-185.607C17.9401,-178.814 7.93197,-169.31 3,-158 -0.752479,-149.395 0.845226,-139.576 4.13388,-130.867"/>
<polygon fill="black" stroke="black" points="7.38311,-132.178 8.37031,-121.629 1.02029,-129.26 7.38311,-132.178"/>
<text text-anchor="middle" x="6.5" y="-146.3" font-family="Times,serif" font-size="14.00">b</text>
</g>
<!-- 2 -->
<g id="node3" class="node"><title>2</title>
<ellipse fill="lightblue" stroke="black" cx="75" cy="-106" rx="18" ry="18"/>
<text text-anchor="middle" x="75" y="-102.3" font-family="Times,serif" font-size="14.00">2</text>
</g>
<!-- 0&#45;&gt;2 -->
<g id="edge2" class="edge"><title>0&#45;&gt;2</title>
<path fill="none" stroke="black" d="M51.5155,-176.863C54.9054,-166.445 59.1379,-153.527 63,-142 63.9885,-139.05 65.0325,-135.963 66.0756,-132.897"/>
<polygon fill="black" stroke="black" points="69.4111,-133.96 69.336,-123.365 62.7878,-131.694 69.4111,-133.96"/>
<text text-anchor="middle" x="66.5" y="-146.3" font-family="Times,serif" font-size="14.00">a</text>
</g>
<!-- 1&#45;&gt;0 -->
<g id="edge3" class="edge"><title>1&#45;&gt;0</title>
<path fill="none" stroke="black" d="M22.8119,-123.553C25.7289,-133.539 29.543,-146.511 33,-158 33.8898,-160.957 34.8246,-164.038 35.7631,-167.115"/>
<polygon fill="black" stroke="black" points="32.4465,-168.238 38.7239,-176.773 39.139,-166.186 32.4465,-168.238"/>
<text text-anchor="middle" x="36.5" y="-146.3" font-family="Times,serif" font-size="14.00">a</text>
</g>
<!-- 3 -->
<g id="node4" class="node"><title>3</title>
<ellipse fill="green" stroke="black" cx="45" cy="-18" rx="18" ry="18"/>
<text text-anchor="middle" x="45" y="-14.3" font-family="Times,serif" font-size="14.00">3</text>
</g>
<!-- 1&#45;&gt;3 -->
<g id="edge4" class="edge"><title>1&#45;&gt;3</title>
<path fill="none" stroke="black" d="M15.3009,-88.0153C14.3441,-77.8761 14.2861,-64.8948 18,-54 19.7805,-48.7768 22.691,-43.7265 25.9562,-39.164"/>
<polygon fill="black" stroke="black" points="28.924,-41.0588 32.4684,-31.0744 23.4713,-36.6693 28.924,-41.0588"/>
<text text-anchor="middle" x="21.5" y="-58.3" font-family="Times,serif" font-size="14.00">b</text>
</g>
<!-- 2&#45;&gt;0 -->
<g id="edge5" class="edge"><title>2&#45;&gt;0</title>
<path fill="none" stroke="black" d="M74.3177,-124.396C73.5069,-134.445 71.7569,-147.195 68,-158 66.5076,-162.292 64.5162,-166.635 62.3274,-170.786"/>
<polygon fill="black" stroke="black" points="59.2827,-169.06 57.3374,-179.475 65.3528,-172.546 59.2827,-169.06"/>
<text text-anchor="middle" x="74.5" y="-146.3" font-family="Times,serif" font-size="14.00">a</text>
</g>
<!-- 2&#45;&gt;3 -->
<g id="edge6" class="edge"><title>2&#45;&gt;3</title>
<path fill="none" stroke="black" d="M69.3572,-88.8241C65.0413,-76.4516 59.0045,-59.1462 54.0207,-44.8593"/>
<polygon fill="black" stroke="black" points="57.216,-43.3926 50.6175,-35.1034 50.6066,-45.6982 57.216,-43.3926"/>
<text text-anchor="middle" x="65.5" y="-58.3" font-family="Times,serif" font-size="14.00">b</text>
</g>
<!-- 3&#45;&gt;1 -->
<g id="edge7" class="edge"><title>3&#45;&gt;1</title>
<path fill="none" stroke="black" d="M39.8101,-35.5308C35.9669,-47.7721 30.6531,-64.6975 26.2328,-78.777"/>
<polygon fill="black" stroke="black" points="22.862,-77.8291 23.2059,-88.4183 29.5406,-79.9259 22.862,-77.8291"/>
<text text-anchor="middle" x="36.5" y="-58.3" font-family="Times,serif" font-size="14.00">a</text>
</g>
<!-- 3&#45;&gt;3 -->
<g id="edge8" class="edge"><title>3&#45;&gt;3</title>
<path fill="none" stroke="black" d="M61.2903,-25.6679C71.3892,-27.5169 81,-24.9609 81,-18 81,-13.5406 77.0557,-10.8891 71.5656,-10.0454"/>
<polygon fill="black" stroke="black" points="71.1887,-6.55441 61.2903,-10.3321 71.384,-13.5517 71.1887,-6.55441"/>
<text text-anchor="middle" x="84.5" y="-14.3" font-family="Times,serif" font-size="14.00">b</text>
</g>
</g>
</svg>
