<?xml version="1.0" encoding="UTF-8" standalone="no"?>
<!DOCTYPE svg PUBLIC "-//W3C//DTD SVG 1.1//EN"
 "http://www.w3.org/Graphics/SVG/1.1/DTD/svg11.dtd">
<!-- Generated by graphviz version 2.36.0 (20140111.2315)
 -->
<!-- Title: %3 Pages: 1 -->
<svg width="129pt" height="316pt"
 viewBox="0.00 0.00 129.29 316.00" xmlns="http://www.w3.org/2000/svg" xmlns:xlink="http://www.w3.org/1999/xlink">
<g id="graph0" class="graph" transform="scale(1 1) rotate(0) translate(4 312)">
<title>%3</title>
<polygon fill="white" stroke="none" points="-4,4 -4,-312 125.288,-312 125.288,4 -4,4"/>
<!-- 0 -->
<g id="node1" class="node"><title>0</title>
<ellipse fill="lightblue" stroke="black" cx="45.288" cy="-290" rx="18" ry="18"/>
<text text-anchor="middle" x="45.288" y="-286.3" font-family="Times,serif" font-size="14.00">0</text>
</g>
<!-- 0&#45;&gt;0 -->
<g id="edge1" class="edge"><title>0&#45;&gt;0</title>
<path fill="none" stroke="black" d="M61.5782,-297.668C71.6771,-299.517 81.288,-296.961 81.288,-290 81.288,-285.541 77.3437,-282.889 71.8536,-282.045"/>
<polygon fill="black" stroke="black" points="71.4767,-278.554 61.5782,-282.332 71.672,-285.552 71.4767,-278.554"/>
<text text-anchor="middle" x="84.788" y="-286.3" font-family="Times,serif" font-size="14.00">a</text>
</g>
<!-- 1 -->
<g id="node2" class="node"><title>1</title>
<ellipse fill="lightblue" stroke="black" cx="39.288" cy="-18" rx="18" ry="18"/>
<text text-anchor="middle" x="39.288" y="-14.3" font-family="Times,serif" font-size="14.00">1</text>
</g>
<!-- 0&#45;&gt;1 -->
<g id="edge2" class="edge"><title>0&#45;&gt;1</title>
<path fill="none" stroke="black" d="M36.0861,-274.321C28.1451,-260.788 17.2011,-239.85 12.288,-220 -1.81371,-163.026 -4.0119,-145.39 8.28797,-88 11.6653,-72.2417 18.9283,-55.7356 25.5755,-42.8198"/>
<polygon fill="black" stroke="black" points="28.8173,-44.1809 30.4641,-33.7148 22.65,-40.8695 28.8173,-44.1809"/>
<text text-anchor="middle" x="3.78797" y="-154.3" font-family="Times,serif" font-size="14.00">b</text>
</g>
<!-- 2 -->
<g id="node3" class="node"><title>2</title>
<ellipse fill="green" stroke="black" cx="39.288" cy="-202" rx="18" ry="18"/>
<text text-anchor="middle" x="39.288" y="-198.3" font-family="Times,serif" font-size="14.00">2</text>
</g>
<!-- 0&#45;&gt;2 -->
<g id="edge3" class="edge"><title>0&#45;&gt;2</title>
<path fill="none" stroke="black" d="M38.6544,-273.258C36.4889,-267.332 34.3651,-260.463 33.288,-254 31.978,-246.14 32.3141,-237.553 33.3064,-229.703"/>
<polygon fill="black" stroke="black" points="36.7996,-230.03 34.9736,-219.594 29.8929,-228.891 36.7996,-230.03"/>
<text text-anchor="middle" x="36.788" y="-242.3" font-family="Times,serif" font-size="14.00">c</text>
</g>
<!-- 1&#45;&gt;0 -->
<g id="edge4" class="edge"><title>1&#45;&gt;0</title>
<path fill="none" stroke="black" d="M53.9346,-28.9045C70.0334,-40.7727 94.9788,-62.3077 105.288,-88 127.258,-142.752 112.78,-165.058 91.288,-220 84.5548,-237.212 73.007,-254.513 63.1665,-267.485"/>
<polygon fill="black" stroke="black" points="60.125,-265.692 56.7068,-275.72 65.6326,-270.012 60.125,-265.692"/>
<text text-anchor="middle" x="117.788" y="-154.3" font-family="Times,serif" font-size="14.00">b</text>
</g>
<!-- 1&#45;&gt;1 -->
<g id="edge5" class="edge"><title>1&#45;&gt;1</title>
<path fill="none" stroke="black" d="M55.5782,-25.6679C65.6771,-27.5169 75.288,-24.9609 75.288,-18 75.288,-13.5406 71.3437,-10.8891 65.8536,-10.0454"/>
<polygon fill="black" stroke="black" points="65.4767,-6.55441 55.5782,-10.3321 65.672,-13.5517 65.4767,-6.55441"/>
<text text-anchor="middle" x="83.288" y="-14.3" font-family="Times,serif" font-size="14.00">c,a</text>
</g>
<!-- 2&#45;&gt;0 -->
<g id="edge6" class="edge"><title>2&#45;&gt;0</title>
<path fill="none" stroke="black" d="M40.4914,-220.25C41.3203,-232.13 42.4388,-248.162 43.3872,-261.756"/>
<polygon fill="black" stroke="black" points="39.915,-262.277 44.1026,-272.009 46.898,-261.79 39.915,-262.277"/>
<text text-anchor="middle" x="45.788" y="-242.3" font-family="Times,serif" font-size="14.00">a</text>
</g>
<!-- 2&#45;&gt;2 -->
<g id="edge7" class="edge"><title>2&#45;&gt;2</title>
<path fill="none" stroke="black" d="M55.5782,-209.668C65.6771,-211.517 75.288,-208.961 75.288,-202 75.288,-197.541 71.3437,-194.889 65.8536,-194.045"/>
<polygon fill="black" stroke="black" points="65.4767,-190.554 55.5782,-194.332 65.672,-197.552 65.4767,-190.554"/>
<text text-anchor="middle" x="78.788" y="-198.3" font-family="Times,serif" font-size="14.00">c</text>
</g>
<!-- 3 -->
<g id="node4" class="node"><title>3</title>
<ellipse fill="lightblue" stroke="black" cx="39.288" cy="-110" rx="17.5909" ry="18"/>
<ellipse fill="none" stroke="black" cx="39.288" cy="-110" rx="21.5" ry="22"/>
<text text-anchor="middle" x="39.288" y="-106.3" font-family="Times,serif" font-size="14.00">3</text>
</g>
<!-- 2&#45;&gt;3 -->
<g id="edge8" class="edge"><title>2&#45;&gt;3</title>
<path fill="none" stroke="black" d="M39.288,-183.647C39.288,-171.924 39.288,-156.114 39.288,-142.237"/>
<polygon fill="black" stroke="black" points="42.7881,-142.101 39.288,-132.101 35.7881,-142.101 42.7881,-142.101"/>
<text text-anchor="middle" x="42.788" y="-154.3" font-family="Times,serif" font-size="14.00">b</text>
</g>
<!-- 3&#45;&gt;1 -->
<g id="edge9" class="edge"><title>3&#45;&gt;1</title>
<path fill="none" stroke="black" d="M39.288,-87.6713C39.288,-75.2844 39.288,-59.5523 39.288,-46.2721"/>
<polygon fill="black" stroke="black" points="42.7881,-46.258 39.288,-36.2581 35.7881,-46.2581 42.7881,-46.258"/>
<text text-anchor="middle" x="42.788" y="-58.3" font-family="Times,serif" font-size="14.00">a</text>
</g>
<!-- 3&#45;&gt;3 -->
<g id="edge10" class="edge"><title>3&#45;&gt;3</title>
<path fill="none" stroke="black" d="M59.3543,-118.734C69.3616,-119.943 78.288,-117.031 78.288,-110 78.288,-105.496 74.6246,-102.682 69.3605,-101.559"/>
<polygon fill="black" stroke="black" points="69.4526,-98.0605 59.3543,-101.266 69.2474,-105.057 69.4526,-98.0605"/>
<text text-anchor="middle" x="86.788" y="-106.3" font-family="Times,serif" font-size="14.00">b,c</text>
</g>
</g>
</svg>
