<?xml version="1.0" encoding="UTF-8" standalone="no"?>
<!DOCTYPE svg PUBLIC "-//W3C//DTD SVG 1.1//EN"
 "http://www.w3.org/Graphics/SVG/1.1/DTD/svg11.dtd">
<!-- Generated by graphviz version 2.36.0 (20140111.2315)
 -->
<!-- Title: %3 Pages: 1 -->
<svg width="132pt" height="404pt"
 viewBox="0.00 0.00 132.00 404.00" xmlns="http://www.w3.org/2000/svg" xmlns:xlink="http://www.w3.org/1999/xlink">
<g id="graph0" class="graph" transform="scale(1 1) rotate(0) translate(4 400)">
<title>%3</title>
<polygon fill="white" stroke="none" points="-4,4 -4,-400 128,-400 128,4 -4,4"/>
<!-- 0 -->
<g id="node1" class="node"><title>0</title>
<ellipse fill="lightblue" stroke="black" cx="23" cy="-290" rx="18" ry="18"/>
<text text-anchor="middle" x="23" y="-286.3" font-family="Times,serif" font-size="14.00">0</text>
</g>
<!-- 0&#45;&gt;0 -->
<g id="edge1" class="edge"><title>0&#45;&gt;0</title>
<path fill="none" stroke="black" d="M39.2903,-297.668C49.3892,-299.517 59,-296.961 59,-290 59,-285.541 55.0557,-282.889 49.5656,-282.045"/>
<polygon fill="black" stroke="black" points="49.1887,-278.554 39.2903,-282.332 49.384,-285.552 49.1887,-278.554"/>
<text text-anchor="middle" x="62.5" y="-286.3" font-family="Times,serif" font-size="14.00">a</text>
</g>
<!-- 1 -->
<g id="node2" class="node"><title>1</title>
<ellipse fill="lightblue" stroke="black" cx="77" cy="-198" rx="17.5909" ry="18"/>
<ellipse fill="none" stroke="black" cx="77" cy="-198" rx="21.5" ry="22"/>
<text text-anchor="middle" x="77" y="-194.3" font-family="Times,serif" font-size="14.00">1</text>
</g>
<!-- 0&#45;&gt;1 -->
<g id="edge2" class="edge"><title>0&#45;&gt;1</title>
<path fill="none" stroke="black" d="M31.917,-274.138C39.7299,-261.117 51.2815,-241.864 60.7355,-226.107"/>
<polygon fill="black" stroke="black" points="63.8716,-227.683 66.0153,-217.308 57.8691,-224.082 63.8716,-227.683"/>
<text text-anchor="middle" x="56.5" y="-242.3" font-family="Times,serif" font-size="14.00">b</text>
</g>
<!-- 1&#45;&gt;1 -->
<g id="edge3" class="edge"><title>1&#45;&gt;1</title>
<path fill="none" stroke="black" d="M97.0663,-206.734C107.074,-207.943 116,-205.031 116,-198 116,-193.496 112.337,-190.682 107.072,-189.559"/>
<polygon fill="black" stroke="black" points="107.165,-186.061 97.0663,-189.266 106.959,-193.057 107.165,-186.061"/>
<text text-anchor="middle" x="119.5" y="-194.3" font-family="Times,serif" font-size="14.00">b</text>
</g>
<!-- 2 -->
<g id="node3" class="node"><title>2</title>
<ellipse fill="lightblue" stroke="black" cx="18" cy="-106" rx="18" ry="18"/>
<text text-anchor="middle" x="18" y="-102.3" font-family="Times,serif" font-size="14.00">2</text>
</g>
<!-- 1&#45;&gt;2 -->
<g id="edge4" class="edge"><title>1&#45;&gt;2</title>
<path fill="none" stroke="black" d="M65.3435,-179.219C56.0794,-165.087 43.0546,-145.219 33.0108,-129.898"/>
<polygon fill="black" stroke="black" points="35.9023,-127.925 27.4927,-121.48 30.0481,-131.762 35.9023,-127.925"/>
<text text-anchor="middle" x="54.5" y="-146.3" font-family="Times,serif" font-size="14.00">a</text>
</g>
<!-- 2&#45;&gt;2 -->
<g id="edge5" class="edge"><title>2&#45;&gt;2</title>
<path fill="none" stroke="black" d="M34.2903,-113.668C44.3892,-115.517 54,-112.961 54,-106 54,-101.541 50.0557,-98.8891 44.5656,-98.0454"/>
<polygon fill="black" stroke="black" points="44.1887,-94.5544 34.2903,-98.3321 44.384,-101.552 44.1887,-94.5544"/>
<text text-anchor="middle" x="57.5" y="-102.3" font-family="Times,serif" font-size="14.00">b</text>
</g>
<!-- 4 -->
<g id="node5" class="node"><title>4</title>
<ellipse fill="lightblue" stroke="black" cx="72" cy="-18" rx="18" ry="18"/>
<text text-anchor="middle" x="72" y="-14.3" font-family="Times,serif" font-size="14.00">4</text>
</g>
<!-- 2&#45;&gt;4 -->
<g id="edge6" class="edge"><title>2&#45;&gt;4</title>
<path fill="none" stroke="black" d="M27.1604,-90.4113C35.3836,-77.315 47.6029,-57.8546 57.2098,-42.5548"/>
<polygon fill="black" stroke="black" points="60.4411,-43.9904 62.7947,-33.6603 54.5129,-40.268 60.4411,-43.9904"/>
<text text-anchor="middle" x="52.5" y="-58.3" font-family="Times,serif" font-size="14.00">a</text>
</g>
<!-- 3 -->
<g id="node4" class="node"><title>3</title>
<ellipse fill="green" stroke="black" cx="77" cy="-378" rx="18" ry="18"/>
<text text-anchor="middle" x="77" y="-374.3" font-family="Times,serif" font-size="14.00">3</text>
</g>
<!-- 3&#45;&gt;0 -->
<g id="edge7" class="edge"><title>3&#45;&gt;0</title>
<path fill="none" stroke="black" d="M67.8396,-362.411C59.6164,-349.315 47.3971,-329.855 37.7902,-314.555"/>
<polygon fill="black" stroke="black" points="40.4871,-312.268 32.2053,-305.66 34.5589,-315.99 40.4871,-312.268"/>
<text text-anchor="middle" x="57.5" y="-330.3" font-family="Times,serif" font-size="14.00">b</text>
</g>
<!-- 3&#45;&gt;1 -->
<g id="edge8" class="edge"><title>3&#45;&gt;1</title>
<path fill="none" stroke="black" d="M77,-359.933C77,-330.154 77,-268.286 77,-230.529"/>
<polygon fill="black" stroke="black" points="80.5001,-230.107 77,-220.107 73.5001,-230.107 80.5001,-230.107"/>
<text text-anchor="middle" x="80.5" y="-286.3" font-family="Times,serif" font-size="14.00">a</text>
</g>
<!-- 4&#45;&gt;1 -->
<g id="edge9" class="edge"><title>4&#45;&gt;1</title>
<path fill="none" stroke="black" d="M72.4807,-36.1141C73.3177,-65.9087 75.0541,-127.727 76.1142,-165.464"/>
<polygon fill="black" stroke="black" points="72.6273,-165.984 76.4068,-175.882 79.6245,-165.788 72.6273,-165.984"/>
<text text-anchor="middle" x="77.5" y="-102.3" font-family="Times,serif" font-size="14.00">a</text>
</g>
<!-- 4&#45;&gt;4 -->
<g id="edge10" class="edge"><title>4&#45;&gt;4</title>
<path fill="none" stroke="black" d="M88.2903,-25.6679C98.3892,-27.5169 108,-24.9609 108,-18 108,-13.5406 104.056,-10.8891 98.5656,-10.0454"/>
<polygon fill="black" stroke="black" points="98.1887,-6.55441 88.2903,-10.3321 98.384,-13.5517 98.1887,-6.55441"/>
<text text-anchor="middle" x="111.5" y="-14.3" font-family="Times,serif" font-size="14.00">b</text>
</g>
</g>
</svg>
