<?xml version="1.0" encoding="UTF-8" standalone="no"?>
<!DOCTYPE svg PUBLIC "-//W3C//DTD SVG 1.1//EN"
 "http://www.w3.org/Graphics/SVG/1.1/DTD/svg11.dtd">
<!-- Generated by graphviz version 2.36.0 (20140111.2315)
 -->
<!-- Title: %3 Pages: 1 -->
<svg width="128pt" height="228pt"
 viewBox="0.00 0.00 128.00 228.00" xmlns="http://www.w3.org/2000/svg" xmlns:xlink="http://www.w3.org/1999/xlink">
<g id="graph0" class="graph" transform="scale(1 1) rotate(0) translate(4 224)">
<title>%3</title>
<polygon fill="white" stroke="none" points="-4,4 -4,-224 124,-224 124,4 -4,4"/>
<!-- 0 -->
<g id="node1" class="node"><title>0</title>
<ellipse fill="lightblue" stroke="black" cx="69" cy="-110" rx="17.5909" ry="18"/>
<ellipse fill="none" stroke="black" cx="69" cy="-110" rx="21.5" ry="22"/>
<text text-anchor="middle" x="69" y="-106.3" font-family="Times,serif" font-size="14.00">0</text>
</g>
<!-- 3 -->
<g id="node4" class="node"><title>3</title>
<ellipse fill="lightblue" stroke="black" cx="47" cy="-18" rx="18" ry="18"/>
<text text-anchor="middle" x="47" y="-14.3" font-family="Times,serif" font-size="14.00">3</text>
</g>
<!-- 0&#45;&gt;3 -->
<g id="edge1" class="edge"><title>0&#45;&gt;3</title>
<path fill="none" stroke="black" d="M64.0079,-88.5776C60.8963,-75.8485 56.8596,-59.3347 53.4997,-45.5898"/>
<polygon fill="black" stroke="black" points="56.8634,-44.6101 51.0889,-35.7273 50.0636,-46.2724 56.8634,-44.6101"/>
<text text-anchor="middle" x="67.5" y="-58.3" font-family="Times,serif" font-size="14.00">b,a</text>
</g>
<!-- 1 -->
<g id="node2" class="node"><title>1</title>
<ellipse fill="green" stroke="black" cx="77" cy="-202" rx="18" ry="18"/>
<text text-anchor="middle" x="77" y="-198.3" font-family="Times,serif" font-size="14.00">1</text>
</g>
<!-- 1&#45;&gt;0 -->
<g id="edge2" class="edge"><title>1&#45;&gt;0</title>
<path fill="none" stroke="black" d="M75.4575,-183.647C74.4155,-171.924 73.0102,-156.114 71.7766,-142.237"/>
<polygon fill="black" stroke="black" points="75.2474,-141.752 70.8756,-132.101 68.2749,-142.372 75.2474,-141.752"/>
<text text-anchor="middle" x="76.5" y="-154.3" font-family="Times,serif" font-size="14.00">b</text>
</g>
<!-- 1&#45;&gt;1 -->
<g id="edge3" class="edge"><title>1&#45;&gt;1</title>
<path fill="none" stroke="black" d="M93.2903,-209.668C103.389,-211.517 113,-208.961 113,-202 113,-197.541 109.056,-194.889 103.566,-194.045"/>
<polygon fill="black" stroke="black" points="103.189,-190.554 93.2903,-194.332 103.384,-197.552 103.189,-190.554"/>
<text text-anchor="middle" x="116.5" y="-198.3" font-family="Times,serif" font-size="14.00">a</text>
</g>
<!-- 2 -->
<g id="node3" class="node"><title>2</title>
<ellipse fill="lightblue" stroke="black" cx="18" cy="-202" rx="18" ry="18"/>
<text text-anchor="middle" x="18" y="-198.3" font-family="Times,serif" font-size="14.00">2</text>
</g>
<!-- 2&#45;&gt;0 -->
<g id="edge4" class="edge"><title>2&#45;&gt;0</title>
<path fill="none" stroke="black" d="M26.6515,-185.733C34.016,-172.737 44.7741,-153.752 53.6041,-138.169"/>
<polygon fill="black" stroke="black" points="56.6548,-139.885 58.5399,-129.459 50.5647,-136.434 56.6548,-139.885"/>
<text text-anchor="middle" x="49.5" y="-154.3" font-family="Times,serif" font-size="14.00">a</text>
</g>
<!-- 2&#45;&gt;3 -->
<g id="edge5" class="edge"><title>2&#45;&gt;3</title>
<path fill="none" stroke="black" d="M19.3781,-183.683C21.2891,-161.434 25.1798,-121.664 31,-88 33.4387,-73.8948 36.9678,-58.3505 40.0914,-45.5924"/>
<polygon fill="black" stroke="black" points="43.5537,-46.1742 42.587,-35.6236 36.7632,-44.4742 43.5537,-46.1742"/>
<text text-anchor="middle" x="34.5" y="-106.3" font-family="Times,serif" font-size="14.00">b</text>
</g>
<!-- 3&#45;&gt;0 -->
<g id="edge6" class="edge"><title>3&#45;&gt;0</title>
<path fill="none" stroke="black" d="M46.3436,-36.2629C46.3748,-46.2672 47.1248,-59.0172 50,-70 50.9728,-73.7159 52.3121,-77.4991 53.8332,-81.1752"/>
<polygon fill="black" stroke="black" points="50.7866,-82.9262 58.1576,-90.5367 57.1413,-79.9907 50.7866,-82.9262"/>
<text text-anchor="middle" x="53.5" y="-58.3" font-family="Times,serif" font-size="14.00">b</text>
</g>
<!-- 3&#45;&gt;3 -->
<g id="edge7" class="edge"><title>3&#45;&gt;3</title>
<path fill="none" stroke="black" d="M63.2903,-25.6679C73.3892,-27.5169 83,-24.9609 83,-18 83,-13.5406 79.0557,-10.8891 73.5656,-10.0454"/>
<polygon fill="black" stroke="black" points="73.1887,-6.55441 63.2903,-10.3321 73.384,-13.5517 73.1887,-6.55441"/>
<text text-anchor="middle" x="86.5" y="-14.3" font-family="Times,serif" font-size="14.00">a</text>
</g>
</g>
</svg>
