<?xml version="1.0" encoding="UTF-8" standalone="no"?>
<!DOCTYPE svg PUBLIC "-//W3C//DTD SVG 1.1//EN"
 "http://www.w3.org/Graphics/SVG/1.1/DTD/svg11.dtd">
<!-- Generated by graphviz version 2.36.0 (20140111.2315)
 -->
<!-- Title: %3 Pages: 1 -->
<svg width="211pt" height="228pt"
 viewBox="0.00 0.00 211.00 228.00" xmlns="http://www.w3.org/2000/svg" xmlns:xlink="http://www.w3.org/1999/xlink">
<g id="graph0" class="graph" transform="scale(1 1) rotate(0) translate(4 224)">
<title>%3</title>
<polygon fill="white" stroke="none" points="-4,4 -4,-224 207,-224 207,4 -4,4"/>
<!-- 0 -->
<g id="node1" class="node"><title>0</title>
<ellipse fill="green" stroke="black" cx="48" cy="-22" rx="18" ry="18"/>
<text text-anchor="middle" x="48" y="-18.3" font-family="Times,serif" font-size="14.00">0</text>
</g>
<!-- 0&#45;&gt;0 -->
<g id="edge1" class="edge"><title>0&#45;&gt;0</title>
<path fill="none" stroke="black" d="M64.2903,-30.365C74.3892,-32.3821 84,-29.5938 84,-22 84,-17.1353 80.0557,-14.2427 74.5656,-13.3222"/>
<polygon fill="black" stroke="black" points="74.1791,-9.83225 64.2903,-13.635 74.3922,-16.829 74.1791,-9.83225"/>
<text text-anchor="middle" x="92.5" y="-18.3" font-family="Times,serif" font-size="14.00">b,a</text>
</g>
<!-- 1 -->
<g id="node2" class="node"><title>1</title>
<ellipse fill="lightblue" stroke="black" cx="97" cy="-114" rx="18" ry="18"/>
<text text-anchor="middle" x="97" y="-110.3" font-family="Times,serif" font-size="14.00">1</text>
</g>
<!-- 1&#45;&gt;0 -->
<g id="edge2" class="edge"><title>1&#45;&gt;0</title>
<path fill="none" stroke="black" d="M88.6878,-97.7327C81.11,-83.8142 69.7923,-63.0268 61.0158,-46.9066"/>
<polygon fill="black" stroke="black" points="64.0451,-45.1509 56.1894,-38.0418 57.8972,-48.4981 64.0451,-45.1509"/>
<text text-anchor="middle" x="80.5" y="-66.3" font-family="Times,serif" font-size="14.00">a</text>
</g>
<!-- 2 -->
<g id="node3" class="node"><title>2</title>
<ellipse fill="lightblue" stroke="black" cx="146" cy="-22" rx="17.5909" ry="18"/>
<ellipse fill="none" stroke="black" cx="146" cy="-22" rx="21.5" ry="22"/>
<text text-anchor="middle" x="146" y="-18.3" font-family="Times,serif" font-size="14.00">2</text>
</g>
<!-- 1&#45;&gt;2 -->
<g id="edge3" class="edge"><title>1&#45;&gt;2</title>
<path fill="none" stroke="black" d="M105.312,-97.7327C112.322,-84.858 122.531,-66.1059 130.969,-50.6071"/>
<polygon fill="black" stroke="black" points="134.242,-51.9152 135.95,-41.4589 128.094,-48.568 134.242,-51.9152"/>
<text text-anchor="middle" x="127.5" y="-66.3" font-family="Times,serif" font-size="14.00">b</text>
</g>
<!-- 2&#45;&gt;2 -->
<g id="edge4" class="edge"><title>2&#45;&gt;2</title>
<path fill="none" stroke="black" d="M166.066,-30.7341C176.074,-31.9426 185,-29.0312 185,-22 185,-17.4956 181.337,-14.682 176.072,-13.5592"/>
<polygon fill="black" stroke="black" points="176.165,-10.0605 166.066,-13.2659 175.959,-17.0575 176.165,-10.0605"/>
<text text-anchor="middle" x="193.5" y="-18.3" font-family="Times,serif" font-size="14.00">b,a</text>
</g>
<!-- 3 -->
<g id="node4" class="node"><title>3</title>
<ellipse fill="lightblue" stroke="black" cx="132" cy="-202" rx="18" ry="18"/>
<text text-anchor="middle" x="132" y="-198.3" font-family="Times,serif" font-size="14.00">3</text>
</g>
<!-- 3&#45;&gt;1 -->
<g id="edge5" class="edge"><title>3&#45;&gt;1</title>
<path fill="none" stroke="black" d="M125.417,-184.824C120.3,-172.252 113.111,-154.588 107.244,-140.172"/>
<polygon fill="black" stroke="black" points="110.447,-138.756 103.435,-130.813 103.963,-141.395 110.447,-138.756"/>
<text text-anchor="middle" x="120.5" y="-154.3" font-family="Times,serif" font-size="14.00">b</text>
</g>
<!-- 3&#45;&gt;2 -->
<g id="edge6" class="edge"><title>3&#45;&gt;2</title>
<path fill="none" stroke="black" d="M133.342,-183.933C135.684,-154.154 140.551,-92.2862 143.52,-54.5293"/>
<polygon fill="black" stroke="black" points="147.045,-54.3506 144.34,-44.1069 140.066,-53.8017 147.045,-54.3506"/>
<text text-anchor="middle" x="143.5" y="-110.3" font-family="Times,serif" font-size="14.00">a</text>
</g>
<!-- 4 -->
<g id="node5" class="node"><title>4</title>
<ellipse fill="lightblue" stroke="black" cx="18" cy="-114" rx="18" ry="18"/>
<text text-anchor="middle" x="18" y="-110.3" font-family="Times,serif" font-size="14.00">4</text>
</g>
<!-- 4&#45;&gt;0 -->
<g id="edge7" class="edge"><title>4&#45;&gt;0</title>
<path fill="none" stroke="black" d="M23.5025,-96.4926C27.9005,-83.2985 34.149,-64.5529 39.2345,-49.2964"/>
<polygon fill="black" stroke="black" points="42.6905,-49.9964 42.5324,-39.4027 36.0497,-47.7828 42.6905,-49.9964"/>
<text text-anchor="middle" x="38.5" y="-66.3" font-family="Times,serif" font-size="14.00">b</text>
</g>
<!-- 4&#45;&gt;4 -->
<g id="edge8" class="edge"><title>4&#45;&gt;4</title>
<path fill="none" stroke="black" d="M34.2903,-121.668C44.3892,-123.517 54,-120.961 54,-114 54,-109.541 50.0557,-106.889 44.5656,-106.045"/>
<polygon fill="black" stroke="black" points="44.1887,-102.554 34.2903,-106.332 44.384,-109.552 44.1887,-102.554"/>
<text text-anchor="middle" x="57.5" y="-110.3" font-family="Times,serif" font-size="14.00">a</text>
</g>
</g>
</svg>
