<?xml version="1.0" encoding="UTF-8" standalone="no"?>
<!DOCTYPE svg PUBLIC "-//W3C//DTD SVG 1.1//EN"
 "http://www.w3.org/Graphics/SVG/1.1/DTD/svg11.dtd">
<!-- Generated by graphviz version 2.36.0 (20140111.2315)
 -->
<!-- Title: %3 Pages: 1 -->
<svg width="103pt" height="404pt"
 viewBox="0.00 0.00 103.00 404.00" xmlns="http://www.w3.org/2000/svg" xmlns:xlink="http://www.w3.org/1999/xlink">
<g id="graph0" class="graph" transform="scale(1 1) rotate(0) translate(4 400)">
<title>%3</title>
<polygon fill="white" stroke="none" points="-4,4 -4,-400 99,-400 99,4 -4,4"/>
<!-- 0 -->
<g id="node1" class="node"><title>0</title>
<ellipse fill="lightblue" stroke="black" cx="52" cy="-378" rx="18" ry="18"/>
<text text-anchor="middle" x="52" y="-374.3" font-family="Times,serif" font-size="14.00">0</text>
</g>
<!-- 1 -->
<g id="node2" class="node"><title>1</title>
<ellipse fill="lightblue" stroke="black" cx="21" cy="-290" rx="18" ry="18"/>
<text text-anchor="middle" x="21" y="-286.3" font-family="Times,serif" font-size="14.00">1</text>
</g>
<!-- 0&#45;&gt;1 -->
<g id="edge1" class="edge"><title>0&#45;&gt;1</title>
<path fill="none" stroke="black" d="M36.8581,-368.039C28.1094,-361.929 17.8934,-352.967 13,-342 9.4689,-334.087 9.74627,-324.876 11.459,-316.476"/>
<polygon fill="black" stroke="black" points="14.8503,-317.343 14.1005,-306.775 8.09615,-315.504 14.8503,-317.343"/>
<text text-anchor="middle" x="21.5" y="-330.3" font-family="Times,serif" font-size="14.00">b,a</text>
</g>
<!-- 1&#45;&gt;0 -->
<g id="edge2" class="edge"><title>1&#45;&gt;0</title>
<path fill="none" stroke="black" d="M26.8047,-307.103C31.2576,-319.457 37.4942,-336.758 42.6484,-351.057"/>
<polygon fill="black" stroke="black" points="39.4854,-352.603 46.1691,-360.824 46.0706,-350.23 39.4854,-352.603"/>
<text text-anchor="middle" x="42.5" y="-330.3" font-family="Times,serif" font-size="14.00">a</text>
</g>
<!-- 2 -->
<g id="node3" class="node"><title>2</title>
<ellipse fill="lightblue" stroke="black" cx="21" cy="-198" rx="17.5909" ry="18"/>
<ellipse fill="none" stroke="black" cx="21" cy="-198" rx="21.5" ry="22"/>
<text text-anchor="middle" x="21" y="-194.3" font-family="Times,serif" font-size="14.00">2</text>
</g>
<!-- 1&#45;&gt;2 -->
<g id="edge3" class="edge"><title>1&#45;&gt;2</title>
<path fill="none" stroke="black" d="M21,-271.647C21,-259.924 21,-244.114 21,-230.237"/>
<polygon fill="black" stroke="black" points="24.5001,-230.101 21,-220.101 17.5001,-230.101 24.5001,-230.101"/>
<text text-anchor="middle" x="24.5" y="-242.3" font-family="Times,serif" font-size="14.00">b</text>
</g>
<!-- 3 -->
<g id="node4" class="node"><title>3</title>
<ellipse fill="lightblue" stroke="black" cx="68" cy="-106" rx="18" ry="18"/>
<text text-anchor="middle" x="68" y="-102.3" font-family="Times,serif" font-size="14.00">3</text>
</g>
<!-- 2&#45;&gt;3 -->
<g id="edge4" class="edge"><title>2&#45;&gt;3</title>
<path fill="none" stroke="black" d="M30.7384,-178.352C37.8406,-164.752 47.532,-146.194 55.2508,-131.413"/>
<polygon fill="black" stroke="black" points="58.4647,-132.82 59.9913,-122.336 52.2598,-129.58 58.4647,-132.82"/>
<text text-anchor="middle" x="51.5" y="-146.3" font-family="Times,serif" font-size="14.00">a</text>
</g>
<!-- 4 -->
<g id="node5" class="node"><title>4</title>
<ellipse fill="green" stroke="black" cx="52" cy="-18" rx="18" ry="18"/>
<text text-anchor="middle" x="52" y="-14.3" font-family="Times,serif" font-size="14.00">4</text>
</g>
<!-- 2&#45;&gt;4 -->
<g id="edge5" class="edge"><title>2&#45;&gt;4</title>
<path fill="none" stroke="black" d="M22.6501,-175.974C24.5802,-153.927 28.2619,-118.336 34,-88 36.6784,-73.8399 40.6427,-58.2907 44.1698,-45.5435"/>
<polygon fill="black" stroke="black" points="47.6322,-46.1623 46.9918,-35.5868 40.8975,-44.2534 47.6322,-46.1623"/>
<text text-anchor="middle" x="37.5" y="-102.3" font-family="Times,serif" font-size="14.00">b</text>
</g>
<!-- 3&#45;&gt;0 -->
<g id="edge6" class="edge"><title>3&#45;&gt;0</title>
<path fill="none" stroke="black" d="M66.9833,-124.156C64.2838,-169.71 56.918,-294.009 53.6266,-349.551"/>
<polygon fill="black" stroke="black" points="50.123,-349.51 53.0252,-359.7 57.1107,-349.924 50.123,-349.51"/>
<text text-anchor="middle" x="63.5" y="-242.3" font-family="Times,serif" font-size="14.00">a</text>
</g>
<!-- 3&#45;&gt;4 -->
<g id="edge7" class="edge"><title>3&#45;&gt;4</title>
<path fill="none" stroke="black" d="M65.6262,-87.9489C64.1683,-78.0151 62.1683,-65.2651 60,-54 59.4768,-51.282 58.8945,-48.4538 58.2892,-45.6355"/>
<polygon fill="black" stroke="black" points="61.6617,-44.6786 56.0611,-35.685 54.8308,-46.2082 61.6617,-44.6786"/>
<text text-anchor="middle" x="65.5" y="-58.3" font-family="Times,serif" font-size="14.00">b</text>
</g>
<!-- 4&#45;&gt;3 -->
<g id="edge8" class="edge"><title>4&#45;&gt;3</title>
<path fill="none" stroke="black" d="M51.7484,-36.1674C51.9145,-46.1399 52.6645,-58.8899 55,-70 55.6801,-73.2351 56.6051,-76.5703 57.6505,-79.8373"/>
<polygon fill="black" stroke="black" points="54.3595,-81.0289 61.0234,-89.2656 60.9505,-78.671 54.3595,-81.0289"/>
<text text-anchor="middle" x="58.5" y="-58.3" font-family="Times,serif" font-size="14.00">a</text>
</g>
<!-- 4&#45;&gt;4 -->
<g id="edge9" class="edge"><title>4&#45;&gt;4</title>
<path fill="none" stroke="black" d="M68.2903,-25.6679C78.3892,-27.5169 88,-24.9609 88,-18 88,-13.5406 84.0557,-10.8891 78.5656,-10.0454"/>
<polygon fill="black" stroke="black" points="78.1887,-6.55441 68.2903,-10.3321 78.384,-13.5517 78.1887,-6.55441"/>
<text text-anchor="middle" x="91.5" y="-14.3" font-family="Times,serif" font-size="14.00">b</text>
</g>
</g>
</svg>
