<?xml version="1.0" encoding="UTF-8" standalone="no"?>
<!DOCTYPE svg PUBLIC "-//W3C//DTD SVG 1.1//EN"
 "http://www.w3.org/Graphics/SVG/1.1/DTD/svg11.dtd">
<!-- Generated by graphviz version 2.36.0 (20140111.2315)
 -->
<!-- Title: %3 Pages: 1 -->
<svg width="158pt" height="404pt"
 viewBox="0.00 0.00 158.00 404.00" xmlns="http://www.w3.org/2000/svg" xmlns:xlink="http://www.w3.org/1999/xlink">
<g id="graph0" class="graph" transform="scale(1 1) rotate(0) translate(4 400)">
<title>%3</title>
<polygon fill="white" stroke="none" points="-4,4 -4,-400 154,-400 154,4 -4,4"/>
<!-- 0 -->
<g id="node1" class="node"><title>0</title>
<ellipse fill="lightblue" stroke="black" cx="97" cy="-282" rx="18" ry="18"/>
<text text-anchor="middle" x="97" y="-278.3" font-family="Times,serif" font-size="14.00">0</text>
</g>
<!-- 1 -->
<g id="node2" class="node"><title>1</title>
<ellipse fill="lightblue" stroke="black" cx="18" cy="-194" rx="18" ry="18"/>
<text text-anchor="middle" x="18" y="-190.3" font-family="Times,serif" font-size="14.00">1</text>
</g>
<!-- 0&#45;&gt;1 -->
<g id="edge1" class="edge"><title>0&#45;&gt;1</title>
<path fill="none" stroke="black" d="M85.0016,-267.938C72.167,-253.967 51.6422,-231.623 36.688,-215.344"/>
<polygon fill="black" stroke="black" points="39.1951,-212.899 29.8525,-207.903 34.0399,-217.635 39.1951,-212.899"/>
<text text-anchor="middle" x="68.5" y="-234.3" font-family="Times,serif" font-size="14.00">b</text>
</g>
<!-- 2 -->
<g id="node3" class="node"><title>2</title>
<ellipse fill="lightblue" stroke="black" cx="97" cy="-106" rx="18" ry="18"/>
<text text-anchor="middle" x="97" y="-102.3" font-family="Times,serif" font-size="14.00">2</text>
</g>
<!-- 0&#45;&gt;2 -->
<g id="edge2" class="edge"><title>0&#45;&gt;2</title>
<path fill="none" stroke="black" d="M97,-263.999C97,-233.853 97,-170.79 97,-134.43"/>
<polygon fill="black" stroke="black" points="100.5,-134.07 97,-124.07 93.5001,-134.07 100.5,-134.07"/>
<text text-anchor="middle" x="100.5" y="-190.3" font-family="Times,serif" font-size="14.00">a</text>
</g>
<!-- 1&#45;&gt;1 -->
<g id="edge3" class="edge"><title>1&#45;&gt;1</title>
<path fill="none" stroke="black" d="M34.2903,-201.668C44.3892,-203.517 54,-200.961 54,-194 54,-189.541 50.0557,-186.889 44.5656,-186.045"/>
<polygon fill="black" stroke="black" points="44.1887,-182.554 34.2903,-186.332 44.384,-189.552 44.1887,-182.554"/>
<text text-anchor="middle" x="57.5" y="-190.3" font-family="Times,serif" font-size="14.00">a</text>
</g>
<!-- 1&#45;&gt;2 -->
<g id="edge4" class="edge"><title>1&#45;&gt;2</title>
<path fill="none" stroke="black" d="M29.9984,-179.938C42.833,-165.967 63.3578,-143.623 78.312,-127.344"/>
<polygon fill="black" stroke="black" points="80.9601,-129.635 85.1475,-119.903 75.8049,-124.899 80.9601,-129.635"/>
<text text-anchor="middle" x="68.5" y="-146.3" font-family="Times,serif" font-size="14.00">b</text>
</g>
<!-- 2&#45;&gt;0 -->
<g id="edge5" class="edge"><title>2&#45;&gt;0</title>
<path fill="none" stroke="black" d="M104.733,-122.642C107.259,-128.557 109.738,-135.445 111,-142 119.741,-187.388 119.741,-200.612 111,-246 110.369,-249.277 109.433,-252.638 108.34,-255.919"/>
<polygon fill="black" stroke="black" points="105.034,-254.767 104.733,-265.358 111.572,-257.266 105.034,-254.767"/>
<text text-anchor="middle" x="120.5" y="-190.3" font-family="Times,serif" font-size="14.00">a</text>
</g>
<!-- 4 -->
<g id="node5" class="node"><title>4</title>
<ellipse fill="lightblue" stroke="black" cx="97" cy="-18" rx="18" ry="18"/>
<text text-anchor="middle" x="97" y="-14.3" font-family="Times,serif" font-size="14.00">4</text>
</g>
<!-- 2&#45;&gt;4 -->
<g id="edge6" class="edge"><title>2&#45;&gt;4</title>
<path fill="none" stroke="black" d="M97,-87.5966C97,-75.7459 97,-59.8169 97,-46.2917"/>
<polygon fill="black" stroke="black" points="100.5,-46.084 97,-36.084 93.5001,-46.084 100.5,-46.084"/>
<text text-anchor="middle" x="100.5" y="-58.3" font-family="Times,serif" font-size="14.00">b</text>
</g>
<!-- 3 -->
<g id="node4" class="node"><title>3</title>
<ellipse fill="green" stroke="black" cx="97" cy="-374" rx="17.5909" ry="18"/>
<ellipse fill="none" stroke="black" cx="97" cy="-374" rx="21.5" ry="22"/>
<text text-anchor="middle" x="97" y="-370.3" font-family="Times,serif" font-size="14.00">3</text>
</g>
<!-- 3&#45;&gt;0 -->
<g id="edge7" class="edge"><title>3&#45;&gt;0</title>
<path fill="none" stroke="black" d="M97,-351.671C97,-339.284 97,-323.552 97,-310.272"/>
<polygon fill="black" stroke="black" points="100.5,-310.258 97,-300.258 93.5001,-310.258 100.5,-310.258"/>
<text text-anchor="middle" x="100.5" y="-322.3" font-family="Times,serif" font-size="14.00">b</text>
</g>
<!-- 3&#45;&gt;3 -->
<g id="edge8" class="edge"><title>3&#45;&gt;3</title>
<path fill="none" stroke="black" d="M117.066,-382.734C127.074,-383.943 136,-381.031 136,-374 136,-369.496 132.337,-366.682 127.072,-365.559"/>
<polygon fill="black" stroke="black" points="127.165,-362.061 117.066,-365.266 126.959,-369.057 127.165,-362.061"/>
<text text-anchor="middle" x="139.5" y="-370.3" font-family="Times,serif" font-size="14.00">a</text>
</g>
<!-- 4&#45;&gt;4 -->
<g id="edge9" class="edge"><title>4&#45;&gt;4</title>
<path fill="none" stroke="black" d="M113.29,-25.6679C123.389,-27.5169 133,-24.9609 133,-18 133,-13.5406 129.056,-10.8891 123.566,-10.0454"/>
<polygon fill="black" stroke="black" points="123.189,-6.55441 113.29,-10.3321 123.384,-13.5517 123.189,-6.55441"/>
<text text-anchor="middle" x="141.5" y="-14.3" font-family="Times,serif" font-size="14.00">b,a</text>
</g>
</g>
</svg>
