<?xml version="1.0" encoding="UTF-8" standalone="no"?>
<!DOCTYPE svg PUBLIC "-//W3C//DTD SVG 1.1//EN"
 "http://www.w3.org/Graphics/SVG/1.1/DTD/svg11.dtd">
<!-- Generated by graphviz version 2.36.0 (20140111.2315)
 -->
<!-- Title: %3 Pages: 1 -->
<svg width="162pt" height="404pt"
 viewBox="0.00 0.00 162.45 404.00" xmlns="http://www.w3.org/2000/svg" xmlns:xlink="http://www.w3.org/1999/xlink">
<g id="graph0" class="graph" transform="scale(1 1) rotate(0) translate(4 400)">
<title>%3</title>
<polygon fill="white" stroke="none" points="-4,4 -4,-400 158.455,-400 158.455,4 -4,4"/>
<!-- 0 -->
<g id="node1" class="node"><title>0</title>
<ellipse fill="lightblue" stroke="black" cx="49.4548" cy="-202" rx="18" ry="18"/>
<text text-anchor="middle" x="49.4548" y="-198.3" font-family="Times,serif" font-size="14.00">0</text>
</g>
<!-- 1 -->
<g id="node2" class="node"><title>1</title>
<ellipse fill="green" stroke="black" cx="69.4548" cy="-22" rx="17.5909" ry="18"/>
<ellipse fill="none" stroke="black" cx="69.4548" cy="-22" rx="21.5" ry="22"/>
<text text-anchor="middle" x="69.4548" y="-18.3" font-family="Times,serif" font-size="14.00">1</text>
</g>
<!-- 0&#45;&gt;1 -->
<g id="edge1" class="edge"><title>0&#45;&gt;1</title>
<path fill="none" stroke="black" d="M37.1743,-188.546C19.4975,-169.039 -9.63175,-129.988 3.45482,-96 11.6909,-74.6096 29.4201,-55.5907 44.4309,-42.332"/>
<polygon fill="black" stroke="black" points="47.0384,-44.7107 52.413,-35.5803 42.5177,-39.3662 47.0384,-44.7107"/>
<text text-anchor="middle" x="6.95482" y="-110.3" font-family="Times,serif" font-size="14.00">a</text>
</g>
<!-- 3 -->
<g id="node4" class="node"><title>3</title>
<ellipse fill="lightblue" stroke="black" cx="37.4548" cy="-114" rx="18" ry="18"/>
<text text-anchor="middle" x="37.4548" y="-110.3" font-family="Times,serif" font-size="14.00">3</text>
</g>
<!-- 0&#45;&gt;3 -->
<g id="edge2" class="edge"><title>0&#45;&gt;3</title>
<path fill="none" stroke="black" d="M47.084,-184.009C45.4076,-171.995 43.1257,-155.641 41.204,-141.869"/>
<polygon fill="black" stroke="black" points="44.6692,-141.376 39.8207,-131.956 37.7363,-142.343 44.6692,-141.376"/>
<text text-anchor="middle" x="47.9548" y="-154.3" font-family="Times,serif" font-size="14.00">b</text>
</g>
<!-- 1&#45;&gt;0 -->
<g id="edge3" class="edge"><title>1&#45;&gt;0</title>
<path fill="none" stroke="black" d="M73.2841,-43.9819C74.1811,-49.7969 75.0056,-56.1257 75.4548,-62 78.5091,-101.939 67.1093,-147.43 58.4388,-175.173"/>
<polygon fill="black" stroke="black" points="55.0437,-174.296 55.2853,-184.888 61.7018,-176.457 55.0437,-174.296"/>
<text text-anchor="middle" x="82.9548" y="-110.3" font-family="Times,serif" font-size="14.00">b,a</text>
</g>
<!-- 2 -->
<g id="node3" class="node"><title>2</title>
<ellipse fill="lightblue" stroke="black" cx="130.455" cy="-378" rx="18" ry="18"/>
<text text-anchor="middle" x="130.455" y="-374.3" font-family="Times,serif" font-size="14.00">2</text>
</g>
<!-- 2&#45;&gt;1 -->
<g id="edge4" class="edge"><title>2&#45;&gt;1</title>
<path fill="none" stroke="black" d="M135.648,-360.703C140.647,-343.545 147.455,-315.656 147.455,-291 147.455,-291 147.455,-291 147.455,-113 147.455,-81.0564 119.048,-54.8903 96.5199,-39.1621"/>
<polygon fill="black" stroke="black" points="98.2058,-36.0801 87.9397,-33.4613 94.332,-41.9106 98.2058,-36.0801"/>
<text text-anchor="middle" x="150.955" y="-198.3" font-family="Times,serif" font-size="14.00">b</text>
</g>
<!-- 4 -->
<g id="node5" class="node"><title>4</title>
<ellipse fill="lightblue" stroke="black" cx="101.455" cy="-290" rx="18" ry="18"/>
<text text-anchor="middle" x="101.455" y="-286.3" font-family="Times,serif" font-size="14.00">4</text>
</g>
<!-- 2&#45;&gt;4 -->
<g id="edge5" class="edge"><title>2&#45;&gt;4</title>
<path fill="none" stroke="black" d="M125,-360.824C120.854,-348.53 115.066,-331.365 110.266,-317.131"/>
<polygon fill="black" stroke="black" points="113.496,-315.753 106.984,-307.396 106.862,-317.99 113.496,-315.753"/>
<text text-anchor="middle" x="121.955" y="-330.3" font-family="Times,serif" font-size="14.00">a</text>
</g>
<!-- 3&#45;&gt;1 -->
<g id="edge6" class="edge"><title>3&#45;&gt;1</title>
<path fill="none" stroke="black" d="M43.1758,-96.9098C47.5285,-84.6677 53.6413,-67.4754 58.8761,-52.7526"/>
<polygon fill="black" stroke="black" points="62.2751,-53.6402 62.3275,-43.0455 55.6796,-51.2951 62.2751,-53.6402"/>
<text text-anchor="middle" x="62.9548" y="-66.3" font-family="Times,serif" font-size="14.00">b,a</text>
</g>
<!-- 4&#45;&gt;0 -->
<g id="edge7" class="edge"><title>4&#45;&gt;0</title>
<path fill="none" stroke="black" d="M92.3971,-274.02C84.4933,-260.948 72.8896,-241.758 63.7363,-226.619"/>
<polygon fill="black" stroke="black" points="66.578,-224.555 58.4087,-217.808 60.5879,-228.177 66.578,-224.555"/>
<text text-anchor="middle" x="82.9548" y="-242.3" font-family="Times,serif" font-size="14.00">b</text>
</g>
<!-- 4&#45;&gt;3 -->
<g id="edge8" class="edge"><title>4&#45;&gt;3</title>
<path fill="none" stroke="black" d="M97.963,-271.96C95.8824,-262.031 93.1324,-249.281 90.4548,-238 84.7288,-213.877 85.7447,-206.987 76.4548,-184 70.0241,-168.088 60.602,-151.302 52.6298,-138.271"/>
<polygon fill="black" stroke="black" points="55.4186,-136.129 47.1446,-129.512 49.4859,-139.845 55.4186,-136.129"/>
<text text-anchor="middle" x="89.9548" y="-198.3" font-family="Times,serif" font-size="14.00">a</text>
</g>
</g>
</svg>
