<?xml version="1.0" encoding="UTF-8" standalone="no"?>
<!DOCTYPE svg PUBLIC "-//W3C//DTD SVG 1.1//EN"
 "http://www.w3.org/Graphics/SVG/1.1/DTD/svg11.dtd">
<!-- Generated by graphviz version 2.36.0 (20140111.2315)
 -->
<!-- Title: %3 Pages: 1 -->
<svg width="148pt" height="316pt"
 viewBox="0.00 0.00 148.00 316.00" xmlns="http://www.w3.org/2000/svg" xmlns:xlink="http://www.w3.org/1999/xlink">
<g id="graph0" class="graph" transform="scale(1 1) rotate(0) translate(4 312)">
<title>%3</title>
<polygon fill="white" stroke="none" points="-4,4 -4,-312 144,-312 144,4 -4,4"/>
<!-- 0 -->
<g id="node1" class="node"><title>0</title>
<ellipse fill="lightblue" stroke="black" cx="18" cy="-106" rx="18" ry="18"/>
<text text-anchor="middle" x="18" y="-102.3" font-family="Times,serif" font-size="14.00">0</text>
</g>
<!-- 0&#45;&gt;0 -->
<g id="edge1" class="edge"><title>0&#45;&gt;0</title>
<path fill="none" stroke="black" d="M34.2903,-113.668C44.3892,-115.517 54,-112.961 54,-106 54,-101.541 50.0557,-98.8891 44.5656,-98.0454"/>
<polygon fill="black" stroke="black" points="44.1887,-94.5544 34.2903,-98.3321 44.384,-101.552 44.1887,-94.5544"/>
<text text-anchor="middle" x="57.5" y="-102.3" font-family="Times,serif" font-size="14.00">b</text>
</g>
<!-- 4 -->
<g id="node5" class="node"><title>4</title>
<ellipse fill="lightblue" stroke="black" cx="84" cy="-18" rx="18" ry="18"/>
<text text-anchor="middle" x="84" y="-14.3" font-family="Times,serif" font-size="14.00">4</text>
</g>
<!-- 0&#45;&gt;4 -->
<g id="edge2" class="edge"><title>0&#45;&gt;4</title>
<path fill="none" stroke="black" d="M19.274,-87.6123C20.7702,-77.08 24.008,-63.8278 31,-54 38.0475,-44.0943 48.8548,-36.2291 58.8763,-30.4842"/>
<polygon fill="black" stroke="black" points="60.5222,-33.5731 67.7285,-25.8065 57.2518,-27.3841 60.5222,-33.5731"/>
<text text-anchor="middle" x="34.5" y="-58.3" font-family="Times,serif" font-size="14.00">a</text>
</g>
<!-- 1 -->
<g id="node2" class="node"><title>1</title>
<ellipse fill="lightblue" stroke="black" cx="51" cy="-286" rx="18" ry="18"/>
<text text-anchor="middle" x="51" y="-282.3" font-family="Times,serif" font-size="14.00">1</text>
</g>
<!-- 1&#45;&gt;0 -->
<g id="edge3" class="edge"><title>1&#45;&gt;0</title>
<path fill="none" stroke="black" d="M47.8954,-268.254C42.171,-237.377 29.9078,-171.23 22.9985,-133.962"/>
<polygon fill="black" stroke="black" points="26.3847,-133.025 21.1204,-123.831 19.5019,-134.301 26.3847,-133.025"/>
<text text-anchor="middle" x="41.5" y="-190.3" font-family="Times,serif" font-size="14.00">b</text>
</g>
<!-- 2 -->
<g id="node3" class="node"><title>2</title>
<ellipse fill="lightblue" stroke="black" cx="79" cy="-194" rx="18" ry="18"/>
<text text-anchor="middle" x="79" y="-190.3" font-family="Times,serif" font-size="14.00">2</text>
</g>
<!-- 1&#45;&gt;2 -->
<g id="edge4" class="edge"><title>1&#45;&gt;2</title>
<path fill="none" stroke="black" d="M56.1356,-268.493C60.2405,-255.299 66.0724,-236.553 70.8189,-221.296"/>
<polygon fill="black" stroke="black" points="74.2682,-221.991 73.8969,-211.403 67.5842,-219.912 74.2682,-221.991"/>
<text text-anchor="middle" x="70.5" y="-234.3" font-family="Times,serif" font-size="14.00">a</text>
</g>
<!-- 2&#45;&gt;0 -->
<g id="edge5" class="edge"><title>2&#45;&gt;0</title>
<path fill="none" stroke="black" d="M68.9271,-178.799C59.4791,-165.479 45.1911,-145.335 34.1514,-129.771"/>
<polygon fill="black" stroke="black" points="36.7281,-127.354 28.0879,-121.222 31.0186,-131.404 36.7281,-127.354"/>
<text text-anchor="middle" x="57.5" y="-146.3" font-family="Times,serif" font-size="14.00">b</text>
</g>
<!-- 2&#45;&gt;4 -->
<g id="edge6" class="edge"><title>2&#45;&gt;4</title>
<path fill="none" stroke="black" d="M79.4885,-175.999C80.3548,-145.853 82.167,-82.7897 83.2118,-46.4303"/>
<polygon fill="black" stroke="black" points="86.7207,-46.1661 83.5095,-36.0697 79.7236,-45.965 86.7207,-46.1661"/>
<text text-anchor="middle" x="84.5" y="-102.3" font-family="Times,serif" font-size="14.00">a</text>
</g>
<!-- 3 -->
<g id="node4" class="node"><title>3</title>
<ellipse fill="green" stroke="black" cx="118" cy="-286" rx="17.5909" ry="18"/>
<ellipse fill="none" stroke="black" cx="118" cy="-286" rx="21.5" ry="22"/>
<text text-anchor="middle" x="118" y="-282.3" font-family="Times,serif" font-size="14.00">3</text>
</g>
<!-- 3&#45;&gt;2 -->
<g id="edge7" class="edge"><title>3&#45;&gt;2</title>
<path fill="none" stroke="black" d="M109.538,-265.471C103.786,-252.198 96.1233,-234.515 89.913,-220.184"/>
<polygon fill="black" stroke="black" points="93.0744,-218.677 85.8868,-210.893 86.6515,-221.46 93.0744,-218.677"/>
<text text-anchor="middle" x="103.5" y="-234.3" font-family="Times,serif" font-size="14.00">b</text>
</g>
<!-- 3&#45;&gt;4 -->
<g id="edge8" class="edge"><title>3&#45;&gt;4</title>
<path fill="none" stroke="black" d="M117.64,-263.724C116.58,-222.701 112.408,-130 96,-54 95.3434,-50.9586 94.5057,-47.8152 93.5789,-44.7171"/>
<polygon fill="black" stroke="black" points="96.8819,-43.5574 90.4272,-35.1558 90.2338,-45.7488 96.8819,-43.5574"/>
<text text-anchor="middle" x="114.5" y="-146.3" font-family="Times,serif" font-size="14.00">a</text>
</g>
<!-- 4&#45;&gt;0 -->
<g id="edge9" class="edge"><title>4&#45;&gt;0</title>
<path fill="none" stroke="black" d="M73.4223,-32.7831C63.0399,-46.3117 47.0392,-67.161 34.8943,-82.9862"/>
<polygon fill="black" stroke="black" points="31.9157,-81.1186 28.604,-91.1826 37.4689,-85.3804 31.9157,-81.1186"/>
<text text-anchor="middle" x="65.5" y="-58.3" font-family="Times,serif" font-size="14.00">b,a</text>
</g>
</g>
</svg>
