<?xml version="1.0" encoding="UTF-8" standalone="no"?>
<!DOCTYPE svg PUBLIC "-//W3C//DTD SVG 1.1//EN"
 "http://www.w3.org/Graphics/SVG/1.1/DTD/svg11.dtd">
<!-- Generated by graphviz version 2.36.0 (20140111.2315)
 -->
<!-- Title: %3 Pages: 1 -->
<svg width="114pt" height="316pt"
 viewBox="0.00 0.00 114.18 316.00" xmlns="http://www.w3.org/2000/svg" xmlns:xlink="http://www.w3.org/1999/xlink">
<g id="graph0" class="graph" transform="scale(1 1) rotate(0) translate(4 312)">
<title>%3</title>
<polygon fill="white" stroke="none" points="-4,4 -4,-312 110.18,-312 110.18,4 -4,4"/>
<!-- 0 -->
<g id="node1" class="node"><title>0</title>
<ellipse fill="lightblue" stroke="black" cx="36.1805" cy="-290" rx="18" ry="18"/>
<text text-anchor="middle" x="36.1805" y="-286.3" font-family="Times,serif" font-size="14.00">0</text>
</g>
<!-- 2 -->
<g id="node3" class="node"><title>2</title>
<ellipse fill="green" stroke="black" cx="32.1805" cy="-110" rx="17.5909" ry="18"/>
<ellipse fill="none" stroke="black" cx="32.1805" cy="-110" rx="21.5" ry="22"/>
<text text-anchor="middle" x="32.1805" y="-106.3" font-family="Times,serif" font-size="14.00">2</text>
</g>
<!-- 0&#45;&gt;2 -->
<g id="edge1" class="edge"><title>0&#45;&gt;2</title>
<path fill="none" stroke="black" d="M26.673,-274.668C18.351,-261.202 6.87769,-240.16 2.1805,-220 -4.33747,-192.026 6.40032,-160.415 16.7952,-138.467"/>
<polygon fill="black" stroke="black" points="19.9866,-139.91 21.3304,-129.401 13.7262,-136.778 19.9866,-139.91"/>
<text text-anchor="middle" x="5.6805" y="-198.3" font-family="Times,serif" font-size="14.00">b</text>
</g>
<!-- 3 -->
<g id="node4" class="node"><title>3</title>
<ellipse fill="lightblue" stroke="black" cx="36.1805" cy="-202" rx="18" ry="18"/>
<text text-anchor="middle" x="36.1805" y="-198.3" font-family="Times,serif" font-size="14.00">3</text>
</g>
<!-- 0&#45;&gt;3 -->
<g id="edge2" class="edge"><title>0&#45;&gt;3</title>
<path fill="none" stroke="black" d="M36.1805,-271.597C36.1805,-259.746 36.1805,-243.817 36.1805,-230.292"/>
<polygon fill="black" stroke="black" points="39.6806,-230.084 36.1805,-220.084 32.6806,-230.084 39.6806,-230.084"/>
<text text-anchor="middle" x="39.6805" y="-242.3" font-family="Times,serif" font-size="14.00">a</text>
</g>
<!-- 1 -->
<g id="node2" class="node"><title>1</title>
<ellipse fill="lightblue" stroke="black" cx="62.1805" cy="-18" rx="18" ry="18"/>
<text text-anchor="middle" x="62.1805" y="-14.3" font-family="Times,serif" font-size="14.00">1</text>
</g>
<!-- 1&#45;&gt;0 -->
<g id="edge3" class="edge"><title>1&#45;&gt;0</title>
<path fill="none" stroke="black" d="M69.8406,-34.4325C76.1813,-48.121 84.6935,-68.8569 88.1805,-88 98.6939,-145.717 106.797,-164.365 88.1805,-220 81.7948,-239.083 67.8214,-257.115 55.9665,-269.956"/>
<polygon fill="black" stroke="black" points="53.3631,-267.614 48.9458,-277.244 58.4044,-272.47 53.3631,-267.614"/>
<text text-anchor="middle" x="102.68" y="-154.3" font-family="Times,serif" font-size="14.00">a</text>
</g>
<!-- 1&#45;&gt;2 -->
<g id="edge4" class="edge"><title>1&#45;&gt;2</title>
<path fill="none" stroke="black" d="M56.7434,-35.3114C52.6569,-47.5707 46.9464,-64.7023 42.0598,-79.3621"/>
<polygon fill="black" stroke="black" points="38.6804,-78.4324 38.8385,-89.0261 45.3212,-80.6461 38.6804,-78.4324"/>
<text text-anchor="middle" x="52.6805" y="-58.3" font-family="Times,serif" font-size="14.00">b</text>
</g>
<!-- 2&#45;&gt;1 -->
<g id="edge5" class="edge"><title>2&#45;&gt;1</title>
<path fill="none" stroke="black" d="M30.4366,-88.0327C30.2743,-77.514 31.1833,-64.7567 35.1805,-54 37.1027,-48.8273 40.0752,-43.7991 43.3564,-39.2423"/>
<polygon fill="black" stroke="black" points="46.3236,-41.1368 49.8515,-31.1466 40.8637,-36.7563 46.3236,-41.1368"/>
<text text-anchor="middle" x="38.6805" y="-58.3" font-family="Times,serif" font-size="14.00">a</text>
</g>
<!-- 2&#45;&gt;2 -->
<g id="edge6" class="edge"><title>2&#45;&gt;2</title>
<path fill="none" stroke="black" d="M52.2468,-118.734C62.2541,-119.943 71.1805,-117.031 71.1805,-110 71.1805,-105.496 67.5171,-102.682 62.253,-101.559"/>
<polygon fill="black" stroke="black" points="62.3451,-98.0605 52.2468,-101.266 62.1399,-105.057 62.3451,-98.0605"/>
<text text-anchor="middle" x="74.6805" y="-106.3" font-family="Times,serif" font-size="14.00">b</text>
</g>
<!-- 3&#45;&gt;2 -->
<g id="edge7" class="edge"><title>3&#45;&gt;2</title>
<path fill="none" stroke="black" d="M35.4093,-183.647C34.8882,-171.924 34.1856,-156.114 33.5688,-142.237"/>
<polygon fill="black" stroke="black" points="37.059,-141.936 33.1183,-132.101 30.0659,-142.247 37.059,-141.936"/>
<text text-anchor="middle" x="37.6805" y="-154.3" font-family="Times,serif" font-size="14.00">a</text>
</g>
<!-- 3&#45;&gt;3 -->
<g id="edge8" class="edge"><title>3&#45;&gt;3</title>
<path fill="none" stroke="black" d="M52.4708,-209.668C62.5697,-211.517 72.1805,-208.961 72.1805,-202 72.1805,-197.541 68.2362,-194.889 62.7461,-194.045"/>
<polygon fill="black" stroke="black" points="62.3692,-190.554 52.4708,-194.332 62.5645,-197.552 62.3692,-190.554"/>
<text text-anchor="middle" x="75.6805" y="-198.3" font-family="Times,serif" font-size="14.00">b</text>
</g>
</g>
</svg>
