<?xml version="1.0" encoding="UTF-8" standalone="no"?>
<!DOCTYPE svg PUBLIC "-//W3C//DTD SVG 1.1//EN"
 "http://www.w3.org/Graphics/SVG/1.1/DTD/svg11.dtd">
<!-- Generated by graphviz version 2.36.0 (20140111.2315)
 -->
<!-- Title: %3 Pages: 1 -->
<svg width="79pt" height="316pt"
 viewBox="0.00 0.00 79.00 316.00" xmlns="http://www.w3.org/2000/svg" xmlns:xlink="http://www.w3.org/1999/xlink">
<g id="graph0" class="graph" transform="scale(1 1) rotate(0) translate(4 312)">
<title>%3</title>
<polygon fill="white" stroke="none" points="-4,4 -4,-312 75,-312 75,4 -4,4"/>
<!-- 0 -->
<g id="node1" class="node"><title>0</title>
<ellipse fill="lightblue" stroke="black" cx="18" cy="-106" rx="18" ry="18"/>
<text text-anchor="middle" x="18" y="-102.3" font-family="Times,serif" font-size="14.00">0</text>
</g>
<!-- 0&#45;&gt;0 -->
<g id="edge1" class="edge"><title>0&#45;&gt;0</title>
<path fill="none" stroke="black" d="M34.2903,-113.668C44.3892,-115.517 54,-112.961 54,-106 54,-101.541 50.0557,-98.8891 44.5656,-98.0454"/>
<polygon fill="black" stroke="black" points="44.1887,-94.5544 34.2903,-98.3321 44.384,-101.552 44.1887,-94.5544"/>
<text text-anchor="middle" x="57.5" y="-102.3" font-family="Times,serif" font-size="14.00">a</text>
</g>
<!-- 2 -->
<g id="node3" class="node"><title>2</title>
<ellipse fill="lightblue" stroke="black" cx="18" cy="-18" rx="18" ry="18"/>
<text text-anchor="middle" x="18" y="-14.3" font-family="Times,serif" font-size="14.00">2</text>
</g>
<!-- 0&#45;&gt;2 -->
<g id="edge2" class="edge"><title>0&#45;&gt;2</title>
<path fill="none" stroke="black" d="M18,-87.5966C18,-75.7459 18,-59.8169 18,-46.2917"/>
<polygon fill="black" stroke="black" points="21.5001,-46.084 18,-36.084 14.5001,-46.084 21.5001,-46.084"/>
<text text-anchor="middle" x="21.5" y="-58.3" font-family="Times,serif" font-size="14.00">b</text>
</g>
<!-- 1 -->
<g id="node2" class="node"><title>1</title>
<ellipse fill="lightblue" stroke="black" cx="31" cy="-290" rx="18" ry="18"/>
<text text-anchor="middle" x="31" y="-286.3" font-family="Times,serif" font-size="14.00">1</text>
</g>
<!-- 1&#45;&gt;0 -->
<g id="edge3" class="edge"><title>1&#45;&gt;0</title>
<path fill="none" stroke="black" d="M23.8097,-273.229C17.9671,-259.497 10.1904,-238.884 7,-220 2.03935,-190.638 6.76443,-156.578 11.4711,-133.59"/>
<polygon fill="black" stroke="black" points="14.9464,-134.082 13.6673,-123.564 8.10849,-132.584 14.9464,-134.082"/>
<text text-anchor="middle" x="10.5" y="-194.3" font-family="Times,serif" font-size="14.00">b</text>
</g>
<!-- 3 -->
<g id="node4" class="node"><title>3</title>
<ellipse fill="green" stroke="black" cx="45" cy="-198" rx="17.5909" ry="18"/>
<ellipse fill="none" stroke="black" cx="45" cy="-198" rx="21.5" ry="22"/>
<text text-anchor="middle" x="45" y="-194.3" font-family="Times,serif" font-size="14.00">3</text>
</g>
<!-- 1&#45;&gt;3 -->
<g id="edge4" class="edge"><title>1&#45;&gt;3</title>
<path fill="none" stroke="black" d="M31.0861,-271.896C31.3647,-261.945 32.1147,-249.195 34,-238 34.5093,-234.976 35.1641,-231.851 35.9001,-228.747"/>
<polygon fill="black" stroke="black" points="39.2909,-229.614 38.449,-219.053 32.521,-227.834 39.2909,-229.614"/>
<text text-anchor="middle" x="37.5" y="-242.3" font-family="Times,serif" font-size="14.00">a</text>
</g>
<!-- 2&#45;&gt;2 -->
<g id="edge5" class="edge"><title>2&#45;&gt;2</title>
<path fill="none" stroke="black" d="M34.2903,-25.6679C44.3892,-27.5169 54,-24.9609 54,-18 54,-13.5406 50.0557,-10.8891 44.5656,-10.0454"/>
<polygon fill="black" stroke="black" points="44.1887,-6.55441 34.2903,-10.3321 44.384,-13.5517 44.1887,-6.55441"/>
<text text-anchor="middle" x="62.5" y="-14.3" font-family="Times,serif" font-size="14.00">b,a</text>
</g>
<!-- 3&#45;&gt;0 -->
<g id="edge6" class="edge"><title>3&#45;&gt;0</title>
<path fill="none" stroke="black" d="M38.8733,-176.578C35.0298,-163.766 30.036,-147.12 25.8967,-133.322"/>
<polygon fill="black" stroke="black" points="29.1571,-132.01 22.9311,-123.437 22.4523,-134.021 29.1571,-132.01"/>
<text text-anchor="middle" x="36.5" y="-146.3" font-family="Times,serif" font-size="14.00">b</text>
</g>
<!-- 3&#45;&gt;1 -->
<g id="edge7" class="edge"><title>3&#45;&gt;1</title>
<path fill="none" stroke="black" d="M43.2885,-219.972C42.3022,-230.264 40.8805,-242.823 39,-254 38.5408,-256.73 38.0001,-259.565 37.4202,-262.388"/>
<polygon fill="black" stroke="black" points="33.9604,-261.825 35.2223,-272.344 40.7958,-263.334 33.9604,-261.825"/>
<text text-anchor="middle" x="44.5" y="-242.3" font-family="Times,serif" font-size="14.00">a</text>
</g>
</g>
</svg>
