<?xml version="1.0" encoding="UTF-8" standalone="no"?>
<!DOCTYPE svg PUBLIC "-//W3C//DTD SVG 1.1//EN"
 "http://www.w3.org/Graphics/SVG/1.1/DTD/svg11.dtd">
<!-- Generated by graphviz version 2.36.0 (20140111.2315)
 -->
<!-- Title: %3 Pages: 1 -->
<svg width="165pt" height="316pt"
 viewBox="0.00 0.00 165.00 316.00" xmlns="http://www.w3.org/2000/svg" xmlns:xlink="http://www.w3.org/1999/xlink">
<g id="graph0" class="graph" transform="scale(1 1) rotate(0) translate(4 312)">
<title>%3</title>
<polygon fill="white" stroke="none" points="-4,4 -4,-312 161,-312 161,4 -4,4"/>
<!-- 0 -->
<g id="node1" class="node"><title>0</title>
<ellipse fill="lightblue" stroke="black" cx="62" cy="-290" rx="18" ry="18"/>
<text text-anchor="middle" x="62" y="-286.3" font-family="Times,serif" font-size="14.00">0</text>
</g>
<!-- 2 -->
<g id="node3" class="node"><title>2</title>
<ellipse fill="lightblue" stroke="black" cx="18" cy="-198" rx="18" ry="18"/>
<text text-anchor="middle" x="18" y="-194.3" font-family="Times,serif" font-size="14.00">2</text>
</g>
<!-- 0&#45;&gt;2 -->
<g id="edge1" class="edge"><title>0&#45;&gt;2</title>
<path fill="none" stroke="black" d="M45.7319,-281.794C34.8487,-276.003 21.3915,-266.729 15,-254 10.6974,-245.431 10.2253,-235.138 11.2433,-225.785"/>
<polygon fill="black" stroke="black" points="14.7214,-226.204 12.9009,-215.767 7.8153,-225.061 14.7214,-226.204"/>
<text text-anchor="middle" x="18.5" y="-242.3" font-family="Times,serif" font-size="14.00">b</text>
</g>
<!-- 4 -->
<g id="node5" class="node"><title>4</title>
<ellipse fill="lightblue" stroke="black" cx="79" cy="-198" rx="17.5909" ry="18"/>
<ellipse fill="none" stroke="black" cx="79" cy="-198" rx="21.5" ry="22"/>
<text text-anchor="middle" x="79" y="-194.3" font-family="Times,serif" font-size="14.00">4</text>
</g>
<!-- 0&#45;&gt;4 -->
<g id="edge2" class="edge"><title>0&#45;&gt;4</title>
<path fill="none" stroke="black" d="M65.1976,-272.072C67.4575,-260.107 70.5501,-243.735 73.2352,-229.52"/>
<polygon fill="black" stroke="black" points="76.6836,-230.12 75.1005,-219.644 69.8052,-228.821 76.6836,-230.12"/>
<text text-anchor="middle" x="75.5" y="-242.3" font-family="Times,serif" font-size="14.00">a</text>
</g>
<!-- 1 -->
<g id="node2" class="node"><title>1</title>
<ellipse fill="green" stroke="black" cx="114" cy="-18" rx="18" ry="18"/>
<text text-anchor="middle" x="114" y="-14.3" font-family="Times,serif" font-size="14.00">1</text>
</g>
<!-- 1&#45;&gt;1 -->
<g id="edge3" class="edge"><title>1&#45;&gt;1</title>
<path fill="none" stroke="black" d="M130.29,-25.6679C140.389,-27.5169 150,-24.9609 150,-18 150,-13.5406 146.056,-10.8891 140.566,-10.0454"/>
<polygon fill="black" stroke="black" points="140.189,-6.55441 130.29,-10.3321 140.384,-13.5517 140.189,-6.55441"/>
<text text-anchor="middle" x="153.5" y="-14.3" font-family="Times,serif" font-size="14.00">b</text>
</g>
<!-- 3 -->
<g id="node4" class="node"><title>3</title>
<ellipse fill="lightblue" stroke="black" cx="114" cy="-106" rx="18" ry="18"/>
<text text-anchor="middle" x="114" y="-102.3" font-family="Times,serif" font-size="14.00">3</text>
</g>
<!-- 1&#45;&gt;3 -->
<g id="edge4" class="edge"><title>1&#45;&gt;3</title>
<path fill="none" stroke="black" d="M114,-36.084C114,-47.8607 114,-63.7741 114,-77.342"/>
<polygon fill="black" stroke="black" points="110.5,-77.5966 114,-87.5966 117.5,-77.5967 110.5,-77.5966"/>
<text text-anchor="middle" x="117.5" y="-58.3" font-family="Times,serif" font-size="14.00">a</text>
</g>
<!-- 2&#45;&gt;0 -->
<g id="edge5" class="edge"><title>2&#45;&gt;0</title>
<path fill="none" stroke="black" d="M25.5764,-214.497C32.2367,-228.12 42.0504,-248.194 49.8136,-264.073"/>
<polygon fill="black" stroke="black" points="46.7993,-265.877 54.3358,-273.323 53.088,-262.802 46.7993,-265.877"/>
<text text-anchor="middle" x="52.5" y="-242.3" font-family="Times,serif" font-size="14.00">b,a</text>
</g>
<!-- 3&#45;&gt;0 -->
<g id="edge6" class="edge"><title>3&#45;&gt;0</title>
<path fill="none" stroke="black" d="M118.024,-123.634C119.236,-129.411 120.402,-135.957 121,-142 124.456,-176.904 122.483,-187.621 109,-220 101.733,-237.452 89.6703,-255.032 79.5854,-268.079"/>
<polygon fill="black" stroke="black" points="76.8074,-265.949 73.3141,-275.951 82.2825,-270.311 76.8074,-265.949"/>
<text text-anchor="middle" x="125.5" y="-194.3" font-family="Times,serif" font-size="14.00">a</text>
</g>
<!-- 3&#45;&gt;1 -->
<g id="edge7" class="edge"><title>3&#45;&gt;1</title>
<path fill="none" stroke="black" d="M107.8,-88.8629C105.856,-83.0135 103.966,-76.2957 103,-70 101.921,-62.9712 101.921,-61.0288 103,-54 103.453,-51.0489 104.109,-48.005 104.878,-45.0013"/>
<polygon fill="black" stroke="black" points="108.315,-45.7194 107.8,-35.1371 101.604,-43.7309 108.315,-45.7194"/>
<text text-anchor="middle" x="106.5" y="-58.3" font-family="Times,serif" font-size="14.00">b</text>
</g>
<!-- 4&#45;&gt;3 -->
<g id="edge8" class="edge"><title>4&#45;&gt;3</title>
<path fill="none" stroke="black" d="M86.7676,-177.026C91.8563,-163.941 98.5546,-146.717 104.035,-132.625"/>
<polygon fill="black" stroke="black" points="107.407,-133.611 107.769,-123.022 100.883,-131.074 107.407,-133.611"/>
<text text-anchor="middle" x="108.5" y="-146.3" font-family="Times,serif" font-size="14.00">b,a</text>
</g>
</g>
</svg>
