<?xml version="1.0" encoding="UTF-8" standalone="no"?>
<!DOCTYPE svg PUBLIC "-//W3C//DTD SVG 1.1//EN"
 "http://www.w3.org/Graphics/SVG/1.1/DTD/svg11.dtd">
<!-- Generated by graphviz version 2.36.0 (20140111.2315)
 -->
<!-- Title: %3 Pages: 1 -->
<svg width="110pt" height="404pt"
 viewBox="0.00 0.00 110.48 404.00" xmlns="http://www.w3.org/2000/svg" xmlns:xlink="http://www.w3.org/1999/xlink">
<g id="graph0" class="graph" transform="scale(1 1) rotate(0) translate(4 400)">
<title>%3</title>
<polygon fill="white" stroke="none" points="-4,4 -4,-400 106.481,-400 106.481,4 -4,4"/>
<!-- 0 -->
<g id="node1" class="node"><title>0</title>
<ellipse fill="lightblue" stroke="black" cx="68.4809" cy="-378" rx="18" ry="18"/>
<text text-anchor="middle" x="68.4809" y="-374.3" font-family="Times,serif" font-size="14.00">0</text>
</g>
<!-- 1 -->
<g id="node2" class="node"><title>1</title>
<ellipse fill="green" stroke="black" cx="30.4809" cy="-290" rx="18" ry="18"/>
<text text-anchor="middle" x="30.4809" y="-286.3" font-family="Times,serif" font-size="14.00">1</text>
</g>
<!-- 0&#45;&gt;1 -->
<g id="edge1" class="edge"><title>0&#45;&gt;1</title>
<path fill="none" stroke="black" d="M61.5111,-361.226C55.9403,-348.619 48.0254,-330.706 41.5838,-316.128"/>
<polygon fill="black" stroke="black" points="44.6496,-314.406 37.4065,-306.674 38.2468,-317.235 44.6496,-314.406"/>
<text text-anchor="middle" x="61.9809" y="-330.3" font-family="Times,serif" font-size="14.00">b,a</text>
</g>
<!-- 2 -->
<g id="node3" class="node"><title>2</title>
<ellipse fill="lightblue" stroke="black" cx="80.4809" cy="-198" rx="17.5909" ry="18"/>
<ellipse fill="none" stroke="black" cx="80.4809" cy="-198" rx="21.5" ry="22"/>
<text text-anchor="middle" x="80.4809" y="-194.3" font-family="Times,serif" font-size="14.00">2</text>
</g>
<!-- 1&#45;&gt;2 -->
<g id="edge2" class="edge"><title>1&#45;&gt;2</title>
<path fill="none" stroke="black" d="M38.9627,-273.733C46.1153,-260.858 56.5332,-242.106 65.1436,-226.607"/>
<polygon fill="black" stroke="black" points="68.429,-227.9 70.2259,-217.459 62.3099,-224.501 68.429,-227.9"/>
<text text-anchor="middle" x="60.9809" y="-242.3" font-family="Times,serif" font-size="14.00">b</text>
</g>
<!-- 4 -->
<g id="node5" class="node"><title>4</title>
<ellipse fill="lightblue" stroke="black" cx="30.4809" cy="-18" rx="18" ry="18"/>
<text text-anchor="middle" x="30.4809" y="-14.3" font-family="Times,serif" font-size="14.00">4</text>
</g>
<!-- 1&#45;&gt;4 -->
<g id="edge3" class="edge"><title>1&#45;&gt;4</title>
<path fill="none" stroke="black" d="M23.2947,-273.23C20.8282,-267.301 18.2469,-260.438 16.4809,-254 3.1939,-205.567 -2.75364,-192.043 1.48088,-142 4.82613,-102.466 5.71983,-92.188 16.4809,-54 17.3862,-50.7874 18.4864,-47.4658 19.6679,-44.206"/>
<polygon fill="black" stroke="black" points="22.97,-45.3716 23.343,-34.7834 16.4485,-42.828 22.97,-45.3716"/>
<text text-anchor="middle" x="4.98088" y="-146.3" font-family="Times,serif" font-size="14.00">a</text>
</g>
<!-- 2&#45;&gt;0 -->
<g id="edge4" class="edge"><title>2&#45;&gt;0</title>
<path fill="none" stroke="black" d="M79.2896,-220.33C77.6937,-248.285 74.6887,-298.836 71.4809,-342 71.291,-344.554 71.0828,-347.213 70.8672,-349.872"/>
<polygon fill="black" stroke="black" points="67.3729,-349.658 70.0232,-359.916 74.3483,-350.245 67.3729,-349.658"/>
<text text-anchor="middle" x="78.9809" y="-286.3" font-family="Times,serif" font-size="14.00">a</text>
</g>
<!-- 3 -->
<g id="node4" class="node"><title>3</title>
<ellipse fill="lightblue" stroke="black" cx="77.4809" cy="-106" rx="18" ry="18"/>
<text text-anchor="middle" x="77.4809" y="-102.3" font-family="Times,serif" font-size="14.00">3</text>
</g>
<!-- 2&#45;&gt;3 -->
<g id="edge5" class="edge"><title>2&#45;&gt;3</title>
<path fill="none" stroke="black" d="M79.7699,-175.671C79.357,-163.284 78.8326,-147.552 78.39,-134.272"/>
<polygon fill="black" stroke="black" points="81.8875,-134.136 78.0562,-124.258 74.8913,-134.369 81.8875,-134.136"/>
<text text-anchor="middle" x="81.9809" y="-146.3" font-family="Times,serif" font-size="14.00">b</text>
</g>
<!-- 3&#45;&gt;4 -->
<g id="edge6" class="edge"><title>3&#45;&gt;4</title>
<path fill="none" stroke="black" d="M69.0782,-89.6249C62.0605,-76.784 51.9279,-58.2434 43.8053,-43.3808"/>
<polygon fill="black" stroke="black" points="46.6778,-41.3385 38.8108,-34.242 40.5352,-44.6955 46.6778,-41.3385"/>
<text text-anchor="middle" x="65.9809" y="-58.3" font-family="Times,serif" font-size="14.00">b,a</text>
</g>
<!-- 4&#45;&gt;1 -->
<g id="edge7" class="edge"><title>4&#45;&gt;1</title>
<path fill="none" stroke="black" d="M30.4809,-36.1564C30.4809,-81.7103 30.4809,-206.009 30.4809,-261.551"/>
<polygon fill="black" stroke="black" points="26.981,-261.7 30.4809,-271.7 33.981,-261.7 26.981,-261.7"/>
<text text-anchor="middle" x="33.9809" y="-146.3" font-family="Times,serif" font-size="14.00">b</text>
</g>
<!-- 4&#45;&gt;4 -->
<g id="edge8" class="edge"><title>4&#45;&gt;4</title>
<path fill="none" stroke="black" d="M46.7712,-25.6679C56.87,-27.5169 66.4809,-24.9609 66.4809,-18 66.4809,-13.5406 62.5366,-10.8891 57.0465,-10.0454"/>
<polygon fill="black" stroke="black" points="56.6696,-6.55441 46.7712,-10.3321 56.8649,-13.5517 56.6696,-6.55441"/>
<text text-anchor="middle" x="69.9809" y="-14.3" font-family="Times,serif" font-size="14.00">a</text>
</g>
</g>
</svg>
