<?xml version="1.0" encoding="UTF-8" standalone="no"?>
<!DOCTYPE svg PUBLIC "-//W3C//DTD SVG 1.1//EN"
 "http://www.w3.org/Graphics/SVG/1.1/DTD/svg11.dtd">
<!-- Generated by graphviz version 2.36.0 (20140111.2315)
 -->
<!-- Title: %3 Pages: 1 -->
<svg width="129pt" height="316pt"
 viewBox="0.00 0.00 129.00 316.00" xmlns="http://www.w3.org/2000/svg" xmlns:xlink="http://www.w3.org/1999/xlink">
<g id="graph0" class="graph" transform="scale(1 1) rotate(0) translate(4 312)">
<title>%3</title>
<polygon fill="white" stroke="none" points="-4,4 -4,-312 125,-312 125,4 -4,4"/>
<!-- 0 -->
<g id="node1" class="node"><title>0</title>
<ellipse fill="lightblue" stroke="black" cx="21" cy="-198" rx="17.5909" ry="18"/>
<ellipse fill="none" stroke="black" cx="21" cy="-198" rx="21.5" ry="22"/>
<text text-anchor="middle" x="21" y="-194.3" font-family="Times,serif" font-size="14.00">0</text>
</g>
<!-- 0&#45;&gt;0 -->
<g id="edge1" class="edge"><title>0&#45;&gt;0</title>
<path fill="none" stroke="black" d="M41.0663,-206.734C51.0736,-207.943 60,-205.031 60,-198 60,-193.496 56.3366,-190.682 51.0725,-189.559"/>
<polygon fill="black" stroke="black" points="51.1646,-186.061 41.0663,-189.266 50.9594,-193.057 51.1646,-186.061"/>
<text text-anchor="middle" x="63.5" y="-194.3" font-family="Times,serif" font-size="14.00">b</text>
</g>
<!-- 3 -->
<g id="node4" class="node"><title>3</title>
<ellipse fill="green" stroke="black" cx="78" cy="-106" rx="18" ry="18"/>
<text text-anchor="middle" x="78" y="-102.3" font-family="Times,serif" font-size="14.00">3</text>
</g>
<!-- 0&#45;&gt;3 -->
<g id="edge2" class="edge"><title>0&#45;&gt;3</title>
<path fill="none" stroke="black" d="M32.2614,-179.219C41.0741,-165.304 53.4093,-145.827 63.0492,-130.607"/>
<polygon fill="black" stroke="black" points="66.2538,-132.088 68.6475,-121.767 60.34,-128.343 66.2538,-132.088"/>
<text text-anchor="middle" x="57.5" y="-146.3" font-family="Times,serif" font-size="14.00">a</text>
</g>
<!-- 1 -->
<g id="node2" class="node"><title>1</title>
<ellipse fill="lightblue" stroke="black" cx="78" cy="-290" rx="18" ry="18"/>
<text text-anchor="middle" x="78" y="-286.3" font-family="Times,serif" font-size="14.00">1</text>
</g>
<!-- 1&#45;&gt;0 -->
<g id="edge3" class="edge"><title>1&#45;&gt;0</title>
<path fill="none" stroke="black" d="M68.5876,-274.138C60.2878,-261.033 47.9908,-241.617 37.9764,-225.805"/>
<polygon fill="black" stroke="black" points="40.6988,-223.562 32.3914,-216.986 34.7851,-227.307 40.6988,-223.562"/>
<text text-anchor="middle" x="57.5" y="-242.3" font-family="Times,serif" font-size="14.00">b</text>
</g>
<!-- 1&#45;&gt;3 -->
<g id="edge4" class="edge"><title>1&#45;&gt;3</title>
<path fill="none" stroke="black" d="M78,-271.878C78,-240.307 78,-172.673 78,-134.568"/>
<polygon fill="black" stroke="black" points="81.5001,-134.209 78,-124.209 74.5001,-134.209 81.5001,-134.209"/>
<text text-anchor="middle" x="81.5" y="-194.3" font-family="Times,serif" font-size="14.00">a</text>
</g>
<!-- 2 -->
<g id="node3" class="node"><title>2</title>
<ellipse fill="lightblue" stroke="black" cx="78" cy="-18" rx="18" ry="18"/>
<text text-anchor="middle" x="78" y="-14.3" font-family="Times,serif" font-size="14.00">2</text>
</g>
<!-- 2&#45;&gt;3 -->
<g id="edge5" class="edge"><title>2&#45;&gt;3</title>
<path fill="none" stroke="black" d="M78,-36.084C78,-47.8607 78,-63.7741 78,-77.342"/>
<polygon fill="black" stroke="black" points="74.5001,-77.5966 78,-87.5966 81.5001,-77.5967 74.5001,-77.5966"/>
<text text-anchor="middle" x="86.5" y="-58.3" font-family="Times,serif" font-size="14.00">b,a</text>
</g>
<!-- 3&#45;&gt;2 -->
<g id="edge6" class="edge"><title>3&#45;&gt;2</title>
<path fill="none" stroke="black" d="M71.8003,-88.8629C69.8558,-83.0135 67.966,-76.2957 67,-70 65.9215,-62.9712 65.9215,-61.0288 67,-54 67.4528,-51.0489 68.1086,-48.005 68.8779,-45.0013"/>
<polygon fill="black" stroke="black" points="72.3155,-45.7194 71.8003,-35.1371 65.6038,-43.7309 72.3155,-45.7194"/>
<text text-anchor="middle" x="70.5" y="-58.3" font-family="Times,serif" font-size="14.00">b</text>
</g>
<!-- 3&#45;&gt;3 -->
<g id="edge7" class="edge"><title>3&#45;&gt;3</title>
<path fill="none" stroke="black" d="M94.2903,-113.668C104.389,-115.517 114,-112.961 114,-106 114,-101.541 110.056,-98.8891 104.566,-98.0454"/>
<polygon fill="black" stroke="black" points="104.189,-94.5544 94.2903,-98.3321 104.384,-101.552 104.189,-94.5544"/>
<text text-anchor="middle" x="117.5" y="-102.3" font-family="Times,serif" font-size="14.00">a</text>
</g>
</g>
</svg>
