<?xml version="1.0" encoding="UTF-8" standalone="no"?>
<!DOCTYPE svg PUBLIC "-//W3C//DTD SVG 1.1//EN"
 "http://www.w3.org/Graphics/SVG/1.1/DTD/svg11.dtd">
<!-- Generated by graphviz version 2.36.0 (20140111.2315)
 -->
<!-- Title: %3 Pages: 1 -->
<svg width="133pt" height="316pt"
 viewBox="0.00 0.00 133.00 316.00" xmlns="http://www.w3.org/2000/svg" xmlns:xlink="http://www.w3.org/1999/xlink">
<g id="graph0" class="graph" transform="scale(1 1) rotate(0) translate(4 312)">
<title>%3</title>
<polygon fill="white" stroke="none" points="-4,4 -4,-312 129,-312 129,4 -4,4"/>
<!-- 0 -->
<g id="node1" class="node"><title>0</title>
<ellipse fill="green" stroke="black" cx="82" cy="-290" rx="18" ry="18"/>
<text text-anchor="middle" x="82" y="-286.3" font-family="Times,serif" font-size="14.00">0</text>
</g>
<!-- 0&#45;&gt;0 -->
<g id="edge1" class="edge"><title>0&#45;&gt;0</title>
<path fill="none" stroke="black" d="M98.2903,-297.668C108.389,-299.517 118,-296.961 118,-290 118,-285.541 114.056,-282.889 108.566,-282.045"/>
<polygon fill="black" stroke="black" points="108.189,-278.554 98.2903,-282.332 108.384,-285.552 108.189,-278.554"/>
<text text-anchor="middle" x="121.5" y="-286.3" font-family="Times,serif" font-size="14.00">a</text>
</g>
<!-- 1 -->
<g id="node2" class="node"><title>1</title>
<ellipse fill="lightblue" stroke="black" cx="18" cy="-202" rx="18" ry="18"/>
<text text-anchor="middle" x="18" y="-198.3" font-family="Times,serif" font-size="14.00">1</text>
</g>
<!-- 0&#45;&gt;1 -->
<g id="edge2" class="edge"><title>0&#45;&gt;1</title>
<path fill="none" stroke="black" d="M66.8418,-279.498C57.7743,-273.185 46.5788,-264.198 39,-254 33.4991,-246.598 29.1649,-237.547 25.8982,-229.135"/>
<polygon fill="black" stroke="black" points="29.19,-227.946 22.5477,-219.692 22.5929,-230.286 29.19,-227.946"/>
<text text-anchor="middle" x="42.5" y="-242.3" font-family="Times,serif" font-size="14.00">c</text>
</g>
<!-- 3 -->
<g id="node4" class="node"><title>3</title>
<ellipse fill="lightblue" stroke="black" cx="61" cy="-114" rx="18" ry="18"/>
<text text-anchor="middle" x="61" y="-110.3" font-family="Times,serif" font-size="14.00">3</text>
</g>
<!-- 0&#45;&gt;3 -->
<g id="edge3" class="edge"><title>0&#45;&gt;3</title>
<path fill="none" stroke="black" d="M80.1296,-271.895C77.8369,-251.104 73.7881,-214.96 70,-184 68.3036,-170.135 66.3036,-154.719 64.6204,-141.981"/>
<polygon fill="black" stroke="black" points="68.0814,-141.456 63.2945,-132.004 61.1424,-142.378 68.0814,-141.456"/>
<text text-anchor="middle" x="77.5" y="-198.3" font-family="Times,serif" font-size="14.00">b</text>
</g>
<!-- 1&#45;&gt;0 -->
<g id="edge4" class="edge"><title>1&#45;&gt;0</title>
<path fill="none" stroke="black" d="M29.0959,-216.48C34.3178,-222.923 40.5754,-230.785 46,-238 52.8388,-247.096 60.1238,-257.31 66.3386,-266.194"/>
<polygon fill="black" stroke="black" points="63.5604,-268.33 72.1404,-274.546 69.3092,-264.336 63.5604,-268.33"/>
<text text-anchor="middle" x="60.5" y="-242.3" font-family="Times,serif" font-size="14.00">b</text>
</g>
<!-- 1&#45;&gt;1 -->
<g id="edge5" class="edge"><title>1&#45;&gt;1</title>
<path fill="none" stroke="black" d="M34.2903,-209.668C44.3892,-211.517 54,-208.961 54,-202 54,-197.541 50.0557,-194.889 44.5656,-194.045"/>
<polygon fill="black" stroke="black" points="44.1887,-190.554 34.2903,-194.332 44.384,-197.552 44.1887,-190.554"/>
<text text-anchor="middle" x="57.5" y="-198.3" font-family="Times,serif" font-size="14.00">a</text>
</g>
<!-- 1&#45;&gt;3 -->
<g id="edge6" class="edge"><title>1&#45;&gt;3</title>
<path fill="none" stroke="black" d="M25.6875,-185.625C32.0684,-172.863 41.2639,-154.472 48.6718,-139.656"/>
<polygon fill="black" stroke="black" points="51.8923,-141.041 53.234,-130.532 45.6313,-137.911 51.8923,-141.041"/>
<text text-anchor="middle" x="46.5" y="-154.3" font-family="Times,serif" font-size="14.00">c</text>
</g>
<!-- 2 -->
<g id="node3" class="node"><title>2</title>
<ellipse fill="lightblue" stroke="black" cx="76" cy="-22" rx="17.5909" ry="18"/>
<ellipse fill="none" stroke="black" cx="76" cy="-22" rx="21.5" ry="22"/>
<text text-anchor="middle" x="76" y="-18.3" font-family="Times,serif" font-size="14.00">2</text>
</g>
<!-- 2&#45;&gt;0 -->
<g id="edge7" class="edge"><title>2&#45;&gt;0</title>
<path fill="none" stroke="black" d="M87.9529,-40.6759C96.8223,-54.9171 108.179,-75.8235 113,-96 127.166,-155.285 106.194,-226.386 92.4169,-263.539"/>
<polygon fill="black" stroke="black" points="89.0709,-262.49 88.7571,-273.08 95.6065,-264.997 89.0709,-262.49"/>
<text text-anchor="middle" x="120.5" y="-154.3" font-family="Times,serif" font-size="14.00">a</text>
</g>
<!-- 2&#45;&gt;1 -->
<g id="edge8" class="edge"><title>2&#45;&gt;1</title>
<path fill="none" stroke="black" d="M61.5656,-38.6853C49.7907,-52.5884 34.0008,-74.0403 27,-96 18.8706,-121.5 17.0932,-152.143 17.0628,-173.724"/>
<polygon fill="black" stroke="black" points="13.564,-173.858 17.1748,-183.818 20.5635,-173.78 13.564,-173.858"/>
<text text-anchor="middle" x="30.5" y="-110.3" font-family="Times,serif" font-size="14.00">b</text>
</g>
<!-- 2&#45;&gt;3 -->
<g id="edge9" class="edge"><title>2&#45;&gt;3</title>
<path fill="none" stroke="black" d="M76.7971,-44.0753C76.7921,-54.3916 76.1956,-66.941 74,-78 73.3562,-81.2425 72.453,-84.5822 71.4193,-87.8516"/>
<polygon fill="black" stroke="black" points="68.1187,-86.687 68.0554,-97.2817 74.7118,-89.0389 68.1187,-86.687"/>
<text text-anchor="middle" x="79.5" y="-66.3" font-family="Times,serif" font-size="14.00">c</text>
</g>
<!-- 3&#45;&gt;2 -->
<g id="edge10" class="edge"><title>3&#45;&gt;2</title>
<path fill="none" stroke="black" d="M54.9951,-96.7281C52.1096,-86.6157 49.8853,-73.413 53,-62 54.2204,-57.5283 56.0989,-53.0473 58.2676,-48.7986"/>
<polygon fill="black" stroke="black" points="61.3964,-50.3782 63.336,-39.9624 55.3244,-46.8953 61.3964,-50.3782"/>
<text text-anchor="middle" x="61.5" y="-66.3" font-family="Times,serif" font-size="14.00">b,a</text>
</g>
<!-- 3&#45;&gt;3 -->
<g id="edge11" class="edge"><title>3&#45;&gt;3</title>
<path fill="none" stroke="black" d="M77.2903,-121.668C87.3892,-123.517 97,-120.961 97,-114 97,-109.541 93.0557,-106.889 87.5656,-106.045"/>
<polygon fill="black" stroke="black" points="87.1887,-102.554 77.2903,-106.332 87.384,-109.552 87.1887,-102.554"/>
<text text-anchor="middle" x="100.5" y="-110.3" font-family="Times,serif" font-size="14.00">c</text>
</g>
</g>
</svg>
