<?xml version="1.0" encoding="UTF-8" standalone="no"?>
<!DOCTYPE svg PUBLIC "-//W3C//DTD SVG 1.1//EN"
 "http://www.w3.org/Graphics/SVG/1.1/DTD/svg11.dtd">
<!-- Generated by graphviz version 2.36.0 (20140111.2315)
 -->
<!-- Title: %3 Pages: 1 -->
<svg width="132pt" height="404pt"
 viewBox="0.00 0.00 131.53 404.00" xmlns="http://www.w3.org/2000/svg" xmlns:xlink="http://www.w3.org/1999/xlink">
<g id="graph0" class="graph" transform="scale(1 1) rotate(0) translate(4 400)">
<title>%3</title>
<polygon fill="white" stroke="none" points="-4,4 -4,-400 127.527,-400 127.527,4 -4,4"/>
<!-- 0 -->
<g id="node1" class="node"><title>0</title>
<ellipse fill="lightblue" stroke="black" cx="94.5268" cy="-374" rx="17.5909" ry="18"/>
<ellipse fill="none" stroke="black" cx="94.5268" cy="-374" rx="21.5" ry="22"/>
<text text-anchor="middle" x="94.5268" y="-370.3" font-family="Times,serif" font-size="14.00">0</text>
</g>
<!-- 2 -->
<g id="node3" class="node"><title>2</title>
<ellipse fill="lightblue" stroke="black" cx="41.5268" cy="-282" rx="18" ry="18"/>
<text text-anchor="middle" x="41.5268" y="-278.3" font-family="Times,serif" font-size="14.00">2</text>
</g>
<!-- 0&#45;&gt;2 -->
<g id="edge1" class="edge"><title>0&#45;&gt;2</title>
<path fill="none" stroke="black" d="M83.8015,-354.787C75.6356,-340.921 64.3277,-321.718 55.4615,-306.663"/>
<polygon fill="black" stroke="black" points="58.3969,-304.75 50.3066,-297.909 52.3651,-308.302 58.3969,-304.75"/>
<text text-anchor="middle" x="80.0268" y="-322.3" font-family="Times,serif" font-size="14.00">b,a</text>
</g>
<!-- 1 -->
<g id="node2" class="node"><title>1</title>
<ellipse fill="lightblue" stroke="black" cx="35.5268" cy="-106" rx="18" ry="18"/>
<text text-anchor="middle" x="35.5268" y="-102.3" font-family="Times,serif" font-size="14.00">1</text>
</g>
<!-- 1&#45;&gt;1 -->
<g id="edge2" class="edge"><title>1&#45;&gt;1</title>
<path fill="none" stroke="black" d="M51.8171,-113.668C61.916,-115.517 71.5268,-112.961 71.5268,-106 71.5268,-101.541 67.5825,-98.8891 62.0924,-98.0454"/>
<polygon fill="black" stroke="black" points="61.7155,-94.5544 51.8171,-98.3321 61.9109,-101.552 61.7155,-94.5544"/>
<text text-anchor="middle" x="75.0268" y="-102.3" font-family="Times,serif" font-size="14.00">a</text>
</g>
<!-- 3 -->
<g id="node4" class="node"><title>3</title>
<ellipse fill="lightblue" stroke="black" cx="35.5268" cy="-18" rx="18" ry="18"/>
<text text-anchor="middle" x="35.5268" y="-14.3" font-family="Times,serif" font-size="14.00">3</text>
</g>
<!-- 1&#45;&gt;3 -->
<g id="edge3" class="edge"><title>1&#45;&gt;3</title>
<path fill="none" stroke="black" d="M35.5268,-87.5966C35.5268,-75.7459 35.5268,-59.8169 35.5268,-46.2917"/>
<polygon fill="black" stroke="black" points="39.0269,-46.084 35.5268,-36.084 32.0269,-46.084 39.0269,-46.084"/>
<text text-anchor="middle" x="39.0268" y="-58.3" font-family="Times,serif" font-size="14.00">b</text>
</g>
<!-- 2&#45;&gt;3 -->
<g id="edge4" class="edge"><title>2&#45;&gt;3</title>
<path fill="none" stroke="black" d="M32.1394,-266.365C24.0735,-252.861 13.0503,-231.943 8.52682,-212 -3.66419,-158.254 -1.69159,-142.156 8.52682,-88 11.4158,-72.6891 17.6153,-56.42 23.3459,-43.527"/>
<polygon fill="black" stroke="black" points="26.5475,-44.9425 27.5742,-34.3976 20.1956,-42.0007 26.5475,-44.9425"/>
<text text-anchor="middle" x="4.02682" y="-146.3" font-family="Times,serif" font-size="14.00">b</text>
</g>
<!-- 4 -->
<g id="node5" class="node"><title>4</title>
<ellipse fill="green" stroke="black" cx="35.5268" cy="-194" rx="18" ry="18"/>
<text text-anchor="middle" x="35.5268" y="-190.3" font-family="Times,serif" font-size="14.00">4</text>
</g>
<!-- 2&#45;&gt;4 -->
<g id="edge5" class="edge"><title>2&#45;&gt;4</title>
<path fill="none" stroke="black" d="M36.3557,-264.431C34.7983,-258.659 33.2985,-252.1 32.5268,-246 31.5472,-238.257 31.5955,-229.81 32.0809,-222.06"/>
<polygon fill="black" stroke="black" points="35.5714,-222.32 32.9581,-212.053 28.5981,-221.709 35.5714,-222.32"/>
<text text-anchor="middle" x="36.0268" y="-234.3" font-family="Times,serif" font-size="14.00">a</text>
</g>
<!-- 3&#45;&gt;0 -->
<g id="edge6" class="edge"><title>3&#45;&gt;0</title>
<path fill="none" stroke="black" d="M50.5841,-28.0238C71.4255,-41.7905 106.527,-70.1496 106.527,-105 106.527,-283 106.527,-283 106.527,-283 106.527,-302.842 103.626,-324.931 100.676,-342.259"/>
<polygon fill="black" stroke="black" points="97.1831,-341.91 98.8591,-352.371 104.073,-343.148 97.1831,-341.91"/>
<text text-anchor="middle" x="115.027" y="-190.3" font-family="Times,serif" font-size="14.00">b,a</text>
</g>
<!-- 4&#45;&gt;1 -->
<g id="edge7" class="edge"><title>4&#45;&gt;1</title>
<path fill="none" stroke="black" d="M35.5268,-175.597C35.5268,-163.746 35.5268,-147.817 35.5268,-134.292"/>
<polygon fill="black" stroke="black" points="39.0269,-134.084 35.5268,-124.084 32.0269,-134.084 39.0269,-134.084"/>
<text text-anchor="middle" x="39.0268" y="-146.3" font-family="Times,serif" font-size="14.00">b</text>
</g>
<!-- 4&#45;&gt;2 -->
<g id="edge8" class="edge"><title>4&#45;&gt;2</title>
<path fill="none" stroke="black" d="M36.7303,-212.25C37.5592,-224.13 38.6777,-240.162 39.6261,-253.756"/>
<polygon fill="black" stroke="black" points="36.1538,-254.277 40.3414,-264.009 43.1369,-253.79 36.1538,-254.277"/>
<text text-anchor="middle" x="43.0268" y="-234.3" font-family="Times,serif" font-size="14.00">a</text>
</g>
</g>
</svg>
