<?xml version="1.0" encoding="UTF-8" standalone="no"?>
<!DOCTYPE svg PUBLIC "-//W3C//DTD SVG 1.1//EN"
 "http://www.w3.org/Graphics/SVG/1.1/DTD/svg11.dtd">
<!-- Generated by graphviz version 2.36.0 (20140111.2315)
 -->
<!-- Title: %3 Pages: 1 -->
<svg width="158pt" height="316pt"
 viewBox="0.00 0.00 158.00 316.00" xmlns="http://www.w3.org/2000/svg" xmlns:xlink="http://www.w3.org/1999/xlink">
<g id="graph0" class="graph" transform="scale(1 1) rotate(0) translate(4 312)">
<title>%3</title>
<polygon fill="white" stroke="none" points="-4,4 -4,-312 154,-312 154,4 -4,4"/>
<!-- 0 -->
<g id="node1" class="node"><title>0</title>
<ellipse fill="lightblue" stroke="black" cx="47" cy="-106" rx="18" ry="18"/>
<text text-anchor="middle" x="47" y="-102.3" font-family="Times,serif" font-size="14.00">0</text>
</g>
<!-- 0&#45;&gt;0 -->
<g id="edge1" class="edge"><title>0&#45;&gt;0</title>
<path fill="none" stroke="black" d="M63.2903,-113.668C73.3892,-115.517 83,-112.961 83,-106 83,-101.541 79.0557,-98.8891 73.5656,-98.0454"/>
<polygon fill="black" stroke="black" points="73.1887,-94.5544 63.2903,-98.3321 73.384,-101.552 73.1887,-94.5544"/>
<text text-anchor="middle" x="86.5" y="-102.3" font-family="Times,serif" font-size="14.00">a</text>
</g>
<!-- 3 -->
<g id="node4" class="node"><title>3</title>
<ellipse fill="lightblue" stroke="black" cx="53" cy="-18" rx="18" ry="18"/>
<text text-anchor="middle" x="53" y="-14.3" font-family="Times,serif" font-size="14.00">3</text>
</g>
<!-- 0&#45;&gt;3 -->
<g id="edge2" class="edge"><title>0&#45;&gt;3</title>
<path fill="none" stroke="black" d="M42.6856,-88.4058C40.6717,-78.405 39.0946,-65.4321 41,-54 41.5217,-50.8695 42.2891,-47.6437 43.1877,-44.476"/>
<polygon fill="black" stroke="black" points="46.5891,-45.3348 46.3664,-34.7423 39.9349,-43.1618 46.5891,-45.3348"/>
<text text-anchor="middle" x="44.5" y="-58.3" font-family="Times,serif" font-size="14.00">b</text>
</g>
<!-- 1 -->
<g id="node2" class="node"><title>1</title>
<ellipse fill="green" stroke="black" cx="18" cy="-290" rx="18" ry="18"/>
<text text-anchor="middle" x="18" y="-286.3" font-family="Times,serif" font-size="14.00">1</text>
</g>
<!-- 1&#45;&gt;3 -->
<g id="edge3" class="edge"><title>1&#45;&gt;3</title>
<path fill="none" stroke="black" d="M15.6599,-272.015C11.3805,-237.008 4.11267,-154.529 20,-88 23.8221,-71.9948 31.6766,-55.3166 38.7639,-42.3673"/>
<polygon fill="black" stroke="black" points="41.8149,-44.0822 43.7203,-33.6601 35.7315,-40.6193 41.8149,-44.0822"/>
<text text-anchor="middle" x="15.5" y="-146.3" font-family="Times,serif" font-size="14.00">b</text>
</g>
<!-- 4 -->
<g id="node5" class="node"><title>4</title>
<ellipse fill="lightblue" stroke="black" cx="45" cy="-198" rx="18" ry="18"/>
<text text-anchor="middle" x="45" y="-194.3" font-family="Times,serif" font-size="14.00">4</text>
</g>
<!-- 1&#45;&gt;4 -->
<g id="edge4" class="edge"><title>1&#45;&gt;4</title>
<path fill="none" stroke="black" d="M22.9522,-272.493C26.9104,-259.299 32.5341,-240.553 37.1111,-225.296"/>
<polygon fill="black" stroke="black" points="40.558,-225.987 40.0792,-215.403 33.8532,-223.975 40.558,-225.987"/>
<text text-anchor="middle" x="37.5" y="-242.3" font-family="Times,serif" font-size="14.00">a</text>
</g>
<!-- 2 -->
<g id="node3" class="node"><title>2</title>
<ellipse fill="lightblue" stroke="black" cx="128" cy="-198" rx="17.5909" ry="18"/>
<ellipse fill="none" stroke="black" cx="128" cy="-198" rx="21.5" ry="22"/>
<text text-anchor="middle" x="128" y="-194.3" font-family="Times,serif" font-size="14.00">2</text>
</g>
<!-- 2&#45;&gt;0 -->
<g id="edge5" class="edge"><title>2&#45;&gt;0</title>
<path fill="none" stroke="black" d="M113.891,-181.323C100.413,-166.348 80.0297,-143.7 65.3069,-127.341"/>
<polygon fill="black" stroke="black" points="67.8804,-124.968 58.5892,-119.877 62.6773,-129.651 67.8804,-124.968"/>
<text text-anchor="middle" x="95.5" y="-146.3" font-family="Times,serif" font-size="14.00">a</text>
</g>
<!-- 2&#45;&gt;3 -->
<g id="edge6" class="edge"><title>2&#45;&gt;3</title>
<path fill="none" stroke="black" d="M124.575,-176.227C120.398,-153.772 112.213,-117.27 99,-88 91.3959,-71.1544 79.8507,-53.8525 70.2292,-40.7881"/>
<polygon fill="black" stroke="black" points="72.7699,-38.3449 63.9476,-32.4782 67.1858,-42.566 72.7699,-38.3449"/>
<text text-anchor="middle" x="114.5" y="-102.3" font-family="Times,serif" font-size="14.00">b</text>
</g>
<!-- 3&#45;&gt;0 -->
<g id="edge7" class="edge"><title>3&#45;&gt;0</title>
<path fill="none" stroke="black" d="M51.7965,-36.2499C50.9677,-48.1302 49.8492,-64.162 48.9008,-77.7558"/>
<polygon fill="black" stroke="black" points="45.39,-77.7898 48.1854,-88.0092 52.373,-78.277 45.39,-77.7898"/>
<text text-anchor="middle" x="54.5" y="-58.3" font-family="Times,serif" font-size="14.00">b</text>
</g>
<!-- 3&#45;&gt;3 -->
<g id="edge8" class="edge"><title>3&#45;&gt;3</title>
<path fill="none" stroke="black" d="M69.2903,-25.6679C79.3892,-27.5169 89,-24.9609 89,-18 89,-13.5406 85.0557,-10.8891 79.5656,-10.0454"/>
<polygon fill="black" stroke="black" points="79.1887,-6.55441 69.2903,-10.3321 79.384,-13.5517 79.1887,-6.55441"/>
<text text-anchor="middle" x="92.5" y="-14.3" font-family="Times,serif" font-size="14.00">a</text>
</g>
<!-- 4&#45;&gt;0 -->
<g id="edge9" class="edge"><title>4&#45;&gt;0</title>
<path fill="none" stroke="black" d="M45.3856,-179.647C45.6706,-166.823 46.0643,-149.108 46.3915,-134.381"/>
<polygon fill="black" stroke="black" points="49.8924,-134.375 46.6156,-124.3 42.8942,-134.219 49.8924,-134.375"/>
<text text-anchor="middle" x="50.5" y="-146.3" font-family="Times,serif" font-size="14.00">a</text>
</g>
<!-- 4&#45;&gt;4 -->
<g id="edge10" class="edge"><title>4&#45;&gt;4</title>
<path fill="none" stroke="black" d="M61.2903,-206.365C71.3892,-208.382 81,-205.594 81,-198 81,-193.135 77.0557,-190.243 71.5656,-189.322"/>
<polygon fill="black" stroke="black" points="71.1791,-185.832 61.2903,-189.635 71.3922,-192.829 71.1791,-185.832"/>
<text text-anchor="middle" x="84.5" y="-194.3" font-family="Times,serif" font-size="14.00">b</text>
</g>
</g>
</svg>
