<?xml version="1.0" encoding="UTF-8" standalone="no"?>
<!DOCTYPE svg PUBLIC "-//W3C//DTD SVG 1.1//EN"
 "http://www.w3.org/Graphics/SVG/1.1/DTD/svg11.dtd">
<!-- Generated by graphviz version 2.36.0 (20140111.2315)
 -->
<!-- Title: %3 Pages: 1 -->
<svg width="181pt" height="316pt"
 viewBox="0.00 0.00 181.00 316.00" xmlns="http://www.w3.org/2000/svg" xmlns:xlink="http://www.w3.org/1999/xlink">
<g id="graph0" class="graph" transform="scale(1 1) rotate(0) translate(4 312)">
<title>%3</title>
<polygon fill="white" stroke="none" points="-4,4 -4,-312 177,-312 177,4 -4,4"/>
<!-- 0 -->
<g id="node1" class="node"><title>0</title>
<ellipse fill="lightblue" stroke="black" cx="105" cy="-290" rx="18" ry="18"/>
<text text-anchor="middle" x="105" y="-286.3" font-family="Times,serif" font-size="14.00">0</text>
</g>
<!-- 0&#45;&gt;0 -->
<g id="edge1" class="edge"><title>0&#45;&gt;0</title>
<path fill="none" stroke="black" d="M121.29,-297.668C131.389,-299.517 141,-296.961 141,-290 141,-285.541 137.056,-282.889 131.566,-282.045"/>
<polygon fill="black" stroke="black" points="131.189,-278.554 121.29,-282.332 131.384,-285.552 131.189,-278.554"/>
<text text-anchor="middle" x="149" y="-286.3" font-family="Times,serif" font-size="14.00">c,a</text>
</g>
<!-- 1 -->
<g id="node2" class="node"><title>1</title>
<ellipse fill="lightblue" stroke="black" cx="22" cy="-198" rx="17.5909" ry="18"/>
<ellipse fill="none" stroke="black" cx="22" cy="-198" rx="21.5" ry="22"/>
<text text-anchor="middle" x="22" y="-194.3" font-family="Times,serif" font-size="14.00">1</text>
</g>
<!-- 0&#45;&gt;1 -->
<g id="edge2" class="edge"><title>0&#45;&gt;1</title>
<path fill="none" stroke="black" d="M93.1081,-276.105C80.1251,-262.027 59.075,-239.202 43.2399,-222.031"/>
<polygon fill="black" stroke="black" points="45.7314,-219.57 36.379,-214.592 40.5855,-224.316 45.7314,-219.57"/>
<text text-anchor="middle" x="74.5" y="-242.3" font-family="Times,serif" font-size="14.00">b</text>
</g>
<!-- 1&#45;&gt;1 -->
<g id="edge3" class="edge"><title>1&#45;&gt;1</title>
<path fill="none" stroke="black" d="M42.0663,-206.734C52.0736,-207.943 61,-205.031 61,-198 61,-193.496 57.3366,-190.682 52.0725,-189.559"/>
<polygon fill="black" stroke="black" points="52.1646,-186.061 42.0663,-189.266 51.9594,-193.057 52.1646,-186.061"/>
<text text-anchor="middle" x="64.5" y="-194.3" font-family="Times,serif" font-size="14.00">c</text>
</g>
<!-- 3 -->
<g id="node4" class="node"><title>3</title>
<ellipse fill="lightblue" stroke="black" cx="94" cy="-106" rx="18" ry="18"/>
<text text-anchor="middle" x="94" y="-102.3" font-family="Times,serif" font-size="14.00">3</text>
</g>
<!-- 1&#45;&gt;3 -->
<g id="edge4" class="edge"><title>1&#45;&gt;3</title>
<path fill="none" stroke="black" d="M35.2059,-180.493C46.8522,-165.935 63.9054,-144.618 76.6502,-128.687"/>
<polygon fill="black" stroke="black" points="79.7118,-130.463 83.2257,-120.468 74.2457,-126.09 79.7118,-130.463"/>
<text text-anchor="middle" x="73.5" y="-146.3" font-family="Times,serif" font-size="14.00">b,a</text>
</g>
<!-- 2 -->
<g id="node3" class="node"><title>2</title>
<ellipse fill="green" stroke="black" cx="120" cy="-18" rx="18" ry="18"/>
<text text-anchor="middle" x="120" y="-14.3" font-family="Times,serif" font-size="14.00">2</text>
</g>
<!-- 2&#45;&gt;0 -->
<g id="edge5" class="edge"><title>2&#45;&gt;0</title>
<path fill="none" stroke="black" d="M123.514,-36.0151C124.529,-41.7067 125.498,-48.1029 126,-54 126.603,-61.0855 126.193,-62.8915 126,-70 123.777,-151.868 130.614,-173.416 116,-254 115.467,-256.938 114.761,-259.973 113.962,-262.972"/>
<polygon fill="black" stroke="black" points="110.526,-262.247 111.01,-272.831 117.231,-264.255 110.526,-262.247"/>
<text text-anchor="middle" x="128.5" y="-146.3" font-family="Times,serif" font-size="14.00">c</text>
</g>
<!-- 2&#45;&gt;2 -->
<g id="edge6" class="edge"><title>2&#45;&gt;2</title>
<path fill="none" stroke="black" d="M136.29,-25.6679C146.389,-27.5169 156,-24.9609 156,-18 156,-13.5406 152.056,-10.8891 146.566,-10.0454"/>
<polygon fill="black" stroke="black" points="146.189,-6.55441 136.29,-10.3321 146.384,-13.5517 146.189,-6.55441"/>
<text text-anchor="middle" x="164.5" y="-14.3" font-family="Times,serif" font-size="14.00">b,a</text>
</g>
<!-- 3&#45;&gt;0 -->
<g id="edge7" class="edge"><title>3&#45;&gt;0</title>
<path fill="none" stroke="black" d="M95.0401,-124.209C96.9523,-155.847 101.04,-223.486 103.34,-261.537"/>
<polygon fill="black" stroke="black" points="99.8681,-262.107 103.965,-271.878 106.855,-261.685 99.8681,-262.107"/>
<text text-anchor="middle" x="103.5" y="-194.3" font-family="Times,serif" font-size="14.00">c</text>
</g>
<!-- 3&#45;&gt;2 -->
<g id="edge8" class="edge"><title>3&#45;&gt;2</title>
<path fill="none" stroke="black" d="M98.7868,-88.4397C101.695,-78.4509 105.508,-65.4787 109,-54 109.869,-51.1436 110.788,-48.1597 111.711,-45.1909"/>
<polygon fill="black" stroke="black" points="115.14,-45.9511 114.789,-35.3621 108.46,-43.8589 115.14,-45.9511"/>
<text text-anchor="middle" x="117.5" y="-58.3" font-family="Times,serif" font-size="14.00">b,a</text>
</g>
</g>
</svg>
