<?xml version="1.0" encoding="UTF-8" standalone="no"?>
<!DOCTYPE svg PUBLIC "-//W3C//DTD SVG 1.1//EN"
 "http://www.w3.org/Graphics/SVG/1.1/DTD/svg11.dtd">
<!-- Generated by graphviz version 2.36.0 (20140111.2315)
 -->
<!-- Title: %3 Pages: 1 -->
<svg width="150pt" height="316pt"
 viewBox="0.00 0.00 150.00 316.00" xmlns="http://www.w3.org/2000/svg" xmlns:xlink="http://www.w3.org/1999/xlink">
<g id="graph0" class="graph" transform="scale(1 1) rotate(0) translate(4 312)">
<title>%3</title>
<polygon fill="white" stroke="none" points="-4,4 -4,-312 146,-312 146,4 -4,4"/>
<!-- 0 -->
<g id="node1" class="node"><title>0</title>
<ellipse fill="lightblue" stroke="black" cx="45" cy="-202" rx="18" ry="18"/>
<text text-anchor="middle" x="45" y="-198.3" font-family="Times,serif" font-size="14.00">0</text>
</g>
<!-- 0&#45;&gt;0 -->
<g id="edge1" class="edge"><title>0&#45;&gt;0</title>
<path fill="none" stroke="black" d="M61.2903,-209.668C71.3892,-211.517 81,-208.961 81,-202 81,-197.541 77.0557,-194.889 71.5656,-194.045"/>
<polygon fill="black" stroke="black" points="71.1887,-190.554 61.2903,-194.332 71.384,-197.552 71.1887,-190.554"/>
<text text-anchor="middle" x="84.5" y="-198.3" font-family="Times,serif" font-size="14.00">b</text>
</g>
<!-- 2 -->
<g id="node3" class="node"><title>2</title>
<ellipse fill="lightblue" stroke="black" cx="45" cy="-114" rx="18" ry="18"/>
<text text-anchor="middle" x="45" y="-110.3" font-family="Times,serif" font-size="14.00">2</text>
</g>
<!-- 0&#45;&gt;2 -->
<g id="edge2" class="edge"><title>0&#45;&gt;2</title>
<path fill="none" stroke="black" d="M45,-183.597C45,-171.746 45,-155.817 45,-142.292"/>
<polygon fill="black" stroke="black" points="48.5001,-142.084 45,-132.084 41.5001,-142.084 48.5001,-142.084"/>
<text text-anchor="middle" x="48.5" y="-154.3" font-family="Times,serif" font-size="14.00">a</text>
</g>
<!-- 1 -->
<g id="node2" class="node"><title>1</title>
<ellipse fill="lightblue" stroke="black" cx="53" cy="-22" rx="17.5909" ry="18"/>
<ellipse fill="none" stroke="black" cx="53" cy="-22" rx="21.5" ry="22"/>
<text text-anchor="middle" x="53" y="-18.3" font-family="Times,serif" font-size="14.00">1</text>
</g>
<!-- 1&#45;&gt;2 -->
<g id="edge3" class="edge"><title>1&#45;&gt;2</title>
<path fill="none" stroke="black" d="M51.1244,-44.101C50.024,-56.4798 48.6216,-72.2575 47.4364,-85.5903"/>
<polygon fill="black" stroke="black" points="43.9417,-85.3764 46.5425,-95.6471 50.9142,-85.9963 43.9417,-85.3764"/>
<text text-anchor="middle" x="57.5" y="-66.3" font-family="Times,serif" font-size="14.00">b,a</text>
</g>
<!-- 2&#45;&gt;1 -->
<g id="edge4" class="edge"><title>2&#45;&gt;1</title>
<path fill="none" stroke="black" d="M41.7322,-95.9313C40.3096,-85.9918 39.3096,-73.2418 41,-62 41.4592,-58.9461 42.11,-55.8014 42.8738,-52.6853"/>
<polygon fill="black" stroke="black" points="46.2664,-53.5495 45.6025,-42.9755 39.5275,-51.6557 46.2664,-53.5495"/>
<text text-anchor="middle" x="44.5" y="-66.3" font-family="Times,serif" font-size="14.00">b</text>
</g>
<!-- 2&#45;&gt;2 -->
<g id="edge5" class="edge"><title>2&#45;&gt;2</title>
<path fill="none" stroke="black" d="M61.2903,-121.668C71.3892,-123.517 81,-120.961 81,-114 81,-109.541 77.0557,-106.889 71.5656,-106.045"/>
<polygon fill="black" stroke="black" points="71.1887,-102.554 61.2903,-106.332 71.384,-109.552 71.1887,-102.554"/>
<text text-anchor="middle" x="84.5" y="-110.3" font-family="Times,serif" font-size="14.00">a</text>
</g>
<!-- 3 -->
<g id="node4" class="node"><title>3</title>
<ellipse fill="green" stroke="black" cx="18" cy="-290" rx="18" ry="18"/>
<text text-anchor="middle" x="18" y="-286.3" font-family="Times,serif" font-size="14.00">3</text>
</g>
<!-- 3&#45;&gt;0 -->
<g id="edge6" class="edge"><title>3&#45;&gt;0</title>
<path fill="none" stroke="black" d="M23.2059,-272.418C27.0532,-260.164 32.3677,-243.236 36.7856,-229.165"/>
<polygon fill="black" stroke="black" points="40.154,-230.12 39.8101,-219.531 33.4754,-228.023 40.154,-230.12"/>
<text text-anchor="middle" x="36.5" y="-242.3" font-family="Times,serif" font-size="14.00">a</text>
</g>
<!-- 3&#45;&gt;1 -->
<g id="edge7" class="edge"><title>3&#45;&gt;1</title>
<path fill="none" stroke="black" d="M15.4987,-271.939C11.0586,-237.942 3.55287,-159.55 18,-96 21.6605,-79.8984 29.3326,-63.201 36.5633,-49.8459"/>
<polygon fill="black" stroke="black" points="39.8195,-51.1973 41.6867,-40.7683 33.7234,-47.7566 39.8195,-51.1973"/>
<text text-anchor="middle" x="13.5" y="-154.3" font-family="Times,serif" font-size="14.00">b</text>
</g>
<!-- 4 -->
<g id="node5" class="node"><title>4</title>
<ellipse fill="lightblue" stroke="black" cx="124" cy="-202" rx="18" ry="18"/>
<text text-anchor="middle" x="124" y="-198.3" font-family="Times,serif" font-size="14.00">4</text>
</g>
<!-- 4&#45;&gt;1 -->
<g id="edge8" class="edge"><title>4&#45;&gt;1</title>
<path fill="none" stroke="black" d="M121.231,-184.147C117.404,-162.991 109.519,-125.856 97,-96 90.0526,-79.4323 79.7988,-62.1607 70.9373,-48.5789"/>
<polygon fill="black" stroke="black" points="73.8273,-46.6043 65.3637,-40.2311 68.0057,-50.4913 73.8273,-46.6043"/>
<text text-anchor="middle" x="112.5" y="-110.3" font-family="Times,serif" font-size="14.00">a</text>
</g>
<!-- 4&#45;&gt;2 -->
<g id="edge9" class="edge"><title>4&#45;&gt;2</title>
<path fill="none" stroke="black" d="M112.002,-187.938C99.167,-173.967 78.6422,-151.623 63.688,-135.344"/>
<polygon fill="black" stroke="black" points="66.1951,-132.899 56.8525,-127.903 61.0399,-137.635 66.1951,-132.899"/>
<text text-anchor="middle" x="94.5" y="-154.3" font-family="Times,serif" font-size="14.00">b</text>
</g>
</g>
</svg>
