<?xml version="1.0" encoding="UTF-8" standalone="no"?>
<!DOCTYPE svg PUBLIC "-//W3C//DTD SVG 1.1//EN"
 "http://www.w3.org/Graphics/SVG/1.1/DTD/svg11.dtd">
<!-- Generated by graphviz version 2.36.0 (20140111.2315)
 -->
<!-- Title: %3 Pages: 1 -->
<svg width="124pt" height="228pt"
 viewBox="0.00 0.00 124.00 228.00" xmlns="http://www.w3.org/2000/svg" xmlns:xlink="http://www.w3.org/1999/xlink">
<g id="graph0" class="graph" transform="scale(1 1) rotate(0) translate(4 224)">
<title>%3</title>
<polygon fill="white" stroke="none" points="-4,4 -4,-224 120,-224 120,4 -4,4"/>
<!-- 0 -->
<g id="node1" class="node"><title>0</title>
<ellipse fill="green" stroke="black" cx="42" cy="-202" rx="18" ry="18"/>
<text text-anchor="middle" x="42" y="-198.3" font-family="Times,serif" font-size="14.00">0</text>
</g>
<!-- 1 -->
<g id="node2" class="node"><title>1</title>
<ellipse fill="lightblue" stroke="black" cx="42" cy="-110" rx="17.5909" ry="18"/>
<ellipse fill="none" stroke="black" cx="42" cy="-110" rx="21.5" ry="22"/>
<text text-anchor="middle" x="42" y="-106.3" font-family="Times,serif" font-size="14.00">1</text>
</g>
<!-- 0&#45;&gt;1 -->
<g id="edge1" class="edge"><title>0&#45;&gt;1</title>
<path fill="none" stroke="black" d="M42,-183.647C42,-171.924 42,-156.114 42,-142.237"/>
<polygon fill="black" stroke="black" points="45.5001,-142.101 42,-132.101 38.5001,-142.101 45.5001,-142.101"/>
<text text-anchor="middle" x="45.5" y="-154.3" font-family="Times,serif" font-size="14.00">b</text>
</g>
<!-- 2 -->
<g id="node3" class="node"><title>2</title>
<ellipse fill="lightblue" stroke="black" cx="18" cy="-18" rx="18" ry="18"/>
<text text-anchor="middle" x="18" y="-14.3" font-family="Times,serif" font-size="14.00">2</text>
</g>
<!-- 0&#45;&gt;2 -->
<g id="edge2" class="edge"><title>0&#45;&gt;2</title>
<path fill="none" stroke="black" d="M31.5671,-187.098C22.2618,-173.764 9.31325,-152.662 4,-132 -3.5141,-102.78 2.9077,-68.236 9.31932,-45.1026"/>
<polygon fill="black" stroke="black" points="12.7277,-45.9192 12.2144,-35.3368 6.01643,-43.9296 12.7277,-45.9192"/>
<text text-anchor="middle" x="7.5" y="-106.3" font-family="Times,serif" font-size="14.00">a</text>
</g>
<!-- 1&#45;&gt;2 -->
<g id="edge3" class="edge"><title>1&#45;&gt;2</title>
<path fill="none" stroke="black" d="M30.447,-91.4454C26.7615,-84.9675 23.0982,-77.3982 21,-70 18.8704,-62.491 17.8504,-54.1181 17.4288,-46.3625"/>
<polygon fill="black" stroke="black" points="20.9264,-46.2175 17.1768,-36.3084 13.9286,-46.393 20.9264,-46.2175"/>
<text text-anchor="middle" x="24.5" y="-58.3" font-family="Times,serif" font-size="14.00">b</text>
</g>
<!-- 3 -->
<g id="node4" class="node"><title>3</title>
<ellipse fill="lightblue" stroke="black" cx="98" cy="-18" rx="18" ry="18"/>
<text text-anchor="middle" x="98" y="-14.3" font-family="Times,serif" font-size="14.00">3</text>
</g>
<!-- 1&#45;&gt;3 -->
<g id="edge4" class="edge"><title>1&#45;&gt;3</title>
<path fill="none" stroke="black" d="M53.3324,-90.7872C62.0135,-76.8355 74.0553,-57.4826 83.4487,-42.3861"/>
<polygon fill="black" stroke="black" points="86.5901,-43.9624 88.9014,-33.6227 80.6466,-40.2642 86.5901,-43.9624"/>
<text text-anchor="middle" x="78.5" y="-58.3" font-family="Times,serif" font-size="14.00">a</text>
</g>
<!-- 2&#45;&gt;1 -->
<g id="edge5" class="edge"><title>2&#45;&gt;1</title>
<path fill="none" stroke="black" d="M22.4606,-35.7273C25.6671,-47.7515 30.0807,-64.3026 33.902,-78.6324"/>
<polygon fill="black" stroke="black" points="30.5955,-79.8171 36.554,-88.5776 37.3592,-78.0134 30.5955,-79.8171"/>
<text text-anchor="middle" x="35.5" y="-58.3" font-family="Times,serif" font-size="14.00">b</text>
</g>
<!-- 2&#45;&gt;2 -->
<g id="edge6" class="edge"><title>2&#45;&gt;2</title>
<path fill="none" stroke="black" d="M34.2903,-25.6679C44.3892,-27.5169 54,-24.9609 54,-18 54,-13.5406 50.0557,-10.8891 44.5656,-10.0454"/>
<polygon fill="black" stroke="black" points="44.1887,-6.55441 34.2903,-10.3321 44.384,-13.5517 44.1887,-6.55441"/>
<text text-anchor="middle" x="57.5" y="-14.3" font-family="Times,serif" font-size="14.00">a</text>
</g>
<!-- 3&#45;&gt;0 -->
<g id="edge7" class="edge"><title>3&#45;&gt;0</title>
<path fill="none" stroke="black" d="M95.0786,-36.1137C91.0304,-58.4835 82.9566,-98.7304 72,-132 67.0509,-147.028 60.0691,-163.282 54.0861,-176.237"/>
<polygon fill="black" stroke="black" points="50.8525,-174.889 49.7557,-185.427 57.1846,-177.873 50.8525,-174.889"/>
<text text-anchor="middle" x="91.5" y="-106.3" font-family="Times,serif" font-size="14.00">b,a</text>
</g>
</g>
</svg>
