<?xml version="1.0" encoding="UTF-8" standalone="no"?>
<!DOCTYPE svg PUBLIC "-//W3C//DTD SVG 1.1//EN"
 "http://www.w3.org/Graphics/SVG/1.1/DTD/svg11.dtd">
<!-- Generated by graphviz version 2.36.0 (20140111.2315)
 -->
<!-- Title: %3 Pages: 1 -->
<svg width="131pt" height="228pt"
 viewBox="0.00 0.00 131.00 228.00" xmlns="http://www.w3.org/2000/svg" xmlns:xlink="http://www.w3.org/1999/xlink">
<g id="graph0" class="graph" transform="scale(1 1) rotate(0) translate(4 224)">
<title>%3</title>
<polygon fill="white" stroke="none" points="-4,4 -4,-224 127,-224 127,4 -4,4"/>
<!-- 0 -->
<g id="node1" class="node"><title>0</title>
<ellipse fill="green" stroke="black" cx="18" cy="-198" rx="18" ry="18"/>
<text text-anchor="middle" x="18" y="-194.3" font-family="Times,serif" font-size="14.00">0</text>
</g>
<!-- 0&#45;&gt;0 -->
<g id="edge1" class="edge"><title>0&#45;&gt;0</title>
<path fill="none" stroke="black" d="M34.2903,-206.365C44.3892,-208.382 54,-205.594 54,-198 54,-193.135 50.0557,-190.243 44.5656,-189.322"/>
<polygon fill="black" stroke="black" points="44.1791,-185.832 34.2903,-189.635 44.3922,-192.829 44.1791,-185.832"/>
<text text-anchor="middle" x="57.5" y="-194.3" font-family="Times,serif" font-size="14.00">b</text>
</g>
<!-- 1 -->
<g id="node2" class="node"><title>1</title>
<ellipse fill="lightblue" stroke="black" cx="61" cy="-106" rx="18" ry="18"/>
<text text-anchor="middle" x="61" y="-102.3" font-family="Times,serif" font-size="14.00">1</text>
</g>
<!-- 0&#45;&gt;1 -->
<g id="edge2" class="edge"><title>0&#45;&gt;1</title>
<path fill="none" stroke="black" d="M25.49,-181.323C32.0259,-167.643 41.6212,-147.56 49.1903,-131.718"/>
<polygon fill="black" stroke="black" points="52.4428,-133.029 53.5958,-122.497 46.1267,-130.011 52.4428,-133.029"/>
<text text-anchor="middle" x="46.5" y="-146.3" font-family="Times,serif" font-size="14.00">a</text>
</g>
<!-- 3 -->
<g id="node4" class="node"><title>3</title>
<ellipse fill="lightblue" stroke="black" cx="37" cy="-18" rx="18" ry="18"/>
<text text-anchor="middle" x="37" y="-14.3" font-family="Times,serif" font-size="14.00">3</text>
</g>
<!-- 1&#45;&gt;3 -->
<g id="edge3" class="edge"><title>1&#45;&gt;3</title>
<path fill="none" stroke="black" d="M56.3726,-88.4183C52.9528,-76.164 48.2287,-59.2361 44.3017,-45.1645"/>
<polygon fill="black" stroke="black" points="47.6725,-44.2219 41.6132,-35.5308 40.9301,-46.1035 47.6725,-44.2219"/>
<text text-anchor="middle" x="59.5" y="-58.3" font-family="Times,serif" font-size="14.00">b,a</text>
</g>
<!-- 2 -->
<g id="node3" class="node"><title>2</title>
<ellipse fill="lightblue" stroke="black" cx="101" cy="-198" rx="17.5909" ry="18"/>
<ellipse fill="none" stroke="black" cx="101" cy="-198" rx="21.5" ry="22"/>
<text text-anchor="middle" x="101" y="-194.3" font-family="Times,serif" font-size="14.00">2</text>
</g>
<!-- 2&#45;&gt;1 -->
<g id="edge4" class="edge"><title>2&#45;&gt;1</title>
<path fill="none" stroke="black" d="M92.3206,-177.471C86.4212,-164.198 78.5624,-146.515 72.1928,-132.184"/>
<polygon fill="black" stroke="black" points="75.3232,-130.609 68.0634,-122.893 68.9265,-133.452 75.3232,-130.609"/>
<text text-anchor="middle" x="91.5" y="-146.3" font-family="Times,serif" font-size="14.00">b,a</text>
</g>
<!-- 3&#45;&gt;0 -->
<g id="edge5" class="edge"><title>3&#45;&gt;0</title>
<path fill="none" stroke="black" d="M34.2424,-35.9759C32.049,-49.9196 29.0228,-70.2002 27,-88 23.8309,-115.887 21.321,-147.909 19.7656,-169.994"/>
<polygon fill="black" stroke="black" points="16.2735,-169.76 19.08,-179.976 23.2571,-170.24 16.2735,-169.76"/>
<text text-anchor="middle" x="30.5" y="-102.3" font-family="Times,serif" font-size="14.00">a</text>
</g>
<!-- 3&#45;&gt;3 -->
<g id="edge6" class="edge"><title>3&#45;&gt;3</title>
<path fill="none" stroke="black" d="M53.2903,-25.6679C63.3892,-27.5169 73,-24.9609 73,-18 73,-13.5406 69.0557,-10.8891 63.5656,-10.0454"/>
<polygon fill="black" stroke="black" points="63.1887,-6.55441 53.2903,-10.3321 63.384,-13.5517 63.1887,-6.55441"/>
<text text-anchor="middle" x="76.5" y="-14.3" font-family="Times,serif" font-size="14.00">b</text>
</g>
</g>
</svg>
