<?xml version="1.0" encoding="UTF-8" standalone="no"?>
<!DOCTYPE svg PUBLIC "-//W3C//DTD SVG 1.1//EN"
 "http://www.w3.org/Graphics/SVG/1.1/DTD/svg11.dtd">
<!-- Generated by graphviz version 2.36.0 (20140111.2315)
 -->
<!-- Title: %3 Pages: 1 -->
<svg width="107pt" height="404pt"
 viewBox="0.00 0.00 107.00 404.00" xmlns="http://www.w3.org/2000/svg" xmlns:xlink="http://www.w3.org/1999/xlink">
<g id="graph0" class="graph" transform="scale(1 1) rotate(0) translate(4 400)">
<title>%3</title>
<polygon fill="white" stroke="none" points="-4,4 -4,-400 103,-400 103,4 -4,4"/>
<!-- 0 -->
<g id="node1" class="node"><title>0</title>
<ellipse fill="lightblue" stroke="black" cx="18" cy="-290" rx="18" ry="18"/>
<text text-anchor="middle" x="18" y="-286.3" font-family="Times,serif" font-size="14.00">0</text>
</g>
<!-- 0&#45;&gt;0 -->
<g id="edge1" class="edge"><title>0&#45;&gt;0</title>
<path fill="none" stroke="black" d="M34.2903,-297.668C44.3892,-299.517 54,-296.961 54,-290 54,-285.541 50.0557,-282.889 44.5656,-282.045"/>
<polygon fill="black" stroke="black" points="44.1887,-278.554 34.2903,-282.332 44.384,-285.552 44.1887,-278.554"/>
<text text-anchor="middle" x="57.5" y="-286.3" font-family="Times,serif" font-size="14.00">a</text>
</g>
<!-- 2 -->
<g id="node3" class="node"><title>2</title>
<ellipse fill="green" stroke="black" cx="72" cy="-202" rx="18" ry="18"/>
<text text-anchor="middle" x="72" y="-198.3" font-family="Times,serif" font-size="14.00">2</text>
</g>
<!-- 0&#45;&gt;2 -->
<g id="edge2" class="edge"><title>0&#45;&gt;2</title>
<path fill="none" stroke="black" d="M27.1604,-274.411C35.3836,-261.315 47.6029,-241.855 57.2098,-226.555"/>
<polygon fill="black" stroke="black" points="60.4411,-227.99 62.7947,-217.66 54.5129,-224.268 60.4411,-227.99"/>
<text text-anchor="middle" x="52.5" y="-242.3" font-family="Times,serif" font-size="14.00">b</text>
</g>
<!-- 1 -->
<g id="node2" class="node"><title>1</title>
<ellipse fill="lightblue" stroke="black" cx="30" cy="-114" rx="18" ry="18"/>
<text text-anchor="middle" x="30" y="-110.3" font-family="Times,serif" font-size="14.00">1</text>
</g>
<!-- 1&#45;&gt;2 -->
<g id="edge3" class="edge"><title>1&#45;&gt;2</title>
<path fill="none" stroke="black" d="M37.5854,-130.532C43.8402,-143.339 52.826,-161.739 60.0471,-176.525"/>
<polygon fill="black" stroke="black" points="56.9578,-178.175 64.4912,-185.625 63.2478,-175.103 56.9578,-178.175"/>
<text text-anchor="middle" x="57.5" y="-154.3" font-family="Times,serif" font-size="14.00">b</text>
</g>
<!-- 4 -->
<g id="node5" class="node"><title>4</title>
<ellipse fill="lightblue" stroke="black" cx="73" cy="-22" rx="17.5909" ry="18"/>
<ellipse fill="none" stroke="black" cx="73" cy="-22" rx="21.5" ry="22"/>
<text text-anchor="middle" x="73" y="-18.3" font-family="Times,serif" font-size="14.00">4</text>
</g>
<!-- 1&#45;&gt;4 -->
<g id="edge4" class="edge"><title>1&#45;&gt;4</title>
<path fill="none" stroke="black" d="M28.4412,-95.7182C28.2117,-85.4736 29.1677,-72.4859 34,-62 37.3063,-54.8255 42.532,-48.2248 48.0965,-42.5733"/>
<polygon fill="black" stroke="black" points="50.7865,-44.8524 55.7461,-35.4901 46.0306,-39.7162 50.7865,-44.8524"/>
<text text-anchor="middle" x="37.5" y="-66.3" font-family="Times,serif" font-size="14.00">a</text>
</g>
<!-- 2&#45;&gt;1 -->
<g id="edge5" class="edge"><title>2&#45;&gt;1</title>
<path fill="none" stroke="black" d="M57.7023,-191.005C49.9364,-184.756 40.9364,-176.006 36,-166 32.4347,-158.773 30.6392,-150.291 29.808,-142.342"/>
<polygon fill="black" stroke="black" points="33.301,-142.119 29.2033,-132.349 26.3138,-142.542 33.301,-142.119"/>
<text text-anchor="middle" x="39.5" y="-154.3" font-family="Times,serif" font-size="14.00">a</text>
</g>
<!-- 2&#45;&gt;4 -->
<g id="edge6" class="edge"><title>2&#45;&gt;4</title>
<path fill="none" stroke="black" d="M72.0959,-183.933C72.2632,-154.154 72.6108,-92.2862 72.8229,-54.5293"/>
<polygon fill="black" stroke="black" points="76.3251,-54.1265 72.8814,-44.1069 69.3252,-54.0871 76.3251,-54.1265"/>
<text text-anchor="middle" x="75.5" y="-110.3" font-family="Times,serif" font-size="14.00">b</text>
</g>
<!-- 3 -->
<g id="node4" class="node"><title>3</title>
<ellipse fill="lightblue" stroke="black" cx="72" cy="-378" rx="18" ry="18"/>
<text text-anchor="middle" x="72" y="-374.3" font-family="Times,serif" font-size="14.00">3</text>
</g>
<!-- 3&#45;&gt;0 -->
<g id="edge7" class="edge"><title>3&#45;&gt;0</title>
<path fill="none" stroke="black" d="M62.8396,-362.411C54.6164,-349.315 42.3971,-329.855 32.7902,-314.555"/>
<polygon fill="black" stroke="black" points="35.4871,-312.268 27.2053,-305.66 29.5589,-315.99 35.4871,-312.268"/>
<text text-anchor="middle" x="52.5" y="-330.3" font-family="Times,serif" font-size="14.00">b</text>
</g>
<!-- 3&#45;&gt;2 -->
<g id="edge8" class="edge"><title>3&#45;&gt;2</title>
<path fill="none" stroke="black" d="M72,-359.999C72,-329.853 72,-266.79 72,-230.43"/>
<polygon fill="black" stroke="black" points="75.5001,-230.07 72,-220.07 68.5001,-230.07 75.5001,-230.07"/>
<text text-anchor="middle" x="75.5" y="-286.3" font-family="Times,serif" font-size="14.00">a</text>
</g>
<!-- 4&#45;&gt;1 -->
<g id="edge9" class="edge"><title>4&#45;&gt;1</title>
<path fill="none" stroke="black" d="M63.8018,-42.252C57.4239,-55.6012 48.8691,-73.5064 41.9618,-87.9636"/>
<polygon fill="black" stroke="black" points="38.643,-86.7913 37.49,-97.3232 44.9592,-89.809 38.643,-86.7913"/>
<text text-anchor="middle" x="57.5" y="-66.3" font-family="Times,serif" font-size="14.00">b</text>
</g>
<!-- 4&#45;&gt;2 -->
<g id="edge10" class="edge"><title>4&#45;&gt;2</title>
<path fill="none" stroke="black" d="M80.8749,-42.5298C82.9735,-48.6589 84.9482,-55.5187 86,-62 93.404,-107.625 94.741,-120.612 86,-166 85.3688,-169.277 84.4335,-172.638 83.3403,-175.919"/>
<polygon fill="black" stroke="black" points="80.0336,-174.767 79.733,-185.358 86.5724,-177.266 80.0336,-174.767"/>
<text text-anchor="middle" x="95.5" y="-110.3" font-family="Times,serif" font-size="14.00">a</text>
</g>
</g>
</svg>
