<?xml version="1.0" encoding="UTF-8" standalone="no"?>
<!DOCTYPE svg PUBLIC "-//W3C//DTD SVG 1.1//EN"
 "http://www.w3.org/Graphics/SVG/1.1/DTD/svg11.dtd">
<!-- Generated by graphviz version 2.36.0 (20140111.2315)
 -->
<!-- Title: %3 Pages: 1 -->
<svg width="151pt" height="404pt"
 viewBox="0.00 0.00 151.00 404.00" xmlns="http://www.w3.org/2000/svg" xmlns:xlink="http://www.w3.org/1999/xlink">
<g id="graph0" class="graph" transform="scale(1 1) rotate(0) translate(4 400)">
<title>%3</title>
<polygon fill="white" stroke="none" points="-4,4 -4,-400 147,-400 147,4 -4,4"/>
<!-- 0 -->
<g id="node1" class="node"><title>0</title>
<ellipse fill="lightblue" stroke="black" cx="83" cy="-374" rx="17.5909" ry="18"/>
<ellipse fill="none" stroke="black" cx="83" cy="-374" rx="21.5" ry="22"/>
<text text-anchor="middle" x="83" y="-370.3" font-family="Times,serif" font-size="14.00">0</text>
</g>
<!-- 0&#45;&gt;0 -->
<g id="edge1" class="edge"><title>0&#45;&gt;0</title>
<path fill="none" stroke="black" d="M103.066,-382.734C113.074,-383.943 122,-381.031 122,-374 122,-369.496 118.337,-366.682 113.072,-365.559"/>
<polygon fill="black" stroke="black" points="113.165,-362.061 103.066,-365.266 112.959,-369.057 113.165,-362.061"/>
<text text-anchor="middle" x="125.5" y="-370.3" font-family="Times,serif" font-size="14.00">a</text>
</g>
<!-- 2 -->
<g id="node3" class="node"><title>2</title>
<ellipse fill="green" stroke="black" cx="29" cy="-18" rx="18" ry="18"/>
<text text-anchor="middle" x="29" y="-14.3" font-family="Times,serif" font-size="14.00">2</text>
</g>
<!-- 0&#45;&gt;2 -->
<g id="edge2" class="edge"><title>0&#45;&gt;2</title>
<path fill="none" stroke="black" d="M64.166,-363.326C39.6775,-349.243 0,-320.622 0,-283 0,-283 0,-283 0,-105 0,-83.267 8.41848,-59.9878 16.1839,-43.1375"/>
<polygon fill="black" stroke="black" points="19.3918,-44.5438 20.612,-34.0195 13.095,-41.4858 19.3918,-44.5438"/>
<text text-anchor="middle" x="3.5" y="-190.3" font-family="Times,serif" font-size="14.00">b</text>
</g>
<!-- 3 -->
<g id="node4" class="node"><title>3</title>
<ellipse fill="lightblue" stroke="black" cx="83" cy="-282" rx="18" ry="18"/>
<text text-anchor="middle" x="83" y="-278.3" font-family="Times,serif" font-size="14.00">3</text>
</g>
<!-- 0&#45;&gt;3 -->
<g id="edge3" class="edge"><title>0&#45;&gt;3</title>
<path fill="none" stroke="black" d="M83,-351.671C83,-339.284 83,-323.552 83,-310.272"/>
<polygon fill="black" stroke="black" points="86.5001,-310.258 83,-300.258 79.5001,-310.258 86.5001,-310.258"/>
<text text-anchor="middle" x="86.5" y="-322.3" font-family="Times,serif" font-size="14.00">c</text>
</g>
<!-- 1 -->
<g id="node2" class="node"><title>1</title>
<ellipse fill="lightblue" stroke="black" cx="43" cy="-194" rx="18" ry="18"/>
<text text-anchor="middle" x="43" y="-190.3" font-family="Times,serif" font-size="14.00">1</text>
</g>
<!-- 1&#45;&gt;1 -->
<g id="edge4" class="edge"><title>1&#45;&gt;1</title>
<path fill="none" stroke="black" d="M59.2903,-201.668C69.3892,-203.517 79,-200.961 79,-194 79,-189.541 75.0557,-186.889 69.5656,-186.045"/>
<polygon fill="black" stroke="black" points="69.1887,-182.554 59.2903,-186.332 69.384,-189.552 69.1887,-182.554"/>
<text text-anchor="middle" x="82.5" y="-190.3" font-family="Times,serif" font-size="14.00">a</text>
</g>
<!-- 1&#45;&gt;3 -->
<g id="edge5" class="edge"><title>1&#45;&gt;3</title>
<path fill="none" stroke="black" d="M51.1124,-210.222C54.29,-216.324 57.9076,-223.451 61,-230 64.8637,-238.183 68.851,-247.22 72.3522,-255.385"/>
<polygon fill="black" stroke="black" points="69.216,-256.955 76.3407,-264.796 75.6612,-254.223 69.216,-256.955"/>
<text text-anchor="middle" x="71.5" y="-234.3" font-family="Times,serif" font-size="14.00">c</text>
</g>
<!-- 4 -->
<g id="node5" class="node"><title>4</title>
<ellipse fill="lightblue" stroke="black" cx="84" cy="-106" rx="18" ry="18"/>
<text text-anchor="middle" x="84" y="-102.3" font-family="Times,serif" font-size="14.00">4</text>
</g>
<!-- 1&#45;&gt;4 -->
<g id="edge6" class="edge"><title>1&#45;&gt;4</title>
<path fill="none" stroke="black" d="M50.52,-177.226C56.5885,-164.497 65.2348,-146.361 72.2206,-131.708"/>
<polygon fill="black" stroke="black" points="75.3835,-133.207 76.5276,-122.674 69.0648,-130.194 75.3835,-133.207"/>
<text text-anchor="middle" x="71.5" y="-146.3" font-family="Times,serif" font-size="14.00">b</text>
</g>
<!-- 2&#45;&gt;2 -->
<g id="edge7" class="edge"><title>2&#45;&gt;2</title>
<path fill="none" stroke="black" d="M45.2903,-25.6679C55.3892,-27.5169 65,-24.9609 65,-18 65,-13.5406 61.0557,-10.8891 55.5656,-10.0454"/>
<polygon fill="black" stroke="black" points="55.1887,-6.55441 45.2903,-10.3321 55.384,-13.5517 55.1887,-6.55441"/>
<text text-anchor="middle" x="78.5" y="-14.3" font-family="Times,serif" font-size="14.00">b,c,a</text>
</g>
<!-- 3&#45;&gt;1 -->
<g id="edge8" class="edge"><title>3&#45;&gt;1</title>
<path fill="none" stroke="black" d="M67.2182,-272.932C57.4053,-266.962 45.6209,-257.823 40,-246 36.4118,-238.453 35.8712,-229.553 36.6209,-221.318"/>
<polygon fill="black" stroke="black" points="40.0867,-221.807 38.1284,-211.395 33.1661,-220.756 40.0867,-221.807"/>
<text text-anchor="middle" x="48.5" y="-234.3" font-family="Times,serif" font-size="14.00">b,c</text>
</g>
<!-- 3&#45;&gt;3 -->
<g id="edge9" class="edge"><title>3&#45;&gt;3</title>
<path fill="none" stroke="black" d="M99.2903,-289.668C109.389,-291.517 119,-288.961 119,-282 119,-277.541 115.056,-274.889 109.566,-274.045"/>
<polygon fill="black" stroke="black" points="109.189,-270.554 99.2903,-274.332 109.384,-277.552 109.189,-270.554"/>
<text text-anchor="middle" x="122.5" y="-278.3" font-family="Times,serif" font-size="14.00">a</text>
</g>
<!-- 4&#45;&gt;0 -->
<g id="edge10" class="edge"><title>4&#45;&gt;0</title>
<path fill="none" stroke="black" d="M94.3245,-121.064C98.4541,-127.234 102.945,-134.72 106,-142 115.182,-163.885 149.799,-253.717 135,-300 128.996,-318.779 116.197,-336.851 104.8,-350.316"/>
<polygon fill="black" stroke="black" points="101.95,-348.256 97.9584,-358.07 107.199,-352.887 101.95,-348.256"/>
<text text-anchor="middle" x="139.5" y="-234.3" font-family="Times,serif" font-size="14.00">c</text>
</g>
<!-- 4&#45;&gt;2 -->
<g id="edge11" class="edge"><title>4&#45;&gt;2</title>
<path fill="none" stroke="black" d="M74.67,-90.4113C66.2155,-77.1915 53.6137,-57.4869 43.7879,-42.1229"/>
<polygon fill="black" stroke="black" points="46.7122,-40.1991 38.3758,-33.6603 40.815,-43.9705 46.7122,-40.1991"/>
<text text-anchor="middle" x="65.5" y="-58.3" font-family="Times,serif" font-size="14.00">a</text>
</g>
<!-- 4&#45;&gt;3 -->
<g id="edge12" class="edge"><title>4&#45;&gt;3</title>
<path fill="none" stroke="black" d="M87.4645,-123.924C90.1274,-137.838 93.5824,-158.103 95,-176 96.2634,-191.95 96.3758,-196.059 95,-212 93.7829,-226.101 91.1915,-241.645 88.7273,-254.404"/>
<polygon fill="black" stroke="black" points="85.2627,-253.88 86.7202,-264.374 92.1251,-255.261 85.2627,-253.88"/>
<text text-anchor="middle" x="99.5" y="-190.3" font-family="Times,serif" font-size="14.00">b</text>
</g>
</g>
</svg>
