<?xml version="1.0" encoding="UTF-8" standalone="no"?>
<!DOCTYPE svg PUBLIC "-//W3C//DTD SVG 1.1//EN"
 "http://www.w3.org/Graphics/SVG/1.1/DTD/svg11.dtd">
<!-- Generated by graphviz version 2.36.0 (20140111.2315)
 -->
<!-- Title: %3 Pages: 1 -->
<svg width="191pt" height="316pt"
 viewBox="0.00 0.00 191.00 316.00" xmlns="http://www.w3.org/2000/svg" xmlns:xlink="http://www.w3.org/1999/xlink">
<g id="graph0" class="graph" transform="scale(1 1) rotate(0) translate(4 312)">
<title>%3</title>
<polygon fill="white" stroke="none" points="-4,4 -4,-312 187,-312 187,4 -4,4"/>
<!-- 0 -->
<g id="node1" class="node"><title>0</title>
<ellipse fill="green" stroke="black" cx="131" cy="-290" rx="18" ry="18"/>
<text text-anchor="middle" x="131" y="-286.3" font-family="Times,serif" font-size="14.00">0</text>
</g>
<!-- 0&#45;&gt;0 -->
<g id="edge1" class="edge"><title>0&#45;&gt;0</title>
<path fill="none" stroke="black" d="M147.29,-297.668C157.389,-299.517 167,-296.961 167,-290 167,-285.541 163.056,-282.889 157.566,-282.045"/>
<polygon fill="black" stroke="black" points="157.189,-278.554 147.29,-282.332 157.384,-285.552 157.189,-278.554"/>
<text text-anchor="middle" x="175" y="-286.3" font-family="Times,serif" font-size="14.00">c,a</text>
</g>
<!-- 4 -->
<g id="node5" class="node"><title>4</title>
<ellipse fill="lightblue" stroke="black" cx="52" cy="-202" rx="18" ry="18"/>
<text text-anchor="middle" x="52" y="-198.3" font-family="Times,serif" font-size="14.00">4</text>
</g>
<!-- 0&#45;&gt;4 -->
<g id="edge2" class="edge"><title>0&#45;&gt;4</title>
<path fill="none" stroke="black" d="M119.002,-275.938C106.167,-261.967 85.6422,-239.623 70.688,-223.344"/>
<polygon fill="black" stroke="black" points="73.1951,-220.899 63.8525,-215.903 68.0399,-225.635 73.1951,-220.899"/>
<text text-anchor="middle" x="102.5" y="-242.3" font-family="Times,serif" font-size="14.00">b</text>
</g>
<!-- 1 -->
<g id="node2" class="node"><title>1</title>
<ellipse fill="lightblue" stroke="black" cx="22" cy="-110" rx="17.5909" ry="18"/>
<ellipse fill="none" stroke="black" cx="22" cy="-110" rx="21.5" ry="22"/>
<text text-anchor="middle" x="22" y="-106.3" font-family="Times,serif" font-size="14.00">1</text>
</g>
<!-- 1&#45;&gt;1 -->
<g id="edge3" class="edge"><title>1&#45;&gt;1</title>
<path fill="none" stroke="black" d="M42.0663,-118.734C52.0736,-119.943 61,-117.031 61,-110 61,-105.496 57.3366,-102.682 52.0725,-101.559"/>
<polygon fill="black" stroke="black" points="52.1646,-98.0605 42.0663,-101.266 51.9594,-105.057 52.1646,-98.0605"/>
<text text-anchor="middle" x="64.5" y="-106.3" font-family="Times,serif" font-size="14.00">b</text>
</g>
<!-- 3 -->
<g id="node4" class="node"><title>3</title>
<ellipse fill="lightblue" stroke="black" cx="52" cy="-18" rx="18" ry="18"/>
<text text-anchor="middle" x="52" y="-14.3" font-family="Times,serif" font-size="14.00">3</text>
</g>
<!-- 1&#45;&gt;3 -->
<g id="edge4" class="edge"><title>1&#45;&gt;3</title>
<path fill="none" stroke="black" d="M20.2561,-88.0327C20.0938,-77.514 21.0028,-64.7567 25,-54 26.9222,-48.8273 29.8947,-43.7991 33.1759,-39.2423"/>
<polygon fill="black" stroke="black" points="36.1431,-41.1368 39.671,-31.1466 30.6832,-36.7563 36.1431,-41.1368"/>
<text text-anchor="middle" x="28.5" y="-58.3" font-family="Times,serif" font-size="14.00">c</text>
</g>
<!-- 1&#45;&gt;4 -->
<g id="edge5" class="edge"><title>1&#45;&gt;4</title>
<path fill="none" stroke="black" d="M28.7279,-131.184C33.0388,-144.116 38.6759,-161.028 43.3224,-174.967"/>
<polygon fill="black" stroke="black" points="40.0148,-176.113 46.4975,-184.493 46.6556,-173.899 40.0148,-176.113"/>
<text text-anchor="middle" x="43.5" y="-154.3" font-family="Times,serif" font-size="14.00">a</text>
</g>
<!-- 2 -->
<g id="node3" class="node"><title>2</title>
<ellipse fill="lightblue" stroke="black" cx="105" cy="-110" rx="18" ry="18"/>
<text text-anchor="middle" x="105" y="-106.3" font-family="Times,serif" font-size="14.00">2</text>
</g>
<!-- 2&#45;&gt;0 -->
<g id="edge6" class="edge"><title>2&#45;&gt;0</title>
<path fill="none" stroke="black" d="M107.485,-128.016C112.003,-158.943 121.594,-224.607 127.028,-261.809"/>
<polygon fill="black" stroke="black" points="123.598,-262.544 128.507,-271.933 130.525,-261.532 123.598,-262.544"/>
<text text-anchor="middle" x="128.5" y="-198.3" font-family="Times,serif" font-size="14.00">b,c</text>
</g>
<!-- 2&#45;&gt;2 -->
<g id="edge7" class="edge"><title>2&#45;&gt;2</title>
<path fill="none" stroke="black" d="M121.29,-118.365C131.389,-120.382 141,-117.594 141,-110 141,-105.135 137.056,-102.243 131.566,-101.322"/>
<polygon fill="black" stroke="black" points="131.179,-97.8323 121.29,-101.635 131.392,-104.829 131.179,-97.8323"/>
<text text-anchor="middle" x="144.5" y="-106.3" font-family="Times,serif" font-size="14.00">a</text>
</g>
<!-- 3&#45;&gt;0 -->
<g id="edge8" class="edge"><title>3&#45;&gt;0</title>
<path fill="none" stroke="black" d="M68.9294,-24.3496C93.528,-33.1473 138.255,-53.2522 157,-88 187.878,-145.24 160.613,-224.606 143.069,-264.308"/>
<polygon fill="black" stroke="black" points="139.837,-262.96 138.859,-273.51 146.202,-265.872 139.837,-262.96"/>
<text text-anchor="middle" x="173.5" y="-154.3" font-family="Times,serif" font-size="14.00">a</text>
</g>
<!-- 3&#45;&gt;1 -->
<g id="edge9" class="edge"><title>3&#45;&gt;1</title>
<path fill="none" stroke="black" d="M46.5629,-35.3114C42.4764,-47.5707 36.7659,-64.7023 31.8793,-79.3621"/>
<polygon fill="black" stroke="black" points="28.4999,-78.4324 28.658,-89.0261 35.1407,-80.6461 28.4999,-78.4324"/>
<text text-anchor="middle" x="48.5" y="-58.3" font-family="Times,serif" font-size="14.00">b,c</text>
</g>
<!-- 4&#45;&gt;1 -->
<g id="edge10" class="edge"><title>4&#45;&gt;1</title>
<path fill="none" stroke="black" d="M39.671,-188.853C34.1373,-182.588 28.1543,-174.489 25,-166 22.2207,-158.521 20.9345,-150.074 20.4632,-142.086"/>
<polygon fill="black" stroke="black" points="23.9601,-141.894 20.2561,-131.967 16.9616,-142.037 23.9601,-141.894"/>
<text text-anchor="middle" x="28.5" y="-154.3" font-family="Times,serif" font-size="14.00">a</text>
</g>
<!-- 4&#45;&gt;2 -->
<g id="edge11" class="edge"><title>4&#45;&gt;2</title>
<path fill="none" stroke="black" d="M60.7519,-186.138C68.9608,-172.199 81.375,-151.118 90.9668,-134.83"/>
<polygon fill="black" stroke="black" points="94.1766,-136.277 96.2351,-125.884 88.1448,-132.725 94.1766,-136.277"/>
<text text-anchor="middle" x="85.5" y="-154.3" font-family="Times,serif" font-size="14.00">c</text>
</g>
<!-- 4&#45;&gt;4 -->
<g id="edge12" class="edge"><title>4&#45;&gt;4</title>
<path fill="none" stroke="black" d="M68.2903,-209.668C78.3892,-211.517 88,-208.961 88,-202 88,-197.541 84.0557,-194.889 78.5656,-194.045"/>
<polygon fill="black" stroke="black" points="78.1887,-190.554 68.2903,-194.332 78.384,-197.552 78.1887,-190.554"/>
<text text-anchor="middle" x="91.5" y="-198.3" font-family="Times,serif" font-size="14.00">b</text>
</g>
</g>
</svg>
