<?xml version="1.0" encoding="UTF-8" standalone="no"?>
<!DOCTYPE svg PUBLIC "-//W3C//DTD SVG 1.1//EN"
 "http://www.w3.org/Graphics/SVG/1.1/DTD/svg11.dtd">
<!-- Generated by graphviz version 2.36.0 (20140111.2315)
 -->
<!-- Title: %3 Pages: 1 -->
<svg width="147pt" height="404pt"
 viewBox="0.00 0.00 147.00 404.00" xmlns="http://www.w3.org/2000/svg" xmlns:xlink="http://www.w3.org/1999/xlink">
<g id="graph0" class="graph" transform="scale(1 1) rotate(0) translate(4 400)">
<title>%3</title>
<polygon fill="white" stroke="none" points="-4,4 -4,-400 143,-400 143,4 -4,4"/>
<!-- 0 -->
<g id="node1" class="node"><title>0</title>
<ellipse fill="lightblue" stroke="black" cx="110" cy="-378" rx="18" ry="18"/>
<text text-anchor="middle" x="110" y="-374.3" font-family="Times,serif" font-size="14.00">0</text>
</g>
<!-- 3 -->
<g id="node4" class="node"><title>3</title>
<ellipse fill="lightblue" stroke="black" cx="83" cy="-290" rx="18" ry="18"/>
<text text-anchor="middle" x="83" y="-286.3" font-family="Times,serif" font-size="14.00">3</text>
</g>
<!-- 0&#45;&gt;3 -->
<g id="edge1" class="edge"><title>0&#45;&gt;3</title>
<path fill="none" stroke="black" d="M97.4684,-364.926C91.8867,-358.677 85.9219,-350.571 83,-342 80.4467,-334.51 79.6762,-326.033 79.7549,-318.172"/>
<polygon fill="black" stroke="black" points="83.2606,-318.158 80.3009,-307.985 76.2706,-317.783 83.2606,-318.158"/>
<text text-anchor="middle" x="86.5" y="-330.3" font-family="Times,serif" font-size="14.00">b</text>
</g>
<!-- 4 -->
<g id="node5" class="node"><title>4</title>
<ellipse fill="lightblue" stroke="black" cx="82" cy="-18" rx="18" ry="18"/>
<text text-anchor="middle" x="82" y="-14.3" font-family="Times,serif" font-size="14.00">4</text>
</g>
<!-- 0&#45;&gt;4 -->
<g id="edge2" class="edge"><title>0&#45;&gt;4</title>
<path fill="none" stroke="black" d="M116.601,-361.143C123.081,-344.117 132,-316.12 132,-291 132,-291 132,-291 132,-105 132,-79.704 115.633,-55.2019 101.627,-38.8659"/>
<polygon fill="black" stroke="black" points="103.918,-36.1808 94.6171,-31.1066 98.7235,-40.8733 103.918,-36.1808"/>
<text text-anchor="middle" x="135.5" y="-194.3" font-family="Times,serif" font-size="14.00">a</text>
</g>
<!-- 1 -->
<g id="node2" class="node"><title>1</title>
<ellipse fill="lightblue" stroke="black" cx="69" cy="-198" rx="17.5909" ry="18"/>
<ellipse fill="none" stroke="black" cx="69" cy="-198" rx="21.5" ry="22"/>
<text text-anchor="middle" x="69" y="-194.3" font-family="Times,serif" font-size="14.00">1</text>
</g>
<!-- 2 -->
<g id="node3" class="node"><title>2</title>
<ellipse fill="green" stroke="black" cx="18" cy="-106" rx="18" ry="18"/>
<text text-anchor="middle" x="18" y="-102.3" font-family="Times,serif" font-size="14.00">2</text>
</g>
<!-- 1&#45;&gt;2 -->
<g id="edge3" class="edge"><title>1&#45;&gt;2</title>
<path fill="none" stroke="black" d="M58.4328,-178.352C50.6783,-164.668 40.0792,-145.963 31.6784,-131.138"/>
<polygon fill="black" stroke="black" points="34.5025,-129.023 26.5273,-122.048 28.4124,-132.474 34.5025,-129.023"/>
<text text-anchor="middle" x="50.5" y="-146.3" font-family="Times,serif" font-size="14.00">b</text>
</g>
<!-- 1&#45;&gt;3 -->
<g id="edge4" class="edge"><title>1&#45;&gt;3</title>
<path fill="none" stroke="black" d="M72.2622,-219.971C74.208,-232.48 76.6989,-248.493 78.7917,-261.947"/>
<polygon fill="black" stroke="black" points="75.3711,-262.729 80.3667,-272.072 82.288,-261.653 75.3711,-262.729"/>
<text text-anchor="middle" x="81.5" y="-242.3" font-family="Times,serif" font-size="14.00">a</text>
</g>
<!-- 2&#45;&gt;2 -->
<g id="edge5" class="edge"><title>2&#45;&gt;2</title>
<path fill="none" stroke="black" d="M34.2903,-113.668C44.3892,-115.517 54,-112.961 54,-106 54,-101.541 50.0557,-98.8891 44.5656,-98.0454"/>
<polygon fill="black" stroke="black" points="44.1887,-94.5544 34.2903,-98.3321 44.384,-101.552 44.1887,-94.5544"/>
<text text-anchor="middle" x="57.5" y="-102.3" font-family="Times,serif" font-size="14.00">b</text>
</g>
<!-- 2&#45;&gt;4 -->
<g id="edge6" class="edge"><title>2&#45;&gt;4</title>
<path fill="none" stroke="black" d="M22.5477,-88.3084C25.9516,-77.7892 31.3466,-64.2986 39,-54 44.3288,-46.8295 51.4457,-40.2578 58.3537,-34.7933"/>
<polygon fill="black" stroke="black" points="60.8921,-37.2685 66.8418,-28.502 56.7239,-31.6448 60.8921,-37.2685"/>
<text text-anchor="middle" x="42.5" y="-58.3" font-family="Times,serif" font-size="14.00">a</text>
</g>
<!-- 3&#45;&gt;0 -->
<g id="edge7" class="edge"><title>3&#45;&gt;0</title>
<path fill="none" stroke="black" d="M88.1899,-307.531C92.0331,-319.772 97.3469,-336.698 101.767,-350.777"/>
<polygon fill="black" stroke="black" points="98.4594,-351.926 104.794,-360.418 105.138,-349.829 98.4594,-351.926"/>
<text text-anchor="middle" x="101.5" y="-330.3" font-family="Times,serif" font-size="14.00">b</text>
</g>
<!-- 3&#45;&gt;1 -->
<g id="edge8" class="edge"><title>3&#45;&gt;1</title>
<path fill="none" stroke="black" d="M73.4577,-274.283C70.083,-268.25 66.7041,-261.04 65,-254 63.1206,-246.236 62.8912,-237.691 63.4359,-229.698"/>
<polygon fill="black" stroke="black" points="66.9301,-229.939 64.5241,-219.621 59.9706,-229.187 66.9301,-229.939"/>
<text text-anchor="middle" x="68.5" y="-242.3" font-family="Times,serif" font-size="14.00">a</text>
</g>
<!-- 4&#45;&gt;1 -->
<g id="edge9" class="edge"><title>4&#45;&gt;1</title>
<path fill="none" stroke="black" d="M80.7501,-36.1141C78.5741,-65.9087 74.0593,-127.727 71.3032,-165.464"/>
<polygon fill="black" stroke="black" points="67.7801,-165.654 70.5423,-175.882 74.7615,-166.164 67.7801,-165.654"/>
<text text-anchor="middle" x="80.5" y="-102.3" font-family="Times,serif" font-size="14.00">a</text>
</g>
<!-- 4&#45;&gt;2 -->
<g id="edge10" class="edge"><title>4&#45;&gt;2</title>
<path fill="none" stroke="black" d="M72.1404,-33.4545C65.0301,-43.7568 55.1184,-57.8726 46,-70 42.6944,-74.3965 39.0794,-79.0336 35.578,-83.4432"/>
<polygon fill="black" stroke="black" points="32.6257,-81.5299 29.0959,-91.5195 38.0849,-85.9115 32.6257,-81.5299"/>
<text text-anchor="middle" x="61.5" y="-58.3" font-family="Times,serif" font-size="14.00">b</text>
</g>
</g>
</svg>
