<?xml version="1.0" encoding="UTF-8" standalone="no"?>
<!DOCTYPE svg PUBLIC "-//W3C//DTD SVG 1.1//EN"
 "http://www.w3.org/Graphics/SVG/1.1/DTD/svg11.dtd">
<!-- Generated by graphviz version 2.36.0 (20140111.2315)
 -->
<!-- Title: %3 Pages: 1 -->
<svg width="125pt" height="316pt"
 viewBox="0.00 0.00 125.00 316.00" xmlns="http://www.w3.org/2000/svg" xmlns:xlink="http://www.w3.org/1999/xlink">
<g id="graph0" class="graph" transform="scale(1 1) rotate(0) translate(4 312)">
<title>%3</title>
<polygon fill="white" stroke="none" points="-4,4 -4,-312 121,-312 121,4 -4,4"/>
<!-- 0 -->
<g id="node1" class="node"><title>0</title>
<ellipse fill="lightblue" stroke="black" cx="80" cy="-290" rx="18" ry="18"/>
<text text-anchor="middle" x="80" y="-286.3" font-family="Times,serif" font-size="14.00">0</text>
</g>
<!-- 2 -->
<g id="node3" class="node"><title>2</title>
<ellipse fill="green" stroke="black" cx="22" cy="-198" rx="17.5909" ry="18"/>
<ellipse fill="none" stroke="black" cx="22" cy="-198" rx="21.5" ry="22"/>
<text text-anchor="middle" x="22" y="-194.3" font-family="Times,serif" font-size="14.00">2</text>
</g>
<!-- 0&#45;&gt;2 -->
<g id="edge1" class="edge"><title>0&#45;&gt;2</title>
<path fill="none" stroke="black" d="M70.6813,-274.54C62.1434,-261.292 49.2963,-241.356 38.9433,-225.291"/>
<polygon fill="black" stroke="black" points="41.8505,-223.341 33.4914,-216.832 35.9665,-227.133 41.8505,-223.341"/>
<text text-anchor="middle" x="60.5" y="-242.3" font-family="Times,serif" font-size="14.00">b</text>
</g>
<!-- 3 -->
<g id="node4" class="node"><title>3</title>
<ellipse fill="lightblue" stroke="black" cx="74" cy="-18" rx="18" ry="18"/>
<text text-anchor="middle" x="74" y="-14.3" font-family="Times,serif" font-size="14.00">3</text>
</g>
<!-- 0&#45;&gt;3 -->
<g id="edge2" class="edge"><title>0&#45;&gt;3</title>
<path fill="none" stroke="black" d="M86.092,-272.846C88.0263,-266.994 89.9373,-260.28 91,-254 103.313,-181.235 105.862,-160.995 95,-88 92.8187,-73.3408 88.1654,-57.4873 83.7923,-44.6774"/>
<polygon fill="black" stroke="black" points="87.0476,-43.3856 80.3977,-35.1376 80.4527,-45.7323 87.0476,-43.3856"/>
<text text-anchor="middle" x="104.5" y="-146.3" font-family="Times,serif" font-size="14.00">a</text>
</g>
<!-- 1 -->
<g id="node2" class="node"><title>1</title>
<ellipse fill="lightblue" stroke="black" cx="68" cy="-106" rx="18" ry="18"/>
<text text-anchor="middle" x="68" y="-102.3" font-family="Times,serif" font-size="14.00">1</text>
</g>
<!-- 1&#45;&gt;0 -->
<g id="edge3" class="edge"><title>1&#45;&gt;0</title>
<path fill="none" stroke="black" d="M69.1347,-124.209C71.2207,-155.847 75.6804,-223.486 78.1893,-261.537"/>
<polygon fill="black" stroke="black" points="74.7206,-262.13 78.8711,-271.878 81.7055,-261.669 74.7206,-262.13"/>
<text text-anchor="middle" x="78.5" y="-194.3" font-family="Times,serif" font-size="14.00">b</text>
</g>
<!-- 1&#45;&gt;3 -->
<g id="edge4" class="edge"><title>1&#45;&gt;3</title>
<path fill="none" stroke="black" d="M63.6856,-88.4058C61.6717,-78.405 60.0946,-65.4321 62,-54 62.5217,-50.8695 63.2891,-47.6437 64.1877,-44.476"/>
<polygon fill="black" stroke="black" points="67.5891,-45.3348 67.3664,-34.7423 60.9349,-43.1618 67.5891,-45.3348"/>
<text text-anchor="middle" x="65.5" y="-58.3" font-family="Times,serif" font-size="14.00">a</text>
</g>
<!-- 2&#45;&gt;1 -->
<g id="edge5" class="edge"><title>2&#45;&gt;1</title>
<path fill="none" stroke="black" d="M31.7554,-177.913C38.6783,-164.369 48.0296,-146.072 55.4996,-131.457"/>
<polygon fill="black" stroke="black" points="58.6577,-132.969 60.0923,-122.472 52.4246,-129.783 58.6577,-132.969"/>
<text text-anchor="middle" x="53.5" y="-146.3" font-family="Times,serif" font-size="14.00">a</text>
</g>
<!-- 2&#45;&gt;3 -->
<g id="edge6" class="edge"><title>2&#45;&gt;3</title>
<path fill="none" stroke="black" d="M21.7647,-175.968C22.096,-153.609 24.3118,-117.481 34,-88 39.4793,-71.3268 49.3384,-54.2492 57.8971,-41.255"/>
<polygon fill="black" stroke="black" points="60.8062,-43.2013 63.5448,-32.9665 55.0215,-39.2596 60.8062,-43.2013"/>
<text text-anchor="middle" x="37.5" y="-102.3" font-family="Times,serif" font-size="14.00">b</text>
</g>
<!-- 3&#45;&gt;1 -->
<g id="edge7" class="edge"><title>3&#45;&gt;1</title>
<path fill="none" stroke="black" d="M72.7965,-36.2499C71.9677,-48.1302 70.8492,-64.162 69.9008,-77.7558"/>
<polygon fill="black" stroke="black" points="66.39,-77.7898 69.1854,-88.0092 73.373,-78.277 66.39,-77.7898"/>
<text text-anchor="middle" x="74.5" y="-58.3" font-family="Times,serif" font-size="14.00">b</text>
</g>
<!-- 3&#45;&gt;3 -->
<g id="edge8" class="edge"><title>3&#45;&gt;3</title>
<path fill="none" stroke="black" d="M90.2903,-25.6679C100.389,-27.5169 110,-24.9609 110,-18 110,-13.5406 106.056,-10.8891 100.566,-10.0454"/>
<polygon fill="black" stroke="black" points="100.189,-6.55441 90.2903,-10.3321 100.384,-13.5517 100.189,-6.55441"/>
<text text-anchor="middle" x="113.5" y="-14.3" font-family="Times,serif" font-size="14.00">a</text>
</g>
</g>
</svg>
