<?xml version="1.0" encoding="UTF-8" standalone="no"?>
<!DOCTYPE svg PUBLIC "-//W3C//DTD SVG 1.1//EN"
 "http://www.w3.org/Graphics/SVG/1.1/DTD/svg11.dtd">
<!-- Generated by graphviz version 2.36.0 (20140111.2315)
 -->
<!-- Title: %3 Pages: 1 -->
<svg width="106pt" height="228pt"
 viewBox="0.00 0.00 106.00 228.00" xmlns="http://www.w3.org/2000/svg" xmlns:xlink="http://www.w3.org/1999/xlink">
<g id="graph0" class="graph" transform="scale(1 1) rotate(0) translate(4 224)">
<title>%3</title>
<polygon fill="white" stroke="none" points="-4,4 -4,-224 102,-224 102,4 -4,4"/>
<!-- 0 -->
<g id="node1" class="node"><title>0</title>
<ellipse fill="lightblue" stroke="black" cx="50" cy="-202" rx="18" ry="18"/>
<text text-anchor="middle" x="50" y="-198.3" font-family="Times,serif" font-size="14.00">0</text>
</g>
<!-- 2 -->
<g id="node3" class="node"><title>2</title>
<ellipse fill="green" stroke="black" cx="21" cy="-110" rx="17.5909" ry="18"/>
<ellipse fill="none" stroke="black" cx="21" cy="-110" rx="21.5" ry="22"/>
<text text-anchor="middle" x="21" y="-106.3" font-family="Times,serif" font-size="14.00">2</text>
</g>
<!-- 0&#45;&gt;2 -->
<g id="edge1" class="edge"><title>0&#45;&gt;2</title>
<path fill="none" stroke="black" d="M34.1511,-192.577C24.6493,-186.568 13.3947,-177.518 8,-166 4.06915,-157.607 4.80862,-147.921 7.30722,-139.037"/>
<polygon fill="black" stroke="black" points="10.6599,-140.056 10.7205,-129.461 4.06624,-137.705 10.6599,-140.056"/>
<text text-anchor="middle" x="11.5" y="-154.3" font-family="Times,serif" font-size="14.00">b</text>
</g>
<!-- 3 -->
<g id="node4" class="node"><title>3</title>
<ellipse fill="lightblue" stroke="black" cx="80" cy="-110" rx="18" ry="18"/>
<text text-anchor="middle" x="80" y="-106.3" font-family="Times,serif" font-size="14.00">3</text>
</g>
<!-- 0&#45;&gt;3 -->
<g id="edge2" class="edge"><title>0&#45;&gt;3</title>
<path fill="none" stroke="black" d="M55.5025,-184.493C59.9005,-171.299 66.149,-152.553 71.2345,-137.296"/>
<polygon fill="black" stroke="black" points="74.6905,-137.996 74.5324,-127.403 68.0497,-135.783 74.6905,-137.996"/>
<text text-anchor="middle" x="69.5" y="-154.3" font-family="Times,serif" font-size="14.00">a</text>
</g>
<!-- 1 -->
<g id="node2" class="node"><title>1</title>
<ellipse fill="lightblue" stroke="black" cx="50" cy="-18" rx="18" ry="18"/>
<text text-anchor="middle" x="50" y="-14.3" font-family="Times,serif" font-size="14.00">1</text>
</g>
<!-- 1&#45;&gt;1 -->
<g id="edge3" class="edge"><title>1&#45;&gt;1</title>
<path fill="none" stroke="black" d="M66.2903,-25.6679C76.3892,-27.5169 86,-24.9609 86,-18 86,-13.5406 82.0557,-10.8891 76.5656,-10.0454"/>
<polygon fill="black" stroke="black" points="76.1887,-6.55441 66.2903,-10.3321 76.384,-13.5517 76.1887,-6.55441"/>
<text text-anchor="middle" x="89.5" y="-14.3" font-family="Times,serif" font-size="14.00">a</text>
</g>
<!-- 1&#45;&gt;2 -->
<g id="edge4" class="edge"><title>1&#45;&gt;2</title>
<path fill="none" stroke="black" d="M44.7036,-35.437C40.7902,-47.5821 35.3521,-64.4589 30.6717,-78.9843"/>
<polygon fill="black" stroke="black" points="27.3162,-77.9861 27.5805,-88.5776 33.9789,-80.133 27.3162,-77.9861"/>
<text text-anchor="middle" x="41.5" y="-58.3" font-family="Times,serif" font-size="14.00">b</text>
</g>
<!-- 2&#45;&gt;0 -->
<g id="edge5" class="edge"><title>2&#45;&gt;0</title>
<path fill="none" stroke="black" d="M27.0705,-131.161C30.2501,-141.586 34.2529,-154.502 38,-166 38.9641,-168.958 39.9929,-172.05 41.0275,-175.119"/>
<polygon fill="black" stroke="black" points="37.7387,-176.319 44.2799,-184.653 44.3638,-174.059 37.7387,-176.319"/>
<text text-anchor="middle" x="41.5" y="-154.3" font-family="Times,serif" font-size="14.00">b</text>
</g>
<!-- 2&#45;&gt;1 -->
<g id="edge6" class="edge"><title>2&#45;&gt;1</title>
<path fill="none" stroke="black" d="M18.7948,-88.0555C18.4208,-77.5426 19.1038,-64.7836 23,-54 24.8752,-48.8101 27.8271,-43.7743 31.103,-39.2156"/>
<polygon fill="black" stroke="black" points="34.0704,-41.1102 37.6038,-31.1219 28.6128,-36.7267 34.0704,-41.1102"/>
<text text-anchor="middle" x="26.5" y="-58.3" font-family="Times,serif" font-size="14.00">a</text>
</g>
<!-- 3&#45;&gt;0 -->
<g id="edge7" class="edge"><title>3&#45;&gt;0</title>
<path fill="none" stroke="black" d="M79.7922,-128.325C79.1794,-139.399 77.4711,-153.901 73,-166 71.368,-170.416 69.0902,-174.837 66.5977,-178.979"/>
<polygon fill="black" stroke="black" points="63.567,-177.216 60.9655,-187.487 69.404,-181.08 63.567,-177.216"/>
<text text-anchor="middle" x="80.5" y="-154.3" font-family="Times,serif" font-size="14.00">b</text>
</g>
<!-- 3&#45;&gt;1 -->
<g id="edge8" class="edge"><title>3&#45;&gt;1</title>
<path fill="none" stroke="black" d="M74.4975,-92.4926C70.0995,-79.2985 63.851,-60.5529 58.7655,-45.2964"/>
<polygon fill="black" stroke="black" points="61.9503,-43.7828 55.4676,-35.4027 55.3095,-45.9964 61.9503,-43.7828"/>
<text text-anchor="middle" x="69.5" y="-58.3" font-family="Times,serif" font-size="14.00">a</text>
</g>
</g>
</svg>
