<?xml version="1.0" encoding="UTF-8" standalone="no"?>
<!DOCTYPE svg PUBLIC "-//W3C//DTD SVG 1.1//EN"
 "http://www.w3.org/Graphics/SVG/1.1/DTD/svg11.dtd">
<!-- Generated by graphviz version 2.36.0 (20140111.2315)
 -->
<!-- Title: %3 Pages: 1 -->
<svg width="100pt" height="316pt"
 viewBox="0.00 0.00 100.02 316.00" xmlns="http://www.w3.org/2000/svg" xmlns:xlink="http://www.w3.org/1999/xlink">
<g id="graph0" class="graph" transform="scale(1 1) rotate(0) translate(4 312)">
<title>%3</title>
<polygon fill="white" stroke="none" points="-4,4 -4,-312 96.0177,-312 96.0177,4 -4,4"/>
<!-- 0 -->
<g id="node1" class="node"><title>0</title>
<ellipse fill="green" stroke="black" cx="31.0177" cy="-290" rx="18" ry="18"/>
<text text-anchor="middle" x="31.0177" y="-286.3" font-family="Times,serif" font-size="14.00">0</text>
</g>
<!-- 0&#45;&gt;0 -->
<g id="edge1" class="edge"><title>0&#45;&gt;0</title>
<path fill="none" stroke="black" d="M47.308,-297.668C57.4069,-299.517 67.0177,-296.961 67.0177,-290 67.0177,-285.541 63.0734,-282.889 57.5833,-282.045"/>
<polygon fill="black" stroke="black" points="57.2064,-278.554 47.308,-282.332 57.4017,-285.552 57.2064,-278.554"/>
<text text-anchor="middle" x="70.5177" y="-286.3" font-family="Times,serif" font-size="14.00">b</text>
</g>
<!-- 1 -->
<g id="node2" class="node"><title>1</title>
<ellipse fill="lightblue" stroke="black" cx="31.0177" cy="-202" rx="18" ry="18"/>
<text text-anchor="middle" x="31.0177" y="-198.3" font-family="Times,serif" font-size="14.00">1</text>
</g>
<!-- 0&#45;&gt;1 -->
<g id="edge2" class="edge"><title>0&#45;&gt;1</title>
<path fill="none" stroke="black" d="M31.0177,-271.597C31.0177,-259.746 31.0177,-243.817 31.0177,-230.292"/>
<polygon fill="black" stroke="black" points="34.5178,-230.084 31.0177,-220.084 27.5178,-230.084 34.5178,-230.084"/>
<text text-anchor="middle" x="34.5177" y="-242.3" font-family="Times,serif" font-size="14.00">a</text>
</g>
<!-- 2 -->
<g id="node3" class="node"><title>2</title>
<ellipse fill="lightblue" stroke="black" cx="31.0177" cy="-22" rx="17.5909" ry="18"/>
<ellipse fill="none" stroke="black" cx="31.0177" cy="-22" rx="21.5" ry="22"/>
<text text-anchor="middle" x="31.0177" y="-18.3" font-family="Times,serif" font-size="14.00">2</text>
</g>
<!-- 1&#45;&gt;2 -->
<g id="edge3" class="edge"><title>1&#45;&gt;2</title>
<path fill="none" stroke="black" d="M31.0177,-183.933C31.0177,-154.154 31.0177,-92.2862 31.0177,-54.5293"/>
<polygon fill="black" stroke="black" points="34.5178,-54.1069 31.0177,-44.1069 27.5178,-54.107 34.5178,-54.1069"/>
<text text-anchor="middle" x="34.5177" y="-110.3" font-family="Times,serif" font-size="14.00">b</text>
</g>
<!-- 3 -->
<g id="node4" class="node"><title>3</title>
<ellipse fill="lightblue" stroke="black" cx="74.0177" cy="-114" rx="18" ry="18"/>
<text text-anchor="middle" x="74.0177" y="-110.3" font-family="Times,serif" font-size="14.00">3</text>
</g>
<!-- 1&#45;&gt;3 -->
<g id="edge4" class="edge"><title>1&#45;&gt;3</title>
<path fill="none" stroke="black" d="M38.7052,-185.625C45.0861,-172.863 54.2816,-154.472 61.6895,-139.656"/>
<polygon fill="black" stroke="black" points="64.91,-141.041 66.2517,-130.532 58.6491,-137.911 64.91,-141.041"/>
<text text-anchor="middle" x="59.5177" y="-154.3" font-family="Times,serif" font-size="14.00">a</text>
</g>
<!-- 2&#45;&gt;0 -->
<g id="edge5" class="edge"><title>2&#45;&gt;0</title>
<path fill="none" stroke="black" d="M24.0431,-42.9602C12.5107,-78.6573 -8.11167,-155.717 4.0177,-220 6.90666,-235.311 13.1062,-251.58 18.8368,-264.473"/>
<polygon fill="black" stroke="black" points="15.6865,-265.999 23.0651,-273.602 22.0384,-263.057 15.6865,-265.999"/>
<text text-anchor="middle" x="10.5177" y="-154.3" font-family="Times,serif" font-size="14.00">b,a</text>
</g>
<!-- 3&#45;&gt;0 -->
<g id="edge6" class="edge"><title>3&#45;&gt;0</title>
<path fill="none" stroke="black" d="M71.8064,-132.018C70.486,-141.94 68.736,-154.69 67.0177,-166 63.3631,-190.055 64.4857,-196.544 58.0177,-220 53.8757,-235.02 47.6089,-251.274 42.1552,-264.231"/>
<polygon fill="black" stroke="black" points="38.9377,-262.853 38.1918,-273.422 45.3656,-265.625 38.9377,-262.853"/>
<text text-anchor="middle" x="67.5177" y="-198.3" font-family="Times,serif" font-size="14.00">a</text>
</g>
<!-- 3&#45;&gt;2 -->
<g id="edge7" class="edge"><title>3&#45;&gt;2</title>
<path fill="none" stroke="black" d="M66.5277,-97.3232C60.5272,-84.764 51.9479,-66.8075 44.7254,-51.6906"/>
<polygon fill="black" stroke="black" points="47.685,-49.7662 40.2159,-42.252 41.3689,-52.784 47.685,-49.7662"/>
<text text-anchor="middle" x="59.5177" y="-66.3" font-family="Times,serif" font-size="14.00">b</text>
</g>
</g>
</svg>
