<?xml version="1.0" encoding="UTF-8" standalone="no"?>
<!DOCTYPE svg PUBLIC "-//W3C//DTD SVG 1.1//EN"
 "http://www.w3.org/Graphics/SVG/1.1/DTD/svg11.dtd">
<!-- Generated by graphviz version 2.36.0 (20140111.2315)
 -->
<!-- Title: %3 Pages: 1 -->
<svg width="182pt" height="316pt"
 viewBox="0.00 0.00 182.00 316.00" xmlns="http://www.w3.org/2000/svg" xmlns:xlink="http://www.w3.org/1999/xlink">
<g id="graph0" class="graph" transform="scale(1 1) rotate(0) translate(4 312)">
<title>%3</title>
<polygon fill="white" stroke="none" points="-4,4 -4,-312 178,-312 178,4 -4,4"/>
<!-- 0 -->
<g id="node1" class="node"><title>0</title>
<ellipse fill="lightblue" stroke="black" cx="67" cy="-290" rx="18" ry="18"/>
<text text-anchor="middle" x="67" y="-286.3" font-family="Times,serif" font-size="14.00">0</text>
</g>
<!-- 3 -->
<g id="node4" class="node"><title>3</title>
<ellipse fill="green" stroke="black" cx="21" cy="-198" rx="17.5909" ry="18"/>
<ellipse fill="none" stroke="black" cx="21" cy="-198" rx="21.5" ry="22"/>
<text text-anchor="middle" x="21" y="-194.3" font-family="Times,serif" font-size="14.00">3</text>
</g>
<!-- 0&#45;&gt;3 -->
<g id="edge1" class="edge"><title>0&#45;&gt;3</title>
<path fill="none" stroke="black" d="M51.8985,-279.923C43.0869,-273.77 32.628,-264.802 27,-254 23.266,-246.833 21.3383,-238.437 20.4329,-230.393"/>
<polygon fill="black" stroke="black" points="23.9087,-229.906 19.7656,-220.154 16.9235,-230.361 23.9087,-229.906"/>
<text text-anchor="middle" x="30.5" y="-242.3" font-family="Times,serif" font-size="14.00">b</text>
</g>
<!-- 4 -->
<g id="node5" class="node"><title>4</title>
<ellipse fill="lightblue" stroke="black" cx="79" cy="-106" rx="18" ry="18"/>
<text text-anchor="middle" x="79" y="-102.3" font-family="Times,serif" font-size="14.00">4</text>
</g>
<!-- 0&#45;&gt;4 -->
<g id="edge2" class="edge"><title>0&#45;&gt;4</title>
<path fill="none" stroke="black" d="M68.1289,-271.878C70.2106,-240.307 74.6699,-172.673 77.1824,-134.568"/>
<polygon fill="black" stroke="black" points="80.6997,-134.418 77.8653,-124.209 73.7149,-133.957 80.6997,-134.418"/>
<text text-anchor="middle" x="77.5" y="-194.3" font-family="Times,serif" font-size="14.00">a</text>
</g>
<!-- 1 -->
<g id="node2" class="node"><title>1</title>
<ellipse fill="lightblue" stroke="black" cx="79" cy="-18" rx="18" ry="18"/>
<text text-anchor="middle" x="79" y="-14.3" font-family="Times,serif" font-size="14.00">1</text>
</g>
<!-- 1&#45;&gt;1 -->
<g id="edge3" class="edge"><title>1&#45;&gt;1</title>
<path fill="none" stroke="black" d="M95.2903,-25.6679C105.389,-27.5169 115,-24.9609 115,-18 115,-13.5406 111.056,-10.8891 105.566,-10.0454"/>
<polygon fill="black" stroke="black" points="105.189,-6.55441 95.2903,-10.3321 105.384,-13.5517 105.189,-6.55441"/>
<text text-anchor="middle" x="118.5" y="-14.3" font-family="Times,serif" font-size="14.00">b</text>
</g>
<!-- 1&#45;&gt;4 -->
<g id="edge4" class="edge"><title>1&#45;&gt;4</title>
<path fill="none" stroke="black" d="M79,-36.084C79,-47.8607 79,-63.7741 79,-77.342"/>
<polygon fill="black" stroke="black" points="75.5001,-77.5966 79,-87.5966 82.5001,-77.5967 75.5001,-77.5966"/>
<text text-anchor="middle" x="82.5" y="-58.3" font-family="Times,serif" font-size="14.00">a</text>
</g>
<!-- 2 -->
<g id="node3" class="node"><title>2</title>
<ellipse fill="lightblue" stroke="black" cx="121" cy="-290" rx="18" ry="18"/>
<text text-anchor="middle" x="121" y="-286.3" font-family="Times,serif" font-size="14.00">2</text>
</g>
<!-- 2&#45;&gt;2 -->
<g id="edge5" class="edge"><title>2&#45;&gt;2</title>
<path fill="none" stroke="black" d="M137.29,-297.668C147.389,-299.517 157,-296.961 157,-290 157,-285.541 153.056,-282.889 147.566,-282.045"/>
<polygon fill="black" stroke="black" points="147.189,-278.554 137.29,-282.332 147.384,-285.552 147.189,-278.554"/>
<text text-anchor="middle" x="165.5" y="-286.3" font-family="Times,serif" font-size="14.00">b,a</text>
</g>
<!-- 3&#45;&gt;0 -->
<g id="edge6" class="edge"><title>3&#45;&gt;0</title>
<path fill="none" stroke="black" d="M30.5994,-217.781C37.5585,-231.397 47.0313,-249.931 54.5688,-264.678"/>
<polygon fill="black" stroke="black" points="51.529,-266.421 59.1967,-273.733 57.7621,-263.235 51.529,-266.421"/>
<text text-anchor="middle" x="51.5" y="-242.3" font-family="Times,serif" font-size="14.00">b</text>
</g>
<!-- 3&#45;&gt;4 -->
<g id="edge7" class="edge"><title>3&#45;&gt;4</title>
<path fill="none" stroke="black" d="M32.4589,-179.219C41.5661,-165.087 54.3701,-145.219 64.2436,-129.898"/>
<polygon fill="black" stroke="black" points="67.1932,-131.782 69.6682,-121.48 61.3092,-127.99 67.1932,-131.782"/>
<text text-anchor="middle" x="58.5" y="-146.3" font-family="Times,serif" font-size="14.00">a</text>
</g>
<!-- 4&#45;&gt;0 -->
<g id="edge8" class="edge"><title>4&#45;&gt;0</title>
<path fill="none" stroke="black" d="M85.1997,-123.137C87.1442,-128.986 89.034,-135.704 90,-142 97.5644,-191.298 95.3771,-205.685 83,-254 82.1109,-257.471 80.8922,-261.023 79.521,-264.471"/>
<polygon fill="black" stroke="black" points="76.2582,-263.195 75.3999,-273.755 82.6562,-266.035 76.2582,-263.195"/>
<text text-anchor="middle" x="97.5" y="-194.3" font-family="Times,serif" font-size="14.00">b</text>
</g>
<!-- 4&#45;&gt;1 -->
<g id="edge9" class="edge"><title>4&#45;&gt;1</title>
<path fill="none" stroke="black" d="M72.8003,-88.8629C70.8558,-83.0135 68.966,-76.2957 68,-70 66.9215,-62.9712 66.9215,-61.0288 68,-54 68.4528,-51.0489 69.1086,-48.005 69.8779,-45.0013"/>
<polygon fill="black" stroke="black" points="73.3155,-45.7194 72.8003,-35.1371 66.6038,-43.7309 73.3155,-45.7194"/>
<text text-anchor="middle" x="71.5" y="-58.3" font-family="Times,serif" font-size="14.00">a</text>
</g>
</g>
</svg>
