<?xml version="1.0" encoding="UTF-8" standalone="no"?>
<!DOCTYPE svg PUBLIC "-//W3C//DTD SVG 1.1//EN"
 "http://www.w3.org/Graphics/SVG/1.1/DTD/svg11.dtd">
<!-- Generated by graphviz version 2.36.0 (20140111.2315)
 -->
<!-- Title: %3 Pages: 1 -->
<svg width="135pt" height="228pt"
 viewBox="0.00 0.00 135.00 228.00" xmlns="http://www.w3.org/2000/svg" xmlns:xlink="http://www.w3.org/1999/xlink">
<g id="graph0" class="graph" transform="scale(1 1) rotate(0) translate(4 224)">
<title>%3</title>
<polygon fill="white" stroke="none" points="-4,4 -4,-224 131,-224 131,4 -4,4"/>
<!-- 0 -->
<g id="node1" class="node"><title>0</title>
<ellipse fill="lightblue" stroke="black" cx="18" cy="-202" rx="18" ry="18"/>
<text text-anchor="middle" x="18" y="-198.3" font-family="Times,serif" font-size="14.00">0</text>
</g>
<!-- 1 -->
<g id="node2" class="node"><title>1</title>
<ellipse fill="lightblue" stroke="black" cx="65" cy="-110" rx="17.5909" ry="18"/>
<ellipse fill="none" stroke="black" cx="65" cy="-110" rx="21.5" ry="22"/>
<text text-anchor="middle" x="65" y="-106.3" font-family="Times,serif" font-size="14.00">1</text>
</g>
<!-- 0&#45;&gt;1 -->
<g id="edge1" class="edge"><title>0&#45;&gt;1</title>
<path fill="none" stroke="black" d="M25.9729,-185.733C32.653,-172.941 42.3629,-154.348 50.4261,-138.907"/>
<polygon fill="black" stroke="black" points="53.6653,-140.266 55.192,-129.781 47.4605,-137.025 53.6653,-140.266"/>
<text text-anchor="middle" x="47.5" y="-154.3" font-family="Times,serif" font-size="14.00">b</text>
</g>
<!-- 2 -->
<g id="node3" class="node"><title>2</title>
<ellipse fill="lightblue" stroke="black" cx="51" cy="-18" rx="18" ry="18"/>
<text text-anchor="middle" x="51" y="-14.3" font-family="Times,serif" font-size="14.00">2</text>
</g>
<!-- 0&#45;&gt;2 -->
<g id="edge2" class="edge"><title>0&#45;&gt;2</title>
<path fill="none" stroke="black" d="M18.0113,-183.961C18.3313,-161.672 19.9585,-121.512 27,-88 30.1074,-73.2112 35.5212,-57.2418 40.4213,-44.3943"/>
<polygon fill="black" stroke="black" points="43.7754,-45.4292 44.1871,-34.8423 37.2632,-42.8617 43.7754,-45.4292"/>
<text text-anchor="middle" x="30.5" y="-106.3" font-family="Times,serif" font-size="14.00">a</text>
</g>
<!-- 1&#45;&gt;2 -->
<g id="edge3" class="edge"><title>1&#45;&gt;2</title>
<path fill="none" stroke="black" d="M63.2885,-88.0277C62.3022,-77.7358 60.8805,-65.1771 59,-54 58.5408,-51.2705 58.0001,-48.4348 57.4202,-45.6119"/>
<polygon fill="black" stroke="black" points="60.7958,-44.6663 55.2223,-35.656 53.9604,-46.1754 60.7958,-44.6663"/>
<text text-anchor="middle" x="69.5" y="-58.3" font-family="Times,serif" font-size="14.00">b,a</text>
</g>
<!-- 2&#45;&gt;0 -->
<g id="edge4" class="edge"><title>2&#45;&gt;0</title>
<path fill="none" stroke="black" d="M39.5958,-32.1391C29.088,-45.2522 14.3412,-66.4957 9,-88 1.80069,-116.986 6.29969,-151.316 11.1573,-174.468"/>
<polygon fill="black" stroke="black" points="7.75229,-175.279 13.3737,-184.259 14.5796,-173.733 7.75229,-175.279"/>
<text text-anchor="middle" x="12.5" y="-106.3" font-family="Times,serif" font-size="14.00">a</text>
</g>
<!-- 2&#45;&gt;1 -->
<g id="edge5" class="edge"><title>2&#45;&gt;1</title>
<path fill="none" stroke="black" d="M51.0861,-36.1035C51.3647,-46.0547 52.1147,-58.8047 54,-70 54.5093,-73.0242 55.1641,-76.1494 55.9001,-79.2535"/>
<polygon fill="black" stroke="black" points="52.521,-80.1661 58.449,-88.9473 59.2909,-78.3859 52.521,-80.1661"/>
<text text-anchor="middle" x="57.5" y="-58.3" font-family="Times,serif" font-size="14.00">b</text>
</g>
<!-- 3 -->
<g id="node4" class="node"><title>3</title>
<ellipse fill="green" stroke="black" cx="109" cy="-202" rx="18" ry="18"/>
<text text-anchor="middle" x="109" y="-198.3" font-family="Times,serif" font-size="14.00">3</text>
</g>
<!-- 3&#45;&gt;1 -->
<g id="edge6" class="edge"><title>3&#45;&gt;1</title>
<path fill="none" stroke="black" d="M101.336,-185.323C95.0965,-172.561 86.1325,-154.226 78.6692,-138.96"/>
<polygon fill="black" stroke="black" points="81.7905,-137.375 74.254,-129.929 75.5018,-140.45 81.7905,-137.375"/>
<text text-anchor="middle" x="93.5" y="-154.3" font-family="Times,serif" font-size="14.00">b</text>
</g>
<!-- 3&#45;&gt;2 -->
<g id="edge7" class="edge"><title>3&#45;&gt;2</title>
<path fill="none" stroke="black" d="M109.656,-183.762C109.968,-154.804 107.156,-95.4919 82,-54 78.7649,-48.6641 74.6773,-43.3767 70.5409,-38.5898"/>
<polygon fill="black" stroke="black" points="73.0082,-36.1015 63.6755,-31.0863 67.8437,-40.8268 73.0082,-36.1015"/>
<text text-anchor="middle" x="109.5" y="-106.3" font-family="Times,serif" font-size="14.00">a</text>
</g>
</g>
</svg>
