<?xml version="1.0" encoding="UTF-8" standalone="no"?>
<!DOCTYPE svg PUBLIC "-//W3C//DTD SVG 1.1//EN"
 "http://www.w3.org/Graphics/SVG/1.1/DTD/svg11.dtd">
<!-- Generated by graphviz version 2.36.0 (20140111.2315)
 -->
<!-- Title: %3 Pages: 1 -->
<svg width="130pt" height="316pt"
 viewBox="0.00 0.00 130.00 316.00" xmlns="http://www.w3.org/2000/svg" xmlns:xlink="http://www.w3.org/1999/xlink">
<g id="graph0" class="graph" transform="scale(1 1) rotate(0) translate(4 312)">
<title>%3</title>
<polygon fill="white" stroke="none" points="-4,4 -4,-312 126,-312 126,4 -4,4"/>
<!-- 0 -->
<g id="node1" class="node"><title>0</title>
<ellipse fill="lightblue" stroke="black" cx="52" cy="-202" rx="18" ry="18"/>
<text text-anchor="middle" x="52" y="-198.3" font-family="Times,serif" font-size="14.00">0</text>
</g>
<!-- 0&#45;&gt;0 -->
<g id="edge1" class="edge"><title>0&#45;&gt;0</title>
<path fill="none" stroke="black" d="M68.2903,-209.668C78.3892,-211.517 88,-208.961 88,-202 88,-197.541 84.0557,-194.889 78.5656,-194.045"/>
<polygon fill="black" stroke="black" points="78.1887,-190.554 68.2903,-194.332 78.384,-197.552 78.1887,-190.554"/>
<text text-anchor="middle" x="96.5" y="-198.3" font-family="Times,serif" font-size="14.00">b,c</text>
</g>
<!-- 2 -->
<g id="node3" class="node"><title>2</title>
<ellipse fill="lightblue" stroke="black" cx="22" cy="-110" rx="17.5909" ry="18"/>
<ellipse fill="none" stroke="black" cx="22" cy="-110" rx="21.5" ry="22"/>
<text text-anchor="middle" x="22" y="-106.3" font-family="Times,serif" font-size="14.00">2</text>
</g>
<!-- 0&#45;&gt;2 -->
<g id="edge2" class="edge"><title>0&#45;&gt;2</title>
<path fill="none" stroke="black" d="M39.671,-188.853C34.1373,-182.588 28.1543,-174.489 25,-166 22.2207,-158.521 20.9345,-150.074 20.4632,-142.086"/>
<polygon fill="black" stroke="black" points="23.9601,-141.894 20.2561,-131.967 16.9616,-142.037 23.9601,-141.894"/>
<text text-anchor="middle" x="28.5" y="-154.3" font-family="Times,serif" font-size="14.00">a</text>
</g>
<!-- 1 -->
<g id="node2" class="node"><title>1</title>
<ellipse fill="green" stroke="black" cx="52" cy="-290" rx="18" ry="18"/>
<text text-anchor="middle" x="52" y="-286.3" font-family="Times,serif" font-size="14.00">1</text>
</g>
<!-- 1&#45;&gt;0 -->
<g id="edge3" class="edge"><title>1&#45;&gt;0</title>
<path fill="none" stroke="black" d="M52,-271.597C52,-259.746 52,-243.817 52,-230.292"/>
<polygon fill="black" stroke="black" points="55.5001,-230.084 52,-220.084 48.5001,-230.084 55.5001,-230.084"/>
<text text-anchor="middle" x="55.5" y="-242.3" font-family="Times,serif" font-size="14.00">b</text>
</g>
<!-- 1&#45;&gt;1 -->
<g id="edge4" class="edge"><title>1&#45;&gt;1</title>
<path fill="none" stroke="black" d="M68.2903,-297.668C78.3892,-299.517 88,-296.961 88,-290 88,-285.541 84.0557,-282.889 78.5656,-282.045"/>
<polygon fill="black" stroke="black" points="78.1887,-278.554 68.2903,-282.332 78.384,-285.552 78.1887,-278.554"/>
<text text-anchor="middle" x="96" y="-286.3" font-family="Times,serif" font-size="14.00">c,a</text>
</g>
<!-- 2&#45;&gt;0 -->
<g id="edge5" class="edge"><title>2&#45;&gt;0</title>
<path fill="none" stroke="black" d="M28.7279,-131.184C33.0388,-144.116 38.6759,-161.028 43.3224,-174.967"/>
<polygon fill="black" stroke="black" points="40.0148,-176.113 46.4975,-184.493 46.6556,-173.899 40.0148,-176.113"/>
<text text-anchor="middle" x="43.5" y="-154.3" font-family="Times,serif" font-size="14.00">b</text>
</g>
<!-- 2&#45;&gt;2 -->
<g id="edge6" class="edge"><title>2&#45;&gt;2</title>
<path fill="none" stroke="black" d="M42.0663,-118.734C52.0736,-119.943 61,-117.031 61,-110 61,-105.496 57.3366,-102.682 52.0725,-101.559"/>
<polygon fill="black" stroke="black" points="52.1646,-98.0605 42.0663,-101.266 51.9594,-105.057 52.1646,-98.0605"/>
<text text-anchor="middle" x="64.5" y="-106.3" font-family="Times,serif" font-size="14.00">c</text>
</g>
<!-- 3 -->
<g id="node4" class="node"><title>3</title>
<ellipse fill="lightblue" stroke="black" cx="79" cy="-18" rx="18" ry="18"/>
<text text-anchor="middle" x="79" y="-14.3" font-family="Times,serif" font-size="14.00">3</text>
</g>
<!-- 2&#45;&gt;3 -->
<g id="edge7" class="edge"><title>2&#45;&gt;3</title>
<path fill="none" stroke="black" d="M33.2614,-91.2189C42.0741,-77.3041 54.4093,-57.8274 64.0492,-42.6066"/>
<polygon fill="black" stroke="black" points="67.2538,-44.0881 69.6475,-33.7672 61.34,-40.3427 67.2538,-44.0881"/>
<text text-anchor="middle" x="58.5" y="-58.3" font-family="Times,serif" font-size="14.00">a</text>
</g>
<!-- 3&#45;&gt;0 -->
<g id="edge8" class="edge"><title>3&#45;&gt;0</title>
<path fill="none" stroke="black" d="M80.6866,-36.0254C82.4762,-58.2995 84.266,-98.4433 78,-132 75.1538,-147.242 69.1804,-163.508 63.6763,-176.416"/>
<polygon fill="black" stroke="black" points="60.4756,-175 59.6182,-185.56 66.8738,-177.839 60.4756,-175"/>
<text text-anchor="middle" x="90" y="-106.3" font-family="Times,serif" font-size="14.00">c,a</text>
</g>
<!-- 3&#45;&gt;3 -->
<g id="edge9" class="edge"><title>3&#45;&gt;3</title>
<path fill="none" stroke="black" d="M95.2903,-25.6679C105.389,-27.5169 115,-24.9609 115,-18 115,-13.5406 111.056,-10.8891 105.566,-10.0454"/>
<polygon fill="black" stroke="black" points="105.189,-6.55441 95.2903,-10.3321 105.384,-13.5517 105.189,-6.55441"/>
<text text-anchor="middle" x="118.5" y="-14.3" font-family="Times,serif" font-size="14.00">b</text>
</g>
</g>
</svg>
