<?xml version="1.0" encoding="UTF-8" standalone="no"?>
<!DOCTYPE svg PUBLIC "-//W3C//DTD SVG 1.1//EN"
 "http://www.w3.org/Graphics/SVG/1.1/DTD/svg11.dtd">
<!-- Generated by graphviz version 2.36.0 (20140111.2315)
 -->
<!-- Title: %3 Pages: 1 -->
<svg width="148pt" height="140pt"
 viewBox="0.00 0.00 148.00 140.00" xmlns="http://www.w3.org/2000/svg" xmlns:xlink="http://www.w3.org/1999/xlink">
<g id="graph0" class="graph" transform="scale(1 1) rotate(0) translate(4 136)">
<title>%3</title>
<polygon fill="white" stroke="none" points="-4,4 -4,-136 144,-136 144,4 -4,4"/>
<!-- 0 -->
<g id="node1" class="node"><title>0</title>
<ellipse fill="lightblue" stroke="black" cx="23" cy="-22" rx="18" ry="18"/>
<text text-anchor="middle" x="23" y="-18.3" font-family="Times,serif" font-size="14.00">0</text>
</g>
<!-- 0&#45;&gt;0 -->
<g id="edge1" class="edge"><title>0&#45;&gt;0</title>
<path fill="none" stroke="black" d="M39.2903,-30.365C49.3892,-32.3821 59,-29.5938 59,-22 59,-17.1353 55.0557,-14.2427 49.5656,-13.3222"/>
<polygon fill="black" stroke="black" points="49.1791,-9.83225 39.2903,-13.635 49.3922,-16.829 49.1791,-9.83225"/>
<text text-anchor="middle" x="67.5" y="-18.3" font-family="Times,serif" font-size="14.00">b,a</text>
</g>
<!-- 1 -->
<g id="node2" class="node"><title>1</title>
<ellipse fill="lightblue" stroke="black" cx="18" cy="-114" rx="18" ry="18"/>
<text text-anchor="middle" x="18" y="-110.3" font-family="Times,serif" font-size="14.00">1</text>
</g>
<!-- 1&#45;&gt;0 -->
<g id="edge2" class="edge"><title>1&#45;&gt;0</title>
<path fill="none" stroke="black" d="M18.9641,-95.6471C19.6811,-82.7406 20.6733,-64.8802 21.4945,-50.0987"/>
<polygon fill="black" stroke="black" points="24.9957,-50.1732 22.0559,-39.9944 18.0065,-49.7848 24.9957,-50.1732"/>
<text text-anchor="middle" x="24.5" y="-66.3" font-family="Times,serif" font-size="14.00">a</text>
</g>
<!-- 1&#45;&gt;1 -->
<g id="edge3" class="edge"><title>1&#45;&gt;1</title>
<path fill="none" stroke="black" d="M34.2903,-121.668C44.3892,-123.517 54,-120.961 54,-114 54,-109.541 50.0557,-106.889 44.5656,-106.045"/>
<polygon fill="black" stroke="black" points="44.1887,-102.554 34.2903,-106.332 44.384,-109.552 44.1887,-102.554"/>
<text text-anchor="middle" x="57.5" y="-110.3" font-family="Times,serif" font-size="14.00">b</text>
</g>
<!-- 2 -->
<g id="node3" class="node"><title>2</title>
<ellipse fill="green" stroke="black" cx="118" cy="-22" rx="17.5909" ry="18"/>
<ellipse fill="none" stroke="black" cx="118" cy="-22" rx="21.5" ry="22"/>
<text text-anchor="middle" x="118" y="-18.3" font-family="Times,serif" font-size="14.00">2</text>
</g>
<!-- 3 -->
<g id="node4" class="node"><title>3</title>
<ellipse fill="lightblue" stroke="black" cx="97" cy="-114" rx="18" ry="18"/>
<text text-anchor="middle" x="97" y="-110.3" font-family="Times,serif" font-size="14.00">3</text>
</g>
<!-- 2&#45;&gt;3 -->
<g id="edge4" class="edge"><title>2&#45;&gt;3</title>
<path fill="none" stroke="black" d="M113.183,-43.6443C110.23,-56.3009 106.418,-72.6363 103.236,-86.2742"/>
<polygon fill="black" stroke="black" points="99.8139,-85.5379 100.95,-96.0717 106.631,-87.1286 99.8139,-85.5379"/>
<text text-anchor="middle" x="116.5" y="-66.3" font-family="Times,serif" font-size="14.00">b,a</text>
</g>
<!-- 3&#45;&gt;0 -->
<g id="edge5" class="edge"><title>3&#45;&gt;0</title>
<path fill="none" stroke="black" d="M85.761,-99.3309C73.7387,-84.7093 54.5129,-61.3265 40.5052,-44.2901"/>
<polygon fill="black" stroke="black" points="43.1569,-42.0042 34.1023,-36.5028 37.7499,-46.45 43.1569,-42.0042"/>
<text text-anchor="middle" x="69.5" y="-66.3" font-family="Times,serif" font-size="14.00">b</text>
</g>
<!-- 3&#45;&gt;2 -->
<g id="edge6" class="edge"><title>3&#45;&gt;2</title>
<path fill="none" stroke="black" d="M95.9262,-95.7499C95.735,-85.7498 96.235,-72.9998 99,-62 99.9364,-58.2748 101.254,-54.486 102.763,-50.8068"/>
<polygon fill="black" stroke="black" points="106.072,-51.9898 107.077,-41.4427 99.714,-49.0606 106.072,-51.9898"/>
<text text-anchor="middle" x="102.5" y="-66.3" font-family="Times,serif" font-size="14.00">a</text>
</g>
</g>
</svg>
