<?xml version="1.0" encoding="UTF-8" standalone="no"?>
<!DOCTYPE svg PUBLIC "-//W3C//DTD SVG 1.1//EN"
 "http://www.w3.org/Graphics/SVG/1.1/DTD/svg11.dtd">
<!-- Generated by graphviz version 2.36.0 (20140111.2315)
 -->
<!-- Title: %3 Pages: 1 -->
<svg width="176pt" height="228pt"
 viewBox="0.00 0.00 176.00 228.00" xmlns="http://www.w3.org/2000/svg" xmlns:xlink="http://www.w3.org/1999/xlink">
<g id="graph0" class="graph" transform="scale(1 1) rotate(0) translate(4 224)">
<title>%3</title>
<polygon fill="white" stroke="none" points="-4,4 -4,-224 172,-224 172,4 -4,4"/>
<!-- 0 -->
<g id="node1" class="node"><title>0</title>
<ellipse fill="green" stroke="black" cx="144" cy="-202" rx="18" ry="18"/>
<text text-anchor="middle" x="144" y="-198.3" font-family="Times,serif" font-size="14.00">0</text>
</g>
<!-- 1 -->
<g id="node2" class="node"><title>1</title>
<ellipse fill="lightblue" stroke="black" cx="73" cy="-110" rx="17.5909" ry="18"/>
<ellipse fill="none" stroke="black" cx="73" cy="-110" rx="21.5" ry="22"/>
<text text-anchor="middle" x="73" y="-106.3" font-family="Times,serif" font-size="14.00">1</text>
</g>
<!-- 0&#45;&gt;1 -->
<g id="edge1" class="edge"><title>0&#45;&gt;1</title>
<path fill="none" stroke="black" d="M133.217,-187.331C122.447,-173.68 105.653,-152.392 92.5342,-135.762"/>
<polygon fill="black" stroke="black" points="95.0015,-133.238 86.06,-127.555 89.5057,-137.574 95.0015,-133.238"/>
<text text-anchor="middle" x="117.5" y="-154.3" font-family="Times,serif" font-size="14.00">a</text>
</g>
<!-- 3 -->
<g id="node4" class="node"><title>3</title>
<ellipse fill="lightblue" stroke="black" cx="128" cy="-18" rx="18" ry="18"/>
<text text-anchor="middle" x="128" y="-14.3" font-family="Times,serif" font-size="14.00">3</text>
</g>
<!-- 0&#45;&gt;3 -->
<g id="edge2" class="edge"><title>0&#45;&gt;3</title>
<path fill="none" stroke="black" d="M142.495,-183.878C139.712,-152.226 133.743,-84.3282 130.398,-46.2765"/>
<polygon fill="black" stroke="black" points="133.852,-45.5991 129.49,-35.944 126.879,-46.2122 133.852,-45.5991"/>
<text text-anchor="middle" x="145.5" y="-106.3" font-family="Times,serif" font-size="14.00">b,c</text>
</g>
<!-- 2 -->
<g id="node3" class="node"><title>2</title>
<ellipse fill="lightblue" stroke="black" cx="18" cy="-18" rx="18" ry="18"/>
<text text-anchor="middle" x="18" y="-14.3" font-family="Times,serif" font-size="14.00">2</text>
</g>
<!-- 1&#45;&gt;2 -->
<g id="edge3" class="edge"><title>1&#45;&gt;2</title>
<path fill="none" stroke="black" d="M52.2678,-103.138C36.4898,-97.4651 15.862,-87.1517 6,-70 1.38807,-61.9791 2.33567,-52.2804 5.1529,-43.5036"/>
<polygon fill="black" stroke="black" points="8.44097,-44.7081 8.93136,-34.1246 1.94806,-42.0923 8.44097,-44.7081"/>
<text text-anchor="middle" x="9.5" y="-58.3" font-family="Times,serif" font-size="14.00">c</text>
</g>
<!-- 1&#45;&gt;3 -->
<g id="edge4" class="edge"><title>1&#45;&gt;3</title>
<path fill="none" stroke="black" d="M68.9112,-88.205C67.8432,-77.3672 68.2968,-64.2693 74,-54 80.167,-42.8955 91.5074,-34.751 102.21,-29.1275"/>
<polygon fill="black" stroke="black" points="103.762,-32.2649 111.304,-24.8236 100.768,-25.9376 103.762,-32.2649"/>
<text text-anchor="middle" x="82.5" y="-58.3" font-family="Times,serif" font-size="14.00">b,a</text>
</g>
<!-- 2&#45;&gt;1 -->
<g id="edge5" class="edge"><title>2&#45;&gt;1</title>
<path fill="none" stroke="black" d="M26.7752,-34.2658C32.6775,-44.4467 40.6873,-58.0962 48,-70 50.5495,-74.1502 53.2919,-78.5194 55.9933,-82.7718"/>
<polygon fill="black" stroke="black" points="53.067,-84.6925 61.4055,-91.2287 58.963,-80.9192 53.067,-84.6925"/>
<text text-anchor="middle" x="56.5" y="-58.3" font-family="Times,serif" font-size="14.00">b,c</text>
</g>
<!-- 2&#45;&gt;2 -->
<g id="edge6" class="edge"><title>2&#45;&gt;2</title>
<path fill="none" stroke="black" d="M34.2903,-25.6679C44.3892,-27.5169 54,-24.9609 54,-18 54,-13.5406 50.0557,-10.8891 44.5656,-10.0454"/>
<polygon fill="black" stroke="black" points="44.1887,-6.55441 34.2903,-10.3321 44.384,-13.5517 44.1887,-6.55441"/>
<text text-anchor="middle" x="57.5" y="-14.3" font-family="Times,serif" font-size="14.00">a</text>
</g>
<!-- 3&#45;&gt;0 -->
<g id="edge7" class="edge"><title>3&#45;&gt;0</title>
<path fill="none" stroke="black" d="M136.899,-33.9767C144.364,-47.539 154.371,-68.3467 158,-88 164.303,-122.135 160.818,-131.964 154,-166 153.418,-168.905 152.714,-171.919 151.952,-174.905"/>
<polygon fill="black" stroke="black" points="148.521,-174.181 149.232,-184.752 155.268,-176.045 148.521,-174.181"/>
<text text-anchor="middle" x="164.5" y="-106.3" font-family="Times,serif" font-size="14.00">b</text>
</g>
<!-- 3&#45;&gt;1 -->
<g id="edge8" class="edge"><title>3&#45;&gt;1</title>
<path fill="none" stroke="black" d="M118.889,-33.909C110.915,-46.957 99.1339,-66.2354 89.5054,-81.9912"/>
<polygon fill="black" stroke="black" points="86.3581,-80.4292 84.1301,-90.7872 92.3311,-84.0794 86.3581,-80.4292"/>
<text text-anchor="middle" x="113" y="-58.3" font-family="Times,serif" font-size="14.00">c,a</text>
</g>
</g>
</svg>
