<?xml version="1.0" encoding="UTF-8" standalone="no"?>
<!DOCTYPE svg PUBLIC "-//W3C//DTD SVG 1.1//EN"
 "http://www.w3.org/Graphics/SVG/1.1/DTD/svg11.dtd">
<!-- Generated by graphviz version 2.36.0 (20140111.2315)
 -->
<!-- Title: %3 Pages: 1 -->
<svg width="139pt" height="228pt"
 viewBox="0.00 0.00 139.00 228.00" xmlns="http://www.w3.org/2000/svg" xmlns:xlink="http://www.w3.org/1999/xlink">
<g id="graph0" class="graph" transform="scale(1 1) rotate(0) translate(4 224)">
<title>%3</title>
<polygon fill="white" stroke="none" points="-4,4 -4,-224 135,-224 135,4 -4,4"/>
<!-- 0 -->
<g id="node1" class="node"><title>0</title>
<ellipse fill="lightblue" stroke="black" cx="101" cy="-202" rx="18" ry="18"/>
<text text-anchor="middle" x="101" y="-198.3" font-family="Times,serif" font-size="14.00">0</text>
</g>
<!-- 1 -->
<g id="node2" class="node"><title>1</title>
<ellipse fill="lightblue" stroke="black" cx="66" cy="-114" rx="18" ry="18"/>
<text text-anchor="middle" x="66" y="-110.3" font-family="Times,serif" font-size="14.00">1</text>
</g>
<!-- 0&#45;&gt;1 -->
<g id="edge1" class="edge"><title>0&#45;&gt;1</title>
<path fill="none" stroke="black" d="M94.4168,-184.824C89.3004,-172.252 82.1113,-154.588 76.2443,-140.172"/>
<polygon fill="black" stroke="black" points="79.4469,-138.756 72.4355,-130.813 72.9633,-141.395 79.4469,-138.756"/>
<text text-anchor="middle" x="89.5" y="-154.3" font-family="Times,serif" font-size="14.00">a</text>
</g>
<!-- 3 -->
<g id="node4" class="node"><title>3</title>
<ellipse fill="lightblue" stroke="black" cx="109" cy="-22" rx="18" ry="18"/>
<text text-anchor="middle" x="109" y="-18.3" font-family="Times,serif" font-size="14.00">3</text>
</g>
<!-- 0&#45;&gt;3 -->
<g id="edge2" class="edge"><title>0&#45;&gt;3</title>
<path fill="none" stroke="black" d="M101.767,-183.933C103.159,-152.966 106.11,-87.2989 107.781,-50.1292"/>
<polygon fill="black" stroke="black" points="111.283,-50.1628 108.235,-40.0157 104.29,-49.8485 111.283,-50.1628"/>
<text text-anchor="middle" x="108.5" y="-110.3" font-family="Times,serif" font-size="14.00">b</text>
</g>
<!-- 2 -->
<g id="node3" class="node"><title>2</title>
<ellipse fill="green" stroke="black" cx="21" cy="-22" rx="17.5909" ry="18"/>
<ellipse fill="none" stroke="black" cx="21" cy="-22" rx="21.5" ry="22"/>
<text text-anchor="middle" x="21" y="-18.3" font-family="Times,serif" font-size="14.00">2</text>
</g>
<!-- 1&#45;&gt;2 -->
<g id="edge3" class="edge"><title>1&#45;&gt;2</title>
<path fill="none" stroke="black" d="M58.1616,-97.3232C51.7805,-84.561 42.6128,-66.2255 34.9799,-50.9598"/>
<polygon fill="black" stroke="black" points="38.067,-49.3077 30.4643,-41.9287 31.806,-52.4382 38.067,-49.3077"/>
<text text-anchor="middle" x="50.5" y="-66.3" font-family="Times,serif" font-size="14.00">b</text>
</g>
<!-- 1&#45;&gt;3 -->
<g id="edge4" class="edge"><title>1&#45;&gt;3</title>
<path fill="none" stroke="black" d="M73.49,-97.3232C80.0259,-83.6435 89.6212,-63.5602 97.1903,-47.718"/>
<polygon fill="black" stroke="black" points="100.443,-49.0291 101.596,-38.4972 94.1267,-46.0113 100.443,-49.0291"/>
<text text-anchor="middle" x="93.5" y="-66.3" font-family="Times,serif" font-size="14.00">a</text>
</g>
<!-- 2&#45;&gt;0 -->
<g id="edge5" class="edge"><title>2&#45;&gt;0</title>
<path fill="none" stroke="black" d="M16.3439,-43.7732C12.3098,-66.5503 8.95419,-103.631 22,-132 33.2458,-156.455 57.8423,-175.673 76.6232,-187.549"/>
<polygon fill="black" stroke="black" points="74.9215,-190.61 85.2917,-192.78 78.5381,-184.617 74.9215,-190.61"/>
<text text-anchor="middle" x="30.5" y="-110.3" font-family="Times,serif" font-size="14.00">b,a</text>
</g>
<!-- 3&#45;&gt;0 -->
<g id="edge6" class="edge"><title>3&#45;&gt;0</title>
<path fill="none" stroke="black" d="M114.618,-39.1064C116.76,-46.0559 118.94,-54.3345 120,-62 126.338,-107.82 126.327,-120.911 116,-166 115.209,-169.456 114.09,-172.999 112.817,-176.442"/>
<polygon fill="black" stroke="black" points="109.566,-175.146 108.961,-185.724 116.03,-177.832 109.566,-175.146"/>
<text text-anchor="middle" x="127.5" y="-110.3" font-family="Times,serif" font-size="14.00">a</text>
</g>
<!-- 3&#45;&gt;1 -->
<g id="edge7" class="edge"><title>3&#45;&gt;1</title>
<path fill="none" stroke="black" d="M95.0454,-33.7338C86.9001,-40.8235 77.2262,-50.8438 72,-62 68.6198,-69.2155 66.8685,-77.609 66.0207,-85.4785"/>
<polygon fill="black" stroke="black" points="62.5108,-85.5195 65.3566,-95.725 69.4962,-85.9724 62.5108,-85.5195"/>
<text text-anchor="middle" x="75.5" y="-66.3" font-family="Times,serif" font-size="14.00">b</text>
</g>
</g>
</svg>
