<?xml version="1.0" encoding="UTF-8" standalone="no"?>
<!DOCTYPE svg PUBLIC "-//W3C//DTD SVG 1.1//EN"
 "http://www.w3.org/Graphics/SVG/1.1/DTD/svg11.dtd">
<!-- Generated by graphviz version 2.36.0 (20140111.2315)
 -->
<!-- Title: %3 Pages: 1 -->
<svg width="165pt" height="404pt"
 viewBox="0.00 0.00 165.00 404.00" xmlns="http://www.w3.org/2000/svg" xmlns:xlink="http://www.w3.org/1999/xlink">
<g id="graph0" class="graph" transform="scale(1 1) rotate(0) translate(4 400)">
<title>%3</title>
<polygon fill="white" stroke="none" points="-4,4 -4,-400 161,-400 161,4 -4,4"/>
<!-- 0 -->
<g id="node1" class="node"><title>0</title>
<ellipse fill="lightblue" stroke="black" cx="79" cy="-290" rx="18" ry="18"/>
<text text-anchor="middle" x="79" y="-286.3" font-family="Times,serif" font-size="14.00">0</text>
</g>
<!-- 2 -->
<g id="node3" class="node"><title>2</title>
<ellipse fill="lightblue" stroke="black" cx="114" cy="-18" rx="18" ry="18"/>
<text text-anchor="middle" x="114" y="-14.3" font-family="Times,serif" font-size="14.00">2</text>
</g>
<!-- 0&#45;&gt;2 -->
<g id="edge1" class="edge"><title>0&#45;&gt;2</title>
<path fill="none" stroke="black" d="M95.4554,-282.212C106.874,-276.525 121.207,-267.2 128,-254 168.674,-174.963 144.81,-141.285 128,-54 127.369,-50.7225 126.433,-47.3619 125.34,-44.0812"/>
<polygon fill="black" stroke="black" points="128.572,-42.7341 121.733,-34.6425 122.034,-45.233 128.572,-42.7341"/>
<text text-anchor="middle" x="152.5" y="-146.3" font-family="Times,serif" font-size="14.00">b</text>
</g>
<!-- 3 -->
<g id="node4" class="node"><title>3</title>
<ellipse fill="green" stroke="black" cx="21" cy="-198" rx="17.5909" ry="18"/>
<ellipse fill="none" stroke="black" cx="21" cy="-198" rx="21.5" ry="22"/>
<text text-anchor="middle" x="21" y="-194.3" font-family="Times,serif" font-size="14.00">3</text>
</g>
<!-- 0&#45;&gt;3 -->
<g id="edge2" class="edge"><title>0&#45;&gt;3</title>
<path fill="none" stroke="black" d="M69.6813,-274.54C61.1434,-261.292 48.2963,-241.356 37.9433,-225.291"/>
<polygon fill="black" stroke="black" points="40.8505,-223.341 32.4914,-216.832 34.9665,-227.133 40.8505,-223.341"/>
<text text-anchor="middle" x="58.5" y="-242.3" font-family="Times,serif" font-size="14.00">a</text>
</g>
<!-- 1 -->
<g id="node2" class="node"><title>1</title>
<ellipse fill="lightblue" stroke="black" cx="44" cy="-378" rx="18" ry="18"/>
<text text-anchor="middle" x="44" y="-374.3" font-family="Times,serif" font-size="14.00">1</text>
</g>
<!-- 1&#45;&gt;0 -->
<g id="edge3" class="edge"><title>1&#45;&gt;0</title>
<path fill="none" stroke="black" d="M50.5832,-360.824C55.6996,-348.252 62.8887,-330.588 68.7557,-316.172"/>
<polygon fill="black" stroke="black" points="72.0367,-317.395 72.5645,-306.813 65.5531,-314.756 72.0367,-317.395"/>
<text text-anchor="middle" x="67.5" y="-330.3" font-family="Times,serif" font-size="14.00">b</text>
</g>
<!-- 1&#45;&gt;3 -->
<g id="edge4" class="edge"><title>1&#45;&gt;3</title>
<path fill="none" stroke="black" d="M41.7947,-359.933C37.9304,-330.026 29.884,-267.755 25.0114,-230.044"/>
<polygon fill="black" stroke="black" points="28.48,-229.576 23.7273,-220.107 21.5377,-230.473 28.48,-229.576"/>
<text text-anchor="middle" x="37.5" y="-286.3" font-family="Times,serif" font-size="14.00">a</text>
</g>
<!-- 2&#45;&gt;0 -->
<g id="edge5" class="edge"><title>2&#45;&gt;0</title>
<path fill="none" stroke="black" d="M113.433,-36.2831C111.888,-75.4208 106.548,-173.665 90,-254 89.3976,-256.924 88.6471,-259.951 87.8228,-262.945"/>
<polygon fill="black" stroke="black" points="84.3873,-262.214 84.8444,-272.799 91.088,-264.239 84.3873,-262.214"/>
<text text-anchor="middle" x="109.5" y="-146.3" font-family="Times,serif" font-size="14.00">b</text>
</g>
<!-- 2&#45;&gt;2 -->
<g id="edge6" class="edge"><title>2&#45;&gt;2</title>
<path fill="none" stroke="black" d="M130.29,-25.6679C140.389,-27.5169 150,-24.9609 150,-18 150,-13.5406 146.056,-10.8891 140.566,-10.0454"/>
<polygon fill="black" stroke="black" points="140.189,-6.55441 130.29,-10.3321 140.384,-13.5517 140.189,-6.55441"/>
<text text-anchor="middle" x="153.5" y="-14.3" font-family="Times,serif" font-size="14.00">a</text>
</g>
<!-- 4 -->
<g id="node5" class="node"><title>4</title>
<ellipse fill="lightblue" stroke="black" cx="68" cy="-106" rx="18" ry="18"/>
<text text-anchor="middle" x="68" y="-102.3" font-family="Times,serif" font-size="14.00">4</text>
</g>
<!-- 3&#45;&gt;4 -->
<g id="edge7" class="edge"><title>3&#45;&gt;4</title>
<path fill="none" stroke="black" d="M30.0795,-177.761C35.1855,-167.134 41.7688,-153.746 48,-142 49.9371,-138.349 52.0449,-134.519 54.1416,-130.788"/>
<polygon fill="black" stroke="black" points="57.312,-132.294 59.227,-121.873 51.2318,-128.825 57.312,-132.294"/>
<text text-anchor="middle" x="56.5" y="-146.3" font-family="Times,serif" font-size="14.00">b,a</text>
</g>
<!-- 4&#45;&gt;0 -->
<g id="edge8" class="edge"><title>4&#45;&gt;0</title>
<path fill="none" stroke="black" d="M69.0401,-124.209C70.9523,-155.847 75.0403,-223.486 77.3402,-261.537"/>
<polygon fill="black" stroke="black" points="73.8681,-262.107 77.9651,-271.878 80.8554,-261.685 73.8681,-262.107"/>
<text text-anchor="middle" x="77.5" y="-194.3" font-family="Times,serif" font-size="14.00">a</text>
</g>
<!-- 4&#45;&gt;2 -->
<g id="edge9" class="edge"><title>4&#45;&gt;2</title>
<path fill="none" stroke="black" d="M75.3206,-89.2005C80.1335,-79.0371 86.6872,-65.6079 93,-54 95.0567,-50.2182 97.3198,-46.2603 99.5756,-42.4228"/>
<polygon fill="black" stroke="black" points="102.589,-44.2041 104.725,-33.8269 96.5836,-40.6066 102.589,-44.2041"/>
<text text-anchor="middle" x="96.5" y="-58.3" font-family="Times,serif" font-size="14.00">b</text>
</g>
</g>
</svg>
