<?xml version="1.0" encoding="UTF-8" standalone="no"?>
<!DOCTYPE svg PUBLIC "-//W3C//DTD SVG 1.1//EN"
 "http://www.w3.org/Graphics/SVG/1.1/DTD/svg11.dtd">
<!-- Generated by graphviz version 2.36.0 (20140111.2315)
 -->
<!-- Title: %3 Pages: 1 -->
<svg width="174pt" height="228pt"
 viewBox="0.00 0.00 174.00 228.00" xmlns="http://www.w3.org/2000/svg" xmlns:xlink="http://www.w3.org/1999/xlink">
<g id="graph0" class="graph" transform="scale(1 1) rotate(0) translate(4 224)">
<title>%3</title>
<polygon fill="white" stroke="none" points="-4,4 -4,-224 170,-224 170,4 -4,4"/>
<!-- 0 -->
<g id="node1" class="node"><title>0</title>
<ellipse fill="lightblue" stroke="black" cx="23" cy="-202" rx="18" ry="18"/>
<text text-anchor="middle" x="23" y="-198.3" font-family="Times,serif" font-size="14.00">0</text>
</g>
<!-- 0&#45;&gt;0 -->
<g id="edge1" class="edge"><title>0&#45;&gt;0</title>
<path fill="none" stroke="black" d="M39.2903,-209.668C49.3892,-211.517 59,-208.961 59,-202 59,-197.541 55.0557,-194.889 49.5656,-194.045"/>
<polygon fill="black" stroke="black" points="49.1887,-190.554 39.2903,-194.332 49.384,-197.552 49.1887,-190.554"/>
<text text-anchor="middle" x="62.5" y="-198.3" font-family="Times,serif" font-size="14.00">a</text>
</g>
<!-- 2 -->
<g id="node3" class="node"><title>2</title>
<ellipse fill="lightblue" stroke="black" cx="18" cy="-114" rx="18" ry="18"/>
<text text-anchor="middle" x="18" y="-110.3" font-family="Times,serif" font-size="14.00">2</text>
</g>
<!-- 0&#45;&gt;2 -->
<g id="edge2" class="edge"><title>0&#45;&gt;2</title>
<path fill="none" stroke="black" d="M17.362,-184.821C15.5941,-178.968 13.8765,-172.258 13,-166 11.9141,-158.247 12.1656,-149.797 12.9633,-142.047"/>
<polygon fill="black" stroke="black" points="16.4445,-142.42 14.3154,-132.042 9.50759,-141.483 16.4445,-142.42"/>
<text text-anchor="middle" x="16.5" y="-154.3" font-family="Times,serif" font-size="14.00">b</text>
</g>
<!-- 1 -->
<g id="node2" class="node"><title>1</title>
<ellipse fill="lightblue" stroke="black" cx="114" cy="-202" rx="18" ry="18"/>
<text text-anchor="middle" x="114" y="-198.3" font-family="Times,serif" font-size="14.00">1</text>
</g>
<!-- 1&#45;&gt;1 -->
<g id="edge3" class="edge"><title>1&#45;&gt;1</title>
<path fill="none" stroke="black" d="M130.29,-209.668C140.389,-211.517 150,-208.961 150,-202 150,-197.541 146.056,-194.889 140.566,-194.045"/>
<polygon fill="black" stroke="black" points="140.189,-190.554 130.29,-194.332 140.384,-197.552 140.189,-190.554"/>
<text text-anchor="middle" x="153.5" y="-198.3" font-family="Times,serif" font-size="14.00">a</text>
</g>
<!-- 3 -->
<g id="node4" class="node"><title>3</title>
<ellipse fill="green" stroke="black" cx="84" cy="-114" rx="18" ry="18"/>
<text text-anchor="middle" x="84" y="-110.3" font-family="Times,serif" font-size="14.00">3</text>
</g>
<!-- 1&#45;&gt;3 -->
<g id="edge4" class="edge"><title>1&#45;&gt;3</title>
<path fill="none" stroke="black" d="M101.687,-188.848C96.1568,-182.581 90.1724,-174.482 87,-166 84.223,-158.575 83.0193,-150.119 82.6289,-142.256"/>
<polygon fill="black" stroke="black" points="86.1269,-142.019 82.5293,-132.054 79.1272,-142.088 86.1269,-142.019"/>
<text text-anchor="middle" x="90.5" y="-154.3" font-family="Times,serif" font-size="14.00">b</text>
</g>
<!-- 2&#45;&gt;0 -->
<g id="edge5" class="edge"><title>2&#45;&gt;0</title>
<path fill="none" stroke="black" d="M19.0029,-132.25C19.6936,-144.13 20.6257,-160.162 21.416,-173.756"/>
<polygon fill="black" stroke="black" points="17.9376,-174.229 22.0122,-184.009 24.9258,-173.823 17.9376,-174.229"/>
<text text-anchor="middle" x="29.5" y="-154.3" font-family="Times,serif" font-size="14.00">b,a</text>
</g>
<!-- 3&#45;&gt;1 -->
<g id="edge6" class="edge"><title>3&#45;&gt;1</title>
<path fill="none" stroke="black" d="M89.6175,-131.103C93.9267,-143.457 99.9622,-160.758 104.95,-175.057"/>
<polygon fill="black" stroke="black" points="101.759,-176.535 108.357,-184.824 108.368,-174.229 101.759,-176.535"/>
<text text-anchor="middle" x="104.5" y="-154.3" font-family="Times,serif" font-size="14.00">a</text>
</g>
<!-- 4 -->
<g id="node5" class="node"><title>4</title>
<ellipse fill="lightblue" stroke="black" cx="119" cy="-22" rx="17.5909" ry="18"/>
<ellipse fill="none" stroke="black" cx="119" cy="-22" rx="21.5" ry="22"/>
<text text-anchor="middle" x="119" y="-18.3" font-family="Times,serif" font-size="14.00">4</text>
</g>
<!-- 3&#45;&gt;4 -->
<g id="edge7" class="edge"><title>3&#45;&gt;4</title>
<path fill="none" stroke="black" d="M90.2573,-96.9098C95.0501,-84.5856 101.794,-67.2444 107.545,-52.4565"/>
<polygon fill="black" stroke="black" points="110.969,-53.3082 111.331,-42.7196 104.445,-50.7711 110.969,-53.3082"/>
<text text-anchor="middle" x="106.5" y="-66.3" font-family="Times,serif" font-size="14.00">b</text>
</g>
<!-- 4&#45;&gt;1 -->
<g id="edge8" class="edge"><title>4&#45;&gt;1</title>
<path fill="none" stroke="black" d="M118.407,-44.1069C117.5,-76.4168 115.766,-138.132 114.765,-173.771"/>
<polygon fill="black" stroke="black" points="111.262,-173.838 114.479,-183.933 118.259,-174.035 111.262,-173.838"/>
<text text-anchor="middle" x="119.5" y="-110.3" font-family="Times,serif" font-size="14.00">b</text>
</g>
<!-- 4&#45;&gt;4 -->
<g id="edge9" class="edge"><title>4&#45;&gt;4</title>
<path fill="none" stroke="black" d="M139.066,-30.7341C149.074,-31.9426 158,-29.0312 158,-22 158,-17.4956 154.337,-14.682 149.072,-13.5592"/>
<polygon fill="black" stroke="black" points="149.165,-10.0605 139.066,-13.2659 148.959,-17.0575 149.165,-10.0605"/>
<text text-anchor="middle" x="161.5" y="-18.3" font-family="Times,serif" font-size="14.00">a</text>
</g>
</g>
</svg>
