<?xml version="1.0" encoding="UTF-8" standalone="no"?>
<!DOCTYPE svg PUBLIC "-//W3C//DTD SVG 1.1//EN"
 "http://www.w3.org/Graphics/SVG/1.1/DTD/svg11.dtd">
<!-- Generated by graphviz version 2.36.0 (20140111.2315)
 -->
<!-- Title: %3 Pages: 1 -->
<svg width="141pt" height="316pt"
 viewBox="0.00 0.00 141.44 316.00" xmlns="http://www.w3.org/2000/svg" xmlns:xlink="http://www.w3.org/1999/xlink">
<g id="graph0" class="graph" transform="scale(1 1) rotate(0) translate(4 312)">
<title>%3</title>
<polygon fill="white" stroke="none" points="-4,4 -4,-312 137.441,-312 137.441,4 -4,4"/>
<!-- 0 -->
<g id="node1" class="node"><title>0</title>
<ellipse fill="lightblue" stroke="black" cx="86.4405" cy="-286" rx="17.5909" ry="18"/>
<ellipse fill="none" stroke="black" cx="86.4405" cy="-286" rx="21.5" ry="22"/>
<text text-anchor="middle" x="86.4405" y="-282.3" font-family="Times,serif" font-size="14.00">0</text>
</g>
<!-- 0&#45;&gt;0 -->
<g id="edge1" class="edge"><title>0&#45;&gt;0</title>
<path fill="none" stroke="black" d="M106.507,-294.734C116.514,-295.943 125.441,-293.031 125.441,-286 125.441,-281.496 121.777,-278.682 116.513,-277.559"/>
<polygon fill="black" stroke="black" points="116.605,-274.061 106.507,-277.266 116.4,-281.057 116.605,-274.061"/>
<text text-anchor="middle" x="128.941" y="-282.3" font-family="Times,serif" font-size="14.00">a</text>
</g>
<!-- 1 -->
<g id="node2" class="node"><title>1</title>
<ellipse fill="lightblue" stroke="black" cx="31.4405" cy="-194" rx="18" ry="18"/>
<text text-anchor="middle" x="31.4405" y="-190.3" font-family="Times,serif" font-size="14.00">1</text>
</g>
<!-- 0&#45;&gt;1 -->
<g id="edge2" class="edge"><title>0&#45;&gt;1</title>
<path fill="none" stroke="black" d="M75.3105,-266.787C66.8364,-252.921 55.1018,-233.718 45.9011,-218.663"/>
<polygon fill="black" stroke="black" points="48.7526,-216.617 40.5516,-209.909 42.7797,-220.267 48.7526,-216.617"/>
<text text-anchor="middle" x="65.9405" y="-234.3" font-family="Times,serif" font-size="14.00">b</text>
</g>
<!-- 2 -->
<g id="node3" class="node"><title>2</title>
<ellipse fill="lightblue" stroke="black" cx="74.4405" cy="-106" rx="18" ry="18"/>
<text text-anchor="middle" x="74.4405" y="-102.3" font-family="Times,serif" font-size="14.00">2</text>
</g>
<!-- 1&#45;&gt;2 -->
<g id="edge3" class="edge"><title>1&#45;&gt;2</title>
<path fill="none" stroke="black" d="M39.1281,-177.625C45.5089,-164.863 54.7045,-146.472 62.1123,-131.656"/>
<polygon fill="black" stroke="black" points="65.3329,-133.041 66.6746,-122.532 59.0719,-129.911 65.3329,-133.041"/>
<text text-anchor="middle" x="60.9405" y="-146.3" font-family="Times,serif" font-size="14.00">b</text>
</g>
<!-- 3 -->
<g id="node4" class="node"><title>3</title>
<ellipse fill="green" stroke="black" cx="50.4405" cy="-18" rx="18" ry="18"/>
<text text-anchor="middle" x="50.4405" y="-14.3" font-family="Times,serif" font-size="14.00">3</text>
</g>
<!-- 1&#45;&gt;3 -->
<g id="edge4" class="edge"><title>1&#45;&gt;3</title>
<path fill="none" stroke="black" d="M23.0427,-177.944C15.9608,-164.329 6.3696,-143.489 2.44055,-124 -0.721491,-108.316 -0.859529,-103.656 2.44055,-88 5.84713,-71.8388 8.30999,-67.7631 17.4405,-54 21.1369,-48.4283 25.7489,-42.9183 30.3423,-37.9764"/>
<polygon fill="black" stroke="black" points="32.9197,-40.3467 37.4109,-30.7509 27.916,-35.4516 32.9197,-40.3467"/>
<text text-anchor="middle" x="5.94055" y="-102.3" font-family="Times,serif" font-size="14.00">a</text>
</g>
<!-- 2&#45;&gt;0 -->
<g id="edge5" class="edge"><title>2&#45;&gt;0</title>
<path fill="none" stroke="black" d="M75.5943,-124.114C77.6029,-153.909 81.7704,-215.727 84.3146,-253.464"/>
<polygon fill="black" stroke="black" points="80.8521,-254.14 85.0169,-263.882 87.8362,-253.669 80.8521,-254.14"/>
<text text-anchor="middle" x="83.9405" y="-190.3" font-family="Times,serif" font-size="14.00">a</text>
</g>
<!-- 2&#45;&gt;3 -->
<g id="edge6" class="edge"><title>2&#45;&gt;3</title>
<path fill="none" stroke="black" d="M69.8131,-88.4183C66.3933,-76.164 61.6692,-59.2361 57.7423,-45.1645"/>
<polygon fill="black" stroke="black" points="61.113,-44.2219 55.0538,-35.5308 54.3707,-46.1035 61.113,-44.2219"/>
<text text-anchor="middle" x="67.9405" y="-58.3" font-family="Times,serif" font-size="14.00">b</text>
</g>
<!-- 3&#45;&gt;0 -->
<g id="edge7" class="edge"><title>3&#45;&gt;0</title>
<path fill="none" stroke="black" d="M63.431,-31.282C75.9253,-44.0691 93.9827,-65.3629 101.441,-88 120.16,-144.82 106.41,-215.66 95.7439,-255.041"/>
<polygon fill="black" stroke="black" points="92.3339,-254.237 92.9838,-264.812 99.0704,-256.14 92.3339,-254.237"/>
<text text-anchor="middle" x="113.941" y="-146.3" font-family="Times,serif" font-size="14.00">a</text>
</g>
<!-- 3&#45;&gt;1 -->
<g id="edge8" class="edge"><title>3&#45;&gt;1</title>
<path fill="none" stroke="black" d="M47.6978,-35.9776C45.513,-49.9223 42.4911,-70.2034 40.4405,-88 37.4088,-114.312 34.9279,-144.443 33.3443,-165.659"/>
<polygon fill="black" stroke="black" points="29.8361,-165.646 32.5998,-175.874 36.8176,-166.155 29.8361,-165.646"/>
<text text-anchor="middle" x="43.9405" y="-102.3" font-family="Times,serif" font-size="14.00">b</text>
</g>
</g>
</svg>
