<?xml version="1.0" encoding="UTF-8" standalone="no"?>
<!DOCTYPE svg PUBLIC "-//W3C//DTD SVG 1.1//EN"
 "http://www.w3.org/Graphics/SVG/1.1/DTD/svg11.dtd">
<!-- Generated by graphviz version 2.36.0 (20140111.2315)
 -->
<!-- Title: %3 Pages: 1 -->
<svg width="152pt" height="316pt"
 viewBox="0.00 0.00 152.00 316.00" xmlns="http://www.w3.org/2000/svg" xmlns:xlink="http://www.w3.org/1999/xlink">
<g id="graph0" class="graph" transform="scale(1 1) rotate(0) translate(4 312)">
<title>%3</title>
<polygon fill="white" stroke="none" points="-4,4 -4,-312 148,-312 148,4 -4,4"/>
<!-- 0 -->
<g id="node1" class="node"><title>0</title>
<ellipse fill="green" stroke="black" cx="18" cy="-106" rx="18" ry="18"/>
<text text-anchor="middle" x="18" y="-102.3" font-family="Times,serif" font-size="14.00">0</text>
</g>
<!-- 0&#45;&gt;0 -->
<g id="edge1" class="edge"><title>0&#45;&gt;0</title>
<path fill="none" stroke="black" d="M34.2903,-113.668C44.3892,-115.517 54,-112.961 54,-106 54,-101.541 50.0557,-98.8891 44.5656,-98.0454"/>
<polygon fill="black" stroke="black" points="44.1887,-94.5544 34.2903,-98.3321 44.384,-101.552 44.1887,-94.5544"/>
<text text-anchor="middle" x="57.5" y="-102.3" font-family="Times,serif" font-size="14.00">b</text>
</g>
<!-- 3 -->
<g id="node4" class="node"><title>3</title>
<ellipse fill="lightblue" stroke="black" cx="48" cy="-18" rx="18" ry="18"/>
<text text-anchor="middle" x="48" y="-14.3" font-family="Times,serif" font-size="14.00">3</text>
</g>
<!-- 0&#45;&gt;3 -->
<g id="edge2" class="edge"><title>0&#45;&gt;3</title>
<path fill="none" stroke="black" d="M16.5293,-87.9462C16.2502,-77.7824 16.9607,-64.7996 21,-54 22.9332,-48.8314 25.9106,-43.805 29.193,-39.2487"/>
<polygon fill="black" stroke="black" points="32.1602,-41.1432 35.6868,-31.1524 26.6997,-36.7634 32.1602,-41.1432"/>
<text text-anchor="middle" x="24.5" y="-58.3" font-family="Times,serif" font-size="14.00">a</text>
</g>
<!-- 1 -->
<g id="node2" class="node"><title>1</title>
<ellipse fill="lightblue" stroke="black" cx="97" cy="-290" rx="18" ry="18"/>
<text text-anchor="middle" x="97" y="-286.3" font-family="Times,serif" font-size="14.00">1</text>
</g>
<!-- 1&#45;&gt;1 -->
<g id="edge3" class="edge"><title>1&#45;&gt;1</title>
<path fill="none" stroke="black" d="M113.29,-297.668C123.389,-299.517 133,-296.961 133,-290 133,-285.541 129.056,-282.889 123.566,-282.045"/>
<polygon fill="black" stroke="black" points="123.189,-278.554 113.29,-282.332 123.384,-285.552 123.189,-278.554"/>
<text text-anchor="middle" x="136.5" y="-286.3" font-family="Times,serif" font-size="14.00">b</text>
</g>
<!-- 4 -->
<g id="node5" class="node"><title>4</title>
<ellipse fill="lightblue" stroke="black" cx="97" cy="-198" rx="17.5909" ry="18"/>
<ellipse fill="none" stroke="black" cx="97" cy="-198" rx="21.5" ry="22"/>
<text text-anchor="middle" x="97" y="-194.3" font-family="Times,serif" font-size="14.00">4</text>
</g>
<!-- 1&#45;&gt;4 -->
<g id="edge4" class="edge"><title>1&#45;&gt;4</title>
<path fill="none" stroke="black" d="M97,-271.647C97,-259.924 97,-244.114 97,-230.237"/>
<polygon fill="black" stroke="black" points="100.5,-230.101 97,-220.101 93.5001,-230.101 100.5,-230.101"/>
<text text-anchor="middle" x="100.5" y="-242.3" font-family="Times,serif" font-size="14.00">a</text>
</g>
<!-- 2 -->
<g id="node3" class="node"><title>2</title>
<ellipse fill="lightblue" stroke="black" cx="97" cy="-106" rx="18" ry="18"/>
<text text-anchor="middle" x="97" y="-102.3" font-family="Times,serif" font-size="14.00">2</text>
</g>
<!-- 2&#45;&gt;2 -->
<g id="edge5" class="edge"><title>2&#45;&gt;2</title>
<path fill="none" stroke="black" d="M113.29,-113.668C123.389,-115.517 133,-112.961 133,-106 133,-101.541 129.056,-98.8891 123.566,-98.0454"/>
<polygon fill="black" stroke="black" points="123.189,-94.5544 113.29,-98.3321 123.384,-101.552 123.189,-94.5544"/>
<text text-anchor="middle" x="136.5" y="-102.3" font-family="Times,serif" font-size="14.00">b</text>
</g>
<!-- 2&#45;&gt;3 -->
<g id="edge6" class="edge"><title>2&#45;&gt;3</title>
<path fill="none" stroke="black" d="M88.4649,-90.0199C81.0624,-77.0279 70.216,-57.9914 61.6156,-42.8968"/>
<polygon fill="black" stroke="black" points="64.5933,-41.0529 56.6017,-34.0969 58.5113,-44.5183 64.5933,-41.0529"/>
<text text-anchor="middle" x="80.5" y="-58.3" font-family="Times,serif" font-size="14.00">a</text>
</g>
<!-- 3&#45;&gt;0 -->
<g id="edge7" class="edge"><title>3&#45;&gt;0</title>
<path fill="none" stroke="black" d="M42.3825,-35.1034C38.0733,-47.4565 32.0378,-64.7582 27.0499,-79.0569"/>
<polygon fill="black" stroke="black" points="23.6319,-78.2292 23.6428,-88.8241 30.2413,-80.5349 23.6319,-78.2292"/>
<text text-anchor="middle" x="39.5" y="-58.3" font-family="Times,serif" font-size="14.00">a</text>
</g>
<!-- 3&#45;&gt;3 -->
<g id="edge8" class="edge"><title>3&#45;&gt;3</title>
<path fill="none" stroke="black" d="M64.2903,-25.6679C74.3892,-27.5169 84,-24.9609 84,-18 84,-13.5406 80.0557,-10.8891 74.5656,-10.0454"/>
<polygon fill="black" stroke="black" points="74.1887,-6.55441 64.2903,-10.3321 74.384,-13.5517 74.1887,-6.55441"/>
<text text-anchor="middle" x="87.5" y="-14.3" font-family="Times,serif" font-size="14.00">b</text>
</g>
<!-- 4&#45;&gt;2 -->
<g id="edge9" class="edge"><title>4&#45;&gt;2</title>
<path fill="none" stroke="black" d="M97,-175.671C97,-163.284 97,-147.552 97,-134.272"/>
<polygon fill="black" stroke="black" points="100.5,-134.258 97,-124.258 93.5001,-134.258 100.5,-134.258"/>
<text text-anchor="middle" x="100.5" y="-146.3" font-family="Times,serif" font-size="14.00">b</text>
</g>
<!-- 4&#45;&gt;4 -->
<g id="edge10" class="edge"><title>4&#45;&gt;4</title>
<path fill="none" stroke="black" d="M117.066,-206.734C127.074,-207.943 136,-205.031 136,-198 136,-193.496 132.337,-190.682 127.072,-189.559"/>
<polygon fill="black" stroke="black" points="127.165,-186.061 117.066,-189.266 126.959,-193.057 127.165,-186.061"/>
<text text-anchor="middle" x="139.5" y="-194.3" font-family="Times,serif" font-size="14.00">a</text>
</g>
</g>
</svg>
