<?xml version="1.0" encoding="UTF-8" standalone="no"?>
<!DOCTYPE svg PUBLIC "-//W3C//DTD SVG 1.1//EN"
 "http://www.w3.org/Graphics/SVG/1.1/DTD/svg11.dtd">
<!-- Generated by graphviz version 2.36.0 (20140111.2315)
 -->
<!-- Title: %3 Pages: 1 -->
<svg width="125pt" height="316pt"
 viewBox="0.00 0.00 125.00 316.00" xmlns="http://www.w3.org/2000/svg" xmlns:xlink="http://www.w3.org/1999/xlink">
<g id="graph0" class="graph" transform="scale(1 1) rotate(0) translate(4 312)">
<title>%3</title>
<polygon fill="white" stroke="none" points="-4,4 -4,-312 121,-312 121,4 -4,4"/>
<!-- 0 -->
<g id="node1" class="node"><title>0</title>
<ellipse fill="lightblue" stroke="black" cx="39" cy="-18" rx="18" ry="18"/>
<text text-anchor="middle" x="39" y="-14.3" font-family="Times,serif" font-size="14.00">0</text>
</g>
<!-- 0&#45;&gt;0 -->
<g id="edge1" class="edge"><title>0&#45;&gt;0</title>
<path fill="none" stroke="black" d="M55.2903,-25.6679C65.3892,-27.5169 75,-24.9609 75,-18 75,-13.5406 71.0557,-10.8891 65.5656,-10.0454"/>
<polygon fill="black" stroke="black" points="65.1887,-6.55441 55.2903,-10.3321 65.384,-13.5517 65.1887,-6.55441"/>
<text text-anchor="middle" x="83.5" y="-14.3" font-family="Times,serif" font-size="14.00">b,a</text>
</g>
<!-- 1 -->
<g id="node2" class="node"><title>1</title>
<ellipse fill="lightblue" stroke="black" cx="18" cy="-286" rx="18" ry="18"/>
<text text-anchor="middle" x="18" y="-282.3" font-family="Times,serif" font-size="14.00">1</text>
</g>
<!-- 1&#45;&gt;0 -->
<g id="edge2" class="edge"><title>1&#45;&gt;0</title>
<path fill="none" stroke="black" d="M15.0749,-268.207C9.63669,-233.959 -0.403264,-153.735 12,-88 14.889,-72.6891 21.0885,-56.42 26.8191,-43.527"/>
<polygon fill="black" stroke="black" points="30.0206,-44.9425 31.0474,-34.3976 23.6688,-42.0007 30.0206,-44.9425"/>
<text text-anchor="middle" x="10.5" y="-146.3" font-family="Times,serif" font-size="14.00">b</text>
</g>
<!-- 2 -->
<g id="node3" class="node"><title>2</title>
<ellipse fill="lightblue" stroke="black" cx="61" cy="-194" rx="18" ry="18"/>
<text text-anchor="middle" x="61" y="-190.3" font-family="Times,serif" font-size="14.00">2</text>
</g>
<!-- 1&#45;&gt;2 -->
<g id="edge3" class="edge"><title>1&#45;&gt;2</title>
<path fill="none" stroke="black" d="M25.49,-269.323C32.0259,-255.643 41.6212,-235.56 49.1903,-219.718"/>
<polygon fill="black" stroke="black" points="52.4428,-221.029 53.5958,-210.497 46.1267,-218.011 52.4428,-221.029"/>
<text text-anchor="middle" x="46.5" y="-234.3" font-family="Times,serif" font-size="14.00">a</text>
</g>
<!-- 3 -->
<g id="node4" class="node"><title>3</title>
<ellipse fill="green" stroke="black" cx="39" cy="-106" rx="18" ry="18"/>
<text text-anchor="middle" x="39" y="-102.3" font-family="Times,serif" font-size="14.00">3</text>
</g>
<!-- 2&#45;&gt;3 -->
<g id="edge4" class="edge"><title>2&#45;&gt;3</title>
<path fill="none" stroke="black" d="M56.7582,-176.418C53.6538,-164.283 49.3769,-147.564 45.7983,-133.575"/>
<polygon fill="black" stroke="black" points="49.098,-132.351 43.2288,-123.531 42.3164,-134.086 49.098,-132.351"/>
<text text-anchor="middle" x="59.5" y="-146.3" font-family="Times,serif" font-size="14.00">b,a</text>
</g>
<!-- 3&#45;&gt;0 -->
<g id="edge5" class="edge"><title>3&#45;&gt;0</title>
<path fill="none" stroke="black" d="M39,-87.5966C39,-75.7459 39,-59.8169 39,-46.2917"/>
<polygon fill="black" stroke="black" points="42.5001,-46.084 39,-36.084 35.5001,-46.084 42.5001,-46.084"/>
<text text-anchor="middle" x="42.5" y="-58.3" font-family="Times,serif" font-size="14.00">a</text>
</g>
<!-- 3&#45;&gt;1 -->
<g id="edge6" class="edge"><title>3&#45;&gt;1</title>
<path fill="none" stroke="black" d="M35.6145,-123.949C32.9382,-137.878 29.2844,-158.15 27,-176 23.4371,-203.84 20.9882,-235.869 19.5546,-257.969"/>
<polygon fill="black" stroke="black" points="16.0609,-257.76 18.932,-267.958 23.0474,-258.195 16.0609,-257.76"/>
<text text-anchor="middle" x="30.5" y="-190.3" font-family="Times,serif" font-size="14.00">b</text>
</g>
<!-- 4 -->
<g id="node5" class="node"><title>4</title>
<ellipse fill="lightblue" stroke="black" cx="95" cy="-286" rx="17.5909" ry="18"/>
<ellipse fill="none" stroke="black" cx="95" cy="-286" rx="21.5" ry="22"/>
<text text-anchor="middle" x="95" y="-282.3" font-family="Times,serif" font-size="14.00">4</text>
</g>
<!-- 4&#45;&gt;0 -->
<g id="edge7" class="edge"><title>4&#45;&gt;0</title>
<path fill="none" stroke="black" d="M94.7745,-263.981C94.276,-241.94 92.729,-206.353 88,-176 81.7939,-136.166 78.2593,-126.406 66,-88 61.3084,-73.3023 55.0864,-57.2312 49.7979,-44.2997"/>
<polygon fill="black" stroke="black" points="52.8733,-42.5794 45.8038,-34.6881 46.4092,-45.2657 52.8733,-42.5794"/>
<text text-anchor="middle" x="87.5" y="-146.3" font-family="Times,serif" font-size="14.00">b</text>
</g>
<!-- 4&#45;&gt;2 -->
<g id="edge8" class="edge"><title>4&#45;&gt;2</title>
<path fill="none" stroke="black" d="M87.4543,-265.026C82.5111,-251.941 76.0041,-234.717 70.6806,-220.625"/>
<polygon fill="black" stroke="black" points="73.861,-219.14 67.0528,-211.022 67.3127,-221.614 73.861,-219.14"/>
<text text-anchor="middle" x="83.5" y="-234.3" font-family="Times,serif" font-size="14.00">a</text>
</g>
</g>
</svg>
