<?xml version="1.0" encoding="UTF-8" standalone="no"?>
<!DOCTYPE svg PUBLIC "-//W3C//DTD SVG 1.1//EN"
 "http://www.w3.org/Graphics/SVG/1.1/DTD/svg11.dtd">
<!-- Generated by graphviz version 2.36.0 (20140111.2315)
 -->
<!-- Title: %3 Pages: 1 -->
<svg width="113pt" height="316pt"
 viewBox="0.00 0.00 112.68 316.00" xmlns="http://www.w3.org/2000/svg" xmlns:xlink="http://www.w3.org/1999/xlink">
<g id="graph0" class="graph" transform="scale(1 1) rotate(0) translate(4 312)">
<title>%3</title>
<polygon fill="white" stroke="none" points="-4,4 -4,-312 108.68,-312 108.68,4 -4,4"/>
<!-- 0 -->
<g id="node1" class="node"><title>0</title>
<ellipse fill="green" stroke="black" cx="36.6803" cy="-286" rx="17.5909" ry="18"/>
<ellipse fill="none" stroke="black" cx="36.6803" cy="-286" rx="21.5" ry="22"/>
<text text-anchor="middle" x="36.6803" y="-282.3" font-family="Times,serif" font-size="14.00">0</text>
</g>
<!-- 1 -->
<g id="node2" class="node"><title>1</title>
<ellipse fill="lightblue" stroke="black" cx="36.6803" cy="-106" rx="18" ry="18"/>
<text text-anchor="middle" x="36.6803" y="-102.3" font-family="Times,serif" font-size="14.00">1</text>
</g>
<!-- 0&#45;&gt;1 -->
<g id="edge1" class="edge"><title>0&#45;&gt;1</title>
<path fill="none" stroke="black" d="M25.5192,-266.892C17.3891,-252.584 7.06345,-231.793 2.68025,-212 -0.779226,-196.378 -0.950513,-191.583 2.68025,-176 6.46002,-159.778 14.6275,-142.984 22.0099,-130.026"/>
<polygon fill="black" stroke="black" points="25.0763,-131.717 27.1728,-121.332 19.0575,-128.143 25.0763,-131.717"/>
<text text-anchor="middle" x="6.18025" y="-190.3" font-family="Times,serif" font-size="14.00">b</text>
</g>
<!-- 2 -->
<g id="node3" class="node"><title>2</title>
<ellipse fill="lightblue" stroke="black" cx="36.6803" cy="-194" rx="18" ry="18"/>
<text text-anchor="middle" x="36.6803" y="-190.3" font-family="Times,serif" font-size="14.00">2</text>
</g>
<!-- 0&#45;&gt;2 -->
<g id="edge2" class="edge"><title>0&#45;&gt;2</title>
<path fill="none" stroke="black" d="M36.6803,-263.671C36.6803,-251.284 36.6803,-235.552 36.6803,-222.272"/>
<polygon fill="black" stroke="black" points="40.1804,-222.258 36.6803,-212.258 33.1804,-222.258 40.1804,-222.258"/>
<text text-anchor="middle" x="40.1803" y="-234.3" font-family="Times,serif" font-size="14.00">a</text>
</g>
<!-- 1&#45;&gt;1 -->
<g id="edge3" class="edge"><title>1&#45;&gt;1</title>
<path fill="none" stroke="black" d="M52.9705,-113.668C63.0694,-115.517 72.6803,-112.961 72.6803,-106 72.6803,-101.541 68.736,-98.8891 63.2459,-98.0454"/>
<polygon fill="black" stroke="black" points="62.869,-94.5544 52.9705,-98.3321 63.0643,-101.552 62.869,-94.5544"/>
<text text-anchor="middle" x="76.1803" y="-102.3" font-family="Times,serif" font-size="14.00">a</text>
</g>
<!-- 3 -->
<g id="node4" class="node"><title>3</title>
<ellipse fill="lightblue" stroke="black" cx="66.6803" cy="-18" rx="18" ry="18"/>
<text text-anchor="middle" x="66.6803" y="-14.3" font-family="Times,serif" font-size="14.00">3</text>
</g>
<!-- 1&#45;&gt;3 -->
<g id="edge4" class="edge"><title>1&#45;&gt;3</title>
<path fill="none" stroke="black" d="M35.2095,-87.9462C34.9304,-77.7824 35.6409,-64.7996 39.6803,-54 41.6134,-48.8314 44.5908,-43.805 47.8733,-39.2487"/>
<polygon fill="black" stroke="black" points="50.8405,-41.1432 54.367,-31.1524 45.3799,-36.7634 50.8405,-41.1432"/>
<text text-anchor="middle" x="43.1803" y="-58.3" font-family="Times,serif" font-size="14.00">b</text>
</g>
<!-- 2&#45;&gt;1 -->
<g id="edge5" class="edge"><title>2&#45;&gt;1</title>
<path fill="none" stroke="black" d="M36.6803,-175.597C36.6803,-163.746 36.6803,-147.817 36.6803,-134.292"/>
<polygon fill="black" stroke="black" points="40.1803,-134.084 36.6803,-124.084 33.1803,-134.084 40.1803,-134.084"/>
<text text-anchor="middle" x="40.1803" y="-146.3" font-family="Times,serif" font-size="14.00">a</text>
</g>
<!-- 2&#45;&gt;2 -->
<g id="edge6" class="edge"><title>2&#45;&gt;2</title>
<path fill="none" stroke="black" d="M52.9705,-201.668C63.0694,-203.517 72.6803,-200.961 72.6803,-194 72.6803,-189.541 68.736,-186.889 63.2459,-186.045"/>
<polygon fill="black" stroke="black" points="62.869,-182.554 52.9705,-186.332 63.0643,-189.552 62.869,-182.554"/>
<text text-anchor="middle" x="76.1803" y="-190.3" font-family="Times,serif" font-size="14.00">b</text>
</g>
<!-- 3&#45;&gt;0 -->
<g id="edge7" class="edge"><title>3&#45;&gt;0</title>
<path fill="none" stroke="black" d="M73.2745,-34.8333C78.6321,-48.6047 85.7619,-69.2399 88.6803,-88 97.1516,-142.456 105.465,-159.507 88.6803,-212 82.6758,-230.779 69.877,-248.851 58.4803,-262.316"/>
<polygon fill="black" stroke="black" points="55.6306,-260.256 51.6387,-270.07 60.8794,-264.887 55.6306,-260.256"/>
<text text-anchor="middle" x="101.18" y="-146.3" font-family="Times,serif" font-size="14.00">a</text>
</g>
<!-- 3&#45;&gt;1 -->
<g id="edge8" class="edge"><title>3&#45;&gt;1</title>
<path fill="none" stroke="black" d="M61.0628,-35.1034C56.7536,-47.4565 50.7181,-64.7582 45.7302,-79.0569"/>
<polygon fill="black" stroke="black" points="42.3121,-78.2292 42.323,-88.8241 48.9215,-80.5349 42.3121,-78.2292"/>
<text text-anchor="middle" x="57.1803" y="-58.3" font-family="Times,serif" font-size="14.00">b</text>
</g>
</g>
</svg>
