<?xml version="1.0" encoding="UTF-8" standalone="no"?>
<!DOCTYPE svg PUBLIC "-//W3C//DTD SVG 1.1//EN"
 "http://www.w3.org/Graphics/SVG/1.1/DTD/svg11.dtd">
<!-- Generated by graphviz version 2.36.0 (20140111.2315)
 -->
<!-- Title: %3 Pages: 1 -->
<svg width="193pt" height="404pt"
 viewBox="0.00 0.00 193.16 404.00" xmlns="http://www.w3.org/2000/svg" xmlns:xlink="http://www.w3.org/1999/xlink">
<g id="graph0" class="graph" transform="scale(1 1) rotate(0) translate(4 400)">
<title>%3</title>
<polygon fill="white" stroke="none" points="-4,4 -4,-400 189.165,-400 189.165,4 -4,4"/>
<!-- 0 -->
<g id="node1" class="node"><title>0</title>
<ellipse fill="lightblue" stroke="black" cx="155.165" cy="-378" rx="18" ry="18"/>
<text text-anchor="middle" x="155.165" y="-374.3" font-family="Times,serif" font-size="14.00">0</text>
</g>
<!-- 1 -->
<g id="node2" class="node"><title>1</title>
<ellipse fill="lightblue" stroke="black" cx="107.165" cy="-290" rx="18" ry="18"/>
<text text-anchor="middle" x="107.165" y="-286.3" font-family="Times,serif" font-size="14.00">1</text>
</g>
<!-- 0&#45;&gt;1 -->
<g id="edge1" class="edge"><title>0&#45;&gt;1</title>
<path fill="none" stroke="black" d="M146.804,-362.02C139.553,-349.028 128.928,-329.991 120.503,-314.897"/>
<polygon fill="black" stroke="black" points="123.521,-313.123 115.591,-306.097 117.409,-316.535 123.521,-313.123"/>
<text text-anchor="middle" x="138.665" y="-330.3" font-family="Times,serif" font-size="14.00">a</text>
</g>
<!-- 2 -->
<g id="node3" class="node"><title>2</title>
<ellipse fill="green" stroke="black" cx="57.1649" cy="-18" rx="18" ry="18"/>
<text text-anchor="middle" x="57.1649" y="-14.3" font-family="Times,serif" font-size="14.00">2</text>
</g>
<!-- 0&#45;&gt;2 -->
<g id="edge2" class="edge"><title>0&#45;&gt;2</title>
<path fill="none" stroke="black" d="M162.066,-361.171C168.84,-344.169 178.165,-316.192 178.165,-291 178.165,-291 178.165,-291 178.165,-109 178.165,-62.5343 120.007,-37.2386 84.3315,-26.0927"/>
<polygon fill="black" stroke="black" points="85.0827,-22.6654 74.5013,-23.1988 83.1058,-29.3805 85.0827,-22.6654"/>
<text text-anchor="middle" x="181.665" y="-198.3" font-family="Times,serif" font-size="14.00">b</text>
</g>
<!-- 1&#45;&gt;1 -->
<g id="edge3" class="edge"><title>1&#45;&gt;1</title>
<path fill="none" stroke="black" d="M123.455,-297.668C133.554,-299.517 143.165,-296.961 143.165,-290 143.165,-285.541 139.221,-282.889 133.731,-282.045"/>
<polygon fill="black" stroke="black" points="133.354,-278.554 123.455,-282.332 133.549,-285.552 133.354,-278.554"/>
<text text-anchor="middle" x="146.665" y="-286.3" font-family="Times,serif" font-size="14.00">a</text>
</g>
<!-- 3 -->
<g id="node4" class="node"><title>3</title>
<ellipse fill="lightblue" stroke="black" cx="30.1649" cy="-202" rx="18" ry="18"/>
<text text-anchor="middle" x="30.1649" y="-198.3" font-family="Times,serif" font-size="14.00">3</text>
</g>
<!-- 1&#45;&gt;3 -->
<g id="edge4" class="edge"><title>1&#45;&gt;3</title>
<path fill="none" stroke="black" d="M95.4703,-275.938C83.0744,-262.094 63.3185,-240.029 48.7787,-223.789"/>
<polygon fill="black" stroke="black" points="50.9954,-221.018 41.7174,-215.903 45.7803,-225.688 50.9954,-221.018"/>
<text text-anchor="middle" x="78.6649" y="-242.3" font-family="Times,serif" font-size="14.00">b</text>
</g>
<!-- 2&#45;&gt;1 -->
<g id="edge5" class="edge"><title>2&#45;&gt;1</title>
<path fill="none" stroke="black" d="M70.6381,-30.3188C84.3535,-42.8067 104.758,-64.2994 113.165,-88 134.28,-147.525 122.555,-223.3 113.86,-262.631"/>
<polygon fill="black" stroke="black" points="110.424,-261.956 111.573,-272.489 117.243,-263.539 110.424,-261.956"/>
<text text-anchor="middle" x="127.665" y="-154.3" font-family="Times,serif" font-size="14.00">b</text>
</g>
<!-- 2&#45;&gt;3 -->
<g id="edge6" class="edge"><title>2&#45;&gt;3</title>
<path fill="none" stroke="black" d="M46.7321,-32.902C37.4268,-46.2356 24.4782,-67.3382 19.1649,-88 11.6726,-117.136 17.0239,-151.696 22.5674,-174.856"/>
<polygon fill="black" stroke="black" points="19.2018,-175.822 25.0825,-184.635 25.9811,-174.078 19.2018,-175.822"/>
<text text-anchor="middle" x="22.6649" y="-106.3" font-family="Times,serif" font-size="14.00">a</text>
</g>
<!-- 3&#45;&gt;2 -->
<g id="edge7" class="edge"><title>3&#45;&gt;2</title>
<path fill="none" stroke="black" d="M21.8882,-185.602C18.8741,-179.598 15.61,-172.586 13.1649,-166 1.02007,-133.285 -3.85267,-121.963 4.16495,-88 8.04656,-71.5572 11.1902,-67.6358 21.1649,-54 25.5218,-48.044 30.9339,-42.1998 36.2269,-37.0447"/>
<polygon fill="black" stroke="black" points="38.8119,-39.4207 43.7598,-30.0522 34.0495,-34.2904 38.8119,-39.4207"/>
<text text-anchor="middle" x="7.66495" y="-106.3" font-family="Times,serif" font-size="14.00">b</text>
</g>
<!-- 4 -->
<g id="node5" class="node"><title>4</title>
<ellipse fill="lightblue" stroke="black" cx="57.1649" cy="-110" rx="17.5909" ry="18"/>
<ellipse fill="none" stroke="black" cx="57.1649" cy="-110" rx="21.5" ry="22"/>
<text text-anchor="middle" x="57.1649" y="-106.3" font-family="Times,serif" font-size="14.00">4</text>
</g>
<!-- 3&#45;&gt;4 -->
<g id="edge8" class="edge"><title>3&#45;&gt;4</title>
<path fill="none" stroke="black" d="M35.1172,-184.493C38.7785,-172.288 43.8649,-155.333 48.2297,-140.784"/>
<polygon fill="black" stroke="black" points="51.5887,-141.768 51.1098,-131.184 44.8839,-139.756 51.5887,-141.768"/>
<text text-anchor="middle" x="48.6649" y="-154.3" font-family="Times,serif" font-size="14.00">a</text>
</g>
<!-- 4&#45;&gt;2 -->
<g id="edge9" class="edge"><title>4&#45;&gt;2</title>
<path fill="none" stroke="black" d="M57.1649,-87.6713C57.1649,-75.2844 57.1649,-59.5523 57.1649,-46.2721"/>
<polygon fill="black" stroke="black" points="60.665,-46.258 57.1649,-36.2581 53.665,-46.2581 60.665,-46.258"/>
<text text-anchor="middle" x="60.6649" y="-58.3" font-family="Times,serif" font-size="14.00">a</text>
</g>
<!-- 4&#45;&gt;4 -->
<g id="edge10" class="edge"><title>4&#45;&gt;4</title>
<path fill="none" stroke="black" d="M77.2312,-118.734C87.2386,-119.943 96.1649,-117.031 96.1649,-110 96.1649,-105.496 92.5016,-102.682 87.2374,-101.559"/>
<polygon fill="black" stroke="black" points="87.3295,-98.0605 77.2312,-101.266 87.1243,-105.057 87.3295,-98.0605"/>
<text text-anchor="middle" x="99.6649" y="-106.3" font-family="Times,serif" font-size="14.00">b</text>
</g>
</g>
</svg>
