<?xml version="1.0" encoding="UTF-8" standalone="no"?>
<!DOCTYPE svg PUBLIC "-//W3C//DTD SVG 1.1//EN"
 "http://www.w3.org/Graphics/SVG/1.1/DTD/svg11.dtd">
<!-- Generated by graphviz version 2.36.0 (20140111.2315)
 -->
<!-- Title: %3 Pages: 1 -->
<svg width="169pt" height="404pt"
 viewBox="0.00 0.00 169.00 404.00" xmlns="http://www.w3.org/2000/svg" xmlns:xlink="http://www.w3.org/1999/xlink">
<g id="graph0" class="graph" transform="scale(1 1) rotate(0) translate(4 400)">
<title>%3</title>
<polygon fill="white" stroke="none" points="-4,4 -4,-400 165,-400 165,4 -4,4"/>
<!-- 0 -->
<g id="node1" class="node"><title>0</title>
<ellipse fill="lightblue" stroke="black" cx="114" cy="-282" rx="18" ry="18"/>
<text text-anchor="middle" x="114" y="-278.3" font-family="Times,serif" font-size="14.00">0</text>
</g>
<!-- 1 -->
<g id="node2" class="node"><title>1</title>
<ellipse fill="lightblue" stroke="black" cx="61" cy="-194" rx="18" ry="18"/>
<text text-anchor="middle" x="61" y="-190.3" font-family="Times,serif" font-size="14.00">1</text>
</g>
<!-- 0&#45;&gt;1 -->
<g id="edge1" class="edge"><title>0&#45;&gt;1</title>
<path fill="none" stroke="black" d="M104.768,-266.02C96.7123,-252.948 84.8855,-233.758 75.5561,-218.619"/>
<polygon fill="black" stroke="black" points="78.3523,-216.485 70.1261,-209.808 72.393,-220.158 78.3523,-216.485"/>
<text text-anchor="middle" x="96.5" y="-234.3" font-family="Times,serif" font-size="14.00">b</text>
</g>
<!-- 3 -->
<g id="node4" class="node"><title>3</title>
<ellipse fill="lightblue" stroke="black" cx="97" cy="-18" rx="18" ry="18"/>
<text text-anchor="middle" x="97" y="-14.3" font-family="Times,serif" font-size="14.00">3</text>
</g>
<!-- 0&#45;&gt;3 -->
<g id="edge2" class="edge"><title>0&#45;&gt;3</title>
<path fill="none" stroke="black" d="M114.216,-263.894C114.391,-243.103 114.414,-206.959 113,-176 110.517,-121.653 109.825,-107.974 103,-54 102.675,-51.4311 102.295,-48.7631 101.888,-46.0976"/>
<polygon fill="black" stroke="black" points="105.31,-45.343 100.231,-36.0449 98.4036,-46.4809 105.31,-45.343"/>
<text text-anchor="middle" x="116.5" y="-146.3" font-family="Times,serif" font-size="14.00">a</text>
</g>
<!-- 1&#45;&gt;1 -->
<g id="edge3" class="edge"><title>1&#45;&gt;1</title>
<path fill="none" stroke="black" d="M77.2903,-201.668C87.3892,-203.517 97,-200.961 97,-194 97,-189.541 93.0557,-186.889 87.5656,-186.045"/>
<polygon fill="black" stroke="black" points="87.1887,-182.554 77.2903,-186.332 87.384,-189.552 87.1887,-182.554"/>
<text text-anchor="middle" x="100.5" y="-190.3" font-family="Times,serif" font-size="14.00">a</text>
</g>
<!-- 4 -->
<g id="node5" class="node"><title>4</title>
<ellipse fill="green" stroke="black" cx="18" cy="-106" rx="18" ry="18"/>
<text text-anchor="middle" x="18" y="-102.3" font-family="Times,serif" font-size="14.00">4</text>
</g>
<!-- 1&#45;&gt;4 -->
<g id="edge4" class="edge"><title>1&#45;&gt;4</title>
<path fill="none" stroke="black" d="M53.3125,-177.625C46.9316,-164.863 37.7361,-146.472 30.3282,-131.656"/>
<polygon fill="black" stroke="black" points="33.3687,-129.911 25.766,-122.532 27.1077,-133.041 33.3687,-129.911"/>
<text text-anchor="middle" x="47.5" y="-146.3" font-family="Times,serif" font-size="14.00">b</text>
</g>
<!-- 2 -->
<g id="node3" class="node"><title>2</title>
<ellipse fill="lightblue" stroke="black" cx="114" cy="-374" rx="17.5909" ry="18"/>
<ellipse fill="none" stroke="black" cx="114" cy="-374" rx="21.5" ry="22"/>
<text text-anchor="middle" x="114" y="-370.3" font-family="Times,serif" font-size="14.00">2</text>
</g>
<!-- 2&#45;&gt;0 -->
<g id="edge5" class="edge"><title>2&#45;&gt;0</title>
<path fill="none" stroke="black" d="M114,-351.671C114,-339.284 114,-323.552 114,-310.272"/>
<polygon fill="black" stroke="black" points="117.5,-310.258 114,-300.258 110.5,-310.258 117.5,-310.258"/>
<text text-anchor="middle" x="117.5" y="-322.3" font-family="Times,serif" font-size="14.00">b</text>
</g>
<!-- 2&#45;&gt;2 -->
<g id="edge6" class="edge"><title>2&#45;&gt;2</title>
<path fill="none" stroke="black" d="M134.066,-382.734C144.074,-383.943 153,-381.031 153,-374 153,-369.496 149.337,-366.682 144.072,-365.559"/>
<polygon fill="black" stroke="black" points="144.165,-362.061 134.066,-365.266 143.959,-369.057 144.165,-362.061"/>
<text text-anchor="middle" x="156.5" y="-370.3" font-family="Times,serif" font-size="14.00">a</text>
</g>
<!-- 3&#45;&gt;1 -->
<g id="edge7" class="edge"><title>3&#45;&gt;1</title>
<path fill="none" stroke="black" d="M93.5057,-35.889C87.2274,-66.2342 73.9954,-130.189 66.4937,-166.447"/>
<polygon fill="black" stroke="black" points="63.0506,-165.814 64.4518,-176.316 69.9054,-167.233 63.0506,-165.814"/>
<text text-anchor="middle" x="86.5" y="-102.3" font-family="Times,serif" font-size="14.00">b</text>
</g>
<!-- 3&#45;&gt;3 -->
<g id="edge8" class="edge"><title>3&#45;&gt;3</title>
<path fill="none" stroke="black" d="M113.29,-25.6679C123.389,-27.5169 133,-24.9609 133,-18 133,-13.5406 129.056,-10.8891 123.566,-10.0454"/>
<polygon fill="black" stroke="black" points="123.189,-6.55441 113.29,-10.3321 123.384,-13.5517 123.189,-6.55441"/>
<text text-anchor="middle" x="136.5" y="-14.3" font-family="Times,serif" font-size="14.00">a</text>
</g>
<!-- 4&#45;&gt;3 -->
<g id="edge9" class="edge"><title>4&#45;&gt;3</title>
<path fill="none" stroke="black" d="M29.9984,-91.9385C42.833,-77.9666 63.3578,-55.6231 78.312,-39.3439"/>
<polygon fill="black" stroke="black" points="80.9601,-41.6349 85.1475,-31.9027 75.8049,-36.8994 80.9601,-41.6349"/>
<text text-anchor="middle" x="68.5" y="-58.3" font-family="Times,serif" font-size="14.00">a</text>
</g>
<!-- 4&#45;&gt;4 -->
<g id="edge10" class="edge"><title>4&#45;&gt;4</title>
<path fill="none" stroke="black" d="M34.2903,-113.668C44.3892,-115.517 54,-112.961 54,-106 54,-101.541 50.0557,-98.8891 44.5656,-98.0454"/>
<polygon fill="black" stroke="black" points="44.1887,-94.5544 34.2903,-98.3321 44.384,-101.552 44.1887,-94.5544"/>
<text text-anchor="middle" x="57.5" y="-102.3" font-family="Times,serif" font-size="14.00">b</text>
</g>
</g>
</svg>
