<?xml version="1.0" encoding="UTF-8" standalone="no"?>
<!DOCTYPE svg PUBLIC "-//W3C//DTD SVG 1.1//EN"
 "http://www.w3.org/Graphics/SVG/1.1/DTD/svg11.dtd">
<!-- Generated by graphviz version 2.36.0 (20140111.2315)
 -->
<!-- Title: %3 Pages: 1 -->
<svg width="127pt" height="228pt"
 viewBox="0.00 0.00 127.00 228.00" xmlns="http://www.w3.org/2000/svg" xmlns:xlink="http://www.w3.org/1999/xlink">
<g id="graph0" class="graph" transform="scale(1 1) rotate(0) translate(4 224)">
<title>%3</title>
<polygon fill="white" stroke="none" points="-4,4 -4,-224 123,-224 123,4 -4,4"/>
<!-- 0 -->
<g id="node1" class="node"><title>0</title>
<ellipse fill="green" stroke="black" cx="18" cy="-106" rx="18" ry="18"/>
<text text-anchor="middle" x="18" y="-102.3" font-family="Times,serif" font-size="14.00">0</text>
</g>
<!-- 2 -->
<g id="node3" class="node"><title>2</title>
<ellipse fill="lightblue" stroke="black" cx="41" cy="-18" rx="18" ry="18"/>
<text text-anchor="middle" x="41" y="-14.3" font-family="Times,serif" font-size="14.00">2</text>
</g>
<!-- 0&#45;&gt;2 -->
<g id="edge1" class="edge"><title>0&#45;&gt;2</title>
<path fill="none" stroke="black" d="M19.6202,-87.7683C20.827,-77.7744 22.827,-65.0244 26,-54 26.9805,-50.5932 28.2085,-47.0779 29.5371,-43.6491"/>
<polygon fill="black" stroke="black" points="32.786,-44.9518 33.4266,-34.3764 26.3309,-42.2442 32.786,-44.9518"/>
<text text-anchor="middle" x="34.5" y="-58.3" font-family="Times,serif" font-size="14.00">b,a</text>
</g>
<!-- 1 -->
<g id="node2" class="node"><title>1</title>
<ellipse fill="lightblue" stroke="black" cx="72" cy="-198" rx="17.5909" ry="18"/>
<ellipse fill="none" stroke="black" cx="72" cy="-198" rx="21.5" ry="22"/>
<text text-anchor="middle" x="72" y="-194.3" font-family="Times,serif" font-size="14.00">1</text>
</g>
<!-- 1&#45;&gt;1 -->
<g id="edge2" class="edge"><title>1&#45;&gt;1</title>
<path fill="none" stroke="black" d="M92.0663,-206.734C102.074,-207.943 111,-205.031 111,-198 111,-193.496 107.337,-190.682 102.072,-189.559"/>
<polygon fill="black" stroke="black" points="102.165,-186.061 92.0663,-189.266 101.959,-193.057 102.165,-186.061"/>
<text text-anchor="middle" x="114.5" y="-194.3" font-family="Times,serif" font-size="14.00">b</text>
</g>
<!-- 3 -->
<g id="node4" class="node"><title>3</title>
<ellipse fill="lightblue" stroke="black" cx="72" cy="-106" rx="18" ry="18"/>
<text text-anchor="middle" x="72" y="-102.3" font-family="Times,serif" font-size="14.00">3</text>
</g>
<!-- 1&#45;&gt;3 -->
<g id="edge3" class="edge"><title>1&#45;&gt;3</title>
<path fill="none" stroke="black" d="M72,-175.671C72,-163.284 72,-147.552 72,-134.272"/>
<polygon fill="black" stroke="black" points="75.5001,-134.258 72,-124.258 68.5001,-134.258 75.5001,-134.258"/>
<text text-anchor="middle" x="75.5" y="-146.3" font-family="Times,serif" font-size="14.00">a</text>
</g>
<!-- 2&#45;&gt;2 -->
<g id="edge4" class="edge"><title>2&#45;&gt;2</title>
<path fill="none" stroke="black" d="M57.2903,-25.6679C67.3892,-27.5169 77,-24.9609 77,-18 77,-13.5406 73.0557,-10.8891 67.5656,-10.0454"/>
<polygon fill="black" stroke="black" points="67.1887,-6.55441 57.2903,-10.3321 67.384,-13.5517 67.1887,-6.55441"/>
<text text-anchor="middle" x="85.5" y="-14.3" font-family="Times,serif" font-size="14.00">b,a</text>
</g>
<!-- 3&#45;&gt;2 -->
<g id="edge5" class="edge"><title>3&#45;&gt;2</title>
<path fill="none" stroke="black" d="M66.1691,-88.8241C61.7093,-76.4516 55.4713,-59.1462 50.3214,-44.8593"/>
<polygon fill="black" stroke="black" points="53.4885,-43.324 46.8047,-35.1034 46.9032,-45.6978 53.4885,-43.324"/>
<text text-anchor="middle" x="67.5" y="-58.3" font-family="Times,serif" font-size="14.00">b,a</text>
</g>
</g>
</svg>
