<?xml version="1.0" encoding="UTF-8" standalone="no"?>
<!DOCTYPE svg PUBLIC "-//W3C//DTD SVG 1.1//EN"
 "http://www.w3.org/Graphics/SVG/1.1/DTD/svg11.dtd">
<!-- Generated by graphviz version 2.36.0 (20140111.2315)
 -->
<!-- Title: %3 Pages: 1 -->
<svg width="166pt" height="316pt"
 viewBox="0.00 0.00 166.00 316.00" xmlns="http://www.w3.org/2000/svg" xmlns:xlink="http://www.w3.org/1999/xlink">
<g id="graph0" class="graph" transform="scale(1 1) rotate(0) translate(4 312)">
<title>%3</title>
<polygon fill="white" stroke="none" points="-4,4 -4,-312 162,-312 162,4 -4,4"/>
<!-- 0 -->
<g id="node1" class="node"><title>0</title>
<ellipse fill="lightblue" stroke="black" cx="97" cy="-18" rx="18" ry="18"/>
<text text-anchor="middle" x="97" y="-14.3" font-family="Times,serif" font-size="14.00">0</text>
</g>
<!-- 0&#45;&gt;0 -->
<g id="edge1" class="edge"><title>0&#45;&gt;0</title>
<path fill="none" stroke="black" d="M113.29,-25.6679C123.389,-27.5169 133,-24.9609 133,-18 133,-13.5406 129.056,-10.8891 123.566,-10.0454"/>
<polygon fill="black" stroke="black" points="123.189,-6.55441 113.29,-10.3321 123.384,-13.5517 123.189,-6.55441"/>
<text text-anchor="middle" x="141.5" y="-14.3" font-family="Times,serif" font-size="14.00">b,a</text>
</g>
<!-- 1 -->
<g id="node2" class="node"><title>1</title>
<ellipse fill="lightblue" stroke="black" cx="18" cy="-202" rx="18" ry="18"/>
<text text-anchor="middle" x="18" y="-198.3" font-family="Times,serif" font-size="14.00">1</text>
</g>
<!-- 1&#45;&gt;1 -->
<g id="edge2" class="edge"><title>1&#45;&gt;1</title>
<path fill="none" stroke="black" d="M34.2903,-209.668C44.3892,-211.517 54,-208.961 54,-202 54,-197.541 50.0557,-194.889 44.5656,-194.045"/>
<polygon fill="black" stroke="black" points="44.1887,-190.554 34.2903,-194.332 44.384,-197.552 44.1887,-190.554"/>
<text text-anchor="middle" x="57.5" y="-198.3" font-family="Times,serif" font-size="14.00">a</text>
</g>
<!-- 2 -->
<g id="node3" class="node"><title>2</title>
<ellipse fill="green" stroke="black" cx="97" cy="-110" rx="17.5909" ry="18"/>
<ellipse fill="none" stroke="black" cx="97" cy="-110" rx="21.5" ry="22"/>
<text text-anchor="middle" x="97" y="-106.3" font-family="Times,serif" font-size="14.00">2</text>
</g>
<!-- 1&#45;&gt;2 -->
<g id="edge3" class="edge"><title>1&#45;&gt;2</title>
<path fill="none" stroke="black" d="M29.6567,-187.72C41.8286,-173.853 61.1775,-151.81 76.0184,-134.903"/>
<polygon fill="black" stroke="black" points="78.9241,-136.898 82.8906,-127.074 73.6633,-132.28 78.9241,-136.898"/>
<text text-anchor="middle" x="65.5" y="-154.3" font-family="Times,serif" font-size="14.00">b</text>
</g>
<!-- 2&#45;&gt;0 -->
<g id="edge4" class="edge"><title>2&#45;&gt;0</title>
<path fill="none" stroke="black" d="M97,-87.6713C97,-75.2844 97,-59.5523 97,-46.2721"/>
<polygon fill="black" stroke="black" points="100.5,-46.258 97,-36.2581 93.5001,-46.2581 100.5,-46.258"/>
<text text-anchor="middle" x="100.5" y="-58.3" font-family="Times,serif" font-size="14.00">b</text>
</g>
<!-- 2&#45;&gt;2 -->
<g id="edge5" class="edge"><title>2&#45;&gt;2</title>
<path fill="none" stroke="black" d="M117.066,-118.734C127.074,-119.943 136,-117.031 136,-110 136,-105.496 132.337,-102.682 127.072,-101.559"/>
<polygon fill="black" stroke="black" points="127.165,-98.0605 117.066,-101.266 126.959,-105.057 127.165,-98.0605"/>
<text text-anchor="middle" x="139.5" y="-106.3" font-family="Times,serif" font-size="14.00">a</text>
</g>
<!-- 3 -->
<g id="node4" class="node"><title>3</title>
<ellipse fill="lightblue" stroke="black" cx="130" cy="-290" rx="18" ry="18"/>
<text text-anchor="middle" x="130" y="-286.3" font-family="Times,serif" font-size="14.00">3</text>
</g>
<!-- 3&#45;&gt;2 -->
<g id="edge6" class="edge"><title>3&#45;&gt;2</title>
<path fill="none" stroke="black" d="M123.201,-273.155C117.603,-259.376 109.965,-238.737 106,-220 100.527,-194.138 98.3447,-164.169 97.4929,-142.208"/>
<polygon fill="black" stroke="black" points="100.988,-142.007 97.1731,-132.123 93.9919,-142.229 100.988,-142.007"/>
<text text-anchor="middle" x="109.5" y="-198.3" font-family="Times,serif" font-size="14.00">b</text>
</g>
<!-- 4 -->
<g id="node5" class="node"><title>4</title>
<ellipse fill="lightblue" stroke="black" cx="140" cy="-202" rx="18" ry="18"/>
<text text-anchor="middle" x="140" y="-198.3" font-family="Times,serif" font-size="14.00">4</text>
</g>
<!-- 3&#45;&gt;4 -->
<g id="edge7" class="edge"><title>3&#45;&gt;4</title>
<path fill="none" stroke="black" d="M130.412,-271.945C130.8,-262.01 131.55,-249.26 133,-238 133.351,-235.271 133.792,-232.435 134.279,-229.613"/>
<polygon fill="black" stroke="black" points="137.742,-230.136 136.178,-219.657 130.866,-228.824 137.742,-230.136"/>
<text text-anchor="middle" x="136.5" y="-242.3" font-family="Times,serif" font-size="14.00">a</text>
</g>
<!-- 4&#45;&gt;2 -->
<g id="edge8" class="edge"><title>4&#45;&gt;2</title>
<path fill="none" stroke="black" d="M132.51,-185.323C126.509,-172.764 117.93,-154.807 110.708,-139.691"/>
<polygon fill="black" stroke="black" points="113.667,-137.766 106.198,-130.252 107.351,-140.784 113.667,-137.766"/>
<text text-anchor="middle" x="125.5" y="-154.3" font-family="Times,serif" font-size="14.00">a</text>
</g>
<!-- 4&#45;&gt;3 -->
<g id="edge9" class="edge"><title>4&#45;&gt;3</title>
<path fill="none" stroke="black" d="M140.119,-220.067C139.992,-230.007 139.492,-242.757 138,-254 137.636,-256.744 137.157,-259.589 136.615,-262.417"/>
<polygon fill="black" stroke="black" points="133.153,-261.866 134.462,-272.38 139.995,-263.345 133.153,-261.866"/>
<text text-anchor="middle" x="142.5" y="-242.3" font-family="Times,serif" font-size="14.00">b</text>
</g>
</g>
</svg>
