<?xml version="1.0" encoding="UTF-8" standalone="no"?>
<!DOCTYPE svg PUBLIC "-//W3C//DTD SVG 1.1//EN"
 "http://www.w3.org/Graphics/SVG/1.1/DTD/svg11.dtd">
<!-- Generated by graphviz version 2.36.0 (20140111.2315)
 -->
<!-- Title: %3 Pages: 1 -->
<svg width="166pt" height="228pt"
 viewBox="0.00 0.00 166.00 228.00" xmlns="http://www.w3.org/2000/svg" xmlns:xlink="http://www.w3.org/1999/xlink">
<g id="graph0" class="graph" transform="scale(1 1) rotate(0) translate(4 224)">
<title>%3</title>
<polygon fill="white" stroke="none" points="-4,4 -4,-224 162,-224 162,4 -4,4"/>
<!-- 0 -->
<g id="node1" class="node"><title>0</title>
<ellipse fill="lightblue" stroke="black" cx="68" cy="-114" rx="18" ry="18"/>
<text text-anchor="middle" x="68" y="-110.3" font-family="Times,serif" font-size="14.00">0</text>
</g>
<!-- 2 -->
<g id="node3" class="node"><title>2</title>
<ellipse fill="lightblue" stroke="black" cx="111" cy="-22" rx="17.5909" ry="18"/>
<ellipse fill="none" stroke="black" cx="111" cy="-22" rx="21.5" ry="22"/>
<text text-anchor="middle" x="111" y="-18.3" font-family="Times,serif" font-size="14.00">2</text>
</g>
<!-- 0&#45;&gt;2 -->
<g id="edge1" class="edge"><title>0&#45;&gt;2</title>
<path fill="none" stroke="black" d="M75.49,-97.3232C81.4905,-84.764 90.0698,-66.8075 97.2923,-51.6906"/>
<polygon fill="black" stroke="black" points="100.649,-52.784 101.802,-42.252 94.3327,-49.7662 100.649,-52.784"/>
<text text-anchor="middle" x="95.5" y="-66.3" font-family="Times,serif" font-size="14.00">b</text>
</g>
<!-- 3 -->
<g id="node4" class="node"><title>3</title>
<ellipse fill="lightblue" stroke="black" cx="18" cy="-22" rx="18" ry="18"/>
<text text-anchor="middle" x="18" y="-18.3" font-family="Times,serif" font-size="14.00">3</text>
</g>
<!-- 0&#45;&gt;3 -->
<g id="edge2" class="edge"><title>0&#45;&gt;3</title>
<path fill="none" stroke="black" d="M59.5182,-97.7327C51.7857,-83.8142 40.2371,-63.0268 31.2814,-46.9066"/>
<polygon fill="black" stroke="black" points="34.2726,-45.0836 26.3566,-38.0418 28.1535,-48.4832 34.2726,-45.0836"/>
<text text-anchor="middle" x="50.5" y="-66.3" font-family="Times,serif" font-size="14.00">a</text>
</g>
<!-- 1 -->
<g id="node2" class="node"><title>1</title>
<ellipse fill="green" stroke="black" cx="103" cy="-202" rx="18" ry="18"/>
<text text-anchor="middle" x="103" y="-198.3" font-family="Times,serif" font-size="14.00">1</text>
</g>
<!-- 1&#45;&gt;0 -->
<g id="edge3" class="edge"><title>1&#45;&gt;0</title>
<path fill="none" stroke="black" d="M96.4168,-184.824C91.3004,-172.252 84.1113,-154.588 78.2443,-140.172"/>
<polygon fill="black" stroke="black" points="81.4469,-138.756 74.4355,-130.813 74.9633,-141.395 81.4469,-138.756"/>
<text text-anchor="middle" x="91.5" y="-154.3" font-family="Times,serif" font-size="14.00">a</text>
</g>
<!-- 1&#45;&gt;2 -->
<g id="edge4" class="edge"><title>1&#45;&gt;2</title>
<path fill="none" stroke="black" d="M103.767,-183.933C105.105,-154.154 107.886,-92.2862 109.583,-54.5293"/>
<polygon fill="black" stroke="black" points="113.099,-54.254 110.051,-44.1069 106.106,-53.9397 113.099,-54.254"/>
<text text-anchor="middle" x="110.5" y="-110.3" font-family="Times,serif" font-size="14.00">b</text>
</g>
<!-- 2&#45;&gt;0 -->
<g id="edge5" class="edge"><title>2&#45;&gt;0</title>
<path fill="none" stroke="black" d="M94.4093,-36.0864C86.8981,-42.9618 78.6719,-52.027 74,-62 70.6198,-69.2155 68.8685,-77.609 68.0207,-85.4785"/>
<polygon fill="black" stroke="black" points="64.5108,-85.5195 67.3566,-95.725 71.4962,-85.9724 64.5108,-85.5195"/>
<text text-anchor="middle" x="77.5" y="-66.3" font-family="Times,serif" font-size="14.00">b</text>
</g>
<!-- 2&#45;&gt;2 -->
<g id="edge6" class="edge"><title>2&#45;&gt;2</title>
<path fill="none" stroke="black" d="M131.066,-30.7341C141.074,-31.9426 150,-29.0312 150,-22 150,-17.4956 146.337,-14.682 141.072,-13.5592"/>
<polygon fill="black" stroke="black" points="141.165,-10.0605 131.066,-13.2659 140.959,-17.0575 141.165,-10.0605"/>
<text text-anchor="middle" x="153.5" y="-18.3" font-family="Times,serif" font-size="14.00">a</text>
</g>
<!-- 3&#45;&gt;3 -->
<g id="edge7" class="edge"><title>3&#45;&gt;3</title>
<path fill="none" stroke="black" d="M34.2903,-30.365C44.3892,-32.3821 54,-29.5938 54,-22 54,-17.1353 50.0557,-14.2427 44.5656,-13.3222"/>
<polygon fill="black" stroke="black" points="44.1791,-9.83225 34.2903,-13.635 44.3922,-16.829 44.1791,-9.83225"/>
<text text-anchor="middle" x="62.5" y="-18.3" font-family="Times,serif" font-size="14.00">b,a</text>
</g>
</g>
</svg>
