<?xml version="1.0" encoding="UTF-8" standalone="no"?>
<!DOCTYPE svg PUBLIC "-//W3C//DTD SVG 1.1//EN"
 "http://www.w3.org/Graphics/SVG/1.1/DTD/svg11.dtd">
<!-- Generated by graphviz version 2.36.0 (20140111.2315)
 -->
<!-- Title: %3 Pages: 1 -->
<svg width="180pt" height="316pt"
 viewBox="0.00 0.00 180.00 316.00" xmlns="http://www.w3.org/2000/svg" xmlns:xlink="http://www.w3.org/1999/xlink">
<g id="graph0" class="graph" transform="scale(1 1) rotate(0) translate(4 312)">
<title>%3</title>
<polygon fill="white" stroke="none" points="-4,4 -4,-312 176,-312 176,4 -4,4"/>
<!-- 0 -->
<g id="node1" class="node"><title>0</title>
<ellipse fill="lightblue" stroke="black" cx="113" cy="-202" rx="18" ry="18"/>
<text text-anchor="middle" x="113" y="-198.3" font-family="Times,serif" font-size="14.00">0</text>
</g>
<!-- 2 -->
<g id="node3" class="node"><title>2</title>
<ellipse fill="lightblue" stroke="black" cx="18" cy="-114" rx="18" ry="18"/>
<text text-anchor="middle" x="18" y="-110.3" font-family="Times,serif" font-size="14.00">2</text>
</g>
<!-- 0&#45;&gt;2 -->
<g id="edge1" class="edge"><title>0&#45;&gt;2</title>
<path fill="none" stroke="black" d="M99.7907,-189.042C83.9803,-174.73 57.317,-150.592 38.7478,-133.782"/>
<polygon fill="black" stroke="black" points="40.8596,-130.973 31.0972,-126.856 36.1618,-136.162 40.8596,-130.973"/>
<text text-anchor="middle" x="77.5" y="-154.3" font-family="Times,serif" font-size="14.00">a</text>
</g>
<!-- 3 -->
<g id="node4" class="node"><title>3</title>
<ellipse fill="lightblue" stroke="black" cx="97" cy="-22" rx="17.5909" ry="18"/>
<ellipse fill="none" stroke="black" cx="97" cy="-22" rx="21.5" ry="22"/>
<text text-anchor="middle" x="97" y="-18.3" font-family="Times,serif" font-size="14.00">3</text>
</g>
<!-- 0&#45;&gt;3 -->
<g id="edge2" class="edge"><title>0&#45;&gt;3</title>
<path fill="none" stroke="black" d="M111.466,-183.933C108.789,-154.154 103.228,-92.2862 99.8341,-54.5293"/>
<polygon fill="black" stroke="black" points="103.279,-53.7534 98.8973,-44.1069 96.3067,-54.3802 103.279,-53.7534"/>
<text text-anchor="middle" x="109.5" y="-110.3" font-family="Times,serif" font-size="14.00">b</text>
</g>
<!-- 1 -->
<g id="node2" class="node"><title>1</title>
<ellipse fill="green" stroke="black" cx="154" cy="-290" rx="18" ry="18"/>
<text text-anchor="middle" x="154" y="-286.3" font-family="Times,serif" font-size="14.00">1</text>
</g>
<!-- 1&#45;&gt;0 -->
<g id="edge3" class="edge"><title>1&#45;&gt;0</title>
<path fill="none" stroke="black" d="M146.48,-273.226C140.412,-260.497 131.765,-242.361 124.779,-227.708"/>
<polygon fill="black" stroke="black" points="127.935,-226.194 120.472,-218.674 121.616,-229.207 127.935,-226.194"/>
<text text-anchor="middle" x="140.5" y="-242.3" font-family="Times,serif" font-size="14.00">a</text>
</g>
<!-- 1&#45;&gt;3 -->
<g id="edge4" class="edge"><title>1&#45;&gt;3</title>
<path fill="none" stroke="black" d="M155.835,-272.055C159.326,-232.928 163.818,-134.12 130,-62 127.232,-56.0976 123.334,-50.3696 119.182,-45.2025"/>
<polygon fill="black" stroke="black" points="121.776,-42.8519 112.574,-37.5998 116.492,-47.4437 121.776,-42.8519"/>
<text text-anchor="middle" x="158.5" y="-154.3" font-family="Times,serif" font-size="14.00">b</text>
</g>
<!-- 2&#45;&gt;2 -->
<g id="edge5" class="edge"><title>2&#45;&gt;2</title>
<path fill="none" stroke="black" d="M34.2903,-121.668C44.3892,-123.517 54,-120.961 54,-114 54,-109.541 50.0557,-106.889 44.5656,-106.045"/>
<polygon fill="black" stroke="black" points="44.1887,-102.554 34.2903,-106.332 44.384,-109.552 44.1887,-102.554"/>
<text text-anchor="middle" x="57.5" y="-110.3" font-family="Times,serif" font-size="14.00">b</text>
</g>
<!-- 2&#45;&gt;3 -->
<g id="edge6" class="edge"><title>2&#45;&gt;3</title>
<path fill="none" stroke="black" d="M22.2332,-96.0634C25.5116,-85.4463 30.885,-71.9389 39,-62 47.1318,-52.0406 58.4685,-43.6443 68.964,-37.2233"/>
<polygon fill="black" stroke="black" points="70.9469,-40.1205 77.869,-32.0995 67.4558,-34.0531 70.9469,-40.1205"/>
<text text-anchor="middle" x="42.5" y="-66.3" font-family="Times,serif" font-size="14.00">a</text>
</g>
<!-- 3&#45;&gt;0 -->
<g id="edge7" class="edge"><title>3&#45;&gt;0</title>
<path fill="none" stroke="black" d="M107.136,-41.5561C110.155,-47.8713 113.149,-55.0845 115,-62 126.91,-106.496 127.205,-135.979 123,-166 122.589,-168.934 121.993,-171.966 121.294,-174.964"/>
<polygon fill="black" stroke="black" points="117.861,-174.255 118.638,-184.821 124.619,-176.077 117.861,-174.255"/>
<text text-anchor="middle" x="128.5" y="-110.3" font-family="Times,serif" font-size="14.00">b</text>
</g>
<!-- 3&#45;&gt;2 -->
<g id="edge8" class="edge"><title>3&#45;&gt;2</title>
<path fill="none" stroke="black" d="M82.8906,-39.074C69.9566,-53.809 50.7187,-75.7255 36.5461,-91.8715"/>
<polygon fill="black" stroke="black" points="33.6232,-89.8958 29.6567,-99.7202 38.884,-94.5137 33.6232,-89.8958"/>
<text text-anchor="middle" x="66.5" y="-66.3" font-family="Times,serif" font-size="14.00">a</text>
</g>
</g>
</svg>
