<?xml version="1.0" encoding="UTF-8" standalone="no"?>
<!DOCTYPE svg PUBLIC "-//W3C//DTD SVG 1.1//EN"
 "http://www.w3.org/Graphics/SVG/1.1/DTD/svg11.dtd">
<!-- Generated by graphviz version 2.36.0 (20140111.2315)
 -->
<!-- Title: %3 Pages: 1 -->
<svg width="143pt" height="228pt"
 viewBox="0.00 0.00 142.76 228.00" xmlns="http://www.w3.org/2000/svg" xmlns:xlink="http://www.w3.org/1999/xlink">
<g id="graph0" class="graph" transform="scale(1 1) rotate(0) translate(4 224)">
<title>%3</title>
<polygon fill="white" stroke="none" points="-4,4 -4,-224 138.756,-224 138.756,4 -4,4"/>
<!-- 0 -->
<g id="node1" class="node"><title>0</title>
<ellipse fill="lightblue" stroke="black" cx="47.7556" cy="-202" rx="18" ry="18"/>
<text text-anchor="middle" x="47.7556" y="-198.3" font-family="Times,serif" font-size="14.00">0</text>
</g>
<!-- 2 -->
<g id="node3" class="node"><title>2</title>
<ellipse fill="green" stroke="black" cx="47.7556" cy="-114" rx="18" ry="18"/>
<text text-anchor="middle" x="47.7556" y="-110.3" font-family="Times,serif" font-size="14.00">2</text>
</g>
<!-- 0&#45;&gt;2 -->
<g id="edge1" class="edge"><title>0&#45;&gt;2</title>
<path fill="none" stroke="black" d="M47.7556,-183.597C47.7556,-171.746 47.7556,-155.817 47.7556,-142.292"/>
<polygon fill="black" stroke="black" points="51.2557,-142.084 47.7556,-132.084 44.2557,-142.084 51.2557,-142.084"/>
<text text-anchor="middle" x="56.2556" y="-154.3" font-family="Times,serif" font-size="14.00">b,a</text>
</g>
<!-- 1 -->
<g id="node2" class="node"><title>1</title>
<ellipse fill="lightblue" stroke="black" cx="19.7556" cy="-22" rx="18" ry="18"/>
<text text-anchor="middle" x="19.7556" y="-18.3" font-family="Times,serif" font-size="14.00">1</text>
</g>
<!-- 1&#45;&gt;0 -->
<g id="edge2" class="edge"><title>1&#45;&gt;0</title>
<path fill="none" stroke="black" d="M13.2829,-38.8133C5.42636,-60.2832 -5.67117,-99.6844 3.75558,-132 8.86315,-149.509 19.9127,-166.809 29.6605,-179.707"/>
<polygon fill="black" stroke="black" points="27.1692,-182.2 36.112,-187.881 32.664,-177.863 27.1692,-182.2"/>
<text text-anchor="middle" x="12.2556" y="-110.3" font-family="Times,serif" font-size="14.00">b,a</text>
</g>
<!-- 2&#45;&gt;1 -->
<g id="edge3" class="edge"><title>2&#45;&gt;1</title>
<path fill="none" stroke="black" d="M42.6199,-96.4926C38.5151,-83.2985 32.6831,-64.5529 27.9367,-49.2964"/>
<polygon fill="black" stroke="black" points="31.1714,-47.9116 24.8587,-39.4027 24.4874,-49.9911 31.1714,-47.9116"/>
<text text-anchor="middle" x="40.2556" y="-66.3" font-family="Times,serif" font-size="14.00">b</text>
</g>
<!-- 3 -->
<g id="node4" class="node"><title>3</title>
<ellipse fill="lightblue" stroke="black" cx="87.7556" cy="-22" rx="17.5909" ry="18"/>
<ellipse fill="none" stroke="black" cx="87.7556" cy="-22" rx="21.5" ry="22"/>
<text text-anchor="middle" x="87.7556" y="-18.3" font-family="Times,serif" font-size="14.00">3</text>
</g>
<!-- 2&#45;&gt;3 -->
<g id="edge4" class="edge"><title>2&#45;&gt;3</title>
<path fill="none" stroke="black" d="M54.723,-97.3232C60.3049,-84.764 68.2856,-66.8075 75.0042,-51.6906"/>
<polygon fill="black" stroke="black" points="78.336,-52.8117 79.1991,-42.252 71.9393,-49.9687 78.336,-52.8117"/>
<text text-anchor="middle" x="73.2556" y="-66.3" font-family="Times,serif" font-size="14.00">a</text>
</g>
<!-- 3&#45;&gt;0 -->
<g id="edge5" class="edge"><title>3&#45;&gt;0</title>
<path fill="none" stroke="black" d="M87.8683,-44.0696C87.3776,-72.6034 84.182,-124.709 68.7556,-166 67.2211,-170.107 65.2016,-174.274 63.0211,-178.231"/>
<polygon fill="black" stroke="black" points="59.9298,-176.581 57.7939,-186.958 65.935,-180.178 59.9298,-176.581"/>
<text text-anchor="middle" x="87.2556" y="-110.3" font-family="Times,serif" font-size="14.00">b</text>
</g>
<!-- 3&#45;&gt;3 -->
<g id="edge6" class="edge"><title>3&#45;&gt;3</title>
<path fill="none" stroke="black" d="M107.822,-30.7341C117.829,-31.9426 126.756,-29.0312 126.756,-22 126.756,-17.4956 123.092,-14.682 117.828,-13.5592"/>
<polygon fill="black" stroke="black" points="117.92,-10.0605 107.822,-13.2659 117.715,-17.0575 117.92,-10.0605"/>
<text text-anchor="middle" x="130.256" y="-18.3" font-family="Times,serif" font-size="14.00">a</text>
</g>
</g>
</svg>
