<?xml version="1.0" encoding="UTF-8" standalone="no"?>
<!DOCTYPE svg PUBLIC "-//W3C//DTD SVG 1.1//EN"
 "http://www.w3.org/Graphics/SVG/1.1/DTD/svg11.dtd">
<!-- Generated by graphviz version 2.36.0 (20140111.2315)
 -->
<!-- Title: %3 Pages: 1 -->
<svg width="108pt" height="316pt"
 viewBox="0.00 0.00 108.00 316.00" xmlns="http://www.w3.org/2000/svg" xmlns:xlink="http://www.w3.org/1999/xlink">
<g id="graph0" class="graph" transform="scale(1 1) rotate(0) translate(4 312)">
<title>%3</title>
<polygon fill="white" stroke="none" points="-4,4 -4,-312 104,-312 104,4 -4,4"/>
<!-- 0 -->
<g id="node1" class="node"><title>0</title>
<ellipse fill="lightblue" stroke="black" cx="48" cy="-290" rx="18" ry="18"/>
<text text-anchor="middle" x="48" y="-286.3" font-family="Times,serif" font-size="14.00">0</text>
</g>
<!-- 0&#45;&gt;0 -->
<g id="edge1" class="edge"><title>0&#45;&gt;0</title>
<path fill="none" stroke="black" d="M64.2903,-297.668C74.3892,-299.517 84,-296.961 84,-290 84,-285.541 80.0557,-282.889 74.5656,-282.045"/>
<polygon fill="black" stroke="black" points="74.1887,-278.554 64.2903,-282.332 74.384,-285.552 74.1887,-278.554"/>
<text text-anchor="middle" x="87.5" y="-286.3" font-family="Times,serif" font-size="14.00">b</text>
</g>
<!-- 1 -->
<g id="node2" class="node"><title>1</title>
<ellipse fill="lightblue" stroke="black" cx="48" cy="-202" rx="18" ry="18"/>
<text text-anchor="middle" x="48" y="-198.3" font-family="Times,serif" font-size="14.00">1</text>
</g>
<!-- 0&#45;&gt;1 -->
<g id="edge2" class="edge"><title>0&#45;&gt;1</title>
<path fill="none" stroke="black" d="M41.3664,-273.258C39.201,-267.332 37.0772,-260.463 36,-254 34.8309,-246.986 34.8309,-245.014 36,-238 36.5217,-234.87 37.2891,-231.644 38.1877,-228.476"/>
<polygon fill="black" stroke="black" points="41.5891,-229.335 41.3664,-218.742 34.9349,-227.162 41.5891,-229.335"/>
<text text-anchor="middle" x="39.5" y="-242.3" font-family="Times,serif" font-size="14.00">a</text>
</g>
<!-- 1&#45;&gt;0 -->
<g id="edge3" class="edge"><title>1&#45;&gt;0</title>
<path fill="none" stroke="black" d="M48,-220.084C48,-231.861 48,-247.774 48,-261.342"/>
<polygon fill="black" stroke="black" points="44.5001,-261.597 48,-271.597 51.5001,-261.597 44.5001,-261.597"/>
<text text-anchor="middle" x="51.5" y="-242.3" font-family="Times,serif" font-size="14.00">b</text>
</g>
<!-- 3 -->
<g id="node4" class="node"><title>3</title>
<ellipse fill="green" stroke="black" cx="18" cy="-114" rx="18" ry="18"/>
<text text-anchor="middle" x="18" y="-110.3" font-family="Times,serif" font-size="14.00">3</text>
</g>
<!-- 1&#45;&gt;3 -->
<g id="edge4" class="edge"><title>1&#45;&gt;3</title>
<path fill="none" stroke="black" d="M35.6868,-188.848C30.1568,-182.581 24.1724,-174.482 21,-166 18.223,-158.575 17.0193,-150.119 16.6289,-142.256"/>
<polygon fill="black" stroke="black" points="20.1269,-142.019 16.5293,-132.054 13.1272,-142.088 20.1269,-142.019"/>
<text text-anchor="middle" x="24.5" y="-154.3" font-family="Times,serif" font-size="14.00">a</text>
</g>
<!-- 2 -->
<g id="node3" class="node"><title>2</title>
<ellipse fill="lightblue" stroke="black" cx="53" cy="-22" rx="17.5909" ry="18"/>
<ellipse fill="none" stroke="black" cx="53" cy="-22" rx="21.5" ry="22"/>
<text text-anchor="middle" x="53" y="-18.3" font-family="Times,serif" font-size="14.00">2</text>
</g>
<!-- 2&#45;&gt;1 -->
<g id="edge5" class="edge"><title>2&#45;&gt;1</title>
<path fill="none" stroke="black" d="M52.4071,-44.1069C51.4995,-76.4168 49.766,-138.132 48.7649,-173.771"/>
<polygon fill="black" stroke="black" points="45.2617,-173.838 48.4794,-183.933 52.2589,-174.035 45.2617,-173.838"/>
<text text-anchor="middle" x="53.5" y="-110.3" font-family="Times,serif" font-size="14.00">a</text>
</g>
<!-- 2&#45;&gt;2 -->
<g id="edge6" class="edge"><title>2&#45;&gt;2</title>
<path fill="none" stroke="black" d="M73.0663,-30.7341C83.0736,-31.9426 92,-29.0312 92,-22 92,-17.4956 88.3366,-14.682 83.0725,-13.5592"/>
<polygon fill="black" stroke="black" points="83.1646,-10.0605 73.0663,-13.2659 82.9594,-17.0575 83.1646,-10.0605"/>
<text text-anchor="middle" x="95.5" y="-18.3" font-family="Times,serif" font-size="14.00">b</text>
</g>
<!-- 3&#45;&gt;1 -->
<g id="edge7" class="edge"><title>3&#45;&gt;1</title>
<path fill="none" stroke="black" d="M23.6175,-131.103C27.9267,-143.457 33.9622,-160.758 38.9501,-175.057"/>
<polygon fill="black" stroke="black" points="35.7587,-176.535 42.3572,-184.824 42.3681,-174.229 35.7587,-176.535"/>
<text text-anchor="middle" x="39.5" y="-154.3" font-family="Times,serif" font-size="14.00">b</text>
</g>
<!-- 3&#45;&gt;2 -->
<g id="edge8" class="edge"><title>3&#45;&gt;2</title>
<path fill="none" stroke="black" d="M24.2573,-96.9098C29.0501,-84.5856 35.7938,-67.2444 41.5447,-52.4565"/>
<polygon fill="black" stroke="black" points="44.9688,-53.3082 45.3313,-42.7196 38.4447,-50.7711 44.9688,-53.3082"/>
<text text-anchor="middle" x="41.5" y="-66.3" font-family="Times,serif" font-size="14.00">a</text>
</g>
</g>
</svg>
