<?xml version="1.0" encoding="UTF-8" standalone="no"?>
<!DOCTYPE svg PUBLIC "-//W3C//DTD SVG 1.1//EN"
 "http://www.w3.org/Graphics/SVG/1.1/DTD/svg11.dtd">
<!-- Generated by graphviz version 2.36.0 (20140111.2315)
 -->
<!-- Title: %3 Pages: 1 -->
<svg width="127pt" height="316pt"
 viewBox="0.00 0.00 127.44 316.00" xmlns="http://www.w3.org/2000/svg" xmlns:xlink="http://www.w3.org/1999/xlink">
<g id="graph0" class="graph" transform="scale(1 1) rotate(0) translate(4 312)">
<title>%3</title>
<polygon fill="white" stroke="none" points="-4,4 -4,-312 123.441,-312 123.441,4 -4,4"/>
<!-- 0 -->
<g id="node1" class="node"><title>0</title>
<ellipse fill="green" stroke="black" cx="97.4405" cy="-286" rx="17.5909" ry="18"/>
<ellipse fill="none" stroke="black" cx="97.4405" cy="-286" rx="21.5" ry="22"/>
<text text-anchor="middle" x="97.4405" y="-282.3" font-family="Times,serif" font-size="14.00">0</text>
</g>
<!-- 1 -->
<g id="node2" class="node"><title>1</title>
<ellipse fill="lightblue" stroke="black" cx="62.4405" cy="-194" rx="18" ry="18"/>
<text text-anchor="middle" x="62.4405" y="-190.3" font-family="Times,serif" font-size="14.00">1</text>
</g>
<!-- 0&#45;&gt;1 -->
<g id="edge1" class="edge"><title>0&#45;&gt;1</title>
<path fill="none" stroke="black" d="M89.6729,-265.026C84.5843,-251.941 77.8859,-234.717 72.4059,-220.625"/>
<polygon fill="black" stroke="black" points="75.5579,-219.074 68.6714,-211.022 69.0339,-221.611 75.5579,-219.074"/>
<text text-anchor="middle" x="84.9405" y="-234.3" font-family="Times,serif" font-size="14.00">b</text>
</g>
<!-- 2 -->
<g id="node3" class="node"><title>2</title>
<ellipse fill="lightblue" stroke="black" cx="84.4405" cy="-106" rx="18" ry="18"/>
<text text-anchor="middle" x="84.4405" y="-102.3" font-family="Times,serif" font-size="14.00">2</text>
</g>
<!-- 0&#45;&gt;2 -->
<g id="edge2" class="edge"><title>0&#45;&gt;2</title>
<path fill="none" stroke="black" d="M95.8982,-263.882C93.5394,-231.584 89.036,-169.922 86.4328,-134.279"/>
<polygon fill="black" stroke="black" points="89.9096,-133.833 85.6905,-124.114 82.9282,-134.342 89.9096,-133.833"/>
<text text-anchor="middle" x="94.9405" y="-190.3" font-family="Times,serif" font-size="14.00">a</text>
</g>
<!-- 1&#45;&gt;2 -->
<g id="edge3" class="edge"><title>1&#45;&gt;2</title>
<path fill="none" stroke="black" d="M67.2813,-176.662C68.9742,-170.794 70.8483,-164.116 72.4405,-158 74.4573,-150.254 76.5055,-141.807 78.3252,-134.056"/>
<polygon fill="black" stroke="black" points="81.7961,-134.581 80.6406,-124.05 74.9763,-133.003 81.7961,-134.581"/>
<text text-anchor="middle" x="78.9405" y="-146.3" font-family="Times,serif" font-size="14.00">a</text>
</g>
<!-- 3 -->
<g id="node4" class="node"><title>3</title>
<ellipse fill="lightblue" stroke="black" cx="31.4405" cy="-18" rx="18" ry="18"/>
<text text-anchor="middle" x="31.4405" y="-14.3" font-family="Times,serif" font-size="14.00">3</text>
</g>
<!-- 1&#45;&gt;3 -->
<g id="edge4" class="edge"><title>1&#45;&gt;3</title>
<path fill="none" stroke="black" d="M47.0804,-183.854C37.5464,-177.555 25.5994,-168.456 17.4405,-158 7.27991,-144.979 5.84713,-140.161 2.44055,-124 -0.859529,-108.344 -0.721491,-103.684 2.44055,-88 5.57152,-72.4697 12.298,-56.0816 18.4851,-43.1753"/>
<polygon fill="black" stroke="black" points="21.7027,-44.5662 23.0427,-34.0564 15.4412,-41.4367 21.7027,-44.5662"/>
<text text-anchor="middle" x="5.94055" y="-102.3" font-family="Times,serif" font-size="14.00">b</text>
</g>
<!-- 2&#45;&gt;1 -->
<g id="edge5" class="edge"><title>2&#45;&gt;1</title>
<path fill="none" stroke="black" d="M75.773,-121.869C72.6333,-127.923 69.3846,-135.108 67.4405,-142 65.3151,-149.535 64.06,-157.916 63.3282,-165.671"/>
<polygon fill="black" stroke="black" points="59.8317,-165.499 62.6218,-175.72 66.8145,-165.99 59.8317,-165.499"/>
<text text-anchor="middle" x="70.9405" y="-146.3" font-family="Times,serif" font-size="14.00">b</text>
</g>
<!-- 2&#45;&gt;3 -->
<g id="edge6" class="edge"><title>2&#45;&gt;3</title>
<path fill="none" stroke="black" d="M75.2087,-90.0199C67.1528,-76.9482 55.326,-57.7576 45.9967,-42.6194"/>
<polygon fill="black" stroke="black" points="48.7928,-40.4853 40.5667,-33.8084 42.8336,-44.1579 48.7928,-40.4853"/>
<text text-anchor="middle" x="65.9405" y="-58.3" font-family="Times,serif" font-size="14.00">a</text>
</g>
<!-- 3&#45;&gt;1 -->
<g id="edge7" class="edge"><title>3&#45;&gt;1</title>
<path fill="none" stroke="black" d="M34.4361,-35.8135C39.8194,-66.0297 51.1708,-129.744 57.6468,-166.093"/>
<polygon fill="black" stroke="black" points="54.2119,-166.768 59.4117,-175.999 61.1034,-165.54 54.2119,-166.768"/>
<text text-anchor="middle" x="52.9405" y="-102.3" font-family="Times,serif" font-size="14.00">a</text>
</g>
<!-- 3&#45;&gt;3 -->
<g id="edge8" class="edge"><title>3&#45;&gt;3</title>
<path fill="none" stroke="black" d="M47.7308,-25.6679C57.8297,-27.5169 67.4405,-24.9609 67.4405,-18 67.4405,-13.5406 63.4963,-10.8891 58.0062,-10.0454"/>
<polygon fill="black" stroke="black" points="57.6293,-6.55441 47.7308,-10.3321 57.8246,-13.5517 57.6293,-6.55441"/>
<text text-anchor="middle" x="70.9405" y="-14.3" font-family="Times,serif" font-size="14.00">b</text>
</g>
</g>
</svg>
