<?xml version="1.0" encoding="UTF-8" standalone="no"?>
<!DOCTYPE svg PUBLIC "-//W3C//DTD SVG 1.1//EN"
 "http://www.w3.org/Graphics/SVG/1.1/DTD/svg11.dtd">
<!-- Generated by graphviz version 2.36.0 (20140111.2315)
 -->
<!-- Title: %3 Pages: 1 -->
<svg width="100pt" height="316pt"
 viewBox="0.00 0.00 100.00 316.00" xmlns="http://www.w3.org/2000/svg" xmlns:xlink="http://www.w3.org/1999/xlink">
<g id="graph0" class="graph" transform="scale(1 1) rotate(0) translate(4 312)">
<title>%3</title>
<polygon fill="white" stroke="none" points="-4,4 -4,-312 96,-312 96,4 -4,4"/>
<!-- 0 -->
<g id="node1" class="node"><title>0</title>
<ellipse fill="lightblue" stroke="black" cx="33" cy="-194" rx="18" ry="18"/>
<text text-anchor="middle" x="33" y="-190.3" font-family="Times,serif" font-size="14.00">0</text>
</g>
<!-- 2 -->
<g id="node3" class="node"><title>2</title>
<ellipse fill="green" stroke="black" cx="54" cy="-106" rx="18" ry="18"/>
<text text-anchor="middle" x="54" y="-102.3" font-family="Times,serif" font-size="14.00">2</text>
</g>
<!-- 0&#45;&gt;2 -->
<g id="edge1" class="edge"><title>0&#45;&gt;2</title>
<path fill="none" stroke="black" d="M37.049,-176.418C39.9933,-164.361 44.0425,-147.778 47.4449,-133.845"/>
<polygon fill="black" stroke="black" points="50.9196,-134.369 49.8918,-123.824 44.1194,-132.708 50.9196,-134.369"/>
<text text-anchor="middle" x="53.5" y="-146.3" font-family="Times,serif" font-size="14.00">b,a</text>
</g>
<!-- 1 -->
<g id="node2" class="node"><title>1</title>
<ellipse fill="lightblue" stroke="black" cx="18" cy="-18" rx="18" ry="18"/>
<text text-anchor="middle" x="18" y="-14.3" font-family="Times,serif" font-size="14.00">1</text>
</g>
<!-- 1&#45;&gt;0 -->
<g id="edge2" class="edge"><title>1&#45;&gt;0</title>
<path fill="none" stroke="black" d="M14.2836,-35.8341C10.2441,-56.6589 4.99235,-93.1415 10,-124 12.41,-138.851 17.5588,-154.824 22.3751,-167.659"/>
<polygon fill="black" stroke="black" points="19.2042,-169.16 26.1077,-177.197 25.7228,-166.609 19.2042,-169.16"/>
<text text-anchor="middle" x="18.5" y="-102.3" font-family="Times,serif" font-size="14.00">b,a</text>
</g>
<!-- 2&#45;&gt;0 -->
<g id="edge3" class="edge"><title>2&#45;&gt;0</title>
<path fill="none" stroke="black" d="M43.0611,-120.432C38.7151,-126.611 34.2259,-134.276 32,-142 29.8082,-149.605 29.2687,-158.117 29.495,-165.974"/>
<polygon fill="black" stroke="black" points="26.016,-166.401 30.1948,-176.137 32.9995,-165.92 26.016,-166.401"/>
<text text-anchor="middle" x="35.5" y="-146.3" font-family="Times,serif" font-size="14.00">b</text>
</g>
<!-- 2&#45;&gt;1 -->
<g id="edge4" class="edge"><title>2&#45;&gt;1</title>
<path fill="none" stroke="black" d="M47.397,-89.2263C42.1524,-76.6974 34.7148,-58.9298 28.6331,-44.4014"/>
<polygon fill="black" stroke="black" points="31.773,-42.8379 24.683,-34.965 25.3159,-45.5409 31.773,-42.8379"/>
<text text-anchor="middle" x="42.5" y="-58.3" font-family="Times,serif" font-size="14.00">a</text>
</g>
<!-- 3 -->
<g id="node4" class="node"><title>3</title>
<ellipse fill="lightblue" stroke="black" cx="70" cy="-286" rx="17.5909" ry="18"/>
<ellipse fill="none" stroke="black" cx="70" cy="-286" rx="21.5" ry="22"/>
<text text-anchor="middle" x="70" y="-282.3" font-family="Times,serif" font-size="14.00">3</text>
</g>
<!-- 3&#45;&gt;0 -->
<g id="edge5" class="edge"><title>3&#45;&gt;0</title>
<path fill="none" stroke="black" d="M61.9716,-265.471C56.5146,-252.198 49.2452,-234.515 43.3534,-220.184"/>
<polygon fill="black" stroke="black" points="46.5732,-218.811 39.5337,-210.893 40.0989,-221.472 46.5732,-218.811"/>
<text text-anchor="middle" x="56.5" y="-234.3" font-family="Times,serif" font-size="14.00">b</text>
</g>
<!-- 3&#45;&gt;2 -->
<g id="edge6" class="edge"><title>3&#45;&gt;2</title>
<path fill="none" stroke="black" d="M71.3779,-263.956C72.7697,-235.888 73.744,-184.768 66,-142 65.4456,-138.938 64.6714,-135.782 63.7805,-132.677"/>
<polygon fill="black" stroke="black" points="67.0887,-131.532 60.6623,-123.109 60.4332,-133.701 67.0887,-131.532"/>
<text text-anchor="middle" x="75.5" y="-190.3" font-family="Times,serif" font-size="14.00">a</text>
</g>
</g>
</svg>
