<?xml version="1.0" encoding="UTF-8" standalone="no"?>
<!DOCTYPE svg PUBLIC "-//W3C//DTD SVG 1.1//EN"
 "http://www.w3.org/Graphics/SVG/1.1/DTD/svg11.dtd">
<!-- Generated by graphviz version 2.36.0 (20140111.2315)
 -->
<!-- Title: %3 Pages: 1 -->
<svg width="136pt" height="404pt"
 viewBox="0.00 0.00 136.00 404.00" xmlns="http://www.w3.org/2000/svg" xmlns:xlink="http://www.w3.org/1999/xlink">
<g id="graph0" class="graph" transform="scale(1 1) rotate(0) translate(4 400)">
<title>%3</title>
<polygon fill="white" stroke="none" points="-4,4 -4,-400 132,-400 132,4 -4,4"/>
<!-- 0 -->
<g id="node1" class="node"><title>0</title>
<ellipse fill="green" stroke="black" cx="64" cy="-290" rx="18" ry="18"/>
<text text-anchor="middle" x="64" y="-286.3" font-family="Times,serif" font-size="14.00">0</text>
</g>
<!-- 1 -->
<g id="node2" class="node"><title>1</title>
<ellipse fill="lightblue" stroke="black" cx="24" cy="-198" rx="17.5909" ry="18"/>
<ellipse fill="none" stroke="black" cx="24" cy="-198" rx="21.5" ry="22"/>
<text text-anchor="middle" x="24" y="-194.3" font-family="Times,serif" font-size="14.00">1</text>
</g>
<!-- 0&#45;&gt;1 -->
<g id="edge1" class="edge"><title>0&#45;&gt;1</title>
<path fill="none" stroke="black" d="M48.9886,-279.608C40.5986,-273.452 30.8756,-264.592 26,-254 22.6386,-246.698 21.2705,-238.255 20.9487,-230.21"/>
<polygon fill="black" stroke="black" points="24.4506,-230.026 21.0487,-219.992 17.4509,-229.957 24.4506,-230.026"/>
<text text-anchor="middle" x="29.5" y="-242.3" font-family="Times,serif" font-size="14.00">a</text>
</g>
<!-- 3 -->
<g id="node4" class="node"><title>3</title>
<ellipse fill="lightblue" stroke="black" cx="59" cy="-18" rx="18" ry="18"/>
<text text-anchor="middle" x="59" y="-14.3" font-family="Times,serif" font-size="14.00">3</text>
</g>
<!-- 0&#45;&gt;3 -->
<g id="edge2" class="edge"><title>0&#45;&gt;3</title>
<path fill="none" stroke="black" d="M64.0412,-271.892C64.0776,-233.113 63.8493,-135.554 61,-54 60.9107,-51.4453 60.7969,-48.7868 60.6691,-46.1273"/>
<polygon fill="black" stroke="black" points="64.1609,-45.8801 60.1281,-36.0829 57.171,-46.2566 64.1609,-45.8801"/>
<text text-anchor="middle" x="66.5" y="-146.3" font-family="Times,serif" font-size="14.00">b</text>
</g>
<!-- 1&#45;&gt;0 -->
<g id="edge3" class="edge"><title>1&#45;&gt;0</title>
<path fill="none" stroke="black" d="M32.5565,-218.252C38.4894,-231.601 46.4473,-249.506 52.8727,-263.964"/>
<polygon fill="black" stroke="black" points="49.7727,-265.607 57.0325,-273.323 56.1694,-262.764 49.7727,-265.607"/>
<text text-anchor="middle" x="50.5" y="-242.3" font-family="Times,serif" font-size="14.00">a</text>
</g>
<!-- 2 -->
<g id="node3" class="node"><title>2</title>
<ellipse fill="lightblue" stroke="black" cx="18" cy="-106" rx="18" ry="18"/>
<text text-anchor="middle" x="18" y="-102.3" font-family="Times,serif" font-size="14.00">2</text>
</g>
<!-- 1&#45;&gt;2 -->
<g id="edge4" class="edge"><title>1&#45;&gt;2</title>
<path fill="none" stroke="black" d="M16.6025,-177.024C14.7126,-170.997 12.948,-164.305 12,-158 10.8152,-150.121 11.189,-141.527 12.1775,-133.678"/>
<polygon fill="black" stroke="black" points="15.6701,-134.005 13.8179,-123.573 8.76059,-132.883 15.6701,-134.005"/>
<text text-anchor="middle" x="15.5" y="-146.3" font-family="Times,serif" font-size="14.00">b</text>
</g>
<!-- 2&#45;&gt;1 -->
<g id="edge5" class="edge"><title>2&#45;&gt;1</title>
<path fill="none" stroke="black" d="M19.1312,-123.968C19.9097,-135.646 20.9673,-151.51 21.8979,-165.469"/>
<polygon fill="black" stroke="black" points="18.4206,-165.926 22.5781,-175.671 25.4051,-165.461 18.4206,-165.926"/>
<text text-anchor="middle" x="25.5" y="-146.3" font-family="Times,serif" font-size="14.00">a</text>
</g>
<!-- 2&#45;&gt;3 -->
<g id="edge6" class="edge"><title>2&#45;&gt;3</title>
<path fill="none" stroke="black" d="M13.5119,-88.13C11.6665,-77.7926 10.9778,-64.5634 16,-54 20.04,-45.5024 27.2641,-38.3913 34.6517,-32.8467"/>
<polygon fill="black" stroke="black" points="36.8852,-35.562 43.2182,-27.0682 32.9707,-29.7588 36.8852,-35.562"/>
<text text-anchor="middle" x="19.5" y="-58.3" font-family="Times,serif" font-size="14.00">b</text>
</g>
<!-- 3&#45;&gt;2 -->
<g id="edge7" class="edge"><title>3&#45;&gt;2</title>
<path fill="none" stroke="black" d="M51.5276,-34.6737C45.4727,-47.3742 36.8288,-65.5054 29.8344,-80.1766"/>
<polygon fill="black" stroke="black" points="26.6642,-78.6934 25.52,-89.2263 32.9828,-81.7058 26.6642,-78.6934"/>
<text text-anchor="middle" x="50.5" y="-58.3" font-family="Times,serif" font-size="14.00">b,a</text>
</g>
<!-- 4 -->
<g id="node5" class="node"><title>4</title>
<ellipse fill="lightblue" stroke="black" cx="101" cy="-378" rx="18" ry="18"/>
<text text-anchor="middle" x="101" y="-374.3" font-family="Times,serif" font-size="14.00">4</text>
</g>
<!-- 4&#45;&gt;0 -->
<g id="edge8" class="edge"><title>4&#45;&gt;0</title>
<path fill="none" stroke="black" d="M94.2136,-361.226C88.8233,-348.697 81.1791,-330.93 74.9285,-316.401"/>
<polygon fill="black" stroke="black" points="78.0359,-314.768 70.8686,-306.965 71.6057,-317.534 78.0359,-314.768"/>
<text text-anchor="middle" x="88.5" y="-330.3" font-family="Times,serif" font-size="14.00">b</text>
</g>
<!-- 4&#45;&gt;3 -->
<g id="edge9" class="edge"><title>4&#45;&gt;3</title>
<path fill="none" stroke="black" d="M107.109,-360.774C112.991,-343.676 121,-315.833 121,-291 121,-291 121,-291 121,-105 121,-76.9078 98.9625,-51.744 81.1646,-36.0021"/>
<polygon fill="black" stroke="black" points="83.2861,-33.2131 73.3799,-29.4557 78.7807,-38.5706 83.2861,-33.2131"/>
<text text-anchor="middle" x="124.5" y="-194.3" font-family="Times,serif" font-size="14.00">a</text>
</g>
</g>
</svg>
