<?xml version="1.0" encoding="UTF-8" standalone="no"?>
<!DOCTYPE svg PUBLIC "-//W3C//DTD SVG 1.1//EN"
 "http://www.w3.org/Graphics/SVG/1.1/DTD/svg11.dtd">
<!-- Generated by graphviz version 2.36.0 (20140111.2315)
 -->
<!-- Title: %3 Pages: 1 -->
<svg width="113pt" height="404pt"
 viewBox="0.00 0.00 113.00 404.00" xmlns="http://www.w3.org/2000/svg" xmlns:xlink="http://www.w3.org/1999/xlink">
<g id="graph0" class="graph" transform="scale(1 1) rotate(0) translate(4 400)">
<title>%3</title>
<polygon fill="white" stroke="none" points="-4,4 -4,-400 109,-400 109,4 -4,4"/>
<!-- 0 -->
<g id="node1" class="node"><title>0</title>
<ellipse fill="lightblue" stroke="black" cx="58" cy="-374" rx="17.5909" ry="18"/>
<ellipse fill="none" stroke="black" cx="58" cy="-374" rx="21.5" ry="22"/>
<text text-anchor="middle" x="58" y="-370.3" font-family="Times,serif" font-size="14.00">0</text>
</g>
<!-- 0&#45;&gt;0 -->
<g id="edge1" class="edge"><title>0&#45;&gt;0</title>
<path fill="none" stroke="black" d="M78.0663,-382.734C88.0736,-383.943 97,-381.031 97,-374 97,-369.496 93.3366,-366.682 88.0725,-365.559"/>
<polygon fill="black" stroke="black" points="88.1646,-362.061 78.0663,-365.266 87.9594,-369.057 88.1646,-362.061"/>
<text text-anchor="middle" x="100.5" y="-370.3" font-family="Times,serif" font-size="14.00">a</text>
</g>
<!-- 2 -->
<g id="node3" class="node"><title>2</title>
<ellipse fill="lightblue" stroke="black" cx="18" cy="-282" rx="18" ry="18"/>
<text text-anchor="middle" x="18" y="-278.3" font-family="Times,serif" font-size="14.00">2</text>
</g>
<!-- 0&#45;&gt;2 -->
<g id="edge2" class="edge"><title>0&#45;&gt;2</title>
<path fill="none" stroke="black" d="M49.3206,-353.471C43.4212,-340.198 35.5624,-322.515 29.1928,-308.184"/>
<polygon fill="black" stroke="black" points="32.3232,-306.609 25.0634,-298.893 25.9265,-309.452 32.3232,-306.609"/>
<text text-anchor="middle" x="44.5" y="-322.3" font-family="Times,serif" font-size="14.00">b</text>
</g>
<!-- 1 -->
<g id="node2" class="node"><title>1</title>
<ellipse fill="green" stroke="black" cx="50" cy="-18" rx="18" ry="18"/>
<text text-anchor="middle" x="50" y="-14.3" font-family="Times,serif" font-size="14.00">1</text>
</g>
<!-- 3 -->
<g id="node4" class="node"><title>3</title>
<ellipse fill="lightblue" stroke="black" cx="70" cy="-106" rx="18" ry="18"/>
<text text-anchor="middle" x="70" y="-102.3" font-family="Times,serif" font-size="14.00">3</text>
</g>
<!-- 1&#45;&gt;3 -->
<g id="edge3" class="edge"><title>1&#45;&gt;3</title>
<path fill="none" stroke="black" d="M53.8751,-35.6629C56.6686,-47.6751 60.4993,-64.147 63.726,-78.022"/>
<polygon fill="black" stroke="black" points="60.3744,-79.0619 66.0486,-88.0092 67.1925,-77.4763 60.3744,-79.0619"/>
<text text-anchor="middle" x="64.5" y="-58.3" font-family="Times,serif" font-size="14.00">a</text>
</g>
<!-- 4 -->
<g id="node5" class="node"><title>4</title>
<ellipse fill="lightblue" stroke="black" cx="50" cy="-194" rx="18" ry="18"/>
<text text-anchor="middle" x="50" y="-190.3" font-family="Times,serif" font-size="14.00">4</text>
</g>
<!-- 1&#45;&gt;4 -->
<g id="edge4" class="edge"><title>1&#45;&gt;4</title>
<path fill="none" stroke="black" d="M45.661,-35.5886C42.2639,-49.4771 37.8199,-69.8785 36,-88 34.4012,-103.92 34.4012,-108.08 36,-124 37.4218,-138.157 40.4452,-153.706 43.3198,-166.454"/>
<polygon fill="black" stroke="black" points="39.965,-167.478 45.661,-176.411 46.7792,-165.876 39.965,-167.478"/>
<text text-anchor="middle" x="39.5" y="-102.3" font-family="Times,serif" font-size="14.00">b</text>
</g>
<!-- 2&#45;&gt;4 -->
<g id="edge5" class="edge"><title>2&#45;&gt;4</title>
<path fill="none" stroke="black" d="M24.019,-264.824C28.6226,-252.452 35.0619,-235.146 40.3779,-220.859"/>
<polygon fill="black" stroke="black" points="43.8009,-221.696 44.008,-211.103 37.2404,-219.255 43.8009,-221.696"/>
<text text-anchor="middle" x="45.5" y="-234.3" font-family="Times,serif" font-size="14.00">b,a</text>
</g>
<!-- 3&#45;&gt;1 -->
<g id="edge6" class="edge"><title>3&#45;&gt;1</title>
<path fill="none" stroke="black" d="M61.1938,-90.1685C58.035,-84.1196 54.8094,-76.9282 53,-70 51.0278,-62.4482 50.0569,-54.0618 49.6321,-46.3071"/>
<polygon fill="black" stroke="black" points="53.1294,-46.1588 49.3485,-36.2616 46.1322,-46.3565 53.1294,-46.1588"/>
<text text-anchor="middle" x="56.5" y="-58.3" font-family="Times,serif" font-size="14.00">b</text>
</g>
<!-- 3&#45;&gt;4 -->
<g id="edge7" class="edge"><title>3&#45;&gt;4</title>
<path fill="none" stroke="black" d="M66.1249,-123.663C63.3314,-135.675 59.5007,-152.147 56.274,-166.022"/>
<polygon fill="black" stroke="black" points="52.8075,-165.476 53.9514,-176.009 59.6256,-167.062 52.8075,-165.476"/>
<text text-anchor="middle" x="64.5" y="-146.3" font-family="Times,serif" font-size="14.00">a</text>
</g>
<!-- 4&#45;&gt;0 -->
<g id="edge8" class="edge"><title>4&#45;&gt;0</title>
<path fill="none" stroke="black" d="M54.5979,-211.603C55.9822,-217.378 57.3151,-223.93 58,-230 62.2947,-268.063 61.4126,-312.188 60.0338,-341.243"/>
<polygon fill="black" stroke="black" points="56.5194,-341.427 59.4908,-351.596 63.5098,-341.793 56.5194,-341.427"/>
<text text-anchor="middle" x="64.5" y="-278.3" font-family="Times,serif" font-size="14.00">a</text>
</g>
<!-- 4&#45;&gt;3 -->
<g id="edge9" class="edge"><title>4&#45;&gt;3</title>
<path fill="none" stroke="black" d="M49.3485,-175.738C49.3813,-165.735 50.1313,-152.985 53,-142 53.9612,-138.319 55.3222,-134.565 56.8604,-130.946"/>
<polygon fill="black" stroke="black" points="60.0609,-132.366 61.1938,-121.831 53.739,-129.36 60.0609,-132.366"/>
<text text-anchor="middle" x="56.5" y="-146.3" font-family="Times,serif" font-size="14.00">b</text>
</g>
</g>
</svg>
