<?xml version="1.0" encoding="UTF-8" standalone="no"?>
<!DOCTYPE svg PUBLIC "-//W3C//DTD SVG 1.1//EN"
 "http://www.w3.org/Graphics/SVG/1.1/DTD/svg11.dtd">
<!-- Generated by graphviz version 2.36.0 (20140111.2315)
 -->
<!-- Title: %3 Pages: 1 -->
<svg width="151pt" height="404pt"
 viewBox="0.00 0.00 151.00 404.00" xmlns="http://www.w3.org/2000/svg" xmlns:xlink="http://www.w3.org/1999/xlink">
<g id="graph0" class="graph" transform="scale(1 1) rotate(0) translate(4 400)">
<title>%3</title>
<polygon fill="white" stroke="none" points="-4,4 -4,-400 147,-400 147,4 -4,4"/>
<!-- 0 -->
<g id="node1" class="node"><title>0</title>
<ellipse fill="lightblue" stroke="black" cx="57" cy="-290" rx="18" ry="18"/>
<text text-anchor="middle" x="57" y="-286.3" font-family="Times,serif" font-size="14.00">0</text>
</g>
<!-- 1 -->
<g id="node2" class="node"><title>1</title>
<ellipse fill="lightblue" stroke="black" cx="57" cy="-202" rx="18" ry="18"/>
<text text-anchor="middle" x="57" y="-198.3" font-family="Times,serif" font-size="14.00">1</text>
</g>
<!-- 0&#45;&gt;1 -->
<g id="edge1" class="edge"><title>0&#45;&gt;1</title>
<path fill="none" stroke="black" d="M57,-271.597C57,-259.746 57,-243.817 57,-230.292"/>
<polygon fill="black" stroke="black" points="60.5001,-230.084 57,-220.084 53.5001,-230.084 60.5001,-230.084"/>
<text text-anchor="middle" x="60.5" y="-242.3" font-family="Times,serif" font-size="14.00">b</text>
</g>
<!-- 4 -->
<g id="node5" class="node"><title>4</title>
<ellipse fill="lightblue" stroke="black" cx="18" cy="-114" rx="18" ry="18"/>
<text text-anchor="middle" x="18" y="-110.3" font-family="Times,serif" font-size="14.00">4</text>
</g>
<!-- 0&#45;&gt;4 -->
<g id="edge2" class="edge"><title>0&#45;&gt;4</title>
<path fill="none" stroke="black" d="M47.5574,-274.351C39.4014,-260.838 28.1421,-239.913 23,-220 16.3251,-194.151 15.646,-163.558 16.2899,-142.083"/>
<polygon fill="black" stroke="black" points="19.7887,-142.183 16.707,-132.047 12.7947,-141.893 19.7887,-142.183"/>
<text text-anchor="middle" x="26.5" y="-198.3" font-family="Times,serif" font-size="14.00">a</text>
</g>
<!-- 1&#45;&gt;1 -->
<g id="edge3" class="edge"><title>1&#45;&gt;1</title>
<path fill="none" stroke="black" d="M73.2903,-209.668C83.3892,-211.517 93,-208.961 93,-202 93,-197.541 89.0557,-194.889 83.5656,-194.045"/>
<polygon fill="black" stroke="black" points="83.1887,-190.554 73.2903,-194.332 83.384,-197.552 83.1887,-190.554"/>
<text text-anchor="middle" x="96.5" y="-198.3" font-family="Times,serif" font-size="14.00">a</text>
</g>
<!-- 1&#45;&gt;4 -->
<g id="edge4" class="edge"><title>1&#45;&gt;4</title>
<path fill="none" stroke="black" d="M49.8468,-185.226C44.1294,-172.619 36.0062,-154.706 29.3951,-140.128"/>
<polygon fill="black" stroke="black" points="32.4255,-138.335 25.1079,-130.674 26.0504,-141.227 32.4255,-138.335"/>
<text text-anchor="middle" x="43.5" y="-154.3" font-family="Times,serif" font-size="14.00">b</text>
</g>
<!-- 2 -->
<g id="node3" class="node"><title>2</title>
<ellipse fill="lightblue" stroke="black" cx="111" cy="-378" rx="18" ry="18"/>
<text text-anchor="middle" x="111" y="-374.3" font-family="Times,serif" font-size="14.00">2</text>
</g>
<!-- 2&#45;&gt;0 -->
<g id="edge5" class="edge"><title>2&#45;&gt;0</title>
<path fill="none" stroke="black" d="M101.84,-362.411C93.6164,-349.315 81.3971,-329.855 71.7902,-314.555"/>
<polygon fill="black" stroke="black" points="74.4871,-312.268 66.2053,-305.66 68.5589,-315.99 74.4871,-312.268"/>
<text text-anchor="middle" x="91.5" y="-330.3" font-family="Times,serif" font-size="14.00">a</text>
</g>
<!-- 3 -->
<g id="node4" class="node"><title>3</title>
<ellipse fill="green" stroke="black" cx="82" cy="-22" rx="17.5909" ry="18"/>
<ellipse fill="none" stroke="black" cx="82" cy="-22" rx="21.5" ry="22"/>
<text text-anchor="middle" x="82" y="-18.3" font-family="Times,serif" font-size="14.00">3</text>
</g>
<!-- 2&#45;&gt;3 -->
<g id="edge6" class="edge"><title>2&#45;&gt;3</title>
<path fill="none" stroke="black" d="M118.366,-361.542C125.74,-344.622 136,-316.5 136,-291 136,-291 136,-291 136,-113 136,-87.1622 119.433,-62.3353 104.651,-45.3265"/>
<polygon fill="black" stroke="black" points="106.95,-42.6533 97.619,-37.6345 101.784,-47.3766 106.95,-42.6533"/>
<text text-anchor="middle" x="139.5" y="-198.3" font-family="Times,serif" font-size="14.00">b</text>
</g>
<!-- 3&#45;&gt;1 -->
<g id="edge7" class="edge"><title>3&#45;&gt;1</title>
<path fill="none" stroke="black" d="M80.1731,-43.9574C78.1439,-65.949 74.546,-101.495 70,-132 67.9085,-146.035 65.0311,-161.573 62.515,-174.345"/>
<polygon fill="black" stroke="black" points="59.0474,-173.836 60.5117,-184.329 65.9106,-175.213 59.0474,-173.836"/>
<text text-anchor="middle" x="77.5" y="-110.3" font-family="Times,serif" font-size="14.00">a</text>
</g>
<!-- 3&#45;&gt;4 -->
<g id="edge8" class="edge"><title>3&#45;&gt;4</title>
<path fill="none" stroke="black" d="M69.6602,-40.3529C59.5211,-54.6109 45.0829,-74.9146 34.0467,-90.4344"/>
<polygon fill="black" stroke="black" points="30.9429,-88.7596 28,-98.9375 36.6476,-92.8163 30.9429,-88.7596"/>
<text text-anchor="middle" x="56.5" y="-66.3" font-family="Times,serif" font-size="14.00">b</text>
</g>
<!-- 4&#45;&gt;3 -->
<g id="edge9" class="edge"><title>4&#45;&gt;3</title>
<path fill="none" stroke="black" d="M20.3615,-95.8091C22.4233,-85.3508 26.1988,-72.1073 33,-62 38.7663,-53.4305 47.0008,-45.8505 55.0775,-39.7057"/>
<polygon fill="black" stroke="black" points="57.2051,-42.4874 63.327,-33.8403 53.1489,-36.7824 57.2051,-42.4874"/>
<text text-anchor="middle" x="36.5" y="-66.3" font-family="Times,serif" font-size="14.00">b</text>
</g>
<!-- 4&#45;&gt;4 -->
<g id="edge10" class="edge"><title>4&#45;&gt;4</title>
<path fill="none" stroke="black" d="M34.2903,-121.668C44.3892,-123.517 54,-120.961 54,-114 54,-109.541 50.0557,-106.889 44.5656,-106.045"/>
<polygon fill="black" stroke="black" points="44.1887,-102.554 34.2903,-106.332 44.384,-109.552 44.1887,-102.554"/>
<text text-anchor="middle" x="57.5" y="-110.3" font-family="Times,serif" font-size="14.00">a</text>
</g>
</g>
</svg>
