<?xml version="1.0" encoding="UTF-8" standalone="no"?>
<!DOCTYPE svg PUBLIC "-//W3C//DTD SVG 1.1//EN"
 "http://www.w3.org/Graphics/SVG/1.1/DTD/svg11.dtd">
<!-- Generated by graphviz version 2.36.0 (20140111.2315)
 -->
<!-- Title: %3 Pages: 1 -->
<svg width="145pt" height="228pt"
 viewBox="0.00 0.00 145.00 228.00" xmlns="http://www.w3.org/2000/svg" xmlns:xlink="http://www.w3.org/1999/xlink">
<g id="graph0" class="graph" transform="scale(1 1) rotate(0) translate(4 224)">
<title>%3</title>
<polygon fill="white" stroke="none" points="-4,4 -4,-224 141,-224 141,4 -4,4"/>
<!-- 0 -->
<g id="node1" class="node"><title>0</title>
<ellipse fill="lightblue" stroke="black" cx="18" cy="-106" rx="18" ry="18"/>
<text text-anchor="middle" x="18" y="-102.3" font-family="Times,serif" font-size="14.00">0</text>
</g>
<!-- 1 -->
<g id="node2" class="node"><title>1</title>
<ellipse fill="lightblue" stroke="black" cx="65" cy="-18" rx="18" ry="18"/>
<text text-anchor="middle" x="65" y="-14.3" font-family="Times,serif" font-size="14.00">1</text>
</g>
<!-- 0&#45;&gt;1 -->
<g id="edge1" class="edge"><title>0&#45;&gt;1</title>
<path fill="none" stroke="black" d="M12.8658,-88.4742C10.5906,-78.021 9.51134,-64.5418 15,-54 20.2657,-43.8864 29.9392,-36.0911 39.3844,-30.452"/>
<polygon fill="black" stroke="black" points="41.0695,-33.5198 48.219,-25.7009 37.754,-27.3548 41.0695,-33.5198"/>
<text text-anchor="middle" x="23.5" y="-58.3" font-family="Times,serif" font-size="14.00">b,a</text>
</g>
<!-- 1&#45;&gt;0 -->
<g id="edge2" class="edge"><title>1&#45;&gt;0</title>
<path fill="none" stroke="black" d="M56.6701,-34.242C49.674,-47.0433 39.5452,-65.5768 31.4088,-80.4647"/>
<polygon fill="black" stroke="black" points="28.1271,-79.1714 26.4027,-89.6249 34.2696,-82.5284 28.1271,-79.1714"/>
<text text-anchor="middle" x="49.5" y="-58.3" font-family="Times,serif" font-size="14.00">a</text>
</g>
<!-- 1&#45;&gt;1 -->
<g id="edge3" class="edge"><title>1&#45;&gt;1</title>
<path fill="none" stroke="black" d="M81.2903,-25.6679C91.3892,-27.5169 101,-24.9609 101,-18 101,-13.5406 97.0557,-10.8891 91.5656,-10.0454"/>
<polygon fill="black" stroke="black" points="91.1887,-6.55441 81.2903,-10.3321 91.384,-13.5517 91.1887,-6.55441"/>
<text text-anchor="middle" x="104.5" y="-14.3" font-family="Times,serif" font-size="14.00">b</text>
</g>
<!-- 2 -->
<g id="node3" class="node"><title>2</title>
<ellipse fill="green" stroke="black" cx="95" cy="-198" rx="17.5909" ry="18"/>
<ellipse fill="none" stroke="black" cx="95" cy="-198" rx="21.5" ry="22"/>
<text text-anchor="middle" x="95" y="-194.3" font-family="Times,serif" font-size="14.00">2</text>
</g>
<!-- 2&#45;&gt;1 -->
<g id="edge4" class="edge"><title>2&#45;&gt;1</title>
<path fill="none" stroke="black" d="M91.4999,-176.233C86.0651,-143.986 75.5965,-81.8725 69.5715,-46.1245"/>
<polygon fill="black" stroke="black" points="72.9682,-45.2182 67.8549,-35.939 66.0656,-46.3816 72.9682,-45.2182"/>
<text text-anchor="middle" x="86.5" y="-102.3" font-family="Times,serif" font-size="14.00">b</text>
</g>
<!-- 3 -->
<g id="node4" class="node"><title>3</title>
<ellipse fill="lightblue" stroke="black" cx="119" cy="-106" rx="18" ry="18"/>
<text text-anchor="middle" x="119" y="-102.3" font-family="Times,serif" font-size="14.00">3</text>
</g>
<!-- 2&#45;&gt;3 -->
<g id="edge5" class="edge"><title>2&#45;&gt;3</title>
<path fill="none" stroke="black" d="M100.446,-176.578C103.84,-163.849 108.244,-147.335 111.909,-133.59"/>
<polygon fill="black" stroke="black" points="115.345,-134.291 114.539,-123.727 108.581,-132.488 115.345,-134.291"/>
<text text-anchor="middle" x="113.5" y="-146.3" font-family="Times,serif" font-size="14.00">a</text>
</g>
<!-- 3&#45;&gt;1 -->
<g id="edge6" class="edge"><title>3&#45;&gt;1</title>
<path fill="none" stroke="black" d="M110.775,-89.5817C105.178,-79.3364 97.4593,-65.6724 90,-54 87.326,-49.8157 84.3543,-45.4435 81.4199,-41.2634"/>
<polygon fill="black" stroke="black" points="84.2242,-39.1678 75.5567,-33.0748 78.5327,-43.2431 84.2242,-39.1678"/>
<text text-anchor="middle" x="108.5" y="-58.3" font-family="Times,serif" font-size="14.00">b,a</text>
</g>
</g>
</svg>
