<?xml version="1.0" encoding="UTF-8" standalone="no"?>
<!DOCTYPE svg PUBLIC "-//W3C//DTD SVG 1.1//EN"
 "http://www.w3.org/Graphics/SVG/1.1/DTD/svg11.dtd">
<!-- Generated by graphviz version 2.36.0 (20140111.2315)
 -->
<!-- Title: %3 Pages: 1 -->
<svg width="129pt" height="404pt"
 viewBox="0.00 0.00 129.00 404.00" xmlns="http://www.w3.org/2000/svg" xmlns:xlink="http://www.w3.org/1999/xlink">
<g id="graph0" class="graph" transform="scale(1 1) rotate(0) translate(4 400)">
<title>%3</title>
<polygon fill="white" stroke="none" points="-4,4 -4,-400 125,-400 125,4 -4,4"/>
<!-- 0 -->
<g id="node1" class="node"><title>0</title>
<ellipse fill="lightblue" stroke="black" cx="89" cy="-378" rx="18" ry="18"/>
<text text-anchor="middle" x="89" y="-374.3" font-family="Times,serif" font-size="14.00">0</text>
</g>
<!-- 1 -->
<g id="node2" class="node"><title>1</title>
<ellipse fill="lightblue" stroke="black" cx="37" cy="-290" rx="18" ry="18"/>
<text text-anchor="middle" x="37" y="-286.3" font-family="Times,serif" font-size="14.00">1</text>
</g>
<!-- 0&#45;&gt;1 -->
<g id="edge1" class="edge"><title>0&#45;&gt;1</title>
<path fill="none" stroke="black" d="M79.9423,-362.02C72.0385,-348.948 60.4348,-329.758 51.2815,-314.619"/>
<polygon fill="black" stroke="black" points="54.1232,-312.555 45.9539,-305.808 48.1331,-316.177 54.1232,-312.555"/>
<text text-anchor="middle" x="70.5" y="-330.3" font-family="Times,serif" font-size="14.00">b</text>
</g>
<!-- 3 -->
<g id="node4" class="node"><title>3</title>
<ellipse fill="green" stroke="black" cx="52" cy="-18" rx="18" ry="18"/>
<text text-anchor="middle" x="52" y="-14.3" font-family="Times,serif" font-size="14.00">3</text>
</g>
<!-- 0&#45;&gt;3 -->
<g id="edge2" class="edge"><title>0&#45;&gt;3</title>
<path fill="none" stroke="black" d="M96.3656,-361.542C103.74,-344.622 114,-316.5 114,-291 114,-291 114,-291 114,-105 114,-76.9078 91.9625,-51.744 74.1646,-36.0021"/>
<polygon fill="black" stroke="black" points="76.2861,-33.2131 66.3799,-29.4557 71.7807,-38.5706 76.2861,-33.2131"/>
<text text-anchor="middle" x="117.5" y="-194.3" font-family="Times,serif" font-size="14.00">a</text>
</g>
<!-- 1&#45;&gt;1 -->
<g id="edge3" class="edge"><title>1&#45;&gt;1</title>
<path fill="none" stroke="black" d="M53.2903,-297.668C63.3892,-299.517 73,-296.961 73,-290 73,-285.541 69.0557,-282.889 63.5656,-282.045"/>
<polygon fill="black" stroke="black" points="63.1887,-278.554 53.2903,-282.332 63.384,-285.552 63.1887,-278.554"/>
<text text-anchor="middle" x="76.5" y="-286.3" font-family="Times,serif" font-size="14.00">a</text>
</g>
<!-- 4 -->
<g id="node5" class="node"><title>4</title>
<ellipse fill="lightblue" stroke="black" cx="22" cy="-198" rx="17.5909" ry="18"/>
<ellipse fill="none" stroke="black" cx="22" cy="-198" rx="21.5" ry="22"/>
<text text-anchor="middle" x="22" y="-194.3" font-family="Times,serif" font-size="14.00">4</text>
</g>
<!-- 1&#45;&gt;4 -->
<g id="edge4" class="edge"><title>1&#45;&gt;4</title>
<path fill="none" stroke="black" d="M34.1786,-272.072C32.2174,-260.305 29.5456,-244.273 27.2041,-230.225"/>
<polygon fill="black" stroke="black" points="30.5917,-229.26 25.4952,-219.971 23.6869,-230.411 30.5917,-229.26"/>
<text text-anchor="middle" x="33.5" y="-242.3" font-family="Times,serif" font-size="14.00">b</text>
</g>
<!-- 2 -->
<g id="node3" class="node"><title>2</title>
<ellipse fill="lightblue" stroke="black" cx="62" cy="-106" rx="18" ry="18"/>
<text text-anchor="middle" x="62" y="-102.3" font-family="Times,serif" font-size="14.00">2</text>
</g>
<!-- 2&#45;&gt;3 -->
<g id="edge5" class="edge"><title>2&#45;&gt;3</title>
<path fill="none" stroke="black" d="M56.8971,-88.4221C55.3453,-82.649 53.8315,-76.0921 53,-70 51.9461,-62.2784 51.4986,-53.8391 51.3651,-46.0878"/>
<polygon fill="black" stroke="black" points="54.8652,-46.0712 51.3503,-36.0765 47.8652,-46.0817 54.8652,-46.0712"/>
<text text-anchor="middle" x="61.5" y="-58.3" font-family="Times,serif" font-size="14.00">b,a</text>
</g>
<!-- 3&#45;&gt;2 -->
<g id="edge6" class="edge"><title>3&#45;&gt;2</title>
<path fill="none" stroke="black" d="M61.5423,-33.7168C64.917,-39.7499 68.2959,-46.9605 70,-54 71.9354,-61.9949 71.4547,-70.8125 70.0416,-78.8353"/>
<polygon fill="black" stroke="black" points="66.583,-78.2602 67.7717,-88.7881 73.4078,-79.8167 66.583,-78.2602"/>
<text text-anchor="middle" x="74.5" y="-58.3" font-family="Times,serif" font-size="14.00">a</text>
</g>
<!-- 3&#45;&gt;4 -->
<g id="edge7" class="edge"><title>3&#45;&gt;4</title>
<path fill="none" stroke="black" d="M45.0711,-34.8187C39.392,-48.5809 31.7084,-69.2109 28,-88 22.891,-113.886 21.5643,-143.853 21.4171,-165.807"/>
<polygon fill="black" stroke="black" points="17.9171,-165.892 21.4282,-175.888 24.9171,-165.884 17.9171,-165.892"/>
<text text-anchor="middle" x="31.5" y="-102.3" font-family="Times,serif" font-size="14.00">b</text>
</g>
<!-- 4&#45;&gt;2 -->
<g id="edge8" class="edge"><title>4&#45;&gt;2</title>
<path fill="none" stroke="black" d="M30.6794,-177.471C36.5788,-164.198 44.4376,-146.515 50.8072,-132.184"/>
<polygon fill="black" stroke="black" points="54.0735,-133.452 54.9366,-122.893 47.6768,-130.609 54.0735,-133.452"/>
<text text-anchor="middle" x="48.5" y="-146.3" font-family="Times,serif" font-size="14.00">a</text>
</g>
<!-- 4&#45;&gt;3 -->
<g id="edge9" class="edge"><title>4&#45;&gt;3</title>
<path fill="none" stroke="black" d="M16.4196,-176.67C11.2174,-154.594 5.20126,-118.414 12,-88 15.8532,-70.7625 25.7981,-53.5713 34.8072,-40.6602"/>
<polygon fill="black" stroke="black" points="37.7284,-42.5949 40.8083,-32.4576 32.0789,-38.4617 37.7284,-42.5949"/>
<text text-anchor="middle" x="15.5" y="-102.3" font-family="Times,serif" font-size="14.00">b</text>
</g>
</g>
</svg>
