<?xml version="1.0" encoding="UTF-8" standalone="no"?>
<!DOCTYPE svg PUBLIC "-//W3C//DTD SVG 1.1//EN"
 "http://www.w3.org/Graphics/SVG/1.1/DTD/svg11.dtd">
<!-- Generated by graphviz version 2.36.0 (20140111.2315)
 -->
<!-- Title: %3 Pages: 1 -->
<svg width="112pt" height="316pt"
 viewBox="0.00 0.00 112.33 316.00" xmlns="http://www.w3.org/2000/svg" xmlns:xlink="http://www.w3.org/1999/xlink">
<g id="graph0" class="graph" transform="scale(1 1) rotate(0) translate(4 312)">
<title>%3</title>
<polygon fill="white" stroke="none" points="-4,4 -4,-312 108.333,-312 108.333,4 -4,4"/>
<!-- 0 -->
<g id="node1" class="node"><title>0</title>
<ellipse fill="green" stroke="black" cx="31.3328" cy="-286" rx="17.5909" ry="18"/>
<ellipse fill="none" stroke="black" cx="31.3328" cy="-286" rx="21.5" ry="22"/>
<text text-anchor="middle" x="31.3328" y="-282.3" font-family="Times,serif" font-size="14.00">0</text>
</g>
<!-- 1 -->
<g id="node2" class="node"><title>1</title>
<ellipse fill="lightblue" stroke="black" cx="31.3328" cy="-106" rx="18" ry="18"/>
<text text-anchor="middle" x="31.3328" y="-102.3" font-family="Times,serif" font-size="14.00">1</text>
</g>
<!-- 0&#45;&gt;1 -->
<g id="edge1" class="edge"><title>0&#45;&gt;1</title>
<path fill="none" stroke="black" d="M21.5123,-266.082C14.6172,-251.687 5.99795,-231.153 2.33281,-212 -0.67434,-196.285 -0.829234,-191.684 2.33281,-176 5.46377,-160.47 12.1903,-144.082 18.3773,-131.175"/>
<polygon fill="black" stroke="black" points="21.5949,-132.566 22.9349,-122.056 15.3334,-129.437 21.5949,-132.566"/>
<text text-anchor="middle" x="5.83281" y="-190.3" font-family="Times,serif" font-size="14.00">a</text>
</g>
<!-- 3 -->
<g id="node4" class="node"><title>3</title>
<ellipse fill="lightblue" stroke="black" cx="74.3328" cy="-194" rx="18" ry="18"/>
<text text-anchor="middle" x="74.3328" y="-190.3" font-family="Times,serif" font-size="14.00">3</text>
</g>
<!-- 0&#45;&gt;3 -->
<g id="edge2" class="edge"><title>0&#45;&gt;3</title>
<path fill="none" stroke="black" d="M40.452,-265.913C46.8617,-252.498 55.4986,-234.421 62.4477,-219.876"/>
<polygon fill="black" stroke="black" points="65.7878,-221.003 66.9408,-210.472 59.4717,-217.986 65.7878,-221.003"/>
<text text-anchor="middle" x="59.8328" y="-234.3" font-family="Times,serif" font-size="14.00">b</text>
</g>
<!-- 1&#45;&gt;0 -->
<g id="edge3" class="edge"><title>1&#45;&gt;0</title>
<path fill="none" stroke="black" d="M31.3328,-124.114C31.3328,-153.909 31.3328,-215.727 31.3328,-253.464"/>
<polygon fill="black" stroke="black" points="27.8329,-253.882 31.3328,-263.882 34.8329,-253.882 27.8329,-253.882"/>
<text text-anchor="middle" x="34.8328" y="-190.3" font-family="Times,serif" font-size="14.00">b</text>
</g>
<!-- 2 -->
<g id="node3" class="node"><title>2</title>
<ellipse fill="lightblue" stroke="black" cx="61.3328" cy="-18" rx="18" ry="18"/>
<text text-anchor="middle" x="61.3328" y="-14.3" font-family="Times,serif" font-size="14.00">2</text>
</g>
<!-- 1&#45;&gt;2 -->
<g id="edge4" class="edge"><title>1&#45;&gt;2</title>
<path fill="none" stroke="black" d="M29.8621,-87.9462C29.583,-77.7824 30.2935,-64.7996 34.3328,-54 36.266,-48.8314 39.2434,-43.805 42.5258,-39.2487"/>
<polygon fill="black" stroke="black" points="45.493,-41.1432 49.0196,-31.1524 40.0325,-36.7634 45.493,-41.1432"/>
<text text-anchor="middle" x="37.8328" y="-58.3" font-family="Times,serif" font-size="14.00">a</text>
</g>
<!-- 2&#45;&gt;1 -->
<g id="edge5" class="edge"><title>2&#45;&gt;1</title>
<path fill="none" stroke="black" d="M55.7153,-35.1034C51.4061,-47.4565 45.3706,-64.7582 40.3827,-79.0569"/>
<polygon fill="black" stroke="black" points="36.9647,-78.2292 36.9756,-88.8241 43.5741,-80.5349 36.9647,-78.2292"/>
<text text-anchor="middle" x="51.8328" y="-58.3" font-family="Times,serif" font-size="14.00">a</text>
</g>
<!-- 2&#45;&gt;2 -->
<g id="edge6" class="edge"><title>2&#45;&gt;2</title>
<path fill="none" stroke="black" d="M77.6231,-25.6679C87.722,-27.5169 97.3328,-24.9609 97.3328,-18 97.3328,-13.5406 93.3885,-10.8891 87.8984,-10.0454"/>
<polygon fill="black" stroke="black" points="87.5215,-6.55441 77.6231,-10.3321 87.7169,-13.5517 87.5215,-6.55441"/>
<text text-anchor="middle" x="100.833" y="-14.3" font-family="Times,serif" font-size="14.00">b</text>
</g>
<!-- 3&#45;&gt;1 -->
<g id="edge7" class="edge"><title>3&#45;&gt;1</title>
<path fill="none" stroke="black" d="M66.6453,-177.625C60.2645,-164.863 51.0689,-146.472 43.661,-131.656"/>
<polygon fill="black" stroke="black" points="46.7015,-129.911 39.0988,-122.532 40.4405,-133.041 46.7015,-129.911"/>
<text text-anchor="middle" x="59.8328" y="-146.3" font-family="Times,serif" font-size="14.00">a</text>
</g>
<!-- 3&#45;&gt;2 -->
<g id="edge8" class="edge"><title>3&#45;&gt;2</title>
<path fill="none" stroke="black" d="M73.0626,-175.999C70.8103,-145.853 66.0987,-82.7897 63.3822,-46.4303"/>
<polygon fill="black" stroke="black" points="66.8435,-45.7811 62.6081,-36.0697 59.863,-46.3027 66.8435,-45.7811"/>
<text text-anchor="middle" x="71.8328" y="-102.3" font-family="Times,serif" font-size="14.00">b</text>
</g>
</g>
</svg>
