<?xml version="1.0" encoding="UTF-8" standalone="no"?>
<!DOCTYPE svg PUBLIC "-//W3C//DTD SVG 1.1//EN"
 "http://www.w3.org/Graphics/SVG/1.1/DTD/svg11.dtd">
<!-- Generated by graphviz version 2.36.0 (20140111.2315)
 -->
<!-- Title: %3 Pages: 1 -->
<svg width="166pt" height="228pt"
 viewBox="0.00 0.00 166.00 228.00" xmlns="http://www.w3.org/2000/svg" xmlns:xlink="http://www.w3.org/1999/xlink">
<g id="graph0" class="graph" transform="scale(1 1) rotate(0) translate(4 224)">
<title>%3</title>
<polygon fill="white" stroke="none" points="-4,4 -4,-224 162,-224 162,4 -4,4"/>
<!-- 0 -->
<g id="node1" class="node"><title>0</title>
<ellipse fill="lightblue" stroke="black" cx="48" cy="-202" rx="18" ry="18"/>
<text text-anchor="middle" x="48" y="-198.3" font-family="Times,serif" font-size="14.00">0</text>
</g>
<!-- 0&#45;&gt;0 -->
<g id="edge1" class="edge"><title>0&#45;&gt;0</title>
<path fill="none" stroke="black" d="M64.2903,-209.668C74.3892,-211.517 84,-208.961 84,-202 84,-197.541 80.0557,-194.889 74.5656,-194.045"/>
<polygon fill="black" stroke="black" points="74.1887,-190.554 64.2903,-194.332 74.384,-197.552 74.1887,-190.554"/>
<text text-anchor="middle" x="87.5" y="-198.3" font-family="Times,serif" font-size="14.00">b</text>
</g>
<!-- 2 -->
<g id="node3" class="node"><title>2</title>
<ellipse fill="lightblue" stroke="black" cx="18" cy="-114" rx="18" ry="18"/>
<text text-anchor="middle" x="18" y="-110.3" font-family="Times,serif" font-size="14.00">2</text>
</g>
<!-- 0&#45;&gt;2 -->
<g id="edge2" class="edge"><title>0&#45;&gt;2</title>
<path fill="none" stroke="black" d="M35.6868,-188.848C30.1568,-182.581 24.1724,-174.482 21,-166 18.223,-158.575 17.0193,-150.119 16.6289,-142.256"/>
<polygon fill="black" stroke="black" points="20.1269,-142.019 16.5293,-132.054 13.1272,-142.088 20.1269,-142.019"/>
<text text-anchor="middle" x="24.5" y="-154.3" font-family="Times,serif" font-size="14.00">a</text>
</g>
<!-- 1 -->
<g id="node2" class="node"><title>1</title>
<ellipse fill="green" stroke="black" cx="61" cy="-22" rx="17.5909" ry="18"/>
<ellipse fill="none" stroke="black" cx="61" cy="-22" rx="21.5" ry="22"/>
<text text-anchor="middle" x="61" y="-18.3" font-family="Times,serif" font-size="14.00">1</text>
</g>
<!-- 1&#45;&gt;0 -->
<g id="edge3" class="edge"><title>1&#45;&gt;0</title>
<path fill="none" stroke="black" d="M59.4585,-44.1069C57.0988,-76.4168 52.5915,-138.132 49.9887,-173.771"/>
<polygon fill="black" stroke="black" points="46.4843,-173.704 49.2465,-183.933 53.4657,-174.214 46.4843,-173.704"/>
<text text-anchor="middle" x="58.5" y="-110.3" font-family="Times,serif" font-size="14.00">a</text>
</g>
<!-- 1&#45;&gt;2 -->
<g id="edge4" class="edge"><title>1&#45;&gt;2</title>
<path fill="none" stroke="black" d="M51.8018,-42.252C45.4239,-55.6012 36.8691,-73.5064 29.9618,-87.9636"/>
<polygon fill="black" stroke="black" points="26.643,-86.7913 25.49,-97.3232 32.9592,-89.809 26.643,-86.7913"/>
<text text-anchor="middle" x="45.5" y="-66.3" font-family="Times,serif" font-size="14.00">b</text>
</g>
<!-- 2&#45;&gt;0 -->
<g id="edge5" class="edge"><title>2&#45;&gt;0</title>
<path fill="none" stroke="black" d="M23.6175,-131.103C27.9267,-143.457 33.9622,-160.758 38.9501,-175.057"/>
<polygon fill="black" stroke="black" points="35.7587,-176.535 42.3572,-184.824 42.3681,-174.229 35.7587,-176.535"/>
<text text-anchor="middle" x="38.5" y="-154.3" font-family="Times,serif" font-size="14.00">a</text>
</g>
<!-- 2&#45;&gt;1 -->
<g id="edge6" class="edge"><title>2&#45;&gt;1</title>
<path fill="none" stroke="black" d="M17.3566,-95.725C17.613,-85.4828 19.0834,-72.4953 24,-62 27.212,-55.1436 32.1038,-48.7162 37.2884,-43.1345"/>
<polygon fill="black" stroke="black" points="39.7641,-45.6086 44.4093,-36.0864 34.8398,-40.6335 39.7641,-45.6086"/>
<text text-anchor="middle" x="27.5" y="-66.3" font-family="Times,serif" font-size="14.00">b</text>
</g>
<!-- 3 -->
<g id="node4" class="node"><title>3</title>
<ellipse fill="lightblue" stroke="black" cx="115" cy="-114" rx="18" ry="18"/>
<text text-anchor="middle" x="115" y="-110.3" font-family="Times,serif" font-size="14.00">3</text>
</g>
<!-- 3&#45;&gt;1 -->
<g id="edge7" class="edge"><title>3&#45;&gt;1</title>
<path fill="none" stroke="black" d="M106.58,-97.7027C100.901,-87.5085 93.1639,-73.856 86,-62 83.481,-57.8312 80.7547,-53.4521 78.0602,-49.1956"/>
<polygon fill="black" stroke="black" points="80.987,-47.2758 72.6504,-40.7373 75.0899,-51.0475 80.987,-47.2758"/>
<text text-anchor="middle" x="98.5" y="-66.3" font-family="Times,serif" font-size="14.00">a</text>
</g>
<!-- 3&#45;&gt;3 -->
<g id="edge8" class="edge"><title>3&#45;&gt;3</title>
<path fill="none" stroke="black" d="M131.29,-121.668C141.389,-123.517 151,-120.961 151,-114 151,-109.541 147.056,-106.889 141.566,-106.045"/>
<polygon fill="black" stroke="black" points="141.189,-102.554 131.29,-106.332 141.384,-109.552 141.189,-102.554"/>
<text text-anchor="middle" x="154.5" y="-110.3" font-family="Times,serif" font-size="14.00">b</text>
</g>
</g>
</svg>
