<?xml version="1.0" encoding="UTF-8" standalone="no"?>
<!DOCTYPE svg PUBLIC "-//W3C//DTD SVG 1.1//EN"
 "http://www.w3.org/Graphics/SVG/1.1/DTD/svg11.dtd">
<!-- Generated by graphviz version 2.36.0 (20140111.2315)
 -->
<!-- Title: %3 Pages: 1 -->
<svg width="118pt" height="316pt"
 viewBox="0.00 0.00 118.00 316.00" xmlns="http://www.w3.org/2000/svg" xmlns:xlink="http://www.w3.org/1999/xlink">
<g id="graph0" class="graph" transform="scale(1 1) rotate(0) translate(4 312)">
<title>%3</title>
<polygon fill="white" stroke="none" points="-4,4 -4,-312 114,-312 114,4 -4,4"/>
<!-- 0 -->
<g id="node1" class="node"><title>0</title>
<ellipse fill="lightblue" stroke="black" cx="71" cy="-290" rx="18" ry="18"/>
<text text-anchor="middle" x="71" y="-286.3" font-family="Times,serif" font-size="14.00">0</text>
</g>
<!-- 3 -->
<g id="node4" class="node"><title>3</title>
<ellipse fill="green" stroke="black" cx="18" cy="-202" rx="18" ry="18"/>
<text text-anchor="middle" x="18" y="-198.3" font-family="Times,serif" font-size="14.00">3</text>
</g>
<!-- 0&#45;&gt;3 -->
<g id="edge1" class="edge"><title>0&#45;&gt;3</title>
<path fill="none" stroke="black" d="M61.7681,-274.02C53.7123,-260.948 41.8855,-241.758 32.5561,-226.619"/>
<polygon fill="black" stroke="black" points="35.3523,-224.485 27.1261,-217.808 29.393,-228.158 35.3523,-224.485"/>
<text text-anchor="middle" x="58.5" y="-242.3" font-family="Times,serif" font-size="14.00">b,a</text>
</g>
<!-- 1 -->
<g id="node2" class="node"><title>1</title>
<ellipse fill="lightblue" stroke="black" cx="34" cy="-110" rx="17.5909" ry="18"/>
<ellipse fill="none" stroke="black" cx="34" cy="-110" rx="21.5" ry="22"/>
<text text-anchor="middle" x="34" y="-106.3" font-family="Times,serif" font-size="14.00">1</text>
</g>
<!-- 2 -->
<g id="node3" class="node"><title>2</title>
<ellipse fill="lightblue" stroke="black" cx="67" cy="-18" rx="18" ry="18"/>
<text text-anchor="middle" x="67" y="-14.3" font-family="Times,serif" font-size="14.00">2</text>
</g>
<!-- 1&#45;&gt;2 -->
<g id="edge2" class="edge"><title>1&#45;&gt;2</title>
<path fill="none" stroke="black" d="M41.3238,-89.0261C46.1216,-75.9411 52.4372,-58.7167 57.6041,-44.6252"/>
<polygon fill="black" stroke="black" points="60.9687,-45.6158 61.1252,-35.0221 54.3965,-43.206 60.9687,-45.6158"/>
<text text-anchor="middle" x="62.5" y="-58.3" font-family="Times,serif" font-size="14.00">b,a</text>
</g>
<!-- 2&#45;&gt;0 -->
<g id="edge3" class="edge"><title>2&#45;&gt;0</title>
<path fill="none" stroke="black" d="M71.5979,-35.6032C72.9822,-41.3784 74.3151,-47.9301 75,-54 75.7973,-61.0663 75.0649,-62.8892 75,-70 74.3689,-139.114 72.6176,-220.483 71.6549,-261.865"/>
<polygon fill="black" stroke="black" points="68.1536,-261.884 71.4171,-271.964 75.1516,-262.049 68.1536,-261.884"/>
<text text-anchor="middle" x="76.5" y="-154.3" font-family="Times,serif" font-size="14.00">b</text>
</g>
<!-- 2&#45;&gt;2 -->
<g id="edge4" class="edge"><title>2&#45;&gt;2</title>
<path fill="none" stroke="black" d="M83.2903,-25.6679C93.3892,-27.5169 103,-24.9609 103,-18 103,-13.5406 99.0557,-10.8891 93.5656,-10.0454"/>
<polygon fill="black" stroke="black" points="93.1887,-6.55441 83.2903,-10.3321 93.384,-13.5517 93.1887,-6.55441"/>
<text text-anchor="middle" x="106.5" y="-14.3" font-family="Times,serif" font-size="14.00">a</text>
</g>
<!-- 3&#45;&gt;1 -->
<g id="edge5" class="edge"><title>3&#45;&gt;1</title>
<path fill="none" stroke="black" d="M21.0095,-184.072C23.1014,-172.305 25.9514,-156.273 28.4489,-142.225"/>
<polygon fill="black" stroke="black" points="31.9673,-142.43 30.2717,-131.971 25.0754,-141.204 31.9673,-142.43"/>
<text text-anchor="middle" x="30.5" y="-154.3" font-family="Times,serif" font-size="14.00">a</text>
</g>
<!-- 3&#45;&gt;3 -->
<g id="edge6" class="edge"><title>3&#45;&gt;3</title>
<path fill="none" stroke="black" d="M34.2903,-209.668C44.3892,-211.517 54,-208.961 54,-202 54,-197.541 50.0557,-194.889 44.5656,-194.045"/>
<polygon fill="black" stroke="black" points="44.1887,-190.554 34.2903,-194.332 44.384,-197.552 44.1887,-190.554"/>
<text text-anchor="middle" x="57.5" y="-198.3" font-family="Times,serif" font-size="14.00">b</text>
</g>
</g>
</svg>
