<?xml version="1.0" encoding="UTF-8" standalone="no"?>
<!DOCTYPE svg PUBLIC "-//W3C//DTD SVG 1.1//EN"
 "http://www.w3.org/Graphics/SVG/1.1/DTD/svg11.dtd">
<!-- Generated by graphviz version 2.36.0 (20140111.2315)
 -->
<!-- Title: %3 Pages: 1 -->
<svg width="121pt" height="316pt"
 viewBox="0.00 0.00 121.00 316.00" xmlns="http://www.w3.org/2000/svg" xmlns:xlink="http://www.w3.org/1999/xlink">
<g id="graph0" class="graph" transform="scale(1 1) rotate(0) translate(4 312)">
<title>%3</title>
<polygon fill="white" stroke="none" points="-4,4 -4,-312 117,-312 117,4 -4,4"/>
<!-- 0 -->
<g id="node1" class="node"><title>0</title>
<ellipse fill="lightblue" stroke="black" cx="66" cy="-286" rx="17.5909" ry="18"/>
<ellipse fill="none" stroke="black" cx="66" cy="-286" rx="21.5" ry="22"/>
<text text-anchor="middle" x="66" y="-282.3" font-family="Times,serif" font-size="14.00">0</text>
</g>
<!-- 0&#45;&gt;0 -->
<g id="edge1" class="edge"><title>0&#45;&gt;0</title>
<path fill="none" stroke="black" d="M86.0663,-294.734C96.0736,-295.943 105,-293.031 105,-286 105,-281.496 101.337,-278.682 96.0725,-277.559"/>
<polygon fill="black" stroke="black" points="96.1646,-274.061 86.0663,-277.266 95.9594,-281.057 96.1646,-274.061"/>
<text text-anchor="middle" x="108.5" y="-282.3" font-family="Times,serif" font-size="14.00">b</text>
</g>
<!-- 1 -->
<g id="node2" class="node"><title>1</title>
<ellipse fill="green" stroke="black" cx="18" cy="-194" rx="18" ry="18"/>
<text text-anchor="middle" x="18" y="-190.3" font-family="Times,serif" font-size="14.00">1</text>
</g>
<!-- 0&#45;&gt;1 -->
<g id="edge2" class="edge"><title>0&#45;&gt;1</title>
<path fill="none" stroke="black" d="M56.0544,-266.352C48.8011,-252.752 38.9035,-234.194 31.0204,-219.413"/>
<polygon fill="black" stroke="black" points="33.9733,-217.512 26.1791,-210.336 27.7968,-220.806 33.9733,-217.512"/>
<text text-anchor="middle" x="48.5" y="-234.3" font-family="Times,serif" font-size="14.00">a</text>
</g>
<!-- 1&#45;&gt;1 -->
<g id="edge3" class="edge"><title>1&#45;&gt;1</title>
<path fill="none" stroke="black" d="M34.2903,-201.668C44.3892,-203.517 54,-200.961 54,-194 54,-189.541 50.0557,-186.889 44.5656,-186.045"/>
<polygon fill="black" stroke="black" points="44.1887,-182.554 34.2903,-186.332 44.384,-189.552 44.1887,-182.554"/>
<text text-anchor="middle" x="57.5" y="-190.3" font-family="Times,serif" font-size="14.00">a</text>
</g>
<!-- 3 -->
<g id="node4" class="node"><title>3</title>
<ellipse fill="lightblue" stroke="black" cx="18" cy="-106" rx="18" ry="18"/>
<text text-anchor="middle" x="18" y="-102.3" font-family="Times,serif" font-size="14.00">3</text>
</g>
<!-- 1&#45;&gt;3 -->
<g id="edge4" class="edge"><title>1&#45;&gt;3</title>
<path fill="none" stroke="black" d="M18,-175.597C18,-163.746 18,-147.817 18,-134.292"/>
<polygon fill="black" stroke="black" points="21.5001,-134.084 18,-124.084 14.5001,-134.084 21.5001,-134.084"/>
<text text-anchor="middle" x="21.5" y="-146.3" font-family="Times,serif" font-size="14.00">b</text>
</g>
<!-- 2 -->
<g id="node3" class="node"><title>2</title>
<ellipse fill="lightblue" stroke="black" cx="48" cy="-18" rx="18" ry="18"/>
<text text-anchor="middle" x="48" y="-14.3" font-family="Times,serif" font-size="14.00">2</text>
</g>
<!-- 2&#45;&gt;0 -->
<g id="edge5" class="edge"><title>2&#45;&gt;0</title>
<path fill="none" stroke="black" d="M54.5942,-34.8333C59.9519,-48.6047 67.0816,-69.2399 70,-88 79.0361,-146.086 74.1386,-214.958 69.9421,-253.961"/>
<polygon fill="black" stroke="black" points="66.4374,-253.806 68.7892,-264.136 73.3929,-254.594 66.4374,-253.806"/>
<text text-anchor="middle" x="78.5" y="-146.3" font-family="Times,serif" font-size="14.00">b</text>
</g>
<!-- 2&#45;&gt;3 -->
<g id="edge6" class="edge"><title>2&#45;&gt;3</title>
<path fill="none" stroke="black" d="M42.3825,-35.1034C38.0733,-47.4565 32.0378,-64.7582 27.0499,-79.0569"/>
<polygon fill="black" stroke="black" points="23.6319,-78.2292 23.6428,-88.8241 30.2413,-80.5349 23.6319,-78.2292"/>
<text text-anchor="middle" x="39.5" y="-58.3" font-family="Times,serif" font-size="14.00">a</text>
</g>
<!-- 3&#45;&gt;2 -->
<g id="edge7" class="edge"><title>3&#45;&gt;2</title>
<path fill="none" stroke="black" d="M16.5293,-87.9462C16.2502,-77.7824 16.9607,-64.7996 21,-54 22.9332,-48.8314 25.9106,-43.805 29.193,-39.2487"/>
<polygon fill="black" stroke="black" points="32.1602,-41.1432 35.6868,-31.1524 26.6997,-36.7634 32.1602,-41.1432"/>
<text text-anchor="middle" x="24.5" y="-58.3" font-family="Times,serif" font-size="14.00">a</text>
</g>
<!-- 3&#45;&gt;3 -->
<g id="edge8" class="edge"><title>3&#45;&gt;3</title>
<path fill="none" stroke="black" d="M34.2903,-113.668C44.3892,-115.517 54,-112.961 54,-106 54,-101.541 50.0557,-98.8891 44.5656,-98.0454"/>
<polygon fill="black" stroke="black" points="44.1887,-94.5544 34.2903,-98.3321 44.384,-101.552 44.1887,-94.5544"/>
<text text-anchor="middle" x="57.5" y="-102.3" font-family="Times,serif" font-size="14.00">b</text>
</g>
</g>
</svg>
