<?xml version="1.0" encoding="UTF-8" standalone="no"?>
<!DOCTYPE svg PUBLIC "-//W3C//DTD SVG 1.1//EN"
 "http://www.w3.org/Graphics/SVG/1.1/DTD/svg11.dtd">
<!-- Generated by graphviz version 2.36.0 (20140111.2315)
 -->
<!-- Title: %3 Pages: 1 -->
<svg width="123pt" height="228pt"
 viewBox="0.00 0.00 123.00 228.00" xmlns="http://www.w3.org/2000/svg" xmlns:xlink="http://www.w3.org/1999/xlink">
<g id="graph0" class="graph" transform="scale(1 1) rotate(0) translate(4 224)">
<title>%3</title>
<polygon fill="white" stroke="none" points="-4,4 -4,-224 119,-224 119,4 -4,4"/>
<!-- 0 -->
<g id="node1" class="node"><title>0</title>
<ellipse fill="lightblue" stroke="black" cx="72" cy="-114" rx="18" ry="18"/>
<text text-anchor="middle" x="72" y="-110.3" font-family="Times,serif" font-size="14.00">0</text>
</g>
<!-- 0&#45;&gt;0 -->
<g id="edge1" class="edge"><title>0&#45;&gt;0</title>
<path fill="none" stroke="black" d="M88.2903,-121.668C98.3892,-123.517 108,-120.961 108,-114 108,-109.541 104.056,-106.889 98.5656,-106.045"/>
<polygon fill="black" stroke="black" points="98.1887,-102.554 88.2903,-106.332 98.384,-109.552 98.1887,-102.554"/>
<text text-anchor="middle" x="111.5" y="-110.3" font-family="Times,serif" font-size="14.00">b</text>
</g>
<!-- 3 -->
<g id="node4" class="node"><title>3</title>
<ellipse fill="lightblue" stroke="black" cx="41" cy="-22" rx="17.5909" ry="18"/>
<ellipse fill="none" stroke="black" cx="41" cy="-22" rx="21.5" ry="22"/>
<text text-anchor="middle" x="41" y="-18.3" font-family="Times,serif" font-size="14.00">3</text>
</g>
<!-- 0&#45;&gt;3 -->
<g id="edge2" class="edge"><title>0&#45;&gt;3</title>
<path fill="none" stroke="black" d="M66.3141,-96.4926C62.0819,-84.2056 56.1914,-67.1042 51.1575,-52.4896"/>
<polygon fill="black" stroke="black" points="54.4062,-51.1738 47.8403,-42.8588 47.7878,-53.4535 54.4062,-51.1738"/>
<text text-anchor="middle" x="62.5" y="-66.3" font-family="Times,serif" font-size="14.00">a</text>
</g>
<!-- 1 -->
<g id="node2" class="node"><title>1</title>
<ellipse fill="lightblue" stroke="black" cx="72" cy="-202" rx="18" ry="18"/>
<text text-anchor="middle" x="72" y="-198.3" font-family="Times,serif" font-size="14.00">1</text>
</g>
<!-- 1&#45;&gt;0 -->
<g id="edge3" class="edge"><title>1&#45;&gt;0</title>
<path fill="none" stroke="black" d="M72,-183.597C72,-171.746 72,-155.817 72,-142.292"/>
<polygon fill="black" stroke="black" points="75.5001,-142.084 72,-132.084 68.5001,-142.084 75.5001,-142.084"/>
<text text-anchor="middle" x="75.5" y="-154.3" font-family="Times,serif" font-size="14.00">b</text>
</g>
<!-- 1&#45;&gt;1 -->
<g id="edge4" class="edge"><title>1&#45;&gt;1</title>
<path fill="none" stroke="black" d="M88.2903,-209.668C98.3892,-211.517 108,-208.961 108,-202 108,-197.541 104.056,-194.889 98.5656,-194.045"/>
<polygon fill="black" stroke="black" points="98.1887,-190.554 88.2903,-194.332 98.384,-197.552 98.1887,-190.554"/>
<text text-anchor="middle" x="111.5" y="-198.3" font-family="Times,serif" font-size="14.00">a</text>
</g>
<!-- 2 -->
<g id="node3" class="node"><title>2</title>
<ellipse fill="green" stroke="black" cx="18" cy="-114" rx="18" ry="18"/>
<text text-anchor="middle" x="18" y="-110.3" font-family="Times,serif" font-size="14.00">2</text>
</g>
<!-- 2&#45;&gt;3 -->
<g id="edge5" class="edge"><title>2&#45;&gt;3</title>
<path fill="none" stroke="black" d="M19.7766,-95.8117C21.0354,-85.8323 23.0354,-73.0823 26,-62 26.8623,-58.7763 27.8991,-55.452 29.0197,-52.1672"/>
<polygon fill="black" stroke="black" points="32.3817,-53.1653 32.5428,-42.5717 25.8106,-50.7526 32.3817,-53.1653"/>
<text text-anchor="middle" x="34.5" y="-66.3" font-family="Times,serif" font-size="14.00">b,a</text>
</g>
<!-- 3&#45;&gt;3 -->
<g id="edge6" class="edge"><title>3&#45;&gt;3</title>
<path fill="none" stroke="black" d="M61.0663,-30.7341C71.0736,-31.9426 80,-29.0312 80,-22 80,-17.4956 76.3366,-14.682 71.0725,-13.5592"/>
<polygon fill="black" stroke="black" points="71.1646,-10.0605 61.0663,-13.2659 70.9594,-17.0575 71.1646,-10.0605"/>
<text text-anchor="middle" x="88.5" y="-18.3" font-family="Times,serif" font-size="14.00">b,a</text>
</g>
</g>
</svg>
