<?xml version="1.0" encoding="UTF-8" standalone="no"?>
<!DOCTYPE svg PUBLIC "-//W3C//DTD SVG 1.1//EN"
 "http://www.w3.org/Graphics/SVG/1.1/DTD/svg11.dtd">
<!-- Generated by graphviz version 2.36.0 (20140111.2315)
 -->
<!-- Title: %3 Pages: 1 -->
<svg width="94pt" height="404pt"
 viewBox="0.00 0.00 94.00 404.00" xmlns="http://www.w3.org/2000/svg" xmlns:xlink="http://www.w3.org/1999/xlink">
<g id="graph0" class="graph" transform="scale(1 1) rotate(0) translate(4 400)">
<title>%3</title>
<polygon fill="white" stroke="none" points="-4,4 -4,-400 90,-400 90,4 -4,4"/>
<!-- 0 -->
<g id="node1" class="node"><title>0</title>
<ellipse fill="lightblue" stroke="black" cx="68" cy="-378" rx="18" ry="18"/>
<text text-anchor="middle" x="68" y="-374.3" font-family="Times,serif" font-size="14.00">0</text>
</g>
<!-- 1 -->
<g id="node2" class="node"><title>1</title>
<ellipse fill="lightblue" stroke="black" cx="68" cy="-290" rx="18" ry="18"/>
<text text-anchor="middle" x="68" y="-286.3" font-family="Times,serif" font-size="14.00">1</text>
</g>
<!-- 0&#45;&gt;1 -->
<g id="edge1" class="edge"><title>0&#45;&gt;1</title>
<path fill="none" stroke="black" d="M68,-359.597C68,-347.746 68,-331.817 68,-318.292"/>
<polygon fill="black" stroke="black" points="71.5001,-318.084 68,-308.084 64.5001,-318.084 71.5001,-318.084"/>
<text text-anchor="middle" x="76.5" y="-330.3" font-family="Times,serif" font-size="14.00">b,a</text>
</g>
<!-- 3 -->
<g id="node4" class="node"><title>3</title>
<ellipse fill="green" stroke="black" cx="37" cy="-202" rx="18" ry="18"/>
<text text-anchor="middle" x="37" y="-198.3" font-family="Times,serif" font-size="14.00">3</text>
</g>
<!-- 1&#45;&gt;3 -->
<g id="edge2" class="edge"><title>1&#45;&gt;3</title>
<path fill="none" stroke="black" d="M62.1691,-272.824C57.7093,-260.452 51.4713,-243.146 46.3214,-228.859"/>
<polygon fill="black" stroke="black" points="49.4885,-227.324 42.8047,-219.103 42.9032,-229.698 49.4885,-227.324"/>
<text text-anchor="middle" x="63.5" y="-242.3" font-family="Times,serif" font-size="14.00">b,a</text>
</g>
<!-- 2 -->
<g id="node3" class="node"><title>2</title>
<ellipse fill="lightblue" stroke="black" cx="18" cy="-114" rx="18" ry="18"/>
<text text-anchor="middle" x="18" y="-110.3" font-family="Times,serif" font-size="14.00">2</text>
</g>
<!-- 2&#45;&gt;2 -->
<g id="edge3" class="edge"><title>2&#45;&gt;2</title>
<path fill="none" stroke="black" d="M34.2903,-121.668C44.3892,-123.517 54,-120.961 54,-114 54,-109.541 50.0557,-106.889 44.5656,-106.045"/>
<polygon fill="black" stroke="black" points="44.1887,-102.554 34.2903,-106.332 44.384,-109.552 44.1887,-102.554"/>
<text text-anchor="middle" x="57.5" y="-110.3" font-family="Times,serif" font-size="14.00">b</text>
</g>
<!-- 4 -->
<g id="node5" class="node"><title>4</title>
<ellipse fill="lightblue" stroke="black" cx="48" cy="-22" rx="17.5909" ry="18"/>
<ellipse fill="none" stroke="black" cx="48" cy="-22" rx="21.5" ry="22"/>
<text text-anchor="middle" x="48" y="-18.3" font-family="Times,serif" font-size="14.00">4</text>
</g>
<!-- 2&#45;&gt;4 -->
<g id="edge4" class="edge"><title>2&#45;&gt;4</title>
<path fill="none" stroke="black" d="M16.7325,-96.0192C16.5254,-85.8813 17.2402,-72.9001 21,-62 22.7345,-56.9714 25.3127,-51.9975 28.1983,-47.3708"/>
<polygon fill="black" stroke="black" points="31.1899,-49.1978 33.9855,-38.9784 25.4272,-45.224 31.1899,-49.1978"/>
<text text-anchor="middle" x="24.5" y="-66.3" font-family="Times,serif" font-size="14.00">a</text>
</g>
<!-- 3&#45;&gt;2 -->
<g id="edge5" class="edge"><title>3&#45;&gt;2</title>
<path fill="none" stroke="black" d="M33.2462,-184.009C30.5746,-171.917 26.9319,-155.428 23.877,-141.601"/>
<polygon fill="black" stroke="black" points="27.2563,-140.672 21.6813,-131.663 20.4211,-142.183 27.2563,-140.672"/>
<text text-anchor="middle" x="38.5" y="-154.3" font-family="Times,serif" font-size="14.00">b,a</text>
</g>
<!-- 4&#45;&gt;1 -->
<g id="edge6" class="edge"><title>4&#45;&gt;1</title>
<path fill="none" stroke="black" d="M55.4858,-42.8113C60.5892,-57.3115 66.9537,-77.5866 70,-96 80.3075,-158.303 73.8887,-174.86 75,-238 75.1251,-245.11 75.7007,-246.923 75,-254 74.7289,-256.738 74.3411,-259.58 73.8855,-262.406"/>
<polygon fill="black" stroke="black" points="70.4208,-261.893 72.0241,-272.366 77.3017,-263.179 70.4208,-261.893"/>
<text text-anchor="middle" x="78.5" y="-154.3" font-family="Times,serif" font-size="14.00">b</text>
</g>
<!-- 4&#45;&gt;2 -->
<g id="edge7" class="edge"><title>4&#45;&gt;2</title>
<path fill="none" stroke="black" d="M41.2721,-43.1837C36.9612,-56.1164 31.3241,-73.0278 26.6776,-86.9672"/>
<polygon fill="black" stroke="black" points="23.3444,-85.899 23.5025,-96.4926 29.9852,-88.1126 23.3444,-85.899"/>
<text text-anchor="middle" x="38.5" y="-66.3" font-family="Times,serif" font-size="14.00">a</text>
</g>
</g>
</svg>
