<?xml version="1.0" encoding="UTF-8" standalone="no"?>
<!DOCTYPE svg PUBLIC "-//W3C//DTD SVG 1.1//EN"
 "http://www.w3.org/Graphics/SVG/1.1/DTD/svg11.dtd">
<!-- Generated by graphviz version 2.36.0 (20140111.2315)
 -->
<!-- Title: %3 Pages: 1 -->
<svg width="105pt" height="316pt"
 viewBox="0.00 0.00 105.00 316.00" xmlns="http://www.w3.org/2000/svg" xmlns:xlink="http://www.w3.org/1999/xlink">
<g id="graph0" class="graph" transform="scale(1 1) rotate(0) translate(4 312)">
<title>%3</title>
<polygon fill="white" stroke="none" points="-4,4 -4,-312 101,-312 101,4 -4,4"/>
<!-- 0 -->
<g id="node1" class="node"><title>0</title>
<ellipse fill="lightblue" stroke="black" cx="61" cy="-290" rx="18" ry="18"/>
<text text-anchor="middle" x="61" y="-286.3" font-family="Times,serif" font-size="14.00">0</text>
</g>
<!-- 1 -->
<g id="node2" class="node"><title>1</title>
<ellipse fill="lightblue" stroke="black" cx="18" cy="-202" rx="18" ry="18"/>
<text text-anchor="middle" x="18" y="-198.3" font-family="Times,serif" font-size="14.00">1</text>
</g>
<!-- 0&#45;&gt;1 -->
<g id="edge1" class="edge"><title>0&#45;&gt;1</title>
<path fill="none" stroke="black" d="M45.7638,-279.616C37.2134,-273.464 27.2382,-264.604 22,-254 18.4444,-246.802 16.901,-238.329 16.3921,-230.379"/>
<polygon fill="black" stroke="black" points="19.8918,-230.324 16.2368,-220.379 12.8926,-230.433 19.8918,-230.324"/>
<text text-anchor="middle" x="25.5" y="-242.3" font-family="Times,serif" font-size="14.00">a</text>
</g>
<!-- 2 -->
<g id="node3" class="node"><title>2</title>
<ellipse fill="green" stroke="black" cx="32" cy="-110" rx="17.5909" ry="18"/>
<ellipse fill="none" stroke="black" cx="32" cy="-110" rx="21.5" ry="22"/>
<text text-anchor="middle" x="32" y="-106.3" font-family="Times,serif" font-size="14.00">2</text>
</g>
<!-- 0&#45;&gt;2 -->
<g id="edge2" class="edge"><title>0&#45;&gt;2</title>
<path fill="none" stroke="black" d="M58.7887,-271.982C57.4683,-262.06 55.7183,-249.31 54,-238 49.0075,-205.139 42.4022,-167.657 37.7363,-141.978"/>
<polygon fill="black" stroke="black" points="41.1681,-141.287 35.9275,-132.079 34.2821,-142.546 41.1681,-141.287"/>
<text text-anchor="middle" x="53.5" y="-198.3" font-family="Times,serif" font-size="14.00">b</text>
</g>
<!-- 1&#45;&gt;0 -->
<g id="edge3" class="edge"><title>1&#45;&gt;0</title>
<path fill="none" stroke="black" d="M25.766,-218.532C32.1697,-231.339 41.3694,-249.739 48.7626,-264.525"/>
<polygon fill="black" stroke="black" points="45.7098,-266.246 53.3125,-273.625 51.9708,-263.115 45.7098,-266.246"/>
<text text-anchor="middle" x="46.5" y="-242.3" font-family="Times,serif" font-size="14.00">a</text>
</g>
<!-- 1&#45;&gt;2 -->
<g id="edge4" class="edge"><title>1&#45;&gt;2</title>
<path fill="none" stroke="black" d="M20.6333,-184.072C22.4637,-172.305 24.9575,-156.273 27.1428,-142.225"/>
<polygon fill="black" stroke="black" points="30.659,-142.391 28.7378,-131.971 23.7422,-141.315 30.659,-142.391"/>
<text text-anchor="middle" x="28.5" y="-154.3" font-family="Times,serif" font-size="14.00">b</text>
</g>
<!-- 2&#45;&gt;2 -->
<g id="edge5" class="edge"><title>2&#45;&gt;2</title>
<path fill="none" stroke="black" d="M52.0663,-118.734C62.0736,-119.943 71,-117.031 71,-110 71,-105.496 67.3366,-102.682 62.0725,-101.559"/>
<polygon fill="black" stroke="black" points="62.1646,-98.0605 52.0663,-101.266 61.9594,-105.057 62.1646,-98.0605"/>
<text text-anchor="middle" x="74.5" y="-106.3" font-family="Times,serif" font-size="14.00">b</text>
</g>
<!-- 3 -->
<g id="node4" class="node"><title>3</title>
<ellipse fill="lightblue" stroke="black" cx="62" cy="-18" rx="18" ry="18"/>
<text text-anchor="middle" x="62" y="-14.3" font-family="Times,serif" font-size="14.00">3</text>
</g>
<!-- 2&#45;&gt;3 -->
<g id="edge6" class="edge"><title>2&#45;&gt;3</title>
<path fill="none" stroke="black" d="M30.2561,-88.0327C30.0938,-77.514 31.0028,-64.7567 35,-54 36.9222,-48.8273 39.8947,-43.7991 43.1759,-39.2423"/>
<polygon fill="black" stroke="black" points="46.1431,-41.1368 49.671,-31.1466 40.6832,-36.7563 46.1431,-41.1368"/>
<text text-anchor="middle" x="38.5" y="-58.3" font-family="Times,serif" font-size="14.00">a</text>
</g>
<!-- 3&#45;&gt;0 -->
<g id="edge7" class="edge"><title>3&#45;&gt;0</title>
<path fill="none" stroke="black" d="M69.6601,-34.4325C76.0008,-48.121 84.513,-68.8569 88,-88 99.3619,-150.375 81.3811,-224.45 69.7153,-262.904"/>
<polygon fill="black" stroke="black" points="66.2753,-262.177 66.622,-272.766 72.9544,-264.272 66.2753,-262.177"/>
<text text-anchor="middle" x="93.5" y="-154.3" font-family="Times,serif" font-size="14.00">a</text>
</g>
<!-- 3&#45;&gt;2 -->
<g id="edge8" class="edge"><title>3&#45;&gt;2</title>
<path fill="none" stroke="black" d="M56.5629,-35.3114C52.4764,-47.5707 46.7659,-64.7023 41.8793,-79.3621"/>
<polygon fill="black" stroke="black" points="38.4999,-78.4324 38.658,-89.0261 45.1407,-80.6461 38.4999,-78.4324"/>
<text text-anchor="middle" x="52.5" y="-58.3" font-family="Times,serif" font-size="14.00">b</text>
</g>
</g>
</svg>
