<?xml version="1.0" encoding="UTF-8" standalone="no"?>
<!DOCTYPE svg PUBLIC "-//W3C//DTD SVG 1.1//EN"
 "http://www.w3.org/Graphics/SVG/1.1/DTD/svg11.dtd">
<!-- Generated by graphviz version 2.36.0 (20140111.2315)
 -->
<!-- Title: %3 Pages: 1 -->
<svg width="176pt" height="140pt"
 viewBox="0.00 0.00 176.00 140.00" xmlns="http://www.w3.org/2000/svg" xmlns:xlink="http://www.w3.org/1999/xlink">
<g id="graph0" class="graph" transform="scale(1 1) rotate(0) translate(4 136)">
<title>%3</title>
<polygon fill="white" stroke="none" points="-4,4 -4,-136 172,-136 172,4 -4,4"/>
<!-- 0 -->
<g id="node1" class="node"><title>0</title>
<ellipse fill="lightblue" stroke="black" cx="18" cy="-114" rx="18" ry="18"/>
<text text-anchor="middle" x="18" y="-110.3" font-family="Times,serif" font-size="14.00">0</text>
</g>
<!-- 3 -->
<g id="node4" class="node"><title>3</title>
<ellipse fill="lightblue" stroke="black" cx="18" cy="-22" rx="18" ry="18"/>
<text text-anchor="middle" x="18" y="-18.3" font-family="Times,serif" font-size="14.00">3</text>
</g>
<!-- 0&#45;&gt;3 -->
<g id="edge1" class="edge"><title>0&#45;&gt;3</title>
<path fill="none" stroke="black" d="M18,-95.6471C18,-82.8228 18,-65.1075 18,-50.3815"/>
<polygon fill="black" stroke="black" points="21.5001,-50.2996 18,-40.2996 14.5001,-50.2997 21.5001,-50.2996"/>
<text text-anchor="middle" x="26.5" y="-66.3" font-family="Times,serif" font-size="14.00">b,a</text>
</g>
<!-- 1 -->
<g id="node2" class="node"><title>1</title>
<ellipse fill="green" stroke="black" cx="111" cy="-22" rx="17.5909" ry="18"/>
<ellipse fill="none" stroke="black" cx="111" cy="-22" rx="21.5" ry="22"/>
<text text-anchor="middle" x="111" y="-18.3" font-family="Times,serif" font-size="14.00">1</text>
</g>
<!-- 1&#45;&gt;1 -->
<g id="edge2" class="edge"><title>1&#45;&gt;1</title>
<path fill="none" stroke="black" d="M131.066,-30.7341C141.074,-31.9426 150,-29.0312 150,-22 150,-17.4956 146.337,-14.682 141.072,-13.5592"/>
<polygon fill="black" stroke="black" points="141.165,-10.0605 131.066,-13.2659 140.959,-17.0575 141.165,-10.0605"/>
<text text-anchor="middle" x="158.5" y="-18.3" font-family="Times,serif" font-size="14.00">b,a</text>
</g>
<!-- 2 -->
<g id="node3" class="node"><title>2</title>
<ellipse fill="lightblue" stroke="black" cx="88" cy="-114" rx="18" ry="18"/>
<text text-anchor="middle" x="88" y="-110.3" font-family="Times,serif" font-size="14.00">2</text>
</g>
<!-- 2&#45;&gt;1 -->
<g id="edge3" class="edge"><title>2&#45;&gt;1</title>
<path fill="none" stroke="black" d="M92.2186,-96.4926C95.2866,-84.4871 99.5293,-67.8852 103.206,-53.4978"/>
<polygon fill="black" stroke="black" points="106.673,-54.0656 105.758,-43.5104 99.8914,-52.3324 106.673,-54.0656"/>
<text text-anchor="middle" x="103.5" y="-66.3" font-family="Times,serif" font-size="14.00">b</text>
</g>
<!-- 2&#45;&gt;3 -->
<g id="edge4" class="edge"><title>2&#45;&gt;3</title>
<path fill="none" stroke="black" d="M77.3685,-99.3309C66.1646,-84.926 48.347,-62.0176 35.1513,-45.0516"/>
<polygon fill="black" stroke="black" points="37.6337,-42.5424 28.7315,-36.7977 32.1082,-46.84 37.6337,-42.5424"/>
<text text-anchor="middle" x="62.5" y="-66.3" font-family="Times,serif" font-size="14.00">a</text>
</g>
<!-- 3&#45;&gt;3 -->
<g id="edge5" class="edge"><title>3&#45;&gt;3</title>
<path fill="none" stroke="black" d="M34.2903,-30.365C44.3892,-32.3821 54,-29.5938 54,-22 54,-17.1353 50.0557,-14.2427 44.5656,-13.3222"/>
<polygon fill="black" stroke="black" points="44.1791,-9.83225 34.2903,-13.635 44.3922,-16.829 44.1791,-9.83225"/>
<text text-anchor="middle" x="62.5" y="-18.3" font-family="Times,serif" font-size="14.00">b,a</text>
</g>
</g>
</svg>
