<?xml version="1.0" encoding="UTF-8" standalone="no"?>
<!DOCTYPE svg PUBLIC "-//W3C//DTD SVG 1.1//EN"
 "http://www.w3.org/Graphics/SVG/1.1/DTD/svg11.dtd">
<!-- Generated by graphviz version 2.36.0 (20140111.2315)
 -->
<!-- Title: %3 Pages: 1 -->
<svg width="129pt" height="316pt"
 viewBox="0.00 0.00 129.00 316.00" xmlns="http://www.w3.org/2000/svg" xmlns:xlink="http://www.w3.org/1999/xlink">
<g id="graph0" class="graph" transform="scale(1 1) rotate(0) translate(4 312)">
<title>%3</title>
<polygon fill="white" stroke="none" points="-4,4 -4,-312 125,-312 125,4 -4,4"/>
<!-- 0 -->
<g id="node1" class="node"><title>0</title>
<ellipse fill="green" stroke="black" cx="97" cy="-286" rx="17.5909" ry="18"/>
<ellipse fill="none" stroke="black" cx="97" cy="-286" rx="21.5" ry="22"/>
<text text-anchor="middle" x="97" y="-282.3" font-family="Times,serif" font-size="14.00">0</text>
</g>
<!-- 2 -->
<g id="node3" class="node"><title>2</title>
<ellipse fill="lightblue" stroke="black" cx="18" cy="-194" rx="18" ry="18"/>
<text text-anchor="middle" x="18" y="-190.3" font-family="Times,serif" font-size="14.00">2</text>
</g>
<!-- 0&#45;&gt;2 -->
<g id="edge1" class="edge"><title>0&#45;&gt;2</title>
<path fill="none" stroke="black" d="M82.8764,-268.91C69.8755,-254.099 50.5141,-232.041 36.3264,-215.878"/>
<polygon fill="black" stroke="black" points="38.6671,-213.239 29.4398,-208.033 33.4063,-217.857 38.6671,-213.239"/>
<text text-anchor="middle" x="65.5" y="-234.3" font-family="Times,serif" font-size="14.00">b</text>
</g>
<!-- 3 -->
<g id="node4" class="node"><title>3</title>
<ellipse fill="lightblue" stroke="black" cx="75" cy="-106" rx="18" ry="18"/>
<text text-anchor="middle" x="75" y="-102.3" font-family="Times,serif" font-size="14.00">3</text>
</g>
<!-- 0&#45;&gt;3 -->
<g id="edge2" class="edge"><title>0&#45;&gt;3</title>
<path fill="none" stroke="black" d="M94.3899,-263.882C90.398,-231.584 82.7769,-169.922 78.3716,-134.279"/>
<polygon fill="black" stroke="black" points="81.8155,-133.609 77.1152,-124.114 74.8684,-134.468 81.8155,-133.609"/>
<text text-anchor="middle" x="90.5" y="-190.3" font-family="Times,serif" font-size="14.00">a</text>
</g>
<!-- 1 -->
<g id="node2" class="node"><title>1</title>
<ellipse fill="lightblue" stroke="black" cx="75" cy="-18" rx="18" ry="18"/>
<text text-anchor="middle" x="75" y="-14.3" font-family="Times,serif" font-size="14.00">1</text>
</g>
<!-- 1&#45;&gt;0 -->
<g id="edge3" class="edge"><title>1&#45;&gt;0</title>
<path fill="none" stroke="black" d="M82.8523,-34.417C89.3711,-48.0957 98.1719,-68.8257 102,-88 136.482,-260.713 109.352,-203.127 105,-246 104.722,-248.742 104.336,-251.576 103.883,-254.407"/>
<polygon fill="black" stroke="black" points="100.398,-254.005 102.02,-264.475 107.281,-255.279 100.398,-254.005"/>
<text text-anchor="middle" x="117.5" y="-146.3" font-family="Times,serif" font-size="14.00">b</text>
</g>
<!-- 1&#45;&gt;2 -->
<g id="edge4" class="edge"><title>1&#45;&gt;2</title>
<path fill="none" stroke="black" d="M66.3447,-33.8883C58.7188,-47.5624 47.7952,-68.5891 41,-88 31.9802,-113.766 25.7586,-144.37 22.0824,-165.871"/>
<polygon fill="black" stroke="black" points="18.5987,-165.487 20.4359,-175.921 25.5066,-166.619 18.5987,-165.487"/>
<text text-anchor="middle" x="44.5" y="-102.3" font-family="Times,serif" font-size="14.00">a</text>
</g>
<!-- 2&#45;&gt;2 -->
<g id="edge5" class="edge"><title>2&#45;&gt;2</title>
<path fill="none" stroke="black" d="M34.2903,-201.668C44.3892,-203.517 54,-200.961 54,-194 54,-189.541 50.0557,-186.889 44.5656,-186.045"/>
<polygon fill="black" stroke="black" points="44.1887,-182.554 34.2903,-186.332 44.384,-189.552 44.1887,-182.554"/>
<text text-anchor="middle" x="57.5" y="-190.3" font-family="Times,serif" font-size="14.00">a</text>
</g>
<!-- 2&#45;&gt;3 -->
<g id="edge6" class="edge"><title>2&#45;&gt;3</title>
<path fill="none" stroke="black" d="M26.1857,-177.968C31.9639,-167.647 40.0613,-153.745 48,-142 51.0379,-137.506 54.4568,-132.825 57.8145,-128.403"/>
<polygon fill="black" stroke="black" points="60.7099,-130.381 64.0801,-120.336 55.1816,-126.087 60.7099,-130.381"/>
<text text-anchor="middle" x="51.5" y="-146.3" font-family="Times,serif" font-size="14.00">b</text>
</g>
<!-- 3&#45;&gt;1 -->
<g id="edge7" class="edge"><title>3&#45;&gt;1</title>
<path fill="none" stroke="black" d="M75,-87.5966C75,-75.7459 75,-59.8169 75,-46.2917"/>
<polygon fill="black" stroke="black" points="78.5001,-46.084 75,-36.084 71.5001,-46.084 78.5001,-46.084"/>
<text text-anchor="middle" x="78.5" y="-58.3" font-family="Times,serif" font-size="14.00">a</text>
</g>
<!-- 3&#45;&gt;2 -->
<g id="edge8" class="edge"><title>3&#45;&gt;2</title>
<path fill="none" stroke="black" d="M69.7172,-123.424C65.9443,-133.837 60.2568,-147.309 53,-158 48.9793,-163.924 43.8687,-169.699 38.8034,-174.794"/>
<polygon fill="black" stroke="black" points="36.3698,-172.279 31.5469,-181.712 41.1999,-177.345 36.3698,-172.279"/>
<text text-anchor="middle" x="64.5" y="-146.3" font-family="Times,serif" font-size="14.00">b</text>
</g>
</g>
</svg>
