<?xml version="1.0" encoding="UTF-8" standalone="no"?>
<!DOCTYPE svg PUBLIC "-//W3C//DTD SVG 1.1//EN"
 "http://www.w3.org/Graphics/SVG/1.1/DTD/svg11.dtd">
<!-- Generated by graphviz version 2.36.0 (20140111.2315)
 -->
<!-- Title: %3 Pages: 1 -->
<svg width="135pt" height="316pt"
 viewBox="0.00 0.00 135.00 316.00" xmlns="http://www.w3.org/2000/svg" xmlns:xlink="http://www.w3.org/1999/xlink">
<g id="graph0" class="graph" transform="scale(1 1) rotate(0) translate(4 312)">
<title>%3</title>
<polygon fill="white" stroke="none" points="-4,4 -4,-312 131,-312 131,4 -4,4"/>
<!-- 0 -->
<g id="node1" class="node"><title>0</title>
<ellipse fill="green" stroke="black" cx="84" cy="-290" rx="18" ry="18"/>
<text text-anchor="middle" x="84" y="-286.3" font-family="Times,serif" font-size="14.00">0</text>
</g>
<!-- 0&#45;&gt;0 -->
<g id="edge1" class="edge"><title>0&#45;&gt;0</title>
<path fill="none" stroke="black" d="M100.29,-297.668C110.389,-299.517 120,-296.961 120,-290 120,-285.541 116.056,-282.889 110.566,-282.045"/>
<polygon fill="black" stroke="black" points="110.189,-278.554 100.29,-282.332 110.384,-285.552 110.189,-278.554"/>
<text text-anchor="middle" x="123.5" y="-286.3" font-family="Times,serif" font-size="14.00">a</text>
</g>
<!-- 2 -->
<g id="node3" class="node"><title>2</title>
<ellipse fill="lightblue" stroke="black" cx="22" cy="-198" rx="17.5909" ry="18"/>
<ellipse fill="none" stroke="black" cx="22" cy="-198" rx="21.5" ry="22"/>
<text text-anchor="middle" x="22" y="-194.3" font-family="Times,serif" font-size="14.00">2</text>
</g>
<!-- 0&#45;&gt;2 -->
<g id="edge2" class="edge"><title>0&#45;&gt;2</title>
<path fill="none" stroke="black" d="M74.0386,-274.54C64.8542,-261.208 51.0047,-241.104 39.902,-224.987"/>
<polygon fill="black" stroke="black" points="42.6188,-222.761 34.0634,-216.511 36.8542,-226.732 42.6188,-222.761"/>
<text text-anchor="middle" x="62.5" y="-242.3" font-family="Times,serif" font-size="14.00">b</text>
</g>
<!-- 1 -->
<g id="node2" class="node"><title>1</title>
<ellipse fill="lightblue" stroke="black" cx="79" cy="-18" rx="18" ry="18"/>
<text text-anchor="middle" x="79" y="-14.3" font-family="Times,serif" font-size="14.00">1</text>
</g>
<!-- 1&#45;&gt;1 -->
<g id="edge3" class="edge"><title>1&#45;&gt;1</title>
<path fill="none" stroke="black" d="M95.2903,-25.6679C105.389,-27.5169 115,-24.9609 115,-18 115,-13.5406 111.056,-10.8891 105.566,-10.0454"/>
<polygon fill="black" stroke="black" points="105.189,-6.55441 95.2903,-10.3321 105.384,-13.5517 105.189,-6.55441"/>
<text text-anchor="middle" x="118.5" y="-14.3" font-family="Times,serif" font-size="14.00">a</text>
</g>
<!-- 3 -->
<g id="node4" class="node"><title>3</title>
<ellipse fill="lightblue" stroke="black" cx="79" cy="-106" rx="18" ry="18"/>
<text text-anchor="middle" x="79" y="-102.3" font-family="Times,serif" font-size="14.00">3</text>
</g>
<!-- 1&#45;&gt;3 -->
<g id="edge4" class="edge"><title>1&#45;&gt;3</title>
<path fill="none" stroke="black" d="M79,-36.084C79,-47.8607 79,-63.7741 79,-77.342"/>
<polygon fill="black" stroke="black" points="75.5001,-77.5966 79,-87.5966 82.5001,-77.5967 75.5001,-77.5966"/>
<text text-anchor="middle" x="82.5" y="-58.3" font-family="Times,serif" font-size="14.00">b</text>
</g>
<!-- 2&#45;&gt;2 -->
<g id="edge5" class="edge"><title>2&#45;&gt;2</title>
<path fill="none" stroke="black" d="M42.0663,-206.734C52.0736,-207.943 61,-205.031 61,-198 61,-193.496 57.3366,-190.682 52.0725,-189.559"/>
<polygon fill="black" stroke="black" points="52.1646,-186.061 42.0663,-189.266 51.9594,-193.057 52.1646,-186.061"/>
<text text-anchor="middle" x="64.5" y="-194.3" font-family="Times,serif" font-size="14.00">a</text>
</g>
<!-- 2&#45;&gt;3 -->
<g id="edge6" class="edge"><title>2&#45;&gt;3</title>
<path fill="none" stroke="black" d="M33.2614,-179.219C42.0741,-165.304 54.4093,-145.827 64.0492,-130.607"/>
<polygon fill="black" stroke="black" points="67.2538,-132.088 69.6475,-121.767 61.34,-128.343 67.2538,-132.088"/>
<text text-anchor="middle" x="59.5" y="-146.3" font-family="Times,serif" font-size="14.00">b</text>
</g>
<!-- 3&#45;&gt;0 -->
<g id="edge7" class="edge"><title>3&#45;&gt;0</title>
<path fill="none" stroke="black" d="M79.4728,-124.209C80.3419,-155.847 82.2002,-223.486 83.2455,-261.537"/>
<polygon fill="black" stroke="black" points="79.7562,-261.978 83.5296,-271.878 86.7536,-261.786 79.7562,-261.978"/>
<text text-anchor="middle" x="86.5" y="-194.3" font-family="Times,serif" font-size="14.00">a</text>
</g>
<!-- 3&#45;&gt;1 -->
<g id="edge8" class="edge"><title>3&#45;&gt;1</title>
<path fill="none" stroke="black" d="M72.8003,-88.8629C70.8558,-83.0135 68.966,-76.2957 68,-70 66.9215,-62.9712 66.9215,-61.0288 68,-54 68.4528,-51.0489 69.1086,-48.005 69.8779,-45.0013"/>
<polygon fill="black" stroke="black" points="73.3155,-45.7194 72.8003,-35.1371 66.6038,-43.7309 73.3155,-45.7194"/>
<text text-anchor="middle" x="71.5" y="-58.3" font-family="Times,serif" font-size="14.00">b</text>
</g>
</g>
</svg>
