<?xml version="1.0" encoding="UTF-8" standalone="no"?>
<!DOCTYPE svg PUBLIC "-//W3C//DTD SVG 1.1//EN"
 "http://www.w3.org/Graphics/SVG/1.1/DTD/svg11.dtd">
<!-- Generated by graphviz version 2.36.0 (20140111.2315)
 -->
<!-- Title: %3 Pages: 1 -->
<svg width="169pt" height="140pt"
 viewBox="0.00 0.00 169.00 140.00" xmlns="http://www.w3.org/2000/svg" xmlns:xlink="http://www.w3.org/1999/xlink">
<g id="graph0" class="graph" transform="scale(1 1) rotate(0) translate(4 136)">
<title>%3</title>
<polygon fill="white" stroke="none" points="-4,4 -4,-136 165,-136 165,4 -4,4"/>
<!-- 0 -->
<g id="node1" class="node"><title>0</title>
<ellipse fill="lightblue" stroke="black" cx="19" cy="-110" rx="18" ry="18"/>
<text text-anchor="middle" x="19" y="-106.3" font-family="Times,serif" font-size="14.00">0</text>
</g>
<!-- 0&#45;&gt;0 -->
<g id="edge1" class="edge"><title>0&#45;&gt;0</title>
<path fill="none" stroke="black" d="M35.2903,-118.365C45.3892,-120.382 55,-117.594 55,-110 55,-105.135 51.0557,-102.243 45.5656,-101.322"/>
<polygon fill="black" stroke="black" points="45.1791,-97.8323 35.2903,-101.635 45.3922,-104.829 45.1791,-97.8323"/>
<text text-anchor="middle" x="58.5" y="-106.3" font-family="Times,serif" font-size="14.00">a</text>
</g>
<!-- 1 -->
<g id="node2" class="node"><title>1</title>
<ellipse fill="lightblue" stroke="black" cx="18" cy="-18" rx="18" ry="18"/>
<text text-anchor="middle" x="18" y="-14.3" font-family="Times,serif" font-size="14.00">1</text>
</g>
<!-- 0&#45;&gt;1 -->
<g id="edge2" class="edge"><title>0&#45;&gt;1</title>
<path fill="none" stroke="black" d="M13.3761,-92.7065C10.2692,-81.7987 7.34335,-67.0946 9,-54 9.34969,-51.236 9.84886,-48.3777 10.4351,-45.5411"/>
<polygon fill="black" stroke="black" points="13.898,-46.1096 12.8288,-35.5689 7.09137,-44.4757 13.898,-46.1096"/>
<text text-anchor="middle" x="12.5" y="-58.3" font-family="Times,serif" font-size="14.00">b</text>
</g>
<!-- 1&#45;&gt;0 -->
<g id="edge3" class="edge"><title>1&#45;&gt;0</title>
<path fill="none" stroke="black" d="M18.1922,-36.2996C18.3346,-49.1103 18.5314,-66.823 18.6951,-81.5573"/>
<polygon fill="black" stroke="black" points="15.1962,-81.6866 18.8072,-91.6471 22.1958,-81.6088 15.1962,-81.6866"/>
<text text-anchor="middle" x="22.5" y="-58.3" font-family="Times,serif" font-size="14.00">a</text>
</g>
<!-- 1&#45;&gt;1 -->
<g id="edge4" class="edge"><title>1&#45;&gt;1</title>
<path fill="none" stroke="black" d="M34.2903,-25.6679C44.3892,-27.5169 54,-24.9609 54,-18 54,-13.5406 50.0557,-10.8891 44.5656,-10.0454"/>
<polygon fill="black" stroke="black" points="44.1887,-6.55441 34.2903,-10.3321 44.384,-13.5517 44.1887,-6.55441"/>
<text text-anchor="middle" x="57.5" y="-14.3" font-family="Times,serif" font-size="14.00">b</text>
</g>
<!-- 2 -->
<g id="node3" class="node"><title>2</title>
<ellipse fill="lightblue" stroke="black" cx="108" cy="-18" rx="18" ry="18"/>
<text text-anchor="middle" x="108" y="-14.3" font-family="Times,serif" font-size="14.00">2</text>
</g>
<!-- 2&#45;&gt;2 -->
<g id="edge5" class="edge"><title>2&#45;&gt;2</title>
<path fill="none" stroke="black" d="M124.29,-25.6679C134.389,-27.5169 144,-24.9609 144,-18 144,-13.5406 140.056,-10.8891 134.566,-10.0454"/>
<polygon fill="black" stroke="black" points="134.189,-6.55441 124.29,-10.3321 134.384,-13.5517 134.189,-6.55441"/>
<text text-anchor="middle" x="152.5" y="-14.3" font-family="Times,serif" font-size="14.00">b,a</text>
</g>
<!-- 3 -->
<g id="node4" class="node"><title>3</title>
<ellipse fill="green" stroke="black" cx="108" cy="-110" rx="17.5909" ry="18"/>
<ellipse fill="none" stroke="black" cx="108" cy="-110" rx="21.5" ry="22"/>
<text text-anchor="middle" x="108" y="-106.3" font-family="Times,serif" font-size="14.00">3</text>
</g>
<!-- 3&#45;&gt;2 -->
<g id="edge6" class="edge"><title>3&#45;&gt;2</title>
<path fill="none" stroke="black" d="M108,-87.6713C108,-75.2844 108,-59.5523 108,-46.2721"/>
<polygon fill="black" stroke="black" points="111.5,-46.258 108,-36.2581 104.5,-46.2581 111.5,-46.258"/>
<text text-anchor="middle" x="111.5" y="-58.3" font-family="Times,serif" font-size="14.00">b</text>
</g>
<!-- 3&#45;&gt;3 -->
<g id="edge7" class="edge"><title>3&#45;&gt;3</title>
<path fill="none" stroke="black" d="M128.066,-118.734C138.074,-119.943 147,-117.031 147,-110 147,-105.496 143.337,-102.682 138.072,-101.559"/>
<polygon fill="black" stroke="black" points="138.165,-98.0605 128.066,-101.266 137.959,-105.057 138.165,-98.0605"/>
<text text-anchor="middle" x="150.5" y="-106.3" font-family="Times,serif" font-size="14.00">a</text>
</g>
</g>
</svg>
