<?xml version="1.0" encoding="UTF-8" standalone="no"?>
<!DOCTYPE svg PUBLIC "-//W3C//DTD SVG 1.1//EN"
 "http://www.w3.org/Graphics/SVG/1.1/DTD/svg11.dtd">
<!-- Generated by graphviz version 2.36.0 (20140111.2315)
 -->
<!-- Title: %3 Pages: 1 -->
<svg width="72pt" height="316pt"
 viewBox="0.00 0.00 72.00 316.00" xmlns="http://www.w3.org/2000/svg" xmlns:xlink="http://www.w3.org/1999/xlink">
<g id="graph0" class="graph" transform="scale(1 1) rotate(0) translate(4 312)">
<title>%3</title>
<polygon fill="white" stroke="none" points="-4,4 -4,-312 68,-312 68,4 -4,4"/>
<!-- 0 -->
<g id="node1" class="node"><title>0</title>
<ellipse fill="lightblue" stroke="black" cx="21" cy="-290" rx="18" ry="18"/>
<text text-anchor="middle" x="21" y="-286.3" font-family="Times,serif" font-size="14.00">0</text>
</g>
<!-- 1 -->
<g id="node2" class="node"><title>1</title>
<ellipse fill="lightblue" stroke="black" cx="21" cy="-202" rx="18" ry="18"/>
<text text-anchor="middle" x="21" y="-198.3" font-family="Times,serif" font-size="14.00">1</text>
</g>
<!-- 0&#45;&gt;1 -->
<g id="edge1" class="edge"><title>0&#45;&gt;1</title>
<path fill="none" stroke="black" d="M21,-271.597C21,-259.746 21,-243.817 21,-230.292"/>
<polygon fill="black" stroke="black" points="24.5001,-230.084 21,-220.084 17.5001,-230.084 24.5001,-230.084"/>
<text text-anchor="middle" x="29.5" y="-242.3" font-family="Times,serif" font-size="14.00">b,a</text>
</g>
<!-- 1&#45;&gt;1 -->
<g id="edge2" class="edge"><title>1&#45;&gt;1</title>
<path fill="none" stroke="black" d="M37.2903,-209.668C47.3892,-211.517 57,-208.961 57,-202 57,-197.541 53.0557,-194.889 47.5656,-194.045"/>
<polygon fill="black" stroke="black" points="47.1887,-190.554 37.2903,-194.332 47.384,-197.552 47.1887,-190.554"/>
<text text-anchor="middle" x="60.5" y="-198.3" font-family="Times,serif" font-size="14.00">a</text>
</g>
<!-- 3 -->
<g id="node4" class="node"><title>3</title>
<ellipse fill="lightblue" stroke="black" cx="21" cy="-110" rx="17.5909" ry="18"/>
<ellipse fill="none" stroke="black" cx="21" cy="-110" rx="21.5" ry="22"/>
<text text-anchor="middle" x="21" y="-106.3" font-family="Times,serif" font-size="14.00">3</text>
</g>
<!-- 1&#45;&gt;3 -->
<g id="edge3" class="edge"><title>1&#45;&gt;3</title>
<path fill="none" stroke="black" d="M14.3664,-185.258C12.201,-179.332 10.0772,-172.463 9,-166 7.59501,-157.57 8.55001,-148.482 10.4167,-140.169"/>
<polygon fill="black" stroke="black" points="13.7966,-141.077 13.0484,-130.509 7.04274,-139.237 13.7966,-141.077"/>
<text text-anchor="middle" x="12.5" y="-154.3" font-family="Times,serif" font-size="14.00">b</text>
</g>
<!-- 2 -->
<g id="node3" class="node"><title>2</title>
<ellipse fill="green" stroke="black" cx="21" cy="-18" rx="18" ry="18"/>
<text text-anchor="middle" x="21" y="-14.3" font-family="Times,serif" font-size="14.00">2</text>
</g>
<!-- 2&#45;&gt;2 -->
<g id="edge4" class="edge"><title>2&#45;&gt;2</title>
<path fill="none" stroke="black" d="M37.2903,-25.6679C47.3892,-27.5169 57,-24.9609 57,-18 57,-13.5406 53.0557,-10.8891 47.5656,-10.0454"/>
<polygon fill="black" stroke="black" points="47.1887,-6.55441 37.2903,-10.3321 47.384,-13.5517 47.1887,-6.55441"/>
<text text-anchor="middle" x="60.5" y="-14.3" font-family="Times,serif" font-size="14.00">a</text>
</g>
<!-- 2&#45;&gt;3 -->
<g id="edge5" class="edge"><title>2&#45;&gt;3</title>
<path fill="none" stroke="black" d="M21,-36.2581C21,-47.9274 21,-63.6781 21,-77.539"/>
<polygon fill="black" stroke="black" points="17.5001,-77.6712 21,-87.6713 24.5001,-77.6713 17.5001,-77.6712"/>
<text text-anchor="middle" x="24.5" y="-58.3" font-family="Times,serif" font-size="14.00">b</text>
</g>
<!-- 3&#45;&gt;1 -->
<g id="edge6" class="edge"><title>3&#45;&gt;1</title>
<path fill="none" stroke="black" d="M21,-132.101C21,-144.48 21,-160.258 21,-173.59"/>
<polygon fill="black" stroke="black" points="17.5001,-173.647 21,-183.647 24.5001,-173.647 17.5001,-173.647"/>
<text text-anchor="middle" x="24.5" y="-154.3" font-family="Times,serif" font-size="14.00">a</text>
</g>
<!-- 3&#45;&gt;2 -->
<g id="edge7" class="edge"><title>3&#45;&gt;2</title>
<path fill="none" stroke="black" d="M13.6325,-89.2198C10.612,-78.7842 8.19818,-65.7426 10,-54 10.4528,-51.0489 11.1086,-48.005 11.8779,-45.0013"/>
<polygon fill="black" stroke="black" points="15.3155,-45.7194 14.8003,-35.1371 8.60382,-43.7309 15.3155,-45.7194"/>
<text text-anchor="middle" x="13.5" y="-58.3" font-family="Times,serif" font-size="14.00">b</text>
</g>
</g>
</svg>
