<?xml version="1.0" encoding="UTF-8" standalone="no"?>
<!DOCTYPE svg PUBLIC "-//W3C//DTD SVG 1.1//EN"
 "http://www.w3.org/Graphics/SVG/1.1/DTD/svg11.dtd">
<!-- Generated by graphviz version 2.36.0 (20140111.2315)
 -->
<!-- Title: %3 Pages: 1 -->
<svg width="96pt" height="316pt"
 viewBox="0.00 0.00 96.00 316.00" xmlns="http://www.w3.org/2000/svg" xmlns:xlink="http://www.w3.org/1999/xlink">
<g id="graph0" class="graph" transform="scale(1 1) rotate(0) translate(4 312)">
<title>%3</title>
<polygon fill="white" stroke="none" points="-4,4 -4,-312 92,-312 92,4 -4,4"/>
<!-- 0 -->
<g id="node1" class="node"><title>0</title>
<ellipse fill="lightblue" stroke="black" cx="18" cy="-290" rx="18" ry="18"/>
<text text-anchor="middle" x="18" y="-286.3" font-family="Times,serif" font-size="14.00">0</text>
</g>
<!-- 2 -->
<g id="node3" class="node"><title>2</title>
<ellipse fill="green" stroke="black" cx="19" cy="-18" rx="18" ry="18"/>
<text text-anchor="middle" x="19" y="-14.3" font-family="Times,serif" font-size="14.00">2</text>
</g>
<!-- 0&#45;&gt;2 -->
<g id="edge1" class="edge"><title>0&#45;&gt;2</title>
<path fill="none" stroke="black" d="M17.916,-271.792C17.765,-237.051 17.5069,-156.045 18,-88 18.0994,-74.2865 18.3098,-59.0411 18.5121,-46.3757"/>
<polygon fill="black" stroke="black" points="22.0176,-46.0699 18.6848,-36.0129 15.0186,-45.9531 22.0176,-46.0699"/>
<text text-anchor="middle" x="20.5" y="-154.3" font-family="Times,serif" font-size="14.00">a</text>
</g>
<!-- 3 -->
<g id="node4" class="node"><title>3</title>
<ellipse fill="lightblue" stroke="black" cx="45" cy="-202" rx="18" ry="18"/>
<text text-anchor="middle" x="45" y="-198.3" font-family="Times,serif" font-size="14.00">3</text>
</g>
<!-- 0&#45;&gt;3 -->
<g id="edge2" class="edge"><title>0&#45;&gt;3</title>
<path fill="none" stroke="black" d="M23.2059,-272.418C27.0532,-260.164 32.3677,-243.236 36.7856,-229.165"/>
<polygon fill="black" stroke="black" points="40.154,-230.12 39.8101,-219.531 33.4754,-228.023 40.154,-230.12"/>
<text text-anchor="middle" x="36.5" y="-242.3" font-family="Times,serif" font-size="14.00">b</text>
</g>
<!-- 1 -->
<g id="node2" class="node"><title>1</title>
<ellipse fill="lightblue" stroke="black" cx="49" cy="-110" rx="17.5909" ry="18"/>
<ellipse fill="none" stroke="black" cx="49" cy="-110" rx="21.5" ry="22"/>
<text text-anchor="middle" x="49" y="-106.3" font-family="Times,serif" font-size="14.00">1</text>
</g>
<!-- 1&#45;&gt;2 -->
<g id="edge3" class="edge"><title>1&#45;&gt;2</title>
<path fill="none" stroke="black" d="M42.342,-89.0261C38.0081,-76.0244 32.312,-58.9359 27.6316,-44.8948"/>
<polygon fill="black" stroke="black" points="30.9199,-43.6914 24.4371,-35.3114 24.2791,-45.905 30.9199,-43.6914"/>
<text text-anchor="middle" x="38.5" y="-58.3" font-family="Times,serif" font-size="14.00">a</text>
</g>
<!-- 1&#45;&gt;3 -->
<g id="edge4" class="edge"><title>1&#45;&gt;3</title>
<path fill="none" stroke="black" d="M48.0622,-132.101C47.512,-144.48 46.8108,-160.258 46.2182,-173.59"/>
<polygon fill="black" stroke="black" points="42.7188,-173.502 45.7712,-183.647 49.7119,-173.812 42.7188,-173.502"/>
<text text-anchor="middle" x="50.5" y="-154.3" font-family="Times,serif" font-size="14.00">b</text>
</g>
<!-- 2&#45;&gt;2 -->
<g id="edge5" class="edge"><title>2&#45;&gt;2</title>
<path fill="none" stroke="black" d="M35.2903,-25.6679C45.3892,-27.5169 55,-24.9609 55,-18 55,-13.5406 51.0557,-10.8891 45.5656,-10.0454"/>
<polygon fill="black" stroke="black" points="45.1887,-6.55441 35.2903,-10.3321 45.384,-13.5517 45.1887,-6.55441"/>
<text text-anchor="middle" x="63.5" y="-14.3" font-family="Times,serif" font-size="14.00">b,a</text>
</g>
<!-- 3&#45;&gt;1 -->
<g id="edge6" class="edge"><title>3&#45;&gt;1</title>
<path fill="none" stroke="black" d="M42.0715,-183.962C41.2253,-178.269 40.4177,-171.878 40,-166 39.4959,-158.907 39.1953,-157.065 40,-150 40.3135,-147.247 40.7478,-144.405 41.2575,-141.57"/>
<polygon fill="black" stroke="black" points="44.7435,-141.997 43.3533,-131.493 37.8901,-140.571 44.7435,-141.997"/>
<text text-anchor="middle" x="43.5" y="-154.3" font-family="Times,serif" font-size="14.00">b</text>
</g>
<!-- 3&#45;&gt;3 -->
<g id="edge7" class="edge"><title>3&#45;&gt;3</title>
<path fill="none" stroke="black" d="M61.2903,-209.668C71.3892,-211.517 81,-208.961 81,-202 81,-197.541 77.0557,-194.889 71.5656,-194.045"/>
<polygon fill="black" stroke="black" points="71.1887,-190.554 61.2903,-194.332 71.384,-197.552 71.1887,-190.554"/>
<text text-anchor="middle" x="84.5" y="-198.3" font-family="Times,serif" font-size="14.00">a</text>
</g>
</g>
</svg>
