<?xml version="1.0" encoding="UTF-8" standalone="no"?>
<!DOCTYPE svg PUBLIC "-//W3C//DTD SVG 1.1//EN"
 "http://www.w3.org/Graphics/SVG/1.1/DTD/svg11.dtd">
<!-- Generated by graphviz version 2.36.0 (20140111.2315)
 -->
<!-- Title: %3 Pages: 1 -->
<svg width="188pt" height="228pt"
 viewBox="0.00 0.00 188.00 228.00" xmlns="http://www.w3.org/2000/svg" xmlns:xlink="http://www.w3.org/1999/xlink">
<g id="graph0" class="graph" transform="scale(1 1) rotate(0) translate(4 224)">
<title>%3</title>
<polygon fill="white" stroke="none" points="-4,4 -4,-224 184,-224 184,4 -4,4"/>
<!-- 0 -->
<g id="node1" class="node"><title>0</title>
<ellipse fill="lightblue" stroke="black" cx="58" cy="-110" rx="17.5909" ry="18"/>
<ellipse fill="none" stroke="black" cx="58" cy="-110" rx="21.5" ry="22"/>
<text text-anchor="middle" x="58" y="-106.3" font-family="Times,serif" font-size="14.00">0</text>
</g>
<!-- 2 -->
<g id="node3" class="node"><title>2</title>
<ellipse fill="green" stroke="black" cx="108" cy="-18" rx="18" ry="18"/>
<text text-anchor="middle" x="108" y="-14.3" font-family="Times,serif" font-size="14.00">2</text>
</g>
<!-- 0&#45;&gt;2 -->
<g id="edge1" class="edge"><title>0&#45;&gt;2</title>
<path fill="none" stroke="black" d="M64.8943,-89.061C68.9522,-78.3461 74.55,-65.0953 81,-54 83.7264,-49.3101 87.0057,-44.5416 90.3248,-40.0956"/>
<polygon fill="black" stroke="black" points="93.2154,-42.081 96.6213,-32.0485 87.7024,-37.7673 93.2154,-42.081"/>
<text text-anchor="middle" x="84.5" y="-58.3" font-family="Times,serif" font-size="14.00">a</text>
</g>
<!-- 4 -->
<g id="node5" class="node"><title>4</title>
<ellipse fill="lightblue" stroke="black" cx="18" cy="-18" rx="18" ry="18"/>
<text text-anchor="middle" x="18" y="-14.3" font-family="Times,serif" font-size="14.00">4</text>
</g>
<!-- 0&#45;&gt;4 -->
<g id="edge2" class="edge"><title>0&#45;&gt;4</title>
<path fill="none" stroke="black" d="M49.3206,-89.4713C43.4212,-76.1977 35.5624,-58.5154 29.1928,-44.1838"/>
<polygon fill="black" stroke="black" points="32.3232,-42.6093 25.0634,-34.8927 25.9265,-45.4523 32.3232,-42.6093"/>
<text text-anchor="middle" x="43.5" y="-58.3" font-family="Times,serif" font-size="14.00">b</text>
</g>
<!-- 1 -->
<g id="node2" class="node"><title>1</title>
<ellipse fill="lightblue" stroke="black" cx="137" cy="-110" rx="18" ry="18"/>
<text text-anchor="middle" x="137" y="-106.3" font-family="Times,serif" font-size="14.00">1</text>
</g>
<!-- 1&#45;&gt;1 -->
<g id="edge3" class="edge"><title>1&#45;&gt;1</title>
<path fill="none" stroke="black" d="M153.29,-118.365C163.389,-120.382 173,-117.594 173,-110 173,-105.135 169.056,-102.243 163.566,-101.322"/>
<polygon fill="black" stroke="black" points="163.179,-97.8323 153.29,-101.635 163.392,-104.829 163.179,-97.8323"/>
<text text-anchor="middle" x="176.5" y="-106.3" font-family="Times,serif" font-size="14.00">b</text>
</g>
<!-- 1&#45;&gt;2 -->
<g id="edge4" class="edge"><title>1&#45;&gt;2</title>
<path fill="none" stroke="black" d="M134.819,-91.8249C133.117,-80.8099 130.305,-66.318 126,-54 124.731,-50.3677 123.149,-46.6398 121.453,-43.0342"/>
<polygon fill="black" stroke="black" points="124.479,-41.2625 116.836,-33.925 118.235,-44.4271 124.479,-41.2625"/>
<text text-anchor="middle" x="133.5" y="-58.3" font-family="Times,serif" font-size="14.00">a</text>
</g>
<!-- 2&#45;&gt;0 -->
<g id="edge5" class="edge"><title>2&#45;&gt;0</title>
<path fill="none" stroke="black" d="M102.109,-35.0463C98.0932,-45.3082 92.3638,-58.7544 86,-70 83.3484,-74.6857 80.2522,-79.4898 77.1047,-84.0542"/>
<polygon fill="black" stroke="black" points="74.0735,-82.2753 71.092,-92.442 79.7628,-86.3536 74.0735,-82.2753"/>
<text text-anchor="middle" x="101.5" y="-58.3" font-family="Times,serif" font-size="14.00">b,a</text>
</g>
<!-- 3 -->
<g id="node4" class="node"><title>3</title>
<ellipse fill="lightblue" stroke="black" cx="31" cy="-202" rx="18" ry="18"/>
<text text-anchor="middle" x="31" y="-198.3" font-family="Times,serif" font-size="14.00">3</text>
</g>
<!-- 3&#45;&gt;1 -->
<g id="edge6" class="edge"><title>3&#45;&gt;1</title>
<path fill="none" stroke="black" d="M44.425,-189.601C62.4251,-174.318 94.5748,-147.021 115.847,-128.96"/>
<polygon fill="black" stroke="black" points="118.326,-131.446 123.684,-122.306 113.796,-126.11 118.326,-131.446"/>
<text text-anchor="middle" x="93.5" y="-154.3" font-family="Times,serif" font-size="14.00">a</text>
</g>
<!-- 3&#45;&gt;4 -->
<g id="edge7" class="edge"><title>3&#45;&gt;4</title>
<path fill="none" stroke="black" d="M27.5221,-184.3C22.2298,-157.087 12.9702,-101.449 15,-54 15.1095,-51.4409 15.2638,-48.7794 15.4453,-46.1181"/>
<polygon fill="black" stroke="black" points="18.9404,-46.3166 16.2425,-36.071 11.9623,-45.7628 18.9404,-46.3166"/>
<text text-anchor="middle" x="22.5" y="-106.3" font-family="Times,serif" font-size="14.00">b</text>
</g>
<!-- 4&#45;&gt;0 -->
<g id="edge8" class="edge"><title>4&#45;&gt;0</title>
<path fill="none" stroke="black" d="M17.0559,-36.2091C17.1249,-46.4279 18.3415,-59.4141 23,-70 25.856,-76.4898 30.217,-82.6429 34.9019,-88.0626"/>
<polygon fill="black" stroke="black" points="32.45,-90.5639 41.8601,-95.4323 37.5398,-85.7583 32.45,-90.5639"/>
<text text-anchor="middle" x="26.5" y="-58.3" font-family="Times,serif" font-size="14.00">b</text>
</g>
<!-- 4&#45;&gt;4 -->
<g id="edge9" class="edge"><title>4&#45;&gt;4</title>
<path fill="none" stroke="black" d="M34.2903,-25.6679C44.3892,-27.5169 54,-24.9609 54,-18 54,-13.5406 50.0557,-10.8891 44.5656,-10.0454"/>
<polygon fill="black" stroke="black" points="44.1887,-6.55441 34.2903,-10.3321 44.384,-13.5517 44.1887,-6.55441"/>
<text text-anchor="middle" x="57.5" y="-14.3" font-family="Times,serif" font-size="14.00">a</text>
</g>
</g>
</svg>
