<?xml version="1.0" encoding="UTF-8" standalone="no"?>
<!DOCTYPE svg PUBLIC "-//W3C//DTD SVG 1.1//EN"
 "http://www.w3.org/Graphics/SVG/1.1/DTD/svg11.dtd">
<!-- Generated by graphviz version 2.36.0 (20140111.2315)
 -->
<!-- Title: %3 Pages: 1 -->
<svg width="130pt" height="228pt"
 viewBox="0.00 0.00 130.00 228.00" xmlns="http://www.w3.org/2000/svg" xmlns:xlink="http://www.w3.org/1999/xlink">
<g id="graph0" class="graph" transform="scale(1 1) rotate(0) translate(4 224)">
<title>%3</title>
<polygon fill="white" stroke="none" points="-4,4 -4,-224 126,-224 126,4 -4,4"/>
<!-- 0 -->
<g id="node1" class="node"><title>0</title>
<ellipse fill="lightblue" stroke="black" cx="21" cy="-198" rx="17.5909" ry="18"/>
<ellipse fill="none" stroke="black" cx="21" cy="-198" rx="21.5" ry="22"/>
<text text-anchor="middle" x="21" y="-194.3" font-family="Times,serif" font-size="14.00">0</text>
</g>
<!-- 0&#45;&gt;0 -->
<g id="edge1" class="edge"><title>0&#45;&gt;0</title>
<path fill="none" stroke="black" d="M41.0663,-206.734C51.0736,-207.943 60,-205.031 60,-198 60,-193.496 56.3366,-190.682 51.0725,-189.559"/>
<polygon fill="black" stroke="black" points="51.1646,-186.061 41.0663,-189.266 50.9594,-193.057 51.1646,-186.061"/>
<text text-anchor="middle" x="63.5" y="-194.3" font-family="Times,serif" font-size="14.00">b</text>
</g>
<!-- 2 -->
<g id="node3" class="node"><title>2</title>
<ellipse fill="lightblue" stroke="black" cx="50" cy="-106" rx="18" ry="18"/>
<text text-anchor="middle" x="50" y="-102.3" font-family="Times,serif" font-size="14.00">2</text>
</g>
<!-- 0&#45;&gt;2 -->
<g id="edge2" class="edge"><title>0&#45;&gt;2</title>
<path fill="none" stroke="black" d="M19.887,-175.811C19.9954,-165.354 21.1317,-152.716 25,-142 26.7162,-137.246 29.2725,-132.559 32.1049,-128.236"/>
<polygon fill="black" stroke="black" points="35.0677,-130.113 38.1253,-119.969 29.4091,-125.992 35.0677,-130.113"/>
<text text-anchor="middle" x="28.5" y="-146.3" font-family="Times,serif" font-size="14.00">a</text>
</g>
<!-- 1 -->
<g id="node2" class="node"><title>1</title>
<ellipse fill="green" stroke="black" cx="50" cy="-18" rx="18" ry="18"/>
<text text-anchor="middle" x="50" y="-14.3" font-family="Times,serif" font-size="14.00">1</text>
</g>
<!-- 1&#45;&gt;0 -->
<g id="edge3" class="edge"><title>1&#45;&gt;0</title>
<path fill="none" stroke="black" d="M40.4926,-33.3321C32.1705,-46.798 20.6972,-67.8405 16,-88 9.97844,-113.843 12.0437,-144.04 15.1487,-166.088"/>
<polygon fill="black" stroke="black" points="11.7268,-166.861 16.7257,-176.203 18.6433,-165.783 11.7268,-166.861"/>
<text text-anchor="middle" x="19.5" y="-102.3" font-family="Times,serif" font-size="14.00">a</text>
</g>
<!-- 1&#45;&gt;1 -->
<g id="edge4" class="edge"><title>1&#45;&gt;1</title>
<path fill="none" stroke="black" d="M66.2903,-25.6679C76.3892,-27.5169 86,-24.9609 86,-18 86,-13.5406 82.0557,-10.8891 76.5656,-10.0454"/>
<polygon fill="black" stroke="black" points="76.1887,-6.55441 66.2903,-10.3321 76.384,-13.5517 76.1887,-6.55441"/>
<text text-anchor="middle" x="89.5" y="-14.3" font-family="Times,serif" font-size="14.00">b</text>
</g>
<!-- 2&#45;&gt;0 -->
<g id="edge5" class="edge"><title>2&#45;&gt;0</title>
<path fill="none" stroke="black" d="M44.7036,-123.437C40.7902,-135.582 35.3521,-152.459 30.6717,-166.984"/>
<polygon fill="black" stroke="black" points="27.3162,-165.986 27.5805,-176.578 33.9789,-168.133 27.3162,-165.986"/>
<text text-anchor="middle" x="41.5" y="-146.3" font-family="Times,serif" font-size="14.00">b</text>
</g>
<!-- 2&#45;&gt;1 -->
<g id="edge6" class="edge"><title>2&#45;&gt;1</title>
<path fill="none" stroke="black" d="M50,-87.5966C50,-75.7459 50,-59.8169 50,-46.2917"/>
<polygon fill="black" stroke="black" points="53.5001,-46.084 50,-36.084 46.5001,-46.084 53.5001,-46.084"/>
<text text-anchor="middle" x="53.5" y="-58.3" font-family="Times,serif" font-size="14.00">a</text>
</g>
<!-- 3 -->
<g id="node4" class="node"><title>3</title>
<ellipse fill="lightblue" stroke="black" cx="104" cy="-198" rx="18" ry="18"/>
<text text-anchor="middle" x="104" y="-194.3" font-family="Times,serif" font-size="14.00">3</text>
</g>
<!-- 3&#45;&gt;1 -->
<g id="edge7" class="edge"><title>3&#45;&gt;1</title>
<path fill="none" stroke="black" d="M100.549,-180.192C95.9583,-158.62 87.2214,-120.141 77,-88 72.3243,-73.2973 66.1033,-57.2258 60.8113,-44.2954"/>
<polygon fill="black" stroke="black" points="63.886,-42.5738 56.8137,-34.685 57.4229,-45.2623 63.886,-42.5738"/>
<text text-anchor="middle" x="89.5" y="-102.3" font-family="Times,serif" font-size="14.00">a</text>
</g>
<!-- 3&#45;&gt;2 -->
<g id="edge8" class="edge"><title>3&#45;&gt;2</title>
<path fill="none" stroke="black" d="M95.083,-182.138C86.7192,-168.199 74.0708,-147.118 64.2979,-130.83"/>
<polygon fill="black" stroke="black" points="67.0765,-128.658 58.9302,-121.884 61.074,-132.259 67.0765,-128.658"/>
<text text-anchor="middle" x="83.5" y="-146.3" font-family="Times,serif" font-size="14.00">b</text>
</g>
</g>
</svg>
