<?xml version="1.0" encoding="UTF-8" standalone="no"?>
<!DOCTYPE svg PUBLIC "-//W3C//DTD SVG 1.1//EN"
 "http://www.w3.org/Graphics/SVG/1.1/DTD/svg11.dtd">
<!-- Generated by graphviz version 2.36.0 (20140111.2315)
 -->
<!-- Title: %3 Pages: 1 -->
<svg width="137pt" height="316pt"
 viewBox="0.00 0.00 137.00 316.00" xmlns="http://www.w3.org/2000/svg" xmlns:xlink="http://www.w3.org/1999/xlink">
<g id="graph0" class="graph" transform="scale(1 1) rotate(0) translate(4 312)">
<title>%3</title>
<polygon fill="white" stroke="none" points="-4,4 -4,-312 133,-312 133,4 -4,4"/>
<!-- 0 -->
<g id="node1" class="node"><title>0</title>
<ellipse fill="green" stroke="black" cx="79" cy="-290" rx="18" ry="18"/>
<text text-anchor="middle" x="79" y="-286.3" font-family="Times,serif" font-size="14.00">0</text>
</g>
<!-- 1 -->
<g id="node2" class="node"><title>1</title>
<ellipse fill="lightblue" stroke="black" cx="18" cy="-106" rx="18" ry="18"/>
<text text-anchor="middle" x="18" y="-102.3" font-family="Times,serif" font-size="14.00">1</text>
</g>
<!-- 0&#45;&gt;1 -->
<g id="edge1" class="edge"><title>0&#45;&gt;1</title>
<path fill="none" stroke="black" d="M69.3362,-274.545C60.6988,-260.995 48.3103,-239.897 41,-220 30.6289,-191.772 24.5099,-157.766 21.2237,-134.48"/>
<polygon fill="black" stroke="black" points="24.6564,-133.742 19.8699,-124.29 17.7173,-134.663 24.6564,-133.742"/>
<text text-anchor="middle" x="44.5" y="-194.3" font-family="Times,serif" font-size="14.00">a</text>
</g>
<!-- 2 -->
<g id="node3" class="node"><title>2</title>
<ellipse fill="lightblue" stroke="black" cx="79" cy="-198" rx="17.5909" ry="18"/>
<ellipse fill="none" stroke="black" cx="79" cy="-198" rx="21.5" ry="22"/>
<text text-anchor="middle" x="79" y="-194.3" font-family="Times,serif" font-size="14.00">2</text>
</g>
<!-- 0&#45;&gt;2 -->
<g id="edge2" class="edge"><title>0&#45;&gt;2</title>
<path fill="none" stroke="black" d="M79,-271.647C79,-259.924 79,-244.114 79,-230.237"/>
<polygon fill="black" stroke="black" points="82.5001,-230.101 79,-220.101 75.5001,-230.101 82.5001,-230.101"/>
<text text-anchor="middle" x="82.5" y="-242.3" font-family="Times,serif" font-size="14.00">b</text>
</g>
<!-- 1&#45;&gt;1 -->
<g id="edge3" class="edge"><title>1&#45;&gt;1</title>
<path fill="none" stroke="black" d="M34.2903,-113.668C44.3892,-115.517 54,-112.961 54,-106 54,-101.541 50.0557,-98.8891 44.5656,-98.0454"/>
<polygon fill="black" stroke="black" points="44.1887,-94.5544 34.2903,-98.3321 44.384,-101.552 44.1887,-94.5544"/>
<text text-anchor="middle" x="57.5" y="-102.3" font-family="Times,serif" font-size="14.00">b</text>
</g>
<!-- 3 -->
<g id="node4" class="node"><title>3</title>
<ellipse fill="lightblue" stroke="black" cx="97" cy="-18" rx="18" ry="18"/>
<text text-anchor="middle" x="97" y="-14.3" font-family="Times,serif" font-size="14.00">3</text>
</g>
<!-- 1&#45;&gt;3 -->
<g id="edge4" class="edge"><title>1&#45;&gt;3</title>
<path fill="none" stroke="black" d="M29.9984,-91.9385C42.833,-77.9666 63.3578,-55.6231 78.312,-39.3439"/>
<polygon fill="black" stroke="black" points="80.9601,-41.6349 85.1475,-31.9027 75.8049,-36.8994 80.9601,-41.6349"/>
<text text-anchor="middle" x="68.5" y="-58.3" font-family="Times,serif" font-size="14.00">a</text>
</g>
<!-- 2&#45;&gt;1 -->
<g id="edge5" class="edge"><title>2&#45;&gt;1</title>
<path fill="none" stroke="black" d="M66.9484,-179.219C57.3702,-165.087 43.9039,-145.219 33.5197,-129.898"/>
<polygon fill="black" stroke="black" points="36.3223,-127.794 27.8145,-121.48 30.5278,-131.722 36.3223,-127.794"/>
<text text-anchor="middle" x="56.5" y="-146.3" font-family="Times,serif" font-size="14.00">b</text>
</g>
<!-- 2&#45;&gt;3 -->
<g id="edge6" class="edge"><title>2&#45;&gt;3</title>
<path fill="none" stroke="black" d="M81.1355,-175.882C84.4016,-143.584 90.6371,-81.9218 94.2415,-46.279"/>
<polygon fill="black" stroke="black" points="97.7454,-46.4155 95.2694,-36.1141 90.7809,-45.7112 97.7454,-46.4155"/>
<text text-anchor="middle" x="92.5" y="-102.3" font-family="Times,serif" font-size="14.00">a</text>
</g>
<!-- 3&#45;&gt;0 -->
<g id="edge7" class="edge"><title>3&#45;&gt;0</title>
<path fill="none" stroke="black" d="M102.086,-35.5803C103.636,-41.3535 105.153,-47.91 106,-54 115.115,-119.565 113.902,-196.432 109,-220 105.757,-235.592 98.7984,-251.983 92.3989,-264.876"/>
<polygon fill="black" stroke="black" points="89.1742,-263.492 87.685,-273.981 95.3906,-266.71 89.1742,-263.492"/>
<text text-anchor="middle" x="120.5" y="-146.3" font-family="Times,serif" font-size="14.00">b,a</text>
</g>
</g>
</svg>
