<?xml version="1.0" encoding="UTF-8" standalone="no"?>
<!DOCTYPE svg PUBLIC "-//W3C//DTD SVG 1.1//EN"
 "http://www.w3.org/Graphics/SVG/1.1/DTD/svg11.dtd">
<!-- Generated by graphviz version 2.36.0 (20140111.2315)
 -->
<!-- Title: %3 Pages: 1 -->
<svg width="155pt" height="316pt"
 viewBox="0.00 0.00 155.00 316.00" xmlns="http://www.w3.org/2000/svg" xmlns:xlink="http://www.w3.org/1999/xlink">
<g id="graph0" class="graph" transform="scale(1 1) rotate(0) translate(4 312)">
<title>%3</title>
<polygon fill="white" stroke="none" points="-4,4 -4,-312 151,-312 151,4 -4,4"/>
<!-- 0 -->
<g id="node1" class="node"><title>0</title>
<ellipse fill="green" stroke="black" cx="126" cy="-290" rx="18" ry="18"/>
<text text-anchor="middle" x="126" y="-286.3" font-family="Times,serif" font-size="14.00">0</text>
</g>
<!-- 1 -->
<g id="node2" class="node"><title>1</title>
<ellipse fill="lightblue" stroke="black" cx="74" cy="-198" rx="17.5909" ry="18"/>
<ellipse fill="none" stroke="black" cx="74" cy="-198" rx="21.5" ry="22"/>
<text text-anchor="middle" x="74" y="-194.3" font-family="Times,serif" font-size="14.00">1</text>
</g>
<!-- 0&#45;&gt;1 -->
<g id="edge1" class="edge"><title>0&#45;&gt;1</title>
<path fill="none" stroke="black" d="M116.917,-274.065C113.187,-267.878 108.848,-260.615 105,-254 99.7644,-244.999 94.1456,-235.104 89.1489,-226.219"/>
<polygon fill="black" stroke="black" points="92.1513,-224.417 84.2093,-217.404 86.0447,-227.839 92.1513,-224.417"/>
<text text-anchor="middle" x="108.5" y="-242.3" font-family="Times,serif" font-size="14.00">b</text>
</g>
<!-- 4 -->
<g id="node5" class="node"><title>4</title>
<ellipse fill="lightblue" stroke="black" cx="115" cy="-18" rx="18" ry="18"/>
<text text-anchor="middle" x="115" y="-14.3" font-family="Times,serif" font-size="14.00">4</text>
</g>
<!-- 0&#45;&gt;4 -->
<g id="edge2" class="edge"><title>0&#45;&gt;4</title>
<path fill="none" stroke="black" d="M125.295,-271.7C123.433,-225.98 118.368,-101.671 116.111,-46.2734"/>
<polygon fill="black" stroke="black" points="119.603,-46.0056 115.699,-36.1564 112.609,-46.2906 119.603,-46.0056"/>
<text text-anchor="middle" x="123.5" y="-146.3" font-family="Times,serif" font-size="14.00">a</text>
</g>
<!-- 2 -->
<g id="node3" class="node"><title>2</title>
<ellipse fill="lightblue" stroke="black" cx="74" cy="-106" rx="18" ry="18"/>
<text text-anchor="middle" x="74" y="-102.3" font-family="Times,serif" font-size="14.00">2</text>
</g>
<!-- 1&#45;&gt;2 -->
<g id="edge3" class="edge"><title>1&#45;&gt;2</title>
<path fill="none" stroke="black" d="M74,-175.671C74,-163.284 74,-147.552 74,-134.272"/>
<polygon fill="black" stroke="black" points="77.5001,-134.258 74,-124.258 70.5001,-134.258 77.5001,-134.258"/>
<text text-anchor="middle" x="77.5" y="-146.3" font-family="Times,serif" font-size="14.00">a</text>
</g>
<!-- 3 -->
<g id="node4" class="node"><title>3</title>
<ellipse fill="lightblue" stroke="black" cx="18" cy="-18" rx="18" ry="18"/>
<text text-anchor="middle" x="18" y="-14.3" font-family="Times,serif" font-size="14.00">3</text>
</g>
<!-- 1&#45;&gt;3 -->
<g id="edge4" class="edge"><title>1&#45;&gt;3</title>
<path fill="none" stroke="black" d="M63.8206,-178.277C56.3193,-163.813 46.356,-143.103 40,-124 31.3982,-98.1479 25.4434,-67.5555 21.9192,-46.0817"/>
<polygon fill="black" stroke="black" points="25.3519,-45.3798 20.34,-36.0454 18.437,-46.4679 25.3519,-45.3798"/>
<text text-anchor="middle" x="43.5" y="-102.3" font-family="Times,serif" font-size="14.00">b</text>
</g>
<!-- 2&#45;&gt;3 -->
<g id="edge5" class="edge"><title>2&#45;&gt;3</title>
<path fill="none" stroke="black" d="M64.5004,-90.4113C55.8921,-77.1915 43.0612,-57.4869 33.0568,-42.1229"/>
<polygon fill="black" stroke="black" points="35.936,-40.1304 27.5462,-33.6603 30.07,-43.9502 35.936,-40.1304"/>
<text text-anchor="middle" x="54.5" y="-58.3" font-family="Times,serif" font-size="14.00">a</text>
</g>
<!-- 2&#45;&gt;4 -->
<g id="edge6" class="edge"><title>2&#45;&gt;4</title>
<path fill="none" stroke="black" d="M71.8758,-87.6697C71.3651,-77.408 72.0615,-64.4192 77,-54 80.4334,-46.7563 86.101,-40.3044 92.0245,-34.9745"/>
<polygon fill="black" stroke="black" points="94.5213,-37.4555 100.075,-28.4327 90.1067,-32.023 94.5213,-37.4555"/>
<text text-anchor="middle" x="80.5" y="-58.3" font-family="Times,serif" font-size="14.00">b</text>
</g>
<!-- 3&#45;&gt;3 -->
<g id="edge7" class="edge"><title>3&#45;&gt;3</title>
<path fill="none" stroke="black" d="M34.2903,-25.6679C44.3892,-27.5169 54,-24.9609 54,-18 54,-13.5406 50.0557,-10.8891 44.5656,-10.0454"/>
<polygon fill="black" stroke="black" points="44.1887,-6.55441 34.2903,-10.3321 44.384,-13.5517 44.1887,-6.55441"/>
<text text-anchor="middle" x="62.5" y="-14.3" font-family="Times,serif" font-size="14.00">b,a</text>
</g>
<!-- 4&#45;&gt;0 -->
<g id="edge8" class="edge"><title>4&#45;&gt;0</title>
<path fill="none" stroke="black" d="M122.914,-34.2872C125.649,-40.2776 128.42,-47.3086 130,-54 148.806,-133.665 136.68,-156.156 138,-238 138.115,-245.11 139.169,-246.986 138,-254 137.478,-257.13 136.711,-260.356 135.812,-263.524"/>
<polygon fill="black" stroke="black" points="132.411,-262.665 132.634,-273.258 139.065,-264.838 132.411,-262.665"/>
<text text-anchor="middle" x="143.5" y="-146.3" font-family="Times,serif" font-size="14.00">b</text>
</g>
<!-- 4&#45;&gt;2 -->
<g id="edge9" class="edge"><title>4&#45;&gt;2</title>
<path fill="none" stroke="black" d="M107.528,-34.6737C101.473,-47.3742 92.8288,-65.5054 85.8344,-80.1766"/>
<polygon fill="black" stroke="black" points="82.6642,-78.6934 81.52,-89.2263 88.9828,-81.7058 82.6642,-78.6934"/>
<text text-anchor="middle" x="101.5" y="-58.3" font-family="Times,serif" font-size="14.00">a</text>
</g>
</g>
</svg>
