<?xml version="1.0" encoding="UTF-8" standalone="no"?>
<!DOCTYPE svg PUBLIC "-//W3C//DTD SVG 1.1//EN"
 "http://www.w3.org/Graphics/SVG/1.1/DTD/svg11.dtd">
<!-- Generated by graphviz version 2.36.0 (20140111.2315)
 -->
<!-- Title: %3 Pages: 1 -->
<svg width="152pt" height="316pt"
 viewBox="0.00 0.00 152.00 316.00" xmlns="http://www.w3.org/2000/svg" xmlns:xlink="http://www.w3.org/1999/xlink">
<g id="graph0" class="graph" transform="scale(1 1) rotate(0) translate(4 312)">
<title>%3</title>
<polygon fill="white" stroke="none" points="-4,4 -4,-312 148,-312 148,4 -4,4"/>
<!-- 0 -->
<g id="node1" class="node"><title>0</title>
<ellipse fill="lightblue" stroke="black" cx="18" cy="-194" rx="18" ry="18"/>
<text text-anchor="middle" x="18" y="-190.3" font-family="Times,serif" font-size="14.00">0</text>
</g>
<!-- 0&#45;&gt;0 -->
<g id="edge1" class="edge"><title>0&#45;&gt;0</title>
<path fill="none" stroke="black" d="M34.2903,-201.668C44.3892,-203.517 54,-200.961 54,-194 54,-189.541 50.0557,-186.889 44.5656,-186.045"/>
<polygon fill="black" stroke="black" points="44.1887,-182.554 34.2903,-186.332 44.384,-189.552 44.1887,-182.554"/>
<text text-anchor="middle" x="57.5" y="-190.3" font-family="Times,serif" font-size="14.00">a</text>
</g>
<!-- 2 -->
<g id="node3" class="node"><title>2</title>
<ellipse fill="green" stroke="black" cx="63" cy="-106" rx="18" ry="18"/>
<text text-anchor="middle" x="63" y="-102.3" font-family="Times,serif" font-size="14.00">2</text>
</g>
<!-- 0&#45;&gt;2 -->
<g id="edge2" class="edge"><title>0&#45;&gt;2</title>
<path fill="none" stroke="black" d="M26.0451,-177.625C32.7642,-164.784 42.4656,-146.243 50.2426,-131.381"/>
<polygon fill="black" stroke="black" points="53.4894,-132.725 55.0246,-122.242 47.2872,-129.48 53.4894,-132.725"/>
<text text-anchor="middle" x="47.5" y="-146.3" font-family="Times,serif" font-size="14.00">b</text>
</g>
<!-- 1 -->
<g id="node2" class="node"><title>1</title>
<ellipse fill="lightblue" stroke="black" cx="97" cy="-194" rx="18" ry="18"/>
<text text-anchor="middle" x="97" y="-190.3" font-family="Times,serif" font-size="14.00">1</text>
</g>
<!-- 1&#45;&gt;2 -->
<g id="edge3" class="edge"><title>1&#45;&gt;2</title>
<path fill="none" stroke="black" d="M90.6049,-176.824C85.6659,-164.332 78.7387,-146.81 73.0593,-132.444"/>
<polygon fill="black" stroke="black" points="76.298,-131.116 69.3665,-123.103 69.7883,-133.69 76.298,-131.116"/>
<text text-anchor="middle" x="91.5" y="-146.3" font-family="Times,serif" font-size="14.00">b,a</text>
</g>
<!-- 2&#45;&gt;2 -->
<g id="edge4" class="edge"><title>2&#45;&gt;2</title>
<path fill="none" stroke="black" d="M79.2903,-113.668C89.3892,-115.517 99,-112.961 99,-106 99,-101.541 95.0557,-98.8891 89.5656,-98.0454"/>
<polygon fill="black" stroke="black" points="89.1887,-94.5544 79.2903,-98.3321 89.384,-101.552 89.1887,-94.5544"/>
<text text-anchor="middle" x="102.5" y="-102.3" font-family="Times,serif" font-size="14.00">b</text>
</g>
<!-- 3 -->
<g id="node4" class="node"><title>3</title>
<ellipse fill="lightblue" stroke="black" cx="63" cy="-18" rx="18" ry="18"/>
<text text-anchor="middle" x="63" y="-14.3" font-family="Times,serif" font-size="14.00">3</text>
</g>
<!-- 2&#45;&gt;3 -->
<g id="edge5" class="edge"><title>2&#45;&gt;3</title>
<path fill="none" stroke="black" d="M63,-87.5966C63,-75.7459 63,-59.8169 63,-46.2917"/>
<polygon fill="black" stroke="black" points="66.5001,-46.084 63,-36.084 59.5001,-46.084 66.5001,-46.084"/>
<text text-anchor="middle" x="66.5" y="-58.3" font-family="Times,serif" font-size="14.00">a</text>
</g>
<!-- 3&#45;&gt;3 -->
<g id="edge6" class="edge"><title>3&#45;&gt;3</title>
<path fill="none" stroke="black" d="M79.2903,-25.6679C89.3892,-27.5169 99,-24.9609 99,-18 99,-13.5406 95.0557,-10.8891 89.5656,-10.0454"/>
<polygon fill="black" stroke="black" points="89.1887,-6.55441 79.2903,-10.3321 89.384,-13.5517 89.1887,-6.55441"/>
<text text-anchor="middle" x="107.5" y="-14.3" font-family="Times,serif" font-size="14.00">b,a</text>
</g>
<!-- 4 -->
<g id="node5" class="node"><title>4</title>
<ellipse fill="lightblue" stroke="black" cx="97" cy="-286" rx="17.5909" ry="18"/>
<ellipse fill="none" stroke="black" cx="97" cy="-286" rx="21.5" ry="22"/>
<text text-anchor="middle" x="97" y="-282.3" font-family="Times,serif" font-size="14.00">4</text>
</g>
<!-- 4&#45;&gt;1 -->
<g id="edge7" class="edge"><title>4&#45;&gt;1</title>
<path fill="none" stroke="black" d="M97,-263.671C97,-251.284 97,-235.552 97,-222.272"/>
<polygon fill="black" stroke="black" points="100.5,-222.258 97,-212.258 93.5001,-222.258 100.5,-222.258"/>
<text text-anchor="middle" x="100.5" y="-234.3" font-family="Times,serif" font-size="14.00">b</text>
</g>
<!-- 4&#45;&gt;4 -->
<g id="edge8" class="edge"><title>4&#45;&gt;4</title>
<path fill="none" stroke="black" d="M117.066,-294.734C127.074,-295.943 136,-293.031 136,-286 136,-281.496 132.337,-278.682 127.072,-277.559"/>
<polygon fill="black" stroke="black" points="127.165,-274.061 117.066,-277.266 126.959,-281.057 127.165,-274.061"/>
<text text-anchor="middle" x="139.5" y="-282.3" font-family="Times,serif" font-size="14.00">a</text>
</g>
</g>
</svg>
