<?xml version="1.0" encoding="UTF-8" standalone="no"?>
<!DOCTYPE svg PUBLIC "-//W3C//DTD SVG 1.1//EN"
 "http://www.w3.org/Graphics/SVG/1.1/DTD/svg11.dtd">
<!-- Generated by graphviz version 2.36.0 (20140111.2315)
 -->
<!-- Title: %3 Pages: 1 -->
<svg width="213pt" height="228pt"
 viewBox="0.00 0.00 213.00 228.00" xmlns="http://www.w3.org/2000/svg" xmlns:xlink="http://www.w3.org/1999/xlink">
<g id="graph0" class="graph" transform="scale(1 1) rotate(0) translate(4 224)">
<title>%3</title>
<polygon fill="white" stroke="none" points="-4,4 -4,-224 209,-224 209,4 -4,4"/>
<!-- 0 -->
<g id="node1" class="node"><title>0</title>
<ellipse fill="lightblue" stroke="black" cx="118" cy="-198" rx="17.5909" ry="18"/>
<ellipse fill="none" stroke="black" cx="118" cy="-198" rx="21.5" ry="22"/>
<text text-anchor="middle" x="118" y="-194.3" font-family="Times,serif" font-size="14.00">0</text>
</g>
<!-- 1 -->
<g id="node2" class="node"><title>1</title>
<ellipse fill="green" stroke="black" cx="127" cy="-106" rx="18" ry="18"/>
<text text-anchor="middle" x="127" y="-102.3" font-family="Times,serif" font-size="14.00">1</text>
</g>
<!-- 0&#45;&gt;1 -->
<g id="edge1" class="edge"><title>0&#45;&gt;1</title>
<path fill="none" stroke="black" d="M122.944,-176.467C124.171,-170.542 125.326,-164.045 126,-158 126.863,-150.255 127.251,-141.808 127.388,-134.057"/>
<polygon fill="black" stroke="black" points="130.888,-134.069 127.441,-124.051 123.888,-134.032 130.888,-134.069"/>
<text text-anchor="middle" x="130.5" y="-146.3" font-family="Times,serif" font-size="14.00">b</text>
</g>
<!-- 2 -->
<g id="node3" class="node"><title>2</title>
<ellipse fill="lightblue" stroke="black" cx="48" cy="-106" rx="18" ry="18"/>
<text text-anchor="middle" x="48" y="-102.3" font-family="Times,serif" font-size="14.00">2</text>
</g>
<!-- 0&#45;&gt;2 -->
<g id="edge2" class="edge"><title>0&#45;&gt;2</title>
<path fill="none" stroke="black" d="M104.834,-180.072C93.5389,-165.55 77.1937,-144.535 64.9285,-128.765"/>
<polygon fill="black" stroke="black" points="67.4945,-126.363 58.5923,-120.619 61.969,-130.661 67.4945,-126.363"/>
<text text-anchor="middle" x="91.5" y="-146.3" font-family="Times,serif" font-size="14.00">a</text>
</g>
<!-- 1&#45;&gt;0 -->
<g id="edge3" class="edge"><title>1&#45;&gt;0</title>
<path fill="none" stroke="black" d="M123.675,-124.034C122.672,-129.727 121.662,-136.119 121,-142 120.139,-149.644 119.523,-157.914 119.083,-165.663"/>
<polygon fill="black" stroke="black" points="115.58,-165.638 118.586,-175.797 122.572,-165.981 115.58,-165.638"/>
<text text-anchor="middle" x="124.5" y="-146.3" font-family="Times,serif" font-size="14.00">a</text>
</g>
<!-- 3 -->
<g id="node4" class="node"><title>3</title>
<ellipse fill="lightblue" stroke="black" cx="162" cy="-18" rx="18" ry="18"/>
<text text-anchor="middle" x="162" y="-14.3" font-family="Times,serif" font-size="14.00">3</text>
</g>
<!-- 1&#45;&gt;3 -->
<g id="edge4" class="edge"><title>1&#45;&gt;3</title>
<path fill="none" stroke="black" d="M133.583,-88.8241C138.7,-76.2524 145.889,-58.5877 151.756,-44.1716"/>
<polygon fill="black" stroke="black" points="155.037,-45.3945 155.565,-34.8128 148.553,-42.7558 155.037,-45.3945"/>
<text text-anchor="middle" x="150.5" y="-58.3" font-family="Times,serif" font-size="14.00">b</text>
</g>
<!-- 2&#45;&gt;0 -->
<g id="edge5" class="edge"><title>2&#45;&gt;0</title>
<path fill="none" stroke="black" d="M51.2944,-123.798C53.9713,-134.36 58.554,-147.858 66,-158 72.6804,-167.099 82.0797,-175.042 91.053,-181.343"/>
<polygon fill="black" stroke="black" points="89.1486,-184.28 99.4231,-186.865 93.0035,-178.437 89.1486,-184.28"/>
<text text-anchor="middle" x="69.5" y="-146.3" font-family="Times,serif" font-size="14.00">a</text>
</g>
<!-- 2&#45;&gt;2 -->
<g id="edge6" class="edge"><title>2&#45;&gt;2</title>
<path fill="none" stroke="black" d="M64.2903,-113.668C74.3892,-115.517 84,-112.961 84,-106 84,-101.541 80.0557,-98.8891 74.5656,-98.0454"/>
<polygon fill="black" stroke="black" points="74.1887,-94.5544 64.2903,-98.3321 74.384,-101.552 74.1887,-94.5544"/>
<text text-anchor="middle" x="87.5" y="-102.3" font-family="Times,serif" font-size="14.00">b</text>
</g>
<!-- 3&#45;&gt;0 -->
<g id="edge7" class="edge"><title>3&#45;&gt;0</title>
<path fill="none" stroke="black" d="M162.577,-36.0427C162.865,-57.0776 161.975,-93.772 154,-124 149.74,-140.148 145.367,-143.012 138,-158 136.238,-161.585 134.357,-165.34 132.481,-169.044"/>
<polygon fill="black" stroke="black" points="129.327,-167.525 127.896,-178.022 135.561,-170.709 129.327,-167.525"/>
<text text-anchor="middle" x="163.5" y="-102.3" font-family="Times,serif" font-size="14.00">a</text>
</g>
<!-- 3&#45;&gt;3 -->
<g id="edge8" class="edge"><title>3&#45;&gt;3</title>
<path fill="none" stroke="black" d="M178.29,-25.6679C188.389,-27.5169 198,-24.9609 198,-18 198,-13.5406 194.056,-10.8891 188.566,-10.0454"/>
<polygon fill="black" stroke="black" points="188.189,-6.55441 178.29,-10.3321 188.384,-13.5517 188.189,-6.55441"/>
<text text-anchor="middle" x="201.5" y="-14.3" font-family="Times,serif" font-size="14.00">b</text>
</g>
<!-- 4 -->
<g id="node5" class="node"><title>4</title>
<ellipse fill="lightblue" stroke="black" cx="18" cy="-198" rx="18" ry="18"/>
<text text-anchor="middle" x="18" y="-194.3" font-family="Times,serif" font-size="14.00">4</text>
</g>
<!-- 4&#45;&gt;2 -->
<g id="edge9" class="edge"><title>4&#45;&gt;2</title>
<path fill="none" stroke="black" d="M15.4769,-180.102C14.4848,-168.939 14.4848,-154.178 19,-142 21.0575,-136.451 24.3985,-131.149 28.0943,-126.426"/>
<polygon fill="black" stroke="black" points="30.9743,-128.45 34.9296,-118.621 25.7082,-123.838 30.9743,-128.45"/>
<text text-anchor="middle" x="27.5" y="-146.3" font-family="Times,serif" font-size="14.00">b,a</text>
</g>
</g>
</svg>
