<?xml version="1.0" encoding="UTF-8" standalone="no"?>
<!DOCTYPE svg PUBLIC "-//W3C//DTD SVG 1.1//EN"
 "http://www.w3.org/Graphics/SVG/1.1/DTD/svg11.dtd">
<!-- Generated by graphviz version 2.36.0 (20140111.2315)
 -->
<!-- Title: %3 Pages: 1 -->
<svg width="156pt" height="316pt"
 viewBox="0.00 0.00 156.00 316.00" xmlns="http://www.w3.org/2000/svg" xmlns:xlink="http://www.w3.org/1999/xlink">
<g id="graph0" class="graph" transform="scale(1 1) rotate(0) translate(4 312)">
<title>%3</title>
<polygon fill="white" stroke="none" points="-4,4 -4,-312 152,-312 152,4 -4,4"/>
<!-- 0 -->
<g id="node1" class="node"><title>0</title>
<ellipse fill="lightblue" stroke="black" cx="18" cy="-290" rx="18" ry="18"/>
<text text-anchor="middle" x="18" y="-286.3" font-family="Times,serif" font-size="14.00">0</text>
</g>
<!-- 0&#45;&gt;0 -->
<g id="edge1" class="edge"><title>0&#45;&gt;0</title>
<path fill="none" stroke="black" d="M34.2903,-297.668C44.3892,-299.517 54,-296.961 54,-290 54,-285.541 50.0557,-282.889 44.5656,-282.045"/>
<polygon fill="black" stroke="black" points="44.1887,-278.554 34.2903,-282.332 44.384,-285.552 44.1887,-278.554"/>
<text text-anchor="middle" x="57.5" y="-286.3" font-family="Times,serif" font-size="14.00">a</text>
</g>
<!-- 1 -->
<g id="node2" class="node"><title>1</title>
<ellipse fill="green" stroke="black" cx="18" cy="-202" rx="18" ry="18"/>
<text text-anchor="middle" x="18" y="-198.3" font-family="Times,serif" font-size="14.00">1</text>
</g>
<!-- 0&#45;&gt;1 -->
<g id="edge2" class="edge"><title>0&#45;&gt;1</title>
<path fill="none" stroke="black" d="M18,-271.597C18,-259.746 18,-243.817 18,-230.292"/>
<polygon fill="black" stroke="black" points="21.5001,-230.084 18,-220.084 14.5001,-230.084 21.5001,-230.084"/>
<text text-anchor="middle" x="21.5" y="-242.3" font-family="Times,serif" font-size="14.00">b</text>
</g>
<!-- 1&#45;&gt;1 -->
<g id="edge3" class="edge"><title>1&#45;&gt;1</title>
<path fill="none" stroke="black" d="M34.2903,-209.668C44.3892,-211.517 54,-208.961 54,-202 54,-197.541 50.0557,-194.889 44.5656,-194.045"/>
<polygon fill="black" stroke="black" points="44.1887,-190.554 34.2903,-194.332 44.384,-197.552 44.1887,-190.554"/>
<text text-anchor="middle" x="57.5" y="-198.3" font-family="Times,serif" font-size="14.00">a</text>
</g>
<!-- 4 -->
<g id="node5" class="node"><title>4</title>
<ellipse fill="lightblue" stroke="black" cx="18" cy="-110" rx="18" ry="18"/>
<text text-anchor="middle" x="18" y="-106.3" font-family="Times,serif" font-size="14.00">4</text>
</g>
<!-- 1&#45;&gt;4 -->
<g id="edge4" class="edge"><title>1&#45;&gt;4</title>
<path fill="none" stroke="black" d="M18,-183.647C18,-170.823 18,-153.108 18,-138.381"/>
<polygon fill="black" stroke="black" points="21.5001,-138.3 18,-128.3 14.5001,-138.3 21.5001,-138.3"/>
<text text-anchor="middle" x="21.5" y="-154.3" font-family="Times,serif" font-size="14.00">b</text>
</g>
<!-- 2 -->
<g id="node3" class="node"><title>2</title>
<ellipse fill="lightblue" stroke="black" cx="101" cy="-110" rx="17.5909" ry="18"/>
<ellipse fill="none" stroke="black" cx="101" cy="-110" rx="21.5" ry="22"/>
<text text-anchor="middle" x="101" y="-106.3" font-family="Times,serif" font-size="14.00">2</text>
</g>
<!-- 2&#45;&gt;2 -->
<g id="edge5" class="edge"><title>2&#45;&gt;2</title>
<path fill="none" stroke="black" d="M121.066,-118.734C131.074,-119.943 140,-117.031 140,-110 140,-105.496 136.337,-102.682 131.072,-101.559"/>
<polygon fill="black" stroke="black" points="131.165,-98.0605 121.066,-101.266 130.959,-105.057 131.165,-98.0605"/>
<text text-anchor="middle" x="143.5" y="-106.3" font-family="Times,serif" font-size="14.00">a</text>
</g>
<!-- 3 -->
<g id="node4" class="node"><title>3</title>
<ellipse fill="lightblue" stroke="black" cx="48" cy="-18" rx="18" ry="18"/>
<text text-anchor="middle" x="48" y="-14.3" font-family="Times,serif" font-size="14.00">3</text>
</g>
<!-- 2&#45;&gt;3 -->
<g id="edge6" class="edge"><title>2&#45;&gt;3</title>
<path fill="none" stroke="black" d="M90.2747,-90.7872C82.1088,-76.9205 70.8008,-57.7184 61.9347,-42.6627"/>
<polygon fill="black" stroke="black" points="64.8701,-40.7498 56.7797,-33.909 58.8383,-44.3019 64.8701,-40.7498"/>
<text text-anchor="middle" x="80.5" y="-58.3" font-family="Times,serif" font-size="14.00">b</text>
</g>
<!-- 3&#45;&gt;4 -->
<g id="edge7" class="edge"><title>3&#45;&gt;4</title>
<path fill="none" stroke="black" d="M42.5324,-35.4027C38.1442,-48.5674 31.8975,-67.3075 26.8059,-82.5824"/>
<polygon fill="black" stroke="black" points="23.3444,-81.899 23.5025,-92.4926 29.9852,-84.1126 23.3444,-81.899"/>
<text text-anchor="middle" x="44.5" y="-58.3" font-family="Times,serif" font-size="14.00">b,a</text>
</g>
<!-- 4&#45;&gt;3 -->
<g id="edge8" class="edge"><title>4&#45;&gt;3</title>
<path fill="none" stroke="black" d="M16.3535,-91.6161C15.9238,-80.5179 16.5365,-66.0117 21,-54 22.9222,-48.8273 25.8947,-43.7991 29.1759,-39.2423"/>
<polygon fill="black" stroke="black" points="32.1431,-41.1368 35.671,-31.1466 26.6832,-36.7563 32.1431,-41.1368"/>
<text text-anchor="middle" x="24.5" y="-58.3" font-family="Times,serif" font-size="14.00">b</text>
</g>
<!-- 4&#45;&gt;4 -->
<g id="edge9" class="edge"><title>4&#45;&gt;4</title>
<path fill="none" stroke="black" d="M34.2903,-118.365C44.3892,-120.382 54,-117.594 54,-110 54,-105.135 50.0557,-102.243 44.5656,-101.322"/>
<polygon fill="black" stroke="black" points="44.1791,-97.8323 34.2903,-101.635 44.3922,-104.829 44.1791,-97.8323"/>
<text text-anchor="middle" x="57.5" y="-106.3" font-family="Times,serif" font-size="14.00">a</text>
</g>
</g>
</svg>
