<?xml version="1.0" encoding="UTF-8" standalone="no"?>
<!DOCTYPE svg PUBLIC "-//W3C//DTD SVG 1.1//EN"
 "http://www.w3.org/Graphics/SVG/1.1/DTD/svg11.dtd">
<!-- Generated by graphviz version 2.36.0 (20140111.2315)
 -->
<!-- Title: %3 Pages: 1 -->
<svg width="70pt" height="316pt"
 viewBox="0.00 0.00 70.00 316.00" xmlns="http://www.w3.org/2000/svg" xmlns:xlink="http://www.w3.org/1999/xlink">
<g id="graph0" class="graph" transform="scale(1 1) rotate(0) translate(4 312)">
<title>%3</title>
<polygon fill="white" stroke="none" points="-4,4 -4,-312 66,-312 66,4 -4,4"/>
<!-- 0 -->
<g id="node1" class="node"><title>0</title>
<ellipse fill="lightblue" stroke="black" cx="18" cy="-290" rx="18" ry="18"/>
<text text-anchor="middle" x="18" y="-286.3" font-family="Times,serif" font-size="14.00">0</text>
</g>
<!-- 0&#45;&gt;0 -->
<g id="edge1" class="edge"><title>0&#45;&gt;0</title>
<path fill="none" stroke="black" d="M34.2903,-297.668C44.3892,-299.517 54,-296.961 54,-290 54,-285.541 50.0557,-282.889 44.5656,-282.045"/>
<polygon fill="black" stroke="black" points="44.1887,-278.554 34.2903,-282.332 44.384,-285.552 44.1887,-278.554"/>
<text text-anchor="middle" x="57.5" y="-286.3" font-family="Times,serif" font-size="14.00">b</text>
</g>
<!-- 3 -->
<g id="node4" class="node"><title>3</title>
<ellipse fill="lightblue" stroke="black" cx="18" cy="-202" rx="18" ry="18"/>
<text text-anchor="middle" x="18" y="-198.3" font-family="Times,serif" font-size="14.00">3</text>
</g>
<!-- 0&#45;&gt;3 -->
<g id="edge2" class="edge"><title>0&#45;&gt;3</title>
<path fill="none" stroke="black" d="M11.3664,-273.258C9.20098,-267.332 7.07716,-260.463 6,-254 4.83094,-246.986 4.83094,-245.014 6,-238 6.52175,-234.87 7.28906,-231.644 8.18773,-228.476"/>
<polygon fill="black" stroke="black" points="11.5891,-229.335 11.3664,-218.742 4.93495,-227.162 11.5891,-229.335"/>
<text text-anchor="middle" x="9.5" y="-242.3" font-family="Times,serif" font-size="14.00">a</text>
</g>
<!-- 1 -->
<g id="node2" class="node"><title>1</title>
<ellipse fill="green" stroke="black" cx="18" cy="-18" rx="18" ry="18"/>
<text text-anchor="middle" x="18" y="-14.3" font-family="Times,serif" font-size="14.00">1</text>
</g>
<!-- 2 -->
<g id="node3" class="node"><title>2</title>
<ellipse fill="lightblue" stroke="black" cx="40" cy="-110" rx="17.5909" ry="18"/>
<ellipse fill="none" stroke="black" cx="40" cy="-110" rx="21.5" ry="22"/>
<text text-anchor="middle" x="40" y="-106.3" font-family="Times,serif" font-size="14.00">2</text>
</g>
<!-- 1&#45;&gt;2 -->
<g id="edge3" class="edge"><title>1&#45;&gt;2</title>
<path fill="none" stroke="black" d="M22.0889,-35.7273C25.0281,-47.7515 29.074,-64.3026 32.5768,-78.6324"/>
<polygon fill="black" stroke="black" points="29.2334,-79.6947 35.0079,-88.5776 36.0332,-78.0325 29.2334,-79.6947"/>
<text text-anchor="middle" x="33.5" y="-58.3" font-family="Times,serif" font-size="14.00">a</text>
</g>
<!-- 1&#45;&gt;3 -->
<g id="edge4" class="edge"><title>1&#45;&gt;3</title>
<path fill="none" stroke="black" d="M13.0427,-35.5455C9.16138,-49.4083 4.08295,-69.7962 2,-88 -0.223119,-107.429 -0.223119,-112.571 2,-132 3.6273,-146.222 7.0829,-161.776 10.3676,-174.511"/>
<polygon fill="black" stroke="black" points="7.06481,-175.707 13.0427,-184.455 13.8244,-173.889 7.06481,-175.707"/>
<text text-anchor="middle" x="5.5" y="-106.3" font-family="Times,serif" font-size="14.00">b</text>
</g>
<!-- 2&#45;&gt;1 -->
<g id="edge5" class="edge"><title>2&#45;&gt;1</title>
<path fill="none" stroke="black" d="M29.1576,-90.5367C25.9608,-84.2276 22.8311,-76.9946 21,-70 19.0233,-62.4493 18.0511,-54.0634 17.6263,-46.3086"/>
<polygon fill="black" stroke="black" points="21.1236,-46.1604 17.3436,-36.2629 14.1264,-46.3574 21.1236,-46.1604"/>
<text text-anchor="middle" x="24.5" y="-58.3" font-family="Times,serif" font-size="14.00">a</text>
</g>
<!-- 2&#45;&gt;3 -->
<g id="edge6" class="edge"><title>2&#45;&gt;3</title>
<path fill="none" stroke="black" d="M34.9536,-131.644C31.8598,-144.301 27.8667,-160.636 24.533,-174.274"/>
<polygon fill="black" stroke="black" points="21.1127,-173.527 22.138,-184.072 27.9125,-175.189 21.1127,-173.527"/>
<text text-anchor="middle" x="33.5" y="-154.3" font-family="Times,serif" font-size="14.00">b</text>
</g>
<!-- 3&#45;&gt;0 -->
<g id="edge7" class="edge"><title>3&#45;&gt;0</title>
<path fill="none" stroke="black" d="M18,-220.084C18,-231.861 18,-247.774 18,-261.342"/>
<polygon fill="black" stroke="black" points="14.5001,-261.597 18,-271.597 21.5001,-261.597 14.5001,-261.597"/>
<text text-anchor="middle" x="21.5" y="-242.3" font-family="Times,serif" font-size="14.00">a</text>
</g>
<!-- 3&#45;&gt;2 -->
<g id="edge8" class="edge"><title>3&#45;&gt;2</title>
<path fill="none" stroke="black" d="M17.3436,-183.737C17.3748,-173.733 18.1248,-160.983 21,-150 21.9728,-146.284 23.3121,-142.501 24.8332,-138.825"/>
<polygon fill="black" stroke="black" points="28.1413,-140.009 29.1576,-129.463 21.7866,-137.074 28.1413,-140.009"/>
<text text-anchor="middle" x="24.5" y="-154.3" font-family="Times,serif" font-size="14.00">b</text>
</g>
</g>
</svg>
