<?xml version="1.0" encoding="UTF-8" standalone="no"?>
<!DOCTYPE svg PUBLIC "-//W3C//DTD SVG 1.1//EN"
 "http://www.w3.org/Graphics/SVG/1.1/DTD/svg11.dtd">
<!-- Generated by graphviz version 2.36.0 (20140111.2315)
 -->
<!-- Title: %3 Pages: 1 -->
<svg width="177pt" height="316pt"
 viewBox="0.00 0.00 177.00 316.00" xmlns="http://www.w3.org/2000/svg" xmlns:xlink="http://www.w3.org/1999/xlink">
<g id="graph0" class="graph" transform="scale(1 1) rotate(0) translate(4 312)">
<title>%3</title>
<polygon fill="white" stroke="none" points="-4,4 -4,-312 173,-312 173,4 -4,4"/>
<!-- 0 -->
<g id="node1" class="node"><title>0</title>
<ellipse fill="lightblue" stroke="black" cx="102" cy="-286" rx="17.5909" ry="18"/>
<ellipse fill="none" stroke="black" cx="102" cy="-286" rx="21.5" ry="22"/>
<text text-anchor="middle" x="102" y="-282.3" font-family="Times,serif" font-size="14.00">0</text>
</g>
<!-- 0&#45;&gt;0 -->
<g id="edge1" class="edge"><title>0&#45;&gt;0</title>
<path fill="none" stroke="black" d="M122.066,-294.734C132.074,-295.943 141,-293.031 141,-286 141,-281.496 137.337,-278.682 132.072,-277.559"/>
<polygon fill="black" stroke="black" points="132.165,-274.061 122.066,-277.266 131.959,-281.057 132.165,-274.061"/>
<text text-anchor="middle" x="144.5" y="-282.3" font-family="Times,serif" font-size="14.00">b</text>
</g>
<!-- 1 -->
<g id="node2" class="node"><title>1</title>
<ellipse fill="green" stroke="black" cx="48" cy="-194" rx="18" ry="18"/>
<text text-anchor="middle" x="48" y="-190.3" font-family="Times,serif" font-size="14.00">1</text>
</g>
<!-- 0&#45;&gt;1 -->
<g id="edge2" class="edge"><title>0&#45;&gt;1</title>
<path fill="none" stroke="black" d="M91.0723,-266.787C82.7523,-252.921 71.231,-233.718 62.1976,-218.663"/>
<polygon fill="black" stroke="black" points="65.0916,-216.683 56.9454,-209.909 59.0892,-220.285 65.0916,-216.683"/>
<text text-anchor="middle" x="82.5" y="-234.3" font-family="Times,serif" font-size="14.00">a</text>
</g>
<!-- 2 -->
<g id="node3" class="node"><title>2</title>
<ellipse fill="lightblue" stroke="black" cx="97" cy="-106" rx="18" ry="18"/>
<text text-anchor="middle" x="97" y="-102.3" font-family="Times,serif" font-size="14.00">2</text>
</g>
<!-- 1&#45;&gt;2 -->
<g id="edge3" class="edge"><title>1&#45;&gt;2</title>
<path fill="none" stroke="black" d="M56.5351,-178.02C63.9376,-165.028 74.784,-145.991 83.3844,-130.897"/>
<polygon fill="black" stroke="black" points="86.4887,-132.518 88.3983,-122.097 80.4067,-129.053 86.4887,-132.518"/>
<text text-anchor="middle" x="80.5" y="-146.3" font-family="Times,serif" font-size="14.00">a</text>
</g>
<!-- 4 -->
<g id="node5" class="node"><title>4</title>
<ellipse fill="lightblue" stroke="black" cx="18" cy="-106" rx="18" ry="18"/>
<text text-anchor="middle" x="18" y="-102.3" font-family="Times,serif" font-size="14.00">4</text>
</g>
<!-- 1&#45;&gt;4 -->
<g id="edge4" class="edge"><title>1&#45;&gt;4</title>
<path fill="none" stroke="black" d="M42.3572,-176.824C38.0413,-164.452 32.0045,-147.146 27.0207,-132.859"/>
<polygon fill="black" stroke="black" points="30.216,-131.393 23.6175,-123.103 23.6066,-133.698 30.216,-131.393"/>
<text text-anchor="middle" x="39.5" y="-146.3" font-family="Times,serif" font-size="14.00">b</text>
</g>
<!-- 2&#45;&gt;0 -->
<g id="edge5" class="edge"><title>2&#45;&gt;0</title>
<path fill="none" stroke="black" d="M97.4807,-124.114C98.3177,-153.909 100.054,-215.727 101.114,-253.464"/>
<polygon fill="black" stroke="black" points="97.6273,-253.984 101.407,-263.882 104.625,-253.788 97.6273,-253.984"/>
<text text-anchor="middle" x="102.5" y="-190.3" font-family="Times,serif" font-size="14.00">a</text>
</g>
<!-- 3 -->
<g id="node4" class="node"><title>3</title>
<ellipse fill="lightblue" stroke="black" cx="126" cy="-18" rx="18" ry="18"/>
<text text-anchor="middle" x="126" y="-14.3" font-family="Times,serif" font-size="14.00">3</text>
</g>
<!-- 2&#45;&gt;3 -->
<g id="edge6" class="edge"><title>2&#45;&gt;3</title>
<path fill="none" stroke="black" d="M102.455,-88.8241C106.6,-76.5299 112.389,-59.365 117.188,-45.1309"/>
<polygon fill="black" stroke="black" points="120.592,-45.99 120.471,-35.3958 113.959,-43.7532 120.592,-45.99"/>
<text text-anchor="middle" x="117.5" y="-58.3" font-family="Times,serif" font-size="14.00">b</text>
</g>
<!-- 3&#45;&gt;0 -->
<g id="edge7" class="edge"><title>3&#45;&gt;0</title>
<path fill="none" stroke="black" d="M126.679,-35.993C127.856,-74.0155 128.88,-168.687 114,-246 113.416,-249.033 112.683,-252.163 111.869,-255.271"/>
<polygon fill="black" stroke="black" points="108.48,-254.391 109.073,-264.969 115.206,-256.33 108.48,-254.391"/>
<text text-anchor="middle" x="128.5" y="-146.3" font-family="Times,serif" font-size="14.00">b</text>
</g>
<!-- 3&#45;&gt;3 -->
<g id="edge8" class="edge"><title>3&#45;&gt;3</title>
<path fill="none" stroke="black" d="M142.29,-25.6679C152.389,-27.5169 162,-24.9609 162,-18 162,-13.5406 158.056,-10.8891 152.566,-10.0454"/>
<polygon fill="black" stroke="black" points="152.189,-6.55441 142.29,-10.3321 152.384,-13.5517 152.189,-6.55441"/>
<text text-anchor="middle" x="165.5" y="-14.3" font-family="Times,serif" font-size="14.00">a</text>
</g>
<!-- 4&#45;&gt;1 -->
<g id="edge9" class="edge"><title>4&#45;&gt;1</title>
<path fill="none" stroke="black" d="M16.5293,-124.054C16.2502,-134.218 16.9607,-147.2 21,-158 22.9332,-163.169 25.9106,-168.195 29.193,-172.751"/>
<polygon fill="black" stroke="black" points="26.6997,-175.237 35.6868,-180.848 32.1602,-170.857 26.6997,-175.237"/>
<text text-anchor="middle" x="24.5" y="-146.3" font-family="Times,serif" font-size="14.00">a</text>
</g>
<!-- 4&#45;&gt;4 -->
<g id="edge10" class="edge"><title>4&#45;&gt;4</title>
<path fill="none" stroke="black" d="M34.2903,-113.668C44.3892,-115.517 54,-112.961 54,-106 54,-101.541 50.0557,-98.8891 44.5656,-98.0454"/>
<polygon fill="black" stroke="black" points="44.1887,-94.5544 34.2903,-98.3321 44.384,-101.552 44.1887,-94.5544"/>
<text text-anchor="middle" x="57.5" y="-102.3" font-family="Times,serif" font-size="14.00">b</text>
</g>
</g>
</svg>
