<?xml version="1.0" encoding="UTF-8" standalone="no"?>
<!DOCTYPE svg PUBLIC "-//W3C//DTD SVG 1.1//EN"
 "http://www.w3.org/Graphics/SVG/1.1/DTD/svg11.dtd">
<!-- Generated by graphviz version 2.36.0 (20140111.2315)
 -->
<!-- Title: %3 Pages: 1 -->
<svg width="129pt" height="316pt"
 viewBox="0.00 0.00 129.00 316.00" xmlns="http://www.w3.org/2000/svg" xmlns:xlink="http://www.w3.org/1999/xlink">
<g id="graph0" class="graph" transform="scale(1 1) rotate(0) translate(4 312)">
<title>%3</title>
<polygon fill="white" stroke="none" points="-4,4 -4,-312 125,-312 125,4 -4,4"/>
<!-- 0 -->
<g id="node1" class="node"><title>0</title>
<ellipse fill="lightblue" stroke="black" cx="78" cy="-290" rx="18" ry="18"/>
<text text-anchor="middle" x="78" y="-286.3" font-family="Times,serif" font-size="14.00">0</text>
</g>
<!-- 0&#45;&gt;0 -->
<g id="edge1" class="edge"><title>0&#45;&gt;0</title>
<path fill="none" stroke="black" d="M94.2903,-297.668C104.389,-299.517 114,-296.961 114,-290 114,-285.541 110.056,-282.889 104.566,-282.045"/>
<polygon fill="black" stroke="black" points="104.189,-278.554 94.2903,-282.332 104.384,-285.552 104.189,-278.554"/>
<text text-anchor="middle" x="117.5" y="-286.3" font-family="Times,serif" font-size="14.00">b</text>
</g>
<!-- 3 -->
<g id="node4" class="node"><title>3</title>
<ellipse fill="lightblue" stroke="black" cx="21" cy="-198" rx="17.5909" ry="18"/>
<ellipse fill="none" stroke="black" cx="21" cy="-198" rx="21.5" ry="22"/>
<text text-anchor="middle" x="21" y="-194.3" font-family="Times,serif" font-size="14.00">3</text>
</g>
<!-- 0&#45;&gt;3 -->
<g id="edge2" class="edge"><title>0&#45;&gt;3</title>
<path fill="none" stroke="black" d="M68.5876,-274.138C60.2878,-261.033 47.9908,-241.617 37.9764,-225.805"/>
<polygon fill="black" stroke="black" points="40.6988,-223.562 32.3914,-216.986 34.7851,-227.307 40.6988,-223.562"/>
<text text-anchor="middle" x="57.5" y="-242.3" font-family="Times,serif" font-size="14.00">a</text>
</g>
<!-- 1 -->
<g id="node2" class="node"><title>1</title>
<ellipse fill="green" stroke="black" cx="54" cy="-18" rx="18" ry="18"/>
<text text-anchor="middle" x="54" y="-14.3" font-family="Times,serif" font-size="14.00">1</text>
</g>
<!-- 2 -->
<g id="node3" class="node"><title>2</title>
<ellipse fill="lightblue" stroke="black" cx="74" cy="-106" rx="18" ry="18"/>
<text text-anchor="middle" x="74" y="-102.3" font-family="Times,serif" font-size="14.00">2</text>
</g>
<!-- 1&#45;&gt;2 -->
<g id="edge3" class="edge"><title>1&#45;&gt;2</title>
<path fill="none" stroke="black" d="M57.8751,-35.6629C60.6686,-47.6751 64.4993,-64.147 67.726,-78.022"/>
<polygon fill="black" stroke="black" points="64.3744,-79.0619 70.0486,-88.0092 71.1925,-77.4763 64.3744,-79.0619"/>
<text text-anchor="middle" x="68.5" y="-58.3" font-family="Times,serif" font-size="14.00">b</text>
</g>
<!-- 1&#45;&gt;3 -->
<g id="edge4" class="edge"><title>1&#45;&gt;3</title>
<path fill="none" stroke="black" d="M50.4759,-35.7061C47.5638,-49.6646 43.3748,-70.1028 40,-88 35.0446,-114.279 29.8598,-144.212 26.1606,-166.053"/>
<polygon fill="black" stroke="black" points="22.6825,-165.63 24.4715,-176.073 29.5851,-166.794 22.6825,-165.63"/>
<text text-anchor="middle" x="43.5" y="-102.3" font-family="Times,serif" font-size="14.00">a</text>
</g>
<!-- 2&#45;&gt;0 -->
<g id="edge5" class="edge"><title>2&#45;&gt;0</title>
<path fill="none" stroke="black" d="M74.9035,-124.008C75.6058,-137.97 76.536,-158.26 77,-176 77.7661,-205.29 77.9787,-238.864 78.0228,-261.755"/>
<polygon fill="black" stroke="black" points="74.5228,-261.77 78.0327,-271.767 81.5227,-261.764 74.5228,-261.77"/>
<text text-anchor="middle" x="80.5" y="-194.3" font-family="Times,serif" font-size="14.00">a</text>
</g>
<!-- 2&#45;&gt;1 -->
<g id="edge6" class="edge"><title>2&#45;&gt;1</title>
<path fill="none" stroke="black" d="M65.1938,-90.1685C62.035,-84.1196 58.8094,-76.9282 57,-70 55.0278,-62.4482 54.0569,-54.0618 53.6321,-46.3071"/>
<polygon fill="black" stroke="black" points="57.1294,-46.1588 53.3485,-36.2616 50.1322,-46.3565 57.1294,-46.1588"/>
<text text-anchor="middle" x="60.5" y="-58.3" font-family="Times,serif" font-size="14.00">b</text>
</g>
<!-- 3&#45;&gt;2 -->
<g id="edge7" class="edge"><title>3&#45;&gt;2</title>
<path fill="none" stroke="black" d="M31.7253,-178.787C39.8912,-164.921 51.1992,-145.718 60.0653,-130.663"/>
<polygon fill="black" stroke="black" points="63.1617,-132.302 65.2203,-121.909 57.1299,-128.75 63.1617,-132.302"/>
<text text-anchor="middle" x="55.5" y="-146.3" font-family="Times,serif" font-size="14.00">b</text>
</g>
<!-- 3&#45;&gt;3 -->
<g id="edge8" class="edge"><title>3&#45;&gt;3</title>
<path fill="none" stroke="black" d="M41.0663,-206.734C51.0736,-207.943 60,-205.031 60,-198 60,-193.496 56.3366,-190.682 51.0725,-189.559"/>
<polygon fill="black" stroke="black" points="51.1646,-186.061 41.0663,-189.266 50.9594,-193.057 51.1646,-186.061"/>
<text text-anchor="middle" x="63.5" y="-194.3" font-family="Times,serif" font-size="14.00">a</text>
</g>
</g>
</svg>
