<?xml version="1.0" encoding="UTF-8" standalone="no"?>
<!DOCTYPE svg PUBLIC "-//W3C//DTD SVG 1.1//EN"
 "http://www.w3.org/Graphics/SVG/1.1/DTD/svg11.dtd">
<!-- Generated by graphviz version 2.36.0 (20140111.2315)
 -->
<!-- Title: %3 Pages: 1 -->
<svg width="172pt" height="316pt"
 viewBox="0.00 0.00 172.00 316.00" xmlns="http://www.w3.org/2000/svg" xmlns:xlink="http://www.w3.org/1999/xlink">
<g id="graph0" class="graph" transform="scale(1 1) rotate(0) translate(4 312)">
<title>%3</title>
<polygon fill="white" stroke="none" points="-4,4 -4,-312 168,-312 168,4 -4,4"/>
<!-- 0 -->
<g id="node1" class="node"><title>0</title>
<ellipse fill="lightblue" stroke="black" cx="97" cy="-290" rx="18" ry="18"/>
<text text-anchor="middle" x="97" y="-286.3" font-family="Times,serif" font-size="14.00">0</text>
</g>
<!-- 0&#45;&gt;0 -->
<g id="edge1" class="edge"><title>0&#45;&gt;0</title>
<path fill="none" stroke="black" d="M113.29,-297.668C123.389,-299.517 133,-296.961 133,-290 133,-285.541 129.056,-282.889 123.566,-282.045"/>
<polygon fill="black" stroke="black" points="123.189,-278.554 113.29,-282.332 123.384,-285.552 123.189,-278.554"/>
<text text-anchor="middle" x="136.5" y="-286.3" font-family="Times,serif" font-size="14.00">b</text>
</g>
<!-- 2 -->
<g id="node3" class="node"><title>2</title>
<ellipse fill="green" stroke="black" cx="97" cy="-202" rx="18" ry="18"/>
<text text-anchor="middle" x="97" y="-198.3" font-family="Times,serif" font-size="14.00">2</text>
</g>
<!-- 0&#45;&gt;2 -->
<g id="edge2" class="edge"><title>0&#45;&gt;2</title>
<path fill="none" stroke="black" d="M97,-271.597C97,-259.746 97,-243.817 97,-230.292"/>
<polygon fill="black" stroke="black" points="100.5,-230.084 97,-220.084 93.5001,-230.084 100.5,-230.084"/>
<text text-anchor="middle" x="100.5" y="-242.3" font-family="Times,serif" font-size="14.00">a</text>
</g>
<!-- 1 -->
<g id="node2" class="node"><title>1</title>
<ellipse fill="lightblue" stroke="black" cx="18" cy="-114" rx="18" ry="18"/>
<text text-anchor="middle" x="18" y="-110.3" font-family="Times,serif" font-size="14.00">1</text>
</g>
<!-- 1&#45;&gt;0 -->
<g id="edge3" class="edge"><title>1&#45;&gt;0</title>
<path fill="none" stroke="black" d="M24.5997,-131.126C33.1472,-151.838 48.6544,-188.832 63,-220 69.8522,-234.887 77.948,-251.357 84.5204,-264.472"/>
<polygon fill="black" stroke="black" points="81.5777,-266.41 89.2037,-273.765 87.8287,-263.259 81.5777,-266.41"/>
<text text-anchor="middle" x="66.5" y="-198.3" font-family="Times,serif" font-size="14.00">b</text>
</g>
<!-- 1&#45;&gt;1 -->
<g id="edge4" class="edge"><title>1&#45;&gt;1</title>
<path fill="none" stroke="black" d="M34.2903,-121.668C44.3892,-123.517 54,-120.961 54,-114 54,-109.541 50.0557,-106.889 44.5656,-106.045"/>
<polygon fill="black" stroke="black" points="44.1887,-102.554 34.2903,-106.332 44.384,-109.552 44.1887,-102.554"/>
<text text-anchor="middle" x="57.5" y="-110.3" font-family="Times,serif" font-size="14.00">a</text>
</g>
<!-- 2&#45;&gt;1 -->
<g id="edge5" class="edge"><title>2&#45;&gt;1</title>
<path fill="none" stroke="black" d="M85.0016,-187.938C72.167,-173.967 51.6422,-151.623 36.688,-135.344"/>
<polygon fill="black" stroke="black" points="39.1951,-132.899 29.8525,-127.903 34.0399,-137.635 39.1951,-132.899"/>
<text text-anchor="middle" x="68.5" y="-154.3" font-family="Times,serif" font-size="14.00">a</text>
</g>
<!-- 4 -->
<g id="node5" class="node"><title>4</title>
<ellipse fill="lightblue" stroke="black" cx="146" cy="-114" rx="18" ry="18"/>
<text text-anchor="middle" x="146" y="-110.3" font-family="Times,serif" font-size="14.00">4</text>
</g>
<!-- 2&#45;&gt;4 -->
<g id="edge6" class="edge"><title>2&#45;&gt;4</title>
<path fill="none" stroke="black" d="M105.535,-186.02C112.938,-173.028 123.784,-153.991 132.384,-138.897"/>
<polygon fill="black" stroke="black" points="135.489,-140.518 137.398,-130.097 129.407,-137.053 135.489,-140.518"/>
<text text-anchor="middle" x="129.5" y="-154.3" font-family="Times,serif" font-size="14.00">b</text>
</g>
<!-- 3 -->
<g id="node4" class="node"><title>3</title>
<ellipse fill="lightblue" stroke="black" cx="130" cy="-22" rx="17.5909" ry="18"/>
<ellipse fill="none" stroke="black" cx="130" cy="-22" rx="21.5" ry="22"/>
<text text-anchor="middle" x="130" y="-18.3" font-family="Times,serif" font-size="14.00">3</text>
</g>
<!-- 3&#45;&gt;2 -->
<g id="edge7" class="edge"><title>3&#45;&gt;2</title>
<path fill="none" stroke="black" d="M124.408,-43.3322C120.541,-57.9102 115.484,-78.0607 112,-96 106.894,-122.289 102.749,-152.594 100.12,-173.87"/>
<polygon fill="black" stroke="black" points="96.6432,-173.469 98.9205,-183.817 103.593,-174.308 96.6432,-173.469"/>
<text text-anchor="middle" x="115.5" y="-110.3" font-family="Times,serif" font-size="14.00">b</text>
</g>
<!-- 3&#45;&gt;4 -->
<g id="edge8" class="edge"><title>3&#45;&gt;4</title>
<path fill="none" stroke="black" d="M134.415,-43.6102C135.634,-49.5359 136.917,-56.0147 138,-62 139.404,-69.761 140.788,-78.2127 142,-85.9631"/>
<polygon fill="black" stroke="black" points="138.558,-86.6115 143.532,-95.9665 145.478,-85.552 138.558,-86.6115"/>
<text text-anchor="middle" x="144.5" y="-66.3" font-family="Times,serif" font-size="14.00">a</text>
</g>
<!-- 4&#45;&gt;0 -->
<g id="edge9" class="edge"><title>4&#45;&gt;0</title>
<path fill="none" stroke="black" d="M143.261,-132.05C141.598,-141.984 139.348,-154.734 137,-166 131.964,-190.166 131.404,-196.451 124,-220 119.373,-234.718 113.155,-250.79 107.852,-263.718"/>
<polygon fill="black" stroke="black" points="104.464,-262.748 103.844,-273.325 110.925,-265.443 104.464,-262.748"/>
<text text-anchor="middle" x="137.5" y="-198.3" font-family="Times,serif" font-size="14.00">b</text>
</g>
<!-- 4&#45;&gt;3 -->
<g id="edge10" class="edge"><title>4&#45;&gt;3</title>
<path fill="none" stroke="black" d="M139.008,-97.2687C136.684,-91.3443 134.346,-84.4731 133,-78 131.42,-70.4047 130.54,-62.1 130.076,-54.2983"/>
<polygon fill="black" stroke="black" points="133.564,-53.9392 129.672,-44.0851 126.57,-54.2155 133.564,-53.9392"/>
<text text-anchor="middle" x="136.5" y="-66.3" font-family="Times,serif" font-size="14.00">a</text>
</g>
</g>
</svg>
