<?xml version="1.0" encoding="UTF-8" standalone="no"?>
<!DOCTYPE svg PUBLIC "-//W3C//DTD SVG 1.1//EN"
 "http://www.w3.org/Graphics/SVG/1.1/DTD/svg11.dtd">
<!-- Generated by graphviz version 2.36.0 (20140111.2315)
 -->
<!-- Title: %3 Pages: 1 -->
<svg width="136pt" height="316pt"
 viewBox="0.00 0.00 136.30 316.00" xmlns="http://www.w3.org/2000/svg" xmlns:xlink="http://www.w3.org/1999/xlink">
<g id="graph0" class="graph" transform="scale(1 1) rotate(0) translate(4 312)">
<title>%3</title>
<polygon fill="white" stroke="none" points="-4,4 -4,-312 132.302,-312 132.302,4 -4,4"/>
<!-- 0 -->
<g id="node1" class="node"><title>0</title>
<ellipse fill="lightblue" stroke="black" cx="31.302" cy="-290" rx="18" ry="18"/>
<text text-anchor="middle" x="31.302" y="-286.3" font-family="Times,serif" font-size="14.00">0</text>
</g>
<!-- 4 -->
<g id="node5" class="node"><title>4</title>
<ellipse fill="lightblue" stroke="black" cx="74.302" cy="-202" rx="18" ry="18"/>
<text text-anchor="middle" x="74.302" y="-198.3" font-family="Times,serif" font-size="14.00">4</text>
</g>
<!-- 0&#45;&gt;4 -->
<g id="edge1" class="edge"><title>0&#45;&gt;4</title>
<path fill="none" stroke="black" d="M38.9895,-273.625C45.3703,-260.863 54.5659,-242.472 61.9737,-227.656"/>
<polygon fill="black" stroke="black" points="65.1943,-229.041 66.536,-218.532 58.9333,-225.911 65.1943,-229.041"/>
<text text-anchor="middle" x="64.802" y="-242.3" font-family="Times,serif" font-size="14.00">b,a</text>
</g>
<!-- 1 -->
<g id="node2" class="node"><title>1</title>
<ellipse fill="green" stroke="black" cx="36.302" cy="-22" rx="17.5909" ry="18"/>
<ellipse fill="none" stroke="black" cx="36.302" cy="-22" rx="21.5" ry="22"/>
<text text-anchor="middle" x="36.302" y="-18.3" font-family="Times,serif" font-size="14.00">1</text>
</g>
<!-- 1&#45;&gt;0 -->
<g id="edge2" class="edge"><title>1&#45;&gt;0</title>
<path fill="none" stroke="black" d="M25.7918,-41.1951C18.1368,-55.5504 8.41722,-76.3617 4.30196,-96 -8.12996,-155.326 10.0621,-226.14 22.1037,-263.307"/>
<polygon fill="black" stroke="black" points="18.8093,-264.491 25.3064,-272.86 25.4462,-262.266 18.8093,-264.491"/>
<text text-anchor="middle" x="4.80196" y="-154.3" font-family="Times,serif" font-size="14.00">a</text>
</g>
<!-- 3 -->
<g id="node4" class="node"><title>3</title>
<ellipse fill="lightblue" stroke="black" cx="31.302" cy="-114" rx="18" ry="18"/>
<text text-anchor="middle" x="31.302" y="-110.3" font-family="Times,serif" font-size="14.00">3</text>
</g>
<!-- 1&#45;&gt;3 -->
<g id="edge3" class="edge"><title>1&#45;&gt;3</title>
<path fill="none" stroke="black" d="M35.1297,-44.101C34.442,-56.4798 33.5654,-72.2575 32.8247,-85.5903"/>
<polygon fill="black" stroke="black" points="29.3262,-85.4683 32.266,-95.6471 36.3154,-85.8567 29.3262,-85.4683"/>
<text text-anchor="middle" x="36.802" y="-66.3" font-family="Times,serif" font-size="14.00">b</text>
</g>
<!-- 2 -->
<g id="node3" class="node"><title>2</title>
<ellipse fill="lightblue" stroke="black" cx="85.302" cy="-114" rx="18" ry="18"/>
<text text-anchor="middle" x="85.302" y="-110.3" font-family="Times,serif" font-size="14.00">2</text>
</g>
<!-- 2&#45;&gt;1 -->
<g id="edge4" class="edge"><title>2&#45;&gt;1</title>
<path fill="none" stroke="black" d="M76.9898,-97.7327C69.9802,-84.858 59.7707,-66.1059 51.3325,-50.6071"/>
<polygon fill="black" stroke="black" points="54.2075,-48.568 46.3518,-41.4589 48.0596,-51.9152 54.2075,-48.568"/>
<text text-anchor="middle" x="67.802" y="-66.3" font-family="Times,serif" font-size="14.00">a</text>
</g>
<!-- 2&#45;&gt;2 -->
<g id="edge5" class="edge"><title>2&#45;&gt;2</title>
<path fill="none" stroke="black" d="M101.592,-121.668C111.691,-123.517 121.302,-120.961 121.302,-114 121.302,-109.541 117.358,-106.889 111.868,-106.045"/>
<polygon fill="black" stroke="black" points="111.491,-102.554 101.592,-106.332 111.686,-109.552 111.491,-102.554"/>
<text text-anchor="middle" x="124.802" y="-110.3" font-family="Times,serif" font-size="14.00">b</text>
</g>
<!-- 3&#45;&gt;0 -->
<g id="edge6" class="edge"><title>3&#45;&gt;0</title>
<path fill="none" stroke="black" d="M31.302,-132.07C31.302,-162.266 31.302,-225.334 31.302,-261.653"/>
<polygon fill="black" stroke="black" points="27.8021,-261.999 31.302,-271.999 34.8021,-261.999 27.8021,-261.999"/>
<text text-anchor="middle" x="34.802" y="-198.3" font-family="Times,serif" font-size="14.00">b</text>
</g>
<!-- 3&#45;&gt;1 -->
<g id="edge7" class="edge"><title>3&#45;&gt;1</title>
<path fill="none" stroke="black" d="M26.6285,-96.4473C24.4065,-86.4612 22.5744,-73.4892 24.302,-62 24.7612,-58.9461 25.412,-55.8014 26.1758,-52.6853"/>
<polygon fill="black" stroke="black" points="29.5684,-53.5495 28.9045,-42.9755 22.8295,-51.6557 29.5684,-53.5495"/>
<text text-anchor="middle" x="27.802" y="-66.3" font-family="Times,serif" font-size="14.00">a</text>
</g>
<!-- 4&#45;&gt;3 -->
<g id="edge8" class="edge"><title>4&#45;&gt;3</title>
<path fill="none" stroke="black" d="M66.6144,-185.625C60.2336,-172.863 51.038,-154.472 43.6302,-139.656"/>
<polygon fill="black" stroke="black" points="46.6706,-137.911 39.0679,-130.532 40.4096,-141.041 46.6706,-137.911"/>
<text text-anchor="middle" x="59.802" y="-154.3" font-family="Times,serif" font-size="14.00">b</text>
</g>
<!-- 4&#45;&gt;4 -->
<g id="edge9" class="edge"><title>4&#45;&gt;4</title>
<path fill="none" stroke="black" d="M90.5922,-209.668C100.691,-211.517 110.302,-208.961 110.302,-202 110.302,-197.541 106.358,-194.889 100.868,-194.045"/>
<polygon fill="black" stroke="black" points="100.491,-190.554 90.5922,-194.332 100.686,-197.552 100.491,-190.554"/>
<text text-anchor="middle" x="113.802" y="-198.3" font-family="Times,serif" font-size="14.00">a</text>
</g>
</g>
</svg>
