<?xml version="1.0" encoding="UTF-8" standalone="no"?>
<!DOCTYPE svg PUBLIC "-//W3C//DTD SVG 1.1//EN"
 "http://www.w3.org/Graphics/SVG/1.1/DTD/svg11.dtd">
<!-- Generated by graphviz version 2.36.0 (20140111.2315)
 -->
<!-- Title: %3 Pages: 1 -->
<svg width="121pt" height="316pt"
 viewBox="0.00 0.00 121.00 316.00" xmlns="http://www.w3.org/2000/svg" xmlns:xlink="http://www.w3.org/1999/xlink">
<g id="graph0" class="graph" transform="scale(1 1) rotate(0) translate(4 312)">
<title>%3</title>
<polygon fill="white" stroke="none" points="-4,4 -4,-312 117,-312 117,4 -4,4"/>
<!-- 0 -->
<g id="node1" class="node"><title>0</title>
<ellipse fill="green" stroke="black" cx="76" cy="-290" rx="18" ry="18"/>
<text text-anchor="middle" x="76" y="-286.3" font-family="Times,serif" font-size="14.00">0</text>
</g>
<!-- 2 -->
<g id="node3" class="node"><title>2</title>
<ellipse fill="lightblue" stroke="black" cx="22" cy="-202" rx="18" ry="18"/>
<text text-anchor="middle" x="22" y="-198.3" font-family="Times,serif" font-size="14.00">2</text>
</g>
<!-- 0&#45;&gt;2 -->
<g id="edge1" class="edge"><title>0&#45;&gt;2</title>
<path fill="none" stroke="black" d="M66.8396,-274.411C58.6164,-261.315 46.3971,-241.855 36.7902,-226.555"/>
<polygon fill="black" stroke="black" points="39.4871,-224.268 31.2053,-217.66 33.5589,-227.99 39.4871,-224.268"/>
<text text-anchor="middle" x="56.5" y="-242.3" font-family="Times,serif" font-size="14.00">b</text>
</g>
<!-- 4 -->
<g id="node5" class="node"><title>4</title>
<ellipse fill="lightblue" stroke="black" cx="76" cy="-202" rx="18" ry="18"/>
<text text-anchor="middle" x="76" y="-198.3" font-family="Times,serif" font-size="14.00">4</text>
</g>
<!-- 0&#45;&gt;4 -->
<g id="edge2" class="edge"><title>0&#45;&gt;4</title>
<path fill="none" stroke="black" d="M76,-271.597C76,-259.746 76,-243.817 76,-230.292"/>
<polygon fill="black" stroke="black" points="79.5001,-230.084 76,-220.084 72.5001,-230.084 79.5001,-230.084"/>
<text text-anchor="middle" x="79.5" y="-242.3" font-family="Times,serif" font-size="14.00">a</text>
</g>
<!-- 1 -->
<g id="node2" class="node"><title>1</title>
<ellipse fill="lightblue" stroke="black" cx="75" cy="-114" rx="18" ry="18"/>
<text text-anchor="middle" x="75" y="-110.3" font-family="Times,serif" font-size="14.00">1</text>
</g>
<!-- 1&#45;&gt;0 -->
<g id="edge3" class="edge"><title>1&#45;&gt;0</title>
<path fill="none" stroke="black" d="M84.9375,-129.081C88.8933,-135.254 93.1687,-142.738 96,-150 107.357,-179.131 108.797,-189.276 103,-220 100.111,-235.311 93.9115,-251.58 88.1809,-264.473"/>
<polygon fill="black" stroke="black" points="84.9794,-263.057 83.9526,-273.602 91.3312,-265.999 84.9794,-263.057"/>
<text text-anchor="middle" x="109.5" y="-198.3" font-family="Times,serif" font-size="14.00">b</text>
</g>
<!-- 3 -->
<g id="node4" class="node"><title>3</title>
<ellipse fill="lightblue" stroke="black" cx="22" cy="-22" rx="17.5909" ry="18"/>
<ellipse fill="none" stroke="black" cx="22" cy="-22" rx="21.5" ry="22"/>
<text text-anchor="middle" x="22" y="-18.3" font-family="Times,serif" font-size="14.00">3</text>
</g>
<!-- 1&#45;&gt;3 -->
<g id="edge4" class="edge"><title>1&#45;&gt;3</title>
<path fill="none" stroke="black" d="M66.2481,-98.1383C58.5799,-85.1168 47.2422,-65.8641 37.9633,-50.1075"/>
<polygon fill="black" stroke="black" points="40.8716,-48.1486 32.7812,-41.3078 34.8398,-51.7007 40.8716,-48.1486"/>
<text text-anchor="middle" x="56.5" y="-66.3" font-family="Times,serif" font-size="14.00">a</text>
</g>
<!-- 2&#45;&gt;1 -->
<g id="edge5" class="edge"><title>2&#45;&gt;1</title>
<path fill="none" stroke="black" d="M31.2319,-186.02C39.2877,-172.948 51.1145,-153.758 60.4439,-138.619"/>
<polygon fill="black" stroke="black" points="63.607,-140.158 65.8739,-129.808 57.6477,-136.485 63.607,-140.158"/>
<text text-anchor="middle" x="56.5" y="-154.3" font-family="Times,serif" font-size="14.00">a</text>
</g>
<!-- 2&#45;&gt;3 -->
<g id="edge6" class="edge"><title>2&#45;&gt;3</title>
<path fill="none" stroke="black" d="M22,-183.933C22,-154.154 22,-92.2862 22,-54.5293"/>
<polygon fill="black" stroke="black" points="25.5001,-54.1069 22,-44.1069 18.5001,-54.107 25.5001,-54.1069"/>
<text text-anchor="middle" x="25.5" y="-110.3" font-family="Times,serif" font-size="14.00">b</text>
</g>
<!-- 3&#45;&gt;2 -->
<g id="edge7" class="edge"><title>3&#45;&gt;2</title>
<path fill="none" stroke="black" d="M17.6558,-43.872C13.6182,-65.7939 8.567,-101.284 11,-132 12.1075,-145.982 14.4586,-161.41 16.7039,-174.125"/>
<polygon fill="black" stroke="black" points="13.2831,-174.875 18.5355,-184.076 20.1674,-173.608 13.2831,-174.875"/>
<text text-anchor="middle" x="14.5" y="-110.3" font-family="Times,serif" font-size="14.00">a</text>
</g>
<!-- 3&#45;&gt;3 -->
<g id="edge8" class="edge"><title>3&#45;&gt;3</title>
<path fill="none" stroke="black" d="M42.0663,-30.7341C52.0736,-31.9426 61,-29.0312 61,-22 61,-17.4956 57.3366,-14.682 52.0725,-13.5592"/>
<polygon fill="black" stroke="black" points="52.1646,-10.0605 42.0663,-13.2659 51.9594,-17.0575 52.1646,-10.0605"/>
<text text-anchor="middle" x="64.5" y="-18.3" font-family="Times,serif" font-size="14.00">b</text>
</g>
<!-- 4&#45;&gt;1 -->
<g id="edge9" class="edge"><title>4&#45;&gt;1</title>
<path fill="none" stroke="black" d="M75.7976,-183.597C75.6598,-171.746 75.4746,-155.817 75.3173,-142.292"/>
<polygon fill="black" stroke="black" points="78.8148,-142.043 75.1987,-132.084 71.8153,-142.124 78.8148,-142.043"/>
<text text-anchor="middle" x="83.5" y="-154.3" font-family="Times,serif" font-size="14.00">b,a</text>
</g>
</g>
</svg>
