<?xml version="1.0" encoding="UTF-8" standalone="no"?>
<!DOCTYPE svg PUBLIC "-//W3C//DTD SVG 1.1//EN"
 "http://www.w3.org/Graphics/SVG/1.1/DTD/svg11.dtd">
<!-- Generated by graphviz version 2.36.0 (20140111.2315)
 -->
<!-- Title: %3 Pages: 1 -->
<svg width="154pt" height="316pt"
 viewBox="0.00 0.00 154.34 316.00" xmlns="http://www.w3.org/2000/svg" xmlns:xlink="http://www.w3.org/1999/xlink">
<g id="graph0" class="graph" transform="scale(1 1) rotate(0) translate(4 312)">
<title>%3</title>
<polygon fill="white" stroke="none" points="-4,4 -4,-312 150.34,-312 150.34,4 -4,4"/>
<!-- 0 -->
<g id="node1" class="node"><title>0</title>
<ellipse fill="lightblue" stroke="black" cx="32.3403" cy="-290" rx="18" ry="18"/>
<text text-anchor="middle" x="32.3403" y="-286.3" font-family="Times,serif" font-size="14.00">0</text>
</g>
<!-- 1 -->
<g id="node2" class="node"><title>1</title>
<ellipse fill="lightblue" stroke="black" cx="52.3403" cy="-114" rx="18" ry="18"/>
<text text-anchor="middle" x="52.3403" y="-110.3" font-family="Times,serif" font-size="14.00">1</text>
</g>
<!-- 0&#45;&gt;1 -->
<g id="edge1" class="edge"><title>0&#45;&gt;1</title>
<path fill="none" stroke="black" d="M22.8538,-274.285C10.9257,-253.877 -6.83134,-215.891 3.34026,-184 9.20003,-165.628 21.9312,-147.957 32.9477,-135.098"/>
<polygon fill="black" stroke="black" points="35.7905,-137.17 39.8499,-127.384 30.5737,-132.502 35.7905,-137.17"/>
<text text-anchor="middle" x="6.84026" y="-198.3" font-family="Times,serif" font-size="14.00">b</text>
</g>
<!-- 3 -->
<g id="node4" class="node"><title>3</title>
<ellipse fill="green" stroke="black" cx="116.34" cy="-202" rx="18" ry="18"/>
<text text-anchor="middle" x="116.34" y="-198.3" font-family="Times,serif" font-size="14.00">3</text>
</g>
<!-- 0&#45;&gt;3 -->
<g id="edge2" class="edge"><title>0&#45;&gt;3</title>
<path fill="none" stroke="black" d="M44.7348,-276.31C58.4614,-262.257 80.7723,-239.415 96.8443,-222.96"/>
<polygon fill="black" stroke="black" points="99.6844,-225.061 104.168,-215.462 94.6768,-220.17 99.6844,-225.061"/>
<text text-anchor="middle" x="84.8403" y="-242.3" font-family="Times,serif" font-size="14.00">a</text>
</g>
<!-- 4 -->
<g id="node5" class="node"><title>4</title>
<ellipse fill="lightblue" stroke="black" cx="89.3403" cy="-22" rx="17.5909" ry="18"/>
<ellipse fill="none" stroke="black" cx="89.3403" cy="-22" rx="21.5" ry="22"/>
<text text-anchor="middle" x="89.3403" y="-18.3" font-family="Times,serif" font-size="14.00">4</text>
</g>
<!-- 1&#45;&gt;4 -->
<g id="edge3" class="edge"><title>1&#45;&gt;4</title>
<path fill="none" stroke="black" d="M58.9551,-96.9098C64.0705,-84.4671 71.2882,-66.9105 77.4055,-52.0306"/>
<polygon fill="black" stroke="black" points="80.6681,-53.2993 81.2333,-42.7196 74.1938,-50.6377 80.6681,-53.2993"/>
<text text-anchor="middle" x="80.8403" y="-66.3" font-family="Times,serif" font-size="14.00">b,a</text>
</g>
<!-- 2 -->
<g id="node3" class="node"><title>2</title>
<ellipse fill="lightblue" stroke="black" cx="37.3403" cy="-202" rx="18" ry="18"/>
<text text-anchor="middle" x="37.3403" y="-198.3" font-family="Times,serif" font-size="14.00">2</text>
</g>
<!-- 2&#45;&gt;1 -->
<g id="edge4" class="edge"><title>2&#45;&gt;1</title>
<path fill="none" stroke="black" d="M40.3038,-184.009C42.3993,-171.995 45.2517,-155.641 47.6538,-141.869"/>
<polygon fill="black" stroke="black" points="51.1125,-142.408 49.3829,-131.956 44.2166,-141.205 51.1125,-142.408"/>
<text text-anchor="middle" x="48.8403" y="-154.3" font-family="Times,serif" font-size="14.00">b</text>
</g>
<!-- 2&#45;&gt;2 -->
<g id="edge5" class="edge"><title>2&#45;&gt;2</title>
<path fill="none" stroke="black" d="M53.6305,-209.668C63.7294,-211.517 73.3403,-208.961 73.3403,-202 73.3403,-197.541 69.396,-194.889 63.9059,-194.045"/>
<polygon fill="black" stroke="black" points="63.529,-190.554 53.6305,-194.332 63.7243,-197.552 63.529,-190.554"/>
<text text-anchor="middle" x="76.8403" y="-198.3" font-family="Times,serif" font-size="14.00">a</text>
</g>
<!-- 3&#45;&gt;1 -->
<g id="edge6" class="edge"><title>3&#45;&gt;1</title>
<path fill="none" stroke="black" d="M106.058,-187.183C96.0402,-173.722 80.6468,-153.037 68.9022,-137.255"/>
<polygon fill="black" stroke="black" points="71.588,-135.002 62.8101,-129.069 65.9724,-139.181 71.588,-135.002"/>
<text text-anchor="middle" x="92.8403" y="-154.3" font-family="Times,serif" font-size="14.00">b</text>
</g>
<!-- 3&#45;&gt;4 -->
<g id="edge7" class="edge"><title>3&#45;&gt;4</title>
<path fill="none" stroke="black" d="M113.751,-183.933C109.203,-153.947 99.719,-91.4231 94.0037,-53.7441"/>
<polygon fill="black" stroke="black" points="97.459,-53.1852 92.4988,-43.8232 90.5382,-54.2351 97.459,-53.1852"/>
<text text-anchor="middle" x="108.84" y="-110.3" font-family="Times,serif" font-size="14.00">a</text>
</g>
<!-- 4&#45;&gt;4 -->
<g id="edge8" class="edge"><title>4&#45;&gt;4</title>
<path fill="none" stroke="black" d="M109.407,-30.7341C119.414,-31.9426 128.34,-29.0312 128.34,-22 128.34,-17.4956 124.677,-14.682 119.413,-13.5592"/>
<polygon fill="black" stroke="black" points="119.505,-10.0605 109.407,-13.2659 119.3,-17.0575 119.505,-10.0605"/>
<text text-anchor="middle" x="136.84" y="-18.3" font-family="Times,serif" font-size="14.00">b,a</text>
</g>
</g>
</svg>
