<?xml version="1.0" encoding="UTF-8" standalone="no"?>
<!DOCTYPE svg PUBLIC "-//W3C//DTD SVG 1.1//EN"
 "http://www.w3.org/Graphics/SVG/1.1/DTD/svg11.dtd">
<!-- Generated by graphviz version 2.36.0 (20140111.2315)
 -->
<!-- Title: %3 Pages: 1 -->
<svg width="176pt" height="404pt"
 viewBox="0.00 0.00 176.00 404.00" xmlns="http://www.w3.org/2000/svg" xmlns:xlink="http://www.w3.org/1999/xlink">
<g id="graph0" class="graph" transform="scale(1 1) rotate(0) translate(4 400)">
<title>%3</title>
<polygon fill="white" stroke="none" points="-4,4 -4,-400 172,-400 172,4 -4,4"/>
<!-- 0 -->
<g id="node1" class="node"><title>0</title>
<ellipse fill="green" stroke="black" cx="82" cy="-282" rx="18" ry="18"/>
<text text-anchor="middle" x="82" y="-278.3" font-family="Times,serif" font-size="14.00">0</text>
</g>
<!-- 3 -->
<g id="node4" class="node"><title>3</title>
<ellipse fill="lightblue" stroke="black" cx="60" cy="-106" rx="18" ry="18"/>
<text text-anchor="middle" x="60" y="-102.3" font-family="Times,serif" font-size="14.00">3</text>
</g>
<!-- 0&#45;&gt;3 -->
<g id="edge1" class="edge"><title>0&#45;&gt;3</title>
<path fill="none" stroke="black" d="M73.6021,-265.944C66.5203,-252.329 56.9291,-231.489 53,-212 47.7183,-185.801 50.7585,-155.258 54.3345,-133.891"/>
<polygon fill="black" stroke="black" points="57.8034,-134.377 56.1553,-123.911 50.9171,-133.121 57.8034,-134.377"/>
<text text-anchor="middle" x="56.5" y="-190.3" font-family="Times,serif" font-size="14.00">a</text>
</g>
<!-- 4 -->
<g id="node5" class="node"><title>4</title>
<ellipse fill="lightblue" stroke="black" cx="125" cy="-194" rx="18" ry="18"/>
<text text-anchor="middle" x="125" y="-190.3" font-family="Times,serif" font-size="14.00">4</text>
</g>
<!-- 0&#45;&gt;4 -->
<g id="edge2" class="edge"><title>0&#45;&gt;4</title>
<path fill="none" stroke="black" d="M89.6875,-265.625C96.0684,-252.863 105.264,-234.472 112.672,-219.656"/>
<polygon fill="black" stroke="black" points="115.892,-221.041 117.234,-210.532 109.631,-217.911 115.892,-221.041"/>
<text text-anchor="middle" x="110.5" y="-234.3" font-family="Times,serif" font-size="14.00">b</text>
</g>
<!-- 1 -->
<g id="node2" class="node"><title>1</title>
<ellipse fill="lightblue" stroke="black" cx="118" cy="-374" rx="17.5909" ry="18"/>
<ellipse fill="none" stroke="black" cx="118" cy="-374" rx="21.5" ry="22"/>
<text text-anchor="middle" x="118" y="-370.3" font-family="Times,serif" font-size="14.00">1</text>
</g>
<!-- 1&#45;&gt;0 -->
<g id="edge3" class="edge"><title>1&#45;&gt;0</title>
<path fill="none" stroke="black" d="M110.189,-353.471C104.879,-340.198 97.8062,-322.515 92.0735,-308.184"/>
<polygon fill="black" stroke="black" points="95.3207,-306.878 88.3571,-298.893 88.8214,-309.477 95.3207,-306.878"/>
<text text-anchor="middle" x="105.5" y="-322.3" font-family="Times,serif" font-size="14.00">a</text>
</g>
<!-- 1&#45;&gt;4 -->
<g id="edge4" class="edge"><title>1&#45;&gt;4</title>
<path fill="none" stroke="black" d="M118.83,-351.882C120.101,-319.584 122.526,-257.922 123.927,-222.279"/>
<polygon fill="black" stroke="black" points="127.431,-222.244 124.327,-212.114 120.437,-221.969 127.431,-222.244"/>
<text text-anchor="middle" x="125.5" y="-278.3" font-family="Times,serif" font-size="14.00">b</text>
</g>
<!-- 2 -->
<g id="node3" class="node"><title>2</title>
<ellipse fill="lightblue" stroke="black" cx="18" cy="-18" rx="18" ry="18"/>
<text text-anchor="middle" x="18" y="-14.3" font-family="Times,serif" font-size="14.00">2</text>
</g>
<!-- 2&#45;&gt;0 -->
<g id="edge5" class="edge"><title>2&#45;&gt;0</title>
<path fill="none" stroke="black" d="M17.6132,-36.1879C17.3901,-75.4104 20.6042,-173.706 55,-246 57.3306,-250.899 60.4328,-255.761 63.7027,-260.233"/>
<polygon fill="black" stroke="black" points="61.0953,-262.578 70.0387,-268.259 66.5897,-258.241 61.0953,-262.578"/>
<text text-anchor="middle" x="31.5" y="-146.3" font-family="Times,serif" font-size="14.00">b</text>
</g>
<!-- 2&#45;&gt;2 -->
<g id="edge6" class="edge"><title>2&#45;&gt;2</title>
<path fill="none" stroke="black" d="M34.2903,-25.6679C44.3892,-27.5169 54,-24.9609 54,-18 54,-13.5406 50.0557,-10.8891 44.5656,-10.0454"/>
<polygon fill="black" stroke="black" points="44.1887,-6.55441 34.2903,-10.3321 44.384,-13.5517 44.1887,-6.55441"/>
<text text-anchor="middle" x="57.5" y="-14.3" font-family="Times,serif" font-size="14.00">a</text>
</g>
<!-- 3&#45;&gt;0 -->
<g id="edge7" class="edge"><title>3&#45;&gt;0</title>
<path fill="none" stroke="black" d="M63.6541,-123.68C64.8358,-129.462 66.0778,-135.998 67,-142 72.9222,-180.546 77.3192,-225.461 79.7728,-253.567"/>
<polygon fill="black" stroke="black" points="76.3097,-254.15 80.6461,-263.816 83.2844,-253.555 76.3097,-254.15"/>
<text text-anchor="middle" x="79.5" y="-190.3" font-family="Times,serif" font-size="14.00">a</text>
</g>
<!-- 3&#45;&gt;2 -->
<g id="edge8" class="edge"><title>3&#45;&gt;2</title>
<path fill="none" stroke="black" d="M52.4912,-89.6249C46.2588,-76.8633 37.2771,-58.4721 30.0415,-43.6565"/>
<polygon fill="black" stroke="black" points="33.1188,-41.9817 25.5854,-34.5319 26.8288,-45.0536 33.1188,-41.9817"/>
<text text-anchor="middle" x="46.5" y="-58.3" font-family="Times,serif" font-size="14.00">b</text>
</g>
<!-- 4&#45;&gt;3 -->
<g id="edge9" class="edge"><title>4&#45;&gt;3</title>
<path fill="none" stroke="black" d="M117.443,-177.111C112.129,-166.667 104.474,-152.958 96,-142 91.5574,-136.255 86.1936,-130.543 80.9787,-125.45"/>
<polygon fill="black" stroke="black" points="83.2576,-122.789 73.5695,-118.5 78.4687,-127.894 83.2576,-122.789"/>
<text text-anchor="middle" x="109.5" y="-146.3" font-family="Times,serif" font-size="14.00">b</text>
</g>
<!-- 4&#45;&gt;4 -->
<g id="edge10" class="edge"><title>4&#45;&gt;4</title>
<path fill="none" stroke="black" d="M141.29,-201.668C151.389,-203.517 161,-200.961 161,-194 161,-189.541 157.056,-186.889 151.566,-186.045"/>
<polygon fill="black" stroke="black" points="151.189,-182.554 141.29,-186.332 151.384,-189.552 151.189,-182.554"/>
<text text-anchor="middle" x="164.5" y="-190.3" font-family="Times,serif" font-size="14.00">a</text>
</g>
</g>
</svg>
