<?xml version="1.0" encoding="UTF-8" standalone="no"?>
<!DOCTYPE svg PUBLIC "-//W3C//DTD SVG 1.1//EN"
 "http://www.w3.org/Graphics/SVG/1.1/DTD/svg11.dtd">
<!-- Generated by graphviz version 2.36.0 (20140111.2315)
 -->
<!-- Title: %3 Pages: 1 -->
<svg width="143pt" height="404pt"
 viewBox="0.00 0.00 143.00 404.00" xmlns="http://www.w3.org/2000/svg" xmlns:xlink="http://www.w3.org/1999/xlink">
<g id="graph0" class="graph" transform="scale(1 1) rotate(0) translate(4 400)">
<title>%3</title>
<polygon fill="white" stroke="none" points="-4,4 -4,-400 139,-400 139,4 -4,4"/>
<!-- 0 -->
<g id="node1" class="node"><title>0</title>
<ellipse fill="lightblue" stroke="black" cx="41" cy="-286" rx="17.5909" ry="18"/>
<ellipse fill="none" stroke="black" cx="41" cy="-286" rx="21.5" ry="22"/>
<text text-anchor="middle" x="41" y="-282.3" font-family="Times,serif" font-size="14.00">0</text>
</g>
<!-- 0&#45;&gt;0 -->
<g id="edge1" class="edge"><title>0&#45;&gt;0</title>
<path fill="none" stroke="black" d="M61.0663,-294.734C71.0736,-295.943 80,-293.031 80,-286 80,-281.496 76.3366,-278.682 71.0725,-277.559"/>
<polygon fill="black" stroke="black" points="71.1646,-274.061 61.0663,-277.266 70.9594,-281.057 71.1646,-274.061"/>
<text text-anchor="middle" x="83.5" y="-282.3" font-family="Times,serif" font-size="14.00">c</text>
</g>
<!-- 2 -->
<g id="node3" class="node"><title>2</title>
<ellipse fill="green" stroke="black" cx="18" cy="-194" rx="18" ry="18"/>
<text text-anchor="middle" x="18" y="-190.3" font-family="Times,serif" font-size="14.00">2</text>
</g>
<!-- 0&#45;&gt;2 -->
<g id="edge2" class="edge"><title>0&#45;&gt;2</title>
<path fill="none" stroke="black" d="M28.336,-268.038C24.191,-261.497 20.1109,-253.735 18,-246 15.9486,-238.483 15.3075,-230.108 15.3496,-222.352"/>
<polygon fill="black" stroke="black" points="18.8491,-222.435 15.7621,-212.3 11.855,-222.148 18.8491,-222.435"/>
<text text-anchor="middle" x="21.5" y="-234.3" font-family="Times,serif" font-size="14.00">b</text>
</g>
<!-- 4 -->
<g id="node5" class="node"><title>4</title>
<ellipse fill="lightblue" stroke="black" cx="64" cy="-106" rx="18" ry="18"/>
<text text-anchor="middle" x="64" y="-102.3" font-family="Times,serif" font-size="14.00">4</text>
</g>
<!-- 0&#45;&gt;4 -->
<g id="edge3" class="edge"><title>0&#45;&gt;4</title>
<path fill="none" stroke="black" d="M43.7287,-263.882C47.902,-231.584 55.8697,-169.922 60.4752,-134.279"/>
<polygon fill="black" stroke="black" points="63.9782,-134.48 61.7886,-124.114 57.0359,-133.583 63.9782,-134.48"/>
<text text-anchor="middle" x="57.5" y="-190.3" font-family="Times,serif" font-size="14.00">a</text>
</g>
<!-- 1 -->
<g id="node2" class="node"><title>1</title>
<ellipse fill="lightblue" stroke="black" cx="92" cy="-378" rx="18" ry="18"/>
<text text-anchor="middle" x="92" y="-374.3" font-family="Times,serif" font-size="14.00">1</text>
</g>
<!-- 1&#45;&gt;0 -->
<g id="edge4" class="edge"><title>1&#45;&gt;0</title>
<path fill="none" stroke="black" d="M83.3485,-361.733C75.984,-348.737 65.2259,-329.752 56.3959,-314.169"/>
<polygon fill="black" stroke="black" points="59.4353,-312.434 51.4601,-305.459 53.3452,-315.885 59.4353,-312.434"/>
<text text-anchor="middle" x="74.5" y="-330.3" font-family="Times,serif" font-size="14.00">a</text>
</g>
<!-- 1&#45;&gt;1 -->
<g id="edge5" class="edge"><title>1&#45;&gt;1</title>
<path fill="none" stroke="black" d="M108.29,-385.668C118.389,-387.517 128,-384.961 128,-378 128,-373.541 124.056,-370.889 118.566,-370.045"/>
<polygon fill="black" stroke="black" points="118.189,-366.554 108.29,-370.332 118.384,-373.552 118.189,-366.554"/>
<text text-anchor="middle" x="131.5" y="-374.3" font-family="Times,serif" font-size="14.00">c</text>
</g>
<!-- 1&#45;&gt;4 -->
<g id="edge6" class="edge"><title>1&#45;&gt;4</title>
<path fill="none" stroke="black" d="M93.5756,-360.005C94.7865,-346.05 96.3572,-325.764 97,-308 97.7071,-288.457 98.9729,-283.456 97,-264 91.416,-208.933 83.7229,-196.093 72,-142 71.4138,-139.295 70.7902,-136.475 70.1599,-133.662"/>
<polygon fill="black" stroke="black" points="73.5294,-132.694 67.902,-123.718 66.7031,-134.244 73.5294,-132.694"/>
<text text-anchor="middle" x="97.5" y="-234.3" font-family="Times,serif" font-size="14.00">b</text>
</g>
<!-- 2&#45;&gt;0 -->
<g id="edge7" class="edge"><title>2&#45;&gt;0</title>
<path fill="none" stroke="black" d="M22.2747,-211.727C25.3476,-223.751 29.5773,-240.303 33.2394,-254.632"/>
<polygon fill="black" stroke="black" points="29.9139,-255.756 35.7809,-264.578 36.6959,-254.022 29.9139,-255.756"/>
<text text-anchor="middle" x="33.5" y="-234.3" font-family="Times,serif" font-size="14.00">b</text>
</g>
<!-- 2&#45;&gt;4 -->
<g id="edge8" class="edge"><title>2&#45;&gt;4</title>
<path fill="none" stroke="black" d="M12.9,-176.492C10.6385,-166.046 9.5616,-152.568 15,-142 20.0946,-132.1 29.4307,-124.38 38.5975,-118.739"/>
<polygon fill="black" stroke="black" points="40.4898,-121.692 47.5446,-113.788 37.1003,-115.568 40.4898,-121.692"/>
<text text-anchor="middle" x="23" y="-146.3" font-family="Times,serif" font-size="14.00">c,a</text>
</g>
<!-- 3 -->
<g id="node4" class="node"><title>3</title>
<ellipse fill="lightblue" stroke="black" cx="64" cy="-18" rx="18" ry="18"/>
<text text-anchor="middle" x="64" y="-14.3" font-family="Times,serif" font-size="14.00">3</text>
</g>
<!-- 3&#45;&gt;3 -->
<g id="edge9" class="edge"><title>3&#45;&gt;3</title>
<path fill="none" stroke="black" d="M80.2903,-25.6679C90.3892,-27.5169 100,-24.9609 100,-18 100,-13.5406 96.0557,-10.8891 90.5656,-10.0454"/>
<polygon fill="black" stroke="black" points="90.1887,-6.55441 80.2903,-10.3321 90.384,-13.5517 90.1887,-6.55441"/>
<text text-anchor="middle" x="108.5" y="-14.3" font-family="Times,serif" font-size="14.00">b,a</text>
</g>
<!-- 3&#45;&gt;4 -->
<g id="edge10" class="edge"><title>3&#45;&gt;4</title>
<path fill="none" stroke="black" d="M64,-36.084C64,-47.8607 64,-63.7741 64,-77.342"/>
<polygon fill="black" stroke="black" points="60.5001,-77.5966 64,-87.5966 67.5001,-77.5967 60.5001,-77.5966"/>
<text text-anchor="middle" x="67.5" y="-58.3" font-family="Times,serif" font-size="14.00">c</text>
</g>
<!-- 4&#45;&gt;2 -->
<g id="edge11" class="edge"><title>4&#45;&gt;2</title>
<path fill="none" stroke="black" d="M55.8473,-122.242C49.0001,-135.043 39.0868,-153.577 31.1235,-168.465"/>
<polygon fill="black" stroke="black" points="27.8542,-167.156 26.2239,-177.625 34.0267,-170.458 27.8542,-167.156"/>
<text text-anchor="middle" x="48.5" y="-146.3" font-family="Times,serif" font-size="14.00">a</text>
</g>
<!-- 4&#45;&gt;3 -->
<g id="edge12" class="edge"><title>4&#45;&gt;3</title>
<path fill="none" stroke="black" d="M57.8003,-88.8629C55.8558,-83.0135 53.966,-76.2957 53,-70 51.9215,-62.9712 51.9215,-61.0288 53,-54 53.4528,-51.0489 54.1086,-48.005 54.8779,-45.0013"/>
<polygon fill="black" stroke="black" points="58.3155,-45.7194 57.8003,-35.1371 51.6038,-43.7309 58.3155,-45.7194"/>
<text text-anchor="middle" x="56.5" y="-58.3" font-family="Times,serif" font-size="14.00">c</text>
</g>
<!-- 4&#45;&gt;4 -->
<g id="edge13" class="edge"><title>4&#45;&gt;4</title>
<path fill="none" stroke="black" d="M80.2903,-113.668C90.3892,-115.517 100,-112.961 100,-106 100,-101.541 96.0557,-98.8891 90.5656,-98.0454"/>
<polygon fill="black" stroke="black" points="90.1887,-94.5544 80.2903,-98.3321 90.384,-101.552 90.1887,-94.5544"/>
<text text-anchor="middle" x="103.5" y="-102.3" font-family="Times,serif" font-size="14.00">b</text>
</g>
</g>
</svg>
