<?xml version="1.0" encoding="UTF-8" standalone="no"?>
<!DOCTYPE svg PUBLIC "-//W3C//DTD SVG 1.1//EN"
 "http://www.w3.org/Graphics/SVG/1.1/DTD/svg11.dtd">
<!-- Generated by graphviz version 2.36.0 (20140111.2315)
 -->
<!-- Title: %3 Pages: 1 -->
<svg width="131pt" height="228pt"
 viewBox="0.00 0.00 131.00 228.00" xmlns="http://www.w3.org/2000/svg" xmlns:xlink="http://www.w3.org/1999/xlink">
<g id="graph0" class="graph" transform="scale(1 1) rotate(0) translate(4 224)">
<title>%3</title>
<polygon fill="white" stroke="none" points="-4,4 -4,-224 127,-224 127,4 -4,4"/>
<!-- 0 -->
<g id="node1" class="node"><title>0</title>
<ellipse fill="lightblue" stroke="black" cx="80" cy="-106" rx="18" ry="18"/>
<text text-anchor="middle" x="80" y="-102.3" font-family="Times,serif" font-size="14.00">0</text>
</g>
<!-- 0&#45;&gt;0 -->
<g id="edge1" class="edge"><title>0&#45;&gt;0</title>
<path fill="none" stroke="black" d="M96.2903,-113.668C106.389,-115.517 116,-112.961 116,-106 116,-101.541 112.056,-98.8891 106.566,-98.0454"/>
<polygon fill="black" stroke="black" points="106.189,-94.5544 96.2903,-98.3321 106.384,-101.552 106.189,-94.5544"/>
<text text-anchor="middle" x="119.5" y="-102.3" font-family="Times,serif" font-size="14.00">b</text>
</g>
<!-- 1 -->
<g id="node2" class="node"><title>1</title>
<ellipse fill="green" stroke="black" cx="58" cy="-18" rx="18" ry="18"/>
<text text-anchor="middle" x="58" y="-14.3" font-family="Times,serif" font-size="14.00">1</text>
</g>
<!-- 0&#45;&gt;1 -->
<g id="edge2" class="edge"><title>0&#45;&gt;1</title>
<path fill="none" stroke="black" d="M70.3466,-90.6314C66.7514,-84.5315 63.0496,-77.1803 61,-70 58.8576,-62.4946 57.8337,-54.1228 57.4123,-46.3672"/>
<polygon fill="black" stroke="black" points="60.9099,-46.2224 57.1629,-36.3123 53.9121,-46.3961 60.9099,-46.2224"/>
<text text-anchor="middle" x="64.5" y="-58.3" font-family="Times,serif" font-size="14.00">a</text>
</g>
<!-- 1&#45;&gt;0 -->
<g id="edge3" class="edge"><title>1&#45;&gt;0</title>
<path fill="none" stroke="black" d="M62.2288,-35.5308C65.3299,-47.6532 69.6061,-64.3693 73.1867,-78.3661"/>
<polygon fill="black" stroke="black" points="69.889,-79.5977 75.7582,-88.4183 76.6706,-77.8629 69.889,-79.5977"/>
<text text-anchor="middle" x="78.5" y="-58.3" font-family="Times,serif" font-size="14.00">b,a</text>
</g>
<!-- 2 -->
<g id="node3" class="node"><title>2</title>
<ellipse fill="lightblue" stroke="black" cx="80" cy="-198" rx="17.5909" ry="18"/>
<ellipse fill="none" stroke="black" cx="80" cy="-198" rx="21.5" ry="22"/>
<text text-anchor="middle" x="80" y="-194.3" font-family="Times,serif" font-size="14.00">2</text>
</g>
<!-- 2&#45;&gt;0 -->
<g id="edge4" class="edge"><title>2&#45;&gt;0</title>
<path fill="none" stroke="black" d="M80,-175.671C80,-163.284 80,-147.552 80,-134.272"/>
<polygon fill="black" stroke="black" points="83.5001,-134.258 80,-124.258 76.5001,-134.258 83.5001,-134.258"/>
<text text-anchor="middle" x="88.5" y="-146.3" font-family="Times,serif" font-size="14.00">b,a</text>
</g>
<!-- 3 -->
<g id="node4" class="node"><title>3</title>
<ellipse fill="lightblue" stroke="black" cx="18" cy="-106" rx="18" ry="18"/>
<text text-anchor="middle" x="18" y="-102.3" font-family="Times,serif" font-size="14.00">3</text>
</g>
<!-- 3&#45;&gt;1 -->
<g id="edge5" class="edge"><title>3&#45;&gt;1</title>
<path fill="none" stroke="black" d="M23.2481,-88.6053C26.7091,-78.4467 31.5916,-65.2386 37,-54 38.8667,-50.1209 41.0301,-46.1119 43.2441,-42.2531"/>
<polygon fill="black" stroke="black" points="46.2582,-44.0324 48.3866,-33.6535 40.2504,-40.4397 46.2582,-44.0324"/>
<text text-anchor="middle" x="45.5" y="-58.3" font-family="Times,serif" font-size="14.00">b,a</text>
</g>
</g>
</svg>
