<?xml version="1.0" encoding="UTF-8" standalone="no"?>
<!DOCTYPE svg PUBLIC "-//W3C//DTD SVG 1.1//EN"
 "http://www.w3.org/Graphics/SVG/1.1/DTD/svg11.dtd">
<!-- Generated by graphviz version 2.36.0 (20140111.2315)
 -->
<!-- Title: %3 Pages: 1 -->
<svg width="140pt" height="316pt"
 viewBox="0.00 0.00 140.00 316.00" xmlns="http://www.w3.org/2000/svg" xmlns:xlink="http://www.w3.org/1999/xlink">
<g id="graph0" class="graph" transform="scale(1 1) rotate(0) translate(4 312)">
<title>%3</title>
<polygon fill="white" stroke="none" points="-4,4 -4,-312 136,-312 136,4 -4,4"/>
<!-- 0 -->
<g id="node1" class="node"><title>0</title>
<ellipse fill="lightblue" stroke="black" cx="61" cy="-290" rx="18" ry="18"/>
<text text-anchor="middle" x="61" y="-286.3" font-family="Times,serif" font-size="14.00">0</text>
</g>
<!-- 0&#45;&gt;0 -->
<g id="edge1" class="edge"><title>0&#45;&gt;0</title>
<path fill="none" stroke="black" d="M77.2903,-297.668C87.3892,-299.517 97,-296.961 97,-290 97,-285.541 93.0557,-282.889 87.5656,-282.045"/>
<polygon fill="black" stroke="black" points="87.1887,-278.554 77.2903,-282.332 87.384,-285.552 87.1887,-278.554"/>
<text text-anchor="middle" x="100.5" y="-286.3" font-family="Times,serif" font-size="14.00">b</text>
</g>
<!-- 3 -->
<g id="node4" class="node"><title>3</title>
<ellipse fill="green" stroke="black" cx="18" cy="-202" rx="18" ry="18"/>
<text text-anchor="middle" x="18" y="-198.3" font-family="Times,serif" font-size="14.00">3</text>
</g>
<!-- 0&#45;&gt;3 -->
<g id="edge2" class="edge"><title>0&#45;&gt;3</title>
<path fill="none" stroke="black" d="M45.7638,-279.616C37.2134,-273.464 27.2382,-264.604 22,-254 18.4444,-246.802 16.901,-238.329 16.3921,-230.379"/>
<polygon fill="black" stroke="black" points="19.8918,-230.324 16.2368,-220.379 12.8926,-230.433 19.8918,-230.324"/>
<text text-anchor="middle" x="25.5" y="-242.3" font-family="Times,serif" font-size="14.00">a</text>
</g>
<!-- 1 -->
<g id="node2" class="node"><title>1</title>
<ellipse fill="lightblue" stroke="black" cx="89" cy="-18" rx="18" ry="18"/>
<text text-anchor="middle" x="89" y="-14.3" font-family="Times,serif" font-size="14.00">1</text>
</g>
<!-- 1&#45;&gt;0 -->
<g id="edge3" class="edge"><title>1&#45;&gt;0</title>
<path fill="none" stroke="black" d="M89.8356,-36.0956C91.3346,-75.2518 92.7583,-174.208 74,-254 73.2435,-257.218 72.2724,-260.543 71.2023,-263.805"/>
<polygon fill="black" stroke="black" points="67.9039,-262.634 67.8106,-273.229 74.4903,-265.005 67.9039,-262.634"/>
<text text-anchor="middle" x="91.5" y="-154.3" font-family="Times,serif" font-size="14.00">b</text>
</g>
<!-- 1&#45;&gt;1 -->
<g id="edge4" class="edge"><title>1&#45;&gt;1</title>
<path fill="none" stroke="black" d="M105.29,-25.6679C115.389,-27.5169 125,-24.9609 125,-18 125,-13.5406 121.056,-10.8891 115.566,-10.0454"/>
<polygon fill="black" stroke="black" points="115.189,-6.55441 105.29,-10.3321 115.384,-13.5517 115.189,-6.55441"/>
<text text-anchor="middle" x="128.5" y="-14.3" font-family="Times,serif" font-size="14.00">a</text>
</g>
<!-- 2 -->
<g id="node3" class="node"><title>2</title>
<ellipse fill="lightblue" stroke="black" cx="57" cy="-110" rx="17.5909" ry="18"/>
<ellipse fill="none" stroke="black" cx="57" cy="-110" rx="21.5" ry="22"/>
<text text-anchor="middle" x="57" y="-106.3" font-family="Times,serif" font-size="14.00">2</text>
</g>
<!-- 2&#45;&gt;0 -->
<g id="edge5" class="edge"><title>2&#45;&gt;0</title>
<path fill="none" stroke="black" d="M57.4743,-132.107C58.2004,-164.417 59.5872,-226.132 60.3881,-261.771"/>
<polygon fill="black" stroke="black" points="56.8926,-262.014 60.6165,-271.933 63.8908,-261.856 56.8926,-262.014"/>
<text text-anchor="middle" x="62.5" y="-198.3" font-family="Times,serif" font-size="14.00">b</text>
</g>
<!-- 2&#45;&gt;1 -->
<g id="edge6" class="edge"><title>2&#45;&gt;1</title>
<path fill="none" stroke="black" d="M64.1018,-89.0261C68.7247,-76.0244 74.8006,-58.9359 79.7929,-44.8948"/>
<polygon fill="black" stroke="black" points="83.148,-45.9061 83.2004,-35.3114 76.5525,-43.561 83.148,-45.9061"/>
<text text-anchor="middle" x="78.5" y="-58.3" font-family="Times,serif" font-size="14.00">a</text>
</g>
<!-- 3&#45;&gt;0 -->
<g id="edge7" class="edge"><title>3&#45;&gt;0</title>
<path fill="none" stroke="black" d="M25.766,-218.532C32.1697,-231.339 41.3694,-249.739 48.7626,-264.525"/>
<polygon fill="black" stroke="black" points="45.7098,-266.246 53.3125,-273.625 51.9708,-263.115 45.7098,-266.246"/>
<text text-anchor="middle" x="46.5" y="-242.3" font-family="Times,serif" font-size="14.00">b</text>
</g>
<!-- 3&#45;&gt;2 -->
<g id="edge8" class="edge"><title>3&#45;&gt;2</title>
<path fill="none" stroke="black" d="M24.7933,-185.323C30.1998,-172.847 37.9145,-155.044 44.4379,-139.989"/>
<polygon fill="black" stroke="black" points="47.7519,-141.144 48.5165,-130.577 41.329,-138.361 47.7519,-141.144"/>
<text text-anchor="middle" x="42.5" y="-154.3" font-family="Times,serif" font-size="14.00">a</text>
</g>
</g>
</svg>
