<?xml version="1.0" encoding="UTF-8" standalone="no"?>
<!DOCTYPE svg PUBLIC "-//W3C//DTD SVG 1.1//EN"
 "http://www.w3.org/Graphics/SVG/1.1/DTD/svg11.dtd">
<!-- Generated by graphviz version 2.36.0 (20140111.2315)
 -->
<!-- Title: %3 Pages: 1 -->
<svg width="152pt" height="316pt"
 viewBox="0.00 0.00 152.00 316.00" xmlns="http://www.w3.org/2000/svg" xmlns:xlink="http://www.w3.org/1999/xlink">
<g id="graph0" class="graph" transform="scale(1 1) rotate(0) translate(4 312)">
<title>%3</title>
<polygon fill="white" stroke="none" points="-4,4 -4,-312 148,-312 148,4 -4,4"/>
<!-- 0 -->
<g id="node1" class="node"><title>0</title>
<ellipse fill="lightblue" stroke="black" cx="97" cy="-286" rx="17.5909" ry="18"/>
<ellipse fill="none" stroke="black" cx="97" cy="-286" rx="21.5" ry="22"/>
<text text-anchor="middle" x="97" y="-282.3" font-family="Times,serif" font-size="14.00">0</text>
</g>
<!-- 0&#45;&gt;0 -->
<g id="edge1" class="edge"><title>0&#45;&gt;0</title>
<path fill="none" stroke="black" d="M117.066,-294.734C127.074,-295.943 136,-293.031 136,-286 136,-281.496 132.337,-278.682 127.072,-277.559"/>
<polygon fill="black" stroke="black" points="127.165,-274.061 117.066,-277.266 126.959,-281.057 127.165,-274.061"/>
<text text-anchor="middle" x="139.5" y="-282.3" font-family="Times,serif" font-size="14.00">a</text>
</g>
<!-- 1 -->
<g id="node2" class="node"><title>1</title>
<ellipse fill="lightblue" stroke="black" cx="18" cy="-194" rx="18" ry="18"/>
<text text-anchor="middle" x="18" y="-190.3" font-family="Times,serif" font-size="14.00">1</text>
</g>
<!-- 0&#45;&gt;1 -->
<g id="edge2" class="edge"><title>0&#45;&gt;1</title>
<path fill="none" stroke="black" d="M82.8764,-268.91C69.8755,-254.099 50.5141,-232.041 36.3264,-215.878"/>
<polygon fill="black" stroke="black" points="38.6671,-213.239 29.4398,-208.033 33.4063,-217.857 38.6671,-213.239"/>
<text text-anchor="middle" x="66.5" y="-234.3" font-family="Times,serif" font-size="14.00">c</text>
</g>
<!-- 3 -->
<g id="node4" class="node"><title>3</title>
<ellipse fill="green" stroke="black" cx="91" cy="-106" rx="18" ry="18"/>
<text text-anchor="middle" x="91" y="-102.3" font-family="Times,serif" font-size="14.00">3</text>
</g>
<!-- 0&#45;&gt;3 -->
<g id="edge3" class="edge"><title>0&#45;&gt;3</title>
<path fill="none" stroke="black" d="M96.2882,-263.882C95.1995,-231.584 93.121,-169.922 91.9195,-134.279"/>
<polygon fill="black" stroke="black" points="95.4119,-133.99 91.5769,-124.114 88.4158,-134.226 95.4119,-133.99"/>
<text text-anchor="middle" x="97.5" y="-190.3" font-family="Times,serif" font-size="14.00">b</text>
</g>
<!-- 1&#45;&gt;1 -->
<g id="edge4" class="edge"><title>1&#45;&gt;1</title>
<path fill="none" stroke="black" d="M34.2903,-201.668C44.3892,-203.517 54,-200.961 54,-194 54,-189.541 50.0557,-186.889 44.5656,-186.045"/>
<polygon fill="black" stroke="black" points="44.1887,-182.554 34.2903,-186.332 44.384,-189.552 44.1887,-182.554"/>
<text text-anchor="middle" x="57.5" y="-190.3" font-family="Times,serif" font-size="14.00">b</text>
</g>
<!-- 1&#45;&gt;3 -->
<g id="edge5" class="edge"><title>1&#45;&gt;3</title>
<path fill="none" stroke="black" d="M29.4062,-179.562C41.0848,-165.804 59.4062,-144.22 73.0348,-128.164"/>
<polygon fill="black" stroke="black" points="75.8708,-130.232 79.6738,-120.343 70.5341,-125.702 75.8708,-130.232"/>
<text text-anchor="middle" x="70" y="-146.3" font-family="Times,serif" font-size="14.00">c,a</text>
</g>
<!-- 2 -->
<g id="node3" class="node"><title>2</title>
<ellipse fill="lightblue" stroke="black" cx="61" cy="-18" rx="18" ry="18"/>
<text text-anchor="middle" x="61" y="-14.3" font-family="Times,serif" font-size="14.00">2</text>
</g>
<!-- 2&#45;&gt;1 -->
<g id="edge6" class="edge"><title>2&#45;&gt;1</title>
<path fill="none" stroke="black" d="M56.8895,-35.6333C49.4182,-65.866 33.5555,-130.054 24.5687,-166.42"/>
<polygon fill="black" stroke="black" points="21.1244,-165.768 22.123,-176.316 27.92,-167.448 21.1244,-165.768"/>
<text text-anchor="middle" x="47.5" y="-102.3" font-family="Times,serif" font-size="14.00">c</text>
</g>
<!-- 2&#45;&gt;2 -->
<g id="edge7" class="edge"><title>2&#45;&gt;2</title>
<path fill="none" stroke="black" d="M77.2903,-25.6679C87.3892,-27.5169 97,-24.9609 97,-18 97,-13.5406 93.0557,-10.8891 87.5656,-10.0454"/>
<polygon fill="black" stroke="black" points="87.1887,-6.55441 77.2903,-10.3321 87.384,-13.5517 87.1887,-6.55441"/>
<text text-anchor="middle" x="100.5" y="-14.3" font-family="Times,serif" font-size="14.00">b</text>
</g>
<!-- 2&#45;&gt;3 -->
<g id="edge8" class="edge"><title>2&#45;&gt;3</title>
<path fill="none" stroke="black" d="M59.5293,-36.0538C59.2502,-46.2176 59.9607,-59.2004 64,-70 65.9332,-75.1686 68.9106,-80.195 72.193,-84.7513"/>
<polygon fill="black" stroke="black" points="69.6997,-87.2366 78.6868,-92.8476 75.1602,-82.8568 69.6997,-87.2366"/>
<text text-anchor="middle" x="67.5" y="-58.3" font-family="Times,serif" font-size="14.00">a</text>
</g>
<!-- 3&#45;&gt;0 -->
<g id="edge9" class="edge"><title>3&#45;&gt;0</title>
<path fill="none" stroke="black" d="M99.5787,-122.202C102.512,-128.182 105.445,-135.228 107,-142 124.205,-216.914 112.641,-221.783 109,-246 108.541,-249.054 107.89,-252.199 107.126,-255.315"/>
<polygon fill="black" stroke="black" points="103.734,-254.45 104.398,-265.024 110.473,-256.344 103.734,-254.45"/>
<text text-anchor="middle" x="124.5" y="-190.3" font-family="Times,serif" font-size="14.00">b,a</text>
</g>
<!-- 3&#45;&gt;2 -->
<g id="edge10" class="edge"><title>3&#45;&gt;2</title>
<path fill="none" stroke="black" d="M85.3572,-88.8241C81.0413,-76.4516 75.0045,-59.1462 70.0207,-44.8593"/>
<polygon fill="black" stroke="black" points="73.216,-43.3926 66.6175,-35.1034 66.6066,-45.6982 73.216,-43.3926"/>
<text text-anchor="middle" x="82.5" y="-58.3" font-family="Times,serif" font-size="14.00">c</text>
</g>
</g>
</svg>
