<?xml version="1.0" encoding="UTF-8" standalone="no"?>
<!DOCTYPE svg PUBLIC "-//W3C//DTD SVG 1.1//EN"
 "http://www.w3.org/Graphics/SVG/1.1/DTD/svg11.dtd">
<!-- Generated by graphviz version 2.36.0 (20140111.2315)
 -->
<!-- Title: %3 Pages: 1 -->
<svg width="134pt" height="228pt"
 viewBox="0.00 0.00 134.00 228.00" xmlns="http://www.w3.org/2000/svg" xmlns:xlink="http://www.w3.org/1999/xlink">
<g id="graph0" class="graph" transform="scale(1 1) rotate(0) translate(4 224)">
<title>%3</title>
<polygon fill="white" stroke="none" points="-4,4 -4,-224 130,-224 130,4 -4,4"/>
<!-- 0 -->
<g id="node1" class="node"><title>0</title>
<ellipse fill="green" stroke="black" cx="18" cy="-198" rx="18" ry="18"/>
<text text-anchor="middle" x="18" y="-194.3" font-family="Times,serif" font-size="14.00">0</text>
</g>
<!-- 0&#45;&gt;0 -->
<g id="edge1" class="edge"><title>0&#45;&gt;0</title>
<path fill="none" stroke="black" d="M34.2903,-206.365C44.3892,-208.382 54,-205.594 54,-198 54,-193.135 50.0557,-190.243 44.5656,-189.322"/>
<polygon fill="black" stroke="black" points="44.1791,-185.832 34.2903,-189.635 44.3922,-192.829 44.1791,-185.832"/>
<text text-anchor="middle" x="57.5" y="-194.3" font-family="Times,serif" font-size="14.00">b</text>
</g>
<!-- 3 -->
<g id="node4" class="node"><title>3</title>
<ellipse fill="lightblue" stroke="black" cx="54" cy="-106" rx="18" ry="18"/>
<text text-anchor="middle" x="54" y="-102.3" font-family="Times,serif" font-size="14.00">3</text>
</g>
<!-- 0&#45;&gt;3 -->
<g id="edge2" class="edge"><title>0&#45;&gt;3</title>
<path fill="none" stroke="black" d="M24.4361,-180.91C29.8113,-167.472 37.5725,-148.069 43.7941,-132.515"/>
<polygon fill="black" stroke="black" points="47.1553,-133.536 47.6196,-122.951 40.656,-130.936 47.1553,-133.536"/>
<text text-anchor="middle" x="42.5" y="-146.3" font-family="Times,serif" font-size="14.00">a</text>
</g>
<!-- 1 -->
<g id="node2" class="node"><title>1</title>
<ellipse fill="lightblue" stroke="black" cx="54" cy="-18" rx="18" ry="18"/>
<text text-anchor="middle" x="54" y="-14.3" font-family="Times,serif" font-size="14.00">1</text>
</g>
<!-- 1&#45;&gt;0 -->
<g id="edge3" class="edge"><title>1&#45;&gt;0</title>
<path fill="none" stroke="black" d="M44.5788,-33.3526C36.3163,-46.8327 24.8819,-67.8844 20,-88 13.3635,-115.345 13.7608,-147.691 15.2604,-170.007"/>
<polygon fill="black" stroke="black" points="11.7803,-170.398 16.0591,-180.091 18.7584,-169.845 11.7803,-170.398"/>
<text text-anchor="middle" x="23.5" y="-102.3" font-family="Times,serif" font-size="14.00">a</text>
</g>
<!-- 1&#45;&gt;1 -->
<g id="edge4" class="edge"><title>1&#45;&gt;1</title>
<path fill="none" stroke="black" d="M70.2903,-25.6679C80.3892,-27.5169 90,-24.9609 90,-18 90,-13.5406 86.0557,-10.8891 80.5656,-10.0454"/>
<polygon fill="black" stroke="black" points="80.1887,-6.55441 70.2903,-10.3321 80.384,-13.5517 80.1887,-6.55441"/>
<text text-anchor="middle" x="93.5" y="-14.3" font-family="Times,serif" font-size="14.00">b</text>
</g>
<!-- 2 -->
<g id="node3" class="node"><title>2</title>
<ellipse fill="lightblue" stroke="black" cx="104" cy="-198" rx="17.5909" ry="18"/>
<ellipse fill="none" stroke="black" cx="104" cy="-198" rx="21.5" ry="22"/>
<text text-anchor="middle" x="104" y="-194.3" font-family="Times,serif" font-size="14.00">2</text>
</g>
<!-- 2&#45;&gt;1 -->
<g id="edge5" class="edge"><title>2&#45;&gt;1</title>
<path fill="none" stroke="black" d="M102,-176.01C98.79,-147.567 91.1327,-95.5627 75,-54 73.4134,-49.9125 71.367,-45.7563 69.1757,-41.8033"/>
<polygon fill="black" stroke="black" points="72.0895,-39.8564 63.948,-33.0765 66.0845,-43.4537 72.0895,-39.8564"/>
<text text-anchor="middle" x="96.5" y="-102.3" font-family="Times,serif" font-size="14.00">a</text>
</g>
<!-- 2&#45;&gt;3 -->
<g id="edge6" class="edge"><title>2&#45;&gt;3</title>
<path fill="none" stroke="black" d="M93.64,-178.352C86.0375,-164.668 75.6463,-145.963 67.4102,-131.138"/>
<polygon fill="black" stroke="black" points="70.2761,-129.09 62.3601,-122.048 64.157,-132.489 70.2761,-129.09"/>
<text text-anchor="middle" x="84.5" y="-146.3" font-family="Times,serif" font-size="14.00">b</text>
</g>
<!-- 3&#45;&gt;1 -->
<g id="edge7" class="edge"><title>3&#45;&gt;1</title>
<path fill="none" stroke="black" d="M54,-87.5966C54,-75.7459 54,-59.8169 54,-46.2917"/>
<polygon fill="black" stroke="black" points="57.5001,-46.084 54,-36.084 50.5001,-46.084 57.5001,-46.084"/>
<text text-anchor="middle" x="62.5" y="-58.3" font-family="Times,serif" font-size="14.00">b,a</text>
</g>
</g>
</svg>
