<?xml version="1.0" encoding="UTF-8" standalone="no"?>
<!DOCTYPE svg PUBLIC "-//W3C//DTD SVG 1.1//EN"
 "http://www.w3.org/Graphics/SVG/1.1/DTD/svg11.dtd">
<!-- Generated by graphviz version 2.36.0 (20140111.2315)
 -->
<!-- Title: %3 Pages: 1 -->
<svg width="174pt" height="228pt"
 viewBox="0.00 0.00 174.00 228.00" xmlns="http://www.w3.org/2000/svg" xmlns:xlink="http://www.w3.org/1999/xlink">
<g id="graph0" class="graph" transform="scale(1 1) rotate(0) translate(4 224)">
<title>%3</title>
<polygon fill="white" stroke="none" points="-4,4 -4,-224 170,-224 170,4 -4,4"/>
<!-- 0 -->
<g id="node1" class="node"><title>0</title>
<ellipse fill="lightblue" stroke="black" cx="72" cy="-202" rx="18" ry="18"/>
<text text-anchor="middle" x="72" y="-198.3" font-family="Times,serif" font-size="14.00">0</text>
</g>
<!-- 1 -->
<g id="node2" class="node"><title>1</title>
<ellipse fill="lightblue" stroke="black" cx="18" cy="-110" rx="18" ry="18"/>
<text text-anchor="middle" x="18" y="-106.3" font-family="Times,serif" font-size="14.00">1</text>
</g>
<!-- 0&#45;&gt;1 -->
<g id="edge1" class="edge"><title>0&#45;&gt;1</title>
<path fill="none" stroke="black" d="M63.083,-186.138C54.7192,-172.199 42.0708,-151.118 32.2979,-134.83"/>
<polygon fill="black" stroke="black" points="35.0765,-132.658 26.9302,-125.884 29.074,-136.259 35.0765,-132.658"/>
<text text-anchor="middle" x="53.5" y="-154.3" font-family="Times,serif" font-size="14.00">a</text>
</g>
<!-- 2 -->
<g id="node3" class="node"><title>2</title>
<ellipse fill="lightblue" stroke="black" cx="82" cy="-18" rx="18" ry="18"/>
<text text-anchor="middle" x="82" y="-14.3" font-family="Times,serif" font-size="14.00">2</text>
</g>
<!-- 0&#45;&gt;2 -->
<g id="edge2" class="edge"><title>0&#45;&gt;2</title>
<path fill="none" stroke="black" d="M72.9408,-183.878C74.6755,-152.307 78.3916,-84.6735 80.4853,-46.5676"/>
<polygon fill="black" stroke="black" points="84.0005,-46.3862 81.0544,-36.2092 77.011,-46.0021 84.0005,-46.3862"/>
<text text-anchor="middle" x="81.5" y="-106.3" font-family="Times,serif" font-size="14.00">b</text>
</g>
<!-- 1&#45;&gt;1 -->
<g id="edge3" class="edge"><title>1&#45;&gt;1</title>
<path fill="none" stroke="black" d="M34.2903,-118.365C44.3892,-120.382 54,-117.594 54,-110 54,-105.135 50.0557,-102.243 44.5656,-101.322"/>
<polygon fill="black" stroke="black" points="44.1791,-97.8323 34.2903,-101.635 44.3922,-104.829 44.1791,-97.8323"/>
<text text-anchor="middle" x="57.5" y="-106.3" font-family="Times,serif" font-size="14.00">a</text>
</g>
<!-- 1&#45;&gt;2 -->
<g id="edge4" class="edge"><title>1&#45;&gt;2</title>
<path fill="none" stroke="black" d="M22.0033,-92.0008C25.2773,-80.5184 30.7339,-65.4289 39,-54 44.2356,-46.7611 51.3269,-40.1707 58.2401,-34.71"/>
<polygon fill="black" stroke="black" points="60.7789,-37.1865 66.7485,-28.4336 56.6234,-31.5533 60.7789,-37.1865"/>
<text text-anchor="middle" x="42.5" y="-58.3" font-family="Times,serif" font-size="14.00">b</text>
</g>
<!-- 2&#45;&gt;1 -->
<g id="edge5" class="edge"><title>2&#45;&gt;1</title>
<path fill="none" stroke="black" d="M71.9441,-33.3108C64.7412,-43.5454 54.7996,-57.6393 46,-70 42.1298,-75.4364 37.9417,-81.287 34.0131,-86.7609"/>
<polygon fill="black" stroke="black" points="31.1296,-84.7759 28.1362,-94.9391 36.8141,-88.8609 31.1296,-84.7759"/>
<text text-anchor="middle" x="60.5" y="-58.3" font-family="Times,serif" font-size="14.00">b</text>
</g>
<!-- 2&#45;&gt;2 -->
<g id="edge6" class="edge"><title>2&#45;&gt;2</title>
<path fill="none" stroke="black" d="M98.2903,-25.6679C108.389,-27.5169 118,-24.9609 118,-18 118,-13.5406 114.056,-10.8891 108.566,-10.0454"/>
<polygon fill="black" stroke="black" points="108.189,-6.55441 98.2903,-10.3321 108.384,-13.5517 108.189,-6.55441"/>
<text text-anchor="middle" x="121.5" y="-14.3" font-family="Times,serif" font-size="14.00">a</text>
</g>
<!-- 3 -->
<g id="node4" class="node"><title>3</title>
<ellipse fill="green" stroke="black" cx="144" cy="-110" rx="17.5909" ry="18"/>
<ellipse fill="none" stroke="black" cx="144" cy="-110" rx="21.5" ry="22"/>
<text text-anchor="middle" x="144" y="-106.3" font-family="Times,serif" font-size="14.00">3</text>
</g>
<!-- 3&#45;&gt;2 -->
<g id="edge7" class="edge"><title>3&#45;&gt;2</title>
<path fill="none" stroke="black" d="M133.823,-90.4777C127.616,-79.5972 119.302,-65.7231 111,-54 107.637,-49.2505 103.804,-44.3328 100.052,-39.7379"/>
<polygon fill="black" stroke="black" points="102.609,-37.3397 93.5045,-31.9219 97.2435,-41.8351 102.609,-37.3397"/>
<text text-anchor="middle" x="128.5" y="-58.3" font-family="Times,serif" font-size="14.00">b,a</text>
</g>
</g>
</svg>
