<?xml version="1.0" encoding="UTF-8" standalone="no"?>
<!DOCTYPE svg PUBLIC "-//W3C//DTD SVG 1.1//EN"
 "http://www.w3.org/Graphics/SVG/1.1/DTD/svg11.dtd">
<!-- Generated by graphviz version 2.36.0 (20140111.2315)
 -->
<!-- Title: %3 Pages: 1 -->
<svg width="148pt" height="316pt"
 viewBox="0.00 0.00 148.00 316.00" xmlns="http://www.w3.org/2000/svg" xmlns:xlink="http://www.w3.org/1999/xlink">
<g id="graph0" class="graph" transform="scale(1 1) rotate(0) translate(4 312)">
<title>%3</title>
<polygon fill="white" stroke="none" points="-4,4 -4,-312 144,-312 144,4 -4,4"/>
<!-- 0 -->
<g id="node1" class="node"><title>0</title>
<ellipse fill="lightblue" stroke="black" cx="97" cy="-290" rx="18" ry="18"/>
<text text-anchor="middle" x="97" y="-286.3" font-family="Times,serif" font-size="14.00">0</text>
</g>
<!-- 0&#45;&gt;0 -->
<g id="edge1" class="edge"><title>0&#45;&gt;0</title>
<path fill="none" stroke="black" d="M113.29,-297.668C123.389,-299.517 133,-296.961 133,-290 133,-285.541 129.056,-282.889 123.566,-282.045"/>
<polygon fill="black" stroke="black" points="123.189,-278.554 113.29,-282.332 123.384,-285.552 123.189,-278.554"/>
<text text-anchor="middle" x="136.5" y="-286.3" font-family="Times,serif" font-size="14.00">a</text>
</g>
<!-- 1 -->
<g id="node2" class="node"><title>1</title>
<ellipse fill="lightblue" stroke="black" cx="97" cy="-198" rx="17.5909" ry="18"/>
<ellipse fill="none" stroke="black" cx="97" cy="-198" rx="21.5" ry="22"/>
<text text-anchor="middle" x="97" y="-194.3" font-family="Times,serif" font-size="14.00">1</text>
</g>
<!-- 0&#45;&gt;1 -->
<g id="edge2" class="edge"><title>0&#45;&gt;1</title>
<path fill="none" stroke="black" d="M97,-271.647C97,-259.924 97,-244.114 97,-230.237"/>
<polygon fill="black" stroke="black" points="100.5,-230.101 97,-220.101 93.5001,-230.101 100.5,-230.101"/>
<text text-anchor="middle" x="100.5" y="-242.3" font-family="Times,serif" font-size="14.00">b</text>
</g>
<!-- 2 -->
<g id="node3" class="node"><title>2</title>
<ellipse fill="lightblue" stroke="black" cx="18" cy="-106" rx="18" ry="18"/>
<text text-anchor="middle" x="18" y="-102.3" font-family="Times,serif" font-size="14.00">2</text>
</g>
<!-- 1&#45;&gt;2 -->
<g id="edge3" class="edge"><title>1&#45;&gt;2</title>
<path fill="none" stroke="black" d="M82.8764,-180.91C69.8755,-166.099 50.5141,-144.041 36.3264,-127.878"/>
<polygon fill="black" stroke="black" points="38.6671,-125.239 29.4398,-120.033 33.4063,-129.857 38.6671,-125.239"/>
<text text-anchor="middle" x="66.5" y="-146.3" font-family="Times,serif" font-size="14.00">b</text>
</g>
<!-- 3 -->
<g id="node4" class="node"><title>3</title>
<ellipse fill="green" stroke="black" cx="97" cy="-18" rx="18" ry="18"/>
<text text-anchor="middle" x="97" y="-14.3" font-family="Times,serif" font-size="14.00">3</text>
</g>
<!-- 1&#45;&gt;3 -->
<g id="edge4" class="edge"><title>1&#45;&gt;3</title>
<path fill="none" stroke="black" d="M97,-175.882C97,-143.584 97,-81.9218 97,-46.279"/>
<polygon fill="black" stroke="black" points="100.5,-46.114 97,-36.1141 93.5001,-46.1141 100.5,-46.114"/>
<text text-anchor="middle" x="100.5" y="-102.3" font-family="Times,serif" font-size="14.00">a</text>
</g>
<!-- 2&#45;&gt;2 -->
<g id="edge5" class="edge"><title>2&#45;&gt;2</title>
<path fill="none" stroke="black" d="M34.2903,-113.668C44.3892,-115.517 54,-112.961 54,-106 54,-101.541 50.0557,-98.8891 44.5656,-98.0454"/>
<polygon fill="black" stroke="black" points="44.1887,-94.5544 34.2903,-98.3321 44.384,-101.552 44.1887,-94.5544"/>
<text text-anchor="middle" x="57.5" y="-102.3" font-family="Times,serif" font-size="14.00">a</text>
</g>
<!-- 2&#45;&gt;3 -->
<g id="edge6" class="edge"><title>2&#45;&gt;3</title>
<path fill="none" stroke="black" d="M29.9984,-91.9385C42.833,-77.9666 63.3578,-55.6231 78.312,-39.3439"/>
<polygon fill="black" stroke="black" points="80.9601,-41.6349 85.1475,-31.9027 75.8049,-36.8994 80.9601,-41.6349"/>
<text text-anchor="middle" x="68.5" y="-58.3" font-family="Times,serif" font-size="14.00">b</text>
</g>
<!-- 3&#45;&gt;1 -->
<g id="edge7" class="edge"><title>3&#45;&gt;1</title>
<path fill="none" stroke="black" d="M104.733,-34.6425C107.259,-40.5573 109.738,-47.4451 111,-54 119.741,-99.3882 118.926,-112.462 111,-158 110.433,-161.26 109.617,-164.608 108.661,-167.907"/>
<polygon fill="black" stroke="black" points="105.299,-166.925 105.478,-177.518 111.944,-169.125 105.299,-166.925"/>
<text text-anchor="middle" x="125.5" y="-102.3" font-family="Times,serif" font-size="14.00">b,a</text>
</g>
</g>
</svg>
