<?xml version="1.0" encoding="UTF-8" standalone="no"?>
<!DOCTYPE svg PUBLIC "-//W3C//DTD SVG 1.1//EN"
 "http://www.w3.org/Graphics/SVG/1.1/DTD/svg11.dtd">
<!-- Generated by graphviz version 2.36.0 (20140111.2315)
 -->
<!-- Title: %3 Pages: 1 -->
<svg width="160pt" height="228pt"
 viewBox="0.00 0.00 160.00 228.00" xmlns="http://www.w3.org/2000/svg" xmlns:xlink="http://www.w3.org/1999/xlink">
<g id="graph0" class="graph" transform="scale(1 1) rotate(0) translate(4 224)">
<title>%3</title>
<polygon fill="white" stroke="none" points="-4,4 -4,-224 156,-224 156,4 -4,4"/>
<!-- 0 -->
<g id="node1" class="node"><title>0</title>
<ellipse fill="green" stroke="black" cx="52" cy="-202" rx="18" ry="18"/>
<text text-anchor="middle" x="52" y="-198.3" font-family="Times,serif" font-size="14.00">0</text>
</g>
<!-- 0&#45;&gt;0 -->
<g id="edge1" class="edge"><title>0&#45;&gt;0</title>
<path fill="none" stroke="black" d="M68.2903,-209.668C78.3892,-211.517 88,-208.961 88,-202 88,-197.541 84.0557,-194.889 78.5656,-194.045"/>
<polygon fill="black" stroke="black" points="78.1887,-190.554 68.2903,-194.332 78.384,-197.552 78.1887,-190.554"/>
<text text-anchor="middle" x="91.5" y="-198.3" font-family="Times,serif" font-size="14.00">b</text>
</g>
<!-- 3 -->
<g id="node4" class="node"><title>3</title>
<ellipse fill="lightblue" stroke="black" cx="48" cy="-110" rx="17.5909" ry="18"/>
<ellipse fill="none" stroke="black" cx="48" cy="-110" rx="21.5" ry="22"/>
<text text-anchor="middle" x="48" y="-106.3" font-family="Times,serif" font-size="14.00">3</text>
</g>
<!-- 0&#45;&gt;3 -->
<g id="edge2" class="edge"><title>0&#45;&gt;3</title>
<path fill="none" stroke="black" d="M42.4577,-186.283C39.083,-180.25 35.7041,-173.04 34,-166 31.9006,-157.327 33.0386,-147.908 35.3862,-139.355"/>
<polygon fill="black" stroke="black" points="38.726,-140.403 38.5762,-129.81 32.0869,-138.185 38.726,-140.403"/>
<text text-anchor="middle" x="42" y="-154.3" font-family="Times,serif" font-size="14.00">c,a</text>
</g>
<!-- 1 -->
<g id="node2" class="node"><title>1</title>
<ellipse fill="lightblue" stroke="black" cx="18" cy="-18" rx="18" ry="18"/>
<text text-anchor="middle" x="18" y="-14.3" font-family="Times,serif" font-size="14.00">1</text>
</g>
<!-- 1&#45;&gt;0 -->
<g id="edge3" class="edge"><title>1&#45;&gt;0</title>
<path fill="none" stroke="black" d="M13.6124,-35.7473C8.48833,-58.0575 1.70359,-98.5974 10,-132 14.3397,-149.472 24.8886,-166.772 34.328,-179.679"/>
<polygon fill="black" stroke="black" points="31.736,-182.051 40.5958,-187.861 37.2929,-177.794 31.736,-182.051"/>
<text text-anchor="middle" x="13.5" y="-106.3" font-family="Times,serif" font-size="14.00">c</text>
</g>
<!-- 1&#45;&gt;3 -->
<g id="edge4" class="edge"><title>1&#45;&gt;3</title>
<path fill="none" stroke="black" d="M23.4371,-35.3114C27.5236,-47.5707 33.2341,-64.7023 38.1207,-79.3621"/>
<polygon fill="black" stroke="black" points="34.8593,-80.6461 41.342,-89.0261 41.5001,-78.4324 34.8593,-80.6461"/>
<text text-anchor="middle" x="42.5" y="-58.3" font-family="Times,serif" font-size="14.00">b,a</text>
</g>
<!-- 2 -->
<g id="node3" class="node"><title>2</title>
<ellipse fill="lightblue" stroke="black" cx="99" cy="-18" rx="18" ry="18"/>
<text text-anchor="middle" x="99" y="-14.3" font-family="Times,serif" font-size="14.00">2</text>
</g>
<!-- 2&#45;&gt;0 -->
<g id="edge5" class="edge"><title>2&#45;&gt;0</title>
<path fill="none" stroke="black" d="M96.7881,-36.0604C93.6782,-58.3724 87.3295,-98.5571 78,-132 73.9015,-146.692 67.986,-162.654 62.8326,-175.522"/>
<polygon fill="black" stroke="black" points="59.4631,-174.515 58.9124,-185.096 65.941,-177.168 59.4631,-174.515"/>
<text text-anchor="middle" x="90.5" y="-106.3" font-family="Times,serif" font-size="14.00">a</text>
</g>
<!-- 2&#45;&gt;2 -->
<g id="edge6" class="edge"><title>2&#45;&gt;2</title>
<path fill="none" stroke="black" d="M115.29,-25.6679C125.389,-27.5169 135,-24.9609 135,-18 135,-13.5406 131.056,-10.8891 125.566,-10.0454"/>
<polygon fill="black" stroke="black" points="125.189,-6.55441 115.29,-10.3321 125.384,-13.5517 125.189,-6.55441"/>
<text text-anchor="middle" x="143.5" y="-14.3" font-family="Times,serif" font-size="14.00">b,c</text>
</g>
<!-- 3&#45;&gt;0 -->
<g id="edge7" class="edge"><title>3&#45;&gt;0</title>
<path fill="none" stroke="black" d="M49.1259,-132.048C49.4243,-137.863 49.7365,-144.175 50,-150 50.3525,-157.79 50.6989,-166.25 51.0019,-174"/>
<polygon fill="black" stroke="black" points="47.5045,-174.139 51.3845,-183.998 54.4994,-173.871 47.5045,-174.139"/>
<text text-anchor="middle" x="53.5" y="-154.3" font-family="Times,serif" font-size="14.00">b</text>
</g>
<!-- 3&#45;&gt;1 -->
<g id="edge8" class="edge"><title>3&#45;&gt;1</title>
<path fill="none" stroke="black" d="M33.9855,-93.0216C28.9647,-86.3569 23.8464,-78.2521 21,-70 18.4152,-62.5062 17.2695,-54.0287 16.8732,-46.1678"/>
<polygon fill="black" stroke="black" points="20.3704,-45.9314 16.7325,-35.9808 13.371,-46.0282 20.3704,-45.9314"/>
<text text-anchor="middle" x="24.5" y="-58.3" font-family="Times,serif" font-size="14.00">c</text>
</g>
<!-- 3&#45;&gt;2 -->
<g id="edge9" class="edge"><title>3&#45;&gt;2</title>
<path fill="none" stroke="black" d="M58.5672,-90.3519C66.3217,-76.6676 76.9208,-57.9633 85.3216,-43.1383"/>
<polygon fill="black" stroke="black" points="88.5876,-44.4739 90.4727,-34.0481 82.4975,-41.0228 88.5876,-44.4739"/>
<text text-anchor="middle" x="81.5" y="-58.3" font-family="Times,serif" font-size="14.00">a</text>
</g>
</g>
</svg>
