<?xml version="1.0" encoding="UTF-8" standalone="no"?>
<!DOCTYPE svg PUBLIC "-//W3C//DTD SVG 1.1//EN"
 "http://www.w3.org/Graphics/SVG/1.1/DTD/svg11.dtd">
<!-- Generated by graphviz version 2.36.0 (20140111.2315)
 -->
<!-- Title: %3 Pages: 1 -->
<svg width="244pt" height="140pt"
 viewBox="0.00 0.00 244.00 140.00" xmlns="http://www.w3.org/2000/svg" xmlns:xlink="http://www.w3.org/1999/xlink">
<g id="graph0" class="graph" transform="scale(1 1) rotate(0) translate(4 136)">
<title>%3</title>
<polygon fill="white" stroke="none" points="-4,4 -4,-136 240,-136 240,4 -4,4"/>
<!-- 0 -->
<g id="node1" class="node"><title>0</title>
<ellipse fill="lightblue" stroke="black" cx="22" cy="-110" rx="17.5909" ry="18"/>
<ellipse fill="none" stroke="black" cx="22" cy="-110" rx="21.5" ry="22"/>
<text text-anchor="middle" x="22" y="-106.3" font-family="Times,serif" font-size="14.00">0</text>
</g>
<!-- 0&#45;&gt;0 -->
<g id="edge1" class="edge"><title>0&#45;&gt;0</title>
<path fill="none" stroke="black" d="M42.0663,-118.734C52.0736,-119.943 61,-117.031 61,-110 61,-105.496 57.3366,-102.682 52.0725,-101.559"/>
<polygon fill="black" stroke="black" points="52.1646,-98.0605 42.0663,-101.266 51.9594,-105.057 52.1646,-98.0605"/>
<text text-anchor="middle" x="64.5" y="-106.3" font-family="Times,serif" font-size="14.00">c</text>
</g>
<!-- 2 -->
<g id="node3" class="node"><title>2</title>
<ellipse fill="lightblue" stroke="black" cx="83" cy="-18" rx="18" ry="18"/>
<text text-anchor="middle" x="83" y="-14.3" font-family="Times,serif" font-size="14.00">2</text>
</g>
<!-- 0&#45;&gt;2 -->
<g id="edge2" class="edge"><title>0&#45;&gt;2</title>
<path fill="none" stroke="black" d="M18.2218,-88.3369C17.2923,-77.4097 17.9506,-64.1873 24,-54 31.2453,-41.7988 44.5269,-33.3733 56.6564,-27.8521"/>
<polygon fill="black" stroke="black" points="58.0693,-31.0557 65.9997,-24.0301 55.419,-24.5768 58.0693,-31.0557"/>
<text text-anchor="middle" x="32.5" y="-58.3" font-family="Times,serif" font-size="14.00">b,a</text>
</g>
<!-- 1 -->
<g id="node2" class="node"><title>1</title>
<ellipse fill="lightblue" stroke="black" cx="105" cy="-110" rx="18" ry="18"/>
<text text-anchor="middle" x="105" y="-106.3" font-family="Times,serif" font-size="14.00">1</text>
</g>
<!-- 1&#45;&gt;1 -->
<g id="edge3" class="edge"><title>1&#45;&gt;1</title>
<path fill="none" stroke="black" d="M121.29,-118.365C131.389,-120.382 141,-117.594 141,-110 141,-105.135 137.056,-102.243 131.566,-101.322"/>
<polygon fill="black" stroke="black" points="131.179,-97.8323 121.29,-101.635 131.392,-104.829 131.179,-97.8323"/>
<text text-anchor="middle" x="149" y="-106.3" font-family="Times,serif" font-size="14.00">c,a</text>
</g>
<!-- 1&#45;&gt;2 -->
<g id="edge4" class="edge"><title>1&#45;&gt;2</title>
<path fill="none" stroke="black" d="M100.862,-92.0717C97.646,-78.9154 93.1271,-60.429 89.4393,-45.3424"/>
<polygon fill="black" stroke="black" points="92.8197,-44.4312 87.0451,-35.5483 86.0199,-46.0934 92.8197,-44.4312"/>
<text text-anchor="middle" x="98.5" y="-58.3" font-family="Times,serif" font-size="14.00">b</text>
</g>
<!-- 2&#45;&gt;0 -->
<g id="edge5" class="edge"><title>2&#45;&gt;0</title>
<path fill="none" stroke="black" d="M73.1855,-33.4804C64.1964,-46.7431 50.6736,-66.6947 39.7846,-82.7605"/>
<polygon fill="black" stroke="black" points="36.765,-80.9774 34.0516,-91.2189 42.5594,-84.9048 36.765,-80.9774"/>
<text text-anchor="middle" x="65.5" y="-58.3" font-family="Times,serif" font-size="14.00">b,c</text>
</g>
<!-- 2&#45;&gt;2 -->
<g id="edge6" class="edge"><title>2&#45;&gt;2</title>
<path fill="none" stroke="black" d="M99.2903,-25.6679C109.389,-27.5169 119,-24.9609 119,-18 119,-13.5406 115.056,-10.8891 109.566,-10.0454"/>
<polygon fill="black" stroke="black" points="109.189,-6.55441 99.2903,-10.3321 109.384,-13.5517 109.189,-6.55441"/>
<text text-anchor="middle" x="122.5" y="-14.3" font-family="Times,serif" font-size="14.00">a</text>
</g>
<!-- 3 -->
<g id="node4" class="node"><title>3</title>
<ellipse fill="green" stroke="black" cx="193" cy="-110" rx="18" ry="18"/>
<text text-anchor="middle" x="193" y="-106.3" font-family="Times,serif" font-size="14.00">3</text>
</g>
<!-- 3&#45;&gt;2 -->
<g id="edge7" class="edge"><title>3&#45;&gt;2</title>
<path fill="none" stroke="black" d="M179.512,-97.9642C160.791,-82.6476 126.731,-54.7801 104.488,-36.5812"/>
<polygon fill="black" stroke="black" points="106.554,-33.7496 96.5985,-30.126 102.122,-39.1673 106.554,-33.7496"/>
<text text-anchor="middle" x="152.5" y="-58.3" font-family="Times,serif" font-size="14.00">b,c</text>
</g>
<!-- 3&#45;&gt;3 -->
<g id="edge8" class="edge"><title>3&#45;&gt;3</title>
<path fill="none" stroke="black" d="M209.29,-118.365C219.389,-120.382 229,-117.594 229,-110 229,-105.135 225.056,-102.243 219.566,-101.322"/>
<polygon fill="black" stroke="black" points="219.179,-97.8323 209.29,-101.635 219.392,-104.829 219.179,-97.8323"/>
<text text-anchor="middle" x="232.5" y="-106.3" font-family="Times,serif" font-size="14.00">a</text>
</g>
</g>
</svg>
