<?xml version="1.0" encoding="UTF-8" standalone="no"?>
<!DOCTYPE svg PUBLIC "-//W3C//DTD SVG 1.1//EN"
 "http://www.w3.org/Graphics/SVG/1.1/DTD/svg11.dtd">
<!-- Generated by graphviz version 2.36.0 (20140111.2315)
 -->
<!-- Title: %3 Pages: 1 -->
<svg width="135pt" height="228pt"
 viewBox="0.00 0.00 135.00 228.00" xmlns="http://www.w3.org/2000/svg" xmlns:xlink="http://www.w3.org/1999/xlink">
<g id="graph0" class="graph" transform="scale(1 1) rotate(0) translate(4 224)">
<title>%3</title>
<polygon fill="white" stroke="none" points="-4,4 -4,-224 131,-224 131,4 -4,4"/>
<!-- 0 -->
<g id="node1" class="node"><title>0</title>
<ellipse fill="green" stroke="black" cx="105" cy="-202" rx="18" ry="18"/>
<text text-anchor="middle" x="105" y="-198.3" font-family="Times,serif" font-size="14.00">0</text>
</g>
<!-- 1 -->
<g id="node2" class="node"><title>1</title>
<ellipse fill="lightblue" stroke="black" cx="73" cy="-114" rx="18" ry="18"/>
<text text-anchor="middle" x="73" y="-110.3" font-family="Times,serif" font-size="14.00">1</text>
</g>
<!-- 0&#45;&gt;1 -->
<g id="edge1" class="edge"><title>0&#45;&gt;1</title>
<path fill="none" stroke="black" d="M98.981,-184.824C94.3774,-172.452 87.9381,-155.146 82.6221,-140.859"/>
<polygon fill="black" stroke="black" points="85.7596,-139.255 78.992,-131.103 79.1991,-141.696 85.7596,-139.255"/>
<text text-anchor="middle" x="99.5" y="-154.3" font-family="Times,serif" font-size="14.00">b,a</text>
</g>
<!-- 2 -->
<g id="node3" class="node"><title>2</title>
<ellipse fill="lightblue" stroke="black" cx="105" cy="-22" rx="17.5909" ry="18"/>
<ellipse fill="none" stroke="black" cx="105" cy="-22" rx="21.5" ry="22"/>
<text text-anchor="middle" x="105" y="-18.3" font-family="Times,serif" font-size="14.00">2</text>
</g>
<!-- 1&#45;&gt;2 -->
<g id="edge2" class="edge"><title>1&#45;&gt;2</title>
<path fill="none" stroke="black" d="M78.721,-96.9098C83.0737,-84.6677 89.1865,-67.4754 94.4213,-52.7526"/>
<polygon fill="black" stroke="black" points="97.8203,-53.6402 97.8727,-43.0455 91.2248,-51.2951 97.8203,-53.6402"/>
<text text-anchor="middle" x="93.5" y="-66.3" font-family="Times,serif" font-size="14.00">b</text>
</g>
<!-- 3 -->
<g id="node4" class="node"><title>3</title>
<ellipse fill="lightblue" stroke="black" cx="18" cy="-22" rx="18" ry="18"/>
<text text-anchor="middle" x="18" y="-18.3" font-family="Times,serif" font-size="14.00">3</text>
</g>
<!-- 1&#45;&gt;3 -->
<g id="edge3" class="edge"><title>1&#45;&gt;3</title>
<path fill="none" stroke="black" d="M56.1967,-107.408C43.1837,-102.087 26.0606,-92.6838 18,-78 13.3929,-69.6074 12.3947,-59.352 12.8851,-49.9803"/>
<polygon fill="black" stroke="black" points="16.3776,-50.2363 13.9584,-39.9213 9.41709,-49.4935 16.3776,-50.2363"/>
<text text-anchor="middle" x="21.5" y="-66.3" font-family="Times,serif" font-size="14.00">a</text>
</g>
<!-- 2&#45;&gt;0 -->
<g id="edge4" class="edge"><title>2&#45;&gt;0</title>
<path fill="none" stroke="black" d="M107.946,-43.8884C111.441,-71.7838 116.286,-122.713 112,-166 111.729,-168.738 111.341,-171.58 110.885,-174.406"/>
<polygon fill="black" stroke="black" points="107.421,-173.893 109.024,-184.366 114.302,-175.179 107.421,-173.893"/>
<text text-anchor="middle" x="116.5" y="-110.3" font-family="Times,serif" font-size="14.00">b</text>
</g>
<!-- 2&#45;&gt;1 -->
<g id="edge5" class="edge"><title>2&#45;&gt;1</title>
<path fill="none" stroke="black" d="M91.1505,-39.0372C86.1525,-45.7099 81.0066,-53.8049 78,-62 75.2613,-69.4648 73.8254,-77.9335 73.1165,-85.7954"/>
<polygon fill="black" stroke="black" points="69.6104,-85.8086 72.5464,-95.9885 76.5995,-86.1997 69.6104,-85.8086"/>
<text text-anchor="middle" x="81.5" y="-66.3" font-family="Times,serif" font-size="14.00">a</text>
</g>
<!-- 3&#45;&gt;1 -->
<g id="edge6" class="edge"><title>3&#45;&gt;1</title>
<path fill="none" stroke="black" d="M27.0956,-37.8837C35.6189,-51.831 48.5023,-72.9128 58.453,-89.1959"/>
<polygon fill="black" stroke="black" points="55.7168,-91.4306 63.9179,-98.1383 61.6898,-87.7804 55.7168,-91.4306"/>
<text text-anchor="middle" x="53.5" y="-66.3" font-family="Times,serif" font-size="14.00">a</text>
</g>
<!-- 3&#45;&gt;3 -->
<g id="edge7" class="edge"><title>3&#45;&gt;3</title>
<path fill="none" stroke="black" d="M34.2903,-30.365C44.3892,-32.3821 54,-29.5938 54,-22 54,-17.1353 50.0557,-14.2427 44.5656,-13.3222"/>
<polygon fill="black" stroke="black" points="44.1791,-9.83225 34.2903,-13.635 44.3922,-16.829 44.1791,-9.83225"/>
<text text-anchor="middle" x="57.5" y="-18.3" font-family="Times,serif" font-size="14.00">b</text>
</g>
</g>
</svg>
