<?xml version="1.0" encoding="UTF-8" standalone="no"?>
<!DOCTYPE svg PUBLIC "-//W3C//DTD SVG 1.1//EN"
 "http://www.w3.org/Graphics/SVG/1.1/DTD/svg11.dtd">
<!-- Generated by graphviz version 2.36.0 (20140111.2315)
 -->
<!-- Title: %3 Pages: 1 -->
<svg width="120pt" height="404pt"
 viewBox="0.00 0.00 120.00 404.00" xmlns="http://www.w3.org/2000/svg" xmlns:xlink="http://www.w3.org/1999/xlink">
<g id="graph0" class="graph" transform="scale(1 1) rotate(0) translate(4 400)">
<title>%3</title>
<polygon fill="white" stroke="none" points="-4,4 -4,-400 116,-400 116,4 -4,4"/>
<!-- 0 -->
<g id="node1" class="node"><title>0</title>
<ellipse fill="lightblue" stroke="black" cx="69" cy="-378" rx="18" ry="18"/>
<text text-anchor="middle" x="69" y="-374.3" font-family="Times,serif" font-size="14.00">0</text>
</g>
<!-- 3 -->
<g id="node4" class="node"><title>3</title>
<ellipse fill="green" stroke="black" cx="21" cy="-286" rx="17.5909" ry="18"/>
<ellipse fill="none" stroke="black" cx="21" cy="-286" rx="21.5" ry="22"/>
<text text-anchor="middle" x="21" y="-282.3" font-family="Times,serif" font-size="14.00">3</text>
</g>
<!-- 0&#45;&gt;3 -->
<g id="edge1" class="edge"><title>0&#45;&gt;3</title>
<path fill="none" stroke="black" d="M60.8575,-361.733C54.0352,-348.941 44.1187,-330.348 35.884,-314.907"/>
<polygon fill="black" stroke="black" points="38.8109,-312.958 31.0167,-305.781 32.6344,-316.252 38.8109,-312.958"/>
<text text-anchor="middle" x="57.5" y="-330.3" font-family="Times,serif" font-size="14.00">b,a</text>
</g>
<!-- 1 -->
<g id="node2" class="node"><title>1</title>
<ellipse fill="lightblue" stroke="black" cx="43" cy="-194" rx="18" ry="18"/>
<text text-anchor="middle" x="43" y="-190.3" font-family="Times,serif" font-size="14.00">1</text>
</g>
<!-- 2 -->
<g id="node3" class="node"><title>2</title>
<ellipse fill="lightblue" stroke="black" cx="94" cy="-106" rx="18" ry="18"/>
<text text-anchor="middle" x="94" y="-102.3" font-family="Times,serif" font-size="14.00">2</text>
</g>
<!-- 1&#45;&gt;2 -->
<g id="edge2" class="edge"><title>1&#45;&gt;2</title>
<path fill="none" stroke="black" d="M51.8835,-178.02C59.6354,-164.948 71.0159,-145.758 79.9931,-130.619"/>
<polygon fill="black" stroke="black" points="83.1279,-132.195 85.2183,-121.808 77.107,-128.624 83.1279,-132.195"/>
<text text-anchor="middle" x="76.5" y="-146.3" font-family="Times,serif" font-size="14.00">b</text>
</g>
<!-- 1&#45;&gt;3 -->
<g id="edge3" class="edge"><title>1&#45;&gt;3</title>
<path fill="none" stroke="black" d="M31.3342,-207.954C26.5177,-214.159 21.4864,-221.977 19,-230 16.6399,-237.615 16.0307,-246.109 16.2818,-254.099"/>
<polygon fill="black" stroke="black" points="12.8007,-254.485 17.0325,-264.198 19.7814,-253.966 12.8007,-254.485"/>
<text text-anchor="middle" x="22.5" y="-234.3" font-family="Times,serif" font-size="14.00">a</text>
</g>
<!-- 2&#45;&gt;0 -->
<g id="edge4" class="edge"><title>2&#45;&gt;0</title>
<path fill="none" stroke="black" d="M92.7445,-123.958C90.1418,-158.579 83.8284,-239.876 77,-308 75.6093,-321.874 73.8429,-337.291 72.3238,-350.027"/>
<polygon fill="black" stroke="black" points="68.8435,-349.655 71.1197,-360.002 75.793,-350.494 68.8435,-349.655"/>
<text text-anchor="middle" x="87.5" y="-234.3" font-family="Times,serif" font-size="14.00">b</text>
</g>
<!-- 4 -->
<g id="node5" class="node"><title>4</title>
<ellipse fill="lightblue" stroke="black" cx="62" cy="-18" rx="18" ry="18"/>
<text text-anchor="middle" x="62" y="-14.3" font-family="Times,serif" font-size="14.00">4</text>
</g>
<!-- 2&#45;&gt;4 -->
<g id="edge5" class="edge"><title>2&#45;&gt;4</title>
<path fill="none" stroke="black" d="M87.981,-88.8241C83.3774,-76.4516 76.9381,-59.1462 71.6221,-44.8593"/>
<polygon fill="black" stroke="black" points="74.7596,-43.255 67.992,-35.1034 68.1991,-45.6962 74.7596,-43.255"/>
<text text-anchor="middle" x="83.5" y="-58.3" font-family="Times,serif" font-size="14.00">a</text>
</g>
<!-- 3&#45;&gt;1 -->
<g id="edge6" class="edge"><title>3&#45;&gt;1</title>
<path fill="none" stroke="black" d="M25.9921,-264.578C29.1037,-251.849 33.1404,-235.335 36.5003,-221.59"/>
<polygon fill="black" stroke="black" points="39.9364,-222.272 38.9111,-211.727 33.1366,-220.61 39.9364,-222.272"/>
<text text-anchor="middle" x="36.5" y="-234.3" font-family="Times,serif" font-size="14.00">a</text>
</g>
<!-- 3&#45;&gt;3 -->
<g id="edge7" class="edge"><title>3&#45;&gt;3</title>
<path fill="none" stroke="black" d="M41.0663,-294.734C51.0736,-295.943 60,-293.031 60,-286 60,-281.496 56.3366,-278.682 51.0725,-277.559"/>
<polygon fill="black" stroke="black" points="51.1646,-274.061 41.0663,-277.266 50.9594,-281.057 51.1646,-274.061"/>
<text text-anchor="middle" x="63.5" y="-282.3" font-family="Times,serif" font-size="14.00">b</text>
</g>
<!-- 4&#45;&gt;1 -->
<g id="edge8" class="edge"><title>4&#45;&gt;1</title>
<path fill="none" stroke="black" d="M58.5391,-35.9399C55.819,-49.8628 52.1432,-70.1328 50,-88 46.8501,-114.26 45.0242,-144.397 44.0322,-165.629"/>
<polygon fill="black" stroke="black" points="40.5255,-165.71 43.5868,-175.853 47.5188,-166.015 40.5255,-165.71"/>
<text text-anchor="middle" x="58.5" y="-102.3" font-family="Times,serif" font-size="14.00">b,a</text>
</g>
</g>
</svg>
