<?xml version="1.0" encoding="UTF-8" standalone="no"?>
<!DOCTYPE svg PUBLIC "-//W3C//DTD SVG 1.1//EN"
 "http://www.w3.org/Graphics/SVG/1.1/DTD/svg11.dtd">
<!-- Generated by graphviz version 2.36.0 (20140111.2315)
 -->
<!-- Title: %3 Pages: 1 -->
<svg width="122pt" height="404pt"
 viewBox="0.00 0.00 122.00 404.00" xmlns="http://www.w3.org/2000/svg" xmlns:xlink="http://www.w3.org/1999/xlink">
<g id="graph0" class="graph" transform="scale(1 1) rotate(0) translate(4 400)">
<title>%3</title>
<polygon fill="white" stroke="none" points="-4,4 -4,-400 118,-400 118,4 -4,4"/>
<!-- 0 -->
<g id="node1" class="node"><title>0</title>
<ellipse fill="lightblue" stroke="black" cx="71" cy="-290" rx="18" ry="18"/>
<text text-anchor="middle" x="71" y="-286.3" font-family="Times,serif" font-size="14.00">0</text>
</g>
<!-- 1 -->
<g id="node2" class="node"><title>1</title>
<ellipse fill="green" stroke="black" cx="18" cy="-202" rx="18" ry="18"/>
<text text-anchor="middle" x="18" y="-198.3" font-family="Times,serif" font-size="14.00">1</text>
</g>
<!-- 0&#45;&gt;1 -->
<g id="edge1" class="edge"><title>0&#45;&gt;1</title>
<path fill="none" stroke="black" d="M61.7681,-274.02C53.7123,-260.948 41.8855,-241.758 32.5561,-226.619"/>
<polygon fill="black" stroke="black" points="35.3523,-224.485 27.1261,-217.808 29.393,-228.158 35.3523,-224.485"/>
<text text-anchor="middle" x="58.5" y="-242.3" font-family="Times,serif" font-size="14.00">b,a</text>
</g>
<!-- 1&#45;&gt;1 -->
<g id="edge2" class="edge"><title>1&#45;&gt;1</title>
<path fill="none" stroke="black" d="M34.2903,-209.668C44.3892,-211.517 54,-208.961 54,-202 54,-197.541 50.0557,-194.889 44.5656,-194.045"/>
<polygon fill="black" stroke="black" points="44.1887,-190.554 34.2903,-194.332 44.384,-197.552 44.1887,-190.554"/>
<text text-anchor="middle" x="57.5" y="-198.3" font-family="Times,serif" font-size="14.00">a</text>
</g>
<!-- 3 -->
<g id="node4" class="node"><title>3</title>
<ellipse fill="lightblue" stroke="black" cx="25" cy="-114" rx="18" ry="18"/>
<text text-anchor="middle" x="25" y="-110.3" font-family="Times,serif" font-size="14.00">3</text>
</g>
<!-- 1&#45;&gt;3 -->
<g id="edge3" class="edge"><title>1&#45;&gt;3</title>
<path fill="none" stroke="black" d="M19.383,-184.009C20.3513,-172.112 21.6659,-155.961 22.78,-142.275"/>
<polygon fill="black" stroke="black" points="26.297,-142.207 23.6199,-131.956 19.3201,-141.639 26.297,-142.207"/>
<text text-anchor="middle" x="26.5" y="-154.3" font-family="Times,serif" font-size="14.00">b</text>
</g>
<!-- 2 -->
<g id="node3" class="node"><title>2</title>
<ellipse fill="lightblue" stroke="black" cx="71" cy="-378" rx="18" ry="18"/>
<text text-anchor="middle" x="71" y="-374.3" font-family="Times,serif" font-size="14.00">2</text>
</g>
<!-- 2&#45;&gt;0 -->
<g id="edge4" class="edge"><title>2&#45;&gt;0</title>
<path fill="none" stroke="black" d="M71,-359.597C71,-347.746 71,-331.817 71,-318.292"/>
<polygon fill="black" stroke="black" points="74.5001,-318.084 71,-308.084 67.5001,-318.084 74.5001,-318.084"/>
<text text-anchor="middle" x="74.5" y="-330.3" font-family="Times,serif" font-size="14.00">b</text>
</g>
<!-- 2&#45;&gt;2 -->
<g id="edge5" class="edge"><title>2&#45;&gt;2</title>
<path fill="none" stroke="black" d="M87.2903,-385.668C97.3892,-387.517 107,-384.961 107,-378 107,-373.541 103.056,-370.889 97.5656,-370.045"/>
<polygon fill="black" stroke="black" points="97.1887,-366.554 87.2903,-370.332 97.384,-373.552 97.1887,-366.554"/>
<text text-anchor="middle" x="110.5" y="-374.3" font-family="Times,serif" font-size="14.00">a</text>
</g>
<!-- 4 -->
<g id="node5" class="node"><title>4</title>
<ellipse fill="lightblue" stroke="black" cx="65" cy="-22" rx="17.5909" ry="18"/>
<ellipse fill="none" stroke="black" cx="65" cy="-22" rx="21.5" ry="22"/>
<text text-anchor="middle" x="65" y="-18.3" font-family="Times,serif" font-size="14.00">4</text>
</g>
<!-- 3&#45;&gt;4 -->
<g id="edge6" class="edge"><title>3&#45;&gt;4</title>
<path fill="none" stroke="black" d="M22.2108,-95.7957C21.3028,-85.5786 21.4903,-72.5926 26,-62 29.0945,-54.7316 34.2448,-48.0976 39.8046,-42.4439"/>
<polygon fill="black" stroke="black" points="42.4977,-44.722 47.4852,-35.3745 37.7571,-39.5715 42.4977,-44.722"/>
<text text-anchor="middle" x="34.5" y="-66.3" font-family="Times,serif" font-size="14.00">b,a</text>
</g>
<!-- 4&#45;&gt;0 -->
<g id="edge7" class="edge"><title>4&#45;&gt;0</title>
<path fill="none" stroke="black" d="M65.848,-44.0523C67.3405,-82.5455 70.3414,-166.869 71,-238 71.0713,-245.703 71.0942,-254.06 71.0932,-261.738"/>
<polygon fill="black" stroke="black" points="67.593,-261.995 71.0787,-272 74.593,-262.005 67.593,-261.995"/>
<text text-anchor="middle" x="73.5" y="-154.3" font-family="Times,serif" font-size="14.00">b</text>
</g>
<!-- 4&#45;&gt;3 -->
<g id="edge8" class="edge"><title>4&#45;&gt;3</title>
<path fill="none" stroke="black" d="M57.6048,-42.7906C53.5311,-53.3439 48.2474,-66.4902 43,-78 41.4038,-81.5011 39.6389,-85.1554 37.8567,-88.7262"/>
<polygon fill="black" stroke="black" points="34.6427,-87.3239 33.2029,-97.8205 40.8742,-90.5128 34.6427,-87.3239"/>
<text text-anchor="middle" x="53.5" y="-66.3" font-family="Times,serif" font-size="14.00">a</text>
</g>
</g>
</svg>
