<?xml version="1.0" encoding="UTF-8" standalone="no"?>
<!DOCTYPE svg PUBLIC "-//W3C//DTD SVG 1.1//EN"
 "http://www.w3.org/Graphics/SVG/1.1/DTD/svg11.dtd">
<!-- Generated by graphviz version 2.36.0 (20140111.2315)
 -->
<!-- Title: %3 Pages: 1 -->
<svg width="176pt" height="316pt"
 viewBox="0.00 0.00 175.99 316.00" xmlns="http://www.w3.org/2000/svg" xmlns:xlink="http://www.w3.org/1999/xlink">
<g id="graph0" class="graph" transform="scale(1 1) rotate(0) translate(4 312)">
<title>%3</title>
<polygon fill="white" stroke="none" points="-4,4 -4,-312 171.994,-312 171.994,4 -4,4"/>
<!-- 0 -->
<g id="node1" class="node"><title>0</title>
<ellipse fill="green" stroke="black" cx="142.994" cy="-290" rx="18" ry="18"/>
<text text-anchor="middle" x="142.994" y="-286.3" font-family="Times,serif" font-size="14.00">0</text>
</g>
<!-- 2 -->
<g id="node3" class="node"><title>2</title>
<ellipse fill="lightblue" stroke="black" cx="57.9944" cy="-202" rx="18" ry="18"/>
<text text-anchor="middle" x="57.9944" y="-198.3" font-family="Times,serif" font-size="14.00">2</text>
</g>
<!-- 0&#45;&gt;2 -->
<g id="edge1" class="edge"><title>0&#45;&gt;2</title>
<path fill="none" stroke="black" d="M129.732,-277.271C122.317,-270.594 112.987,-261.99 104.994,-254 95.3788,-244.387 85.1014,-233.332 76.6168,-223.977"/>
<polygon fill="black" stroke="black" points="78.9748,-221.365 69.6839,-216.272 73.7713,-226.047 78.9748,-221.365"/>
<text text-anchor="middle" x="108.494" y="-242.3" font-family="Times,serif" font-size="14.00">b</text>
</g>
<!-- 4 -->
<g id="node5" class="node"><title>4</title>
<ellipse fill="lightblue" stroke="black" cx="125.994" cy="-18" rx="18" ry="18"/>
<text text-anchor="middle" x="125.994" y="-14.3" font-family="Times,serif" font-size="14.00">4</text>
</g>
<!-- 0&#45;&gt;4 -->
<g id="edge2" class="edge"><title>0&#45;&gt;4</title>
<path fill="none" stroke="black" d="M145.338,-271.944C146.015,-266.249 146.661,-259.862 146.994,-254 147.399,-246.9 147.334,-245.103 146.994,-238 143.677,-168.656 134.485,-87.3843 129.432,-46.0772"/>
<polygon fill="black" stroke="black" points="132.886,-45.4918 128.183,-35.9979 125.939,-46.3523 132.886,-45.4918"/>
<text text-anchor="middle" x="144.494" y="-154.3" font-family="Times,serif" font-size="14.00">a</text>
</g>
<!-- 1 -->
<g id="node2" class="node"><title>1</title>
<ellipse fill="lightblue" stroke="black" cx="103.994" cy="-110" rx="18" ry="18"/>
<text text-anchor="middle" x="103.994" y="-106.3" font-family="Times,serif" font-size="14.00">1</text>
</g>
<!-- 1&#45;&gt;0 -->
<g id="edge3" class="edge"><title>1&#45;&gt;0</title>
<path fill="none" stroke="black" d="M107.682,-127.831C114.462,-158.773 128.956,-224.926 137.11,-262.141"/>
<polygon fill="black" stroke="black" points="133.766,-263.235 139.325,-272.254 140.604,-261.737 133.766,-263.235"/>
<text text-anchor="middle" x="130.494" y="-198.3" font-family="Times,serif" font-size="14.00">b</text>
</g>
<!-- 1&#45;&gt;2 -->
<g id="edge4" class="edge"><title>1&#45;&gt;2</title>
<path fill="none" stroke="black" d="M98.5444,-127.306C94.5538,-138.479 88.6835,-153.483 81.9944,-166 79.7459,-170.207 77.0995,-174.526 74.4002,-178.629"/>
<polygon fill="black" stroke="black" points="71.3265,-176.922 68.5409,-187.144 77.0931,-180.89 71.3265,-176.922"/>
<text text-anchor="middle" x="92.4944" y="-154.3" font-family="Times,serif" font-size="14.00">a</text>
</g>
<!-- 2&#45;&gt;1 -->
<g id="edge5" class="edge"><title>2&#45;&gt;1</title>
<path fill="none" stroke="black" d="M62.987,-184.477C66.3518,-174.27 71.223,-161.057 76.9944,-150 79.9727,-144.294 83.649,-138.437 87.3196,-133.053"/>
<polygon fill="black" stroke="black" points="90.4241,-134.727 93.3672,-124.549 84.7195,-130.67 90.4241,-134.727"/>
<text text-anchor="middle" x="80.4944" y="-154.3" font-family="Times,serif" font-size="14.00">b</text>
</g>
<!-- 3 -->
<g id="node4" class="node"><title>3</title>
<ellipse fill="lightblue" stroke="black" cx="43.9944" cy="-110" rx="17.5909" ry="18"/>
<ellipse fill="none" stroke="black" cx="43.9944" cy="-110" rx="21.5" ry="22"/>
<text text-anchor="middle" x="43.9944" y="-106.3" font-family="Times,serif" font-size="14.00">3</text>
</g>
<!-- 2&#45;&gt;3 -->
<g id="edge6" class="edge"><title>2&#45;&gt;3</title>
<path fill="none" stroke="black" d="M51.9853,-184.831C50.0588,-178.979 48.1316,-172.267 46.9944,-166 45.6093,-158.367 44.8008,-150.048 44.3426,-142.245"/>
<polygon fill="black" stroke="black" points="47.8305,-141.881 43.9135,-132.037 40.8366,-142.175 47.8305,-141.881"/>
<text text-anchor="middle" x="50.4944" y="-154.3" font-family="Times,serif" font-size="14.00">a</text>
</g>
<!-- 3&#45;&gt;2 -->
<g id="edge7" class="edge"><title>3&#45;&gt;2</title>
<path fill="none" stroke="black" d="M35.9186,-130.62C32.6667,-141.242 30.4318,-154.505 33.9944,-166 35.4707,-170.764 37.8442,-175.455 40.5372,-179.779"/>
<polygon fill="black" stroke="black" points="37.7241,-181.864 46.3286,-188.046 43.4571,-177.847 37.7241,-181.864"/>
<text text-anchor="middle" x="37.4944" y="-154.3" font-family="Times,serif" font-size="14.00">a</text>
</g>
<!-- 3&#45;&gt;4 -->
<g id="edge8" class="edge"><title>3&#45;&gt;4</title>
<path fill="none" stroke="black" d="M58.2777,-93.3232C71.9216,-78.3482 92.5569,-55.6997 107.461,-39.341"/>
<polygon fill="black" stroke="black" points="110.114,-41.6261 114.262,-31.8769 104.94,-36.9116 110.114,-41.6261"/>
<text text-anchor="middle" x="95.4944" y="-58.3" font-family="Times,serif" font-size="14.00">b</text>
</g>
<!-- 4&#45;&gt;0 -->
<g id="edge9" class="edge"><title>4&#45;&gt;0</title>
<path fill="none" stroke="black" d="M135.336,-33.4651C138.883,-39.5798 142.634,-46.9159 144.994,-54 170.947,-131.876 158.717,-155.945 160.994,-238 161.192,-245.108 162.667,-247.089 160.994,-254 160.089,-257.74 158.711,-261.528 157.112,-265.162"/>
<polygon fill="black" stroke="black" points="153.892,-263.775 152.537,-274.283 160.149,-266.914 153.892,-263.775"/>
<text text-anchor="middle" x="164.494" y="-154.3" font-family="Times,serif" font-size="14.00">a</text>
</g>
<!-- 4&#45;&gt;2 -->
<g id="edge10" class="edge"><title>4&#45;&gt;2</title>
<path fill="none" stroke="black" d="M108.561,-23.0981C81.0115,-30.62 28.2578,-49.5171 5.99439,-88 -12.2889,-119.603 16.2567,-158.749 37.7523,-181.691"/>
<polygon fill="black" stroke="black" points="35.4844,-184.378 44.9733,-189.091 40.4944,-179.489 35.4844,-184.378"/>
<text text-anchor="middle" x="9.49439" y="-106.3" font-family="Times,serif" font-size="14.00">b</text>
</g>
</g>
</svg>
