<?xml version="1.0" encoding="UTF-8" standalone="no"?>
<!DOCTYPE svg PUBLIC "-//W3C//DTD SVG 1.1//EN"
 "http://www.w3.org/Graphics/SVG/1.1/DTD/svg11.dtd">
<!-- Generated by graphviz version 2.36.0 (20140111.2315)
 -->
<!-- Title: %3 Pages: 1 -->
<svg width="117pt" height="404pt"
 viewBox="0.00 0.00 117.02 404.00" xmlns="http://www.w3.org/2000/svg" xmlns:xlink="http://www.w3.org/1999/xlink">
<g id="graph0" class="graph" transform="scale(1 1) rotate(0) translate(4 400)">
<title>%3</title>
<polygon fill="white" stroke="none" points="-4,4 -4,-400 113.024,-400 113.024,4 -4,4"/>
<!-- 0 -->
<g id="node1" class="node"><title>0</title>
<ellipse fill="lightblue" stroke="black" cx="72.0236" cy="-378" rx="18" ry="18"/>
<text text-anchor="middle" x="72.0236" y="-374.3" font-family="Times,serif" font-size="14.00">0</text>
</g>
<!-- 2 -->
<g id="node3" class="node"><title>2</title>
<ellipse fill="lightblue" stroke="black" cx="24.0236" cy="-290" rx="18" ry="18"/>
<text text-anchor="middle" x="24.0236" y="-286.3" font-family="Times,serif" font-size="14.00">2</text>
</g>
<!-- 0&#45;&gt;2 -->
<g id="edge1" class="edge"><title>0&#45;&gt;2</title>
<path fill="none" stroke="black" d="M63.6626,-362.02C56.4113,-349.028 45.7862,-329.991 37.3613,-314.897"/>
<polygon fill="black" stroke="black" points="40.3797,-313.123 32.4498,-306.097 34.2673,-316.535 40.3797,-313.123"/>
<text text-anchor="middle" x="55.5236" y="-330.3" font-family="Times,serif" font-size="14.00">a</text>
</g>
<!-- 4 -->
<g id="node5" class="node"><title>4</title>
<ellipse fill="green" stroke="black" cx="54.0236" cy="-18" rx="18" ry="18"/>
<text text-anchor="middle" x="54.0236" y="-14.3" font-family="Times,serif" font-size="14.00">4</text>
</g>
<!-- 0&#45;&gt;4 -->
<g id="edge2" class="edge"><title>0&#45;&gt;4</title>
<path fill="none" stroke="black" d="M80.7008,-362.016C89.561,-345.275 102.024,-317.091 102.024,-291 102.024,-291 102.024,-291 102.024,-109 102.024,-82.6727 85.8346,-56.5702 72.2602,-39.3109"/>
<polygon fill="black" stroke="black" points="74.9518,-37.0736 65.8887,-31.5862 69.5517,-41.5277 74.9518,-37.0736"/>
<text text-anchor="middle" x="105.524" y="-198.3" font-family="Times,serif" font-size="14.00">b</text>
</g>
<!-- 1 -->
<g id="node2" class="node"><title>1</title>
<ellipse fill="lightblue" stroke="black" cx="24.0236" cy="-110" rx="17.5909" ry="18"/>
<ellipse fill="none" stroke="black" cx="24.0236" cy="-110" rx="21.5" ry="22"/>
<text text-anchor="middle" x="24.0236" y="-106.3" font-family="Times,serif" font-size="14.00">1</text>
</g>
<!-- 1&#45;&gt;2 -->
<g id="edge3" class="edge"><title>1&#45;&gt;2</title>
<path fill="none" stroke="black" d="M20.0736,-131.876C16.4026,-153.802 11.8101,-189.295 14.0236,-220 15.0299,-233.959 17.1671,-249.385 19.2084,-262.104"/>
<polygon fill="black" stroke="black" points="15.7719,-262.775 20.8736,-272.061 22.676,-261.62 15.7719,-262.775"/>
<text text-anchor="middle" x="17.5236" y="-198.3" font-family="Times,serif" font-size="14.00">a</text>
</g>
<!-- 1&#45;&gt;4 -->
<g id="edge4" class="edge"><title>1&#45;&gt;4</title>
<path fill="none" stroke="black" d="M22.2797,-88.0327C22.1174,-77.514 23.0264,-64.7567 27.0236,-54 28.9457,-48.8273 31.9183,-43.7991 35.1995,-39.2423"/>
<polygon fill="black" stroke="black" points="38.1667,-41.1368 41.6946,-31.1466 32.7067,-36.7563 38.1667,-41.1368"/>
<text text-anchor="middle" x="30.5236" y="-58.3" font-family="Times,serif" font-size="14.00">b</text>
</g>
<!-- 2&#45;&gt;1 -->
<g id="edge5" class="edge"><title>2&#45;&gt;1</title>
<path fill="none" stroke="black" d="M17.1928,-273.2C11.6872,-259.45 4.4732,-238.827 2.02357,-220 -2.02357,-188.895 2.04622,-180.055 11.0236,-150 11.914,-147.019 12.8782,-143.922 13.8652,-140.835"/>
<polygon fill="black" stroke="black" points="17.246,-141.758 17.033,-131.165 10.5939,-139.578 17.246,-141.758"/>
<text text-anchor="middle" x="5.52357" y="-198.3" font-family="Times,serif" font-size="14.00">b</text>
</g>
<!-- 3 -->
<g id="node4" class="node"><title>3</title>
<ellipse fill="lightblue" stroke="black" cx="48.0236" cy="-202" rx="18" ry="18"/>
<text text-anchor="middle" x="48.0236" y="-198.3" font-family="Times,serif" font-size="14.00">3</text>
</g>
<!-- 2&#45;&gt;3 -->
<g id="edge6" class="edge"><title>2&#45;&gt;3</title>
<path fill="none" stroke="black" d="M28.651,-272.418C32.0708,-260.164 36.7949,-243.236 40.7218,-229.165"/>
<polygon fill="black" stroke="black" points="44.0935,-230.104 43.4103,-219.531 37.3511,-228.222 44.0935,-230.104"/>
<text text-anchor="middle" x="41.5236" y="-242.3" font-family="Times,serif" font-size="14.00">a</text>
</g>
<!-- 3&#45;&gt;1 -->
<g id="edge7" class="edge"><title>3&#45;&gt;1</title>
<path fill="none" stroke="black" d="M43.6216,-184.493C40.4201,-172.487 35.993,-155.885 32.1563,-141.498"/>
<polygon fill="black" stroke="black" points="35.4515,-140.271 29.493,-131.51 28.6879,-142.075 35.4515,-140.271"/>
<text text-anchor="middle" x="46.5236" y="-154.3" font-family="Times,serif" font-size="14.00">b,a</text>
</g>
<!-- 4&#45;&gt;1 -->
<g id="edge8" class="edge"><title>4&#45;&gt;1</title>
<path fill="none" stroke="black" d="M48.5865,-35.3114C44.5,-47.5707 38.7895,-64.7023 33.9029,-79.3621"/>
<polygon fill="black" stroke="black" points="30.5235,-78.4324 30.6815,-89.0261 37.1643,-80.6461 30.5235,-78.4324"/>
<text text-anchor="middle" x="44.5236" y="-58.3" font-family="Times,serif" font-size="14.00">b</text>
</g>
<!-- 4&#45;&gt;4 -->
<g id="edge9" class="edge"><title>4&#45;&gt;4</title>
<path fill="none" stroke="black" d="M70.3138,-25.6679C80.4127,-27.5169 90.0236,-24.9609 90.0236,-18 90.0236,-13.5406 86.0793,-10.8891 80.5892,-10.0454"/>
<polygon fill="black" stroke="black" points="80.2123,-6.55441 70.3138,-10.3321 80.4076,-13.5517 80.2123,-6.55441"/>
<text text-anchor="middle" x="93.5236" y="-14.3" font-family="Times,serif" font-size="14.00">a</text>
</g>
</g>
</svg>
