<?xml version="1.0" encoding="UTF-8" standalone="no"?>
<!DOCTYPE svg PUBLIC "-//W3C//DTD SVG 1.1//EN"
 "http://www.w3.org/Graphics/SVG/1.1/DTD/svg11.dtd">
<!-- Generated by graphviz version 2.36.0 (20140111.2315)
 -->
<!-- Title: %3 Pages: 1 -->
<svg width="140pt" height="228pt"
 viewBox="0.00 0.00 140.00 228.00" xmlns="http://www.w3.org/2000/svg" xmlns:xlink="http://www.w3.org/1999/xlink">
<g id="graph0" class="graph" transform="scale(1 1) rotate(0) translate(4 224)">
<title>%3</title>
<polygon fill="white" stroke="none" points="-4,4 -4,-224 136,-224 136,4 -4,4"/>
<!-- 0 -->
<g id="node1" class="node"><title>0</title>
<ellipse fill="lightblue" stroke="black" cx="42" cy="-202" rx="18" ry="18"/>
<text text-anchor="middle" x="42" y="-198.3" font-family="Times,serif" font-size="14.00">0</text>
</g>
<!-- 0&#45;&gt;0 -->
<g id="edge1" class="edge"><title>0&#45;&gt;0</title>
<path fill="none" stroke="black" d="M58.2903,-209.668C68.3892,-211.517 78,-208.961 78,-202 78,-197.541 74.0557,-194.889 68.5656,-194.045"/>
<polygon fill="black" stroke="black" points="68.1887,-190.554 58.2903,-194.332 68.384,-197.552 68.1887,-190.554"/>
<text text-anchor="middle" x="81.5" y="-198.3" font-family="Times,serif" font-size="14.00">b</text>
</g>
<!-- 3 -->
<g id="node4" class="node"><title>3</title>
<ellipse fill="lightblue" stroke="black" cx="42" cy="-110" rx="17.5909" ry="18"/>
<ellipse fill="none" stroke="black" cx="42" cy="-110" rx="21.5" ry="22"/>
<text text-anchor="middle" x="42" y="-106.3" font-family="Times,serif" font-size="14.00">3</text>
</g>
<!-- 0&#45;&gt;3 -->
<g id="edge2" class="edge"><title>0&#45;&gt;3</title>
<path fill="none" stroke="black" d="M42,-183.647C42,-171.924 42,-156.114 42,-142.237"/>
<polygon fill="black" stroke="black" points="45.5001,-142.101 42,-132.101 38.5001,-142.101 45.5001,-142.101"/>
<text text-anchor="middle" x="45.5" y="-154.3" font-family="Times,serif" font-size="14.00">a</text>
</g>
<!-- 1 -->
<g id="node2" class="node"><title>1</title>
<ellipse fill="lightblue" stroke="black" cx="89" cy="-18" rx="18" ry="18"/>
<text text-anchor="middle" x="89" y="-14.3" font-family="Times,serif" font-size="14.00">1</text>
</g>
<!-- 1&#45;&gt;0 -->
<g id="edge3" class="edge"><title>1&#45;&gt;0</title>
<path fill="none" stroke="black" d="M87.8183,-36.142C85.9591,-58.5423 81.5305,-98.8222 72,-132 67.603,-147.307 60.5896,-163.684 54.4492,-176.641"/>
<polygon fill="black" stroke="black" points="51.2166,-175.285 49.9817,-185.807 57.5091,-178.352 51.2166,-175.285"/>
<text text-anchor="middle" x="84.5" y="-106.3" font-family="Times,serif" font-size="14.00">b</text>
</g>
<!-- 1&#45;&gt;1 -->
<g id="edge4" class="edge"><title>1&#45;&gt;1</title>
<path fill="none" stroke="black" d="M105.29,-25.6679C115.389,-27.5169 125,-24.9609 125,-18 125,-13.5406 121.056,-10.8891 115.566,-10.0454"/>
<polygon fill="black" stroke="black" points="115.189,-6.55441 105.29,-10.3321 115.384,-13.5517 115.189,-6.55441"/>
<text text-anchor="middle" x="128.5" y="-14.3" font-family="Times,serif" font-size="14.00">a</text>
</g>
<!-- 2 -->
<g id="node3" class="node"><title>2</title>
<ellipse fill="green" stroke="black" cx="18" cy="-18" rx="18" ry="18"/>
<text text-anchor="middle" x="18" y="-14.3" font-family="Times,serif" font-size="14.00">2</text>
</g>
<!-- 2&#45;&gt;0 -->
<g id="edge5" class="edge"><title>2&#45;&gt;0</title>
<path fill="none" stroke="black" d="M12.2144,-35.3368C5.20162,-57.5302 -4.6649,-98.3045 4,-132 8.27551,-148.626 17.495,-165.538 25.7819,-178.457"/>
<polygon fill="black" stroke="black" points="23.0953,-180.736 31.5671,-187.098 28.9119,-176.841 23.0953,-180.736"/>
<text text-anchor="middle" x="7.5" y="-106.3" font-family="Times,serif" font-size="14.00">a</text>
</g>
<!-- 2&#45;&gt;3 -->
<g id="edge6" class="edge"><title>2&#45;&gt;3</title>
<path fill="none" stroke="black" d="M22.4606,-35.7273C25.6671,-47.7515 30.0807,-64.3026 33.902,-78.6324"/>
<polygon fill="black" stroke="black" points="30.5955,-79.8171 36.554,-88.5776 37.3592,-78.0134 30.5955,-79.8171"/>
<text text-anchor="middle" x="35.5" y="-58.3" font-family="Times,serif" font-size="14.00">b</text>
</g>
<!-- 3&#45;&gt;1 -->
<g id="edge7" class="edge"><title>3&#45;&gt;1</title>
<path fill="none" stroke="black" d="M51.7384,-90.3519C58.8406,-76.752 68.532,-58.194 76.2508,-43.4133"/>
<polygon fill="black" stroke="black" points="79.4647,-44.8201 80.9913,-34.3358 73.2598,-41.5797 79.4647,-44.8201"/>
<text text-anchor="middle" x="72.5" y="-58.3" font-family="Times,serif" font-size="14.00">b</text>
</g>
<!-- 3&#45;&gt;2 -->
<g id="edge8" class="edge"><title>3&#45;&gt;2</title>
<path fill="none" stroke="black" d="M30.447,-91.4454C26.7615,-84.9675 23.0982,-77.3982 21,-70 18.8704,-62.491 17.8504,-54.1181 17.4288,-46.3625"/>
<polygon fill="black" stroke="black" points="20.9264,-46.2175 17.1768,-36.3084 13.9286,-46.393 20.9264,-46.2175"/>
<text text-anchor="middle" x="24.5" y="-58.3" font-family="Times,serif" font-size="14.00">a</text>
</g>
</g>
</svg>
