<?xml version="1.0" encoding="UTF-8" standalone="no"?>
<!DOCTYPE svg PUBLIC "-//W3C//DTD SVG 1.1//EN"
 "http://www.w3.org/Graphics/SVG/1.1/DTD/svg11.dtd">
<!-- Generated by graphviz version 2.36.0 (20140111.2315)
 -->
<!-- Title: %3 Pages: 1 -->
<svg width="145pt" height="316pt"
 viewBox="0.00 0.00 145.00 316.00" xmlns="http://www.w3.org/2000/svg" xmlns:xlink="http://www.w3.org/1999/xlink">
<g id="graph0" class="graph" transform="scale(1 1) rotate(0) translate(4 312)">
<title>%3</title>
<polygon fill="white" stroke="none" points="-4,4 -4,-312 141,-312 141,4 -4,4"/>
<!-- 0 -->
<g id="node1" class="node"><title>0</title>
<ellipse fill="green" stroke="black" cx="90" cy="-286" rx="17.5909" ry="18"/>
<ellipse fill="none" stroke="black" cx="90" cy="-286" rx="21.5" ry="22"/>
<text text-anchor="middle" x="90" y="-282.3" font-family="Times,serif" font-size="14.00">0</text>
</g>
<!-- 0&#45;&gt;0 -->
<g id="edge1" class="edge"><title>0&#45;&gt;0</title>
<path fill="none" stroke="black" d="M110.066,-294.734C120.074,-295.943 129,-293.031 129,-286 129,-281.496 125.337,-278.682 120.072,-277.559"/>
<polygon fill="black" stroke="black" points="120.165,-274.061 110.066,-277.266 119.959,-281.057 120.165,-274.061"/>
<text text-anchor="middle" x="132.5" y="-282.3" font-family="Times,serif" font-size="14.00">b</text>
</g>
<!-- 1 -->
<g id="node2" class="node"><title>1</title>
<ellipse fill="lightblue" stroke="black" cx="42" cy="-194" rx="18" ry="18"/>
<text text-anchor="middle" x="42" y="-190.3" font-family="Times,serif" font-size="14.00">1</text>
</g>
<!-- 0&#45;&gt;1 -->
<g id="edge2" class="edge"><title>0&#45;&gt;1</title>
<path fill="none" stroke="black" d="M80.0544,-266.352C72.8011,-252.752 62.9035,-234.194 55.0204,-219.413"/>
<polygon fill="black" stroke="black" points="57.9733,-217.512 50.1791,-210.336 51.7968,-220.806 57.9733,-217.512"/>
<text text-anchor="middle" x="71.5" y="-234.3" font-family="Times,serif" font-size="14.00">a</text>
</g>
<!-- 1&#45;&gt;1 -->
<g id="edge3" class="edge"><title>1&#45;&gt;1</title>
<path fill="none" stroke="black" d="M58.2903,-201.668C68.3892,-203.517 78,-200.961 78,-194 78,-189.541 74.0557,-186.889 68.5656,-186.045"/>
<polygon fill="black" stroke="black" points="68.1887,-182.554 58.2903,-186.332 68.384,-189.552 68.1887,-182.554"/>
<text text-anchor="middle" x="81.5" y="-190.3" font-family="Times,serif" font-size="14.00">a</text>
</g>
<!-- 3 -->
<g id="node4" class="node"><title>3</title>
<ellipse fill="lightblue" stroke="black" cx="18" cy="-106" rx="18" ry="18"/>
<text text-anchor="middle" x="18" y="-102.3" font-family="Times,serif" font-size="14.00">3</text>
</g>
<!-- 1&#45;&gt;3 -->
<g id="edge4" class="edge"><title>1&#45;&gt;3</title>
<path fill="none" stroke="black" d="M30.3342,-180.046C25.5177,-173.841 20.4864,-166.023 18,-158 15.6574,-150.441 14.9505,-141.944 15.0227,-134.085"/>
<polygon fill="black" stroke="black" points="18.5275,-134.072 15.5236,-123.912 11.5359,-133.728 18.5275,-134.072"/>
<text text-anchor="middle" x="21.5" y="-146.3" font-family="Times,serif" font-size="14.00">b</text>
</g>
<!-- 2 -->
<g id="node3" class="node"><title>2</title>
<ellipse fill="lightblue" stroke="black" cx="72" cy="-18" rx="18" ry="18"/>
<text text-anchor="middle" x="72" y="-14.3" font-family="Times,serif" font-size="14.00">2</text>
</g>
<!-- 2&#45;&gt;0 -->
<g id="edge5" class="edge"><title>2&#45;&gt;0</title>
<path fill="none" stroke="black" d="M75.0645,-36.0681C76.05,-41.7633 77.115,-48.1481 78,-54 88.5539,-123.788 95.9316,-141.445 94,-212 93.6255,-225.679 92.857,-240.784 92.0928,-253.687"/>
<polygon fill="black" stroke="black" points="88.5834,-253.732 91.4606,-263.929 95.5701,-254.164 88.5834,-253.732"/>
<text text-anchor="middle" x="96.5" y="-146.3" font-family="Times,serif" font-size="14.00">b</text>
</g>
<!-- 2&#45;&gt;1 -->
<g id="edge6" class="edge"><title>2&#45;&gt;1</title>
<path fill="none" stroke="black" d="M69.1011,-35.8135C63.8914,-66.0297 52.9062,-129.744 46.6391,-166.093"/>
<polygon fill="black" stroke="black" points="43.1812,-165.55 44.9311,-175.999 50.0794,-166.739 43.1812,-165.55"/>
<text text-anchor="middle" x="62.5" y="-102.3" font-family="Times,serif" font-size="14.00">a</text>
</g>
<!-- 3&#45;&gt;1 -->
<g id="edge7" class="edge"><title>3&#45;&gt;1</title>
<path fill="none" stroke="black" d="M22.6132,-123.531C26.0294,-135.772 30.7528,-152.698 34.6819,-166.777"/>
<polygon fill="black" stroke="black" points="31.3133,-167.727 37.3726,-176.418 38.0557,-165.846 31.3133,-167.727"/>
<text text-anchor="middle" x="35.5" y="-146.3" font-family="Times,serif" font-size="14.00">a</text>
</g>
<!-- 3&#45;&gt;2 -->
<g id="edge8" class="edge"><title>3&#45;&gt;2</title>
<path fill="none" stroke="black" d="M27.1604,-90.4113C35.3836,-77.315 47.6029,-57.8546 57.2098,-42.5548"/>
<polygon fill="black" stroke="black" points="60.4411,-43.9904 62.7947,-33.6603 54.5129,-40.268 60.4411,-43.9904"/>
<text text-anchor="middle" x="52.5" y="-58.3" font-family="Times,serif" font-size="14.00">b</text>
</g>
</g>
</svg>
