<?xml version="1.0" encoding="UTF-8" standalone="no"?>
<!DOCTYPE svg PUBLIC "-//W3C//DTD SVG 1.1//EN"
 "http://www.w3.org/Graphics/SVG/1.1/DTD/svg11.dtd">
<!-- Generated by graphviz version 2.36.0 (20140111.2315)
 -->
<!-- Title: %3 Pages: 1 -->
<svg width="160pt" height="140pt"
 viewBox="0.00 0.00 160.39 140.00" xmlns="http://www.w3.org/2000/svg" xmlns:xlink="http://www.w3.org/1999/xlink">
<g id="graph0" class="graph" transform="scale(1 1) rotate(0) translate(4 136)">
<title>%3</title>
<polygon fill="white" stroke="none" points="-4,4 -4,-136 156.393,-136 156.393,4 -4,4"/>
<!-- 0 -->
<g id="node1" class="node"><title>0</title>
<ellipse fill="green" stroke="black" cx="44.3928" cy="-110" rx="17.5909" ry="18"/>
<ellipse fill="none" stroke="black" cx="44.3928" cy="-110" rx="21.5" ry="22"/>
<text text-anchor="middle" x="44.3928" y="-106.3" font-family="Times,serif" font-size="14.00">0</text>
</g>
<!-- 1 -->
<g id="node2" class="node"><title>1</title>
<ellipse fill="lightblue" stroke="black" cx="98.3928" cy="-18" rx="18" ry="18"/>
<text text-anchor="middle" x="98.3928" y="-14.3" font-family="Times,serif" font-size="14.00">1</text>
</g>
<!-- 0&#45;&gt;1 -->
<g id="edge1" class="edge"><title>0&#45;&gt;1</title>
<path fill="none" stroke="black" d="M55.3205,-90.7872C63.6404,-76.9205 75.1617,-57.7184 84.1951,-42.6627"/>
<polygon fill="black" stroke="black" points="87.3036,-44.2847 89.4474,-33.909 81.3011,-40.6832 87.3036,-44.2847"/>
<text text-anchor="middle" x="78.8928" y="-58.3" font-family="Times,serif" font-size="14.00">a</text>
</g>
<!-- 2 -->
<g id="node3" class="node"><title>2</title>
<ellipse fill="lightblue" stroke="black" cx="19.3928" cy="-18" rx="18" ry="18"/>
<text text-anchor="middle" x="19.3928" y="-14.3" font-family="Times,serif" font-size="14.00">2</text>
</g>
<!-- 0&#45;&gt;2 -->
<g id="edge2" class="edge"><title>0&#45;&gt;2</title>
<path fill="none" stroke="black" d="M26.3425,-97.6072C17.3329,-90.8136 7.32473,-81.3101 2.39275,-70 -1.49757,-61.0786 0.602396,-50.9629 4.45792,-42.1062"/>
<polygon fill="black" stroke="black" points="7.62907,-43.594 9.13021,-33.106 1.41634,-40.3687 7.62907,-43.594"/>
<text text-anchor="middle" x="5.89275" y="-58.3" font-family="Times,serif" font-size="14.00">b</text>
</g>
<!-- 1&#45;&gt;0 -->
<g id="edge3" class="edge"><title>1&#45;&gt;0</title>
<path fill="none" stroke="black" d="M84.4691,-29.7015C77.019,-36.0577 68.2072,-44.682 62.3928,-54 57.7417,-61.4535 54.1679,-70.2324 51.478,-78.5615"/>
<polygon fill="black" stroke="black" points="48.0548,-77.7992 48.6224,-88.3788 54.7762,-79.7544 48.0548,-77.7992"/>
<text text-anchor="middle" x="65.8928" y="-58.3" font-family="Times,serif" font-size="14.00">a</text>
</g>
<!-- 1&#45;&gt;1 -->
<g id="edge4" class="edge"><title>1&#45;&gt;1</title>
<path fill="none" stroke="black" d="M114.683,-25.6679C124.782,-27.5169 134.393,-24.9609 134.393,-18 134.393,-13.5406 130.448,-10.8891 124.958,-10.0454"/>
<polygon fill="black" stroke="black" points="124.581,-6.55441 114.683,-10.3321 124.777,-13.5517 124.581,-6.55441"/>
<text text-anchor="middle" x="137.893" y="-14.3" font-family="Times,serif" font-size="14.00">b</text>
</g>
<!-- 2&#45;&gt;0 -->
<g id="edge5" class="edge"><title>2&#45;&gt;0</title>
<path fill="none" stroke="black" d="M23.4042,-35.5919C25.876,-45.5919 29.1781,-58.5648 32.3928,-70 33.2285,-72.973 34.1276,-76.0644 35.0442,-79.1476"/>
<polygon fill="black" stroke="black" points="31.7241,-80.2601 37.9758,-88.8138 38.4228,-78.2284 31.7241,-80.2601"/>
<text text-anchor="middle" x="35.8928" y="-58.3" font-family="Times,serif" font-size="14.00">a</text>
</g>
<!-- 2&#45;&gt;2 -->
<g id="edge6" class="edge"><title>2&#45;&gt;2</title>
<path fill="none" stroke="black" d="M35.683,-25.6679C45.7819,-27.5169 55.3928,-24.9609 55.3928,-18 55.3928,-13.5406 51.4485,-10.8891 45.9584,-10.0454"/>
<polygon fill="black" stroke="black" points="45.5815,-6.55441 35.683,-10.3321 45.7768,-13.5517 45.5815,-6.55441"/>
<text text-anchor="middle" x="58.8928" y="-14.3" font-family="Times,serif" font-size="14.00">b</text>
</g>
<!-- 3 -->
<g id="node4" class="node"><title>3</title>
<ellipse fill="lightblue" stroke="black" cx="134.393" cy="-110" rx="18" ry="18"/>
<text text-anchor="middle" x="134.393" y="-106.3" font-family="Times,serif" font-size="14.00">3</text>
</g>
<!-- 3&#45;&gt;1 -->
<g id="edge7" class="edge"><title>3&#45;&gt;1</title>
<path fill="none" stroke="black" d="M134.654,-91.9914C134.252,-80.7816 132.602,-66.0098 127.393,-54 125.077,-48.6609 121.689,-43.4932 118.038,-38.8414"/>
<polygon fill="black" stroke="black" points="120.541,-36.3845 111.358,-31.0994 115.241,-40.9573 120.541,-36.3845"/>
<text text-anchor="middle" x="134.893" y="-58.3" font-family="Times,serif" font-size="14.00">b</text>
</g>
<!-- 3&#45;&gt;2 -->
<g id="edge8" class="edge"><title>3&#45;&gt;2</title>
<path fill="none" stroke="black" d="M124.2,-94.5714C115.238,-82.6259 101.325,-65.7653 86.3928,-54 73.907,-44.1623 58.2373,-35.7986 45.1918,-29.7164"/>
<polygon fill="black" stroke="black" points="46.3809,-26.4141 35.8236,-25.5234 43.5212,-32.8033 46.3809,-26.4141"/>
<text text-anchor="middle" x="105.893" y="-58.3" font-family="Times,serif" font-size="14.00">a</text>
</g>
</g>
</svg>
