<?xml version="1.0" encoding="UTF-8" standalone="no"?>
<!DOCTYPE svg PUBLIC "-//W3C//DTD SVG 1.1//EN"
 "http://www.w3.org/Graphics/SVG/1.1/DTD/svg11.dtd">
<!-- Generated by graphviz version 2.36.0 (20140111.2315)
 -->
<!-- Title: %3 Pages: 1 -->
<svg width="78pt" height="316pt"
 viewBox="0.00 0.00 78.00 316.00" xmlns="http://www.w3.org/2000/svg" xmlns:xlink="http://www.w3.org/1999/xlink">
<g id="graph0" class="graph" transform="scale(1 1) rotate(0) translate(4 312)">
<title>%3</title>
<polygon fill="white" stroke="none" points="-4,4 -4,-312 74,-312 74,4 -4,4"/>
<!-- 0 -->
<g id="node1" class="node"><title>0</title>
<ellipse fill="green" stroke="black" cx="48" cy="-110" rx="17.5909" ry="18"/>
<ellipse fill="none" stroke="black" cx="48" cy="-110" rx="21.5" ry="22"/>
<text text-anchor="middle" x="48" y="-106.3" font-family="Times,serif" font-size="14.00">0</text>
</g>
<!-- 1 -->
<g id="node2" class="node"><title>1</title>
<ellipse fill="lightblue" stroke="black" cx="31" cy="-18" rx="18" ry="18"/>
<text text-anchor="middle" x="31" y="-14.3" font-family="Times,serif" font-size="14.00">1</text>
</g>
<!-- 0&#45;&gt;1 -->
<g id="edge1" class="edge"><title>0&#45;&gt;1</title>
<path fill="none" stroke="black" d="M38.5655,-90.0056C35.925,-83.7836 33.3968,-76.7361 32,-70 30.4177,-62.3692 29.805,-53.9582 29.6824,-46.205"/>
<polygon fill="black" stroke="black" points="33.1824,-46.207 29.7738,-36.1755 26.1827,-46.1431 33.1824,-46.207"/>
<text text-anchor="middle" x="40.5" y="-58.3" font-family="Times,serif" font-size="14.00">b,a</text>
</g>
<!-- 1&#45;&gt;0 -->
<g id="edge2" class="edge"><title>1&#45;&gt;0</title>
<path fill="none" stroke="black" d="M40.5423,-33.7168C43.917,-39.7499 47.2959,-46.9605 49,-54 50.8592,-61.6802 51.4121,-70.1414 51.3089,-78.0763"/>
<polygon fill="black" stroke="black" points="47.8113,-77.9449 50.85,-88.0946 54.804,-78.2653 47.8113,-77.9449"/>
<text text-anchor="middle" x="59.5" y="-58.3" font-family="Times,serif" font-size="14.00">b,a</text>
</g>
<!-- 2 -->
<g id="node3" class="node"><title>2</title>
<ellipse fill="lightblue" stroke="black" cx="46" cy="-202" rx="18" ry="18"/>
<text text-anchor="middle" x="46" y="-198.3" font-family="Times,serif" font-size="14.00">2</text>
</g>
<!-- 2&#45;&gt;0 -->
<g id="edge3" class="edge"><title>2&#45;&gt;0</title>
<path fill="none" stroke="black" d="M46.3856,-183.647C46.6461,-171.924 46.9975,-156.114 47.3058,-142.237"/>
<polygon fill="black" stroke="black" points="50.808,-142.176 47.5311,-132.101 43.8097,-142.021 50.808,-142.176"/>
<text text-anchor="middle" x="55.5" y="-154.3" font-family="Times,serif" font-size="14.00">b,a</text>
</g>
<!-- 3 -->
<g id="node4" class="node"><title>3</title>
<ellipse fill="lightblue" stroke="black" cx="18" cy="-290" rx="18" ry="18"/>
<text text-anchor="middle" x="18" y="-286.3" font-family="Times,serif" font-size="14.00">3</text>
</g>
<!-- 3&#45;&gt;1 -->
<g id="edge4" class="edge"><title>3&#45;&gt;1</title>
<path fill="none" stroke="black" d="M16.7166,-272.002C14.3611,-237.306 10.183,-155.881 17,-88 18.4218,-73.8426 21.4452,-58.2936 24.3198,-45.5458"/>
<polygon fill="black" stroke="black" points="27.7792,-46.1242 26.661,-35.5886 20.965,-44.522 27.7792,-46.1242"/>
<text text-anchor="middle" x="17.5" y="-154.3" font-family="Times,serif" font-size="14.00">a</text>
</g>
<!-- 3&#45;&gt;2 -->
<g id="edge5" class="edge"><title>3&#45;&gt;2</title>
<path fill="none" stroke="black" d="M23.3987,-272.418C27.414,-260.085 32.9706,-243.019 37.5693,-228.894"/>
<polygon fill="black" stroke="black" points="40.945,-229.831 40.7128,-219.239 34.2889,-227.664 40.945,-229.831"/>
<text text-anchor="middle" x="37.5" y="-242.3" font-family="Times,serif" font-size="14.00">b</text>
</g>
</g>
</svg>
