<?xml version="1.0" encoding="UTF-8" standalone="no"?>
<!DOCTYPE svg PUBLIC "-//W3C//DTD SVG 1.1//EN"
 "http://www.w3.org/Graphics/SVG/1.1/DTD/svg11.dtd">
<!-- Generated by graphviz version 2.36.0 (20140111.2315)
 -->
<!-- Title: %3 Pages: 1 -->
<svg width="99pt" height="316pt"
 viewBox="0.00 0.00 99.00 316.00" xmlns="http://www.w3.org/2000/svg" xmlns:xlink="http://www.w3.org/1999/xlink">
<g id="graph0" class="graph" transform="scale(1 1) rotate(0) translate(4 312)">
<title>%3</title>
<polygon fill="white" stroke="none" points="-4,4 -4,-312 95,-312 95,4 -4,4"/>
<!-- 0 -->
<g id="node1" class="node"><title>0</title>
<ellipse fill="lightblue" stroke="black" cx="38" cy="-290" rx="18" ry="18"/>
<text text-anchor="middle" x="38" y="-286.3" font-family="Times,serif" font-size="14.00">0</text>
</g>
<!-- 2 -->
<g id="node3" class="node"><title>2</title>
<ellipse fill="lightblue" stroke="black" cx="18" cy="-106" rx="18" ry="18"/>
<text text-anchor="middle" x="18" y="-102.3" font-family="Times,serif" font-size="14.00">2</text>
</g>
<!-- 0&#45;&gt;2 -->
<g id="edge1" class="edge"><title>0&#45;&gt;2</title>
<path fill="none" stroke="black" d="M34.9145,-272.038C32.4716,-258.103 29.1275,-237.827 27,-220 23.5169,-190.815 21.0347,-157.224 19.5711,-134.3"/>
<polygon fill="black" stroke="black" points="23.0616,-134.037 18.9524,-124.272 16.0749,-134.468 23.0616,-134.037"/>
<text text-anchor="middle" x="30.5" y="-194.3" font-family="Times,serif" font-size="14.00">a</text>
</g>
<!-- 3 -->
<g id="node4" class="node"><title>3</title>
<ellipse fill="lightblue" stroke="black" cx="65" cy="-198" rx="17.5909" ry="18"/>
<ellipse fill="none" stroke="black" cx="65" cy="-198" rx="21.5" ry="22"/>
<text text-anchor="middle" x="65" y="-194.3" font-family="Times,serif" font-size="14.00">3</text>
</g>
<!-- 0&#45;&gt;3 -->
<g id="edge2" class="edge"><title>0&#45;&gt;3</title>
<path fill="none" stroke="black" d="M42.9522,-272.493C46.6136,-260.288 51.7,-243.333 56.0648,-228.784"/>
<polygon fill="black" stroke="black" points="59.4237,-229.768 58.9449,-219.184 52.7189,-227.756 59.4237,-229.768"/>
<text text-anchor="middle" x="56.5" y="-242.3" font-family="Times,serif" font-size="14.00">b</text>
</g>
<!-- 1 -->
<g id="node2" class="node"><title>1</title>
<ellipse fill="green" stroke="black" cx="48" cy="-18" rx="18" ry="18"/>
<text text-anchor="middle" x="48" y="-14.3" font-family="Times,serif" font-size="14.00">1</text>
</g>
<!-- 1&#45;&gt;1 -->
<g id="edge3" class="edge"><title>1&#45;&gt;1</title>
<path fill="none" stroke="black" d="M64.2903,-25.6679C74.3892,-27.5169 84,-24.9609 84,-18 84,-13.5406 80.0557,-10.8891 74.5656,-10.0454"/>
<polygon fill="black" stroke="black" points="74.1887,-6.55441 64.2903,-10.3321 74.384,-13.5517 74.1887,-6.55441"/>
<text text-anchor="middle" x="87.5" y="-14.3" font-family="Times,serif" font-size="14.00">a</text>
</g>
<!-- 1&#45;&gt;2 -->
<g id="edge4" class="edge"><title>1&#45;&gt;2</title>
<path fill="none" stroke="black" d="M42.3825,-35.1034C38.0733,-47.4565 32.0378,-64.7582 27.0499,-79.0569"/>
<polygon fill="black" stroke="black" points="23.6319,-78.2292 23.6428,-88.8241 30.2413,-80.5349 23.6319,-78.2292"/>
<text text-anchor="middle" x="38.5" y="-58.3" font-family="Times,serif" font-size="14.00">b</text>
</g>
<!-- 2&#45;&gt;1 -->
<g id="edge5" class="edge"><title>2&#45;&gt;1</title>
<path fill="none" stroke="black" d="M16.5293,-87.9462C16.2502,-77.7824 16.9607,-64.7996 21,-54 22.9332,-48.8314 25.9106,-43.805 29.193,-39.2487"/>
<polygon fill="black" stroke="black" points="32.1602,-41.1432 35.6868,-31.1524 26.6997,-36.7634 32.1602,-41.1432"/>
<text text-anchor="middle" x="24.5" y="-58.3" font-family="Times,serif" font-size="14.00">b</text>
</g>
<!-- 2&#45;&gt;2 -->
<g id="edge6" class="edge"><title>2&#45;&gt;2</title>
<path fill="none" stroke="black" d="M34.2903,-113.668C44.3892,-115.517 54,-112.961 54,-106 54,-101.541 50.0557,-98.8891 44.5656,-98.0454"/>
<polygon fill="black" stroke="black" points="44.1887,-94.5544 34.2903,-98.3321 44.384,-101.552 44.1887,-94.5544"/>
<text text-anchor="middle" x="57.5" y="-102.3" font-family="Times,serif" font-size="14.00">a</text>
</g>
<!-- 3&#45;&gt;1 -->
<g id="edge7" class="edge"><title>3&#45;&gt;1</title>
<path fill="none" stroke="black" d="M68.4354,-175.969C71.462,-153.918 74.7172,-118.324 70,-88 67.6972,-73.1971 62.7724,-57.2267 58.165,-44.3822"/>
<polygon fill="black" stroke="black" points="61.3752,-42.9739 54.5942,-34.8333 54.8186,-45.4258 61.3752,-42.9739"/>
<text text-anchor="middle" x="75.5" y="-102.3" font-family="Times,serif" font-size="14.00">a</text>
</g>
<!-- 3&#45;&gt;2 -->
<g id="edge8" class="edge"><title>3&#45;&gt;2</title>
<path fill="none" stroke="black" d="M55.2616,-178.352C48.1594,-164.752 38.468,-146.194 30.7492,-131.413"/>
<polygon fill="black" stroke="black" points="33.7402,-129.58 26.0087,-122.336 27.5353,-132.82 33.7402,-129.58"/>
<text text-anchor="middle" x="47.5" y="-146.3" font-family="Times,serif" font-size="14.00">b</text>
</g>
</g>
</svg>
