<?xml version="1.0" encoding="UTF-8" standalone="no"?>
<!DOCTYPE svg PUBLIC "-//W3C//DTD SVG 1.1//EN"
 "http://www.w3.org/Graphics/SVG/1.1/DTD/svg11.dtd">
<!-- Generated by graphviz version 2.36.0 (20140111.2315)
 -->
<!-- Title: %3 Pages: 1 -->
<svg width="158pt" height="228pt"
 viewBox="0.00 0.00 158.00 228.00" xmlns="http://www.w3.org/2000/svg" xmlns:xlink="http://www.w3.org/1999/xlink">
<g id="graph0" class="graph" transform="scale(1 1) rotate(0) translate(4 224)">
<title>%3</title>
<polygon fill="white" stroke="none" points="-4,4 -4,-224 154,-224 154,4 -4,4"/>
<!-- 0 -->
<g id="node1" class="node"><title>0</title>
<ellipse fill="green" stroke="black" cx="87" cy="-202" rx="18" ry="18"/>
<text text-anchor="middle" x="87" y="-198.3" font-family="Times,serif" font-size="14.00">0</text>
</g>
<!-- 0&#45;&gt;0 -->
<g id="edge1" class="edge"><title>0&#45;&gt;0</title>
<path fill="none" stroke="black" d="M103.29,-209.668C113.389,-211.517 123,-208.961 123,-202 123,-197.541 119.056,-194.889 113.566,-194.045"/>
<polygon fill="black" stroke="black" points="113.189,-190.554 103.29,-194.332 113.384,-197.552 113.189,-190.554"/>
<text text-anchor="middle" x="126.5" y="-198.3" font-family="Times,serif" font-size="14.00">b</text>
</g>
<!-- 2 -->
<g id="node3" class="node"><title>2</title>
<ellipse fill="lightblue" stroke="black" cx="49" cy="-110" rx="17.5909" ry="18"/>
<ellipse fill="none" stroke="black" cx="49" cy="-110" rx="21.5" ry="22"/>
<text text-anchor="middle" x="49" y="-106.3" font-family="Times,serif" font-size="14.00">2</text>
</g>
<!-- 0&#45;&gt;2 -->
<g id="edge2" class="edge"><title>0&#45;&gt;2</title>
<path fill="none" stroke="black" d="M80.2064,-184.91C74.9177,-172.384 67.4411,-154.676 61.1319,-139.733"/>
<polygon fill="black" stroke="black" points="64.3033,-138.246 57.1892,-130.395 57.8546,-140.969 64.3033,-138.246"/>
<text text-anchor="middle" x="74.5" y="-154.3" font-family="Times,serif" font-size="14.00">a</text>
</g>
<!-- 1 -->
<g id="node2" class="node"><title>1</title>
<ellipse fill="lightblue" stroke="black" cx="107" cy="-18" rx="18" ry="18"/>
<text text-anchor="middle" x="107" y="-14.3" font-family="Times,serif" font-size="14.00">1</text>
</g>
<!-- 1&#45;&gt;0 -->
<g id="edge3" class="edge"><title>1&#45;&gt;0</title>
<path fill="none" stroke="black" d="M105.138,-35.944C101.675,-67.4593 94.2148,-135.345 90.021,-173.509"/>
<polygon fill="black" stroke="black" points="86.4949,-173.555 88.8816,-183.878 93.453,-174.32 86.4949,-173.555"/>
<text text-anchor="middle" x="102.5" y="-106.3" font-family="Times,serif" font-size="14.00">b</text>
</g>
<!-- 1&#45;&gt;1 -->
<g id="edge4" class="edge"><title>1&#45;&gt;1</title>
<path fill="none" stroke="black" d="M123.29,-25.6679C133.389,-27.5169 143,-24.9609 143,-18 143,-13.5406 139.056,-10.8891 133.566,-10.0454"/>
<polygon fill="black" stroke="black" points="133.189,-6.55441 123.29,-10.3321 133.384,-13.5517 133.189,-6.55441"/>
<text text-anchor="middle" x="146.5" y="-14.3" font-family="Times,serif" font-size="14.00">a</text>
</g>
<!-- 2&#45;&gt;1 -->
<g id="edge5" class="edge"><title>2&#45;&gt;1</title>
<path fill="none" stroke="black" d="M60.4589,-91.2189C69.5661,-77.0872 82.3701,-57.2188 92.2436,-41.8979"/>
<polygon fill="black" stroke="black" points="95.1932,-43.7821 97.6682,-33.4804 89.3092,-39.9901 95.1932,-43.7821"/>
<text text-anchor="middle" x="86.5" y="-58.3" font-family="Times,serif" font-size="14.00">a</text>
</g>
<!-- 3 -->
<g id="node4" class="node"><title>3</title>
<ellipse fill="lightblue" stroke="black" cx="18" cy="-18" rx="18" ry="18"/>
<text text-anchor="middle" x="18" y="-14.3" font-family="Times,serif" font-size="14.00">3</text>
</g>
<!-- 2&#45;&gt;3 -->
<g id="edge6" class="edge"><title>2&#45;&gt;3</title>
<path fill="none" stroke="black" d="M42.1201,-89.0261C37.6417,-76.0244 31.7557,-58.9359 26.9193,-44.8948"/>
<polygon fill="black" stroke="black" points="30.1843,-43.6264 23.6184,-35.3114 23.5659,-45.9061 30.1843,-43.6264"/>
<text text-anchor="middle" x="38.5" y="-58.3" font-family="Times,serif" font-size="14.00">b</text>
</g>
<!-- 3&#45;&gt;3 -->
<g id="edge7" class="edge"><title>3&#45;&gt;3</title>
<path fill="none" stroke="black" d="M34.2903,-25.6679C44.3892,-27.5169 54,-24.9609 54,-18 54,-13.5406 50.0557,-10.8891 44.5656,-10.0454"/>
<polygon fill="black" stroke="black" points="44.1887,-6.55441 34.2903,-10.3321 44.384,-13.5517 44.1887,-6.55441"/>
<text text-anchor="middle" x="62.5" y="-14.3" font-family="Times,serif" font-size="14.00">b,a</text>
</g>
</g>
</svg>
