<?xml version="1.0" encoding="UTF-8" standalone="no"?>
<!DOCTYPE svg PUBLIC "-//W3C//DTD SVG 1.1//EN"
 "http://www.w3.org/Graphics/SVG/1.1/DTD/svg11.dtd">
<!-- Generated by graphviz version 2.36.0 (20140111.2315)
 -->
<!-- Title: %3 Pages: 1 -->
<svg width="154pt" height="316pt"
 viewBox="0.00 0.00 154.00 316.00" xmlns="http://www.w3.org/2000/svg" xmlns:xlink="http://www.w3.org/1999/xlink">
<g id="graph0" class="graph" transform="scale(1 1) rotate(0) translate(4 312)">
<title>%3</title>
<polygon fill="white" stroke="none" points="-4,4 -4,-312 150,-312 150,4 -4,4"/>
<!-- 0 -->
<g id="node1" class="node"><title>0</title>
<ellipse fill="lightblue" stroke="black" cx="25" cy="-290" rx="18" ry="18"/>
<text text-anchor="middle" x="25" y="-286.3" font-family="Times,serif" font-size="14.00">0</text>
</g>
<!-- 1 -->
<g id="node2" class="node"><title>1</title>
<ellipse fill="lightblue" stroke="black" cx="68" cy="-202" rx="18" ry="18"/>
<text text-anchor="middle" x="68" y="-198.3" font-family="Times,serif" font-size="14.00">1</text>
</g>
<!-- 0&#45;&gt;1 -->
<g id="edge1" class="edge"><title>0&#45;&gt;1</title>
<path fill="none" stroke="black" d="M32.6875,-273.625C39.0684,-260.863 48.2639,-242.472 55.6718,-227.656"/>
<polygon fill="black" stroke="black" points="58.8923,-229.041 60.234,-218.532 52.6313,-225.911 58.8923,-229.041"/>
<text text-anchor="middle" x="53.5" y="-242.3" font-family="Times,serif" font-size="14.00">a</text>
</g>
<!-- 2 -->
<g id="node3" class="node"><title>2</title>
<ellipse fill="lightblue" stroke="black" cx="22" cy="-22" rx="17.5909" ry="18"/>
<ellipse fill="none" stroke="black" cx="22" cy="-22" rx="21.5" ry="22"/>
<text text-anchor="middle" x="22" y="-18.3" font-family="Times,serif" font-size="14.00">2</text>
</g>
<!-- 0&#45;&gt;2 -->
<g id="edge2" class="edge"><title>0&#45;&gt;2</title>
<path fill="none" stroke="black" d="M23.3398,-271.924C22.8385,-266.228 22.3333,-259.845 22,-254 17.5456,-175.873 18.1112,-156.246 17,-78 16.899,-70.8896 16.5469,-69.0967 17,-62 17.1636,-59.4368 17.3872,-56.7847 17.6495,-54.125"/>
<polygon fill="black" stroke="black" points="21.1481,-54.3359 18.8085,-44.0026 14.1936,-53.5395 21.1481,-54.3359"/>
<text text-anchor="middle" x="21.5" y="-154.3" font-family="Times,serif" font-size="14.00">b</text>
</g>
<!-- 1&#45;&gt;1 -->
<g id="edge3" class="edge"><title>1&#45;&gt;1</title>
<path fill="none" stroke="black" d="M84.2903,-209.668C94.3892,-211.517 104,-208.961 104,-202 104,-197.541 100.056,-194.889 94.5656,-194.045"/>
<polygon fill="black" stroke="black" points="94.1887,-190.554 84.2903,-194.332 94.384,-197.552 94.1887,-190.554"/>
<text text-anchor="middle" x="107.5" y="-198.3" font-family="Times,serif" font-size="14.00">b</text>
</g>
<!-- 4 -->
<g id="node5" class="node"><title>4</title>
<ellipse fill="lightblue" stroke="black" cx="52" cy="-114" rx="18" ry="18"/>
<text text-anchor="middle" x="52" y="-110.3" font-family="Times,serif" font-size="14.00">4</text>
</g>
<!-- 1&#45;&gt;4 -->
<g id="edge4" class="edge"><title>1&#45;&gt;4</title>
<path fill="none" stroke="black" d="M64.8389,-184.009C62.6037,-171.995 59.5611,-155.641 56.9989,-141.869"/>
<polygon fill="black" stroke="black" points="60.4246,-141.147 55.1545,-131.956 53.5427,-142.427 60.4246,-141.147"/>
<text text-anchor="middle" x="64.5" y="-154.3" font-family="Times,serif" font-size="14.00">a</text>
</g>
<!-- 2&#45;&gt;2 -->
<g id="edge5" class="edge"><title>2&#45;&gt;2</title>
<path fill="none" stroke="black" d="M42.0663,-30.7341C52.0736,-31.9426 61,-29.0312 61,-22 61,-17.4956 57.3366,-14.682 52.0725,-13.5592"/>
<polygon fill="black" stroke="black" points="52.1646,-10.0605 42.0663,-13.2659 51.9594,-17.0575 52.1646,-10.0605"/>
<text text-anchor="middle" x="64.5" y="-18.3" font-family="Times,serif" font-size="14.00">a</text>
</g>
<!-- 2&#45;&gt;4 -->
<g id="edge6" class="edge"><title>2&#45;&gt;4</title>
<path fill="none" stroke="black" d="M20.2561,-43.9673C20.0938,-54.486 21.0028,-67.2433 25,-78 26.9222,-83.1727 29.8947,-88.2009 33.1759,-92.7577"/>
<polygon fill="black" stroke="black" points="30.6832,-95.2437 39.671,-100.853 36.1431,-90.8632 30.6832,-95.2437"/>
<text text-anchor="middle" x="28.5" y="-66.3" font-family="Times,serif" font-size="14.00">b</text>
</g>
<!-- 3 -->
<g id="node4" class="node"><title>3</title>
<ellipse fill="green" stroke="black" cx="128" cy="-290" rx="18" ry="18"/>
<text text-anchor="middle" x="128" y="-286.3" font-family="Times,serif" font-size="14.00">3</text>
</g>
<!-- 3&#45;&gt;1 -->
<g id="edge7" class="edge"><title>3&#45;&gt;1</title>
<path fill="none" stroke="black" d="M118.092,-274.799C108.799,-261.479 94.7453,-241.335 83.8866,-225.771"/>
<polygon fill="black" stroke="black" points="86.5148,-223.421 77.9225,-217.222 80.7739,-227.426 86.5148,-223.421"/>
<text text-anchor="middle" x="106.5" y="-242.3" font-family="Times,serif" font-size="14.00">b</text>
</g>
<!-- 3&#45;&gt;4 -->
<g id="edge8" class="edge"><title>3&#45;&gt;4</title>
<path fill="none" stroke="black" d="M130.154,-272.123C132.148,-250.618 133.1,-212.787 120,-184 110.184,-162.43 90.5725,-143.701 74.9228,-131.22"/>
<polygon fill="black" stroke="black" points="76.7933,-128.244 66.7234,-124.951 72.5415,-133.805 76.7933,-128.244"/>
<text text-anchor="middle" x="132.5" y="-198.3" font-family="Times,serif" font-size="14.00">a</text>
</g>
<!-- 4&#45;&gt;0 -->
<g id="edge9" class="edge"><title>4&#45;&gt;0</title>
<path fill="none" stroke="black" d="M46.9166,-131.28C42.7868,-145.155 37.148,-165.699 34,-184 29.51,-210.103 27.2201,-240.261 26.0778,-261.54"/>
<polygon fill="black" stroke="black" points="22.5693,-261.632 25.5795,-271.79 29.5611,-261.972 22.5693,-261.632"/>
<text text-anchor="middle" x="37.5" y="-198.3" font-family="Times,serif" font-size="14.00">a</text>
</g>
<!-- 4&#45;&gt;2 -->
<g id="edge10" class="edge"><title>4&#45;&gt;2</title>
<path fill="none" stroke="black" d="M46.4975,-96.4926C42.4294,-84.2881 36.7778,-67.3335 31.9281,-52.7842"/>
<polygon fill="black" stroke="black" points="35.2107,-51.5638 28.7279,-43.1837 28.5699,-53.7774 35.2107,-51.5638"/>
<text text-anchor="middle" x="42.5" y="-66.3" font-family="Times,serif" font-size="14.00">b</text>
</g>
</g>
</svg>
