<?xml version="1.0" encoding="UTF-8" standalone="no"?>
<!DOCTYPE svg PUBLIC "-//W3C//DTD SVG 1.1//EN"
 "http://www.w3.org/Graphics/SVG/1.1/DTD/svg11.dtd">
<!-- Generated by graphviz version 2.36.0 (20140111.2315)
 -->
<!-- Title: %3 Pages: 1 -->
<svg width="180pt" height="228pt"
 viewBox="0.00 0.00 180.00 228.00" xmlns="http://www.w3.org/2000/svg" xmlns:xlink="http://www.w3.org/1999/xlink">
<g id="graph0" class="graph" transform="scale(1 1) rotate(0) translate(4 224)">
<title>%3</title>
<polygon fill="white" stroke="none" points="-4,4 -4,-224 176,-224 176,4 -4,4"/>
<!-- 0 -->
<g id="node1" class="node"><title>0</title>
<ellipse fill="lightblue" stroke="black" cx="18" cy="-202" rx="18" ry="18"/>
<text text-anchor="middle" x="18" y="-198.3" font-family="Times,serif" font-size="14.00">0</text>
</g>
<!-- 1 -->
<g id="node2" class="node"><title>1</title>
<ellipse fill="lightblue" stroke="black" cx="56" cy="-114" rx="18" ry="18"/>
<text text-anchor="middle" x="56" y="-110.3" font-family="Times,serif" font-size="14.00">1</text>
</g>
<!-- 0&#45;&gt;1 -->
<g id="edge1" class="edge"><title>0&#45;&gt;1</title>
<path fill="none" stroke="black" d="M15.1487,-184.22C14.1539,-173.916 14.272,-160.691 19,-150 22.1963,-142.772 27.6706,-136.326 33.4427,-130.995"/>
<polygon fill="black" stroke="black" points="35.8621,-133.535 41.3124,-124.45 31.3859,-128.153 35.8621,-133.535"/>
<text text-anchor="middle" x="27.5" y="-154.3" font-family="Times,serif" font-size="14.00">b,a</text>
</g>
<!-- 1&#45;&gt;0 -->
<g id="edge2" class="edge"><title>1&#45;&gt;0</title>
<path fill="none" stroke="black" d="M50.1069,-131.253C46.3249,-141.358 41.1691,-154.559 36,-166 34.4157,-169.506 32.6574,-173.164 30.8784,-176.736"/>
<polygon fill="black" stroke="black" points="27.6642,-175.334 26.2259,-185.831 33.8961,-178.522 27.6642,-175.334"/>
<text text-anchor="middle" x="45.5" y="-154.3" font-family="Times,serif" font-size="14.00">a</text>
</g>
<!-- 2 -->
<g id="node3" class="node"><title>2</title>
<ellipse fill="lightblue" stroke="black" cx="86" cy="-22" rx="17.5909" ry="18"/>
<ellipse fill="none" stroke="black" cx="86" cy="-22" rx="21.5" ry="22"/>
<text text-anchor="middle" x="86" y="-18.3" font-family="Times,serif" font-size="14.00">2</text>
</g>
<!-- 1&#45;&gt;2 -->
<g id="edge3" class="edge"><title>1&#45;&gt;2</title>
<path fill="none" stroke="black" d="M61.5025,-96.4926C65.5706,-84.2881 71.2222,-67.3335 76.0719,-52.7842"/>
<polygon fill="black" stroke="black" points="79.4301,-53.7774 79.2721,-43.1837 72.7893,-51.5638 79.4301,-53.7774"/>
<text text-anchor="middle" x="75.5" y="-66.3" font-family="Times,serif" font-size="14.00">b</text>
</g>
<!-- 2&#45;&gt;0 -->
<g id="edge4" class="edge"><title>2&#45;&gt;0</title>
<path fill="none" stroke="black" d="M69.8911,-36.6362C55.0394,-50.1467 33.5951,-72.214 22,-96 8.20034,-124.309 7.89677,-134.66 11,-166 11.2711,-168.738 11.6589,-171.58 12.1145,-174.406"/>
<polygon fill="black" stroke="black" points="8.69834,-175.179 13.9759,-184.366 15.5792,-173.893 8.69834,-175.179"/>
<text text-anchor="middle" x="25.5" y="-110.3" font-family="Times,serif" font-size="14.00">b</text>
</g>
<!-- 2&#45;&gt;1 -->
<g id="edge5" class="edge"><title>2&#45;&gt;1</title>
<path fill="none" stroke="black" d="M71.9855,-38.9784C66.9647,-45.6431 61.8464,-53.7479 59,-62 56.4152,-69.4938 55.2695,-77.9713 54.8732,-85.8322"/>
<polygon fill="black" stroke="black" points="51.371,-85.9718 54.7325,-96.0192 58.3704,-86.0686 51.371,-85.9718"/>
<text text-anchor="middle" x="62.5" y="-66.3" font-family="Times,serif" font-size="14.00">a</text>
</g>
<!-- 3 -->
<g id="node4" class="node"><title>3</title>
<ellipse fill="green" stroke="black" cx="154" cy="-202" rx="18" ry="18"/>
<text text-anchor="middle" x="154" y="-198.3" font-family="Times,serif" font-size="14.00">3</text>
</g>
<!-- 3&#45;&gt;1 -->
<g id="edge6" class="edge"><title>3&#45;&gt;1</title>
<path fill="none" stroke="black" d="M140.783,-189.402C124.417,-175.04 96.3413,-150.402 77.0101,-133.437"/>
<polygon fill="black" stroke="black" points="79.1452,-130.654 69.3203,-126.689 74.528,-135.916 79.1452,-130.654"/>
<text text-anchor="middle" x="116.5" y="-154.3" font-family="Times,serif" font-size="14.00">a</text>
</g>
<!-- 3&#45;&gt;2 -->
<g id="edge7" class="edge"><title>3&#45;&gt;2</title>
<path fill="none" stroke="black" d="M148.08,-184.673C138.597,-158.635 119.305,-106.137 102,-62 100.705,-58.6976 99.3272,-55.2476 97.9438,-51.8244"/>
<polygon fill="black" stroke="black" points="101.114,-50.3294 94.0958,-42.3925 94.6327,-52.9737 101.114,-50.3294"/>
<text text-anchor="middle" x="131.5" y="-110.3" font-family="Times,serif" font-size="14.00">b</text>
</g>
<!-- 4 -->
<g id="node5" class="node"><title>4</title>
<ellipse fill="lightblue" stroke="black" cx="94" cy="-202" rx="18" ry="18"/>
<text text-anchor="middle" x="94" y="-198.3" font-family="Times,serif" font-size="14.00">4</text>
</g>
<!-- 4&#45;&gt;1 -->
<g id="edge8" class="edge"><title>4&#45;&gt;1</title>
<path fill="none" stroke="black" d="M87.0302,-185.226C81.4594,-172.619 73.5445,-154.706 67.1029,-140.128"/>
<polygon fill="black" stroke="black" points="70.1687,-138.406 62.9256,-130.674 63.7659,-141.235 70.1687,-138.406"/>
<text text-anchor="middle" x="81.5" y="-154.3" font-family="Times,serif" font-size="14.00">a</text>
</g>
<!-- 4&#45;&gt;2 -->
<g id="edge9" class="edge"><title>4&#45;&gt;2</title>
<path fill="none" stroke="black" d="M93.2329,-183.933C91.8946,-154.154 89.114,-92.2862 87.417,-54.5293"/>
<polygon fill="black" stroke="black" points="90.8942,-53.9397 86.9486,-44.1069 83.9012,-54.254 90.8942,-53.9397"/>
<text text-anchor="middle" x="93.5" y="-110.3" font-family="Times,serif" font-size="14.00">b</text>
</g>
</g>
</svg>
