<?xml version="1.0" encoding="UTF-8" standalone="no"?>
<!DOCTYPE svg PUBLIC "-//W3C//DTD SVG 1.1//EN"
 "http://www.w3.org/Graphics/SVG/1.1/DTD/svg11.dtd">
<!-- Generated by graphviz version 2.36.0 (20140111.2315)
 -->
<!-- Title: %3 Pages: 1 -->
<svg width="166pt" height="228pt"
 viewBox="0.00 0.00 166.00 228.00" xmlns="http://www.w3.org/2000/svg" xmlns:xlink="http://www.w3.org/1999/xlink">
<g id="graph0" class="graph" transform="scale(1 1) rotate(0) translate(4 224)">
<title>%3</title>
<polygon fill="white" stroke="none" points="-4,4 -4,-224 162,-224 162,4 -4,4"/>
<!-- 0 -->
<g id="node1" class="node"><title>0</title>
<ellipse fill="lightblue" stroke="black" cx="72" cy="-198" rx="17.5909" ry="18"/>
<ellipse fill="none" stroke="black" cx="72" cy="-198" rx="21.5" ry="22"/>
<text text-anchor="middle" x="72" y="-194.3" font-family="Times,serif" font-size="14.00">0</text>
</g>
<!-- 2 -->
<g id="node3" class="node"><title>2</title>
<ellipse fill="lightblue" stroke="black" cx="18" cy="-106" rx="18" ry="18"/>
<text text-anchor="middle" x="18" y="-102.3" font-family="Times,serif" font-size="14.00">2</text>
</g>
<!-- 0&#45;&gt;2 -->
<g id="edge1" class="edge"><title>0&#45;&gt;2</title>
<path fill="none" stroke="black" d="M61.0723,-178.787C52.7523,-164.921 41.231,-145.718 32.1976,-130.663"/>
<polygon fill="black" stroke="black" points="35.0916,-128.683 26.9454,-121.909 29.0892,-132.285 35.0916,-128.683"/>
<text text-anchor="middle" x="52.5" y="-146.3" font-family="Times,serif" font-size="14.00">a</text>
</g>
<!-- 3 -->
<g id="node4" class="node"><title>3</title>
<ellipse fill="green" stroke="black" cx="90" cy="-18" rx="18" ry="18"/>
<text text-anchor="middle" x="90" y="-14.3" font-family="Times,serif" font-size="14.00">3</text>
</g>
<!-- 0&#45;&gt;3 -->
<g id="edge2" class="edge"><title>0&#45;&gt;3</title>
<path fill="none" stroke="black" d="M74.1355,-175.882C77.4016,-143.584 83.6371,-81.9218 87.2415,-46.279"/>
<polygon fill="black" stroke="black" points="90.7454,-46.4155 88.2694,-36.1141 83.7809,-45.7112 90.7454,-46.4155"/>
<text text-anchor="middle" x="85.5" y="-102.3" font-family="Times,serif" font-size="14.00">b</text>
</g>
<!-- 1 -->
<g id="node2" class="node"><title>1</title>
<ellipse fill="lightblue" stroke="black" cx="140" cy="-106" rx="18" ry="18"/>
<text text-anchor="middle" x="140" y="-102.3" font-family="Times,serif" font-size="14.00">1</text>
</g>
<!-- 1&#45;&gt;3 -->
<g id="edge3" class="edge"><title>1&#45;&gt;3</title>
<path fill="none" stroke="black" d="M131.464,-89.7718C125.735,-79.6068 117.988,-65.9608 111,-54 108.828,-50.2829 106.505,-46.3591 104.224,-42.5358"/>
<polygon fill="black" stroke="black" points="107.215,-40.7181 99.0701,-33.9423 101.212,-44.3184 107.215,-40.7181"/>
<text text-anchor="middle" x="127.5" y="-58.3" font-family="Times,serif" font-size="14.00">b,a</text>
</g>
<!-- 2&#45;&gt;2 -->
<g id="edge4" class="edge"><title>2&#45;&gt;2</title>
<path fill="none" stroke="black" d="M34.2903,-113.668C44.3892,-115.517 54,-112.961 54,-106 54,-101.541 50.0557,-98.8891 44.5656,-98.0454"/>
<polygon fill="black" stroke="black" points="44.1887,-94.5544 34.2903,-98.3321 44.384,-101.552 44.1887,-94.5544"/>
<text text-anchor="middle" x="57.5" y="-102.3" font-family="Times,serif" font-size="14.00">a</text>
</g>
<!-- 2&#45;&gt;3 -->
<g id="edge5" class="edge"><title>2&#45;&gt;3</title>
<path fill="none" stroke="black" d="M21.4628,-88.0432C24.2825,-77.4181 29.1188,-63.9092 37,-54 44.386,-44.7133 54.9274,-37.0497 64.6663,-31.2854"/>
<polygon fill="black" stroke="black" points="66.5574,-34.2397 73.6286,-26.35 63.1807,-28.108 66.5574,-34.2397"/>
<text text-anchor="middle" x="40.5" y="-58.3" font-family="Times,serif" font-size="14.00">b</text>
</g>
<!-- 3&#45;&gt;2 -->
<g id="edge6" class="edge"><title>3&#45;&gt;2</title>
<path fill="none" stroke="black" d="M78.829,-32.3431C67.3405,-46.0655 49.2745,-67.6444 35.8115,-83.7252"/>
<polygon fill="black" stroke="black" points="32.9857,-81.6481 29.25,-91.5625 38.3531,-86.1417 32.9857,-81.6481"/>
<text text-anchor="middle" x="64.5" y="-58.3" font-family="Times,serif" font-size="14.00">a</text>
</g>
<!-- 3&#45;&gt;3 -->
<g id="edge7" class="edge"><title>3&#45;&gt;3</title>
<path fill="none" stroke="black" d="M106.29,-25.6679C116.389,-27.5169 126,-24.9609 126,-18 126,-13.5406 122.056,-10.8891 116.566,-10.0454"/>
<polygon fill="black" stroke="black" points="116.189,-6.55441 106.29,-10.3321 116.384,-13.5517 116.189,-6.55441"/>
<text text-anchor="middle" x="129.5" y="-14.3" font-family="Times,serif" font-size="14.00">b</text>
</g>
</g>
</svg>
