<?xml version="1.0" encoding="UTF-8" standalone="no"?>
<!DOCTYPE svg PUBLIC "-//W3C//DTD SVG 1.1//EN"
 "http://www.w3.org/Graphics/SVG/1.1/DTD/svg11.dtd">
<!-- Generated by graphviz version 2.36.0 (20140111.2315)
 -->
<!-- Title: %3 Pages: 1 -->
<svg width="138pt" height="404pt"
 viewBox="0.00 0.00 138.00 404.00" xmlns="http://www.w3.org/2000/svg" xmlns:xlink="http://www.w3.org/1999/xlink">
<g id="graph0" class="graph" transform="scale(1 1) rotate(0) translate(4 400)">
<title>%3</title>
<polygon fill="white" stroke="none" points="-4,4 -4,-400 134,-400 134,4 -4,4"/>
<!-- 0 -->
<g id="node1" class="node"><title>0</title>
<ellipse fill="lightblue" stroke="black" cx="33" cy="-378" rx="18" ry="18"/>
<text text-anchor="middle" x="33" y="-374.3" font-family="Times,serif" font-size="14.00">0</text>
</g>
<!-- 1 -->
<g id="node2" class="node"><title>1</title>
<ellipse fill="lightblue" stroke="black" cx="18" cy="-114" rx="18" ry="18"/>
<text text-anchor="middle" x="18" y="-110.3" font-family="Times,serif" font-size="14.00">1</text>
</g>
<!-- 0&#45;&gt;1 -->
<g id="edge1" class="edge"><title>0&#45;&gt;1</title>
<path fill="none" stroke="black" d="M25.0474,-361.602C18.4642,-347.936 9.62536,-327.214 6,-308 -5.04759,-249.45 4.99073,-179.32 12.1879,-141.807"/>
<polygon fill="black" stroke="black" points="15.6812,-142.187 14.2132,-131.695 8.81752,-140.813 15.6812,-142.187"/>
<text text-anchor="middle" x="4.5" y="-242.3" font-family="Times,serif" font-size="14.00">c</text>
</g>
<!-- 2 -->
<g id="node3" class="node"><title>2</title>
<ellipse fill="lightblue" stroke="black" cx="33" cy="-290" rx="18" ry="18"/>
<text text-anchor="middle" x="33" y="-286.3" font-family="Times,serif" font-size="14.00">2</text>
</g>
<!-- 0&#45;&gt;2 -->
<g id="edge2" class="edge"><title>0&#45;&gt;2</title>
<path fill="none" stroke="black" d="M33,-359.597C33,-347.746 33,-331.817 33,-318.292"/>
<polygon fill="black" stroke="black" points="36.5001,-318.084 33,-308.084 29.5001,-318.084 36.5001,-318.084"/>
<text text-anchor="middle" x="36.5" y="-330.3" font-family="Times,serif" font-size="14.00">b</text>
</g>
<!-- 4 -->
<g id="node5" class="node"><title>4</title>
<ellipse fill="green" stroke="black" cx="87" cy="-202" rx="18" ry="18"/>
<text text-anchor="middle" x="87" y="-198.3" font-family="Times,serif" font-size="14.00">4</text>
</g>
<!-- 0&#45;&gt;4 -->
<g id="edge3" class="edge"><title>0&#45;&gt;4</title>
<path fill="none" stroke="black" d="M45.6767,-365.214C58.3528,-352.5 77.0699,-330.97 85,-308 93.7549,-282.641 93.1064,-251.746 90.9719,-230.056"/>
<polygon fill="black" stroke="black" points="94.4257,-229.453 89.8009,-219.921 87.4719,-230.257 94.4257,-229.453"/>
<text text-anchor="middle" x="94.5" y="-286.3" font-family="Times,serif" font-size="14.00">a</text>
</g>
<!-- 1&#45;&gt;1 -->
<g id="edge4" class="edge"><title>1&#45;&gt;1</title>
<path fill="none" stroke="black" d="M34.2903,-121.668C44.3892,-123.517 54,-120.961 54,-114 54,-109.541 50.0557,-106.889 44.5656,-106.045"/>
<polygon fill="black" stroke="black" points="44.1887,-102.554 34.2903,-106.332 44.384,-109.552 44.1887,-102.554"/>
<text text-anchor="middle" x="57.5" y="-110.3" font-family="Times,serif" font-size="14.00">a</text>
</g>
<!-- 3 -->
<g id="node4" class="node"><title>3</title>
<ellipse fill="lightblue" stroke="black" cx="58" cy="-22" rx="17.5909" ry="18"/>
<ellipse fill="none" stroke="black" cx="58" cy="-22" rx="21.5" ry="22"/>
<text text-anchor="middle" x="58" y="-18.3" font-family="Times,serif" font-size="14.00">3</text>
</g>
<!-- 1&#45;&gt;3 -->
<g id="edge5" class="edge"><title>1&#45;&gt;3</title>
<path fill="none" stroke="black" d="M15.2108,-95.7957C14.3028,-85.5786 14.4903,-72.5926 19,-62 22.0945,-54.7316 27.2448,-48.0976 32.8046,-42.4439"/>
<polygon fill="black" stroke="black" points="35.4977,-44.722 40.4852,-35.3745 30.7571,-39.5715 35.4977,-44.722"/>
<text text-anchor="middle" x="27.5" y="-66.3" font-family="Times,serif" font-size="14.00">b,c</text>
</g>
<!-- 2&#45;&gt;1 -->
<g id="edge6" class="edge"><title>2&#45;&gt;1</title>
<path fill="none" stroke="black" d="M31.5344,-271.999C28.9356,-241.853 23.4991,-178.79 20.3647,-142.43"/>
<polygon fill="black" stroke="black" points="23.8176,-141.732 19.4715,-132.07 16.8434,-142.333 23.8176,-141.732"/>
<text text-anchor="middle" x="29.5" y="-198.3" font-family="Times,serif" font-size="14.00">b</text>
</g>
<!-- 2&#45;&gt;2 -->
<g id="edge7" class="edge"><title>2&#45;&gt;2</title>
<path fill="none" stroke="black" d="M49.2903,-297.668C59.3892,-299.517 69,-296.961 69,-290 69,-285.541 65.0557,-282.889 59.5656,-282.045"/>
<polygon fill="black" stroke="black" points="59.1887,-278.554 49.2903,-282.332 59.384,-285.552 59.1887,-278.554"/>
<text text-anchor="middle" x="72.5" y="-286.3" font-family="Times,serif" font-size="14.00">c</text>
</g>
<!-- 2&#45;&gt;4 -->
<g id="edge8" class="edge"><title>2&#45;&gt;4</title>
<path fill="none" stroke="black" d="M42.1604,-274.411C50.3836,-261.315 62.6029,-241.855 72.2098,-226.555"/>
<polygon fill="black" stroke="black" points="75.4411,-227.99 77.7947,-217.66 69.5129,-224.268 75.4411,-227.99"/>
<text text-anchor="middle" x="67.5" y="-242.3" font-family="Times,serif" font-size="14.00">a</text>
</g>
<!-- 3&#45;&gt;1 -->
<g id="edge9" class="edge"><title>3&#45;&gt;1</title>
<path fill="none" stroke="black" d="M50.6048,-42.7906C46.5311,-53.3439 41.2474,-66.4902 36,-78 34.4038,-81.5011 32.6389,-85.1554 30.8567,-88.7262"/>
<polygon fill="black" stroke="black" points="27.6427,-87.3239 26.2029,-97.8205 33.8742,-90.5128 27.6427,-87.3239"/>
<text text-anchor="middle" x="50" y="-66.3" font-family="Times,serif" font-size="14.00">c,a</text>
</g>
<!-- 3&#45;&gt;3 -->
<g id="edge10" class="edge"><title>3&#45;&gt;3</title>
<path fill="none" stroke="black" d="M78.0663,-30.7341C88.0736,-31.9426 97,-29.0312 97,-22 97,-17.4956 93.3366,-14.682 88.0725,-13.5592"/>
<polygon fill="black" stroke="black" points="88.1646,-10.0605 78.0663,-13.2659 87.9594,-17.0575 88.1646,-10.0605"/>
<text text-anchor="middle" x="100.5" y="-18.3" font-family="Times,serif" font-size="14.00">b</text>
</g>
<!-- 4&#45;&gt;1 -->
<g id="edge11" class="edge"><title>4&#45;&gt;1</title>
<path fill="none" stroke="black" d="M76.2344,-187.067C68.239,-176.771 57.0288,-162.44 47,-150 43.3473,-145.469 39.3924,-140.644 35.6125,-136.071"/>
<polygon fill="black" stroke="black" points="38.1815,-133.685 29.1009,-128.227 32.7956,-138.157 38.1815,-133.685"/>
<text text-anchor="middle" x="62.5" y="-154.3" font-family="Times,serif" font-size="14.00">b</text>
</g>
<!-- 4&#45;&gt;3 -->
<g id="edge12" class="edge"><title>4&#45;&gt;3</title>
<path fill="none" stroke="black" d="M84.2448,-183.902C80.8928,-163.12 75.0548,-126.984 70,-96 67.7318,-82.0969 65.2045,-66.7072 63.0564,-53.6569"/>
<polygon fill="black" stroke="black" points="66.5059,-53.0636 61.4272,-43.7654 59.599,-54.2013 66.5059,-53.0636"/>
<text text-anchor="middle" x="78.5" y="-110.3" font-family="Times,serif" font-size="14.00">c</text>
</g>
<!-- 4&#45;&gt;4 -->
<g id="edge13" class="edge"><title>4&#45;&gt;4</title>
<path fill="none" stroke="black" d="M103.29,-209.668C113.389,-211.517 123,-208.961 123,-202 123,-197.541 119.056,-194.889 113.566,-194.045"/>
<polygon fill="black" stroke="black" points="113.189,-190.554 103.29,-194.332 113.384,-197.552 113.189,-190.554"/>
<text text-anchor="middle" x="126.5" y="-198.3" font-family="Times,serif" font-size="14.00">a</text>
</g>
</g>
</svg>
