<?xml version="1.0" encoding="UTF-8" standalone="no"?>
<!DOCTYPE svg PUBLIC "-//W3C//DTD SVG 1.1//EN"
 "http://www.w3.org/Graphics/SVG/1.1/DTD/svg11.dtd">
<!-- Generated by graphviz version 2.36.0 (20140111.2315)
 -->
<!-- Title: %3 Pages: 1 -->
<svg width="103pt" height="316pt"
 viewBox="0.00 0.00 103.00 316.00" xmlns="http://www.w3.org/2000/svg" xmlns:xlink="http://www.w3.org/1999/xlink">
<g id="graph0" class="graph" transform="scale(1 1) rotate(0) translate(4 312)">
<title>%3</title>
<polygon fill="white" stroke="none" points="-4,4 -4,-312 99,-312 99,4 -4,4"/>
<!-- 0 -->
<g id="node1" class="node"><title>0</title>
<ellipse fill="lightblue" stroke="black" cx="18" cy="-202" rx="18" ry="18"/>
<text text-anchor="middle" x="18" y="-198.3" font-family="Times,serif" font-size="14.00">0</text>
</g>
<!-- 0&#45;&gt;0 -->
<g id="edge1" class="edge"><title>0&#45;&gt;0</title>
<path fill="none" stroke="black" d="M34.2903,-209.668C44.3892,-211.517 54,-208.961 54,-202 54,-197.541 50.0557,-194.889 44.5656,-194.045"/>
<polygon fill="black" stroke="black" points="44.1887,-190.554 34.2903,-194.332 44.384,-197.552 44.1887,-190.554"/>
<text text-anchor="middle" x="57.5" y="-198.3" font-family="Times,serif" font-size="14.00">a</text>
</g>
<!-- 1 -->
<g id="node2" class="node"><title>1</title>
<ellipse fill="green" stroke="black" cx="48" cy="-114" rx="18" ry="18"/>
<text text-anchor="middle" x="48" y="-110.3" font-family="Times,serif" font-size="14.00">1</text>
</g>
<!-- 0&#45;&gt;1 -->
<g id="edge2" class="edge"><title>0&#45;&gt;1</title>
<path fill="none" stroke="black" d="M16.5293,-183.946C16.2502,-173.782 16.9607,-160.8 21,-150 22.9332,-144.831 25.9106,-139.805 29.193,-135.249"/>
<polygon fill="black" stroke="black" points="32.1602,-137.143 35.6868,-127.152 26.6997,-132.763 32.1602,-137.143"/>
<text text-anchor="middle" x="24.5" y="-154.3" font-family="Times,serif" font-size="14.00">b</text>
</g>
<!-- 1&#45;&gt;0 -->
<g id="edge3" class="edge"><title>1&#45;&gt;0</title>
<path fill="none" stroke="black" d="M42.3825,-131.103C38.0733,-143.457 32.0378,-160.758 27.0499,-175.057"/>
<polygon fill="black" stroke="black" points="23.6319,-174.229 23.6428,-184.824 30.2413,-176.535 23.6319,-174.229"/>
<text text-anchor="middle" x="38.5" y="-154.3" font-family="Times,serif" font-size="14.00">a</text>
</g>
<!-- 2 -->
<g id="node3" class="node"><title>2</title>
<ellipse fill="lightblue" stroke="black" cx="48" cy="-22" rx="17.5909" ry="18"/>
<ellipse fill="none" stroke="black" cx="48" cy="-22" rx="21.5" ry="22"/>
<text text-anchor="middle" x="48" y="-18.3" font-family="Times,serif" font-size="14.00">2</text>
</g>
<!-- 1&#45;&gt;2 -->
<g id="edge4" class="edge"><title>1&#45;&gt;2</title>
<path fill="none" stroke="black" d="M41.3664,-97.2577C39.201,-91.3321 37.0772,-84.4629 36,-78 34.595,-69.57 35.55,-60.4818 37.4167,-52.1686"/>
<polygon fill="black" stroke="black" points="40.7966,-53.0774 40.0484,-42.509 34.0427,-51.2373 40.7966,-53.0774"/>
<text text-anchor="middle" x="39.5" y="-66.3" font-family="Times,serif" font-size="14.00">b</text>
</g>
<!-- 2&#45;&gt;1 -->
<g id="edge5" class="edge"><title>2&#45;&gt;1</title>
<path fill="none" stroke="black" d="M48,-44.101C48,-56.4798 48,-72.2575 48,-85.5903"/>
<polygon fill="black" stroke="black" points="44.5001,-85.6471 48,-95.6471 51.5001,-85.6471 44.5001,-85.6471"/>
<text text-anchor="middle" x="51.5" y="-66.3" font-family="Times,serif" font-size="14.00">a</text>
</g>
<!-- 2&#45;&gt;2 -->
<g id="edge6" class="edge"><title>2&#45;&gt;2</title>
<path fill="none" stroke="black" d="M68.0663,-30.7341C78.0736,-31.9426 87,-29.0312 87,-22 87,-17.4956 83.3366,-14.682 78.0725,-13.5592"/>
<polygon fill="black" stroke="black" points="78.1646,-10.0605 68.0663,-13.2659 77.9594,-17.0575 78.1646,-10.0605"/>
<text text-anchor="middle" x="90.5" y="-18.3" font-family="Times,serif" font-size="14.00">b</text>
</g>
<!-- 3 -->
<g id="node4" class="node"><title>3</title>
<ellipse fill="lightblue" stroke="black" cx="72" cy="-290" rx="18" ry="18"/>
<text text-anchor="middle" x="72" y="-286.3" font-family="Times,serif" font-size="14.00">3</text>
</g>
<!-- 3&#45;&gt;0 -->
<g id="edge7" class="edge"><title>3&#45;&gt;0</title>
<path fill="none" stroke="black" d="M62.8396,-274.411C54.6164,-261.315 42.3971,-241.855 32.7902,-226.555"/>
<polygon fill="black" stroke="black" points="35.4871,-224.268 27.2053,-217.66 29.5589,-227.99 35.4871,-224.268"/>
<text text-anchor="middle" x="52.5" y="-242.3" font-family="Times,serif" font-size="14.00">a</text>
</g>
<!-- 3&#45;&gt;1 -->
<g id="edge8" class="edge"><title>3&#45;&gt;1</title>
<path fill="none" stroke="black" d="M73.1862,-271.766C74.2788,-250.849 75.0558,-214.58 70,-184 67.5564,-169.22 62.6218,-153.251 58.0442,-140.402"/>
<polygon fill="black" stroke="black" points="61.2607,-139.009 54.5041,-130.848 54.6968,-141.441 61.2607,-139.009"/>
<text text-anchor="middle" x="76.5" y="-198.3" font-family="Times,serif" font-size="14.00">b</text>
</g>
</g>
</svg>
