<?xml version="1.0" encoding="UTF-8" standalone="no"?>
<!DOCTYPE svg PUBLIC "-//W3C//DTD SVG 1.1//EN"
 "http://www.w3.org/Graphics/SVG/1.1/DTD/svg11.dtd">
<!-- Generated by graphviz version 2.36.0 (20140111.2315)
 -->
<!-- Title: %3 Pages: 1 -->
<svg width="135pt" height="316pt"
 viewBox="0.00 0.00 135.00 316.00" xmlns="http://www.w3.org/2000/svg" xmlns:xlink="http://www.w3.org/1999/xlink">
<g id="graph0" class="graph" transform="scale(1 1) rotate(0) translate(4 312)">
<title>%3</title>
<polygon fill="white" stroke="none" points="-4,4 -4,-312 131,-312 131,4 -4,4"/>
<!-- 0 -->
<g id="node1" class="node"><title>0</title>
<ellipse fill="lightblue" stroke="black" cx="84" cy="-202" rx="18" ry="18"/>
<text text-anchor="middle" x="84" y="-198.3" font-family="Times,serif" font-size="14.00">0</text>
</g>
<!-- 0&#45;&gt;0 -->
<g id="edge1" class="edge"><title>0&#45;&gt;0</title>
<path fill="none" stroke="black" d="M100.29,-209.668C110.389,-211.517 120,-208.961 120,-202 120,-197.541 116.056,-194.889 110.566,-194.045"/>
<polygon fill="black" stroke="black" points="110.189,-190.554 100.29,-194.332 110.384,-197.552 110.189,-190.554"/>
<text text-anchor="middle" x="123.5" y="-198.3" font-family="Times,serif" font-size="14.00">b</text>
</g>
<!-- 3 -->
<g id="node4" class="node"><title>3</title>
<ellipse fill="green" stroke="black" cx="22" cy="-110" rx="17.5909" ry="18"/>
<ellipse fill="none" stroke="black" cx="22" cy="-110" rx="21.5" ry="22"/>
<text text-anchor="middle" x="22" y="-106.3" font-family="Times,serif" font-size="14.00">3</text>
</g>
<!-- 0&#45;&gt;3 -->
<g id="edge2" class="edge"><title>0&#45;&gt;3</title>
<path fill="none" stroke="black" d="M74.0386,-186.54C64.8542,-173.208 51.0047,-153.104 39.902,-136.987"/>
<polygon fill="black" stroke="black" points="42.6188,-134.761 34.0634,-128.511 36.8542,-138.732 42.6188,-134.761"/>
<text text-anchor="middle" x="62.5" y="-154.3" font-family="Times,serif" font-size="14.00">a</text>
</g>
<!-- 1 -->
<g id="node2" class="node"><title>1</title>
<ellipse fill="lightblue" stroke="black" cx="52" cy="-18" rx="18" ry="18"/>
<text text-anchor="middle" x="52" y="-14.3" font-family="Times,serif" font-size="14.00">1</text>
</g>
<!-- 1&#45;&gt;0 -->
<g id="edge3" class="edge"><title>1&#45;&gt;0</title>
<path fill="none" stroke="black" d="M59.4094,-34.4816C65.5893,-48.2016 74.0065,-68.9561 78,-88 84.0564,-116.882 85.0713,-150.775 84.8757,-173.855"/>
<polygon fill="black" stroke="black" points="81.3748,-173.886 84.707,-183.944 88.3738,-174.004 81.3748,-173.886"/>
<text text-anchor="middle" x="87.5" y="-106.3" font-family="Times,serif" font-size="14.00">a</text>
</g>
<!-- 1&#45;&gt;3 -->
<g id="edge4" class="edge"><title>1&#45;&gt;3</title>
<path fill="none" stroke="black" d="M46.5629,-35.3114C42.4764,-47.5707 36.7659,-64.7023 31.8793,-79.3621"/>
<polygon fill="black" stroke="black" points="28.4999,-78.4324 28.658,-89.0261 35.1407,-80.6461 28.4999,-78.4324"/>
<text text-anchor="middle" x="43.5" y="-58.3" font-family="Times,serif" font-size="14.00">b</text>
</g>
<!-- 2 -->
<g id="node3" class="node"><title>2</title>
<ellipse fill="lightblue" stroke="black" cx="84" cy="-290" rx="18" ry="18"/>
<text text-anchor="middle" x="84" y="-286.3" font-family="Times,serif" font-size="14.00">2</text>
</g>
<!-- 2&#45;&gt;0 -->
<g id="edge5" class="edge"><title>2&#45;&gt;0</title>
<path fill="none" stroke="black" d="M84,-271.597C84,-259.746 84,-243.817 84,-230.292"/>
<polygon fill="black" stroke="black" points="87.5001,-230.084 84,-220.084 80.5001,-230.084 87.5001,-230.084"/>
<text text-anchor="middle" x="87.5" y="-242.3" font-family="Times,serif" font-size="14.00">b</text>
</g>
<!-- 2&#45;&gt;2 -->
<g id="edge6" class="edge"><title>2&#45;&gt;2</title>
<path fill="none" stroke="black" d="M100.29,-297.668C110.389,-299.517 120,-296.961 120,-290 120,-285.541 116.056,-282.889 110.566,-282.045"/>
<polygon fill="black" stroke="black" points="110.189,-278.554 100.29,-282.332 110.384,-285.552 110.189,-278.554"/>
<text text-anchor="middle" x="123.5" y="-286.3" font-family="Times,serif" font-size="14.00">a</text>
</g>
<!-- 3&#45;&gt;1 -->
<g id="edge7" class="edge"><title>3&#45;&gt;1</title>
<path fill="none" stroke="black" d="M20.2561,-88.0327C20.0938,-77.514 21.0028,-64.7567 25,-54 26.9222,-48.8273 29.8947,-43.7991 33.1759,-39.2423"/>
<polygon fill="black" stroke="black" points="36.1431,-41.1368 39.671,-31.1466 30.6832,-36.7563 36.1431,-41.1368"/>
<text text-anchor="middle" x="28.5" y="-58.3" font-family="Times,serif" font-size="14.00">a</text>
</g>
<!-- 3&#45;&gt;3 -->
<g id="edge8" class="edge"><title>3&#45;&gt;3</title>
<path fill="none" stroke="black" d="M42.0663,-118.734C52.0736,-119.943 61,-117.031 61,-110 61,-105.496 57.3366,-102.682 52.0725,-101.559"/>
<polygon fill="black" stroke="black" points="52.1646,-98.0605 42.0663,-101.266 51.9594,-105.057 52.1646,-98.0605"/>
<text text-anchor="middle" x="64.5" y="-106.3" font-family="Times,serif" font-size="14.00">b</text>
</g>
</g>
</svg>
