<?xml version="1.0" encoding="UTF-8" standalone="no"?>
<!DOCTYPE svg PUBLIC "-//W3C//DTD SVG 1.1//EN"
 "http://www.w3.org/Graphics/SVG/1.1/DTD/svg11.dtd">
<!-- Generated by graphviz version 2.36.0 (20140111.2315)
 -->
<!-- Title: %3 Pages: 1 -->
<svg width="135pt" height="316pt"
 viewBox="0.00 0.00 135.00 316.00" xmlns="http://www.w3.org/2000/svg" xmlns:xlink="http://www.w3.org/1999/xlink">
<g id="graph0" class="graph" transform="scale(1 1) rotate(0) translate(4 312)">
<title>%3</title>
<polygon fill="white" stroke="none" points="-4,4 -4,-312 131,-312 131,4 -4,4"/>
<!-- 0 -->
<g id="node1" class="node"><title>0</title>
<ellipse fill="lightblue" stroke="black" cx="72" cy="-286" rx="17.5909" ry="18"/>
<ellipse fill="none" stroke="black" cx="72" cy="-286" rx="21.5" ry="22"/>
<text text-anchor="middle" x="72" y="-282.3" font-family="Times,serif" font-size="14.00">0</text>
</g>
<!-- 1 -->
<g id="node2" class="node"><title>1</title>
<ellipse fill="lightblue" stroke="black" cx="18" cy="-194" rx="18" ry="18"/>
<text text-anchor="middle" x="18" y="-190.3" font-family="Times,serif" font-size="14.00">1</text>
</g>
<!-- 0&#45;&gt;1 -->
<g id="edge1" class="edge"><title>0&#45;&gt;1</title>
<path fill="none" stroke="black" d="M61.0723,-266.787C52.7523,-252.921 41.231,-233.718 32.1976,-218.663"/>
<polygon fill="black" stroke="black" points="35.0916,-216.683 26.9454,-209.909 29.0892,-220.285 35.0916,-216.683"/>
<text text-anchor="middle" x="52.5" y="-234.3" font-family="Times,serif" font-size="14.00">b</text>
</g>
<!-- 3 -->
<g id="node4" class="node"><title>3</title>
<ellipse fill="green" stroke="black" cx="36" cy="-106" rx="18" ry="18"/>
<text text-anchor="middle" x="36" y="-102.3" font-family="Times,serif" font-size="14.00">3</text>
</g>
<!-- 0&#45;&gt;3 -->
<g id="edge2" class="edge"><title>0&#45;&gt;3</title>
<path fill="none" stroke="black" d="M70.2642,-263.847C67.6084,-235.658 61.5798,-184.405 50,-142 49.1207,-138.78 48.0362,-135.454 46.863,-132.192"/>
<polygon fill="black" stroke="black" points="50.0836,-130.817 43.1944,-122.768 43.5604,-133.356 50.0836,-130.817"/>
<text text-anchor="middle" x="66.5" y="-190.3" font-family="Times,serif" font-size="14.00">a</text>
</g>
<!-- 1&#45;&gt;3 -->
<g id="edge3" class="edge"><title>1&#45;&gt;3</title>
<path fill="none" stroke="black" d="M21.5562,-176.009C24.0872,-163.917 27.5382,-147.428 30.4323,-133.601"/>
<polygon fill="black" stroke="black" points="33.8895,-134.168 32.5124,-123.663 27.0379,-132.734 33.8895,-134.168"/>
<text text-anchor="middle" x="37.5" y="-146.3" font-family="Times,serif" font-size="14.00">b,a</text>
</g>
<!-- 2 -->
<g id="node3" class="node"><title>2</title>
<ellipse fill="lightblue" stroke="black" cx="84" cy="-18" rx="18" ry="18"/>
<text text-anchor="middle" x="84" y="-14.3" font-family="Times,serif" font-size="14.00">2</text>
</g>
<!-- 2&#45;&gt;0 -->
<g id="edge4" class="edge"><title>2&#45;&gt;0</title>
<path fill="none" stroke="black" d="M85.2606,-36.0017C86.2293,-49.9604 87.4859,-70.2485 88,-88 90.0349,-158.262 90.9518,-176.417 81,-246 80.6077,-248.743 80.1193,-251.578 79.5742,-254.409"/>
<polygon fill="black" stroke="black" points="76.0896,-253.967 77.4222,-264.478 82.935,-255.43 76.0896,-253.967"/>
<text text-anchor="middle" x="92.5" y="-146.3" font-family="Times,serif" font-size="14.00">b</text>
</g>
<!-- 2&#45;&gt;2 -->
<g id="edge5" class="edge"><title>2&#45;&gt;2</title>
<path fill="none" stroke="black" d="M100.29,-25.6679C110.389,-27.5169 120,-24.9609 120,-18 120,-13.5406 116.056,-10.8891 110.566,-10.0454"/>
<polygon fill="black" stroke="black" points="110.189,-6.55441 100.29,-10.3321 110.384,-13.5517 110.189,-6.55441"/>
<text text-anchor="middle" x="123.5" y="-14.3" font-family="Times,serif" font-size="14.00">a</text>
</g>
<!-- 3&#45;&gt;2 -->
<g id="edge6" class="edge"><title>3&#45;&gt;2</title>
<path fill="none" stroke="black" d="M44.361,-90.0199C51.6123,-77.0279 62.2374,-57.9914 70.6623,-42.8968"/>
<polygon fill="black" stroke="black" points="73.7563,-44.5347 75.5738,-34.0969 67.6439,-41.1231 73.7563,-44.5347"/>
<text text-anchor="middle" x="67.5" y="-58.3" font-family="Times,serif" font-size="14.00">b</text>
</g>
<!-- 3&#45;&gt;3 -->
<g id="edge7" class="edge"><title>3&#45;&gt;3</title>
<path fill="none" stroke="black" d="M52.2903,-113.668C62.3892,-115.517 72,-112.961 72,-106 72,-101.541 68.0557,-98.8891 62.5656,-98.0454"/>
<polygon fill="black" stroke="black" points="62.1887,-94.5544 52.2903,-98.3321 62.384,-101.552 62.1887,-94.5544"/>
<text text-anchor="middle" x="75.5" y="-102.3" font-family="Times,serif" font-size="14.00">a</text>
</g>
</g>
</svg>
