<?xml version="1.0" encoding="UTF-8" standalone="no"?>
<!DOCTYPE svg PUBLIC "-//W3C//DTD SVG 1.1//EN"
 "http://www.w3.org/Graphics/SVG/1.1/DTD/svg11.dtd">
<!-- Generated by graphviz version 2.36.0 (20140111.2315)
 -->
<!-- Title: %3 Pages: 1 -->
<svg width="139pt" height="316pt"
 viewBox="0.00 0.00 139.00 316.00" xmlns="http://www.w3.org/2000/svg" xmlns:xlink="http://www.w3.org/1999/xlink">
<g id="graph0" class="graph" transform="scale(1 1) rotate(0) translate(4 312)">
<title>%3</title>
<polygon fill="white" stroke="none" points="-4,4 -4,-312 135,-312 135,4 -4,4"/>
<!-- 0 -->
<g id="node1" class="node"><title>0</title>
<ellipse fill="lightblue" stroke="black" cx="109" cy="-286" rx="17.5909" ry="18"/>
<ellipse fill="none" stroke="black" cx="109" cy="-286" rx="21.5" ry="22"/>
<text text-anchor="middle" x="109" y="-282.3" font-family="Times,serif" font-size="14.00">0</text>
</g>
<!-- 2 -->
<g id="node3" class="node"><title>2</title>
<ellipse fill="lightblue" stroke="black" cx="61" cy="-194" rx="18" ry="18"/>
<text text-anchor="middle" x="61" y="-190.3" font-family="Times,serif" font-size="14.00">2</text>
</g>
<!-- 0&#45;&gt;2 -->
<g id="edge1" class="edge"><title>0&#45;&gt;2</title>
<path fill="none" stroke="black" d="M99.0544,-266.352C91.8011,-252.752 81.9035,-234.194 74.0204,-219.413"/>
<polygon fill="black" stroke="black" points="76.9733,-217.512 69.1791,-210.336 70.7968,-220.806 76.9733,-217.512"/>
<text text-anchor="middle" x="90.5" y="-234.3" font-family="Times,serif" font-size="14.00">b</text>
</g>
<!-- 3 -->
<g id="node4" class="node"><title>3</title>
<ellipse fill="green" stroke="black" cx="82" cy="-18" rx="18" ry="18"/>
<text text-anchor="middle" x="82" y="-14.3" font-family="Times,serif" font-size="14.00">3</text>
</g>
<!-- 0&#45;&gt;3 -->
<g id="edge2" class="edge"><title>0&#45;&gt;3</title>
<path fill="none" stroke="black" d="M110.461,-263.929C111.396,-249.354 112.521,-229.509 113,-212 113.438,-196.006 114.425,-191.936 113,-176 108.092,-121.122 102.757,-107.828 91,-54 90.4055,-51.2781 89.7464,-48.4474 89.063,-45.6275"/>
<polygon fill="black" stroke="black" points="92.3924,-44.516 86.5537,-35.6752 85.6048,-46.2274 92.3924,-44.516"/>
<text text-anchor="middle" x="114.5" y="-146.3" font-family="Times,serif" font-size="14.00">a</text>
</g>
<!-- 1 -->
<g id="node2" class="node"><title>1</title>
<ellipse fill="lightblue" stroke="black" cx="18" cy="-106" rx="18" ry="18"/>
<text text-anchor="middle" x="18" y="-102.3" font-family="Times,serif" font-size="14.00">1</text>
</g>
<!-- 1&#45;&gt;1 -->
<g id="edge3" class="edge"><title>1&#45;&gt;1</title>
<path fill="none" stroke="black" d="M34.2903,-113.668C44.3892,-115.517 54,-112.961 54,-106 54,-101.541 50.0557,-98.8891 44.5656,-98.0454"/>
<polygon fill="black" stroke="black" points="44.1887,-94.5544 34.2903,-98.3321 44.384,-101.552 44.1887,-94.5544"/>
<text text-anchor="middle" x="57.5" y="-102.3" font-family="Times,serif" font-size="14.00">b</text>
</g>
<!-- 1&#45;&gt;3 -->
<g id="edge4" class="edge"><title>1&#45;&gt;3</title>
<path fill="none" stroke="black" d="M22.5477,-88.3084C25.9516,-77.7892 31.3466,-64.2986 39,-54 44.3288,-46.8295 51.4457,-40.2578 58.3537,-34.7933"/>
<polygon fill="black" stroke="black" points="60.8921,-37.2685 66.8418,-28.502 56.7239,-31.6448 60.8921,-37.2685"/>
<text text-anchor="middle" x="42.5" y="-58.3" font-family="Times,serif" font-size="14.00">a</text>
</g>
<!-- 2&#45;&gt;1 -->
<g id="edge5" class="edge"><title>2&#45;&gt;1</title>
<path fill="none" stroke="black" d="M53.3125,-177.625C46.9316,-164.863 37.7361,-146.472 30.3282,-131.656"/>
<polygon fill="black" stroke="black" points="33.3687,-129.911 25.766,-122.532 27.1077,-133.041 33.3687,-129.911"/>
<text text-anchor="middle" x="47.5" y="-146.3" font-family="Times,serif" font-size="14.00">b</text>
</g>
<!-- 2&#45;&gt;2 -->
<g id="edge6" class="edge"><title>2&#45;&gt;2</title>
<path fill="none" stroke="black" d="M77.2903,-201.668C87.3892,-203.517 97,-200.961 97,-194 97,-189.541 93.0557,-186.889 87.5656,-186.045"/>
<polygon fill="black" stroke="black" points="87.1887,-182.554 77.2903,-186.332 87.384,-189.552 87.1887,-182.554"/>
<text text-anchor="middle" x="100.5" y="-190.3" font-family="Times,serif" font-size="14.00">a</text>
</g>
<!-- 3&#45;&gt;1 -->
<g id="edge7" class="edge"><title>3&#45;&gt;1</title>
<path fill="none" stroke="black" d="M72.1404,-33.4545C65.0301,-43.7568 55.1184,-57.8726 46,-70 42.6944,-74.3965 39.0794,-79.0336 35.578,-83.4432"/>
<polygon fill="black" stroke="black" points="32.6257,-81.5299 29.0959,-91.5195 38.0849,-85.9115 32.6257,-81.5299"/>
<text text-anchor="middle" x="61.5" y="-58.3" font-family="Times,serif" font-size="14.00">a</text>
</g>
<!-- 3&#45;&gt;2 -->
<g id="edge8" class="edge"><title>3&#45;&gt;2</title>
<path fill="none" stroke="black" d="M80.1296,-36.1055C77.8369,-56.8957 73.7881,-93.0396 70,-124 68.3036,-137.865 66.3036,-153.281 64.6204,-166.019"/>
<polygon fill="black" stroke="black" points="61.1424,-165.622 63.2945,-175.996 68.0814,-166.544 61.1424,-165.622"/>
<text text-anchor="middle" x="78.5" y="-102.3" font-family="Times,serif" font-size="14.00">b</text>
</g>
</g>
</svg>
