<?xml version="1.0" encoding="UTF-8" standalone="no"?>
<!DOCTYPE svg PUBLIC "-//W3C//DTD SVG 1.1//EN"
 "http://www.w3.org/Graphics/SVG/1.1/DTD/svg11.dtd">
<!-- Generated by graphviz version 2.36.0 (20140111.2315)
 -->
<!-- Title: %3 Pages: 1 -->
<svg width="117pt" height="316pt"
 viewBox="0.00 0.00 117.00 316.00" xmlns="http://www.w3.org/2000/svg" xmlns:xlink="http://www.w3.org/1999/xlink">
<g id="graph0" class="graph" transform="scale(1 1) rotate(0) translate(4 312)">
<title>%3</title>
<polygon fill="white" stroke="none" points="-4,4 -4,-312 113,-312 113,4 -4,4"/>
<!-- 0 -->
<g id="node1" class="node"><title>0</title>
<ellipse fill="lightblue" stroke="black" cx="62" cy="-286" rx="17.5909" ry="18"/>
<ellipse fill="none" stroke="black" cx="62" cy="-286" rx="21.5" ry="22"/>
<text text-anchor="middle" x="62" y="-282.3" font-family="Times,serif" font-size="14.00">0</text>
</g>
<!-- 0&#45;&gt;0 -->
<g id="edge1" class="edge"><title>0&#45;&gt;0</title>
<path fill="none" stroke="black" d="M82.0663,-294.734C92.0736,-295.943 101,-293.031 101,-286 101,-281.496 97.3366,-278.682 92.0725,-277.559"/>
<polygon fill="black" stroke="black" points="92.1646,-274.061 82.0663,-277.266 91.9594,-281.057 92.1646,-274.061"/>
<text text-anchor="middle" x="104.5" y="-282.3" font-family="Times,serif" font-size="14.00">a</text>
</g>
<!-- 1 -->
<g id="node2" class="node"><title>1</title>
<ellipse fill="green" stroke="black" cx="32" cy="-194" rx="18" ry="18"/>
<text text-anchor="middle" x="32" y="-190.3" font-family="Times,serif" font-size="14.00">1</text>
</g>
<!-- 0&#45;&gt;1 -->
<g id="edge2" class="edge"><title>0&#45;&gt;1</title>
<path fill="none" stroke="black" d="M47.9855,-269.022C42.9647,-262.357 37.8464,-254.252 35,-246 32.4152,-238.506 31.2695,-230.029 30.8732,-222.168"/>
<polygon fill="black" stroke="black" points="34.3704,-221.931 30.7325,-211.981 27.371,-222.028 34.3704,-221.931"/>
<text text-anchor="middle" x="38.5" y="-234.3" font-family="Times,serif" font-size="14.00">b</text>
</g>
<!-- 1&#45;&gt;0 -->
<g id="edge3" class="edge"><title>1&#45;&gt;0</title>
<path fill="none" stroke="black" d="M37.4371,-211.311C41.5236,-223.571 47.2341,-240.702 52.1207,-255.362"/>
<polygon fill="black" stroke="black" points="48.8593,-256.646 55.342,-265.026 55.5001,-254.432 48.8593,-256.646"/>
<text text-anchor="middle" x="51.5" y="-234.3" font-family="Times,serif" font-size="14.00">a</text>
</g>
<!-- 3 -->
<g id="node4" class="node"><title>3</title>
<ellipse fill="lightblue" stroke="black" cx="18" cy="-106" rx="18" ry="18"/>
<text text-anchor="middle" x="18" y="-102.3" font-family="Times,serif" font-size="14.00">3</text>
</g>
<!-- 1&#45;&gt;3 -->
<g id="edge4" class="edge"><title>1&#45;&gt;3</title>
<path fill="none" stroke="black" d="M29.2341,-176.009C27.2782,-163.995 24.616,-147.641 22.374,-133.869"/>
<polygon fill="black" stroke="black" points="25.8216,-133.263 20.7602,-123.956 18.9125,-134.388 25.8216,-133.263"/>
<text text-anchor="middle" x="30.5" y="-146.3" font-family="Times,serif" font-size="14.00">b</text>
</g>
<!-- 2 -->
<g id="node3" class="node"><title>2</title>
<ellipse fill="lightblue" stroke="black" cx="66" cy="-18" rx="18" ry="18"/>
<text text-anchor="middle" x="66" y="-14.3" font-family="Times,serif" font-size="14.00">2</text>
</g>
<!-- 2&#45;&gt;0 -->
<g id="edge5" class="edge"><title>2&#45;&gt;0</title>
<path fill="none" stroke="black" d="M67.2606,-36.0017C68.2293,-49.9604 69.4859,-70.2485 70,-88 71.6983,-146.64 67.537,-215.06 64.6007,-253.881"/>
<polygon fill="black" stroke="black" points="61.0987,-253.772 63.8109,-264.014 68.0776,-254.316 61.0987,-253.772"/>
<text text-anchor="middle" x="73.5" y="-146.3" font-family="Times,serif" font-size="14.00">a</text>
</g>
<!-- 2&#45;&gt;2 -->
<g id="edge6" class="edge"><title>2&#45;&gt;2</title>
<path fill="none" stroke="black" d="M82.2903,-25.6679C92.3892,-27.5169 102,-24.9609 102,-18 102,-13.5406 98.0557,-10.8891 92.5656,-10.0454"/>
<polygon fill="black" stroke="black" points="92.1887,-6.55441 82.2903,-10.3321 92.384,-13.5517 92.1887,-6.55441"/>
<text text-anchor="middle" x="105.5" y="-14.3" font-family="Times,serif" font-size="14.00">b</text>
</g>
<!-- 3&#45;&gt;2 -->
<g id="edge7" class="edge"><title>3&#45;&gt;2</title>
<path fill="none" stroke="black" d="M26.361,-90.0199C33.6123,-77.0279 44.2374,-57.9914 52.6623,-42.8968"/>
<polygon fill="black" stroke="black" points="55.7563,-44.5347 57.5738,-34.0969 49.6439,-41.1231 55.7563,-44.5347"/>
<text text-anchor="middle" x="49.5" y="-58.3" font-family="Times,serif" font-size="14.00">b</text>
</g>
<!-- 3&#45;&gt;3 -->
<g id="edge8" class="edge"><title>3&#45;&gt;3</title>
<path fill="none" stroke="black" d="M34.2903,-113.668C44.3892,-115.517 54,-112.961 54,-106 54,-101.541 50.0557,-98.8891 44.5656,-98.0454"/>
<polygon fill="black" stroke="black" points="44.1887,-94.5544 34.2903,-98.3321 44.384,-101.552 44.1887,-94.5544"/>
<text text-anchor="middle" x="57.5" y="-102.3" font-family="Times,serif" font-size="14.00">a</text>
</g>
</g>
</svg>
