<?xml version="1.0" encoding="UTF-8" standalone="no"?>
<!DOCTYPE svg PUBLIC "-//W3C//DTD SVG 1.1//EN"
 "http://www.w3.org/Graphics/SVG/1.1/DTD/svg11.dtd">
<!-- Generated by graphviz version 2.36.0 (20140111.2315)
 -->
<!-- Title: %3 Pages: 1 -->
<svg width="145pt" height="316pt"
 viewBox="0.00 0.00 145.00 316.00" xmlns="http://www.w3.org/2000/svg" xmlns:xlink="http://www.w3.org/1999/xlink">
<g id="graph0" class="graph" transform="scale(1 1) rotate(0) translate(4 312)">
<title>%3</title>
<polygon fill="white" stroke="none" points="-4,4 -4,-312 141,-312 141,4 -4,4"/>
<!-- 0 -->
<g id="node1" class="node"><title>0</title>
<ellipse fill="lightblue" stroke="black" cx="86" cy="-194" rx="18" ry="18"/>
<text text-anchor="middle" x="86" y="-190.3" font-family="Times,serif" font-size="14.00">0</text>
</g>
<!-- 1 -->
<g id="node2" class="node"><title>1</title>
<ellipse fill="lightblue" stroke="black" cx="18" cy="-106" rx="18" ry="18"/>
<text text-anchor="middle" x="18" y="-102.3" font-family="Times,serif" font-size="14.00">1</text>
</g>
<!-- 0&#45;&gt;1 -->
<g id="edge1" class="edge"><title>0&#45;&gt;1</title>
<path fill="none" stroke="black" d="M75.0746,-179.183C64.3045,-165.562 47.6855,-144.543 35.153,-128.694"/>
<polygon fill="black" stroke="black" points="37.6219,-126.173 28.6741,-120.5 32.131,-130.515 37.6219,-126.173"/>
<text text-anchor="middle" x="62.5" y="-146.3" font-family="Times,serif" font-size="14.00">a</text>
</g>
<!-- 2 -->
<g id="node3" class="node"><title>2</title>
<ellipse fill="lightblue" stroke="black" cx="82" cy="-18" rx="18" ry="18"/>
<text text-anchor="middle" x="82" y="-14.3" font-family="Times,serif" font-size="14.00">2</text>
</g>
<!-- 0&#45;&gt;2 -->
<g id="edge2" class="edge"><title>0&#45;&gt;2</title>
<path fill="none" stroke="black" d="M85.6092,-175.999C84.9162,-145.853 83.4664,-82.7897 82.6306,-46.4303"/>
<polygon fill="black" stroke="black" points="86.1214,-45.9866 82.3924,-36.0697 79.1232,-46.1475 86.1214,-45.9866"/>
<text text-anchor="middle" x="88.5" y="-102.3" font-family="Times,serif" font-size="14.00">b</text>
</g>
<!-- 1&#45;&gt;1 -->
<g id="edge3" class="edge"><title>1&#45;&gt;1</title>
<path fill="none" stroke="black" d="M34.2903,-113.668C44.3892,-115.517 54,-112.961 54,-106 54,-101.541 50.0557,-98.8891 44.5656,-98.0454"/>
<polygon fill="black" stroke="black" points="44.1887,-94.5544 34.2903,-98.3321 44.384,-101.552 44.1887,-94.5544"/>
<text text-anchor="middle" x="57.5" y="-102.3" font-family="Times,serif" font-size="14.00">b</text>
</g>
<!-- 1&#45;&gt;2 -->
<g id="edge4" class="edge"><title>1&#45;&gt;2</title>
<path fill="none" stroke="black" d="M22.5477,-88.3084C25.9516,-77.7892 31.3466,-64.2986 39,-54 44.3288,-46.8295 51.4457,-40.2578 58.3537,-34.7933"/>
<polygon fill="black" stroke="black" points="60.8921,-37.2685 66.8418,-28.502 56.7239,-31.6448 60.8921,-37.2685"/>
<text text-anchor="middle" x="42.5" y="-58.3" font-family="Times,serif" font-size="14.00">a</text>
</g>
<!-- 2&#45;&gt;1 -->
<g id="edge5" class="edge"><title>2&#45;&gt;1</title>
<path fill="none" stroke="black" d="M72.1404,-33.4545C65.0301,-43.7568 55.1184,-57.8726 46,-70 42.6944,-74.3965 39.0794,-79.0336 35.578,-83.4432"/>
<polygon fill="black" stroke="black" points="32.6257,-81.5299 29.0959,-91.5195 38.0849,-85.9115 32.6257,-81.5299"/>
<text text-anchor="middle" x="61.5" y="-58.3" font-family="Times,serif" font-size="14.00">b</text>
</g>
<!-- 2&#45;&gt;2 -->
<g id="edge6" class="edge"><title>2&#45;&gt;2</title>
<path fill="none" stroke="black" d="M98.2903,-25.6679C108.389,-27.5169 118,-24.9609 118,-18 118,-13.5406 114.056,-10.8891 108.566,-10.0454"/>
<polygon fill="black" stroke="black" points="108.189,-6.55441 98.2903,-10.3321 108.384,-13.5517 108.189,-6.55441"/>
<text text-anchor="middle" x="121.5" y="-14.3" font-family="Times,serif" font-size="14.00">a</text>
</g>
<!-- 3 -->
<g id="node4" class="node"><title>3</title>
<ellipse fill="green" stroke="black" cx="115" cy="-286" rx="17.5909" ry="18"/>
<ellipse fill="none" stroke="black" cx="115" cy="-286" rx="21.5" ry="22"/>
<text text-anchor="middle" x="115" y="-282.3" font-family="Times,serif" font-size="14.00">3</text>
</g>
<!-- 3&#45;&gt;0 -->
<g id="edge7" class="edge"><title>3&#45;&gt;0</title>
<path fill="none" stroke="black" d="M108.419,-264.578C104.291,-251.766 98.9276,-235.12 94.4817,-221.322"/>
<polygon fill="black" stroke="black" points="97.6947,-219.882 91.2964,-211.437 91.0321,-222.029 97.6947,-219.882"/>
<text text-anchor="middle" x="105.5" y="-234.3" font-family="Times,serif" font-size="14.00">a</text>
</g>
<!-- 3&#45;&gt;2 -->
<g id="edge8" class="edge"><title>3&#45;&gt;2</title>
<path fill="none" stroke="black" d="M115.986,-263.84C117.335,-222.629 117.585,-129.065 97,-54 96.0624,-50.5811 94.8595,-47.0588 93.5435,-43.6264"/>
<polygon fill="black" stroke="black" points="96.7512,-42.2249 89.6616,-34.3516 90.2939,-44.9276 96.7512,-42.2249"/>
<text text-anchor="middle" x="116.5" y="-146.3" font-family="Times,serif" font-size="14.00">b</text>
</g>
</g>
</svg>
