<?xml version="1.0" encoding="UTF-8" standalone="no"?>
<!DOCTYPE svg PUBLIC "-//W3C//DTD SVG 1.1//EN"
 "http://www.w3.org/Graphics/SVG/1.1/DTD/svg11.dtd">
<!-- Generated by graphviz version 2.36.0 (20140111.2315)
 -->
<!-- Title: %3 Pages: 1 -->
<svg width="154pt" height="316pt"
 viewBox="0.00 0.00 154.00 316.00" xmlns="http://www.w3.org/2000/svg" xmlns:xlink="http://www.w3.org/1999/xlink">
<g id="graph0" class="graph" transform="scale(1 1) rotate(0) translate(4 312)">
<title>%3</title>
<polygon fill="white" stroke="none" points="-4,4 -4,-312 150,-312 150,4 -4,4"/>
<!-- 0 -->
<g id="node1" class="node"><title>0</title>
<ellipse fill="lightblue" stroke="black" cx="128" cy="-290" rx="18" ry="18"/>
<text text-anchor="middle" x="128" y="-286.3" font-family="Times,serif" font-size="14.00">0</text>
</g>
<!-- 2 -->
<g id="node3" class="node"><title>2</title>
<ellipse fill="lightblue" stroke="black" cx="65" cy="-198" rx="17.5909" ry="18"/>
<ellipse fill="none" stroke="black" cx="65" cy="-198" rx="21.5" ry="22"/>
<text text-anchor="middle" x="65" y="-194.3" font-family="Times,serif" font-size="14.00">2</text>
</g>
<!-- 0&#45;&gt;2 -->
<g id="edge1" class="edge"><title>0&#45;&gt;2</title>
<path fill="none" stroke="black" d="M117.878,-274.54C108.545,-261.208 94.4726,-241.104 83.1907,-224.987"/>
<polygon fill="black" stroke="black" points="85.86,-222.697 77.258,-216.511 80.1253,-226.711 85.86,-222.697"/>
<text text-anchor="middle" x="105.5" y="-242.3" font-family="Times,serif" font-size="14.00">a</text>
</g>
<!-- 4 -->
<g id="node5" class="node"><title>4</title>
<ellipse fill="lightblue" stroke="black" cx="52" cy="-106" rx="18" ry="18"/>
<text text-anchor="middle" x="52" y="-102.3" font-family="Times,serif" font-size="14.00">4</text>
</g>
<!-- 0&#45;&gt;4 -->
<g id="edge2" class="edge"><title>0&#45;&gt;4</title>
<path fill="none" stroke="black" d="M124.567,-272.026C119.664,-249.464 109.607,-208.647 95,-176 87.6464,-159.565 76.9446,-142.376 68.0573,-129.266"/>
<polygon fill="black" stroke="black" points="70.8316,-127.125 62.2578,-120.901 65.0789,-131.113 70.8316,-127.125"/>
<text text-anchor="middle" x="114.5" y="-194.3" font-family="Times,serif" font-size="14.00">b</text>
</g>
<!-- 1 -->
<g id="node2" class="node"><title>1</title>
<ellipse fill="lightblue" stroke="black" cx="106" cy="-18" rx="18" ry="18"/>
<text text-anchor="middle" x="106" y="-14.3" font-family="Times,serif" font-size="14.00">1</text>
</g>
<!-- 1&#45;&gt;0 -->
<g id="edge3" class="edge"><title>1&#45;&gt;0</title>
<path fill="none" stroke="black" d="M108.71,-35.9767C114.418,-72.7015 127.523,-162.322 132,-238 132.462,-245.802 132.133,-254.266 131.503,-262.016"/>
<polygon fill="black" stroke="black" points="128.016,-261.712 130.503,-272.011 134.981,-262.409 128.016,-261.712"/>
<text text-anchor="middle" x="132.5" y="-146.3" font-family="Times,serif" font-size="14.00">b,a</text>
</g>
<!-- 2&#45;&gt;1 -->
<g id="edge4" class="edge"><title>2&#45;&gt;1</title>
<path fill="none" stroke="black" d="M69.7835,-176.233C77.2302,-143.903 91.5919,-81.5521 99.8158,-45.8486"/>
<polygon fill="black" stroke="black" points="103.323,-46.2169 102.156,-35.6864 96.5011,-44.6456 103.323,-46.2169"/>
<text text-anchor="middle" x="92.5" y="-102.3" font-family="Times,serif" font-size="14.00">b</text>
</g>
<!-- 2&#45;&gt;4 -->
<g id="edge5" class="edge"><title>2&#45;&gt;4</title>
<path fill="none" stroke="black" d="M61.9849,-176.126C60.1738,-163.588 57.8503,-147.502 55.9005,-134.003"/>
<polygon fill="black" stroke="black" points="59.3275,-133.246 54.4338,-123.849 52.3994,-134.247 59.3275,-133.246"/>
<text text-anchor="middle" x="62.5" y="-146.3" font-family="Times,serif" font-size="14.00">a</text>
</g>
<!-- 3 -->
<g id="node4" class="node"><title>3</title>
<ellipse fill="green" stroke="black" cx="18" cy="-18" rx="18" ry="18"/>
<text text-anchor="middle" x="18" y="-14.3" font-family="Times,serif" font-size="14.00">3</text>
</g>
<!-- 3&#45;&gt;2 -->
<g id="edge6" class="edge"><title>3&#45;&gt;2</title>
<path fill="none" stroke="black" d="M15.1428,-35.78C12.1948,-56.861 9.15401,-93.9196 18,-124 23.2676,-141.912 34.4412,-159.581 44.5722,-173.049"/>
<polygon fill="black" stroke="black" points="42.0811,-175.544 51.0066,-181.252 47.589,-171.224 42.0811,-175.544"/>
<text text-anchor="middle" x="21.5" y="-102.3" font-family="Times,serif" font-size="14.00">b</text>
</g>
<!-- 3&#45;&gt;3 -->
<g id="edge7" class="edge"><title>3&#45;&gt;3</title>
<path fill="none" stroke="black" d="M34.2903,-25.6679C44.3892,-27.5169 54,-24.9609 54,-18 54,-13.5406 50.0557,-10.8891 44.5656,-10.0454"/>
<polygon fill="black" stroke="black" points="44.1887,-6.55441 34.2903,-10.3321 44.384,-13.5517 44.1887,-6.55441"/>
<text text-anchor="middle" x="57.5" y="-14.3" font-family="Times,serif" font-size="14.00">a</text>
</g>
<!-- 4&#45;&gt;1 -->
<g id="edge8" class="edge"><title>4&#45;&gt;1</title>
<path fill="none" stroke="black" d="M61.1604,-90.4113C69.3836,-77.315 81.6029,-57.8546 91.2098,-42.5548"/>
<polygon fill="black" stroke="black" points="94.4411,-43.9904 96.7947,-33.6603 88.5129,-40.268 94.4411,-43.9904"/>
<text text-anchor="middle" x="86.5" y="-58.3" font-family="Times,serif" font-size="14.00">b</text>
</g>
<!-- 4&#45;&gt;3 -->
<g id="edge9" class="edge"><title>4&#45;&gt;3</title>
<path fill="none" stroke="black" d="M45.6049,-88.8241C40.6659,-76.3315 33.7387,-58.8097 28.0593,-44.444"/>
<polygon fill="black" stroke="black" points="31.298,-43.1162 24.3665,-35.1034 24.7883,-45.6899 31.298,-43.1162"/>
<text text-anchor="middle" x="41.5" y="-58.3" font-family="Times,serif" font-size="14.00">a</text>
</g>
</g>
</svg>
