<?xml version="1.0" encoding="UTF-8" standalone="no"?>
<!DOCTYPE svg PUBLIC "-//W3C//DTD SVG 1.1//EN"
 "http://www.w3.org/Graphics/SVG/1.1/DTD/svg11.dtd">
<!-- Generated by graphviz version 2.36.0 (20140111.2315)
 -->
<!-- Title: %3 Pages: 1 -->
<svg width="176pt" height="404pt"
 viewBox="0.00 0.00 176.00 404.00" xmlns="http://www.w3.org/2000/svg" xmlns:xlink="http://www.w3.org/1999/xlink">
<g id="graph0" class="graph" transform="scale(1 1) rotate(0) translate(4 400)">
<title>%3</title>
<polygon fill="white" stroke="none" points="-4,4 -4,-400 172,-400 172,4 -4,4"/>
<!-- 0 -->
<g id="node1" class="node"><title>0</title>
<ellipse fill="lightblue" stroke="black" cx="104" cy="-378" rx="18" ry="18"/>
<text text-anchor="middle" x="104" y="-374.3" font-family="Times,serif" font-size="14.00">0</text>
</g>
<!-- 1 -->
<g id="node2" class="node"><title>1</title>
<ellipse fill="lightblue" stroke="black" cx="49" cy="-290" rx="18" ry="18"/>
<text text-anchor="middle" x="49" y="-286.3" font-family="Times,serif" font-size="14.00">1</text>
</g>
<!-- 0&#45;&gt;1 -->
<g id="edge1" class="edge"><title>0&#45;&gt;1</title>
<path fill="none" stroke="black" d="M94.67,-362.411C86.2155,-349.191 73.6137,-329.487 63.7879,-314.123"/>
<polygon fill="black" stroke="black" points="66.7122,-312.199 58.3758,-305.66 60.815,-315.971 66.7122,-312.199"/>
<text text-anchor="middle" x="85.5" y="-330.3" font-family="Times,serif" font-size="14.00">b</text>
</g>
<!-- 4 -->
<g id="node5" class="node"><title>4</title>
<ellipse fill="lightblue" stroke="black" cx="72" cy="-114" rx="18" ry="18"/>
<text text-anchor="middle" x="72" y="-110.3" font-family="Times,serif" font-size="14.00">4</text>
</g>
<!-- 0&#45;&gt;4 -->
<g id="edge2" class="edge"><title>0&#45;&gt;4</title>
<path fill="none" stroke="black" d="M103.144,-359.792C101.056,-321.726 94.8279,-227.605 81,-150 80.5113,-147.257 79.9213,-144.413 79.2799,-141.584"/>
<polygon fill="black" stroke="black" points="82.6153,-140.492 76.8205,-131.622 75.8193,-142.17 82.6153,-140.492"/>
<text text-anchor="middle" x="98.5" y="-242.3" font-family="Times,serif" font-size="14.00">a</text>
</g>
<!-- 2 -->
<g id="node3" class="node"><title>2</title>
<ellipse fill="lightblue" stroke="black" cx="150" cy="-202" rx="18" ry="18"/>
<text text-anchor="middle" x="150" y="-198.3" font-family="Times,serif" font-size="14.00">2</text>
</g>
<!-- 1&#45;&gt;2 -->
<g id="edge3" class="edge"><title>1&#45;&gt;2</title>
<path fill="none" stroke="black" d="M54.9099,-272.589C59.5306,-261.653 66.8762,-247.582 77,-238 90.0215,-225.676 108.192,-216.943 123.146,-211.283"/>
<polygon fill="black" stroke="black" points="124.616,-214.476 132.882,-207.849 122.288,-207.875 124.616,-214.476"/>
<text text-anchor="middle" x="80.5" y="-242.3" font-family="Times,serif" font-size="14.00">a</text>
</g>
<!-- 1&#45;&gt;4 -->
<g id="edge4" class="edge"><title>1&#45;&gt;4</title>
<path fill="none" stroke="black" d="M51.2472,-271.999C55.2321,-241.853 63.568,-178.79 68.3742,-142.43"/>
<polygon fill="black" stroke="black" points="71.903,-142.442 69.7437,-132.07 64.9633,-141.525 71.903,-142.442"/>
<text text-anchor="middle" x="66.5" y="-198.3" font-family="Times,serif" font-size="14.00">b</text>
</g>
<!-- 2&#45;&gt;0 -->
<g id="edge5" class="edge"><title>2&#45;&gt;0</title>
<path fill="none" stroke="black" d="M146.98,-219.912C142.073,-246.306 131.539,-298.753 118,-342 117.003,-345.185 115.847,-348.49 114.636,-351.741"/>
<polygon fill="black" stroke="black" points="111.336,-350.57 110.938,-361.157 117.852,-353.129 111.336,-350.57"/>
<text text-anchor="middle" x="139.5" y="-286.3" font-family="Times,serif" font-size="14.00">b</text>
</g>
<!-- 2&#45;&gt;4 -->
<g id="edge6" class="edge"><title>2&#45;&gt;4</title>
<path fill="none" stroke="black" d="M142.073,-185.27C136.269,-174.637 127.73,-160.649 118,-150 111.48,-142.865 103.356,-136.145 95.756,-130.537"/>
<polygon fill="black" stroke="black" points="97.3934,-127.409 87.2038,-124.507 93.3596,-133.13 97.3934,-127.409"/>
<text text-anchor="middle" x="133.5" y="-154.3" font-family="Times,serif" font-size="14.00">a</text>
</g>
<!-- 3 -->
<g id="node4" class="node"><title>3</title>
<ellipse fill="green" stroke="black" cx="22" cy="-22" rx="17.5909" ry="18"/>
<ellipse fill="none" stroke="black" cx="22" cy="-22" rx="21.5" ry="22"/>
<text text-anchor="middle" x="22" y="-18.3" font-family="Times,serif" font-size="14.00">3</text>
</g>
<!-- 3&#45;&gt;1 -->
<g id="edge7" class="edge"><title>3&#45;&gt;1</title>
<path fill="none" stroke="black" d="M24.1547,-44.2283C29.0235,-92.1943 40.8678,-208.882 46.2532,-261.939"/>
<polygon fill="black" stroke="black" points="42.7779,-262.36 47.27,-271.956 49.7421,-261.653 42.7779,-262.36"/>
<text text-anchor="middle" x="40.5" y="-154.3" font-family="Times,serif" font-size="14.00">b</text>
</g>
<!-- 3&#45;&gt;3 -->
<g id="edge8" class="edge"><title>3&#45;&gt;3</title>
<path fill="none" stroke="black" d="M42.0663,-30.7341C52.0736,-31.9426 61,-29.0312 61,-22 61,-17.4956 57.3366,-14.682 52.0725,-13.5592"/>
<polygon fill="black" stroke="black" points="52.1646,-10.0605 42.0663,-13.2659 51.9594,-17.0575 52.1646,-10.0605"/>
<text text-anchor="middle" x="64.5" y="-18.3" font-family="Times,serif" font-size="14.00">a</text>
</g>
<!-- 4&#45;&gt;3 -->
<g id="edge9" class="edge"><title>4&#45;&gt;3</title>
<path fill="none" stroke="black" d="M63.5182,-97.7327C56.3655,-84.858 45.9477,-66.1059 37.3373,-50.6071"/>
<polygon fill="black" stroke="black" points="40.171,-48.5007 32.255,-41.4589 34.0519,-51.9003 40.171,-48.5007"/>
<text text-anchor="middle" x="55.5" y="-66.3" font-family="Times,serif" font-size="14.00">b</text>
</g>
<!-- 4&#45;&gt;4 -->
<g id="edge10" class="edge"><title>4&#45;&gt;4</title>
<path fill="none" stroke="black" d="M88.2903,-121.668C98.3892,-123.517 108,-120.961 108,-114 108,-109.541 104.056,-106.889 98.5656,-106.045"/>
<polygon fill="black" stroke="black" points="98.1887,-102.554 88.2903,-106.332 98.384,-109.552 98.1887,-102.554"/>
<text text-anchor="middle" x="111.5" y="-110.3" font-family="Times,serif" font-size="14.00">a</text>
</g>
</g>
</svg>
