<?xml version="1.0" encoding="UTF-8" standalone="no"?>
<!DOCTYPE svg PUBLIC "-//W3C//DTD SVG 1.1//EN"
 "http://www.w3.org/Graphics/SVG/1.1/DTD/svg11.dtd">
<!-- Generated by graphviz version 2.36.0 (20140111.2315)
 -->
<!-- Title: %3 Pages: 1 -->
<svg width="102pt" height="316pt"
 viewBox="0.00 0.00 102.00 316.00" xmlns="http://www.w3.org/2000/svg" xmlns:xlink="http://www.w3.org/1999/xlink">
<g id="graph0" class="graph" transform="scale(1 1) rotate(0) translate(4 312)">
<title>%3</title>
<polygon fill="white" stroke="none" points="-4,4 -4,-312 98,-312 98,4 -4,4"/>
<!-- 0 -->
<g id="node1" class="node"><title>0</title>
<ellipse fill="lightblue" stroke="black" cx="51" cy="-290" rx="18" ry="18"/>
<text text-anchor="middle" x="51" y="-286.3" font-family="Times,serif" font-size="14.00">0</text>
</g>
<!-- 0&#45;&gt;0 -->
<g id="edge1" class="edge"><title>0&#45;&gt;0</title>
<path fill="none" stroke="black" d="M67.2903,-297.668C77.3892,-299.517 87,-296.961 87,-290 87,-285.541 83.0557,-282.889 77.5656,-282.045"/>
<polygon fill="black" stroke="black" points="77.1887,-278.554 67.2903,-282.332 77.384,-285.552 77.1887,-278.554"/>
<text text-anchor="middle" x="90.5" y="-286.3" font-family="Times,serif" font-size="14.00">a</text>
</g>
<!-- 1 -->
<g id="node2" class="node"><title>1</title>
<ellipse fill="green" stroke="black" cx="21" cy="-198" rx="17.5909" ry="18"/>
<ellipse fill="none" stroke="black" cx="21" cy="-198" rx="21.5" ry="22"/>
<text text-anchor="middle" x="21" y="-194.3" font-family="Times,serif" font-size="14.00">1</text>
</g>
<!-- 0&#45;&gt;1 -->
<g id="edge2" class="edge"><title>0&#45;&gt;1</title>
<path fill="none" stroke="black" d="M38.671,-276.853C33.1373,-270.588 27.1543,-262.489 24,-254 21.2207,-246.521 19.9345,-238.074 19.4632,-230.086"/>
<polygon fill="black" stroke="black" points="22.9601,-229.894 19.2561,-219.967 15.9616,-230.037 22.9601,-229.894"/>
<text text-anchor="middle" x="27.5" y="-242.3" font-family="Times,serif" font-size="14.00">b</text>
</g>
<!-- 1&#45;&gt;0 -->
<g id="edge3" class="edge"><title>1&#45;&gt;0</title>
<path fill="none" stroke="black" d="M27.7279,-219.184C32.0388,-232.116 37.6759,-249.028 42.3224,-262.967"/>
<polygon fill="black" stroke="black" points="39.0148,-264.113 45.4975,-272.493 45.6556,-261.899 39.0148,-264.113"/>
<text text-anchor="middle" x="41.5" y="-242.3" font-family="Times,serif" font-size="14.00">a</text>
</g>
<!-- 2 -->
<g id="node3" class="node"><title>2</title>
<ellipse fill="lightblue" stroke="black" cx="74" cy="-106" rx="18" ry="18"/>
<text text-anchor="middle" x="74" y="-102.3" font-family="Times,serif" font-size="14.00">2</text>
</g>
<!-- 1&#45;&gt;2 -->
<g id="edge4" class="edge"><title>1&#45;&gt;2</title>
<path fill="none" stroke="black" d="M31.7253,-178.787C39.8912,-164.921 51.1992,-145.718 60.0653,-130.663"/>
<polygon fill="black" stroke="black" points="63.1617,-132.302 65.2203,-121.909 57.1299,-128.75 63.1617,-132.302"/>
<text text-anchor="middle" x="55.5" y="-146.3" font-family="Times,serif" font-size="14.00">b</text>
</g>
<!-- 2&#45;&gt;0 -->
<g id="edge5" class="edge"><title>2&#45;&gt;0</title>
<path fill="none" stroke="black" d="M71.8587,-123.944C67.876,-155.459 59.2971,-223.345 54.4742,-261.509"/>
<polygon fill="black" stroke="black" points="50.9452,-261.518 53.1638,-271.878 57.89,-262.396 50.9452,-261.518"/>
<text text-anchor="middle" x="68.5" y="-194.3" font-family="Times,serif" font-size="14.00">b</text>
</g>
<!-- 3 -->
<g id="node4" class="node"><title>3</title>
<ellipse fill="lightblue" stroke="black" cx="42" cy="-18" rx="18" ry="18"/>
<text text-anchor="middle" x="42" y="-14.3" font-family="Times,serif" font-size="14.00">3</text>
</g>
<!-- 2&#45;&gt;3 -->
<g id="edge6" class="edge"><title>2&#45;&gt;3</title>
<path fill="none" stroke="black" d="M67.981,-88.8241C63.3774,-76.4516 56.9381,-59.1462 51.6221,-44.8593"/>
<polygon fill="black" stroke="black" points="54.7596,-43.255 47.992,-35.1034 48.1991,-45.6962 54.7596,-43.255"/>
<text text-anchor="middle" x="63.5" y="-58.3" font-family="Times,serif" font-size="14.00">a</text>
</g>
<!-- 3&#45;&gt;1 -->
<g id="edge7" class="edge"><title>3&#45;&gt;1</title>
<path fill="none" stroke="black" d="M38.6145,-35.9493C35.9382,-49.8775 32.2844,-70.1503 30,-88 26.665,-114.059 24.306,-143.789 22.8421,-165.611"/>
<polygon fill="black" stroke="black" points="19.3465,-165.432 22.1951,-175.637 26.3319,-165.883 19.3465,-165.432"/>
<text text-anchor="middle" x="38.5" y="-102.3" font-family="Times,serif" font-size="14.00">b,a</text>
</g>
</g>
</svg>
