<?xml version="1.0" encoding="UTF-8" standalone="no"?>
<!DOCTYPE svg PUBLIC "-//W3C//DTD SVG 1.1//EN"
 "http://www.w3.org/Graphics/SVG/1.1/DTD/svg11.dtd">
<!-- Generated by graphviz version 2.36.0 (20140111.2315)
 -->
<!-- Title: %3 Pages: 1 -->
<svg width="201pt" height="228pt"
 viewBox="0.00 0.00 201.00 228.00" xmlns="http://www.w3.org/2000/svg" xmlns:xlink="http://www.w3.org/1999/xlink">
<g id="graph0" class="graph" transform="scale(1 1) rotate(0) translate(4 224)">
<title>%3</title>
<polygon fill="white" stroke="none" points="-4,4 -4,-224 197,-224 197,4 -4,4"/>
<!-- 0 -->
<g id="node1" class="node"><title>0</title>
<ellipse fill="green" stroke="black" cx="48" cy="-198" rx="17.5909" ry="18"/>
<ellipse fill="none" stroke="black" cx="48" cy="-198" rx="21.5" ry="22"/>
<text text-anchor="middle" x="48" y="-194.3" font-family="Times,serif" font-size="14.00">0</text>
</g>
<!-- 0&#45;&gt;0 -->
<g id="edge1" class="edge"><title>0&#45;&gt;0</title>
<path fill="none" stroke="black" d="M68.0663,-206.734C78.0736,-207.943 87,-205.031 87,-198 87,-193.496 83.3366,-190.682 78.0725,-189.559"/>
<polygon fill="black" stroke="black" points="78.1646,-186.061 68.0663,-189.266 77.9594,-193.057 78.1646,-186.061"/>
<text text-anchor="middle" x="95" y="-194.3" font-family="Times,serif" font-size="14.00">c,a</text>
</g>
<!-- 2 -->
<g id="node3" class="node"><title>2</title>
<ellipse fill="lightblue" stroke="black" cx="18" cy="-106" rx="18" ry="18"/>
<text text-anchor="middle" x="18" y="-102.3" font-family="Times,serif" font-size="14.00">2</text>
</g>
<!-- 0&#45;&gt;2 -->
<g id="edge2" class="edge"><title>0&#45;&gt;2</title>
<path fill="none" stroke="black" d="M33.9855,-181.022C28.9647,-174.357 23.8464,-166.252 21,-158 18.4152,-150.506 17.2695,-142.029 16.8732,-134.168"/>
<polygon fill="black" stroke="black" points="20.3704,-133.931 16.7325,-123.981 13.371,-134.028 20.3704,-133.931"/>
<text text-anchor="middle" x="24.5" y="-146.3" font-family="Times,serif" font-size="14.00">b</text>
</g>
<!-- 1 -->
<g id="node2" class="node"><title>1</title>
<ellipse fill="lightblue" stroke="black" cx="150" cy="-106" rx="18" ry="18"/>
<text text-anchor="middle" x="150" y="-102.3" font-family="Times,serif" font-size="14.00">1</text>
</g>
<!-- 1&#45;&gt;1 -->
<g id="edge3" class="edge"><title>1&#45;&gt;1</title>
<path fill="none" stroke="black" d="M166.29,-113.668C176.389,-115.517 186,-112.961 186,-106 186,-101.541 182.056,-98.8891 176.566,-98.0454"/>
<polygon fill="black" stroke="black" points="176.189,-94.5544 166.29,-98.3321 176.384,-101.552 176.189,-94.5544"/>
<text text-anchor="middle" x="189.5" y="-102.3" font-family="Times,serif" font-size="14.00">c</text>
</g>
<!-- 3 -->
<g id="node4" class="node"><title>3</title>
<ellipse fill="lightblue" stroke="black" cx="97" cy="-18" rx="18" ry="18"/>
<text text-anchor="middle" x="97" y="-14.3" font-family="Times,serif" font-size="14.00">3</text>
</g>
<!-- 1&#45;&gt;3 -->
<g id="edge4" class="edge"><title>1&#45;&gt;3</title>
<path fill="none" stroke="black" d="M140.768,-90.0199C132.712,-76.9482 120.885,-57.7576 111.556,-42.6194"/>
<polygon fill="black" stroke="black" points="114.352,-40.4853 106.126,-33.8084 108.393,-44.1579 114.352,-40.4853"/>
<text text-anchor="middle" x="136.5" y="-58.3" font-family="Times,serif" font-size="14.00">b,a</text>
</g>
<!-- 2&#45;&gt;0 -->
<g id="edge5" class="edge"><title>2&#45;&gt;0</title>
<path fill="none" stroke="black" d="M23.4371,-123.311C27.5236,-135.571 33.2341,-152.702 38.1207,-167.362"/>
<polygon fill="black" stroke="black" points="34.8593,-168.646 41.342,-177.026 41.5001,-166.432 34.8593,-168.646"/>
<text text-anchor="middle" x="37.5" y="-146.3" font-family="Times,serif" font-size="14.00">c</text>
</g>
<!-- 2&#45;&gt;2 -->
<g id="edge6" class="edge"><title>2&#45;&gt;2</title>
<path fill="none" stroke="black" d="M34.2903,-113.668C44.3892,-115.517 54,-112.961 54,-106 54,-101.541 50.0557,-98.8891 44.5656,-98.0454"/>
<polygon fill="black" stroke="black" points="44.1887,-94.5544 34.2903,-98.3321 44.384,-101.552 44.1887,-94.5544"/>
<text text-anchor="middle" x="57.5" y="-102.3" font-family="Times,serif" font-size="14.00">a</text>
</g>
<!-- 2&#45;&gt;3 -->
<g id="edge7" class="edge"><title>2&#45;&gt;3</title>
<path fill="none" stroke="black" d="M29.9984,-91.9385C42.833,-77.9666 63.3578,-55.6231 78.312,-39.3439"/>
<polygon fill="black" stroke="black" points="80.9601,-41.6349 85.1475,-31.9027 75.8049,-36.8994 80.9601,-41.6349"/>
<text text-anchor="middle" x="67.5" y="-58.3" font-family="Times,serif" font-size="14.00">b</text>
</g>
<!-- 3&#45;&gt;0 -->
<g id="edge8" class="edge"><title>3&#45;&gt;0</title>
<path fill="none" stroke="black" d="M92.9088,-35.787C87.7932,-56.5643 78.6533,-92.9991 70,-124 66.0407,-138.185 61.3675,-153.828 57.3487,-166.983"/>
<polygon fill="black" stroke="black" points="53.8857,-166.337 54.2923,-176.924 60.5766,-168.394 53.8857,-166.337"/>
<text text-anchor="middle" x="87.5" y="-102.3" font-family="Times,serif" font-size="14.00">b,c</text>
</g>
<!-- 3&#45;&gt;3 -->
<g id="edge9" class="edge"><title>3&#45;&gt;3</title>
<path fill="none" stroke="black" d="M113.29,-25.6679C123.389,-27.5169 133,-24.9609 133,-18 133,-13.5406 129.056,-10.8891 123.566,-10.0454"/>
<polygon fill="black" stroke="black" points="123.189,-6.55441 113.29,-10.3321 123.384,-13.5517 123.189,-6.55441"/>
<text text-anchor="middle" x="136.5" y="-14.3" font-family="Times,serif" font-size="14.00">a</text>
</g>
</g>
</svg>
