<?xml version="1.0" encoding="UTF-8" standalone="no"?>
<!DOCTYPE svg PUBLIC "-//W3C//DTD SVG 1.1//EN"
 "http://www.w3.org/Graphics/SVG/1.1/DTD/svg11.dtd">
<!-- Generated by graphviz version 2.36.0 (20140111.2315)
 -->
<!-- Title: %3 Pages: 1 -->
<svg width="109pt" height="316pt"
 viewBox="0.00 0.00 108.78 316.00" xmlns="http://www.w3.org/2000/svg" xmlns:xlink="http://www.w3.org/1999/xlink">
<g id="graph0" class="graph" transform="scale(1 1) rotate(0) translate(4 312)">
<title>%3</title>
<polygon fill="white" stroke="none" points="-4,4 -4,-312 104.778,-312 104.778,4 -4,4"/>
<!-- 0 -->
<g id="node1" class="node"><title>0</title>
<ellipse fill="lightblue" stroke="black" cx="39.778" cy="-290" rx="18" ry="18"/>
<text text-anchor="middle" x="39.778" y="-286.3" font-family="Times,serif" font-size="14.00">0</text>
</g>
<!-- 2 -->
<g id="node3" class="node"><title>2</title>
<ellipse fill="lightblue" stroke="black" cx="35.778" cy="-18" rx="18" ry="18"/>
<text text-anchor="middle" x="35.778" y="-14.3" font-family="Times,serif" font-size="14.00">2</text>
</g>
<!-- 0&#45;&gt;2 -->
<g id="edge1" class="edge"><title>0&#45;&gt;2</title>
<path fill="none" stroke="black" d="M30.9542,-274.285C23.3735,-260.728 13.0162,-239.775 8.77799,-220 -3.51623,-162.636 -2.09967,-145.649 8.77799,-88 11.667,-72.6891 17.8665,-56.42 23.5971,-43.527"/>
<polygon fill="black" stroke="black" points="26.7986,-44.9425 27.8254,-34.3976 20.4468,-42.0007 26.7986,-44.9425"/>
<text text-anchor="middle" x="4.27799" y="-146.3" font-family="Times,serif" font-size="14.00">b</text>
</g>
<!-- 3 -->
<g id="node4" class="node"><title>3</title>
<ellipse fill="lightblue" stroke="black" cx="39.778" cy="-198" rx="17.5909" ry="18"/>
<ellipse fill="none" stroke="black" cx="39.778" cy="-198" rx="21.5" ry="22"/>
<text text-anchor="middle" x="39.778" y="-194.3" font-family="Times,serif" font-size="14.00">3</text>
</g>
<!-- 0&#45;&gt;3 -->
<g id="edge2" class="edge"><title>0&#45;&gt;3</title>
<path fill="none" stroke="black" d="M39.778,-271.647C39.778,-259.924 39.778,-244.114 39.778,-230.237"/>
<polygon fill="black" stroke="black" points="43.2781,-230.101 39.778,-220.101 36.2781,-230.101 43.2781,-230.101"/>
<text text-anchor="middle" x="43.278" y="-242.3" font-family="Times,serif" font-size="14.00">a</text>
</g>
<!-- 1 -->
<g id="node2" class="node"><title>1</title>
<ellipse fill="green" stroke="black" cx="35.778" cy="-106" rx="18" ry="18"/>
<text text-anchor="middle" x="35.778" y="-102.3" font-family="Times,serif" font-size="14.00">1</text>
</g>
<!-- 1&#45;&gt;1 -->
<g id="edge3" class="edge"><title>1&#45;&gt;1</title>
<path fill="none" stroke="black" d="M52.0683,-113.668C62.1672,-115.517 71.778,-112.961 71.778,-106 71.778,-101.541 67.8337,-98.8891 62.3436,-98.0454"/>
<polygon fill="black" stroke="black" points="61.9667,-94.5544 52.0683,-98.3321 62.162,-101.552 61.9667,-94.5544"/>
<text text-anchor="middle" x="75.278" y="-102.3" font-family="Times,serif" font-size="14.00">a</text>
</g>
<!-- 1&#45;&gt;2 -->
<g id="edge4" class="edge"><title>1&#45;&gt;2</title>
<path fill="none" stroke="black" d="M35.778,-87.5966C35.778,-75.7459 35.778,-59.8169 35.778,-46.2917"/>
<polygon fill="black" stroke="black" points="39.2781,-46.084 35.778,-36.084 32.2781,-46.084 39.2781,-46.084"/>
<text text-anchor="middle" x="39.278" y="-58.3" font-family="Times,serif" font-size="14.00">b</text>
</g>
<!-- 2&#45;&gt;0 -->
<g id="edge5" class="edge"><title>2&#45;&gt;0</title>
<path fill="none" stroke="black" d="M48.5433,-30.7563C61.2917,-43.4458 80.067,-64.9558 87.778,-88 108.769,-150.73 74.6256,-227.362 53.8771,-265.333"/>
<polygon fill="black" stroke="black" points="50.7856,-263.69 48.9324,-274.122 56.8863,-267.123 50.7856,-263.69"/>
<text text-anchor="middle" x="97.278" y="-146.3" font-family="Times,serif" font-size="14.00">b</text>
</g>
<!-- 2&#45;&gt;2 -->
<g id="edge6" class="edge"><title>2&#45;&gt;2</title>
<path fill="none" stroke="black" d="M52.0683,-25.6679C62.1672,-27.5169 71.778,-24.9609 71.778,-18 71.778,-13.5406 67.8337,-10.8891 62.3436,-10.0454"/>
<polygon fill="black" stroke="black" points="61.9667,-6.55441 52.0683,-10.3321 62.162,-13.5517 61.9667,-6.55441"/>
<text text-anchor="middle" x="75.278" y="-14.3" font-family="Times,serif" font-size="14.00">a</text>
</g>
<!-- 3&#45;&gt;1 -->
<g id="edge7" class="edge"><title>3&#45;&gt;1</title>
<path fill="none" stroke="black" d="M38.83,-175.671C38.2795,-163.284 37.5803,-147.552 36.9901,-134.272"/>
<polygon fill="black" stroke="black" points="40.4857,-134.093 36.545,-124.258 33.4926,-134.404 40.4857,-134.093"/>
<text text-anchor="middle" x="47.278" y="-146.3" font-family="Times,serif" font-size="14.00">b,a</text>
</g>
</g>
</svg>
