<?xml version="1.0" encoding="UTF-8" standalone="no"?>
<!DOCTYPE svg PUBLIC "-//W3C//DTD SVG 1.1//EN"
 "http://www.w3.org/Graphics/SVG/1.1/DTD/svg11.dtd">
<!-- Generated by graphviz version 2.36.0 (20140111.2315)
 -->
<!-- Title: %3 Pages: 1 -->
<svg width="91pt" height="316pt"
 viewBox="0.00 0.00 91.00 316.00" xmlns="http://www.w3.org/2000/svg" xmlns:xlink="http://www.w3.org/1999/xlink">
<g id="graph0" class="graph" transform="scale(1 1) rotate(0) translate(4 312)">
<title>%3</title>
<polygon fill="white" stroke="none" points="-4,4 -4,-312 87,-312 87,4 -4,4"/>
<!-- 0 -->
<g id="node1" class="node"><title>0</title>
<ellipse fill="green" stroke="black" cx="57" cy="-290" rx="18" ry="18"/>
<text text-anchor="middle" x="57" y="-286.3" font-family="Times,serif" font-size="14.00">0</text>
</g>
<!-- 1 -->
<g id="node2" class="node"><title>1</title>
<ellipse fill="lightblue" stroke="black" cx="21" cy="-198" rx="17.5909" ry="18"/>
<ellipse fill="none" stroke="black" cx="21" cy="-198" rx="21.5" ry="22"/>
<text text-anchor="middle" x="21" y="-194.3" font-family="Times,serif" font-size="14.00">1</text>
</g>
<!-- 0&#45;&gt;1 -->
<g id="edge1" class="edge"><title>0&#45;&gt;1</title>
<path fill="none" stroke="black" d="M41.8581,-280.039C33.1094,-273.929 22.8934,-264.967 18,-254 14.63,-246.447 13.8793,-237.721 14.3628,-229.475"/>
<polygon fill="black" stroke="black" points="17.8544,-229.75 15.5311,-219.413 10.9011,-228.942 17.8544,-229.75"/>
<text text-anchor="middle" x="26.5" y="-242.3" font-family="Times,serif" font-size="14.00">b,a</text>
</g>
<!-- 1&#45;&gt;0 -->
<g id="edge2" class="edge"><title>1&#45;&gt;0</title>
<path fill="none" stroke="black" d="M28.8878,-218.72C34.1196,-231.799 41.0385,-249.096 46.703,-263.258"/>
<polygon fill="black" stroke="black" points="43.6003,-264.925 50.5639,-272.91 50.0996,-262.325 43.6003,-264.925"/>
<text text-anchor="middle" x="45.5" y="-242.3" font-family="Times,serif" font-size="14.00">b</text>
</g>
<!-- 2 -->
<g id="node3" class="node"><title>2</title>
<ellipse fill="lightblue" stroke="black" cx="64" cy="-106" rx="18" ry="18"/>
<text text-anchor="middle" x="64" y="-102.3" font-family="Times,serif" font-size="14.00">2</text>
</g>
<!-- 1&#45;&gt;2 -->
<g id="edge3" class="edge"><title>1&#45;&gt;2</title>
<path fill="none" stroke="black" d="M30.1192,-177.913C36.5289,-164.498 45.1657,-146.421 52.1149,-131.876"/>
<polygon fill="black" stroke="black" points="55.455,-133.003 56.608,-122.472 49.1389,-129.986 55.455,-133.003"/>
<text text-anchor="middle" x="49.5" y="-146.3" font-family="Times,serif" font-size="14.00">a</text>
</g>
<!-- 2&#45;&gt;0 -->
<g id="edge4" class="edge"><title>2&#45;&gt;0</title>
<path fill="none" stroke="black" d="M63.3381,-124.209C62.1213,-155.847 59.5198,-223.486 58.0563,-261.537"/>
<polygon fill="black" stroke="black" points="54.5456,-261.751 57.6585,-271.878 61.5404,-262.02 54.5456,-261.751"/>
<text text-anchor="middle" x="64.5" y="-194.3" font-family="Times,serif" font-size="14.00">a</text>
</g>
<!-- 3 -->
<g id="node4" class="node"><title>3</title>
<ellipse fill="lightblue" stroke="black" cx="40" cy="-18" rx="18" ry="18"/>
<text text-anchor="middle" x="40" y="-14.3" font-family="Times,serif" font-size="14.00">3</text>
</g>
<!-- 2&#45;&gt;3 -->
<g id="edge5" class="edge"><title>2&#45;&gt;3</title>
<path fill="none" stroke="black" d="M59.3726,-88.4183C55.9528,-76.164 51.2287,-59.2361 47.3017,-45.1645"/>
<polygon fill="black" stroke="black" points="50.6725,-44.2219 44.6132,-35.5308 43.9301,-46.1035 50.6725,-44.2219"/>
<text text-anchor="middle" x="57.5" y="-58.3" font-family="Times,serif" font-size="14.00">b</text>
</g>
<!-- 3&#45;&gt;1 -->
<g id="edge6" class="edge"><title>3&#45;&gt;1</title>
<path fill="none" stroke="black" d="M37.2424,-35.9759C35.049,-49.9196 32.0228,-70.2002 30,-88 27.0336,-114.104 24.6447,-143.83 23.0756,-165.639"/>
<polygon fill="black" stroke="black" points="19.5812,-165.438 22.3723,-175.658 26.5641,-165.928 19.5812,-165.438"/>
<text text-anchor="middle" x="33.5" y="-102.3" font-family="Times,serif" font-size="14.00">a</text>
</g>
<!-- 3&#45;&gt;3 -->
<g id="edge7" class="edge"><title>3&#45;&gt;3</title>
<path fill="none" stroke="black" d="M56.2903,-25.6679C66.3892,-27.5169 76,-24.9609 76,-18 76,-13.5406 72.0557,-10.8891 66.5656,-10.0454"/>
<polygon fill="black" stroke="black" points="66.1887,-6.55441 56.2903,-10.3321 66.384,-13.5517 66.1887,-6.55441"/>
<text text-anchor="middle" x="79.5" y="-14.3" font-family="Times,serif" font-size="14.00">b</text>
</g>
</g>
</svg>
