<?xml version="1.0" encoding="UTF-8" standalone="no"?>
<!DOCTYPE svg PUBLIC "-//W3C//DTD SVG 1.1//EN"
 "http://www.w3.org/Graphics/SVG/1.1/DTD/svg11.dtd">
<!-- Generated by graphviz version 2.36.0 (20140111.2315)
 -->
<!-- Title: %3 Pages: 1 -->
<svg width="168pt" height="404pt"
 viewBox="0.00 0.00 168.00 404.00" xmlns="http://www.w3.org/2000/svg" xmlns:xlink="http://www.w3.org/1999/xlink">
<g id="graph0" class="graph" transform="scale(1 1) rotate(0) translate(4 400)">
<title>%3</title>
<polygon fill="white" stroke="none" points="-4,4 -4,-400 164,-400 164,4 -4,4"/>
<!-- 0 -->
<g id="node1" class="node"><title>0</title>
<ellipse fill="green" stroke="black" cx="96" cy="-374" rx="17.5909" ry="18"/>
<ellipse fill="none" stroke="black" cx="96" cy="-374" rx="21.5" ry="22"/>
<text text-anchor="middle" x="96" y="-370.3" font-family="Times,serif" font-size="14.00">0</text>
</g>
<!-- 1 -->
<g id="node2" class="node"><title>1</title>
<ellipse fill="lightblue" stroke="black" cx="55" cy="-282" rx="18" ry="18"/>
<text text-anchor="middle" x="55" y="-278.3" font-family="Times,serif" font-size="14.00">1</text>
</g>
<!-- 0&#45;&gt;1 -->
<g id="edge1" class="edge"><title>0&#45;&gt;1</title>
<path fill="none" stroke="black" d="M78.704,-360.116C70.929,-353.289 62.5036,-344.206 58,-334 54.7996,-326.748 53.4683,-318.343 53.0909,-310.475"/>
<polygon fill="black" stroke="black" points="56.5908,-310.233 53.0818,-300.236 49.5908,-310.239 56.5908,-310.233"/>
<text text-anchor="middle" x="61.5" y="-322.3" font-family="Times,serif" font-size="14.00">b</text>
</g>
<!-- 3 -->
<g id="node4" class="node"><title>3</title>
<ellipse fill="lightblue" stroke="black" cx="86" cy="-106" rx="18" ry="18"/>
<text text-anchor="middle" x="86" y="-102.3" font-family="Times,serif" font-size="14.00">3</text>
</g>
<!-- 0&#45;&gt;3 -->
<g id="edge2" class="edge"><title>0&#45;&gt;3</title>
<path fill="none" stroke="black" d="M96.7063,-351.919C97.8326,-311.229 99.2311,-219.074 92,-142 91.7581,-139.422 91.4341,-136.748 91.0615,-134.078"/>
<polygon fill="black" stroke="black" points="94.4883,-133.343 89.4537,-124.02 87.5761,-134.448 94.4883,-133.343"/>
<text text-anchor="middle" x="100.5" y="-234.3" font-family="Times,serif" font-size="14.00">a</text>
</g>
<!-- 1&#45;&gt;0 -->
<g id="edge3" class="edge"><title>1&#45;&gt;0</title>
<path fill="none" stroke="black" d="M62.1087,-298.605C67.7977,-311.092 75.9328,-328.95 82.8069,-344.04"/>
<polygon fill="black" stroke="black" points="79.7728,-345.822 87.1036,-353.471 86.143,-342.92 79.7728,-345.822"/>
<text text-anchor="middle" x="80.5" y="-322.3" font-family="Times,serif" font-size="14.00">b</text>
</g>
<!-- 4 -->
<g id="node5" class="node"><title>4</title>
<ellipse fill="lightblue" stroke="black" cx="18" cy="-194" rx="18" ry="18"/>
<text text-anchor="middle" x="18" y="-190.3" font-family="Times,serif" font-size="14.00">4</text>
</g>
<!-- 1&#45;&gt;4 -->
<g id="edge4" class="edge"><title>1&#45;&gt;4</title>
<path fill="none" stroke="black" d="M41.0732,-270.232C34.0691,-263.975 26.1955,-255.468 22,-246 18.7841,-238.743 17.3261,-230.337 16.7906,-222.469"/>
<polygon fill="black" stroke="black" points="20.2842,-222.147 16.5537,-212.231 13.2861,-222.309 20.2842,-222.147"/>
<text text-anchor="middle" x="25.5" y="-234.3" font-family="Times,serif" font-size="14.00">a</text>
</g>
<!-- 2 -->
<g id="node3" class="node"><title>2</title>
<ellipse fill="lightblue" stroke="black" cx="116" cy="-18" rx="18" ry="18"/>
<text text-anchor="middle" x="116" y="-14.3" font-family="Times,serif" font-size="14.00">2</text>
</g>
<!-- 2&#45;&gt;0 -->
<g id="edge5" class="edge"><title>2&#45;&gt;0</title>
<path fill="none" stroke="black" d="M126.307,-33.1136C137.255,-49.5291 153,-77.8562 153,-105 153,-283 153,-283 153,-283 153,-309.785 134.759,-335.067 118.915,-351.975"/>
<polygon fill="black" stroke="black" points="116.395,-349.546 111.878,-359.129 121.385,-354.454 116.395,-349.546"/>
<text text-anchor="middle" x="156.5" y="-190.3" font-family="Times,serif" font-size="14.00">a</text>
</g>
<!-- 2&#45;&gt;3 -->
<g id="edge6" class="edge"><title>2&#45;&gt;3</title>
<path fill="none" stroke="black" d="M110.383,-35.1034C106.073,-47.4565 100.038,-64.7582 95.0499,-79.0569"/>
<polygon fill="black" stroke="black" points="91.6319,-78.2292 91.6428,-88.8241 98.2413,-80.5349 91.6319,-78.2292"/>
<text text-anchor="middle" x="106.5" y="-58.3" font-family="Times,serif" font-size="14.00">b</text>
</g>
<!-- 3&#45;&gt;1 -->
<g id="edge7" class="edge"><title>3&#45;&gt;1</title>
<path fill="none" stroke="black" d="M83.0045,-123.813C77.6211,-154.03 66.2698,-217.744 59.7937,-254.093"/>
<polygon fill="black" stroke="black" points="56.3372,-253.54 58.0289,-263.999 63.2287,-254.768 56.3372,-253.54"/>
<text text-anchor="middle" x="76.5" y="-190.3" font-family="Times,serif" font-size="14.00">a</text>
</g>
<!-- 3&#45;&gt;2 -->
<g id="edge8" class="edge"><title>3&#45;&gt;2</title>
<path fill="none" stroke="black" d="M84.5293,-87.9462C84.2502,-77.7824 84.9607,-64.7996 89,-54 90.9332,-48.8314 93.9106,-43.805 97.193,-39.2487"/>
<polygon fill="black" stroke="black" points="100.16,-41.1432 103.687,-31.1524 94.6997,-36.7634 100.16,-41.1432"/>
<text text-anchor="middle" x="92.5" y="-58.3" font-family="Times,serif" font-size="14.00">b</text>
</g>
<!-- 4&#45;&gt;1 -->
<g id="edge9" class="edge"><title>4&#45;&gt;1</title>
<path fill="none" stroke="black" d="M24.8686,-210.965C30.2818,-223.547 37.9303,-241.324 44.1666,-255.82"/>
<polygon fill="black" stroke="black" points="41.0464,-257.424 48.2136,-265.226 47.4766,-254.657 41.0464,-257.424"/>
<text text-anchor="middle" x="43.5" y="-234.3" font-family="Times,serif" font-size="14.00">b</text>
</g>
<!-- 4&#45;&gt;3 -->
<g id="edge10" class="edge"><title>4&#45;&gt;3</title>
<path fill="none" stroke="black" d="M26.7385,-177.696C32.9759,-167.254 41.8505,-153.318 51,-142 55.5009,-136.432 60.7791,-130.782 65.8521,-125.692"/>
<polygon fill="black" stroke="black" points="68.2993,-128.194 73.0231,-118.711 63.4164,-123.178 68.2993,-128.194"/>
<text text-anchor="middle" x="54.5" y="-146.3" font-family="Times,serif" font-size="14.00">a</text>
</g>
</g>
</svg>
