<?xml version="1.0" encoding="UTF-8" standalone="no"?>
<!DOCTYPE svg PUBLIC "-//W3C//DTD SVG 1.1//EN"
 "http://www.w3.org/Graphics/SVG/1.1/DTD/svg11.dtd">
<!-- Generated by graphviz version 2.36.0 (20140111.2315)
 -->
<!-- Title: %3 Pages: 1 -->
<svg width="137pt" height="228pt"
 viewBox="0.00 0.00 137.00 228.00" xmlns="http://www.w3.org/2000/svg" xmlns:xlink="http://www.w3.org/1999/xlink">
<g id="graph0" class="graph" transform="scale(1 1) rotate(0) translate(4 224)">
<title>%3</title>
<polygon fill="white" stroke="none" points="-4,4 -4,-224 133,-224 133,4 -4,4"/>
<!-- 0 -->
<g id="node1" class="node"><title>0</title>
<ellipse fill="green" stroke="black" cx="81" cy="-202" rx="18" ry="18"/>
<text text-anchor="middle" x="81" y="-198.3" font-family="Times,serif" font-size="14.00">0</text>
</g>
<!-- 0&#45;&gt;0 -->
<g id="edge1" class="edge"><title>0&#45;&gt;0</title>
<path fill="none" stroke="black" d="M97.2903,-209.668C107.389,-211.517 117,-208.961 117,-202 117,-197.541 113.056,-194.889 107.566,-194.045"/>
<polygon fill="black" stroke="black" points="107.189,-190.554 97.2903,-194.332 107.384,-197.552 107.189,-190.554"/>
<text text-anchor="middle" x="120.5" y="-198.3" font-family="Times,serif" font-size="14.00">a</text>
</g>
<!-- 2 -->
<g id="node3" class="node"><title>2</title>
<ellipse fill="lightblue" stroke="black" cx="35" cy="-114" rx="18" ry="18"/>
<text text-anchor="middle" x="35" y="-110.3" font-family="Times,serif" font-size="14.00">2</text>
</g>
<!-- 0&#45;&gt;2 -->
<g id="edge2" class="edge"><title>0&#45;&gt;2</title>
<path fill="none" stroke="black" d="M72.7761,-185.625C65.9077,-172.784 55.9907,-154.243 48.0409,-139.381"/>
<polygon fill="black" stroke="black" points="50.9555,-137.409 43.1527,-130.242 44.783,-140.711 50.9555,-137.409"/>
<text text-anchor="middle" x="66.5" y="-154.3" font-family="Times,serif" font-size="14.00">b</text>
</g>
<!-- 1 -->
<g id="node2" class="node"><title>1</title>
<ellipse fill="lightblue" stroke="black" cx="18" cy="-22" rx="18" ry="18"/>
<text text-anchor="middle" x="18" y="-18.3" font-family="Times,serif" font-size="14.00">1</text>
</g>
<!-- 1&#45;&gt;2 -->
<g id="edge3" class="edge"><title>1&#45;&gt;2</title>
<path fill="none" stroke="black" d="M21.1832,-39.8524C23.6251,-52.7801 27.0452,-70.8865 29.8717,-85.8502"/>
<polygon fill="black" stroke="black" points="26.5071,-86.8951 31.8024,-96.0717 33.3855,-85.5958 26.5071,-86.8951"/>
<text text-anchor="middle" x="37.5" y="-66.3" font-family="Times,serif" font-size="14.00">b,a</text>
</g>
<!-- 2&#45;&gt;1 -->
<g id="edge4" class="edge"><title>2&#45;&gt;1</title>
<path fill="none" stroke="black" d="M24.8326,-99.0931C20.9464,-92.9488 16.9759,-85.4404 15,-78 12.636,-69.0984 12.4755,-59.1099 13.1949,-50.1123"/>
<polygon fill="black" stroke="black" points="16.677,-50.4689 14.3645,-40.1296 9.72454,-49.6543 16.677,-50.4689"/>
<text text-anchor="middle" x="18.5" y="-66.3" font-family="Times,serif" font-size="14.00">a</text>
</g>
<!-- 3 -->
<g id="node4" class="node"><title>3</title>
<ellipse fill="lightblue" stroke="black" cx="82" cy="-22" rx="17.5909" ry="18"/>
<ellipse fill="none" stroke="black" cx="82" cy="-22" rx="21.5" ry="22"/>
<text text-anchor="middle" x="82" y="-18.3" font-family="Times,serif" font-size="14.00">3</text>
</g>
<!-- 2&#45;&gt;3 -->
<g id="edge5" class="edge"><title>2&#45;&gt;3</title>
<path fill="none" stroke="black" d="M42.9729,-97.7327C49.653,-84.941 59.3629,-66.3476 67.4261,-50.9075"/>
<polygon fill="black" stroke="black" points="70.6653,-52.2656 72.192,-41.7813 64.4605,-49.0253 70.6653,-52.2656"/>
<text text-anchor="middle" x="65.5" y="-66.3" font-family="Times,serif" font-size="14.00">b</text>
</g>
<!-- 3&#45;&gt;0 -->
<g id="edge6" class="edge"><title>3&#45;&gt;0</title>
<path fill="none" stroke="black" d="M81.8814,-44.1069C81.6999,-76.4168 81.3532,-138.132 81.153,-173.771"/>
<polygon fill="black" stroke="black" points="77.6522,-173.913 81.0959,-183.933 84.6521,-173.952 77.6522,-173.913"/>
<text text-anchor="middle" x="84.5" y="-110.3" font-family="Times,serif" font-size="14.00">a</text>
</g>
<!-- 3&#45;&gt;3 -->
<g id="edge7" class="edge"><title>3&#45;&gt;3</title>
<path fill="none" stroke="black" d="M102.066,-30.7341C112.074,-31.9426 121,-29.0312 121,-22 121,-17.4956 117.337,-14.682 112.072,-13.5592"/>
<polygon fill="black" stroke="black" points="112.165,-10.0605 102.066,-13.2659 111.959,-17.0575 112.165,-10.0605"/>
<text text-anchor="middle" x="124.5" y="-18.3" font-family="Times,serif" font-size="14.00">b</text>
</g>
</g>
</svg>
