<?xml version="1.0" encoding="UTF-8" standalone="no"?>
<!DOCTYPE svg PUBLIC "-//W3C//DTD SVG 1.1//EN"
 "http://www.w3.org/Graphics/SVG/1.1/DTD/svg11.dtd">
<!-- Generated by graphviz version 2.36.0 (20140111.2315)
 -->
<!-- Title: %3 Pages: 1 -->
<svg width="137pt" height="228pt"
 viewBox="0.00 0.00 137.00 228.00" xmlns="http://www.w3.org/2000/svg" xmlns:xlink="http://www.w3.org/1999/xlink">
<g id="graph0" class="graph" transform="scale(1 1) rotate(0) translate(4 224)">
<title>%3</title>
<polygon fill="white" stroke="none" points="-4,4 -4,-224 133,-224 133,4 -4,4"/>
<!-- 0 -->
<g id="node1" class="node"><title>0</title>
<ellipse fill="green" stroke="black" cx="22" cy="-198" rx="17.5909" ry="18"/>
<ellipse fill="none" stroke="black" cx="22" cy="-198" rx="21.5" ry="22"/>
<text text-anchor="middle" x="22" y="-194.3" font-family="Times,serif" font-size="14.00">0</text>
</g>
<!-- 0&#45;&gt;0 -->
<g id="edge1" class="edge"><title>0&#45;&gt;0</title>
<path fill="none" stroke="black" d="M42.0663,-206.734C52.0736,-207.943 61,-205.031 61,-198 61,-193.496 57.3366,-190.682 52.0725,-189.559"/>
<polygon fill="black" stroke="black" points="52.1646,-186.061 42.0663,-189.266 51.9594,-193.057 52.1646,-186.061"/>
<text text-anchor="middle" x="64.5" y="-194.3" font-family="Times,serif" font-size="14.00">a</text>
</g>
<!-- 1 -->
<g id="node2" class="node"><title>1</title>
<ellipse fill="lightblue" stroke="black" cx="53" cy="-106" rx="18" ry="18"/>
<text text-anchor="middle" x="53" y="-102.3" font-family="Times,serif" font-size="14.00">1</text>
</g>
<!-- 0&#45;&gt;1 -->
<g id="edge2" class="edge"><title>0&#45;&gt;1</title>
<path fill="none" stroke="black" d="M28.8799,-177.026C33.3583,-164.024 39.2443,-146.936 44.0807,-132.895"/>
<polygon fill="black" stroke="black" points="47.4341,-133.906 47.3816,-123.311 40.8157,-131.626 47.4341,-133.906"/>
<text text-anchor="middle" x="44.5" y="-146.3" font-family="Times,serif" font-size="14.00">b</text>
</g>
<!-- 1&#45;&gt;1 -->
<g id="edge3" class="edge"><title>1&#45;&gt;1</title>
<path fill="none" stroke="black" d="M69.2903,-113.668C79.3892,-115.517 89,-112.961 89,-106 89,-101.541 85.0557,-98.8891 79.5656,-98.0454"/>
<polygon fill="black" stroke="black" points="79.1887,-94.5544 69.2903,-98.3321 79.384,-101.552 79.1887,-94.5544"/>
<text text-anchor="middle" x="92.5" y="-102.3" font-family="Times,serif" font-size="14.00">a</text>
</g>
<!-- 3 -->
<g id="node4" class="node"><title>3</title>
<ellipse fill="lightblue" stroke="black" cx="63" cy="-18" rx="18" ry="18"/>
<text text-anchor="middle" x="63" y="-14.3" font-family="Times,serif" font-size="14.00">3</text>
</g>
<!-- 1&#45;&gt;3 -->
<g id="edge4" class="edge"><title>1&#45;&gt;3</title>
<path fill="none" stroke="black" d="M50.6015,-87.8908C49.6354,-77.9377 49.1354,-65.1877 51,-54 51.5217,-50.8695 52.2891,-47.6437 53.1877,-44.476"/>
<polygon fill="black" stroke="black" points="56.5891,-45.3348 56.3664,-34.7423 49.9349,-43.1618 56.5891,-45.3348"/>
<text text-anchor="middle" x="54.5" y="-58.3" font-family="Times,serif" font-size="14.00">b</text>
</g>
<!-- 2 -->
<g id="node3" class="node"><title>2</title>
<ellipse fill="lightblue" stroke="black" cx="111" cy="-198" rx="18" ry="18"/>
<text text-anchor="middle" x="111" y="-194.3" font-family="Times,serif" font-size="14.00">2</text>
</g>
<!-- 2&#45;&gt;1 -->
<g id="edge5" class="edge"><title>2&#45;&gt;1</title>
<path fill="none" stroke="black" d="M101.681,-182.54C92.549,-168.369 78.4865,-146.548 67.8195,-129.996"/>
<polygon fill="black" stroke="black" points="70.6546,-127.934 62.2956,-121.424 64.7706,-131.726 70.6546,-127.934"/>
<text text-anchor="middle" x="88.5" y="-146.3" font-family="Times,serif" font-size="14.00">a</text>
</g>
<!-- 2&#45;&gt;3 -->
<g id="edge6" class="edge"><title>2&#45;&gt;3</title>
<path fill="none" stroke="black" d="M112.581,-179.931C114.041,-158.084 114.717,-119.314 105,-88 99.6982,-70.9145 89.2517,-53.7238 80.1041,-40.775"/>
<polygon fill="black" stroke="black" points="82.7979,-38.53 74.0578,-32.5416 77.1558,-42.6734 82.7979,-38.53"/>
<text text-anchor="middle" x="114.5" y="-102.3" font-family="Times,serif" font-size="14.00">b</text>
</g>
<!-- 3&#45;&gt;0 -->
<g id="edge7" class="edge"><title>3&#45;&gt;0</title>
<path fill="none" stroke="black" d="M51.3564,-32.1192C40.5734,-45.2175 25.2862,-66.4503 19,-88 11.5284,-113.613 13.1929,-144.061 16.1985,-166.257"/>
<polygon fill="black" stroke="black" points="12.7824,-167.074 17.7476,-176.434 19.7027,-166.021 12.7824,-167.074"/>
<text text-anchor="middle" x="22.5" y="-102.3" font-family="Times,serif" font-size="14.00">b</text>
</g>
<!-- 3&#45;&gt;1 -->
<g id="edge8" class="edge"><title>3&#45;&gt;1</title>
<path fill="none" stroke="black" d="M61.0284,-35.9555C59.6461,-47.8438 57.7682,-63.9933 56.1762,-77.6845"/>
<polygon fill="black" stroke="black" points="52.6542,-77.6718 54.9757,-88.0092 59.6073,-78.4804 52.6542,-77.6718"/>
<text text-anchor="middle" x="62.5" y="-58.3" font-family="Times,serif" font-size="14.00">a</text>
</g>
</g>
</svg>
