<?xml version="1.0" encoding="UTF-8" standalone="no"?>
<!DOCTYPE svg PUBLIC "-//W3C//DTD SVG 1.1//EN"
 "http://www.w3.org/Graphics/SVG/1.1/DTD/svg11.dtd">
<!-- Generated by graphviz version 2.36.0 (20140111.2315)
 -->
<!-- Title: %3 Pages: 1 -->
<svg width="151pt" height="228pt"
 viewBox="0.00 0.00 151.00 228.00" xmlns="http://www.w3.org/2000/svg" xmlns:xlink="http://www.w3.org/1999/xlink">
<g id="graph0" class="graph" transform="scale(1 1) rotate(0) translate(4 224)">
<title>%3</title>
<polygon fill="white" stroke="none" points="-4,4 -4,-224 147,-224 147,4 -4,4"/>
<!-- 0 -->
<g id="node1" class="node"><title>0</title>
<ellipse fill="lightblue" stroke="black" cx="22" cy="-198" rx="17.5909" ry="18"/>
<ellipse fill="none" stroke="black" cx="22" cy="-198" rx="21.5" ry="22"/>
<text text-anchor="middle" x="22" y="-194.3" font-family="Times,serif" font-size="14.00">0</text>
</g>
<!-- 1 -->
<g id="node2" class="node"><title>1</title>
<ellipse fill="lightblue" stroke="black" cx="65" cy="-106" rx="18" ry="18"/>
<text text-anchor="middle" x="65" y="-102.3" font-family="Times,serif" font-size="14.00">1</text>
</g>
<!-- 0&#45;&gt;1 -->
<g id="edge1" class="edge"><title>0&#45;&gt;1</title>
<path fill="none" stroke="black" d="M31.1192,-177.913C37.5289,-164.498 46.1657,-146.421 53.1149,-131.876"/>
<polygon fill="black" stroke="black" points="56.455,-133.003 57.608,-122.472 50.1389,-129.986 56.455,-133.003"/>
<text text-anchor="middle" x="51.5" y="-146.3" font-family="Times,serif" font-size="14.00">b</text>
</g>
<!-- 3 -->
<g id="node4" class="node"><title>3</title>
<ellipse fill="lightblue" stroke="black" cx="55" cy="-18" rx="18" ry="18"/>
<text text-anchor="middle" x="55" y="-14.3" font-family="Times,serif" font-size="14.00">3</text>
</g>
<!-- 0&#45;&gt;3 -->
<g id="edge2" class="edge"><title>0&#45;&gt;3</title>
<path fill="none" stroke="black" d="M22.1731,-175.877C22.7187,-153.75 24.631,-118.094 31,-88 34.1289,-73.2157 39.5441,-57.2466 44.4397,-44.3982"/>
<polygon fill="black" stroke="black" points="47.794,-45.4323 48.2008,-34.8452 41.2806,-42.8678 47.794,-45.4323"/>
<text text-anchor="middle" x="34.5" y="-102.3" font-family="Times,serif" font-size="14.00">a</text>
</g>
<!-- 1&#45;&gt;1 -->
<g id="edge3" class="edge"><title>1&#45;&gt;1</title>
<path fill="none" stroke="black" d="M81.2903,-113.668C91.3892,-115.517 101,-112.961 101,-106 101,-101.541 97.0557,-98.8891 91.5656,-98.0454"/>
<polygon fill="black" stroke="black" points="91.1887,-94.5544 81.2903,-98.3321 91.384,-101.552 91.1887,-94.5544"/>
<text text-anchor="middle" x="104.5" y="-102.3" font-family="Times,serif" font-size="14.00">a</text>
</g>
<!-- 1&#45;&gt;3 -->
<g id="edge4" class="edge"><title>1&#45;&gt;3</title>
<path fill="none" stroke="black" d="M65.1192,-87.9326C64.9923,-77.9934 64.4923,-65.2434 63,-54 62.6358,-51.2562 62.1573,-48.4111 61.615,-45.5825"/>
<polygon fill="black" stroke="black" points="64.9954,-44.655 59.4621,-35.6199 58.1534,-46.1336 64.9954,-44.655"/>
<text text-anchor="middle" x="67.5" y="-58.3" font-family="Times,serif" font-size="14.00">b</text>
</g>
<!-- 2 -->
<g id="node3" class="node"><title>2</title>
<ellipse fill="green" stroke="black" cx="125" cy="-198" rx="18" ry="18"/>
<text text-anchor="middle" x="125" y="-194.3" font-family="Times,serif" font-size="14.00">2</text>
</g>
<!-- 2&#45;&gt;1 -->
<g id="edge5" class="edge"><title>2&#45;&gt;1</title>
<path fill="none" stroke="black" d="M115.36,-182.54C105.913,-168.369 91.3654,-146.548 80.3305,-129.996"/>
<polygon fill="black" stroke="black" points="83.0753,-127.803 74.6161,-121.424 77.251,-131.686 83.0753,-127.803"/>
<text text-anchor="middle" x="101.5" y="-146.3" font-family="Times,serif" font-size="14.00">b</text>
</g>
<!-- 2&#45;&gt;3 -->
<g id="edge6" class="edge"><title>2&#45;&gt;3</title>
<path fill="none" stroke="black" d="M127.045,-179.964C128.984,-157.815 129.937,-118.375 117,-88 108.296,-67.5632 90.9729,-49.1184 76.8454,-36.4518"/>
<polygon fill="black" stroke="black" points="78.8492,-33.5587 68.9859,-29.6901 74.284,-38.8652 78.8492,-33.5587"/>
<text text-anchor="middle" x="129.5" y="-102.3" font-family="Times,serif" font-size="14.00">a</text>
</g>
<!-- 3&#45;&gt;0 -->
<g id="edge7" class="edge"><title>3&#45;&gt;0</title>
<path fill="none" stroke="black" d="M43.9214,-32.4836C33.9076,-45.6842 19.9946,-66.8425 15,-88 8.8972,-113.852 11.5689,-144.048 15.2399,-166.094"/>
<polygon fill="black" stroke="black" points="11.8472,-166.999 17.0882,-176.207 18.7332,-165.74 11.8472,-166.999"/>
<text text-anchor="middle" x="18.5" y="-102.3" font-family="Times,serif" font-size="14.00">a</text>
</g>
<!-- 3&#45;&gt;1 -->
<g id="edge8" class="edge"><title>3&#45;&gt;1</title>
<path fill="none" stroke="black" d="M55.4125,-36.055C55.7999,-45.9901 56.5499,-58.7401 58,-70 58.3515,-72.7292 58.7916,-75.5647 59.2791,-78.3875"/>
<polygon fill="black" stroke="black" points="55.8664,-79.1763 61.1784,-88.3432 62.7424,-77.8645 55.8664,-79.1763"/>
<text text-anchor="middle" x="61.5" y="-58.3" font-family="Times,serif" font-size="14.00">b</text>
</g>
</g>
</svg>
