<?xml version="1.0" encoding="UTF-8" standalone="no"?>
<!DOCTYPE svg PUBLIC "-//W3C//DTD SVG 1.1//EN"
 "http://www.w3.org/Graphics/SVG/1.1/DTD/svg11.dtd">
<!-- Generated by graphviz version 2.36.0 (20140111.2315)
 -->
<!-- Title: %3 Pages: 1 -->
<svg width="158pt" height="316pt"
 viewBox="0.00 0.00 158.00 316.00" xmlns="http://www.w3.org/2000/svg" xmlns:xlink="http://www.w3.org/1999/xlink">
<g id="graph0" class="graph" transform="scale(1 1) rotate(0) translate(4 312)">
<title>%3</title>
<polygon fill="white" stroke="none" points="-4,4 -4,-312 154,-312 154,4 -4,4"/>
<!-- 0 -->
<g id="node1" class="node"><title>0</title>
<ellipse fill="lightblue" stroke="black" cx="31" cy="-286" rx="17.5909" ry="18"/>
<ellipse fill="none" stroke="black" cx="31" cy="-286" rx="21.5" ry="22"/>
<text text-anchor="middle" x="31" y="-282.3" font-family="Times,serif" font-size="14.00">0</text>
</g>
<!-- 2 -->
<g id="node3" class="node"><title>2</title>
<ellipse fill="lightblue" stroke="black" cx="53" cy="-194" rx="18" ry="18"/>
<text text-anchor="middle" x="53" y="-190.3" font-family="Times,serif" font-size="14.00">2</text>
</g>
<!-- 0&#45;&gt;2 -->
<g id="edge1" class="edge"><title>0&#45;&gt;2</title>
<path fill="none" stroke="black" d="M35.9921,-264.578C39.1037,-251.849 43.1404,-235.335 46.5003,-221.59"/>
<polygon fill="black" stroke="black" points="49.9364,-222.272 48.9111,-211.727 43.1366,-220.61 49.9364,-222.272"/>
<text text-anchor="middle" x="46.5" y="-234.3" font-family="Times,serif" font-size="14.00">b</text>
</g>
<!-- 4 -->
<g id="node5" class="node"><title>4</title>
<ellipse fill="green" stroke="black" cx="18" cy="-18" rx="18" ry="18"/>
<text text-anchor="middle" x="18" y="-14.3" font-family="Times,serif" font-size="14.00">4</text>
</g>
<!-- 0&#45;&gt;4 -->
<g id="edge2" class="edge"><title>0&#45;&gt;4</title>
<path fill="none" stroke="black" d="M28.5997,-263.971C28.0023,-258.156 27.4148,-251.839 27,-246 21.884,-173.98 19.4826,-88.8831 18.5295,-46.2402"/>
<polygon fill="black" stroke="black" points="22.0259,-46.0287 18.3127,-36.1059 15.0275,-46.1785 22.0259,-46.0287"/>
<text text-anchor="middle" x="25.5" y="-146.3" font-family="Times,serif" font-size="14.00">a</text>
</g>
<!-- 1 -->
<g id="node2" class="node"><title>1</title>
<ellipse fill="lightblue" stroke="black" cx="97" cy="-106" rx="18" ry="18"/>
<text text-anchor="middle" x="97" y="-102.3" font-family="Times,serif" font-size="14.00">1</text>
</g>
<!-- 3 -->
<g id="node4" class="node"><title>3</title>
<ellipse fill="lightblue" stroke="black" cx="132" cy="-18" rx="18" ry="18"/>
<text text-anchor="middle" x="132" y="-14.3" font-family="Times,serif" font-size="14.00">3</text>
</g>
<!-- 1&#45;&gt;3 -->
<g id="edge3" class="edge"><title>1&#45;&gt;3</title>
<path fill="none" stroke="black" d="M97.5595,-87.8756C98.4039,-77.6868 100.395,-64.7025 105,-54 107.144,-49.0169 110.163,-44.1172 113.409,-39.6347"/>
<polygon fill="black" stroke="black" points="116.296,-41.6279 119.764,-31.6169 110.81,-37.28 116.296,-41.6279"/>
<text text-anchor="middle" x="108.5" y="-58.3" font-family="Times,serif" font-size="14.00">b</text>
</g>
<!-- 1&#45;&gt;4 -->
<g id="edge4" class="edge"><title>1&#45;&gt;4</title>
<path fill="none" stroke="black" d="M85.0016,-91.9385C72.167,-77.9666 51.6422,-55.6231 36.688,-39.3439"/>
<polygon fill="black" stroke="black" points="39.1951,-36.8994 29.8525,-31.9027 34.0399,-41.6349 39.1951,-36.8994"/>
<text text-anchor="middle" x="67.5" y="-58.3" font-family="Times,serif" font-size="14.00">a</text>
</g>
<!-- 2&#45;&gt;0 -->
<g id="edge5" class="edge"><title>2&#45;&gt;0</title>
<path fill="none" stroke="black" d="M43.3313,-209.364C39.7337,-215.463 36.0343,-222.815 34,-230 31.8444,-237.613 30.7688,-246.051 30.3003,-253.984"/>
<polygon fill="black" stroke="black" points="26.8011,-253.91 29.9943,-264.012 33.7978,-254.123 26.8011,-253.91"/>
<text text-anchor="middle" x="37.5" y="-234.3" font-family="Times,serif" font-size="14.00">a</text>
</g>
<!-- 2&#45;&gt;1 -->
<g id="edge6" class="edge"><title>2&#45;&gt;1</title>
<path fill="none" stroke="black" d="M60.8663,-177.625C67.4361,-164.784 76.922,-146.243 84.5261,-131.381"/>
<polygon fill="black" stroke="black" points="87.7628,-132.739 89.2018,-122.242 81.5311,-129.55 87.7628,-132.739"/>
<text text-anchor="middle" x="81.5" y="-146.3" font-family="Times,serif" font-size="14.00">b</text>
</g>
<!-- 3&#45;&gt;0 -->
<g id="edge7" class="edge"><title>3&#45;&gt;0</title>
<path fill="none" stroke="black" d="M132.696,-36.0748C133.104,-57.1421 132.334,-93.8691 124,-124 109.432,-176.668 73.4627,-230.084 50.7671,-260.227"/>
<polygon fill="black" stroke="black" points="47.7706,-258.383 44.4675,-268.45 53.3274,-262.64 47.7706,-258.383"/>
<text text-anchor="middle" x="121.5" y="-146.3" font-family="Times,serif" font-size="14.00">b</text>
</g>
<!-- 3&#45;&gt;1 -->
<g id="edge8" class="edge"><title>3&#45;&gt;1</title>
<path fill="none" stroke="black" d="M125.565,-34.8128C120.489,-47.2852 113.307,-64.9314 107.415,-79.4095"/>
<polygon fill="black" stroke="black" points="104.111,-78.2424 103.583,-88.8241 110.595,-80.8811 104.111,-78.2424"/>
<text text-anchor="middle" x="120.5" y="-58.3" font-family="Times,serif" font-size="14.00">a</text>
</g>
<!-- 4&#45;&gt;0 -->
<g id="edge9" class="edge"><title>4&#45;&gt;0</title>
<path fill="none" stroke="black" d="M15.8128,-36.0671C15.1461,-41.7622 14.4669,-48.1473 14,-54 9.40767,-111.565 8.13855,-130.572 10,-158 12.6728,-197.382 14.888,-207.173 22,-246 22.5164,-248.819 23.1001,-251.743 23.716,-254.664"/>
<polygon fill="black" stroke="black" points="20.2994,-255.424 25.8827,-264.428 27.1332,-253.907 20.2994,-255.424"/>
<text text-anchor="middle" x="13.5" y="-146.3" font-family="Times,serif" font-size="14.00">a</text>
</g>
<!-- 4&#45;&gt;2 -->
<g id="edge10" class="edge"><title>4&#45;&gt;2</title>
<path fill="none" stroke="black" d="M21.382,-35.8135C27.46,-66.0297 40.2761,-129.744 47.5877,-166.093"/>
<polygon fill="black" stroke="black" points="44.177,-166.886 49.5803,-175.999 51.0395,-165.505 44.177,-166.886"/>
<text text-anchor="middle" x="41.5" y="-102.3" font-family="Times,serif" font-size="14.00">b</text>
</g>
</g>
</svg>
