<?xml version="1.0" encoding="UTF-8" standalone="no"?>
<!DOCTYPE svg PUBLIC "-//W3C//DTD SVG 1.1//EN"
 "http://www.w3.org/Graphics/SVG/1.1/DTD/svg11.dtd">
<!-- Generated by graphviz version 2.36.0 (20140111.2315)
 -->
<!-- Title: %3 Pages: 1 -->
<svg width="128pt" height="316pt"
 viewBox="0.00 0.00 128.00 316.00" xmlns="http://www.w3.org/2000/svg" xmlns:xlink="http://www.w3.org/1999/xlink">
<g id="graph0" class="graph" transform="scale(1 1) rotate(0) translate(4 312)">
<title>%3</title>
<polygon fill="white" stroke="none" points="-4,4 -4,-312 124,-312 124,4 -4,4"/>
<!-- 0 -->
<g id="node1" class="node"><title>0</title>
<ellipse fill="lightblue" stroke="black" cx="77" cy="-290" rx="18" ry="18"/>
<text text-anchor="middle" x="77" y="-286.3" font-family="Times,serif" font-size="14.00">0</text>
</g>
<!-- 0&#45;&gt;0 -->
<g id="edge1" class="edge"><title>0&#45;&gt;0</title>
<path fill="none" stroke="black" d="M93.2903,-297.668C103.389,-299.517 113,-296.961 113,-290 113,-285.541 109.056,-282.889 103.566,-282.045"/>
<polygon fill="black" stroke="black" points="103.189,-278.554 93.2903,-282.332 103.384,-285.552 103.189,-278.554"/>
<text text-anchor="middle" x="116.5" y="-286.3" font-family="Times,serif" font-size="14.00">b</text>
</g>
<!-- 2 -->
<g id="node3" class="node"><title>2</title>
<ellipse fill="lightblue" stroke="black" cx="77" cy="-202" rx="18" ry="18"/>
<text text-anchor="middle" x="77" y="-198.3" font-family="Times,serif" font-size="14.00">2</text>
</g>
<!-- 0&#45;&gt;2 -->
<g id="edge2" class="edge"><title>0&#45;&gt;2</title>
<path fill="none" stroke="black" d="M70.3664,-273.258C68.201,-267.332 66.0772,-260.463 65,-254 63.8309,-246.986 63.8309,-245.014 65,-238 65.5217,-234.87 66.2891,-231.644 67.1877,-228.476"/>
<polygon fill="black" stroke="black" points="70.5891,-229.335 70.3664,-218.742 63.9349,-227.162 70.5891,-229.335"/>
<text text-anchor="middle" x="68.5" y="-242.3" font-family="Times,serif" font-size="14.00">a</text>
</g>
<!-- 1 -->
<g id="node2" class="node"><title>1</title>
<ellipse fill="lightblue" stroke="black" cx="18" cy="-114" rx="18" ry="18"/>
<text text-anchor="middle" x="18" y="-110.3" font-family="Times,serif" font-size="14.00">1</text>
</g>
<!-- 1&#45;&gt;1 -->
<g id="edge3" class="edge"><title>1&#45;&gt;1</title>
<path fill="none" stroke="black" d="M34.2903,-121.668C44.3892,-123.517 54,-120.961 54,-114 54,-109.541 50.0557,-106.889 44.5656,-106.045"/>
<polygon fill="black" stroke="black" points="44.1887,-102.554 34.2903,-106.332 44.384,-109.552 44.1887,-102.554"/>
<text text-anchor="middle" x="57.5" y="-110.3" font-family="Times,serif" font-size="14.00">a</text>
</g>
<!-- 3 -->
<g id="node4" class="node"><title>3</title>
<ellipse fill="green" stroke="black" cx="72" cy="-22" rx="17.5909" ry="18"/>
<ellipse fill="none" stroke="black" cx="72" cy="-22" rx="21.5" ry="22"/>
<text text-anchor="middle" x="72" y="-18.3" font-family="Times,serif" font-size="14.00">3</text>
</g>
<!-- 1&#45;&gt;3 -->
<g id="edge4" class="edge"><title>1&#45;&gt;3</title>
<path fill="none" stroke="black" d="M26.917,-98.1383C34.7299,-85.1168 46.2815,-65.8641 55.7355,-50.1075"/>
<polygon fill="black" stroke="black" points="58.8716,-51.6834 61.0153,-41.3078 52.8691,-48.0819 58.8716,-51.6834"/>
<text text-anchor="middle" x="52.5" y="-66.3" font-family="Times,serif" font-size="14.00">b</text>
</g>
<!-- 2&#45;&gt;0 -->
<g id="edge5" class="edge"><title>2&#45;&gt;0</title>
<path fill="none" stroke="black" d="M77,-220.084C77,-231.861 77,-247.774 77,-261.342"/>
<polygon fill="black" stroke="black" points="73.5001,-261.597 77,-271.597 80.5001,-261.597 73.5001,-261.597"/>
<text text-anchor="middle" x="80.5" y="-242.3" font-family="Times,serif" font-size="14.00">a</text>
</g>
<!-- 2&#45;&gt;1 -->
<g id="edge6" class="edge"><title>2&#45;&gt;1</title>
<path fill="none" stroke="black" d="M67.2573,-186.799C58.1191,-173.479 44.2996,-153.335 33.6218,-137.771"/>
<polygon fill="black" stroke="black" points="36.3004,-135.488 27.7571,-129.222 30.5282,-139.448 36.3004,-135.488"/>
<text text-anchor="middle" x="56.5" y="-154.3" font-family="Times,serif" font-size="14.00">b</text>
</g>
<!-- 3&#45;&gt;2 -->
<g id="edge7" class="edge"><title>3&#45;&gt;2</title>
<path fill="none" stroke="black" d="M72.5929,-44.1069C73.5005,-76.4168 75.234,-138.132 76.2351,-173.771"/>
<polygon fill="black" stroke="black" points="72.7411,-174.035 76.5206,-183.933 79.7383,-173.838 72.7411,-174.035"/>
<text text-anchor="middle" x="78.5" y="-110.3" font-family="Times,serif" font-size="14.00">b</text>
</g>
<!-- 3&#45;&gt;3 -->
<g id="edge8" class="edge"><title>3&#45;&gt;3</title>
<path fill="none" stroke="black" d="M92.0663,-30.7341C102.074,-31.9426 111,-29.0312 111,-22 111,-17.4956 107.337,-14.682 102.072,-13.5592"/>
<polygon fill="black" stroke="black" points="102.165,-10.0605 92.0663,-13.2659 101.959,-17.0575 102.165,-10.0605"/>
<text text-anchor="middle" x="114.5" y="-18.3" font-family="Times,serif" font-size="14.00">a</text>
</g>
</g>
</svg>
