<?xml version="1.0" encoding="UTF-8" standalone="no"?>
<!DOCTYPE svg PUBLIC "-//W3C//DTD SVG 1.1//EN"
 "http://www.w3.org/Graphics/SVG/1.1/DTD/svg11.dtd">
<!-- Generated by graphviz version 2.36.0 (20140111.2315)
 -->
<!-- Title: %3 Pages: 1 -->
<svg width="113pt" height="316pt"
 viewBox="0.00 0.00 113.00 316.00" xmlns="http://www.w3.org/2000/svg" xmlns:xlink="http://www.w3.org/1999/xlink">
<g id="graph0" class="graph" transform="scale(1 1) rotate(0) translate(4 312)">
<title>%3</title>
<polygon fill="white" stroke="none" points="-4,4 -4,-312 109,-312 109,4 -4,4"/>
<!-- 0 -->
<g id="node1" class="node"><title>0</title>
<ellipse fill="lightblue" stroke="black" cx="87" cy="-290" rx="18" ry="18"/>
<text text-anchor="middle" x="87" y="-286.3" font-family="Times,serif" font-size="14.00">0</text>
</g>
<!-- 1 -->
<g id="node2" class="node"><title>1</title>
<ellipse fill="green" stroke="black" cx="53" cy="-198" rx="17.5909" ry="18"/>
<ellipse fill="none" stroke="black" cx="53" cy="-198" rx="21.5" ry="22"/>
<text text-anchor="middle" x="53" y="-194.3" font-family="Times,serif" font-size="14.00">1</text>
</g>
<!-- 0&#45;&gt;1 -->
<g id="edge1" class="edge"><title>0&#45;&gt;1</title>
<path fill="none" stroke="black" d="M80.9215,-272.91C76.2657,-260.586 69.7146,-243.244 64.128,-228.456"/>
<polygon fill="black" stroke="black" points="67.2578,-226.837 60.4496,-218.72 60.7095,-229.311 67.2578,-226.837"/>
<text text-anchor="middle" x="76.5" y="-242.3" font-family="Times,serif" font-size="14.00">a</text>
</g>
<!-- 3 -->
<g id="node4" class="node"><title>3</title>
<ellipse fill="lightblue" stroke="black" cx="61" cy="-18" rx="18" ry="18"/>
<text text-anchor="middle" x="61" y="-14.3" font-family="Times,serif" font-size="14.00">3</text>
</g>
<!-- 0&#45;&gt;3 -->
<g id="edge2" class="edge"><title>0&#45;&gt;3</title>
<path fill="none" stroke="black" d="M87.6752,-271.964C88.8569,-232.931 89.7651,-134.213 73,-54 72.3634,-50.9544 71.5382,-47.8083 70.6184,-44.7087"/>
<polygon fill="black" stroke="black" points="73.9224,-43.5519 67.4733,-35.146 67.2728,-45.7389 73.9224,-43.5519"/>
<text text-anchor="middle" x="88.5" y="-146.3" font-family="Times,serif" font-size="14.00">b</text>
</g>
<!-- 2 -->
<g id="node3" class="node"><title>2</title>
<ellipse fill="lightblue" stroke="black" cx="18" cy="-106" rx="18" ry="18"/>
<text text-anchor="middle" x="18" y="-102.3" font-family="Times,serif" font-size="14.00">2</text>
</g>
<!-- 1&#45;&gt;2 -->
<g id="edge3" class="edge"><title>1&#45;&gt;2</title>
<path fill="none" stroke="black" d="M37.6518,-182.053C31.6978,-175.299 25.4842,-166.853 22,-158 19.0931,-150.614 17.7284,-142.169 17.1833,-134.304"/>
<polygon fill="black" stroke="black" points="20.6755,-133.986 16.8803,-124.094 13.6786,-134.194 20.6755,-133.986"/>
<text text-anchor="middle" x="25.5" y="-146.3" font-family="Times,serif" font-size="14.00">a</text>
</g>
<!-- 1&#45;&gt;3 -->
<g id="edge4" class="edge"><title>1&#45;&gt;3</title>
<path fill="none" stroke="black" d="M53.9491,-175.882C55.4007,-143.584 58.1721,-81.9218 59.774,-46.279"/>
<polygon fill="black" stroke="black" points="63.2782,-46.2612 60.2308,-36.1141 56.2853,-45.9468 63.2782,-46.2612"/>
<text text-anchor="middle" x="60.5" y="-102.3" font-family="Times,serif" font-size="14.00">b</text>
</g>
<!-- 2&#45;&gt;1 -->
<g id="edge5" class="edge"><title>2&#45;&gt;1</title>
<path fill="none" stroke="black" d="M24.2308,-123.022C28.9986,-135.282 35.7084,-152.536 41.4489,-167.297"/>
<polygon fill="black" stroke="black" points="38.3458,-168.975 45.2324,-177.026 44.8699,-166.437 38.3458,-168.975"/>
<text text-anchor="middle" x="40.5" y="-146.3" font-family="Times,serif" font-size="14.00">b</text>
</g>
<!-- 2&#45;&gt;3 -->
<g id="edge6" class="edge"><title>2&#45;&gt;3</title>
<path fill="none" stroke="black" d="M16.2368,-87.6206C15.9347,-77.3414 16.8863,-64.3516 22,-54 25.6013,-46.71 31.4415,-40.2442 37.5184,-34.9156"/>
<polygon fill="black" stroke="black" points="40.0987,-37.3368 45.7638,-28.3837 35.752,-31.8498 40.0987,-37.3368"/>
<text text-anchor="middle" x="25.5" y="-58.3" font-family="Times,serif" font-size="14.00">a</text>
</g>
<!-- 3&#45;&gt;2 -->
<g id="edge7" class="edge"><title>3&#45;&gt;2</title>
<path fill="none" stroke="black" d="M53.234,-34.5319C46.8303,-47.3394 37.6306,-65.7389 30.2374,-80.5251"/>
<polygon fill="black" stroke="black" points="27.0292,-79.1154 25.6875,-89.6249 33.2902,-82.2459 27.0292,-79.1154"/>
<text text-anchor="middle" x="46.5" y="-58.3" font-family="Times,serif" font-size="14.00">b</text>
</g>
<!-- 3&#45;&gt;3 -->
<g id="edge8" class="edge"><title>3&#45;&gt;3</title>
<path fill="none" stroke="black" d="M77.2903,-25.6679C87.3892,-27.5169 97,-24.9609 97,-18 97,-13.5406 93.0557,-10.8891 87.5656,-10.0454"/>
<polygon fill="black" stroke="black" points="87.1887,-6.55441 77.2903,-10.3321 87.384,-13.5517 87.1887,-6.55441"/>
<text text-anchor="middle" x="100.5" y="-14.3" font-family="Times,serif" font-size="14.00">a</text>
</g>
</g>
</svg>
