<?xml version="1.0" encoding="UTF-8" standalone="no"?>
<!DOCTYPE svg PUBLIC "-//W3C//DTD SVG 1.1//EN"
 "http://www.w3.org/Graphics/SVG/1.1/DTD/svg11.dtd">
<!-- Generated by graphviz version 2.36.0 (20140111.2315)
 -->
<!-- Title: %3 Pages: 1 -->
<svg width="153pt" height="316pt"
 viewBox="0.00 0.00 152.87 316.00" xmlns="http://www.w3.org/2000/svg" xmlns:xlink="http://www.w3.org/1999/xlink">
<g id="graph0" class="graph" transform="scale(1 1) rotate(0) translate(4 312)">
<title>%3</title>
<polygon fill="white" stroke="none" points="-4,4 -4,-312 148.866,-312 148.866,4 -4,4"/>
<!-- 0 -->
<g id="node1" class="node"><title>0</title>
<ellipse fill="lightblue" stroke="black" cx="111.866" cy="-290" rx="18" ry="18"/>
<text text-anchor="middle" x="111.866" y="-286.3" font-family="Times,serif" font-size="14.00">0</text>
</g>
<!-- 3 -->
<g id="node4" class="node"><title>3</title>
<ellipse fill="lightblue" stroke="black" cx="57.8659" cy="-202" rx="18" ry="18"/>
<text text-anchor="middle" x="57.8659" y="-198.3" font-family="Times,serif" font-size="14.00">3</text>
</g>
<!-- 0&#45;&gt;3 -->
<g id="edge1" class="edge"><title>0&#45;&gt;3</title>
<path fill="none" stroke="black" d="M102.705,-274.411C94.4823,-261.315 82.2629,-241.855 72.6561,-226.555"/>
<polygon fill="black" stroke="black" points="75.353,-224.268 67.0712,-217.66 69.4248,-227.99 75.353,-224.268"/>
<text text-anchor="middle" x="92.3659" y="-242.3" font-family="Times,serif" font-size="14.00">b</text>
</g>
<!-- 4 -->
<g id="node5" class="node"><title>4</title>
<ellipse fill="lightblue" stroke="black" cx="63.8659" cy="-18" rx="18" ry="18"/>
<text text-anchor="middle" x="63.8659" y="-14.3" font-family="Times,serif" font-size="14.00">4</text>
</g>
<!-- 0&#45;&gt;4 -->
<g id="edge2" class="edge"><title>0&#45;&gt;4</title>
<path fill="none" stroke="black" d="M117.598,-272.936C129.131,-237.939 151.983,-152.761 126.866,-88 118.726,-67.0136 100.9,-48.505 86.2802,-35.9543"/>
<polygon fill="black" stroke="black" points="88.0922,-32.9138 78.1402,-29.2794 83.6536,-38.3267 88.0922,-32.9138"/>
<text text-anchor="middle" x="141.366" y="-154.3" font-family="Times,serif" font-size="14.00">a</text>
</g>
<!-- 1 -->
<g id="node2" class="node"><title>1</title>
<ellipse fill="lightblue" stroke="black" cx="96.8659" cy="-110" rx="17.5909" ry="18"/>
<ellipse fill="none" stroke="black" cx="96.8659" cy="-110" rx="21.5" ry="22"/>
<text text-anchor="middle" x="96.8659" y="-106.3" font-family="Times,serif" font-size="14.00">1</text>
</g>
<!-- 1&#45;&gt;0 -->
<g id="edge3" class="edge"><title>1&#45;&gt;0</title>
<path fill="none" stroke="black" d="M98.6445,-132.107C101.367,-164.417 106.568,-226.132 109.571,-261.771"/>
<polygon fill="black" stroke="black" points="106.1,-262.262 110.428,-271.933 113.075,-261.674 106.1,-262.262"/>
<text text-anchor="middle" x="108.366" y="-198.3" font-family="Times,serif" font-size="14.00">a</text>
</g>
<!-- 1&#45;&gt;4 -->
<g id="edge4" class="edge"><title>1&#45;&gt;4</title>
<path fill="none" stroke="black" d="M89.5421,-89.0261C84.7442,-75.9411 78.4286,-58.7167 73.2618,-44.6252"/>
<polygon fill="black" stroke="black" points="76.4693,-43.206 69.7406,-35.0221 69.8972,-45.6158 76.4693,-43.206"/>
<text text-anchor="middle" x="85.3659" y="-58.3" font-family="Times,serif" font-size="14.00">b</text>
</g>
<!-- 2 -->
<g id="node3" class="node"><title>2</title>
<ellipse fill="green" stroke="black" cx="38.8659" cy="-110" rx="18" ry="18"/>
<text text-anchor="middle" x="38.8659" y="-106.3" font-family="Times,serif" font-size="14.00">2</text>
</g>
<!-- 2&#45;&gt;3 -->
<g id="edge5" class="edge"><title>2&#45;&gt;3</title>
<path fill="none" stroke="black" d="M42.4236,-127.852C45.1793,-140.906 49.0495,-159.239 52.2261,-174.285"/>
<polygon fill="black" stroke="black" points="48.8019,-175.01 54.2921,-184.072 55.651,-173.564 48.8019,-175.01"/>
<text text-anchor="middle" x="53.3659" y="-154.3" font-family="Times,serif" font-size="14.00">b</text>
</g>
<!-- 2&#45;&gt;4 -->
<g id="edge6" class="edge"><title>2&#45;&gt;4</title>
<path fill="none" stroke="black" d="M43.4088,-92.1355C46.3566,-81.2444 50.2993,-66.7739 53.8659,-54 54.6625,-51.1468 55.5027,-48.1651 56.3437,-45.1975"/>
<polygon fill="black" stroke="black" points="59.7696,-45.9463 59.1446,-35.3699 53.0377,-44.0276 59.7696,-45.9463"/>
<text text-anchor="middle" x="57.3659" y="-58.3" font-family="Times,serif" font-size="14.00">a</text>
</g>
<!-- 3&#45;&gt;1 -->
<g id="edge7" class="edge"><title>3&#45;&gt;1</title>
<path fill="none" stroke="black" d="M64.6591,-185.323C70.0656,-172.847 77.7803,-155.044 84.3038,-139.989"/>
<polygon fill="black" stroke="black" points="87.6177,-141.144 88.3824,-130.577 81.1948,-138.361 87.6177,-141.144"/>
<text text-anchor="middle" x="82.3659" y="-154.3" font-family="Times,serif" font-size="14.00">a</text>
</g>
<!-- 3&#45;&gt;2 -->
<g id="edge8" class="edge"><title>3&#45;&gt;2</title>
<path fill="none" stroke="black" d="M46.927,-187.568C42.581,-181.389 38.0918,-173.724 35.8659,-166 33.2774,-157.018 33.103,-146.876 33.8766,-137.77"/>
<polygon fill="black" stroke="black" points="37.3695,-138.044 35.1323,-127.688 30.4232,-137.178 37.3695,-138.044"/>
<text text-anchor="middle" x="39.3659" y="-154.3" font-family="Times,serif" font-size="14.00">b</text>
</g>
<!-- 4&#45;&gt;3 -->
<g id="edge9" class="edge"><title>4&#45;&gt;3</title>
<path fill="none" stroke="black" d="M49.9521,-29.934C35.5149,-42.2538 13.8195,-63.7516 4.86585,-88 -1.90792,-106.345 -1.05002,-113.361 4.86585,-132 10.4614,-149.63 17.6236,-151.312 28.8659,-166 32.4031,-170.621 36.3091,-175.485 40.0778,-180.067"/>
<polygon fill="black" stroke="black" points="37.5136,-182.457 46.604,-187.899 42.8913,-177.976 37.5136,-182.457"/>
<text text-anchor="middle" x="8.36585" y="-106.3" font-family="Times,serif" font-size="14.00">b</text>
</g>
<!-- 4&#45;&gt;4 -->
<g id="edge10" class="edge"><title>4&#45;&gt;4</title>
<path fill="none" stroke="black" d="M80.1561,-25.6679C90.255,-27.5169 99.8659,-24.9609 99.8659,-18 99.8659,-13.5406 95.9216,-10.8891 90.4315,-10.0454"/>
<polygon fill="black" stroke="black" points="90.0546,-6.55441 80.1561,-10.3321 90.2499,-13.5517 90.0546,-6.55441"/>
<text text-anchor="middle" x="103.366" y="-14.3" font-family="Times,serif" font-size="14.00">a</text>
</g>
</g>
</svg>
