<?xml version="1.0" encoding="UTF-8" standalone="no"?>
<!DOCTYPE svg PUBLIC "-//W3C//DTD SVG 1.1//EN"
 "http://www.w3.org/Graphics/SVG/1.1/DTD/svg11.dtd">
<!-- Generated by graphviz version 2.36.0 (20140111.2315)
 -->
<!-- Title: %3 Pages: 1 -->
<svg width="140pt" height="316pt"
 viewBox="0.00 0.00 139.72 316.00" xmlns="http://www.w3.org/2000/svg" xmlns:xlink="http://www.w3.org/1999/xlink">
<g id="graph0" class="graph" transform="scale(1 1) rotate(0) translate(4 312)">
<title>%3</title>
<polygon fill="white" stroke="none" points="-4,4 -4,-312 135.723,-312 135.723,4 -4,4"/>
<!-- 0 -->
<g id="node1" class="node"><title>0</title>
<ellipse fill="lightblue" stroke="black" cx="36.7231" cy="-290" rx="18" ry="18"/>
<text text-anchor="middle" x="36.7231" y="-286.3" font-family="Times,serif" font-size="14.00">0</text>
</g>
<!-- 2 -->
<g id="node3" class="node"><title>2</title>
<ellipse fill="lightblue" stroke="black" cx="36.7231" cy="-114" rx="18" ry="18"/>
<text text-anchor="middle" x="36.7231" y="-110.3" font-family="Times,serif" font-size="14.00">2</text>
</g>
<!-- 0&#45;&gt;2 -->
<g id="edge1" class="edge"><title>0&#45;&gt;2</title>
<path fill="none" stroke="black" d="M27.2156,-274.668C18.8936,-261.202 7.42026,-240.16 2.72307,-220 -0.907691,-204.417 -0.907691,-199.583 2.72307,-184 6.50284,-167.778 14.6703,-150.984 22.0528,-138.026"/>
<polygon fill="black" stroke="black" points="25.1191,-139.717 27.2156,-129.332 19.1003,-136.143 25.1191,-139.717"/>
<text text-anchor="middle" x="6.22307" y="-198.3" font-family="Times,serif" font-size="14.00">b</text>
</g>
<!-- 3 -->
<g id="node4" class="node"><title>3</title>
<ellipse fill="green" stroke="black" cx="36.7231" cy="-202" rx="18" ry="18"/>
<text text-anchor="middle" x="36.7231" y="-198.3" font-family="Times,serif" font-size="14.00">3</text>
</g>
<!-- 0&#45;&gt;3 -->
<g id="edge2" class="edge"><title>0&#45;&gt;3</title>
<path fill="none" stroke="black" d="M36.7231,-271.597C36.7231,-259.746 36.7231,-243.817 36.7231,-230.292"/>
<polygon fill="black" stroke="black" points="40.2232,-230.084 36.7231,-220.084 33.2232,-230.084 40.2232,-230.084"/>
<text text-anchor="middle" x="40.2231" y="-242.3" font-family="Times,serif" font-size="14.00">a</text>
</g>
<!-- 1 -->
<g id="node2" class="node"><title>1</title>
<ellipse fill="lightblue" stroke="black" cx="84.7231" cy="-22" rx="17.5909" ry="18"/>
<ellipse fill="none" stroke="black" cx="84.7231" cy="-22" rx="21.5" ry="22"/>
<text text-anchor="middle" x="84.7231" y="-18.3" font-family="Times,serif" font-size="14.00">1</text>
</g>
<!-- 1&#45;&gt;0 -->
<g id="edge3" class="edge"><title>1&#45;&gt;0</title>
<path fill="none" stroke="black" d="M89.5568,-43.5288C97.2184,-80.1165 109.294,-158.525 88.7231,-220 82.3374,-239.083 68.3639,-257.115 56.5091,-269.956"/>
<polygon fill="black" stroke="black" points="53.9057,-267.614 49.4884,-277.244 58.947,-272.47 53.9057,-267.614"/>
<text text-anchor="middle" x="103.223" y="-154.3" font-family="Times,serif" font-size="14.00">a</text>
</g>
<!-- 1&#45;&gt;1 -->
<g id="edge4" class="edge"><title>1&#45;&gt;1</title>
<path fill="none" stroke="black" d="M104.789,-30.7341C114.797,-31.9426 123.723,-29.0312 123.723,-22 123.723,-17.4956 120.06,-14.682 114.796,-13.5592"/>
<polygon fill="black" stroke="black" points="114.888,-10.0605 104.789,-13.2659 114.682,-17.0575 114.888,-10.0605"/>
<text text-anchor="middle" x="127.223" y="-18.3" font-family="Times,serif" font-size="14.00">b</text>
</g>
<!-- 2&#45;&gt;1 -->
<g id="edge5" class="edge"><title>2&#45;&gt;1</title>
<path fill="none" stroke="black" d="M44.8656,-97.7327C51.6878,-84.941 61.6043,-66.3476 69.8391,-50.9075"/>
<polygon fill="black" stroke="black" points="73.0887,-52.252 74.7064,-41.7813 66.9122,-48.9578 73.0887,-52.252"/>
<text text-anchor="middle" x="66.2231" y="-66.3" font-family="Times,serif" font-size="14.00">b</text>
</g>
<!-- 2&#45;&gt;2 -->
<g id="edge6" class="edge"><title>2&#45;&gt;2</title>
<path fill="none" stroke="black" d="M53.0133,-121.668C63.1122,-123.517 72.7231,-120.961 72.7231,-114 72.7231,-109.541 68.7788,-106.889 63.2887,-106.045"/>
<polygon fill="black" stroke="black" points="62.9118,-102.554 53.0133,-106.332 63.1071,-109.552 62.9118,-102.554"/>
<text text-anchor="middle" x="76.2231" y="-110.3" font-family="Times,serif" font-size="14.00">a</text>
</g>
<!-- 3&#45;&gt;2 -->
<g id="edge7" class="edge"><title>3&#45;&gt;2</title>
<path fill="none" stroke="black" d="M36.7231,-183.597C36.7231,-171.746 36.7231,-155.817 36.7231,-142.292"/>
<polygon fill="black" stroke="black" points="40.2232,-142.084 36.7231,-132.084 33.2232,-142.084 40.2232,-142.084"/>
<text text-anchor="middle" x="40.2231" y="-154.3" font-family="Times,serif" font-size="14.00">a</text>
</g>
<!-- 3&#45;&gt;3 -->
<g id="edge8" class="edge"><title>3&#45;&gt;3</title>
<path fill="none" stroke="black" d="M53.0133,-209.668C63.1122,-211.517 72.7231,-208.961 72.7231,-202 72.7231,-197.541 68.7788,-194.889 63.2887,-194.045"/>
<polygon fill="black" stroke="black" points="62.9118,-190.554 53.0133,-194.332 63.1071,-197.552 62.9118,-190.554"/>
<text text-anchor="middle" x="76.2231" y="-198.3" font-family="Times,serif" font-size="14.00">b</text>
</g>
</g>
</svg>
