<?xml version="1.0" encoding="UTF-8" standalone="no"?>
<!DOCTYPE svg PUBLIC "-//W3C//DTD SVG 1.1//EN"
 "http://www.w3.org/Graphics/SVG/1.1/DTD/svg11.dtd">
<!-- Generated by graphviz version 2.36.0 (20140111.2315)
 -->
<!-- Title: %3 Pages: 1 -->
<svg width="145pt" height="316pt"
 viewBox="0.00 0.00 145.00 316.00" xmlns="http://www.w3.org/2000/svg" xmlns:xlink="http://www.w3.org/1999/xlink">
<g id="graph0" class="graph" transform="scale(1 1) rotate(0) translate(4 312)">
<title>%3</title>
<polygon fill="white" stroke="none" points="-4,4 -4,-312 141,-312 141,4 -4,4"/>
<!-- 0 -->
<g id="node1" class="node"><title>0</title>
<ellipse fill="lightblue" stroke="black" cx="78" cy="-286" rx="17.5909" ry="18"/>
<ellipse fill="none" stroke="black" cx="78" cy="-286" rx="21.5" ry="22"/>
<text text-anchor="middle" x="78" y="-282.3" font-family="Times,serif" font-size="14.00">0</text>
</g>
<!-- 0&#45;&gt;0 -->
<g id="edge1" class="edge"><title>0&#45;&gt;0</title>
<path fill="none" stroke="black" d="M98.0663,-294.734C108.074,-295.943 117,-293.031 117,-286 117,-281.496 113.337,-278.682 108.072,-277.559"/>
<polygon fill="black" stroke="black" points="108.165,-274.061 98.0663,-277.266 107.959,-281.057 108.165,-274.061"/>
<text text-anchor="middle" x="120.5" y="-282.3" font-family="Times,serif" font-size="14.00">b</text>
</g>
<!-- 1 -->
<g id="node2" class="node"><title>1</title>
<ellipse fill="lightblue" stroke="black" cx="18" cy="-194" rx="18" ry="18"/>
<text text-anchor="middle" x="18" y="-190.3" font-family="Times,serif" font-size="14.00">1</text>
</g>
<!-- 0&#45;&gt;1 -->
<g id="edge2" class="edge"><title>0&#45;&gt;1</title>
<path fill="none" stroke="black" d="M66.1459,-267.219C56.7248,-253.087 43.4792,-233.219 33.2653,-217.898"/>
<polygon fill="black" stroke="black" points="36.1128,-215.859 27.6536,-209.48 30.2884,-219.742 36.1128,-215.859"/>
<text text-anchor="middle" x="55.5" y="-234.3" font-family="Times,serif" font-size="14.00">a</text>
</g>
<!-- 2 -->
<g id="node3" class="node"><title>2</title>
<ellipse fill="lightblue" stroke="black" cx="74" cy="-18" rx="18" ry="18"/>
<text text-anchor="middle" x="74" y="-14.3" font-family="Times,serif" font-size="14.00">2</text>
</g>
<!-- 0&#45;&gt;2 -->
<g id="edge3" class="edge"><title>0&#45;&gt;2</title>
<path fill="none" stroke="black" d="M78.7825,-263.947C80.1698,-225.453 83.0077,-141.128 84,-70 84.0992,-62.8896 84.9863,-61.0424 84,-54 83.5891,-51.0663 82.9934,-48.0336 82.2944,-45.0363"/>
<polygon fill="black" stroke="black" points="85.6195,-43.9235 79.638,-35.1786 78.8606,-45.7449 85.6195,-43.9235"/>
<text text-anchor="middle" x="85.5" y="-146.3" font-family="Times,serif" font-size="14.00">c</text>
</g>
<!-- 1&#45;&gt;1 -->
<g id="edge4" class="edge"><title>1&#45;&gt;1</title>
<path fill="none" stroke="black" d="M34.2903,-201.668C44.3892,-203.517 54,-200.961 54,-194 54,-189.541 50.0557,-186.889 44.5656,-186.045"/>
<polygon fill="black" stroke="black" points="44.1887,-182.554 34.2903,-186.332 44.384,-189.552 44.1887,-182.554"/>
<text text-anchor="middle" x="62" y="-190.3" font-family="Times,serif" font-size="14.00">c,a</text>
</g>
<!-- 3 -->
<g id="node4" class="node"><title>3</title>
<ellipse fill="green" stroke="black" cx="44" cy="-106" rx="18" ry="18"/>
<text text-anchor="middle" x="44" y="-102.3" font-family="Times,serif" font-size="14.00">3</text>
</g>
<!-- 1&#45;&gt;3 -->
<g id="edge5" class="edge"><title>1&#45;&gt;3</title>
<path fill="none" stroke="black" d="M23.0131,-176.418C26.7179,-164.164 31.8356,-147.236 36.0898,-133.165"/>
<polygon fill="black" stroke="black" points="39.4586,-134.116 39.0023,-123.531 32.7581,-132.09 39.4586,-134.116"/>
<text text-anchor="middle" x="37.5" y="-146.3" font-family="Times,serif" font-size="14.00">b</text>
</g>
<!-- 2&#45;&gt;2 -->
<g id="edge6" class="edge"><title>2&#45;&gt;2</title>
<path fill="none" stroke="black" d="M90.2903,-25.6679C100.389,-27.5169 110,-24.9609 110,-18 110,-13.5406 106.056,-10.8891 100.566,-10.0454"/>
<polygon fill="black" stroke="black" points="100.189,-6.55441 90.2903,-10.3321 100.384,-13.5517 100.189,-6.55441"/>
<text text-anchor="middle" x="123.5" y="-14.3" font-family="Times,serif" font-size="14.00">b,c,a</text>
</g>
<!-- 3&#45;&gt;2 -->
<g id="edge7" class="edge"><title>3&#45;&gt;2</title>
<path fill="none" stroke="black" d="M47.3805,-88.2043C49.6286,-78.132 52.9172,-65.1548 57,-54 58.2451,-50.5982 59.7145,-47.0858 61.2596,-43.6584"/>
<polygon fill="black" stroke="black" points="64.5366,-44.9184 65.6913,-34.3867 58.221,-41.8997 64.5366,-44.9184"/>
<text text-anchor="middle" x="70.5" y="-58.3" font-family="Times,serif" font-size="14.00">b,c,a</text>
</g>
</g>
</svg>
