<?xml version="1.0" encoding="UTF-8" standalone="no"?>
<!DOCTYPE svg PUBLIC "-//W3C//DTD SVG 1.1//EN"
 "http://www.w3.org/Graphics/SVG/1.1/DTD/svg11.dtd">
<!-- Generated by graphviz version 2.36.0 (20140111.2315)
 -->
<!-- Title: %3 Pages: 1 -->
<svg width="107pt" height="404pt"
 viewBox="0.00 0.00 107.00 404.00" xmlns="http://www.w3.org/2000/svg" xmlns:xlink="http://www.w3.org/1999/xlink">
<g id="graph0" class="graph" transform="scale(1 1) rotate(0) translate(4 400)">
<title>%3</title>
<polygon fill="white" stroke="none" points="-4,4 -4,-400 103,-400 103,4 -4,4"/>
<!-- 0 -->
<g id="node1" class="node"><title>0</title>
<ellipse fill="green" stroke="black" cx="72" cy="-378" rx="18" ry="18"/>
<text text-anchor="middle" x="72" y="-374.3" font-family="Times,serif" font-size="14.00">0</text>
</g>
<!-- 1 -->
<g id="node2" class="node"><title>1</title>
<ellipse fill="lightblue" stroke="black" cx="18" cy="-290" rx="18" ry="18"/>
<text text-anchor="middle" x="18" y="-286.3" font-family="Times,serif" font-size="14.00">1</text>
</g>
<!-- 0&#45;&gt;1 -->
<g id="edge1" class="edge"><title>0&#45;&gt;1</title>
<path fill="none" stroke="black" d="M62.8396,-362.411C54.6164,-349.315 42.3971,-329.855 32.7902,-314.555"/>
<polygon fill="black" stroke="black" points="35.4871,-312.268 27.2053,-305.66 29.5589,-315.99 35.4871,-312.268"/>
<text text-anchor="middle" x="53.5" y="-330.3" font-family="Times,serif" font-size="14.00">b</text>
</g>
<!-- 4 -->
<g id="node5" class="node"><title>4</title>
<ellipse fill="lightblue" stroke="black" cx="72" cy="-202" rx="18" ry="18"/>
<text text-anchor="middle" x="72" y="-198.3" font-family="Times,serif" font-size="14.00">4</text>
</g>
<!-- 0&#45;&gt;4 -->
<g id="edge2" class="edge"><title>0&#45;&gt;4</title>
<path fill="none" stroke="black" d="M72,-359.999C72,-329.853 72,-266.79 72,-230.43"/>
<polygon fill="black" stroke="black" points="75.5001,-230.07 72,-220.07 68.5001,-230.07 75.5001,-230.07"/>
<text text-anchor="middle" x="75.5" y="-286.3" font-family="Times,serif" font-size="14.00">a</text>
</g>
<!-- 1&#45;&gt;4 -->
<g id="edge3" class="edge"><title>1&#45;&gt;4</title>
<path fill="none" stroke="black" d="M23.8748,-272.737C27.9595,-262.389 33.9298,-248.928 41,-238 44.3897,-232.761 48.5391,-227.512 52.6862,-222.732"/>
<polygon fill="black" stroke="black" points="55.386,-224.966 59.5288,-215.214 50.2092,-220.254 55.386,-224.966"/>
<text text-anchor="middle" x="49.5" y="-242.3" font-family="Times,serif" font-size="14.00">b,a</text>
</g>
<!-- 2 -->
<g id="node3" class="node"><title>2</title>
<ellipse fill="lightblue" stroke="black" cx="61" cy="-114" rx="18" ry="18"/>
<text text-anchor="middle" x="61" y="-110.3" font-family="Times,serif" font-size="14.00">2</text>
</g>
<!-- 3 -->
<g id="node4" class="node"><title>3</title>
<ellipse fill="lightblue" stroke="black" cx="40" cy="-22" rx="17.5909" ry="18"/>
<ellipse fill="none" stroke="black" cx="40" cy="-22" rx="21.5" ry="22"/>
<text text-anchor="middle" x="40" y="-18.3" font-family="Times,serif" font-size="14.00">3</text>
</g>
<!-- 2&#45;&gt;3 -->
<g id="edge4" class="edge"><title>2&#45;&gt;3</title>
<path fill="none" stroke="black" d="M57.0501,-96.0717C54.2583,-84.1072 50.4381,-67.7346 47.1213,-53.5197"/>
<polygon fill="black" stroke="black" points="50.4978,-52.5874 44.817,-43.6443 43.6809,-54.178 50.4978,-52.5874"/>
<text text-anchor="middle" x="56.5" y="-66.3" font-family="Times,serif" font-size="14.00">b</text>
</g>
<!-- 2&#45;&gt;4 -->
<g id="edge5" class="edge"><title>2&#45;&gt;4</title>
<path fill="none" stroke="black" d="M53.5964,-130.762C49.8104,-140.911 46.639,-154.337 50,-166 51.2869,-170.465 53.3302,-174.911 55.665,-179.061"/>
<polygon fill="black" stroke="black" points="52.7488,-180.998 61.0611,-187.568 58.6598,-177.248 52.7488,-180.998"/>
<text text-anchor="middle" x="53.5" y="-154.3" font-family="Times,serif" font-size="14.00">a</text>
</g>
<!-- 3&#45;&gt;1 -->
<g id="edge6" class="edge"><title>3&#45;&gt;1</title>
<path fill="none" stroke="black" d="M38.2443,-44.2283C34.2772,-92.1943 24.6263,-208.882 20.2381,-261.939"/>
<polygon fill="black" stroke="black" points="16.7459,-261.701 19.4097,-271.956 23.7221,-262.278 16.7459,-261.701"/>
<text text-anchor="middle" x="33.5" y="-154.3" font-family="Times,serif" font-size="14.00">b</text>
</g>
<!-- 3&#45;&gt;2 -->
<g id="edge7" class="edge"><title>3&#45;&gt;2</title>
<path fill="none" stroke="black" d="M39.1014,-44.2218C39.1792,-54.5727 40.0473,-67.1091 43,-78 44.0068,-81.7137 45.4417,-85.4871 47.0676,-89.1143"/>
<polygon fill="black" stroke="black" points="44.0339,-90.8722 51.6546,-98.2327 50.2872,-87.7264 44.0339,-90.8722"/>
<text text-anchor="middle" x="46.5" y="-66.3" font-family="Times,serif" font-size="14.00">a</text>
</g>
<!-- 4&#45;&gt;0 -->
<g id="edge8" class="edge"><title>4&#45;&gt;0</title>
<path fill="none" stroke="black" d="M79.733,-218.642C82.2587,-224.557 84.7376,-231.445 86,-238 94.741,-283.388 94.741,-296.612 86,-342 85.3688,-345.277 84.4335,-348.638 83.3403,-351.919"/>
<polygon fill="black" stroke="black" points="80.0336,-350.767 79.733,-361.358 86.5724,-353.266 80.0336,-350.767"/>
<text text-anchor="middle" x="95.5" y="-286.3" font-family="Times,serif" font-size="14.00">a</text>
</g>
<!-- 4&#45;&gt;2 -->
<g id="edge9" class="edge"><title>4&#45;&gt;2</title>
<path fill="none" stroke="black" d="M69.8268,-184.009C68.3051,-172.112 66.2392,-155.961 64.4886,-142.275"/>
<polygon fill="black" stroke="black" points="67.9093,-141.431 63.1687,-131.956 60.9658,-142.319 67.9093,-141.431"/>
<text text-anchor="middle" x="71.5" y="-154.3" font-family="Times,serif" font-size="14.00">b</text>
</g>
</g>
</svg>
