<?xml version="1.0" encoding="UTF-8" standalone="no"?>
<!DOCTYPE svg PUBLIC "-//W3C//DTD SVG 1.1//EN"
 "http://www.w3.org/Graphics/SVG/1.1/DTD/svg11.dtd">
<!-- Generated by graphviz version 2.36.0 (20140111.2315)
 -->
<!-- Title: %3 Pages: 1 -->
<svg width="129pt" height="316pt"
 viewBox="0.00 0.00 129.00 316.00" xmlns="http://www.w3.org/2000/svg" xmlns:xlink="http://www.w3.org/1999/xlink">
<g id="graph0" class="graph" transform="scale(1 1) rotate(0) translate(4 312)">
<title>%3</title>
<polygon fill="white" stroke="none" points="-4,4 -4,-312 125,-312 125,4 -4,4"/>
<!-- 0 -->
<g id="node1" class="node"><title>0</title>
<ellipse fill="lightblue" stroke="black" cx="18" cy="-290" rx="18" ry="18"/>
<text text-anchor="middle" x="18" y="-286.3" font-family="Times,serif" font-size="14.00">0</text>
</g>
<!-- 1 -->
<g id="node2" class="node"><title>1</title>
<ellipse fill="green" stroke="black" cx="48" cy="-202" rx="18" ry="18"/>
<text text-anchor="middle" x="48" y="-198.3" font-family="Times,serif" font-size="14.00">1</text>
</g>
<!-- 0&#45;&gt;1 -->
<g id="edge1" class="edge"><title>0&#45;&gt;1</title>
<path fill="none" stroke="black" d="M23.6428,-272.824C27.9587,-260.452 33.9955,-243.146 38.9793,-228.859"/>
<polygon fill="black" stroke="black" points="42.3934,-229.698 42.3825,-219.103 35.784,-227.393 42.3934,-229.698"/>
<text text-anchor="middle" x="38.5" y="-242.3" font-family="Times,serif" font-size="14.00">b</text>
</g>
<!-- 3 -->
<g id="node4" class="node"><title>3</title>
<ellipse fill="lightblue" stroke="black" cx="47" cy="-22" rx="17.5909" ry="18"/>
<ellipse fill="none" stroke="black" cx="47" cy="-22" rx="21.5" ry="22"/>
<text text-anchor="middle" x="47" y="-18.3" font-family="Times,serif" font-size="14.00">3</text>
</g>
<!-- 0&#45;&gt;3 -->
<g id="edge2" class="edge"><title>0&#45;&gt;3</title>
<path fill="none" stroke="black" d="M15.4702,-272.01C14.2936,-262.096 13.2936,-249.346 14,-238 18.8984,-159.321 20.3671,-139.265 36,-62 36.6082,-58.9941 37.3282,-55.881 38.1043,-52.7844"/>
<polygon fill="black" stroke="black" points="41.4915,-53.6662 40.7066,-43.1005 34.7313,-51.8496 41.4915,-53.6662"/>
<text text-anchor="middle" x="24.5" y="-154.3" font-family="Times,serif" font-size="14.00">a</text>
</g>
<!-- 1&#45;&gt;0 -->
<g id="edge3" class="edge"><title>1&#45;&gt;0</title>
<path fill="none" stroke="black" d="M35.6868,-215.152C30.1568,-221.419 24.1724,-229.518 21,-238 18.223,-245.425 17.0193,-253.881 16.6289,-261.744"/>
<polygon fill="black" stroke="black" points="13.1272,-261.912 16.5293,-271.946 20.1269,-261.981 13.1272,-261.912"/>
<text text-anchor="middle" x="24.5" y="-242.3" font-family="Times,serif" font-size="14.00">b</text>
</g>
<!-- 2 -->
<g id="node3" class="node"><title>2</title>
<ellipse fill="lightblue" stroke="black" cx="74" cy="-114" rx="18" ry="18"/>
<text text-anchor="middle" x="74" y="-110.3" font-family="Times,serif" font-size="14.00">2</text>
</g>
<!-- 1&#45;&gt;2 -->
<g id="edge4" class="edge"><title>1&#45;&gt;2</title>
<path fill="none" stroke="black" d="M53.0131,-184.418C56.7179,-172.164 61.8356,-155.236 66.0898,-141.165"/>
<polygon fill="black" stroke="black" points="69.4586,-142.116 69.0023,-131.531 62.7581,-140.09 69.4586,-142.116"/>
<text text-anchor="middle" x="66.5" y="-154.3" font-family="Times,serif" font-size="14.00">a</text>
</g>
<!-- 2&#45;&gt;2 -->
<g id="edge5" class="edge"><title>2&#45;&gt;2</title>
<path fill="none" stroke="black" d="M90.2903,-121.668C100.389,-123.517 110,-120.961 110,-114 110,-109.541 106.056,-106.889 100.566,-106.045"/>
<polygon fill="black" stroke="black" points="100.189,-102.554 90.2903,-106.332 100.384,-109.552 100.189,-102.554"/>
<text text-anchor="middle" x="113.5" y="-110.3" font-family="Times,serif" font-size="14.00">b</text>
</g>
<!-- 2&#45;&gt;3 -->
<g id="edge6" class="edge"><title>2&#45;&gt;3</title>
<path fill="none" stroke="black" d="M69.0478,-96.4926C65.3864,-84.2881 60.3,-67.3335 55.9352,-52.7842"/>
<polygon fill="black" stroke="black" points="59.2811,-51.7563 53.0551,-43.1837 52.5763,-53.7678 59.2811,-51.7563"/>
<text text-anchor="middle" x="65.5" y="-66.3" font-family="Times,serif" font-size="14.00">a</text>
</g>
<!-- 3&#45;&gt;1 -->
<g id="edge7" class="edge"><title>3&#45;&gt;1</title>
<path fill="none" stroke="black" d="M44.145,-43.8912C41.5019,-65.8288 38.2281,-101.332 40,-132 40.8043,-145.92 42.514,-161.342 44.1472,-174.069"/>
<polygon fill="black" stroke="black" points="40.6851,-174.586 45.4796,-184.034 47.6234,-173.658 40.6851,-174.586"/>
<text text-anchor="middle" x="43.5" y="-110.3" font-family="Times,serif" font-size="14.00">a</text>
</g>
<!-- 3&#45;&gt;2 -->
<g id="edge8" class="edge"><title>3&#45;&gt;2</title>
<path fill="none" stroke="black" d="M60.3212,-39.4812C64.895,-46.0882 69.4913,-54.0209 72,-62 74.3387,-69.4387 75.3059,-77.7896 75.5681,-85.5467"/>
<polygon fill="black" stroke="black" points="72.0681,-85.609 75.5514,-95.6149 79.0681,-85.6208 72.0681,-85.609"/>
<text text-anchor="middle" x="77.5" y="-66.3" font-family="Times,serif" font-size="14.00">b</text>
</g>
<!-- 4 -->
<g id="node5" class="node"><title>4</title>
<ellipse fill="lightblue" stroke="black" cx="78" cy="-290" rx="18" ry="18"/>
<text text-anchor="middle" x="78" y="-286.3" font-family="Times,serif" font-size="14.00">4</text>
</g>
<!-- 4&#45;&gt;1 -->
<g id="edge9" class="edge"><title>4&#45;&gt;1</title>
<path fill="none" stroke="black" d="M72.3572,-272.824C68.0413,-260.452 62.0045,-243.146 57.0207,-228.859"/>
<polygon fill="black" stroke="black" points="60.216,-227.393 53.6175,-219.103 53.6066,-229.698 60.216,-227.393"/>
<text text-anchor="middle" x="68.5" y="-242.3" font-family="Times,serif" font-size="14.00">a</text>
</g>
<!-- 4&#45;&gt;4 -->
<g id="edge10" class="edge"><title>4&#45;&gt;4</title>
<path fill="none" stroke="black" d="M94.2903,-297.668C104.389,-299.517 114,-296.961 114,-290 114,-285.541 110.056,-282.889 104.566,-282.045"/>
<polygon fill="black" stroke="black" points="104.189,-278.554 94.2903,-282.332 104.384,-285.552 104.189,-278.554"/>
<text text-anchor="middle" x="117.5" y="-286.3" font-family="Times,serif" font-size="14.00">b</text>
</g>
</g>
</svg>
