<?xml version="1.0" encoding="UTF-8" standalone="no"?>
<!DOCTYPE svg PUBLIC "-//W3C//DTD SVG 1.1//EN"
 "http://www.w3.org/Graphics/SVG/1.1/DTD/svg11.dtd">
<!-- Generated by graphviz version 2.36.0 (20140111.2315)
 -->
<!-- Title: %3 Pages: 1 -->
<svg width="101pt" height="228pt"
 viewBox="0.00 0.00 101.00 228.00" xmlns="http://www.w3.org/2000/svg" xmlns:xlink="http://www.w3.org/1999/xlink">
<g id="graph0" class="graph" transform="scale(1 1) rotate(0) translate(4 224)">
<title>%3</title>
<polygon fill="white" stroke="none" points="-4,4 -4,-224 97,-224 97,4 -4,4"/>
<!-- 0 -->
<g id="node1" class="node"><title>0</title>
<ellipse fill="lightblue" stroke="black" cx="45" cy="-198" rx="17.5909" ry="18"/>
<ellipse fill="none" stroke="black" cx="45" cy="-198" rx="21.5" ry="22"/>
<text text-anchor="middle" x="45" y="-194.3" font-family="Times,serif" font-size="14.00">0</text>
</g>
<!-- 1 -->
<g id="node2" class="node"><title>1</title>
<ellipse fill="lightblue" stroke="black" cx="18" cy="-106" rx="18" ry="18"/>
<text text-anchor="middle" x="18" y="-102.3" font-family="Times,serif" font-size="14.00">1</text>
</g>
<!-- 0&#45;&gt;1 -->
<g id="edge1" class="edge"><title>0&#45;&gt;1</title>
<path fill="none" stroke="black" d="M30.7346,-181.104C25.6792,-174.451 20.6028,-166.332 18,-158 15.6405,-150.447 14.9285,-141.951 15.0012,-134.092"/>
<polygon fill="black" stroke="black" points="18.5061,-134.079 15.5058,-123.918 11.5147,-133.732 18.5061,-134.079"/>
<text text-anchor="middle" x="21.5" y="-146.3" font-family="Times,serif" font-size="14.00">a</text>
</g>
<!-- 2 -->
<g id="node3" class="node"><title>2</title>
<ellipse fill="green" stroke="black" cx="75" cy="-106" rx="18" ry="18"/>
<text text-anchor="middle" x="75" y="-102.3" font-family="Times,serif" font-size="14.00">2</text>
</g>
<!-- 0&#45;&gt;2 -->
<g id="edge2" class="edge"><title>0&#45;&gt;2</title>
<path fill="none" stroke="black" d="M51.658,-177.026C55.9919,-164.024 61.688,-146.936 66.3684,-132.895"/>
<polygon fill="black" stroke="black" points="69.7209,-133.905 69.5629,-123.311 63.0801,-131.691 69.7209,-133.905"/>
<text text-anchor="middle" x="65.5" y="-146.3" font-family="Times,serif" font-size="14.00">b</text>
</g>
<!-- 1&#45;&gt;0 -->
<g id="edge3" class="edge"><title>1&#45;&gt;0</title>
<path fill="none" stroke="black" d="M22.9311,-123.437C26.5746,-135.582 31.6377,-152.459 35.9953,-166.984"/>
<polygon fill="black" stroke="black" points="32.6473,-168.005 38.8733,-176.578 39.3521,-165.994 32.6473,-168.005"/>
<text text-anchor="middle" x="36.5" y="-146.3" font-family="Times,serif" font-size="14.00">a</text>
</g>
<!-- 3 -->
<g id="node4" class="node"><title>3</title>
<ellipse fill="lightblue" stroke="black" cx="45" cy="-18" rx="18" ry="18"/>
<text text-anchor="middle" x="45" y="-14.3" font-family="Times,serif" font-size="14.00">3</text>
</g>
<!-- 1&#45;&gt;3 -->
<g id="edge4" class="edge"><title>1&#45;&gt;3</title>
<path fill="none" stroke="black" d="M15.3009,-88.0153C14.3441,-77.8761 14.2861,-64.8948 18,-54 19.7805,-48.7768 22.691,-43.7265 25.9562,-39.164"/>
<polygon fill="black" stroke="black" points="28.924,-41.0588 32.4684,-31.0744 23.4713,-36.6693 28.924,-41.0588"/>
<text text-anchor="middle" x="21.5" y="-58.3" font-family="Times,serif" font-size="14.00">b</text>
</g>
<!-- 2&#45;&gt;3 -->
<g id="edge5" class="edge"><title>2&#45;&gt;3</title>
<path fill="none" stroke="black" d="M69.3572,-88.8241C65.0413,-76.4516 59.0045,-59.1462 54.0207,-44.8593"/>
<polygon fill="black" stroke="black" points="57.216,-43.3926 50.6175,-35.1034 50.6066,-45.6982 57.216,-43.3926"/>
<text text-anchor="middle" x="70.5" y="-58.3" font-family="Times,serif" font-size="14.00">b,a</text>
</g>
<!-- 3&#45;&gt;1 -->
<g id="edge6" class="edge"><title>3&#45;&gt;1</title>
<path fill="none" stroke="black" d="M39.8101,-35.5308C35.9669,-47.7721 30.6531,-64.6975 26.2328,-78.777"/>
<polygon fill="black" stroke="black" points="22.862,-77.8291 23.2059,-88.4183 29.5406,-79.9259 22.862,-77.8291"/>
<text text-anchor="middle" x="36.5" y="-58.3" font-family="Times,serif" font-size="14.00">a</text>
</g>
<!-- 3&#45;&gt;3 -->
<g id="edge7" class="edge"><title>3&#45;&gt;3</title>
<path fill="none" stroke="black" d="M61.2903,-25.6679C71.3892,-27.5169 81,-24.9609 81,-18 81,-13.5406 77.0557,-10.8891 71.5656,-10.0454"/>
<polygon fill="black" stroke="black" points="71.1887,-6.55441 61.2903,-10.3321 71.384,-13.5517 71.1887,-6.55441"/>
<text text-anchor="middle" x="84.5" y="-14.3" font-family="Times,serif" font-size="14.00">b</text>
</g>
</g>
</svg>
