<?xml version="1.0" encoding="UTF-8" standalone="no"?>
<!DOCTYPE svg PUBLIC "-//W3C//DTD SVG 1.1//EN"
 "http://www.w3.org/Graphics/SVG/1.1/DTD/svg11.dtd">
<!-- Generated by graphviz version 2.36.0 (20140111.2315)
 -->
<!-- Title: %3 Pages: 1 -->
<svg width="166pt" height="228pt"
 viewBox="0.00 0.00 166.00 228.00" xmlns="http://www.w3.org/2000/svg" xmlns:xlink="http://www.w3.org/1999/xlink">
<g id="graph0" class="graph" transform="scale(1 1) rotate(0) translate(4 224)">
<title>%3</title>
<polygon fill="white" stroke="none" points="-4,4 -4,-224 162,-224 162,4 -4,4"/>
<!-- 0 -->
<g id="node1" class="node"><title>0</title>
<ellipse fill="lightblue" stroke="black" cx="18" cy="-110" rx="18" ry="18"/>
<text text-anchor="middle" x="18" y="-106.3" font-family="Times,serif" font-size="14.00">0</text>
</g>
<!-- 0&#45;&gt;0 -->
<g id="edge1" class="edge"><title>0&#45;&gt;0</title>
<path fill="none" stroke="black" d="M34.2903,-118.365C44.3892,-120.382 54,-117.594 54,-110 54,-105.135 50.0557,-102.243 44.5656,-101.322"/>
<polygon fill="black" stroke="black" points="44.1791,-97.8323 34.2903,-101.635 44.3922,-104.829 44.1791,-97.8323"/>
<text text-anchor="middle" x="62.5" y="-106.3" font-family="Times,serif" font-size="14.00">b,a</text>
</g>
<!-- 1 -->
<g id="node2" class="node"><title>1</title>
<ellipse fill="lightblue" stroke="black" cx="72" cy="-202" rx="18" ry="18"/>
<text text-anchor="middle" x="72" y="-198.3" font-family="Times,serif" font-size="14.00">1</text>
</g>
<!-- 1&#45;&gt;0 -->
<g id="edge2" class="edge"><title>1&#45;&gt;0</title>
<path fill="none" stroke="black" d="M63.083,-186.138C54.7192,-172.199 42.0708,-151.118 32.2979,-134.83"/>
<polygon fill="black" stroke="black" points="35.0765,-132.658 26.9302,-125.884 29.074,-136.259 35.0765,-132.658"/>
<text text-anchor="middle" x="52.5" y="-154.3" font-family="Times,serif" font-size="14.00">a</text>
</g>
<!-- 2 -->
<g id="node3" class="node"><title>2</title>
<ellipse fill="green" stroke="black" cx="111" cy="-110" rx="17.5909" ry="18"/>
<ellipse fill="none" stroke="black" cx="111" cy="-110" rx="21.5" ry="22"/>
<text text-anchor="middle" x="111" y="-106.3" font-family="Times,serif" font-size="14.00">2</text>
</g>
<!-- 1&#45;&gt;2 -->
<g id="edge3" class="edge"><title>1&#45;&gt;2</title>
<path fill="none" stroke="black" d="M78.7933,-185.323C84.1998,-172.847 91.9145,-155.044 98.4379,-139.989"/>
<polygon fill="black" stroke="black" points="101.752,-141.144 102.517,-130.577 95.329,-138.361 101.752,-141.144"/>
<text text-anchor="middle" x="96.5" y="-154.3" font-family="Times,serif" font-size="14.00">b</text>
</g>
<!-- 2&#45;&gt;2 -->
<g id="edge4" class="edge"><title>2&#45;&gt;2</title>
<path fill="none" stroke="black" d="M131.066,-118.734C141.074,-119.943 150,-117.031 150,-110 150,-105.496 146.337,-102.682 141.072,-101.559"/>
<polygon fill="black" stroke="black" points="141.165,-98.0605 131.066,-101.266 140.959,-105.057 141.165,-98.0605"/>
<text text-anchor="middle" x="153.5" y="-106.3" font-family="Times,serif" font-size="14.00">b</text>
</g>
<!-- 3 -->
<g id="node4" class="node"><title>3</title>
<ellipse fill="lightblue" stroke="black" cx="111" cy="-18" rx="18" ry="18"/>
<text text-anchor="middle" x="111" y="-14.3" font-family="Times,serif" font-size="14.00">3</text>
</g>
<!-- 2&#45;&gt;3 -->
<g id="edge5" class="edge"><title>2&#45;&gt;3</title>
<path fill="none" stroke="black" d="M103.048,-89.491C99.7168,-79.0175 97.0237,-65.8575 99,-54 99.5217,-50.8695 100.289,-47.6437 101.188,-44.476"/>
<polygon fill="black" stroke="black" points="104.589,-45.3348 104.366,-34.7423 97.9349,-43.1618 104.589,-45.3348"/>
<text text-anchor="middle" x="102.5" y="-58.3" font-family="Times,serif" font-size="14.00">a</text>
</g>
<!-- 3&#45;&gt;2 -->
<g id="edge6" class="edge"><title>3&#45;&gt;2</title>
<path fill="none" stroke="black" d="M111,-36.2581C111,-47.9274 111,-63.6781 111,-77.539"/>
<polygon fill="black" stroke="black" points="107.5,-77.6712 111,-87.6713 114.5,-77.6713 107.5,-77.6712"/>
<text text-anchor="middle" x="114.5" y="-58.3" font-family="Times,serif" font-size="14.00">a</text>
</g>
<!-- 3&#45;&gt;3 -->
<g id="edge7" class="edge"><title>3&#45;&gt;3</title>
<path fill="none" stroke="black" d="M127.29,-25.6679C137.389,-27.5169 147,-24.9609 147,-18 147,-13.5406 143.056,-10.8891 137.566,-10.0454"/>
<polygon fill="black" stroke="black" points="137.189,-6.55441 127.29,-10.3321 137.384,-13.5517 137.189,-6.55441"/>
<text text-anchor="middle" x="150.5" y="-14.3" font-family="Times,serif" font-size="14.00">b</text>
</g>
</g>
</svg>
