<?xml version="1.0" encoding="UTF-8" standalone="no"?>
<!DOCTYPE svg PUBLIC "-//W3C//DTD SVG 1.1//EN"
 "http://www.w3.org/Graphics/SVG/1.1/DTD/svg11.dtd">
<!-- Generated by graphviz version 2.36.0 (20140111.2315)
 -->
<!-- Title: %3 Pages: 1 -->
<svg width="151pt" height="228pt"
 viewBox="0.00 0.00 151.00 228.00" xmlns="http://www.w3.org/2000/svg" xmlns:xlink="http://www.w3.org/1999/xlink">
<g id="graph0" class="graph" transform="scale(1 1) rotate(0) translate(4 224)">
<title>%3</title>
<polygon fill="white" stroke="none" points="-4,4 -4,-224 147,-224 147,4 -4,4"/>
<!-- 0 -->
<g id="node1" class="node"><title>0</title>
<ellipse fill="lightblue" stroke="black" cx="98" cy="-202" rx="18" ry="18"/>
<text text-anchor="middle" x="98" y="-198.3" font-family="Times,serif" font-size="14.00">0</text>
</g>
<!-- 1 -->
<g id="node2" class="node"><title>1</title>
<ellipse fill="lightblue" stroke="black" cx="100" cy="-18" rx="18" ry="18"/>
<text text-anchor="middle" x="100" y="-14.3" font-family="Times,serif" font-size="14.00">1</text>
</g>
<!-- 0&#45;&gt;1 -->
<g id="edge1" class="edge"><title>0&#45;&gt;1</title>
<path fill="none" stroke="black" d="M106.66,-185.816C109.604,-179.839 112.522,-172.789 114,-166 124.59,-117.362 123.413,-102.88 114,-54 113.369,-50.7225 112.433,-47.3619 111.34,-44.0812"/>
<polygon fill="black" stroke="black" points="114.572,-42.7341 107.733,-34.6425 108.034,-45.233 114.572,-42.7341"/>
<text text-anchor="middle" x="124.5" y="-106.3" font-family="Times,serif" font-size="14.00">b</text>
</g>
<!-- 3 -->
<g id="node4" class="node"><title>3</title>
<ellipse fill="green" stroke="black" cx="42" cy="-110" rx="17.5909" ry="18"/>
<ellipse fill="none" stroke="black" cx="42" cy="-110" rx="21.5" ry="22"/>
<text text-anchor="middle" x="42" y="-106.3" font-family="Times,serif" font-size="14.00">3</text>
</g>
<!-- 0&#45;&gt;3 -->
<g id="edge2" class="edge"><title>0&#45;&gt;3</title>
<path fill="none" stroke="black" d="M83.0213,-191.635C70.834,-183.706 55.018,-172.606 51,-166 46.6869,-158.909 44.2538,-150.394 42.925,-142.207"/>
<polygon fill="black" stroke="black" points="46.3876,-141.68 41.7741,-132.143 39.433,-142.475 46.3876,-141.68"/>
<text text-anchor="middle" x="54.5" y="-154.3" font-family="Times,serif" font-size="14.00">a</text>
</g>
<!-- 1&#45;&gt;0 -->
<g id="edge3" class="edge"><title>1&#45;&gt;0</title>
<path fill="none" stroke="black" d="M99.8109,-36.2092C99.4632,-67.8466 98.7199,-135.486 98.3018,-173.537"/>
<polygon fill="black" stroke="black" points="94.7983,-173.84 98.1882,-183.878 101.798,-173.917 94.7983,-173.84"/>
<text text-anchor="middle" x="102.5" y="-106.3" font-family="Times,serif" font-size="14.00">b</text>
</g>
<!-- 1&#45;&gt;1 -->
<g id="edge4" class="edge"><title>1&#45;&gt;1</title>
<path fill="none" stroke="black" d="M116.29,-25.6679C126.389,-27.5169 136,-24.9609 136,-18 136,-13.5406 132.056,-10.8891 126.566,-10.0454"/>
<polygon fill="black" stroke="black" points="126.189,-6.55441 116.29,-10.3321 126.384,-13.5517 126.189,-6.55441"/>
<text text-anchor="middle" x="139.5" y="-14.3" font-family="Times,serif" font-size="14.00">a</text>
</g>
<!-- 2 -->
<g id="node3" class="node"><title>2</title>
<ellipse fill="lightblue" stroke="black" cx="18" cy="-202" rx="18" ry="18"/>
<text text-anchor="middle" x="18" y="-198.3" font-family="Times,serif" font-size="14.00">2</text>
</g>
<!-- 2&#45;&gt;2 -->
<g id="edge5" class="edge"><title>2&#45;&gt;2</title>
<path fill="none" stroke="black" d="M34.2903,-209.668C44.3892,-211.517 54,-208.961 54,-202 54,-197.541 50.0557,-194.889 44.5656,-194.045"/>
<polygon fill="black" stroke="black" points="44.1887,-190.554 34.2903,-194.332 44.384,-197.552 44.1887,-190.554"/>
<text text-anchor="middle" x="57.5" y="-198.3" font-family="Times,serif" font-size="14.00">a</text>
</g>
<!-- 2&#45;&gt;3 -->
<g id="edge6" class="edge"><title>2&#45;&gt;3</title>
<path fill="none" stroke="black" d="M17.1768,-183.692C17.1524,-173.672 17.9024,-160.922 21,-150 22.1802,-145.838 23.8557,-141.623 25.7517,-137.578"/>
<polygon fill="black" stroke="black" points="28.9357,-139.041 30.447,-128.555 22.7261,-135.81 28.9357,-139.041"/>
<text text-anchor="middle" x="24.5" y="-154.3" font-family="Times,serif" font-size="14.00">b</text>
</g>
<!-- 3&#45;&gt;0 -->
<g id="edge7" class="edge"><title>3&#45;&gt;0</title>
<path fill="none" stroke="black" d="M53.1915,-128.986C61.8308,-142.871 73.8592,-162.202 83.2786,-177.341"/>
<polygon fill="black" stroke="black" points="80.498,-179.497 88.7527,-186.138 86.4414,-175.799 80.498,-179.497"/>
<text text-anchor="middle" x="78.5" y="-154.3" font-family="Times,serif" font-size="14.00">b</text>
</g>
<!-- 3&#45;&gt;1 -->
<g id="edge8" class="edge"><title>3&#45;&gt;1</title>
<path fill="none" stroke="black" d="M53.4589,-91.2189C62.5661,-77.0872 75.3701,-57.2188 85.2436,-41.8979"/>
<polygon fill="black" stroke="black" points="88.1932,-43.7821 90.6682,-33.4804 82.3092,-39.9901 88.1932,-43.7821"/>
<text text-anchor="middle" x="79.5" y="-58.3" font-family="Times,serif" font-size="14.00">a</text>
</g>
</g>
</svg>
