<?xml version="1.0" encoding="UTF-8" standalone="no"?>
<!DOCTYPE svg PUBLIC "-//W3C//DTD SVG 1.1//EN"
 "http://www.w3.org/Graphics/SVG/1.1/DTD/svg11.dtd">
<!-- Generated by graphviz version 2.36.0 (20140111.2315)
 -->
<!-- Title: %3 Pages: 1 -->
<svg width="79pt" height="316pt"
 viewBox="0.00 0.00 79.00 316.00" xmlns="http://www.w3.org/2000/svg" xmlns:xlink="http://www.w3.org/1999/xlink">
<g id="graph0" class="graph" transform="scale(1 1) rotate(0) translate(4 312)">
<title>%3</title>
<polygon fill="white" stroke="none" points="-4,4 -4,-312 75,-312 75,4 -4,4"/>
<!-- 0 -->
<g id="node1" class="node"><title>0</title>
<ellipse fill="green" stroke="black" cx="48" cy="-286" rx="17.5909" ry="18"/>
<ellipse fill="none" stroke="black" cx="48" cy="-286" rx="21.5" ry="22"/>
<text text-anchor="middle" x="48" y="-282.3" font-family="Times,serif" font-size="14.00">0</text>
</g>
<!-- 1 -->
<g id="node2" class="node"><title>1</title>
<ellipse fill="lightblue" stroke="black" cx="18" cy="-194" rx="18" ry="18"/>
<text text-anchor="middle" x="18" y="-190.3" font-family="Times,serif" font-size="14.00">1</text>
</g>
<!-- 0&#45;&gt;1 -->
<g id="edge1" class="edge"><title>0&#45;&gt;1</title>
<path fill="none" stroke="black" d="M33.9855,-269.022C28.9647,-262.357 23.8464,-254.252 21,-246 18.4152,-238.506 17.2695,-230.029 16.8732,-222.168"/>
<polygon fill="black" stroke="black" points="20.3704,-221.931 16.7325,-211.981 13.371,-222.028 20.3704,-221.931"/>
<text text-anchor="middle" x="24.5" y="-234.3" font-family="Times,serif" font-size="14.00">b</text>
</g>
<!-- 2 -->
<g id="node3" class="node"><title>2</title>
<ellipse fill="lightblue" stroke="black" cx="53" cy="-106" rx="18" ry="18"/>
<text text-anchor="middle" x="53" y="-102.3" font-family="Times,serif" font-size="14.00">2</text>
</g>
<!-- 0&#45;&gt;2 -->
<g id="edge2" class="edge"><title>0&#45;&gt;2</title>
<path fill="none" stroke="black" d="M48.5932,-263.882C49.5004,-231.584 51.2325,-169.922 52.2337,-134.279"/>
<polygon fill="black" stroke="black" points="55.737,-134.208 52.5193,-124.114 48.7398,-134.012 55.737,-134.208"/>
<text text-anchor="middle" x="53.5" y="-190.3" font-family="Times,serif" font-size="14.00">a</text>
</g>
<!-- 1&#45;&gt;0 -->
<g id="edge3" class="edge"><title>1&#45;&gt;0</title>
<path fill="none" stroke="black" d="M23.4371,-211.311C27.5236,-223.571 33.2341,-240.702 38.1207,-255.362"/>
<polygon fill="black" stroke="black" points="34.8593,-256.646 41.342,-265.026 41.5001,-254.432 34.8593,-256.646"/>
<text text-anchor="middle" x="37.5" y="-234.3" font-family="Times,serif" font-size="14.00">a</text>
</g>
<!-- 1&#45;&gt;2 -->
<g id="edge4" class="edge"><title>1&#45;&gt;2</title>
<path fill="none" stroke="black" d="M24.5832,-176.824C29.6996,-164.252 36.8887,-146.588 42.7557,-132.172"/>
<polygon fill="black" stroke="black" points="46.0367,-133.395 46.5645,-122.813 39.5531,-130.756 46.0367,-133.395"/>
<text text-anchor="middle" x="41.5" y="-146.3" font-family="Times,serif" font-size="14.00">b</text>
</g>
<!-- 3 -->
<g id="node4" class="node"><title>3</title>
<ellipse fill="lightblue" stroke="black" cx="53" cy="-18" rx="18" ry="18"/>
<text text-anchor="middle" x="53" y="-14.3" font-family="Times,serif" font-size="14.00">3</text>
</g>
<!-- 2&#45;&gt;3 -->
<g id="edge5" class="edge"><title>2&#45;&gt;3</title>
<path fill="none" stroke="black" d="M43.1343,-90.6887C39.5065,-84.5975 35.8378,-77.2374 34,-70 32.2498,-63.1076 32.2498,-60.8924 34,-54 35.005,-50.042 36.5577,-46.0474 38.3517,-42.2436"/>
<polygon fill="black" stroke="black" points="41.4996,-43.7793 43.1343,-33.3113 35.3284,-40.4751 41.4996,-43.7793"/>
<text text-anchor="middle" x="42.5" y="-58.3" font-family="Times,serif" font-size="14.00">b,a</text>
</g>
<!-- 3&#45;&gt;2 -->
<g id="edge6" class="edge"><title>3&#45;&gt;2</title>
<path fill="none" stroke="black" d="M53,-36.084C53,-47.8607 53,-63.7741 53,-77.342"/>
<polygon fill="black" stroke="black" points="49.5001,-77.5966 53,-87.5966 56.5001,-77.5967 49.5001,-77.5966"/>
<text text-anchor="middle" x="61.5" y="-58.3" font-family="Times,serif" font-size="14.00">b,a</text>
</g>
</g>
</svg>
