<?xml version="1.0" encoding="UTF-8" standalone="no"?>
<!DOCTYPE svg PUBLIC "-//W3C//DTD SVG 1.1//EN"
 "http://www.w3.org/Graphics/SVG/1.1/DTD/svg11.dtd">
<!-- Generated by graphviz version 2.36.0 (20140111.2315)
 -->
<!-- Title: %3 Pages: 1 -->
<svg width="193pt" height="404pt"
 viewBox="0.00 0.00 192.62 404.00" xmlns="http://www.w3.org/2000/svg" xmlns:xlink="http://www.w3.org/1999/xlink">
<g id="graph0" class="graph" transform="scale(1 1) rotate(0) translate(4 400)">
<title>%3</title>
<polygon fill="white" stroke="none" points="-4,4 -4,-400 188.619,-400 188.619,4 -4,4"/>
<!-- 0 -->
<g id="node1" class="node"><title>0</title>
<ellipse fill="lightblue" stroke="black" cx="80.6189" cy="-290" rx="18" ry="18"/>
<text text-anchor="middle" x="80.6189" y="-286.3" font-family="Times,serif" font-size="14.00">0</text>
</g>
<!-- 1 -->
<g id="node2" class="node"><title>1</title>
<ellipse fill="lightblue" stroke="black" cx="80.6189" cy="-198" rx="17.5909" ry="18"/>
<ellipse fill="none" stroke="black" cx="80.6189" cy="-198" rx="21.5" ry="22"/>
<text text-anchor="middle" x="80.6189" y="-194.3" font-family="Times,serif" font-size="14.00">1</text>
</g>
<!-- 0&#45;&gt;1 -->
<g id="edge1" class="edge"><title>0&#45;&gt;1</title>
<path fill="none" stroke="black" d="M80.6189,-271.647C80.6189,-259.924 80.6189,-244.114 80.6189,-230.237"/>
<polygon fill="black" stroke="black" points="84.119,-230.101 80.6189,-220.101 77.119,-230.101 84.119,-230.101"/>
<text text-anchor="middle" x="84.1189" y="-242.3" font-family="Times,serif" font-size="14.00">b</text>
</g>
<!-- 3 -->
<g id="node4" class="node"><title>3</title>
<ellipse fill="lightblue" stroke="black" cx="96.6189" cy="-18" rx="18" ry="18"/>
<text text-anchor="middle" x="96.6189" y="-14.3" font-family="Times,serif" font-size="14.00">3</text>
</g>
<!-- 0&#45;&gt;3 -->
<g id="edge2" class="edge"><title>0&#45;&gt;3</title>
<path fill="none" stroke="black" d="M66.7779,-278.246C59.3537,-271.874 50.5402,-263.251 44.6189,-254 4.24172,-190.921 -15.7806,-155.995 15.6189,-88 27.1332,-63.0659 52.5925,-43.8211 71.9163,-32.067"/>
<polygon fill="black" stroke="black" points="73.9243,-34.9487 80.8217,-26.9065 70.4145,-28.8921 73.9243,-34.9487"/>
<text text-anchor="middle" x="5.11889" y="-146.3" font-family="Times,serif" font-size="14.00">a</text>
</g>
<!-- 2 -->
<g id="node3" class="node"><title>2</title>
<ellipse fill="green" stroke="black" cx="42.6189" cy="-106" rx="18" ry="18"/>
<text text-anchor="middle" x="42.6189" y="-102.3" font-family="Times,serif" font-size="14.00">2</text>
</g>
<!-- 1&#45;&gt;2 -->
<g id="edge3" class="edge"><title>1&#45;&gt;2</title>
<path fill="none" stroke="black" d="M72.3735,-177.471C66.769,-164.198 59.3032,-146.515 53.2521,-132.184"/>
<polygon fill="black" stroke="black" points="56.4433,-130.744 49.3291,-122.893 49.9946,-133.467 56.4433,-130.744"/>
<text text-anchor="middle" x="72.1189" y="-146.3" font-family="Times,serif" font-size="14.00">b,a</text>
</g>
<!-- 2&#45;&gt;0 -->
<g id="edge4" class="edge"><title>2&#45;&gt;0</title>
<path fill="none" stroke="black" d="M40.0021,-124.178C37.1727,-146.618 34.1175,-186.94 42.6189,-220 46.8944,-236.626 56.1139,-253.538 64.4008,-266.457"/>
<polygon fill="black" stroke="black" points="61.7141,-268.736 70.186,-275.098 67.5308,-264.841 61.7141,-268.736"/>
<text text-anchor="middle" x="46.1189" y="-194.3" font-family="Times,serif" font-size="14.00">a</text>
</g>
<!-- 2&#45;&gt;3 -->
<g id="edge5" class="edge"><title>2&#45;&gt;3</title>
<path fill="none" stroke="black" d="M51.7793,-90.4113C60.0025,-77.315 72.2218,-57.8546 81.8287,-42.5548"/>
<polygon fill="black" stroke="black" points="85.06,-43.9904 87.4136,-33.6603 79.1317,-40.268 85.06,-43.9904"/>
<text text-anchor="middle" x="77.1189" y="-58.3" font-family="Times,serif" font-size="14.00">b</text>
</g>
<!-- 3&#45;&gt;0 -->
<g id="edge6" class="edge"><title>3&#45;&gt;0</title>
<path fill="none" stroke="black" d="M102.143,-35.1955C103.9,-41.0505 105.64,-47.7567 106.619,-54 115.767,-112.34 116.07,-193.792 110.619,-220 107.376,-235.592 100.417,-251.983 94.0178,-264.876"/>
<polygon fill="black" stroke="black" points="90.7931,-263.492 89.3039,-273.981 97.0095,-266.71 90.7931,-263.492"/>
<text text-anchor="middle" x="117.119" y="-146.3" font-family="Times,serif" font-size="14.00">b</text>
</g>
<!-- 3&#45;&gt;1 -->
<g id="edge7" class="edge"><title>3&#45;&gt;1</title>
<path fill="none" stroke="black" d="M95.0805,-36.1141C92.4024,-65.9087 86.8457,-127.727 83.4536,-165.464"/>
<polygon fill="black" stroke="black" points="79.9265,-165.609 82.5171,-175.882 86.8984,-166.236 79.9265,-165.609"/>
<text text-anchor="middle" x="93.1189" y="-102.3" font-family="Times,serif" font-size="14.00">a</text>
</g>
<!-- 4 -->
<g id="node5" class="node"><title>4</title>
<ellipse fill="lightblue" stroke="black" cx="147.619" cy="-378" rx="18" ry="18"/>
<text text-anchor="middle" x="147.619" y="-374.3" font-family="Times,serif" font-size="14.00">4</text>
</g>
<!-- 4&#45;&gt;0 -->
<g id="edge8" class="edge"><title>4&#45;&gt;0</title>
<path fill="none" stroke="black" d="M136.854,-363.183C126.305,-349.642 110.06,-328.79 97.738,-312.974"/>
<polygon fill="black" stroke="black" points="100.264,-310.521 91.3569,-304.783 94.7417,-314.823 100.264,-310.521"/>
<text text-anchor="middle" x="123.119" y="-330.3" font-family="Times,serif" font-size="14.00">a</text>
</g>
<!-- 4&#45;&gt;3 -->
<g id="edge9" class="edge"><title>4&#45;&gt;3</title>
<path fill="none" stroke="black" d="M156.296,-362.016C165.156,-345.275 177.619,-317.091 177.619,-291 177.619,-291 177.619,-291 177.619,-105 177.619,-71.8645 145.36,-46.3011 121.558,-31.949"/>
<polygon fill="black" stroke="black" points="123.04,-28.7641 112.622,-26.8347 119.563,-34.8395 123.04,-28.7641"/>
<text text-anchor="middle" x="181.119" y="-194.3" font-family="Times,serif" font-size="14.00">b</text>
</g>
</g>
</svg>
