<?xml version="1.0" encoding="UTF-8" standalone="no"?>
<!DOCTYPE svg PUBLIC "-//W3C//DTD SVG 1.1//EN"
 "http://www.w3.org/Graphics/SVG/1.1/DTD/svg11.dtd">
<!-- Generated by graphviz version 2.36.0 (20140111.2315)
 -->
<!-- Title: %3 Pages: 1 -->
<svg width="84pt" height="316pt"
 viewBox="0.00 0.00 84.19 316.00" xmlns="http://www.w3.org/2000/svg" xmlns:xlink="http://www.w3.org/1999/xlink">
<g id="graph0" class="graph" transform="scale(1 1) rotate(0) translate(4 312)">
<title>%3</title>
<polygon fill="white" stroke="none" points="-4,4 -4,-312 80.1878,-312 80.1878,4 -4,4"/>
<!-- 0 -->
<g id="node1" class="node"><title>0</title>
<ellipse fill="lightblue" stroke="black" cx="38.1878" cy="-290" rx="18" ry="18"/>
<text text-anchor="middle" x="38.1878" y="-286.3" font-family="Times,serif" font-size="14.00">0</text>
</g>
<!-- 2 -->
<g id="node3" class="node"><title>2</title>
<ellipse fill="lightblue" stroke="black" cx="33.1878" cy="-18" rx="18" ry="18"/>
<text text-anchor="middle" x="33.1878" y="-14.3" font-family="Times,serif" font-size="14.00">2</text>
</g>
<!-- 0&#45;&gt;2 -->
<g id="edge1" class="edge"><title>0&#45;&gt;2</title>
<path fill="none" stroke="black" d="M28.1275,-274.752C19.3204,-261.345 7.17506,-240.34 2.18784,-220 -2.82897,-199.539 2.36516,-106.005 6.18784,-88 9.42376,-72.7586 15.6419,-56.4933 21.2959,-43.5849"/>
<polygon fill="black" stroke="black" points="24.5005,-44.9929 25.4508,-34.4408 18.1275,-42.0971 24.5005,-44.9929"/>
<text text-anchor="middle" x="4.68784" y="-146.3" font-family="Times,serif" font-size="14.00">b</text>
</g>
<!-- 3 -->
<g id="node4" class="node"><title>3</title>
<ellipse fill="lightblue" stroke="black" cx="33.1878" cy="-198" rx="17.5909" ry="18"/>
<ellipse fill="none" stroke="black" cx="33.1878" cy="-198" rx="21.5" ry="22"/>
<text text-anchor="middle" x="33.1878" y="-194.3" font-family="Times,serif" font-size="14.00">3</text>
</g>
<!-- 0&#45;&gt;3 -->
<g id="edge2" class="edge"><title>0&#45;&gt;3</title>
<path fill="none" stroke="black" d="M31.5543,-273.258C29.3888,-267.332 27.265,-260.463 26.1878,-254 24.8675,-246.078 25.1514,-237.477 26.1341,-229.482"/>
<polygon fill="black" stroke="black" points="29.6187,-229.857 27.7524,-219.428 22.7077,-228.745 29.6187,-229.857"/>
<text text-anchor="middle" x="29.6878" y="-242.3" font-family="Times,serif" font-size="14.00">a</text>
</g>
<!-- 1 -->
<g id="node2" class="node"><title>1</title>
<ellipse fill="green" stroke="black" cx="33.1878" cy="-106" rx="18" ry="18"/>
<text text-anchor="middle" x="33.1878" y="-102.3" font-family="Times,serif" font-size="14.00">1</text>
</g>
<!-- 1&#45;&gt;2 -->
<g id="edge3" class="edge"><title>1&#45;&gt;2</title>
<path fill="none" stroke="black" d="M33.1878,-87.5966C33.1878,-75.7459 33.1878,-59.8169 33.1878,-46.2917"/>
<polygon fill="black" stroke="black" points="36.6879,-46.084 33.1878,-36.084 29.6879,-46.084 36.6879,-46.084"/>
<text text-anchor="middle" x="36.6878" y="-58.3" font-family="Times,serif" font-size="14.00">a</text>
</g>
<!-- 1&#45;&gt;3 -->
<g id="edge4" class="edge"><title>1&#45;&gt;3</title>
<path fill="none" stroke="black" d="M33.1878,-124.258C33.1878,-135.927 33.1878,-151.678 33.1878,-165.539"/>
<polygon fill="black" stroke="black" points="29.6879,-165.671 33.1878,-175.671 36.6879,-165.671 29.6879,-165.671"/>
<text text-anchor="middle" x="36.6878" y="-146.3" font-family="Times,serif" font-size="14.00">b</text>
</g>
<!-- 2&#45;&gt;0 -->
<g id="edge5" class="edge"><title>2&#45;&gt;0</title>
<path fill="none" stroke="black" d="M40.9787,-34.4295C47.4581,-48.1161 56.2356,-68.8509 60.1878,-88 63.2483,-102.829 67.049,-198.009 63.1878,-220 60.5452,-235.051 54.8913,-251.145 49.6278,-264"/>
<polygon fill="black" stroke="black" points="46.265,-262.963 45.5552,-273.534 52.7023,-265.713 46.265,-262.963"/>
<text text-anchor="middle" x="67.6878" y="-146.3" font-family="Times,serif" font-size="14.00">b</text>
</g>
<!-- 2&#45;&gt;2 -->
<g id="edge6" class="edge"><title>2&#45;&gt;2</title>
<path fill="none" stroke="black" d="M49.4781,-25.6679C59.577,-27.5169 69.1878,-24.9609 69.1878,-18 69.1878,-13.5406 65.2435,-10.8891 59.7535,-10.0454"/>
<polygon fill="black" stroke="black" points="59.3766,-6.55441 49.4781,-10.3321 59.5719,-13.5517 59.3766,-6.55441"/>
<text text-anchor="middle" x="72.6878" y="-14.3" font-family="Times,serif" font-size="14.00">a</text>
</g>
<!-- 3&#45;&gt;0 -->
<g id="edge7" class="edge"><title>3&#45;&gt;0</title>
<path fill="none" stroke="black" d="M34.3601,-220.101C35.0478,-232.48 35.9244,-248.258 36.6651,-261.59"/>
<polygon fill="black" stroke="black" points="33.1744,-261.857 37.2238,-271.647 40.1636,-261.468 33.1744,-261.857"/>
<text text-anchor="middle" x="38.6878" y="-242.3" font-family="Times,serif" font-size="14.00">a</text>
</g>
<!-- 3&#45;&gt;1 -->
<g id="edge8" class="edge"><title>3&#45;&gt;1</title>
<path fill="none" stroke="black" d="M25.8204,-177.22C22.7998,-166.784 20.386,-153.743 22.1878,-142 22.6407,-139.049 23.2965,-136.005 24.0657,-133.001"/>
<polygon fill="black" stroke="black" points="27.5033,-133.719 26.9881,-123.137 20.7917,-131.731 27.5033,-133.719"/>
<text text-anchor="middle" x="25.6878" y="-146.3" font-family="Times,serif" font-size="14.00">b</text>
</g>
</g>
</svg>
