<?xml version="1.0" encoding="UTF-8" standalone="no"?>
<!DOCTYPE svg PUBLIC "-//W3C//DTD SVG 1.1//EN"
 "http://www.w3.org/Graphics/SVG/1.1/DTD/svg11.dtd">
<!-- Generated by graphviz version 2.36.0 (20140111.2315)
 -->
<!-- Title: %3 Pages: 1 -->
<svg width="145pt" height="228pt"
 viewBox="0.00 0.00 145.06 228.00" xmlns="http://www.w3.org/2000/svg" xmlns:xlink="http://www.w3.org/1999/xlink">
<g id="graph0" class="graph" transform="scale(1 1) rotate(0) translate(4 224)">
<title>%3</title>
<polygon fill="white" stroke="none" points="-4,4 -4,-224 141.055,-224 141.055,4 -4,4"/>
<!-- 0 -->
<g id="node1" class="node"><title>0</title>
<ellipse fill="lightblue" stroke="black" cx="31.0555" cy="-198" rx="17.5909" ry="18"/>
<ellipse fill="none" stroke="black" cx="31.0555" cy="-198" rx="21.5" ry="22"/>
<text text-anchor="middle" x="31.0555" y="-194.3" font-family="Times,serif" font-size="14.00">0</text>
</g>
<!-- 1 -->
<g id="node2" class="node"><title>1</title>
<ellipse fill="lightblue" stroke="black" cx="84.0555" cy="-106" rx="18" ry="18"/>
<text text-anchor="middle" x="84.0555" y="-102.3" font-family="Times,serif" font-size="14.00">1</text>
</g>
<!-- 0&#45;&gt;1 -->
<g id="edge1" class="edge"><title>0&#45;&gt;1</title>
<path fill="none" stroke="black" d="M41.7808,-178.787C49.9467,-164.921 61.2546,-145.718 70.1208,-130.663"/>
<polygon fill="black" stroke="black" points="73.2172,-132.302 75.2757,-121.909 67.1854,-128.75 73.2172,-132.302"/>
<text text-anchor="middle" x="65.5555" y="-146.3" font-family="Times,serif" font-size="14.00">a</text>
</g>
<!-- 3 -->
<g id="node4" class="node"><title>3</title>
<ellipse fill="lightblue" stroke="black" cx="47.0555" cy="-18" rx="18" ry="18"/>
<text text-anchor="middle" x="47.0555" y="-14.3" font-family="Times,serif" font-size="14.00">3</text>
</g>
<!-- 0&#45;&gt;3 -->
<g id="edge2" class="edge"><title>0&#45;&gt;3</title>
<path fill="none" stroke="black" d="M20.7258,-178.626C9.87983,-157.073 -4.72983,-120.19 2.05546,-88 5.46204,-71.8388 8.2534,-67.9755 17.0555,-54 20.201,-49.0057 24.0239,-43.9843 27.8729,-39.3657"/>
<polygon fill="black" stroke="black" points="30.735,-41.41 34.6886,-31.5805 25.4682,-36.7991 30.735,-41.41"/>
<text text-anchor="middle" x="5.55546" y="-102.3" font-family="Times,serif" font-size="14.00">b</text>
</g>
<!-- 1&#45;&gt;3 -->
<g id="edge3" class="edge"><title>1&#45;&gt;3</title>
<path fill="none" stroke="black" d="M75.1967,-89.9303C71.8018,-83.8486 68.0326,-76.6969 65.0555,-70 61.5154,-62.0368 58.1763,-53.1442 55.3577,-45.0428"/>
<polygon fill="black" stroke="black" points="58.597,-43.6948 52.09,-35.3336 51.9627,-45.9277 58.597,-43.6948"/>
<text text-anchor="middle" x="73.5555" y="-58.3" font-family="Times,serif" font-size="14.00">b,a</text>
</g>
<!-- 2 -->
<g id="node3" class="node"><title>2</title>
<ellipse fill="green" stroke="black" cx="94.0555" cy="-198" rx="18" ry="18"/>
<text text-anchor="middle" x="94.0555" y="-194.3" font-family="Times,serif" font-size="14.00">2</text>
</g>
<!-- 2&#45;&gt;1 -->
<g id="edge4" class="edge"><title>2&#45;&gt;1</title>
<path fill="none" stroke="black" d="M92.1745,-180.072C90.745,-167.206 88.7491,-149.242 87.0939,-134.346"/>
<polygon fill="black" stroke="black" points="90.5449,-133.711 85.962,-124.158 83.5878,-134.484 90.5449,-133.711"/>
<text text-anchor="middle" x="92.5555" y="-146.3" font-family="Times,serif" font-size="14.00">a</text>
</g>
<!-- 2&#45;&gt;2 -->
<g id="edge5" class="edge"><title>2&#45;&gt;2</title>
<path fill="none" stroke="black" d="M110.346,-206.365C120.445,-208.382 130.055,-205.594 130.055,-198 130.055,-193.135 126.111,-190.243 120.621,-189.322"/>
<polygon fill="black" stroke="black" points="120.235,-185.832 110.346,-189.635 120.448,-192.829 120.235,-185.832"/>
<text text-anchor="middle" x="133.555" y="-194.3" font-family="Times,serif" font-size="14.00">b</text>
</g>
<!-- 3&#45;&gt;0 -->
<g id="edge6" class="edge"><title>3&#45;&gt;0</title>
<path fill="none" stroke="black" d="M45.5171,-36.1141C42.839,-65.9087 37.2823,-127.727 33.8901,-165.464"/>
<polygon fill="black" stroke="black" points="30.3631,-165.609 32.9537,-175.882 37.335,-166.236 30.3631,-165.609"/>
<text text-anchor="middle" x="43.5555" y="-102.3" font-family="Times,serif" font-size="14.00">a</text>
</g>
<!-- 3&#45;&gt;1 -->
<g id="edge7" class="edge"><title>3&#45;&gt;1</title>
<path fill="none" stroke="black" d="M61.609,-29.2356C69.1702,-35.446 77.7167,-44.0797 82.0555,-54 85.2289,-61.2559 86.4303,-69.6615 86.6498,-77.5298"/>
<polygon fill="black" stroke="black" points="83.1456,-77.6959 86.4335,-87.7677 90.1441,-77.8439 83.1456,-77.6959"/>
<text text-anchor="middle" x="88.5555" y="-58.3" font-family="Times,serif" font-size="14.00">b</text>
</g>
</g>
</svg>
