<?xml version="1.0" encoding="UTF-8" standalone="no"?>
<!DOCTYPE svg PUBLIC "-//W3C//DTD SVG 1.1//EN"
 "http://www.w3.org/Graphics/SVG/1.1/DTD/svg11.dtd">
<!-- Generated by graphviz version 2.36.0 (20140111.2315)
 -->
<!-- Title: %3 Pages: 1 -->
<svg width="178pt" height="228pt"
 viewBox="0.00 0.00 178.00 228.00" xmlns="http://www.w3.org/2000/svg" xmlns:xlink="http://www.w3.org/1999/xlink">
<g id="graph0" class="graph" transform="scale(1 1) rotate(0) translate(4 224)">
<title>%3</title>
<polygon fill="white" stroke="none" points="-4,4 -4,-224 174,-224 174,4 -4,4"/>
<!-- 0 -->
<g id="node1" class="node"><title>0</title>
<ellipse fill="lightblue" stroke="black" cx="18" cy="-202" rx="18" ry="18"/>
<text text-anchor="middle" x="18" y="-198.3" font-family="Times,serif" font-size="14.00">0</text>
</g>
<!-- 0&#45;&gt;0 -->
<g id="edge1" class="edge"><title>0&#45;&gt;0</title>
<path fill="none" stroke="black" d="M34.2903,-209.668C44.3892,-211.517 54,-208.961 54,-202 54,-197.541 50.0557,-194.889 44.5656,-194.045"/>
<polygon fill="black" stroke="black" points="44.1887,-190.554 34.2903,-194.332 44.384,-197.552 44.1887,-190.554"/>
<text text-anchor="middle" x="57.5" y="-198.3" font-family="Times,serif" font-size="14.00">a</text>
</g>
<!-- 1 -->
<g id="node2" class="node"><title>1</title>
<ellipse fill="lightblue" stroke="black" cx="18" cy="-110" rx="18" ry="18"/>
<text text-anchor="middle" x="18" y="-106.3" font-family="Times,serif" font-size="14.00">1</text>
</g>
<!-- 0&#45;&gt;1 -->
<g id="edge2" class="edge"><title>0&#45;&gt;1</title>
<path fill="none" stroke="black" d="M18,-183.647C18,-170.823 18,-153.108 18,-138.381"/>
<polygon fill="black" stroke="black" points="21.5001,-138.3 18,-128.3 14.5001,-138.3 21.5001,-138.3"/>
<text text-anchor="middle" x="21.5" y="-154.3" font-family="Times,serif" font-size="14.00">b</text>
</g>
<!-- 1&#45;&gt;1 -->
<g id="edge3" class="edge"><title>1&#45;&gt;1</title>
<path fill="none" stroke="black" d="M34.2903,-118.365C44.3892,-120.382 54,-117.594 54,-110 54,-105.135 50.0557,-102.243 44.5656,-101.322"/>
<polygon fill="black" stroke="black" points="44.1791,-97.8323 34.2903,-101.635 44.3922,-104.829 44.1791,-97.8323"/>
<text text-anchor="middle" x="57.5" y="-106.3" font-family="Times,serif" font-size="14.00">b</text>
</g>
<!-- 2 -->
<g id="node3" class="node"><title>2</title>
<ellipse fill="lightblue" stroke="black" cx="73" cy="-18" rx="18" ry="18"/>
<text text-anchor="middle" x="73" y="-14.3" font-family="Times,serif" font-size="14.00">2</text>
</g>
<!-- 1&#45;&gt;2 -->
<g id="edge4" class="edge"><title>1&#45;&gt;2</title>
<path fill="none" stroke="black" d="M18.0228,-91.5157C18.7649,-80.1051 21.1596,-65.2882 28,-54 33.0139,-45.7259 40.7598,-38.6676 48.4202,-33.1029"/>
<polygon fill="black" stroke="black" points="50.808,-35.7189 57.205,-27.2732 46.9374,-29.8864 50.808,-35.7189"/>
<text text-anchor="middle" x="31.5" y="-58.3" font-family="Times,serif" font-size="14.00">a</text>
</g>
<!-- 2&#45;&gt;1 -->
<g id="edge5" class="edge"><title>2&#45;&gt;1</title>
<path fill="none" stroke="black" d="M63.9044,-33.8837C55.3811,-47.831 42.4977,-68.9128 32.547,-85.1959"/>
<polygon fill="black" stroke="black" points="29.3102,-83.7804 27.0821,-94.1383 35.2832,-87.4306 29.3102,-83.7804"/>
<text text-anchor="middle" x="53.5" y="-58.3" font-family="Times,serif" font-size="14.00">a</text>
</g>
<!-- 2&#45;&gt;2 -->
<g id="edge6" class="edge"><title>2&#45;&gt;2</title>
<path fill="none" stroke="black" d="M89.2903,-25.6679C99.3892,-27.5169 109,-24.9609 109,-18 109,-13.5406 105.056,-10.8891 99.5656,-10.0454"/>
<polygon fill="black" stroke="black" points="99.1887,-6.55441 89.2903,-10.3321 99.384,-13.5517 99.1887,-6.55441"/>
<text text-anchor="middle" x="112.5" y="-14.3" font-family="Times,serif" font-size="14.00">b</text>
</g>
<!-- 3 -->
<g id="node4" class="node"><title>3</title>
<ellipse fill="green" stroke="black" cx="101" cy="-110" rx="17.5909" ry="18"/>
<ellipse fill="none" stroke="black" cx="101" cy="-110" rx="21.5" ry="22"/>
<text text-anchor="middle" x="101" y="-106.3" font-family="Times,serif" font-size="14.00">3</text>
</g>
<!-- 3&#45;&gt;2 -->
<g id="edge7" class="edge"><title>3&#45;&gt;2</title>
<path fill="none" stroke="black" d="M94.6464,-88.5776C90.6605,-75.7659 85.4818,-59.1201 81.1892,-45.3224"/>
<polygon fill="black" stroke="black" points="84.4265,-43.9459 78.1137,-35.437 77.7425,-46.0254 84.4265,-43.9459"/>
<text text-anchor="middle" x="91.5" y="-58.3" font-family="Times,serif" font-size="14.00">a</text>
</g>
<!-- 3&#45;&gt;3 -->
<g id="edge8" class="edge"><title>3&#45;&gt;3</title>
<path fill="none" stroke="black" d="M121.066,-118.734C131.074,-119.943 140,-117.031 140,-110 140,-105.496 136.337,-102.682 131.072,-101.559"/>
<polygon fill="black" stroke="black" points="131.165,-98.0605 121.066,-101.266 130.959,-105.057 131.165,-98.0605"/>
<text text-anchor="middle" x="143.5" y="-106.3" font-family="Times,serif" font-size="14.00">b</text>
</g>
<!-- 4 -->
<g id="node5" class="node"><title>4</title>
<ellipse fill="lightblue" stroke="black" cx="140" cy="-202" rx="18" ry="18"/>
<text text-anchor="middle" x="140" y="-198.3" font-family="Times,serif" font-size="14.00">4</text>
</g>
<!-- 4&#45;&gt;1 -->
<g id="edge9" class="edge"><title>4&#45;&gt;1</title>
<path fill="none" stroke="black" d="M126.005,-190.676C105.066,-175.229 65.3764,-145.95 40.3811,-127.511"/>
<polygon fill="black" stroke="black" points="42.3326,-124.601 32.2075,-121.481 38.177,-130.234 42.3326,-124.601"/>
<text text-anchor="middle" x="92.5" y="-154.3" font-family="Times,serif" font-size="14.00">b</text>
</g>
<!-- 4&#45;&gt;2 -->
<g id="edge10" class="edge"><title>4&#45;&gt;2</title>
<path fill="none" stroke="black" d="M147.64,-185.572C157.657,-163.035 172.261,-120.285 157,-88 144.885,-62.3704 118.067,-43.0618 97.9713,-31.4803"/>
<polygon fill="black" stroke="black" points="99.465,-28.3077 89.0145,-26.5648 96.0972,-34.4443 99.465,-28.3077"/>
<text text-anchor="middle" x="166.5" y="-106.3" font-family="Times,serif" font-size="14.00">a</text>
</g>
</g>
</svg>
