<?xml version="1.0" encoding="UTF-8" standalone="no"?>
<!DOCTYPE svg PUBLIC "-//W3C//DTD SVG 1.1//EN"
 "http://www.w3.org/Graphics/SVG/1.1/DTD/svg11.dtd">
<!-- Generated by graphviz version 2.36.0 (20140111.2315)
 -->
<!-- Title: %3 Pages: 1 -->
<svg width="177pt" height="228pt"
 viewBox="0.00 0.00 177.00 228.00" xmlns="http://www.w3.org/2000/svg" xmlns:xlink="http://www.w3.org/1999/xlink">
<g id="graph0" class="graph" transform="scale(1 1) rotate(0) translate(4 224)">
<title>%3</title>
<polygon fill="white" stroke="none" points="-4,4 -4,-224 173,-224 173,4 -4,4"/>
<!-- 0 -->
<g id="node1" class="node"><title>0</title>
<ellipse fill="green" stroke="black" cx="18" cy="-114" rx="18" ry="18"/>
<text text-anchor="middle" x="18" y="-110.3" font-family="Times,serif" font-size="14.00">0</text>
</g>
<!-- 0&#45;&gt;0 -->
<g id="edge1" class="edge"><title>0&#45;&gt;0</title>
<path fill="none" stroke="black" d="M34.2903,-121.668C44.3892,-123.517 54,-120.961 54,-114 54,-109.541 50.0557,-106.889 44.5656,-106.045"/>
<polygon fill="black" stroke="black" points="44.1887,-102.554 34.2903,-106.332 44.384,-109.552 44.1887,-102.554"/>
<text text-anchor="middle" x="57.5" y="-110.3" font-family="Times,serif" font-size="14.00">a</text>
</g>
<!-- 3 -->
<g id="node4" class="node"><title>3</title>
<ellipse fill="lightblue" stroke="black" cx="97" cy="-22" rx="17.5909" ry="18"/>
<ellipse fill="none" stroke="black" cx="97" cy="-22" rx="21.5" ry="22"/>
<text text-anchor="middle" x="97" y="-18.3" font-family="Times,serif" font-size="14.00">3</text>
</g>
<!-- 0&#45;&gt;3 -->
<g id="edge2" class="edge"><title>0&#45;&gt;3</title>
<path fill="none" stroke="black" d="M29.6567,-99.7202C41.8286,-85.8534 61.1775,-63.8105 76.0184,-46.9031"/>
<polygon fill="black" stroke="black" points="78.9241,-48.8983 82.8906,-39.074 73.6633,-44.2805 78.9241,-48.8983"/>
<text text-anchor="middle" x="66.5" y="-66.3" font-family="Times,serif" font-size="14.00">b</text>
</g>
<!-- 1 -->
<g id="node2" class="node"><title>1</title>
<ellipse fill="lightblue" stroke="black" cx="151" cy="-202" rx="18" ry="18"/>
<text text-anchor="middle" x="151" y="-198.3" font-family="Times,serif" font-size="14.00">1</text>
</g>
<!-- 2 -->
<g id="node3" class="node"><title>2</title>
<ellipse fill="lightblue" stroke="black" cx="97" cy="-114" rx="18" ry="18"/>
<text text-anchor="middle" x="97" y="-110.3" font-family="Times,serif" font-size="14.00">2</text>
</g>
<!-- 1&#45;&gt;2 -->
<g id="edge3" class="edge"><title>1&#45;&gt;2</title>
<path fill="none" stroke="black" d="M141.84,-186.411C133.616,-173.315 121.397,-153.855 111.79,-138.555"/>
<polygon fill="black" stroke="black" points="114.487,-136.268 106.205,-129.66 108.559,-139.99 114.487,-136.268"/>
<text text-anchor="middle" x="132.5" y="-154.3" font-family="Times,serif" font-size="14.00">b</text>
</g>
<!-- 1&#45;&gt;3 -->
<g id="edge4" class="edge"><title>1&#45;&gt;3</title>
<path fill="none" stroke="black" d="M153.672,-184.122C156.357,-162.94 158.835,-125.778 149,-96 142.817,-77.2793 130.016,-59.2076 118.663,-45.7282"/>
<polygon fill="black" stroke="black" points="121.079,-43.1743 111.854,-37.9642 115.816,-47.7901 121.079,-43.1743"/>
<text text-anchor="middle" x="159.5" y="-110.3" font-family="Times,serif" font-size="14.00">a</text>
</g>
<!-- 2&#45;&gt;2 -->
<g id="edge5" class="edge"><title>2&#45;&gt;2</title>
<path fill="none" stroke="black" d="M113.29,-121.668C123.389,-123.517 133,-120.961 133,-114 133,-109.541 129.056,-106.889 123.566,-106.045"/>
<polygon fill="black" stroke="black" points="123.189,-102.554 113.29,-106.332 123.384,-109.552 123.189,-102.554"/>
<text text-anchor="middle" x="136.5" y="-110.3" font-family="Times,serif" font-size="14.00">a</text>
</g>
<!-- 2&#45;&gt;3 -->
<g id="edge6" class="edge"><title>2&#45;&gt;3</title>
<path fill="none" stroke="black" d="M97,-95.6471C97,-83.9242 97,-68.1144 97,-54.2369"/>
<polygon fill="black" stroke="black" points="100.5,-54.101 97,-44.101 93.5001,-54.101 100.5,-54.101"/>
<text text-anchor="middle" x="100.5" y="-66.3" font-family="Times,serif" font-size="14.00">b</text>
</g>
<!-- 3&#45;&gt;3 -->
<g id="edge7" class="edge"><title>3&#45;&gt;3</title>
<path fill="none" stroke="black" d="M117.066,-30.7341C127.074,-31.9426 136,-29.0312 136,-22 136,-17.4956 132.337,-14.682 127.072,-13.5592"/>
<polygon fill="black" stroke="black" points="127.165,-10.0605 117.066,-13.2659 126.959,-17.0575 127.165,-10.0605"/>
<text text-anchor="middle" x="144.5" y="-18.3" font-family="Times,serif" font-size="14.00">b,a</text>
</g>
</g>
</svg>
