<?xml version="1.0" encoding="UTF-8" standalone="no"?>
<!DOCTYPE svg PUBLIC "-//W3C//DTD SVG 1.1//EN"
 "http://www.w3.org/Graphics/SVG/1.1/DTD/svg11.dtd">
<!-- Generated by graphviz version 2.36.0 (20140111.2315)
 -->
<!-- Title: %3 Pages: 1 -->
<svg width="76pt" height="316pt"
 viewBox="0.00 0.00 76.00 316.00" xmlns="http://www.w3.org/2000/svg" xmlns:xlink="http://www.w3.org/1999/xlink">
<g id="graph0" class="graph" transform="scale(1 1) rotate(0) translate(4 312)">
<title>%3</title>
<polygon fill="white" stroke="none" points="-4,4 -4,-312 72,-312 72,4 -4,4"/>
<!-- 0 -->
<g id="node1" class="node"><title>0</title>
<ellipse fill="lightblue" stroke="black" cx="21" cy="-106" rx="18" ry="18"/>
<text text-anchor="middle" x="21" y="-102.3" font-family="Times,serif" font-size="14.00">0</text>
</g>
<!-- 0&#45;&gt;0 -->
<g id="edge1" class="edge"><title>0&#45;&gt;0</title>
<path fill="none" stroke="black" d="M37.2903,-113.668C47.3892,-115.517 57,-112.961 57,-106 57,-101.541 53.0557,-98.8891 47.5656,-98.0454"/>
<polygon fill="black" stroke="black" points="47.1887,-94.5544 37.2903,-98.3321 47.384,-101.552 47.1887,-94.5544"/>
<text text-anchor="middle" x="60.5" y="-102.3" font-family="Times,serif" font-size="14.00">a</text>
</g>
<!-- 1 -->
<g id="node2" class="node"><title>1</title>
<ellipse fill="lightblue" stroke="black" cx="21" cy="-18" rx="18" ry="18"/>
<text text-anchor="middle" x="21" y="-14.3" font-family="Times,serif" font-size="14.00">1</text>
</g>
<!-- 0&#45;&gt;1 -->
<g id="edge2" class="edge"><title>0&#45;&gt;1</title>
<path fill="none" stroke="black" d="M14.3664,-89.2577C12.201,-83.3321 10.0772,-76.4629 9,-70 7.83094,-62.9856 7.83094,-61.0144 9,-54 9.52175,-50.8695 10.2891,-47.6437 11.1877,-44.476"/>
<polygon fill="black" stroke="black" points="14.5891,-45.3348 14.3664,-34.7423 7.93495,-43.1618 14.5891,-45.3348"/>
<text text-anchor="middle" x="12.5" y="-58.3" font-family="Times,serif" font-size="14.00">b</text>
</g>
<!-- 1&#45;&gt;0 -->
<g id="edge3" class="edge"><title>1&#45;&gt;0</title>
<path fill="none" stroke="black" d="M21,-36.084C21,-47.8607 21,-63.7741 21,-77.342"/>
<polygon fill="black" stroke="black" points="17.5001,-77.5966 21,-87.5966 24.5001,-77.5967 17.5001,-77.5966"/>
<text text-anchor="middle" x="29.5" y="-58.3" font-family="Times,serif" font-size="14.00">b,a</text>
</g>
<!-- 2 -->
<g id="node3" class="node"><title>2</title>
<ellipse fill="lightblue" stroke="black" cx="21" cy="-290" rx="18" ry="18"/>
<text text-anchor="middle" x="21" y="-286.3" font-family="Times,serif" font-size="14.00">2</text>
</g>
<!-- 2&#45;&gt;2 -->
<g id="edge4" class="edge"><title>2&#45;&gt;2</title>
<path fill="none" stroke="black" d="M37.2903,-297.668C47.3892,-299.517 57,-296.961 57,-290 57,-285.541 53.0557,-282.889 47.5656,-282.045"/>
<polygon fill="black" stroke="black" points="47.1887,-278.554 37.2903,-282.332 47.384,-285.552 47.1887,-278.554"/>
<text text-anchor="middle" x="60.5" y="-286.3" font-family="Times,serif" font-size="14.00">a</text>
</g>
<!-- 3 -->
<g id="node4" class="node"><title>3</title>
<ellipse fill="green" stroke="black" cx="21" cy="-198" rx="17.5909" ry="18"/>
<ellipse fill="none" stroke="black" cx="21" cy="-198" rx="21.5" ry="22"/>
<text text-anchor="middle" x="21" y="-194.3" font-family="Times,serif" font-size="14.00">3</text>
</g>
<!-- 2&#45;&gt;3 -->
<g id="edge5" class="edge"><title>2&#45;&gt;3</title>
<path fill="none" stroke="black" d="M21,-271.647C21,-259.924 21,-244.114 21,-230.237"/>
<polygon fill="black" stroke="black" points="24.5001,-230.101 21,-220.101 17.5001,-230.101 24.5001,-230.101"/>
<text text-anchor="middle" x="24.5" y="-242.3" font-family="Times,serif" font-size="14.00">b</text>
</g>
<!-- 3&#45;&gt;0 -->
<g id="edge6" class="edge"><title>3&#45;&gt;0</title>
<path fill="none" stroke="black" d="M21,-175.671C21,-163.284 21,-147.552 21,-134.272"/>
<polygon fill="black" stroke="black" points="24.5001,-134.258 21,-124.258 17.5001,-134.258 24.5001,-134.258"/>
<text text-anchor="middle" x="24.5" y="-146.3" font-family="Times,serif" font-size="14.00">b</text>
</g>
<!-- 3&#45;&gt;3 -->
<g id="edge7" class="edge"><title>3&#45;&gt;3</title>
<path fill="none" stroke="black" d="M41.0663,-206.734C51.0736,-207.943 60,-205.031 60,-198 60,-193.496 56.3366,-190.682 51.0725,-189.559"/>
<polygon fill="black" stroke="black" points="51.1646,-186.061 41.0663,-189.266 50.9594,-193.057 51.1646,-186.061"/>
<text text-anchor="middle" x="63.5" y="-194.3" font-family="Times,serif" font-size="14.00">a</text>
</g>
</g>
</svg>
