<?xml version="1.0" encoding="UTF-8" standalone="no"?>
<!DOCTYPE svg PUBLIC "-//W3C//DTD SVG 1.1//EN"
 "http://www.w3.org/Graphics/SVG/1.1/DTD/svg11.dtd">
<!-- Generated by graphviz version 2.36.0 (20140111.2315)
 -->
<!-- Title: %3 Pages: 1 -->
<svg width="161pt" height="228pt"
 viewBox="0.00 0.00 161.00 228.00" xmlns="http://www.w3.org/2000/svg" xmlns:xlink="http://www.w3.org/1999/xlink">
<g id="graph0" class="graph" transform="scale(1 1) rotate(0) translate(4 224)">
<title>%3</title>
<polygon fill="white" stroke="none" points="-4,4 -4,-224 157,-224 157,4 -4,4"/>
<!-- 0 -->
<g id="node1" class="node"><title>0</title>
<ellipse fill="lightblue" stroke="black" cx="106" cy="-198" rx="17.5909" ry="18"/>
<ellipse fill="none" stroke="black" cx="106" cy="-198" rx="21.5" ry="22"/>
<text text-anchor="middle" x="106" y="-194.3" font-family="Times,serif" font-size="14.00">0</text>
</g>
<!-- 0&#45;&gt;0 -->
<g id="edge1" class="edge"><title>0&#45;&gt;0</title>
<path fill="none" stroke="black" d="M126.066,-206.734C136.074,-207.943 145,-205.031 145,-198 145,-193.496 141.337,-190.682 136.072,-189.559"/>
<polygon fill="black" stroke="black" points="136.165,-186.061 126.066,-189.266 135.959,-193.057 136.165,-186.061"/>
<text text-anchor="middle" x="148.5" y="-194.3" font-family="Times,serif" font-size="14.00">b</text>
</g>
<!-- 1 -->
<g id="node2" class="node"><title>1</title>
<ellipse fill="green" stroke="black" cx="71" cy="-106" rx="18" ry="18"/>
<text text-anchor="middle" x="71" y="-102.3" font-family="Times,serif" font-size="14.00">1</text>
</g>
<!-- 0&#45;&gt;1 -->
<g id="edge2" class="edge"><title>0&#45;&gt;1</title>
<path fill="none" stroke="black" d="M98.2324,-177.026C93.1437,-163.941 86.4454,-146.717 80.9654,-132.625"/>
<polygon fill="black" stroke="black" points="84.1174,-131.074 77.2308,-123.022 77.5933,-133.611 84.1174,-131.074"/>
<text text-anchor="middle" x="93.5" y="-146.3" font-family="Times,serif" font-size="14.00">a</text>
</g>
<!-- 2 -->
<g id="node3" class="node"><title>2</title>
<ellipse fill="lightblue" stroke="black" cx="103" cy="-18" rx="18" ry="18"/>
<text text-anchor="middle" x="103" y="-14.3" font-family="Times,serif" font-size="14.00">2</text>
</g>
<!-- 1&#45;&gt;2 -->
<g id="edge3" class="edge"><title>1&#45;&gt;2</title>
<path fill="none" stroke="black" d="M77.019,-88.8241C81.6226,-76.4516 88.0619,-59.1462 93.3779,-44.8593"/>
<polygon fill="black" stroke="black" points="96.8009,-45.6962 97.008,-35.1034 90.2404,-43.255 96.8009,-45.6962"/>
<text text-anchor="middle" x="92.5" y="-58.3" font-family="Times,serif" font-size="14.00">a</text>
</g>
<!-- 3 -->
<g id="node4" class="node"><title>3</title>
<ellipse fill="lightblue" stroke="black" cx="18" cy="-18" rx="18" ry="18"/>
<text text-anchor="middle" x="18" y="-14.3" font-family="Times,serif" font-size="14.00">3</text>
</g>
<!-- 1&#45;&gt;3 -->
<g id="edge4" class="edge"><title>1&#45;&gt;3</title>
<path fill="none" stroke="black" d="M54.1967,-99.4084C41.1837,-94.0874 24.0606,-84.6838 16,-70 11.9825,-62.6815 11.1932,-53.8418 11.7999,-45.592"/>
<polygon fill="black" stroke="black" points="15.2765,-46.0014 13.1773,-35.6166 8.34232,-45.0439 15.2765,-46.0014"/>
<text text-anchor="middle" x="19.5" y="-58.3" font-family="Times,serif" font-size="14.00">b</text>
</g>
<!-- 2&#45;&gt;0 -->
<g id="edge5" class="edge"><title>2&#45;&gt;0</title>
<path fill="none" stroke="black" d="M103.288,-36.1141C103.791,-65.9087 104.832,-127.727 105.469,-165.464"/>
<polygon fill="black" stroke="black" points="101.976,-165.943 105.644,-175.882 108.975,-165.824 101.976,-165.943"/>
<text text-anchor="middle" x="107.5" y="-102.3" font-family="Times,serif" font-size="14.00">b</text>
</g>
<!-- 2&#45;&gt;1 -->
<g id="edge6" class="edge"><title>2&#45;&gt;1</title>
<path fill="none" stroke="black" d="M90.5505,-31.5286C85.1318,-37.7622 79.2805,-45.7243 76,-54 73.0699,-61.3918 71.5763,-69.8385 70.8733,-77.7025"/>
<polygon fill="black" stroke="black" points="67.3665,-77.7435 70.344,-87.9113 74.3572,-78.106 67.3665,-77.7435"/>
<text text-anchor="middle" x="79.5" y="-58.3" font-family="Times,serif" font-size="14.00">a</text>
</g>
<!-- 3&#45;&gt;1 -->
<g id="edge7" class="edge"><title>3&#45;&gt;1</title>
<path fill="none" stroke="black" d="M27.1261,-33.8084C35.1487,-46.8262 46.9698,-66.0076 56.3209,-81.1811"/>
<polygon fill="black" stroke="black" points="53.5419,-83.343 61.7681,-90.0199 59.5012,-79.6705 53.5419,-83.343"/>
<text text-anchor="middle" x="52.5" y="-58.3" font-family="Times,serif" font-size="14.00">a</text>
</g>
<!-- 3&#45;&gt;3 -->
<g id="edge8" class="edge"><title>3&#45;&gt;3</title>
<path fill="none" stroke="black" d="M34.2903,-25.6679C44.3892,-27.5169 54,-24.9609 54,-18 54,-13.5406 50.0557,-10.8891 44.5656,-10.0454"/>
<polygon fill="black" stroke="black" points="44.1887,-6.55441 34.2903,-10.3321 44.384,-13.5517 44.1887,-6.55441"/>
<text text-anchor="middle" x="57.5" y="-14.3" font-family="Times,serif" font-size="14.00">b</text>
</g>
</g>
</svg>
