<?xml version="1.0" encoding="UTF-8" standalone="no"?>
<!DOCTYPE svg PUBLIC "-//W3C//DTD SVG 1.1//EN"
 "http://www.w3.org/Graphics/SVG/1.1/DTD/svg11.dtd">
<!-- Generated by graphviz version 2.36.0 (20140111.2315)
 -->
<!-- Title: %3 Pages: 1 -->
<svg width="183pt" height="404pt"
 viewBox="0.00 0.00 182.96 404.00" xmlns="http://www.w3.org/2000/svg" xmlns:xlink="http://www.w3.org/1999/xlink">
<g id="graph0" class="graph" transform="scale(1 1) rotate(0) translate(4 400)">
<title>%3</title>
<polygon fill="white" stroke="none" points="-4,4 -4,-400 178.964,-400 178.964,4 -4,4"/>
<!-- 0 -->
<g id="node1" class="node"><title>0</title>
<ellipse fill="green" stroke="black" cx="103.964" cy="-290" rx="18" ry="18"/>
<text text-anchor="middle" x="103.964" y="-286.3" font-family="Times,serif" font-size="14.00">0</text>
</g>
<!-- 2 -->
<g id="node3" class="node"><title>2</title>
<ellipse fill="lightblue" stroke="black" cx="45.9642" cy="-198" rx="17.5909" ry="18"/>
<ellipse fill="none" stroke="black" cx="45.9642" cy="-198" rx="21.5" ry="22"/>
<text text-anchor="middle" x="45.9642" y="-194.3" font-family="Times,serif" font-size="14.00">2</text>
</g>
<!-- 0&#45;&gt;2 -->
<g id="edge1" class="edge"><title>0&#45;&gt;2</title>
<path fill="none" stroke="black" d="M94.6455,-274.54C86.1077,-261.292 73.2605,-241.356 62.9075,-225.291"/>
<polygon fill="black" stroke="black" points="65.8147,-223.341 57.4556,-216.832 59.9307,-227.133 65.8147,-223.341"/>
<text text-anchor="middle" x="83.4642" y="-242.3" font-family="Times,serif" font-size="14.00">a</text>
</g>
<!-- 3 -->
<g id="node4" class="node"><title>3</title>
<ellipse fill="lightblue" stroke="black" cx="103.964" cy="-106" rx="18" ry="18"/>
<text text-anchor="middle" x="103.964" y="-102.3" font-family="Times,serif" font-size="14.00">3</text>
</g>
<!-- 0&#45;&gt;3 -->
<g id="edge2" class="edge"><title>0&#45;&gt;3</title>
<path fill="none" stroke="black" d="M111.697,-273.358C114.223,-267.443 116.702,-260.555 117.964,-254 127.378,-205.12 127.378,-190.88 117.964,-142 117.333,-138.723 116.398,-135.362 115.304,-132.081"/>
<polygon fill="black" stroke="black" points="118.537,-130.734 111.697,-122.642 111.998,-133.233 118.537,-130.734"/>
<text text-anchor="middle" x="128.464" y="-194.3" font-family="Times,serif" font-size="14.00">b</text>
</g>
<!-- 1 -->
<g id="node2" class="node"><title>1</title>
<ellipse fill="lightblue" stroke="black" cx="156.964" cy="-378" rx="18" ry="18"/>
<text text-anchor="middle" x="156.964" y="-374.3" font-family="Times,serif" font-size="14.00">1</text>
</g>
<!-- 1&#45;&gt;0 -->
<g id="edge3" class="edge"><title>1&#45;&gt;0</title>
<path fill="none" stroke="black" d="M147.732,-362.02C139.676,-348.948 127.85,-329.758 118.52,-314.619"/>
<polygon fill="black" stroke="black" points="121.316,-312.485 113.09,-305.808 115.357,-316.158 121.316,-312.485"/>
<text text-anchor="middle" x="138.464" y="-330.3" font-family="Times,serif" font-size="14.00">a</text>
</g>
<!-- 1&#45;&gt;3 -->
<g id="edge4" class="edge"><title>1&#45;&gt;3</title>
<path fill="none" stroke="black" d="M158.507,-359.945C161.433,-320.043 164.904,-218.215 132.964,-142 130.677,-136.542 127.24,-131.277 123.525,-126.562"/>
<polygon fill="black" stroke="black" points="125.927,-123.991 116.723,-118.744 120.646,-128.586 125.927,-123.991"/>
<text text-anchor="middle" x="160.464" y="-242.3" font-family="Times,serif" font-size="14.00">b</text>
</g>
<!-- 2&#45;&gt;3 -->
<g id="edge5" class="edge"><title>2&#45;&gt;3</title>
<path fill="none" stroke="black" d="M57.4232,-179.219C66.5303,-165.087 79.3343,-145.219 89.2078,-129.898"/>
<polygon fill="black" stroke="black" points="92.1574,-131.782 94.6324,-121.48 86.2734,-127.99 92.1574,-131.782"/>
<text text-anchor="middle" x="83.4642" y="-146.3" font-family="Times,serif" font-size="14.00">b</text>
</g>
<!-- 4 -->
<g id="node5" class="node"><title>4</title>
<ellipse fill="lightblue" stroke="black" cx="26.9642" cy="-18" rx="18" ry="18"/>
<text text-anchor="middle" x="26.9642" y="-14.3" font-family="Times,serif" font-size="14.00">4</text>
</g>
<!-- 2&#45;&gt;4 -->
<g id="edge6" class="edge"><title>2&#45;&gt;4</title>
<path fill="none" stroke="black" d="M43.7101,-175.882C40.2625,-143.584 33.6806,-81.9218 29.876,-46.279"/>
<polygon fill="black" stroke="black" points="33.3327,-45.6861 28.791,-36.1141 26.3723,-46.4291 33.3327,-45.6861"/>
<text text-anchor="middle" x="42.4642" y="-102.3" font-family="Times,serif" font-size="14.00">a</text>
</g>
<!-- 3&#45;&gt;0 -->
<g id="edge7" class="edge"><title>3&#45;&gt;0</title>
<path fill="none" stroke="black" d="M103.964,-124.209C103.964,-155.847 103.964,-223.486 103.964,-261.537"/>
<polygon fill="black" stroke="black" points="100.464,-261.878 103.964,-271.878 107.464,-261.878 100.464,-261.878"/>
<text text-anchor="middle" x="107.464" y="-194.3" font-family="Times,serif" font-size="14.00">a</text>
</g>
<!-- 3&#45;&gt;4 -->
<g id="edge8" class="edge"><title>3&#45;&gt;4</title>
<path fill="none" stroke="black" d="M93.6103,-91.2041C85.5709,-80.7238 73.9746,-66.0995 62.9642,-54 58.0764,-48.6287 52.5572,-43.0466 47.3352,-37.9598"/>
<polygon fill="black" stroke="black" points="49.6494,-35.33 40.0052,-30.9436 44.8091,-40.3868 49.6494,-35.33"/>
<text text-anchor="middle" x="78.4642" y="-58.3" font-family="Times,serif" font-size="14.00">b</text>
</g>
<!-- 4&#45;&gt;0 -->
<g id="edge9" class="edge"><title>4&#45;&gt;0</title>
<path fill="none" stroke="black" d="M20.8915,-35.166C8.58315,-70.725 -15.6485,-157.531 14.9642,-220 28.0953,-246.795 57.2036,-266.166 78.5709,-277.441"/>
<polygon fill="black" stroke="black" points="77.2505,-280.694 87.7583,-282.049 80.3889,-274.437 77.2505,-280.694"/>
<text text-anchor="middle" x="4.46422" y="-146.3" font-family="Times,serif" font-size="14.00">a</text>
</g>
<!-- 4&#45;&gt;2 -->
<g id="edge10" class="edge"><title>4&#45;&gt;2</title>
<path fill="none" stroke="black" d="M24.6453,-36.2036C22.2495,-57.0903 19.443,-93.3292 23.9642,-124 26.1332,-138.714 30.6362,-154.574 35.0066,-167.74"/>
<polygon fill="black" stroke="black" points="31.708,-168.911 38.282,-177.219 38.3242,-166.625 31.708,-168.911"/>
<text text-anchor="middle" x="27.4642" y="-102.3" font-family="Times,serif" font-size="14.00">b</text>
</g>
</g>
</svg>
