<?xml version="1.0" encoding="UTF-8" standalone="no"?>
<!DOCTYPE svg PUBLIC "-//W3C//DTD SVG 1.1//EN"
 "http://www.w3.org/Graphics/SVG/1.1/DTD/svg11.dtd">
<!-- Generated by graphviz version 2.36.0 (20140111.2315)
 -->
<!-- Title: %3 Pages: 1 -->
<svg width="157pt" height="228pt"
 viewBox="0.00 0.00 157.00 228.00" xmlns="http://www.w3.org/2000/svg" xmlns:xlink="http://www.w3.org/1999/xlink">
<g id="graph0" class="graph" transform="scale(1 1) rotate(0) translate(4 224)">
<title>%3</title>
<polygon fill="white" stroke="none" points="-4,4 -4,-224 153,-224 153,4 -4,4"/>
<!-- 0 -->
<g id="node1" class="node"><title>0</title>
<ellipse fill="lightblue" stroke="black" cx="31" cy="-198" rx="17.5909" ry="18"/>
<ellipse fill="none" stroke="black" cx="31" cy="-198" rx="21.5" ry="22"/>
<text text-anchor="middle" x="31" y="-194.3" font-family="Times,serif" font-size="14.00">0</text>
</g>
<!-- 1 -->
<g id="node2" class="node"><title>1</title>
<ellipse fill="lightblue" stroke="black" cx="18" cy="-106" rx="18" ry="18"/>
<text text-anchor="middle" x="18" y="-102.3" font-family="Times,serif" font-size="14.00">1</text>
</g>
<!-- 0&#45;&gt;1 -->
<g id="edge1" class="edge"><title>0&#45;&gt;1</title>
<path fill="none" stroke="black" d="M21.0748,-178.474C18.1995,-172.161 15.4471,-164.941 14,-158 12.38,-150.229 12.3787,-141.668 13.0633,-133.816"/>
<polygon fill="black" stroke="black" points="16.5618,-134.046 14.3344,-123.688 9.61627,-133.174 16.5618,-134.046"/>
<text text-anchor="middle" x="22.5" y="-146.3" font-family="Times,serif" font-size="14.00">b,a</text>
</g>
<!-- 1&#45;&gt;0 -->
<g id="edge2" class="edge"><title>1&#45;&gt;0</title>
<path fill="none" stroke="black" d="M25.1836,-122.694C27.5292,-128.614 29.8305,-135.493 31,-142 32.3702,-149.624 32.872,-157.939 32.9181,-165.742"/>
<polygon fill="black" stroke="black" points="29.415,-165.891 32.7374,-175.952 36.4139,-166.015 29.415,-165.891"/>
<text text-anchor="middle" x="36.5" y="-146.3" font-family="Times,serif" font-size="14.00">a</text>
</g>
<!-- 1&#45;&gt;1 -->
<g id="edge3" class="edge"><title>1&#45;&gt;1</title>
<path fill="none" stroke="black" d="M34.2903,-113.668C44.3892,-115.517 54,-112.961 54,-106 54,-101.541 50.0557,-98.8891 44.5656,-98.0454"/>
<polygon fill="black" stroke="black" points="44.1887,-94.5544 34.2903,-98.3321 44.384,-101.552 44.1887,-94.5544"/>
<text text-anchor="middle" x="57.5" y="-102.3" font-family="Times,serif" font-size="14.00">b</text>
</g>
<!-- 2 -->
<g id="node3" class="node"><title>2</title>
<ellipse fill="green" stroke="black" cx="106" cy="-198" rx="18" ry="18"/>
<text text-anchor="middle" x="106" y="-194.3" font-family="Times,serif" font-size="14.00">2</text>
</g>
<!-- 2&#45;&gt;2 -->
<g id="edge4" class="edge"><title>2&#45;&gt;2</title>
<path fill="none" stroke="black" d="M122.29,-206.365C132.389,-208.382 142,-205.594 142,-198 142,-193.135 138.056,-190.243 132.566,-189.322"/>
<polygon fill="black" stroke="black" points="132.179,-185.832 122.29,-189.635 132.392,-192.829 132.179,-185.832"/>
<text text-anchor="middle" x="145.5" y="-194.3" font-family="Times,serif" font-size="14.00">a</text>
</g>
<!-- 4 -->
<g id="node5" class="node"><title>4</title>
<ellipse fill="lightblue" stroke="black" cx="106" cy="-106" rx="18" ry="18"/>
<text text-anchor="middle" x="106" y="-102.3" font-family="Times,serif" font-size="14.00">4</text>
</g>
<!-- 2&#45;&gt;4 -->
<g id="edge5" class="edge"><title>2&#45;&gt;4</title>
<path fill="none" stroke="black" d="M106,-179.647C106,-166.823 106,-149.108 106,-134.381"/>
<polygon fill="black" stroke="black" points="109.5,-134.3 106,-124.3 102.5,-134.3 109.5,-134.3"/>
<text text-anchor="middle" x="109.5" y="-146.3" font-family="Times,serif" font-size="14.00">b</text>
</g>
<!-- 3 -->
<g id="node4" class="node"><title>3</title>
<ellipse fill="lightblue" stroke="black" cx="106" cy="-18" rx="18" ry="18"/>
<text text-anchor="middle" x="106" y="-14.3" font-family="Times,serif" font-size="14.00">3</text>
</g>
<!-- 3&#45;&gt;3 -->
<g id="edge6" class="edge"><title>3&#45;&gt;3</title>
<path fill="none" stroke="black" d="M122.29,-25.6679C132.389,-27.5169 142,-24.9609 142,-18 142,-13.5406 138.056,-10.8891 132.566,-10.0454"/>
<polygon fill="black" stroke="black" points="132.189,-6.55441 122.29,-10.3321 132.384,-13.5517 132.189,-6.55441"/>
<text text-anchor="middle" x="145.5" y="-14.3" font-family="Times,serif" font-size="14.00">a</text>
</g>
<!-- 3&#45;&gt;4 -->
<g id="edge7" class="edge"><title>3&#45;&gt;4</title>
<path fill="none" stroke="black" d="M106,-36.084C106,-47.8607 106,-63.7741 106,-77.342"/>
<polygon fill="black" stroke="black" points="102.5,-77.5966 106,-87.5966 109.5,-77.5967 102.5,-77.5966"/>
<text text-anchor="middle" x="109.5" y="-58.3" font-family="Times,serif" font-size="14.00">b</text>
</g>
<!-- 4&#45;&gt;3 -->
<g id="edge8" class="edge"><title>4&#45;&gt;3</title>
<path fill="none" stroke="black" d="M95.33,-91.1629C91.2506,-85.0305 87.0807,-77.512 85,-70 83.1018,-63.1469 83.1018,-60.8531 85,-54 86.1704,-49.7745 88.0018,-45.5469 90.1063,-41.5652"/>
<polygon fill="black" stroke="black" points="93.1978,-43.2152 95.33,-32.8371 87.1913,-39.6203 93.1978,-43.2152"/>
<text text-anchor="middle" x="93.5" y="-58.3" font-family="Times,serif" font-size="14.00">b,a</text>
</g>
</g>
</svg>
