<?xml version="1.0" encoding="UTF-8" standalone="no"?>
<!DOCTYPE svg PUBLIC "-//W3C//DTD SVG 1.1//EN"
 "http://www.w3.org/Graphics/SVG/1.1/DTD/svg11.dtd">
<!-- Generated by graphviz version 2.36.0 (20140111.2315)
 -->
<!-- Title: %3 Pages: 1 -->
<svg width="101pt" height="316pt"
 viewBox="0.00 0.00 101.00 316.00" xmlns="http://www.w3.org/2000/svg" xmlns:xlink="http://www.w3.org/1999/xlink">
<g id="graph0" class="graph" transform="scale(1 1) rotate(0) translate(4 312)">
<title>%3</title>
<polygon fill="white" stroke="none" points="-4,4 -4,-312 97,-312 97,4 -4,4"/>
<!-- 0 -->
<g id="node1" class="node"><title>0</title>
<ellipse fill="lightblue" stroke="black" cx="18" cy="-194" rx="18" ry="18"/>
<text text-anchor="middle" x="18" y="-190.3" font-family="Times,serif" font-size="14.00">0</text>
</g>
<!-- 3 -->
<g id="node4" class="node"><title>3</title>
<ellipse fill="green" stroke="black" cx="50" cy="-106" rx="18" ry="18"/>
<text text-anchor="middle" x="50" y="-102.3" font-family="Times,serif" font-size="14.00">3</text>
</g>
<!-- 0&#45;&gt;3 -->
<g id="edge1" class="edge"><title>0&#45;&gt;3</title>
<path fill="none" stroke="black" d="M24.019,-176.824C28.6226,-164.452 35.0619,-147.146 40.3779,-132.859"/>
<polygon fill="black" stroke="black" points="43.8009,-133.696 44.008,-123.103 37.2404,-131.255 43.8009,-133.696"/>
<text text-anchor="middle" x="44.5" y="-146.3" font-family="Times,serif" font-size="14.00">b,a</text>
</g>
<!-- 1 -->
<g id="node2" class="node"><title>1</title>
<ellipse fill="lightblue" stroke="black" cx="53" cy="-286" rx="17.5909" ry="18"/>
<ellipse fill="none" stroke="black" cx="53" cy="-286" rx="21.5" ry="22"/>
<text text-anchor="middle" x="53" y="-282.3" font-family="Times,serif" font-size="14.00">1</text>
</g>
<!-- 1&#45;&gt;0 -->
<g id="edge2" class="edge"><title>1&#45;&gt;0</title>
<path fill="none" stroke="black" d="M45.2324,-265.026C40.1437,-251.941 33.4454,-234.717 27.9654,-220.625"/>
<polygon fill="black" stroke="black" points="31.1174,-219.074 24.2308,-211.022 24.5933,-221.611 31.1174,-219.074"/>
<text text-anchor="middle" x="40.5" y="-234.3" font-family="Times,serif" font-size="14.00">b</text>
</g>
<!-- 1&#45;&gt;3 -->
<g id="edge3" class="edge"><title>1&#45;&gt;3</title>
<path fill="none" stroke="black" d="M55.2342,-264.101C57.841,-236.194 61.2828,-185.252 57,-142 56.7289,-139.262 56.3411,-136.42 55.8855,-133.594"/>
<polygon fill="black" stroke="black" points="59.3017,-132.821 54.0241,-123.634 52.4208,-134.107 59.3017,-132.821"/>
<text text-anchor="middle" x="62.5" y="-190.3" font-family="Times,serif" font-size="14.00">a</text>
</g>
<!-- 2 -->
<g id="node3" class="node"><title>2</title>
<ellipse fill="lightblue" stroke="black" cx="50" cy="-18" rx="18" ry="18"/>
<text text-anchor="middle" x="50" y="-14.3" font-family="Times,serif" font-size="14.00">2</text>
</g>
<!-- 2&#45;&gt;3 -->
<g id="edge4" class="edge"><title>2&#45;&gt;3</title>
<path fill="none" stroke="black" d="M50,-36.084C50,-47.8607 50,-63.7741 50,-77.342"/>
<polygon fill="black" stroke="black" points="46.5001,-77.5966 50,-87.5966 53.5001,-77.5967 46.5001,-77.5966"/>
<text text-anchor="middle" x="58.5" y="-58.3" font-family="Times,serif" font-size="14.00">b,a</text>
</g>
<!-- 3&#45;&gt;2 -->
<g id="edge5" class="edge"><title>3&#45;&gt;2</title>
<path fill="none" stroke="black" d="M43.8003,-88.8629C41.8558,-83.0135 39.966,-76.2957 39,-70 37.9215,-62.9712 37.9215,-61.0288 39,-54 39.4528,-51.0489 40.1086,-48.005 40.8779,-45.0013"/>
<polygon fill="black" stroke="black" points="44.3155,-45.7194 43.8003,-35.1371 37.6038,-43.7309 44.3155,-45.7194"/>
<text text-anchor="middle" x="42.5" y="-58.3" font-family="Times,serif" font-size="14.00">a</text>
</g>
<!-- 3&#45;&gt;3 -->
<g id="edge6" class="edge"><title>3&#45;&gt;3</title>
<path fill="none" stroke="black" d="M66.2903,-113.668C76.3892,-115.517 86,-112.961 86,-106 86,-101.541 82.0557,-98.8891 76.5656,-98.0454"/>
<polygon fill="black" stroke="black" points="76.1887,-94.5544 66.2903,-98.3321 76.384,-101.552 76.1887,-94.5544"/>
<text text-anchor="middle" x="89.5" y="-102.3" font-family="Times,serif" font-size="14.00">b</text>
</g>
</g>
</svg>
