<?xml version="1.0" encoding="UTF-8" standalone="no"?>
<!DOCTYPE svg PUBLIC "-//W3C//DTD SVG 1.1//EN"
 "http://www.w3.org/Graphics/SVG/1.1/DTD/svg11.dtd">
<!-- Generated by graphviz version 2.36.0 (20140111.2315)
 -->
<!-- Title: %3 Pages: 1 -->
<svg width="135pt" height="316pt"
 viewBox="0.00 0.00 134.92 316.00" xmlns="http://www.w3.org/2000/svg" xmlns:xlink="http://www.w3.org/1999/xlink">
<g id="graph0" class="graph" transform="scale(1 1) rotate(0) translate(4 312)">
<title>%3</title>
<polygon fill="white" stroke="none" points="-4,4 -4,-312 130.923,-312 130.923,4 -4,4"/>
<!-- 0 -->
<g id="node1" class="node"><title>0</title>
<ellipse fill="lightblue" stroke="black" cx="96.9226" cy="-286" rx="17.5909" ry="18"/>
<ellipse fill="none" stroke="black" cx="96.9226" cy="-286" rx="21.5" ry="22"/>
<text text-anchor="middle" x="96.9226" y="-282.3" font-family="Times,serif" font-size="14.00">0</text>
</g>
<!-- 1 -->
<g id="node2" class="node"><title>1</title>
<ellipse fill="lightblue" stroke="black" cx="36.9226" cy="-194" rx="18" ry="18"/>
<text text-anchor="middle" x="36.9226" y="-190.3" font-family="Times,serif" font-size="14.00">1</text>
</g>
<!-- 0&#45;&gt;1 -->
<g id="edge1" class="edge"><title>0&#45;&gt;1</title>
<path fill="none" stroke="black" d="M85.0686,-267.219C75.6474,-253.087 62.4019,-233.219 52.1879,-217.898"/>
<polygon fill="black" stroke="black" points="55.0354,-215.859 46.5762,-209.48 49.2111,-219.742 55.0354,-215.859"/>
<text text-anchor="middle" x="73.4226" y="-234.3" font-family="Times,serif" font-size="14.00">a</text>
</g>
<!-- 3 -->
<g id="node4" class="node"><title>3</title>
<ellipse fill="lightblue" stroke="black" cx="99.9226" cy="-106" rx="18" ry="18"/>
<text text-anchor="middle" x="99.9226" y="-102.3" font-family="Times,serif" font-size="14.00">3</text>
</g>
<!-- 0&#45;&gt;3 -->
<g id="edge2" class="edge"><title>0&#45;&gt;3</title>
<path fill="none" stroke="black" d="M97.2786,-263.882C97.8229,-231.584 98.8622,-169.922 99.4629,-134.279"/>
<polygon fill="black" stroke="black" points="102.965,-134.172 99.6342,-124.114 95.9661,-134.054 102.965,-134.172"/>
<text text-anchor="middle" x="106.423" y="-190.3" font-family="Times,serif" font-size="14.00">b,c</text>
</g>
<!-- 1&#45;&gt;1 -->
<g id="edge3" class="edge"><title>1&#45;&gt;1</title>
<path fill="none" stroke="black" d="M53.2129,-201.668C63.3118,-203.517 72.9226,-200.961 72.9226,-194 72.9226,-189.541 68.9784,-186.889 63.4883,-186.045"/>
<polygon fill="black" stroke="black" points="63.1114,-182.554 53.2129,-186.332 63.3067,-189.552 63.1114,-182.554"/>
<text text-anchor="middle" x="80.9226" y="-190.3" font-family="Times,serif" font-size="14.00">c,a</text>
</g>
<!-- 1&#45;&gt;3 -->
<g id="edge4" class="edge"><title>1&#45;&gt;3</title>
<path fill="none" stroke="black" d="M46.8484,-178.595C53.9899,-168.316 63.9118,-154.208 72.9226,-142 76.1443,-137.635 79.6454,-133.013 83.026,-128.607"/>
<polygon fill="black" stroke="black" points="85.9251,-130.579 89.2732,-120.528 80.3874,-126.298 85.9251,-130.579"/>
<text text-anchor="middle" x="76.4226" y="-146.3" font-family="Times,serif" font-size="14.00">b</text>
</g>
<!-- 2 -->
<g id="node3" class="node"><title>2</title>
<ellipse fill="green" stroke="black" cx="52.9226" cy="-18" rx="18" ry="18"/>
<text text-anchor="middle" x="52.9226" y="-14.3" font-family="Times,serif" font-size="14.00">2</text>
</g>
<!-- 2&#45;&gt;0 -->
<g id="edge5" class="edge"><title>2&#45;&gt;0</title>
<path fill="none" stroke="black" d="M43.4846,-33.733C23.4732,-66.9791 -19.0934,-149.776 9.92265,-212 22.0446,-237.995 48.4832,-258.019 69.0531,-270.464"/>
<polygon fill="black" stroke="black" points="67.3255,-273.508 77.7341,-275.486 70.8306,-267.449 67.3255,-273.508"/>
<text text-anchor="middle" x="5.42265" y="-146.3" font-family="Times,serif" font-size="14.00">b</text>
</g>
<!-- 2&#45;&gt;1 -->
<g id="edge6" class="edge"><title>2&#45;&gt;1</title>
<path fill="none" stroke="black" d="M51.353,-36.0697C48.5763,-66.266 42.777,-129.334 39.4373,-165.653"/>
<polygon fill="black" stroke="black" points="35.9164,-165.721 38.4859,-175.999 42.887,-166.362 35.9164,-165.721"/>
<text text-anchor="middle" x="49.4226" y="-102.3" font-family="Times,serif" font-size="14.00">a</text>
</g>
<!-- 2&#45;&gt;3 -->
<g id="edge7" class="edge"><title>2&#45;&gt;3</title>
<path fill="none" stroke="black" d="M63.6037,-32.5165C68.3239,-38.8347 73.7391,-46.5862 77.9226,-54 82.4869,-62.0883 86.7307,-71.3093 90.2492,-79.6659"/>
<polygon fill="black" stroke="black" points="87.0174,-81.0101 94.0221,-88.959 93.5033,-78.3768 87.0174,-81.0101"/>
<text text-anchor="middle" x="88.4226" y="-58.3" font-family="Times,serif" font-size="14.00">c</text>
</g>
<!-- 3&#45;&gt;0 -->
<g id="edge8" class="edge"><title>3&#45;&gt;0</title>
<path fill="none" stroke="black" d="M106.495,-122.832C108.774,-128.767 111.19,-135.619 112.923,-142 121.105,-172.134 122.523,-180.983 118.923,-212 117.208,-226.773 112.76,-242.641 108.309,-255.797"/>
<polygon fill="black" stroke="black" points="104.995,-254.67 104.95,-265.265 111.592,-257.011 104.995,-254.67"/>
<text text-anchor="middle" x="123.423" y="-190.3" font-family="Times,serif" font-size="14.00">c</text>
</g>
<!-- 3&#45;&gt;1 -->
<g id="edge9" class="edge"><title>3&#45;&gt;1</title>
<path fill="none" stroke="black" d="M94.9228,-123.624C91.2629,-134.117 85.5948,-147.603 77.9226,-158 72.8433,-164.883 66.1641,-171.313 59.6751,-176.736"/>
<polygon fill="black" stroke="black" points="57.3818,-174.087 51.6922,-183.025 61.7135,-179.586 57.3818,-174.087"/>
<text text-anchor="middle" x="90.4226" y="-146.3" font-family="Times,serif" font-size="14.00">a</text>
</g>
<!-- 3&#45;&gt;2 -->
<g id="edge10" class="edge"><title>3&#45;&gt;2</title>
<path fill="none" stroke="black" d="M88.4665,-91.9959C83.2655,-85.6582 77.3104,-77.7458 72.9226,-70 68.5236,-62.2343 64.6621,-53.3087 61.5353,-45.1172"/>
<polygon fill="black" stroke="black" points="64.7917,-43.8299 58.0988,-35.6167 58.209,-46.2109 64.7917,-43.8299"/>
<text text-anchor="middle" x="76.4226" y="-58.3" font-family="Times,serif" font-size="14.00">b</text>
</g>
</g>
</svg>
