<?xml version="1.0" encoding="UTF-8" standalone="no"?>
<!DOCTYPE svg PUBLIC "-//W3C//DTD SVG 1.1//EN"
 "http://www.w3.org/Graphics/SVG/1.1/DTD/svg11.dtd">
<!-- Generated by graphviz version 2.36.0 (20140111.2315)
 -->
<!-- Title: %3 Pages: 1 -->
<svg width="153pt" height="316pt"
 viewBox="0.00 0.00 153.20 316.00" xmlns="http://www.w3.org/2000/svg" xmlns:xlink="http://www.w3.org/1999/xlink">
<g id="graph0" class="graph" transform="scale(1 1) rotate(0) translate(4 312)">
<title>%3</title>
<polygon fill="white" stroke="none" points="-4,4 -4,-312 149.195,-312 149.195,4 -4,4"/>
<!-- 0 -->
<g id="node1" class="node"><title>0</title>
<ellipse fill="lightblue" stroke="black" cx="127.195" cy="-290" rx="18" ry="18"/>
<text text-anchor="middle" x="127.195" y="-286.3" font-family="Times,serif" font-size="14.00">0</text>
</g>
<!-- 1 -->
<g id="node2" class="node"><title>1</title>
<ellipse fill="green" stroke="black" cx="67.1953" cy="-202" rx="18" ry="18"/>
<text text-anchor="middle" x="67.1953" y="-198.3" font-family="Times,serif" font-size="14.00">1</text>
</g>
<!-- 0&#45;&gt;1 -->
<g id="edge1" class="edge"><title>0&#45;&gt;1</title>
<path fill="none" stroke="black" d="M117.287,-274.799C107.994,-261.479 93.9406,-241.335 83.0819,-225.771"/>
<polygon fill="black" stroke="black" points="85.7101,-223.421 77.1178,-217.222 79.9692,-227.426 85.7101,-223.421"/>
<text text-anchor="middle" x="105.695" y="-242.3" font-family="Times,serif" font-size="14.00">a</text>
</g>
<!-- 2 -->
<g id="node3" class="node"><title>2</title>
<ellipse fill="lightblue" stroke="black" cx="92.1953" cy="-22" rx="17.5909" ry="18"/>
<ellipse fill="none" stroke="black" cx="92.1953" cy="-22" rx="21.5" ry="22"/>
<text text-anchor="middle" x="92.1953" y="-18.3" font-family="Times,serif" font-size="14.00">2</text>
</g>
<!-- 0&#45;&gt;2 -->
<g id="edge2" class="edge"><title>0&#45;&gt;2</title>
<path fill="none" stroke="black" d="M125.407,-271.87C121.379,-233.96 111.016,-140.13 99.1953,-62 98.8081,-59.4409 98.3835,-56.7916 97.9409,-54.1339"/>
<polygon fill="black" stroke="black" points="101.343,-53.2693 96.1853,-44.0148 94.4463,-54.466 101.343,-53.2693"/>
<text text-anchor="middle" x="115.695" y="-154.3" font-family="Times,serif" font-size="14.00">b</text>
</g>
<!-- 1&#45;&gt;2 -->
<g id="edge3" class="edge"><title>1&#45;&gt;2</title>
<path fill="none" stroke="black" d="M52.9978,-190.661C29.5922,-172.267 -12.8876,-132.366 4.19526,-96 16.4727,-69.8634 43.2129,-49.8586 64.0144,-37.4567"/>
<polygon fill="black" stroke="black" points="65.8368,-40.4466 72.7929,-32.4551 62.3715,-34.3646 65.8368,-40.4466"/>
<text text-anchor="middle" x="7.69526" y="-110.3" font-family="Times,serif" font-size="14.00">b</text>
</g>
<!-- 3 -->
<g id="node4" class="node"><title>3</title>
<ellipse fill="lightblue" stroke="black" cx="38.1953" cy="-114" rx="18" ry="18"/>
<text text-anchor="middle" x="38.1953" y="-110.3" font-family="Times,serif" font-size="14.00">3</text>
</g>
<!-- 1&#45;&gt;3 -->
<g id="edge4" class="edge"><title>1&#45;&gt;3</title>
<path fill="none" stroke="black" d="M61.7406,-184.824C57.5949,-172.53 51.8067,-155.365 47.0068,-141.131"/>
<polygon fill="black" stroke="black" points="50.236,-139.753 43.7241,-131.396 43.6029,-141.99 50.236,-139.753"/>
<text text-anchor="middle" x="58.6953" y="-154.3" font-family="Times,serif" font-size="14.00">a</text>
</g>
<!-- 2&#45;&gt;0 -->
<g id="edge5" class="edge"><title>2&#45;&gt;0</title>
<path fill="none" stroke="black" d="M103.825,-40.644C107.642,-47.1302 111.572,-54.682 114.195,-62 140.792,-136.209 132.557,-159.253 136.195,-238 136.523,-245.104 137.088,-246.945 136.195,-254 135.846,-256.764 135.346,-259.622 134.76,-262.459"/>
<polygon fill="black" stroke="black" points="131.297,-261.89 132.366,-272.431 138.104,-263.524 131.297,-261.89"/>
<text text-anchor="middle" x="137.695" y="-154.3" font-family="Times,serif" font-size="14.00">b</text>
</g>
<!-- 2&#45;&gt;1 -->
<g id="edge6" class="edge"><title>2&#45;&gt;1</title>
<path fill="none" stroke="black" d="M89.2707,-43.8232C84.745,-76.0455 76.0446,-137.993 71.0237,-173.741"/>
<polygon fill="black" stroke="black" points="67.5173,-173.543 69.5924,-183.933 74.4493,-174.517 67.5173,-173.543"/>
<text text-anchor="middle" x="84.6953" y="-110.3" font-family="Times,serif" font-size="14.00">a</text>
</g>
<!-- 3&#45;&gt;2 -->
<g id="edge7" class="edge"><title>3&#45;&gt;2</title>
<path fill="none" stroke="black" d="M44.2701,-96.8626C48.4345,-86.5644 54.4186,-73.1119 61.1953,-62 64.2351,-57.0156 67.8271,-51.9482 71.4687,-47.1883"/>
<polygon fill="black" stroke="black" points="74.4708,-49.0373 77.9688,-39.0366 68.9977,-44.6732 74.4708,-49.0373"/>
<text text-anchor="middle" x="69.6953" y="-66.3" font-family="Times,serif" font-size="14.00">b,a</text>
</g>
</g>
</svg>
