<?xml version="1.0" encoding="UTF-8" standalone="no"?>
<!DOCTYPE svg PUBLIC "-//W3C//DTD SVG 1.1//EN"
 "http://www.w3.org/Graphics/SVG/1.1/DTD/svg11.dtd">
<!-- Generated by graphviz version 2.36.0 (20140111.2315)
 -->
<!-- Title: %3 Pages: 1 -->
<svg width="181pt" height="316pt"
 viewBox="0.00 0.00 181.00 316.00" xmlns="http://www.w3.org/2000/svg" xmlns:xlink="http://www.w3.org/1999/xlink">
<g id="graph0" class="graph" transform="scale(1 1) rotate(0) translate(4 312)">
<title>%3</title>
<polygon fill="white" stroke="none" points="-4,4 -4,-312 177,-312 177,4 -4,4"/>
<!-- 0 -->
<g id="node1" class="node"><title>0</title>
<ellipse fill="green" stroke="black" cx="60" cy="-290" rx="18" ry="18"/>
<text text-anchor="middle" x="60" y="-286.3" font-family="Times,serif" font-size="14.00">0</text>
</g>
<!-- 3 -->
<g id="node4" class="node"><title>3</title>
<ellipse fill="lightblue" stroke="black" cx="25" cy="-198" rx="18" ry="18"/>
<text text-anchor="middle" x="25" y="-194.3" font-family="Times,serif" font-size="14.00">3</text>
</g>
<!-- 0&#45;&gt;3 -->
<g id="edge1" class="edge"><title>0&#45;&gt;3</title>
<path fill="none" stroke="black" d="M53.7427,-272.91C48.5168,-259.472 40.9712,-240.069 34.9224,-224.515"/>
<polygon fill="black" stroke="black" points="38.0897,-223.002 31.2031,-214.951 31.5656,-225.54 38.0897,-223.002"/>
<text text-anchor="middle" x="48.5" y="-242.3" font-family="Times,serif" font-size="14.00">b</text>
</g>
<!-- 4 -->
<g id="node5" class="node"><title>4</title>
<ellipse fill="lightblue" stroke="black" cx="57" cy="-106" rx="18" ry="18"/>
<text text-anchor="middle" x="57" y="-102.3" font-family="Times,serif" font-size="14.00">4</text>
</g>
<!-- 0&#45;&gt;4 -->
<g id="edge2" class="edge"><title>0&#45;&gt;4</title>
<path fill="none" stroke="black" d="M59.7178,-271.878C59.1974,-240.307 58.0825,-172.673 57.4544,-134.568"/>
<polygon fill="black" stroke="black" points="60.9481,-134.15 57.2837,-124.209 53.9491,-134.266 60.9481,-134.15"/>
<text text-anchor="middle" x="61.5" y="-194.3" font-family="Times,serif" font-size="14.00">a</text>
</g>
<!-- 1 -->
<g id="node2" class="node"><title>1</title>
<ellipse fill="lightblue" stroke="black" cx="18" cy="-18" rx="18" ry="18"/>
<text text-anchor="middle" x="18" y="-14.3" font-family="Times,serif" font-size="14.00">1</text>
</g>
<!-- 1&#45;&gt;1 -->
<g id="edge3" class="edge"><title>1&#45;&gt;1</title>
<path fill="none" stroke="black" d="M34.2903,-25.6679C44.3892,-27.5169 54,-24.9609 54,-18 54,-13.5406 50.0557,-10.8891 44.5656,-10.0454"/>
<polygon fill="black" stroke="black" points="44.1887,-6.55441 34.2903,-10.3321 44.384,-13.5517 44.1887,-6.55441"/>
<text text-anchor="middle" x="62.5" y="-14.3" font-family="Times,serif" font-size="14.00">b,a</text>
</g>
<!-- 2 -->
<g id="node3" class="node"><title>2</title>
<ellipse fill="lightblue" stroke="black" cx="126" cy="-198" rx="17.5909" ry="18"/>
<ellipse fill="none" stroke="black" cx="126" cy="-198" rx="21.5" ry="22"/>
<text text-anchor="middle" x="126" y="-194.3" font-family="Times,serif" font-size="14.00">2</text>
</g>
<!-- 2&#45;&gt;2 -->
<g id="edge4" class="edge"><title>2&#45;&gt;2</title>
<path fill="none" stroke="black" d="M146.066,-206.734C156.074,-207.943 165,-205.031 165,-198 165,-193.496 161.337,-190.682 156.072,-189.559"/>
<polygon fill="black" stroke="black" points="156.165,-186.061 146.066,-189.266 155.959,-193.057 156.165,-186.061"/>
<text text-anchor="middle" x="168.5" y="-194.3" font-family="Times,serif" font-size="14.00">a</text>
</g>
<!-- 2&#45;&gt;4 -->
<g id="edge5" class="edge"><title>2&#45;&gt;4</title>
<path fill="none" stroke="black" d="M116.279,-178.136C110.23,-167.138 101.92,-153.26 93,-142 88.4905,-136.307 83.1033,-130.613 77.8874,-125.521"/>
<polygon fill="black" stroke="black" points="80.1719,-122.865 70.4901,-118.562 75.3755,-127.963 80.1719,-122.865"/>
<text text-anchor="middle" x="107.5" y="-146.3" font-family="Times,serif" font-size="14.00">b</text>
</g>
<!-- 3&#45;&gt;1 -->
<g id="edge6" class="edge"><title>3&#45;&gt;1</title>
<path fill="none" stroke="black" d="M22.9491,-179.939C22.2087,-173.125 21.4463,-165.201 21,-158 18.6012,-119.292 18.0317,-74.4183 17.9403,-46.366"/>
<polygon fill="black" stroke="black" points="21.44,-46.1328 17.926,-36.1377 14.4401,-46.1426 21.44,-46.1328"/>
<text text-anchor="middle" x="22.5" y="-102.3" font-family="Times,serif" font-size="14.00">a</text>
</g>
<!-- 3&#45;&gt;4 -->
<g id="edge7" class="edge"><title>3&#45;&gt;4</title>
<path fill="none" stroke="black" d="M24.1273,-179.581C24.1577,-168.469 25.3077,-153.96 30,-142 31.9812,-136.95 34.9269,-132.02 38.1534,-127.529"/>
<polygon fill="black" stroke="black" points="41.0394,-129.524 44.5242,-119.518 35.5606,-125.167 41.0394,-129.524"/>
<text text-anchor="middle" x="33.5" y="-146.3" font-family="Times,serif" font-size="14.00">b</text>
</g>
<!-- 4&#45;&gt;1 -->
<g id="edge8" class="edge"><title>4&#45;&gt;1</title>
<path fill="none" stroke="black" d="M49.8468,-89.2263C44.1294,-76.6186 36.0062,-58.7061 29.3951,-44.1276"/>
<polygon fill="black" stroke="black" points="32.4255,-42.3355 25.1079,-34.6737 26.0504,-45.2266 32.4255,-42.3355"/>
<text text-anchor="middle" x="43.5" y="-58.3" font-family="Times,serif" font-size="14.00">b</text>
</g>
<!-- 4&#45;&gt;3 -->
<g id="edge9" class="edge"><title>4&#45;&gt;3</title>
<path fill="none" stroke="black" d="M51.2207,-123.254C46.4551,-136.658 39.6088,-155.913 34.1069,-171.387"/>
<polygon fill="black" stroke="black" points="30.7734,-170.315 30.721,-180.91 37.3689,-172.66 30.7734,-170.315"/>
<text text-anchor="middle" x="46.5" y="-146.3" font-family="Times,serif" font-size="14.00">a</text>
</g>
</g>
</svg>
