<?xml version="1.0" encoding="UTF-8" standalone="no"?>
<!DOCTYPE svg PUBLIC "-//W3C//DTD SVG 1.1//EN"
 "http://www.w3.org/Graphics/SVG/1.1/DTD/svg11.dtd">
<!-- Generated by graphviz version 2.36.0 (20140111.2315)
 -->
<!-- Title: %3 Pages: 1 -->
<svg width="191pt" height="228pt"
 viewBox="0.00 0.00 191.00 228.00" xmlns="http://www.w3.org/2000/svg" xmlns:xlink="http://www.w3.org/1999/xlink">
<g id="graph0" class="graph" transform="scale(1 1) rotate(0) translate(4 224)">
<title>%3</title>
<polygon fill="white" stroke="none" points="-4,4 -4,-224 187,-224 187,4 -4,4"/>
<!-- 0 -->
<g id="node1" class="node"><title>0</title>
<ellipse fill="lightblue" stroke="black" cx="69" cy="-202" rx="18" ry="18"/>
<text text-anchor="middle" x="69" y="-198.3" font-family="Times,serif" font-size="14.00">0</text>
</g>
<!-- 3 -->
<g id="node4" class="node"><title>3</title>
<ellipse fill="lightblue" stroke="black" cx="18" cy="-114" rx="18" ry="18"/>
<text text-anchor="middle" x="18" y="-110.3" font-family="Times,serif" font-size="14.00">3</text>
</g>
<!-- 0&#45;&gt;3 -->
<g id="edge1" class="edge"><title>0&#45;&gt;3</title>
<path fill="none" stroke="black" d="M60.1165,-186.02C52.3646,-172.948 40.9841,-153.758 32.0069,-138.619"/>
<polygon fill="black" stroke="black" points="34.893,-136.624 26.7817,-129.808 28.8721,-140.195 34.893,-136.624"/>
<text text-anchor="middle" x="57.5" y="-154.3" font-family="Times,serif" font-size="14.00">b,a</text>
</g>
<!-- 1 -->
<g id="node2" class="node"><title>1</title>
<ellipse fill="green" stroke="black" cx="82" cy="-22" rx="17.5909" ry="18"/>
<ellipse fill="none" stroke="black" cx="82" cy="-22" rx="21.5" ry="22"/>
<text text-anchor="middle" x="82" y="-18.3" font-family="Times,serif" font-size="14.00">1</text>
</g>
<!-- 1&#45;&gt;0 -->
<g id="edge2" class="edge"><title>1&#45;&gt;0</title>
<path fill="none" stroke="black" d="M80.4585,-44.1069C78.0988,-76.4168 73.5915,-138.132 70.9887,-173.771"/>
<polygon fill="black" stroke="black" points="67.4843,-173.704 70.2465,-183.933 74.4657,-174.214 67.4843,-173.704"/>
<text text-anchor="middle" x="79.5" y="-110.3" font-family="Times,serif" font-size="14.00">a</text>
</g>
<!-- 1&#45;&gt;3 -->
<g id="edge3" class="edge"><title>1&#45;&gt;3</title>
<path fill="none" stroke="black" d="M69.6602,-40.3529C59.5211,-54.6109 45.0829,-74.9146 34.0467,-90.4344"/>
<polygon fill="black" stroke="black" points="30.9429,-88.7596 28,-98.9375 36.6476,-92.8163 30.9429,-88.7596"/>
<text text-anchor="middle" x="56.5" y="-66.3" font-family="Times,serif" font-size="14.00">b</text>
</g>
<!-- 2 -->
<g id="node3" class="node"><title>2</title>
<ellipse fill="lightblue" stroke="black" cx="140" cy="-114" rx="18" ry="18"/>
<text text-anchor="middle" x="140" y="-110.3" font-family="Times,serif" font-size="14.00">2</text>
</g>
<!-- 2&#45;&gt;1 -->
<g id="edge4" class="edge"><title>2&#45;&gt;1</title>
<path fill="none" stroke="black" d="M131.848,-97.5343C126.282,-87.269 118.571,-73.6005 111,-62 107.945,-57.3188 104.529,-52.4486 101.143,-47.8007"/>
<polygon fill="black" stroke="black" points="103.943,-45.6995 95.167,-39.7634 98.3255,-49.8765 103.943,-45.6995"/>
<text text-anchor="middle" x="123.5" y="-66.3" font-family="Times,serif" font-size="14.00">a</text>
</g>
<!-- 2&#45;&gt;2 -->
<g id="edge5" class="edge"><title>2&#45;&gt;2</title>
<path fill="none" stroke="black" d="M156.29,-121.668C166.389,-123.517 176,-120.961 176,-114 176,-109.541 172.056,-106.889 166.566,-106.045"/>
<polygon fill="black" stroke="black" points="166.189,-102.554 156.29,-106.332 166.384,-109.552 166.189,-102.554"/>
<text text-anchor="middle" x="179.5" y="-110.3" font-family="Times,serif" font-size="14.00">b</text>
</g>
<!-- 3&#45;&gt;1 -->
<g id="edge6" class="edge"><title>3&#45;&gt;1</title>
<path fill="none" stroke="black" d="M20.7837,-95.8289C23.0827,-85.3782 27.1217,-72.1356 34,-62 39.6676,-53.6485 47.6447,-46.1719 55.4712,-40.0537"/>
<polygon fill="black" stroke="black" points="57.7828,-42.6993 63.7882,-33.9708 53.6504,-37.0492 57.7828,-42.6993"/>
<text text-anchor="middle" x="37.5" y="-66.3" font-family="Times,serif" font-size="14.00">a</text>
</g>
<!-- 3&#45;&gt;3 -->
<g id="edge7" class="edge"><title>3&#45;&gt;3</title>
<path fill="none" stroke="black" d="M34.2903,-121.668C44.3892,-123.517 54,-120.961 54,-114 54,-109.541 50.0557,-106.889 44.5656,-106.045"/>
<polygon fill="black" stroke="black" points="44.1887,-102.554 34.2903,-106.332 44.384,-109.552 44.1887,-102.554"/>
<text text-anchor="middle" x="57.5" y="-110.3" font-family="Times,serif" font-size="14.00">b</text>
</g>
</g>
</svg>
