<?xml version="1.0" encoding="UTF-8" standalone="no"?>
<!DOCTYPE svg PUBLIC "-//W3C//DTD SVG 1.1//EN"
 "http://www.w3.org/Graphics/SVG/1.1/DTD/svg11.dtd">
<!-- Generated by graphviz version 2.36.0 (20140111.2315)
 -->
<!-- Title: %3 Pages: 1 -->
<svg width="156pt" height="316pt"
 viewBox="0.00 0.00 156.00 316.00" xmlns="http://www.w3.org/2000/svg" xmlns:xlink="http://www.w3.org/1999/xlink">
<g id="graph0" class="graph" transform="scale(1 1) rotate(0) translate(4 312)">
<title>%3</title>
<polygon fill="white" stroke="none" points="-4,4 -4,-312 152,-312 152,4 -4,4"/>
<!-- 0 -->
<g id="node1" class="node"><title>0</title>
<ellipse fill="lightblue" stroke="black" cx="18" cy="-286" rx="18" ry="18"/>
<text text-anchor="middle" x="18" y="-282.3" font-family="Times,serif" font-size="14.00">0</text>
</g>
<!-- 0&#45;&gt;0 -->
<g id="edge1" class="edge"><title>0&#45;&gt;0</title>
<path fill="none" stroke="black" d="M34.2903,-294.365C44.3892,-296.382 54,-293.594 54,-286 54,-281.135 50.0557,-278.243 44.5656,-277.322"/>
<polygon fill="black" stroke="black" points="44.1791,-273.832 34.2903,-277.635 44.3922,-280.829 44.1791,-273.832"/>
<text text-anchor="middle" x="57.5" y="-282.3" font-family="Times,serif" font-size="14.00">a</text>
</g>
<!-- 4 -->
<g id="node5" class="node"><title>4</title>
<ellipse fill="green" stroke="black" cx="48" cy="-194" rx="18" ry="18"/>
<text text-anchor="middle" x="48" y="-190.3" font-family="Times,serif" font-size="14.00">4</text>
</g>
<!-- 0&#45;&gt;4 -->
<g id="edge2" class="edge"><title>0&#45;&gt;4</title>
<path fill="none" stroke="black" d="M16.3535,-267.616C15.9238,-256.518 16.5365,-242.012 21,-230 22.9222,-224.827 25.8947,-219.799 29.1759,-215.242"/>
<polygon fill="black" stroke="black" points="32.1431,-217.137 35.671,-207.147 26.6832,-212.756 32.1431,-217.137"/>
<text text-anchor="middle" x="24.5" y="-234.3" font-family="Times,serif" font-size="14.00">b</text>
</g>
<!-- 1 -->
<g id="node2" class="node"><title>1</title>
<ellipse fill="lightblue" stroke="black" cx="48" cy="-106" rx="18" ry="18"/>
<text text-anchor="middle" x="48" y="-102.3" font-family="Times,serif" font-size="14.00">1</text>
</g>
<!-- 1&#45;&gt;1 -->
<g id="edge3" class="edge"><title>1&#45;&gt;1</title>
<path fill="none" stroke="black" d="M64.2903,-113.668C74.3892,-115.517 84,-112.961 84,-106 84,-101.541 80.0557,-98.8891 74.5656,-98.0454"/>
<polygon fill="black" stroke="black" points="74.1887,-94.5544 64.2903,-98.3321 74.384,-101.552 74.1887,-94.5544"/>
<text text-anchor="middle" x="87.5" y="-102.3" font-family="Times,serif" font-size="14.00">a</text>
</g>
<!-- 3 -->
<g id="node4" class="node"><title>3</title>
<ellipse fill="lightblue" stroke="black" cx="48" cy="-18" rx="18" ry="18"/>
<text text-anchor="middle" x="48" y="-14.3" font-family="Times,serif" font-size="14.00">3</text>
</g>
<!-- 1&#45;&gt;3 -->
<g id="edge4" class="edge"><title>1&#45;&gt;3</title>
<path fill="none" stroke="black" d="M41.3664,-89.2577C39.201,-83.3321 37.0772,-76.4629 36,-70 34.8309,-62.9856 34.8309,-61.0144 36,-54 36.5217,-50.8695 37.2891,-47.6437 38.1877,-44.476"/>
<polygon fill="black" stroke="black" points="41.5891,-45.3348 41.3664,-34.7423 34.9349,-43.1618 41.5891,-45.3348"/>
<text text-anchor="middle" x="39.5" y="-58.3" font-family="Times,serif" font-size="14.00">b</text>
</g>
<!-- 2 -->
<g id="node3" class="node"><title>2</title>
<ellipse fill="lightblue" stroke="black" cx="101" cy="-286" rx="17.5909" ry="18"/>
<ellipse fill="none" stroke="black" cx="101" cy="-286" rx="21.5" ry="22"/>
<text text-anchor="middle" x="101" y="-282.3" font-family="Times,serif" font-size="14.00">2</text>
</g>
<!-- 2&#45;&gt;2 -->
<g id="edge5" class="edge"><title>2&#45;&gt;2</title>
<path fill="none" stroke="black" d="M121.066,-294.734C131.074,-295.943 140,-293.031 140,-286 140,-281.496 136.337,-278.682 131.072,-277.559"/>
<polygon fill="black" stroke="black" points="131.165,-274.061 121.066,-277.266 130.959,-281.057 131.165,-274.061"/>
<text text-anchor="middle" x="143.5" y="-282.3" font-family="Times,serif" font-size="14.00">a</text>
</g>
<!-- 2&#45;&gt;4 -->
<g id="edge6" class="edge"><title>2&#45;&gt;4</title>
<path fill="none" stroke="black" d="M90.2747,-266.787C82.1088,-252.921 70.8008,-233.718 61.9347,-218.663"/>
<polygon fill="black" stroke="black" points="64.8701,-216.75 56.7797,-209.909 58.8383,-220.302 64.8701,-216.75"/>
<text text-anchor="middle" x="80.5" y="-234.3" font-family="Times,serif" font-size="14.00">b</text>
</g>
<!-- 3&#45;&gt;1 -->
<g id="edge7" class="edge"><title>3&#45;&gt;1</title>
<path fill="none" stroke="black" d="M48,-36.084C48,-47.8607 48,-63.7741 48,-77.342"/>
<polygon fill="black" stroke="black" points="44.5001,-77.5966 48,-87.5966 51.5001,-77.5967 44.5001,-77.5966"/>
<text text-anchor="middle" x="51.5" y="-58.3" font-family="Times,serif" font-size="14.00">a</text>
</g>
<!-- 3&#45;&gt;3 -->
<g id="edge8" class="edge"><title>3&#45;&gt;3</title>
<path fill="none" stroke="black" d="M64.2903,-25.6679C74.3892,-27.5169 84,-24.9609 84,-18 84,-13.5406 80.0557,-10.8891 74.5656,-10.0454"/>
<polygon fill="black" stroke="black" points="74.1887,-6.55441 64.2903,-10.3321 74.384,-13.5517 74.1887,-6.55441"/>
<text text-anchor="middle" x="87.5" y="-14.3" font-family="Times,serif" font-size="14.00">b</text>
</g>
<!-- 4&#45;&gt;0 -->
<g id="edge9" class="edge"><title>4&#45;&gt;0</title>
<path fill="none" stroke="black" d="M42.5324,-211.403C38.1442,-224.567 31.8975,-243.308 26.8059,-258.582"/>
<polygon fill="black" stroke="black" points="23.3444,-257.899 23.5025,-268.493 29.9852,-260.113 23.3444,-257.899"/>
<text text-anchor="middle" x="39.5" y="-234.3" font-family="Times,serif" font-size="14.00">a</text>
</g>
<!-- 4&#45;&gt;1 -->
<g id="edge10" class="edge"><title>4&#45;&gt;1</title>
<path fill="none" stroke="black" d="M48,-175.597C48,-163.746 48,-147.817 48,-134.292"/>
<polygon fill="black" stroke="black" points="51.5001,-134.084 48,-124.084 44.5001,-134.084 51.5001,-134.084"/>
<text text-anchor="middle" x="51.5" y="-146.3" font-family="Times,serif" font-size="14.00">b</text>
</g>
</g>
</svg>
