<?xml version="1.0" encoding="UTF-8" standalone="no"?>
<!DOCTYPE svg PUBLIC "-//W3C//DTD SVG 1.1//EN"
 "http://www.w3.org/Graphics/SVG/1.1/DTD/svg11.dtd">
<!-- Generated by graphviz version 2.36.0 (20140111.2315)
 -->
<!-- Title: %3 Pages: 1 -->
<svg width="146pt" height="404pt"
 viewBox="0.00 0.00 146.33 404.00" xmlns="http://www.w3.org/2000/svg" xmlns:xlink="http://www.w3.org/1999/xlink">
<g id="graph0" class="graph" transform="scale(1 1) rotate(0) translate(4 400)">
<title>%3</title>
<polygon fill="white" stroke="none" points="-4,4 -4,-400 142.331,-400 142.331,4 -4,4"/>
<!-- 0 -->
<g id="node1" class="node"><title>0</title>
<ellipse fill="lightblue" stroke="black" cx="50.3308" cy="-282" rx="18" ry="18"/>
<text text-anchor="middle" x="50.3308" y="-278.3" font-family="Times,serif" font-size="14.00">0</text>
</g>
<!-- 1 -->
<g id="node2" class="node"><title>1</title>
<ellipse fill="lightblue" stroke="black" cx="30.3308" cy="-18" rx="18" ry="18"/>
<text text-anchor="middle" x="30.3308" y="-14.3" font-family="Times,serif" font-size="14.00">1</text>
</g>
<!-- 0&#45;&gt;1 -->
<g id="edge1" class="edge"><title>0&#45;&gt;1</title>
<path fill="none" stroke="black" d="M36.3277,-270.15C29.2126,-263.871 21.0869,-255.366 16.3308,-246 -1.63298,-210.624 4.676,-197.534 1.33075,-158 -2.60684,-111.466 3.66424,-98.9499 16.3308,-54 17.236,-50.7874 18.3362,-47.4658 19.5178,-44.206"/>
<polygon fill="black" stroke="black" points="22.8199,-45.3716 23.1929,-34.7834 16.2984,-42.828 22.8199,-45.3716"/>
<text text-anchor="middle" x="4.83075" y="-146.3" font-family="Times,serif" font-size="14.00">b</text>
</g>
<!-- 3 -->
<g id="node4" class="node"><title>3</title>
<ellipse fill="lightblue" stroke="black" cx="76.3308" cy="-194" rx="18" ry="18"/>
<text text-anchor="middle" x="76.3308" y="-190.3" font-family="Times,serif" font-size="14.00">3</text>
</g>
<!-- 0&#45;&gt;3 -->
<g id="edge2" class="edge"><title>0&#45;&gt;3</title>
<path fill="none" stroke="black" d="M55.3438,-264.418C59.0486,-252.164 64.1664,-235.236 68.4205,-221.165"/>
<polygon fill="black" stroke="black" points="71.7894,-222.116 71.3331,-211.531 65.0889,-220.09 71.7894,-222.116"/>
<text text-anchor="middle" x="68.8308" y="-234.3" font-family="Times,serif" font-size="14.00">a</text>
</g>
<!-- 1&#45;&gt;0 -->
<g id="edge3" class="edge"><title>1&#45;&gt;0</title>
<path fill="none" stroke="black" d="M31.6478,-36.2538C35.0435,-80.7375 44.1174,-199.605 48.2403,-253.616"/>
<polygon fill="black" stroke="black" points="44.7674,-254.105 49.0185,-263.809 51.7471,-253.572 44.7674,-254.105"/>
<text text-anchor="middle" x="44.8308" y="-146.3" font-family="Times,serif" font-size="14.00">b</text>
</g>
<!-- 1&#45;&gt;1 -->
<g id="edge4" class="edge"><title>1&#45;&gt;1</title>
<path fill="none" stroke="black" d="M46.621,-25.6679C56.7199,-27.5169 66.3308,-24.9609 66.3308,-18 66.3308,-13.5406 62.3865,-10.8891 56.8964,-10.0454"/>
<polygon fill="black" stroke="black" points="56.5195,-6.55441 46.621,-10.3321 56.7148,-13.5517 56.5195,-6.55441"/>
<text text-anchor="middle" x="69.8308" y="-14.3" font-family="Times,serif" font-size="14.00">a</text>
</g>
<!-- 2 -->
<g id="node3" class="node"><title>2</title>
<ellipse fill="lightblue" stroke="black" cx="76.3308" cy="-106" rx="18" ry="18"/>
<text text-anchor="middle" x="76.3308" y="-102.3" font-family="Times,serif" font-size="14.00">2</text>
</g>
<!-- 2&#45;&gt;0 -->
<g id="edge5" class="edge"><title>2&#45;&gt;0</title>
<path fill="none" stroke="black" d="M89.3543,-118.521C109.379,-137.706 143.872,-177.503 128.331,-212 117.354,-236.366 93.0491,-255.598 74.4668,-267.501"/>
<polygon fill="black" stroke="black" points="72.5938,-264.544 65.8878,-272.746 76.2452,-270.516 72.5938,-264.544"/>
<text text-anchor="middle" x="134.831" y="-190.3" font-family="Times,serif" font-size="14.00">a</text>
</g>
<!-- 2&#45;&gt;1 -->
<g id="edge6" class="edge"><title>2&#45;&gt;1</title>
<path fill="none" stroke="black" d="M68.1069,-89.6249C61.2385,-76.784 51.3214,-58.2434 43.3717,-43.3808"/>
<polygon fill="black" stroke="black" points="46.2863,-41.409 38.4834,-34.242 40.1138,-44.7106 46.2863,-41.409"/>
<text text-anchor="middle" x="60.8308" y="-58.3" font-family="Times,serif" font-size="14.00">b</text>
</g>
<!-- 3&#45;&gt;2 -->
<g id="edge7" class="edge"><title>3&#45;&gt;2</title>
<path fill="none" stroke="black" d="M76.3308,-175.597C76.3308,-163.746 76.3308,-147.817 76.3308,-134.292"/>
<polygon fill="black" stroke="black" points="79.8309,-134.084 76.3308,-124.084 72.8309,-134.084 79.8309,-134.084"/>
<text text-anchor="middle" x="79.8308" y="-146.3" font-family="Times,serif" font-size="14.00">a</text>
</g>
<!-- 3&#45;&gt;3 -->
<g id="edge8" class="edge"><title>3&#45;&gt;3</title>
<path fill="none" stroke="black" d="M92.621,-201.668C102.72,-203.517 112.331,-200.961 112.331,-194 112.331,-189.541 108.386,-186.889 102.896,-186.045"/>
<polygon fill="black" stroke="black" points="102.519,-182.554 92.621,-186.332 102.715,-189.552 102.519,-182.554"/>
<text text-anchor="middle" x="115.831" y="-190.3" font-family="Times,serif" font-size="14.00">b</text>
</g>
<!-- 4 -->
<g id="node5" class="node"><title>4</title>
<ellipse fill="green" stroke="black" cx="50.3308" cy="-374" rx="17.5909" ry="18"/>
<ellipse fill="none" stroke="black" cx="50.3308" cy="-374" rx="21.5" ry="22"/>
<text text-anchor="middle" x="50.3308" y="-370.3" font-family="Times,serif" font-size="14.00">4</text>
</g>
<!-- 4&#45;&gt;0 -->
<g id="edge9" class="edge"><title>4&#45;&gt;0</title>
<path fill="none" stroke="black" d="M50.3308,-351.671C50.3308,-339.284 50.3308,-323.552 50.3308,-310.272"/>
<polygon fill="black" stroke="black" points="53.8309,-310.258 50.3308,-300.258 46.8309,-310.258 53.8309,-310.258"/>
<text text-anchor="middle" x="53.8308" y="-322.3" font-family="Times,serif" font-size="14.00">b</text>
</g>
<!-- 4&#45;&gt;4 -->
<g id="edge10" class="edge"><title>4&#45;&gt;4</title>
<path fill="none" stroke="black" d="M70.397,-382.734C80.4044,-383.943 89.3308,-381.031 89.3308,-374 89.3308,-369.496 85.6674,-366.682 80.4032,-365.559"/>
<polygon fill="black" stroke="black" points="80.4953,-362.061 70.397,-365.266 80.2901,-369.057 80.4953,-362.061"/>
<text text-anchor="middle" x="92.8308" y="-370.3" font-family="Times,serif" font-size="14.00">a</text>
</g>
</g>
</svg>
