<?xml version="1.0" encoding="UTF-8" standalone="no"?>
<!DOCTYPE svg PUBLIC "-//W3C//DTD SVG 1.1//EN"
 "http://www.w3.org/Graphics/SVG/1.1/DTD/svg11.dtd">
<!-- Generated by graphviz version 2.36.0 (20140111.2315)
 -->
<!-- Title: %3 Pages: 1 -->
<svg width="134pt" height="316pt"
 viewBox="0.00 0.00 134.00 316.00" xmlns="http://www.w3.org/2000/svg" xmlns:xlink="http://www.w3.org/1999/xlink">
<g id="graph0" class="graph" transform="scale(1 1) rotate(0) translate(4 312)">
<title>%3</title>
<polygon fill="white" stroke="none" points="-4,4 -4,-312 130,-312 130,4 -4,4"/>
<!-- 0 -->
<g id="node1" class="node"><title>0</title>
<ellipse fill="lightblue" stroke="black" cx="81" cy="-290" rx="18" ry="18"/>
<text text-anchor="middle" x="81" y="-286.3" font-family="Times,serif" font-size="14.00">0</text>
</g>
<!-- 1 -->
<g id="node2" class="node"><title>1</title>
<ellipse fill="lightblue" stroke="black" cx="25" cy="-202" rx="18" ry="18"/>
<text text-anchor="middle" x="25" y="-198.3" font-family="Times,serif" font-size="14.00">1</text>
</g>
<!-- 0&#45;&gt;1 -->
<g id="edge1" class="edge"><title>0&#45;&gt;1</title>
<path fill="none" stroke="black" d="M71.5004,-274.411C62.8921,-261.191 50.0612,-241.487 40.0568,-226.123"/>
<polygon fill="black" stroke="black" points="42.936,-224.13 34.5462,-217.66 37.07,-227.95 42.936,-224.13"/>
<text text-anchor="middle" x="62.5" y="-242.3" font-family="Times,serif" font-size="14.00">b</text>
</g>
<!-- 2 -->
<g id="node3" class="node"><title>2</title>
<ellipse fill="green" stroke="black" cx="73" cy="-18" rx="18" ry="18"/>
<text text-anchor="middle" x="73" y="-14.3" font-family="Times,serif" font-size="14.00">2</text>
</g>
<!-- 0&#45;&gt;2 -->
<g id="edge2" class="edge"><title>0&#45;&gt;2</title>
<path fill="none" stroke="black" d="M81.0758,-271.783C81.1552,-237.025 80.9683,-155.99 78,-88 77.3943,-74.126 76.3157,-58.7089 75.315,-45.9728"/>
<polygon fill="black" stroke="black" points="78.803,-45.6816 74.5049,-35.9978 71.826,-46.2484 78.803,-45.6816"/>
<text text-anchor="middle" x="83.5" y="-154.3" font-family="Times,serif" font-size="14.00">a</text>
</g>
<!-- 1&#45;&gt;1 -->
<g id="edge3" class="edge"><title>1&#45;&gt;1</title>
<path fill="none" stroke="black" d="M41.2903,-209.668C51.3892,-211.517 61,-208.961 61,-202 61,-197.541 57.0557,-194.889 51.5656,-194.045"/>
<polygon fill="black" stroke="black" points="51.1887,-190.554 41.2903,-194.332 51.384,-197.552 51.1887,-190.554"/>
<text text-anchor="middle" x="64.5" y="-198.3" font-family="Times,serif" font-size="14.00">a</text>
</g>
<!-- 3 -->
<g id="node4" class="node"><title>3</title>
<ellipse fill="lightblue" stroke="black" cx="22" cy="-110" rx="17.5909" ry="18"/>
<ellipse fill="none" stroke="black" cx="22" cy="-110" rx="21.5" ry="22"/>
<text text-anchor="middle" x="22" y="-106.3" font-family="Times,serif" font-size="14.00">3</text>
</g>
<!-- 1&#45;&gt;3 -->
<g id="edge4" class="edge"><title>1&#45;&gt;3</title>
<path fill="none" stroke="black" d="M24.4216,-183.647C24.0308,-171.924 23.5038,-156.114 23.0412,-142.237"/>
<polygon fill="black" stroke="black" points="26.5347,-141.979 22.7034,-132.101 19.5386,-142.212 26.5347,-141.979"/>
<text text-anchor="middle" x="27.5" y="-154.3" font-family="Times,serif" font-size="14.00">b</text>
</g>
<!-- 2&#45;&gt;2 -->
<g id="edge5" class="edge"><title>2&#45;&gt;2</title>
<path fill="none" stroke="black" d="M89.2903,-25.6679C99.3892,-27.5169 109,-24.9609 109,-18 109,-13.5406 105.056,-10.8891 99.5656,-10.0454"/>
<polygon fill="black" stroke="black" points="99.1887,-6.55441 89.2903,-10.3321 99.384,-13.5517 99.1887,-6.55441"/>
<text text-anchor="middle" x="117.5" y="-14.3" font-family="Times,serif" font-size="14.00">b,a</text>
</g>
<!-- 3&#45;&gt;2 -->
<g id="edge6" class="edge"><title>3&#45;&gt;2</title>
<path fill="none" stroke="black" d="M32.5672,-90.3519C40.3217,-76.6676 50.9208,-57.9633 59.3216,-43.1383"/>
<polygon fill="black" stroke="black" points="62.5876,-44.4739 64.4727,-34.0481 56.4975,-41.0228 62.5876,-44.4739"/>
<text text-anchor="middle" x="56.5" y="-58.3" font-family="Times,serif" font-size="14.00">a</text>
</g>
<!-- 3&#45;&gt;3 -->
<g id="edge7" class="edge"><title>3&#45;&gt;3</title>
<path fill="none" stroke="black" d="M42.0663,-118.734C52.0736,-119.943 61,-117.031 61,-110 61,-105.496 57.3366,-102.682 52.0725,-101.559"/>
<polygon fill="black" stroke="black" points="52.1646,-98.0605 42.0663,-101.266 51.9594,-105.057 52.1646,-98.0605"/>
<text text-anchor="middle" x="64.5" y="-106.3" font-family="Times,serif" font-size="14.00">b</text>
</g>
</g>
</svg>
