<?xml version="1.0" encoding="UTF-8" standalone="no"?>
<!DOCTYPE svg PUBLIC "-//W3C//DTD SVG 1.1//EN"
 "http://www.w3.org/Graphics/SVG/1.1/DTD/svg11.dtd">
<!-- Generated by graphviz version 2.36.0 (20140111.2315)
 -->
<!-- Title: %3 Pages: 1 -->
<svg width="115pt" height="316pt"
 viewBox="0.00 0.00 114.72 316.00" xmlns="http://www.w3.org/2000/svg" xmlns:xlink="http://www.w3.org/1999/xlink">
<g id="graph0" class="graph" transform="scale(1 1) rotate(0) translate(4 312)">
<title>%3</title>
<polygon fill="white" stroke="none" points="-4,4 -4,-312 110.723,-312 110.723,4 -4,4"/>
<!-- 0 -->
<g id="node1" class="node"><title>0</title>
<ellipse fill="lightblue" stroke="black" cx="36.7231" cy="-194" rx="18" ry="18"/>
<text text-anchor="middle" x="36.7231" y="-190.3" font-family="Times,serif" font-size="14.00">0</text>
</g>
<!-- 2 -->
<g id="node3" class="node"><title>2</title>
<ellipse fill="lightblue" stroke="black" cx="36.7231" cy="-18" rx="18" ry="18"/>
<text text-anchor="middle" x="36.7231" y="-14.3" font-family="Times,serif" font-size="14.00">2</text>
</g>
<!-- 0&#45;&gt;2 -->
<g id="edge1" class="edge"><title>0&#45;&gt;2</title>
<path fill="none" stroke="black" d="M27.2156,-178.668C18.8936,-165.202 7.42026,-144.16 2.72307,-124 -0.907691,-108.417 -0.907691,-103.583 2.72307,-88 6.50284,-71.7779 14.6703,-54.984 22.0528,-42.0263"/>
<polygon fill="black" stroke="black" points="25.1191,-43.7174 27.2156,-33.3321 19.1003,-40.1433 25.1191,-43.7174"/>
<text text-anchor="middle" x="6.22307" y="-102.3" font-family="Times,serif" font-size="14.00">b</text>
</g>
<!-- 3 -->
<g id="node4" class="node"><title>3</title>
<ellipse fill="lightblue" stroke="black" cx="36.7231" cy="-106" rx="18" ry="18"/>
<text text-anchor="middle" x="36.7231" y="-102.3" font-family="Times,serif" font-size="14.00">3</text>
</g>
<!-- 0&#45;&gt;3 -->
<g id="edge2" class="edge"><title>0&#45;&gt;3</title>
<path fill="none" stroke="black" d="M36.7231,-175.597C36.7231,-163.746 36.7231,-147.817 36.7231,-134.292"/>
<polygon fill="black" stroke="black" points="40.2232,-134.084 36.7231,-124.084 33.2232,-134.084 40.2232,-134.084"/>
<text text-anchor="middle" x="40.2231" y="-146.3" font-family="Times,serif" font-size="14.00">a</text>
</g>
<!-- 1 -->
<g id="node2" class="node"><title>1</title>
<ellipse fill="green" stroke="black" cx="84.7231" cy="-286" rx="17.5909" ry="18"/>
<ellipse fill="none" stroke="black" cx="84.7231" cy="-286" rx="21.5" ry="22"/>
<text text-anchor="middle" x="84.7231" y="-282.3" font-family="Times,serif" font-size="14.00">1</text>
</g>
<!-- 1&#45;&gt;0 -->
<g id="edge3" class="edge"><title>1&#45;&gt;0</title>
<path fill="none" stroke="black" d="M74.7774,-266.352C67.5242,-252.752 57.6265,-234.194 49.7435,-219.413"/>
<polygon fill="black" stroke="black" points="52.6963,-217.512 44.9022,-210.336 46.5199,-220.806 52.6963,-217.512"/>
<text text-anchor="middle" x="66.2231" y="-234.3" font-family="Times,serif" font-size="14.00">b</text>
</g>
<!-- 1&#45;&gt;2 -->
<g id="edge4" class="edge"><title>1&#45;&gt;2</title>
<path fill="none" stroke="black" d="M89.5568,-264.471C97.2184,-227.884 109.294,-149.475 88.7231,-88 82.3374,-68.9166 68.3639,-50.8852 56.5091,-38.044"/>
<polygon fill="black" stroke="black" points="58.947,-35.5298 49.4884,-30.7563 53.9057,-40.3864 58.947,-35.5298"/>
<text text-anchor="middle" x="103.223" y="-146.3" font-family="Times,serif" font-size="14.00">a</text>
</g>
<!-- 2&#45;&gt;2 -->
<g id="edge5" class="edge"><title>2&#45;&gt;2</title>
<path fill="none" stroke="black" d="M53.0133,-25.6679C63.1122,-27.5169 72.7231,-24.9609 72.7231,-18 72.7231,-13.5406 68.7788,-10.8891 63.2887,-10.0454"/>
<polygon fill="black" stroke="black" points="62.9118,-6.55441 53.0133,-10.3321 63.1071,-13.5517 62.9118,-6.55441"/>
<text text-anchor="middle" x="81.2231" y="-14.3" font-family="Times,serif" font-size="14.00">b,a</text>
</g>
<!-- 3&#45;&gt;2 -->
<g id="edge6" class="edge"><title>3&#45;&gt;2</title>
<path fill="none" stroke="black" d="M36.7231,-87.5966C36.7231,-75.7459 36.7231,-59.8169 36.7231,-46.2917"/>
<polygon fill="black" stroke="black" points="40.2232,-46.084 36.7231,-36.084 33.2232,-46.084 40.2232,-46.084"/>
<text text-anchor="middle" x="40.2231" y="-58.3" font-family="Times,serif" font-size="14.00">b</text>
</g>
<!-- 3&#45;&gt;3 -->
<g id="edge7" class="edge"><title>3&#45;&gt;3</title>
<path fill="none" stroke="black" d="M53.0133,-113.668C63.1122,-115.517 72.7231,-112.961 72.7231,-106 72.7231,-101.541 68.7788,-98.8891 63.2887,-98.0454"/>
<polygon fill="black" stroke="black" points="62.9118,-94.5544 53.0133,-98.3321 63.1071,-101.552 62.9118,-94.5544"/>
<text text-anchor="middle" x="76.2231" y="-102.3" font-family="Times,serif" font-size="14.00">a</text>
</g>
</g>
</svg>
