<?xml version="1.0" encoding="UTF-8" standalone="no"?>
<!DOCTYPE svg PUBLIC "-//W3C//DTD SVG 1.1//EN"
 "http://www.w3.org/Graphics/SVG/1.1/DTD/svg11.dtd">
<!-- Generated by graphviz version 2.36.0 (20140111.2315)
 -->
<!-- Title: %3 Pages: 1 -->
<svg width="148pt" height="404pt"
 viewBox="0.00 0.00 148.00 404.00" xmlns="http://www.w3.org/2000/svg" xmlns:xlink="http://www.w3.org/1999/xlink">
<g id="graph0" class="graph" transform="scale(1 1) rotate(0) translate(4 400)">
<title>%3</title>
<polygon fill="white" stroke="none" points="-4,4 -4,-400 144,-400 144,4 -4,4"/>
<!-- 0 -->
<g id="node1" class="node"><title>0</title>
<ellipse fill="lightblue" stroke="black" cx="97" cy="-378" rx="18" ry="18"/>
<text text-anchor="middle" x="97" y="-374.3" font-family="Times,serif" font-size="14.00">0</text>
</g>
<!-- 0&#45;&gt;0 -->
<g id="edge1" class="edge"><title>0&#45;&gt;0</title>
<path fill="none" stroke="black" d="M113.29,-385.668C123.389,-387.517 133,-384.961 133,-378 133,-373.541 129.056,-370.889 123.566,-370.045"/>
<polygon fill="black" stroke="black" points="123.189,-366.554 113.29,-370.332 123.384,-373.552 123.189,-366.554"/>
<text text-anchor="middle" x="136.5" y="-374.3" font-family="Times,serif" font-size="14.00">b</text>
</g>
<!-- 1 -->
<g id="node2" class="node"><title>1</title>
<ellipse fill="lightblue" stroke="black" cx="18" cy="-290" rx="18" ry="18"/>
<text text-anchor="middle" x="18" y="-286.3" font-family="Times,serif" font-size="14.00">1</text>
</g>
<!-- 0&#45;&gt;1 -->
<g id="edge2" class="edge"><title>0&#45;&gt;1</title>
<path fill="none" stroke="black" d="M85.0016,-363.938C72.167,-349.967 51.6422,-327.623 36.688,-311.344"/>
<polygon fill="black" stroke="black" points="39.1951,-308.899 29.8525,-303.903 34.0399,-313.635 39.1951,-308.899"/>
<text text-anchor="middle" x="68.5" y="-330.3" font-family="Times,serif" font-size="14.00">a</text>
</g>
<!-- 1&#45;&gt;1 -->
<g id="edge3" class="edge"><title>1&#45;&gt;1</title>
<path fill="none" stroke="black" d="M34.2903,-297.668C44.3892,-299.517 54,-296.961 54,-290 54,-285.541 50.0557,-282.889 44.5656,-282.045"/>
<polygon fill="black" stroke="black" points="44.1887,-278.554 34.2903,-282.332 44.384,-285.552 44.1887,-278.554"/>
<text text-anchor="middle" x="57.5" y="-286.3" font-family="Times,serif" font-size="14.00">b</text>
</g>
<!-- 2 -->
<g id="node3" class="node"><title>2</title>
<ellipse fill="lightblue" stroke="black" cx="80" cy="-202" rx="18" ry="18"/>
<text text-anchor="middle" x="80" y="-198.3" font-family="Times,serif" font-size="14.00">2</text>
</g>
<!-- 1&#45;&gt;2 -->
<g id="edge4" class="edge"><title>1&#45;&gt;2</title>
<path fill="none" stroke="black" d="M28.238,-274.799C37.9887,-261.274 52.8113,-240.713 64.0995,-225.056"/>
<polygon fill="black" stroke="black" points="66.9435,-227.096 69.9525,-216.937 61.2653,-223.002 66.9435,-227.096"/>
<text text-anchor="middle" x="58.5" y="-242.3" font-family="Times,serif" font-size="14.00">a</text>
</g>
<!-- 2&#45;&gt;0 -->
<g id="edge5" class="edge"><title>2&#45;&gt;0</title>
<path fill="none" stroke="black" d="M81.6677,-220.07C84.6179,-250.266 90.7798,-313.334 94.3282,-349.653"/>
<polygon fill="black" stroke="black" points="90.8831,-350.387 95.339,-359.999 97.85,-349.706 90.8831,-350.387"/>
<text text-anchor="middle" x="93.5" y="-286.3" font-family="Times,serif" font-size="14.00">b</text>
</g>
<!-- 3 -->
<g id="node4" class="node"><title>3</title>
<ellipse fill="green" stroke="black" cx="80" cy="-114" rx="18" ry="18"/>
<text text-anchor="middle" x="80" y="-110.3" font-family="Times,serif" font-size="14.00">3</text>
</g>
<!-- 2&#45;&gt;3 -->
<g id="edge6" class="edge"><title>2&#45;&gt;3</title>
<path fill="none" stroke="black" d="M80,-183.597C80,-171.746 80,-155.817 80,-142.292"/>
<polygon fill="black" stroke="black" points="83.5001,-142.084 80,-132.084 76.5001,-142.084 83.5001,-142.084"/>
<text text-anchor="middle" x="83.5" y="-154.3" font-family="Times,serif" font-size="14.00">a</text>
</g>
<!-- 3&#45;&gt;0 -->
<g id="edge7" class="edge"><title>3&#45;&gt;0</title>
<path fill="none" stroke="black" d="M87.9526,-130.398C94.5358,-144.064 103.375,-164.786 107,-184 120.02,-253.006 115.099,-272.368 106,-342 105.639,-344.763 105.132,-347.62 104.542,-350.456"/>
<polygon fill="black" stroke="black" points="101.079,-349.886 102.143,-360.427 107.885,-351.524 101.079,-349.886"/>
<text text-anchor="middle" x="117.5" y="-242.3" font-family="Times,serif" font-size="14.00">b</text>
</g>
<!-- 4 -->
<g id="node5" class="node"><title>4</title>
<ellipse fill="lightblue" stroke="black" cx="47" cy="-22" rx="17.5909" ry="18"/>
<ellipse fill="none" stroke="black" cx="47" cy="-22" rx="21.5" ry="22"/>
<text text-anchor="middle" x="47" y="-18.3" font-family="Times,serif" font-size="14.00">4</text>
</g>
<!-- 3&#45;&gt;4 -->
<g id="edge8" class="edge"><title>3&#45;&gt;4</title>
<path fill="none" stroke="black" d="M74.1003,-96.9098C69.5814,-84.5856 63.223,-67.2444 57.8007,-52.4565"/>
<polygon fill="black" stroke="black" points="60.9592,-50.9034 54.2305,-42.7196 54.3871,-53.3133 60.9592,-50.9034"/>
<text text-anchor="middle" x="70.5" y="-66.3" font-family="Times,serif" font-size="14.00">a</text>
</g>
<!-- 4&#45;&gt;1 -->
<g id="edge9" class="edge"><title>4&#45;&gt;1</title>
<path fill="none" stroke="black" d="M44.6856,-44.2283C39.4563,-92.1943 26.7346,-208.882 20.9502,-261.939"/>
<polygon fill="black" stroke="black" points="17.4627,-261.635 19.8582,-271.956 24.4215,-262.394 17.4627,-261.635"/>
<text text-anchor="middle" x="36.5" y="-154.3" font-family="Times,serif" font-size="14.00">b</text>
</g>
<!-- 4&#45;&gt;4 -->
<g id="edge10" class="edge"><title>4&#45;&gt;4</title>
<path fill="none" stroke="black" d="M67.0663,-30.7341C77.0736,-31.9426 86,-29.0312 86,-22 86,-17.4956 82.3366,-14.682 77.0725,-13.5592"/>
<polygon fill="black" stroke="black" points="77.1646,-10.0605 67.0663,-13.2659 76.9594,-17.0575 77.1646,-10.0605"/>
<text text-anchor="middle" x="89.5" y="-18.3" font-family="Times,serif" font-size="14.00">a</text>
</g>
</g>
</svg>
