<?xml version="1.0" encoding="UTF-8" standalone="no"?>
<!DOCTYPE svg PUBLIC "-//W3C//DTD SVG 1.1//EN"
 "http://www.w3.org/Graphics/SVG/1.1/DTD/svg11.dtd">
<!-- Generated by graphviz version 2.36.0 (20140111.2315)
 -->
<!-- Title: %3 Pages: 1 -->
<svg width="133pt" height="228pt"
 viewBox="0.00 0.00 133.00 228.00" xmlns="http://www.w3.org/2000/svg" xmlns:xlink="http://www.w3.org/1999/xlink">
<g id="graph0" class="graph" transform="scale(1 1) rotate(0) translate(4 224)">
<title>%3</title>
<polygon fill="white" stroke="none" points="-4,4 -4,-224 129,-224 129,4 -4,4"/>
<!-- 0 -->
<g id="node1" class="node"><title>0</title>
<ellipse fill="lightblue" stroke="black" cx="22" cy="-202" rx="18" ry="18"/>
<text text-anchor="middle" x="22" y="-198.3" font-family="Times,serif" font-size="14.00">0</text>
</g>
<!-- 2 -->
<g id="node3" class="node"><title>2</title>
<ellipse fill="lightblue" stroke="black" cx="52" cy="-114" rx="18" ry="18"/>
<text text-anchor="middle" x="52" y="-110.3" font-family="Times,serif" font-size="14.00">2</text>
</g>
<!-- 0&#45;&gt;2 -->
<g id="edge1" class="edge"><title>0&#45;&gt;2</title>
<path fill="none" stroke="black" d="M27.6428,-184.824C31.9587,-172.452 37.9955,-155.146 42.9793,-140.859"/>
<polygon fill="black" stroke="black" points="46.3934,-141.698 46.3825,-131.103 39.784,-139.393 46.3934,-141.698"/>
<text text-anchor="middle" x="42.5" y="-154.3" font-family="Times,serif" font-size="14.00">a</text>
</g>
<!-- 3 -->
<g id="node4" class="node"><title>3</title>
<ellipse fill="green" stroke="black" cx="22" cy="-22" rx="17.5909" ry="18"/>
<ellipse fill="none" stroke="black" cx="22" cy="-22" rx="21.5" ry="22"/>
<text text-anchor="middle" x="22" y="-18.3" font-family="Times,serif" font-size="14.00">3</text>
</g>
<!-- 0&#45;&gt;3 -->
<g id="edge2" class="edge"><title>0&#45;&gt;3</title>
<path fill="none" stroke="black" d="M19.0715,-183.962C18.2253,-178.269 17.4177,-171.878 17,-166 13.7234,-119.894 14.0551,-108.128 17,-62 17.1636,-59.4368 17.3872,-56.7847 17.6495,-54.125"/>
<polygon fill="black" stroke="black" points="21.1481,-54.3359 18.8085,-44.0026 14.1936,-53.5395 21.1481,-54.3359"/>
<text text-anchor="middle" x="18.5" y="-110.3" font-family="Times,serif" font-size="14.00">b</text>
</g>
<!-- 1 -->
<g id="node2" class="node"><title>1</title>
<ellipse fill="lightblue" stroke="black" cx="82" cy="-202" rx="18" ry="18"/>
<text text-anchor="middle" x="82" y="-198.3" font-family="Times,serif" font-size="14.00">1</text>
</g>
<!-- 1&#45;&gt;1 -->
<g id="edge3" class="edge"><title>1&#45;&gt;1</title>
<path fill="none" stroke="black" d="M98.2903,-209.668C108.389,-211.517 118,-208.961 118,-202 118,-197.541 114.056,-194.889 108.566,-194.045"/>
<polygon fill="black" stroke="black" points="108.189,-190.554 98.2903,-194.332 108.384,-197.552 108.189,-190.554"/>
<text text-anchor="middle" x="121.5" y="-198.3" font-family="Times,serif" font-size="14.00">a</text>
</g>
<!-- 1&#45;&gt;2 -->
<g id="edge4" class="edge"><title>1&#45;&gt;2</title>
<path fill="none" stroke="black" d="M76.3572,-184.824C72.0413,-172.452 66.0045,-155.146 61.0207,-140.859"/>
<polygon fill="black" stroke="black" points="64.216,-139.393 57.6175,-131.103 57.6066,-141.698 64.216,-139.393"/>
<text text-anchor="middle" x="72.5" y="-154.3" font-family="Times,serif" font-size="14.00">b</text>
</g>
<!-- 2&#45;&gt;0 -->
<g id="edge5" class="edge"><title>2&#45;&gt;0</title>
<path fill="none" stroke="black" d="M39.6868,-127.152C34.1568,-133.419 28.1724,-141.518 25,-150 22.223,-157.425 21.0193,-165.881 20.6289,-173.744"/>
<polygon fill="black" stroke="black" points="17.1272,-173.912 20.5293,-183.946 24.1269,-173.981 17.1272,-173.912"/>
<text text-anchor="middle" x="28.5" y="-154.3" font-family="Times,serif" font-size="14.00">a</text>
</g>
<!-- 2&#45;&gt;3 -->
<g id="edge6" class="edge"><title>2&#45;&gt;3</title>
<path fill="none" stroke="black" d="M46.4975,-96.4926C42.4294,-84.2881 36.7778,-67.3335 31.9281,-52.7842"/>
<polygon fill="black" stroke="black" points="35.2107,-51.5638 28.7279,-43.1837 28.5699,-53.7774 35.2107,-51.5638"/>
<text text-anchor="middle" x="42.5" y="-66.3" font-family="Times,serif" font-size="14.00">b</text>
</g>
<!-- 3&#45;&gt;2 -->
<g id="edge7" class="edge"><title>3&#45;&gt;2</title>
<path fill="none" stroke="black" d="M20.2561,-43.9673C20.0938,-54.486 21.0028,-67.2433 25,-78 26.9222,-83.1727 29.8947,-88.2009 33.1759,-92.7577"/>
<polygon fill="black" stroke="black" points="30.6832,-95.2437 39.671,-100.853 36.1431,-90.8632 30.6832,-95.2437"/>
<text text-anchor="middle" x="28.5" y="-66.3" font-family="Times,serif" font-size="14.00">b</text>
</g>
<!-- 3&#45;&gt;3 -->
<g id="edge8" class="edge"><title>3&#45;&gt;3</title>
<path fill="none" stroke="black" d="M42.0663,-30.7341C52.0736,-31.9426 61,-29.0312 61,-22 61,-17.4956 57.3366,-14.682 52.0725,-13.5592"/>
<polygon fill="black" stroke="black" points="52.1646,-10.0605 42.0663,-13.2659 51.9594,-17.0575 52.1646,-10.0605"/>
<text text-anchor="middle" x="64.5" y="-18.3" font-family="Times,serif" font-size="14.00">a</text>
</g>
</g>
</svg>
