<?xml version="1.0" encoding="UTF-8" standalone="no"?>
<!DOCTYPE svg PUBLIC "-//W3C//DTD SVG 1.1//EN"
 "http://www.w3.org/Graphics/SVG/1.1/DTD/svg11.dtd">
<!-- Generated by graphviz version 2.36.0 (20140111.2315)
 -->
<!-- Title: %3 Pages: 1 -->
<svg width="76pt" height="316pt"
 viewBox="0.00 0.00 76.00 316.00" xmlns="http://www.w3.org/2000/svg" xmlns:xlink="http://www.w3.org/1999/xlink">
<g id="graph0" class="graph" transform="scale(1 1) rotate(0) translate(4 312)">
<title>%3</title>
<polygon fill="white" stroke="none" points="-4,4 -4,-312 72,-312 72,4 -4,4"/>
<!-- 0 -->
<g id="node1" class="node"><title>0</title>
<ellipse fill="green" stroke="black" cx="21" cy="-286" rx="17.5909" ry="18"/>
<ellipse fill="none" stroke="black" cx="21" cy="-286" rx="21.5" ry="22"/>
<text text-anchor="middle" x="21" y="-282.3" font-family="Times,serif" font-size="14.00">0</text>
</g>
<!-- 0&#45;&gt;0 -->
<g id="edge1" class="edge"><title>0&#45;&gt;0</title>
<path fill="none" stroke="black" d="M41.0663,-294.734C51.0736,-295.943 60,-293.031 60,-286 60,-281.496 56.3366,-278.682 51.0725,-277.559"/>
<polygon fill="black" stroke="black" points="51.1646,-274.061 41.0663,-277.266 50.9594,-281.057 51.1646,-274.061"/>
<text text-anchor="middle" x="63.5" y="-282.3" font-family="Times,serif" font-size="14.00">a</text>
</g>
<!-- 3 -->
<g id="node4" class="node"><title>3</title>
<ellipse fill="lightblue" stroke="black" cx="21" cy="-194" rx="18" ry="18"/>
<text text-anchor="middle" x="21" y="-190.3" font-family="Times,serif" font-size="14.00">3</text>
</g>
<!-- 0&#45;&gt;3 -->
<g id="edge2" class="edge"><title>0&#45;&gt;3</title>
<path fill="none" stroke="black" d="M13.0484,-265.491C9.71675,-255.017 7.02375,-241.858 9,-230 9.52175,-226.87 10.2891,-223.644 11.1877,-220.476"/>
<polygon fill="black" stroke="black" points="14.5891,-221.335 14.3664,-210.742 7.93495,-219.162 14.5891,-221.335"/>
<text text-anchor="middle" x="12.5" y="-234.3" font-family="Times,serif" font-size="14.00">b</text>
</g>
<!-- 1 -->
<g id="node2" class="node"><title>1</title>
<ellipse fill="lightblue" stroke="black" cx="21" cy="-18" rx="18" ry="18"/>
<text text-anchor="middle" x="21" y="-14.3" font-family="Times,serif" font-size="14.00">1</text>
</g>
<!-- 2 -->
<g id="node3" class="node"><title>2</title>
<ellipse fill="lightblue" stroke="black" cx="21" cy="-106" rx="18" ry="18"/>
<text text-anchor="middle" x="21" y="-102.3" font-family="Times,serif" font-size="14.00">2</text>
</g>
<!-- 1&#45;&gt;2 -->
<g id="edge3" class="edge"><title>1&#45;&gt;2</title>
<path fill="none" stroke="black" d="M21,-36.084C21,-47.8607 21,-63.7741 21,-77.342"/>
<polygon fill="black" stroke="black" points="17.5001,-77.5966 21,-87.5966 24.5001,-77.5967 17.5001,-77.5966"/>
<text text-anchor="middle" x="29.5" y="-58.3" font-family="Times,serif" font-size="14.00">b,a</text>
</g>
<!-- 2&#45;&gt;1 -->
<g id="edge4" class="edge"><title>2&#45;&gt;1</title>
<path fill="none" stroke="black" d="M14.8003,-88.8629C12.8558,-83.0135 10.966,-76.2957 10,-70 8.92147,-62.9712 8.92147,-61.0288 10,-54 10.4528,-51.0489 11.1086,-48.005 11.8779,-45.0013"/>
<polygon fill="black" stroke="black" points="15.3155,-45.7194 14.8003,-35.1371 8.60382,-43.7309 15.3155,-45.7194"/>
<text text-anchor="middle" x="13.5" y="-58.3" font-family="Times,serif" font-size="14.00">b</text>
</g>
<!-- 2&#45;&gt;2 -->
<g id="edge5" class="edge"><title>2&#45;&gt;2</title>
<path fill="none" stroke="black" d="M37.2903,-113.668C47.3892,-115.517 57,-112.961 57,-106 57,-101.541 53.0557,-98.8891 47.5656,-98.0454"/>
<polygon fill="black" stroke="black" points="47.1887,-94.5544 37.2903,-98.3321 47.384,-101.552 47.1887,-94.5544"/>
<text text-anchor="middle" x="60.5" y="-102.3" font-family="Times,serif" font-size="14.00">a</text>
</g>
<!-- 3&#45;&gt;0 -->
<g id="edge6" class="edge"><title>3&#45;&gt;0</title>
<path fill="none" stroke="black" d="M21,-212.258C21,-223.927 21,-239.678 21,-253.539"/>
<polygon fill="black" stroke="black" points="17.5001,-253.671 21,-263.671 24.5001,-253.671 17.5001,-253.671"/>
<text text-anchor="middle" x="24.5" y="-234.3" font-family="Times,serif" font-size="14.00">b</text>
</g>
<!-- 3&#45;&gt;2 -->
<g id="edge7" class="edge"><title>3&#45;&gt;2</title>
<path fill="none" stroke="black" d="M21,-175.597C21,-163.746 21,-147.817 21,-134.292"/>
<polygon fill="black" stroke="black" points="24.5001,-134.084 21,-124.084 17.5001,-134.084 24.5001,-134.084"/>
<text text-anchor="middle" x="24.5" y="-146.3" font-family="Times,serif" font-size="14.00">a</text>
</g>
</g>
</svg>
