<?xml version="1.0" encoding="UTF-8" standalone="no"?>
<!DOCTYPE svg PUBLIC "-//W3C//DTD SVG 1.1//EN"
 "http://www.w3.org/Graphics/SVG/1.1/DTD/svg11.dtd">
<!-- Generated by graphviz version 2.36.0 (20140111.2315)
 -->
<!-- Title: %3 Pages: 1 -->
<svg width="148pt" height="316pt"
 viewBox="0.00 0.00 148.00 316.00" xmlns="http://www.w3.org/2000/svg" xmlns:xlink="http://www.w3.org/1999/xlink">
<g id="graph0" class="graph" transform="scale(1 1) rotate(0) translate(4 312)">
<title>%3</title>
<polygon fill="white" stroke="none" points="-4,4 -4,-312 144,-312 144,4 -4,4"/>
<!-- 0 -->
<g id="node1" class="node"><title>0</title>
<ellipse fill="lightblue" stroke="black" cx="51" cy="-290" rx="18" ry="18"/>
<text text-anchor="middle" x="51" y="-286.3" font-family="Times,serif" font-size="14.00">0</text>
</g>
<!-- 0&#45;&gt;0 -->
<g id="edge1" class="edge"><title>0&#45;&gt;0</title>
<path fill="none" stroke="black" d="M67.2903,-297.668C77.3892,-299.517 87,-296.961 87,-290 87,-285.541 83.0557,-282.889 77.5656,-282.045"/>
<polygon fill="black" stroke="black" points="77.1887,-278.554 67.2903,-282.332 77.384,-285.552 77.1887,-278.554"/>
<text text-anchor="middle" x="90.5" y="-286.3" font-family="Times,serif" font-size="14.00">a</text>
</g>
<!-- 4 -->
<g id="node5" class="node"><title>4</title>
<ellipse fill="lightblue" stroke="black" cx="21" cy="-198" rx="17.5909" ry="18"/>
<ellipse fill="none" stroke="black" cx="21" cy="-198" rx="21.5" ry="22"/>
<text text-anchor="middle" x="21" y="-194.3" font-family="Times,serif" font-size="14.00">4</text>
</g>
<!-- 0&#45;&gt;4 -->
<g id="edge2" class="edge"><title>0&#45;&gt;4</title>
<path fill="none" stroke="black" d="M38.671,-276.853C33.1373,-270.588 27.1543,-262.489 24,-254 21.2207,-246.521 19.9345,-238.074 19.4632,-230.086"/>
<polygon fill="black" stroke="black" points="22.9601,-229.894 19.2561,-219.967 15.9616,-230.037 22.9601,-229.894"/>
<text text-anchor="middle" x="27.5" y="-242.3" font-family="Times,serif" font-size="14.00">b</text>
</g>
<!-- 1 -->
<g id="node2" class="node"><title>1</title>
<ellipse fill="lightblue" stroke="black" cx="79" cy="-106" rx="18" ry="18"/>
<text text-anchor="middle" x="79" y="-102.3" font-family="Times,serif" font-size="14.00">1</text>
</g>
<!-- 1&#45;&gt;0 -->
<g id="edge3" class="edge"><title>1&#45;&gt;0</title>
<path fill="none" stroke="black" d="M76.3932,-123.944C71.5447,-155.459 61.1008,-223.345 55.2294,-261.509"/>
<polygon fill="black" stroke="black" points="51.6955,-261.462 53.6342,-271.878 58.6141,-262.526 51.6955,-261.462"/>
<text text-anchor="middle" x="71.5" y="-194.3" font-family="Times,serif" font-size="14.00">a</text>
</g>
<!-- 3 -->
<g id="node4" class="node"><title>3</title>
<ellipse fill="green" stroke="black" cx="79" cy="-18" rx="18" ry="18"/>
<text text-anchor="middle" x="79" y="-14.3" font-family="Times,serif" font-size="14.00">3</text>
</g>
<!-- 1&#45;&gt;3 -->
<g id="edge4" class="edge"><title>1&#45;&gt;3</title>
<path fill="none" stroke="black" d="M72.3664,-89.2577C70.201,-83.3321 68.0772,-76.4629 67,-70 65.8309,-62.9856 65.8309,-61.0144 67,-54 67.5217,-50.8695 68.2891,-47.6437 69.1877,-44.476"/>
<polygon fill="black" stroke="black" points="72.5891,-45.3348 72.3664,-34.7423 65.9349,-43.1618 72.5891,-45.3348"/>
<text text-anchor="middle" x="70.5" y="-58.3" font-family="Times,serif" font-size="14.00">b</text>
</g>
<!-- 2 -->
<g id="node3" class="node"><title>2</title>
<ellipse fill="lightblue" stroke="black" cx="122" cy="-198" rx="18" ry="18"/>
<text text-anchor="middle" x="122" y="-194.3" font-family="Times,serif" font-size="14.00">2</text>
</g>
<!-- 2&#45;&gt;1 -->
<g id="edge5" class="edge"><title>2&#45;&gt;1</title>
<path fill="none" stroke="black" d="M114.51,-181.323C107.974,-167.643 98.3788,-147.56 90.8097,-131.718"/>
<polygon fill="black" stroke="black" points="93.8733,-130.011 86.4042,-122.497 87.5572,-133.029 93.8733,-130.011"/>
<text text-anchor="middle" x="111.5" y="-146.3" font-family="Times,serif" font-size="14.00">b,a</text>
</g>
<!-- 3&#45;&gt;1 -->
<g id="edge6" class="edge"><title>3&#45;&gt;1</title>
<path fill="none" stroke="black" d="M79,-36.084C79,-47.8607 79,-63.7741 79,-77.342"/>
<polygon fill="black" stroke="black" points="75.5001,-77.5966 79,-87.5966 82.5001,-77.5967 75.5001,-77.5966"/>
<text text-anchor="middle" x="82.5" y="-58.3" font-family="Times,serif" font-size="14.00">b</text>
</g>
<!-- 3&#45;&gt;3 -->
<g id="edge7" class="edge"><title>3&#45;&gt;3</title>
<path fill="none" stroke="black" d="M95.2903,-25.6679C105.389,-27.5169 115,-24.9609 115,-18 115,-13.5406 111.056,-10.8891 105.566,-10.0454"/>
<polygon fill="black" stroke="black" points="105.189,-6.55441 95.2903,-10.3321 105.384,-13.5517 105.189,-6.55441"/>
<text text-anchor="middle" x="118.5" y="-14.3" font-family="Times,serif" font-size="14.00">a</text>
</g>
<!-- 4&#45;&gt;0 -->
<g id="edge8" class="edge"><title>4&#45;&gt;0</title>
<path fill="none" stroke="black" d="M27.7279,-219.184C32.0388,-232.116 37.6759,-249.028 42.3224,-262.967"/>
<polygon fill="black" stroke="black" points="39.0148,-264.113 45.4975,-272.493 45.6556,-261.899 39.0148,-264.113"/>
<text text-anchor="middle" x="41.5" y="-242.3" font-family="Times,serif" font-size="14.00">b</text>
</g>
<!-- 4&#45;&gt;1 -->
<g id="edge9" class="edge"><title>4&#45;&gt;1</title>
<path fill="none" stroke="black" d="M32.4589,-179.219C41.5661,-165.087 54.3701,-145.219 64.2436,-129.898"/>
<polygon fill="black" stroke="black" points="67.1932,-131.782 69.6682,-121.48 61.3092,-127.99 67.1932,-131.782"/>
<text text-anchor="middle" x="58.5" y="-146.3" font-family="Times,serif" font-size="14.00">a</text>
</g>
</g>
</svg>
