<?xml version="1.0" encoding="UTF-8" standalone="no"?>
<!DOCTYPE svg PUBLIC "-//W3C//DTD SVG 1.1//EN"
 "http://www.w3.org/Graphics/SVG/1.1/DTD/svg11.dtd">
<!-- Generated by graphviz version 2.36.0 (20140111.2315)
 -->
<!-- Title: %3 Pages: 1 -->
<svg width="173pt" height="316pt"
 viewBox="0.00 0.00 172.98 316.00" xmlns="http://www.w3.org/2000/svg" xmlns:xlink="http://www.w3.org/1999/xlink">
<g id="graph0" class="graph" transform="scale(1 1) rotate(0) translate(4 312)">
<title>%3</title>
<polygon fill="white" stroke="none" points="-4,4 -4,-312 168.976,-312 168.976,4 -4,4"/>
<!-- 0 -->
<g id="node1" class="node"><title>0</title>
<ellipse fill="lightblue" stroke="black" cx="124.976" cy="-286" rx="17.5909" ry="18"/>
<ellipse fill="none" stroke="black" cx="124.976" cy="-286" rx="21.5" ry="22"/>
<text text-anchor="middle" x="124.976" y="-282.3" font-family="Times,serif" font-size="14.00">0</text>
</g>
<!-- 2 -->
<g id="node3" class="node"><title>2</title>
<ellipse fill="lightblue" stroke="black" cx="70.9763" cy="-194" rx="18" ry="18"/>
<text text-anchor="middle" x="70.9763" y="-190.3" font-family="Times,serif" font-size="14.00">2</text>
</g>
<!-- 0&#45;&gt;2 -->
<g id="edge1" class="edge"><title>0&#45;&gt;2</title>
<path fill="none" stroke="black" d="M110.75,-268.963C105.117,-262.162 98.84,-253.975 93.9763,-246 89.1056,-238.013 84.6443,-228.817 80.9738,-220.453"/>
<polygon fill="black" stroke="black" points="84.1578,-218.995 77.0511,-211.137 77.7064,-221.712 84.1578,-218.995"/>
<text text-anchor="middle" x="102.476" y="-234.3" font-family="Times,serif" font-size="14.00">b,a</text>
</g>
<!-- 1 -->
<g id="node2" class="node"><title>1</title>
<ellipse fill="lightblue" stroke="black" cx="37.9763" cy="-106" rx="18" ry="18"/>
<text text-anchor="middle" x="37.9763" y="-102.3" font-family="Times,serif" font-size="14.00">1</text>
</g>
<!-- 1&#45;&gt;1 -->
<g id="edge2" class="edge"><title>1&#45;&gt;1</title>
<path fill="none" stroke="black" d="M54.2666,-113.668C64.3655,-115.517 73.9763,-112.961 73.9763,-106 73.9763,-101.541 70.032,-98.8891 64.5419,-98.0454"/>
<polygon fill="black" stroke="black" points="64.165,-94.5544 54.2666,-98.3321 64.3604,-101.552 64.165,-94.5544"/>
<text text-anchor="middle" x="77.4763" y="-102.3" font-family="Times,serif" font-size="14.00">a</text>
</g>
<!-- 4 -->
<g id="node5" class="node"><title>4</title>
<ellipse fill="green" stroke="black" cx="37.9763" cy="-18" rx="18" ry="18"/>
<text text-anchor="middle" x="37.9763" y="-14.3" font-family="Times,serif" font-size="14.00">4</text>
</g>
<!-- 1&#45;&gt;4 -->
<g id="edge3" class="edge"><title>1&#45;&gt;4</title>
<path fill="none" stroke="black" d="M37.9763,-87.5966C37.9763,-75.7459 37.9763,-59.8169 37.9763,-46.2917"/>
<polygon fill="black" stroke="black" points="41.4764,-46.084 37.9763,-36.084 34.4764,-46.084 41.4764,-46.084"/>
<text text-anchor="middle" x="41.4763" y="-58.3" font-family="Times,serif" font-size="14.00">b</text>
</g>
<!-- 2&#45;&gt;1 -->
<g id="edge4" class="edge"><title>2&#45;&gt;1</title>
<path fill="none" stroke="black" d="M58.3545,-180.868C52.6545,-174.607 46.4353,-166.506 42.9763,-158 39.981,-150.634 38.4678,-142.196 37.7668,-134.331"/>
<polygon fill="black" stroke="black" points="41.251,-133.927 37.2515,-124.116 34.2598,-134.28 41.251,-133.927"/>
<text text-anchor="middle" x="46.4763" y="-146.3" font-family="Times,serif" font-size="14.00">b</text>
</g>
<!-- 3 -->
<g id="node4" class="node"><title>3</title>
<ellipse fill="lightblue" stroke="black" cx="116.976" cy="-106" rx="18" ry="18"/>
<text text-anchor="middle" x="116.976" y="-102.3" font-family="Times,serif" font-size="14.00">3</text>
</g>
<!-- 2&#45;&gt;3 -->
<g id="edge5" class="edge"><title>2&#45;&gt;3</title>
<path fill="none" stroke="black" d="M79.2002,-177.625C86.0686,-164.784 95.9857,-146.243 103.935,-131.381"/>
<polygon fill="black" stroke="black" points="107.193,-132.711 108.824,-122.242 101.021,-129.409 107.193,-132.711"/>
<text text-anchor="middle" x="101.476" y="-146.3" font-family="Times,serif" font-size="14.00">a</text>
</g>
<!-- 3&#45;&gt;0 -->
<g id="edge6" class="edge"><title>3&#45;&gt;0</title>
<path fill="none" stroke="black" d="M117.745,-124.114C119.085,-153.909 121.863,-215.727 123.559,-253.464"/>
<polygon fill="black" stroke="black" points="120.082,-254.049 124.027,-263.882 127.075,-253.735 120.082,-254.049"/>
<text text-anchor="middle" x="124.476" y="-190.3" font-family="Times,serif" font-size="14.00">a</text>
</g>
<!-- 3&#45;&gt;2 -->
<g id="edge7" class="edge"><title>3&#45;&gt;2</title>
<path fill="none" stroke="black" d="M101.962,-116.498C93.4909,-122.691 83.5205,-131.553 77.9763,-142 74.1894,-149.136 72.204,-157.591 71.2201,-165.544"/>
<polygon fill="black" stroke="black" points="67.7275,-165.313 70.4362,-175.556 74.7061,-165.86 67.7275,-165.313"/>
<text text-anchor="middle" x="81.4763" y="-146.3" font-family="Times,serif" font-size="14.00">b</text>
</g>
<!-- 4&#45;&gt;0 -->
<g id="edge8" class="edge"><title>4&#45;&gt;0</title>
<path fill="none" stroke="black" d="M55.0613,-24.3005C79.8868,-33.0357 125.031,-53.0618 143.976,-88 173.118,-141.741 152.575,-215.939 137.333,-256.2"/>
<polygon fill="black" stroke="black" points="134.011,-255.084 133.605,-265.671 140.524,-257.648 134.011,-255.084"/>
<text text-anchor="middle" x="161.476" y="-146.3" font-family="Times,serif" font-size="14.00">b</text>
</g>
<!-- 4&#45;&gt;2 -->
<g id="edge9" class="edge"><title>4&#45;&gt;2</title>
<path fill="none" stroke="black" d="M27.5406,-32.7379C13.5429,-52.9347 -8.22164,-91.7392 3.97633,-124 12.3471,-146.139 31.9898,-164.916 47.8553,-177.266"/>
<polygon fill="black" stroke="black" points="46.0688,-180.299 56.1852,-183.447 50.2399,-174.677 46.0688,-180.299"/>
<text text-anchor="middle" x="7.47633" y="-102.3" font-family="Times,serif" font-size="14.00">a</text>
</g>
</g>
</svg>
