<?xml version="1.0" encoding="UTF-8" standalone="no"?>
<!DOCTYPE svg PUBLIC "-//W3C//DTD SVG 1.1//EN"
 "http://www.w3.org/Graphics/SVG/1.1/DTD/svg11.dtd">
<!-- Generated by graphviz version 2.36.0 (20140111.2315)
 -->
<!-- Title: %3 Pages: 1 -->
<svg width="131pt" height="316pt"
 viewBox="0.00 0.00 131.44 316.00" xmlns="http://www.w3.org/2000/svg" xmlns:xlink="http://www.w3.org/1999/xlink">
<g id="graph0" class="graph" transform="scale(1 1) rotate(0) translate(4 312)">
<title>%3</title>
<polygon fill="white" stroke="none" points="-4,4 -4,-312 127.441,-312 127.441,4 -4,4"/>
<!-- 0 -->
<g id="node1" class="node"><title>0</title>
<ellipse fill="lightblue" stroke="black" cx="72.4405" cy="-286" rx="17.5909" ry="18"/>
<ellipse fill="none" stroke="black" cx="72.4405" cy="-286" rx="21.5" ry="22"/>
<text text-anchor="middle" x="72.4405" y="-282.3" font-family="Times,serif" font-size="14.00">0</text>
</g>
<!-- 1 -->
<g id="node2" class="node"><title>1</title>
<ellipse fill="lightblue" stroke="black" cx="31.4405" cy="-194" rx="18" ry="18"/>
<text text-anchor="middle" x="31.4405" y="-190.3" font-family="Times,serif" font-size="14.00">1</text>
</g>
<!-- 0&#45;&gt;1 -->
<g id="edge1" class="edge"><title>0&#45;&gt;1</title>
<path fill="none" stroke="black" d="M63.5442,-265.471C57.459,-252.114 49.34,-234.291 42.7894,-219.912"/>
<polygon fill="black" stroke="black" points="45.8801,-218.254 38.5493,-210.605 39.5099,-221.156 45.8801,-218.254"/>
<text text-anchor="middle" x="57.9405" y="-234.3" font-family="Times,serif" font-size="14.00">b</text>
</g>
<!-- 2 -->
<g id="node3" class="node"><title>2</title>
<ellipse fill="green" stroke="black" cx="80.4405" cy="-106" rx="18" ry="18"/>
<text text-anchor="middle" x="80.4405" y="-102.3" font-family="Times,serif" font-size="14.00">2</text>
</g>
<!-- 0&#45;&gt;2 -->
<g id="edge2" class="edge"><title>0&#45;&gt;2</title>
<path fill="none" stroke="black" d="M73.3897,-263.882C74.8413,-231.584 77.6126,-169.922 79.2145,-134.279"/>
<polygon fill="black" stroke="black" points="82.7188,-134.261 79.6714,-124.114 75.7258,-133.947 82.7188,-134.261"/>
<text text-anchor="middle" x="79.9405" y="-190.3" font-family="Times,serif" font-size="14.00">a</text>
</g>
<!-- 1&#45;&gt;2 -->
<g id="edge3" class="edge"><title>1&#45;&gt;2</title>
<path fill="none" stroke="black" d="M39.9757,-178.02C47.3781,-165.028 58.2245,-145.991 66.8249,-130.897"/>
<polygon fill="black" stroke="black" points="69.9293,-132.518 71.8388,-122.097 63.8472,-129.053 69.9293,-132.518"/>
<text text-anchor="middle" x="63.9405" y="-146.3" font-family="Times,serif" font-size="14.00">b</text>
</g>
<!-- 3 -->
<g id="node4" class="node"><title>3</title>
<ellipse fill="lightblue" stroke="black" cx="47.4405" cy="-18" rx="18" ry="18"/>
<text text-anchor="middle" x="47.4405" y="-14.3" font-family="Times,serif" font-size="14.00">3</text>
</g>
<!-- 1&#45;&gt;3 -->
<g id="edge4" class="edge"><title>1&#45;&gt;3</title>
<path fill="none" stroke="black" d="M23.0427,-177.944C15.9608,-164.329 6.3696,-143.489 2.44055,-124 -0.721491,-108.316 -0.859529,-103.656 2.44055,-88 5.84713,-71.8388 8.63849,-67.9755 17.4405,-54 20.586,-49.0057 24.409,-43.9843 28.258,-39.3657"/>
<polygon fill="black" stroke="black" points="31.1201,-41.41 35.0737,-31.5805 25.8532,-36.7991 31.1201,-41.41"/>
<text text-anchor="middle" x="5.94055" y="-102.3" font-family="Times,serif" font-size="14.00">a</text>
</g>
<!-- 2&#45;&gt;2 -->
<g id="edge5" class="edge"><title>2&#45;&gt;2</title>
<path fill="none" stroke="black" d="M96.7308,-113.668C106.83,-115.517 116.441,-112.961 116.441,-106 116.441,-101.541 112.496,-98.8891 107.006,-98.0454"/>
<polygon fill="black" stroke="black" points="106.629,-94.5544 96.7308,-98.3321 106.825,-101.552 106.629,-94.5544"/>
<text text-anchor="middle" x="119.941" y="-102.3" font-family="Times,serif" font-size="14.00">b</text>
</g>
<!-- 2&#45;&gt;3 -->
<g id="edge6" class="edge"><title>2&#45;&gt;3</title>
<path fill="none" stroke="black" d="M74.2335,-88.8241C69.4399,-76.3315 62.7164,-58.8097 57.204,-44.444"/>
<polygon fill="black" stroke="black" points="60.47,-43.1858 53.6198,-35.1034 53.9347,-45.6936 60.47,-43.1858"/>
<text text-anchor="middle" x="69.9405" y="-58.3" font-family="Times,serif" font-size="14.00">a</text>
</g>
<!-- 3&#45;&gt;1 -->
<g id="edge7" class="edge"><title>3&#45;&gt;1</title>
<path fill="none" stroke="black" d="M45.8709,-36.0697C43.0943,-66.266 37.2949,-129.334 33.9552,-165.653"/>
<polygon fill="black" stroke="black" points="30.4343,-165.721 33.0038,-175.999 37.4049,-166.362 30.4343,-165.721"/>
<text text-anchor="middle" x="44.9405" y="-102.3" font-family="Times,serif" font-size="14.00">a</text>
</g>
<!-- 3&#45;&gt;2 -->
<g id="edge8" class="edge"><title>3&#45;&gt;2</title>
<path fill="none" stroke="black" d="M59.0109,-32.0859C63.9107,-38.3173 69.2205,-46.1198 72.4405,-54 75.505,-61.4993 77.4027,-70.061 78.5757,-77.9999"/>
<polygon fill="black" stroke="black" points="75.0997,-78.41 79.7372,-87.9359 82.0523,-77.5971 75.0997,-78.41"/>
<text text-anchor="middle" x="79.9405" y="-58.3" font-family="Times,serif" font-size="14.00">b</text>
</g>
</g>
</svg>
