<?xml version="1.0" encoding="UTF-8" standalone="no"?>
<!DOCTYPE svg PUBLIC "-//W3C//DTD SVG 1.1//EN"
 "http://www.w3.org/Graphics/SVG/1.1/DTD/svg11.dtd">
<!-- Generated by graphviz version 2.36.0 (20140111.2315)
 -->
<!-- Title: %3 Pages: 1 -->
<svg width="115pt" height="404pt"
 viewBox="0.00 0.00 115.11 404.00" xmlns="http://www.w3.org/2000/svg" xmlns:xlink="http://www.w3.org/1999/xlink">
<g id="graph0" class="graph" transform="scale(1 1) rotate(0) translate(4 400)">
<title>%3</title>
<polygon fill="white" stroke="none" points="-4,4 -4,-400 111.108,-400 111.108,4 -4,4"/>
<!-- 0 -->
<g id="node1" class="node"><title>0</title>
<ellipse fill="lightblue" stroke="black" cx="67.1078" cy="-378" rx="18" ry="18"/>
<text text-anchor="middle" x="67.1078" y="-374.3" font-family="Times,serif" font-size="14.00">0</text>
</g>
<!-- 1 -->
<g id="node2" class="node"><title>1</title>
<ellipse fill="green" stroke="black" cx="37.1078" cy="-290" rx="18" ry="18"/>
<text text-anchor="middle" x="37.1078" y="-286.3" font-family="Times,serif" font-size="14.00">1</text>
</g>
<!-- 0&#45;&gt;1 -->
<g id="edge1" class="edge"><title>0&#45;&gt;1</title>
<path fill="none" stroke="black" d="M54.7946,-364.848C49.2646,-358.581 43.2802,-350.482 40.1078,-342 37.3308,-334.575 36.1271,-326.119 35.7367,-318.256"/>
<polygon fill="black" stroke="black" points="39.2347,-318.019 35.6371,-308.054 32.235,-318.088 39.2347,-318.019"/>
<text text-anchor="middle" x="43.6078" y="-330.3" font-family="Times,serif" font-size="14.00">a</text>
</g>
<!-- 2 -->
<g id="node3" class="node"><title>2</title>
<ellipse fill="lightblue" stroke="black" cx="46.1078" cy="-106" rx="18" ry="18"/>
<text text-anchor="middle" x="46.1078" y="-102.3" font-family="Times,serif" font-size="14.00">2</text>
</g>
<!-- 0&#45;&gt;2 -->
<g id="edge2" class="edge"><title>0&#45;&gt;2</title>
<path fill="none" stroke="black" d="M73.6669,-360.975C86.8531,-326.408 113.629,-242.579 93.1078,-176 87.5044,-157.82 75.2924,-140.145 64.7211,-127.235"/>
<polygon fill="black" stroke="black" points="67.2541,-124.812 58.0972,-119.482 61.9321,-129.359 67.2541,-124.812"/>
<text text-anchor="middle" x="103.608" y="-242.3" font-family="Times,serif" font-size="14.00">b</text>
</g>
<!-- 1&#45;&gt;0 -->
<g id="edge3" class="edge"><title>1&#45;&gt;0</title>
<path fill="none" stroke="black" d="M42.7253,-307.103C47.0345,-319.457 53.07,-336.758 58.0579,-351.057"/>
<polygon fill="black" stroke="black" points="54.8665,-352.535 61.465,-360.824 61.476,-350.229 54.8665,-352.535"/>
<text text-anchor="middle" x="57.6078" y="-330.3" font-family="Times,serif" font-size="14.00">b</text>
</g>
<!-- 3 -->
<g id="node4" class="node"><title>3</title>
<ellipse fill="lightblue" stroke="black" cx="37.1078" cy="-198" rx="17.5909" ry="18"/>
<ellipse fill="none" stroke="black" cx="37.1078" cy="-198" rx="21.5" ry="22"/>
<text text-anchor="middle" x="37.1078" y="-194.3" font-family="Times,serif" font-size="14.00">3</text>
</g>
<!-- 1&#45;&gt;3 -->
<g id="edge4" class="edge"><title>1&#45;&gt;3</title>
<path fill="none" stroke="black" d="M37.1078,-271.647C37.1078,-259.924 37.1078,-244.114 37.1078,-230.237"/>
<polygon fill="black" stroke="black" points="40.6079,-230.101 37.1078,-220.101 33.6079,-230.101 40.6079,-230.101"/>
<text text-anchor="middle" x="40.6078" y="-242.3" font-family="Times,serif" font-size="14.00">a</text>
</g>
<!-- 4 -->
<g id="node5" class="node"><title>4</title>
<ellipse fill="lightblue" stroke="black" cx="20.1078" cy="-18" rx="18" ry="18"/>
<text text-anchor="middle" x="20.1078" y="-14.3" font-family="Times,serif" font-size="14.00">4</text>
</g>
<!-- 2&#45;&gt;4 -->
<g id="edge5" class="edge"><title>2&#45;&gt;4</title>
<path fill="none" stroke="black" d="M41.0947,-88.4183C37.39,-76.164 32.2722,-59.2361 28.018,-45.1645"/>
<polygon fill="black" stroke="black" points="31.3497,-44.09 25.1055,-35.5308 24.6492,-46.1158 31.3497,-44.09"/>
<text text-anchor="middle" x="44.6078" y="-58.3" font-family="Times,serif" font-size="14.00">b,a</text>
</g>
<!-- 3&#45;&gt;2 -->
<g id="edge6" class="edge"><title>3&#45;&gt;2</title>
<path fill="none" stroke="black" d="M39.2407,-175.671C40.4876,-163.202 42.0734,-147.344 43.407,-134.009"/>
<polygon fill="black" stroke="black" points="46.8985,-134.267 44.411,-123.968 39.9333,-133.57 46.8985,-134.267"/>
<text text-anchor="middle" x="45.6078" y="-146.3" font-family="Times,serif" font-size="14.00">a</text>
</g>
<!-- 3&#45;&gt;3 -->
<g id="edge7" class="edge"><title>3&#45;&gt;3</title>
<path fill="none" stroke="black" d="M57.1741,-206.734C67.1814,-207.943 76.1078,-205.031 76.1078,-198 76.1078,-193.496 72.4444,-190.682 67.1803,-189.559"/>
<polygon fill="black" stroke="black" points="67.2724,-186.061 57.1741,-189.266 67.0672,-193.057 67.2724,-186.061"/>
<text text-anchor="middle" x="79.6078" y="-194.3" font-family="Times,serif" font-size="14.00">b</text>
</g>
<!-- 4&#45;&gt;1 -->
<g id="edge8" class="edge"><title>4&#45;&gt;1</title>
<path fill="none" stroke="black" d="M15.8561,-35.6347C7.66046,-70.3333 -8.29664,-152.79 6.10781,-220 9.48513,-235.758 16.7481,-252.264 23.3954,-265.18"/>
<polygon fill="black" stroke="black" points="20.4699,-267.13 28.284,-274.285 26.6372,-263.819 20.4699,-267.13"/>
<text text-anchor="middle" x="4.60781" y="-146.3" font-family="Times,serif" font-size="14.00">a</text>
</g>
<!-- 4&#45;&gt;2 -->
<g id="edge9" class="edge"><title>4&#45;&gt;2</title>
<path fill="none" stroke="black" d="M18.9288,-36.4177C18.7858,-46.4736 19.5358,-59.2236 23.1078,-70 24.5891,-74.4689 26.7924,-78.9162 29.2578,-83.0669"/>
<polygon fill="black" stroke="black" points="26.4532,-85.1709 34.8949,-91.5732 32.2883,-81.304 26.4532,-85.1709"/>
<text text-anchor="middle" x="26.6078" y="-58.3" font-family="Times,serif" font-size="14.00">b</text>
</g>
</g>
</svg>
