<?xml version="1.0" encoding="UTF-8" standalone="no"?>
<!DOCTYPE svg PUBLIC "-//W3C//DTD SVG 1.1//EN"
 "http://www.w3.org/Graphics/SVG/1.1/DTD/svg11.dtd">
<!-- Generated by graphviz version 2.36.0 (20140111.2315)
 -->
<!-- Title: %3 Pages: 1 -->
<svg width="132pt" height="316pt"
 viewBox="0.00 0.00 132.35 316.00" xmlns="http://www.w3.org/2000/svg" xmlns:xlink="http://www.w3.org/1999/xlink">
<g id="graph0" class="graph" transform="scale(1 1) rotate(0) translate(4 312)">
<title>%3</title>
<polygon fill="white" stroke="none" points="-4,4 -4,-312 128.346,-312 128.346,4 -4,4"/>
<!-- 0 -->
<g id="node1" class="node"><title>0</title>
<ellipse fill="lightblue" stroke="black" cx="26.3458" cy="-290" rx="18" ry="18"/>
<text text-anchor="middle" x="26.3458" y="-286.3" font-family="Times,serif" font-size="14.00">0</text>
</g>
<!-- 2 -->
<g id="node3" class="node"><title>2</title>
<ellipse fill="lightblue" stroke="black" cx="48.3458" cy="-114" rx="18" ry="18"/>
<text text-anchor="middle" x="48.3458" y="-110.3" font-family="Times,serif" font-size="14.00">2</text>
</g>
<!-- 0&#45;&gt;2 -->
<g id="edge1" class="edge"><title>0&#45;&gt;2</title>
<path fill="none" stroke="black" d="M22.5011,-272.089C18.3691,-251.186 13.1717,-214.625 19.3458,-184 22.4768,-168.47 29.2032,-152.082 35.3903,-139.175"/>
<polygon fill="black" stroke="black" points="38.6079,-140.566 39.9479,-130.056 32.3464,-137.437 38.6079,-140.566"/>
<text text-anchor="middle" x="22.8458" y="-198.3" font-family="Times,serif" font-size="14.00">a</text>
</g>
<!-- 3 -->
<g id="node4" class="node"><title>3</title>
<ellipse fill="lightblue" stroke="black" cx="91.3458" cy="-202" rx="18" ry="18"/>
<text text-anchor="middle" x="91.3458" y="-198.3" font-family="Times,serif" font-size="14.00">3</text>
</g>
<!-- 0&#45;&gt;3 -->
<g id="edge2" class="edge"><title>0&#45;&gt;3</title>
<path fill="none" stroke="black" d="M39.9153,-277.5C47.0806,-271.029 55.7335,-262.551 62.3458,-254 68.5689,-245.953 74.3502,-236.422 79.0874,-227.79"/>
<polygon fill="black" stroke="black" points="82.2131,-229.366 83.7893,-218.889 76.0236,-226.097 82.2131,-229.366"/>
<text text-anchor="middle" x="75.8458" y="-242.3" font-family="Times,serif" font-size="14.00">b</text>
</g>
<!-- 1 -->
<g id="node2" class="node"><title>1</title>
<ellipse fill="lightblue" stroke="black" cx="48.3458" cy="-22" rx="17.5909" ry="18"/>
<ellipse fill="none" stroke="black" cx="48.3458" cy="-22" rx="21.5" ry="22"/>
<text text-anchor="middle" x="48.3458" y="-18.3" font-family="Times,serif" font-size="14.00">1</text>
</g>
<!-- 1&#45;&gt;0 -->
<g id="edge3" class="edge"><title>1&#45;&gt;0</title>
<path fill="none" stroke="black" d="M39.072,-42.2198C27.8889,-66.6076 9.79055,-110.286 3.34579,-150 -4.09234,-195.836 2.56102,-208.834 13.3458,-254 14.1136,-257.215 15.0914,-260.539 16.1651,-263.799"/>
<polygon fill="black" stroke="black" points="12.8776,-265.001 19.5596,-273.223 19.4634,-262.628 12.8776,-265.001"/>
<text text-anchor="middle" x="11.8458" y="-154.3" font-family="Times,serif" font-size="14.00">b,a</text>
</g>
<!-- 2&#45;&gt;0 -->
<g id="edge4" class="edge"><title>2&#45;&gt;0</title>
<path fill="none" stroke="black" d="M46.6784,-132.158C44.0547,-158.444 38.6109,-210.236 32.3458,-254 31.9789,-256.563 31.5708,-259.227 31.145,-261.89"/>
<polygon fill="black" stroke="black" points="27.6619,-261.5 29.4645,-271.94 34.566,-262.654 27.6619,-261.5"/>
<text text-anchor="middle" x="43.8458" y="-198.3" font-family="Times,serif" font-size="14.00">b</text>
</g>
<!-- 2&#45;&gt;1 -->
<g id="edge5" class="edge"><title>2&#45;&gt;1</title>
<path fill="none" stroke="black" d="M48.3458,-95.6471C48.3458,-83.9242 48.3458,-68.1144 48.3458,-54.2369"/>
<polygon fill="black" stroke="black" points="51.8459,-54.101 48.3458,-44.101 44.8459,-54.101 51.8459,-54.101"/>
<text text-anchor="middle" x="51.8458" y="-66.3" font-family="Times,serif" font-size="14.00">a</text>
</g>
<!-- 3&#45;&gt;2 -->
<g id="edge6" class="edge"><title>3&#45;&gt;2</title>
<path fill="none" stroke="black" d="M83.6583,-185.625C77.2774,-172.863 68.0818,-154.472 60.674,-139.656"/>
<polygon fill="black" stroke="black" points="63.7144,-137.911 56.1118,-130.532 57.4534,-141.041 63.7144,-137.911"/>
<text text-anchor="middle" x="76.8458" y="-154.3" font-family="Times,serif" font-size="14.00">a</text>
</g>
<!-- 4 -->
<g id="node5" class="node"><title>4</title>
<ellipse fill="green" stroke="black" cx="106.346" cy="-114" rx="18" ry="18"/>
<text text-anchor="middle" x="106.346" y="-110.3" font-family="Times,serif" font-size="14.00">4</text>
</g>
<!-- 3&#45;&gt;4 -->
<g id="edge7" class="edge"><title>3&#45;&gt;4</title>
<path fill="none" stroke="black" d="M94.3093,-184.009C96.4049,-171.995 99.2572,-155.641 101.659,-141.869"/>
<polygon fill="black" stroke="black" points="105.118,-142.408 103.388,-131.956 98.2222,-141.205 105.118,-142.408"/>
<text text-anchor="middle" x="102.846" y="-154.3" font-family="Times,serif" font-size="14.00">b</text>
</g>
<!-- 4&#45;&gt;1 -->
<g id="edge8" class="edge"><title>4&#45;&gt;1</title>
<path fill="none" stroke="black" d="M97.0271,-98.5399C88.4892,-85.2915 75.6421,-65.3563 65.2891,-49.2913"/>
<polygon fill="black" stroke="black" points="68.1963,-47.3413 59.8372,-40.8315 62.3123,-51.1332 68.1963,-47.3413"/>
<text text-anchor="middle" x="90.8458" y="-66.3" font-family="Times,serif" font-size="14.00">b,a</text>
</g>
</g>
</svg>
