<?xml version="1.0" encoding="UTF-8" standalone="no"?>
<!DOCTYPE svg PUBLIC "-//W3C//DTD SVG 1.1//EN"
 "http://www.w3.org/Graphics/SVG/1.1/DTD/svg11.dtd">
<!-- Generated by graphviz version 2.36.0 (20140111.2315)
 -->
<!-- Title: %3 Pages: 1 -->
<svg width="135pt" height="316pt"
 viewBox="0.00 0.00 135.00 316.00" xmlns="http://www.w3.org/2000/svg" xmlns:xlink="http://www.w3.org/1999/xlink">
<g id="graph0" class="graph" transform="scale(1 1) rotate(0) translate(4 312)">
<title>%3</title>
<polygon fill="white" stroke="none" points="-4,4 -4,-312 131,-312 131,4 -4,4"/>
<!-- 0 -->
<g id="node1" class="node"><title>0</title>
<ellipse fill="lightblue" stroke="black" cx="84" cy="-202" rx="18" ry="18"/>
<text text-anchor="middle" x="84" y="-198.3" font-family="Times,serif" font-size="14.00">0</text>
</g>
<!-- 1 -->
<g id="node2" class="node"><title>1</title>
<ellipse fill="green" stroke="black" cx="18" cy="-110" rx="18" ry="18"/>
<text text-anchor="middle" x="18" y="-106.3" font-family="Times,serif" font-size="14.00">1</text>
</g>
<!-- 0&#45;&gt;1 -->
<g id="edge1" class="edge"><title>0&#45;&gt;1</title>
<path fill="none" stroke="black" d="M73.6875,-186.938C63.1288,-172.539 46.5642,-149.951 34.2425,-133.149"/>
<polygon fill="black" stroke="black" points="36.9762,-130.958 28.2401,-124.964 31.3313,-135.098 36.9762,-130.958"/>
<text text-anchor="middle" x="60.5" y="-154.3" font-family="Times,serif" font-size="14.00">b</text>
</g>
<!-- 4 -->
<g id="node5" class="node"><title>4</title>
<ellipse fill="lightblue" stroke="black" cx="76" cy="-110" rx="17.5909" ry="18"/>
<ellipse fill="none" stroke="black" cx="76" cy="-110" rx="21.5" ry="22"/>
<text text-anchor="middle" x="76" y="-106.3" font-family="Times,serif" font-size="14.00">4</text>
</g>
<!-- 0&#45;&gt;4 -->
<g id="edge2" class="edge"><title>0&#45;&gt;4</title>
<path fill="none" stroke="black" d="M77.3664,-185.258C75.201,-179.332 73.0772,-172.463 72,-166 70.6977,-158.186 70.6551,-149.678 71.1939,-141.74"/>
<polygon fill="black" stroke="black" points="74.6817,-142.036 72.1802,-131.74 67.7155,-141.348 74.6817,-142.036"/>
<text text-anchor="middle" x="75.5" y="-154.3" font-family="Times,serif" font-size="14.00">a</text>
</g>
<!-- 3 -->
<g id="node4" class="node"><title>3</title>
<ellipse fill="lightblue" stroke="black" cx="67" cy="-18" rx="18" ry="18"/>
<text text-anchor="middle" x="67" y="-14.3" font-family="Times,serif" font-size="14.00">3</text>
</g>
<!-- 1&#45;&gt;3 -->
<g id="edge3" class="edge"><title>1&#45;&gt;3</title>
<path fill="none" stroke="black" d="M11.9021,-92.6204C8.6861,-81.137 6.58978,-65.7937 13,-54 19.0658,-42.8399 30.3949,-34.6892 41.1158,-29.076"/>
<polygon fill="black" stroke="black" points="42.6757,-32.2101 50.233,-24.7846 39.6945,-25.8767 42.6757,-32.2101"/>
<text text-anchor="middle" x="21.5" y="-58.3" font-family="Times,serif" font-size="14.00">b,a</text>
</g>
<!-- 2 -->
<g id="node3" class="node"><title>2</title>
<ellipse fill="lightblue" stroke="black" cx="84" cy="-290" rx="18" ry="18"/>
<text text-anchor="middle" x="84" y="-286.3" font-family="Times,serif" font-size="14.00">2</text>
</g>
<!-- 2&#45;&gt;0 -->
<g id="edge4" class="edge"><title>2&#45;&gt;0</title>
<path fill="none" stroke="black" d="M84,-271.597C84,-259.746 84,-243.817 84,-230.292"/>
<polygon fill="black" stroke="black" points="87.5001,-230.084 84,-220.084 80.5001,-230.084 87.5001,-230.084"/>
<text text-anchor="middle" x="87.5" y="-242.3" font-family="Times,serif" font-size="14.00">b</text>
</g>
<!-- 2&#45;&gt;2 -->
<g id="edge5" class="edge"><title>2&#45;&gt;2</title>
<path fill="none" stroke="black" d="M100.29,-297.668C110.389,-299.517 120,-296.961 120,-290 120,-285.541 116.056,-282.889 110.566,-282.045"/>
<polygon fill="black" stroke="black" points="110.189,-278.554 100.29,-282.332 110.384,-285.552 110.189,-278.554"/>
<text text-anchor="middle" x="123.5" y="-286.3" font-family="Times,serif" font-size="14.00">a</text>
</g>
<!-- 3&#45;&gt;0 -->
<g id="edge6" class="edge"><title>3&#45;&gt;0</title>
<path fill="none" stroke="black" d="M77.7038,-32.8572C87.2515,-46.1591 100.539,-67.2402 106,-88 113.884,-117.97 104.147,-153.09 95.2419,-176.126"/>
<polygon fill="black" stroke="black" points="91.9526,-174.923 91.4031,-185.504 98.4308,-177.575 91.9526,-174.923"/>
<text text-anchor="middle" x="111.5" y="-106.3" font-family="Times,serif" font-size="14.00">b</text>
</g>
<!-- 3&#45;&gt;1 -->
<g id="edge7" class="edge"><title>3&#45;&gt;1</title>
<path fill="none" stroke="black" d="M58.8106,-34.0418C51.2734,-47.8856 39.9625,-68.6608 31.1586,-84.8312"/>
<polygon fill="black" stroke="black" points="28.02,-83.2764 26.3122,-93.7327 34.1679,-86.6236 28.02,-83.2764"/>
<text text-anchor="middle" x="50.5" y="-58.3" font-family="Times,serif" font-size="14.00">a</text>
</g>
<!-- 4&#45;&gt;0 -->
<g id="edge8" class="edge"><title>4&#45;&gt;0</title>
<path fill="none" stroke="black" d="M77.8756,-132.101C78.976,-144.48 80.3784,-160.258 81.5636,-173.59"/>
<polygon fill="black" stroke="black" points="78.0858,-173.996 82.4575,-183.647 85.0583,-173.376 78.0858,-173.996"/>
<text text-anchor="middle" x="84.5" y="-154.3" font-family="Times,serif" font-size="14.00">a</text>
</g>
<!-- 4&#45;&gt;3 -->
<g id="edge9" class="edge"><title>4&#45;&gt;3</title>
<path fill="none" stroke="black" d="M73.8671,-87.6713C72.6202,-75.2023 71.0344,-59.3438 69.7009,-46.0086"/>
<polygon fill="black" stroke="black" points="73.1746,-45.57 68.6968,-35.968 66.2093,-46.2666 73.1746,-45.57"/>
<text text-anchor="middle" x="76.5" y="-58.3" font-family="Times,serif" font-size="14.00">b</text>
</g>
</g>
</svg>
