<?xml version="1.0" encoding="UTF-8" standalone="no"?>
<!DOCTYPE svg PUBLIC "-//W3C//DTD SVG 1.1//EN"
 "http://www.w3.org/Graphics/SVG/1.1/DTD/svg11.dtd">
<!-- Generated by graphviz version 2.36.0 (20140111.2315)
 -->
<!-- Title: %3 Pages: 1 -->
<svg width="127pt" height="316pt"
 viewBox="0.00 0.00 127.00 316.00" xmlns="http://www.w3.org/2000/svg" xmlns:xlink="http://www.w3.org/1999/xlink">
<g id="graph0" class="graph" transform="scale(1 1) rotate(0) translate(4 312)">
<title>%3</title>
<polygon fill="white" stroke="none" points="-4,4 -4,-312 123,-312 123,4 -4,4"/>
<!-- 0 -->
<g id="node1" class="node"><title>0</title>
<ellipse fill="lightblue" stroke="black" cx="77" cy="-290" rx="18" ry="18"/>
<text text-anchor="middle" x="77" y="-286.3" font-family="Times,serif" font-size="14.00">0</text>
</g>
<!-- 1 -->
<g id="node2" class="node"><title>1</title>
<ellipse fill="lightblue" stroke="black" cx="18" cy="-202" rx="18" ry="18"/>
<text text-anchor="middle" x="18" y="-198.3" font-family="Times,serif" font-size="14.00">1</text>
</g>
<!-- 0&#45;&gt;1 -->
<g id="edge1" class="edge"><title>0&#45;&gt;1</title>
<path fill="none" stroke="black" d="M67.2573,-274.799C58.1191,-261.479 44.2996,-241.335 33.6218,-225.771"/>
<polygon fill="black" stroke="black" points="36.3004,-223.488 27.7571,-217.222 30.5282,-227.448 36.3004,-223.488"/>
<text text-anchor="middle" x="56.5" y="-242.3" font-family="Times,serif" font-size="14.00">a</text>
</g>
<!-- 2 -->
<g id="node3" class="node"><title>2</title>
<ellipse fill="green" stroke="black" cx="72" cy="-110" rx="17.5909" ry="18"/>
<ellipse fill="none" stroke="black" cx="72" cy="-110" rx="21.5" ry="22"/>
<text text-anchor="middle" x="72" y="-106.3" font-family="Times,serif" font-size="14.00">2</text>
</g>
<!-- 0&#45;&gt;2 -->
<g id="edge2" class="edge"><title>0&#45;&gt;2</title>
<path fill="none" stroke="black" d="M76.5206,-271.933C75.6841,-242.154 73.9462,-180.286 72.8857,-142.529"/>
<polygon fill="black" stroke="black" points="76.3724,-142.005 72.5929,-132.107 69.3752,-142.201 76.3724,-142.005"/>
<text text-anchor="middle" x="78.5" y="-198.3" font-family="Times,serif" font-size="14.00">b</text>
</g>
<!-- 1&#45;&gt;1 -->
<g id="edge3" class="edge"><title>1&#45;&gt;1</title>
<path fill="none" stroke="black" d="M34.2903,-209.668C44.3892,-211.517 54,-208.961 54,-202 54,-197.541 50.0557,-194.889 44.5656,-194.045"/>
<polygon fill="black" stroke="black" points="44.1887,-190.554 34.2903,-194.332 44.384,-197.552 44.1887,-190.554"/>
<text text-anchor="middle" x="57.5" y="-198.3" font-family="Times,serif" font-size="14.00">a</text>
</g>
<!-- 1&#45;&gt;2 -->
<g id="edge4" class="edge"><title>1&#45;&gt;2</title>
<path fill="none" stroke="black" d="M26.917,-186.138C34.7299,-173.117 46.2815,-153.864 55.7355,-138.107"/>
<polygon fill="black" stroke="black" points="58.8716,-139.683 61.0153,-129.308 52.8691,-136.082 58.8716,-139.683"/>
<text text-anchor="middle" x="52.5" y="-154.3" font-family="Times,serif" font-size="14.00">b</text>
</g>
<!-- 2&#45;&gt;2 -->
<g id="edge5" class="edge"><title>2&#45;&gt;2</title>
<path fill="none" stroke="black" d="M92.0663,-118.734C102.074,-119.943 111,-117.031 111,-110 111,-105.496 107.337,-102.682 102.072,-101.559"/>
<polygon fill="black" stroke="black" points="102.165,-98.0605 92.0663,-101.266 101.959,-105.057 102.165,-98.0605"/>
<text text-anchor="middle" x="114.5" y="-106.3" font-family="Times,serif" font-size="14.00">b</text>
</g>
<!-- 3 -->
<g id="node4" class="node"><title>3</title>
<ellipse fill="lightblue" stroke="black" cx="72" cy="-18" rx="18" ry="18"/>
<text text-anchor="middle" x="72" y="-14.3" font-family="Times,serif" font-size="14.00">3</text>
</g>
<!-- 2&#45;&gt;3 -->
<g id="edge6" class="edge"><title>2&#45;&gt;3</title>
<path fill="none" stroke="black" d="M64.0484,-89.491C60.7168,-79.0175 58.0237,-65.8575 60,-54 60.5217,-50.8695 61.2891,-47.6437 62.1877,-44.476"/>
<polygon fill="black" stroke="black" points="65.5891,-45.3348 65.3664,-34.7423 58.9349,-43.1618 65.5891,-45.3348"/>
<text text-anchor="middle" x="63.5" y="-58.3" font-family="Times,serif" font-size="14.00">a</text>
</g>
<!-- 3&#45;&gt;2 -->
<g id="edge7" class="edge"><title>3&#45;&gt;2</title>
<path fill="none" stroke="black" d="M72,-36.2581C72,-47.9274 72,-63.6781 72,-77.539"/>
<polygon fill="black" stroke="black" points="68.5001,-77.6712 72,-87.6713 75.5001,-77.6713 68.5001,-77.6712"/>
<text text-anchor="middle" x="75.5" y="-58.3" font-family="Times,serif" font-size="14.00">a</text>
</g>
<!-- 3&#45;&gt;3 -->
<g id="edge8" class="edge"><title>3&#45;&gt;3</title>
<path fill="none" stroke="black" d="M88.2903,-25.6679C98.3892,-27.5169 108,-24.9609 108,-18 108,-13.5406 104.056,-10.8891 98.5656,-10.0454"/>
<polygon fill="black" stroke="black" points="98.1887,-6.55441 88.2903,-10.3321 98.384,-13.5517 98.1887,-6.55441"/>
<text text-anchor="middle" x="111.5" y="-14.3" font-family="Times,serif" font-size="14.00">b</text>
</g>
</g>
</svg>
