<?xml version="1.0" encoding="UTF-8" standalone="no"?>
<!DOCTYPE svg PUBLIC "-//W3C//DTD SVG 1.1//EN"
 "http://www.w3.org/Graphics/SVG/1.1/DTD/svg11.dtd">
<!-- Generated by graphviz version 2.36.0 (20140111.2315)
 -->
<!-- Title: %3 Pages: 1 -->
<svg width="141pt" height="316pt"
 viewBox="0.00 0.00 141.16 316.00" xmlns="http://www.w3.org/2000/svg" xmlns:xlink="http://www.w3.org/1999/xlink">
<g id="graph0" class="graph" transform="scale(1 1) rotate(0) translate(4 312)">
<title>%3</title>
<polygon fill="white" stroke="none" points="-4,4 -4,-312 137.165,-312 137.165,4 -4,4"/>
<!-- 0 -->
<g id="node1" class="node"><title>0</title>
<ellipse fill="lightblue" stroke="black" cx="98.1646" cy="-286" rx="17.5909" ry="18"/>
<ellipse fill="none" stroke="black" cx="98.1646" cy="-286" rx="21.5" ry="22"/>
<text text-anchor="middle" x="98.1646" y="-282.3" font-family="Times,serif" font-size="14.00">0</text>
</g>
<!-- 1 -->
<g id="node2" class="node"><title>1</title>
<ellipse fill="lightblue" stroke="black" cx="39.1646" cy="-194" rx="18" ry="18"/>
<text text-anchor="middle" x="39.1646" y="-190.3" font-family="Times,serif" font-size="14.00">1</text>
</g>
<!-- 0&#45;&gt;1 -->
<g id="edge1" class="edge"><title>0&#45;&gt;1</title>
<path fill="none" stroke="black" d="M86.5081,-267.219C77.244,-253.087 64.2192,-233.219 54.1755,-217.898"/>
<polygon fill="black" stroke="black" points="57.067,-215.925 48.6573,-209.48 51.2128,-219.762 57.067,-215.925"/>
<text text-anchor="middle" x="75.6646" y="-234.3" font-family="Times,serif" font-size="14.00">b</text>
</g>
<!-- 3 -->
<g id="node4" class="node"><title>3</title>
<ellipse fill="green" stroke="black" cx="85.1646" cy="-106" rx="18" ry="18"/>
<text text-anchor="middle" x="85.1646" y="-102.3" font-family="Times,serif" font-size="14.00">3</text>
</g>
<!-- 0&#45;&gt;3 -->
<g id="edge2" class="edge"><title>0&#45;&gt;3</title>
<path fill="none" stroke="black" d="M78.4988,-276.246C56.0062,-265.017 20.3357,-243.195 5.16464,-212 -1.83298,-197.611 -1.49868,-190.546 5.16464,-176 16.4551,-151.352 41.3781,-132.164 60.4269,-120.348"/>
<polygon fill="black" stroke="black" points="62.3946,-123.25 69.2208,-115.148 58.8316,-117.225 62.3946,-123.25"/>
<text text-anchor="middle" x="8.66464" y="-190.3" font-family="Times,serif" font-size="14.00">a</text>
</g>
<!-- 1&#45;&gt;1 -->
<g id="edge3" class="edge"><title>1&#45;&gt;1</title>
<path fill="none" stroke="black" d="M55.4549,-201.668C65.5538,-203.517 75.1646,-200.961 75.1646,-194 75.1646,-189.541 71.2203,-186.889 65.7303,-186.045"/>
<polygon fill="black" stroke="black" points="65.3534,-182.554 55.4549,-186.332 65.5487,-189.552 65.3534,-182.554"/>
<text text-anchor="middle" x="78.6646" y="-190.3" font-family="Times,serif" font-size="14.00">b</text>
</g>
<!-- 1&#45;&gt;3 -->
<g id="edge4" class="edge"><title>1&#45;&gt;3</title>
<path fill="none" stroke="black" d="M47.3885,-177.625C54.2569,-164.784 64.174,-146.243 72.1237,-131.381"/>
<polygon fill="black" stroke="black" points="75.3816,-132.711 77.012,-122.242 69.2091,-129.409 75.3816,-132.711"/>
<text text-anchor="middle" x="69.6646" y="-146.3" font-family="Times,serif" font-size="14.00">a</text>
</g>
<!-- 2 -->
<g id="node3" class="node"><title>2</title>
<ellipse fill="lightblue" stroke="black" cx="115.165" cy="-18" rx="18" ry="18"/>
<text text-anchor="middle" x="115.165" y="-14.3" font-family="Times,serif" font-size="14.00">2</text>
</g>
<!-- 2&#45;&gt;0 -->
<g id="edge5" class="edge"><title>2&#45;&gt;0</title>
<path fill="none" stroke="black" d="M116.156,-36.2138C118.034,-74.292 120.94,-168.436 109.165,-246 108.704,-249.032 108.082,-252.162 107.366,-255.27"/>
<polygon fill="black" stroke="black" points="103.973,-254.409 104.843,-264.968 110.748,-256.171 103.973,-254.409"/>
<text text-anchor="middle" x="120.665" y="-146.3" font-family="Times,serif" font-size="14.00">a</text>
</g>
<!-- 2&#45;&gt;3 -->
<g id="edge6" class="edge"><title>2&#45;&gt;3</title>
<path fill="none" stroke="black" d="M102.851,-31.1524C97.3214,-37.4193 91.3371,-45.5182 88.1646,-54 85.3876,-61.4247 84.184,-69.8814 83.7936,-77.7444"/>
<polygon fill="black" stroke="black" points="80.2919,-77.9124 83.6939,-87.9462 87.2915,-77.9809 80.2919,-77.9124"/>
<text text-anchor="middle" x="91.6646" y="-58.3" font-family="Times,serif" font-size="14.00">b</text>
</g>
<!-- 3&#45;&gt;0 -->
<g id="edge7" class="edge"><title>3&#45;&gt;0</title>
<path fill="none" stroke="black" d="M86.7511,-124.005C88.0276,-137.966 89.8235,-158.255 91.1646,-176 93.1419,-202.162 95.0266,-231.884 96.3412,-253.676"/>
<polygon fill="black" stroke="black" points="92.849,-253.912 96.9387,-263.686 99.8366,-253.495 92.849,-253.912"/>
<text text-anchor="middle" x="96.6646" y="-190.3" font-family="Times,serif" font-size="14.00">a</text>
</g>
<!-- 3&#45;&gt;2 -->
<g id="edge8" class="edge"><title>3&#45;&gt;2</title>
<path fill="none" stroke="black" d="M90.8074,-88.8241C95.1234,-76.4516 101.16,-59.1462 106.144,-44.8593"/>
<polygon fill="black" stroke="black" points="109.558,-45.6982 109.547,-35.1034 102.949,-43.3926 109.558,-45.6982"/>
<text text-anchor="middle" x="105.665" y="-58.3" font-family="Times,serif" font-size="14.00">b</text>
</g>
</g>
</svg>
