<?xml version="1.0" encoding="UTF-8" standalone="no"?>
<!DOCTYPE svg PUBLIC "-//W3C//DTD SVG 1.1//EN"
 "http://www.w3.org/Graphics/SVG/1.1/DTD/svg11.dtd">
<!-- Generated by graphviz version 2.36.0 (20140111.2315)
 -->
<!-- Title: %3 Pages: 1 -->
<svg width="214pt" height="228pt"
 viewBox="0.00 0.00 214.00 228.00" xmlns="http://www.w3.org/2000/svg" xmlns:xlink="http://www.w3.org/1999/xlink">
<g id="graph0" class="graph" transform="scale(1 1) rotate(0) translate(4 224)">
<title>%3</title>
<polygon fill="white" stroke="none" points="-4,4 -4,-224 210,-224 210,4 -4,4"/>
<!-- 0 -->
<g id="node1" class="node"><title>0</title>
<ellipse fill="green" stroke="black" cx="62" cy="-202" rx="18" ry="18"/>
<text text-anchor="middle" x="62" y="-198.3" font-family="Times,serif" font-size="14.00">0</text>
</g>
<!-- 2 -->
<g id="node3" class="node"><title>2</title>
<ellipse fill="lightblue" stroke="black" cx="18" cy="-18" rx="18" ry="18"/>
<text text-anchor="middle" x="18" y="-14.3" font-family="Times,serif" font-size="14.00">2</text>
</g>
<!-- 0&#45;&gt;2 -->
<g id="edge1" class="edge"><title>0&#45;&gt;2</title>
<path fill="none" stroke="black" d="M51.8171,-187.03C42.6885,-173.649 29.8593,-152.514 24,-132 15.8951,-103.625 15.2358,-69.6439 16.0749,-46.405"/>
<polygon fill="black" stroke="black" points="19.5794,-46.3933 16.5627,-36.2371 12.5874,-46.0578 19.5794,-46.3933"/>
<text text-anchor="middle" x="27.5" y="-106.3" font-family="Times,serif" font-size="14.00">a</text>
</g>
<!-- 3 -->
<g id="node4" class="node"><title>3</title>
<ellipse fill="lightblue" stroke="black" cx="62" cy="-110" rx="17.5909" ry="18"/>
<ellipse fill="none" stroke="black" cx="62" cy="-110" rx="21.5" ry="22"/>
<text text-anchor="middle" x="62" y="-106.3" font-family="Times,serif" font-size="14.00">3</text>
</g>
<!-- 0&#45;&gt;3 -->
<g id="edge2" class="edge"><title>0&#45;&gt;3</title>
<path fill="none" stroke="black" d="M62,-183.647C62,-171.924 62,-156.114 62,-142.237"/>
<polygon fill="black" stroke="black" points="65.5001,-142.101 62,-132.101 58.5001,-142.101 65.5001,-142.101"/>
<text text-anchor="middle" x="65.5" y="-154.3" font-family="Times,serif" font-size="14.00">b</text>
</g>
<!-- 1 -->
<g id="node2" class="node"><title>1</title>
<ellipse fill="lightblue" stroke="black" cx="109" cy="-18" rx="18" ry="18"/>
<text text-anchor="middle" x="109" y="-14.3" font-family="Times,serif" font-size="14.00">1</text>
</g>
<!-- 1&#45;&gt;0 -->
<g id="edge3" class="edge"><title>1&#45;&gt;0</title>
<path fill="none" stroke="black" d="M107.818,-36.142C105.959,-58.5423 101.531,-98.8222 92,-132 87.603,-147.307 80.5896,-163.684 74.4492,-176.641"/>
<polygon fill="black" stroke="black" points="71.2166,-175.285 69.9817,-185.807 77.5091,-178.352 71.2166,-175.285"/>
<text text-anchor="middle" x="104.5" y="-106.3" font-family="Times,serif" font-size="14.00">b</text>
</g>
<!-- 1&#45;&gt;3 -->
<g id="edge4" class="edge"><title>1&#45;&gt;3</title>
<path fill="none" stroke="black" d="M100.991,-34.3358C94.2924,-47.1636 84.5647,-65.791 76.5017,-81.2308"/>
<polygon fill="black" stroke="black" points="73.2651,-79.8677 71.7384,-90.3519 79.4699,-83.108 73.2651,-79.8677"/>
<text text-anchor="middle" x="92.5" y="-58.3" font-family="Times,serif" font-size="14.00">a</text>
</g>
<!-- 2&#45;&gt;2 -->
<g id="edge5" class="edge"><title>2&#45;&gt;2</title>
<path fill="none" stroke="black" d="M34.2903,-25.6679C44.3892,-27.5169 54,-24.9609 54,-18 54,-13.5406 50.0557,-10.8891 44.5656,-10.0454"/>
<polygon fill="black" stroke="black" points="44.1887,-6.55441 34.2903,-10.3321 44.384,-13.5517 44.1887,-6.55441"/>
<text text-anchor="middle" x="62.5" y="-14.3" font-family="Times,serif" font-size="14.00">b,a</text>
</g>
<!-- 3&#45;&gt;1 -->
<g id="edge6" class="edge"><title>3&#45;&gt;1</title>
<path fill="none" stroke="black" d="M62.2347,-87.8444C63.131,-77.1567 65.4454,-64.3059 71,-54 74.8033,-46.9435 80.5826,-40.5481 86.4946,-35.2124"/>
<polygon fill="black" stroke="black" points="88.9831,-37.6966 94.4656,-28.6305 84.5261,-32.2988 88.9831,-37.6966"/>
<text text-anchor="middle" x="74.5" y="-58.3" font-family="Times,serif" font-size="14.00">b</text>
</g>
<!-- 3&#45;&gt;2 -->
<g id="edge7" class="edge"><title>3&#45;&gt;2</title>
<path fill="none" stroke="black" d="M51.6903,-90.4915C48.1973,-84.0557 44.3376,-76.7568 41,-70 36.857,-61.6127 32.5759,-52.3177 28.847,-43.9852"/>
<polygon fill="black" stroke="black" points="32.0113,-42.4866 24.7647,-34.7576 25.6098,-45.3187 32.0113,-42.4866"/>
<text text-anchor="middle" x="44.5" y="-58.3" font-family="Times,serif" font-size="14.00">a</text>
</g>
<!-- 4 -->
<g id="node5" class="node"><title>4</title>
<ellipse fill="lightblue" stroke="black" cx="163" cy="-110" rx="18" ry="18"/>
<text text-anchor="middle" x="163" y="-106.3" font-family="Times,serif" font-size="14.00">4</text>
</g>
<!-- 4&#45;&gt;1 -->
<g id="edge8" class="edge"><title>4&#45;&gt;1</title>
<path fill="none" stroke="black" d="M155.42,-93.2785C149.864,-82.1053 141.934,-66.8621 134,-54 131.393,-49.7737 128.453,-45.3814 125.53,-41.1944"/>
<polygon fill="black" stroke="black" points="128.333,-39.0976 119.664,-33.0076 122.643,-43.1749 128.333,-39.0976"/>
<text text-anchor="middle" x="145.5" y="-58.3" font-family="Times,serif" font-size="14.00">a</text>
</g>
<!-- 4&#45;&gt;4 -->
<g id="edge9" class="edge"><title>4&#45;&gt;4</title>
<path fill="none" stroke="black" d="M179.29,-118.365C189.389,-120.382 199,-117.594 199,-110 199,-105.135 195.056,-102.243 189.566,-101.322"/>
<polygon fill="black" stroke="black" points="189.179,-97.8323 179.29,-101.635 189.392,-104.829 189.179,-97.8323"/>
<text text-anchor="middle" x="202.5" y="-106.3" font-family="Times,serif" font-size="14.00">b</text>
</g>
</g>
</svg>
