<?xml version="1.0" encoding="UTF-8" standalone="no"?>
<!DOCTYPE svg PUBLIC "-//W3C//DTD SVG 1.1//EN"
 "http://www.w3.org/Graphics/SVG/1.1/DTD/svg11.dtd">
<!-- Generated by graphviz version 2.36.0 (20140111.2315)
 -->
<!-- Title: %3 Pages: 1 -->
<svg width="231pt" height="316pt"
 viewBox="0.00 0.00 231.00 316.00" xmlns="http://www.w3.org/2000/svg" xmlns:xlink="http://www.w3.org/1999/xlink">
<g id="graph0" class="graph" transform="scale(1 1) rotate(0) translate(4 312)">
<title>%3</title>
<polygon fill="white" stroke="none" points="-4,4 -4,-312 227,-312 227,4 -4,4"/>
<!-- 0 -->
<g id="node1" class="node"><title>0</title>
<ellipse fill="lightblue" stroke="black" cx="91" cy="-290" rx="18" ry="18"/>
<text text-anchor="middle" x="91" y="-286.3" font-family="Times,serif" font-size="14.00">0</text>
</g>
<!-- 0&#45;&gt;0 -->
<g id="edge1" class="edge"><title>0&#45;&gt;0</title>
<path fill="none" stroke="black" d="M107.29,-297.668C117.389,-299.517 127,-296.961 127,-290 127,-285.541 123.056,-282.889 117.566,-282.045"/>
<polygon fill="black" stroke="black" points="117.189,-278.554 107.29,-282.332 117.384,-285.552 117.189,-278.554"/>
<text text-anchor="middle" x="130.5" y="-286.3" font-family="Times,serif" font-size="14.00">b</text>
</g>
<!-- 1 -->
<g id="node2" class="node"><title>1</title>
<ellipse fill="lightblue" stroke="black" cx="40" cy="-198" rx="17.5909" ry="18"/>
<ellipse fill="none" stroke="black" cx="40" cy="-198" rx="21.5" ry="22"/>
<text text-anchor="middle" x="40" y="-194.3" font-family="Times,serif" font-size="14.00">1</text>
</g>
<!-- 0&#45;&gt;1 -->
<g id="edge2" class="edge"><title>0&#45;&gt;1</title>
<path fill="none" stroke="black" d="M82.3485,-273.733C74.984,-260.737 64.2259,-241.752 55.3959,-226.169"/>
<polygon fill="black" stroke="black" points="58.4353,-224.434 50.4601,-217.459 52.3452,-227.885 58.4353,-224.434"/>
<text text-anchor="middle" x="73.5" y="-242.3" font-family="Times,serif" font-size="14.00">a</text>
</g>
<!-- 1&#45;&gt;1 -->
<g id="edge3" class="edge"><title>1&#45;&gt;1</title>
<path fill="none" stroke="black" d="M60.0663,-206.734C70.0736,-207.943 79,-205.031 79,-198 79,-193.496 75.3366,-190.682 70.0725,-189.559"/>
<polygon fill="black" stroke="black" points="70.1646,-186.061 60.0663,-189.266 69.9594,-193.057 70.1646,-186.061"/>
<text text-anchor="middle" x="82.5" y="-194.3" font-family="Times,serif" font-size="14.00">b</text>
</g>
<!-- 4 -->
<g id="node5" class="node"><title>4</title>
<ellipse fill="lightblue" stroke="black" cx="18" cy="-106" rx="18" ry="18"/>
<text text-anchor="middle" x="18" y="-102.3" font-family="Times,serif" font-size="14.00">4</text>
</g>
<!-- 1&#45;&gt;4 -->
<g id="edge4" class="edge"><title>1&#45;&gt;4</title>
<path fill="none" stroke="black" d="M27.336,-180.038C23.191,-173.497 19.1109,-165.735 17,-158 14.9161,-150.364 14.4092,-141.844 14.6321,-133.987"/>
<polygon fill="black" stroke="black" points="18.1362,-134.041 15.3089,-123.831 11.1517,-133.576 18.1362,-134.041"/>
<text text-anchor="middle" x="20.5" y="-146.3" font-family="Times,serif" font-size="14.00">a</text>
</g>
<!-- 2 -->
<g id="node3" class="node"><title>2</title>
<ellipse fill="lightblue" stroke="black" cx="170" cy="-290" rx="18" ry="18"/>
<text text-anchor="middle" x="170" y="-286.3" font-family="Times,serif" font-size="14.00">2</text>
</g>
<!-- 2&#45;&gt;2 -->
<g id="edge5" class="edge"><title>2&#45;&gt;2</title>
<path fill="none" stroke="black" d="M186.29,-297.668C196.389,-299.517 206,-296.961 206,-290 206,-285.541 202.056,-282.889 196.566,-282.045"/>
<polygon fill="black" stroke="black" points="196.189,-278.554 186.29,-282.332 196.384,-285.552 196.189,-278.554"/>
<text text-anchor="middle" x="214.5" y="-286.3" font-family="Times,serif" font-size="14.00">b,a</text>
</g>
<!-- 3 -->
<g id="node4" class="node"><title>3</title>
<ellipse fill="green" stroke="black" cx="72" cy="-18" rx="18" ry="18"/>
<text text-anchor="middle" x="72" y="-14.3" font-family="Times,serif" font-size="14.00">3</text>
</g>
<!-- 3&#45;&gt;0 -->
<g id="edge6" class="edge"><title>3&#45;&gt;0</title>
<path fill="none" stroke="black" d="M75.0094,-36.0767C75.9913,-41.7724 77.068,-48.1554 78,-54 89.6861,-127.284 98.6835,-145.838 96,-220 95.4978,-233.878 94.4293,-249.296 93.4084,-262.031"/>
<polygon fill="black" stroke="black" points="89.9199,-261.748 92.5756,-272.005 96.8957,-262.331 89.9199,-261.748"/>
<text text-anchor="middle" x="97.5" y="-146.3" font-family="Times,serif" font-size="14.00">a</text>
</g>
<!-- 3&#45;&gt;1 -->
<g id="edge7" class="edge"><title>3&#45;&gt;1</title>
<path fill="none" stroke="black" d="M68.9548,-35.939C63.571,-65.8863 52.3014,-128.573 45.5189,-166.301"/>
<polygon fill="black" stroke="black" points="42.0581,-165.771 43.7334,-176.233 48.9477,-167.01 42.0581,-165.771"/>
<text text-anchor="middle" x="62.5" y="-102.3" font-family="Times,serif" font-size="14.00">b</text>
</g>
<!-- 4&#45;&gt;1 -->
<g id="edge8" class="edge"><title>4&#45;&gt;1</title>
<path fill="none" stroke="black" d="M22.0889,-123.727C25.0281,-135.751 29.074,-152.303 32.5768,-166.632"/>
<polygon fill="black" stroke="black" points="29.2334,-167.695 35.0079,-176.578 36.0332,-166.033 29.2334,-167.695"/>
<text text-anchor="middle" x="33.5" y="-146.3" font-family="Times,serif" font-size="14.00">a</text>
</g>
<!-- 4&#45;&gt;3 -->
<g id="edge9" class="edge"><title>4&#45;&gt;3</title>
<path fill="none" stroke="black" d="M27.1604,-90.4113C35.3836,-77.315 47.6029,-57.8546 57.2098,-42.5548"/>
<polygon fill="black" stroke="black" points="60.4411,-43.9904 62.7947,-33.6603 54.5129,-40.268 60.4411,-43.9904"/>
<text text-anchor="middle" x="52.5" y="-58.3" font-family="Times,serif" font-size="14.00">b</text>
</g>
</g>
</svg>
