<?xml version="1.0" encoding="UTF-8" standalone="no"?>
<!DOCTYPE svg PUBLIC "-//W3C//DTD SVG 1.1//EN"
 "http://www.w3.org/Graphics/SVG/1.1/DTD/svg11.dtd">
<!-- Generated by graphviz version 2.36.0 (20140111.2315)
 -->
<!-- Title: %3 Pages: 1 -->
<svg width="104pt" height="316pt"
 viewBox="0.00 0.00 104.00 316.00" xmlns="http://www.w3.org/2000/svg" xmlns:xlink="http://www.w3.org/1999/xlink">
<g id="graph0" class="graph" transform="scale(1 1) rotate(0) translate(4 312)">
<title>%3</title>
<polygon fill="white" stroke="none" points="-4,4 -4,-312 100,-312 100,4 -4,4"/>
<!-- 0 -->
<g id="node1" class="node"><title>0</title>
<ellipse fill="lightblue" stroke="black" cx="18" cy="-106" rx="18" ry="18"/>
<text text-anchor="middle" x="18" y="-102.3" font-family="Times,serif" font-size="14.00">0</text>
</g>
<!-- 2 -->
<g id="node3" class="node"><title>2</title>
<ellipse fill="green" stroke="black" cx="18" cy="-18" rx="18" ry="18"/>
<text text-anchor="middle" x="18" y="-14.3" font-family="Times,serif" font-size="14.00">2</text>
</g>
<!-- 0&#45;&gt;2 -->
<g id="edge1" class="edge"><title>0&#45;&gt;2</title>
<path fill="none" stroke="black" d="M18,-87.5966C18,-75.7459 18,-59.8169 18,-46.2917"/>
<polygon fill="black" stroke="black" points="21.5001,-46.084 18,-36.084 14.5001,-46.084 21.5001,-46.084"/>
<text text-anchor="middle" x="26.5" y="-58.3" font-family="Times,serif" font-size="14.00">b,a</text>
</g>
<!-- 1 -->
<g id="node2" class="node"><title>1</title>
<ellipse fill="lightblue" stroke="black" cx="22" cy="-290" rx="18" ry="18"/>
<text text-anchor="middle" x="22" y="-286.3" font-family="Times,serif" font-size="14.00">1</text>
</g>
<!-- 1&#45;&gt;0 -->
<g id="edge2" class="edge"><title>1&#45;&gt;0</title>
<path fill="none" stroke="black" d="M18.5355,-272.076C15.8726,-258.162 12.4176,-237.897 11,-220 8.66863,-190.567 11.4832,-156.77 14.2075,-133.863"/>
<polygon fill="black" stroke="black" points="17.6901,-134.22 15.4743,-123.86 10.7456,-133.341 17.6901,-134.22"/>
<text text-anchor="middle" x="14.5" y="-194.3" font-family="Times,serif" font-size="14.00">b</text>
</g>
<!-- 3 -->
<g id="node4" class="node"><title>3</title>
<ellipse fill="lightblue" stroke="black" cx="49" cy="-198" rx="17.5909" ry="18"/>
<ellipse fill="none" stroke="black" cx="49" cy="-198" rx="21.5" ry="22"/>
<text text-anchor="middle" x="49" y="-194.3" font-family="Times,serif" font-size="14.00">3</text>
</g>
<!-- 1&#45;&gt;3 -->
<g id="edge3" class="edge"><title>1&#45;&gt;3</title>
<path fill="none" stroke="black" d="M26.9522,-272.493C30.6136,-260.288 35.7,-243.333 40.0648,-228.784"/>
<polygon fill="black" stroke="black" points="43.4237,-229.768 42.9449,-219.184 36.7189,-227.756 43.4237,-229.768"/>
<text text-anchor="middle" x="40.5" y="-242.3" font-family="Times,serif" font-size="14.00">a</text>
</g>
<!-- 2&#45;&gt;2 -->
<g id="edge4" class="edge"><title>2&#45;&gt;2</title>
<path fill="none" stroke="black" d="M34.2903,-25.6679C44.3892,-27.5169 54,-24.9609 54,-18 54,-13.5406 50.0557,-10.8891 44.5656,-10.0454"/>
<polygon fill="black" stroke="black" points="44.1887,-6.55441 34.2903,-10.3321 44.384,-13.5517 44.1887,-6.55441"/>
<text text-anchor="middle" x="62.5" y="-14.3" font-family="Times,serif" font-size="14.00">b,a</text>
</g>
<!-- 3&#45;&gt;0 -->
<g id="edge5" class="edge"><title>3&#45;&gt;0</title>
<path fill="none" stroke="black" d="M42.1201,-177.026C37.6417,-164.024 31.7557,-146.936 26.9193,-132.895"/>
<polygon fill="black" stroke="black" points="30.1843,-131.626 23.6184,-123.311 23.5659,-133.906 30.1843,-131.626"/>
<text text-anchor="middle" x="38.5" y="-146.3" font-family="Times,serif" font-size="14.00">b</text>
</g>
<!-- 3&#45;&gt;3 -->
<g id="edge6" class="edge"><title>3&#45;&gt;3</title>
<path fill="none" stroke="black" d="M69.0663,-206.734C79.0736,-207.943 88,-205.031 88,-198 88,-193.496 84.3366,-190.682 79.0725,-189.559"/>
<polygon fill="black" stroke="black" points="79.1646,-186.061 69.0663,-189.266 78.9594,-193.057 79.1646,-186.061"/>
<text text-anchor="middle" x="91.5" y="-194.3" font-family="Times,serif" font-size="14.00">a</text>
</g>
</g>
</svg>
