<?xml version="1.0" encoding="UTF-8" standalone="no"?>
<!DOCTYPE svg PUBLIC "-//W3C//DTD SVG 1.1//EN"
 "http://www.w3.org/Graphics/SVG/1.1/DTD/svg11.dtd">
<!-- Generated by graphviz version 2.36.0 (20140111.2315)
 -->
<!-- Title: %3 Pages: 1 -->
<svg width="117pt" height="316pt"
 viewBox="0.00 0.00 117.00 316.00" xmlns="http://www.w3.org/2000/svg" xmlns:xlink="http://www.w3.org/1999/xlink">
<g id="graph0" class="graph" transform="scale(1 1) rotate(0) translate(4 312)">
<title>%3</title>
<polygon fill="white" stroke="none" points="-4,4 -4,-312 113,-312 113,4 -4,4"/>
<!-- 0 -->
<g id="node1" class="node"><title>0</title>
<ellipse fill="lightblue" stroke="black" cx="66" cy="-290" rx="18" ry="18"/>
<text text-anchor="middle" x="66" y="-286.3" font-family="Times,serif" font-size="14.00">0</text>
</g>
<!-- 0&#45;&gt;0 -->
<g id="edge1" class="edge"><title>0&#45;&gt;0</title>
<path fill="none" stroke="black" d="M82.2903,-297.668C92.3892,-299.517 102,-296.961 102,-290 102,-285.541 98.0557,-282.889 92.5656,-282.045"/>
<polygon fill="black" stroke="black" points="92.1887,-278.554 82.2903,-282.332 92.384,-285.552 92.1887,-278.554"/>
<text text-anchor="middle" x="105.5" y="-286.3" font-family="Times,serif" font-size="14.00">a</text>
</g>
<!-- 1 -->
<g id="node2" class="node"><title>1</title>
<ellipse fill="lightblue" stroke="black" cx="18" cy="-202" rx="18" ry="18"/>
<text text-anchor="middle" x="18" y="-198.3" font-family="Times,serif" font-size="14.00">1</text>
</g>
<!-- 0&#45;&gt;1 -->
<g id="edge2" class="edge"><title>0&#45;&gt;1</title>
<path fill="none" stroke="black" d="M57.639,-274.02C50.3877,-261.028 39.7626,-241.991 31.3377,-226.897"/>
<polygon fill="black" stroke="black" points="34.3561,-225.123 26.4262,-218.097 28.2437,-228.535 34.3561,-225.123"/>
<text text-anchor="middle" x="49.5" y="-242.3" font-family="Times,serif" font-size="14.00">b</text>
</g>
<!-- 1&#45;&gt;1 -->
<g id="edge3" class="edge"><title>1&#45;&gt;1</title>
<path fill="none" stroke="black" d="M34.2903,-209.668C44.3892,-211.517 54,-208.961 54,-202 54,-197.541 50.0557,-194.889 44.5656,-194.045"/>
<polygon fill="black" stroke="black" points="44.1887,-190.554 34.2903,-194.332 44.384,-197.552 44.1887,-190.554"/>
<text text-anchor="middle" x="57.5" y="-198.3" font-family="Times,serif" font-size="14.00">a</text>
</g>
<!-- 3 -->
<g id="node4" class="node"><title>3</title>
<ellipse fill="green" stroke="black" cx="38" cy="-110" rx="17.5909" ry="18"/>
<ellipse fill="none" stroke="black" cx="38" cy="-110" rx="21.5" ry="22"/>
<text text-anchor="middle" x="38" y="-106.3" font-family="Times,serif" font-size="14.00">3</text>
</g>
<!-- 1&#45;&gt;3 -->
<g id="edge4" class="edge"><title>1&#45;&gt;3</title>
<path fill="none" stroke="black" d="M14.8971,-184.195C13.6357,-174.119 13.0742,-161.142 16,-150 17.1106,-145.771 18.7954,-141.517 20.7483,-137.454"/>
<polygon fill="black" stroke="black" points="23.9568,-138.879 25.6478,-128.42 17.8035,-135.542 23.9568,-138.879"/>
<text text-anchor="middle" x="19.5" y="-154.3" font-family="Times,serif" font-size="14.00">b</text>
</g>
<!-- 2 -->
<g id="node3" class="node"><title>2</title>
<ellipse fill="lightblue" stroke="black" cx="67" cy="-18" rx="18" ry="18"/>
<text text-anchor="middle" x="67" y="-14.3" font-family="Times,serif" font-size="14.00">2</text>
</g>
<!-- 2&#45;&gt;0 -->
<g id="edge5" class="edge"><title>2&#45;&gt;0</title>
<path fill="none" stroke="black" d="M67.7654,-36.2113C69.1982,-70.9581 71.9701,-151.974 70,-220 69.6024,-233.73 68.7606,-248.977 67.9514,-261.639"/>
<polygon fill="black" stroke="black" points="64.4338,-261.788 67.2606,-271.998 71.4183,-262.253 64.4338,-261.788"/>
<text text-anchor="middle" x="73.5" y="-154.3" font-family="Times,serif" font-size="14.00">a</text>
</g>
<!-- 2&#45;&gt;3 -->
<g id="edge6" class="edge"><title>2&#45;&gt;3</title>
<path fill="none" stroke="black" d="M61.7036,-35.437C57.7902,-47.5821 52.3521,-64.4589 47.6717,-78.9843"/>
<polygon fill="black" stroke="black" points="44.3162,-77.9861 44.5805,-88.5776 50.9789,-80.133 44.3162,-77.9861"/>
<text text-anchor="middle" x="58.5" y="-58.3" font-family="Times,serif" font-size="14.00">b</text>
</g>
<!-- 3&#45;&gt;1 -->
<g id="edge7" class="edge"><title>3&#45;&gt;1</title>
<path fill="none" stroke="black" d="M33.4124,-131.644C30.5998,-144.301 26.9697,-160.636 23.9391,-174.274"/>
<polygon fill="black" stroke="black" points="20.5146,-173.551 21.7618,-184.072 27.3479,-175.069 20.5146,-173.551"/>
<text text-anchor="middle" x="33.5" y="-154.3" font-family="Times,serif" font-size="14.00">b</text>
</g>
<!-- 3&#45;&gt;2 -->
<g id="edge8" class="edge"><title>3&#45;&gt;2</title>
<path fill="none" stroke="black" d="M35.7948,-88.0555C35.4208,-77.5426 36.1038,-64.7836 40,-54 41.8752,-48.8101 44.8271,-43.7743 48.103,-39.2156"/>
<polygon fill="black" stroke="black" points="51.0704,-41.1102 54.6038,-31.1219 45.6128,-36.7267 51.0704,-41.1102"/>
<text text-anchor="middle" x="43.5" y="-58.3" font-family="Times,serif" font-size="14.00">a</text>
</g>
</g>
</svg>
