<?xml version="1.0" encoding="UTF-8" standalone="no"?>
<!DOCTYPE svg PUBLIC "-//W3C//DTD SVG 1.1//EN"
 "http://www.w3.org/Graphics/SVG/1.1/DTD/svg11.dtd">
<!-- Generated by graphviz version 2.36.0 (20140111.2315)
 -->
<!-- Title: %3 Pages: 1 -->
<svg width="76pt" height="316pt"
 viewBox="0.00 0.00 76.00 316.00" xmlns="http://www.w3.org/2000/svg" xmlns:xlink="http://www.w3.org/1999/xlink">
<g id="graph0" class="graph" transform="scale(1 1) rotate(0) translate(4 312)">
<title>%3</title>
<polygon fill="white" stroke="none" points="-4,4 -4,-312 72,-312 72,4 -4,4"/>
<!-- 0 -->
<g id="node1" class="node"><title>0</title>
<ellipse fill="lightblue" stroke="black" cx="21" cy="-110" rx="17.5909" ry="18"/>
<ellipse fill="none" stroke="black" cx="21" cy="-110" rx="21.5" ry="22"/>
<text text-anchor="middle" x="21" y="-106.3" font-family="Times,serif" font-size="14.00">0</text>
</g>
<!-- 0&#45;&gt;0 -->
<g id="edge1" class="edge"><title>0&#45;&gt;0</title>
<path fill="none" stroke="black" d="M41.0663,-118.734C51.0736,-119.943 60,-117.031 60,-110 60,-105.496 56.3366,-102.682 51.0725,-101.559"/>
<polygon fill="black" stroke="black" points="51.1646,-98.0605 41.0663,-101.266 50.9594,-105.057 51.1646,-98.0605"/>
<text text-anchor="middle" x="63.5" y="-106.3" font-family="Times,serif" font-size="14.00">b</text>
</g>
<!-- 2 -->
<g id="node3" class="node"><title>2</title>
<ellipse fill="lightblue" stroke="black" cx="21" cy="-18" rx="18" ry="18"/>
<text text-anchor="middle" x="21" y="-14.3" font-family="Times,serif" font-size="14.00">2</text>
</g>
<!-- 0&#45;&gt;2 -->
<g id="edge2" class="edge"><title>0&#45;&gt;2</title>
<path fill="none" stroke="black" d="M13.0484,-89.491C9.71675,-79.0175 7.02375,-65.8575 9,-54 9.52175,-50.8695 10.2891,-47.6437 11.1877,-44.476"/>
<polygon fill="black" stroke="black" points="14.5891,-45.3348 14.3664,-34.7423 7.93495,-43.1618 14.5891,-45.3348"/>
<text text-anchor="middle" x="12.5" y="-58.3" font-family="Times,serif" font-size="14.00">a</text>
</g>
<!-- 1 -->
<g id="node2" class="node"><title>1</title>
<ellipse fill="lightblue" stroke="black" cx="21" cy="-290" rx="18" ry="18"/>
<text text-anchor="middle" x="21" y="-286.3" font-family="Times,serif" font-size="14.00">1</text>
</g>
<!-- 1&#45;&gt;1 -->
<g id="edge3" class="edge"><title>1&#45;&gt;1</title>
<path fill="none" stroke="black" d="M37.2903,-297.668C47.3892,-299.517 57,-296.961 57,-290 57,-285.541 53.0557,-282.889 47.5656,-282.045"/>
<polygon fill="black" stroke="black" points="47.1887,-278.554 37.2903,-282.332 47.384,-285.552 47.1887,-278.554"/>
<text text-anchor="middle" x="60.5" y="-286.3" font-family="Times,serif" font-size="14.00">b</text>
</g>
<!-- 3 -->
<g id="node4" class="node"><title>3</title>
<ellipse fill="green" stroke="black" cx="21" cy="-202" rx="18" ry="18"/>
<text text-anchor="middle" x="21" y="-198.3" font-family="Times,serif" font-size="14.00">3</text>
</g>
<!-- 1&#45;&gt;3 -->
<g id="edge4" class="edge"><title>1&#45;&gt;3</title>
<path fill="none" stroke="black" d="M21,-271.597C21,-259.746 21,-243.817 21,-230.292"/>
<polygon fill="black" stroke="black" points="24.5001,-230.084 21,-220.084 17.5001,-230.084 24.5001,-230.084"/>
<text text-anchor="middle" x="24.5" y="-242.3" font-family="Times,serif" font-size="14.00">a</text>
</g>
<!-- 2&#45;&gt;0 -->
<g id="edge5" class="edge"><title>2&#45;&gt;0</title>
<path fill="none" stroke="black" d="M21,-36.2581C21,-47.9274 21,-63.6781 21,-77.539"/>
<polygon fill="black" stroke="black" points="17.5001,-77.6712 21,-87.6713 24.5001,-77.6713 17.5001,-77.6712"/>
<text text-anchor="middle" x="29.5" y="-58.3" font-family="Times,serif" font-size="14.00">b,a</text>
</g>
<!-- 3&#45;&gt;0 -->
<g id="edge6" class="edge"><title>3&#45;&gt;0</title>
<path fill="none" stroke="black" d="M21,-183.647C21,-171.924 21,-156.114 21,-142.237"/>
<polygon fill="black" stroke="black" points="24.5001,-142.101 21,-132.101 17.5001,-142.101 24.5001,-142.101"/>
<text text-anchor="middle" x="29.5" y="-154.3" font-family="Times,serif" font-size="14.00">b,a</text>
</g>
</g>
</svg>
