<?xml version="1.0" encoding="UTF-8" standalone="no"?>
<!DOCTYPE svg PUBLIC "-//W3C//DTD SVG 1.1//EN"
 "http://www.w3.org/Graphics/SVG/1.1/DTD/svg11.dtd">
<!-- Generated by graphviz version 2.36.0 (20140111.2315)
 -->
<!-- Title: %3 Pages: 1 -->
<svg width="192pt" height="228pt"
 viewBox="0.00 0.00 192.00 228.00" xmlns="http://www.w3.org/2000/svg" xmlns:xlink="http://www.w3.org/1999/xlink">
<g id="graph0" class="graph" transform="scale(1 1) rotate(0) translate(4 224)">
<title>%3</title>
<polygon fill="white" stroke="none" points="-4,4 -4,-224 188,-224 188,4 -4,4"/>
<!-- 0 -->
<g id="node1" class="node"><title>0</title>
<ellipse fill="green" stroke="black" cx="48" cy="-202" rx="18" ry="18"/>
<text text-anchor="middle" x="48" y="-198.3" font-family="Times,serif" font-size="14.00">0</text>
</g>
<!-- 0&#45;&gt;0 -->
<g id="edge1" class="edge"><title>0&#45;&gt;0</title>
<path fill="none" stroke="black" d="M64.2903,-209.668C74.3892,-211.517 84,-208.961 84,-202 84,-197.541 80.0557,-194.889 74.5656,-194.045"/>
<polygon fill="black" stroke="black" points="74.1887,-190.554 64.2903,-194.332 74.384,-197.552 74.1887,-190.554"/>
<text text-anchor="middle" x="87.5" y="-198.3" font-family="Times,serif" font-size="14.00">c</text>
</g>
<!-- 2 -->
<g id="node3" class="node"><title>2</title>
<ellipse fill="lightblue" stroke="black" cx="21" cy="-110" rx="17.5909" ry="18"/>
<ellipse fill="none" stroke="black" cx="21" cy="-110" rx="21.5" ry="22"/>
<text text-anchor="middle" x="21" y="-106.3" font-family="Times,serif" font-size="14.00">2</text>
</g>
<!-- 0&#45;&gt;2 -->
<g id="edge2" class="edge"><title>0&#45;&gt;2</title>
<path fill="none" stroke="black" d="M32.8581,-192.039C24.1094,-185.929 13.8934,-176.967 9,-166 5.26737,-157.635 5.87644,-148.023 8.14838,-139.198"/>
<polygon fill="black" stroke="black" points="11.4801,-140.27 11.2772,-129.677 4.83,-138.085 11.4801,-140.27"/>
<text text-anchor="middle" x="17.5" y="-154.3" font-family="Times,serif" font-size="14.00">b,a</text>
</g>
<!-- 1 -->
<g id="node2" class="node"><title>1</title>
<ellipse fill="lightblue" stroke="black" cx="131" cy="-110" rx="18" ry="18"/>
<text text-anchor="middle" x="131" y="-106.3" font-family="Times,serif" font-size="14.00">1</text>
</g>
<!-- 1&#45;&gt;1 -->
<g id="edge3" class="edge"><title>1&#45;&gt;1</title>
<path fill="none" stroke="black" d="M147.29,-118.365C157.389,-120.382 167,-117.594 167,-110 167,-105.135 163.056,-102.243 157.566,-101.322"/>
<polygon fill="black" stroke="black" points="157.179,-97.8323 147.29,-101.635 157.392,-104.829 157.179,-97.8323"/>
<text text-anchor="middle" x="175.5" y="-106.3" font-family="Times,serif" font-size="14.00">b,c</text>
</g>
<!-- 3 -->
<g id="node4" class="node"><title>3</title>
<ellipse fill="lightblue" stroke="black" cx="79" cy="-18" rx="18" ry="18"/>
<text text-anchor="middle" x="79" y="-14.3" font-family="Times,serif" font-size="14.00">3</text>
</g>
<!-- 1&#45;&gt;3 -->
<g id="edge4" class="edge"><title>1&#45;&gt;3</title>
<path fill="none" stroke="black" d="M122.413,-94.1383C114.359,-80.1986 102.179,-59.118 92.7684,-42.8299"/>
<polygon fill="black" stroke="black" points="95.6329,-40.7914 87.5995,-33.8837 89.5718,-44.2934 95.6329,-40.7914"/>
<text text-anchor="middle" x="111.5" y="-58.3" font-family="Times,serif" font-size="14.00">a</text>
</g>
<!-- 2&#45;&gt;0 -->
<g id="edge5" class="edge"><title>2&#45;&gt;0</title>
<path fill="none" stroke="black" d="M27.0551,-131.184C30.8972,-143.991 35.9099,-160.7 40.0681,-174.56"/>
<polygon fill="black" stroke="black" points="36.8218,-175.92 43.0478,-184.493 43.5266,-173.909 36.8218,-175.92"/>
<text text-anchor="middle" x="44" y="-154.3" font-family="Times,serif" font-size="14.00">c,a</text>
</g>
<!-- 2&#45;&gt;3 -->
<g id="edge6" class="edge"><title>2&#45;&gt;3</title>
<path fill="none" stroke="black" d="M32.4589,-91.2189C41.5661,-77.0872 54.3701,-57.2188 64.2436,-41.8979"/>
<polygon fill="black" stroke="black" points="67.1932,-43.7821 69.6682,-33.4804 61.3092,-39.9901 67.1932,-43.7821"/>
<text text-anchor="middle" x="58.5" y="-58.3" font-family="Times,serif" font-size="14.00">b</text>
</g>
<!-- 3&#45;&gt;0 -->
<g id="edge7" class="edge"><title>3&#45;&gt;0</title>
<path fill="none" stroke="black" d="M76.695,-36.267C72.9299,-63.8051 64.9744,-119.325 56,-166 55.4774,-168.718 54.8953,-171.546 54.2903,-174.365"/>
<polygon fill="black" stroke="black" points="50.8319,-173.792 52.0625,-184.315 57.6628,-175.322 50.8319,-173.792"/>
<text text-anchor="middle" x="77" y="-106.3" font-family="Times,serif" font-size="14.00">c,a</text>
</g>
<!-- 3&#45;&gt;3 -->
<g id="edge8" class="edge"><title>3&#45;&gt;3</title>
<path fill="none" stroke="black" d="M95.2903,-25.6679C105.389,-27.5169 115,-24.9609 115,-18 115,-13.5406 111.056,-10.8891 105.566,-10.0454"/>
<polygon fill="black" stroke="black" points="105.189,-6.55441 95.2903,-10.3321 105.384,-13.5517 105.189,-6.55441"/>
<text text-anchor="middle" x="118.5" y="-14.3" font-family="Times,serif" font-size="14.00">b</text>
</g>
</g>
</svg>
