<?xml version="1.0" encoding="UTF-8" standalone="no"?>
<!DOCTYPE svg PUBLIC "-//W3C//DTD SVG 1.1//EN"
 "http://www.w3.org/Graphics/SVG/1.1/DTD/svg11.dtd">
<!-- Generated by graphviz version 2.36.0 (20140111.2315)
 -->
<!-- Title: %3 Pages: 1 -->
<svg width="174pt" height="316pt"
 viewBox="0.00 0.00 174.10 316.00" xmlns="http://www.w3.org/2000/svg" xmlns:xlink="http://www.w3.org/1999/xlink">
<g id="graph0" class="graph" transform="scale(1 1) rotate(0) translate(4 312)">
<title>%3</title>
<polygon fill="white" stroke="none" points="-4,4 -4,-312 170.104,-312 170.104,4 -4,4"/>
<!-- 0 -->
<g id="node1" class="node"><title>0</title>
<ellipse fill="lightblue" stroke="black" cx="46.1038" cy="-286" rx="17.5909" ry="18"/>
<ellipse fill="none" stroke="black" cx="46.1038" cy="-286" rx="21.5" ry="22"/>
<text text-anchor="middle" x="46.1038" y="-282.3" font-family="Times,serif" font-size="14.00">0</text>
</g>
<!-- 1 -->
<g id="node2" class="node"><title>1</title>
<ellipse fill="lightblue" stroke="black" cx="85.1038" cy="-194" rx="18" ry="18"/>
<text text-anchor="middle" x="85.1038" y="-190.3" font-family="Times,serif" font-size="14.00">1</text>
</g>
<!-- 0&#45;&gt;1 -->
<g id="edge1" class="edge"><title>0&#45;&gt;1</title>
<path fill="none" stroke="black" d="M58.7369,-267.776C63.1198,-261.207 67.7665,-253.494 71.1038,-246 74.4802,-238.418 77.2177,-229.833 79.3465,-221.897"/>
<polygon fill="black" stroke="black" points="82.7962,-222.526 81.7969,-211.978 76.0006,-220.847 82.7962,-222.526"/>
<text text-anchor="middle" x="79.6038" y="-234.3" font-family="Times,serif" font-size="14.00">b</text>
</g>
<!-- 4 -->
<g id="node5" class="node"><title>4</title>
<ellipse fill="lightblue" stroke="black" cx="30.1038" cy="-18" rx="18" ry="18"/>
<text text-anchor="middle" x="30.1038" y="-14.3" font-family="Times,serif" font-size="14.00">4</text>
</g>
<!-- 0&#45;&gt;4 -->
<g id="edge2" class="edge"><title>0&#45;&gt;4</title>
<path fill="none" stroke="black" d="M36.7974,-266.056C20.7445,-231.026 -9.29353,-153.703 3.10379,-88 5.99276,-72.6891 12.1923,-56.42 17.9229,-43.527"/>
<polygon fill="black" stroke="black" points="21.1244,-44.9425 22.1512,-34.3976 14.7726,-42.0007 21.1244,-44.9425"/>
<text text-anchor="middle" x="6.60379" y="-146.3" font-family="Times,serif" font-size="14.00">a</text>
</g>
<!-- 1&#45;&gt;0 -->
<g id="edge3" class="edge"><title>1&#45;&gt;0</title>
<path fill="none" stroke="black" d="M76.2777,-210.084C72.8873,-216.168 69.1126,-223.317 66.1038,-230 62.4858,-238.036 59.0236,-246.94 56.027,-255.201"/>
<polygon fill="black" stroke="black" points="52.6465,-254.263 52.6234,-264.858 59.2485,-256.59 52.6465,-254.263"/>
<text text-anchor="middle" x="69.6038" y="-234.3" font-family="Times,serif" font-size="14.00">a</text>
</g>
<!-- 3 -->
<g id="node4" class="node"><title>3</title>
<ellipse fill="lightblue" stroke="black" cx="30.1038" cy="-106" rx="18" ry="18"/>
<text text-anchor="middle" x="30.1038" y="-102.3" font-family="Times,serif" font-size="14.00">3</text>
</g>
<!-- 1&#45;&gt;3 -->
<g id="edge4" class="edge"><title>1&#45;&gt;3</title>
<path fill="none" stroke="black" d="M75.7738,-178.411C67.3193,-165.191 54.7175,-145.487 44.8917,-130.123"/>
<polygon fill="black" stroke="black" points="47.8159,-128.199 39.4796,-121.66 41.9188,-131.971 47.8159,-128.199"/>
<text text-anchor="middle" x="66.6038" y="-146.3" font-family="Times,serif" font-size="14.00">b</text>
</g>
<!-- 2 -->
<g id="node3" class="node"><title>2</title>
<ellipse fill="green" stroke="black" cx="123.104" cy="-286" rx="18" ry="18"/>
<text text-anchor="middle" x="123.104" y="-282.3" font-family="Times,serif" font-size="14.00">2</text>
</g>
<!-- 2&#45;&gt;1 -->
<g id="edge5" class="edge"><title>2&#45;&gt;1</title>
<path fill="none" stroke="black" d="M116.952,-269.032C112.648,-258.009 106.691,-243.046 101.104,-230 99.6933,-226.707 98.1716,-223.257 96.6473,-219.862"/>
<polygon fill="black" stroke="black" points="99.7636,-218.259 92.4343,-210.609 93.3929,-221.16 99.7636,-218.259"/>
<text text-anchor="middle" x="110.604" y="-234.3" font-family="Times,serif" font-size="14.00">a</text>
</g>
<!-- 2&#45;&gt;2 -->
<g id="edge6" class="edge"><title>2&#45;&gt;2</title>
<path fill="none" stroke="black" d="M139.394,-294.365C149.493,-296.382 159.104,-293.594 159.104,-286 159.104,-281.135 155.16,-278.243 149.669,-277.322"/>
<polygon fill="black" stroke="black" points="149.283,-273.832 139.394,-277.635 149.496,-280.829 149.283,-273.832"/>
<text text-anchor="middle" x="162.604" y="-282.3" font-family="Times,serif" font-size="14.00">b</text>
</g>
<!-- 3&#45;&gt;0 -->
<g id="edge7" class="edge"><title>3&#45;&gt;0</title>
<path fill="none" stroke="black" d="M31.6421,-124.114C34.3203,-153.909 39.877,-215.727 43.2691,-253.464"/>
<polygon fill="black" stroke="black" points="39.8243,-254.236 44.2056,-263.882 46.7961,-253.609 39.8243,-254.236"/>
<text text-anchor="middle" x="43.6038" y="-190.3" font-family="Times,serif" font-size="14.00">a</text>
</g>
<!-- 3&#45;&gt;4 -->
<g id="edge8" class="edge"><title>3&#45;&gt;4</title>
<path fill="none" stroke="black" d="M30.1038,-87.5966C30.1038,-75.7459 30.1038,-59.8169 30.1038,-46.2917"/>
<polygon fill="black" stroke="black" points="33.6039,-46.084 30.1038,-36.084 26.6039,-46.084 33.6039,-46.084"/>
<text text-anchor="middle" x="33.6038" y="-58.3" font-family="Times,serif" font-size="14.00">b</text>
</g>
<!-- 4&#45;&gt;1 -->
<g id="edge9" class="edge"><title>4&#45;&gt;1</title>
<path fill="none" stroke="black" d="M36.8356,-34.7114C42.6362,-48.5788 51.0127,-69.4202 57.1038,-88 65.7013,-114.225 73.6159,-144.764 78.8208,-166.124"/>
<polygon fill="black" stroke="black" points="75.4779,-167.193 81.217,-176.099 82.2843,-165.558 75.4779,-167.193"/>
<text text-anchor="middle" x="70.6038" y="-102.3" font-family="Times,serif" font-size="14.00">a</text>
</g>
<!-- 4&#45;&gt;4 -->
<g id="edge10" class="edge"><title>4&#45;&gt;4</title>
<path fill="none" stroke="black" d="M46.3941,-25.6679C56.493,-27.5169 66.1038,-24.9609 66.1038,-18 66.1038,-13.5406 62.1595,-10.8891 56.6694,-10.0454"/>
<polygon fill="black" stroke="black" points="56.2925,-6.55441 46.3941,-10.3321 56.4878,-13.5517 56.2925,-6.55441"/>
<text text-anchor="middle" x="69.6038" y="-14.3" font-family="Times,serif" font-size="14.00">b</text>
</g>
</g>
</svg>
