<?xml version="1.0" encoding="UTF-8" standalone="no"?>
<!DOCTYPE svg PUBLIC "-//W3C//DTD SVG 1.1//EN"
 "http://www.w3.org/Graphics/SVG/1.1/DTD/svg11.dtd">
<!-- Generated by graphviz version 2.36.0 (20140111.2315)
 -->
<!-- Title: %3 Pages: 1 -->
<svg width="96pt" height="316pt"
 viewBox="0.00 0.00 96.00 316.00" xmlns="http://www.w3.org/2000/svg" xmlns:xlink="http://www.w3.org/1999/xlink">
<g id="graph0" class="graph" transform="scale(1 1) rotate(0) translate(4 312)">
<title>%3</title>
<polygon fill="white" stroke="none" points="-4,4 -4,-312 92,-312 92,4 -4,4"/>
<!-- 0 -->
<g id="node1" class="node"><title>0</title>
<ellipse fill="lightblue" stroke="black" cx="35" cy="-290" rx="18" ry="18"/>
<text text-anchor="middle" x="35" y="-286.3" font-family="Times,serif" font-size="14.00">0</text>
</g>
<!-- 0&#45;&gt;0 -->
<g id="edge1" class="edge"><title>0&#45;&gt;0</title>
<path fill="none" stroke="black" d="M51.2903,-297.668C61.3892,-299.517 71,-296.961 71,-290 71,-285.541 67.0557,-282.889 61.5656,-282.045"/>
<polygon fill="black" stroke="black" points="61.1887,-278.554 51.2903,-282.332 61.384,-285.552 61.1887,-278.554"/>
<text text-anchor="middle" x="74.5" y="-286.3" font-family="Times,serif" font-size="14.00">c</text>
</g>
<!-- 1 -->
<g id="node2" class="node"><title>1</title>
<ellipse fill="green" stroke="black" cx="21" cy="-22" rx="17.5909" ry="18"/>
<ellipse fill="none" stroke="black" cx="21" cy="-22" rx="21.5" ry="22"/>
<text text-anchor="middle" x="21" y="-18.3" font-family="Times,serif" font-size="14.00">1</text>
</g>
<!-- 0&#45;&gt;1 -->
<g id="edge2" class="edge"><title>0&#45;&gt;1</title>
<path fill="none" stroke="black" d="M30.661,-272.411C27.2639,-258.523 22.8199,-238.122 21,-220 15.1428,-161.677 17.1282,-93.15 19.0804,-54.2225"/>
<polygon fill="black" stroke="black" points="22.5847,-54.2335 19.6236,-44.0609 15.5947,-53.8597 22.5847,-54.2335"/>
<text text-anchor="middle" x="20.5" y="-154.3" font-family="Times,serif" font-size="14.00">a</text>
</g>
<!-- 2 -->
<g id="node3" class="node"><title>2</title>
<ellipse fill="lightblue" stroke="black" cx="48" cy="-202" rx="18" ry="18"/>
<text text-anchor="middle" x="48" y="-198.3" font-family="Times,serif" font-size="14.00">2</text>
</g>
<!-- 0&#45;&gt;2 -->
<g id="edge3" class="edge"><title>0&#45;&gt;2</title>
<path fill="none" stroke="black" d="M35.0718,-271.894C35.3458,-261.942 36.0958,-249.192 38,-238 38.4969,-235.08 39.1471,-232.055 39.8778,-229.063"/>
<polygon fill="black" stroke="black" points="43.3103,-229.779 42.5664,-219.21 36.5572,-227.936 43.3103,-229.779"/>
<text text-anchor="middle" x="41.5" y="-242.3" font-family="Times,serif" font-size="14.00">b</text>
</g>
<!-- 1&#45;&gt;1 -->
<g id="edge4" class="edge"><title>1&#45;&gt;1</title>
<path fill="none" stroke="black" d="M41.0663,-30.7341C51.0736,-31.9426 60,-29.0312 60,-22 60,-17.4956 56.3366,-14.682 51.0725,-13.5592"/>
<polygon fill="black" stroke="black" points="51.1646,-10.0605 41.0663,-13.2659 50.9594,-17.0575 51.1646,-10.0605"/>
<text text-anchor="middle" x="73.5" y="-18.3" font-family="Times,serif" font-size="14.00">b,c,a</text>
</g>
<!-- 2&#45;&gt;0 -->
<g id="edge5" class="edge"><title>2&#45;&gt;0</title>
<path fill="none" stroke="black" d="M46.871,-220.07C46.078,-230.01 44.828,-242.76 43,-254 42.5557,-256.732 42.0248,-259.569 41.4508,-262.393"/>
<polygon fill="black" stroke="black" points="37.9907,-261.832 39.26,-272.35 44.8271,-263.336 37.9907,-261.832"/>
<text text-anchor="middle" x="53.5" y="-242.3" font-family="Times,serif" font-size="14.00">b,a</text>
</g>
<!-- 3 -->
<g id="node4" class="node"><title>3</title>
<ellipse fill="lightblue" stroke="black" cx="48" cy="-114" rx="18" ry="18"/>
<text text-anchor="middle" x="48" y="-110.3" font-family="Times,serif" font-size="14.00">3</text>
</g>
<!-- 2&#45;&gt;3 -->
<g id="edge6" class="edge"><title>2&#45;&gt;3</title>
<path fill="none" stroke="black" d="M48,-183.597C48,-171.746 48,-155.817 48,-142.292"/>
<polygon fill="black" stroke="black" points="51.5001,-142.084 48,-132.084 44.5001,-142.084 51.5001,-142.084"/>
<text text-anchor="middle" x="51.5" y="-154.3" font-family="Times,serif" font-size="14.00">c</text>
</g>
<!-- 3&#45;&gt;1 -->
<g id="edge7" class="edge"><title>3&#45;&gt;1</title>
<path fill="none" stroke="black" d="M43.0478,-96.4926C39.3864,-84.2881 34.3,-67.3335 29.9352,-52.7842"/>
<polygon fill="black" stroke="black" points="33.2811,-51.7563 27.0551,-43.1837 26.5763,-53.7678 33.2811,-51.7563"/>
<text text-anchor="middle" x="49.5" y="-66.3" font-family="Times,serif" font-size="14.00">b,c,a</text>
</g>
</g>
</svg>
