<?xml version="1.0" encoding="UTF-8" standalone="no"?>
<!DOCTYPE svg PUBLIC "-//W3C//DTD SVG 1.1//EN"
 "http://www.w3.org/Graphics/SVG/1.1/DTD/svg11.dtd">
<!-- Generated by graphviz version 2.36.0 (20140111.2315)
 -->
<!-- Title: %3 Pages: 1 -->
<svg width="159pt" height="316pt"
 viewBox="0.00 0.00 159.49 316.00" xmlns="http://www.w3.org/2000/svg" xmlns:xlink="http://www.w3.org/1999/xlink">
<g id="graph0" class="graph" transform="scale(1 1) rotate(0) translate(4 312)">
<title>%3</title>
<polygon fill="white" stroke="none" points="-4,4 -4,-312 155.486,-312 155.486,4 -4,4"/>
<!-- 0 -->
<g id="node1" class="node"><title>0</title>
<ellipse fill="green" stroke="black" cx="97.486" cy="-290" rx="18" ry="18"/>
<text text-anchor="middle" x="97.486" y="-286.3" font-family="Times,serif" font-size="14.00">0</text>
</g>
<!-- 0&#45;&gt;0 -->
<g id="edge1" class="edge"><title>0&#45;&gt;0</title>
<path fill="none" stroke="black" d="M113.776,-297.668C123.875,-299.517 133.486,-296.961 133.486,-290 133.486,-285.541 129.542,-282.889 124.052,-282.045"/>
<polygon fill="black" stroke="black" points="123.675,-278.554 113.776,-282.332 123.87,-285.552 123.675,-278.554"/>
<text text-anchor="middle" x="136.986" y="-286.3" font-family="Times,serif" font-size="14.00">b</text>
</g>
<!-- 1 -->
<g id="node2" class="node"><title>1</title>
<ellipse fill="lightblue" stroke="black" cx="38.486" cy="-202" rx="18" ry="18"/>
<text text-anchor="middle" x="38.486" y="-198.3" font-family="Times,serif" font-size="14.00">1</text>
</g>
<!-- 0&#45;&gt;1 -->
<g id="edge2" class="edge"><title>0&#45;&gt;1</title>
<path fill="none" stroke="black" d="M87.7434,-274.799C78.6051,-261.479 64.7856,-241.335 54.1078,-225.771"/>
<polygon fill="black" stroke="black" points="56.7864,-223.488 48.2431,-217.222 51.0142,-227.448 56.7864,-223.488"/>
<text text-anchor="middle" x="75.986" y="-242.3" font-family="Times,serif" font-size="14.00">c</text>
</g>
<!-- 3 -->
<g id="node4" class="node"><title>3</title>
<ellipse fill="lightblue" stroke="black" cx="70.486" cy="-114" rx="18" ry="18"/>
<text text-anchor="middle" x="70.486" y="-110.3" font-family="Times,serif" font-size="14.00">3</text>
</g>
<!-- 0&#45;&gt;3 -->
<g id="edge3" class="edge"><title>0&#45;&gt;3</title>
<path fill="none" stroke="black" d="M80.9529,-282.424C58.8168,-272.603 20.4824,-251.787 4.48601,-220 -12.0362,-187.168 22.8217,-151.435 47.8847,-131.268"/>
<polygon fill="black" stroke="black" points="50.1521,-133.939 55.9205,-125.052 45.8692,-128.402 50.1521,-133.939"/>
<text text-anchor="middle" x="7.98601" y="-198.3" font-family="Times,serif" font-size="14.00">a</text>
</g>
<!-- 1&#45;&gt;1 -->
<g id="edge4" class="edge"><title>1&#45;&gt;1</title>
<path fill="none" stroke="black" d="M54.7763,-209.668C64.8752,-211.517 74.486,-208.961 74.486,-202 74.486,-197.541 70.5417,-194.889 65.0516,-194.045"/>
<polygon fill="black" stroke="black" points="64.6747,-190.554 54.7763,-194.332 64.8701,-197.552 64.6747,-190.554"/>
<text text-anchor="middle" x="77.986" y="-198.3" font-family="Times,serif" font-size="14.00">b</text>
</g>
<!-- 1&#45;&gt;3 -->
<g id="edge5" class="edge"><title>1&#45;&gt;3</title>
<path fill="none" stroke="black" d="M44.505,-184.824C49.1087,-172.452 55.5479,-155.146 60.864,-140.859"/>
<polygon fill="black" stroke="black" points="64.2869,-141.696 64.494,-131.103 57.7264,-139.255 64.2869,-141.696"/>
<text text-anchor="middle" x="65.486" y="-154.3" font-family="Times,serif" font-size="14.00">c,a</text>
</g>
<!-- 2 -->
<g id="node3" class="node"><title>2</title>
<ellipse fill="lightblue" stroke="black" cx="126.486" cy="-22" rx="17.5909" ry="18"/>
<ellipse fill="none" stroke="black" cx="126.486" cy="-22" rx="21.5" ry="22"/>
<text text-anchor="middle" x="126.486" y="-18.3" font-family="Times,serif" font-size="14.00">2</text>
</g>
<!-- 2&#45;&gt;0 -->
<g id="edge6" class="edge"><title>2&#45;&gt;0</title>
<path fill="none" stroke="black" d="M127.219,-44.0299C128.169,-85.0152 127.98,-178.205 110.486,-254 109.743,-257.221 108.779,-260.548 107.713,-263.81"/>
<polygon fill="black" stroke="black" points="104.415,-262.641 104.325,-273.235 111.002,-265.009 104.415,-262.641"/>
<text text-anchor="middle" x="137.986" y="-154.3" font-family="Times,serif" font-size="14.00">b,c,a</text>
</g>
<!-- 3&#45;&gt;0 -->
<g id="edge7" class="edge"><title>3&#45;&gt;0</title>
<path fill="none" stroke="black" d="M76.2641,-131.216C80.9321,-145.053 87.2408,-165.575 90.486,-184 95.0738,-210.047 96.7114,-240.212 97.2682,-261.509"/>
<polygon fill="black" stroke="black" points="93.774,-261.839 97.4708,-271.768 100.773,-261.701 93.774,-261.839"/>
<text text-anchor="middle" x="97.986" y="-198.3" font-family="Times,serif" font-size="14.00">b</text>
</g>
<!-- 3&#45;&gt;2 -->
<g id="edge8" class="edge"><title>3&#45;&gt;2</title>
<path fill="none" stroke="black" d="M79.7333,-98.1383C87.8875,-85.0333 99.9688,-65.617 109.807,-49.8049"/>
<polygon fill="black" stroke="black" points="112.983,-51.3261 115.294,-40.9864 107.04,-47.6279 112.983,-51.3261"/>
<text text-anchor="middle" x="104.986" y="-66.3" font-family="Times,serif" font-size="14.00">c</text>
</g>
<!-- 3&#45;&gt;3 -->
<g id="edge9" class="edge"><title>3&#45;&gt;3</title>
<path fill="none" stroke="black" d="M86.7763,-121.668C96.8752,-123.517 106.486,-120.961 106.486,-114 106.486,-109.541 102.542,-106.889 97.0516,-106.045"/>
<polygon fill="black" stroke="black" points="96.6747,-102.554 86.7763,-106.332 96.8701,-109.552 96.6747,-102.554"/>
<text text-anchor="middle" x="109.986" y="-110.3" font-family="Times,serif" font-size="14.00">a</text>
</g>
</g>
</svg>
