<?xml version="1.0" encoding="UTF-8" standalone="no"?>
<!DOCTYPE svg PUBLIC "-//W3C//DTD SVG 1.1//EN"
 "http://www.w3.org/Graphics/SVG/1.1/DTD/svg11.dtd">
<!-- Generated by graphviz version 2.36.0 (20140111.2315)
 -->
<!-- Title: %3 Pages: 1 -->
<svg width="120pt" height="404pt"
 viewBox="0.00 0.00 120.00 404.00" xmlns="http://www.w3.org/2000/svg" xmlns:xlink="http://www.w3.org/1999/xlink">
<g id="graph0" class="graph" transform="scale(1 1) rotate(0) translate(4 400)">
<title>%3</title>
<polygon fill="white" stroke="none" points="-4,4 -4,-400 116,-400 116,4 -4,4"/>
<!-- 0 -->
<g id="node1" class="node"><title>0</title>
<ellipse fill="green" stroke="black" cx="69" cy="-378" rx="18" ry="18"/>
<text text-anchor="middle" x="69" y="-374.3" font-family="Times,serif" font-size="14.00">0</text>
</g>
<!-- 0&#45;&gt;0 -->
<g id="edge1" class="edge"><title>0&#45;&gt;0</title>
<path fill="none" stroke="black" d="M85.2903,-385.668C95.3892,-387.517 105,-384.961 105,-378 105,-373.541 101.056,-370.889 95.5656,-370.045"/>
<polygon fill="black" stroke="black" points="95.1887,-366.554 85.2903,-370.332 95.384,-373.552 95.1887,-366.554"/>
<text text-anchor="middle" x="108.5" y="-374.3" font-family="Times,serif" font-size="14.00">b</text>
</g>
<!-- 4 -->
<g id="node5" class="node"><title>4</title>
<ellipse fill="lightblue" stroke="black" cx="39" cy="-290" rx="18" ry="18"/>
<text text-anchor="middle" x="39" y="-286.3" font-family="Times,serif" font-size="14.00">4</text>
</g>
<!-- 0&#45;&gt;4 -->
<g id="edge2" class="edge"><title>0&#45;&gt;4</title>
<path fill="none" stroke="black" d="M56.6868,-364.848C51.1568,-358.581 45.1724,-350.482 42,-342 39.223,-334.575 38.0193,-326.119 37.6289,-318.256"/>
<polygon fill="black" stroke="black" points="41.1269,-318.019 37.5293,-308.054 34.1272,-318.088 41.1269,-318.019"/>
<text text-anchor="middle" x="45.5" y="-330.3" font-family="Times,serif" font-size="14.00">a</text>
</g>
<!-- 1 -->
<g id="node2" class="node"><title>1</title>
<ellipse fill="lightblue" stroke="black" cx="22" cy="-198" rx="17.5909" ry="18"/>
<ellipse fill="none" stroke="black" cx="22" cy="-198" rx="21.5" ry="22"/>
<text text-anchor="middle" x="22" y="-194.3" font-family="Times,serif" font-size="14.00">1</text>
</g>
<!-- 1&#45;&gt;1 -->
<g id="edge3" class="edge"><title>1&#45;&gt;1</title>
<path fill="none" stroke="black" d="M42.0663,-206.734C52.0736,-207.943 61,-205.031 61,-198 61,-193.496 57.3366,-190.682 52.0725,-189.559"/>
<polygon fill="black" stroke="black" points="52.1646,-186.061 42.0663,-189.266 51.9594,-193.057 52.1646,-186.061"/>
<text text-anchor="middle" x="64.5" y="-194.3" font-family="Times,serif" font-size="14.00">b</text>
</g>
<!-- 3 -->
<g id="node4" class="node"><title>3</title>
<ellipse fill="lightblue" stroke="black" cx="75" cy="-106" rx="18" ry="18"/>
<text text-anchor="middle" x="75" y="-102.3" font-family="Times,serif" font-size="14.00">3</text>
</g>
<!-- 1&#45;&gt;3 -->
<g id="edge4" class="edge"><title>1&#45;&gt;3</title>
<path fill="none" stroke="black" d="M32.7253,-178.787C40.8912,-164.921 52.1992,-145.718 61.0653,-130.663"/>
<polygon fill="black" stroke="black" points="64.1617,-132.302 66.2203,-121.909 58.1299,-128.75 64.1617,-132.302"/>
<text text-anchor="middle" x="56.5" y="-146.3" font-family="Times,serif" font-size="14.00">a</text>
</g>
<!-- 2 -->
<g id="node3" class="node"><title>2</title>
<ellipse fill="lightblue" stroke="black" cx="43" cy="-18" rx="18" ry="18"/>
<text text-anchor="middle" x="43" y="-14.3" font-family="Times,serif" font-size="14.00">2</text>
</g>
<!-- 2&#45;&gt;1 -->
<g id="edge5" class="edge"><title>2&#45;&gt;1</title>
<path fill="none" stroke="black" d="M39.6145,-35.9493C36.9382,-49.8775 33.2844,-70.1503 31,-88 27.665,-114.059 25.306,-143.789 23.8421,-165.611"/>
<polygon fill="black" stroke="black" points="20.3465,-165.432 23.1951,-175.637 27.3319,-165.883 20.3465,-165.432"/>
<text text-anchor="middle" x="39.5" y="-102.3" font-family="Times,serif" font-size="14.00">b,a</text>
</g>
<!-- 3&#45;&gt;0 -->
<g id="edge6" class="edge"><title>3&#45;&gt;0</title>
<path fill="none" stroke="black" d="M75.9455,-124.007C76.672,-137.969 77.6145,-158.258 78,-176 79.3468,-237.981 74.5004,-310.63 71.4007,-349.365"/>
<polygon fill="black" stroke="black" points="67.8739,-349.548 70.5415,-359.801 74.8503,-350.122 67.8739,-349.548"/>
<text text-anchor="middle" x="80.5" y="-242.3" font-family="Times,serif" font-size="14.00">b</text>
</g>
<!-- 3&#45;&gt;2 -->
<g id="edge7" class="edge"><title>3&#45;&gt;2</title>
<path fill="none" stroke="black" d="M68.981,-88.8241C64.3774,-76.4516 57.9381,-59.1462 52.6221,-44.8593"/>
<polygon fill="black" stroke="black" points="55.7596,-43.255 48.992,-35.1034 49.1991,-45.6962 55.7596,-43.255"/>
<text text-anchor="middle" x="64.5" y="-58.3" font-family="Times,serif" font-size="14.00">a</text>
</g>
<!-- 4&#45;&gt;0 -->
<g id="edge8" class="edge"><title>4&#45;&gt;0</title>
<path fill="none" stroke="black" d="M44.6175,-307.103C48.9267,-319.457 54.9622,-336.758 59.9501,-351.057"/>
<polygon fill="black" stroke="black" points="56.7587,-352.535 63.3572,-360.824 63.3681,-350.229 56.7587,-352.535"/>
<text text-anchor="middle" x="59.5" y="-330.3" font-family="Times,serif" font-size="14.00">b</text>
</g>
<!-- 4&#45;&gt;1 -->
<g id="edge9" class="edge"><title>4&#45;&gt;1</title>
<path fill="none" stroke="black" d="M35.8024,-272.072C33.5425,-260.107 30.4499,-243.735 27.7648,-229.52"/>
<polygon fill="black" stroke="black" points="31.1948,-228.821 25.8995,-219.644 24.3164,-230.12 31.1948,-228.821"/>
<text text-anchor="middle" x="36.5" y="-242.3" font-family="Times,serif" font-size="14.00">a</text>
</g>
</g>
</svg>
