<?xml version="1.0" encoding="UTF-8" standalone="no"?>
<!DOCTYPE svg PUBLIC "-//W3C//DTD SVG 1.1//EN"
 "http://www.w3.org/Graphics/SVG/1.1/DTD/svg11.dtd">
<!-- Generated by graphviz version 2.36.0 (20140111.2315)
 -->
<!-- Title: %3 Pages: 1 -->
<svg width="171pt" height="316pt"
 viewBox="0.00 0.00 171.00 316.00" xmlns="http://www.w3.org/2000/svg" xmlns:xlink="http://www.w3.org/1999/xlink">
<g id="graph0" class="graph" transform="scale(1 1) rotate(0) translate(4 312)">
<title>%3</title>
<polygon fill="white" stroke="none" points="-4,4 -4,-312 167,-312 167,4 -4,4"/>
<!-- 0 -->
<g id="node1" class="node"><title>0</title>
<ellipse fill="lightblue" stroke="black" cx="72" cy="-290" rx="18" ry="18"/>
<text text-anchor="middle" x="72" y="-286.3" font-family="Times,serif" font-size="14.00">0</text>
</g>
<!-- 1 -->
<g id="node2" class="node"><title>1</title>
<ellipse fill="lightblue" stroke="black" cx="18" cy="-202" rx="18" ry="18"/>
<text text-anchor="middle" x="18" y="-198.3" font-family="Times,serif" font-size="14.00">1</text>
</g>
<!-- 0&#45;&gt;1 -->
<g id="edge1" class="edge"><title>0&#45;&gt;1</title>
<path fill="none" stroke="black" d="M62.8396,-274.411C54.6164,-261.315 42.3971,-241.855 32.7902,-226.555"/>
<polygon fill="black" stroke="black" points="35.4871,-224.268 27.2053,-217.66 29.5589,-227.99 35.4871,-224.268"/>
<text text-anchor="middle" x="52.5" y="-242.3" font-family="Times,serif" font-size="14.00">b</text>
</g>
<!-- 2 -->
<g id="node3" class="node"><title>2</title>
<ellipse fill="lightblue" stroke="black" cx="107" cy="-22" rx="17.5909" ry="18"/>
<ellipse fill="none" stroke="black" cx="107" cy="-22" rx="21.5" ry="22"/>
<text text-anchor="middle" x="107" y="-18.3" font-family="Times,serif" font-size="14.00">2</text>
</g>
<!-- 0&#45;&gt;2 -->
<g id="edge2" class="edge"><title>0&#45;&gt;2</title>
<path fill="none" stroke="black" d="M77.2638,-272.759C78.9965,-266.899 80.7876,-260.202 82,-254 95.7988,-183.413 102.504,-99.0966 105.302,-54.4157"/>
<polygon fill="black" stroke="black" points="108.81,-54.394 105.917,-44.2019 101.823,-53.9736 108.81,-54.394"/>
<text text-anchor="middle" x="104" y="-154.3" font-family="Times,serif" font-size="14.00">c,a</text>
</g>
<!-- 1&#45;&gt;0 -->
<g id="edge3" class="edge"><title>1&#45;&gt;0</title>
<path fill="none" stroke="black" d="M18.8435,-220.131C20.0212,-230.566 22.7504,-243.807 29,-254 33.8458,-261.903 41.1317,-268.814 48.3359,-274.36"/>
<polygon fill="black" stroke="black" points="46.422,-277.293 56.6042,-280.222 50.4704,-271.583 46.422,-277.293"/>
<text text-anchor="middle" x="32.5" y="-242.3" font-family="Times,serif" font-size="14.00">c</text>
</g>
<!-- 3 -->
<g id="node4" class="node"><title>3</title>
<ellipse fill="green" stroke="black" cx="51" cy="-114" rx="18" ry="18"/>
<text text-anchor="middle" x="51" y="-110.3" font-family="Times,serif" font-size="14.00">3</text>
</g>
<!-- 1&#45;&gt;3 -->
<g id="edge4" class="edge"><title>1&#45;&gt;3</title>
<path fill="none" stroke="black" d="M24.207,-184.824C29.0007,-172.332 35.7242,-154.81 41.2366,-140.444"/>
<polygon fill="black" stroke="black" points="44.5059,-141.694 44.8208,-131.103 37.9705,-139.186 44.5059,-141.694"/>
<text text-anchor="middle" x="45.5" y="-154.3" font-family="Times,serif" font-size="14.00">b,a</text>
</g>
<!-- 2&#45;&gt;0 -->
<g id="edge5" class="edge"><title>2&#45;&gt;0</title>
<path fill="none" stroke="black" d="M113.783,-43.0172C115.515,-49.046 117.132,-55.7282 118,-62 118.974,-69.044 118.081,-70.8893 118,-78 117.105,-156.772 128.866,-181.956 97,-254 94.9554,-258.622 92.2443,-263.247 89.362,-267.55"/>
<polygon fill="black" stroke="black" points="86.3984,-265.675 83.3641,-275.826 92.0664,-269.783 86.3984,-265.675"/>
<text text-anchor="middle" x="122.5" y="-154.3" font-family="Times,serif" font-size="14.00">b</text>
</g>
<!-- 2&#45;&gt;2 -->
<g id="edge6" class="edge"><title>2&#45;&gt;2</title>
<path fill="none" stroke="black" d="M127.066,-30.7341C137.074,-31.9426 146,-29.0312 146,-22 146,-17.4956 142.337,-14.682 137.072,-13.5592"/>
<polygon fill="black" stroke="black" points="137.165,-10.0605 127.066,-13.2659 136.959,-17.0575 137.165,-10.0605"/>
<text text-anchor="middle" x="154" y="-18.3" font-family="Times,serif" font-size="14.00">c,a</text>
</g>
<!-- 3&#45;&gt;0 -->
<g id="edge7" class="edge"><title>3&#45;&gt;0</title>
<path fill="none" stroke="black" d="M54.6785,-131.677C55.8622,-137.458 57.0992,-143.994 58,-150 63.7807,-188.538 67.8199,-233.455 70.0266,-261.563"/>
<polygon fill="black" stroke="black" points="66.558,-262.109 70.8083,-271.814 73.5377,-261.577 66.558,-262.109"/>
<text text-anchor="middle" x="69.5" y="-198.3" font-family="Times,serif" font-size="14.00">b</text>
</g>
<!-- 3&#45;&gt;1 -->
<g id="edge8" class="edge"><title>3&#45;&gt;1</title>
<path fill="none" stroke="black" d="M37.4455,-126.177C30.9054,-132.431 23.6919,-140.811 20,-150 17.0476,-157.349 15.9129,-165.782 15.6866,-173.648"/>
<polygon fill="black" stroke="black" points="12.1906,-173.925 15.8556,-183.866 19.1896,-173.809 12.1906,-173.925"/>
<text text-anchor="middle" x="23.5" y="-154.3" font-family="Times,serif" font-size="14.00">a</text>
</g>
<!-- 3&#45;&gt;2 -->
<g id="edge9" class="edge"><title>3&#45;&gt;2</title>
<path fill="none" stroke="black" d="M60.2473,-98.1383C68.4015,-85.0333 80.4827,-65.617 90.3214,-49.8049"/>
<polygon fill="black" stroke="black" points="93.4971,-51.3261 95.8085,-40.9864 87.5537,-47.6279 93.4971,-51.3261"/>
<text text-anchor="middle" x="85.5" y="-66.3" font-family="Times,serif" font-size="14.00">c</text>
</g>
</g>
</svg>
