<?xml version="1.0" encoding="UTF-8" standalone="no"?>
<!DOCTYPE svg PUBLIC "-//W3C//DTD SVG 1.1//EN"
 "http://www.w3.org/Graphics/SVG/1.1/DTD/svg11.dtd">
<!-- Generated by graphviz version 2.36.0 (20140111.2315)
 -->
<!-- Title: %3 Pages: 1 -->
<svg width="215pt" height="316pt"
 viewBox="0.00 0.00 214.88 316.00" xmlns="http://www.w3.org/2000/svg" xmlns:xlink="http://www.w3.org/1999/xlink">
<g id="graph0" class="graph" transform="scale(1 1) rotate(0) translate(4 312)">
<title>%3</title>
<polygon fill="white" stroke="none" points="-4,4 -4,-312 210.878,-312 210.878,4 -4,4"/>
<!-- 0 -->
<g id="node1" class="node"><title>0</title>
<ellipse fill="lightblue" stroke="black" cx="92.8782" cy="-290" rx="18" ry="18"/>
<text text-anchor="middle" x="92.8782" y="-286.3" font-family="Times,serif" font-size="14.00">0</text>
</g>
<!-- 1 -->
<g id="node2" class="node"><title>1</title>
<ellipse fill="lightblue" stroke="black" cx="92.8782" cy="-202" rx="18" ry="18"/>
<text text-anchor="middle" x="92.8782" y="-198.3" font-family="Times,serif" font-size="14.00">1</text>
</g>
<!-- 0&#45;&gt;1 -->
<g id="edge1" class="edge"><title>0&#45;&gt;1</title>
<path fill="none" stroke="black" d="M92.8782,-271.597C92.8782,-259.746 92.8782,-243.817 92.8782,-230.292"/>
<polygon fill="black" stroke="black" points="96.3783,-230.084 92.8782,-220.084 89.3783,-230.084 96.3783,-230.084"/>
<text text-anchor="middle" x="96.3782" y="-242.3" font-family="Times,serif" font-size="14.00">a</text>
</g>
<!-- 2 -->
<g id="node3" class="node"><title>2</title>
<ellipse fill="lightblue" stroke="black" cx="47.8782" cy="-110" rx="18" ry="18"/>
<text text-anchor="middle" x="47.8782" y="-106.3" font-family="Times,serif" font-size="14.00">2</text>
</g>
<!-- 0&#45;&gt;2 -->
<g id="edge2" class="edge"><title>0&#45;&gt;2</title>
<path fill="none" stroke="black" d="M75.6191,-284.764C58.9224,-279.873 33.8616,-270.325 17.8782,-254 6.32348,-242.198 6.28482,-236.161 2.87824,-220 -3.68425,-188.867 1.64019,-177.362 17.8782,-150 21.4259,-144.022 25.7494,-137.904 29.997,-132.339"/>
<polygon fill="black" stroke="black" points="33.0198,-134.16 36.4871,-124.148 27.5334,-129.812 33.0198,-134.16"/>
<text text-anchor="middle" x="6.37824" y="-198.3" font-family="Times,serif" font-size="14.00">b</text>
</g>
<!-- 1&#45;&gt;2 -->
<g id="edge3" class="edge"><title>1&#45;&gt;2</title>
<path fill="none" stroke="black" d="M81.9955,-187.594C77.2345,-181.297 71.8433,-173.533 67.8782,-166 63.1517,-157.02 59.0691,-146.676 55.8473,-137.398"/>
<polygon fill="black" stroke="black" points="59.1584,-136.263 52.6994,-127.865 52.5114,-138.458 59.1584,-136.263"/>
<text text-anchor="middle" x="71.3782" y="-154.3" font-family="Times,serif" font-size="14.00">b</text>
</g>
<!-- 3 -->
<g id="node4" class="node"><title>3</title>
<ellipse fill="green" stroke="black" cx="131.878" cy="-110" rx="17.5909" ry="18"/>
<ellipse fill="none" stroke="black" cx="131.878" cy="-110" rx="21.5" ry="22"/>
<text text-anchor="middle" x="131.878" y="-106.3" font-family="Times,serif" font-size="14.00">3</text>
</g>
<!-- 1&#45;&gt;3 -->
<g id="edge4" class="edge"><title>1&#45;&gt;3</title>
<path fill="none" stroke="black" d="M99.6715,-185.323C105.078,-172.847 112.793,-155.044 119.316,-139.989"/>
<polygon fill="black" stroke="black" points="122.63,-141.144 123.395,-130.577 116.207,-138.361 122.63,-141.144"/>
<text text-anchor="middle" x="118.378" y="-154.3" font-family="Times,serif" font-size="14.00">a</text>
</g>
<!-- 2&#45;&gt;0 -->
<g id="edge5" class="edge"><title>2&#45;&gt;0</title>
<path fill="none" stroke="black" d="M47.742,-128.348C47.9961,-150.159 49.8626,-188.553 58.8782,-220 63.4391,-235.908 71.5514,-252.583 78.7081,-265.555"/>
<polygon fill="black" stroke="black" points="75.6912,-267.33 83.686,-274.283 81.7716,-263.862 75.6912,-267.33"/>
<text text-anchor="middle" x="62.3782" y="-198.3" font-family="Times,serif" font-size="14.00">b</text>
</g>
<!-- 2&#45;&gt;1 -->
<g id="edge6" class="edge"><title>2&#45;&gt;1</title>
<path fill="none" stroke="black" d="M57.8342,-125.047C62.7239,-132.297 68.4912,-141.404 72.8782,-150 76.9353,-157.95 80.7055,-166.924 83.8539,-175.104"/>
<polygon fill="black" stroke="black" points="80.6041,-176.407 87.3635,-184.566 87.1671,-173.972 80.6041,-176.407"/>
<text text-anchor="middle" x="83.3782" y="-154.3" font-family="Times,serif" font-size="14.00">a</text>
</g>
<!-- 3&#45;&gt;0 -->
<g id="edge7" class="edge"><title>3&#45;&gt;0</title>
<path fill="none" stroke="black" d="M129.609,-131.895C128.49,-142.168 127.119,-154.734 125.878,-166 123.236,-190.003 125.661,-196.555 119.878,-220 116.147,-235.128 109.902,-251.387 104.358,-264.32"/>
<polygon fill="black" stroke="black" points="101.147,-262.927 100.308,-273.489 107.55,-265.756 101.147,-262.927"/>
<text text-anchor="middle" x="128.378" y="-198.3" font-family="Times,serif" font-size="14.00">b</text>
</g>
<!-- 4 -->
<g id="node5" class="node"><title>4</title>
<ellipse fill="lightblue" stroke="black" cx="163.878" cy="-18" rx="18" ry="18"/>
<text text-anchor="middle" x="163.878" y="-14.3" font-family="Times,serif" font-size="14.00">4</text>
</g>
<!-- 3&#45;&gt;4 -->
<g id="edge8" class="edge"><title>3&#45;&gt;4</title>
<path fill="none" stroke="black" d="M138.98,-89.0261C143.603,-76.0244 149.679,-58.9359 154.671,-44.8948"/>
<polygon fill="black" stroke="black" points="158.026,-45.9061 158.079,-35.3114 151.431,-43.561 158.026,-45.9061"/>
<text text-anchor="middle" x="153.378" y="-58.3" font-family="Times,serif" font-size="14.00">a</text>
</g>
<!-- 4&#45;&gt;0 -->
<g id="edge9" class="edge"><title>4&#45;&gt;0</title>
<path fill="none" stroke="black" d="M165.055,-35.9927C167.08,-76.6284 167.569,-181.433 125.878,-254 122.547,-259.798 118.072,-265.392 113.494,-270.344"/>
<polygon fill="black" stroke="black" points="110.922,-267.967 106.366,-277.532 115.892,-272.896 110.922,-267.967"/>
<text text-anchor="middle" x="162.378" y="-154.3" font-family="Times,serif" font-size="14.00">b</text>
</g>
<!-- 4&#45;&gt;4 -->
<g id="edge10" class="edge"><title>4&#45;&gt;4</title>
<path fill="none" stroke="black" d="M180.169,-25.6679C190.267,-27.5169 199.878,-24.9609 199.878,-18 199.878,-13.5406 195.934,-10.8891 190.444,-10.0454"/>
<polygon fill="black" stroke="black" points="190.067,-6.55441 180.169,-10.3321 190.262,-13.5517 190.067,-6.55441"/>
<text text-anchor="middle" x="203.378" y="-14.3" font-family="Times,serif" font-size="14.00">a</text>
</g>
</g>
</svg>
