<?xml version="1.0" encoding="UTF-8" standalone="no"?>
<!DOCTYPE svg PUBLIC "-//W3C//DTD SVG 1.1//EN"
 "http://www.w3.org/Graphics/SVG/1.1/DTD/svg11.dtd">
<!-- Generated by graphviz version 2.36.0 (20140111.2315)
 -->
<!-- Title: %3 Pages: 1 -->
<svg width="162pt" height="316pt"
 viewBox="0.00 0.00 162.00 316.00" xmlns="http://www.w3.org/2000/svg" xmlns:xlink="http://www.w3.org/1999/xlink">
<g id="graph0" class="graph" transform="scale(1 1) rotate(0) translate(4 312)">
<title>%3</title>
<polygon fill="white" stroke="none" points="-4,4 -4,-312 158,-312 158,4 -4,4"/>
<!-- 0 -->
<g id="node1" class="node"><title>0</title>
<ellipse fill="lightblue" stroke="black" cx="118" cy="-290" rx="18" ry="18"/>
<text text-anchor="middle" x="118" y="-286.3" font-family="Times,serif" font-size="14.00">0</text>
</g>
<!-- 1 -->
<g id="node2" class="node"><title>1</title>
<ellipse fill="lightblue" stroke="black" cx="18" cy="-202" rx="18" ry="18"/>
<text text-anchor="middle" x="18" y="-198.3" font-family="Times,serif" font-size="14.00">1</text>
</g>
<!-- 0&#45;&gt;1 -->
<g id="edge1" class="edge"><title>0&#45;&gt;1</title>
<path fill="none" stroke="black" d="M104.304,-277.742C96.0578,-270.925 85.3736,-262.024 76,-254 63.6622,-243.438 50.0153,-231.454 39.0601,-221.757"/>
<polygon fill="black" stroke="black" points="41.077,-218.868 31.2736,-214.85 36.4317,-224.104 41.077,-218.868"/>
<text text-anchor="middle" x="79.5" y="-242.3" font-family="Times,serif" font-size="14.00">a</text>
</g>
<!-- 2 -->
<g id="node3" class="node"><title>2</title>
<ellipse fill="green" stroke="black" cx="97" cy="-110" rx="17.5909" ry="18"/>
<ellipse fill="none" stroke="black" cx="97" cy="-110" rx="21.5" ry="22"/>
<text text-anchor="middle" x="97" y="-106.3" font-family="Times,serif" font-size="14.00">2</text>
</g>
<!-- 0&#45;&gt;2 -->
<g id="edge2" class="edge"><title>0&#45;&gt;2</title>
<path fill="none" stroke="black" d="M115.986,-271.933C112.458,-242.026 105.111,-179.755 100.663,-142.044"/>
<polygon fill="black" stroke="black" points="104.138,-141.628 99.4901,-132.107 97.186,-142.448 104.138,-141.628"/>
<text text-anchor="middle" x="112.5" y="-198.3" font-family="Times,serif" font-size="14.00">b</text>
</g>
<!-- 1&#45;&gt;1 -->
<g id="edge3" class="edge"><title>1&#45;&gt;1</title>
<path fill="none" stroke="black" d="M34.2903,-209.668C44.3892,-211.517 54,-208.961 54,-202 54,-197.541 50.0557,-194.889 44.5656,-194.045"/>
<polygon fill="black" stroke="black" points="44.1887,-190.554 34.2903,-194.332 44.384,-197.552 44.1887,-190.554"/>
<text text-anchor="middle" x="57.5" y="-198.3" font-family="Times,serif" font-size="14.00">b</text>
</g>
<!-- 1&#45;&gt;2 -->
<g id="edge4" class="edge"><title>1&#45;&gt;2</title>
<path fill="none" stroke="black" d="M29.6567,-187.72C41.8286,-173.853 61.1775,-151.81 76.0184,-134.903"/>
<polygon fill="black" stroke="black" points="78.9241,-136.898 82.8906,-127.074 73.6633,-132.28 78.9241,-136.898"/>
<text text-anchor="middle" x="66.5" y="-154.3" font-family="Times,serif" font-size="14.00">a</text>
</g>
<!-- 2&#45;&gt;0 -->
<g id="edge5" class="edge"><title>2&#45;&gt;0</title>
<path fill="none" stroke="black" d="M107.62,-129.525C110.802,-135.838 113.979,-143.058 116,-150 123.016,-174.106 129.821,-220.132 126,-254 125.69,-256.75 125.246,-259.6 124.725,-262.431"/>
<polygon fill="black" stroke="black" points="121.263,-261.886 122.598,-272.397 128.109,-263.348 121.263,-261.886"/>
<text text-anchor="middle" x="129.5" y="-198.3" font-family="Times,serif" font-size="14.00">b</text>
</g>
<!-- 3 -->
<g id="node4" class="node"><title>3</title>
<ellipse fill="lightblue" stroke="black" cx="97" cy="-18" rx="18" ry="18"/>
<text text-anchor="middle" x="97" y="-14.3" font-family="Times,serif" font-size="14.00">3</text>
</g>
<!-- 2&#45;&gt;3 -->
<g id="edge6" class="edge"><title>2&#45;&gt;3</title>
<path fill="none" stroke="black" d="M97,-87.6713C97,-75.2844 97,-59.5523 97,-46.2721"/>
<polygon fill="black" stroke="black" points="100.5,-46.258 97,-36.2581 93.5001,-46.2581 100.5,-46.258"/>
<text text-anchor="middle" x="100.5" y="-58.3" font-family="Times,serif" font-size="14.00">a</text>
</g>
<!-- 3&#45;&gt;0 -->
<g id="edge7" class="edge"><title>3&#45;&gt;0</title>
<path fill="none" stroke="black" d="M105.195,-34.134C112.197,-47.7996 121.921,-68.6707 127,-88 145.807,-159.574 160.493,-182.89 140,-254 138.713,-258.465 136.67,-262.911 134.335,-267.061"/>
<polygon fill="black" stroke="black" points="131.34,-265.248 128.939,-275.568 137.251,-268.998 131.34,-265.248"/>
<text text-anchor="middle" x="150.5" y="-154.3" font-family="Times,serif" font-size="14.00">b</text>
</g>
<!-- 3&#45;&gt;1 -->
<g id="edge8" class="edge"><title>3&#45;&gt;1</title>
<path fill="none" stroke="black" d="M88.0104,-33.7311C79.8381,-47.4721 67.7542,-68.6948 59,-88 45.8456,-117.009 33.803,-151.593 26.2223,-174.794"/>
<polygon fill="black" stroke="black" points="22.8009,-174 23.0652,-184.592 29.4635,-176.147 22.8009,-174"/>
<text text-anchor="middle" x="62.5" y="-106.3" font-family="Times,serif" font-size="14.00">a</text>
</g>
</g>
</svg>
