<?xml version="1.0" encoding="UTF-8" standalone="no"?>
<!DOCTYPE svg PUBLIC "-//W3C//DTD SVG 1.1//EN"
 "http://www.w3.org/Graphics/SVG/1.1/DTD/svg11.dtd">
<!-- Generated by graphviz version 2.36.0 (20140111.2315)
 -->
<!-- Title: %3 Pages: 1 -->
<svg width="131pt" height="316pt"
 viewBox="0.00 0.00 131.00 316.00" xmlns="http://www.w3.org/2000/svg" xmlns:xlink="http://www.w3.org/1999/xlink">
<g id="graph0" class="graph" transform="scale(1 1) rotate(0) translate(4 312)">
<title>%3</title>
<polygon fill="white" stroke="none" points="-4,4 -4,-312 127,-312 127,4 -4,4"/>
<!-- 0 -->
<g id="node1" class="node"><title>0</title>
<ellipse fill="green" stroke="black" cx="21" cy="-198" rx="17.5909" ry="18"/>
<ellipse fill="none" stroke="black" cx="21" cy="-198" rx="21.5" ry="22"/>
<text text-anchor="middle" x="21" y="-194.3" font-family="Times,serif" font-size="14.00">0</text>
</g>
<!-- 3 -->
<g id="node4" class="node"><title>3</title>
<ellipse fill="lightblue" stroke="black" cx="21" cy="-106" rx="18" ry="18"/>
<text text-anchor="middle" x="21" y="-102.3" font-family="Times,serif" font-size="14.00">3</text>
</g>
<!-- 0&#45;&gt;3 -->
<g id="edge1" class="edge"><title>0&#45;&gt;3</title>
<path fill="none" stroke="black" d="M21,-175.671C21,-163.284 21,-147.552 21,-134.272"/>
<polygon fill="black" stroke="black" points="24.5001,-134.258 21,-124.258 17.5001,-134.258 24.5001,-134.258"/>
<text text-anchor="middle" x="29.5" y="-146.3" font-family="Times,serif" font-size="14.00">b,a</text>
</g>
<!-- 1 -->
<g id="node2" class="node"><title>1</title>
<ellipse fill="lightblue" stroke="black" cx="21" cy="-18" rx="18" ry="18"/>
<text text-anchor="middle" x="21" y="-14.3" font-family="Times,serif" font-size="14.00">1</text>
</g>
<!-- 1&#45;&gt;1 -->
<g id="edge2" class="edge"><title>1&#45;&gt;1</title>
<path fill="none" stroke="black" d="M37.2903,-25.6679C47.3892,-27.5169 57,-24.9609 57,-18 57,-13.5406 53.0557,-10.8891 47.5656,-10.0454"/>
<polygon fill="black" stroke="black" points="47.1887,-6.55441 37.2903,-10.3321 47.384,-13.5517 47.1887,-6.55441"/>
<text text-anchor="middle" x="60.5" y="-14.3" font-family="Times,serif" font-size="14.00">a</text>
</g>
<!-- 1&#45;&gt;3 -->
<g id="edge3" class="edge"><title>1&#45;&gt;3</title>
<path fill="none" stroke="black" d="M21,-36.084C21,-47.8607 21,-63.7741 21,-77.342"/>
<polygon fill="black" stroke="black" points="17.5001,-77.5966 21,-87.5966 24.5001,-77.5967 17.5001,-77.5966"/>
<text text-anchor="middle" x="24.5" y="-58.3" font-family="Times,serif" font-size="14.00">b</text>
</g>
<!-- 2 -->
<g id="node3" class="node"><title>2</title>
<ellipse fill="lightblue" stroke="black" cx="51" cy="-290" rx="18" ry="18"/>
<text text-anchor="middle" x="51" y="-286.3" font-family="Times,serif" font-size="14.00">2</text>
</g>
<!-- 2&#45;&gt;0 -->
<g id="edge4" class="edge"><title>2&#45;&gt;0</title>
<path fill="none" stroke="black" d="M45.336,-272.635C43.3182,-266.764 41.0407,-260.091 39,-254 36.2543,-245.805 33.3214,-236.907 30.6371,-228.704"/>
<polygon fill="black" stroke="black" points="33.9448,-227.558 27.5155,-219.137 27.2901,-229.729 33.9448,-227.558"/>
<text text-anchor="middle" x="42.5" y="-242.3" font-family="Times,serif" font-size="14.00">b</text>
</g>
<!-- 4 -->
<g id="node5" class="node"><title>4</title>
<ellipse fill="lightblue" stroke="black" cx="80" cy="-198" rx="18" ry="18"/>
<text text-anchor="middle" x="80" y="-194.3" font-family="Times,serif" font-size="14.00">4</text>
</g>
<!-- 2&#45;&gt;4 -->
<g id="edge5" class="edge"><title>2&#45;&gt;4</title>
<path fill="none" stroke="black" d="M49.7943,-271.573C49.6424,-261.514 50.3924,-248.764 54,-238 56.021,-231.97 59.2314,-225.986 62.7165,-220.583"/>
<polygon fill="black" stroke="black" points="65.7738,-222.321 68.6797,-212.133 60.0544,-218.285 65.7738,-222.321"/>
<text text-anchor="middle" x="57.5" y="-242.3" font-family="Times,serif" font-size="14.00">a</text>
</g>
<!-- 3&#45;&gt;1 -->
<g id="edge6" class="edge"><title>3&#45;&gt;1</title>
<path fill="none" stroke="black" d="M14.8003,-88.8629C12.8558,-83.0135 10.966,-76.2957 10,-70 8.92147,-62.9712 8.92147,-61.0288 10,-54 10.4528,-51.0489 11.1086,-48.005 11.8779,-45.0013"/>
<polygon fill="black" stroke="black" points="15.3155,-45.7194 14.8003,-35.1371 8.60382,-43.7309 15.3155,-45.7194"/>
<text text-anchor="middle" x="13.5" y="-58.3" font-family="Times,serif" font-size="14.00">b</text>
</g>
<!-- 3&#45;&gt;3 -->
<g id="edge7" class="edge"><title>3&#45;&gt;3</title>
<path fill="none" stroke="black" d="M37.2903,-113.668C47.3892,-115.517 57,-112.961 57,-106 57,-101.541 53.0557,-98.8891 47.5656,-98.0454"/>
<polygon fill="black" stroke="black" points="47.1887,-94.5544 37.2903,-98.3321 47.384,-101.552 47.1887,-94.5544"/>
<text text-anchor="middle" x="60.5" y="-102.3" font-family="Times,serif" font-size="14.00">a</text>
</g>
<!-- 4&#45;&gt;2 -->
<g id="edge8" class="edge"><title>4&#45;&gt;2</title>
<path fill="none" stroke="black" d="M74.7147,-215.403C70.4727,-228.567 64.4342,-247.308 59.5123,-262.582"/>
<polygon fill="black" stroke="black" points="56.0547,-261.901 56.319,-272.493 62.7174,-264.048 56.0547,-261.901"/>
<text text-anchor="middle" x="70.5" y="-242.3" font-family="Times,serif" font-size="14.00">a</text>
</g>
<!-- 4&#45;&gt;4 -->
<g id="edge9" class="edge"><title>4&#45;&gt;4</title>
<path fill="none" stroke="black" d="M96.2903,-206.365C106.389,-208.382 116,-205.594 116,-198 116,-193.135 112.056,-190.243 106.566,-189.322"/>
<polygon fill="black" stroke="black" points="106.179,-185.832 96.2903,-189.635 106.392,-192.829 106.179,-185.832"/>
<text text-anchor="middle" x="119.5" y="-194.3" font-family="Times,serif" font-size="14.00">b</text>
</g>
</g>
</svg>
