<?xml version="1.0" encoding="UTF-8" standalone="no"?>
<!DOCTYPE svg PUBLIC "-//W3C//DTD SVG 1.1//EN"
 "http://www.w3.org/Graphics/SVG/1.1/DTD/svg11.dtd">
<!-- Generated by graphviz version 2.36.0 (20140111.2315)
 -->
<!-- Title: %3 Pages: 1 -->
<svg width="145pt" height="316pt"
 viewBox="0.00 0.00 145.00 316.00" xmlns="http://www.w3.org/2000/svg" xmlns:xlink="http://www.w3.org/1999/xlink">
<g id="graph0" class="graph" transform="scale(1 1) rotate(0) translate(4 312)">
<title>%3</title>
<polygon fill="white" stroke="none" points="-4,4 -4,-312 141,-312 141,4 -4,4"/>
<!-- 0 -->
<g id="node1" class="node"><title>0</title>
<ellipse fill="green" stroke="black" cx="115" cy="-290" rx="18" ry="18"/>
<text text-anchor="middle" x="115" y="-286.3" font-family="Times,serif" font-size="14.00">0</text>
</g>
<!-- 2 -->
<g id="node3" class="node"><title>2</title>
<ellipse fill="lightblue" stroke="black" cx="86" cy="-202" rx="18" ry="18"/>
<text text-anchor="middle" x="86" y="-198.3" font-family="Times,serif" font-size="14.00">2</text>
</g>
<!-- 0&#45;&gt;2 -->
<g id="edge1" class="edge"><title>0&#45;&gt;2</title>
<path fill="none" stroke="black" d="M109.545,-272.824C105.4,-260.53 99.6115,-243.365 94.8116,-229.131"/>
<polygon fill="black" stroke="black" points="98.0407,-227.753 91.5288,-219.396 91.4077,-229.99 98.0407,-227.753"/>
<text text-anchor="middle" x="106.5" y="-242.3" font-family="Times,serif" font-size="14.00">a</text>
</g>
<!-- 3 -->
<g id="node4" class="node"><title>3</title>
<ellipse fill="lightblue" stroke="black" cx="90" cy="-22" rx="17.5909" ry="18"/>
<ellipse fill="none" stroke="black" cx="90" cy="-22" rx="21.5" ry="22"/>
<text text-anchor="middle" x="90" y="-18.3" font-family="Times,serif" font-size="14.00">3</text>
</g>
<!-- 0&#45;&gt;3 -->
<g id="edge2" class="edge"><title>0&#45;&gt;3</title>
<path fill="none" stroke="black" d="M115.601,-272.001C116.604,-233.966 117.198,-139.271 102,-62 101.404,-58.9698 100.663,-55.8407 99.8437,-52.7343"/>
<polygon fill="black" stroke="black" points="103.18,-51.6724 97.0413,-43.0373 96.4553,-53.6159 103.18,-51.6724"/>
<text text-anchor="middle" x="116.5" y="-154.3" font-family="Times,serif" font-size="14.00">b</text>
</g>
<!-- 1 -->
<g id="node2" class="node"><title>1</title>
<ellipse fill="lightblue" stroke="black" cx="18" cy="-114" rx="18" ry="18"/>
<text text-anchor="middle" x="18" y="-110.3" font-family="Times,serif" font-size="14.00">1</text>
</g>
<!-- 1&#45;&gt;1 -->
<g id="edge3" class="edge"><title>1&#45;&gt;1</title>
<path fill="none" stroke="black" d="M34.2903,-121.668C44.3892,-123.517 54,-120.961 54,-114 54,-109.541 50.0557,-106.889 44.5656,-106.045"/>
<polygon fill="black" stroke="black" points="44.1887,-102.554 34.2903,-106.332 44.384,-109.552 44.1887,-102.554"/>
<text text-anchor="middle" x="57.5" y="-110.3" font-family="Times,serif" font-size="14.00">b</text>
</g>
<!-- 1&#45;&gt;3 -->
<g id="edge4" class="edge"><title>1&#45;&gt;3</title>
<path fill="none" stroke="black" d="M21.6358,-96.1772C24.5245,-85.6056 29.3728,-72.106 37,-62 43.8841,-52.8786 53.4806,-44.9309 62.6186,-38.6323"/>
<polygon fill="black" stroke="black" points="64.6462,-41.489 71.1358,-33.1143 60.8401,-35.6142 64.6462,-41.489"/>
<text text-anchor="middle" x="40.5" y="-66.3" font-family="Times,serif" font-size="14.00">a</text>
</g>
<!-- 2&#45;&gt;1 -->
<g id="edge5" class="edge"><title>2&#45;&gt;1</title>
<path fill="none" stroke="black" d="M75.0746,-187.183C64.3045,-173.562 47.6855,-152.543 35.153,-136.694"/>
<polygon fill="black" stroke="black" points="37.6219,-134.173 28.6741,-128.5 32.131,-138.515 37.6219,-134.173"/>
<text text-anchor="middle" x="62.5" y="-154.3" font-family="Times,serif" font-size="14.00">a</text>
</g>
<!-- 2&#45;&gt;3 -->
<g id="edge6" class="edge"><title>2&#45;&gt;3</title>
<path fill="none" stroke="black" d="M86.3835,-183.933C87.0527,-154.154 88.443,-92.2862 89.2915,-54.5293"/>
<polygon fill="black" stroke="black" points="92.8,-54.1831 89.5257,-44.1069 85.8018,-54.0257 92.8,-54.1831"/>
<text text-anchor="middle" x="91.5" y="-110.3" font-family="Times,serif" font-size="14.00">b</text>
</g>
<!-- 3&#45;&gt;1 -->
<g id="edge7" class="edge"><title>3&#45;&gt;1</title>
<path fill="none" stroke="black" d="M76.7561,-39.5549C65.1574,-54.0533 48.2172,-75.2285 35.5031,-91.1211"/>
<polygon fill="black" stroke="black" points="32.4492,-89.3358 28.9353,-99.3309 37.9153,-93.7087 32.4492,-89.3358"/>
<text text-anchor="middle" x="62.5" y="-66.3" font-family="Times,serif" font-size="14.00">b</text>
</g>
<!-- 3&#45;&gt;3 -->
<g id="edge8" class="edge"><title>3&#45;&gt;3</title>
<path fill="none" stroke="black" d="M110.066,-30.7341C120.074,-31.9426 129,-29.0312 129,-22 129,-17.4956 125.337,-14.682 120.072,-13.5592"/>
<polygon fill="black" stroke="black" points="120.165,-10.0605 110.066,-13.2659 119.959,-17.0575 120.165,-10.0605"/>
<text text-anchor="middle" x="132.5" y="-18.3" font-family="Times,serif" font-size="14.00">a</text>
</g>
</g>
</svg>
