<?xml version="1.0" encoding="UTF-8" standalone="no"?>
<!DOCTYPE svg PUBLIC "-//W3C//DTD SVG 1.1//EN"
 "http://www.w3.org/Graphics/SVG/1.1/DTD/svg11.dtd">
<!-- Generated by graphviz version 2.36.0 (20140111.2315)
 -->
<!-- Title: %3 Pages: 1 -->
<svg width="77pt" height="316pt"
 viewBox="0.00 0.00 77.00 316.00" xmlns="http://www.w3.org/2000/svg" xmlns:xlink="http://www.w3.org/1999/xlink">
<g id="graph0" class="graph" transform="scale(1 1) rotate(0) translate(4 312)">
<title>%3</title>
<polygon fill="white" stroke="none" points="-4,4 -4,-312 73,-312 73,4 -4,4"/>
<!-- 0 -->
<g id="node1" class="node"><title>0</title>
<ellipse fill="lightblue" stroke="black" cx="22" cy="-290" rx="18" ry="18"/>
<text text-anchor="middle" x="22" y="-286.3" font-family="Times,serif" font-size="14.00">0</text>
</g>
<!-- 0&#45;&gt;0 -->
<g id="edge1" class="edge"><title>0&#45;&gt;0</title>
<path fill="none" stroke="black" d="M38.2903,-297.668C48.3892,-299.517 58,-296.961 58,-290 58,-285.541 54.0557,-282.889 48.5656,-282.045"/>
<polygon fill="black" stroke="black" points="48.1887,-278.554 38.2903,-282.332 48.384,-285.552 48.1887,-278.554"/>
<text text-anchor="middle" x="61.5" y="-286.3" font-family="Times,serif" font-size="14.00">b</text>
</g>
<!-- 2 -->
<g id="node3" class="node"><title>2</title>
<ellipse fill="lightblue" stroke="black" cx="22" cy="-198" rx="17.5909" ry="18"/>
<ellipse fill="none" stroke="black" cx="22" cy="-198" rx="21.5" ry="22"/>
<text text-anchor="middle" x="22" y="-194.3" font-family="Times,serif" font-size="14.00">2</text>
</g>
<!-- 0&#45;&gt;2 -->
<g id="edge2" class="edge"><title>0&#45;&gt;2</title>
<path fill="none" stroke="black" d="M22,-271.647C22,-259.924 22,-244.114 22,-230.237"/>
<polygon fill="black" stroke="black" points="25.5001,-230.101 22,-220.101 18.5001,-230.101 25.5001,-230.101"/>
<text text-anchor="middle" x="25.5" y="-242.3" font-family="Times,serif" font-size="14.00">a</text>
</g>
<!-- 1 -->
<g id="node2" class="node"><title>1</title>
<ellipse fill="green" stroke="black" cx="22" cy="-18" rx="18" ry="18"/>
<text text-anchor="middle" x="22" y="-14.3" font-family="Times,serif" font-size="14.00">1</text>
</g>
<!-- 1&#45;&gt;2 -->
<g id="edge3" class="edge"><title>1&#45;&gt;2</title>
<path fill="none" stroke="black" d="M17.661,-35.5886C14.2639,-49.4771 9.81987,-69.8785 8,-88 5.32949,-114.592 9.77316,-144.718 14.3451,-166.549"/>
<polygon fill="black" stroke="black" points="10.9813,-167.546 16.5692,-176.547 17.8143,-166.026 10.9813,-167.546"/>
<text text-anchor="middle" x="11.5" y="-102.3" font-family="Times,serif" font-size="14.00">b</text>
</g>
<!-- 3 -->
<g id="node4" class="node"><title>3</title>
<ellipse fill="lightblue" stroke="black" cx="42" cy="-106" rx="18" ry="18"/>
<text text-anchor="middle" x="42" y="-102.3" font-family="Times,serif" font-size="14.00">3</text>
</g>
<!-- 1&#45;&gt;3 -->
<g id="edge4" class="edge"><title>1&#45;&gt;3</title>
<path fill="none" stroke="black" d="M25.8751,-35.6629C28.6686,-47.6751 32.4993,-64.147 35.726,-78.022"/>
<polygon fill="black" stroke="black" points="32.3744,-79.0619 38.0486,-88.0092 39.1925,-77.4763 32.3744,-79.0619"/>
<text text-anchor="middle" x="36.5" y="-58.3" font-family="Times,serif" font-size="14.00">a</text>
</g>
<!-- 2&#45;&gt;2 -->
<g id="edge5" class="edge"><title>2&#45;&gt;2</title>
<path fill="none" stroke="black" d="M42.0663,-206.734C52.0736,-207.943 61,-205.031 61,-198 61,-193.496 57.3366,-190.682 52.0725,-189.559"/>
<polygon fill="black" stroke="black" points="52.1646,-186.061 42.0663,-189.266 51.9594,-193.057 52.1646,-186.061"/>
<text text-anchor="middle" x="64.5" y="-194.3" font-family="Times,serif" font-size="14.00">a</text>
</g>
<!-- 2&#45;&gt;3 -->
<g id="edge6" class="edge"><title>2&#45;&gt;3</title>
<path fill="none" stroke="black" d="M21.21,-175.807C21.3136,-165.463 22.172,-152.924 25,-142 25.9534,-138.317 27.3099,-134.561 28.8461,-130.942"/>
<polygon fill="black" stroke="black" points="32.0467,-132.362 33.1785,-121.828 25.7245,-129.357 32.0467,-132.362"/>
<text text-anchor="middle" x="28.5" y="-146.3" font-family="Times,serif" font-size="14.00">b</text>
</g>
<!-- 3&#45;&gt;1 -->
<g id="edge7" class="edge"><title>3&#45;&gt;1</title>
<path fill="none" stroke="black" d="M33.1938,-90.1685C30.035,-84.1196 26.8094,-76.9282 25,-70 23.0278,-62.4482 22.0569,-54.0618 21.6321,-46.3071"/>
<polygon fill="black" stroke="black" points="25.1294,-46.1588 21.3485,-36.2616 18.1322,-46.3565 25.1294,-46.1588"/>
<text text-anchor="middle" x="28.5" y="-58.3" font-family="Times,serif" font-size="14.00">b</text>
</g>
<!-- 3&#45;&gt;2 -->
<g id="edge8" class="edge"><title>3&#45;&gt;2</title>
<path fill="none" stroke="black" d="M38.2558,-123.849C35.6094,-135.758 31.9861,-152.062 28.8319,-166.256"/>
<polygon fill="black" stroke="black" points="25.3914,-165.605 26.6387,-176.126 32.2247,-167.123 25.3914,-165.605"/>
<text text-anchor="middle" x="36.5" y="-146.3" font-family="Times,serif" font-size="14.00">a</text>
</g>
</g>
</svg>
