<?xml version="1.0" encoding="UTF-8" standalone="no"?>
<!DOCTYPE svg PUBLIC "-//W3C//DTD SVG 1.1//EN"
 "http://www.w3.org/Graphics/SVG/1.1/DTD/svg11.dtd">
<!-- Generated by graphviz version 2.36.0 (20140111.2315)
 -->
<!-- Title: %3 Pages: 1 -->
<svg width="104pt" height="404pt"
 viewBox="0.00 0.00 104.00 404.00" xmlns="http://www.w3.org/2000/svg" xmlns:xlink="http://www.w3.org/1999/xlink">
<g id="graph0" class="graph" transform="scale(1 1) rotate(0) translate(4 400)">
<title>%3</title>
<polygon fill="white" stroke="none" points="-4,4 -4,-400 100,-400 100,4 -4,4"/>
<!-- 0 -->
<g id="node1" class="node"><title>0</title>
<ellipse fill="green" stroke="black" cx="21" cy="-286" rx="17.5909" ry="18"/>
<ellipse fill="none" stroke="black" cx="21" cy="-286" rx="21.5" ry="22"/>
<text text-anchor="middle" x="21" y="-282.3" font-family="Times,serif" font-size="14.00">0</text>
</g>
<!-- 0&#45;&gt;0 -->
<g id="edge1" class="edge"><title>0&#45;&gt;0</title>
<path fill="none" stroke="black" d="M41.0663,-294.734C51.0736,-295.943 60,-293.031 60,-286 60,-281.496 56.3366,-278.682 51.0725,-277.559"/>
<polygon fill="black" stroke="black" points="51.1646,-274.061 41.0663,-277.266 50.9594,-281.057 51.1646,-274.061"/>
<text text-anchor="middle" x="63.5" y="-282.3" font-family="Times,serif" font-size="14.00">b</text>
</g>
<!-- 2 -->
<g id="node3" class="node"><title>2</title>
<ellipse fill="lightblue" stroke="black" cx="78" cy="-194" rx="18" ry="18"/>
<text text-anchor="middle" x="78" y="-190.3" font-family="Times,serif" font-size="14.00">2</text>
</g>
<!-- 0&#45;&gt;2 -->
<g id="edge2" class="edge"><title>0&#45;&gt;2</title>
<path fill="none" stroke="black" d="M32.2614,-267.219C41.0741,-253.304 53.4093,-233.827 63.0492,-218.607"/>
<polygon fill="black" stroke="black" points="66.2538,-220.088 68.6475,-209.767 60.34,-216.343 66.2538,-220.088"/>
<text text-anchor="middle" x="57.5" y="-234.3" font-family="Times,serif" font-size="14.00">a</text>
</g>
<!-- 1 -->
<g id="node2" class="node"><title>1</title>
<ellipse fill="lightblue" stroke="black" cx="78" cy="-378" rx="18" ry="18"/>
<text text-anchor="middle" x="78" y="-374.3" font-family="Times,serif" font-size="14.00">1</text>
</g>
<!-- 1&#45;&gt;0 -->
<g id="edge3" class="edge"><title>1&#45;&gt;0</title>
<path fill="none" stroke="black" d="M68.5876,-362.138C60.2878,-349.033 47.9908,-329.617 37.9764,-313.805"/>
<polygon fill="black" stroke="black" points="40.6988,-311.562 32.3914,-304.986 34.7851,-315.307 40.6988,-311.562"/>
<text text-anchor="middle" x="57.5" y="-330.3" font-family="Times,serif" font-size="14.00">b</text>
</g>
<!-- 1&#45;&gt;2 -->
<g id="edge4" class="edge"><title>1&#45;&gt;2</title>
<path fill="none" stroke="black" d="M78,-359.878C78,-328.307 78,-260.673 78,-222.568"/>
<polygon fill="black" stroke="black" points="81.5001,-222.209 78,-212.209 74.5001,-222.209 81.5001,-222.209"/>
<text text-anchor="middle" x="81.5" y="-282.3" font-family="Times,serif" font-size="14.00">a</text>
</g>
<!-- 4 -->
<g id="node5" class="node"><title>4</title>
<ellipse fill="lightblue" stroke="black" cx="40" cy="-106" rx="18" ry="18"/>
<text text-anchor="middle" x="40" y="-102.3" font-family="Times,serif" font-size="14.00">4</text>
</g>
<!-- 2&#45;&gt;4 -->
<g id="edge5" class="edge"><title>2&#45;&gt;4</title>
<path fill="none" stroke="black" d="M71.0302,-177.226C65.4594,-164.619 57.5445,-146.706 51.1029,-132.128"/>
<polygon fill="black" stroke="black" points="54.1687,-130.406 46.9256,-122.674 47.7659,-133.235 54.1687,-130.406"/>
<text text-anchor="middle" x="70.5" y="-146.3" font-family="Times,serif" font-size="14.00">b,a</text>
</g>
<!-- 3 -->
<g id="node4" class="node"><title>3</title>
<ellipse fill="lightblue" stroke="black" cx="72" cy="-18" rx="18" ry="18"/>
<text text-anchor="middle" x="72" y="-14.3" font-family="Times,serif" font-size="14.00">3</text>
</g>
<!-- 3&#45;&gt;2 -->
<g id="edge6" class="edge"><title>3&#45;&gt;2</title>
<path fill="none" stroke="black" d="M73.9336,-36.1055C76.6823,-62.3219 81.2554,-114.025 80,-158 79.9271,-160.555 79.8242,-163.214 79.7032,-165.874"/>
<polygon fill="black" stroke="black" points="76.2051,-165.748 79.1718,-175.919 83.1953,-166.117 76.2051,-165.748"/>
<text text-anchor="middle" x="82.5" y="-102.3" font-family="Times,serif" font-size="14.00">a</text>
</g>
<!-- 3&#45;&gt;4 -->
<g id="edge7" class="edge"><title>3&#45;&gt;4</title>
<path fill="none" stroke="black" d="M66.008,-35.1034C61.4115,-47.4565 54.9737,-64.7582 49.6533,-79.0569"/>
<polygon fill="black" stroke="black" points="46.2261,-78.2312 46.019,-88.8241 52.7866,-80.6724 46.2261,-78.2312"/>
<text text-anchor="middle" x="61.5" y="-58.3" font-family="Times,serif" font-size="14.00">b</text>
</g>
<!-- 4&#45;&gt;3 -->
<g id="edge8" class="edge"><title>4&#45;&gt;3</title>
<path fill="none" stroke="black" d="M33.0544,-89.2042C29.5359,-78.7995 26.9633,-65.0996 32,-54 35.5389,-46.201 41.7694,-39.4566 48.2747,-34.0272"/>
<polygon fill="black" stroke="black" points="50.5802,-36.6732 56.4798,-27.8729 46.3799,-31.0733 50.5802,-36.6732"/>
<text text-anchor="middle" x="40.5" y="-58.3" font-family="Times,serif" font-size="14.00">b,a</text>
</g>
</g>
</svg>
