<?xml version="1.0" encoding="UTF-8" standalone="no"?>
<!DOCTYPE svg PUBLIC "-//W3C//DTD SVG 1.1//EN"
 "http://www.w3.org/Graphics/SVG/1.1/DTD/svg11.dtd">
<!-- Generated by graphviz version 2.36.0 (20140111.2315)
 -->
<!-- Title: %3 Pages: 1 -->
<svg width="136pt" height="228pt"
 viewBox="0.00 0.00 136.00 228.00" xmlns="http://www.w3.org/2000/svg" xmlns:xlink="http://www.w3.org/1999/xlink">
<g id="graph0" class="graph" transform="scale(1 1) rotate(0) translate(4 224)">
<title>%3</title>
<polygon fill="white" stroke="none" points="-4,4 -4,-224 132,-224 132,4 -4,4"/>
<!-- 0 -->
<g id="node1" class="node"><title>0</title>
<ellipse fill="lightblue" stroke="black" cx="21" cy="-22" rx="17.5909" ry="18"/>
<ellipse fill="none" stroke="black" cx="21" cy="-22" rx="21.5" ry="22"/>
<text text-anchor="middle" x="21" y="-18.3" font-family="Times,serif" font-size="14.00">0</text>
</g>
<!-- 0&#45;&gt;0 -->
<g id="edge1" class="edge"><title>0&#45;&gt;0</title>
<path fill="none" stroke="black" d="M41.0663,-30.7341C51.0736,-31.9426 60,-29.0312 60,-22 60,-17.4956 56.3366,-14.682 51.0725,-13.5592"/>
<polygon fill="black" stroke="black" points="51.1646,-10.0605 41.0663,-13.2659 50.9594,-17.0575 51.1646,-10.0605"/>
<text text-anchor="middle" x="68.5" y="-18.3" font-family="Times,serif" font-size="14.00">b,a</text>
</g>
<!-- 1 -->
<g id="node2" class="node"><title>1</title>
<ellipse fill="green" stroke="black" cx="75" cy="-202" rx="18" ry="18"/>
<text text-anchor="middle" x="75" y="-198.3" font-family="Times,serif" font-size="14.00">1</text>
</g>
<!-- 1&#45;&gt;1 -->
<g id="edge2" class="edge"><title>1&#45;&gt;1</title>
<path fill="none" stroke="black" d="M91.2903,-209.668C101.389,-211.517 111,-208.961 111,-202 111,-197.541 107.056,-194.889 101.566,-194.045"/>
<polygon fill="black" stroke="black" points="101.189,-190.554 91.2903,-194.332 101.384,-197.552 101.189,-190.554"/>
<text text-anchor="middle" x="119.5" y="-198.3" font-family="Times,serif" font-size="14.00">b,a</text>
</g>
<!-- 2 -->
<g id="node3" class="node"><title>2</title>
<ellipse fill="lightblue" stroke="black" cx="45" cy="-114" rx="18" ry="18"/>
<text text-anchor="middle" x="45" y="-110.3" font-family="Times,serif" font-size="14.00">2</text>
</g>
<!-- 2&#45;&gt;0 -->
<g id="edge3" class="edge"><title>2&#45;&gt;0</title>
<path fill="none" stroke="black" d="M40.598,-96.4926C37.3966,-84.4871 32.9694,-67.8852 29.1328,-53.4978"/>
<polygon fill="black" stroke="black" points="32.428,-52.2709 26.4694,-43.5104 25.6643,-54.0746 32.428,-52.2709"/>
<text text-anchor="middle" x="38.5" y="-66.3" font-family="Times,serif" font-size="14.00">a</text>
</g>
<!-- 2&#45;&gt;2 -->
<g id="edge4" class="edge"><title>2&#45;&gt;2</title>
<path fill="none" stroke="black" d="M61.2903,-121.668C71.3892,-123.517 81,-120.961 81,-114 81,-109.541 77.0557,-106.889 71.5656,-106.045"/>
<polygon fill="black" stroke="black" points="71.1887,-102.554 61.2903,-106.332 71.384,-109.552 71.1887,-102.554"/>
<text text-anchor="middle" x="84.5" y="-110.3" font-family="Times,serif" font-size="14.00">b</text>
</g>
<!-- 3 -->
<g id="node4" class="node"><title>3</title>
<ellipse fill="lightblue" stroke="black" cx="21" cy="-202" rx="18" ry="18"/>
<text text-anchor="middle" x="21" y="-198.3" font-family="Times,serif" font-size="14.00">3</text>
</g>
<!-- 3&#45;&gt;0 -->
<g id="edge5" class="edge"><title>3&#45;&gt;0</title>
<path fill="none" stroke="black" d="M17.8501,-184.061C15.4291,-170.138 12.2881,-149.868 11,-132 9.09781,-105.613 12.222,-75.6893 15.4681,-53.8798"/>
<polygon fill="black" stroke="black" points="18.9451,-54.3001 17.05,-43.8762 12.031,-53.2068 18.9451,-54.3001"/>
<text text-anchor="middle" x="14.5" y="-110.3" font-family="Times,serif" font-size="14.00">a</text>
</g>
<!-- 3&#45;&gt;2 -->
<g id="edge6" class="edge"><title>3&#45;&gt;2</title>
<path fill="none" stroke="black" d="M25.6274,-184.418C29.0472,-172.164 33.7713,-155.236 37.6983,-141.165"/>
<polygon fill="black" stroke="black" points="41.0699,-142.104 40.3868,-131.531 34.3275,-140.222 41.0699,-142.104"/>
<text text-anchor="middle" x="38.5" y="-154.3" font-family="Times,serif" font-size="14.00">b</text>
</g>
</g>
</svg>
