<?xml version="1.0" encoding="UTF-8" standalone="no"?>
<!DOCTYPE svg PUBLIC "-//W3C//DTD SVG 1.1//EN"
 "http://www.w3.org/Graphics/SVG/1.1/DTD/svg11.dtd">
<!-- Generated by graphviz version 2.36.0 (20140111.2315)
 -->
<!-- Title: %3 Pages: 1 -->
<svg width="174pt" height="228pt"
 viewBox="0.00 0.00 174.00 228.00" xmlns="http://www.w3.org/2000/svg" xmlns:xlink="http://www.w3.org/1999/xlink">
<g id="graph0" class="graph" transform="scale(1 1) rotate(0) translate(4 224)">
<title>%3</title>
<polygon fill="white" stroke="none" points="-4,4 -4,-224 170,-224 170,4 -4,4"/>
<!-- 0 -->
<g id="node1" class="node"><title>0</title>
<ellipse fill="lightblue" stroke="black" cx="60" cy="-202" rx="18" ry="18"/>
<text text-anchor="middle" x="60" y="-198.3" font-family="Times,serif" font-size="14.00">0</text>
</g>
<!-- 1 -->
<g id="node2" class="node"><title>1</title>
<ellipse fill="lightblue" stroke="black" cx="22" cy="-110" rx="17.5909" ry="18"/>
<ellipse fill="none" stroke="black" cx="22" cy="-110" rx="21.5" ry="22"/>
<text text-anchor="middle" x="22" y="-106.3" font-family="Times,serif" font-size="14.00">1</text>
</g>
<!-- 0&#45;&gt;1 -->
<g id="edge1" class="edge"><title>0&#45;&gt;1</title>
<path fill="none" stroke="black" d="M53.2064,-184.91C47.9177,-172.384 40.4411,-154.676 34.1319,-139.733"/>
<polygon fill="black" stroke="black" points="37.3033,-138.246 30.1892,-130.395 30.8546,-140.969 37.3033,-138.246"/>
<text text-anchor="middle" x="48.5" y="-154.3" font-family="Times,serif" font-size="14.00">b</text>
</g>
<!-- 3 -->
<g id="node4" class="node"><title>3</title>
<ellipse fill="lightblue" stroke="black" cx="69" cy="-18" rx="18" ry="18"/>
<text text-anchor="middle" x="69" y="-14.3" font-family="Times,serif" font-size="14.00">3</text>
</g>
<!-- 0&#45;&gt;3 -->
<g id="edge2" class="edge"><title>0&#45;&gt;3</title>
<path fill="none" stroke="black" d="M60.8467,-183.878C62.4079,-152.307 65.7524,-84.6735 67.6368,-46.5676"/>
<polygon fill="black" stroke="black" points="71.1507,-46.3699 68.149,-36.2092 64.1593,-46.0241 71.1507,-46.3699"/>
<text text-anchor="middle" x="68.5" y="-106.3" font-family="Times,serif" font-size="14.00">a</text>
</g>
<!-- 1&#45;&gt;3 -->
<g id="edge3" class="edge"><title>1&#45;&gt;3</title>
<path fill="none" stroke="black" d="M16.0619,-88.6003C14.0566,-77.7504 13.5239,-64.5177 19,-54 24.2657,-43.8864 33.9392,-36.0911 43.3844,-30.452"/>
<polygon fill="black" stroke="black" points="45.0695,-33.5198 52.219,-25.7009 41.754,-27.3548 45.0695,-33.5198"/>
<text text-anchor="middle" x="27.5" y="-58.3" font-family="Times,serif" font-size="14.00">b,a</text>
</g>
<!-- 2 -->
<g id="node3" class="node"><title>2</title>
<ellipse fill="green" stroke="black" cx="123" cy="-110" rx="18" ry="18"/>
<text text-anchor="middle" x="123" y="-106.3" font-family="Times,serif" font-size="14.00">2</text>
</g>
<!-- 2&#45;&gt;2 -->
<g id="edge4" class="edge"><title>2&#45;&gt;2</title>
<path fill="none" stroke="black" d="M139.29,-118.365C149.389,-120.382 159,-117.594 159,-110 159,-105.135 155.056,-102.243 149.566,-101.322"/>
<polygon fill="black" stroke="black" points="149.179,-97.8323 139.29,-101.635 149.392,-104.829 149.179,-97.8323"/>
<text text-anchor="middle" x="162.5" y="-106.3" font-family="Times,serif" font-size="14.00">b</text>
</g>
<!-- 2&#45;&gt;3 -->
<g id="edge5" class="edge"><title>2&#45;&gt;3</title>
<path fill="none" stroke="black" d="M115.42,-93.2785C109.864,-82.1053 101.934,-66.8621 94,-54 91.3929,-49.7737 88.4533,-45.3814 85.5299,-41.1944"/>
<polygon fill="black" stroke="black" points="88.3332,-39.0976 79.6636,-33.0076 82.6432,-43.1749 88.3332,-39.0976"/>
<text text-anchor="middle" x="105.5" y="-58.3" font-family="Times,serif" font-size="14.00">a</text>
</g>
<!-- 3&#45;&gt;1 -->
<g id="edge6" class="edge"><title>3&#45;&gt;1</title>
<path fill="none" stroke="black" d="M60.9913,-34.3358C54.2924,-47.1636 44.5647,-65.791 36.5017,-81.2308"/>
<polygon fill="black" stroke="black" points="33.2651,-79.8677 31.7384,-90.3519 39.4699,-83.108 33.2651,-79.8677"/>
<text text-anchor="middle" x="53.5" y="-58.3" font-family="Times,serif" font-size="14.00">b</text>
</g>
<!-- 3&#45;&gt;3 -->
<g id="edge7" class="edge"><title>3&#45;&gt;3</title>
<path fill="none" stroke="black" d="M85.2903,-25.6679C95.3892,-27.5169 105,-24.9609 105,-18 105,-13.5406 101.056,-10.8891 95.5656,-10.0454"/>
<polygon fill="black" stroke="black" points="95.1887,-6.55441 85.2903,-10.3321 95.384,-13.5517 95.1887,-6.55441"/>
<text text-anchor="middle" x="108.5" y="-14.3" font-family="Times,serif" font-size="14.00">a</text>
</g>
</g>
</svg>
