<?xml version="1.0" encoding="UTF-8" standalone="no"?>
<!DOCTYPE svg PUBLIC "-//W3C//DTD SVG 1.1//EN"
 "http://www.w3.org/Graphics/SVG/1.1/DTD/svg11.dtd">
<!-- Generated by graphviz version 2.36.0 (20140111.2315)
 -->
<!-- Title: %3 Pages: 1 -->
<svg width="199pt" height="316pt"
 viewBox="0.00 0.00 199.00 316.00" xmlns="http://www.w3.org/2000/svg" xmlns:xlink="http://www.w3.org/1999/xlink">
<g id="graph0" class="graph" transform="scale(1 1) rotate(0) translate(4 312)">
<title>%3</title>
<polygon fill="white" stroke="none" points="-4,4 -4,-312 195,-312 195,4 -4,4"/>
<!-- 0 -->
<g id="node1" class="node"><title>0</title>
<ellipse fill="green" stroke="black" cx="89" cy="-290" rx="18" ry="18"/>
<text text-anchor="middle" x="89" y="-286.3" font-family="Times,serif" font-size="14.00">0</text>
</g>
<!-- 3 -->
<g id="node4" class="node"><title>3</title>
<ellipse fill="lightblue" stroke="black" cx="18" cy="-202" rx="18" ry="18"/>
<text text-anchor="middle" x="18" y="-198.3" font-family="Times,serif" font-size="14.00">3</text>
</g>
<!-- 0&#45;&gt;3 -->
<g id="edge1" class="edge"><title>0&#45;&gt;3</title>
<path fill="none" stroke="black" d="M77.9062,-275.562C66.5477,-261.804 48.7282,-240.22 35.473,-224.164"/>
<polygon fill="black" stroke="black" points="38.0814,-221.826 29.0158,-216.343 32.6833,-226.283 38.0814,-221.826"/>
<text text-anchor="middle" x="63.5" y="-242.3" font-family="Times,serif" font-size="14.00">b</text>
</g>
<!-- 4 -->
<g id="node5" class="node"><title>4</title>
<ellipse fill="lightblue" stroke="black" cx="89" cy="-22" rx="17.5909" ry="18"/>
<ellipse fill="none" stroke="black" cx="89" cy="-22" rx="21.5" ry="22"/>
<text text-anchor="middle" x="89" y="-18.3" font-family="Times,serif" font-size="14.00">4</text>
</g>
<!-- 0&#45;&gt;4 -->
<g id="edge2" class="edge"><title>0&#45;&gt;4</title>
<path fill="none" stroke="black" d="M89,-271.956C89,-228.112 89,-110.911 89,-54.3687"/>
<polygon fill="black" stroke="black" points="92.5001,-54.2282 89,-44.2283 85.5001,-54.2283 92.5001,-54.2282"/>
<text text-anchor="middle" x="92.5" y="-154.3" font-family="Times,serif" font-size="14.00">a</text>
</g>
<!-- 1 -->
<g id="node2" class="node"><title>1</title>
<ellipse fill="lightblue" stroke="black" cx="18" cy="-114" rx="18" ry="18"/>
<text text-anchor="middle" x="18" y="-110.3" font-family="Times,serif" font-size="14.00">1</text>
</g>
<!-- 1&#45;&gt;1 -->
<g id="edge3" class="edge"><title>1&#45;&gt;1</title>
<path fill="none" stroke="black" d="M34.2903,-121.668C44.3892,-123.517 54,-120.961 54,-114 54,-109.541 50.0557,-106.889 44.5656,-106.045"/>
<polygon fill="black" stroke="black" points="44.1887,-102.554 34.2903,-106.332 44.384,-109.552 44.1887,-102.554"/>
<text text-anchor="middle" x="57.5" y="-110.3" font-family="Times,serif" font-size="14.00">a</text>
</g>
<!-- 1&#45;&gt;4 -->
<g id="edge4" class="edge"><title>1&#45;&gt;4</title>
<path fill="none" stroke="black" d="M20.1366,-95.6524C22.1138,-85.1353 25.8793,-71.8848 33,-62 40.2841,-51.8882 51.0368,-43.5017 61.1778,-37.1299"/>
<polygon fill="black" stroke="black" points="62.974,-40.1341 69.8297,-32.0563 59.4329,-34.0957 62.974,-40.1341"/>
<text text-anchor="middle" x="36.5" y="-66.3" font-family="Times,serif" font-size="14.00">b</text>
</g>
<!-- 2 -->
<g id="node3" class="node"><title>2</title>
<ellipse fill="lightblue" stroke="black" cx="173" cy="-114" rx="18" ry="18"/>
<text text-anchor="middle" x="173" y="-110.3" font-family="Times,serif" font-size="14.00">2</text>
</g>
<!-- 2&#45;&gt;4 -->
<g id="edge5" class="edge"><title>2&#45;&gt;4</title>
<path fill="none" stroke="black" d="M165.097,-97.2481C159.303,-86.6057 150.767,-72.615 141,-62 133.55,-53.9034 124.232,-46.317 115.55,-40.0267"/>
<polygon fill="black" stroke="black" points="117.379,-37.0359 107.172,-34.1974 113.381,-42.7819 117.379,-37.0359"/>
<text text-anchor="middle" x="161.5" y="-66.3" font-family="Times,serif" font-size="14.00">b,a</text>
</g>
<!-- 3&#45;&gt;1 -->
<g id="edge6" class="edge"><title>3&#45;&gt;1</title>
<path fill="none" stroke="black" d="M18,-183.597C18,-171.746 18,-155.817 18,-142.292"/>
<polygon fill="black" stroke="black" points="21.5001,-142.084 18,-132.084 14.5001,-142.084 21.5001,-142.084"/>
<text text-anchor="middle" x="21.5" y="-154.3" font-family="Times,serif" font-size="14.00">b</text>
</g>
<!-- 3&#45;&gt;3 -->
<g id="edge7" class="edge"><title>3&#45;&gt;3</title>
<path fill="none" stroke="black" d="M34.2903,-209.668C44.3892,-211.517 54,-208.961 54,-202 54,-197.541 50.0557,-194.889 44.5656,-194.045"/>
<polygon fill="black" stroke="black" points="44.1887,-190.554 34.2903,-194.332 44.384,-197.552 44.1887,-190.554"/>
<text text-anchor="middle" x="57.5" y="-198.3" font-family="Times,serif" font-size="14.00">a</text>
</g>
<!-- 4&#45;&gt;0 -->
<g id="edge8" class="edge"><title>4&#45;&gt;0</title>
<path fill="none" stroke="black" d="M97.478,-42.4818C99.7378,-48.609 101.865,-55.4797 103,-62 117.632,-146.069 119.137,-170.206 103,-254 102.369,-257.277 101.433,-260.638 100.34,-263.919"/>
<polygon fill="black" stroke="black" points="97.0336,-262.767 96.733,-273.358 103.572,-265.266 97.0336,-262.767"/>
<text text-anchor="middle" x="117.5" y="-154.3" font-family="Times,serif" font-size="14.00">a</text>
</g>
<!-- 4&#45;&gt;1 -->
<g id="edge9" class="edge"><title>4&#45;&gt;1</title>
<path fill="none" stroke="black" d="M75.94,-39.5549C64.5024,-54.0533 47.7975,-75.2285 35.26,-91.1211"/>
<polygon fill="black" stroke="black" points="32.2291,-89.3121 28.7834,-99.3309 37.7249,-93.6476 32.2291,-89.3121"/>
<text text-anchor="middle" x="61.5" y="-66.3" font-family="Times,serif" font-size="14.00">b</text>
</g>
</g>
</svg>
