<?xml version="1.0" encoding="UTF-8" standalone="no"?>
<!DOCTYPE svg PUBLIC "-//W3C//DTD SVG 1.1//EN"
 "http://www.w3.org/Graphics/SVG/1.1/DTD/svg11.dtd">
<!-- Generated by graphviz version 2.36.0 (20140111.2315)
 -->
<!-- Title: %3 Pages: 1 -->
<svg width="148pt" height="228pt"
 viewBox="0.00 0.00 148.00 228.00" xmlns="http://www.w3.org/2000/svg" xmlns:xlink="http://www.w3.org/1999/xlink">
<g id="graph0" class="graph" transform="scale(1 1) rotate(0) translate(4 224)">
<title>%3</title>
<polygon fill="white" stroke="none" points="-4,4 -4,-224 144,-224 144,4 -4,4"/>
<!-- 0 -->
<g id="node1" class="node"><title>0</title>
<ellipse fill="lightblue" stroke="black" cx="57" cy="-114" rx="18" ry="18"/>
<text text-anchor="middle" x="57" y="-110.3" font-family="Times,serif" font-size="14.00">0</text>
</g>
<!-- 0&#45;&gt;0 -->
<g id="edge1" class="edge"><title>0&#45;&gt;0</title>
<path fill="none" stroke="black" d="M73.2903,-121.668C83.3892,-123.517 93,-120.961 93,-114 93,-109.541 89.0557,-106.889 83.5656,-106.045"/>
<polygon fill="black" stroke="black" points="83.1887,-102.554 73.2903,-106.332 83.384,-109.552 83.1887,-102.554"/>
<text text-anchor="middle" x="96.5" y="-110.3" font-family="Times,serif" font-size="14.00">b</text>
</g>
<!-- 3 -->
<g id="node4" class="node"><title>3</title>
<ellipse fill="green" stroke="black" cx="57" cy="-22" rx="17.5909" ry="18"/>
<ellipse fill="none" stroke="black" cx="57" cy="-22" rx="21.5" ry="22"/>
<text text-anchor="middle" x="57" y="-18.3" font-family="Times,serif" font-size="14.00">3</text>
</g>
<!-- 0&#45;&gt;3 -->
<g id="edge2" class="edge"><title>0&#45;&gt;3</title>
<path fill="none" stroke="black" d="M50.3664,-97.2577C48.201,-91.3321 46.0772,-84.4629 45,-78 43.595,-69.57 44.55,-60.4818 46.4167,-52.1686"/>
<polygon fill="black" stroke="black" points="49.7966,-53.0774 49.0484,-42.509 43.0427,-51.2373 49.7966,-53.0774"/>
<text text-anchor="middle" x="48.5" y="-66.3" font-family="Times,serif" font-size="14.00">a</text>
</g>
<!-- 1 -->
<g id="node2" class="node"><title>1</title>
<ellipse fill="lightblue" stroke="black" cx="18" cy="-202" rx="18" ry="18"/>
<text text-anchor="middle" x="18" y="-198.3" font-family="Times,serif" font-size="14.00">1</text>
</g>
<!-- 1&#45;&gt;0 -->
<g id="edge3" class="edge"><title>1&#45;&gt;0</title>
<path fill="none" stroke="black" d="M25.1532,-185.226C30.8706,-172.619 38.9938,-154.706 45.6049,-140.128"/>
<polygon fill="black" stroke="black" points="48.9496,-141.227 49.8921,-130.674 42.5745,-138.335 48.9496,-141.227"/>
<text text-anchor="middle" x="44.5" y="-154.3" font-family="Times,serif" font-size="14.00">b</text>
</g>
<!-- 1&#45;&gt;1 -->
<g id="edge4" class="edge"><title>1&#45;&gt;1</title>
<path fill="none" stroke="black" d="M34.2903,-209.668C44.3892,-211.517 54,-208.961 54,-202 54,-197.541 50.0557,-194.889 44.5656,-194.045"/>
<polygon fill="black" stroke="black" points="44.1887,-190.554 34.2903,-194.332 44.384,-197.552 44.1887,-190.554"/>
<text text-anchor="middle" x="57.5" y="-198.3" font-family="Times,serif" font-size="14.00">a</text>
</g>
<!-- 2 -->
<g id="node3" class="node"><title>2</title>
<ellipse fill="lightblue" stroke="black" cx="97" cy="-202" rx="18" ry="18"/>
<text text-anchor="middle" x="97" y="-198.3" font-family="Times,serif" font-size="14.00">2</text>
</g>
<!-- 2&#45;&gt;0 -->
<g id="edge5" class="edge"><title>2&#45;&gt;0</title>
<path fill="none" stroke="black" d="M89.6634,-185.226C83.7993,-172.619 75.4679,-154.706 68.6873,-140.128"/>
<polygon fill="black" stroke="black" points="71.681,-138.265 64.2901,-130.674 65.3339,-141.217 71.681,-138.265"/>
<text text-anchor="middle" x="83.5" y="-154.3" font-family="Times,serif" font-size="14.00">b</text>
</g>
<!-- 2&#45;&gt;2 -->
<g id="edge6" class="edge"><title>2&#45;&gt;2</title>
<path fill="none" stroke="black" d="M113.29,-209.668C123.389,-211.517 133,-208.961 133,-202 133,-197.541 129.056,-194.889 123.566,-194.045"/>
<polygon fill="black" stroke="black" points="123.189,-190.554 113.29,-194.332 123.384,-197.552 123.189,-190.554"/>
<text text-anchor="middle" x="136.5" y="-198.3" font-family="Times,serif" font-size="14.00">a</text>
</g>
<!-- 3&#45;&gt;0 -->
<g id="edge7" class="edge"><title>3&#45;&gt;0</title>
<path fill="none" stroke="black" d="M57,-44.101C57,-56.4798 57,-72.2575 57,-85.5903"/>
<polygon fill="black" stroke="black" points="53.5001,-85.6471 57,-95.6471 60.5001,-85.6471 53.5001,-85.6471"/>
<text text-anchor="middle" x="60.5" y="-66.3" font-family="Times,serif" font-size="14.00">a</text>
</g>
<!-- 3&#45;&gt;3 -->
<g id="edge8" class="edge"><title>3&#45;&gt;3</title>
<path fill="none" stroke="black" d="M77.0663,-30.7341C87.0736,-31.9426 96,-29.0312 96,-22 96,-17.4956 92.3366,-14.682 87.0725,-13.5592"/>
<polygon fill="black" stroke="black" points="87.1646,-10.0605 77.0663,-13.2659 86.9594,-17.0575 87.1646,-10.0605"/>
<text text-anchor="middle" x="99.5" y="-18.3" font-family="Times,serif" font-size="14.00">b</text>
</g>
</g>
</svg>
