<?xml version="1.0" encoding="UTF-8" standalone="no"?>
<!DOCTYPE svg PUBLIC "-//W3C//DTD SVG 1.1//EN"
 "http://www.w3.org/Graphics/SVG/1.1/DTD/svg11.dtd">
<!-- Generated by graphviz version 2.36.0 (20140111.2315)
 -->
<!-- Title: %3 Pages: 1 -->
<svg width="188pt" height="404pt"
 viewBox="0.00 0.00 188.00 404.00" xmlns="http://www.w3.org/2000/svg" xmlns:xlink="http://www.w3.org/1999/xlink">
<g id="graph0" class="graph" transform="scale(1 1) rotate(0) translate(4 400)">
<title>%3</title>
<polygon fill="white" stroke="none" points="-4,4 -4,-400 184,-400 184,4 -4,4"/>
<!-- 0 -->
<g id="node1" class="node"><title>0</title>
<ellipse fill="lightblue" stroke="black" cx="108" cy="-290" rx="18" ry="18"/>
<text text-anchor="middle" x="108" y="-286.3" font-family="Times,serif" font-size="14.00">0</text>
</g>
<!-- 2 -->
<g id="node3" class="node"><title>2</title>
<ellipse fill="green" stroke="black" cx="18" cy="-202" rx="18" ry="18"/>
<text text-anchor="middle" x="18" y="-198.3" font-family="Times,serif" font-size="14.00">2</text>
</g>
<!-- 0&#45;&gt;2 -->
<g id="edge1" class="edge"><title>0&#45;&gt;2</title>
<path fill="none" stroke="black" d="M94.4388,-277.584C86.5851,-270.862 76.5851,-262.112 68,-254 57.5791,-244.154 46.3718,-232.798 37.2142,-223.305"/>
<polygon fill="black" stroke="black" points="39.5113,-220.643 30.0663,-215.843 34.4563,-225.485 39.5113,-220.643"/>
<text text-anchor="middle" x="71.5" y="-242.3" font-family="Times,serif" font-size="14.00">a</text>
</g>
<!-- 3 -->
<g id="node4" class="node"><title>3</title>
<ellipse fill="lightblue" stroke="black" cx="89" cy="-18" rx="18" ry="18"/>
<text text-anchor="middle" x="89" y="-14.3" font-family="Times,serif" font-size="14.00">3</text>
</g>
<!-- 0&#45;&gt;3 -->
<g id="edge2" class="edge"><title>0&#45;&gt;3</title>
<path fill="none" stroke="black" d="M106.501,-271.896C104.444,-248.145 100.695,-203.826 98,-166 95.035,-124.389 92.1936,-76.1079 90.5227,-46.5609"/>
<polygon fill="black" stroke="black" points="93.9966,-45.9952 89.9418,-36.207 87.0075,-46.3874 93.9966,-45.9952"/>
<text text-anchor="middle" x="101.5" y="-154.3" font-family="Times,serif" font-size="14.00">b</text>
</g>
<!-- 1 -->
<g id="node2" class="node"><title>1</title>
<ellipse fill="lightblue" stroke="black" cx="38" cy="-110" rx="17.5909" ry="18"/>
<ellipse fill="none" stroke="black" cx="38" cy="-110" rx="21.5" ry="22"/>
<text text-anchor="middle" x="38" y="-106.3" font-family="Times,serif" font-size="14.00">1</text>
</g>
<!-- 1&#45;&gt;2 -->
<g id="edge3" class="edge"><title>1&#45;&gt;2</title>
<path fill="none" stroke="black" d="M33.4124,-131.644C30.5998,-144.301 26.9697,-160.636 23.9391,-174.274"/>
<polygon fill="black" stroke="black" points="20.5146,-173.551 21.7618,-184.072 27.3479,-175.069 20.5146,-173.551"/>
<text text-anchor="middle" x="33.5" y="-154.3" font-family="Times,serif" font-size="14.00">a</text>
</g>
<!-- 1&#45;&gt;3 -->
<g id="edge4" class="edge"><title>1&#45;&gt;3</title>
<path fill="none" stroke="black" d="M34.5509,-88.2707C33.7541,-77.4516 34.4332,-64.3505 40,-54 45.2737,-44.1945 54.6398,-36.49 63.7808,-30.8355"/>
<polygon fill="black" stroke="black" points="65.662,-33.7938 72.6866,-25.8625 62.2492,-27.6821 65.662,-33.7938"/>
<text text-anchor="middle" x="43.5" y="-58.3" font-family="Times,serif" font-size="14.00">b</text>
</g>
<!-- 2&#45;&gt;1 -->
<g id="edge5" class="edge"><title>2&#45;&gt;1</title>
<path fill="none" stroke="black" d="M14.8971,-184.195C13.6357,-174.119 13.0742,-161.142 16,-150 17.1106,-145.771 18.7954,-141.517 20.7483,-137.454"/>
<polygon fill="black" stroke="black" points="23.9568,-138.879 25.6478,-128.42 17.8035,-135.542 23.9568,-138.879"/>
<text text-anchor="middle" x="19.5" y="-154.3" font-family="Times,serif" font-size="14.00">b</text>
</g>
<!-- 2&#45;&gt;2 -->
<g id="edge6" class="edge"><title>2&#45;&gt;2</title>
<path fill="none" stroke="black" d="M34.2903,-209.668C44.3892,-211.517 54,-208.961 54,-202 54,-197.541 50.0557,-194.889 44.5656,-194.045"/>
<polygon fill="black" stroke="black" points="44.1887,-190.554 34.2903,-194.332 44.384,-197.552 44.1887,-190.554"/>
<text text-anchor="middle" x="57.5" y="-198.3" font-family="Times,serif" font-size="14.00">a</text>
</g>
<!-- 3&#45;&gt;0 -->
<g id="edge7" class="edge"><title>3&#45;&gt;0</title>
<path fill="none" stroke="black" d="M97.3458,-34.2594C100.251,-40.2463 103.224,-47.2822 105,-54 108.876,-68.6662 106.939,-72.8674 108,-88 113.164,-161.63 118.232,-180.374 113,-254 112.817,-256.572 112.56,-259.241 112.257,-261.908"/>
<polygon fill="black" stroke="black" points="108.769,-261.59 110.928,-271.962 115.709,-262.507 108.769,-261.59"/>
<text text-anchor="middle" x="117.5" y="-154.3" font-family="Times,serif" font-size="14.00">a</text>
</g>
<!-- 3&#45;&gt;1 -->
<g id="edge8" class="edge"><title>3&#45;&gt;1</title>
<path fill="none" stroke="black" d="M80.4727,-34.0481C73.1399,-46.9885 62.3771,-65.9816 53.5209,-81.6101"/>
<polygon fill="black" stroke="black" points="50.4523,-79.9261 48.5672,-90.3519 56.5425,-83.3773 50.4523,-79.9261"/>
<text text-anchor="middle" x="71.5" y="-58.3" font-family="Times,serif" font-size="14.00">b</text>
</g>
<!-- 4 -->
<g id="node5" class="node"><title>4</title>
<ellipse fill="lightblue" stroke="black" cx="151" cy="-378" rx="18" ry="18"/>
<text text-anchor="middle" x="151" y="-374.3" font-family="Times,serif" font-size="14.00">4</text>
</g>
<!-- 4&#45;&gt;0 -->
<g id="edge9" class="edge"><title>4&#45;&gt;0</title>
<path fill="none" stroke="black" d="M143.312,-361.625C136.932,-348.863 127.736,-330.472 120.328,-315.656"/>
<polygon fill="black" stroke="black" points="123.369,-313.911 115.766,-306.532 117.108,-317.041 123.369,-313.911"/>
<text text-anchor="middle" x="136.5" y="-330.3" font-family="Times,serif" font-size="14.00">a</text>
</g>
<!-- 4&#45;&gt;3 -->
<g id="edge10" class="edge"><title>4&#45;&gt;3</title>
<path fill="none" stroke="black" d="M157.601,-361.143C164.081,-344.117 173,-316.12 173,-291 173,-291 173,-291 173,-109 173,-73.9387 138.508,-46.8561 113.729,-31.9235"/>
<polygon fill="black" stroke="black" points="115.216,-28.7416 104.8,-26.804 111.734,-34.8143 115.216,-28.7416"/>
<text text-anchor="middle" x="176.5" y="-198.3" font-family="Times,serif" font-size="14.00">b</text>
</g>
</g>
</svg>
