<?xml version="1.0" encoding="UTF-8" standalone="no"?>
<!DOCTYPE svg PUBLIC "-//W3C//DTD SVG 1.1//EN"
 "http://www.w3.org/Graphics/SVG/1.1/DTD/svg11.dtd">
<!-- Generated by graphviz version 2.36.0 (20140111.2315)
 -->
<!-- Title: %3 Pages: 1 -->
<svg width="274pt" height="316pt"
 viewBox="0.00 0.00 273.88 316.00" xmlns="http://www.w3.org/2000/svg" xmlns:xlink="http://www.w3.org/1999/xlink">
<g id="graph0" class="graph" transform="scale(1 1) rotate(0) translate(4 312)">
<title>%3</title>
<polygon fill="white" stroke="none" points="-4,4 -4,-312 269.878,-312 269.878,4 -4,4"/>
<!-- 0 -->
<g id="node1" class="node"><title>0</title>
<ellipse fill="green" stroke="black" cx="215.878" cy="-290" rx="18" ry="18"/>
<text text-anchor="middle" x="215.878" y="-286.3" font-family="Times,serif" font-size="14.00">0</text>
</g>
<!-- 2 -->
<g id="node3" class="node"><title>2</title>
<ellipse fill="lightblue" stroke="black" cx="98.8782" cy="-202" rx="18" ry="18"/>
<text text-anchor="middle" x="98.8782" y="-198.3" font-family="Times,serif" font-size="14.00">2</text>
</g>
<!-- 0&#45;&gt;2 -->
<g id="edge1" class="edge"><title>0&#45;&gt;2</title>
<path fill="none" stroke="black" d="M201.532,-278.455C181.424,-263.674 144.676,-236.663 121.037,-219.288"/>
<polygon fill="black" stroke="black" points="123.107,-216.465 112.977,-213.363 118.961,-222.106 123.107,-216.465"/>
<text text-anchor="middle" x="170.378" y="-242.3" font-family="Times,serif" font-size="14.00">c</text>
</g>
<!-- 4 -->
<g id="node5" class="node"><title>4</title>
<ellipse fill="lightblue" stroke="black" cx="185.878" cy="-22" rx="17.5909" ry="18"/>
<ellipse fill="none" stroke="black" cx="185.878" cy="-22" rx="21.5" ry="22"/>
<text text-anchor="middle" x="185.878" y="-18.3" font-family="Times,serif" font-size="14.00">4</text>
</g>
<!-- 0&#45;&gt;4 -->
<g id="edge2" class="edge"><title>0&#45;&gt;4</title>
<path fill="none" stroke="black" d="M223.611,-273.358C226.137,-267.443 228.616,-260.555 229.878,-254 246.015,-170.206 264.891,-139.82 229.878,-62 226.085,-53.5696 219.47,-46.2232 212.503,-40.2489"/>
<polygon fill="black" stroke="black" points="214.355,-37.2557 204.311,-33.883 210.06,-42.7829 214.355,-37.2557"/>
<text text-anchor="middle" x="257.378" y="-154.3" font-family="Times,serif" font-size="14.00">b,a</text>
</g>
<!-- 1 -->
<g id="node2" class="node"><title>1</title>
<ellipse fill="lightblue" stroke="black" cx="98.8782" cy="-114" rx="18" ry="18"/>
<text text-anchor="middle" x="98.8782" y="-110.3" font-family="Times,serif" font-size="14.00">1</text>
</g>
<!-- 1&#45;&gt;1 -->
<g id="edge3" class="edge"><title>1&#45;&gt;1</title>
<path fill="none" stroke="black" d="M115.169,-121.668C125.267,-123.517 134.878,-120.961 134.878,-114 134.878,-109.541 130.934,-106.889 125.444,-106.045"/>
<polygon fill="black" stroke="black" points="125.067,-102.554 115.169,-106.332 125.262,-109.552 125.067,-102.554"/>
<text text-anchor="middle" x="138.378" y="-110.3" font-family="Times,serif" font-size="14.00">c</text>
</g>
<!-- 3 -->
<g id="node4" class="node"><title>3</title>
<ellipse fill="lightblue" stroke="black" cx="47.8782" cy="-22" rx="18" ry="18"/>
<text text-anchor="middle" x="47.8782" y="-18.3" font-family="Times,serif" font-size="14.00">3</text>
</g>
<!-- 1&#45;&gt;3 -->
<g id="edge4" class="edge"><title>1&#45;&gt;3</title>
<path fill="none" stroke="black" d="M91.3061,-97.1625C86.3172,-86.984 79.5041,-73.5522 72.8782,-62 69.8022,-56.6368 66.3191,-50.9779 62.951,-45.6844"/>
<polygon fill="black" stroke="black" points="65.8554,-43.7303 57.4831,-37.2376 59.9791,-47.5342 65.8554,-43.7303"/>
<text text-anchor="middle" x="84.3782" y="-66.3" font-family="Times,serif" font-size="14.00">b</text>
</g>
<!-- 1&#45;&gt;4 -->
<g id="edge5" class="edge"><title>1&#45;&gt;4</title>
<path fill="none" stroke="black" d="M105.589,-97.0502C110.638,-86.3194 118.318,-72.3044 127.878,-62 136.559,-52.643 147.898,-44.391 158.246,-37.9157"/>
<polygon fill="black" stroke="black" points="160.196,-40.8278 166.992,-32.6995 156.611,-34.8158 160.196,-40.8278"/>
<text text-anchor="middle" x="131.378" y="-66.3" font-family="Times,serif" font-size="14.00">a</text>
</g>
<!-- 2&#45;&gt;1 -->
<g id="edge6" class="edge"><title>2&#45;&gt;1</title>
<path fill="none" stroke="black" d="M98.8782,-183.597C98.8782,-171.746 98.8782,-155.817 98.8782,-142.292"/>
<polygon fill="black" stroke="black" points="102.378,-142.084 98.8782,-132.084 95.3783,-142.084 102.378,-142.084"/>
<text text-anchor="middle" x="102.378" y="-154.3" font-family="Times,serif" font-size="14.00">a</text>
</g>
<!-- 2&#45;&gt;3 -->
<g id="edge7" class="edge"><title>2&#45;&gt;3</title>
<path fill="none" stroke="black" d="M81.2604,-197.379C63.2509,-192.854 35.4933,-183.481 17.8782,-166 6.15498,-154.366 6.28482,-148.161 2.87824,-132 -3.68425,-100.867 1.64019,-89.3619 17.8782,-62 21.4259,-56.0221 25.7494,-49.904 29.997,-44.3388"/>
<polygon fill="black" stroke="black" points="33.0198,-46.1597 36.4871,-36.1482 27.5334,-41.8123 33.0198,-46.1597"/>
<text text-anchor="middle" x="6.37824" y="-110.3" font-family="Times,serif" font-size="14.00">b</text>
</g>
<!-- 2&#45;&gt;4 -->
<g id="edge8" class="edge"><title>2&#45;&gt;4</title>
<path fill="none" stroke="black" d="M110.671,-188.157C122.282,-174.934 139.833,-153.307 150.878,-132 163.829,-107.018 173.16,-76.3303 178.914,-53.8885"/>
<polygon fill="black" stroke="black" points="182.38,-54.4493 181.379,-43.9019 175.584,-52.7719 182.38,-54.4493"/>
<text text-anchor="middle" x="169.378" y="-110.3" font-family="Times,serif" font-size="14.00">c</text>
</g>
<!-- 3&#45;&gt;1 -->
<g id="edge9" class="edge"><title>3&#45;&gt;1</title>
<path fill="none" stroke="black" d="M52.1383,-39.604C55.4561,-50.9099 60.7077,-65.951 67.8782,-78 71.0694,-83.3623 75.1395,-88.6603 79.2728,-93.4489"/>
<polygon fill="black" stroke="black" points="76.8083,-95.9401 86.1446,-100.949 81.9694,-91.2111 76.8083,-95.9401"/>
<text text-anchor="middle" x="71.3782" y="-66.3" font-family="Times,serif" font-size="14.00">c</text>
</g>
<!-- 3&#45;&gt;2 -->
<g id="edge10" class="edge"><title>3&#45;&gt;2</title>
<path fill="none" stroke="black" d="M48.9301,-39.9813C50.6367,-61.7366 54.8881,-100.408 64.8782,-132 69.868,-147.779 77.994,-164.45 85.0506,-177.452"/>
<polygon fill="black" stroke="black" points="82.0079,-179.182 89.9399,-186.206 88.1193,-175.769 82.0079,-179.182"/>
<text text-anchor="middle" x="68.3782" y="-110.3" font-family="Times,serif" font-size="14.00">b</text>
</g>
<!-- 3&#45;&gt;3 -->
<g id="edge11" class="edge"><title>3&#45;&gt;3</title>
<path fill="none" stroke="black" d="M64.1685,-30.365C74.2674,-32.3821 83.8782,-29.5938 83.8782,-22 83.8782,-17.1353 79.934,-14.2427 74.4439,-13.3222"/>
<polygon fill="black" stroke="black" points="74.0573,-9.83225 64.1685,-13.635 74.2704,-16.829 74.0573,-9.83225"/>
<text text-anchor="middle" x="87.3782" y="-18.3" font-family="Times,serif" font-size="14.00">a</text>
</g>
<!-- 4&#45;&gt;0 -->
<g id="edge12" class="edge"><title>4&#45;&gt;0</title>
<path fill="none" stroke="black" d="M188.272,-44.2283C193.682,-92.1943 206.842,-208.882 212.826,-261.939"/>
<polygon fill="black" stroke="black" points="209.357,-262.411 213.956,-271.956 216.313,-261.627 209.357,-262.411"/>
<text text-anchor="middle" x="205.378" y="-154.3" font-family="Times,serif" font-size="14.00">b</text>
</g>
<!-- 4&#45;&gt;1 -->
<g id="edge13" class="edge"><title>4&#45;&gt;1</title>
<path fill="none" stroke="black" d="M171.045,-38.4258C160.428,-49.4597 145.787,-64.6579 132.878,-78 128.162,-82.8744 123.07,-88.1232 118.299,-93.0355"/>
<polygon fill="black" stroke="black" points="115.625,-90.7651 111.166,-100.376 120.645,-95.6437 115.625,-90.7651"/>
<text text-anchor="middle" x="154.878" y="-66.3" font-family="Times,serif" font-size="14.00">c,a</text>
</g>
</g>
</svg>
