<?xml version="1.0" encoding="UTF-8" standalone="no"?>
<!DOCTYPE svg PUBLIC "-//W3C//DTD SVG 1.1//EN"
 "http://www.w3.org/Graphics/SVG/1.1/DTD/svg11.dtd">
<!-- Generated by graphviz version 2.36.0 (20140111.2315)
 -->
<!-- Title: %3 Pages: 1 -->
<svg width="113pt" height="404pt"
 viewBox="0.00 0.00 113.00 404.00" xmlns="http://www.w3.org/2000/svg" xmlns:xlink="http://www.w3.org/1999/xlink">
<g id="graph0" class="graph" transform="scale(1 1) rotate(0) translate(4 400)">
<title>%3</title>
<polygon fill="white" stroke="none" points="-4,4 -4,-400 109,-400 109,4 -4,4"/>
<!-- 0 -->
<g id="node1" class="node"><title>0</title>
<ellipse fill="green" stroke="black" cx="58" cy="-194" rx="18" ry="18"/>
<text text-anchor="middle" x="58" y="-190.3" font-family="Times,serif" font-size="14.00">0</text>
</g>
<!-- 0&#45;&gt;0 -->
<g id="edge1" class="edge"><title>0&#45;&gt;0</title>
<path fill="none" stroke="black" d="M74.2903,-201.668C84.3892,-203.517 94,-200.961 94,-194 94,-189.541 90.0557,-186.889 84.5656,-186.045"/>
<polygon fill="black" stroke="black" points="84.1887,-182.554 74.2903,-186.332 84.384,-189.552 84.1887,-182.554"/>
<text text-anchor="middle" x="97.5" y="-190.3" font-family="Times,serif" font-size="14.00">a</text>
</g>
<!-- 1 -->
<g id="node2" class="node"><title>1</title>
<ellipse fill="lightblue" stroke="black" cx="18" cy="-106" rx="18" ry="18"/>
<text text-anchor="middle" x="18" y="-102.3" font-family="Times,serif" font-size="14.00">1</text>
</g>
<!-- 0&#45;&gt;1 -->
<g id="edge2" class="edge"><title>0&#45;&gt;1</title>
<path fill="none" stroke="black" d="M50.6634,-177.226C44.7993,-164.619 36.4679,-146.706 29.6873,-132.128"/>
<polygon fill="black" stroke="black" points="32.681,-130.265 25.2901,-122.674 26.3339,-133.217 32.681,-130.265"/>
<text text-anchor="middle" x="45.5" y="-146.3" font-family="Times,serif" font-size="14.00">b</text>
</g>
<!-- 3 -->
<g id="node4" class="node"><title>3</title>
<ellipse fill="lightblue" stroke="black" cx="50" cy="-18" rx="18" ry="18"/>
<text text-anchor="middle" x="50" y="-14.3" font-family="Times,serif" font-size="14.00">3</text>
</g>
<!-- 1&#45;&gt;3 -->
<g id="edge3" class="edge"><title>1&#45;&gt;3</title>
<path fill="none" stroke="black" d="M24.019,-88.8241C28.6226,-76.4516 35.0619,-59.1462 40.3779,-44.8593"/>
<polygon fill="black" stroke="black" points="43.8009,-45.6962 44.008,-35.1034 37.2404,-43.255 43.8009,-45.6962"/>
<text text-anchor="middle" x="45.5" y="-58.3" font-family="Times,serif" font-size="14.00">b,a</text>
</g>
<!-- 2 -->
<g id="node3" class="node"><title>2</title>
<ellipse fill="lightblue" stroke="black" cx="58" cy="-378" rx="18" ry="18"/>
<text text-anchor="middle" x="58" y="-374.3" font-family="Times,serif" font-size="14.00">2</text>
</g>
<!-- 2&#45;&gt;2 -->
<g id="edge4" class="edge"><title>2&#45;&gt;2</title>
<path fill="none" stroke="black" d="M74.2903,-385.668C84.3892,-387.517 94,-384.961 94,-378 94,-373.541 90.0557,-370.889 84.5656,-370.045"/>
<polygon fill="black" stroke="black" points="84.1887,-366.554 74.2903,-370.332 84.384,-373.552 84.1887,-366.554"/>
<text text-anchor="middle" x="97.5" y="-374.3" font-family="Times,serif" font-size="14.00">b</text>
</g>
<!-- 4 -->
<g id="node5" class="node"><title>4</title>
<ellipse fill="lightblue" stroke="black" cx="58" cy="-286" rx="17.5909" ry="18"/>
<ellipse fill="none" stroke="black" cx="58" cy="-286" rx="21.5" ry="22"/>
<text text-anchor="middle" x="58" y="-282.3" font-family="Times,serif" font-size="14.00">4</text>
</g>
<!-- 2&#45;&gt;4 -->
<g id="edge5" class="edge"><title>2&#45;&gt;4</title>
<path fill="none" stroke="black" d="M58,-359.647C58,-347.924 58,-332.114 58,-318.237"/>
<polygon fill="black" stroke="black" points="61.5001,-318.101 58,-308.101 54.5001,-318.101 61.5001,-318.101"/>
<text text-anchor="middle" x="61.5" y="-330.3" font-family="Times,serif" font-size="14.00">a</text>
</g>
<!-- 3&#45;&gt;0 -->
<g id="edge6" class="edge"><title>3&#45;&gt;0</title>
<path fill="none" stroke="black" d="M54.5979,-35.6032C55.9822,-41.3784 57.3151,-47.9301 58,-54 62.3472,-92.5288 61.2376,-137.448 59.8084,-165.559"/>
<polygon fill="black" stroke="black" points="56.299,-165.631 59.2344,-175.811 63.288,-166.023 56.299,-165.631"/>
<text text-anchor="middle" x="69.5" y="-102.3" font-family="Times,serif" font-size="14.00">b,a</text>
</g>
<!-- 4&#45;&gt;0 -->
<g id="edge7" class="edge"><title>4&#45;&gt;0</title>
<path fill="none" stroke="black" d="M58,-263.671C58,-251.284 58,-235.552 58,-222.272"/>
<polygon fill="black" stroke="black" points="61.5001,-222.258 58,-212.258 54.5001,-222.258 61.5001,-222.258"/>
<text text-anchor="middle" x="61.5" y="-234.3" font-family="Times,serif" font-size="14.00">b</text>
</g>
<!-- 4&#45;&gt;4 -->
<g id="edge8" class="edge"><title>4&#45;&gt;4</title>
<path fill="none" stroke="black" d="M78.0663,-294.734C88.0736,-295.943 97,-293.031 97,-286 97,-281.496 93.3366,-278.682 88.0725,-277.559"/>
<polygon fill="black" stroke="black" points="88.1646,-274.061 78.0663,-277.266 87.9594,-281.057 88.1646,-274.061"/>
<text text-anchor="middle" x="100.5" y="-282.3" font-family="Times,serif" font-size="14.00">a</text>
</g>
</g>
</svg>
