<?xml version="1.0" encoding="UTF-8" standalone="no"?>
<!DOCTYPE svg PUBLIC "-//W3C//DTD SVG 1.1//EN"
 "http://www.w3.org/Graphics/SVG/1.1/DTD/svg11.dtd">
<!-- Generated by graphviz version 2.36.0 (20140111.2315)
 -->
<!-- Title: %3 Pages: 1 -->
<svg width="137pt" height="316pt"
 viewBox="0.00 0.00 137.00 316.00" xmlns="http://www.w3.org/2000/svg" xmlns:xlink="http://www.w3.org/1999/xlink">
<g id="graph0" class="graph" transform="scale(1 1) rotate(0) translate(4 312)">
<title>%3</title>
<polygon fill="white" stroke="none" points="-4,4 -4,-312 133,-312 133,4 -4,4"/>
<!-- 0 -->
<g id="node1" class="node"><title>0</title>
<ellipse fill="green" stroke="black" cx="97" cy="-286" rx="17.5909" ry="18"/>
<ellipse fill="none" stroke="black" cx="97" cy="-286" rx="21.5" ry="22"/>
<text text-anchor="middle" x="97" y="-282.3" font-family="Times,serif" font-size="14.00">0</text>
</g>
<!-- 1 -->
<g id="node2" class="node"><title>1</title>
<ellipse fill="lightblue" stroke="black" cx="18" cy="-194" rx="18" ry="18"/>
<text text-anchor="middle" x="18" y="-190.3" font-family="Times,serif" font-size="14.00">1</text>
</g>
<!-- 0&#45;&gt;1 -->
<g id="edge1" class="edge"><title>0&#45;&gt;1</title>
<path fill="none" stroke="black" d="M82.8764,-268.91C69.8755,-254.099 50.5141,-232.041 36.3264,-215.878"/>
<polygon fill="black" stroke="black" points="38.6671,-213.239 29.4398,-208.033 33.4063,-217.857 38.6671,-213.239"/>
<text text-anchor="middle" x="66.5" y="-234.3" font-family="Times,serif" font-size="14.00">a</text>
</g>
<!-- 3 -->
<g id="node4" class="node"><title>3</title>
<ellipse fill="lightblue" stroke="black" cx="61" cy="-106" rx="18" ry="18"/>
<text text-anchor="middle" x="61" y="-102.3" font-family="Times,serif" font-size="14.00">3</text>
</g>
<!-- 0&#45;&gt;3 -->
<g id="edge2" class="edge"><title>0&#45;&gt;3</title>
<path fill="none" stroke="black" d="M92.7999,-264.233C86.2613,-231.903 73.651,-169.552 66.4301,-133.849"/>
<polygon fill="black" stroke="black" points="69.7877,-132.794 64.3748,-123.686 62.9267,-134.182 69.7877,-132.794"/>
<text text-anchor="middle" x="84.5" y="-190.3" font-family="Times,serif" font-size="14.00">b</text>
</g>
<!-- 1&#45;&gt;1 -->
<g id="edge3" class="edge"><title>1&#45;&gt;1</title>
<path fill="none" stroke="black" d="M34.2903,-201.668C44.3892,-203.517 54,-200.961 54,-194 54,-189.541 50.0557,-186.889 44.5656,-186.045"/>
<polygon fill="black" stroke="black" points="44.1887,-182.554 34.2903,-186.332 44.384,-189.552 44.1887,-182.554"/>
<text text-anchor="middle" x="57.5" y="-190.3" font-family="Times,serif" font-size="14.00">b</text>
</g>
<!-- 1&#45;&gt;3 -->
<g id="edge4" class="edge"><title>1&#45;&gt;3</title>
<path fill="none" stroke="black" d="M25.6875,-177.625C32.0684,-164.863 41.2639,-146.472 48.6718,-131.656"/>
<polygon fill="black" stroke="black" points="51.8923,-133.041 53.234,-122.532 45.6313,-129.911 51.8923,-133.041"/>
<text text-anchor="middle" x="47.5" y="-146.3" font-family="Times,serif" font-size="14.00">a</text>
</g>
<!-- 2 -->
<g id="node3" class="node"><title>2</title>
<ellipse fill="lightblue" stroke="black" cx="61" cy="-18" rx="18" ry="18"/>
<text text-anchor="middle" x="61" y="-14.3" font-family="Times,serif" font-size="14.00">2</text>
</g>
<!-- 2&#45;&gt;0 -->
<g id="edge5" class="edge"><title>2&#45;&gt;0</title>
<path fill="none" stroke="black" d="M73.7653,-30.7563C86.5137,-43.4458 105.289,-64.9558 113,-88 132.041,-144.905 117.603,-215.991 106.539,-255.331"/>
<polygon fill="black" stroke="black" points="103.134,-254.504 103.68,-265.084 109.852,-256.473 103.134,-254.504"/>
<text text-anchor="middle" x="125.5" y="-146.3" font-family="Times,serif" font-size="14.00">a</text>
</g>
<!-- 2&#45;&gt;1 -->
<g id="edge6" class="edge"><title>2&#45;&gt;1</title>
<path fill="none" stroke="black" d="M51.7368,-33.6974C43.7015,-47.243 32.5187,-68.1883 27,-88 19.8181,-113.783 17.9053,-144.385 17.5849,-165.88"/>
<polygon fill="black" stroke="black" points="14.0848,-165.913 17.5411,-175.928 21.0847,-165.943 14.0848,-165.913"/>
<text text-anchor="middle" x="30.5" y="-102.3" font-family="Times,serif" font-size="14.00">b</text>
</g>
<!-- 3&#45;&gt;2 -->
<g id="edge7" class="edge"><title>3&#45;&gt;2</title>
<path fill="none" stroke="black" d="M61,-87.5966C61,-75.7459 61,-59.8169 61,-46.2917"/>
<polygon fill="black" stroke="black" points="64.5001,-46.084 61,-36.084 57.5001,-46.084 64.5001,-46.084"/>
<text text-anchor="middle" x="64.5" y="-58.3" font-family="Times,serif" font-size="14.00">a</text>
</g>
<!-- 3&#45;&gt;3 -->
<g id="edge8" class="edge"><title>3&#45;&gt;3</title>
<path fill="none" stroke="black" d="M77.2903,-113.668C87.3892,-115.517 97,-112.961 97,-106 97,-101.541 93.0557,-98.8891 87.5656,-98.0454"/>
<polygon fill="black" stroke="black" points="87.1887,-94.5544 77.2903,-98.3321 87.384,-101.552 87.1887,-94.5544"/>
<text text-anchor="middle" x="100.5" y="-102.3" font-family="Times,serif" font-size="14.00">b</text>
</g>
</g>
</svg>
