<?xml version="1.0" encoding="UTF-8" standalone="no"?>
<!DOCTYPE svg PUBLIC "-//W3C//DTD SVG 1.1//EN"
 "http://www.w3.org/Graphics/SVG/1.1/DTD/svg11.dtd">
<!-- Generated by graphviz version 2.36.0 (20140111.2315)
 -->
<!-- Title: %3 Pages: 1 -->
<svg width="164pt" height="316pt"
 viewBox="0.00 0.00 164.00 316.00" xmlns="http://www.w3.org/2000/svg" xmlns:xlink="http://www.w3.org/1999/xlink">
<g id="graph0" class="graph" transform="scale(1 1) rotate(0) translate(4 312)">
<title>%3</title>
<polygon fill="white" stroke="none" points="-4,4 -4,-312 160,-312 160,4 -4,4"/>
<!-- 0 -->
<g id="node1" class="node"><title>0</title>
<ellipse fill="green" stroke="black" cx="113" cy="-290" rx="18" ry="18"/>
<text text-anchor="middle" x="113" y="-286.3" font-family="Times,serif" font-size="14.00">0</text>
</g>
<!-- 0&#45;&gt;0 -->
<g id="edge1" class="edge"><title>0&#45;&gt;0</title>
<path fill="none" stroke="black" d="M129.29,-297.668C139.389,-299.517 149,-296.961 149,-290 149,-285.541 145.056,-282.889 139.566,-282.045"/>
<polygon fill="black" stroke="black" points="139.189,-278.554 129.29,-282.332 139.384,-285.552 139.189,-278.554"/>
<text text-anchor="middle" x="152.5" y="-286.3" font-family="Times,serif" font-size="14.00">b</text>
</g>
<!-- 1 -->
<g id="node2" class="node"><title>1</title>
<ellipse fill="lightblue" stroke="black" cx="22" cy="-198" rx="17.5909" ry="18"/>
<ellipse fill="none" stroke="black" cx="22" cy="-198" rx="21.5" ry="22"/>
<text text-anchor="middle" x="22" y="-194.3" font-family="Times,serif" font-size="14.00">1</text>
</g>
<!-- 0&#45;&gt;1 -->
<g id="edge2" class="edge"><title>0&#45;&gt;1</title>
<path fill="none" stroke="black" d="M100.347,-276.486C85.818,-262.117 61.7214,-238.285 44.0812,-220.839"/>
<polygon fill="black" stroke="black" points="46.5343,-218.342 36.9631,-213.799 41.612,-223.319 46.5343,-218.342"/>
<text text-anchor="middle" x="78.5" y="-242.3" font-family="Times,serif" font-size="14.00">a</text>
</g>
<!-- 1&#45;&gt;1 -->
<g id="edge3" class="edge"><title>1&#45;&gt;1</title>
<path fill="none" stroke="black" d="M42.0663,-206.734C52.0736,-207.943 61,-205.031 61,-198 61,-193.496 57.3366,-190.682 52.0725,-189.559"/>
<polygon fill="black" stroke="black" points="52.1646,-186.061 42.0663,-189.266 51.9594,-193.057 52.1646,-186.061"/>
<text text-anchor="middle" x="64.5" y="-194.3" font-family="Times,serif" font-size="14.00">a</text>
</g>
<!-- 3 -->
<g id="node4" class="node"><title>3</title>
<ellipse fill="lightblue" stroke="black" cx="82" cy="-106" rx="18" ry="18"/>
<text text-anchor="middle" x="82" y="-102.3" font-family="Times,serif" font-size="14.00">3</text>
</g>
<!-- 1&#45;&gt;3 -->
<g id="edge4" class="edge"><title>1&#45;&gt;3</title>
<path fill="none" stroke="black" d="M33.8541,-179.219C43.2752,-165.087 56.5208,-145.219 66.7347,-129.898"/>
<polygon fill="black" stroke="black" points="69.7116,-131.742 72.3464,-121.48 63.8872,-127.859 69.7116,-131.742"/>
<text text-anchor="middle" x="60.5" y="-146.3" font-family="Times,serif" font-size="14.00">b</text>
</g>
<!-- 2 -->
<g id="node3" class="node"><title>2</title>
<ellipse fill="lightblue" stroke="black" cx="112" cy="-18" rx="18" ry="18"/>
<text text-anchor="middle" x="112" y="-14.3" font-family="Times,serif" font-size="14.00">2</text>
</g>
<!-- 2&#45;&gt;0 -->
<g id="edge5" class="edge"><title>2&#45;&gt;0</title>
<path fill="none" stroke="black" d="M116.298,-35.7233C124.592,-70.249 141.207,-151.886 132,-220 130.03,-234.574 125.82,-250.421 121.863,-263.248"/>
<polygon fill="black" stroke="black" points="118.519,-262.215 118.791,-272.807 125.183,-264.357 118.519,-262.215"/>
<text text-anchor="middle" x="137.5" y="-146.3" font-family="Times,serif" font-size="14.00">b</text>
</g>
<!-- 2&#45;&gt;3 -->
<g id="edge6" class="edge"><title>2&#45;&gt;3</title>
<path fill="none" stroke="black" d="M99.6868,-31.1524C94.1568,-37.4193 88.1724,-45.5182 85,-54 82.223,-61.4247 81.0193,-69.8814 80.6289,-77.7444"/>
<polygon fill="black" stroke="black" points="77.1272,-77.9124 80.5293,-87.9462 84.1269,-77.9809 77.1272,-77.9124"/>
<text text-anchor="middle" x="88.5" y="-58.3" font-family="Times,serif" font-size="14.00">a</text>
</g>
<!-- 3&#45;&gt;1 -->
<g id="edge7" class="edge"><title>3&#45;&gt;1</title>
<path fill="none" stroke="black" d="M66.5284,-115.479C56.7,-121.622 44.4665,-130.8 37,-142 32.1992,-149.201 28.928,-157.9 26.7015,-166.233"/>
<polygon fill="black" stroke="black" points="23.2642,-165.566 24.4712,-176.091 30.0916,-167.11 23.2642,-165.566"/>
<text text-anchor="middle" x="40.5" y="-146.3" font-family="Times,serif" font-size="14.00">b</text>
</g>
<!-- 3&#45;&gt;2 -->
<g id="edge8" class="edge"><title>3&#45;&gt;2</title>
<path fill="none" stroke="black" d="M87.6428,-88.8241C91.9587,-76.4516 97.9955,-59.1462 102.979,-44.8593"/>
<polygon fill="black" stroke="black" points="106.393,-45.6982 106.383,-35.1034 99.784,-43.3926 106.393,-45.6982"/>
<text text-anchor="middle" x="102.5" y="-58.3" font-family="Times,serif" font-size="14.00">a</text>
</g>
<!-- 4 -->
<g id="node5" class="node"><title>4</title>
<ellipse fill="lightblue" stroke="black" cx="105" cy="-198" rx="18" ry="18"/>
<text text-anchor="middle" x="105" y="-194.3" font-family="Times,serif" font-size="14.00">4</text>
</g>
<!-- 4&#45;&gt;3 -->
<g id="edge9" class="edge"><title>4&#45;&gt;3</title>
<path fill="none" stroke="black" d="M100.781,-180.493C97.4307,-167.381 92.6789,-148.787 88.7934,-133.583"/>
<polygon fill="black" stroke="black" points="92.1368,-132.53 86.2697,-123.708 85.3547,-134.263 92.1368,-132.53"/>
<text text-anchor="middle" x="102.5" y="-146.3" font-family="Times,serif" font-size="14.00">b,a</text>
</g>
</g>
</svg>
