<?xml version="1.0" encoding="UTF-8" standalone="no"?>
<!DOCTYPE svg PUBLIC "-//W3C//DTD SVG 1.1//EN"
 "http://www.w3.org/Graphics/SVG/1.1/DTD/svg11.dtd">
<!-- Generated by graphviz version 2.36.0 (20140111.2315)
 -->
<!-- Title: %3 Pages: 1 -->
<svg width="127pt" height="316pt"
 viewBox="0.00 0.00 127.00 316.00" xmlns="http://www.w3.org/2000/svg" xmlns:xlink="http://www.w3.org/1999/xlink">
<g id="graph0" class="graph" transform="scale(1 1) rotate(0) translate(4 312)">
<title>%3</title>
<polygon fill="white" stroke="none" points="-4,4 -4,-312 123,-312 123,4 -4,4"/>
<!-- 0 -->
<g id="node1" class="node"><title>0</title>
<ellipse fill="lightblue" stroke="black" cx="22" cy="-202" rx="18" ry="18"/>
<text text-anchor="middle" x="22" y="-198.3" font-family="Times,serif" font-size="14.00">0</text>
</g>
<!-- 0&#45;&gt;0 -->
<g id="edge1" class="edge"><title>0&#45;&gt;0</title>
<path fill="none" stroke="black" d="M38.2903,-209.668C48.3892,-211.517 58,-208.961 58,-202 58,-197.541 54.0557,-194.889 48.5656,-194.045"/>
<polygon fill="black" stroke="black" points="48.1887,-190.554 38.2903,-194.332 48.384,-197.552 48.1887,-190.554"/>
<text text-anchor="middle" x="61.5" y="-198.3" font-family="Times,serif" font-size="14.00">b</text>
</g>
<!-- 2 -->
<g id="node3" class="node"><title>2</title>
<ellipse fill="green" stroke="black" cx="22" cy="-110" rx="17.5909" ry="18"/>
<ellipse fill="none" stroke="black" cx="22" cy="-110" rx="21.5" ry="22"/>
<text text-anchor="middle" x="22" y="-106.3" font-family="Times,serif" font-size="14.00">2</text>
</g>
<!-- 0&#45;&gt;2 -->
<g id="edge2" class="edge"><title>0&#45;&gt;2</title>
<path fill="none" stroke="black" d="M22,-183.647C22,-171.924 22,-156.114 22,-142.237"/>
<polygon fill="black" stroke="black" points="25.5001,-142.101 22,-132.101 18.5001,-142.101 25.5001,-142.101"/>
<text text-anchor="middle" x="25.5" y="-154.3" font-family="Times,serif" font-size="14.00">a</text>
</g>
<!-- 1 -->
<g id="node2" class="node"><title>1</title>
<ellipse fill="lightblue" stroke="black" cx="101" cy="-202" rx="18" ry="18"/>
<text text-anchor="middle" x="101" y="-198.3" font-family="Times,serif" font-size="14.00">1</text>
</g>
<!-- 1&#45;&gt;2 -->
<g id="edge3" class="edge"><title>1&#45;&gt;2</title>
<path fill="none" stroke="black" d="M89.3433,-187.72C77.1714,-173.853 57.8225,-151.81 42.9816,-134.903"/>
<polygon fill="black" stroke="black" points="45.3367,-132.28 36.1094,-127.074 40.0759,-136.898 45.3367,-132.28"/>
<text text-anchor="middle" x="71.5" y="-154.3" font-family="Times,serif" font-size="14.00">b</text>
</g>
<!-- 4 -->
<g id="node5" class="node"><title>4</title>
<ellipse fill="lightblue" stroke="black" cx="52" cy="-18" rx="18" ry="18"/>
<text text-anchor="middle" x="52" y="-14.3" font-family="Times,serif" font-size="14.00">4</text>
</g>
<!-- 1&#45;&gt;4 -->
<g id="edge4" class="edge"><title>1&#45;&gt;4</title>
<path fill="none" stroke="black" d="M98.4015,-183.949C94.8051,-161.647 87.6463,-121.473 78,-88 73.7764,-73.3438 67.8522,-57.3835 62.7254,-44.508"/>
<polygon fill="black" stroke="black" points="65.8394,-42.874 58.8324,-34.9271 59.3543,-45.5091 65.8394,-42.874"/>
<text text-anchor="middle" x="91.5" y="-106.3" font-family="Times,serif" font-size="14.00">a</text>
</g>
<!-- 2&#45;&gt;2 -->
<g id="edge5" class="edge"><title>2&#45;&gt;2</title>
<path fill="none" stroke="black" d="M42.0663,-118.734C52.0736,-119.943 61,-117.031 61,-110 61,-105.496 57.3366,-102.682 52.0725,-101.559"/>
<polygon fill="black" stroke="black" points="52.1646,-98.0605 42.0663,-101.266 51.9594,-105.057 52.1646,-98.0605"/>
<text text-anchor="middle" x="64.5" y="-106.3" font-family="Times,serif" font-size="14.00">b</text>
</g>
<!-- 2&#45;&gt;4 -->
<g id="edge6" class="edge"><title>2&#45;&gt;4</title>
<path fill="none" stroke="black" d="M20.2561,-88.0327C20.0938,-77.514 21.0028,-64.7567 25,-54 26.9222,-48.8273 29.8947,-43.7991 33.1759,-39.2423"/>
<polygon fill="black" stroke="black" points="36.1431,-41.1368 39.671,-31.1466 30.6832,-36.7563 36.1431,-41.1368"/>
<text text-anchor="middle" x="28.5" y="-58.3" font-family="Times,serif" font-size="14.00">a</text>
</g>
<!-- 3 -->
<g id="node4" class="node"><title>3</title>
<ellipse fill="lightblue" stroke="black" cx="67" cy="-290" rx="18" ry="18"/>
<text text-anchor="middle" x="67" y="-286.3" font-family="Times,serif" font-size="14.00">3</text>
</g>
<!-- 3&#45;&gt;0 -->
<g id="edge7" class="edge"><title>3&#45;&gt;0</title>
<path fill="none" stroke="black" d="M58.9549,-273.625C52.2358,-260.784 42.5344,-242.243 34.7574,-227.381"/>
<polygon fill="black" stroke="black" points="37.7128,-225.48 29.9754,-218.242 31.5106,-228.725 37.7128,-225.48"/>
<text text-anchor="middle" x="52.5" y="-242.3" font-family="Times,serif" font-size="14.00">b</text>
</g>
<!-- 3&#45;&gt;1 -->
<g id="edge8" class="edge"><title>3&#45;&gt;1</title>
<path fill="none" stroke="black" d="M73.3951,-272.824C78.3341,-260.332 85.2613,-242.81 90.9407,-228.444"/>
<polygon fill="black" stroke="black" points="94.2117,-229.69 94.6335,-219.103 87.702,-227.116 94.2117,-229.69"/>
<text text-anchor="middle" x="90.5" y="-242.3" font-family="Times,serif" font-size="14.00">a</text>
</g>
<!-- 4&#45;&gt;2 -->
<g id="edge9" class="edge"><title>4&#45;&gt;2</title>
<path fill="none" stroke="black" d="M46.5629,-35.3114C42.4764,-47.5707 36.7659,-64.7023 31.8793,-79.3621"/>
<polygon fill="black" stroke="black" points="28.4999,-78.4324 28.658,-89.0261 35.1407,-80.6461 28.4999,-78.4324"/>
<text text-anchor="middle" x="43.5" y="-58.3" font-family="Times,serif" font-size="14.00">a</text>
</g>
<!-- 4&#45;&gt;4 -->
<g id="edge10" class="edge"><title>4&#45;&gt;4</title>
<path fill="none" stroke="black" d="M68.2903,-25.6679C78.3892,-27.5169 88,-24.9609 88,-18 88,-13.5406 84.0557,-10.8891 78.5656,-10.0454"/>
<polygon fill="black" stroke="black" points="78.1887,-6.55441 68.2903,-10.3321 78.384,-13.5517 78.1887,-6.55441"/>
<text text-anchor="middle" x="91.5" y="-14.3" font-family="Times,serif" font-size="14.00">b</text>
</g>
</g>
</svg>
