<?xml version="1.0" encoding="UTF-8" standalone="no"?>
<!DOCTYPE svg PUBLIC "-//W3C//DTD SVG 1.1//EN"
 "http://www.w3.org/Graphics/SVG/1.1/DTD/svg11.dtd">
<!-- Generated by graphviz version 2.36.0 (20140111.2315)
 -->
<!-- Title: %3 Pages: 1 -->
<svg width="151pt" height="316pt"
 viewBox="0.00 0.00 150.65 316.00" xmlns="http://www.w3.org/2000/svg" xmlns:xlink="http://www.w3.org/1999/xlink">
<g id="graph0" class="graph" transform="scale(1 1) rotate(0) translate(4 312)">
<title>%3</title>
<polygon fill="white" stroke="none" points="-4,4 -4,-312 146.653,-312 146.653,4 -4,4"/>
<!-- 0 -->
<g id="node1" class="node"><title>0</title>
<ellipse fill="lightblue" stroke="black" cx="50.6531" cy="-290" rx="18" ry="18"/>
<text text-anchor="middle" x="50.6531" y="-286.3" font-family="Times,serif" font-size="14.00">0</text>
</g>
<!-- 1 -->
<g id="node2" class="node"><title>1</title>
<ellipse fill="lightblue" stroke="black" cx="77.6531" cy="-202" rx="18" ry="18"/>
<text text-anchor="middle" x="77.6531" y="-198.3" font-family="Times,serif" font-size="14.00">1</text>
</g>
<!-- 0&#45;&gt;1 -->
<g id="edge1" class="edge"><title>0&#45;&gt;1</title>
<path fill="none" stroke="black" d="M55.859,-272.418C59.7062,-260.164 65.0208,-243.236 69.4386,-229.165"/>
<polygon fill="black" stroke="black" points="72.807,-230.12 72.4632,-219.531 66.1284,-228.023 72.807,-230.12"/>
<text text-anchor="middle" x="70.1531" y="-242.3" font-family="Times,serif" font-size="14.00">a</text>
</g>
<!-- 2 -->
<g id="node3" class="node"><title>2</title>
<ellipse fill="lightblue" stroke="black" cx="54.6531" cy="-22" rx="17.5909" ry="18"/>
<ellipse fill="none" stroke="black" cx="54.6531" cy="-22" rx="21.5" ry="22"/>
<text text-anchor="middle" x="54.6531" y="-18.3" font-family="Times,serif" font-size="14.00">2</text>
</g>
<!-- 0&#45;&gt;2 -->
<g id="edge2" class="edge"><title>0&#45;&gt;2</title>
<path fill="none" stroke="black" d="M37.0647,-278.072C30.1597,-271.769 22.2729,-263.268 17.6531,-254 -3.18046,-212.204 -1.28451,-196.534 2.65308,-150 5.99833,-110.466 -0.10131,-97.4811 17.6531,-62 20.9081,-55.495 25.6106,-49.336 30.5775,-43.9153"/>
<polygon fill="black" stroke="black" points="33.3354,-46.1057 37.9059,-36.5474 28.3723,-41.1692 33.3354,-46.1057"/>
<text text-anchor="middle" x="6.15308" y="-154.3" font-family="Times,serif" font-size="14.00">b</text>
</g>
<!-- 1&#45;&gt;1 -->
<g id="edge3" class="edge"><title>1&#45;&gt;1</title>
<path fill="none" stroke="black" d="M93.9434,-209.668C104.042,-211.517 113.653,-208.961 113.653,-202 113.653,-197.541 109.709,-194.889 104.219,-194.045"/>
<polygon fill="black" stroke="black" points="103.842,-190.554 93.9434,-194.332 104.037,-197.552 103.842,-190.554"/>
<text text-anchor="middle" x="117.153" y="-198.3" font-family="Times,serif" font-size="14.00">a</text>
</g>
<!-- 3 -->
<g id="node4" class="node"><title>3</title>
<ellipse fill="green" stroke="black" cx="120.653" cy="-114" rx="18" ry="18"/>
<text text-anchor="middle" x="120.653" y="-110.3" font-family="Times,serif" font-size="14.00">3</text>
</g>
<!-- 1&#45;&gt;3 -->
<g id="edge4" class="edge"><title>1&#45;&gt;3</title>
<path fill="none" stroke="black" d="M85.3406,-185.625C91.7214,-172.863 100.917,-154.472 108.325,-139.656"/>
<polygon fill="black" stroke="black" points="111.545,-141.041 112.887,-130.532 105.284,-137.911 111.545,-141.041"/>
<text text-anchor="middle" x="106.153" y="-154.3" font-family="Times,serif" font-size="14.00">b</text>
</g>
<!-- 2&#45;&gt;0 -->
<g id="edge5" class="edge"><title>2&#45;&gt;0</title>
<path fill="none" stroke="black" d="M53.962,-44.0944C52.9922,-74.8526 51.2764,-133.816 50.6531,-184 50.3253,-210.388 50.3683,-240.508 50.4674,-261.702"/>
<polygon fill="black" stroke="black" points="46.9685,-261.923 50.5228,-271.904 53.9684,-261.885 46.9685,-261.923"/>
<text text-anchor="middle" x="55.1531" y="-154.3" font-family="Times,serif" font-size="14.00">a</text>
</g>
<!-- 2&#45;&gt;1 -->
<g id="edge6" class="edge"><title>2&#45;&gt;1</title>
<path fill="none" stroke="black" d="M57.3804,-44.1069C61.5553,-76.4168 69.5296,-138.132 74.1347,-173.771"/>
<polygon fill="black" stroke="black" points="70.695,-174.464 75.4477,-183.933 77.6373,-173.567 70.695,-174.464"/>
<text text-anchor="middle" x="72.1531" y="-110.3" font-family="Times,serif" font-size="14.00">b</text>
</g>
<!-- 3&#45;&gt;0 -->
<g id="edge7" class="edge"><title>3&#45;&gt;0</title>
<path fill="none" stroke="black" d="M126.763,-131.128C133.828,-152.487 142.897,-190.849 129.653,-220 118.52,-244.506 93.9057,-263.717 75.0901,-275.576"/>
<polygon fill="black" stroke="black" points="73.1703,-272.647 66.4036,-280.799 76.7773,-278.646 73.1703,-272.647"/>
<text text-anchor="middle" x="139.153" y="-198.3" font-family="Times,serif" font-size="14.00">a</text>
</g>
<!-- 3&#45;&gt;2 -->
<g id="edge8" class="edge"><title>3&#45;&gt;2</title>
<path fill="none" stroke="black" d="M112.95,-97.2221C107.573,-86.825 99.904,-73.1269 91.6531,-62 87.3951,-56.2579 82.3729,-50.4606 77.425,-45.1552"/>
<polygon fill="black" stroke="black" points="79.7886,-42.5642 70.3265,-37.7978 74.751,-47.4246 79.7886,-42.5642"/>
<text text-anchor="middle" x="104.153" y="-66.3" font-family="Times,serif" font-size="14.00">b</text>
</g>
</g>
</svg>
