<?xml version="1.0" encoding="UTF-8" standalone="no"?>
<!DOCTYPE svg PUBLIC "-//W3C//DTD SVG 1.1//EN"
 "http://www.w3.org/Graphics/SVG/1.1/DTD/svg11.dtd">
<!-- Generated by graphviz version 2.36.0 (20140111.2315)
 -->
<!-- Title: %3 Pages: 1 -->
<svg width="160pt" height="316pt"
 viewBox="0.00 0.00 160.00 316.00" xmlns="http://www.w3.org/2000/svg" xmlns:xlink="http://www.w3.org/1999/xlink">
<g id="graph0" class="graph" transform="scale(1 1) rotate(0) translate(4 312)">
<title>%3</title>
<polygon fill="white" stroke="none" points="-4,4 -4,-312 156,-312 156,4 -4,4"/>
<!-- 0 -->
<g id="node1" class="node"><title>0</title>
<ellipse fill="lightblue" stroke="black" cx="109" cy="-290" rx="18" ry="18"/>
<text text-anchor="middle" x="109" y="-286.3" font-family="Times,serif" font-size="14.00">0</text>
</g>
<!-- 0&#45;&gt;0 -->
<g id="edge1" class="edge"><title>0&#45;&gt;0</title>
<path fill="none" stroke="black" d="M125.29,-297.668C135.389,-299.517 145,-296.961 145,-290 145,-285.541 141.056,-282.889 135.566,-282.045"/>
<polygon fill="black" stroke="black" points="135.189,-278.554 125.29,-282.332 135.384,-285.552 135.189,-278.554"/>
<text text-anchor="middle" x="148.5" y="-286.3" font-family="Times,serif" font-size="14.00">b</text>
</g>
<!-- 2 -->
<g id="node3" class="node"><title>2</title>
<ellipse fill="green" stroke="black" cx="79" cy="-202" rx="18" ry="18"/>
<text text-anchor="middle" x="79" y="-198.3" font-family="Times,serif" font-size="14.00">2</text>
</g>
<!-- 0&#45;&gt;2 -->
<g id="edge2" class="edge"><title>0&#45;&gt;2</title>
<path fill="none" stroke="black" d="M96.6868,-276.848C91.1568,-270.581 85.1724,-262.482 82,-254 79.223,-246.575 78.0193,-238.119 77.6289,-230.256"/>
<polygon fill="black" stroke="black" points="81.1269,-230.019 77.5293,-220.054 74.1272,-230.088 81.1269,-230.019"/>
<text text-anchor="middle" x="85.5" y="-242.3" font-family="Times,serif" font-size="14.00">a</text>
</g>
<!-- 3 -->
<g id="node4" class="node"><title>3</title>
<ellipse fill="lightblue" stroke="black" cx="95" cy="-18" rx="18" ry="18"/>
<text text-anchor="middle" x="95" y="-14.3" font-family="Times,serif" font-size="14.00">3</text>
</g>
<!-- 0&#45;&gt;3 -->
<g id="edge3" class="edge"><title>0&#45;&gt;3</title>
<path fill="none" stroke="black" d="M115.594,-273.167C120.952,-259.395 128.082,-238.76 131,-220 140.838,-156.762 118.898,-82.7583 105.107,-44.6201"/>
<polygon fill="black" stroke="black" points="108.239,-43.0008 101.467,-34.853 101.68,-45.4457 108.239,-43.0008"/>
<text text-anchor="middle" x="135.5" y="-154.3" font-family="Times,serif" font-size="14.00">c</text>
</g>
<!-- 1 -->
<g id="node2" class="node"><title>1</title>
<ellipse fill="lightblue" stroke="black" cx="22" cy="-110" rx="17.5909" ry="18"/>
<ellipse fill="none" stroke="black" cx="22" cy="-110" rx="21.5" ry="22"/>
<text text-anchor="middle" x="22" y="-106.3" font-family="Times,serif" font-size="14.00">1</text>
</g>
<!-- 1&#45;&gt;1 -->
<g id="edge4" class="edge"><title>1&#45;&gt;1</title>
<path fill="none" stroke="black" d="M42.0663,-118.734C52.0736,-119.943 61,-117.031 61,-110 61,-105.496 57.3366,-102.682 52.0725,-101.559"/>
<polygon fill="black" stroke="black" points="52.1646,-98.0605 42.0663,-101.266 51.9594,-105.057 52.1646,-98.0605"/>
<text text-anchor="middle" x="69.5" y="-106.3" font-family="Times,serif" font-size="14.00">b,a</text>
</g>
<!-- 1&#45;&gt;3 -->
<g id="edge5" class="edge"><title>1&#45;&gt;3</title>
<path fill="none" stroke="black" d="M28.3348,-88.7816C32.4654,-77.7293 38.6521,-64.2455 47,-54 53.6724,-45.8109 62.689,-38.5721 71.106,-32.834"/>
<polygon fill="black" stroke="black" points="73.0133,-35.7688 79.537,-27.4206 69.2312,-29.8785 73.0133,-35.7688"/>
<text text-anchor="middle" x="50.5" y="-58.3" font-family="Times,serif" font-size="14.00">c</text>
</g>
<!-- 2&#45;&gt;0 -->
<g id="edge6" class="edge"><title>2&#45;&gt;0</title>
<path fill="none" stroke="black" d="M84.6175,-219.103C88.9267,-231.457 94.9622,-248.758 99.9501,-263.057"/>
<polygon fill="black" stroke="black" points="96.7587,-264.535 103.357,-272.824 103.368,-262.229 96.7587,-264.535"/>
<text text-anchor="middle" x="99.5" y="-242.3" font-family="Times,serif" font-size="14.00">c</text>
</g>
<!-- 2&#45;&gt;1 -->
<g id="edge7" class="edge"><title>2&#45;&gt;1</title>
<path fill="none" stroke="black" d="M69.5876,-186.138C61.2878,-173.033 48.9908,-153.617 38.9764,-137.805"/>
<polygon fill="black" stroke="black" points="41.6988,-135.562 33.3914,-128.986 35.7851,-139.307 41.6988,-135.562"/>
<text text-anchor="middle" x="59.5" y="-154.3" font-family="Times,serif" font-size="14.00">b</text>
</g>
<!-- 2&#45;&gt;2 -->
<g id="edge8" class="edge"><title>2&#45;&gt;2</title>
<path fill="none" stroke="black" d="M95.2903,-209.668C105.389,-211.517 115,-208.961 115,-202 115,-197.541 111.056,-194.889 105.566,-194.045"/>
<polygon fill="black" stroke="black" points="105.189,-190.554 95.2903,-194.332 105.384,-197.552 105.189,-190.554"/>
<text text-anchor="middle" x="118.5" y="-198.3" font-family="Times,serif" font-size="14.00">a</text>
</g>
<!-- 3&#45;&gt;1 -->
<g id="edge9" class="edge"><title>3&#45;&gt;1</title>
<path fill="none" stroke="black" d="M84.246,-32.4519C75.9971,-42.752 64.3136,-57.3014 54,-70 50.109,-74.7908 45.9354,-79.8993 41.9296,-84.7874"/>
<polygon fill="black" stroke="black" points="39.0651,-82.7607 35.4261,-92.711 44.476,-87.2018 39.0651,-82.7607"/>
<text text-anchor="middle" x="75" y="-58.3" font-family="Times,serif" font-size="14.00">c,a</text>
</g>
<!-- 3&#45;&gt;2 -->
<g id="edge10" class="edge"><title>3&#45;&gt;2</title>
<path fill="none" stroke="black" d="M94.2952,-36.2584C93.3056,-58.4465 91.2521,-98.1516 88,-132 86.6641,-145.904 84.699,-161.324 82.9455,-174.054"/>
<polygon fill="black" stroke="black" points="79.4705,-173.632 81.5409,-184.023 86.402,-174.609 79.4705,-173.632"/>
<text text-anchor="middle" x="94.5" y="-106.3" font-family="Times,serif" font-size="14.00">b</text>
</g>
</g>
</svg>
