<?xml version="1.0" encoding="UTF-8" standalone="no"?>
<!DOCTYPE svg PUBLIC "-//W3C//DTD SVG 1.1//EN"
 "http://www.w3.org/Graphics/SVG/1.1/DTD/svg11.dtd">
<!-- Generated by graphviz version 2.36.0 (20140111.2315)
 -->
<!-- Title: %3 Pages: 1 -->
<svg width="99pt" height="404pt"
 viewBox="0.00 0.00 99.00 404.00" xmlns="http://www.w3.org/2000/svg" xmlns:xlink="http://www.w3.org/1999/xlink">
<g id="graph0" class="graph" transform="scale(1 1) rotate(0) translate(4 400)">
<title>%3</title>
<polygon fill="white" stroke="none" points="-4,4 -4,-400 95,-400 95,4 -4,4"/>
<!-- 0 -->
<g id="node1" class="node"><title>0</title>
<ellipse fill="green" stroke="black" cx="48" cy="-378" rx="18" ry="18"/>
<text text-anchor="middle" x="48" y="-374.3" font-family="Times,serif" font-size="14.00">0</text>
</g>
<!-- 0&#45;&gt;0 -->
<g id="edge1" class="edge"><title>0&#45;&gt;0</title>
<path fill="none" stroke="black" d="M64.2903,-385.668C74.3892,-387.517 84,-384.961 84,-378 84,-373.541 80.0557,-370.889 74.5656,-370.045"/>
<polygon fill="black" stroke="black" points="74.1887,-366.554 64.2903,-370.332 74.384,-373.552 74.1887,-366.554"/>
<text text-anchor="middle" x="87.5" y="-374.3" font-family="Times,serif" font-size="14.00">b</text>
</g>
<!-- 2 -->
<g id="node3" class="node"><title>2</title>
<ellipse fill="lightblue" stroke="black" cx="18" cy="-290" rx="18" ry="18"/>
<text text-anchor="middle" x="18" y="-286.3" font-family="Times,serif" font-size="14.00">2</text>
</g>
<!-- 0&#45;&gt;2 -->
<g id="edge2" class="edge"><title>0&#45;&gt;2</title>
<path fill="none" stroke="black" d="M35.6868,-364.848C30.1568,-358.581 24.1724,-350.482 21,-342 18.223,-334.575 17.0193,-326.119 16.6289,-318.256"/>
<polygon fill="black" stroke="black" points="20.1269,-318.019 16.5293,-308.054 13.1272,-318.088 20.1269,-318.019"/>
<text text-anchor="middle" x="24.5" y="-330.3" font-family="Times,serif" font-size="14.00">a</text>
</g>
<!-- 1 -->
<g id="node2" class="node"><title>1</title>
<ellipse fill="lightblue" stroke="black" cx="36" cy="-110" rx="17.5909" ry="18"/>
<ellipse fill="none" stroke="black" cx="36" cy="-110" rx="21.5" ry="22"/>
<text text-anchor="middle" x="36" y="-106.3" font-family="Times,serif" font-size="14.00">1</text>
</g>
<!-- 1&#45;&gt;2 -->
<g id="edge3" class="edge"><title>1&#45;&gt;2</title>
<path fill="none" stroke="black" d="M32.7762,-132.043C30.6292,-146.605 27.8693,-166.446 26,-184 23.1974,-210.317 21.0063,-240.447 19.6313,-261.662"/>
<polygon fill="black" stroke="black" points="16.1235,-261.675 18.9877,-271.876 23.1097,-262.116 16.1235,-261.675"/>
<text text-anchor="middle" x="29.5" y="-198.3" font-family="Times,serif" font-size="14.00">b</text>
</g>
<!-- 3 -->
<g id="node4" class="node"><title>3</title>
<ellipse fill="lightblue" stroke="black" cx="36" cy="-18" rx="18" ry="18"/>
<text text-anchor="middle" x="36" y="-14.3" font-family="Times,serif" font-size="14.00">3</text>
</g>
<!-- 1&#45;&gt;3 -->
<g id="edge4" class="edge"><title>1&#45;&gt;3</title>
<path fill="none" stroke="black" d="M28.0484,-89.491C24.7168,-79.0175 22.0237,-65.8575 24,-54 24.5217,-50.8695 25.2891,-47.6437 26.1877,-44.476"/>
<polygon fill="black" stroke="black" points="29.5891,-45.3348 29.3664,-34.7423 22.9349,-43.1618 29.5891,-45.3348"/>
<text text-anchor="middle" x="27.5" y="-58.3" font-family="Times,serif" font-size="14.00">a</text>
</g>
<!-- 2&#45;&gt;0 -->
<g id="edge5" class="edge"><title>2&#45;&gt;0</title>
<path fill="none" stroke="black" d="M23.6175,-307.103C27.9267,-319.457 33.9622,-336.758 38.9501,-351.057"/>
<polygon fill="black" stroke="black" points="35.7587,-352.535 42.3572,-360.824 42.3681,-350.229 35.7587,-352.535"/>
<text text-anchor="middle" x="38.5" y="-330.3" font-family="Times,serif" font-size="14.00">b</text>
</g>
<!-- 4 -->
<g id="node5" class="node"><title>4</title>
<ellipse fill="lightblue" stroke="black" cx="60" cy="-202" rx="18" ry="18"/>
<text text-anchor="middle" x="60" y="-198.3" font-family="Times,serif" font-size="14.00">4</text>
</g>
<!-- 2&#45;&gt;4 -->
<g id="edge6" class="edge"><title>2&#45;&gt;4</title>
<path fill="none" stroke="black" d="M25.5088,-273.625C31.7412,-260.863 40.7229,-242.472 47.9585,-227.656"/>
<polygon fill="black" stroke="black" points="51.1712,-229.054 52.4146,-218.532 44.8812,-225.982 51.1712,-229.054"/>
<text text-anchor="middle" x="45.5" y="-242.3" font-family="Times,serif" font-size="14.00">a</text>
</g>
<!-- 3&#45;&gt;1 -->
<g id="edge7" class="edge"><title>3&#45;&gt;1</title>
<path fill="none" stroke="black" d="M36,-36.2581C36,-47.9274 36,-63.6781 36,-77.539"/>
<polygon fill="black" stroke="black" points="32.5001,-77.6712 36,-87.6713 39.5001,-77.6713 32.5001,-77.6712"/>
<text text-anchor="middle" x="44.5" y="-58.3" font-family="Times,serif" font-size="14.00">b,a</text>
</g>
<!-- 4&#45;&gt;0 -->
<g id="edge8" class="edge"><title>4&#45;&gt;0</title>
<path fill="none" stroke="black" d="M58.8228,-220.07C56.7403,-250.266 52.3907,-313.334 49.886,-349.653"/>
<polygon fill="black" stroke="black" points="46.3689,-349.782 49.1725,-359.999 53.3523,-350.264 46.3689,-349.782"/>
<text text-anchor="middle" x="58.5" y="-286.3" font-family="Times,serif" font-size="14.00">b</text>
</g>
<!-- 4&#45;&gt;1 -->
<g id="edge9" class="edge"><title>4&#45;&gt;1</title>
<path fill="none" stroke="black" d="M55.598,-184.493C52.3966,-172.487 47.9694,-155.885 44.1328,-141.498"/>
<polygon fill="black" stroke="black" points="47.428,-140.271 41.4694,-131.51 40.6643,-142.075 47.428,-140.271"/>
<text text-anchor="middle" x="53.5" y="-154.3" font-family="Times,serif" font-size="14.00">a</text>
</g>
</g>
</svg>
