<?xml version="1.0" encoding="UTF-8" standalone="no"?>
<!DOCTYPE svg PUBLIC "-//W3C//DTD SVG 1.1//EN"
 "http://www.w3.org/Graphics/SVG/1.1/DTD/svg11.dtd">
<!-- Generated by graphviz version 2.36.0 (20140111.2315)
 -->
<!-- Title: %3 Pages: 1 -->
<svg width="112pt" height="404pt"
 viewBox="0.00 0.00 112.00 404.00" xmlns="http://www.w3.org/2000/svg" xmlns:xlink="http://www.w3.org/1999/xlink">
<g id="graph0" class="graph" transform="scale(1 1) rotate(0) translate(4 400)">
<title>%3</title>
<polygon fill="white" stroke="none" points="-4,4 -4,-400 108,-400 108,4 -4,4"/>
<!-- 0 -->
<g id="node1" class="node"><title>0</title>
<ellipse fill="green" stroke="black" cx="86" cy="-378" rx="18" ry="18"/>
<text text-anchor="middle" x="86" y="-374.3" font-family="Times,serif" font-size="14.00">0</text>
</g>
<!-- 2 -->
<g id="node3" class="node"><title>2</title>
<ellipse fill="lightblue" stroke="black" cx="49" cy="-286" rx="17.5909" ry="18"/>
<ellipse fill="none" stroke="black" cx="49" cy="-286" rx="21.5" ry="22"/>
<text text-anchor="middle" x="49" y="-282.3" font-family="Times,serif" font-size="14.00">2</text>
</g>
<!-- 0&#45;&gt;2 -->
<g id="edge1" class="edge"><title>0&#45;&gt;2</title>
<path fill="none" stroke="black" d="M79.3851,-360.91C74.2698,-348.467 67.0521,-330.91 60.9348,-316.031"/>
<polygon fill="black" stroke="black" points="64.1465,-314.638 57.1069,-306.72 57.6722,-317.299 64.1465,-314.638"/>
<text text-anchor="middle" x="73.5" y="-330.3" font-family="Times,serif" font-size="14.00">b</text>
</g>
<!-- 4 -->
<g id="node5" class="node"><title>4</title>
<ellipse fill="lightblue" stroke="black" cx="67" cy="-106" rx="18" ry="18"/>
<text text-anchor="middle" x="67" y="-102.3" font-family="Times,serif" font-size="14.00">4</text>
</g>
<!-- 0&#45;&gt;4 -->
<g id="edge2" class="edge"><title>0&#45;&gt;4</title>
<path fill="none" stroke="black" d="M86.9935,-359.737C88.9002,-320.642 91.7541,-222.478 78,-142 77.497,-139.057 76.8094,-136.018 76.0217,-133.018"/>
<polygon fill="black" stroke="black" points="79.2928,-131.739 73.0806,-123.156 72.5848,-133.74 79.2928,-131.739"/>
<text text-anchor="middle" x="90.5" y="-234.3" font-family="Times,serif" font-size="14.00">a</text>
</g>
<!-- 1 -->
<g id="node2" class="node"><title>1</title>
<ellipse fill="lightblue" stroke="black" cx="18" cy="-194" rx="18" ry="18"/>
<text text-anchor="middle" x="18" y="-190.3" font-family="Times,serif" font-size="14.00">1</text>
</g>
<!-- 1&#45;&gt;2 -->
<g id="edge3" class="edge"><title>1&#45;&gt;2</title>
<path fill="none" stroke="black" d="M13.1429,-211.599C11.0022,-221.835 9.8077,-235.052 14,-246 16.5356,-252.622 20.7713,-258.826 25.4369,-264.254"/>
<polygon fill="black" stroke="black" points="23.0042,-266.775 32.4322,-271.608 28.0763,-261.95 23.0042,-266.775"/>
<text text-anchor="middle" x="17.5" y="-234.3" font-family="Times,serif" font-size="14.00">a</text>
</g>
<!-- 1&#45;&gt;4 -->
<g id="edge4" class="edge"><title>1&#45;&gt;4</title>
<path fill="none" stroke="black" d="M26.5351,-178.02C33.9376,-165.028 44.784,-145.991 53.3844,-130.897"/>
<polygon fill="black" stroke="black" points="56.4887,-132.518 58.3983,-122.097 50.4067,-129.053 56.4887,-132.518"/>
<text text-anchor="middle" x="49.5" y="-146.3" font-family="Times,serif" font-size="14.00">b</text>
</g>
<!-- 2&#45;&gt;1 -->
<g id="edge5" class="edge"><title>2&#45;&gt;1</title>
<path fill="none" stroke="black" d="M42.1201,-265.026C37.6417,-252.024 31.7557,-234.936 26.9193,-220.895"/>
<polygon fill="black" stroke="black" points="30.1843,-219.626 23.6184,-211.311 23.5659,-221.906 30.1843,-219.626"/>
<text text-anchor="middle" x="43.5" y="-234.3" font-family="Times,serif" font-size="14.00">b,a</text>
</g>
<!-- 3 -->
<g id="node4" class="node"><title>3</title>
<ellipse fill="lightblue" stroke="black" cx="38" cy="-18" rx="18" ry="18"/>
<text text-anchor="middle" x="38" y="-14.3" font-family="Times,serif" font-size="14.00">3</text>
</g>
<!-- 3&#45;&gt;1 -->
<g id="edge6" class="edge"><title>3&#45;&gt;1</title>
<path fill="none" stroke="black" d="M36.038,-36.0697C32.5671,-66.266 25.3179,-129.334 21.1434,-165.653"/>
<polygon fill="black" stroke="black" points="17.619,-165.665 19.9541,-175.999 24.5732,-166.464 17.619,-165.665"/>
<text text-anchor="middle" x="32.5" y="-102.3" font-family="Times,serif" font-size="14.00">b</text>
</g>
<!-- 3&#45;&gt;3 -->
<g id="edge7" class="edge"><title>3&#45;&gt;3</title>
<path fill="none" stroke="black" d="M54.2903,-25.6679C64.3892,-27.5169 74,-24.9609 74,-18 74,-13.5406 70.0557,-10.8891 64.5656,-10.0454"/>
<polygon fill="black" stroke="black" points="64.1887,-6.55441 54.2903,-10.3321 64.384,-13.5517 64.1887,-6.55441"/>
<text text-anchor="middle" x="77.5" y="-14.3" font-family="Times,serif" font-size="14.00">a</text>
</g>
<!-- 4&#45;&gt;2 -->
<g id="edge8" class="edge"><title>4&#45;&gt;2</title>
<path fill="none" stroke="black" d="M66.1869,-124.176C64.8183,-150.484 61.6364,-202.305 56,-246 55.6689,-248.567 55.2839,-251.222 54.868,-253.883"/>
<polygon fill="black" stroke="black" points="51.3721,-253.566 53.1596,-264.009 58.2746,-254.731 51.3721,-253.566"/>
<text text-anchor="middle" x="65.5" y="-190.3" font-family="Times,serif" font-size="14.00">b</text>
</g>
<!-- 4&#45;&gt;3 -->
<g id="edge9" class="edge"><title>4&#45;&gt;3</title>
<path fill="none" stroke="black" d="M61.5453,-88.8241C57.3996,-76.5299 51.6115,-59.365 46.8116,-45.1309"/>
<polygon fill="black" stroke="black" points="50.0407,-43.7532 43.5288,-35.3958 43.4077,-45.99 50.0407,-43.7532"/>
<text text-anchor="middle" x="58.5" y="-58.3" font-family="Times,serif" font-size="14.00">a</text>
</g>
</g>
</svg>
