<?xml version="1.0" encoding="UTF-8" standalone="no"?>
<!DOCTYPE svg PUBLIC "-//W3C//DTD SVG 1.1//EN"
 "http://www.w3.org/Graphics/SVG/1.1/DTD/svg11.dtd">
<!-- Generated by graphviz version 2.36.0 (20140111.2315)
 -->
<!-- Title: %3 Pages: 1 -->
<svg width="172pt" height="140pt"
 viewBox="0.00 0.00 172.00 140.00" xmlns="http://www.w3.org/2000/svg" xmlns:xlink="http://www.w3.org/1999/xlink">
<g id="graph0" class="graph" transform="scale(1 1) rotate(0) translate(4 136)">
<title>%3</title>
<polygon fill="white" stroke="none" points="-4,4 -4,-136 168,-136 168,4 -4,4"/>
<!-- 0 -->
<g id="node1" class="node"><title>0</title>
<ellipse fill="lightblue" stroke="black" cx="22" cy="-110" rx="17.5909" ry="18"/>
<ellipse fill="none" stroke="black" cx="22" cy="-110" rx="21.5" ry="22"/>
<text text-anchor="middle" x="22" y="-106.3" font-family="Times,serif" font-size="14.00">0</text>
</g>
<!-- 0&#45;&gt;0 -->
<g id="edge1" class="edge"><title>0&#45;&gt;0</title>
<path fill="none" stroke="black" d="M42.0663,-118.734C52.0736,-119.943 61,-117.031 61,-110 61,-105.496 57.3366,-102.682 52.0725,-101.559"/>
<polygon fill="black" stroke="black" points="52.1646,-98.0605 42.0663,-101.266 51.9594,-105.057 52.1646,-98.0605"/>
<text text-anchor="middle" x="64.5" y="-106.3" font-family="Times,serif" font-size="14.00">b</text>
</g>
<!-- 1 -->
<g id="node2" class="node"><title>1</title>
<ellipse fill="lightblue" stroke="black" cx="22" cy="-18" rx="18" ry="18"/>
<text text-anchor="middle" x="22" y="-14.3" font-family="Times,serif" font-size="14.00">1</text>
</g>
<!-- 0&#45;&gt;1 -->
<g id="edge2" class="edge"><title>0&#45;&gt;1</title>
<path fill="none" stroke="black" d="M22,-87.6713C22,-75.2844 22,-59.5523 22,-46.2721"/>
<polygon fill="black" stroke="black" points="25.5001,-46.258 22,-36.2581 18.5001,-46.2581 25.5001,-46.258"/>
<text text-anchor="middle" x="25.5" y="-58.3" font-family="Times,serif" font-size="14.00">a</text>
</g>
<!-- 1&#45;&gt;1 -->
<g id="edge3" class="edge"><title>1&#45;&gt;1</title>
<path fill="none" stroke="black" d="M38.2903,-25.6679C48.3892,-27.5169 58,-24.9609 58,-18 58,-13.5406 54.0557,-10.8891 48.5656,-10.0454"/>
<polygon fill="black" stroke="black" points="48.1887,-6.55441 38.2903,-10.3321 48.384,-13.5517 48.1887,-6.55441"/>
<text text-anchor="middle" x="66.5" y="-14.3" font-family="Times,serif" font-size="14.00">b,a</text>
</g>
<!-- 2 -->
<g id="node3" class="node"><title>2</title>
<ellipse fill="green" stroke="black" cx="111" cy="-18" rx="18" ry="18"/>
<text text-anchor="middle" x="111" y="-14.3" font-family="Times,serif" font-size="14.00">2</text>
</g>
<!-- 2&#45;&gt;2 -->
<g id="edge4" class="edge"><title>2&#45;&gt;2</title>
<path fill="none" stroke="black" d="M127.29,-25.6679C137.389,-27.5169 147,-24.9609 147,-18 147,-13.5406 143.056,-10.8891 137.566,-10.0454"/>
<polygon fill="black" stroke="black" points="137.189,-6.55441 127.29,-10.3321 137.384,-13.5517 137.189,-6.55441"/>
<text text-anchor="middle" x="155.5" y="-14.3" font-family="Times,serif" font-size="14.00">b,a</text>
</g>
<!-- 3 -->
<g id="node4" class="node"><title>3</title>
<ellipse fill="lightblue" stroke="black" cx="108" cy="-110" rx="18" ry="18"/>
<text text-anchor="middle" x="108" y="-106.3" font-family="Times,serif" font-size="14.00">3</text>
</g>
<!-- 3&#45;&gt;1 -->
<g id="edge5" class="edge"><title>3&#45;&gt;1</title>
<path fill="none" stroke="black" d="M96.0421,-96.4859C81.8738,-81.6586 58.0777,-56.7558 41.2926,-39.1899"/>
<polygon fill="black" stroke="black" points="43.5727,-36.5099 34.1336,-31.698 38.5117,-41.3459 43.5727,-36.5099"/>
<text text-anchor="middle" x="73.5" y="-58.3" font-family="Times,serif" font-size="14.00">a</text>
</g>
<!-- 3&#45;&gt;2 -->
<g id="edge6" class="edge"><title>3&#45;&gt;2</title>
<path fill="none" stroke="black" d="M108.578,-91.6471C109.009,-78.7406 109.604,-60.8802 110.097,-46.0987"/>
<polygon fill="black" stroke="black" points="113.598,-46.1055 110.434,-35.9944 106.602,-45.8722 113.598,-46.1055"/>
<text text-anchor="middle" x="112.5" y="-58.3" font-family="Times,serif" font-size="14.00">b</text>
</g>
</g>
</svg>
