<?xml version="1.0" encoding="UTF-8" standalone="no"?>
<!DOCTYPE svg PUBLIC "-//W3C//DTD SVG 1.1//EN"
 "http://www.w3.org/Graphics/SVG/1.1/DTD/svg11.dtd">
<!-- Generated by graphviz version 2.36.0 (20140111.2315)
 -->
<!-- Title: %3 Pages: 1 -->
<svg width="133pt" height="316pt"
 viewBox="0.00 0.00 133.00 316.00" xmlns="http://www.w3.org/2000/svg" xmlns:xlink="http://www.w3.org/1999/xlink">
<g id="graph0" class="graph" transform="scale(1 1) rotate(0) translate(4 312)">
<title>%3</title>
<polygon fill="white" stroke="none" points="-4,4 -4,-312 129,-312 129,4 -4,4"/>
<!-- 0 -->
<g id="node1" class="node"><title>0</title>
<ellipse fill="lightblue" stroke="black" cx="21" cy="-286" rx="17.5909" ry="18"/>
<ellipse fill="none" stroke="black" cx="21" cy="-286" rx="21.5" ry="22"/>
<text text-anchor="middle" x="21" y="-282.3" font-family="Times,serif" font-size="14.00">0</text>
</g>
<!-- 3 -->
<g id="node4" class="node"><title>3</title>
<ellipse fill="green" stroke="black" cx="72" cy="-194" rx="18" ry="18"/>
<text text-anchor="middle" x="72" y="-190.3" font-family="Times,serif" font-size="14.00">3</text>
</g>
<!-- 0&#45;&gt;3 -->
<g id="edge1" class="edge"><title>0&#45;&gt;3</title>
<path fill="none" stroke="black" d="M31.5672,-266.352C39.3217,-252.668 49.9208,-233.963 58.3216,-219.138"/>
<polygon fill="black" stroke="black" points="61.5876,-220.474 63.4727,-210.048 55.4975,-217.023 61.5876,-220.474"/>
<text text-anchor="middle" x="54.5" y="-234.3" font-family="Times,serif" font-size="14.00">b</text>
</g>
<!-- 4 -->
<g id="node5" class="node"><title>4</title>
<ellipse fill="lightblue" stroke="black" cx="38" cy="-18" rx="18" ry="18"/>
<text text-anchor="middle" x="38" y="-14.3" font-family="Times,serif" font-size="14.00">4</text>
</g>
<!-- 0&#45;&gt;4 -->
<g id="edge2" class="edge"><title>0&#45;&gt;4</title>
<path fill="none" stroke="black" d="M22.3624,-263.682C25.4288,-215.702 32.8689,-99.2867 36.2617,-46.1989"/>
<polygon fill="black" stroke="black" points="39.7576,-46.3744 36.9026,-36.1715 32.7718,-45.9278 39.7576,-46.3744"/>
<text text-anchor="middle" x="33.5" y="-146.3" font-family="Times,serif" font-size="14.00">a</text>
</g>
<!-- 1 -->
<g id="node2" class="node"><title>1</title>
<ellipse fill="lightblue" stroke="black" cx="65" cy="-106" rx="18" ry="18"/>
<text text-anchor="middle" x="65" y="-102.3" font-family="Times,serif" font-size="14.00">1</text>
</g>
<!-- 1&#45;&gt;3 -->
<g id="edge3" class="edge"><title>1&#45;&gt;3</title>
<path fill="none" stroke="black" d="M61.1768,-123.612C59.4177,-133.618 58.0986,-146.592 60,-158 60.5217,-161.13 61.2891,-164.356 62.1877,-167.524"/>
<polygon fill="black" stroke="black" points="58.9349,-168.838 65.3664,-177.258 65.5891,-166.665 58.9349,-168.838"/>
<text text-anchor="middle" x="63.5" y="-146.3" font-family="Times,serif" font-size="14.00">a</text>
</g>
<!-- 1&#45;&gt;4 -->
<g id="edge4" class="edge"><title>1&#45;&gt;4</title>
<path fill="none" stroke="black" d="M59.7941,-88.4183C55.9468,-76.164 50.6323,-59.2361 46.2144,-45.1645"/>
<polygon fill="black" stroke="black" points="49.5246,-44.0232 43.1899,-35.5308 42.846,-46.12 49.5246,-44.0232"/>
<text text-anchor="middle" x="56.5" y="-58.3" font-family="Times,serif" font-size="14.00">b</text>
</g>
<!-- 2 -->
<g id="node3" class="node"><title>2</title>
<ellipse fill="lightblue" stroke="black" cx="82" cy="-286" rx="18" ry="18"/>
<text text-anchor="middle" x="82" y="-282.3" font-family="Times,serif" font-size="14.00">2</text>
</g>
<!-- 2&#45;&gt;2 -->
<g id="edge5" class="edge"><title>2&#45;&gt;2</title>
<path fill="none" stroke="black" d="M98.2903,-294.365C108.389,-296.382 118,-293.594 118,-286 118,-281.135 114.056,-278.243 108.566,-277.322"/>
<polygon fill="black" stroke="black" points="108.179,-273.832 98.2903,-277.635 108.392,-280.829 108.179,-273.832"/>
<text text-anchor="middle" x="121.5" y="-282.3" font-family="Times,serif" font-size="14.00">a</text>
</g>
<!-- 2&#45;&gt;3 -->
<g id="edge6" class="edge"><title>2&#45;&gt;3</title>
<path fill="none" stroke="black" d="M80.1191,-268.072C78.6895,-255.206 76.6936,-237.242 75.0385,-222.346"/>
<polygon fill="black" stroke="black" points="78.4895,-221.711 73.9065,-212.158 71.5323,-222.484 78.4895,-221.711"/>
<text text-anchor="middle" x="80.5" y="-234.3" font-family="Times,serif" font-size="14.00">b</text>
</g>
<!-- 3&#45;&gt;1 -->
<g id="edge7" class="edge"><title>3&#45;&gt;1</title>
<path fill="none" stroke="black" d="M70.617,-176.009C69.6487,-164.112 68.3341,-147.961 67.22,-134.275"/>
<polygon fill="black" stroke="black" points="70.6799,-133.639 66.3801,-123.956 63.703,-134.207 70.6799,-133.639"/>
<text text-anchor="middle" x="72.5" y="-146.3" font-family="Times,serif" font-size="14.00">a</text>
</g>
<!-- 3&#45;&gt;3 -->
<g id="edge8" class="edge"><title>3&#45;&gt;3</title>
<path fill="none" stroke="black" d="M88.2903,-201.668C98.3892,-203.517 108,-200.961 108,-194 108,-189.541 104.056,-186.889 98.5656,-186.045"/>
<polygon fill="black" stroke="black" points="98.1887,-182.554 88.2903,-186.332 98.384,-189.552 98.1887,-182.554"/>
<text text-anchor="middle" x="111.5" y="-190.3" font-family="Times,serif" font-size="14.00">b</text>
</g>
<!-- 4&#45;&gt;4 -->
<g id="edge9" class="edge"><title>4&#45;&gt;4</title>
<path fill="none" stroke="black" d="M54.2903,-25.6679C64.3892,-27.5169 74,-24.9609 74,-18 74,-13.5406 70.0557,-10.8891 64.5656,-10.0454"/>
<polygon fill="black" stroke="black" points="64.1887,-6.55441 54.2903,-10.3321 64.384,-13.5517 64.1887,-6.55441"/>
<text text-anchor="middle" x="82.5" y="-14.3" font-family="Times,serif" font-size="14.00">b,a</text>
</g>
</g>
</svg>
