<?xml version="1.0" encoding="UTF-8" standalone="no"?>
<!DOCTYPE svg PUBLIC "-//W3C//DTD SVG 1.1//EN"
 "http://www.w3.org/Graphics/SVG/1.1/DTD/svg11.dtd">
<!-- Generated by graphviz version 2.36.0 (20140111.2315)
 -->
<!-- Title: %3 Pages: 1 -->
<svg width="170pt" height="316pt"
 viewBox="0.00 0.00 170.00 316.00" xmlns="http://www.w3.org/2000/svg" xmlns:xlink="http://www.w3.org/1999/xlink">
<g id="graph0" class="graph" transform="scale(1 1) rotate(0) translate(4 312)">
<title>%3</title>
<polygon fill="white" stroke="none" points="-4,4 -4,-312 166,-312 166,4 -4,4"/>
<!-- 0 -->
<g id="node1" class="node"><title>0</title>
<ellipse fill="lightblue" stroke="black" cx="61" cy="-18" rx="18" ry="18"/>
<text text-anchor="middle" x="61" y="-14.3" font-family="Times,serif" font-size="14.00">0</text>
</g>
<!-- 0&#45;&gt;0 -->
<g id="edge1" class="edge"><title>0&#45;&gt;0</title>
<path fill="none" stroke="black" d="M77.2903,-25.6679C87.3892,-27.5169 97,-24.9609 97,-18 97,-13.5406 93.0557,-10.8891 87.5656,-10.0454"/>
<polygon fill="black" stroke="black" points="87.1887,-6.55441 77.2903,-10.3321 87.384,-13.5517 87.1887,-6.55441"/>
<text text-anchor="middle" x="105.5" y="-14.3" font-family="Times,serif" font-size="14.00">b,a</text>
</g>
<!-- 1 -->
<g id="node2" class="node"><title>1</title>
<ellipse fill="lightblue" stroke="black" cx="18" cy="-290" rx="18" ry="18"/>
<text text-anchor="middle" x="18" y="-286.3" font-family="Times,serif" font-size="14.00">1</text>
</g>
<!-- 1&#45;&gt;0 -->
<g id="edge2" class="edge"><title>1&#45;&gt;0</title>
<path fill="none" stroke="black" d="M18.8905,-271.695C20.1814,-249.458 22.9852,-209.701 28,-176 34.8574,-129.916 46.8431,-77.0235 54.3273,-45.8963"/>
<polygon fill="black" stroke="black" points="57.8104,-46.3845 56.771,-35.8408 51.0084,-44.7314 57.8104,-46.3845"/>
<text text-anchor="middle" x="36.5" y="-146.3" font-family="Times,serif" font-size="14.00">b</text>
</g>
<!-- 2 -->
<g id="node3" class="node"><title>2</title>
<ellipse fill="green" stroke="black" cx="59" cy="-198" rx="17.5909" ry="18"/>
<ellipse fill="none" stroke="black" cx="59" cy="-198" rx="21.5" ry="22"/>
<text text-anchor="middle" x="59" y="-194.3" font-family="Times,serif" font-size="14.00">2</text>
</g>
<!-- 1&#45;&gt;2 -->
<g id="edge3" class="edge"><title>1&#45;&gt;2</title>
<path fill="none" stroke="black" d="M25.1417,-273.323C30.863,-260.764 39.0433,-242.807 45.9298,-227.691"/>
<polygon fill="black" stroke="black" points="49.269,-228.803 50.2296,-218.252 42.8989,-225.901 49.269,-228.803"/>
<text text-anchor="middle" x="43.5" y="-242.3" font-family="Times,serif" font-size="14.00">a</text>
</g>
<!-- 2&#45;&gt;0 -->
<g id="edge4" class="edge"><title>2&#45;&gt;0</title>
<path fill="none" stroke="black" d="M58.4156,-175.694C57.9043,-153.72 57.3381,-118.461 58,-88 58.2982,-74.2779 58.9295,-59.0316 59.5364,-46.3678"/>
<polygon fill="black" stroke="black" points="63.0506,-46.1693 60.0545,-36.0069 56.0594,-45.8196 63.0506,-46.1693"/>
<text text-anchor="middle" x="61.5" y="-102.3" font-family="Times,serif" font-size="14.00">a</text>
</g>
<!-- 4 -->
<g id="node5" class="node"><title>4</title>
<ellipse fill="lightblue" stroke="black" cx="92" cy="-106" rx="18" ry="18"/>
<text text-anchor="middle" x="92" y="-102.3" font-family="Times,serif" font-size="14.00">4</text>
</g>
<!-- 2&#45;&gt;4 -->
<g id="edge5" class="edge"><title>2&#45;&gt;4</title>
<path fill="none" stroke="black" d="M64.6021,-176.673C67.658,-166.205 71.6915,-153.3 76,-142 77.2765,-138.652 78.7202,-135.171 80.2052,-131.76"/>
<polygon fill="black" stroke="black" points="83.4623,-133.051 84.3946,-122.498 77.0844,-130.167 83.4623,-133.051"/>
<text text-anchor="middle" x="79.5" y="-146.3" font-family="Times,serif" font-size="14.00">b</text>
</g>
<!-- 3 -->
<g id="node4" class="node"><title>3</title>
<ellipse fill="lightblue" stroke="black" cx="144" cy="-198" rx="18" ry="18"/>
<text text-anchor="middle" x="144" y="-194.3" font-family="Times,serif" font-size="14.00">3</text>
</g>
<!-- 3&#45;&gt;0 -->
<g id="edge6" class="edge"><title>3&#45;&gt;0</title>
<path fill="none" stroke="black" d="M142.635,-179.896C140.305,-157.674 134.228,-118.155 119,-88 109.537,-69.2597 94.0634,-51.2118 81.4782,-38.2772"/>
<polygon fill="black" stroke="black" points="83.6502,-35.5006 74.0948,-30.9239 78.7105,-40.4605 83.6502,-35.5006"/>
<text text-anchor="middle" x="135.5" y="-102.3" font-family="Times,serif" font-size="14.00">b</text>
</g>
<!-- 3&#45;&gt;4 -->
<g id="edge7" class="edge"><title>3&#45;&gt;4</title>
<path fill="none" stroke="black" d="M135.413,-182.138C127.359,-168.199 115.179,-147.118 105.768,-130.83"/>
<polygon fill="black" stroke="black" points="108.633,-128.791 100.599,-121.884 102.572,-132.293 108.633,-128.791"/>
<text text-anchor="middle" x="124.5" y="-146.3" font-family="Times,serif" font-size="14.00">a</text>
</g>
<!-- 4&#45;&gt;0 -->
<g id="edge8" class="edge"><title>4&#45;&gt;0</title>
<path fill="none" stroke="black" d="M86.1691,-88.8241C81.7093,-76.4516 75.4713,-59.1462 70.3214,-44.8593"/>
<polygon fill="black" stroke="black" points="73.4885,-43.324 66.8047,-35.1034 66.9032,-45.6978 73.4885,-43.324"/>
<text text-anchor="middle" x="82.5" y="-58.3" font-family="Times,serif" font-size="14.00">a</text>
</g>
<!-- 4&#45;&gt;2 -->
<g id="edge9" class="edge"><title>4&#45;&gt;2</title>
<path fill="none" stroke="black" d="M89.6677,-123.903C87.9526,-134.013 85.1813,-146.992 81,-158 79.4472,-162.088 77.5147,-166.262 75.4442,-170.288"/>
<polygon fill="black" stroke="black" points="72.239,-168.852 70.4766,-179.299 78.3693,-172.231 72.239,-168.852"/>
<text text-anchor="middle" x="88.5" y="-146.3" font-family="Times,serif" font-size="14.00">b</text>
</g>
</g>
</svg>
