<?xml version="1.0" encoding="UTF-8" standalone="no"?>
<!DOCTYPE svg PUBLIC "-//W3C//DTD SVG 1.1//EN"
 "http://www.w3.org/Graphics/SVG/1.1/DTD/svg11.dtd">
<!-- Generated by graphviz version 2.36.0 (20140111.2315)
 -->
<!-- Title: %3 Pages: 1 -->
<svg width="157pt" height="404pt"
 viewBox="0.00 0.00 157.00 404.00" xmlns="http://www.w3.org/2000/svg" xmlns:xlink="http://www.w3.org/1999/xlink">
<g id="graph0" class="graph" transform="scale(1 1) rotate(0) translate(4 400)">
<title>%3</title>
<polygon fill="white" stroke="none" points="-4,4 -4,-400 153,-400 153,4 -4,4"/>
<!-- 0 -->
<g id="node1" class="node"><title>0</title>
<ellipse fill="lightblue" stroke="black" cx="72" cy="-378" rx="18" ry="18"/>
<text text-anchor="middle" x="72" y="-374.3" font-family="Times,serif" font-size="14.00">0</text>
</g>
<!-- 1 -->
<g id="node2" class="node"><title>1</title>
<ellipse fill="lightblue" stroke="black" cx="18" cy="-290" rx="18" ry="18"/>
<text text-anchor="middle" x="18" y="-286.3" font-family="Times,serif" font-size="14.00">1</text>
</g>
<!-- 0&#45;&gt;1 -->
<g id="edge1" class="edge"><title>0&#45;&gt;1</title>
<path fill="none" stroke="black" d="M62.8396,-362.411C54.6164,-349.315 42.3971,-329.855 32.7902,-314.555"/>
<polygon fill="black" stroke="black" points="35.4871,-312.268 27.2053,-305.66 29.5589,-315.99 35.4871,-312.268"/>
<text text-anchor="middle" x="52.5" y="-330.3" font-family="Times,serif" font-size="14.00">a</text>
</g>
<!-- 2 -->
<g id="node3" class="node"><title>2</title>
<ellipse fill="lightblue" stroke="black" cx="103" cy="-110" rx="17.5909" ry="18"/>
<ellipse fill="none" stroke="black" cx="103" cy="-110" rx="21.5" ry="22"/>
<text text-anchor="middle" x="103" y="-106.3" font-family="Times,serif" font-size="14.00">2</text>
</g>
<!-- 0&#45;&gt;2 -->
<g id="edge2" class="edge"><title>0&#45;&gt;2</title>
<path fill="none" stroke="black" d="M88.4554,-370.212C99.8739,-364.525 114.207,-355.2 121,-342 160.047,-266.124 139.306,-233.347 121,-150 120.184,-146.285 118.979,-142.503 117.572,-138.827"/>
<polygon fill="black" stroke="black" points="120.7,-137.243 113.505,-129.466 114.28,-140.033 120.7,-137.243"/>
<text text-anchor="middle" x="145.5" y="-242.3" font-family="Times,serif" font-size="14.00">b</text>
</g>
<!-- 1&#45;&gt;0 -->
<g id="edge3" class="edge"><title>1&#45;&gt;0</title>
<path fill="none" stroke="black" d="M18.8435,-308.131C20.0212,-318.566 22.7504,-331.807 29,-342 33.8458,-349.903 41.1317,-356.814 48.3359,-362.36"/>
<polygon fill="black" stroke="black" points="46.422,-365.293 56.6042,-368.222 50.4704,-359.583 46.422,-365.293"/>
<text text-anchor="middle" x="32.5" y="-330.3" font-family="Times,serif" font-size="14.00">a</text>
</g>
<!-- 4 -->
<g id="node5" class="node"><title>4</title>
<ellipse fill="green" stroke="black" cx="56" cy="-202" rx="18" ry="18"/>
<text text-anchor="middle" x="56" y="-198.3" font-family="Times,serif" font-size="14.00">4</text>
</g>
<!-- 1&#45;&gt;4 -->
<g id="edge4" class="edge"><title>1&#45;&gt;4</title>
<path fill="none" stroke="black" d="M24.9698,-273.226C30.5406,-260.619 38.4555,-242.706 44.8971,-228.128"/>
<polygon fill="black" stroke="black" points="48.2341,-229.235 49.0744,-218.674 41.8313,-226.406 48.2341,-229.235"/>
<text text-anchor="middle" x="43.5" y="-242.3" font-family="Times,serif" font-size="14.00">b</text>
</g>
<!-- 2&#45;&gt;0 -->
<g id="edge5" class="edge"><title>2&#45;&gt;0</title>
<path fill="none" stroke="black" d="M102.401,-132.203C100.953,-173.102 96.2566,-265.599 82,-342 81.4566,-344.912 80.7769,-347.931 80.0291,-350.92"/>
<polygon fill="black" stroke="black" points="76.5974,-350.2 77.3231,-360.77 83.3473,-352.055 76.5974,-350.2"/>
<text text-anchor="middle" x="98.5" y="-242.3" font-family="Times,serif" font-size="14.00">a</text>
</g>
<!-- 3 -->
<g id="node4" class="node"><title>3</title>
<ellipse fill="lightblue" stroke="black" cx="73" cy="-18" rx="18" ry="18"/>
<text text-anchor="middle" x="73" y="-14.3" font-family="Times,serif" font-size="14.00">3</text>
</g>
<!-- 2&#45;&gt;3 -->
<g id="edge6" class="edge"><title>2&#45;&gt;3</title>
<path fill="none" stroke="black" d="M96.342,-89.0261C92.0081,-76.0244 86.312,-58.9359 81.6316,-44.8948"/>
<polygon fill="black" stroke="black" points="84.9199,-43.6914 78.4371,-35.3114 78.2791,-45.905 84.9199,-43.6914"/>
<text text-anchor="middle" x="92.5" y="-58.3" font-family="Times,serif" font-size="14.00">b</text>
</g>
<!-- 3&#45;&gt;3 -->
<g id="edge7" class="edge"><title>3&#45;&gt;3</title>
<path fill="none" stroke="black" d="M89.2903,-25.6679C99.3892,-27.5169 109,-24.9609 109,-18 109,-13.5406 105.056,-10.8891 99.5656,-10.0454"/>
<polygon fill="black" stroke="black" points="99.1887,-6.55441 89.2903,-10.3321 99.384,-13.5517 99.1887,-6.55441"/>
<text text-anchor="middle" x="112.5" y="-14.3" font-family="Times,serif" font-size="14.00">a</text>
</g>
<!-- 3&#45;&gt;4 -->
<g id="edge8" class="edge"><title>3&#45;&gt;4</title>
<path fill="none" stroke="black" d="M70.8571,-35.9954C69.1391,-49.9505 66.7366,-70.2368 65,-88 62.1402,-117.252 59.5541,-150.833 57.8956,-173.735"/>
<polygon fill="black" stroke="black" points="54.4015,-173.529 57.1801,-183.753 61.3837,-174.028 54.4015,-173.529"/>
<text text-anchor="middle" x="68.5" y="-106.3" font-family="Times,serif" font-size="14.00">b</text>
</g>
<!-- 4&#45;&gt;0 -->
<g id="edge9" class="edge"><title>4&#45;&gt;0</title>
<path fill="none" stroke="black" d="M57.5696,-220.07C60.3463,-250.266 66.1457,-313.334 69.4853,-349.653"/>
<polygon fill="black" stroke="black" points="66.0357,-350.362 70.4367,-359.999 73.0063,-349.721 66.0357,-350.362"/>
<text text-anchor="middle" x="68.5" y="-286.3" font-family="Times,serif" font-size="14.00">a</text>
</g>
<!-- 4&#45;&gt;2 -->
<g id="edge10" class="edge"><title>4&#45;&gt;2</title>
<path fill="none" stroke="black" d="M63.9729,-185.733C70.653,-172.941 80.3629,-154.348 88.4261,-138.907"/>
<polygon fill="black" stroke="black" points="91.6653,-140.266 93.192,-129.781 85.4605,-137.025 91.6653,-140.266"/>
<text text-anchor="middle" x="85.5" y="-154.3" font-family="Times,serif" font-size="14.00">b</text>
</g>
</g>
</svg>
