<?xml version="1.0" encoding="UTF-8" standalone="no"?>
<!DOCTYPE svg PUBLIC "-//W3C//DTD SVG 1.1//EN"
 "http://www.w3.org/Graphics/SVG/1.1/DTD/svg11.dtd">
<!-- Generated by graphviz version 2.36.0 (20140111.2315)
 -->
<!-- Title: %3 Pages: 1 -->
<svg width="122pt" height="404pt"
 viewBox="0.00 0.00 122.00 404.00" xmlns="http://www.w3.org/2000/svg" xmlns:xlink="http://www.w3.org/1999/xlink">
<g id="graph0" class="graph" transform="scale(1 1) rotate(0) translate(4 400)">
<title>%3</title>
<polygon fill="white" stroke="none" points="-4,4 -4,-400 118,-400 118,4 -4,4"/>
<!-- 0 -->
<g id="node1" class="node"><title>0</title>
<ellipse fill="green" stroke="black" cx="90" cy="-378" rx="18" ry="18"/>
<text text-anchor="middle" x="90" y="-374.3" font-family="Times,serif" font-size="14.00">0</text>
</g>
<!-- 1 -->
<g id="node2" class="node"><title>1</title>
<ellipse fill="lightblue" stroke="black" cx="61" cy="-290" rx="18" ry="18"/>
<text text-anchor="middle" x="61" y="-286.3" font-family="Times,serif" font-size="14.00">1</text>
</g>
<!-- 0&#45;&gt;1 -->
<g id="edge1" class="edge"><title>0&#45;&gt;1</title>
<path fill="none" stroke="black" d="M84.5453,-360.824C80.3996,-348.53 74.6115,-331.365 69.8116,-317.131"/>
<polygon fill="black" stroke="black" points="73.0407,-315.753 66.5288,-307.396 66.4077,-317.99 73.0407,-315.753"/>
<text text-anchor="middle" x="81.5" y="-330.3" font-family="Times,serif" font-size="14.00">a</text>
</g>
<!-- 4 -->
<g id="node5" class="node"><title>4</title>
<ellipse fill="lightblue" stroke="black" cx="61" cy="-22" rx="17.5909" ry="18"/>
<ellipse fill="none" stroke="black" cx="61" cy="-22" rx="21.5" ry="22"/>
<text text-anchor="middle" x="61" y="-18.3" font-family="Times,serif" font-size="14.00">4</text>
</g>
<!-- 0&#45;&gt;4 -->
<g id="edge2" class="edge"><title>0&#45;&gt;4</title>
<path fill="none" stroke="black" d="M95.1929,-360.703C100.192,-343.545 107,-315.656 107,-291 107,-291 107,-291 107,-113 107,-88.7925 93.642,-64.5397 81.3227,-47.32"/>
<polygon fill="black" stroke="black" points="83.8635,-44.8758 75.0515,-38.9938 78.2721,-49.0873 83.8635,-44.8758"/>
<text text-anchor="middle" x="110.5" y="-198.3" font-family="Times,serif" font-size="14.00">b</text>
</g>
<!-- 2 -->
<g id="node3" class="node"><title>2</title>
<ellipse fill="lightblue" stroke="black" cx="48" cy="-202" rx="18" ry="18"/>
<text text-anchor="middle" x="48" y="-198.3" font-family="Times,serif" font-size="14.00">2</text>
</g>
<!-- 1&#45;&gt;2 -->
<g id="edge3" class="edge"><title>1&#45;&gt;2</title>
<path fill="none" stroke="black" d="M48.4684,-276.926C42.8867,-270.677 36.9219,-262.571 34,-254 31.0615,-245.38 32.5017,-235.784 35.3687,-227.261"/>
<polygon fill="black" stroke="black" points="38.6624,-228.454 39.2128,-217.874 32.1844,-225.801 38.6624,-228.454"/>
<text text-anchor="middle" x="42.5" y="-242.3" font-family="Times,serif" font-size="14.00">b,a</text>
</g>
<!-- 2&#45;&gt;1 -->
<g id="edge4" class="edge"><title>2&#45;&gt;1</title>
<path fill="none" stroke="black" d="M50.563,-219.956C52.3779,-231.961 54.8497,-248.313 56.9323,-262.09"/>
<polygon fill="black" stroke="black" points="53.4762,-262.645 58.4316,-272.009 60.3976,-261.598 53.4762,-262.645"/>
<text text-anchor="middle" x="58.5" y="-242.3" font-family="Times,serif" font-size="14.00">b</text>
</g>
<!-- 3 -->
<g id="node4" class="node"><title>3</title>
<ellipse fill="lightblue" stroke="black" cx="18" cy="-114" rx="18" ry="18"/>
<text text-anchor="middle" x="18" y="-110.3" font-family="Times,serif" font-size="14.00">3</text>
</g>
<!-- 2&#45;&gt;3 -->
<g id="edge5" class="edge"><title>2&#45;&gt;3</title>
<path fill="none" stroke="black" d="M35.6868,-188.848C30.1568,-182.581 24.1724,-174.482 21,-166 18.223,-158.575 17.0193,-150.119 16.6289,-142.256"/>
<polygon fill="black" stroke="black" points="20.1269,-142.019 16.5293,-132.054 13.1272,-142.088 20.1269,-142.019"/>
<text text-anchor="middle" x="24.5" y="-154.3" font-family="Times,serif" font-size="14.00">a</text>
</g>
<!-- 3&#45;&gt;2 -->
<g id="edge6" class="edge"><title>3&#45;&gt;2</title>
<path fill="none" stroke="black" d="M23.6175,-131.103C27.9267,-143.457 33.9622,-160.758 38.9501,-175.057"/>
<polygon fill="black" stroke="black" points="35.7587,-176.535 42.3572,-184.824 42.3681,-174.229 35.7587,-176.535"/>
<text text-anchor="middle" x="39.5" y="-154.3" font-family="Times,serif" font-size="14.00">a</text>
</g>
<!-- 3&#45;&gt;4 -->
<g id="edge7" class="edge"><title>3&#45;&gt;4</title>
<path fill="none" stroke="black" d="M16.4412,-95.7182C16.2117,-85.4736 17.1677,-72.4859 22,-62 25.3063,-54.8255 30.532,-48.2248 36.0965,-42.5733"/>
<polygon fill="black" stroke="black" points="38.7865,-44.8524 43.7461,-35.4901 34.0306,-39.7162 38.7865,-44.8524"/>
<text text-anchor="middle" x="25.5" y="-66.3" font-family="Times,serif" font-size="14.00">b</text>
</g>
<!-- 4&#45;&gt;2 -->
<g id="edge8" class="edge"><title>4&#45;&gt;2</title>
<path fill="none" stroke="black" d="M59.4585,-44.1069C57.0988,-76.4168 52.5915,-138.132 49.9887,-173.771"/>
<polygon fill="black" stroke="black" points="46.4843,-173.704 49.2465,-183.933 53.4657,-174.214 46.4843,-173.704"/>
<text text-anchor="middle" x="58.5" y="-110.3" font-family="Times,serif" font-size="14.00">a</text>
</g>
<!-- 4&#45;&gt;3 -->
<g id="edge9" class="edge"><title>4&#45;&gt;3</title>
<path fill="none" stroke="black" d="M51.8018,-42.252C45.4239,-55.6012 36.8691,-73.5064 29.9618,-87.9636"/>
<polygon fill="black" stroke="black" points="26.643,-86.7913 25.49,-97.3232 32.9592,-89.809 26.643,-86.7913"/>
<text text-anchor="middle" x="46.5" y="-66.3" font-family="Times,serif" font-size="14.00">b</text>
</g>
</g>
</svg>
