<?xml version="1.0" encoding="UTF-8" standalone="no"?>
<!DOCTYPE svg PUBLIC "-//W3C//DTD SVG 1.1//EN"
 "http://www.w3.org/Graphics/SVG/1.1/DTD/svg11.dtd">
<!-- Generated by graphviz version 2.36.0 (20140111.2315)
 -->
<!-- Title: %3 Pages: 1 -->
<svg width="123pt" height="316pt"
 viewBox="0.00 0.00 123.00 316.00" xmlns="http://www.w3.org/2000/svg" xmlns:xlink="http://www.w3.org/1999/xlink">
<g id="graph0" class="graph" transform="scale(1 1) rotate(0) translate(4 312)">
<title>%3</title>
<polygon fill="white" stroke="none" points="-4,4 -4,-312 119,-312 119,4 -4,4"/>
<!-- 0 -->
<g id="node1" class="node"><title>0</title>
<ellipse fill="green" stroke="black" cx="18" cy="-194" rx="18" ry="18"/>
<text text-anchor="middle" x="18" y="-190.3" font-family="Times,serif" font-size="14.00">0</text>
</g>
<!-- 0&#45;&gt;0 -->
<g id="edge1" class="edge"><title>0&#45;&gt;0</title>
<path fill="none" stroke="black" d="M34.2903,-201.668C44.3892,-203.517 54,-200.961 54,-194 54,-189.541 50.0557,-186.889 44.5656,-186.045"/>
<polygon fill="black" stroke="black" points="44.1887,-182.554 34.2903,-186.332 44.384,-189.552 44.1887,-182.554"/>
<text text-anchor="middle" x="57.5" y="-190.3" font-family="Times,serif" font-size="14.00">a</text>
</g>
<!-- 3 -->
<g id="node4" class="node"><title>3</title>
<ellipse fill="lightblue" stroke="black" cx="72" cy="-106" rx="18" ry="18"/>
<text text-anchor="middle" x="72" y="-102.3" font-family="Times,serif" font-size="14.00">3</text>
</g>
<!-- 0&#45;&gt;3 -->
<g id="edge2" class="edge"><title>0&#45;&gt;3</title>
<path fill="none" stroke="black" d="M27.1604,-178.411C35.3836,-165.315 47.6029,-145.855 57.2098,-130.555"/>
<polygon fill="black" stroke="black" points="60.4411,-131.99 62.7947,-121.66 54.5129,-128.268 60.4411,-131.99"/>
<text text-anchor="middle" x="52.5" y="-146.3" font-family="Times,serif" font-size="14.00">b</text>
</g>
<!-- 1 -->
<g id="node2" class="node"><title>1</title>
<ellipse fill="lightblue" stroke="black" cx="72" cy="-18" rx="18" ry="18"/>
<text text-anchor="middle" x="72" y="-14.3" font-family="Times,serif" font-size="14.00">1</text>
</g>
<!-- 1&#45;&gt;3 -->
<g id="edge3" class="edge"><title>1&#45;&gt;3</title>
<path fill="none" stroke="black" d="M72,-36.084C72,-47.8607 72,-63.7741 72,-77.342"/>
<polygon fill="black" stroke="black" points="68.5001,-77.5966 72,-87.5966 75.5001,-77.5967 68.5001,-77.5966"/>
<text text-anchor="middle" x="80.5" y="-58.3" font-family="Times,serif" font-size="14.00">b,a</text>
</g>
<!-- 2 -->
<g id="node3" class="node"><title>2</title>
<ellipse fill="lightblue" stroke="black" cx="72" cy="-286" rx="17.5909" ry="18"/>
<ellipse fill="none" stroke="black" cx="72" cy="-286" rx="21.5" ry="22"/>
<text text-anchor="middle" x="72" y="-282.3" font-family="Times,serif" font-size="14.00">2</text>
</g>
<!-- 2&#45;&gt;0 -->
<g id="edge4" class="edge"><title>2&#45;&gt;0</title>
<path fill="none" stroke="black" d="M61.0723,-266.787C52.7523,-252.921 41.231,-233.718 32.1976,-218.663"/>
<polygon fill="black" stroke="black" points="35.0916,-216.683 26.9454,-209.909 29.0892,-220.285 35.0916,-216.683"/>
<text text-anchor="middle" x="51.5" y="-234.3" font-family="Times,serif" font-size="14.00">b</text>
</g>
<!-- 2&#45;&gt;3 -->
<g id="edge5" class="edge"><title>2&#45;&gt;3</title>
<path fill="none" stroke="black" d="M72,-263.882C72,-231.584 72,-169.922 72,-134.279"/>
<polygon fill="black" stroke="black" points="75.5001,-134.114 72,-124.114 68.5001,-134.114 75.5001,-134.114"/>
<text text-anchor="middle" x="75.5" y="-190.3" font-family="Times,serif" font-size="14.00">a</text>
</g>
<!-- 3&#45;&gt;1 -->
<g id="edge6" class="edge"><title>3&#45;&gt;1</title>
<path fill="none" stroke="black" d="M65.8003,-88.8629C63.8558,-83.0135 61.966,-76.2957 61,-70 59.9215,-62.9712 59.9215,-61.0288 61,-54 61.4528,-51.0489 62.1086,-48.005 62.8779,-45.0013"/>
<polygon fill="black" stroke="black" points="66.3155,-45.7194 65.8003,-35.1371 59.6038,-43.7309 66.3155,-45.7194"/>
<text text-anchor="middle" x="64.5" y="-58.3" font-family="Times,serif" font-size="14.00">a</text>
</g>
<!-- 3&#45;&gt;3 -->
<g id="edge7" class="edge"><title>3&#45;&gt;3</title>
<path fill="none" stroke="black" d="M88.2903,-113.668C98.3892,-115.517 108,-112.961 108,-106 108,-101.541 104.056,-98.8891 98.5656,-98.0454"/>
<polygon fill="black" stroke="black" points="98.1887,-94.5544 88.2903,-98.3321 98.384,-101.552 98.1887,-94.5544"/>
<text text-anchor="middle" x="111.5" y="-102.3" font-family="Times,serif" font-size="14.00">b</text>
</g>
</g>
</svg>
