<?xml version="1.0" encoding="UTF-8" standalone="no"?>
<!DOCTYPE svg PUBLIC "-//W3C//DTD SVG 1.1//EN"
 "http://www.w3.org/Graphics/SVG/1.1/DTD/svg11.dtd">
<!-- Generated by graphviz version 2.36.0 (20140111.2315)
 -->
<!-- Title: %3 Pages: 1 -->
<svg width="117pt" height="316pt"
 viewBox="0.00 0.00 117.00 316.00" xmlns="http://www.w3.org/2000/svg" xmlns:xlink="http://www.w3.org/1999/xlink">
<g id="graph0" class="graph" transform="scale(1 1) rotate(0) translate(4 312)">
<title>%3</title>
<polygon fill="white" stroke="none" points="-4,4 -4,-312 113,-312 113,4 -4,4"/>
<!-- 0 -->
<g id="node1" class="node"><title>0</title>
<ellipse fill="lightblue" stroke="black" cx="62" cy="-290" rx="18" ry="18"/>
<text text-anchor="middle" x="62" y="-286.3" font-family="Times,serif" font-size="14.00">0</text>
</g>
<!-- 0&#45;&gt;0 -->
<g id="edge1" class="edge"><title>0&#45;&gt;0</title>
<path fill="none" stroke="black" d="M78.2903,-297.668C88.3892,-299.517 98,-296.961 98,-290 98,-285.541 94.0557,-282.889 88.5656,-282.045"/>
<polygon fill="black" stroke="black" points="88.1887,-278.554 78.2903,-282.332 88.384,-285.552 88.1887,-278.554"/>
<text text-anchor="middle" x="101.5" y="-286.3" font-family="Times,serif" font-size="14.00">b</text>
</g>
<!-- 3 -->
<g id="node4" class="node"><title>3</title>
<ellipse fill="green" stroke="black" cx="32" cy="-198" rx="17.5909" ry="18"/>
<ellipse fill="none" stroke="black" cx="32" cy="-198" rx="21.5" ry="22"/>
<text text-anchor="middle" x="32" y="-194.3" font-family="Times,serif" font-size="14.00">3</text>
</g>
<!-- 0&#45;&gt;3 -->
<g id="edge2" class="edge"><title>0&#45;&gt;3</title>
<path fill="none" stroke="black" d="M49.671,-276.853C44.1373,-270.588 38.1543,-262.489 35,-254 32.2207,-246.521 30.9345,-238.074 30.4632,-230.086"/>
<polygon fill="black" stroke="black" points="33.9601,-229.894 30.2561,-219.967 26.9616,-230.037 33.9601,-229.894"/>
<text text-anchor="middle" x="38.5" y="-242.3" font-family="Times,serif" font-size="14.00">a</text>
</g>
<!-- 1 -->
<g id="node2" class="node"><title>1</title>
<ellipse fill="lightblue" stroke="black" cx="66" cy="-18" rx="18" ry="18"/>
<text text-anchor="middle" x="66" y="-14.3" font-family="Times,serif" font-size="14.00">1</text>
</g>
<!-- 1&#45;&gt;0 -->
<g id="edge3" class="edge"><title>1&#45;&gt;0</title>
<path fill="none" stroke="black" d="M67.2606,-36.0017C68.2293,-49.9604 69.4859,-70.2485 70,-88 71.7943,-149.956 67.2556,-222.615 64.3025,-261.358"/>
<polygon fill="black" stroke="black" points="60.7765,-261.553 63.482,-271.797 67.755,-262.102 60.7765,-261.553"/>
<text text-anchor="middle" x="73.5" y="-146.3" font-family="Times,serif" font-size="14.00">b</text>
</g>
<!-- 1&#45;&gt;1 -->
<g id="edge4" class="edge"><title>1&#45;&gt;1</title>
<path fill="none" stroke="black" d="M82.2903,-25.6679C92.3892,-27.5169 102,-24.9609 102,-18 102,-13.5406 98.0557,-10.8891 92.5656,-10.0454"/>
<polygon fill="black" stroke="black" points="92.1887,-6.55441 82.2903,-10.3321 92.384,-13.5517 92.1887,-6.55441"/>
<text text-anchor="middle" x="105.5" y="-14.3" font-family="Times,serif" font-size="14.00">a</text>
</g>
<!-- 2 -->
<g id="node3" class="node"><title>2</title>
<ellipse fill="lightblue" stroke="black" cx="18" cy="-106" rx="18" ry="18"/>
<text text-anchor="middle" x="18" y="-102.3" font-family="Times,serif" font-size="14.00">2</text>
</g>
<!-- 2&#45;&gt;1 -->
<g id="edge5" class="edge"><title>2&#45;&gt;1</title>
<path fill="none" stroke="black" d="M26.361,-90.0199C33.6123,-77.0279 44.2374,-57.9914 52.6623,-42.8968"/>
<polygon fill="black" stroke="black" points="55.7563,-44.5347 57.5738,-34.0969 49.6439,-41.1231 55.7563,-44.5347"/>
<text text-anchor="middle" x="49.5" y="-58.3" font-family="Times,serif" font-size="14.00">a</text>
</g>
<!-- 2&#45;&gt;2 -->
<g id="edge6" class="edge"><title>2&#45;&gt;2</title>
<path fill="none" stroke="black" d="M34.2903,-113.668C44.3892,-115.517 54,-112.961 54,-106 54,-101.541 50.0557,-98.8891 44.5656,-98.0454"/>
<polygon fill="black" stroke="black" points="44.1887,-94.5544 34.2903,-98.3321 44.384,-101.552 44.1887,-94.5544"/>
<text text-anchor="middle" x="57.5" y="-102.3" font-family="Times,serif" font-size="14.00">b</text>
</g>
<!-- 3&#45;&gt;0 -->
<g id="edge7" class="edge"><title>3&#45;&gt;0</title>
<path fill="none" stroke="black" d="M38.7279,-219.184C43.0388,-232.116 48.6759,-249.028 53.3224,-262.967"/>
<polygon fill="black" stroke="black" points="50.0148,-264.113 56.4975,-272.493 56.6556,-261.899 50.0148,-264.113"/>
<text text-anchor="middle" x="52.5" y="-242.3" font-family="Times,serif" font-size="14.00">b</text>
</g>
<!-- 3&#45;&gt;2 -->
<g id="edge8" class="edge"><title>3&#45;&gt;2</title>
<path fill="none" stroke="black" d="M28.7529,-176.126C26.8026,-163.588 24.3003,-147.502 22.2005,-134.003"/>
<polygon fill="black" stroke="black" points="25.6165,-133.192 20.621,-123.849 18.6997,-134.268 25.6165,-133.192"/>
<text text-anchor="middle" x="29.5" y="-146.3" font-family="Times,serif" font-size="14.00">a</text>
</g>
</g>
</svg>
