<?xml version="1.0" encoding="UTF-8" standalone="no"?>
<!DOCTYPE svg PUBLIC "-//W3C//DTD SVG 1.1//EN"
 "http://www.w3.org/Graphics/SVG/1.1/DTD/svg11.dtd">
<!-- Generated by graphviz version 2.36.0 (20140111.2315)
 -->
<!-- Title: %3 Pages: 1 -->
<svg width="141pt" height="316pt"
 viewBox="0.00 0.00 141.00 316.00" xmlns="http://www.w3.org/2000/svg" xmlns:xlink="http://www.w3.org/1999/xlink">
<g id="graph0" class="graph" transform="scale(1 1) rotate(0) translate(4 312)">
<title>%3</title>
<polygon fill="white" stroke="none" points="-4,4 -4,-312 137,-312 137,4 -4,4"/>
<!-- 0 -->
<g id="node1" class="node"><title>0</title>
<ellipse fill="lightblue" stroke="black" cx="80" cy="-202" rx="18" ry="18"/>
<text text-anchor="middle" x="80" y="-198.3" font-family="Times,serif" font-size="14.00">0</text>
</g>
<!-- 2 -->
<g id="node3" class="node"><title>2</title>
<ellipse fill="lightblue" stroke="black" cx="72" cy="-110" rx="17.5909" ry="18"/>
<ellipse fill="none" stroke="black" cx="72" cy="-110" rx="21.5" ry="22"/>
<text text-anchor="middle" x="72" y="-106.3" font-family="Times,serif" font-size="14.00">2</text>
</g>
<!-- 0&#45;&gt;2 -->
<g id="edge1" class="edge"><title>0&#45;&gt;2</title>
<path fill="none" stroke="black" d="M80.8584,-183.957C81.1445,-174.025 81.1445,-161.275 80,-150 79.7217,-147.258 79.3359,-144.424 78.883,-141.593"/>
<polygon fill="black" stroke="black" points="82.2812,-140.721 77.0204,-131.525 75.398,-141.995 82.2812,-140.721"/>
<text text-anchor="middle" x="88.5" y="-154.3" font-family="Times,serif" font-size="14.00">b,a</text>
</g>
<!-- 1 -->
<g id="node2" class="node"><title>1</title>
<ellipse fill="lightblue" stroke="black" cx="115" cy="-290" rx="18" ry="18"/>
<text text-anchor="middle" x="115" y="-286.3" font-family="Times,serif" font-size="14.00">1</text>
</g>
<!-- 1&#45;&gt;0 -->
<g id="edge2" class="edge"><title>1&#45;&gt;0</title>
<path fill="none" stroke="black" d="M108.417,-272.824C103.3,-260.252 96.1113,-242.588 90.2443,-228.172"/>
<polygon fill="black" stroke="black" points="93.4469,-226.756 86.4355,-218.813 86.9633,-229.395 93.4469,-226.756"/>
<text text-anchor="middle" x="103.5" y="-242.3" font-family="Times,serif" font-size="14.00">b</text>
</g>
<!-- 1&#45;&gt;2 -->
<g id="edge3" class="edge"><title>1&#45;&gt;2</title>
<path fill="none" stroke="black" d="M116.493,-271.924C118.17,-244.86 118.667,-190.981 101,-150 98.7453,-144.77 95.6634,-139.587 92.3474,-134.789"/>
<polygon fill="black" stroke="black" points="95.0463,-132.554 86.2536,-126.643 89.441,-136.747 95.0463,-132.554"/>
<text text-anchor="middle" x="119.5" y="-198.3" font-family="Times,serif" font-size="14.00">a</text>
</g>
<!-- 2&#45;&gt;0 -->
<g id="edge4" class="edge"><title>2&#45;&gt;0</title>
<path fill="none" stroke="black" d="M72.7228,-132.188C73.1822,-142.42 73.9031,-154.865 75,-166 75.2527,-168.566 75.5571,-171.231 75.8894,-173.896"/>
<polygon fill="black" stroke="black" points="72.4408,-174.51 77.259,-183.946 79.3767,-173.565 72.4408,-174.51"/>
<text text-anchor="middle" x="78.5" y="-154.3" font-family="Times,serif" font-size="14.00">a</text>
</g>
<!-- 4 -->
<g id="node5" class="node"><title>4</title>
<ellipse fill="green" stroke="black" cx="42" cy="-18" rx="18" ry="18"/>
<text text-anchor="middle" x="42" y="-14.3" font-family="Times,serif" font-size="14.00">4</text>
</g>
<!-- 2&#45;&gt;4 -->
<g id="edge5" class="edge"><title>2&#45;&gt;4</title>
<path fill="none" stroke="black" d="M65.342,-89.0261C61.0081,-76.0244 55.312,-58.9359 50.6316,-44.8948"/>
<polygon fill="black" stroke="black" points="53.9199,-43.6914 47.4371,-35.3114 47.2791,-45.905 53.9199,-43.6914"/>
<text text-anchor="middle" x="62.5" y="-58.3" font-family="Times,serif" font-size="14.00">b</text>
</g>
<!-- 3 -->
<g id="node4" class="node"><title>3</title>
<ellipse fill="lightblue" stroke="black" cx="18" cy="-202" rx="18" ry="18"/>
<text text-anchor="middle" x="18" y="-198.3" font-family="Times,serif" font-size="14.00">3</text>
</g>
<!-- 3&#45;&gt;2 -->
<g id="edge6" class="edge"><title>3&#45;&gt;2</title>
<path fill="none" stroke="black" d="M26.917,-186.138C34.7299,-173.117 46.2815,-153.864 55.7355,-138.107"/>
<polygon fill="black" stroke="black" points="58.8716,-139.683 61.0153,-129.308 52.8691,-136.082 58.8716,-139.683"/>
<text text-anchor="middle" x="52.5" y="-154.3" font-family="Times,serif" font-size="14.00">a</text>
</g>
<!-- 3&#45;&gt;4 -->
<g id="edge7" class="edge"><title>3&#45;&gt;4</title>
<path fill="none" stroke="black" d="M20.2579,-183.878C24.4317,-152.226 33.3853,-84.3282 38.4031,-46.2765"/>
<polygon fill="black" stroke="black" points="41.9281,-46.3158 39.7656,-35.944 34.9882,-45.4006 41.9281,-46.3158"/>
<text text-anchor="middle" x="36.5" y="-106.3" font-family="Times,serif" font-size="14.00">b</text>
</g>
<!-- 4&#45;&gt;2 -->
<g id="edge8" class="edge"><title>4&#45;&gt;2</title>
<path fill="none" stroke="black" d="M40.7325,-35.9808C40.5254,-46.1187 41.2402,-59.0999 45,-70 46.7345,-75.0286 49.3127,-80.0025 52.1983,-84.6292"/>
<polygon fill="black" stroke="black" points="49.4272,-86.776 57.9855,-93.0216 55.1899,-82.8022 49.4272,-86.776"/>
<text text-anchor="middle" x="48.5" y="-58.3" font-family="Times,serif" font-size="14.00">b</text>
</g>
<!-- 4&#45;&gt;4 -->
<g id="edge9" class="edge"><title>4&#45;&gt;4</title>
<path fill="none" stroke="black" d="M58.2903,-25.6679C68.3892,-27.5169 78,-24.9609 78,-18 78,-13.5406 74.0557,-10.8891 68.5656,-10.0454"/>
<polygon fill="black" stroke="black" points="68.1887,-6.55441 58.2903,-10.3321 68.384,-13.5517 68.1887,-6.55441"/>
<text text-anchor="middle" x="81.5" y="-14.3" font-family="Times,serif" font-size="14.00">a</text>
</g>
</g>
</svg>
