<?xml version="1.0" encoding="UTF-8" standalone="no"?>
<!DOCTYPE svg PUBLIC "-//W3C//DTD SVG 1.1//EN"
 "http://www.w3.org/Graphics/SVG/1.1/DTD/svg11.dtd">
<!-- Generated by graphviz version 2.36.0 (20140111.2315)
 -->
<!-- Title: %3 Pages: 1 -->
<svg width="125pt" height="316pt"
 viewBox="0.00 0.00 125.00 316.00" xmlns="http://www.w3.org/2000/svg" xmlns:xlink="http://www.w3.org/1999/xlink">
<g id="graph0" class="graph" transform="scale(1 1) rotate(0) translate(4 312)">
<title>%3</title>
<polygon fill="white" stroke="none" points="-4,4 -4,-312 121,-312 121,4 -4,4"/>
<!-- 0 -->
<g id="node1" class="node"><title>0</title>
<ellipse fill="green" stroke="black" cx="70" cy="-110" rx="17.5909" ry="18"/>
<ellipse fill="none" stroke="black" cx="70" cy="-110" rx="21.5" ry="22"/>
<text text-anchor="middle" x="70" y="-106.3" font-family="Times,serif" font-size="14.00">0</text>
</g>
<!-- 0&#45;&gt;0 -->
<g id="edge1" class="edge"><title>0&#45;&gt;0</title>
<path fill="none" stroke="black" d="M90.0663,-118.734C100.074,-119.943 109,-117.031 109,-110 109,-105.496 105.337,-102.682 100.072,-101.559"/>
<polygon fill="black" stroke="black" points="100.165,-98.0605 90.0663,-101.266 99.9594,-105.057 100.165,-98.0605"/>
<text text-anchor="middle" x="112.5" y="-106.3" font-family="Times,serif" font-size="14.00">a</text>
</g>
<!-- 1 -->
<g id="node2" class="node"><title>1</title>
<ellipse fill="lightblue" stroke="black" cx="47" cy="-18" rx="18" ry="18"/>
<text text-anchor="middle" x="47" y="-14.3" font-family="Times,serif" font-size="14.00">1</text>
</g>
<!-- 0&#45;&gt;1 -->
<g id="edge2" class="edge"><title>0&#45;&gt;1</title>
<path fill="none" stroke="black" d="M58.7914,-90.9913C55.3533,-84.5956 51.9625,-77.1942 50,-70 47.9459,-62.47 46.9496,-54.0905 46.5264,-46.3353"/>
<polygon fill="black" stroke="black" points="50.0239,-46.1889 46.2592,-36.2854 43.0263,-46.375 50.0239,-46.1889"/>
<text text-anchor="middle" x="53.5" y="-58.3" font-family="Times,serif" font-size="14.00">b</text>
</g>
<!-- 1&#45;&gt;0 -->
<g id="edge3" class="edge"><title>1&#45;&gt;0</title>
<path fill="none" stroke="black" d="M51.2747,-35.7273C54.3476,-47.7515 58.5773,-64.3026 62.2394,-78.6324"/>
<polygon fill="black" stroke="black" points="58.9139,-79.7556 64.7809,-88.5776 65.6959,-78.0224 58.9139,-79.7556"/>
<text text-anchor="middle" x="62.5" y="-58.3" font-family="Times,serif" font-size="14.00">a</text>
</g>
<!-- 1&#45;&gt;1 -->
<g id="edge4" class="edge"><title>1&#45;&gt;1</title>
<path fill="none" stroke="black" d="M63.2903,-25.6679C73.3892,-27.5169 83,-24.9609 83,-18 83,-13.5406 79.0557,-10.8891 73.5656,-10.0454"/>
<polygon fill="black" stroke="black" points="73.1887,-6.55441 63.2903,-10.3321 73.384,-13.5517 73.1887,-6.55441"/>
<text text-anchor="middle" x="86.5" y="-14.3" font-family="Times,serif" font-size="14.00">b</text>
</g>
<!-- 2 -->
<g id="node3" class="node"><title>2</title>
<ellipse fill="lightblue" stroke="black" cx="77" cy="-290" rx="18" ry="18"/>
<text text-anchor="middle" x="77" y="-286.3" font-family="Times,serif" font-size="14.00">2</text>
</g>
<!-- 3 -->
<g id="node4" class="node"><title>3</title>
<ellipse fill="lightblue" stroke="black" cx="70" cy="-202" rx="18" ry="18"/>
<text text-anchor="middle" x="70" y="-198.3" font-family="Times,serif" font-size="14.00">3</text>
</g>
<!-- 2&#45;&gt;3 -->
<g id="edge5" class="edge"><title>2&#45;&gt;3</title>
<path fill="none" stroke="black" d="M75.617,-272.009C74.6487,-260.112 73.3341,-243.961 72.22,-230.275"/>
<polygon fill="black" stroke="black" points="75.6799,-229.639 71.3801,-219.956 68.703,-230.207 75.6799,-229.639"/>
<text text-anchor="middle" x="82.5" y="-242.3" font-family="Times,serif" font-size="14.00">b,a</text>
</g>
<!-- 3&#45;&gt;0 -->
<g id="edge6" class="edge"><title>3&#45;&gt;0</title>
<path fill="none" stroke="black" d="M70,-183.647C70,-171.924 70,-156.114 70,-142.237"/>
<polygon fill="black" stroke="black" points="73.5001,-142.101 70,-132.101 66.5001,-142.101 73.5001,-142.101"/>
<text text-anchor="middle" x="78.5" y="-154.3" font-family="Times,serif" font-size="14.00">b,a</text>
</g>
<!-- 4 -->
<g id="node5" class="node"><title>4</title>
<ellipse fill="lightblue" stroke="black" cx="18" cy="-290" rx="18" ry="18"/>
<text text-anchor="middle" x="18" y="-286.3" font-family="Times,serif" font-size="14.00">4</text>
</g>
<!-- 4&#45;&gt;1 -->
<g id="edge7" class="edge"><title>4&#45;&gt;1</title>
<path fill="none" stroke="black" d="M19.7053,-272.052C23.2014,-237.448 31.4862,-156.18 39,-88 40.5274,-74.1402 42.3071,-58.7245 43.7995,-45.9856"/>
<polygon fill="black" stroke="black" points="47.2809,-46.3481 44.9738,-36.0076 40.3289,-45.5299 47.2809,-46.3481"/>
<text text-anchor="middle" x="35.5" y="-154.3" font-family="Times,serif" font-size="14.00">a</text>
</g>
<!-- 4&#45;&gt;3 -->
<g id="edge8" class="edge"><title>4&#45;&gt;3</title>
<path fill="none" stroke="black" d="M27.0577,-274.02C34.9615,-260.948 46.5652,-241.758 55.7185,-226.619"/>
<polygon fill="black" stroke="black" points="58.8669,-228.177 61.0461,-217.808 52.8768,-224.555 58.8669,-228.177"/>
<text text-anchor="middle" x="51.5" y="-242.3" font-family="Times,serif" font-size="14.00">b</text>
</g>
</g>
</svg>
