<?xml version="1.0" encoding="UTF-8" standalone="no"?>
<!DOCTYPE svg PUBLIC "-//W3C//DTD SVG 1.1//EN"
 "http://www.w3.org/Graphics/SVG/1.1/DTD/svg11.dtd">
<!-- Generated by graphviz version 2.36.0 (20140111.2315)
 -->
<!-- Title: %3 Pages: 1 -->
<svg width="144pt" height="228pt"
 viewBox="0.00 0.00 144.00 228.00" xmlns="http://www.w3.org/2000/svg" xmlns:xlink="http://www.w3.org/1999/xlink">
<g id="graph0" class="graph" transform="scale(1 1) rotate(0) translate(4 224)">
<title>%3</title>
<polygon fill="white" stroke="none" points="-4,4 -4,-224 140,-224 140,4 -4,4"/>
<!-- 0 -->
<g id="node1" class="node"><title>0</title>
<ellipse fill="lightblue" stroke="black" cx="22" cy="-198" rx="17.5909" ry="18"/>
<ellipse fill="none" stroke="black" cx="22" cy="-198" rx="21.5" ry="22"/>
<text text-anchor="middle" x="22" y="-194.3" font-family="Times,serif" font-size="14.00">0</text>
</g>
<!-- 0&#45;&gt;0 -->
<g id="edge1" class="edge"><title>0&#45;&gt;0</title>
<path fill="none" stroke="black" d="M42.0663,-206.734C52.0736,-207.943 61,-205.031 61,-198 61,-193.496 57.3366,-190.682 52.0725,-189.559"/>
<polygon fill="black" stroke="black" points="52.1646,-186.061 42.0663,-189.266 51.9594,-193.057 52.1646,-186.061"/>
<text text-anchor="middle" x="64.5" y="-194.3" font-family="Times,serif" font-size="14.00">c</text>
</g>
<!-- 1 -->
<g id="node2" class="node"><title>1</title>
<ellipse fill="lightblue" stroke="black" cx="33" cy="-18" rx="18" ry="18"/>
<text text-anchor="middle" x="33" y="-14.3" font-family="Times,serif" font-size="14.00">1</text>
</g>
<!-- 0&#45;&gt;1 -->
<g id="edge2" class="edge"><title>0&#45;&gt;1</title>
<path fill="none" stroke="black" d="M23.305,-175.882C25.301,-143.584 29.1116,-81.9218 31.3142,-46.279"/>
<polygon fill="black" stroke="black" points="34.8188,-46.3109 31.9424,-36.1141 27.8322,-45.8791 34.8188,-46.3109"/>
<text text-anchor="middle" x="31.5" y="-102.3" font-family="Times,serif" font-size="14.00">a</text>
</g>
<!-- 3 -->
<g id="node4" class="node"><title>3</title>
<ellipse fill="lightblue" stroke="black" cx="65" cy="-106" rx="18" ry="18"/>
<text text-anchor="middle" x="65" y="-102.3" font-family="Times,serif" font-size="14.00">3</text>
</g>
<!-- 0&#45;&gt;3 -->
<g id="edge3" class="edge"><title>0&#45;&gt;3</title>
<path fill="none" stroke="black" d="M35.5799,-180.699C40.6553,-173.99 46.1223,-165.939 50,-158 53.6613,-150.504 56.6072,-141.943 58.8864,-134.004"/>
<polygon fill="black" stroke="black" points="62.3411,-134.629 61.5026,-124.068 55.5718,-132.847 62.3411,-134.629"/>
<text text-anchor="middle" x="59.5" y="-146.3" font-family="Times,serif" font-size="14.00">b</text>
</g>
<!-- 1&#45;&gt;0 -->
<g id="edge4" class="edge"><title>1&#45;&gt;0</title>
<path fill="none" stroke="black" d="M24.8895,-34.0931C18.0503,-47.732 8.78891,-68.5866 5,-88 -0.225816,-114.776 5.62688,-145.501 11.8475,-167.49"/>
<polygon fill="black" stroke="black" points="8.54719,-168.669 14.7882,-177.23 15.2484,-166.645 8.54719,-168.669"/>
<text text-anchor="middle" x="13.5" y="-102.3" font-family="Times,serif" font-size="14.00">b,c</text>
</g>
<!-- 1&#45;&gt;1 -->
<g id="edge5" class="edge"><title>1&#45;&gt;1</title>
<path fill="none" stroke="black" d="M49.2903,-25.6679C59.3892,-27.5169 69,-24.9609 69,-18 69,-13.5406 65.0557,-10.8891 59.5656,-10.0454"/>
<polygon fill="black" stroke="black" points="59.1887,-6.55441 49.2903,-10.3321 59.384,-13.5517 59.1887,-6.55441"/>
<text text-anchor="middle" x="72.5" y="-14.3" font-family="Times,serif" font-size="14.00">a</text>
</g>
<!-- 2 -->
<g id="node3" class="node"><title>2</title>
<ellipse fill="green" stroke="black" cx="118" cy="-198" rx="18" ry="18"/>
<text text-anchor="middle" x="118" y="-194.3" font-family="Times,serif" font-size="14.00">2</text>
</g>
<!-- 2&#45;&gt;1 -->
<g id="edge6" class="edge"><title>2&#45;&gt;1</title>
<path fill="none" stroke="black" d="M118.584,-179.936C118.589,-168.965 117.904,-154.481 115,-142 105.136,-99.6016 99.5596,-87.6955 72,-54 66.9314,-47.8029 60.7391,-41.7306 54.7945,-36.4295"/>
<polygon fill="black" stroke="black" points="56.8456,-33.5783 46.9706,-29.7396 52.2964,-38.8985 56.8456,-33.5783"/>
<text text-anchor="middle" x="113.5" y="-102.3" font-family="Times,serif" font-size="14.00">c</text>
</g>
<!-- 2&#45;&gt;3 -->
<g id="edge7" class="edge"><title>2&#45;&gt;3</title>
<path fill="none" stroke="black" d="M109.248,-182.138C101.039,-168.199 88.625,-147.118 79.0332,-130.83"/>
<polygon fill="black" stroke="black" points="81.8552,-128.725 73.7649,-121.884 75.8234,-132.277 81.8552,-128.725"/>
<text text-anchor="middle" x="102.5" y="-146.3" font-family="Times,serif" font-size="14.00">b,a</text>
</g>
<!-- 3&#45;&gt;0 -->
<g id="edge8" class="edge"><title>3&#45;&gt;0</title>
<path fill="none" stroke="black" d="M56.0236,-121.769C52.4207,-127.931 48.3394,-135.219 45,-142 40.9575,-150.209 36.9641,-159.307 33.468,-167.701"/>
<polygon fill="black" stroke="black" points="30.1553,-166.556 29.6192,-177.137 36.6369,-169.2 30.1553,-166.556"/>
<text text-anchor="middle" x="48.5" y="-146.3" font-family="Times,serif" font-size="14.00">c</text>
</g>
<!-- 3&#45;&gt;1 -->
<g id="edge9" class="edge"><title>3&#45;&gt;1</title>
<path fill="none" stroke="black" d="M58.981,-88.8241C54.3774,-76.4516 47.9381,-59.1462 42.6221,-44.8593"/>
<polygon fill="black" stroke="black" points="45.7596,-43.255 38.992,-35.1034 39.1991,-45.6962 45.7596,-43.255"/>
<text text-anchor="middle" x="59.5" y="-58.3" font-family="Times,serif" font-size="14.00">b,a</text>
</g>
</g>
</svg>
