<?xml version="1.0" encoding="UTF-8" standalone="no"?>
<!DOCTYPE svg PUBLIC "-//W3C//DTD SVG 1.1//EN"
 "http://www.w3.org/Graphics/SVG/1.1/DTD/svg11.dtd">
<!-- Generated by graphviz version 2.36.0 (20140111.2315)
 -->
<!-- Title: %3 Pages: 1 -->
<svg width="172pt" height="316pt"
 viewBox="0.00 0.00 172.00 316.00" xmlns="http://www.w3.org/2000/svg" xmlns:xlink="http://www.w3.org/1999/xlink">
<g id="graph0" class="graph" transform="scale(1 1) rotate(0) translate(4 312)">
<title>%3</title>
<polygon fill="white" stroke="none" points="-4,4 -4,-312 168,-312 168,4 -4,4"/>
<!-- 0 -->
<g id="node1" class="node"><title>0</title>
<ellipse fill="green" stroke="black" cx="82" cy="-202" rx="18" ry="18"/>
<text text-anchor="middle" x="82" y="-198.3" font-family="Times,serif" font-size="14.00">0</text>
</g>
<!-- 3 -->
<g id="node4" class="node"><title>3</title>
<ellipse fill="lightblue" stroke="black" cx="22" cy="-110" rx="17.5909" ry="18"/>
<ellipse fill="none" stroke="black" cx="22" cy="-110" rx="21.5" ry="22"/>
<text text-anchor="middle" x="22" y="-106.3" font-family="Times,serif" font-size="14.00">3</text>
</g>
<!-- 0&#45;&gt;3 -->
<g id="edge1" class="edge"><title>0&#45;&gt;3</title>
<path fill="none" stroke="black" d="M66.5284,-192.521C56.7,-186.378 44.4665,-177.2 37,-166 32.1992,-158.799 28.928,-150.1 26.7015,-141.767"/>
<polygon fill="black" stroke="black" points="30.0916,-140.89 24.4712,-131.909 23.2642,-142.434 30.0916,-140.89"/>
<text text-anchor="middle" x="40.5" y="-154.3" font-family="Times,serif" font-size="14.00">b</text>
</g>
<!-- 4 -->
<g id="node5" class="node"><title>4</title>
<ellipse fill="lightblue" stroke="black" cx="105" cy="-110" rx="18" ry="18"/>
<text text-anchor="middle" x="105" y="-106.3" font-family="Times,serif" font-size="14.00">4</text>
</g>
<!-- 0&#45;&gt;4 -->
<g id="edge2" class="edge"><title>0&#45;&gt;4</title>
<path fill="none" stroke="black" d="M86.2186,-184.493C89.5693,-171.381 94.3211,-152.787 98.2066,-137.583"/>
<polygon fill="black" stroke="black" points="101.645,-138.263 100.73,-127.708 94.8632,-136.53 101.645,-138.263"/>
<text text-anchor="middle" x="98.5" y="-154.3" font-family="Times,serif" font-size="14.00">a</text>
</g>
<!-- 1 -->
<g id="node2" class="node"><title>1</title>
<ellipse fill="lightblue" stroke="black" cx="137" cy="-18" rx="18" ry="18"/>
<text text-anchor="middle" x="137" y="-14.3" font-family="Times,serif" font-size="14.00">1</text>
</g>
<!-- 1&#45;&gt;0 -->
<g id="edge3" class="edge"><title>1&#45;&gt;0</title>
<path fill="none" stroke="black" d="M141.598,-35.6032C142.982,-41.3784 144.315,-47.9301 145,-54 148.94,-88.9233 146.23,-99.865 132,-132 124.138,-149.754 111.195,-167.44 100.447,-180.461"/>
<polygon fill="black" stroke="black" points="97.5931,-178.415 93.777,-188.298 102.924,-182.952 97.5931,-178.415"/>
<text text-anchor="middle" x="155.5" y="-106.3" font-family="Times,serif" font-size="14.00">b,a</text>
</g>
<!-- 2 -->
<g id="node3" class="node"><title>2</title>
<ellipse fill="lightblue" stroke="black" cx="82" cy="-290" rx="18" ry="18"/>
<text text-anchor="middle" x="82" y="-286.3" font-family="Times,serif" font-size="14.00">2</text>
</g>
<!-- 2&#45;&gt;0 -->
<g id="edge4" class="edge"><title>2&#45;&gt;0</title>
<path fill="none" stroke="black" d="M82,-271.597C82,-259.746 82,-243.817 82,-230.292"/>
<polygon fill="black" stroke="black" points="85.5001,-230.084 82,-220.084 78.5001,-230.084 85.5001,-230.084"/>
<text text-anchor="middle" x="90.5" y="-242.3" font-family="Times,serif" font-size="14.00">b,a</text>
</g>
<!-- 3&#45;&gt;0 -->
<g id="edge5" class="edge"><title>3&#45;&gt;0</title>
<path fill="none" stroke="black" d="M33.6743,-128.511C43.1004,-142.651 56.4393,-162.659 66.7159,-178.074"/>
<polygon fill="black" stroke="black" points="63.9007,-180.161 72.36,-186.54 69.7251,-176.278 63.9007,-180.161"/>
<text text-anchor="middle" x="61.5" y="-154.3" font-family="Times,serif" font-size="14.00">b</text>
</g>
<!-- 3&#45;&gt;3 -->
<g id="edge6" class="edge"><title>3&#45;&gt;3</title>
<path fill="none" stroke="black" d="M42.0663,-118.734C52.0736,-119.943 61,-117.031 61,-110 61,-105.496 57.3366,-102.682 52.0725,-101.559"/>
<polygon fill="black" stroke="black" points="52.1646,-98.0605 42.0663,-101.266 51.9594,-105.057 52.1646,-98.0605"/>
<text text-anchor="middle" x="64.5" y="-106.3" font-family="Times,serif" font-size="14.00">a</text>
</g>
<!-- 4&#45;&gt;1 -->
<g id="edge7" class="edge"><title>4&#45;&gt;1</title>
<path fill="none" stroke="black" d="M110.721,-92.9098C115.469,-79.5546 122.313,-60.308 127.825,-44.8033"/>
<polygon fill="black" stroke="black" points="131.168,-45.8491 131.221,-35.2543 124.573,-43.5039 131.168,-45.8491"/>
<text text-anchor="middle" x="132.5" y="-58.3" font-family="Times,serif" font-size="14.00">b,a</text>
</g>
</g>
</svg>
