<?xml version="1.0" encoding="UTF-8" standalone="no"?>
<!DOCTYPE svg PUBLIC "-//W3C//DTD SVG 1.1//EN"
 "http://www.w3.org/Graphics/SVG/1.1/DTD/svg11.dtd">
<!-- Generated by graphviz version 2.36.0 (20140111.2315)
 -->
<!-- Title: %3 Pages: 1 -->
<svg width="123pt" height="316pt"
 viewBox="0.00 0.00 123.00 316.00" xmlns="http://www.w3.org/2000/svg" xmlns:xlink="http://www.w3.org/1999/xlink">
<g id="graph0" class="graph" transform="scale(1 1) rotate(0) translate(4 312)">
<title>%3</title>
<polygon fill="white" stroke="none" points="-4,4 -4,-312 119,-312 119,4 -4,4"/>
<!-- 0 -->
<g id="node1" class="node"><title>0</title>
<ellipse fill="lightblue" stroke="black" cx="91" cy="-290" rx="18" ry="18"/>
<text text-anchor="middle" x="91" y="-286.3" font-family="Times,serif" font-size="14.00">0</text>
</g>
<!-- 3 -->
<g id="node4" class="node"><title>3</title>
<ellipse fill="lightblue" stroke="black" cx="62" cy="-202" rx="18" ry="18"/>
<text text-anchor="middle" x="62" y="-198.3" font-family="Times,serif" font-size="14.00">3</text>
</g>
<!-- 0&#45;&gt;3 -->
<g id="edge1" class="edge"><title>0&#45;&gt;3</title>
<path fill="none" stroke="black" d="M85.5453,-272.824C81.3996,-260.53 75.6115,-243.365 70.8116,-229.131"/>
<polygon fill="black" stroke="black" points="74.0407,-227.753 67.5288,-219.396 67.4077,-229.99 74.0407,-227.753"/>
<text text-anchor="middle" x="87.5" y="-242.3" font-family="Times,serif" font-size="14.00">b,a</text>
</g>
<!-- 1 -->
<g id="node2" class="node"><title>1</title>
<ellipse fill="lightblue" stroke="black" cx="79" cy="-18" rx="18" ry="18"/>
<text text-anchor="middle" x="79" y="-14.3" font-family="Times,serif" font-size="14.00">1</text>
</g>
<!-- 1&#45;&gt;0 -->
<g id="edge2" class="edge"><title>1&#45;&gt;0</title>
<path fill="none" stroke="black" d="M83.9447,-35.6013C85.4839,-41.3763 87.0301,-47.9284 88,-54 100.928,-134.925 97.3319,-156.092 100,-238 100.232,-245.107 100.893,-246.945 100,-254 99.6503,-256.764 99.1511,-259.622 98.5649,-262.459"/>
<polygon fill="black" stroke="black" points="95.102,-261.89 96.1712,-272.431 101.909,-263.524 95.102,-261.89"/>
<text text-anchor="middle" x="106.5" y="-154.3" font-family="Times,serif" font-size="14.00">b,a</text>
</g>
<!-- 2 -->
<g id="node3" class="node"><title>2</title>
<ellipse fill="green" stroke="black" cx="21" cy="-110" rx="17.5909" ry="18"/>
<ellipse fill="none" stroke="black" cx="21" cy="-110" rx="21.5" ry="22"/>
<text text-anchor="middle" x="21" y="-106.3" font-family="Times,serif" font-size="14.00">2</text>
</g>
<!-- 2&#45;&gt;1 -->
<g id="edge3" class="edge"><title>2&#45;&gt;1</title>
<path fill="none" stroke="black" d="M32.4589,-91.2189C41.5661,-77.0872 54.3701,-57.2188 64.2436,-41.8979"/>
<polygon fill="black" stroke="black" points="67.1932,-43.7821 69.6682,-33.4804 61.3092,-39.9901 67.1932,-43.7821"/>
<text text-anchor="middle" x="58.5" y="-58.3" font-family="Times,serif" font-size="14.00">a</text>
</g>
<!-- 2&#45;&gt;3 -->
<g id="edge4" class="edge"><title>2&#45;&gt;3</title>
<path fill="none" stroke="black" d="M29.7704,-130.252C35.8517,-143.601 44.0085,-161.506 50.5945,-175.964"/>
<polygon fill="black" stroke="black" points="47.5276,-177.674 54.8583,-185.323 53.8977,-174.772 47.5276,-177.674"/>
<text text-anchor="middle" x="48.5" y="-154.3" font-family="Times,serif" font-size="14.00">b</text>
</g>
<!-- 3&#45;&gt;1 -->
<g id="edge5" class="edge"><title>3&#45;&gt;1</title>
<path fill="none" stroke="black" d="M63.5993,-183.878C66.5558,-152.226 72.8979,-84.3282 76.4522,-46.2765"/>
<polygon fill="black" stroke="black" points="79.972,-46.2262 77.4173,-35.944 73.0024,-45.5752 79.972,-46.2262"/>
<text text-anchor="middle" x="75.5" y="-106.3" font-family="Times,serif" font-size="14.00">b</text>
</g>
<!-- 3&#45;&gt;2 -->
<g id="edge6" class="edge"><title>3&#45;&gt;2</title>
<path fill="none" stroke="black" d="M47.8383,-190.229C40.6768,-183.972 32.5573,-175.465 28,-166 24.4866,-158.703 22.5265,-150.263 21.4782,-142.217"/>
<polygon fill="black" stroke="black" points="24.9417,-141.65 20.5713,-131.999 17.9691,-142.269 24.9417,-141.65"/>
<text text-anchor="middle" x="31.5" y="-154.3" font-family="Times,serif" font-size="14.00">a</text>
</g>
</g>
</svg>
