<?xml version="1.0" encoding="UTF-8" standalone="no"?>
<!DOCTYPE svg PUBLIC "-//W3C//DTD SVG 1.1//EN"
 "http://www.w3.org/Graphics/SVG/1.1/DTD/svg11.dtd">
<!-- Generated by graphviz version 2.36.0 (20140111.2315)
 -->
<!-- Title: %3 Pages: 1 -->
<svg width="137pt" height="316pt"
 viewBox="0.00 0.00 136.57 316.00" xmlns="http://www.w3.org/2000/svg" xmlns:xlink="http://www.w3.org/1999/xlink">
<g id="graph0" class="graph" transform="scale(1 1) rotate(0) translate(4 312)">
<title>%3</title>
<polygon fill="white" stroke="none" points="-4,4 -4,-312 132.573,-312 132.573,4 -4,4"/>
<!-- 0 -->
<g id="node1" class="node"><title>0</title>
<ellipse fill="lightblue" stroke="black" cx="31.5732" cy="-286" rx="17.5909" ry="18"/>
<ellipse fill="none" stroke="black" cx="31.5732" cy="-286" rx="21.5" ry="22"/>
<text text-anchor="middle" x="31.5732" y="-282.3" font-family="Times,serif" font-size="14.00">0</text>
</g>
<!-- 1 -->
<g id="node2" class="node"><title>1</title>
<ellipse fill="lightblue" stroke="black" cx="74.5732" cy="-194" rx="18" ry="18"/>
<text text-anchor="middle" x="74.5732" y="-190.3" font-family="Times,serif" font-size="14.00">1</text>
</g>
<!-- 0&#45;&gt;1 -->
<g id="edge1" class="edge"><title>0&#45;&gt;1</title>
<path fill="none" stroke="black" d="M40.6924,-265.913C47.1022,-252.498 55.739,-234.421 62.6881,-219.876"/>
<polygon fill="black" stroke="black" points="66.0283,-221.003 67.1813,-210.472 59.7121,-217.986 66.0283,-221.003"/>
<text text-anchor="middle" x="60.0732" y="-234.3" font-family="Times,serif" font-size="14.00">a</text>
</g>
<!-- 4 -->
<g id="node5" class="node"><title>4</title>
<ellipse fill="lightblue" stroke="black" cx="36.5732" cy="-18" rx="18" ry="18"/>
<text text-anchor="middle" x="36.5732" y="-14.3" font-family="Times,serif" font-size="14.00">4</text>
</g>
<!-- 0&#45;&gt;4 -->
<g id="edge2" class="edge"><title>0&#45;&gt;4</title>
<path fill="none" stroke="black" d="M24.3226,-264.985C12.3579,-229.201 -8.91947,-152.011 4.57321,-88 7.91551,-72.1438 15.4069,-55.6336 22.3014,-42.7402"/>
<polygon fill="black" stroke="black" points="25.5549,-44.093 27.3787,-33.6563 19.4445,-40.6777 25.5549,-44.093"/>
<text text-anchor="middle" x="5.07321" y="-146.3" font-family="Times,serif" font-size="14.00">b</text>
</g>
<!-- 1&#45;&gt;1 -->
<g id="edge3" class="edge"><title>1&#45;&gt;1</title>
<path fill="none" stroke="black" d="M90.8635,-201.668C100.962,-203.517 110.573,-200.961 110.573,-194 110.573,-189.541 106.629,-186.889 101.139,-186.045"/>
<polygon fill="black" stroke="black" points="100.762,-182.554 90.8635,-186.332 100.957,-189.552 100.762,-182.554"/>
<text text-anchor="middle" x="114.073" y="-190.3" font-family="Times,serif" font-size="14.00">b</text>
</g>
<!-- 2 -->
<g id="node3" class="node"><title>2</title>
<ellipse fill="lightblue" stroke="black" cx="31.5732" cy="-106" rx="18" ry="18"/>
<text text-anchor="middle" x="31.5732" y="-102.3" font-family="Times,serif" font-size="14.00">2</text>
</g>
<!-- 1&#45;&gt;2 -->
<g id="edge4" class="edge"><title>1&#45;&gt;2</title>
<path fill="none" stroke="black" d="M66.8857,-177.625C60.5049,-164.863 51.3093,-146.472 43.9015,-131.656"/>
<polygon fill="black" stroke="black" points="46.9419,-129.911 39.3392,-122.532 40.6809,-133.041 46.9419,-129.911"/>
<text text-anchor="middle" x="60.0732" y="-146.3" font-family="Times,serif" font-size="14.00">a</text>
</g>
<!-- 2&#45;&gt;0 -->
<g id="edge5" class="edge"><title>2&#45;&gt;0</title>
<path fill="none" stroke="black" d="M31.5732,-124.114C31.5732,-153.909 31.5732,-215.727 31.5732,-253.464"/>
<polygon fill="black" stroke="black" points="28.0733,-253.882 31.5732,-263.882 35.0733,-253.882 28.0733,-253.882"/>
<text text-anchor="middle" x="35.0732" y="-190.3" font-family="Times,serif" font-size="14.00">b</text>
</g>
<!-- 2&#45;&gt;4 -->
<g id="edge6" class="edge"><title>2&#45;&gt;4</title>
<path fill="none" stroke="black" d="M26.7671,-88.4263C24.4981,-78.4327 22.6632,-65.4603 24.5732,-54 25.095,-50.8695 25.8623,-47.6437 26.7609,-44.476"/>
<polygon fill="black" stroke="black" points="30.1623,-45.3348 29.9396,-34.7423 23.5082,-43.1618 30.1623,-45.3348"/>
<text text-anchor="middle" x="28.0732" y="-58.3" font-family="Times,serif" font-size="14.00">a</text>
</g>
<!-- 3 -->
<g id="node4" class="node"><title>3</title>
<ellipse fill="green" stroke="black" cx="85.5732" cy="-106" rx="18" ry="18"/>
<text text-anchor="middle" x="85.5732" y="-102.3" font-family="Times,serif" font-size="14.00">3</text>
</g>
<!-- 3&#45;&gt;3 -->
<g id="edge7" class="edge"><title>3&#45;&gt;3</title>
<path fill="none" stroke="black" d="M101.863,-113.668C111.962,-115.517 121.573,-112.961 121.573,-106 121.573,-101.541 117.629,-98.8891 112.139,-98.0454"/>
<polygon fill="black" stroke="black" points="111.762,-94.5544 101.863,-98.3321 111.957,-101.552 111.762,-94.5544"/>
<text text-anchor="middle" x="125.073" y="-102.3" font-family="Times,serif" font-size="14.00">b</text>
</g>
<!-- 3&#45;&gt;4 -->
<g id="edge8" class="edge"><title>3&#45;&gt;4</title>
<path fill="none" stroke="black" d="M77.0381,-90.0199C69.6356,-77.0279 58.7892,-57.9914 50.1888,-42.8968"/>
<polygon fill="black" stroke="black" points="53.1665,-41.0529 45.175,-34.0969 47.0845,-44.5183 53.1665,-41.0529"/>
<text text-anchor="middle" x="68.0732" y="-58.3" font-family="Times,serif" font-size="14.00">a</text>
</g>
<!-- 4&#45;&gt;2 -->
<g id="edge9" class="edge"><title>4&#45;&gt;2</title>
<path fill="none" stroke="black" d="M35.5703,-36.2499C34.8796,-48.1302 33.9475,-64.162 33.1572,-77.7558"/>
<polygon fill="black" stroke="black" points="29.6475,-77.8228 32.5611,-88.0092 36.6357,-78.2292 29.6475,-77.8228"/>
<text text-anchor="middle" x="37.0732" y="-58.3" font-family="Times,serif" font-size="14.00">a</text>
</g>
<!-- 4&#45;&gt;4 -->
<g id="edge10" class="edge"><title>4&#45;&gt;4</title>
<path fill="none" stroke="black" d="M52.8635,-25.6679C62.9624,-27.5169 72.5732,-24.9609 72.5732,-18 72.5732,-13.5406 68.6289,-10.8891 63.1388,-10.0454"/>
<polygon fill="black" stroke="black" points="62.7619,-6.55441 52.8635,-10.3321 62.9573,-13.5517 62.7619,-6.55441"/>
<text text-anchor="middle" x="76.0732" y="-14.3" font-family="Times,serif" font-size="14.00">b</text>
</g>
</g>
</svg>
