<?xml version="1.0" encoding="UTF-8" standalone="no"?>
<!DOCTYPE svg PUBLIC "-//W3C//DTD SVG 1.1//EN"
 "http://www.w3.org/Graphics/SVG/1.1/DTD/svg11.dtd">
<!-- Generated by graphviz version 2.36.0 (20140111.2315)
 -->
<!-- Title: %3 Pages: 1 -->
<svg width="154pt" height="228pt"
 viewBox="0.00 0.00 154.00 228.00" xmlns="http://www.w3.org/2000/svg" xmlns:xlink="http://www.w3.org/1999/xlink">
<g id="graph0" class="graph" transform="scale(1 1) rotate(0) translate(4 224)">
<title>%3</title>
<polygon fill="white" stroke="none" points="-4,4 -4,-224 150,-224 150,4 -4,4"/>
<!-- 0 -->
<g id="node1" class="node"><title>0</title>
<ellipse fill="lightblue" stroke="black" cx="67" cy="-110" rx="17.5909" ry="18"/>
<ellipse fill="none" stroke="black" cx="67" cy="-110" rx="21.5" ry="22"/>
<text text-anchor="middle" x="67" y="-106.3" font-family="Times,serif" font-size="14.00">0</text>
</g>
<!-- 2 -->
<g id="node3" class="node"><title>2</title>
<ellipse fill="lightblue" stroke="black" cx="18" cy="-18" rx="18" ry="18"/>
<text text-anchor="middle" x="18" y="-14.3" font-family="Times,serif" font-size="14.00">2</text>
</g>
<!-- 0&#45;&gt;2 -->
<g id="edge1" class="edge"><title>0&#45;&gt;2</title>
<path fill="none" stroke="black" d="M47.8001,-99.9934C36.2803,-93.4481 22.6171,-83.3903 16,-70 12.3013,-62.5153 11.596,-53.6318 12.1818,-45.3929"/>
<polygon fill="black" stroke="black" points="15.6549,-45.8261 13.4862,-35.4556 8.71445,-44.9151 15.6549,-45.8261"/>
<text text-anchor="middle" x="19.5" y="-58.3" font-family="Times,serif" font-size="14.00">b</text>
</g>
<!-- 3 -->
<g id="node4" class="node"><title>3</title>
<ellipse fill="green" stroke="black" cx="103" cy="-18" rx="18" ry="18"/>
<text text-anchor="middle" x="103" y="-14.3" font-family="Times,serif" font-size="14.00">3</text>
</g>
<!-- 0&#45;&gt;3 -->
<g id="edge2" class="edge"><title>0&#45;&gt;3</title>
<path fill="none" stroke="black" d="M68.006,-87.9425C69.1092,-77.4007 71.3757,-64.6501 76,-54 78.1606,-49.024 81.1865,-44.1275 84.4353,-39.6459"/>
<polygon fill="black" stroke="black" points="87.3216,-41.639 90.7882,-31.6273 81.8349,-37.292 87.3216,-41.639"/>
<text text-anchor="middle" x="79.5" y="-58.3" font-family="Times,serif" font-size="14.00">a</text>
</g>
<!-- 1 -->
<g id="node2" class="node"><title>1</title>
<ellipse fill="lightblue" stroke="black" cx="105" cy="-202" rx="18" ry="18"/>
<text text-anchor="middle" x="105" y="-198.3" font-family="Times,serif" font-size="14.00">1</text>
</g>
<!-- 1&#45;&gt;0 -->
<g id="edge3" class="edge"><title>1&#45;&gt;0</title>
<path fill="none" stroke="black" d="M98.2064,-184.91C92.9177,-172.384 85.4411,-154.676 79.1319,-139.733"/>
<polygon fill="black" stroke="black" points="82.3033,-138.246 75.1892,-130.395 75.8546,-140.969 82.3033,-138.246"/>
<text text-anchor="middle" x="92.5" y="-154.3" font-family="Times,serif" font-size="14.00">a</text>
</g>
<!-- 1&#45;&gt;3 -->
<g id="edge4" class="edge"><title>1&#45;&gt;3</title>
<path fill="none" stroke="black" d="M104.812,-183.878C104.465,-152.307 103.722,-84.6735 103.303,-46.5676"/>
<polygon fill="black" stroke="black" points="106.799,-46.1701 103.189,-36.2092 99.7993,-46.2471 106.799,-46.1701"/>
<text text-anchor="middle" x="107.5" y="-106.3" font-family="Times,serif" font-size="14.00">b</text>
</g>
<!-- 2&#45;&gt;0 -->
<g id="edge5" class="edge"><title>2&#45;&gt;0</title>
<path fill="none" stroke="black" d="M26.1929,-34.0481C33.1723,-46.8675 43.3859,-65.6271 51.8487,-81.1711"/>
<polygon fill="black" stroke="black" points="48.9915,-83.2429 56.8472,-90.3519 55.1394,-79.8956 48.9915,-83.2429"/>
<text text-anchor="middle" x="48.5" y="-58.3" font-family="Times,serif" font-size="14.00">a</text>
</g>
<!-- 2&#45;&gt;2 -->
<g id="edge6" class="edge"><title>2&#45;&gt;2</title>
<path fill="none" stroke="black" d="M34.2903,-25.6679C44.3892,-27.5169 54,-24.9609 54,-18 54,-13.5406 50.0557,-10.8891 44.5656,-10.0454"/>
<polygon fill="black" stroke="black" points="44.1887,-6.55441 34.2903,-10.3321 44.384,-13.5517 44.1887,-6.55441"/>
<text text-anchor="middle" x="57.5" y="-14.3" font-family="Times,serif" font-size="14.00">b</text>
</g>
<!-- 3&#45;&gt;0 -->
<g id="edge7" class="edge"><title>3&#45;&gt;0</title>
<path fill="none" stroke="black" d="M96.6429,-34.8927C91.6466,-47.3835 84.554,-65.115 78.5593,-80.1018"/>
<polygon fill="black" stroke="black" points="75.2758,-78.8867 74.8115,-89.4713 81.7751,-81.4865 75.2758,-78.8867"/>
<text text-anchor="middle" x="91.5" y="-58.3" font-family="Times,serif" font-size="14.00">a</text>
</g>
<!-- 3&#45;&gt;3 -->
<g id="edge8" class="edge"><title>3&#45;&gt;3</title>
<path fill="none" stroke="black" d="M119.29,-25.6679C129.389,-27.5169 139,-24.9609 139,-18 139,-13.5406 135.056,-10.8891 129.566,-10.0454"/>
<polygon fill="black" stroke="black" points="129.189,-6.55441 119.29,-10.3321 129.384,-13.5517 129.189,-6.55441"/>
<text text-anchor="middle" x="142.5" y="-14.3" font-family="Times,serif" font-size="14.00">b</text>
</g>
</g>
</svg>
