<?xml version="1.0" encoding="UTF-8" standalone="no"?>
<!DOCTYPE svg PUBLIC "-//W3C//DTD SVG 1.1//EN"
 "http://www.w3.org/Graphics/SVG/1.1/DTD/svg11.dtd">
<!-- Generated by graphviz version 2.36.0 (20140111.2315)
 -->
<!-- Title: %3 Pages: 1 -->
<svg width="104pt" height="316pt"
 viewBox="0.00 0.00 104.00 316.00" xmlns="http://www.w3.org/2000/svg" xmlns:xlink="http://www.w3.org/1999/xlink">
<g id="graph0" class="graph" transform="scale(1 1) rotate(0) translate(4 312)">
<title>%3</title>
<polygon fill="white" stroke="none" points="-4,4 -4,-312 100,-312 100,4 -4,4"/>
<!-- 0 -->
<g id="node1" class="node"><title>0</title>
<ellipse fill="green" stroke="black" cx="61" cy="-290" rx="18" ry="18"/>
<text text-anchor="middle" x="61" y="-286.3" font-family="Times,serif" font-size="14.00">0</text>
</g>
<!-- 1 -->
<g id="node2" class="node"><title>1</title>
<ellipse fill="lightblue" stroke="black" cx="18" cy="-202" rx="18" ry="18"/>
<text text-anchor="middle" x="18" y="-198.3" font-family="Times,serif" font-size="14.00">1</text>
</g>
<!-- 0&#45;&gt;1 -->
<g id="edge1" class="edge"><title>0&#45;&gt;1</title>
<path fill="none" stroke="black" d="M45.7638,-279.616C37.2134,-273.464 27.2382,-264.604 22,-254 18.4444,-246.802 16.901,-238.329 16.3921,-230.379"/>
<polygon fill="black" stroke="black" points="19.8918,-230.324 16.2368,-220.379 12.8926,-230.433 19.8918,-230.324"/>
<text text-anchor="middle" x="25.5" y="-242.3" font-family="Times,serif" font-size="14.00">b</text>
</g>
<!-- 2 -->
<g id="node3" class="node"><title>2</title>
<ellipse fill="lightblue" stroke="black" cx="60" cy="-114" rx="18" ry="18"/>
<text text-anchor="middle" x="60" y="-110.3" font-family="Times,serif" font-size="14.00">2</text>
</g>
<!-- 0&#45;&gt;2 -->
<g id="edge2" class="edge"><title>0&#45;&gt;2</title>
<path fill="none" stroke="black" d="M60.9023,-271.999C60.729,-241.853 60.3666,-178.79 60.1576,-142.43"/>
<polygon fill="black" stroke="black" points="63.6556,-142.049 60.0981,-132.07 56.6557,-142.09 63.6556,-142.049"/>
<text text-anchor="middle" x="63.5" y="-198.3" font-family="Times,serif" font-size="14.00">a</text>
</g>
<!-- 1&#45;&gt;0 -->
<g id="edge3" class="edge"><title>1&#45;&gt;0</title>
<path fill="none" stroke="black" d="M25.766,-218.532C32.1697,-231.339 41.3694,-249.739 48.7626,-264.525"/>
<polygon fill="black" stroke="black" points="45.7098,-266.246 53.3125,-273.625 51.9708,-263.115 45.7098,-266.246"/>
<text text-anchor="middle" x="46.5" y="-242.3" font-family="Times,serif" font-size="14.00">b</text>
</g>
<!-- 1&#45;&gt;2 -->
<g id="edge4" class="edge"><title>1&#45;&gt;2</title>
<path fill="none" stroke="black" d="M25.5088,-185.625C31.7412,-172.863 40.7229,-154.472 47.9585,-139.656"/>
<polygon fill="black" stroke="black" points="51.1712,-141.054 52.4146,-130.532 44.8812,-137.982 51.1712,-141.054"/>
<text text-anchor="middle" x="45.5" y="-154.3" font-family="Times,serif" font-size="14.00">a</text>
</g>
<!-- 3 -->
<g id="node4" class="node"><title>3</title>
<ellipse fill="lightblue" stroke="black" cx="60" cy="-22" rx="17.5909" ry="18"/>
<ellipse fill="none" stroke="black" cx="60" cy="-22" rx="21.5" ry="22"/>
<text text-anchor="middle" x="60" y="-18.3" font-family="Times,serif" font-size="14.00">3</text>
</g>
<!-- 2&#45;&gt;3 -->
<g id="edge5" class="edge"><title>2&#45;&gt;3</title>
<path fill="none" stroke="black" d="M60,-95.6471C60,-83.9242 60,-68.1144 60,-54.2369"/>
<polygon fill="black" stroke="black" points="63.5001,-54.101 60,-44.101 56.5001,-54.101 63.5001,-54.101"/>
<text text-anchor="middle" x="68.5" y="-66.3" font-family="Times,serif" font-size="14.00">b,a</text>
</g>
<!-- 3&#45;&gt;0 -->
<g id="edge6" class="edge"><title>3&#45;&gt;0</title>
<path fill="none" stroke="black" d="M71.2981,-41.0946C74.8703,-47.4972 78.5273,-54.881 81,-62 86.0348,-76.4951 85.6616,-80.7139 87,-96 93.1458,-166.191 90.1247,-185.41 74,-254 73.2435,-257.218 72.2724,-260.543 71.2023,-263.805"/>
<polygon fill="black" stroke="black" points="67.9039,-262.634 67.8106,-273.229 74.4903,-265.005 67.9039,-262.634"/>
<text text-anchor="middle" x="92.5" y="-154.3" font-family="Times,serif" font-size="14.00">b</text>
</g>
<!-- 3&#45;&gt;1 -->
<g id="edge7" class="edge"><title>3&#45;&gt;1</title>
<path fill="none" stroke="black" d="M49.2615,-41.21C41.3585,-55.5734 31.1324,-76.3883 26,-96 19.2291,-121.873 17.5841,-152.462 17.4178,-173.93"/>
<polygon fill="black" stroke="black" points="13.9178,-173.971 17.4425,-183.963 20.9178,-173.954 13.9178,-173.971"/>
<text text-anchor="middle" x="29.5" y="-110.3" font-family="Times,serif" font-size="14.00">a</text>
</g>
</g>
</svg>
