<?xml version="1.0" encoding="UTF-8" standalone="no"?>
<!DOCTYPE svg PUBLIC "-//W3C//DTD SVG 1.1//EN"
 "http://www.w3.org/Graphics/SVG/1.1/DTD/svg11.dtd">
<!-- Generated by graphviz version 2.36.0 (20140111.2315)
 -->
<!-- Title: %3 Pages: 1 -->
<svg width="89pt" height="316pt"
 viewBox="0.00 0.00 89.00 316.00" xmlns="http://www.w3.org/2000/svg" xmlns:xlink="http://www.w3.org/1999/xlink">
<g id="graph0" class="graph" transform="scale(1 1) rotate(0) translate(4 312)">
<title>%3</title>
<polygon fill="white" stroke="none" points="-4,4 -4,-312 85,-312 85,4 -4,4"/>
<!-- 0 -->
<g id="node1" class="node"><title>0</title>
<ellipse fill="green" stroke="black" cx="18" cy="-114" rx="18" ry="18"/>
<text text-anchor="middle" x="18" y="-110.3" font-family="Times,serif" font-size="14.00">0</text>
</g>
<!-- 0&#45;&gt;0 -->
<g id="edge1" class="edge"><title>0&#45;&gt;0</title>
<path fill="none" stroke="black" d="M34.2903,-121.668C44.3892,-123.517 54,-120.961 54,-114 54,-109.541 50.0557,-106.889 44.5656,-106.045"/>
<polygon fill="black" stroke="black" points="44.1887,-102.554 34.2903,-106.332 44.384,-109.552 44.1887,-102.554"/>
<text text-anchor="middle" x="57.5" y="-110.3" font-family="Times,serif" font-size="14.00">b</text>
</g>
<!-- 2 -->
<g id="node3" class="node"><title>2</title>
<ellipse fill="lightblue" stroke="black" cx="48" cy="-22" rx="17.5909" ry="18"/>
<ellipse fill="none" stroke="black" cx="48" cy="-22" rx="21.5" ry="22"/>
<text text-anchor="middle" x="48" y="-18.3" font-family="Times,serif" font-size="14.00">2</text>
</g>
<!-- 0&#45;&gt;2 -->
<g id="edge2" class="edge"><title>0&#45;&gt;2</title>
<path fill="none" stroke="black" d="M16.7325,-96.0192C16.5254,-85.8813 17.2402,-72.9001 21,-62 22.7345,-56.9714 25.3127,-51.9975 28.1983,-47.3708"/>
<polygon fill="black" stroke="black" points="31.1899,-49.1978 33.9855,-38.9784 25.4272,-45.224 31.1899,-49.1978"/>
<text text-anchor="middle" x="24.5" y="-66.3" font-family="Times,serif" font-size="14.00">a</text>
</g>
<!-- 1 -->
<g id="node2" class="node"><title>1</title>
<ellipse fill="lightblue" stroke="black" cx="32" cy="-202" rx="18" ry="18"/>
<text text-anchor="middle" x="32" y="-198.3" font-family="Times,serif" font-size="14.00">1</text>
</g>
<!-- 1&#45;&gt;0 -->
<g id="edge3" class="edge"><title>1&#45;&gt;0</title>
<path fill="none" stroke="black" d="M29.2341,-184.009C27.2782,-171.995 24.616,-155.641 22.374,-141.869"/>
<polygon fill="black" stroke="black" points="25.8216,-141.263 20.7602,-131.956 18.9125,-142.388 25.8216,-141.263"/>
<text text-anchor="middle" x="30.5" y="-154.3" font-family="Times,serif" font-size="14.00">a</text>
</g>
<!-- 3 -->
<g id="node4" class="node"><title>3</title>
<ellipse fill="lightblue" stroke="black" cx="62" cy="-290" rx="18" ry="18"/>
<text text-anchor="middle" x="62" y="-286.3" font-family="Times,serif" font-size="14.00">3</text>
</g>
<!-- 1&#45;&gt;3 -->
<g id="edge4" class="edge"><title>1&#45;&gt;3</title>
<path fill="none" stroke="black" d="M37.6175,-219.103C41.9267,-231.457 47.9622,-248.758 52.9501,-263.057"/>
<polygon fill="black" stroke="black" points="49.7587,-264.535 56.3572,-272.824 56.3681,-262.229 49.7587,-264.535"/>
<text text-anchor="middle" x="52.5" y="-242.3" font-family="Times,serif" font-size="14.00">b</text>
</g>
<!-- 2&#45;&gt;0 -->
<g id="edge5" class="edge"><title>2&#45;&gt;0</title>
<path fill="none" stroke="black" d="M41.2721,-43.1837C36.9612,-56.1164 31.3241,-73.0278 26.6776,-86.9672"/>
<polygon fill="black" stroke="black" points="23.3444,-85.899 23.5025,-96.4926 29.9852,-88.1126 23.3444,-85.899"/>
<text text-anchor="middle" x="42.5" y="-66.3" font-family="Times,serif" font-size="14.00">b,a</text>
</g>
<!-- 3&#45;&gt;1 -->
<g id="edge6" class="edge"><title>3&#45;&gt;1</title>
<path fill="none" stroke="black" d="M49.6868,-276.848C44.1568,-270.581 38.1724,-262.482 35,-254 32.223,-246.575 31.0193,-238.119 30.6289,-230.256"/>
<polygon fill="black" stroke="black" points="34.1269,-230.019 30.5293,-220.054 27.1272,-230.088 34.1269,-230.019"/>
<text text-anchor="middle" x="38.5" y="-242.3" font-family="Times,serif" font-size="14.00">b</text>
</g>
<!-- 3&#45;&gt;2 -->
<g id="edge7" class="edge"><title>3&#45;&gt;2</title>
<path fill="none" stroke="black" d="M64.8102,-272.109C69.9524,-238.413 79.5123,-160.53 70,-96 67.8311,-81.2864 63.328,-65.426 58.9576,-52.2599"/>
<polygon fill="black" stroke="black" points="62.2562,-51.0892 55.6822,-42.7805 55.64,-53.3753 62.2562,-51.0892"/>
<text text-anchor="middle" x="77.5" y="-154.3" font-family="Times,serif" font-size="14.00">a</text>
</g>
</g>
</svg>
