<?xml version="1.0" encoding="UTF-8" standalone="no"?>
<!DOCTYPE svg PUBLIC "-//W3C//DTD SVG 1.1//EN"
 "http://www.w3.org/Graphics/SVG/1.1/DTD/svg11.dtd">
<!-- Generated by graphviz version 2.36.0 (20140111.2315)
 -->
<!-- Title: %3 Pages: 1 -->
<svg width="134pt" height="404pt"
 viewBox="0.00 0.00 134.00 404.00" xmlns="http://www.w3.org/2000/svg" xmlns:xlink="http://www.w3.org/1999/xlink">
<g id="graph0" class="graph" transform="scale(1 1) rotate(0) translate(4 400)">
<title>%3</title>
<polygon fill="white" stroke="none" points="-4,4 -4,-400 130,-400 130,4 -4,4"/>
<!-- 0 -->
<g id="node1" class="node"><title>0</title>
<ellipse fill="lightblue" stroke="black" cx="89" cy="-378" rx="18" ry="18"/>
<text text-anchor="middle" x="89" y="-374.3" font-family="Times,serif" font-size="14.00">0</text>
</g>
<!-- 1 -->
<g id="node2" class="node"><title>1</title>
<ellipse fill="lightblue" stroke="black" cx="59" cy="-290" rx="18" ry="18"/>
<text text-anchor="middle" x="59" y="-286.3" font-family="Times,serif" font-size="14.00">1</text>
</g>
<!-- 0&#45;&gt;1 -->
<g id="edge1" class="edge"><title>0&#45;&gt;1</title>
<path fill="none" stroke="black" d="M76.6868,-364.848C71.1568,-358.581 65.1724,-350.482 62,-342 59.223,-334.575 58.0193,-326.119 57.6289,-318.256"/>
<polygon fill="black" stroke="black" points="61.1269,-318.019 57.5293,-308.054 54.1272,-318.088 61.1269,-318.019"/>
<text text-anchor="middle" x="65.5" y="-330.3" font-family="Times,serif" font-size="14.00">b</text>
</g>
<!-- 2 -->
<g id="node3" class="node"><title>2</title>
<ellipse fill="lightblue" stroke="black" cx="62" cy="-18" rx="18" ry="18"/>
<text text-anchor="middle" x="62" y="-14.3" font-family="Times,serif" font-size="14.00">2</text>
</g>
<!-- 0&#45;&gt;2 -->
<g id="edge2" class="edge"><title>0&#45;&gt;2</title>
<path fill="none" stroke="black" d="M97.6772,-362.016C106.537,-345.275 119,-317.091 119,-291 119,-291 119,-291 119,-109 119,-80.7719 98.7397,-54.2125 82.3771,-37.3656"/>
<polygon fill="black" stroke="black" points="84.8075,-34.8469 75.2202,-30.3375 79.9029,-39.8414 84.8075,-34.8469"/>
<text text-anchor="middle" x="122.5" y="-198.3" font-family="Times,serif" font-size="14.00">a</text>
</g>
<!-- 1&#45;&gt;0 -->
<g id="edge3" class="edge"><title>1&#45;&gt;0</title>
<path fill="none" stroke="black" d="M64.6175,-307.103C68.9267,-319.457 74.9622,-336.758 79.9501,-351.057"/>
<polygon fill="black" stroke="black" points="76.7587,-352.535 83.3572,-360.824 83.3681,-350.229 76.7587,-352.535"/>
<text text-anchor="middle" x="79.5" y="-330.3" font-family="Times,serif" font-size="14.00">b</text>
</g>
<!-- 4 -->
<g id="node5" class="node"><title>4</title>
<ellipse fill="lightblue" stroke="black" cx="24" cy="-202" rx="18" ry="18"/>
<text text-anchor="middle" x="24" y="-198.3" font-family="Times,serif" font-size="14.00">4</text>
</g>
<!-- 1&#45;&gt;4 -->
<g id="edge4" class="edge"><title>1&#45;&gt;4</title>
<path fill="none" stroke="black" d="M44.657,-279.122C36.9593,-272.912 28.2093,-264.162 24,-254 20.9717,-246.689 20.0578,-238.267 20.1512,-230.4"/>
<polygon fill="black" stroke="black" points="23.6597,-230.375 20.7988,-220.174 16.6737,-229.933 23.6597,-230.375"/>
<text text-anchor="middle" x="27.5" y="-242.3" font-family="Times,serif" font-size="14.00">a</text>
</g>
<!-- 2&#45;&gt;1 -->
<g id="edge5" class="edge"><title>2&#45;&gt;1</title>
<path fill="none" stroke="black" d="M61.8094,-36.1564C61.3032,-81.7103 59.9221,-206.009 59.305,-261.551"/>
<polygon fill="black" stroke="black" points="55.8036,-261.661 59.1922,-271.7 62.8032,-261.739 55.8036,-261.661"/>
<text text-anchor="middle" x="63.5" y="-154.3" font-family="Times,serif" font-size="14.00">a</text>
</g>
<!-- 3 -->
<g id="node4" class="node"><title>3</title>
<ellipse fill="green" stroke="black" cx="22" cy="-110" rx="17.5909" ry="18"/>
<ellipse fill="none" stroke="black" cx="22" cy="-110" rx="21.5" ry="22"/>
<text text-anchor="middle" x="22" y="-106.3" font-family="Times,serif" font-size="14.00">3</text>
</g>
<!-- 2&#45;&gt;3 -->
<g id="edge6" class="edge"><title>2&#45;&gt;3</title>
<path fill="none" stroke="black" d="M54.9366,-34.8927C49.3851,-47.3835 41.5044,-65.115 34.8436,-80.1018"/>
<polygon fill="black" stroke="black" points="31.5425,-78.9117 30.6794,-89.4713 37.9392,-81.7547 31.5425,-78.9117"/>
<text text-anchor="middle" x="49.5" y="-58.3" font-family="Times,serif" font-size="14.00">b</text>
</g>
<!-- 3&#45;&gt;2 -->
<g id="edge7" class="edge"><title>3&#45;&gt;2</title>
<path fill="none" stroke="black" d="M21.6507,-87.7681C22.2201,-77.1819 24.0666,-64.4442 29,-54 31.9026,-47.8551 36.2943,-42.0803 40.9351,-37.0612"/>
<polygon fill="black" stroke="black" points="43.5864,-39.3625 48.2547,-29.8515 38.6742,-34.3754 43.5864,-39.3625"/>
<text text-anchor="middle" x="32.5" y="-58.3" font-family="Times,serif" font-size="14.00">b</text>
</g>
<!-- 3&#45;&gt;4 -->
<g id="edge8" class="edge"><title>3&#45;&gt;4</title>
<path fill="none" stroke="black" d="M22.4689,-132.101C22.744,-144.48 23.0946,-160.258 23.3909,-173.59"/>
<polygon fill="black" stroke="black" points="19.893,-173.727 23.6144,-183.647 26.8913,-173.572 19.893,-173.727"/>
<text text-anchor="middle" x="27.5" y="-154.3" font-family="Times,serif" font-size="14.00">a</text>
</g>
<!-- 4&#45;&gt;1 -->
<g id="edge9" class="edge"><title>4&#45;&gt;1</title>
<path fill="none" stroke="black" d="M30.4355,-218.813C35.5114,-231.285 42.693,-248.931 48.5852,-263.409"/>
<polygon fill="black" stroke="black" points="45.4053,-264.881 52.4168,-272.824 51.889,-262.242 45.4053,-264.881"/>
<text text-anchor="middle" x="48.5" y="-242.3" font-family="Times,serif" font-size="14.00">a</text>
</g>
<!-- 4&#45;&gt;3 -->
<g id="edge10" class="edge"><title>4&#45;&gt;3</title>
<path fill="none" stroke="black" d="M17.3664,-185.258C15.201,-179.332 13.0772,-172.463 12,-166 10.6313,-157.788 11.3027,-148.904 12.8006,-140.72"/>
<polygon fill="black" stroke="black" points="16.2446,-141.359 15.0487,-130.832 9.41879,-139.808 16.2446,-141.359"/>
<text text-anchor="middle" x="15.5" y="-154.3" font-family="Times,serif" font-size="14.00">b</text>
</g>
</g>
</svg>
