<?xml version="1.0" encoding="UTF-8" standalone="no"?>
<!DOCTYPE svg PUBLIC "-//W3C//DTD SVG 1.1//EN"
 "http://www.w3.org/Graphics/SVG/1.1/DTD/svg11.dtd">
<!-- Generated by graphviz version 2.36.0 (20140111.2315)
 -->
<!-- Title: %3 Pages: 1 -->
<svg width="148pt" height="316pt"
 viewBox="0.00 0.00 148.00 316.00" xmlns="http://www.w3.org/2000/svg" xmlns:xlink="http://www.w3.org/1999/xlink">
<g id="graph0" class="graph" transform="scale(1 1) rotate(0) translate(4 312)">
<title>%3</title>
<polygon fill="white" stroke="none" points="-4,4 -4,-312 144,-312 144,4 -4,4"/>
<!-- 0 -->
<g id="node1" class="node"><title>0</title>
<ellipse fill="green" stroke="black" cx="97" cy="-290" rx="18" ry="18"/>
<text text-anchor="middle" x="97" y="-286.3" font-family="Times,serif" font-size="14.00">0</text>
</g>
<!-- 0&#45;&gt;0 -->
<g id="edge1" class="edge"><title>0&#45;&gt;0</title>
<path fill="none" stroke="black" d="M113.29,-297.668C123.389,-299.517 133,-296.961 133,-290 133,-285.541 129.056,-282.889 123.566,-282.045"/>
<polygon fill="black" stroke="black" points="123.189,-278.554 113.29,-282.332 123.384,-285.552 123.189,-278.554"/>
<text text-anchor="middle" x="136.5" y="-286.3" font-family="Times,serif" font-size="14.00">a</text>
</g>
<!-- 2 -->
<g id="node3" class="node"><title>2</title>
<ellipse fill="lightblue" stroke="black" cx="18" cy="-202" rx="18" ry="18"/>
<text text-anchor="middle" x="18" y="-198.3" font-family="Times,serif" font-size="14.00">2</text>
</g>
<!-- 0&#45;&gt;2 -->
<g id="edge2" class="edge"><title>0&#45;&gt;2</title>
<path fill="none" stroke="black" d="M85.0016,-275.938C72.167,-261.967 51.6422,-239.623 36.688,-223.344"/>
<polygon fill="black" stroke="black" points="39.1951,-220.899 29.8525,-215.903 34.0399,-225.635 39.1951,-220.899"/>
<text text-anchor="middle" x="68.5" y="-242.3" font-family="Times,serif" font-size="14.00">b</text>
</g>
<!-- 1 -->
<g id="node2" class="node"><title>1</title>
<ellipse fill="lightblue" stroke="black" cx="83" cy="-114" rx="18" ry="18"/>
<text text-anchor="middle" x="83" y="-110.3" font-family="Times,serif" font-size="14.00">1</text>
</g>
<!-- 1&#45;&gt;0 -->
<g id="edge3" class="edge"><title>1&#45;&gt;0</title>
<path fill="none" stroke="black" d="M84.3734,-132.07C86.803,-162.266 91.8775,-225.334 94.7997,-261.653"/>
<polygon fill="black" stroke="black" points="91.3413,-262.312 95.6321,-271.999 98.3188,-261.751 91.3413,-262.312"/>
<text text-anchor="middle" x="94.5" y="-198.3" font-family="Times,serif" font-size="14.00">b</text>
</g>
<!-- 3 -->
<g id="node4" class="node"><title>3</title>
<ellipse fill="lightblue" stroke="black" cx="110" cy="-22" rx="17.5909" ry="18"/>
<ellipse fill="none" stroke="black" cx="110" cy="-22" rx="21.5" ry="22"/>
<text text-anchor="middle" x="110" y="-18.3" font-family="Times,serif" font-size="14.00">3</text>
</g>
<!-- 1&#45;&gt;3 -->
<g id="edge4" class="edge"><title>1&#45;&gt;3</title>
<path fill="none" stroke="black" d="M80.5058,-96.0823C79.6216,-85.9667 79.568,-72.9868 83,-62 84.5861,-56.9226 87.0907,-51.9245 89.9494,-47.289"/>
<polygon fill="black" stroke="black" points="92.941,-49.1159 95.7346,-38.896 87.1775,-45.1432 92.941,-49.1159"/>
<text text-anchor="middle" x="86.5" y="-66.3" font-family="Times,serif" font-size="14.00">a</text>
</g>
<!-- 2&#45;&gt;1 -->
<g id="edge5" class="edge"><title>2&#45;&gt;1</title>
<path fill="none" stroke="black" d="M28.4434,-187.183C38.6778,-173.642 54.4375,-152.79 66.3919,-136.974"/>
<polygon fill="black" stroke="black" points="69.3451,-138.871 72.5825,-128.783 63.7607,-134.65 69.3451,-138.871"/>
<text text-anchor="middle" x="60.5" y="-154.3" font-family="Times,serif" font-size="14.00">a</text>
</g>
<!-- 2&#45;&gt;2 -->
<g id="edge6" class="edge"><title>2&#45;&gt;2</title>
<path fill="none" stroke="black" d="M34.2903,-209.668C44.3892,-211.517 54,-208.961 54,-202 54,-197.541 50.0557,-194.889 44.5656,-194.045"/>
<polygon fill="black" stroke="black" points="44.1887,-190.554 34.2903,-194.332 44.384,-197.552 44.1887,-190.554"/>
<text text-anchor="middle" x="57.5" y="-198.3" font-family="Times,serif" font-size="14.00">b</text>
</g>
<!-- 3&#45;&gt;0 -->
<g id="edge7" class="edge"><title>3&#45;&gt;0</title>
<path fill="none" stroke="black" d="M111.666,-44.181C114.453,-85.0425 118.678,-177.478 107,-254 106.553,-256.928 105.935,-259.958 105.222,-262.953"/>
<polygon fill="black" stroke="black" points="101.789,-262.242 102.552,-272.809 108.545,-264.072 101.789,-262.242"/>
<text text-anchor="middle" x="117.5" y="-154.3" font-family="Times,serif" font-size="14.00">a</text>
</g>
<!-- 3&#45;&gt;1 -->
<g id="edge8" class="edge"><title>3&#45;&gt;1</title>
<path fill="none" stroke="black" d="M103.945,-43.1837C100.103,-55.9908 95.0901,-72.6998 90.9319,-86.5604"/>
<polygon fill="black" stroke="black" points="87.4734,-85.9086 87.9522,-96.4926 94.1782,-87.9201 87.4734,-85.9086"/>
<text text-anchor="middle" x="101.5" y="-66.3" font-family="Times,serif" font-size="14.00">b</text>
</g>
</g>
</svg>
