<?xml version="1.0" encoding="UTF-8" standalone="no"?>
<!DOCTYPE svg PUBLIC "-//W3C//DTD SVG 1.1//EN"
 "http://www.w3.org/Graphics/SVG/1.1/DTD/svg11.dtd">
<!-- Generated by graphviz version 2.36.0 (20140111.2315)
 -->
<!-- Title: %3 Pages: 1 -->
<svg width="123pt" height="316pt"
 viewBox="0.00 0.00 123.00 316.00" xmlns="http://www.w3.org/2000/svg" xmlns:xlink="http://www.w3.org/1999/xlink">
<g id="graph0" class="graph" transform="scale(1 1) rotate(0) translate(4 312)">
<title>%3</title>
<polygon fill="white" stroke="none" points="-4,4 -4,-312 119,-312 119,4 -4,4"/>
<!-- 0 -->
<g id="node1" class="node"><title>0</title>
<ellipse fill="lightblue" stroke="black" cx="61" cy="-290" rx="18" ry="18"/>
<text text-anchor="middle" x="61" y="-286.3" font-family="Times,serif" font-size="14.00">0</text>
</g>
<!-- 1 -->
<g id="node2" class="node"><title>1</title>
<ellipse fill="lightblue" stroke="black" cx="18" cy="-202" rx="18" ry="18"/>
<text text-anchor="middle" x="18" y="-198.3" font-family="Times,serif" font-size="14.00">1</text>
</g>
<!-- 0&#45;&gt;1 -->
<g id="edge1" class="edge"><title>0&#45;&gt;1</title>
<path fill="none" stroke="black" d="M45.7638,-279.616C37.2134,-273.464 27.2382,-264.604 22,-254 18.4444,-246.802 16.901,-238.329 16.3921,-230.379"/>
<polygon fill="black" stroke="black" points="19.8918,-230.324 16.2368,-220.379 12.8926,-230.433 19.8918,-230.324"/>
<text text-anchor="middle" x="25.5" y="-242.3" font-family="Times,serif" font-size="14.00">b</text>
</g>
<!-- 3 -->
<g id="node4" class="node"><title>3</title>
<ellipse fill="green" stroke="black" cx="72" cy="-114" rx="18" ry="18"/>
<text text-anchor="middle" x="72" y="-110.3" font-family="Times,serif" font-size="14.00">3</text>
</g>
<!-- 0&#45;&gt;3 -->
<g id="edge2" class="edge"><title>0&#45;&gt;3</title>
<path fill="none" stroke="black" d="M62.0748,-271.999C63.9805,-241.853 67.9673,-178.79 70.2659,-142.43"/>
<polygon fill="black" stroke="black" points="73.7829,-142.271 70.9209,-132.07 66.7968,-141.829 73.7829,-142.271"/>
<text text-anchor="middle" x="75" y="-198.3" font-family="Times,serif" font-size="14.00">c,a</text>
</g>
<!-- 1&#45;&gt;0 -->
<g id="edge3" class="edge"><title>1&#45;&gt;0</title>
<path fill="none" stroke="black" d="M25.766,-218.532C32.1697,-231.339 41.3694,-249.739 48.7626,-264.525"/>
<polygon fill="black" stroke="black" points="45.7098,-266.246 53.3125,-273.625 51.9708,-263.115 45.7098,-266.246"/>
<text text-anchor="middle" x="46.5" y="-242.3" font-family="Times,serif" font-size="14.00">a</text>
</g>
<!-- 2 -->
<g id="node3" class="node"><title>2</title>
<ellipse fill="lightblue" stroke="black" cx="33" cy="-22" rx="17.5909" ry="18"/>
<ellipse fill="none" stroke="black" cx="33" cy="-22" rx="21.5" ry="22"/>
<text text-anchor="middle" x="33" y="-18.3" font-family="Times,serif" font-size="14.00">2</text>
</g>
<!-- 1&#45;&gt;2 -->
<g id="edge4" class="edge"><title>1&#45;&gt;2</title>
<path fill="none" stroke="black" d="M19.4383,-183.933C21.9477,-154.154 27.1613,-92.2862 30.343,-54.5293"/>
<polygon fill="black" stroke="black" points="33.8692,-54.3656 31.2213,-44.1069 26.8939,-53.7777 33.8692,-54.3656"/>
<text text-anchor="middle" x="29.5" y="-110.3" font-family="Times,serif" font-size="14.00">c</text>
</g>
<!-- 1&#45;&gt;3 -->
<g id="edge5" class="edge"><title>1&#45;&gt;3</title>
<path fill="none" stroke="black" d="M27.1604,-186.411C35.3836,-173.315 47.6029,-153.855 57.2098,-138.555"/>
<polygon fill="black" stroke="black" points="60.4411,-139.99 62.7947,-129.66 54.5129,-136.268 60.4411,-139.99"/>
<text text-anchor="middle" x="52.5" y="-154.3" font-family="Times,serif" font-size="14.00">b</text>
</g>
<!-- 2&#45;&gt;1 -->
<g id="edge6" class="edge"><title>2&#45;&gt;1</title>
<path fill="none" stroke="black" d="M26.0135,-42.8418C21.2863,-57.3568 15.47,-77.6371 13,-96 9.44112,-122.459 11.5822,-152.964 14.071,-174.252"/>
<polygon fill="black" stroke="black" points="10.6011,-174.711 15.3365,-184.189 17.545,-173.827 10.6011,-174.711"/>
<text text-anchor="middle" x="16.5" y="-110.3" font-family="Times,serif" font-size="14.00">b</text>
</g>
<!-- 2&#45;&gt;2 -->
<g id="edge7" class="edge"><title>2&#45;&gt;2</title>
<path fill="none" stroke="black" d="M53.0663,-30.7341C63.0736,-31.9426 72,-29.0312 72,-22 72,-17.4956 68.3366,-14.682 63.0725,-13.5592"/>
<polygon fill="black" stroke="black" points="63.1646,-10.0605 53.0663,-13.2659 62.9594,-17.0575 63.1646,-10.0605"/>
<text text-anchor="middle" x="75.5" y="-18.3" font-family="Times,serif" font-size="14.00">a</text>
</g>
<!-- 2&#45;&gt;3 -->
<g id="edge8" class="edge"><title>2&#45;&gt;3</title>
<path fill="none" stroke="black" d="M45.6331,-40.2241C50.016,-46.7926 54.6627,-54.5062 58,-62 61.3764,-69.5816 64.1139,-78.1674 66.2427,-86.1032"/>
<polygon fill="black" stroke="black" points="62.8968,-87.1533 68.6931,-96.0219 69.6925,-85.4743 62.8968,-87.1533"/>
<text text-anchor="middle" x="66.5" y="-66.3" font-family="Times,serif" font-size="14.00">c</text>
</g>
<!-- 3&#45;&gt;0 -->
<g id="edge9" class="edge"><title>3&#45;&gt;0</title>
<path fill="none" stroke="black" d="M77.7911,-131.212C79.6972,-137.069 81.6672,-143.772 83,-150 89.5207,-180.472 91.4418,-189.156 87,-220 84.7898,-235.347 78.8506,-251.618 73.2059,-264.503"/>
<polygon fill="black" stroke="black" points="70.0094,-263.077 69.0134,-273.625 76.3698,-266.001 70.0094,-263.077"/>
<text text-anchor="middle" x="92.5" y="-198.3" font-family="Times,serif" font-size="14.00">a</text>
</g>
<!-- 3&#45;&gt;2 -->
<g id="edge10" class="edge"><title>3&#45;&gt;2</title>
<path fill="none" stroke="black" d="M63.1739,-97.9157C59.7835,-91.832 56.0089,-84.6827 53,-78 49.382,-69.9644 45.9199,-61.0604 42.9232,-52.7989"/>
<polygon fill="black" stroke="black" points="46.1447,-51.4097 39.5196,-43.1417 39.5427,-53.7365 46.1447,-51.4097"/>
<text text-anchor="middle" x="56.5" y="-66.3" font-family="Times,serif" font-size="14.00">c</text>
</g>
<!-- 3&#45;&gt;3 -->
<g id="edge11" class="edge"><title>3&#45;&gt;3</title>
<path fill="none" stroke="black" d="M88.2903,-121.668C98.3892,-123.517 108,-120.961 108,-114 108,-109.541 104.056,-106.889 98.5656,-106.045"/>
<polygon fill="black" stroke="black" points="98.1887,-102.554 88.2903,-106.332 98.384,-109.552 98.1887,-102.554"/>
<text text-anchor="middle" x="111.5" y="-110.3" font-family="Times,serif" font-size="14.00">b</text>
</g>
</g>
</svg>
