<?xml version="1.0" encoding="UTF-8" standalone="no"?>
<!DOCTYPE svg PUBLIC "-//W3C//DTD SVG 1.1//EN"
 "http://www.w3.org/Graphics/SVG/1.1/DTD/svg11.dtd">
<!-- Generated by graphviz version 2.36.0 (20140111.2315)
 -->
<!-- Title: %3 Pages: 1 -->
<svg width="145pt" height="228pt"
 viewBox="0.00 0.00 145.33 228.00" xmlns="http://www.w3.org/2000/svg" xmlns:xlink="http://www.w3.org/1999/xlink">
<g id="graph0" class="graph" transform="scale(1 1) rotate(0) translate(4 224)">
<title>%3</title>
<polygon fill="white" stroke="none" points="-4,4 -4,-224 141.333,-224 141.333,4 -4,4"/>
<!-- 0 -->
<g id="node1" class="node"><title>0</title>
<ellipse fill="lightblue" stroke="black" cx="31.3328" cy="-202" rx="18" ry="18"/>
<text text-anchor="middle" x="31.3328" y="-198.3" font-family="Times,serif" font-size="14.00">0</text>
</g>
<!-- 1 -->
<g id="node2" class="node"><title>1</title>
<ellipse fill="lightblue" stroke="black" cx="31.3328" cy="-22" rx="17.5909" ry="18"/>
<ellipse fill="none" stroke="black" cx="31.3328" cy="-22" rx="21.5" ry="22"/>
<text text-anchor="middle" x="31.3328" y="-18.3" font-family="Times,serif" font-size="14.00">1</text>
</g>
<!-- 0&#45;&gt;1 -->
<g id="edge1" class="edge"><title>0&#45;&gt;1</title>
<path fill="none" stroke="black" d="M22.9349,-185.944C15.8531,-172.329 6.26186,-151.489 2.33281,-132 -0.829234,-116.316 -0.67434,-111.715 2.33281,-96 5.2821,-80.5875 11.4393,-64.2814 17.3247,-50.999"/>
<polygon fill="black" stroke="black" points="20.503,-52.4645 21.5123,-41.9178 14.1463,-49.5331 20.503,-52.4645"/>
<text text-anchor="middle" x="5.83281" y="-110.3" font-family="Times,serif" font-size="14.00">b</text>
</g>
<!-- 2 -->
<g id="node3" class="node"><title>2</title>
<ellipse fill="lightblue" stroke="black" cx="74.3328" cy="-114" rx="18" ry="18"/>
<text text-anchor="middle" x="74.3328" y="-110.3" font-family="Times,serif" font-size="14.00">2</text>
</g>
<!-- 0&#45;&gt;2 -->
<g id="edge2" class="edge"><title>0&#45;&gt;2</title>
<path fill="none" stroke="black" d="M39.0203,-185.625C45.4012,-172.863 54.5968,-154.472 62.0046,-139.656"/>
<polygon fill="black" stroke="black" points="65.2252,-141.041 66.5668,-130.532 58.9642,-137.911 65.2252,-141.041"/>
<text text-anchor="middle" x="59.8328" y="-154.3" font-family="Times,serif" font-size="14.00">a</text>
</g>
<!-- 1&#45;&gt;0 -->
<g id="edge3" class="edge"><title>1&#45;&gt;0</title>
<path fill="none" stroke="black" d="M31.3328,-44.1069C31.3328,-76.4168 31.3328,-138.132 31.3328,-173.771"/>
<polygon fill="black" stroke="black" points="27.8329,-173.933 31.3328,-183.933 34.8329,-173.933 27.8329,-173.933"/>
<text text-anchor="middle" x="34.8328" y="-110.3" font-family="Times,serif" font-size="14.00">b</text>
</g>
<!-- 1&#45;&gt;1 -->
<g id="edge4" class="edge"><title>1&#45;&gt;1</title>
<path fill="none" stroke="black" d="M51.3991,-30.7341C61.4064,-31.9426 70.3328,-29.0312 70.3328,-22 70.3328,-17.4956 66.6694,-14.682 61.4053,-13.5592"/>
<polygon fill="black" stroke="black" points="61.4974,-10.0605 51.3991,-13.2659 61.2922,-17.0575 61.4974,-10.0605"/>
<text text-anchor="middle" x="73.8328" y="-18.3" font-family="Times,serif" font-size="14.00">a</text>
</g>
<!-- 2&#45;&gt;1 -->
<g id="edge5" class="edge"><title>2&#45;&gt;1</title>
<path fill="none" stroke="black" d="M66.8428,-97.3232C60.8423,-84.764 52.2631,-66.8075 45.0406,-51.6906"/>
<polygon fill="black" stroke="black" points="48.0001,-49.7662 40.531,-42.252 41.684,-52.784 48.0001,-49.7662"/>
<text text-anchor="middle" x="64.8328" y="-66.3" font-family="Times,serif" font-size="14.00">b,a</text>
</g>
<!-- 3 -->
<g id="node4" class="node"><title>3</title>
<ellipse fill="green" stroke="black" cx="94.3328" cy="-202" rx="18" ry="18"/>
<text text-anchor="middle" x="94.3328" y="-198.3" font-family="Times,serif" font-size="14.00">3</text>
</g>
<!-- 3&#45;&gt;2 -->
<g id="edge6" class="edge"><title>3&#45;&gt;2</title>
<path fill="none" stroke="black" d="M90.3815,-184.009C87.5692,-171.917 83.7348,-155.428 80.5191,-141.601"/>
<polygon fill="black" stroke="black" points="83.8821,-140.61 78.2079,-131.663 77.0641,-142.196 83.8821,-140.61"/>
<text text-anchor="middle" x="88.8328" y="-154.3" font-family="Times,serif" font-size="14.00">b</text>
</g>
<!-- 3&#45;&gt;3 -->
<g id="edge7" class="edge"><title>3&#45;&gt;3</title>
<path fill="none" stroke="black" d="M110.623,-209.668C120.722,-211.517 130.333,-208.961 130.333,-202 130.333,-197.541 126.389,-194.889 120.898,-194.045"/>
<polygon fill="black" stroke="black" points="120.522,-190.554 110.623,-194.332 120.717,-197.552 120.522,-190.554"/>
<text text-anchor="middle" x="133.833" y="-198.3" font-family="Times,serif" font-size="14.00">a</text>
</g>
</g>
</svg>
