<?xml version="1.0" encoding="UTF-8" standalone="no"?>
<!DOCTYPE svg PUBLIC "-//W3C//DTD SVG 1.1//EN"
 "http://www.w3.org/Graphics/SVG/1.1/DTD/svg11.dtd">
<!-- Generated by graphviz version 2.36.0 (20140111.2315)
 -->
<!-- Title: %3 Pages: 1 -->
<svg width="123pt" height="316pt"
 viewBox="0.00 0.00 122.94 316.00" xmlns="http://www.w3.org/2000/svg" xmlns:xlink="http://www.w3.org/1999/xlink">
<g id="graph0" class="graph" transform="scale(1 1) rotate(0) translate(4 312)">
<title>%3</title>
<polygon fill="white" stroke="none" points="-4,4 -4,-312 118.941,-312 118.941,4 -4,4"/>
<!-- 0 -->
<g id="node1" class="node"><title>0</title>
<ellipse fill="lightblue" stroke="black" cx="61.9407" cy="-202" rx="18" ry="18"/>
<text text-anchor="middle" x="61.9407" y="-198.3" font-family="Times,serif" font-size="14.00">0</text>
</g>
<!-- 1 -->
<g id="node2" class="node"><title>1</title>
<ellipse fill="lightblue" stroke="black" cx="83.9407" cy="-114" rx="18" ry="18"/>
<text text-anchor="middle" x="83.9407" y="-110.3" font-family="Times,serif" font-size="14.00">1</text>
</g>
<!-- 0&#45;&gt;1 -->
<g id="edge1" class="edge"><title>0&#45;&gt;1</title>
<path fill="none" stroke="black" d="M66.7814,-184.662C68.4743,-178.794 70.3484,-172.116 71.9407,-166 73.9574,-158.254 76.0056,-149.807 77.8253,-142.056"/>
<polygon fill="black" stroke="black" points="81.2962,-142.581 80.1407,-132.05 74.4764,-141.003 81.2962,-142.581"/>
<text text-anchor="middle" x="78.4407" y="-154.3" font-family="Times,serif" font-size="14.00">b</text>
</g>
<!-- 2 -->
<g id="node3" class="node"><title>2</title>
<ellipse fill="green" stroke="black" cx="30.9407" cy="-22" rx="17.5909" ry="18"/>
<ellipse fill="none" stroke="black" cx="30.9407" cy="-22" rx="21.5" ry="22"/>
<text text-anchor="middle" x="30.9407" y="-18.3" font-family="Times,serif" font-size="14.00">2</text>
</g>
<!-- 0&#45;&gt;2 -->
<g id="edge2" class="edge"><title>0&#45;&gt;2</title>
<path fill="none" stroke="black" d="M46.5805,-191.854C37.0465,-185.555 25.0995,-176.456 16.9407,-166 6.78001,-152.979 5.34723,-148.161 1.94065,-132 -3.96998,-103.959 6.35398,-72.3577 16.2829,-50.4299"/>
<polygon fill="black" stroke="black" points="19.4569,-51.9053 20.6109,-41.3735 13.141,-48.8869 19.4569,-51.9053"/>
<text text-anchor="middle" x="5.44065" y="-110.3" font-family="Times,serif" font-size="14.00">a</text>
</g>
<!-- 1&#45;&gt;0 -->
<g id="edge3" class="edge"><title>1&#45;&gt;0</title>
<path fill="none" stroke="black" d="M75.2731,-129.869C72.1334,-135.923 68.8847,-143.108 66.9407,-150 64.8152,-157.535 63.5601,-165.916 62.8283,-173.671"/>
<polygon fill="black" stroke="black" points="59.3318,-173.499 62.1219,-183.72 66.3146,-173.99 59.3318,-173.499"/>
<text text-anchor="middle" x="70.4407" y="-154.3" font-family="Times,serif" font-size="14.00">b</text>
</g>
<!-- 1&#45;&gt;2 -->
<g id="edge4" class="edge"><title>1&#45;&gt;2</title>
<path fill="none" stroke="black" d="M75.1888,-98.1383C67.5205,-85.1168 56.1828,-65.8641 46.904,-50.1075"/>
<polygon fill="black" stroke="black" points="49.8122,-48.1486 41.7219,-41.3078 43.7804,-51.7007 49.8122,-48.1486"/>
<text text-anchor="middle" x="65.4407" y="-66.3" font-family="Times,serif" font-size="14.00">a</text>
</g>
<!-- 2&#45;&gt;0 -->
<g id="edge5" class="edge"><title>2&#45;&gt;0</title>
<path fill="none" stroke="black" d="M34.5672,-43.8232C40.1789,-76.0455 50.9675,-137.993 57.1934,-173.741"/>
<polygon fill="black" stroke="black" points="53.8043,-174.681 58.9682,-183.933 60.7005,-173.48 53.8043,-174.681"/>
<text text-anchor="middle" x="53.4407" y="-110.3" font-family="Times,serif" font-size="14.00">a</text>
</g>
<!-- 2&#45;&gt;2 -->
<g id="edge6" class="edge"><title>2&#45;&gt;2</title>
<path fill="none" stroke="black" d="M51.0069,-30.7341C61.0143,-31.9426 69.9407,-29.0312 69.9407,-22 69.9407,-17.4956 66.2773,-14.682 61.0131,-13.5592"/>
<polygon fill="black" stroke="black" points="61.1052,-10.0605 51.0069,-13.2659 60.9001,-17.0575 61.1052,-10.0605"/>
<text text-anchor="middle" x="73.4407" y="-18.3" font-family="Times,serif" font-size="14.00">b</text>
</g>
<!-- 3 -->
<g id="node4" class="node"><title>3</title>
<ellipse fill="lightblue" stroke="black" cx="96.9407" cy="-290" rx="18" ry="18"/>
<text text-anchor="middle" x="96.9407" y="-286.3" font-family="Times,serif" font-size="14.00">3</text>
</g>
<!-- 3&#45;&gt;0 -->
<g id="edge7" class="edge"><title>3&#45;&gt;0</title>
<path fill="none" stroke="black" d="M90.3574,-272.824C85.2411,-260.252 78.0519,-242.588 72.1849,-228.172"/>
<polygon fill="black" stroke="black" points="75.3875,-226.756 68.3761,-218.813 68.9039,-229.395 75.3875,-226.756"/>
<text text-anchor="middle" x="85.4407" y="-242.3" font-family="Times,serif" font-size="14.00">a</text>
</g>
<!-- 3&#45;&gt;1 -->
<g id="edge8" class="edge"><title>3&#45;&gt;1</title>
<path fill="none" stroke="black" d="M95.6705,-271.999C93.4182,-241.853 88.7065,-178.79 85.99,-142.43"/>
<polygon fill="black" stroke="black" points="89.4514,-141.781 85.216,-132.07 82.4708,-142.303 89.4514,-141.781"/>
<text text-anchor="middle" x="94.4407" y="-198.3" font-family="Times,serif" font-size="14.00">b</text>
</g>
</g>
</svg>
