<?xml version="1.0" encoding="UTF-8" standalone="no"?>
<!DOCTYPE svg PUBLIC "-//W3C//DTD SVG 1.1//EN"
 "http://www.w3.org/Graphics/SVG/1.1/DTD/svg11.dtd">
<!-- Generated by graphviz version 2.36.0 (20140111.2315)
 -->
<!-- Title: %3 Pages: 1 -->
<svg width="106pt" height="404pt"
 viewBox="0.00 0.00 106.37 404.00" xmlns="http://www.w3.org/2000/svg" xmlns:xlink="http://www.w3.org/1999/xlink">
<g id="graph0" class="graph" transform="scale(1 1) rotate(0) translate(4 400)">
<title>%3</title>
<polygon fill="white" stroke="none" points="-4,4 -4,-400 102.372,-400 102.372,4 -4,4"/>
<!-- 0 -->
<g id="node1" class="node"><title>0</title>
<ellipse fill="lightblue" stroke="black" cx="69.3715" cy="-378" rx="18" ry="18"/>
<text text-anchor="middle" x="69.3715" y="-374.3" font-family="Times,serif" font-size="14.00">0</text>
</g>
<!-- 2 -->
<g id="node3" class="node"><title>2</title>
<ellipse fill="lightblue" stroke="black" cx="31.3715" cy="-290" rx="18" ry="18"/>
<text text-anchor="middle" x="31.3715" y="-286.3" font-family="Times,serif" font-size="14.00">2</text>
</g>
<!-- 0&#45;&gt;2 -->
<g id="edge1" class="edge"><title>0&#45;&gt;2</title>
<path fill="none" stroke="black" d="M62.4017,-361.226C56.8309,-348.619 48.9161,-330.706 42.4744,-316.128"/>
<polygon fill="black" stroke="black" points="45.5402,-314.406 38.2971,-306.674 39.1374,-317.235 45.5402,-314.406"/>
<text text-anchor="middle" x="62.8715" y="-330.3" font-family="Times,serif" font-size="14.00">b,a</text>
</g>
<!-- 1 -->
<g id="node2" class="node"><title>1</title>
<ellipse fill="green" stroke="black" cx="61.3715" cy="-22" rx="17.5909" ry="18"/>
<ellipse fill="none" stroke="black" cx="61.3715" cy="-22" rx="21.5" ry="22"/>
<text text-anchor="middle" x="61.3715" y="-18.3" font-family="Times,serif" font-size="14.00">1</text>
</g>
<!-- 3 -->
<g id="node4" class="node"><title>3</title>
<ellipse fill="lightblue" stroke="black" cx="80.3715" cy="-202" rx="18" ry="18"/>
<text text-anchor="middle" x="80.3715" y="-198.3" font-family="Times,serif" font-size="14.00">3</text>
</g>
<!-- 1&#45;&gt;3 -->
<g id="edge2" class="edge"><title>1&#45;&gt;3</title>
<path fill="none" stroke="black" d="M63.6245,-44.1069C67.0733,-76.4168 73.6609,-138.132 77.465,-173.771"/>
<polygon fill="black" stroke="black" points="74.008,-174.361 78.5497,-183.933 80.9685,-173.618 74.008,-174.361"/>
<text text-anchor="middle" x="75.8715" y="-110.3" font-family="Times,serif" font-size="14.00">a</text>
</g>
<!-- 4 -->
<g id="node5" class="node"><title>4</title>
<ellipse fill="lightblue" stroke="black" cx="31.3715" cy="-114" rx="18" ry="18"/>
<text text-anchor="middle" x="31.3715" y="-110.3" font-family="Times,serif" font-size="14.00">4</text>
</g>
<!-- 1&#45;&gt;4 -->
<g id="edge3" class="edge"><title>1&#45;&gt;4</title>
<path fill="none" stroke="black" d="M54.6436,-43.1837C50.3327,-56.1164 44.6956,-73.0278 40.0491,-86.9672"/>
<polygon fill="black" stroke="black" points="36.7159,-85.899 36.874,-96.4926 43.3567,-88.1126 36.7159,-85.899"/>
<text text-anchor="middle" x="51.8715" y="-66.3" font-family="Times,serif" font-size="14.00">b</text>
</g>
<!-- 2&#45;&gt;3 -->
<g id="edge4" class="edge"><title>2&#45;&gt;3</title>
<path fill="none" stroke="black" d="M39.9067,-274.02C47.3091,-261.028 58.1555,-241.991 66.7559,-226.897"/>
<polygon fill="black" stroke="black" points="69.8603,-228.518 71.7698,-218.097 63.7782,-225.053 69.8603,-228.518"/>
<text text-anchor="middle" x="62.8715" y="-242.3" font-family="Times,serif" font-size="14.00">a</text>
</g>
<!-- 2&#45;&gt;4 -->
<g id="edge5" class="edge"><title>2&#45;&gt;4</title>
<path fill="none" stroke="black" d="M22.9737,-273.944C15.8918,-260.329 6.30059,-239.489 2.37153,-220 -0.79051,-204.316 -0.79051,-199.684 2.37153,-184 5.5025,-168.47 12.229,-152.082 18.416,-139.175"/>
<polygon fill="black" stroke="black" points="21.6337,-140.566 22.9737,-130.056 15.3722,-137.437 21.6337,-140.566"/>
<text text-anchor="middle" x="5.87153" y="-198.3" font-family="Times,serif" font-size="14.00">b</text>
</g>
<!-- 3&#45;&gt;0 -->
<g id="edge6" class="edge"><title>3&#45;&gt;0</title>
<path fill="none" stroke="black" d="M79.5404,-220.129C78.2319,-246.377 75.5142,-298.12 72.3715,-342 72.1885,-344.555 71.9849,-347.214 71.7722,-349.873"/>
<polygon fill="black" stroke="black" points="68.2778,-349.661 70.9322,-359.918 75.2535,-350.244 68.2778,-349.661"/>
<text text-anchor="middle" x="79.8715" y="-286.3" font-family="Times,serif" font-size="14.00">a</text>
</g>
<!-- 3&#45;&gt;4 -->
<g id="edge7" class="edge"><title>3&#45;&gt;4</title>
<path fill="none" stroke="black" d="M71.8364,-186.02C64.434,-173.028 53.5875,-153.991 44.9871,-138.897"/>
<polygon fill="black" stroke="black" points="47.9649,-137.053 39.9733,-130.097 41.8828,-140.518 47.9649,-137.053"/>
<text text-anchor="middle" x="62.8715" y="-154.3" font-family="Times,serif" font-size="14.00">b</text>
</g>
<!-- 4&#45;&gt;1 -->
<g id="edge8" class="edge"><title>4&#45;&gt;1</title>
<path fill="none" stroke="black" d="M30.104,-96.0192C29.8969,-85.8813 30.6118,-72.9001 34.3715,-62 36.106,-56.9714 38.6842,-51.9975 41.5699,-47.3708"/>
<polygon fill="black" stroke="black" points="44.5615,-49.1978 47.357,-38.9784 38.7987,-45.224 44.5615,-49.1978"/>
<text text-anchor="middle" x="37.8715" y="-66.3" font-family="Times,serif" font-size="14.00">a</text>
</g>
<!-- 4&#45;&gt;2 -->
<g id="edge9" class="edge"><title>4&#45;&gt;2</title>
<path fill="none" stroke="black" d="M31.3715,-132.07C31.3715,-162.266 31.3715,-225.334 31.3715,-261.653"/>
<polygon fill="black" stroke="black" points="27.8716,-261.999 31.3715,-271.999 34.8716,-261.999 27.8716,-261.999"/>
<text text-anchor="middle" x="34.8715" y="-198.3" font-family="Times,serif" font-size="14.00">b</text>
</g>
</g>
</svg>
