<?xml version="1.0" encoding="UTF-8" standalone="no"?>
<!DOCTYPE svg PUBLIC "-//W3C//DTD SVG 1.1//EN"
 "http://www.w3.org/Graphics/SVG/1.1/DTD/svg11.dtd">
<!-- Generated by graphviz version 2.36.0 (20140111.2315)
 -->
<!-- Title: %3 Pages: 1 -->
<svg width="193pt" height="316pt"
 viewBox="0.00 0.00 193.00 316.00" xmlns="http://www.w3.org/2000/svg" xmlns:xlink="http://www.w3.org/1999/xlink">
<g id="graph0" class="graph" transform="scale(1 1) rotate(0) translate(4 312)">
<title>%3</title>
<polygon fill="white" stroke="none" points="-4,4 -4,-312 189,-312 189,4 -4,4"/>
<!-- 0 -->
<g id="node1" class="node"><title>0</title>
<ellipse fill="lightblue" stroke="black" cx="138" cy="-286" rx="17.5909" ry="18"/>
<ellipse fill="none" stroke="black" cx="138" cy="-286" rx="21.5" ry="22"/>
<text text-anchor="middle" x="138" y="-282.3" font-family="Times,serif" font-size="14.00">0</text>
</g>
<!-- 0&#45;&gt;0 -->
<g id="edge1" class="edge"><title>0&#45;&gt;0</title>
<path fill="none" stroke="black" d="M158.066,-294.734C168.074,-295.943 177,-293.031 177,-286 177,-281.496 173.337,-278.682 168.072,-277.559"/>
<polygon fill="black" stroke="black" points="168.165,-274.061 158.066,-277.266 167.959,-281.057 168.165,-274.061"/>
<text text-anchor="middle" x="180.5" y="-282.3" font-family="Times,serif" font-size="14.00">a</text>
</g>
<!-- 1 -->
<g id="node2" class="node"><title>1</title>
<ellipse fill="lightblue" stroke="black" cx="97" cy="-194" rx="18" ry="18"/>
<text text-anchor="middle" x="97" y="-190.3" font-family="Times,serif" font-size="14.00">1</text>
</g>
<!-- 0&#45;&gt;1 -->
<g id="edge2" class="edge"><title>0&#45;&gt;1</title>
<path fill="none" stroke="black" d="M129.104,-265.471C123.018,-252.114 114.899,-234.291 108.349,-219.912"/>
<polygon fill="black" stroke="black" points="111.44,-218.254 104.109,-210.605 105.069,-221.156 111.44,-218.254"/>
<text text-anchor="middle" x="123.5" y="-234.3" font-family="Times,serif" font-size="14.00">b</text>
</g>
<!-- 2 -->
<g id="node3" class="node"><title>2</title>
<ellipse fill="green" stroke="black" cx="18" cy="-106" rx="18" ry="18"/>
<text text-anchor="middle" x="18" y="-102.3" font-family="Times,serif" font-size="14.00">2</text>
</g>
<!-- 1&#45;&gt;2 -->
<g id="edge3" class="edge"><title>1&#45;&gt;2</title>
<path fill="none" stroke="black" d="M85.0016,-179.938C72.167,-165.967 51.6422,-143.623 36.688,-127.344"/>
<polygon fill="black" stroke="black" points="39.1951,-124.899 29.8525,-119.903 34.0399,-129.635 39.1951,-124.899"/>
<text text-anchor="middle" x="68.5" y="-146.3" font-family="Times,serif" font-size="14.00">a</text>
</g>
<!-- 3 -->
<g id="node4" class="node"><title>3</title>
<ellipse fill="lightblue" stroke="black" cx="146" cy="-106" rx="18" ry="18"/>
<text text-anchor="middle" x="146" y="-102.3" font-family="Times,serif" font-size="14.00">3</text>
</g>
<!-- 1&#45;&gt;3 -->
<g id="edge4" class="edge"><title>1&#45;&gt;3</title>
<path fill="none" stroke="black" d="M105.535,-178.02C112.938,-165.028 123.784,-145.991 132.384,-130.897"/>
<polygon fill="black" stroke="black" points="135.489,-132.518 137.398,-122.097 129.407,-129.053 135.489,-132.518"/>
<text text-anchor="middle" x="129.5" y="-146.3" font-family="Times,serif" font-size="14.00">b</text>
</g>
<!-- 2&#45;&gt;1 -->
<g id="edge5" class="edge"><title>2&#45;&gt;1</title>
<path fill="none" stroke="black" d="M22.3111,-123.578C25.7426,-134.312 31.4151,-148.086 40,-158 48.5841,-167.913 60.6858,-175.891 71.5317,-181.711"/>
<polygon fill="black" stroke="black" points="70.1113,-184.915 80.6196,-186.266 73.2477,-178.656 70.1113,-184.915"/>
<text text-anchor="middle" x="43.5" y="-146.3" font-family="Times,serif" font-size="14.00">b</text>
</g>
<!-- 2&#45;&gt;2 -->
<g id="edge6" class="edge"><title>2&#45;&gt;2</title>
<path fill="none" stroke="black" d="M34.2903,-113.668C44.3892,-115.517 54,-112.961 54,-106 54,-101.541 50.0557,-98.8891 44.5656,-98.0454"/>
<polygon fill="black" stroke="black" points="44.1887,-94.5544 34.2903,-98.3321 44.384,-101.552 44.1887,-94.5544"/>
<text text-anchor="middle" x="57.5" y="-102.3" font-family="Times,serif" font-size="14.00">a</text>
</g>
<!-- 3&#45;&gt;0 -->
<g id="edge7" class="edge"><title>3&#45;&gt;0</title>
<path fill="none" stroke="black" d="M145.231,-124.114C143.892,-153.909 141.113,-215.727 139.417,-253.464"/>
<polygon fill="black" stroke="black" points="135.902,-253.735 138.949,-263.882 142.895,-254.049 135.902,-253.735"/>
<text text-anchor="middle" x="146.5" y="-190.3" font-family="Times,serif" font-size="14.00">a</text>
</g>
<!-- 4 -->
<g id="node5" class="node"><title>4</title>
<ellipse fill="lightblue" stroke="black" cx="130" cy="-18" rx="18" ry="18"/>
<text text-anchor="middle" x="130" y="-14.3" font-family="Times,serif" font-size="14.00">4</text>
</g>
<!-- 3&#45;&gt;4 -->
<g id="edge8" class="edge"><title>3&#45;&gt;4</title>
<path fill="none" stroke="black" d="M143.626,-87.9489C142.168,-78.0151 140.168,-65.2651 138,-54 137.477,-51.282 136.894,-48.4538 136.289,-45.6355"/>
<polygon fill="black" stroke="black" points="139.662,-44.6786 134.061,-35.685 132.831,-46.2082 139.662,-44.6786"/>
<text text-anchor="middle" x="144.5" y="-58.3" font-family="Times,serif" font-size="14.00">b</text>
</g>
<!-- 4&#45;&gt;1 -->
<g id="edge9" class="edge"><title>4&#45;&gt;1</title>
<path fill="none" stroke="black" d="M125.102,-35.6083C121.139,-49.5085 115.638,-69.9161 112,-88 106.718,-114.254 102.596,-144.564 100.021,-165.85"/>
<polygon fill="black" stroke="black" points="96.5431,-165.462 98.8507,-175.803 103.495,-166.28 96.5431,-165.462"/>
<text text-anchor="middle" x="115.5" y="-102.3" font-family="Times,serif" font-size="14.00">b</text>
</g>
<!-- 4&#45;&gt;3 -->
<g id="edge10" class="edge"><title>4&#45;&gt;3</title>
<path fill="none" stroke="black" d="M129.748,-36.1674C129.915,-46.1399 130.665,-58.8899 133,-70 133.68,-73.2351 134.605,-76.5703 135.651,-79.8373"/>
<polygon fill="black" stroke="black" points="132.359,-81.0289 139.023,-89.2656 138.95,-78.671 132.359,-81.0289"/>
<text text-anchor="middle" x="136.5" y="-58.3" font-family="Times,serif" font-size="14.00">a</text>
</g>
</g>
</svg>
