<?xml version="1.0" encoding="UTF-8" standalone="no"?>
<!DOCTYPE svg PUBLIC "-//W3C//DTD SVG 1.1//EN"
 "http://www.w3.org/Graphics/SVG/1.1/DTD/svg11.dtd">
<!-- Generated by graphviz version 2.36.0 (20140111.2315)
 -->
<!-- Title: %3 Pages: 1 -->
<svg width="146pt" height="316pt"
 viewBox="0.00 0.00 146.00 316.00" xmlns="http://www.w3.org/2000/svg" xmlns:xlink="http://www.w3.org/1999/xlink">
<g id="graph0" class="graph" transform="scale(1 1) rotate(0) translate(4 312)">
<title>%3</title>
<polygon fill="white" stroke="none" points="-4,4 -4,-312 142,-312 142,4 -4,4"/>
<!-- 0 -->
<g id="node1" class="node"><title>0</title>
<ellipse fill="lightblue" stroke="black" cx="120" cy="-290" rx="18" ry="18"/>
<text text-anchor="middle" x="120" y="-286.3" font-family="Times,serif" font-size="14.00">0</text>
</g>
<!-- 1 -->
<g id="node2" class="node"><title>1</title>
<ellipse fill="lightblue" stroke="black" cx="91" cy="-198" rx="17.5909" ry="18"/>
<ellipse fill="none" stroke="black" cx="91" cy="-198" rx="21.5" ry="22"/>
<text text-anchor="middle" x="91" y="-194.3" font-family="Times,serif" font-size="14.00">1</text>
</g>
<!-- 0&#45;&gt;1 -->
<g id="edge1" class="edge"><title>0&#45;&gt;1</title>
<path fill="none" stroke="black" d="M114.681,-272.493C110.748,-260.288 105.285,-243.333 100.597,-228.784"/>
<polygon fill="black" stroke="black" points="103.902,-227.628 97.5037,-219.184 97.2393,-229.775 103.902,-227.628"/>
<text text-anchor="middle" x="111.5" y="-242.3" font-family="Times,serif" font-size="14.00">b</text>
</g>
<!-- 3 -->
<g id="node4" class="node"><title>3</title>
<ellipse fill="lightblue" stroke="black" cx="107" cy="-18" rx="18" ry="18"/>
<text text-anchor="middle" x="107" y="-14.3" font-family="Times,serif" font-size="14.00">3</text>
</g>
<!-- 0&#45;&gt;3 -->
<g id="edge2" class="edge"><title>0&#45;&gt;3</title>
<path fill="none" stroke="black" d="M120.315,-271.987C120.557,-258.022 120.872,-237.731 121,-220 121.535,-146.203 128.432,-126.908 117,-54 116.541,-51.0735 115.915,-48.0452 115.198,-45.0506"/>
<polygon fill="black" stroke="black" points="118.521,-43.9298 112.524,-35.1955 111.765,-45.7632 118.521,-43.9298"/>
<text text-anchor="middle" x="126.5" y="-146.3" font-family="Times,serif" font-size="14.00">a</text>
</g>
<!-- 1&#45;&gt;0 -->
<g id="edge3" class="edge"><title>1&#45;&gt;0</title>
<path fill="none" stroke="black" d="M88.7948,-219.944C88.4208,-230.457 89.1038,-243.216 93,-254 94.8752,-259.19 97.8271,-264.226 101.103,-268.784"/>
<polygon fill="black" stroke="black" points="98.6128,-271.273 107.604,-276.878 104.07,-266.89 98.6128,-271.273"/>
<text text-anchor="middle" x="96.5" y="-242.3" font-family="Times,serif" font-size="14.00">b</text>
</g>
<!-- 2 -->
<g id="node3" class="node"><title>2</title>
<ellipse fill="green" stroke="black" cx="53" cy="-106" rx="18" ry="18"/>
<text text-anchor="middle" x="53" y="-102.3" font-family="Times,serif" font-size="14.00">2</text>
</g>
<!-- 1&#45;&gt;2 -->
<g id="edge4" class="edge"><title>1&#45;&gt;2</title>
<path fill="none" stroke="black" d="M82.7546,-177.471C77.1501,-164.198 69.6843,-146.515 63.6332,-132.184"/>
<polygon fill="black" stroke="black" points="66.8244,-130.744 59.7103,-122.893 60.3757,-133.467 66.8244,-130.744"/>
<text text-anchor="middle" x="78.5" y="-146.3" font-family="Times,serif" font-size="14.00">a</text>
</g>
<!-- 2&#45;&gt;3 -->
<g id="edge5" class="edge"><title>2&#45;&gt;3</title>
<path fill="none" stroke="black" d="M50.8122,-87.8592C50.3016,-77.4199 51.1833,-64.1786 57,-54 58.6922,-51.0388 71.3292,-42.2033 83.474,-34.1513"/>
<polygon fill="black" stroke="black" points="85.6202,-36.9295 92.0669,-28.5218 81.7841,-31.0742 85.6202,-36.9295"/>
<text text-anchor="middle" x="60.5" y="-58.3" font-family="Times,serif" font-size="14.00">a</text>
</g>
<!-- 4 -->
<g id="node5" class="node"><title>4</title>
<ellipse fill="lightblue" stroke="black" cx="18" cy="-18" rx="18" ry="18"/>
<text text-anchor="middle" x="18" y="-14.3" font-family="Times,serif" font-size="14.00">4</text>
</g>
<!-- 2&#45;&gt;4 -->
<g id="edge6" class="edge"><title>2&#45;&gt;4</title>
<path fill="none" stroke="black" d="M40.5209,-92.8088C34.8548,-86.5328 28.6228,-78.4374 25,-70 21.8485,-62.6604 20.0444,-54.2294 19.0309,-46.3637"/>
<polygon fill="black" stroke="black" points="22.4919,-45.7793 18.0866,-36.1438 15.5215,-46.4234 22.4919,-45.7793"/>
<text text-anchor="middle" x="28.5" y="-58.3" font-family="Times,serif" font-size="14.00">b</text>
</g>
<!-- 3&#45;&gt;1 -->
<g id="edge7" class="edge"><title>3&#45;&gt;1</title>
<path fill="none" stroke="black" d="M105.462,-36.1141C102.783,-65.9087 97.2268,-127.727 93.8347,-165.464"/>
<polygon fill="black" stroke="black" points="90.3076,-165.609 92.8982,-175.882 97.2795,-166.236 90.3076,-165.609"/>
<text text-anchor="middle" x="103.5" y="-102.3" font-family="Times,serif" font-size="14.00">a</text>
</g>
<!-- 3&#45;&gt;2 -->
<g id="edge8" class="edge"><title>3&#45;&gt;2</title>
<path fill="none" stroke="black" d="M97.7947,-33.6603C89.557,-46.7797 77.3351,-66.2441 67.7378,-81.5287"/>
<polygon fill="black" stroke="black" points="64.514,-80.0812 62.1604,-90.4113 70.4422,-83.8036 64.514,-80.0812"/>
<text text-anchor="middle" x="88.5" y="-58.3" font-family="Times,serif" font-size="14.00">b</text>
</g>
<!-- 4&#45;&gt;4 -->
<g id="edge9" class="edge"><title>4&#45;&gt;4</title>
<path fill="none" stroke="black" d="M34.2903,-25.6679C44.3892,-27.5169 54,-24.9609 54,-18 54,-13.5406 50.0557,-10.8891 44.5656,-10.0454"/>
<polygon fill="black" stroke="black" points="44.1887,-6.55441 34.2903,-10.3321 44.384,-13.5517 44.1887,-6.55441"/>
<text text-anchor="middle" x="62.5" y="-14.3" font-family="Times,serif" font-size="14.00">b,a</text>
</g>
</g>
</svg>
