<?xml version="1.0" encoding="UTF-8" standalone="no"?>
<!DOCTYPE svg PUBLIC "-//W3C//DTD SVG 1.1//EN"
 "http://www.w3.org/Graphics/SVG/1.1/DTD/svg11.dtd">
<!-- Generated by graphviz version 2.36.0 (20140111.2315)
 -->
<!-- Title: %3 Pages: 1 -->
<svg width="88pt" height="316pt"
 viewBox="0.00 0.00 87.68 316.00" xmlns="http://www.w3.org/2000/svg" xmlns:xlink="http://www.w3.org/1999/xlink">
<g id="graph0" class="graph" transform="scale(1 1) rotate(0) translate(4 312)">
<title>%3</title>
<polygon fill="white" stroke="none" points="-4,4 -4,-312 83.6803,-312 83.6803,4 -4,4"/>
<!-- 0 -->
<g id="node1" class="node"><title>0</title>
<ellipse fill="lightblue" stroke="black" cx="36.6803" cy="-198" rx="17.5909" ry="18"/>
<ellipse fill="none" stroke="black" cx="36.6803" cy="-198" rx="21.5" ry="22"/>
<text text-anchor="middle" x="36.6803" y="-194.3" font-family="Times,serif" font-size="14.00">0</text>
</g>
<!-- 2 -->
<g id="node3" class="node"><title>2</title>
<ellipse fill="lightblue" stroke="black" cx="36.6803" cy="-18" rx="18" ry="18"/>
<text text-anchor="middle" x="36.6803" y="-14.3" font-family="Times,serif" font-size="14.00">2</text>
</g>
<!-- 0&#45;&gt;2 -->
<g id="edge1" class="edge"><title>0&#45;&gt;2</title>
<path fill="none" stroke="black" d="M25.5192,-178.892C17.3891,-164.584 7.06345,-143.793 2.68025,-124 -0.779226,-108.378 -0.950513,-103.583 2.68025,-88 6.46002,-71.7779 14.6275,-54.984 22.0099,-42.0263"/>
<polygon fill="black" stroke="black" points="25.0763,-43.7174 27.1728,-33.3321 19.0575,-40.1433 25.0763,-43.7174"/>
<text text-anchor="middle" x="6.18025" y="-102.3" font-family="Times,serif" font-size="14.00">b</text>
</g>
<!-- 3 -->
<g id="node4" class="node"><title>3</title>
<ellipse fill="lightblue" stroke="black" cx="36.6803" cy="-106" rx="18" ry="18"/>
<text text-anchor="middle" x="36.6803" y="-102.3" font-family="Times,serif" font-size="14.00">3</text>
</g>
<!-- 0&#45;&gt;3 -->
<g id="edge2" class="edge"><title>0&#45;&gt;3</title>
<path fill="none" stroke="black" d="M36.6803,-175.671C36.6803,-163.284 36.6803,-147.552 36.6803,-134.272"/>
<polygon fill="black" stroke="black" points="40.1804,-134.258 36.6803,-124.258 33.1804,-134.258 40.1804,-134.258"/>
<text text-anchor="middle" x="40.1803" y="-146.3" font-family="Times,serif" font-size="14.00">a</text>
</g>
<!-- 1 -->
<g id="node2" class="node"><title>1</title>
<ellipse fill="green" stroke="black" cx="36.6803" cy="-290" rx="18" ry="18"/>
<text text-anchor="middle" x="36.6803" y="-286.3" font-family="Times,serif" font-size="14.00">1</text>
</g>
<!-- 1&#45;&gt;0 -->
<g id="edge3" class="edge"><title>1&#45;&gt;0</title>
<path fill="none" stroke="black" d="M36.6803,-271.647C36.6803,-259.924 36.6803,-244.114 36.6803,-230.237"/>
<polygon fill="black" stroke="black" points="40.1804,-230.101 36.6803,-220.101 33.1804,-230.101 40.1804,-230.101"/>
<text text-anchor="middle" x="40.1803" y="-242.3" font-family="Times,serif" font-size="14.00">a</text>
</g>
<!-- 1&#45;&gt;1 -->
<g id="edge4" class="edge"><title>1&#45;&gt;1</title>
<path fill="none" stroke="black" d="M52.9705,-297.668C63.0694,-299.517 72.6803,-296.961 72.6803,-290 72.6803,-285.541 68.736,-282.889 63.2459,-282.045"/>
<polygon fill="black" stroke="black" points="62.869,-278.554 52.9705,-282.332 63.0643,-285.552 62.869,-278.554"/>
<text text-anchor="middle" x="76.1803" y="-286.3" font-family="Times,serif" font-size="14.00">b</text>
</g>
<!-- 2&#45;&gt;0 -->
<g id="edge5" class="edge"><title>2&#45;&gt;0</title>
<path fill="none" stroke="black" d="M46.7186,-33.0421C50.6914,-39.2092 54.9522,-46.6981 57.6803,-54 68.6083,-83.2505 69.1823,-93.2634 63.6803,-124 60.967,-139.157 55.3195,-155.285 49.8875,-168.516"/>
<polygon fill="black" stroke="black" points="46.5435,-167.434 45.8279,-178.005 52.9792,-170.187 46.5435,-167.434"/>
<text text-anchor="middle" x="70.1803" y="-102.3" font-family="Times,serif" font-size="14.00">a</text>
</g>
<!-- 2&#45;&gt;2 -->
<g id="edge6" class="edge"><title>2&#45;&gt;2</title>
<path fill="none" stroke="black" d="M52.9705,-25.6679C63.0694,-27.5169 72.6803,-24.9609 72.6803,-18 72.6803,-13.5406 68.736,-10.8891 63.2459,-10.0454"/>
<polygon fill="black" stroke="black" points="62.869,-6.55441 52.9705,-10.3321 63.0643,-13.5517 62.869,-6.55441"/>
<text text-anchor="middle" x="76.1803" y="-14.3" font-family="Times,serif" font-size="14.00">b</text>
</g>
<!-- 3&#45;&gt;2 -->
<g id="edge7" class="edge"><title>3&#45;&gt;2</title>
<path fill="none" stroke="black" d="M36.6803,-87.5966C36.6803,-75.7459 36.6803,-59.8169 36.6803,-46.2917"/>
<polygon fill="black" stroke="black" points="40.1803,-46.084 36.6803,-36.084 33.1803,-46.084 40.1803,-46.084"/>
<text text-anchor="middle" x="45.1803" y="-58.3" font-family="Times,serif" font-size="14.00">b,a</text>
</g>
</g>
</svg>
