<?xml version="1.0" encoding="UTF-8" standalone="no"?>
<!DOCTYPE svg PUBLIC "-//W3C//DTD SVG 1.1//EN"
 "http://www.w3.org/Graphics/SVG/1.1/DTD/svg11.dtd">
<!-- Generated by graphviz version 2.36.0 (20140111.2315)
 -->
<!-- Title: %3 Pages: 1 -->
<svg width="165pt" height="228pt"
 viewBox="0.00 0.00 165.00 228.00" xmlns="http://www.w3.org/2000/svg" xmlns:xlink="http://www.w3.org/1999/xlink">
<g id="graph0" class="graph" transform="scale(1 1) rotate(0) translate(4 224)">
<title>%3</title>
<polygon fill="white" stroke="none" points="-4,4 -4,-224 161,-224 161,4 -4,4"/>
<!-- 0 -->
<g id="node1" class="node"><title>0</title>
<ellipse fill="green" stroke="black" cx="104" cy="-18" rx="18" ry="18"/>
<text text-anchor="middle" x="104" y="-14.3" font-family="Times,serif" font-size="14.00">0</text>
</g>
<!-- 0&#45;&gt;0 -->
<g id="edge1" class="edge"><title>0&#45;&gt;0</title>
<path fill="none" stroke="black" d="M120.29,-25.6679C130.389,-27.5169 140,-24.9609 140,-18 140,-13.5406 136.056,-10.8891 130.566,-10.0454"/>
<polygon fill="black" stroke="black" points="130.189,-6.55441 120.29,-10.3321 130.384,-13.5517 130.189,-6.55441"/>
<text text-anchor="middle" x="148.5" y="-14.3" font-family="Times,serif" font-size="14.00">b,a</text>
</g>
<!-- 1 -->
<g id="node2" class="node"><title>1</title>
<ellipse fill="lightblue" stroke="black" cx="23" cy="-18" rx="18" ry="18"/>
<text text-anchor="middle" x="23" y="-14.3" font-family="Times,serif" font-size="14.00">1</text>
</g>
<!-- 3 -->
<g id="node4" class="node"><title>3</title>
<ellipse fill="lightblue" stroke="black" cx="53" cy="-106" rx="18" ry="18"/>
<text text-anchor="middle" x="53" y="-102.3" font-family="Times,serif" font-size="14.00">3</text>
</g>
<!-- 1&#45;&gt;3 -->
<g id="edge2" class="edge"><title>1&#45;&gt;3</title>
<path fill="none" stroke="black" d="M28.6175,-35.1034C32.9267,-47.4565 38.9622,-64.7582 43.9501,-79.0569"/>
<polygon fill="black" stroke="black" points="40.7587,-80.5349 47.3572,-88.8241 47.3681,-78.2292 40.7587,-80.5349"/>
<text text-anchor="middle" x="49.5" y="-58.3" font-family="Times,serif" font-size="14.00">b,a</text>
</g>
<!-- 2 -->
<g id="node3" class="node"><title>2</title>
<ellipse fill="lightblue" stroke="black" cx="22" cy="-198" rx="17.5909" ry="18"/>
<ellipse fill="none" stroke="black" cx="22" cy="-198" rx="21.5" ry="22"/>
<text text-anchor="middle" x="22" y="-194.3" font-family="Times,serif" font-size="14.00">2</text>
</g>
<!-- 2&#45;&gt;1 -->
<g id="edge3" class="edge"><title>2&#45;&gt;1</title>
<path fill="none" stroke="black" d="M20.5175,-175.661C18.8119,-147.697 16.543,-97.1375 19,-54 19.1461,-51.4355 19.3519,-48.7703 19.5939,-46.1067"/>
<polygon fill="black" stroke="black" points="23.0856,-46.3692 20.6569,-36.0565 16.1244,-45.6328 23.0856,-46.3692"/>
<text text-anchor="middle" x="22.5" y="-102.3" font-family="Times,serif" font-size="14.00">b</text>
</g>
<!-- 2&#45;&gt;3 -->
<g id="edge4" class="edge"><title>2&#45;&gt;3</title>
<path fill="none" stroke="black" d="M28.8799,-177.026C33.3583,-164.024 39.2443,-146.936 44.0807,-132.895"/>
<polygon fill="black" stroke="black" points="47.4341,-133.906 47.3816,-123.311 40.8157,-131.626 47.4341,-133.906"/>
<text text-anchor="middle" x="44.5" y="-146.3" font-family="Times,serif" font-size="14.00">a</text>
</g>
<!-- 3&#45;&gt;0 -->
<g id="edge5" class="edge"><title>3&#45;&gt;0</title>
<path fill="none" stroke="black" d="M61.8835,-90.0199C69.6354,-76.9482 81.0159,-57.7576 89.9931,-42.6194"/>
<polygon fill="black" stroke="black" points="93.1279,-44.195 95.2183,-33.8084 87.107,-40.6244 93.1279,-44.195"/>
<text text-anchor="middle" x="86.5" y="-58.3" font-family="Times,serif" font-size="14.00">a</text>
</g>
<!-- 3&#45;&gt;1 -->
<g id="edge6" class="edge"><title>3&#45;&gt;1</title>
<path fill="none" stroke="black" d="M40.6868,-92.8476C35.1568,-86.5807 29.1724,-78.4818 26,-70 23.223,-62.5753 22.0193,-54.1186 21.6289,-46.2556"/>
<polygon fill="black" stroke="black" points="25.1269,-46.0191 21.5293,-36.0538 18.1272,-46.0876 25.1269,-46.0191"/>
<text text-anchor="middle" x="29.5" y="-58.3" font-family="Times,serif" font-size="14.00">b</text>
</g>
<!-- 4 -->
<g id="node5" class="node"><title>4</title>
<ellipse fill="lightblue" stroke="black" cx="96" cy="-198" rx="18" ry="18"/>
<text text-anchor="middle" x="96" y="-194.3" font-family="Times,serif" font-size="14.00">4</text>
</g>
<!-- 4&#45;&gt;0 -->
<g id="edge7" class="edge"><title>4&#45;&gt;0</title>
<path fill="none" stroke="black" d="M96.7671,-179.933C98.1588,-148.966 101.11,-83.2989 102.781,-46.1292"/>
<polygon fill="black" stroke="black" points="106.283,-46.1628 103.235,-36.0157 99.2897,-45.8485 106.283,-46.1628"/>
<text text-anchor="middle" x="103.5" y="-102.3" font-family="Times,serif" font-size="14.00">b</text>
</g>
<!-- 4&#45;&gt;3 -->
<g id="edge8" class="edge"><title>4&#45;&gt;3</title>
<path fill="none" stroke="black" d="M88.51,-181.323C81.9741,-167.643 72.3788,-147.56 64.8097,-131.718"/>
<polygon fill="black" stroke="black" points="67.8733,-130.011 60.4042,-122.497 61.5572,-133.029 67.8733,-130.011"/>
<text text-anchor="middle" x="80.5" y="-146.3" font-family="Times,serif" font-size="14.00">a</text>
</g>
</g>
</svg>
