<?xml version="1.0" encoding="UTF-8" standalone="no"?>
<!DOCTYPE svg PUBLIC "-//W3C//DTD SVG 1.1//EN"
 "http://www.w3.org/Graphics/SVG/1.1/DTD/svg11.dtd">
<!-- Generated by graphviz version 2.36.0 (20140111.2315)
 -->
<!-- Title: %3 Pages: 1 -->
<svg width="148pt" height="228pt"
 viewBox="0.00 0.00 148.00 228.00" xmlns="http://www.w3.org/2000/svg" xmlns:xlink="http://www.w3.org/1999/xlink">
<g id="graph0" class="graph" transform="scale(1 1) rotate(0) translate(4 224)">
<title>%3</title>
<polygon fill="white" stroke="none" points="-4,4 -4,-224 144,-224 144,4 -4,4"/>
<!-- 0 -->
<g id="node1" class="node"><title>0</title>
<ellipse fill="green" stroke="black" cx="97" cy="-114" rx="18" ry="18"/>
<text text-anchor="middle" x="97" y="-110.3" font-family="Times,serif" font-size="14.00">0</text>
</g>
<!-- 0&#45;&gt;0 -->
<g id="edge1" class="edge"><title>0&#45;&gt;0</title>
<path fill="none" stroke="black" d="M113.29,-121.668C123.389,-123.517 133,-120.961 133,-114 133,-109.541 129.056,-106.889 123.566,-106.045"/>
<polygon fill="black" stroke="black" points="123.189,-102.554 113.29,-106.332 123.384,-109.552 123.189,-102.554"/>
<text text-anchor="middle" x="136.5" y="-110.3" font-family="Times,serif" font-size="14.00">b</text>
</g>
<!-- 2 -->
<g id="node3" class="node"><title>2</title>
<ellipse fill="lightblue" stroke="black" cx="63" cy="-22" rx="17.5909" ry="18"/>
<ellipse fill="none" stroke="black" cx="63" cy="-22" rx="21.5" ry="22"/>
<text text-anchor="middle" x="63" y="-18.3" font-family="Times,serif" font-size="14.00">2</text>
</g>
<!-- 0&#45;&gt;2 -->
<g id="edge2" class="edge"><title>0&#45;&gt;2</title>
<path fill="none" stroke="black" d="M90.9215,-96.9098C86.2657,-84.5856 79.7146,-67.2444 74.128,-52.4565"/>
<polygon fill="black" stroke="black" points="77.2578,-50.8374 70.4496,-42.7196 70.7095,-53.3112 77.2578,-50.8374"/>
<text text-anchor="middle" x="86.5" y="-66.3" font-family="Times,serif" font-size="14.00">a</text>
</g>
<!-- 1 -->
<g id="node2" class="node"><title>1</title>
<ellipse fill="lightblue" stroke="black" cx="97" cy="-202" rx="18" ry="18"/>
<text text-anchor="middle" x="97" y="-198.3" font-family="Times,serif" font-size="14.00">1</text>
</g>
<!-- 1&#45;&gt;0 -->
<g id="edge3" class="edge"><title>1&#45;&gt;0</title>
<path fill="none" stroke="black" d="M97,-183.597C97,-171.746 97,-155.817 97,-142.292"/>
<polygon fill="black" stroke="black" points="100.5,-142.084 97,-132.084 93.5001,-142.084 100.5,-142.084"/>
<text text-anchor="middle" x="100.5" y="-154.3" font-family="Times,serif" font-size="14.00">b</text>
</g>
<!-- 1&#45;&gt;1 -->
<g id="edge4" class="edge"><title>1&#45;&gt;1</title>
<path fill="none" stroke="black" d="M113.29,-209.668C123.389,-211.517 133,-208.961 133,-202 133,-197.541 129.056,-194.889 123.566,-194.045"/>
<polygon fill="black" stroke="black" points="123.189,-190.554 113.29,-194.332 123.384,-197.552 123.189,-190.554"/>
<text text-anchor="middle" x="136.5" y="-198.3" font-family="Times,serif" font-size="14.00">a</text>
</g>
<!-- 2&#45;&gt;2 -->
<g id="edge5" class="edge"><title>2&#45;&gt;2</title>
<path fill="none" stroke="black" d="M83.0663,-30.7341C93.0736,-31.9426 102,-29.0312 102,-22 102,-17.4956 98.3366,-14.682 93.0725,-13.5592"/>
<polygon fill="black" stroke="black" points="93.1646,-10.0605 83.0663,-13.2659 92.9594,-17.0575 93.1646,-10.0605"/>
<text text-anchor="middle" x="110.5" y="-18.3" font-family="Times,serif" font-size="14.00">b,a</text>
</g>
<!-- 3 -->
<g id="node4" class="node"><title>3</title>
<ellipse fill="lightblue" stroke="black" cx="18" cy="-114" rx="18" ry="18"/>
<text text-anchor="middle" x="18" y="-110.3" font-family="Times,serif" font-size="14.00">3</text>
</g>
<!-- 3&#45;&gt;2 -->
<g id="edge6" class="edge"><title>3&#45;&gt;2</title>
<path fill="none" stroke="black" d="M25.8384,-97.3232C32.2195,-84.561 41.3872,-66.2255 49.0201,-50.9598"/>
<polygon fill="black" stroke="black" points="52.194,-52.4382 53.5357,-41.9287 45.933,-49.3077 52.194,-52.4382"/>
<text text-anchor="middle" x="46.5" y="-66.3" font-family="Times,serif" font-size="14.00">b</text>
</g>
<!-- 3&#45;&gt;3 -->
<g id="edge7" class="edge"><title>3&#45;&gt;3</title>
<path fill="none" stroke="black" d="M34.2903,-121.668C44.3892,-123.517 54,-120.961 54,-114 54,-109.541 50.0557,-106.889 44.5656,-106.045"/>
<polygon fill="black" stroke="black" points="44.1887,-102.554 34.2903,-106.332 44.384,-109.552 44.1887,-102.554"/>
<text text-anchor="middle" x="57.5" y="-110.3" font-family="Times,serif" font-size="14.00">a</text>
</g>
</g>
</svg>
