<?xml version="1.0" encoding="UTF-8" standalone="no"?>
<!DOCTYPE svg PUBLIC "-//W3C//DTD SVG 1.1//EN"
 "http://www.w3.org/Graphics/SVG/1.1/DTD/svg11.dtd">
<!-- Generated by graphviz version 2.36.0 (20140111.2315)
 -->
<!-- Title: %3 Pages: 1 -->
<svg width="82pt" height="316pt"
 viewBox="0.00 0.00 82.00 316.00" xmlns="http://www.w3.org/2000/svg" xmlns:xlink="http://www.w3.org/1999/xlink">
<g id="graph0" class="graph" transform="scale(1 1) rotate(0) translate(4 312)">
<title>%3</title>
<polygon fill="white" stroke="none" points="-4,4 -4,-312 78,-312 78,4 -4,4"/>
<!-- 0 -->
<g id="node1" class="node"><title>0</title>
<ellipse fill="lightblue" stroke="black" cx="21" cy="-198" rx="17.5909" ry="18"/>
<ellipse fill="none" stroke="black" cx="21" cy="-198" rx="21.5" ry="22"/>
<text text-anchor="middle" x="21" y="-194.3" font-family="Times,serif" font-size="14.00">0</text>
</g>
<!-- 2 -->
<g id="node3" class="node"><title>2</title>
<ellipse fill="lightblue" stroke="black" cx="21" cy="-106" rx="18" ry="18"/>
<text text-anchor="middle" x="21" y="-102.3" font-family="Times,serif" font-size="14.00">2</text>
</g>
<!-- 0&#45;&gt;2 -->
<g id="edge1" class="edge"><title>0&#45;&gt;2</title>
<path fill="none" stroke="black" d="M9.37361,-179.395C3.71785,-168.713 -1.23225,-154.729 2,-142 3.00504,-138.042 4.55766,-134.047 6.35171,-130.244"/>
<polygon fill="black" stroke="black" points="9.49957,-131.779 11.1343,-121.311 3.32845,-128.475 9.49957,-131.779"/>
<text text-anchor="middle" x="10.5" y="-146.3" font-family="Times,serif" font-size="14.00">b,a</text>
</g>
<!-- 1 -->
<g id="node2" class="node"><title>1</title>
<ellipse fill="green" stroke="black" cx="21" cy="-18" rx="18" ry="18"/>
<text text-anchor="middle" x="21" y="-14.3" font-family="Times,serif" font-size="14.00">1</text>
</g>
<!-- 1&#45;&gt;1 -->
<g id="edge2" class="edge"><title>1&#45;&gt;1</title>
<path fill="none" stroke="black" d="M37.2903,-25.6679C47.3892,-27.5169 57,-24.9609 57,-18 57,-13.5406 53.0557,-10.8891 47.5656,-10.0454"/>
<polygon fill="black" stroke="black" points="47.1887,-6.55441 37.2903,-10.3321 47.384,-13.5517 47.1887,-6.55441"/>
<text text-anchor="middle" x="65.5" y="-14.3" font-family="Times,serif" font-size="14.00">b,a</text>
</g>
<!-- 2&#45;&gt;0 -->
<g id="edge3" class="edge"><title>2&#45;&gt;0</title>
<path fill="none" stroke="black" d="M21,-124.258C21,-135.927 21,-151.678 21,-165.539"/>
<polygon fill="black" stroke="black" points="17.5001,-165.671 21,-175.671 24.5001,-165.671 17.5001,-165.671"/>
<text text-anchor="middle" x="24.5" y="-146.3" font-family="Times,serif" font-size="14.00">b</text>
</g>
<!-- 2&#45;&gt;1 -->
<g id="edge4" class="edge"><title>2&#45;&gt;1</title>
<path fill="none" stroke="black" d="M21,-87.5966C21,-75.7459 21,-59.8169 21,-46.2917"/>
<polygon fill="black" stroke="black" points="24.5001,-46.084 21,-36.084 17.5001,-46.084 24.5001,-46.084"/>
<text text-anchor="middle" x="24.5" y="-58.3" font-family="Times,serif" font-size="14.00">a</text>
</g>
<!-- 3 -->
<g id="node4" class="node"><title>3</title>
<ellipse fill="lightblue" stroke="black" cx="21" cy="-290" rx="18" ry="18"/>
<text text-anchor="middle" x="21" y="-286.3" font-family="Times,serif" font-size="14.00">3</text>
</g>
<!-- 3&#45;&gt;0 -->
<g id="edge5" class="edge"><title>3&#45;&gt;0</title>
<path fill="none" stroke="black" d="M21,-271.647C21,-259.924 21,-244.114 21,-230.237"/>
<polygon fill="black" stroke="black" points="24.5001,-230.101 21,-220.101 17.5001,-230.101 24.5001,-230.101"/>
<text text-anchor="middle" x="29.5" y="-242.3" font-family="Times,serif" font-size="14.00">b,a</text>
</g>
</g>
</svg>
