<?xml version="1.0" encoding="UTF-8" standalone="no"?>
<!DOCTYPE svg PUBLIC "-//W3C//DTD SVG 1.1//EN"
 "http://www.w3.org/Graphics/SVG/1.1/DTD/svg11.dtd">
<!-- Generated by graphviz version 2.36.0 (20140111.2315)
 -->
<!-- Title: %3 Pages: 1 -->
<svg width="159pt" height="228pt"
 viewBox="0.00 0.00 159.33 228.00" xmlns="http://www.w3.org/2000/svg" xmlns:xlink="http://www.w3.org/1999/xlink">
<g id="graph0" class="graph" transform="scale(1 1) rotate(0) translate(4 224)">
<title>%3</title>
<polygon fill="white" stroke="none" points="-4,4 -4,-224 155.333,-224 155.333,4 -4,4"/>
<!-- 0 -->
<g id="node1" class="node"><title>0</title>
<ellipse fill="green" stroke="black" cx="31.3328" cy="-202" rx="18" ry="18"/>
<text text-anchor="middle" x="31.3328" y="-198.3" font-family="Times,serif" font-size="14.00">0</text>
</g>
<!-- 1 -->
<g id="node2" class="node"><title>1</title>
<ellipse fill="lightblue" stroke="black" cx="31.3328" cy="-22" rx="18" ry="18"/>
<text text-anchor="middle" x="31.3328" y="-18.3" font-family="Times,serif" font-size="14.00">1</text>
</g>
<!-- 0&#45;&gt;1 -->
<g id="edge1" class="edge"><title>0&#45;&gt;1</title>
<path fill="none" stroke="black" d="M22.9349,-185.944C15.8531,-172.329 6.26186,-151.489 2.33281,-132 -0.829234,-116.316 -0.67434,-111.715 2.33281,-96 5.55022,-79.1863 12.5853,-61.3092 18.9204,-47.4545"/>
<polygon fill="black" stroke="black" points="22.2114,-48.6837 23.345,-38.1497 15.8897,-45.6776 22.2114,-48.6837"/>
<text text-anchor="middle" x="5.83281" y="-110.3" font-family="Times,serif" font-size="14.00">a</text>
</g>
<!-- 2 -->
<g id="node3" class="node"><title>2</title>
<ellipse fill="lightblue" stroke="black" cx="84.3328" cy="-114" rx="18" ry="18"/>
<text text-anchor="middle" x="84.3328" y="-110.3" font-family="Times,serif" font-size="14.00">2</text>
</g>
<!-- 0&#45;&gt;2 -->
<g id="edge2" class="edge"><title>0&#45;&gt;2</title>
<path fill="none" stroke="black" d="M40.5647,-186.02C48.6205,-172.948 60.4473,-153.758 69.7767,-138.619"/>
<polygon fill="black" stroke="black" points="72.9398,-140.158 75.2067,-129.808 66.9805,-136.485 72.9398,-140.158"/>
<text text-anchor="middle" x="65.8328" y="-154.3" font-family="Times,serif" font-size="14.00">b</text>
</g>
<!-- 1&#45;&gt;0 -->
<g id="edge3" class="edge"><title>1&#45;&gt;0</title>
<path fill="none" stroke="black" d="M31.3328,-40.0157C31.3328,-70.9434 31.3328,-136.607 31.3328,-173.809"/>
<polygon fill="black" stroke="black" points="27.8329,-173.933 31.3328,-183.933 34.8329,-173.933 27.8329,-173.933"/>
<text text-anchor="middle" x="39.8328" y="-110.3" font-family="Times,serif" font-size="14.00">b,a</text>
</g>
<!-- 2&#45;&gt;1 -->
<g id="edge4" class="edge"><title>2&#45;&gt;1</title>
<path fill="none" stroke="black" d="M75.5809,-98.1383C67.372,-84.1986 54.9579,-63.118 45.366,-46.8299"/>
<polygon fill="black" stroke="black" points="48.188,-44.7246 40.0977,-37.8837 42.1562,-48.2767 48.188,-44.7246"/>
<text text-anchor="middle" x="65.8328" y="-66.3" font-family="Times,serif" font-size="14.00">a</text>
</g>
<!-- 3 -->
<g id="node4" class="node"><title>3</title>
<ellipse fill="lightblue" stroke="black" cx="94.3328" cy="-22" rx="17.5909" ry="18"/>
<ellipse fill="none" stroke="black" cx="94.3328" cy="-22" rx="21.5" ry="22"/>
<text text-anchor="middle" x="94.3328" y="-18.3" font-family="Times,serif" font-size="14.00">3</text>
</g>
<!-- 2&#45;&gt;3 -->
<g id="edge5" class="edge"><title>2&#45;&gt;3</title>
<path fill="none" stroke="black" d="M86.2137,-96.0717C87.5212,-84.3045 89.3024,-68.2734 90.8634,-54.2247"/>
<polygon fill="black" stroke="black" points="94.3768,-54.2968 92.0026,-43.9715 87.4197,-53.5238 94.3768,-54.2968"/>
<text text-anchor="middle" x="92.8328" y="-66.3" font-family="Times,serif" font-size="14.00">b</text>
</g>
<!-- 3&#45;&gt;3 -->
<g id="edge6" class="edge"><title>3&#45;&gt;3</title>
<path fill="none" stroke="black" d="M114.399,-30.7341C124.406,-31.9426 133.333,-29.0312 133.333,-22 133.333,-17.4956 129.669,-14.682 124.405,-13.5592"/>
<polygon fill="black" stroke="black" points="124.497,-10.0605 114.399,-13.2659 124.292,-17.0575 124.497,-10.0605"/>
<text text-anchor="middle" x="141.833" y="-18.3" font-family="Times,serif" font-size="14.00">b,a</text>
</g>
</g>
</svg>
