<?xml version="1.0" encoding="UTF-8" standalone="no"?>
<!DOCTYPE svg PUBLIC "-//W3C//DTD SVG 1.1//EN"
 "http://www.w3.org/Graphics/SVG/1.1/DTD/svg11.dtd">
<!-- Generated by graphviz version 2.36.0 (20140111.2315)
 -->
<!-- Title: %3 Pages: 1 -->
<svg width="156pt" height="316pt"
 viewBox="0.00 0.00 156.00 316.00" xmlns="http://www.w3.org/2000/svg" xmlns:xlink="http://www.w3.org/1999/xlink">
<g id="graph0" class="graph" transform="scale(1 1) rotate(0) translate(4 312)">
<title>%3</title>
<polygon fill="white" stroke="none" points="-4,4 -4,-312 152,-312 152,4 -4,4"/>
<!-- 0 -->
<g id="node1" class="node"><title>0</title>
<ellipse fill="lightblue" stroke="black" cx="65" cy="-290" rx="18" ry="18"/>
<text text-anchor="middle" x="65" y="-286.3" font-family="Times,serif" font-size="14.00">0</text>
</g>
<!-- 1 -->
<g id="node2" class="node"><title>1</title>
<ellipse fill="lightblue" stroke="black" cx="18" cy="-198" rx="18" ry="18"/>
<text text-anchor="middle" x="18" y="-194.3" font-family="Times,serif" font-size="14.00">1</text>
</g>
<!-- 0&#45;&gt;1 -->
<g id="edge1" class="edge"><title>0&#45;&gt;1</title>
<path fill="none" stroke="black" d="M57.0271,-273.733C49.8698,-260.027 39.2345,-239.662 30.873,-223.65"/>
<polygon fill="black" stroke="black" points="33.7435,-221.586 26.012,-214.342 27.5387,-224.826 33.7435,-221.586"/>
<text text-anchor="middle" x="49.5" y="-242.3" font-family="Times,serif" font-size="14.00">a</text>
</g>
<!-- 2 -->
<g id="node3" class="node"><title>2</title>
<ellipse fill="green" stroke="black" cx="101" cy="-198" rx="17.5909" ry="18"/>
<ellipse fill="none" stroke="black" cx="101" cy="-198" rx="21.5" ry="22"/>
<text text-anchor="middle" x="101" y="-194.3" font-family="Times,serif" font-size="14.00">2</text>
</g>
<!-- 0&#45;&gt;2 -->
<g id="edge2" class="edge"><title>0&#45;&gt;2</title>
<path fill="none" stroke="black" d="M71.4361,-272.91C76.4132,-260.467 83.4358,-242.91 89.3878,-228.031"/>
<polygon fill="black" stroke="black" points="92.6479,-229.304 93.1122,-218.72 86.1485,-226.704 92.6479,-229.304"/>
<text text-anchor="middle" x="88.5" y="-242.3" font-family="Times,serif" font-size="14.00">b</text>
</g>
<!-- 1&#45;&gt;1 -->
<g id="edge3" class="edge"><title>1&#45;&gt;1</title>
<path fill="none" stroke="black" d="M34.2903,-206.365C44.3892,-208.382 54,-205.594 54,-198 54,-193.135 50.0557,-190.243 44.5656,-189.322"/>
<polygon fill="black" stroke="black" points="44.1791,-185.832 34.2903,-189.635 44.3922,-192.829 44.1791,-185.832"/>
<text text-anchor="middle" x="57.5" y="-194.3" font-family="Times,serif" font-size="14.00">a</text>
</g>
<!-- 3 -->
<g id="node4" class="node"><title>3</title>
<ellipse fill="lightblue" stroke="black" cx="48" cy="-106" rx="18" ry="18"/>
<text text-anchor="middle" x="48" y="-102.3" font-family="Times,serif" font-size="14.00">3</text>
</g>
<!-- 1&#45;&gt;3 -->
<g id="edge4" class="edge"><title>1&#45;&gt;3</title>
<path fill="none" stroke="black" d="M16.3535,-179.616C15.9238,-168.518 16.5365,-154.012 21,-142 22.9222,-136.827 25.8947,-131.799 29.1759,-127.242"/>
<polygon fill="black" stroke="black" points="32.1431,-129.137 35.671,-119.147 26.6832,-124.756 32.1431,-129.137"/>
<text text-anchor="middle" x="24.5" y="-146.3" font-family="Times,serif" font-size="14.00">b</text>
</g>
<!-- 2&#45;&gt;2 -->
<g id="edge5" class="edge"><title>2&#45;&gt;2</title>
<path fill="none" stroke="black" d="M121.066,-206.734C131.074,-207.943 140,-205.031 140,-198 140,-193.496 136.337,-190.682 131.072,-189.559"/>
<polygon fill="black" stroke="black" points="131.165,-186.061 121.066,-189.266 130.959,-193.057 131.165,-186.061"/>
<text text-anchor="middle" x="143.5" y="-194.3" font-family="Times,serif" font-size="14.00">b</text>
</g>
<!-- 2&#45;&gt;3 -->
<g id="edge6" class="edge"><title>2&#45;&gt;3</title>
<path fill="none" stroke="black" d="M90.2747,-178.787C82.1088,-164.921 70.8008,-145.718 61.9347,-130.663"/>
<polygon fill="black" stroke="black" points="64.8701,-128.75 56.7797,-121.909 58.8383,-132.302 64.8701,-128.75"/>
<text text-anchor="middle" x="80.5" y="-146.3" font-family="Times,serif" font-size="14.00">a</text>
</g>
<!-- 3&#45;&gt;1 -->
<g id="edge7" class="edge"><title>3&#45;&gt;1</title>
<path fill="none" stroke="black" d="M42.5324,-123.403C38.1442,-136.567 31.8975,-155.308 26.8059,-170.582"/>
<polygon fill="black" stroke="black" points="23.3444,-169.899 23.5025,-180.493 29.9852,-172.113 23.3444,-169.899"/>
<text text-anchor="middle" x="39.5" y="-146.3" font-family="Times,serif" font-size="14.00">b</text>
</g>
<!-- 4 -->
<g id="node5" class="node"><title>4</title>
<ellipse fill="lightblue" stroke="black" cx="48" cy="-18" rx="18" ry="18"/>
<text text-anchor="middle" x="48" y="-14.3" font-family="Times,serif" font-size="14.00">4</text>
</g>
<!-- 3&#45;&gt;4 -->
<g id="edge8" class="edge"><title>3&#45;&gt;4</title>
<path fill="none" stroke="black" d="M41.3664,-89.2577C39.201,-83.3321 37.0772,-76.4629 36,-70 34.8309,-62.9856 34.8309,-61.0144 36,-54 36.5217,-50.8695 37.2891,-47.6437 38.1877,-44.476"/>
<polygon fill="black" stroke="black" points="41.5891,-45.3348 41.3664,-34.7423 34.9349,-43.1618 41.5891,-45.3348"/>
<text text-anchor="middle" x="39.5" y="-58.3" font-family="Times,serif" font-size="14.00">a</text>
</g>
<!-- 4&#45;&gt;3 -->
<g id="edge9" class="edge"><title>4&#45;&gt;3</title>
<path fill="none" stroke="black" d="M48,-36.084C48,-47.8607 48,-63.7741 48,-77.342"/>
<polygon fill="black" stroke="black" points="44.5001,-77.5966 48,-87.5966 51.5001,-77.5967 44.5001,-77.5966"/>
<text text-anchor="middle" x="56.5" y="-58.3" font-family="Times,serif" font-size="14.00">b,a</text>
</g>
</g>
</svg>
