<?xml version="1.0" encoding="UTF-8" standalone="no"?>
<!DOCTYPE svg PUBLIC "-//W3C//DTD SVG 1.1//EN"
 "http://www.w3.org/Graphics/SVG/1.1/DTD/svg11.dtd">
<!-- Generated by graphviz version 2.36.0 (20140111.2315)
 -->
<!-- Title: %3 Pages: 1 -->
<svg width="76pt" height="316pt"
 viewBox="0.00 0.00 76.00 316.00" xmlns="http://www.w3.org/2000/svg" xmlns:xlink="http://www.w3.org/1999/xlink">
<g id="graph0" class="graph" transform="scale(1 1) rotate(0) translate(4 312)">
<title>%3</title>
<polygon fill="white" stroke="none" points="-4,4 -4,-312 72,-312 72,4 -4,4"/>
<!-- 0 -->
<g id="node1" class="node"><title>0</title>
<ellipse fill="lightblue" stroke="black" cx="21" cy="-286" rx="17.5909" ry="18"/>
<ellipse fill="none" stroke="black" cx="21" cy="-286" rx="21.5" ry="22"/>
<text text-anchor="middle" x="21" y="-282.3" font-family="Times,serif" font-size="14.00">0</text>
</g>
<!-- 0&#45;&gt;0 -->
<g id="edge1" class="edge"><title>0&#45;&gt;0</title>
<path fill="none" stroke="black" d="M41.0663,-294.734C51.0736,-295.943 60,-293.031 60,-286 60,-281.496 56.3366,-278.682 51.0725,-277.559"/>
<polygon fill="black" stroke="black" points="51.1646,-274.061 41.0663,-277.266 50.9594,-281.057 51.1646,-274.061"/>
<text text-anchor="middle" x="63.5" y="-282.3" font-family="Times,serif" font-size="14.00">a</text>
</g>
<!-- 2 -->
<g id="node3" class="node"><title>2</title>
<ellipse fill="lightblue" stroke="black" cx="21" cy="-194" rx="18" ry="18"/>
<text text-anchor="middle" x="21" y="-190.3" font-family="Times,serif" font-size="14.00">2</text>
</g>
<!-- 0&#45;&gt;2 -->
<g id="edge2" class="edge"><title>0&#45;&gt;2</title>
<path fill="none" stroke="black" d="M21,-263.671C21,-251.284 21,-235.552 21,-222.272"/>
<polygon fill="black" stroke="black" points="24.5001,-222.258 21,-212.258 17.5001,-222.258 24.5001,-222.258"/>
<text text-anchor="middle" x="24.5" y="-234.3" font-family="Times,serif" font-size="14.00">b</text>
</g>
<!-- 1 -->
<g id="node2" class="node"><title>1</title>
<ellipse fill="green" stroke="black" cx="21" cy="-106" rx="18" ry="18"/>
<text text-anchor="middle" x="21" y="-102.3" font-family="Times,serif" font-size="14.00">1</text>
</g>
<!-- 1&#45;&gt;2 -->
<g id="edge3" class="edge"><title>1&#45;&gt;2</title>
<path fill="none" stroke="black" d="M21,-124.084C21,-135.861 21,-151.774 21,-165.342"/>
<polygon fill="black" stroke="black" points="17.5001,-165.597 21,-175.597 24.5001,-165.597 17.5001,-165.597"/>
<text text-anchor="middle" x="24.5" y="-146.3" font-family="Times,serif" font-size="14.00">a</text>
</g>
<!-- 3 -->
<g id="node4" class="node"><title>3</title>
<ellipse fill="lightblue" stroke="black" cx="21" cy="-18" rx="18" ry="18"/>
<text text-anchor="middle" x="21" y="-14.3" font-family="Times,serif" font-size="14.00">3</text>
</g>
<!-- 1&#45;&gt;3 -->
<g id="edge4" class="edge"><title>1&#45;&gt;3</title>
<path fill="none" stroke="black" d="M14.3664,-89.2577C12.201,-83.3321 10.0772,-76.4629 9,-70 7.83094,-62.9856 7.83094,-61.0144 9,-54 9.52175,-50.8695 10.2891,-47.6437 11.1877,-44.476"/>
<polygon fill="black" stroke="black" points="14.5891,-45.3348 14.3664,-34.7423 7.93495,-43.1618 14.5891,-45.3348"/>
<text text-anchor="middle" x="12.5" y="-58.3" font-family="Times,serif" font-size="14.00">b</text>
</g>
<!-- 2&#45;&gt;1 -->
<g id="edge5" class="edge"><title>2&#45;&gt;1</title>
<path fill="none" stroke="black" d="M14.8003,-176.863C12.8558,-171.014 10.966,-164.296 10,-158 8.92147,-150.971 8.92147,-149.029 10,-142 10.4528,-139.049 11.1086,-136.005 11.8779,-133.001"/>
<polygon fill="black" stroke="black" points="15.3155,-133.719 14.8003,-123.137 8.60382,-131.731 15.3155,-133.719"/>
<text text-anchor="middle" x="13.5" y="-146.3" font-family="Times,serif" font-size="14.00">b</text>
</g>
<!-- 2&#45;&gt;2 -->
<g id="edge6" class="edge"><title>2&#45;&gt;2</title>
<path fill="none" stroke="black" d="M37.2903,-201.668C47.3892,-203.517 57,-200.961 57,-194 57,-189.541 53.0557,-186.889 47.5656,-186.045"/>
<polygon fill="black" stroke="black" points="47.1887,-182.554 37.2903,-186.332 47.384,-189.552 47.1887,-182.554"/>
<text text-anchor="middle" x="60.5" y="-190.3" font-family="Times,serif" font-size="14.00">a</text>
</g>
<!-- 3&#45;&gt;1 -->
<g id="edge7" class="edge"><title>3&#45;&gt;1</title>
<path fill="none" stroke="black" d="M21,-36.084C21,-47.8607 21,-63.7741 21,-77.342"/>
<polygon fill="black" stroke="black" points="17.5001,-77.5966 21,-87.5966 24.5001,-77.5967 17.5001,-77.5966"/>
<text text-anchor="middle" x="29.5" y="-58.3" font-family="Times,serif" font-size="14.00">b,a</text>
</g>
</g>
</svg>
