<?xml version="1.0" encoding="UTF-8" standalone="no"?>
<!DOCTYPE svg PUBLIC "-//W3C//DTD SVG 1.1//EN"
 "http://www.w3.org/Graphics/SVG/1.1/DTD/svg11.dtd">
<!-- Generated by graphviz version 2.36.0 (20140111.2315)
 -->
<!-- Title: %3 Pages: 1 -->
<svg width="106pt" height="228pt"
 viewBox="0.00 0.00 106.00 228.00" xmlns="http://www.w3.org/2000/svg" xmlns:xlink="http://www.w3.org/1999/xlink">
<g id="graph0" class="graph" transform="scale(1 1) rotate(0) translate(4 224)">
<title>%3</title>
<polygon fill="white" stroke="none" points="-4,4 -4,-224 102,-224 102,4 -4,4"/>
<!-- 0 -->
<g id="node1" class="node"><title>0</title>
<ellipse fill="green" stroke="black" cx="39" cy="-114" rx="18" ry="18"/>
<text text-anchor="middle" x="39" y="-110.3" font-family="Times,serif" font-size="14.00">0</text>
</g>
<!-- 2 -->
<g id="node3" class="node"><title>2</title>
<ellipse fill="lightblue" stroke="black" cx="50" cy="-22" rx="17.5909" ry="18"/>
<ellipse fill="none" stroke="black" cx="50" cy="-22" rx="21.5" ry="22"/>
<text text-anchor="middle" x="50" y="-18.3" font-family="Times,serif" font-size="14.00">2</text>
</g>
<!-- 0&#45;&gt;2 -->
<g id="edge1" class="edge"><title>0&#45;&gt;2</title>
<path fill="none" stroke="black" d="M33.3161,-96.8089C30.5513,-86.7269 28.3413,-73.5278 31,-62 31.9071,-58.0668 33.2672,-54.0711 34.8507,-50.2116"/>
<polygon fill="black" stroke="black" points="38.0855,-51.5555 39.1169,-41.011 31.7349,-48.6109 38.0855,-51.5555"/>
<text text-anchor="middle" x="39.5" y="-66.3" font-family="Times,serif" font-size="14.00">b,a</text>
</g>
<!-- 1 -->
<g id="node2" class="node"><title>1</title>
<ellipse fill="lightblue" stroke="black" cx="18" cy="-202" rx="18" ry="18"/>
<text text-anchor="middle" x="18" y="-198.3" font-family="Times,serif" font-size="14.00">1</text>
</g>
<!-- 1&#45;&gt;0 -->
<g id="edge2" class="edge"><title>1&#45;&gt;0</title>
<path fill="none" stroke="black" d="M22.049,-184.418C24.9933,-172.361 29.0425,-155.778 32.4449,-141.845"/>
<polygon fill="black" stroke="black" points="35.9196,-142.369 34.8918,-131.824 29.1194,-140.708 35.9196,-142.369"/>
<text text-anchor="middle" x="33.5" y="-154.3" font-family="Times,serif" font-size="14.00">b</text>
</g>
<!-- 1&#45;&gt;2 -->
<g id="edge3" class="edge"><title>1&#45;&gt;2</title>
<path fill="none" stroke="black" d="M12.1536,-184.714C5.52292,-163.833 -3.34919,-126.661 5,-96 9.81324,-78.3243 20.3957,-60.7754 30.0894,-47.3149"/>
<polygon fill="black" stroke="black" points="33.0531,-49.197 36.2616,-39.0997 27.4566,-44.9923 33.0531,-49.197"/>
<text text-anchor="middle" x="8.5" y="-110.3" font-family="Times,serif" font-size="14.00">a</text>
</g>
<!-- 2&#45;&gt;0 -->
<g id="edge4" class="edge"><title>2&#45;&gt;0</title>
<path fill="none" stroke="black" d="M50.2905,-44.2511C50.1601,-54.4974 49.6045,-66.9365 48,-78 47.6001,-80.7572 47.0682,-83.611 46.462,-86.4449"/>
<polygon fill="black" stroke="black" points="42.9999,-85.8707 44.0446,-96.4139 49.8027,-87.5204 42.9999,-85.8707"/>
<text text-anchor="middle" x="52.5" y="-66.3" font-family="Times,serif" font-size="14.00">a</text>
</g>
<!-- 2&#45;&gt;2 -->
<g id="edge5" class="edge"><title>2&#45;&gt;2</title>
<path fill="none" stroke="black" d="M70.0663,-30.7341C80.0736,-31.9426 89,-29.0312 89,-22 89,-17.4956 85.3366,-14.682 80.0725,-13.5592"/>
<polygon fill="black" stroke="black" points="80.1646,-10.0605 70.0663,-13.2659 79.9594,-17.0575 80.1646,-10.0605"/>
<text text-anchor="middle" x="92.5" y="-18.3" font-family="Times,serif" font-size="14.00">b</text>
</g>
<!-- 3 -->
<g id="node4" class="node"><title>3</title>
<ellipse fill="lightblue" stroke="black" cx="80" cy="-202" rx="18" ry="18"/>
<text text-anchor="middle" x="80" y="-198.3" font-family="Times,serif" font-size="14.00">3</text>
</g>
<!-- 3&#45;&gt;0 -->
<g id="edge6" class="edge"><title>3&#45;&gt;0</title>
<path fill="none" stroke="black" d="M72.48,-185.226C66.4115,-172.497 57.7652,-154.361 50.7794,-139.708"/>
<polygon fill="black" stroke="black" points="53.9352,-138.194 46.4724,-130.674 47.6165,-141.207 53.9352,-138.194"/>
<text text-anchor="middle" x="66.5" y="-154.3" font-family="Times,serif" font-size="14.00">b</text>
</g>
<!-- 3&#45;&gt;2 -->
<g id="edge7" class="edge"><title>3&#45;&gt;2</title>
<path fill="none" stroke="black" d="M78.3022,-183.743C75.5274,-157.329 69.373,-105.371 60,-62 59.3909,-59.1817 58.7185,-56.2591 58.019,-53.3389"/>
<polygon fill="black" stroke="black" points="61.4006,-52.4338 55.5887,-43.5752 54.6078,-54.1246 61.4006,-52.4338"/>
<text text-anchor="middle" x="74.5" y="-110.3" font-family="Times,serif" font-size="14.00">a</text>
</g>
</g>
</svg>
