<?xml version="1.0" encoding="UTF-8" standalone="no"?>
<!DOCTYPE svg PUBLIC "-//W3C//DTD SVG 1.1//EN"
 "http://www.w3.org/Graphics/SVG/1.1/DTD/svg11.dtd">
<!-- Generated by graphviz version 2.36.0 (20140111.2315)
 -->
<!-- Title: %3 Pages: 1 -->
<svg width="115pt" height="316pt"
 viewBox="0.00 0.00 115.00 316.00" xmlns="http://www.w3.org/2000/svg" xmlns:xlink="http://www.w3.org/1999/xlink">
<g id="graph0" class="graph" transform="scale(1 1) rotate(0) translate(4 312)">
<title>%3</title>
<polygon fill="white" stroke="none" points="-4,4 -4,-312 111,-312 111,4 -4,4"/>
<!-- 0 -->
<g id="node1" class="node"><title>0</title>
<ellipse fill="lightblue" stroke="black" cx="85" cy="-286" rx="17.5909" ry="18"/>
<ellipse fill="none" stroke="black" cx="85" cy="-286" rx="21.5" ry="22"/>
<text text-anchor="middle" x="85" y="-282.3" font-family="Times,serif" font-size="14.00">0</text>
</g>
<!-- 1 -->
<g id="node2" class="node"><title>1</title>
<ellipse fill="lightblue" stroke="black" cx="55" cy="-194" rx="18" ry="18"/>
<text text-anchor="middle" x="55" y="-190.3" font-family="Times,serif" font-size="14.00">1</text>
</g>
<!-- 0&#45;&gt;1 -->
<g id="edge1" class="edge"><title>0&#45;&gt;1</title>
<path fill="none" stroke="black" d="M78.342,-265.026C74.0081,-252.024 68.312,-234.936 63.6316,-220.895"/>
<polygon fill="black" stroke="black" points="66.9199,-219.691 60.4371,-211.311 60.2791,-221.905 66.9199,-219.691"/>
<text text-anchor="middle" x="79.5" y="-234.3" font-family="Times,serif" font-size="14.00">b,a</text>
</g>
<!-- 2 -->
<g id="node3" class="node"><title>2</title>
<ellipse fill="lightblue" stroke="black" cx="18" cy="-106" rx="18" ry="18"/>
<text text-anchor="middle" x="18" y="-102.3" font-family="Times,serif" font-size="14.00">2</text>
</g>
<!-- 1&#45;&gt;2 -->
<g id="edge2" class="edge"><title>1&#45;&gt;2</title>
<path fill="none" stroke="black" d="M41.0732,-182.232C34.0691,-175.975 26.1955,-167.468 22,-158 18.7841,-150.743 17.3261,-142.337 16.7906,-134.469"/>
<polygon fill="black" stroke="black" points="20.2842,-134.147 16.5537,-124.231 13.2861,-134.309 20.2842,-134.147"/>
<text text-anchor="middle" x="25.5" y="-146.3" font-family="Times,serif" font-size="14.00">a</text>
</g>
<!-- 3 -->
<g id="node4" class="node"><title>3</title>
<ellipse fill="green" stroke="black" cx="61" cy="-18" rx="18" ry="18"/>
<text text-anchor="middle" x="61" y="-14.3" font-family="Times,serif" font-size="14.00">3</text>
</g>
<!-- 1&#45;&gt;3 -->
<g id="edge3" class="edge"><title>1&#45;&gt;3</title>
<path fill="none" stroke="black" d="M55.5862,-175.999C56.6258,-145.853 58.8004,-82.7897 60.0541,-46.4303"/>
<polygon fill="black" stroke="black" points="63.5646,-46.1844 60.4114,-36.0697 56.5688,-45.9431 63.5646,-46.1844"/>
<text text-anchor="middle" x="61.5" y="-102.3" font-family="Times,serif" font-size="14.00">b</text>
</g>
<!-- 2&#45;&gt;1 -->
<g id="edge4" class="edge"><title>2&#45;&gt;1</title>
<path fill="none" stroke="black" d="M24.8686,-122.965C30.2818,-135.547 37.9303,-153.324 44.1666,-167.82"/>
<polygon fill="black" stroke="black" points="41.0464,-169.424 48.2136,-177.226 47.4766,-166.657 41.0464,-169.424"/>
<text text-anchor="middle" x="42.5" y="-146.3" font-family="Times,serif" font-size="14.00">b</text>
</g>
<!-- 2&#45;&gt;3 -->
<g id="edge5" class="edge"><title>2&#45;&gt;3</title>
<path fill="none" stroke="black" d="M16.2368,-87.6206C15.9347,-77.3414 16.8863,-64.3516 22,-54 25.6013,-46.71 31.4415,-40.2442 37.5184,-34.9156"/>
<polygon fill="black" stroke="black" points="40.0987,-37.3368 45.7638,-28.3837 35.752,-31.8498 40.0987,-37.3368"/>
<text text-anchor="middle" x="25.5" y="-58.3" font-family="Times,serif" font-size="14.00">a</text>
</g>
<!-- 3&#45;&gt;0 -->
<g id="edge6" class="edge"><title>3&#45;&gt;0</title>
<path fill="none" stroke="black" d="M67.3833,-35.1654C69.4687,-41.0175 71.605,-47.7297 73,-54 90.0865,-130.799 87.7717,-151.437 92,-230 92.3822,-237.101 92.6306,-238.917 92,-246 91.7567,-248.732 91.4194,-251.559 91.0233,-254.386"/>
<polygon fill="black" stroke="black" points="87.5376,-254.016 89.3936,-264.447 94.4476,-255.136 87.5376,-254.016"/>
<text text-anchor="middle" x="91.5" y="-146.3" font-family="Times,serif" font-size="14.00">b</text>
</g>
<!-- 3&#45;&gt;2 -->
<g id="edge7" class="edge"><title>3&#45;&gt;2</title>
<path fill="none" stroke="black" d="M53.234,-34.5319C46.8303,-47.3394 37.6306,-65.7389 30.2374,-80.5251"/>
<polygon fill="black" stroke="black" points="27.0292,-79.1154 25.6875,-89.6249 33.2902,-82.2459 27.0292,-79.1154"/>
<text text-anchor="middle" x="46.5" y="-58.3" font-family="Times,serif" font-size="14.00">a</text>
</g>
</g>
</svg>
