<?xml version="1.0" encoding="UTF-8" standalone="no"?>
<!DOCTYPE svg PUBLIC "-//W3C//DTD SVG 1.1//EN"
 "http://www.w3.org/Graphics/SVG/1.1/DTD/svg11.dtd">
<!-- Generated by graphviz version 2.36.0 (20140111.2315)
 -->
<!-- Title: %3 Pages: 1 -->
<svg width="166pt" height="228pt"
 viewBox="0.00 0.00 166.00 228.00" xmlns="http://www.w3.org/2000/svg" xmlns:xlink="http://www.w3.org/1999/xlink">
<g id="graph0" class="graph" transform="scale(1 1) rotate(0) translate(4 224)">
<title>%3</title>
<polygon fill="white" stroke="none" points="-4,4 -4,-224 162,-224 162,4 -4,4"/>
<!-- 0 -->
<g id="node1" class="node"><title>0</title>
<ellipse fill="lightblue" stroke="black" cx="50" cy="-202" rx="18" ry="18"/>
<text text-anchor="middle" x="50" y="-198.3" font-family="Times,serif" font-size="14.00">0</text>
</g>
<!-- 2 -->
<g id="node3" class="node"><title>2</title>
<ellipse fill="green" stroke="black" cx="18" cy="-114" rx="18" ry="18"/>
<text text-anchor="middle" x="18" y="-110.3" font-family="Times,serif" font-size="14.00">2</text>
</g>
<!-- 0&#45;&gt;2 -->
<g id="edge1" class="edge"><title>0&#45;&gt;2</title>
<path fill="none" stroke="black" d="M43.981,-184.824C39.3774,-172.452 32.9381,-155.146 27.6221,-140.859"/>
<polygon fill="black" stroke="black" points="30.7596,-139.255 23.992,-131.103 24.1991,-141.696 30.7596,-139.255"/>
<text text-anchor="middle" x="45.5" y="-154.3" font-family="Times,serif" font-size="14.00">b,a</text>
</g>
<!-- 1 -->
<g id="node2" class="node"><title>1</title>
<ellipse fill="lightblue" stroke="black" cx="72" cy="-22" rx="17.5909" ry="18"/>
<ellipse fill="none" stroke="black" cx="72" cy="-22" rx="21.5" ry="22"/>
<text text-anchor="middle" x="72" y="-18.3" font-family="Times,serif" font-size="14.00">1</text>
</g>
<!-- 1&#45;&gt;0 -->
<g id="edge2" class="edge"><title>1&#45;&gt;0</title>
<path fill="none" stroke="black" d="M70.7546,-44.4295C68.9292,-72.4919 64.9644,-123.158 58,-166 57.5559,-168.732 57.0251,-171.569 56.4512,-174.393"/>
<polygon fill="black" stroke="black" points="52.991,-173.832 54.2605,-184.35 59.8275,-175.336 52.991,-173.832"/>
<text text-anchor="middle" x="69.5" y="-110.3" font-family="Times,serif" font-size="14.00">a</text>
</g>
<!-- 1&#45;&gt;1 -->
<g id="edge3" class="edge"><title>1&#45;&gt;1</title>
<path fill="none" stroke="black" d="M92.0663,-30.7341C102.074,-31.9426 111,-29.0312 111,-22 111,-17.4956 107.337,-14.682 102.072,-13.5592"/>
<polygon fill="black" stroke="black" points="102.165,-10.0605 92.0663,-13.2659 101.959,-17.0575 102.165,-10.0605"/>
<text text-anchor="middle" x="114.5" y="-18.3" font-family="Times,serif" font-size="14.00">b</text>
</g>
<!-- 2&#45;&gt;1 -->
<g id="edge4" class="edge"><title>2&#45;&gt;1</title>
<path fill="none" stroke="black" d="M24.0748,-96.8626C28.2393,-86.5644 34.2233,-73.1119 41,-62 44.0398,-57.0156 47.6318,-51.9482 51.2735,-47.1883"/>
<polygon fill="black" stroke="black" points="54.2755,-49.0373 57.7735,-39.0366 48.8024,-44.6732 54.2755,-49.0373"/>
<text text-anchor="middle" x="49.5" y="-66.3" font-family="Times,serif" font-size="14.00">b,a</text>
</g>
<!-- 3 -->
<g id="node4" class="node"><title>3</title>
<ellipse fill="lightblue" stroke="black" cx="115" cy="-114" rx="18" ry="18"/>
<text text-anchor="middle" x="115" y="-110.3" font-family="Times,serif" font-size="14.00">3</text>
</g>
<!-- 3&#45;&gt;1 -->
<g id="edge5" class="edge"><title>3&#45;&gt;1</title>
<path fill="none" stroke="black" d="M107.51,-97.3232C101.509,-84.764 92.9302,-66.8075 85.7077,-51.6906"/>
<polygon fill="black" stroke="black" points="88.6673,-49.7662 81.1982,-42.252 82.3512,-52.784 88.6673,-49.7662"/>
<text text-anchor="middle" x="100.5" y="-66.3" font-family="Times,serif" font-size="14.00">a</text>
</g>
<!-- 3&#45;&gt;3 -->
<g id="edge6" class="edge"><title>3&#45;&gt;3</title>
<path fill="none" stroke="black" d="M131.29,-121.668C141.389,-123.517 151,-120.961 151,-114 151,-109.541 147.056,-106.889 141.566,-106.045"/>
<polygon fill="black" stroke="black" points="141.189,-102.554 131.29,-106.332 141.384,-109.552 141.189,-102.554"/>
<text text-anchor="middle" x="154.5" y="-110.3" font-family="Times,serif" font-size="14.00">b</text>
</g>
</g>
</svg>
