<?xml version="1.0" encoding="UTF-8" standalone="no"?>
<!DOCTYPE svg PUBLIC "-//W3C//DTD SVG 1.1//EN"
 "http://www.w3.org/Graphics/SVG/1.1/DTD/svg11.dtd">
<!-- Generated by graphviz version 2.36.0 (20140111.2315)
 -->
<!-- Title: %3 Pages: 1 -->
<svg width="119pt" height="316pt"
 viewBox="0.00 0.00 119.00 316.00" xmlns="http://www.w3.org/2000/svg" xmlns:xlink="http://www.w3.org/1999/xlink">
<g id="graph0" class="graph" transform="scale(1 1) rotate(0) translate(4 312)">
<title>%3</title>
<polygon fill="white" stroke="none" points="-4,4 -4,-312 115,-312 115,4 -4,4"/>
<!-- 0 -->
<g id="node1" class="node"><title>0</title>
<ellipse fill="lightblue" stroke="black" cx="61" cy="-290" rx="18" ry="18"/>
<text text-anchor="middle" x="61" y="-286.3" font-family="Times,serif" font-size="14.00">0</text>
</g>
<!-- 2 -->
<g id="node3" class="node"><title>2</title>
<ellipse fill="green" stroke="black" cx="18" cy="-202" rx="18" ry="18"/>
<text text-anchor="middle" x="18" y="-198.3" font-family="Times,serif" font-size="14.00">2</text>
</g>
<!-- 0&#45;&gt;2 -->
<g id="edge1" class="edge"><title>0&#45;&gt;2</title>
<path fill="none" stroke="black" d="M45.7638,-279.616C37.2134,-273.464 27.2382,-264.604 22,-254 18.4444,-246.802 16.901,-238.329 16.3921,-230.379"/>
<polygon fill="black" stroke="black" points="19.8918,-230.324 16.2368,-220.379 12.8926,-230.433 19.8918,-230.324"/>
<text text-anchor="middle" x="25.5" y="-242.3" font-family="Times,serif" font-size="14.00">a</text>
</g>
<!-- 3 -->
<g id="node4" class="node"><title>3</title>
<ellipse fill="lightblue" stroke="black" cx="46" cy="-114" rx="18" ry="18"/>
<text text-anchor="middle" x="46" y="-110.3" font-family="Times,serif" font-size="14.00">3</text>
</g>
<!-- 0&#45;&gt;3 -->
<g id="edge2" class="edge"><title>0&#45;&gt;3</title>
<path fill="none" stroke="black" d="M59.5344,-271.999C56.9356,-241.853 51.4991,-178.79 48.3647,-142.43"/>
<polygon fill="black" stroke="black" points="51.8176,-141.732 47.4715,-132.07 44.8434,-142.333 51.8176,-141.732"/>
<text text-anchor="middle" x="57.5" y="-198.3" font-family="Times,serif" font-size="14.00">b</text>
</g>
<!-- 1 -->
<g id="node2" class="node"><title>1</title>
<ellipse fill="lightblue" stroke="black" cx="46" cy="-22" rx="17.5909" ry="18"/>
<ellipse fill="none" stroke="black" cx="46" cy="-22" rx="21.5" ry="22"/>
<text text-anchor="middle" x="46" y="-18.3" font-family="Times,serif" font-size="14.00">1</text>
</g>
<!-- 1&#45;&gt;0 -->
<g id="edge3" class="edge"><title>1&#45;&gt;0</title>
<path fill="none" stroke="black" d="M60.9584,-37.9301C73.5914,-51.6777 90.7493,-73.3238 98,-96 116.886,-155.065 90.3029,-227.547 73.2959,-264.621"/>
<polygon fill="black" stroke="black" points="70.1241,-263.141 69.0053,-273.677 76.45,-266.139 70.1241,-263.141"/>
<text text-anchor="middle" x="107.5" y="-154.3" font-family="Times,serif" font-size="14.00">a</text>
</g>
<!-- 1&#45;&gt;2 -->
<g id="edge4" class="edge"><title>1&#45;&gt;2</title>
<path fill="none" stroke="black" d="M34.839,-41.108C26.7088,-55.4165 16.3832,-76.2074 12,-96 6.22482,-122.078 9.00899,-152.638 12.4562,-174.043"/>
<polygon fill="black" stroke="black" points="9.0362,-174.803 14.2221,-184.042 15.9295,-173.586 9.0362,-174.803"/>
<text text-anchor="middle" x="15.5" y="-110.3" font-family="Times,serif" font-size="14.00">b</text>
</g>
<!-- 2&#45;&gt;0 -->
<g id="edge5" class="edge"><title>2&#45;&gt;0</title>
<path fill="none" stroke="black" d="M25.766,-218.532C32.1697,-231.339 41.3694,-249.739 48.7626,-264.525"/>
<polygon fill="black" stroke="black" points="45.7098,-266.246 53.3125,-273.625 51.9708,-263.115 45.7098,-266.246"/>
<text text-anchor="middle" x="46.5" y="-242.3" font-family="Times,serif" font-size="14.00">b</text>
</g>
<!-- 2&#45;&gt;3 -->
<g id="edge6" class="edge"><title>2&#45;&gt;3</title>
<path fill="none" stroke="black" d="M23.3987,-184.418C27.414,-172.085 32.9706,-155.019 37.5693,-140.894"/>
<polygon fill="black" stroke="black" points="40.945,-141.831 40.7128,-131.239 34.2889,-139.664 40.945,-141.831"/>
<text text-anchor="middle" x="37.5" y="-154.3" font-family="Times,serif" font-size="14.00">a</text>
</g>
<!-- 3&#45;&gt;1 -->
<g id="edge7" class="edge"><title>3&#45;&gt;1</title>
<path fill="none" stroke="black" d="M46,-95.6471C46,-83.9242 46,-68.1144 46,-54.2369"/>
<polygon fill="black" stroke="black" points="49.5001,-54.101 46,-44.101 42.5001,-54.101 49.5001,-54.101"/>
<text text-anchor="middle" x="49.5" y="-66.3" font-family="Times,serif" font-size="14.00">b</text>
</g>
<!-- 3&#45;&gt;3 -->
<g id="edge8" class="edge"><title>3&#45;&gt;3</title>
<path fill="none" stroke="black" d="M62.2903,-121.668C72.3892,-123.517 82,-120.961 82,-114 82,-109.541 78.0557,-106.889 72.5656,-106.045"/>
<polygon fill="black" stroke="black" points="72.1887,-102.554 62.2903,-106.332 72.384,-109.552 72.1887,-102.554"/>
<text text-anchor="middle" x="85.5" y="-110.3" font-family="Times,serif" font-size="14.00">a</text>
</g>
</g>
</svg>
