<?xml version="1.0" encoding="UTF-8" standalone="no"?>
<!DOCTYPE svg PUBLIC "-//W3C//DTD SVG 1.1//EN"
 "http://www.w3.org/Graphics/SVG/1.1/DTD/svg11.dtd">
<!-- Generated by graphviz version 2.36.0 (20140111.2315)
 -->
<!-- Title: %3 Pages: 1 -->
<svg width="95pt" height="316pt"
 viewBox="0.00 0.00 95.00 316.00" xmlns="http://www.w3.org/2000/svg" xmlns:xlink="http://www.w3.org/1999/xlink">
<g id="graph0" class="graph" transform="scale(1 1) rotate(0) translate(4 312)">
<title>%3</title>
<polygon fill="white" stroke="none" points="-4,4 -4,-312 91,-312 91,4 -4,4"/>
<!-- 0 -->
<g id="node1" class="node"><title>0</title>
<ellipse fill="green" stroke="black" cx="69" cy="-290" rx="18" ry="18"/>
<text text-anchor="middle" x="69" y="-286.3" font-family="Times,serif" font-size="14.00">0</text>
</g>
<!-- 2 -->
<g id="node3" class="node"><title>2</title>
<ellipse fill="lightblue" stroke="black" cx="32" cy="-202" rx="18" ry="18"/>
<text text-anchor="middle" x="32" y="-198.3" font-family="Times,serif" font-size="14.00">2</text>
</g>
<!-- 0&#45;&gt;2 -->
<g id="edge1" class="edge"><title>0&#45;&gt;2</title>
<path fill="none" stroke="black" d="M62.2136,-273.226C56.8233,-260.697 49.1791,-242.93 42.9285,-228.401"/>
<polygon fill="black" stroke="black" points="46.0359,-226.768 38.8686,-218.965 39.6057,-229.534 46.0359,-226.768"/>
<text text-anchor="middle" x="56.5" y="-242.3" font-family="Times,serif" font-size="14.00">b</text>
</g>
<!-- 3 -->
<g id="node4" class="node"><title>3</title>
<ellipse fill="lightblue" stroke="black" cx="55" cy="-110" rx="17.5909" ry="18"/>
<ellipse fill="none" stroke="black" cx="55" cy="-110" rx="21.5" ry="22"/>
<text text-anchor="middle" x="55" y="-106.3" font-family="Times,serif" font-size="14.00">3</text>
</g>
<!-- 0&#45;&gt;3 -->
<g id="edge2" class="edge"><title>0&#45;&gt;3</title>
<path fill="none" stroke="black" d="M68.2371,-271.853C66.9899,-245.582 64.2223,-193.809 60,-150 59.7536,-147.443 59.4716,-144.796 59.1699,-142.139"/>
<polygon fill="black" stroke="black" points="62.6214,-141.528 57.9412,-132.023 55.6724,-142.372 62.6214,-141.528"/>
<text text-anchor="middle" x="68.5" y="-198.3" font-family="Times,serif" font-size="14.00">a</text>
</g>
<!-- 1 -->
<g id="node2" class="node"><title>1</title>
<ellipse fill="lightblue" stroke="black" cx="18" cy="-18" rx="18" ry="18"/>
<text text-anchor="middle" x="18" y="-14.3" font-family="Times,serif" font-size="14.00">1</text>
</g>
<!-- 1&#45;&gt;1 -->
<g id="edge3" class="edge"><title>1&#45;&gt;1</title>
<path fill="none" stroke="black" d="M34.2903,-25.6679C44.3892,-27.5169 54,-24.9609 54,-18 54,-13.5406 50.0557,-10.8891 44.5656,-10.0454"/>
<polygon fill="black" stroke="black" points="44.1887,-6.55441 34.2903,-10.3321 44.384,-13.5517 44.1887,-6.55441"/>
<text text-anchor="middle" x="57.5" y="-14.3" font-family="Times,serif" font-size="14.00">b</text>
</g>
<!-- 1&#45;&gt;2 -->
<g id="edge4" class="edge"><title>1&#45;&gt;2</title>
<path fill="none" stroke="black" d="M16.4574,-35.995C14.3945,-63.6208 12.0547,-119.828 22,-166 22.6238,-168.896 23.3544,-171.905 24.1318,-174.888"/>
<polygon fill="black" stroke="black" points="20.8176,-176.034 26.868,-184.732 27.5619,-174.16 20.8176,-176.034"/>
<text text-anchor="middle" x="19.5" y="-106.3" font-family="Times,serif" font-size="14.00">a</text>
</g>
<!-- 2&#45;&gt;3 -->
<g id="edge5" class="edge"><title>2&#45;&gt;3</title>
<path fill="none" stroke="black" d="M28.1069,-184.118C26.4845,-174.015 25.6587,-161.036 29,-150 30.5232,-144.969 32.933,-139.994 35.6851,-135.367"/>
<polygon fill="black" stroke="black" points="38.6415,-137.242 41.256,-126.975 32.8094,-133.371 38.6415,-137.242"/>
<text text-anchor="middle" x="37.5" y="-154.3" font-family="Times,serif" font-size="14.00">b,a</text>
</g>
<!-- 3&#45;&gt;1 -->
<g id="edge6" class="edge"><title>3&#45;&gt;1</title>
<path fill="none" stroke="black" d="M46.9716,-89.4713C41.5146,-76.1977 34.2452,-58.5154 28.3534,-44.1838"/>
<polygon fill="black" stroke="black" points="31.5732,-42.8108 24.5337,-34.8927 25.0989,-45.4725 31.5732,-42.8108"/>
<text text-anchor="middle" x="41.5" y="-58.3" font-family="Times,serif" font-size="14.00">b</text>
</g>
<!-- 3&#45;&gt;2 -->
<g id="edge7" class="edge"><title>3&#45;&gt;2</title>
<path fill="none" stroke="black" d="M52.6415,-132.127C51.2115,-142.456 49.0602,-155.001 46,-166 45.1054,-169.216 44.0116,-172.539 42.8335,-175.8"/>
<polygon fill="black" stroke="black" points="39.5311,-174.635 39.161,-185.223 46.0533,-177.177 39.5311,-174.635"/>
<text text-anchor="middle" x="52.5" y="-154.3" font-family="Times,serif" font-size="14.00">a</text>
</g>
</g>
</svg>
