<?xml version="1.0" encoding="UTF-8" standalone="no"?>
<!DOCTYPE svg PUBLIC "-//W3C//DTD SVG 1.1//EN"
 "http://www.w3.org/Graphics/SVG/1.1/DTD/svg11.dtd">
<!-- Generated by graphviz version 2.36.0 (20140111.2315)
 -->
<!-- Title: %3 Pages: 1 -->
<svg width="76pt" height="404pt"
 viewBox="0.00 0.00 76.00 404.00" xmlns="http://www.w3.org/2000/svg" xmlns:xlink="http://www.w3.org/1999/xlink">
<g id="graph0" class="graph" transform="scale(1 1) rotate(0) translate(4 400)">
<title>%3</title>
<polygon fill="white" stroke="none" points="-4,4 -4,-400 72,-400 72,4 -4,4"/>
<!-- 0 -->
<g id="node1" class="node"><title>0</title>
<ellipse fill="lightblue" stroke="black" cx="21" cy="-194" rx="18" ry="18"/>
<text text-anchor="middle" x="21" y="-190.3" font-family="Times,serif" font-size="14.00">0</text>
</g>
<!-- 4 -->
<g id="node5" class="node"><title>4</title>
<ellipse fill="green" stroke="black" cx="21" cy="-106" rx="18" ry="18"/>
<text text-anchor="middle" x="21" y="-102.3" font-family="Times,serif" font-size="14.00">4</text>
</g>
<!-- 0&#45;&gt;4 -->
<g id="edge1" class="edge"><title>0&#45;&gt;4</title>
<path fill="none" stroke="black" d="M11.1343,-178.689C7.50652,-172.598 3.83778,-165.237 2,-158 0.249839,-151.108 0.249839,-148.892 2,-142 3.00504,-138.042 4.55766,-134.047 6.35171,-130.244"/>
<polygon fill="black" stroke="black" points="9.49957,-131.779 11.1343,-121.311 3.32845,-128.475 9.49957,-131.779"/>
<text text-anchor="middle" x="10.5" y="-146.3" font-family="Times,serif" font-size="14.00">b,a</text>
</g>
<!-- 1 -->
<g id="node2" class="node"><title>1</title>
<ellipse fill="lightblue" stroke="black" cx="21" cy="-286" rx="17.5909" ry="18"/>
<ellipse fill="none" stroke="black" cx="21" cy="-286" rx="21.5" ry="22"/>
<text text-anchor="middle" x="21" y="-282.3" font-family="Times,serif" font-size="14.00">1</text>
</g>
<!-- 1&#45;&gt;0 -->
<g id="edge2" class="edge"><title>1&#45;&gt;0</title>
<path fill="none" stroke="black" d="M21,-263.671C21,-251.284 21,-235.552 21,-222.272"/>
<polygon fill="black" stroke="black" points="24.5001,-222.258 21,-212.258 17.5001,-222.258 24.5001,-222.258"/>
<text text-anchor="middle" x="24.5" y="-234.3" font-family="Times,serif" font-size="14.00">b</text>
</g>
<!-- 1&#45;&gt;1 -->
<g id="edge3" class="edge"><title>1&#45;&gt;1</title>
<path fill="none" stroke="black" d="M41.0663,-294.734C51.0736,-295.943 60,-293.031 60,-286 60,-281.496 56.3366,-278.682 51.0725,-277.559"/>
<polygon fill="black" stroke="black" points="51.1646,-274.061 41.0663,-277.266 50.9594,-281.057 51.1646,-274.061"/>
<text text-anchor="middle" x="63.5" y="-282.3" font-family="Times,serif" font-size="14.00">a</text>
</g>
<!-- 2 -->
<g id="node3" class="node"><title>2</title>
<ellipse fill="lightblue" stroke="black" cx="21" cy="-18" rx="18" ry="18"/>
<text text-anchor="middle" x="21" y="-14.3" font-family="Times,serif" font-size="14.00">2</text>
</g>
<!-- 2&#45;&gt;2 -->
<g id="edge4" class="edge"><title>2&#45;&gt;2</title>
<path fill="none" stroke="black" d="M37.2903,-25.6679C47.3892,-27.5169 57,-24.9609 57,-18 57,-13.5406 53.0557,-10.8891 47.5656,-10.0454"/>
<polygon fill="black" stroke="black" points="47.1887,-6.55441 37.2903,-10.3321 47.384,-13.5517 47.1887,-6.55441"/>
<text text-anchor="middle" x="60.5" y="-14.3" font-family="Times,serif" font-size="14.00">b</text>
</g>
<!-- 2&#45;&gt;4 -->
<g id="edge5" class="edge"><title>2&#45;&gt;4</title>
<path fill="none" stroke="black" d="M21,-36.084C21,-47.8607 21,-63.7741 21,-77.342"/>
<polygon fill="black" stroke="black" points="17.5001,-77.5966 21,-87.5966 24.5001,-77.5967 17.5001,-77.5966"/>
<text text-anchor="middle" x="24.5" y="-58.3" font-family="Times,serif" font-size="14.00">a</text>
</g>
<!-- 3 -->
<g id="node4" class="node"><title>3</title>
<ellipse fill="lightblue" stroke="black" cx="21" cy="-378" rx="18" ry="18"/>
<text text-anchor="middle" x="21" y="-374.3" font-family="Times,serif" font-size="14.00">3</text>
</g>
<!-- 3&#45;&gt;1 -->
<g id="edge6" class="edge"><title>3&#45;&gt;1</title>
<path fill="none" stroke="black" d="M21,-359.647C21,-347.924 21,-332.114 21,-318.237"/>
<polygon fill="black" stroke="black" points="24.5001,-318.101 21,-308.101 17.5001,-318.101 24.5001,-318.101"/>
<text text-anchor="middle" x="24.5" y="-330.3" font-family="Times,serif" font-size="14.00">a</text>
</g>
<!-- 3&#45;&gt;3 -->
<g id="edge7" class="edge"><title>3&#45;&gt;3</title>
<path fill="none" stroke="black" d="M37.2903,-385.668C47.3892,-387.517 57,-384.961 57,-378 57,-373.541 53.0557,-370.889 47.5656,-370.045"/>
<polygon fill="black" stroke="black" points="47.1887,-366.554 37.2903,-370.332 47.384,-373.552 47.1887,-366.554"/>
<text text-anchor="middle" x="60.5" y="-374.3" font-family="Times,serif" font-size="14.00">b</text>
</g>
<!-- 4&#45;&gt;0 -->
<g id="edge8" class="edge"><title>4&#45;&gt;0</title>
<path fill="none" stroke="black" d="M21,-124.084C21,-135.861 21,-151.774 21,-165.342"/>
<polygon fill="black" stroke="black" points="17.5001,-165.597 21,-175.597 24.5001,-165.597 17.5001,-165.597"/>
<text text-anchor="middle" x="24.5" y="-146.3" font-family="Times,serif" font-size="14.00">a</text>
</g>
<!-- 4&#45;&gt;2 -->
<g id="edge9" class="edge"><title>4&#45;&gt;2</title>
<path fill="none" stroke="black" d="M14.8003,-88.8629C12.8558,-83.0135 10.966,-76.2957 10,-70 8.92147,-62.9712 8.92147,-61.0288 10,-54 10.4528,-51.0489 11.1086,-48.005 11.8779,-45.0013"/>
<polygon fill="black" stroke="black" points="15.3155,-45.7194 14.8003,-35.1371 8.60382,-43.7309 15.3155,-45.7194"/>
<text text-anchor="middle" x="13.5" y="-58.3" font-family="Times,serif" font-size="14.00">b</text>
</g>
</g>
</svg>
