<?xml version="1.0" encoding="UTF-8" standalone="no"?>
<!DOCTYPE svg PUBLIC "-//W3C//DTD SVG 1.1//EN"
 "http://www.w3.org/Graphics/SVG/1.1/DTD/svg11.dtd">
<!-- Generated by graphviz version 2.36.0 (20140111.2315)
 -->
<!-- Title: %3 Pages: 1 -->
<svg width="132pt" height="316pt"
 viewBox="0.00 0.00 132.00 316.00" xmlns="http://www.w3.org/2000/svg" xmlns:xlink="http://www.w3.org/1999/xlink">
<g id="graph0" class="graph" transform="scale(1 1) rotate(0) translate(4 312)">
<title>%3</title>
<polygon fill="white" stroke="none" points="-4,4 -4,-312 128,-312 128,4 -4,4"/>
<!-- 0 -->
<g id="node1" class="node"><title>0</title>
<ellipse fill="lightblue" stroke="black" cx="77" cy="-286" rx="17.5909" ry="18"/>
<ellipse fill="none" stroke="black" cx="77" cy="-286" rx="21.5" ry="22"/>
<text text-anchor="middle" x="77" y="-282.3" font-family="Times,serif" font-size="14.00">0</text>
</g>
<!-- 0&#45;&gt;0 -->
<g id="edge1" class="edge"><title>0&#45;&gt;0</title>
<path fill="none" stroke="black" d="M97.0663,-294.734C107.074,-295.943 116,-293.031 116,-286 116,-281.496 112.337,-278.682 107.072,-277.559"/>
<polygon fill="black" stroke="black" points="107.165,-274.061 97.0663,-277.266 106.959,-281.057 107.165,-274.061"/>
<text text-anchor="middle" x="119.5" y="-282.3" font-family="Times,serif" font-size="14.00">b</text>
</g>
<!-- 2 -->
<g id="node3" class="node"><title>2</title>
<ellipse fill="lightblue" stroke="black" cx="18" cy="-194" rx="18" ry="18"/>
<text text-anchor="middle" x="18" y="-190.3" font-family="Times,serif" font-size="14.00">2</text>
</g>
<!-- 0&#45;&gt;2 -->
<g id="edge2" class="edge"><title>0&#45;&gt;2</title>
<path fill="none" stroke="black" d="M65.3435,-267.219C56.0794,-253.087 43.0546,-233.219 33.0108,-217.898"/>
<polygon fill="black" stroke="black" points="35.9023,-215.925 27.4927,-209.48 30.0481,-219.762 35.9023,-215.925"/>
<text text-anchor="middle" x="55.5" y="-234.3" font-family="Times,serif" font-size="14.00">a</text>
</g>
<!-- 1 -->
<g id="node2" class="node"><title>1</title>
<ellipse fill="lightblue" stroke="black" cx="72" cy="-106" rx="18" ry="18"/>
<text text-anchor="middle" x="72" y="-102.3" font-family="Times,serif" font-size="14.00">1</text>
</g>
<!-- 1&#45;&gt;0 -->
<g id="edge3" class="edge"><title>1&#45;&gt;0</title>
<path fill="none" stroke="black" d="M72.4807,-124.114C73.3177,-153.909 75.0541,-215.727 76.1142,-253.464"/>
<polygon fill="black" stroke="black" points="72.6273,-253.984 76.4068,-263.882 79.6245,-253.788 72.6273,-253.984"/>
<text text-anchor="middle" x="78.5" y="-190.3" font-family="Times,serif" font-size="14.00">b</text>
</g>
<!-- 3 -->
<g id="node4" class="node"><title>3</title>
<ellipse fill="green" stroke="black" cx="72" cy="-18" rx="18" ry="18"/>
<text text-anchor="middle" x="72" y="-14.3" font-family="Times,serif" font-size="14.00">3</text>
</g>
<!-- 1&#45;&gt;3 -->
<g id="edge4" class="edge"><title>1&#45;&gt;3</title>
<path fill="none" stroke="black" d="M65.3664,-89.2577C63.201,-83.3321 61.0772,-76.4629 60,-70 58.8309,-62.9856 58.8309,-61.0144 60,-54 60.5217,-50.8695 61.2891,-47.6437 62.1877,-44.476"/>
<polygon fill="black" stroke="black" points="65.5891,-45.3348 65.3664,-34.7423 58.9349,-43.1618 65.5891,-45.3348"/>
<text text-anchor="middle" x="63.5" y="-58.3" font-family="Times,serif" font-size="14.00">a</text>
</g>
<!-- 2&#45;&gt;1 -->
<g id="edge5" class="edge"><title>2&#45;&gt;1</title>
<path fill="none" stroke="black" d="M27.1604,-178.411C35.3836,-165.315 47.6029,-145.855 57.2098,-130.555"/>
<polygon fill="black" stroke="black" points="60.4411,-131.99 62.7947,-121.66 54.5129,-128.268 60.4411,-131.99"/>
<text text-anchor="middle" x="53.5" y="-146.3" font-family="Times,serif" font-size="14.00">a</text>
</g>
<!-- 2&#45;&gt;2 -->
<g id="edge6" class="edge"><title>2&#45;&gt;2</title>
<path fill="none" stroke="black" d="M34.2903,-201.668C44.3892,-203.517 54,-200.961 54,-194 54,-189.541 50.0557,-186.889 44.5656,-186.045"/>
<polygon fill="black" stroke="black" points="44.1887,-182.554 34.2903,-186.332 44.384,-189.552 44.1887,-182.554"/>
<text text-anchor="middle" x="57.5" y="-190.3" font-family="Times,serif" font-size="14.00">b</text>
</g>
<!-- 3&#45;&gt;1 -->
<g id="edge7" class="edge"><title>3&#45;&gt;1</title>
<path fill="none" stroke="black" d="M72,-36.084C72,-47.8607 72,-63.7741 72,-77.342"/>
<polygon fill="black" stroke="black" points="68.5001,-77.5966 72,-87.5966 75.5001,-77.5967 68.5001,-77.5966"/>
<text text-anchor="middle" x="75.5" y="-58.3" font-family="Times,serif" font-size="14.00">a</text>
</g>
<!-- 3&#45;&gt;3 -->
<g id="edge8" class="edge"><title>3&#45;&gt;3</title>
<path fill="none" stroke="black" d="M88.2903,-25.6679C98.3892,-27.5169 108,-24.9609 108,-18 108,-13.5406 104.056,-10.8891 98.5656,-10.0454"/>
<polygon fill="black" stroke="black" points="98.1887,-6.55441 88.2903,-10.3321 98.384,-13.5517 98.1887,-6.55441"/>
<text text-anchor="middle" x="111.5" y="-14.3" font-family="Times,serif" font-size="14.00">b</text>
</g>
</g>
</svg>
