<?xml version="1.0" encoding="UTF-8" standalone="no"?>
<!DOCTYPE svg PUBLIC "-//W3C//DTD SVG 1.1//EN"
 "http://www.w3.org/Graphics/SVG/1.1/DTD/svg11.dtd">
<!-- Generated by graphviz version 2.36.0 (20140111.2315)
 -->
<!-- Title: %3 Pages: 1 -->
<svg width="107pt" height="316pt"
 viewBox="0.00 0.00 107.00 316.00" xmlns="http://www.w3.org/2000/svg" xmlns:xlink="http://www.w3.org/1999/xlink">
<g id="graph0" class="graph" transform="scale(1 1) rotate(0) translate(4 312)">
<title>%3</title>
<polygon fill="white" stroke="none" points="-4,4 -4,-312 103,-312 103,4 -4,4"/>
<!-- 0 -->
<g id="node1" class="node"><title>0</title>
<ellipse fill="lightblue" stroke="black" cx="56" cy="-290" rx="18" ry="18"/>
<text text-anchor="middle" x="56" y="-286.3" font-family="Times,serif" font-size="14.00">0</text>
</g>
<!-- 0&#45;&gt;0 -->
<g id="edge1" class="edge"><title>0&#45;&gt;0</title>
<path fill="none" stroke="black" d="M72.2903,-297.668C82.3892,-299.517 92,-296.961 92,-290 92,-285.541 88.0557,-282.889 82.5656,-282.045"/>
<polygon fill="black" stroke="black" points="82.1887,-278.554 72.2903,-282.332 82.384,-285.552 82.1887,-278.554"/>
<text text-anchor="middle" x="95.5" y="-286.3" font-family="Times,serif" font-size="14.00">b</text>
</g>
<!-- 2 -->
<g id="node3" class="node"><title>2</title>
<ellipse fill="lightblue" stroke="black" cx="56" cy="-198" rx="17.5909" ry="18"/>
<ellipse fill="none" stroke="black" cx="56" cy="-198" rx="21.5" ry="22"/>
<text text-anchor="middle" x="56" y="-194.3" font-family="Times,serif" font-size="14.00">2</text>
</g>
<!-- 0&#45;&gt;2 -->
<g id="edge2" class="edge"><title>0&#45;&gt;2</title>
<path fill="none" stroke="black" d="M56,-271.647C56,-259.924 56,-244.114 56,-230.237"/>
<polygon fill="black" stroke="black" points="59.5001,-230.101 56,-220.101 52.5001,-230.101 59.5001,-230.101"/>
<text text-anchor="middle" x="59.5" y="-242.3" font-family="Times,serif" font-size="14.00">a</text>
</g>
<!-- 1 -->
<g id="node2" class="node"><title>1</title>
<ellipse fill="lightblue" stroke="black" cx="18" cy="-106" rx="18" ry="18"/>
<text text-anchor="middle" x="18" y="-102.3" font-family="Times,serif" font-size="14.00">1</text>
</g>
<!-- 3 -->
<g id="node4" class="node"><title>3</title>
<ellipse fill="green" stroke="black" cx="50" cy="-18" rx="18" ry="18"/>
<text text-anchor="middle" x="50" y="-14.3" font-family="Times,serif" font-size="14.00">3</text>
</g>
<!-- 1&#45;&gt;3 -->
<g id="edge3" class="edge"><title>1&#45;&gt;3</title>
<path fill="none" stroke="black" d="M24.019,-88.8241C28.6226,-76.4516 35.0619,-59.1462 40.3779,-44.8593"/>
<polygon fill="black" stroke="black" points="43.8009,-45.6962 44.008,-35.1034 37.2404,-43.255 43.8009,-45.6962"/>
<text text-anchor="middle" x="45.5" y="-58.3" font-family="Times,serif" font-size="14.00">b,a</text>
</g>
<!-- 2&#45;&gt;1 -->
<g id="edge4" class="edge"><title>2&#45;&gt;1</title>
<path fill="none" stroke="black" d="M47.7546,-177.471C42.1501,-164.198 34.6843,-146.515 28.6332,-132.184"/>
<polygon fill="black" stroke="black" points="31.8244,-130.744 24.7103,-122.893 25.3757,-133.467 31.8244,-130.744"/>
<text text-anchor="middle" x="48.5" y="-146.3" font-family="Times,serif" font-size="14.00">b,a</text>
</g>
<!-- 3&#45;&gt;2 -->
<g id="edge5" class="edge"><title>3&#45;&gt;2</title>
<path fill="none" stroke="black" d="M54.5979,-35.6032C55.9822,-41.3784 57.3151,-47.9301 58,-54 62.3198,-92.2854 60.6678,-136.699 58.6965,-165.744"/>
<polygon fill="black" stroke="black" points="55.1794,-165.849 57.9371,-176.079 62.1606,-166.362 55.1794,-165.849"/>
<text text-anchor="middle" x="68.5" y="-102.3" font-family="Times,serif" font-size="14.00">b,a</text>
</g>
</g>
</svg>
