<?xml version="1.0" encoding="UTF-8" standalone="no"?>
<!DOCTYPE svg PUBLIC "-//W3C//DTD SVG 1.1//EN"
 "http://www.w3.org/Graphics/SVG/1.1/DTD/svg11.dtd">
<!-- Generated by graphviz version 2.36.0 (20140111.2315)
 -->
<!-- Title: %3 Pages: 1 -->
<svg width="215pt" height="316pt"
 viewBox="0.00 0.00 215.23 316.00" xmlns="http://www.w3.org/2000/svg" xmlns:xlink="http://www.w3.org/1999/xlink">
<g id="graph0" class="graph" transform="scale(1 1) rotate(0) translate(4 312)">
<title>%3</title>
<polygon fill="white" stroke="none" points="-4,4 -4,-312 211.225,-312 211.225,4 -4,4"/>
<!-- 0 -->
<g id="node1" class="node"><title>0</title>
<ellipse fill="lightblue" stroke="black" cx="87.2253" cy="-290" rx="18" ry="18"/>
<text text-anchor="middle" x="87.2253" y="-286.3" font-family="Times,serif" font-size="14.00">0</text>
</g>
<!-- 0&#45;&gt;0 -->
<g id="edge1" class="edge"><title>0&#45;&gt;0</title>
<path fill="none" stroke="black" d="M103.516,-297.668C113.614,-299.517 123.225,-296.961 123.225,-290 123.225,-285.541 119.281,-282.889 113.791,-282.045"/>
<polygon fill="black" stroke="black" points="113.414,-278.554 103.516,-282.332 113.609,-285.552 113.414,-278.554"/>
<text text-anchor="middle" x="126.725" y="-286.3" font-family="Times,serif" font-size="14.00">b</text>
</g>
<!-- 1 -->
<g id="node2" class="node"><title>1</title>
<ellipse fill="green" stroke="black" cx="39.2253" cy="-202" rx="18" ry="18"/>
<text text-anchor="middle" x="39.2253" y="-198.3" font-family="Times,serif" font-size="14.00">1</text>
</g>
<!-- 0&#45;&gt;1 -->
<g id="edge2" class="edge"><title>0&#45;&gt;1</title>
<path fill="none" stroke="black" d="M78.8643,-274.02C71.613,-261.028 60.9879,-241.991 52.563,-226.897"/>
<polygon fill="black" stroke="black" points="55.5814,-225.123 47.6515,-218.097 49.469,-228.535 55.5814,-225.123"/>
<text text-anchor="middle" x="70.7253" y="-242.3" font-family="Times,serif" font-size="14.00">a</text>
</g>
<!-- 3 -->
<g id="node4" class="node"><title>3</title>
<ellipse fill="lightblue" stroke="black" cx="86.2253" cy="-18" rx="18" ry="18"/>
<text text-anchor="middle" x="86.2253" y="-14.3" font-family="Times,serif" font-size="14.00">3</text>
</g>
<!-- 1&#45;&gt;3 -->
<g id="edge3" class="edge"><title>1&#45;&gt;3</title>
<path fill="none" stroke="black" d="M28.6737,-186.978C13.6352,-165.155 -10.4926,-122.037 5.22528,-88 16.7395,-63.0659 42.1989,-43.8211 61.5227,-32.067"/>
<polygon fill="black" stroke="black" points="63.5307,-34.9487 70.428,-26.9065 60.0209,-28.8921 63.5307,-34.9487"/>
<text text-anchor="middle" x="8.72528" y="-106.3" font-family="Times,serif" font-size="14.00">b</text>
</g>
<!-- 4 -->
<g id="node5" class="node"><title>4</title>
<ellipse fill="lightblue" stroke="black" cx="39.2253" cy="-110" rx="18" ry="18"/>
<text text-anchor="middle" x="39.2253" y="-106.3" font-family="Times,serif" font-size="14.00">4</text>
</g>
<!-- 1&#45;&gt;4 -->
<g id="edge4" class="edge"><title>1&#45;&gt;4</title>
<path fill="none" stroke="black" d="M39.2253,-183.647C39.2253,-170.823 39.2253,-153.108 39.2253,-138.381"/>
<polygon fill="black" stroke="black" points="42.7254,-138.3 39.2253,-128.3 35.7254,-138.3 42.7254,-138.3"/>
<text text-anchor="middle" x="42.7253" y="-154.3" font-family="Times,serif" font-size="14.00">a</text>
</g>
<!-- 2 -->
<g id="node3" class="node"><title>2</title>
<ellipse fill="lightblue" stroke="black" cx="160.225" cy="-110" rx="17.5909" ry="18"/>
<ellipse fill="none" stroke="black" cx="160.225" cy="-110" rx="21.5" ry="22"/>
<text text-anchor="middle" x="160.225" y="-106.3" font-family="Times,serif" font-size="14.00">2</text>
</g>
<!-- 2&#45;&gt;2 -->
<g id="edge5" class="edge"><title>2&#45;&gt;2</title>
<path fill="none" stroke="black" d="M180.292,-118.734C190.299,-119.943 199.225,-117.031 199.225,-110 199.225,-105.496 195.562,-102.682 190.298,-101.559"/>
<polygon fill="black" stroke="black" points="190.39,-98.0605 180.292,-101.266 190.185,-105.057 190.39,-98.0605"/>
<text text-anchor="middle" x="202.725" y="-106.3" font-family="Times,serif" font-size="14.00">a</text>
</g>
<!-- 2&#45;&gt;3 -->
<g id="edge6" class="edge"><title>2&#45;&gt;3</title>
<path fill="none" stroke="black" d="M149.771,-90.6243C143.091,-79.54 133.891,-65.4053 124.225,-54 119.202,-48.0727 113.227,-42.1492 107.52,-36.9056"/>
<polygon fill="black" stroke="black" points="109.818,-34.2657 100.018,-30.2403 105.169,-39.4987 109.818,-34.2657"/>
<text text-anchor="middle" x="139.725" y="-58.3" font-family="Times,serif" font-size="14.00">b</text>
</g>
<!-- 3&#45;&gt;0 -->
<g id="edge7" class="edge"><title>3&#45;&gt;0</title>
<path fill="none" stroke="black" d="M87.8009,-35.995C89.0118,-49.9498 90.5825,-70.236 91.2253,-88 93.4653,-149.905 90.6768,-222.584 88.7555,-261.343"/>
<polygon fill="black" stroke="black" points="85.2367,-261.62 88.2176,-271.787 92.2275,-261.98 85.2367,-261.62"/>
<text text-anchor="middle" x="94.7253" y="-154.3" font-family="Times,serif" font-size="14.00">a</text>
</g>
<!-- 3&#45;&gt;3 -->
<g id="edge8" class="edge"><title>3&#45;&gt;3</title>
<path fill="none" stroke="black" d="M102.516,-25.6679C112.614,-27.5169 122.225,-24.9609 122.225,-18 122.225,-13.5406 118.281,-10.8891 112.791,-10.0454"/>
<polygon fill="black" stroke="black" points="112.414,-6.55441 102.516,-10.3321 112.609,-13.5517 112.414,-6.55441"/>
<text text-anchor="middle" x="125.725" y="-14.3" font-family="Times,serif" font-size="14.00">b</text>
</g>
<!-- 4&#45;&gt;3 -->
<g id="edge9" class="edge"><title>4&#45;&gt;3</title>
<path fill="none" stroke="black" d="M47.1982,-93.7327C54.3554,-80.0274 64.9908,-59.6618 73.3523,-43.6504"/>
<polygon fill="black" stroke="black" points="76.6866,-44.8264 78.2133,-34.3422 70.4817,-41.5861 76.6866,-44.8264"/>
<text text-anchor="middle" x="69.7253" y="-58.3" font-family="Times,serif" font-size="14.00">a</text>
</g>
<!-- 4&#45;&gt;4 -->
<g id="edge10" class="edge"><title>4&#45;&gt;4</title>
<path fill="none" stroke="black" d="M55.5155,-118.365C65.6144,-120.382 75.2253,-117.594 75.2253,-110 75.2253,-105.135 71.281,-102.243 65.7909,-101.322"/>
<polygon fill="black" stroke="black" points="65.4044,-97.8323 55.5155,-101.635 65.6174,-104.829 65.4044,-97.8323"/>
<text text-anchor="middle" x="78.7253" y="-106.3" font-family="Times,serif" font-size="14.00">b</text>
</g>
</g>
</svg>
