<?xml version="1.0" encoding="UTF-8" standalone="no"?>
<!DOCTYPE svg PUBLIC "-//W3C//DTD SVG 1.1//EN"
 "http://www.w3.org/Graphics/SVG/1.1/DTD/svg11.dtd">
<!-- Generated by graphviz version 2.36.0 (20140111.2315)
 -->
<!-- Title: %3 Pages: 1 -->
<svg width="138pt" height="316pt"
 viewBox="0.00 0.00 138.00 316.00" xmlns="http://www.w3.org/2000/svg" xmlns:xlink="http://www.w3.org/1999/xlink">
<g id="graph0" class="graph" transform="scale(1 1) rotate(0) translate(4 312)">
<title>%3</title>
<polygon fill="white" stroke="none" points="-4,4 -4,-312 134,-312 134,4 -4,4"/>
<!-- 0 -->
<g id="node1" class="node"><title>0</title>
<ellipse fill="green" stroke="black" cx="77" cy="-202" rx="18" ry="18"/>
<text text-anchor="middle" x="77" y="-198.3" font-family="Times,serif" font-size="14.00">0</text>
</g>
<!-- 0&#45;&gt;0 -->
<g id="edge1" class="edge"><title>0&#45;&gt;0</title>
<path fill="none" stroke="black" d="M93.2903,-209.668C103.389,-211.517 113,-208.961 113,-202 113,-197.541 109.056,-194.889 103.566,-194.045"/>
<polygon fill="black" stroke="black" points="103.189,-190.554 93.2903,-194.332 103.384,-197.552 103.189,-190.554"/>
<text text-anchor="middle" x="121.5" y="-198.3" font-family="Times,serif" font-size="14.00">b,c</text>
</g>
<!-- 3 -->
<g id="node4" class="node"><title>3</title>
<ellipse fill="lightblue" stroke="black" cx="18" cy="-114" rx="18" ry="18"/>
<text text-anchor="middle" x="18" y="-110.3" font-family="Times,serif" font-size="14.00">3</text>
</g>
<!-- 0&#45;&gt;3 -->
<g id="edge2" class="edge"><title>0&#45;&gt;3</title>
<path fill="none" stroke="black" d="M67.2573,-186.799C58.1191,-173.479 44.2996,-153.335 33.6218,-137.771"/>
<polygon fill="black" stroke="black" points="36.3004,-135.488 27.7571,-129.222 30.5282,-139.448 36.3004,-135.488"/>
<text text-anchor="middle" x="56.5" y="-154.3" font-family="Times,serif" font-size="14.00">a</text>
</g>
<!-- 1 -->
<g id="node2" class="node"><title>1</title>
<ellipse fill="lightblue" stroke="black" cx="58" cy="-22" rx="17.5909" ry="18"/>
<ellipse fill="none" stroke="black" cx="58" cy="-22" rx="21.5" ry="22"/>
<text text-anchor="middle" x="58" y="-18.3" font-family="Times,serif" font-size="14.00">1</text>
</g>
<!-- 1&#45;&gt;0 -->
<g id="edge3" class="edge"><title>1&#45;&gt;0</title>
<path fill="none" stroke="black" d="M61.9476,-43.693C64.5938,-58.2673 67.9559,-78.2647 70,-96 73.0282,-122.274 74.87,-152.41 75.8989,-173.637"/>
<polygon fill="black" stroke="black" points="72.413,-174.028 76.3648,-183.859 79.4057,-173.709 72.413,-174.028"/>
<text text-anchor="middle" x="77.5" y="-110.3" font-family="Times,serif" font-size="14.00">a</text>
</g>
<!-- 1&#45;&gt;1 -->
<g id="edge4" class="edge"><title>1&#45;&gt;1</title>
<path fill="none" stroke="black" d="M78.0663,-30.7341C88.0736,-31.9426 97,-29.0312 97,-22 97,-17.4956 93.3366,-14.682 88.0725,-13.5592"/>
<polygon fill="black" stroke="black" points="88.1646,-10.0605 78.0663,-13.2659 87.9594,-17.0575 88.1646,-10.0605"/>
<text text-anchor="middle" x="100.5" y="-18.3" font-family="Times,serif" font-size="14.00">b</text>
</g>
<!-- 1&#45;&gt;3 -->
<g id="edge5" class="edge"><title>1&#45;&gt;3</title>
<path fill="none" stroke="black" d="M50.6048,-42.7906C46.5311,-53.3439 41.2474,-66.4902 36,-78 34.4038,-81.5011 32.6389,-85.1554 30.8567,-88.7262"/>
<polygon fill="black" stroke="black" points="27.6427,-87.3239 26.2029,-97.8205 33.8742,-90.5128 27.6427,-87.3239"/>
<text text-anchor="middle" x="46.5" y="-66.3" font-family="Times,serif" font-size="14.00">c</text>
</g>
<!-- 2 -->
<g id="node3" class="node"><title>2</title>
<ellipse fill="lightblue" stroke="black" cx="77" cy="-290" rx="18" ry="18"/>
<text text-anchor="middle" x="77" y="-286.3" font-family="Times,serif" font-size="14.00">2</text>
</g>
<!-- 2&#45;&gt;0 -->
<g id="edge6" class="edge"><title>2&#45;&gt;0</title>
<path fill="none" stroke="black" d="M77,-271.597C77,-259.746 77,-243.817 77,-230.292"/>
<polygon fill="black" stroke="black" points="80.5001,-230.084 77,-220.084 73.5001,-230.084 80.5001,-230.084"/>
<text text-anchor="middle" x="80.5" y="-242.3" font-family="Times,serif" font-size="14.00">c</text>
</g>
<!-- 2&#45;&gt;2 -->
<g id="edge7" class="edge"><title>2&#45;&gt;2</title>
<path fill="none" stroke="black" d="M93.2903,-297.668C103.389,-299.517 113,-296.961 113,-290 113,-285.541 109.056,-282.889 103.566,-282.045"/>
<polygon fill="black" stroke="black" points="103.189,-278.554 93.2903,-282.332 103.384,-285.552 103.189,-278.554"/>
<text text-anchor="middle" x="121.5" y="-286.3" font-family="Times,serif" font-size="14.00">b,a</text>
</g>
<!-- 3&#45;&gt;1 -->
<g id="edge8" class="edge"><title>3&#45;&gt;1</title>
<path fill="none" stroke="black" d="M13.2322,-96.2291C11.2032,-85.9289 10.2574,-72.7041 15,-62 18.6386,-53.7876 24.9555,-46.5664 31.6448,-40.6417"/>
<polygon fill="black" stroke="black" points="33.9309,-43.2946 39.5303,-34.3003 29.5441,-37.8396 33.9309,-43.2946"/>
<text text-anchor="middle" x="23.5" y="-66.3" font-family="Times,serif" font-size="14.00">b,c</text>
</g>
<!-- 3&#45;&gt;3 -->
<g id="edge9" class="edge"><title>3&#45;&gt;3</title>
<path fill="none" stroke="black" d="M34.2903,-121.668C44.3892,-123.517 54,-120.961 54,-114 54,-109.541 50.0557,-106.889 44.5656,-106.045"/>
<polygon fill="black" stroke="black" points="44.1887,-102.554 34.2903,-106.332 44.384,-109.552 44.1887,-102.554"/>
<text text-anchor="middle" x="57.5" y="-110.3" font-family="Times,serif" font-size="14.00">a</text>
</g>
</g>
</svg>
