<?xml version="1.0" encoding="UTF-8" standalone="no"?>
<!DOCTYPE svg PUBLIC "-//W3C//DTD SVG 1.1//EN"
 "http://www.w3.org/Graphics/SVG/1.1/DTD/svg11.dtd">
<!-- Generated by graphviz version 2.36.0 (20140111.2315)
 -->
<!-- Title: %3 Pages: 1 -->
<svg width="168pt" height="316pt"
 viewBox="0.00 0.00 168.00 316.00" xmlns="http://www.w3.org/2000/svg" xmlns:xlink="http://www.w3.org/1999/xlink">
<g id="graph0" class="graph" transform="scale(1 1) rotate(0) translate(4 312)">
<title>%3</title>
<polygon fill="white" stroke="none" points="-4,4 -4,-312 164,-312 164,4 -4,4"/>
<!-- 0 -->
<g id="node1" class="node"><title>0</title>
<ellipse fill="green" stroke="black" cx="18" cy="-290" rx="18" ry="18"/>
<text text-anchor="middle" x="18" y="-286.3" font-family="Times,serif" font-size="14.00">0</text>
</g>
<!-- 0&#45;&gt;0 -->
<g id="edge1" class="edge"><title>0&#45;&gt;0</title>
<path fill="none" stroke="black" d="M34.2903,-297.668C44.3892,-299.517 54,-296.961 54,-290 54,-285.541 50.0557,-282.889 44.5656,-282.045"/>
<polygon fill="black" stroke="black" points="44.1887,-278.554 34.2903,-282.332 44.384,-285.552 44.1887,-278.554"/>
<text text-anchor="middle" x="62.5" y="-286.3" font-family="Times,serif" font-size="14.00">b,a</text>
</g>
<!-- 1 -->
<g id="node2" class="node"><title>1</title>
<ellipse fill="lightblue" stroke="black" cx="107" cy="-290" rx="18" ry="18"/>
<text text-anchor="middle" x="107" y="-286.3" font-family="Times,serif" font-size="14.00">1</text>
</g>
<!-- 1&#45;&gt;1 -->
<g id="edge2" class="edge"><title>1&#45;&gt;1</title>
<path fill="none" stroke="black" d="M123.29,-297.668C133.389,-299.517 143,-296.961 143,-290 143,-285.541 139.056,-282.889 133.566,-282.045"/>
<polygon fill="black" stroke="black" points="133.189,-278.554 123.29,-282.332 133.384,-285.552 133.189,-278.554"/>
<text text-anchor="middle" x="146.5" y="-286.3" font-family="Times,serif" font-size="14.00">a</text>
</g>
<!-- 4 -->
<g id="node5" class="node"><title>4</title>
<ellipse fill="lightblue" stroke="black" cx="107" cy="-202" rx="18" ry="18"/>
<text text-anchor="middle" x="107" y="-198.3" font-family="Times,serif" font-size="14.00">4</text>
</g>
<!-- 1&#45;&gt;4 -->
<g id="edge3" class="edge"><title>1&#45;&gt;4</title>
<path fill="none" stroke="black" d="M100.366,-273.258C98.201,-267.332 96.0772,-260.463 95,-254 93.8309,-246.986 93.8309,-245.014 95,-238 95.5217,-234.87 96.2891,-231.644 97.1877,-228.476"/>
<polygon fill="black" stroke="black" points="100.589,-229.335 100.366,-218.742 93.9349,-227.162 100.589,-229.335"/>
<text text-anchor="middle" x="98.5" y="-242.3" font-family="Times,serif" font-size="14.00">b</text>
</g>
<!-- 2 -->
<g id="node3" class="node"><title>2</title>
<ellipse fill="lightblue" stroke="black" cx="107" cy="-18" rx="18" ry="18"/>
<text text-anchor="middle" x="107" y="-14.3" font-family="Times,serif" font-size="14.00">2</text>
</g>
<!-- 2&#45;&gt;2 -->
<g id="edge4" class="edge"><title>2&#45;&gt;2</title>
<path fill="none" stroke="black" d="M123.29,-25.6679C133.389,-27.5169 143,-24.9609 143,-18 143,-13.5406 139.056,-10.8891 133.566,-10.0454"/>
<polygon fill="black" stroke="black" points="133.189,-6.55441 123.29,-10.3321 133.384,-13.5517 133.189,-6.55441"/>
<text text-anchor="middle" x="151.5" y="-14.3" font-family="Times,serif" font-size="14.00">b,a</text>
</g>
<!-- 3 -->
<g id="node4" class="node"><title>3</title>
<ellipse fill="lightblue" stroke="black" cx="107" cy="-110" rx="17.5909" ry="18"/>
<ellipse fill="none" stroke="black" cx="107" cy="-110" rx="21.5" ry="22"/>
<text text-anchor="middle" x="107" y="-106.3" font-family="Times,serif" font-size="14.00">3</text>
</g>
<!-- 3&#45;&gt;2 -->
<g id="edge5" class="edge"><title>3&#45;&gt;2</title>
<path fill="none" stroke="black" d="M107,-87.6713C107,-75.2844 107,-59.5523 107,-46.2721"/>
<polygon fill="black" stroke="black" points="110.5,-46.258 107,-36.2581 103.5,-46.2581 110.5,-46.258"/>
<text text-anchor="middle" x="115.5" y="-58.3" font-family="Times,serif" font-size="14.00">b,a</text>
</g>
<!-- 4&#45;&gt;1 -->
<g id="edge6" class="edge"><title>4&#45;&gt;1</title>
<path fill="none" stroke="black" d="M107,-220.084C107,-231.861 107,-247.774 107,-261.342"/>
<polygon fill="black" stroke="black" points="103.5,-261.597 107,-271.597 110.5,-261.597 103.5,-261.597"/>
<text text-anchor="middle" x="110.5" y="-242.3" font-family="Times,serif" font-size="14.00">a</text>
</g>
<!-- 4&#45;&gt;3 -->
<g id="edge7" class="edge"><title>4&#45;&gt;3</title>
<path fill="none" stroke="black" d="M107,-183.647C107,-171.924 107,-156.114 107,-142.237"/>
<polygon fill="black" stroke="black" points="110.5,-142.101 107,-132.101 103.5,-142.101 110.5,-142.101"/>
<text text-anchor="middle" x="110.5" y="-154.3" font-family="Times,serif" font-size="14.00">b</text>
</g>
</g>
</svg>
