<?xml version="1.0" encoding="UTF-8" standalone="no"?>
<!DOCTYPE svg PUBLIC "-//W3C//DTD SVG 1.1//EN"
 "http://www.w3.org/Graphics/SVG/1.1/DTD/svg11.dtd">
<!-- Generated by graphviz version 2.36.0 (20140111.2315)
 -->
<!-- Title: %3 Pages: 1 -->
<svg width="162pt" height="228pt"
 viewBox="0.00 0.00 162.16 228.00" xmlns="http://www.w3.org/2000/svg" xmlns:xlink="http://www.w3.org/1999/xlink">
<g id="graph0" class="graph" transform="scale(1 1) rotate(0) translate(4 224)">
<title>%3</title>
<polygon fill="white" stroke="none" points="-4,4 -4,-224 158.156,-224 158.156,4 -4,4"/>
<!-- 0 -->
<g id="node1" class="node"><title>0</title>
<ellipse fill="lightblue" stroke="black" cx="39.1559" cy="-110" rx="18" ry="18"/>
<text text-anchor="middle" x="39.1559" y="-106.3" font-family="Times,serif" font-size="14.00">0</text>
</g>
<!-- 0&#45;&gt;0 -->
<g id="edge1" class="edge"><title>0&#45;&gt;0</title>
<path fill="none" stroke="black" d="M55.4462,-118.365C65.5451,-120.382 75.1559,-117.594 75.1559,-110 75.1559,-105.135 71.2116,-102.243 65.7215,-101.322"/>
<polygon fill="black" stroke="black" points="65.335,-97.8323 55.4462,-101.635 65.5481,-104.829 65.335,-97.8323"/>
<text text-anchor="middle" x="83.6559" y="-106.3" font-family="Times,serif" font-size="14.00">b,a</text>
</g>
<!-- 1 -->
<g id="node2" class="node"><title>1</title>
<ellipse fill="lightblue" stroke="black" cx="102.156" cy="-18" rx="18" ry="18"/>
<text text-anchor="middle" x="102.156" y="-14.3" font-family="Times,serif" font-size="14.00">1</text>
</g>
<!-- 2 -->
<g id="node3" class="node"><title>2</title>
<ellipse fill="green" stroke="black" cx="62.1559" cy="-202" rx="18" ry="18"/>
<text text-anchor="middle" x="62.1559" y="-198.3" font-family="Times,serif" font-size="14.00">2</text>
</g>
<!-- 1&#45;&gt;2 -->
<g id="edge2" class="edge"><title>1&#45;&gt;2</title>
<path fill="none" stroke="black" d="M85.3253,-25.2084C62.3283,-34.7193 22.0204,-55.3075 5.15589,-88 -12.0396,-121.334 19.0413,-160.457 41.662,-182.827"/>
<polygon fill="black" stroke="black" points="39.2695,-185.382 48.9271,-189.739 44.0943,-180.31 39.2695,-185.382"/>
<text text-anchor="middle" x="8.65589" y="-106.3" font-family="Times,serif" font-size="14.00">b</text>
</g>
<!-- 3 -->
<g id="node4" class="node"><title>3</title>
<ellipse fill="lightblue" stroke="black" cx="132.156" cy="-110" rx="17.5909" ry="18"/>
<ellipse fill="none" stroke="black" cx="132.156" cy="-110" rx="21.5" ry="22"/>
<text text-anchor="middle" x="132.156" y="-106.3" font-family="Times,serif" font-size="14.00">3</text>
</g>
<!-- 1&#45;&gt;3 -->
<g id="edge3" class="edge"><title>1&#45;&gt;3</title>
<path fill="none" stroke="black" d="M107.593,-35.3114C111.679,-47.5707 117.39,-64.7023 122.277,-79.3621"/>
<polygon fill="black" stroke="black" points="119.015,-80.6461 125.498,-89.0261 125.656,-78.4324 119.015,-80.6461"/>
<text text-anchor="middle" x="121.656" y="-58.3" font-family="Times,serif" font-size="14.00">a</text>
</g>
<!-- 2&#45;&gt;0 -->
<g id="edge4" class="edge"><title>2&#45;&gt;0</title>
<path fill="none" stroke="black" d="M57.3186,-184.661C55.6261,-178.793 53.7512,-172.115 52.1559,-166 49.7704,-156.856 47.3397,-146.808 45.2356,-137.83"/>
<polygon fill="black" stroke="black" points="48.6023,-136.853 42.9378,-127.9 41.7825,-138.432 48.6023,-136.853"/>
<text text-anchor="middle" x="55.6559" y="-154.3" font-family="Times,serif" font-size="14.00">b</text>
</g>
<!-- 2&#45;&gt;3 -->
<g id="edge5" class="edge"><title>2&#45;&gt;3</title>
<path fill="none" stroke="black" d="M71.8588,-186.425C78.8954,-176.066 88.7833,-161.932 98.1559,-150 102.234,-144.808 106.773,-139.383 111.173,-134.286"/>
<polygon fill="black" stroke="black" points="113.925,-136.455 117.884,-126.627 108.661,-131.841 113.925,-136.455"/>
<text text-anchor="middle" x="101.656" y="-154.3" font-family="Times,serif" font-size="14.00">a</text>
</g>
<!-- 3&#45;&gt;1 -->
<g id="edge6" class="edge"><title>3&#45;&gt;1</title>
<path fill="none" stroke="black" d="M118.141,-93.0216C113.121,-86.3569 108.002,-78.2521 105.156,-70 102.571,-62.5062 101.425,-54.0287 101.029,-46.1678"/>
<polygon fill="black" stroke="black" points="104.526,-45.9314 100.888,-35.9808 97.5269,-46.0282 104.526,-45.9314"/>
<text text-anchor="middle" x="108.656" y="-58.3" font-family="Times,serif" font-size="14.00">b</text>
</g>
<!-- 3&#45;&gt;2 -->
<g id="edge7" class="edge"><title>3&#45;&gt;2</title>
<path fill="none" stroke="black" d="M124.904,-130.769C120.276,-141.809 113.566,-155.428 105.156,-166 99.5943,-172.992 92.4134,-179.514 85.5184,-184.988"/>
<polygon fill="black" stroke="black" points="82.9795,-182.518 77.081,-191.319 87.1805,-188.117 82.9795,-182.518"/>
<text text-anchor="middle" x="118.656" y="-154.3" font-family="Times,serif" font-size="14.00">a</text>
</g>
</g>
</svg>
