<?xml version="1.0" encoding="UTF-8" standalone="no"?>
<!DOCTYPE svg PUBLIC "-//W3C//DTD SVG 1.1//EN"
 "http://www.w3.org/Graphics/SVG/1.1/DTD/svg11.dtd">
<!-- Generated by graphviz version 2.36.0 (20140111.2315)
 -->
<!-- Title: %3 Pages: 1 -->
<svg width="166pt" height="316pt"
 viewBox="0.00 0.00 166.00 316.00" xmlns="http://www.w3.org/2000/svg" xmlns:xlink="http://www.w3.org/1999/xlink">
<g id="graph0" class="graph" transform="scale(1 1) rotate(0) translate(4 312)">
<title>%3</title>
<polygon fill="white" stroke="none" points="-4,4 -4,-312 162,-312 162,4 -4,4"/>
<!-- 0 -->
<g id="node1" class="node"><title>0</title>
<ellipse fill="lightblue" stroke="black" cx="70" cy="-194" rx="18" ry="18"/>
<text text-anchor="middle" x="70" y="-190.3" font-family="Times,serif" font-size="14.00">0</text>
</g>
<!-- 2 -->
<g id="node3" class="node"><title>2</title>
<ellipse fill="lightblue" stroke="black" cx="115" cy="-106" rx="18" ry="18"/>
<text text-anchor="middle" x="115" y="-102.3" font-family="Times,serif" font-size="14.00">2</text>
</g>
<!-- 0&#45;&gt;2 -->
<g id="edge1" class="edge"><title>0&#45;&gt;2</title>
<path fill="none" stroke="black" d="M78.0451,-177.625C84.7642,-164.784 94.4656,-146.243 102.243,-131.381"/>
<polygon fill="black" stroke="black" points="105.489,-132.725 107.025,-122.242 99.2872,-129.48 105.489,-132.725"/>
<text text-anchor="middle" x="104.5" y="-146.3" font-family="Times,serif" font-size="14.00">b,a</text>
</g>
<!-- 1 -->
<g id="node2" class="node"><title>1</title>
<ellipse fill="lightblue" stroke="black" cx="62" cy="-18" rx="18" ry="18"/>
<text text-anchor="middle" x="62" y="-14.3" font-family="Times,serif" font-size="14.00">1</text>
</g>
<!-- 1&#45;&gt;0 -->
<g id="edge2" class="edge"><title>1&#45;&gt;0</title>
<path fill="none" stroke="black" d="M62.7848,-36.0697C64.1731,-66.266 67.0728,-129.334 68.7427,-165.653"/>
<polygon fill="black" stroke="black" points="65.2627,-166.171 69.2184,-175.999 72.2553,-165.849 65.2627,-166.171"/>
<text text-anchor="middle" x="74.5" y="-102.3" font-family="Times,serif" font-size="14.00">b,a</text>
</g>
<!-- 2&#45;&gt;1 -->
<g id="edge3" class="edge"><title>2&#45;&gt;1</title>
<path fill="none" stroke="black" d="M105.768,-90.0199C97.7123,-76.9482 85.8855,-57.7576 76.5561,-42.6194"/>
<polygon fill="black" stroke="black" points="79.3523,-40.4853 71.1261,-33.8084 73.393,-44.1579 79.3523,-40.4853"/>
<text text-anchor="middle" x="96.5" y="-58.3" font-family="Times,serif" font-size="14.00">a</text>
</g>
<!-- 2&#45;&gt;2 -->
<g id="edge4" class="edge"><title>2&#45;&gt;2</title>
<path fill="none" stroke="black" d="M131.29,-113.668C141.389,-115.517 151,-112.961 151,-106 151,-101.541 147.056,-98.8891 141.566,-98.0454"/>
<polygon fill="black" stroke="black" points="141.189,-94.5544 131.29,-98.3321 141.384,-101.552 141.189,-94.5544"/>
<text text-anchor="middle" x="154.5" y="-102.3" font-family="Times,serif" font-size="14.00">b</text>
</g>
<!-- 3 -->
<g id="node4" class="node"><title>3</title>
<ellipse fill="lightblue" stroke="black" cx="79" cy="-286" rx="17.5909" ry="18"/>
<ellipse fill="none" stroke="black" cx="79" cy="-286" rx="21.5" ry="22"/>
<text text-anchor="middle" x="79" y="-282.3" font-family="Times,serif" font-size="14.00">3</text>
</g>
<!-- 3&#45;&gt;0 -->
<g id="edge5" class="edge"><title>3&#45;&gt;0</title>
<path fill="none" stroke="black" d="M76.8671,-263.671C75.6202,-251.202 74.0344,-235.344 72.7009,-222.009"/>
<polygon fill="black" stroke="black" points="76.1746,-221.57 71.6968,-211.968 69.2093,-222.267 76.1746,-221.57"/>
<text text-anchor="middle" x="78.5" y="-234.3" font-family="Times,serif" font-size="14.00">a</text>
</g>
<!-- 3&#45;&gt;3 -->
<g id="edge6" class="edge"><title>3&#45;&gt;3</title>
<path fill="none" stroke="black" d="M99.0663,-294.734C109.074,-295.943 118,-293.031 118,-286 118,-281.496 114.337,-278.682 109.072,-277.559"/>
<polygon fill="black" stroke="black" points="109.165,-274.061 99.0663,-277.266 108.959,-281.057 109.165,-274.061"/>
<text text-anchor="middle" x="121.5" y="-282.3" font-family="Times,serif" font-size="14.00">b</text>
</g>
<!-- 4 -->
<g id="node5" class="node"><title>4</title>
<ellipse fill="green" stroke="black" cx="18" cy="-286" rx="18" ry="18"/>
<text text-anchor="middle" x="18" y="-282.3" font-family="Times,serif" font-size="14.00">4</text>
</g>
<!-- 4&#45;&gt;0 -->
<g id="edge7" class="edge"><title>4&#45;&gt;0</title>
<path fill="none" stroke="black" d="M26.5867,-270.138C34.6408,-256.199 46.8207,-235.118 56.2316,-218.83"/>
<polygon fill="black" stroke="black" points="59.4282,-220.293 61.4005,-209.884 53.3671,-216.791 59.4282,-220.293"/>
<text text-anchor="middle" x="51.5" y="-234.3" font-family="Times,serif" font-size="14.00">a</text>
</g>
<!-- 4&#45;&gt;1 -->
<g id="edge8" class="edge"><title>4&#45;&gt;1</title>
<path fill="none" stroke="black" d="M20.8193,-267.956C28.2699,-222.914 48.5277,-100.446 57.5554,-45.8693"/>
<polygon fill="black" stroke="black" points="61.0252,-46.3393 59.2041,-35.9022 54.119,-45.1969 61.0252,-46.3393"/>
<text text-anchor="middle" x="44.5" y="-146.3" font-family="Times,serif" font-size="14.00">b</text>
</g>
</g>
</svg>
