<?xml version="1.0" encoding="UTF-8" standalone="no"?>
<!DOCTYPE svg PUBLIC "-//W3C//DTD SVG 1.1//EN"
 "http://www.w3.org/Graphics/SVG/1.1/DTD/svg11.dtd">
<!-- Generated by graphviz version 2.36.0 (20140111.2315)
 -->
<!-- Title: %3 Pages: 1 -->
<svg width="225pt" height="140pt"
 viewBox="0.00 0.00 225.00 140.00" xmlns="http://www.w3.org/2000/svg" xmlns:xlink="http://www.w3.org/1999/xlink">
<g id="graph0" class="graph" transform="scale(1 1) rotate(0) translate(4 136)">
<title>%3</title>
<polygon fill="white" stroke="none" points="-4,4 -4,-136 221,-136 221,4 -4,4"/>
<!-- 0 -->
<g id="node1" class="node"><title>0</title>
<ellipse fill="lightblue" stroke="black" cx="22" cy="-110" rx="17.5909" ry="18"/>
<ellipse fill="none" stroke="black" cx="22" cy="-110" rx="21.5" ry="22"/>
<text text-anchor="middle" x="22" y="-106.3" font-family="Times,serif" font-size="14.00">0</text>
</g>
<!-- 0&#45;&gt;0 -->
<g id="edge1" class="edge"><title>0&#45;&gt;0</title>
<path fill="none" stroke="black" d="M42.0663,-118.734C52.0736,-119.943 61,-117.031 61,-110 61,-105.496 57.3366,-102.682 52.0725,-101.559"/>
<polygon fill="black" stroke="black" points="52.1646,-98.0605 42.0663,-101.266 51.9594,-105.057 52.1646,-98.0605"/>
<text text-anchor="middle" x="69.5" y="-106.3" font-family="Times,serif" font-size="14.00">b,a</text>
</g>
<!-- 1 -->
<g id="node2" class="node"><title>1</title>
<ellipse fill="lightblue" stroke="black" cx="115" cy="-110" rx="18" ry="18"/>
<text text-anchor="middle" x="115" y="-106.3" font-family="Times,serif" font-size="14.00">1</text>
</g>
<!-- 2 -->
<g id="node3" class="node"><title>2</title>
<ellipse fill="lightblue" stroke="black" cx="85" cy="-18" rx="18" ry="18"/>
<text text-anchor="middle" x="85" y="-14.3" font-family="Times,serif" font-size="14.00">2</text>
</g>
<!-- 1&#45;&gt;2 -->
<g id="edge2" class="edge"><title>1&#45;&gt;2</title>
<path fill="none" stroke="black" d="M103.244,-95.9366C97.5616,-88.8003 91.276,-79.4977 88,-70 85.4152,-62.5062 84.2695,-54.0287 83.8732,-46.1678"/>
<polygon fill="black" stroke="black" points="87.3704,-45.9314 83.7325,-35.9808 80.371,-46.0282 87.3704,-45.9314"/>
<text text-anchor="middle" x="91.5" y="-58.3" font-family="Times,serif" font-size="14.00">b</text>
</g>
<!-- 3 -->
<g id="node4" class="node"><title>3</title>
<ellipse fill="green" stroke="black" cx="164" cy="-18" rx="18" ry="18"/>
<text text-anchor="middle" x="164" y="-14.3" font-family="Times,serif" font-size="14.00">3</text>
</g>
<!-- 1&#45;&gt;3 -->
<g id="edge3" class="edge"><title>1&#45;&gt;3</title>
<path fill="none" stroke="black" d="M123.312,-93.7327C130.89,-79.8142 142.208,-59.0268 150.984,-42.9066"/>
<polygon fill="black" stroke="black" points="154.103,-44.4981 155.811,-34.0418 147.955,-41.1509 154.103,-44.4981"/>
<text text-anchor="middle" x="146.5" y="-58.3" font-family="Times,serif" font-size="14.00">a</text>
</g>
<!-- 2&#45;&gt;1 -->
<g id="edge4" class="edge"><title>2&#45;&gt;1</title>
<path fill="none" stroke="black" d="M90.4676,-35.4027C94.8558,-48.5674 101.103,-67.3075 106.194,-82.5824"/>
<polygon fill="black" stroke="black" points="103.015,-84.1126 109.498,-92.4926 109.656,-81.899 103.015,-84.1126"/>
<text text-anchor="middle" x="104.5" y="-58.3" font-family="Times,serif" font-size="14.00">a</text>
</g>
<!-- 2&#45;&gt;2 -->
<g id="edge5" class="edge"><title>2&#45;&gt;2</title>
<path fill="none" stroke="black" d="M101.29,-25.6679C111.389,-27.5169 121,-24.9609 121,-18 121,-13.5406 117.056,-10.8891 111.566,-10.0454"/>
<polygon fill="black" stroke="black" points="111.189,-6.55441 101.29,-10.3321 111.384,-13.5517 111.189,-6.55441"/>
<text text-anchor="middle" x="124.5" y="-14.3" font-family="Times,serif" font-size="14.00">b</text>
</g>
<!-- 3&#45;&gt;3 -->
<g id="edge6" class="edge"><title>3&#45;&gt;3</title>
<path fill="none" stroke="black" d="M180.29,-25.6679C190.389,-27.5169 200,-24.9609 200,-18 200,-13.5406 196.056,-10.8891 190.566,-10.0454"/>
<polygon fill="black" stroke="black" points="190.189,-6.55441 180.29,-10.3321 190.384,-13.5517 190.189,-6.55441"/>
<text text-anchor="middle" x="208.5" y="-14.3" font-family="Times,serif" font-size="14.00">b,a</text>
</g>
</g>
</svg>
