<?xml version="1.0" encoding="UTF-8" standalone="no"?>
<!DOCTYPE svg PUBLIC "-//W3C//DTD SVG 1.1//EN"
 "http://www.w3.org/Graphics/SVG/1.1/DTD/svg11.dtd">
<!-- Generated by graphviz version 2.36.0 (20140111.2315)
 -->
<!-- Title: %3 Pages: 1 -->
<svg width="108pt" height="316pt"
 viewBox="0.00 0.00 108.00 316.00" xmlns="http://www.w3.org/2000/svg" xmlns:xlink="http://www.w3.org/1999/xlink">
<g id="graph0" class="graph" transform="scale(1 1) rotate(0) translate(4 312)">
<title>%3</title>
<polygon fill="white" stroke="none" points="-4,4 -4,-312 104,-312 104,4 -4,4"/>
<!-- 0 -->
<g id="node1" class="node"><title>0</title>
<ellipse fill="lightblue" stroke="black" cx="50" cy="-290" rx="18" ry="18"/>
<text text-anchor="middle" x="50" y="-286.3" font-family="Times,serif" font-size="14.00">0</text>
</g>
<!-- 1 -->
<g id="node2" class="node"><title>1</title>
<ellipse fill="lightblue" stroke="black" cx="50" cy="-202" rx="18" ry="18"/>
<text text-anchor="middle" x="50" y="-198.3" font-family="Times,serif" font-size="14.00">1</text>
</g>
<!-- 0&#45;&gt;1 -->
<g id="edge1" class="edge"><title>0&#45;&gt;1</title>
<path fill="none" stroke="black" d="M50,-271.597C50,-259.746 50,-243.817 50,-230.292"/>
<polygon fill="black" stroke="black" points="53.5001,-230.084 50,-220.084 46.5001,-230.084 53.5001,-230.084"/>
<text text-anchor="middle" x="58.5" y="-242.3" font-family="Times,serif" font-size="14.00">b,a</text>
</g>
<!-- 3 -->
<g id="node4" class="node"><title>3</title>
<ellipse fill="lightblue" stroke="black" cx="18" cy="-114" rx="18" ry="18"/>
<text text-anchor="middle" x="18" y="-110.3" font-family="Times,serif" font-size="14.00">3</text>
</g>
<!-- 1&#45;&gt;3 -->
<g id="edge2" class="edge"><title>1&#45;&gt;3</title>
<path fill="none" stroke="black" d="M34.8581,-192.039C26.1094,-185.929 15.8934,-176.967 11,-166 7.56876,-158.31 7.61139,-149.373 9.0356,-141.147"/>
<polygon fill="black" stroke="black" points="12.4787,-141.799 11.421,-131.257 5.67387,-140.158 12.4787,-141.799"/>
<text text-anchor="middle" x="19.5" y="-154.3" font-family="Times,serif" font-size="14.00">b,a</text>
</g>
<!-- 2 -->
<g id="node3" class="node"><title>2</title>
<ellipse fill="green" stroke="black" cx="53" cy="-22" rx="17.5909" ry="18"/>
<ellipse fill="none" stroke="black" cx="53" cy="-22" rx="21.5" ry="22"/>
<text text-anchor="middle" x="53" y="-18.3" font-family="Times,serif" font-size="14.00">2</text>
</g>
<!-- 2&#45;&gt;1 -->
<g id="edge3" class="edge"><title>2&#45;&gt;1</title>
<path fill="none" stroke="black" d="M52.6443,-44.1069C52.0997,-76.4168 51.0596,-138.132 50.4589,-173.771"/>
<polygon fill="black" stroke="black" points="46.9568,-173.875 50.2877,-183.933 53.9558,-173.993 46.9568,-173.875"/>
<text text-anchor="middle" x="54.5" y="-110.3" font-family="Times,serif" font-size="14.00">a</text>
</g>
<!-- 2&#45;&gt;2 -->
<g id="edge4" class="edge"><title>2&#45;&gt;2</title>
<path fill="none" stroke="black" d="M73.0663,-30.7341C83.0736,-31.9426 92,-29.0312 92,-22 92,-17.4956 88.3366,-14.682 83.0725,-13.5592"/>
<polygon fill="black" stroke="black" points="83.1646,-10.0605 73.0663,-13.2659 82.9594,-17.0575 83.1646,-10.0605"/>
<text text-anchor="middle" x="95.5" y="-18.3" font-family="Times,serif" font-size="14.00">b</text>
</g>
<!-- 3&#45;&gt;1 -->
<g id="edge5" class="edge"><title>3&#45;&gt;1</title>
<path fill="none" stroke="black" d="M23.992,-131.103C28.5885,-143.457 35.0263,-160.758 40.3467,-175.057"/>
<polygon fill="black" stroke="black" points="37.2134,-176.672 43.981,-184.824 43.7739,-174.231 37.2134,-176.672"/>
<text text-anchor="middle" x="39.5" y="-154.3" font-family="Times,serif" font-size="14.00">b</text>
</g>
<!-- 3&#45;&gt;2 -->
<g id="edge6" class="edge"><title>3&#45;&gt;2</title>
<path fill="none" stroke="black" d="M24.2573,-96.9098C29.0501,-84.5856 35.7938,-67.2444 41.5447,-52.4565"/>
<polygon fill="black" stroke="black" points="44.9688,-53.3082 45.3313,-42.7196 38.4447,-50.7711 44.9688,-53.3082"/>
<text text-anchor="middle" x="40.5" y="-66.3" font-family="Times,serif" font-size="14.00">a</text>
</g>
</g>
</svg>
