<?xml version="1.0" encoding="UTF-8" standalone="no"?>
<!DOCTYPE svg PUBLIC "-//W3C//DTD SVG 1.1//EN"
 "http://www.w3.org/Graphics/SVG/1.1/DTD/svg11.dtd">
<!-- Generated by graphviz version 2.36.0 (20140111.2315)
 -->
<!-- Title: %3 Pages: 1 -->
<svg width="144pt" height="316pt"
 viewBox="0.00 0.00 144.00 316.00" xmlns="http://www.w3.org/2000/svg" xmlns:xlink="http://www.w3.org/1999/xlink">
<g id="graph0" class="graph" transform="scale(1 1) rotate(0) translate(4 312)">
<title>%3</title>
<polygon fill="white" stroke="none" points="-4,4 -4,-312 140,-312 140,4 -4,4"/>
<!-- 0 -->
<g id="node1" class="node"><title>0</title>
<ellipse fill="lightblue" stroke="black" cx="104" cy="-290" rx="18" ry="18"/>
<text text-anchor="middle" x="104" y="-286.3" font-family="Times,serif" font-size="14.00">0</text>
</g>
<!-- 1 -->
<g id="node2" class="node"><title>1</title>
<ellipse fill="green" stroke="black" cx="21" cy="-198" rx="17.5909" ry="18"/>
<ellipse fill="none" stroke="black" cx="21" cy="-198" rx="21.5" ry="22"/>
<text text-anchor="middle" x="21" y="-194.3" font-family="Times,serif" font-size="14.00">1</text>
</g>
<!-- 0&#45;&gt;1 -->
<g id="edge1" class="edge"><title>0&#45;&gt;1</title>
<path fill="none" stroke="black" d="M92.1081,-276.105C79.1251,-262.027 58.075,-239.202 42.2399,-222.031"/>
<polygon fill="black" stroke="black" points="44.7314,-219.57 35.379,-214.592 39.5855,-224.316 44.7314,-219.57"/>
<text text-anchor="middle" x="77.5" y="-242.3" font-family="Times,serif" font-size="14.00">b,c</text>
</g>
<!-- 3 -->
<g id="node4" class="node"><title>3</title>
<ellipse fill="lightblue" stroke="black" cx="68" cy="-106" rx="18" ry="18"/>
<text text-anchor="middle" x="68" y="-102.3" font-family="Times,serif" font-size="14.00">3</text>
</g>
<!-- 0&#45;&gt;3 -->
<g id="edge2" class="edge"><title>0&#45;&gt;3</title>
<path fill="none" stroke="black" d="M100.678,-272.204C94.409,-240.512 80.7911,-171.666 73.2644,-133.615"/>
<polygon fill="black" stroke="black" points="76.6882,-132.886 71.3142,-123.755 69.8213,-134.244 76.6882,-132.886"/>
<text text-anchor="middle" x="93.5" y="-194.3" font-family="Times,serif" font-size="14.00">a</text>
</g>
<!-- 1&#45;&gt;1 -->
<g id="edge3" class="edge"><title>1&#45;&gt;1</title>
<path fill="none" stroke="black" d="M41.0663,-206.734C51.0736,-207.943 60,-205.031 60,-198 60,-193.496 56.3366,-190.682 51.0725,-189.559"/>
<polygon fill="black" stroke="black" points="51.1646,-186.061 41.0663,-189.266 50.9594,-193.057 51.1646,-186.061"/>
<text text-anchor="middle" x="63.5" y="-194.3" font-family="Times,serif" font-size="14.00">b</text>
</g>
<!-- 1&#45;&gt;3 -->
<g id="edge4" class="edge"><title>1&#45;&gt;3</title>
<path fill="none" stroke="black" d="M24.7464,-176.3C27.2327,-165.613 31.1412,-152.624 37,-142 40.0134,-136.536 44.0125,-131.197 48.1335,-126.401"/>
<polygon fill="black" stroke="black" points="50.8281,-128.642 55.0314,-118.917 45.6807,-123.898 50.8281,-128.642"/>
<text text-anchor="middle" x="45" y="-146.3" font-family="Times,serif" font-size="14.00">c,a</text>
</g>
<!-- 2 -->
<g id="node3" class="node"><title>2</title>
<ellipse fill="lightblue" stroke="black" cx="68" cy="-18" rx="18" ry="18"/>
<text text-anchor="middle" x="68" y="-14.3" font-family="Times,serif" font-size="14.00">2</text>
</g>
<!-- 2&#45;&gt;0 -->
<g id="edge5" class="edge"><title>2&#45;&gt;0</title>
<path fill="none" stroke="black" d="M80.7653,-30.7563C93.5137,-43.4458 112.289,-64.9558 120,-88 140.104,-148.081 123.785,-223.672 112.495,-262.814"/>
<polygon fill="black" stroke="black" points="109.007,-262.26 109.479,-272.845 115.711,-264.276 109.007,-262.26"/>
<text text-anchor="middle" x="132.5" y="-146.3" font-family="Times,serif" font-size="14.00">c</text>
</g>
<!-- 2&#45;&gt;1 -->
<g id="edge6" class="edge"><title>2&#45;&gt;1</title>
<path fill="none" stroke="black" d="M56.4865,-32.1581C45.7999,-45.2853 30.5821,-66.5388 24,-88 16.2245,-113.352 16.06,-143.595 17.5053,-165.786"/>
<polygon fill="black" stroke="black" points="14.034,-166.286 18.3179,-175.976 21.0118,-165.73 14.034,-166.286"/>
<text text-anchor="middle" x="32.5" y="-102.3" font-family="Times,serif" font-size="14.00">b,a</text>
</g>
<!-- 3&#45;&gt;1 -->
<g id="edge7" class="edge"><title>3&#45;&gt;1</title>
<path fill="none" stroke="black" d="M64.8611,-123.726C62.5067,-134.009 58.6967,-147.231 53,-158 50.1139,-163.456 46.392,-168.863 42.5131,-173.835"/>
<polygon fill="black" stroke="black" points="39.6569,-171.796 35.9569,-181.723 45.0404,-176.27 39.6569,-171.796"/>
<text text-anchor="middle" x="62.5" y="-146.3" font-family="Times,serif" font-size="14.00">c</text>
</g>
<!-- 3&#45;&gt;2 -->
<g id="edge8" class="edge"><title>3&#45;&gt;2</title>
<path fill="none" stroke="black" d="M68,-87.5966C68,-75.7459 68,-59.8169 68,-46.2917"/>
<polygon fill="black" stroke="black" points="71.5001,-46.084 68,-36.084 64.5001,-46.084 71.5001,-46.084"/>
<text text-anchor="middle" x="71.5" y="-58.3" font-family="Times,serif" font-size="14.00">b</text>
</g>
<!-- 3&#45;&gt;3 -->
<g id="edge9" class="edge"><title>3&#45;&gt;3</title>
<path fill="none" stroke="black" d="M84.2903,-113.668C94.3892,-115.517 104,-112.961 104,-106 104,-101.541 100.056,-98.8891 94.5656,-98.0454"/>
<polygon fill="black" stroke="black" points="94.1887,-94.5544 84.2903,-98.3321 94.384,-101.552 94.1887,-94.5544"/>
<text text-anchor="middle" x="107.5" y="-102.3" font-family="Times,serif" font-size="14.00">a</text>
</g>
</g>
</svg>
