<?xml version="1.0" encoding="UTF-8" standalone="no"?>
<!DOCTYPE svg PUBLIC "-//W3C//DTD SVG 1.1//EN"
 "http://www.w3.org/Graphics/SVG/1.1/DTD/svg11.dtd">
<!-- Generated by graphviz version 2.36.0 (20140111.2315)
 -->
<!-- Title: %3 Pages: 1 -->
<svg width="165pt" height="228pt"
 viewBox="0.00 0.00 165.00 228.00" xmlns="http://www.w3.org/2000/svg" xmlns:xlink="http://www.w3.org/1999/xlink">
<g id="graph0" class="graph" transform="scale(1 1) rotate(0) translate(4 224)">
<title>%3</title>
<polygon fill="white" stroke="none" points="-4,4 -4,-224 161,-224 161,4 -4,4"/>
<!-- 0 -->
<g id="node1" class="node"><title>0</title>
<ellipse fill="green" stroke="black" cx="90" cy="-202" rx="18" ry="18"/>
<text text-anchor="middle" x="90" y="-198.3" font-family="Times,serif" font-size="14.00">0</text>
</g>
<!-- 1 -->
<g id="node2" class="node"><title>1</title>
<ellipse fill="lightblue" stroke="black" cx="52" cy="-114" rx="18" ry="18"/>
<text text-anchor="middle" x="52" y="-110.3" font-family="Times,serif" font-size="14.00">1</text>
</g>
<!-- 0&#45;&gt;1 -->
<g id="edge1" class="edge"><title>0&#45;&gt;1</title>
<path fill="none" stroke="black" d="M83.0302,-185.226C77.4594,-172.619 69.5445,-154.706 63.1029,-140.128"/>
<polygon fill="black" stroke="black" points="66.1687,-138.406 58.9256,-130.674 59.7659,-141.235 66.1687,-138.406"/>
<text text-anchor="middle" x="77.5" y="-154.3" font-family="Times,serif" font-size="14.00">b</text>
</g>
<!-- 2 -->
<g id="node3" class="node"><title>2</title>
<ellipse fill="lightblue" stroke="black" cx="110" cy="-22" rx="17.5909" ry="18"/>
<ellipse fill="none" stroke="black" cx="110" cy="-22" rx="21.5" ry="22"/>
<text text-anchor="middle" x="110" y="-18.3" font-family="Times,serif" font-size="14.00">2</text>
</g>
<!-- 0&#45;&gt;2 -->
<g id="edge2" class="edge"><title>0&#45;&gt;2</title>
<path fill="none" stroke="black" d="M91.9177,-183.933C95.2779,-154.026 102.275,-91.7546 106.512,-54.0445"/>
<polygon fill="black" stroke="black" points="109.99,-54.4352 107.628,-44.1069 103.034,-53.6536 109.99,-54.4352"/>
<text text-anchor="middle" x="104.5" y="-110.3" font-family="Times,serif" font-size="14.00">c</text>
</g>
<!-- 3 -->
<g id="node4" class="node"><title>3</title>
<ellipse fill="lightblue" stroke="black" cx="18" cy="-22" rx="18" ry="18"/>
<text text-anchor="middle" x="18" y="-18.3" font-family="Times,serif" font-size="14.00">3</text>
</g>
<!-- 0&#45;&gt;3 -->
<g id="edge3" class="edge"><title>0&#45;&gt;3</title>
<path fill="none" stroke="black" d="M75.1104,-191.64C58.0194,-179.982 30.7137,-158.353 18,-132 5.57776,-106.251 7.81709,-72.9328 11.7396,-49.9461"/>
<polygon fill="black" stroke="black" points="15.2251,-50.3547 13.6783,-39.8734 8.35124,-49.0316 15.2251,-50.3547"/>
<text text-anchor="middle" x="21.5" y="-110.3" font-family="Times,serif" font-size="14.00">a</text>
</g>
<!-- 1&#45;&gt;2 -->
<g id="edge4" class="edge"><title>1&#45;&gt;2</title>
<path fill="none" stroke="black" d="M61.3187,-98.5399C69.8566,-85.2915 82.7037,-65.3563 93.0567,-49.2913"/>
<polygon fill="black" stroke="black" points="96.0335,-51.1332 98.5086,-40.8315 90.1495,-47.3413 96.0335,-51.1332"/>
<text text-anchor="middle" x="87.5" y="-66.3" font-family="Times,serif" font-size="14.00">a</text>
</g>
<!-- 1&#45;&gt;3 -->
<g id="edge5" class="edge"><title>1&#45;&gt;3</title>
<path fill="none" stroke="black" d="M45.9215,-96.9098C40.8762,-83.5546 33.6053,-64.308 27.7479,-48.8033"/>
<polygon fill="black" stroke="black" points="30.9488,-47.3721 24.1405,-39.2543 24.4004,-49.846 30.9488,-47.3721"/>
<text text-anchor="middle" x="46.5" y="-66.3" font-family="Times,serif" font-size="14.00">b,c</text>
</g>
<!-- 2&#45;&gt;0 -->
<g id="edge6" class="edge"><title>2&#45;&gt;0</title>
<path fill="none" stroke="black" d="M115.02,-43.5248C116.248,-49.4493 117.386,-55.9487 118,-62 122.689,-108.198 121.548,-121.585 108,-166 106.877,-169.68 105.378,-173.435 103.721,-177.053"/>
<polygon fill="black" stroke="black" points="100.502,-175.664 99.121,-186.168 106.751,-178.818 100.502,-175.664"/>
<text text-anchor="middle" x="128.5" y="-110.3" font-family="Times,serif" font-size="14.00">b,a</text>
</g>
<!-- 2&#45;&gt;2 -->
<g id="edge7" class="edge"><title>2&#45;&gt;2</title>
<path fill="none" stroke="black" d="M130.066,-30.7341C140.074,-31.9426 149,-29.0312 149,-22 149,-17.4956 145.337,-14.682 140.072,-13.5592"/>
<polygon fill="black" stroke="black" points="140.165,-10.0605 130.066,-13.2659 139.959,-17.0575 140.165,-10.0605"/>
<text text-anchor="middle" x="152.5" y="-18.3" font-family="Times,serif" font-size="14.00">c</text>
</g>
<!-- 3&#45;&gt;1 -->
<g id="edge8" class="edge"><title>3&#45;&gt;1</title>
<path fill="none" stroke="black" d="M16.1028,-39.995C15.5215,-51.199 16.0594,-65.9696 21,-78 23.41,-83.8684 27.2379,-89.4159 31.3933,-94.2913"/>
<polygon fill="black" stroke="black" points="29.0861,-96.9452 38.5032,-101.8 34.169,-92.1322 29.0861,-96.9452"/>
<text text-anchor="middle" x="24.5" y="-66.3" font-family="Times,serif" font-size="14.00">b</text>
</g>
<!-- 3&#45;&gt;3 -->
<g id="edge9" class="edge"><title>3&#45;&gt;3</title>
<path fill="none" stroke="black" d="M34.2903,-30.365C44.3892,-32.3821 54,-29.5938 54,-22 54,-17.1353 50.0557,-14.2427 44.5656,-13.3222"/>
<polygon fill="black" stroke="black" points="44.1791,-9.83225 34.2903,-13.635 44.3922,-16.829 44.1791,-9.83225"/>
<text text-anchor="middle" x="62" y="-18.3" font-family="Times,serif" font-size="14.00">c,a</text>
</g>
</g>
</svg>
