<?xml version="1.0" encoding="UTF-8" standalone="no"?>
<!DOCTYPE svg PUBLIC "-//W3C//DTD SVG 1.1//EN"
 "http://www.w3.org/Graphics/SVG/1.1/DTD/svg11.dtd">
<!-- Generated by graphviz version 2.36.0 (20140111.2315)
 -->
<!-- Title: %3 Pages: 1 -->
<svg width="180pt" height="316pt"
 viewBox="0.00 0.00 179.74 316.00" xmlns="http://www.w3.org/2000/svg" xmlns:xlink="http://www.w3.org/1999/xlink">
<g id="graph0" class="graph" transform="scale(1 1) rotate(0) translate(4 312)">
<title>%3</title>
<polygon fill="white" stroke="none" points="-4,4 -4,-312 175.74,-312 175.74,4 -4,4"/>
<!-- 0 -->
<g id="node1" class="node"><title>0</title>
<ellipse fill="lightblue" stroke="black" cx="116.026" cy="-290" rx="18" ry="18"/>
<text text-anchor="middle" x="116.026" y="-286.3" font-family="Times,serif" font-size="14.00">0</text>
</g>
<!-- 1 -->
<g id="node2" class="node"><title>1</title>
<ellipse fill="green" stroke="black" cx="116.026" cy="-202" rx="18" ry="18"/>
<text text-anchor="middle" x="116.026" y="-198.3" font-family="Times,serif" font-size="14.00">1</text>
</g>
<!-- 0&#45;&gt;1 -->
<g id="edge1" class="edge"><title>0&#45;&gt;1</title>
<path fill="none" stroke="black" d="M116.026,-271.597C116.026,-259.746 116.026,-243.817 116.026,-230.292"/>
<polygon fill="black" stroke="black" points="119.526,-230.084 116.026,-220.084 112.526,-230.084 119.526,-230.084"/>
<text text-anchor="middle" x="119.526" y="-242.3" font-family="Times,serif" font-size="14.00">a</text>
</g>
<!-- 3 -->
<g id="node4" class="node"><title>3</title>
<ellipse fill="lightblue" stroke="black" cx="56.0258" cy="-18" rx="18" ry="18"/>
<text text-anchor="middle" x="56.0258" y="-14.3" font-family="Times,serif" font-size="14.00">3</text>
</g>
<!-- 0&#45;&gt;3 -->
<g id="edge2" class="edge"><title>0&#45;&gt;3</title>
<path fill="none" stroke="black" d="M98.9409,-283.699C74.1154,-274.964 28.9713,-254.938 10.0258,-220 -7.7128,-187.287 -0.938013,-135.498 32.0258,-54 33.8146,-49.5775 36.2339,-45.153 38.8503,-41.0106"/>
<polygon fill="black" stroke="black" points="41.9229,-42.7205 44.7246,-32.5028 36.1625,-38.7432 41.9229,-42.7205"/>
<text text-anchor="middle" x="6.52581" y="-154.3" font-family="Times,serif" font-size="14.00">b</text>
</g>
<!-- 1&#45;&gt;1 -->
<g id="edge3" class="edge"><title>1&#45;&gt;1</title>
<path fill="none" stroke="black" d="M132.316,-209.668C142.415,-211.517 152.026,-208.961 152.026,-202 152.026,-197.541 148.082,-194.889 142.591,-194.045"/>
<polygon fill="black" stroke="black" points="142.215,-190.554 132.316,-194.332 142.41,-197.552 142.215,-190.554"/>
<text text-anchor="middle" x="155.526" y="-198.3" font-family="Times,serif" font-size="14.00">b</text>
</g>
<!-- 4 -->
<g id="node5" class="node"><title>4</title>
<ellipse fill="lightblue" stroke="black" cx="65.0258" cy="-110" rx="17.5909" ry="18"/>
<ellipse fill="none" stroke="black" cx="65.0258" cy="-110" rx="21.5" ry="22"/>
<text text-anchor="middle" x="65.0258" y="-106.3" font-family="Times,serif" font-size="14.00">4</text>
</g>
<!-- 1&#45;&gt;4 -->
<g id="edge4" class="edge"><title>1&#45;&gt;4</title>
<path fill="none" stroke="black" d="M107.374,-185.733C100.01,-172.737 89.2517,-153.752 80.4218,-138.169"/>
<polygon fill="black" stroke="black" points="83.4611,-136.434 75.4859,-129.459 77.371,-139.885 83.4611,-136.434"/>
<text text-anchor="middle" x="98.5258" y="-154.3" font-family="Times,serif" font-size="14.00">a</text>
</g>
<!-- 2 -->
<g id="node3" class="node"><title>2</title>
<ellipse fill="lightblue" stroke="black" cx="37.0258" cy="-202" rx="18" ry="18"/>
<text text-anchor="middle" x="37.0258" y="-198.3" font-family="Times,serif" font-size="14.00">2</text>
</g>
<!-- 2&#45;&gt;2 -->
<g id="edge5" class="edge"><title>2&#45;&gt;2</title>
<path fill="none" stroke="black" d="M53.3161,-209.668C63.415,-211.517 73.0258,-208.961 73.0258,-202 73.0258,-197.541 69.0815,-194.889 63.5914,-194.045"/>
<polygon fill="black" stroke="black" points="63.2145,-190.554 53.3161,-194.332 63.4099,-197.552 63.2145,-190.554"/>
<text text-anchor="middle" x="76.5258" y="-198.3" font-family="Times,serif" font-size="14.00">a</text>
</g>
<!-- 2&#45;&gt;4 -->
<g id="edge6" class="edge"><title>2&#45;&gt;4</title>
<path fill="none" stroke="black" d="M42.1614,-184.493C45.9584,-172.288 51.2332,-155.333 55.7596,-140.784"/>
<polygon fill="black" stroke="black" points="59.1177,-141.772 58.7464,-131.184 52.4337,-139.693 59.1177,-141.772"/>
<text text-anchor="middle" x="55.5258" y="-154.3" font-family="Times,serif" font-size="14.00">b</text>
</g>
<!-- 3&#45;&gt;0 -->
<g id="edge7" class="edge"><title>3&#45;&gt;0</title>
<path fill="none" stroke="black" d="M68.3137,-31.2532C93.0288,-56.8748 148.091,-119.136 168.026,-184 172.726,-199.294 173.103,-204.827 168.026,-220 161.64,-239.083 147.667,-257.115 135.812,-269.956"/>
<polygon fill="black" stroke="black" points="133.208,-267.614 128.791,-277.244 138.25,-272.47 133.208,-267.614"/>
<text text-anchor="middle" x="163.526" y="-154.3" font-family="Times,serif" font-size="14.00">b</text>
</g>
<!-- 3&#45;&gt;4 -->
<g id="edge8" class="edge"><title>3&#45;&gt;4</title>
<path fill="none" stroke="black" d="M57.7226,-35.968C58.8904,-47.6459 60.4768,-63.5097 61.8727,-77.4688"/>
<polygon fill="black" stroke="black" points="58.4152,-78.0692 62.8929,-87.6713 65.3804,-77.3726 58.4152,-78.0692"/>
<text text-anchor="middle" x="64.5258" y="-58.3" font-family="Times,serif" font-size="14.00">a</text>
</g>
<!-- 4&#45;&gt;3 -->
<g id="edge9" class="edge"><title>4&#45;&gt;3</title>
<path fill="none" stroke="black" d="M50.7604,-93.104C45.705,-86.4507 40.6286,-78.3321 38.0258,-70 35.1781,-60.8836 37.4352,-50.96 41.19,-42.31"/>
<polygon fill="black" stroke="black" points="44.4159,-43.69 45.8735,-33.1958 38.1898,-40.4905 44.4159,-43.69"/>
<text text-anchor="middle" x="46.5258" y="-58.3" font-family="Times,serif" font-size="14.00">b,a</text>
</g>
</g>
</svg>
