<?xml version="1.0" encoding="UTF-8" standalone="no"?>
<!DOCTYPE svg PUBLIC "-//W3C//DTD SVG 1.1//EN"
 "http://www.w3.org/Graphics/SVG/1.1/DTD/svg11.dtd">
<!-- Generated by graphviz version 2.36.0 (20140111.2315)
 -->
<!-- Title: %3 Pages: 1 -->
<svg width="152pt" height="228pt"
 viewBox="0.00 0.00 152.00 228.00" xmlns="http://www.w3.org/2000/svg" xmlns:xlink="http://www.w3.org/1999/xlink">
<g id="graph0" class="graph" transform="scale(1 1) rotate(0) translate(4 224)">
<title>%3</title>
<polygon fill="white" stroke="none" points="-4,4 -4,-224 148,-224 148,4 -4,4"/>
<!-- 0 -->
<g id="node1" class="node"><title>0</title>
<ellipse fill="lightblue" stroke="black" cx="71" cy="-202" rx="18" ry="18"/>
<text text-anchor="middle" x="71" y="-198.3" font-family="Times,serif" font-size="14.00">0</text>
</g>
<!-- 2 -->
<g id="node3" class="node"><title>2</title>
<ellipse fill="lightblue" stroke="black" cx="22" cy="-114" rx="18" ry="18"/>
<text text-anchor="middle" x="22" y="-110.3" font-family="Times,serif" font-size="14.00">2</text>
</g>
<!-- 0&#45;&gt;2 -->
<g id="edge1" class="edge"><title>0&#45;&gt;2</title>
<path fill="none" stroke="black" d="M62.4649,-186.02C55.0624,-173.028 44.216,-153.991 35.6156,-138.897"/>
<polygon fill="black" stroke="black" points="38.5933,-137.053 30.6017,-130.097 32.5113,-140.518 38.5933,-137.053"/>
<text text-anchor="middle" x="53.5" y="-154.3" font-family="Times,serif" font-size="14.00">b</text>
</g>
<!-- 3 -->
<g id="node4" class="node"><title>3</title>
<ellipse fill="green" stroke="black" cx="101" cy="-114" rx="18" ry="18"/>
<text text-anchor="middle" x="101" y="-110.3" font-family="Times,serif" font-size="14.00">3</text>
</g>
<!-- 0&#45;&gt;3 -->
<g id="edge2" class="edge"><title>0&#45;&gt;3</title>
<path fill="none" stroke="black" d="M69.5293,-183.946C69.2502,-173.782 69.9607,-160.8 74,-150 75.9332,-144.831 78.9106,-139.805 82.193,-135.249"/>
<polygon fill="black" stroke="black" points="85.1602,-137.143 88.6868,-127.152 79.6997,-132.763 85.1602,-137.143"/>
<text text-anchor="middle" x="77.5" y="-154.3" font-family="Times,serif" font-size="14.00">a</text>
</g>
<!-- 1 -->
<g id="node2" class="node"><title>1</title>
<ellipse fill="lightblue" stroke="black" cx="22" cy="-22" rx="17.5909" ry="18"/>
<ellipse fill="none" stroke="black" cx="22" cy="-22" rx="21.5" ry="22"/>
<text text-anchor="middle" x="22" y="-18.3" font-family="Times,serif" font-size="14.00">1</text>
</g>
<!-- 1&#45;&gt;1 -->
<g id="edge3" class="edge"><title>1&#45;&gt;1</title>
<path fill="none" stroke="black" d="M42.0663,-30.7341C52.0736,-31.9426 61,-29.0312 61,-22 61,-17.4956 57.3366,-14.682 52.0725,-13.5592"/>
<polygon fill="black" stroke="black" points="52.1646,-10.0605 42.0663,-13.2659 51.9594,-17.0575 52.1646,-10.0605"/>
<text text-anchor="middle" x="69.5" y="-18.3" font-family="Times,serif" font-size="14.00">b,a</text>
</g>
<!-- 2&#45;&gt;1 -->
<g id="edge4" class="edge"><title>2&#45;&gt;1</title>
<path fill="none" stroke="black" d="M22,-95.6471C22,-83.9242 22,-68.1144 22,-54.2369"/>
<polygon fill="black" stroke="black" points="25.5001,-54.101 22,-44.101 18.5001,-54.101 25.5001,-54.101"/>
<text text-anchor="middle" x="25.5" y="-66.3" font-family="Times,serif" font-size="14.00">a</text>
</g>
<!-- 2&#45;&gt;2 -->
<g id="edge5" class="edge"><title>2&#45;&gt;2</title>
<path fill="none" stroke="black" d="M38.2903,-121.668C48.3892,-123.517 58,-120.961 58,-114 58,-109.541 54.0557,-106.889 48.5656,-106.045"/>
<polygon fill="black" stroke="black" points="48.1887,-102.554 38.2903,-106.332 48.384,-109.552 48.1887,-102.554"/>
<text text-anchor="middle" x="61.5" y="-110.3" font-family="Times,serif" font-size="14.00">b</text>
</g>
<!-- 3&#45;&gt;0 -->
<g id="edge6" class="edge"><title>3&#45;&gt;0</title>
<path fill="none" stroke="black" d="M95.3825,-131.103C91.0733,-143.457 85.0378,-160.758 80.0499,-175.057"/>
<polygon fill="black" stroke="black" points="76.6319,-174.229 76.6428,-184.824 83.2413,-176.535 76.6319,-174.229"/>
<text text-anchor="middle" x="91.5" y="-154.3" font-family="Times,serif" font-size="14.00">a</text>
</g>
<!-- 3&#45;&gt;3 -->
<g id="edge7" class="edge"><title>3&#45;&gt;3</title>
<path fill="none" stroke="black" d="M117.29,-121.668C127.389,-123.517 137,-120.961 137,-114 137,-109.541 133.056,-106.889 127.566,-106.045"/>
<polygon fill="black" stroke="black" points="127.189,-102.554 117.29,-106.332 127.384,-109.552 127.189,-102.554"/>
<text text-anchor="middle" x="140.5" y="-110.3" font-family="Times,serif" font-size="14.00">b</text>
</g>
</g>
</svg>
