<?xml version="1.0" encoding="UTF-8" standalone="no"?>
<!DOCTYPE svg PUBLIC "-//W3C//DTD SVG 1.1//EN"
 "http://www.w3.org/Graphics/SVG/1.1/DTD/svg11.dtd">
<!-- Generated by graphviz version 2.36.0 (20140111.2315)
 -->
<!-- Title: %3 Pages: 1 -->
<svg width="206pt" height="316pt"
 viewBox="0.00 0.00 206.04 316.00" xmlns="http://www.w3.org/2000/svg" xmlns:xlink="http://www.w3.org/1999/xlink">
<g id="graph0" class="graph" transform="scale(1 1) rotate(0) translate(4 312)">
<title>%3</title>
<polygon fill="white" stroke="none" points="-4,4 -4,-312 202.035,-312 202.035,4 -4,4"/>
<!-- 0 -->
<g id="node1" class="node"><title>0</title>
<ellipse fill="lightblue" stroke="black" cx="49.0354" cy="-198" rx="17.5909" ry="18"/>
<ellipse fill="none" stroke="black" cx="49.0354" cy="-198" rx="21.5" ry="22"/>
<text text-anchor="middle" x="49.0354" y="-194.3" font-family="Times,serif" font-size="14.00">0</text>
</g>
<!-- 2 -->
<g id="node3" class="node"><title>2</title>
<ellipse fill="green" stroke="black" cx="95.0354" cy="-106" rx="18" ry="18"/>
<text text-anchor="middle" x="95.0354" y="-102.3" font-family="Times,serif" font-size="14.00">2</text>
</g>
<!-- 0&#45;&gt;2 -->
<g id="edge1" class="edge"><title>0&#45;&gt;2</title>
<path fill="none" stroke="black" d="M58.7908,-177.913C65.7137,-164.369 75.065,-146.072 82.535,-131.457"/>
<polygon fill="black" stroke="black" points="85.6931,-132.969 87.1277,-122.472 79.46,-129.783 85.6931,-132.969"/>
<text text-anchor="middle" x="79.5354" y="-146.3" font-family="Times,serif" font-size="14.00">a</text>
</g>
<!-- 4 -->
<g id="node5" class="node"><title>4</title>
<ellipse fill="lightblue" stroke="black" cx="48.0354" cy="-18" rx="18" ry="18"/>
<text text-anchor="middle" x="48.0354" y="-14.3" font-family="Times,serif" font-size="14.00">4</text>
</g>
<!-- 0&#45;&gt;4 -->
<g id="edge2" class="edge"><title>0&#45;&gt;4</title>
<path fill="none" stroke="black" d="M34.5225,-181.402C22.8666,-167.554 7.70081,-146.133 3.03539,-124 -3.52711,-92.8667 1.07896,-80.9226 18.0354,-54 21.1809,-49.0057 25.0038,-43.9843 28.8529,-39.3657"/>
<polygon fill="black" stroke="black" points="31.7149,-41.41 35.6686,-31.5805 26.4481,-36.7991 31.7149,-41.41"/>
<text text-anchor="middle" x="6.53539" y="-102.3" font-family="Times,serif" font-size="14.00">b</text>
</g>
<!-- 1 -->
<g id="node2" class="node"><title>1</title>
<ellipse fill="lightblue" stroke="black" cx="155.035" cy="-18" rx="18" ry="18"/>
<text text-anchor="middle" x="155.035" y="-14.3" font-family="Times,serif" font-size="14.00">1</text>
</g>
<!-- 1&#45;&gt;1 -->
<g id="edge3" class="edge"><title>1&#45;&gt;1</title>
<path fill="none" stroke="black" d="M171.326,-25.6679C181.425,-27.5169 191.035,-24.9609 191.035,-18 191.035,-13.5406 187.091,-10.8891 181.601,-10.0454"/>
<polygon fill="black" stroke="black" points="181.224,-6.55441 171.326,-10.3321 181.419,-13.5517 181.224,-6.55441"/>
<text text-anchor="middle" x="194.535" y="-14.3" font-family="Times,serif" font-size="14.00">a</text>
</g>
<!-- 1&#45;&gt;2 -->
<g id="edge4" class="edge"><title>1&#45;&gt;2</title>
<path fill="none" stroke="black" d="M149.901,-35.5271C146.187,-45.9808 140.51,-59.46 133.035,-70 128.47,-76.4382 122.552,-82.5859 116.753,-87.882"/>
<polygon fill="black" stroke="black" points="114.34,-85.3411 109.054,-94.5235 118.912,-90.6412 114.34,-85.3411"/>
<text text-anchor="middle" x="145.535" y="-58.3" font-family="Times,serif" font-size="14.00">b</text>
</g>
<!-- 2&#45;&gt;1 -->
<g id="edge5" class="edge"><title>2&#45;&gt;1</title>
<path fill="none" stroke="black" d="M104.248,-90.0551C110.698,-79.773 119.63,-65.8812 128.035,-54 131.168,-49.5713 134.63,-44.9199 137.999,-40.5063"/>
<polygon fill="black" stroke="black" points="140.896,-42.4815 144.255,-32.4332 135.363,-38.1937 140.896,-42.4815"/>
<text text-anchor="middle" x="131.535" y="-58.3" font-family="Times,serif" font-size="14.00">b</text>
</g>
<!-- 2&#45;&gt;4 -->
<g id="edge6" class="edge"><title>2&#45;&gt;4</title>
<path fill="none" stroke="black" d="M89.1349,-88.959C85.1156,-78.6992 79.3856,-65.2533 73.0354,-54 70.5514,-49.5981 67.6332,-45.0771 64.6841,-40.8077"/>
<polygon fill="black" stroke="black" points="67.3989,-38.5881 58.7164,-32.5165 61.7175,-42.6774 67.3989,-38.5881"/>
<text text-anchor="middle" x="83.5354" y="-58.3" font-family="Times,serif" font-size="14.00">a</text>
</g>
<!-- 3 -->
<g id="node4" class="node"><title>3</title>
<ellipse fill="lightblue" stroke="black" cx="139.035" cy="-290" rx="18" ry="18"/>
<text text-anchor="middle" x="139.035" y="-286.3" font-family="Times,serif" font-size="14.00">3</text>
</g>
<!-- 3&#45;&gt;0 -->
<g id="edge7" class="edge"><title>3&#45;&gt;0</title>
<path fill="none" stroke="black" d="M126.521,-276.486C112.364,-262.329 89.0217,-238.986 71.6505,-221.615"/>
<polygon fill="black" stroke="black" points="73.6897,-218.705 64.1437,-214.108 68.74,-223.654 73.6897,-218.705"/>
<text text-anchor="middle" x="105.535" y="-242.3" font-family="Times,serif" font-size="14.00">a</text>
</g>
<!-- 3&#45;&gt;1 -->
<g id="edge8" class="edge"><title>3&#45;&gt;1</title>
<path fill="none" stroke="black" d="M140.267,-271.971C142.9,-235.143 149.151,-145.335 153.035,-70 153.437,-62.2127 153.799,-53.7528 154.101,-46.0029"/>
<polygon fill="black" stroke="black" points="157.598,-46.1282 154.473,-36.0048 150.603,-45.8674 157.598,-46.1282"/>
<text text-anchor="middle" x="151.535" y="-146.3" font-family="Times,serif" font-size="14.00">b</text>
</g>
<!-- 4&#45;&gt;0 -->
<g id="edge9" class="edge"><title>4&#45;&gt;0</title>
<path fill="none" stroke="black" d="M48.1315,-36.1141C48.2989,-65.9087 48.6462,-127.727 48.8582,-165.464"/>
<polygon fill="black" stroke="black" points="45.3605,-165.902 48.9167,-175.882 52.3604,-165.863 45.3605,-165.902"/>
<text text-anchor="middle" x="51.5354" y="-102.3" font-family="Times,serif" font-size="14.00">a</text>
</g>
<!-- 4&#45;&gt;2 -->
<g id="edge10" class="edge"><title>4&#45;&gt;2</title>
<path fill="none" stroke="black" d="M53.2115,-35.6167C56.7237,-45.8588 61.8477,-59.0768 68.0354,-70 70.7092,-74.7201 73.965,-79.502 77.2775,-83.9519"/>
<polygon fill="black" stroke="black" points="74.657,-86.2824 83.5793,-91.9959 80.1674,-81.9654 74.657,-86.2824"/>
<text text-anchor="middle" x="71.5354" y="-58.3" font-family="Times,serif" font-size="14.00">b</text>
</g>
</g>
</svg>
