<?xml version="1.0" encoding="UTF-8" standalone="no"?>
<!DOCTYPE svg PUBLIC "-//W3C//DTD SVG 1.1//EN"
 "http://www.w3.org/Graphics/SVG/1.1/DTD/svg11.dtd">
<!-- Generated by graphviz version 2.36.0 (20140111.2315)
 -->
<!-- Title: %3 Pages: 1 -->
<svg width="169pt" height="316pt"
 viewBox="0.00 0.00 169.00 316.00" xmlns="http://www.w3.org/2000/svg" xmlns:xlink="http://www.w3.org/1999/xlink">
<g id="graph0" class="graph" transform="scale(1 1) rotate(0) translate(4 312)">
<title>%3</title>
<polygon fill="white" stroke="none" points="-4,4 -4,-312 165,-312 165,4 -4,4"/>
<!-- 0 -->
<g id="node1" class="node"><title>0</title>
<ellipse fill="lightblue" stroke="black" cx="110" cy="-202" rx="18" ry="18"/>
<text text-anchor="middle" x="110" y="-198.3" font-family="Times,serif" font-size="14.00">0</text>
</g>
<!-- 1 -->
<g id="node2" class="node"><title>1</title>
<ellipse fill="lightblue" stroke="black" cx="72" cy="-114" rx="18" ry="18"/>
<text text-anchor="middle" x="72" y="-110.3" font-family="Times,serif" font-size="14.00">1</text>
</g>
<!-- 0&#45;&gt;1 -->
<g id="edge1" class="edge"><title>0&#45;&gt;1</title>
<path fill="none" stroke="black" d="M93.9562,-193.367C83.6085,-187.482 71.0008,-178.27 65,-166 61.2035,-158.238 61.2733,-149.064 62.8305,-140.652"/>
<polygon fill="black" stroke="black" points="66.2339,-141.469 65.3076,-130.915 59.45,-139.743 66.2339,-141.469"/>
<text text-anchor="middle" x="73.5" y="-154.3" font-family="Times,serif" font-size="14.00">b,a</text>
</g>
<!-- 1&#45;&gt;0 -->
<g id="edge2" class="edge"><title>1&#45;&gt;0</title>
<path fill="none" stroke="black" d="M78.9256,-130.674C84.484,-143.253 92.3965,-161.161 98.8459,-175.757"/>
<polygon fill="black" stroke="black" points="95.7871,-177.494 103.03,-185.226 102.19,-174.665 95.7871,-177.494"/>
<text text-anchor="middle" x="97.5" y="-154.3" font-family="Times,serif" font-size="14.00">a</text>
</g>
<!-- 3 -->
<g id="node4" class="node"><title>3</title>
<ellipse fill="lightblue" stroke="black" cx="107" cy="-22" rx="17.5909" ry="18"/>
<ellipse fill="none" stroke="black" cx="107" cy="-22" rx="21.5" ry="22"/>
<text text-anchor="middle" x="107" y="-18.3" font-family="Times,serif" font-size="14.00">3</text>
</g>
<!-- 1&#45;&gt;3 -->
<g id="edge3" class="edge"><title>1&#45;&gt;3</title>
<path fill="none" stroke="black" d="M78.2573,-96.9098C83.0501,-84.5856 89.7938,-67.2444 95.5447,-52.4565"/>
<polygon fill="black" stroke="black" points="98.9688,-53.3082 99.3313,-42.7196 92.4447,-50.7711 98.9688,-53.3082"/>
<text text-anchor="middle" x="94.5" y="-66.3" font-family="Times,serif" font-size="14.00">b</text>
</g>
<!-- 2 -->
<g id="node3" class="node"><title>2</title>
<ellipse fill="lightblue" stroke="black" cx="18" cy="-114" rx="18" ry="18"/>
<text text-anchor="middle" x="18" y="-110.3" font-family="Times,serif" font-size="14.00">2</text>
</g>
<!-- 2&#45;&gt;3 -->
<g id="edge4" class="edge"><title>2&#45;&gt;3</title>
<path fill="none" stroke="black" d="M29.7035,-99.7416C39.0507,-89.2907 52.593,-74.4539 65,-62 70.9255,-56.0521 77.5074,-49.7884 83.6695,-44.0632"/>
<polygon fill="black" stroke="black" points="86.1795,-46.5099 91.1691,-37.1635 81.44,-41.3584 86.1795,-46.5099"/>
<text text-anchor="middle" x="73.5" y="-66.3" font-family="Times,serif" font-size="14.00">b,a</text>
</g>
<!-- 3&#45;&gt;0 -->
<g id="edge5" class="edge"><title>3&#45;&gt;0</title>
<path fill="none" stroke="black" d="M107.356,-44.1069C107.9,-76.4168 108.94,-138.132 109.541,-173.771"/>
<polygon fill="black" stroke="black" points="106.044,-173.993 109.712,-183.933 113.043,-173.875 106.044,-173.993"/>
<text text-anchor="middle" x="111.5" y="-110.3" font-family="Times,serif" font-size="14.00">a</text>
</g>
<!-- 3&#45;&gt;3 -->
<g id="edge6" class="edge"><title>3&#45;&gt;3</title>
<path fill="none" stroke="black" d="M127.066,-30.7341C137.074,-31.9426 146,-29.0312 146,-22 146,-17.4956 142.337,-14.682 137.072,-13.5592"/>
<polygon fill="black" stroke="black" points="137.165,-10.0605 127.066,-13.2659 136.959,-17.0575 137.165,-10.0605"/>
<text text-anchor="middle" x="149.5" y="-18.3" font-family="Times,serif" font-size="14.00">b</text>
</g>
<!-- 4 -->
<g id="node5" class="node"><title>4</title>
<ellipse fill="green" stroke="black" cx="143" cy="-290" rx="18" ry="18"/>
<text text-anchor="middle" x="143" y="-286.3" font-family="Times,serif" font-size="14.00">4</text>
</g>
<!-- 4&#45;&gt;0 -->
<g id="edge7" class="edge"><title>4&#45;&gt;0</title>
<path fill="none" stroke="black" d="M136.793,-272.824C131.999,-260.332 125.276,-242.81 119.763,-228.444"/>
<polygon fill="black" stroke="black" points="123.029,-227.186 116.179,-219.103 116.494,-229.694 123.029,-227.186"/>
<text text-anchor="middle" x="132.5" y="-242.3" font-family="Times,serif" font-size="14.00">a</text>
</g>
<!-- 4&#45;&gt;3 -->
<g id="edge8" class="edge"><title>4&#45;&gt;3</title>
<path fill="none" stroke="black" d="M142.974,-271.928C142.565,-233.746 139.586,-138.773 121,-62 120.221,-58.7837 119.271,-55.4641 118.234,-52.1821"/>
<polygon fill="black" stroke="black" points="121.503,-50.9217 114.958,-42.5899 114.878,-53.1844 121.503,-50.9217"/>
<text text-anchor="middle" x="140.5" y="-154.3" font-family="Times,serif" font-size="14.00">b</text>
</g>
</g>
</svg>
