<?xml version="1.0" encoding="UTF-8" standalone="no"?>
<!DOCTYPE svg PUBLIC "-//W3C//DTD SVG 1.1//EN"
 "http://www.w3.org/Graphics/SVG/1.1/DTD/svg11.dtd">
<!-- Generated by graphviz version 2.36.0 (20140111.2315)
 -->
<!-- Title: %3 Pages: 1 -->
<svg width="148pt" height="228pt"
 viewBox="0.00 0.00 148.00 228.00" xmlns="http://www.w3.org/2000/svg" xmlns:xlink="http://www.w3.org/1999/xlink">
<g id="graph0" class="graph" transform="scale(1 1) rotate(0) translate(4 224)">
<title>%3</title>
<polygon fill="white" stroke="none" points="-4,4 -4,-224 144,-224 144,4 -4,4"/>
<!-- 0 -->
<g id="node1" class="node"><title>0</title>
<ellipse fill="lightblue" stroke="black" cx="72" cy="-202" rx="18" ry="18"/>
<text text-anchor="middle" x="72" y="-198.3" font-family="Times,serif" font-size="14.00">0</text>
</g>
<!-- 1 -->
<g id="node2" class="node"><title>1</title>
<ellipse fill="lightblue" stroke="black" cx="72" cy="-114" rx="18" ry="18"/>
<text text-anchor="middle" x="72" y="-110.3" font-family="Times,serif" font-size="14.00">1</text>
</g>
<!-- 0&#45;&gt;1 -->
<g id="edge1" class="edge"><title>0&#45;&gt;1</title>
<path fill="none" stroke="black" d="M72,-183.597C72,-171.746 72,-155.817 72,-142.292"/>
<polygon fill="black" stroke="black" points="75.5001,-142.084 72,-132.084 68.5001,-142.084 75.5001,-142.084"/>
<text text-anchor="middle" x="75.5" y="-154.3" font-family="Times,serif" font-size="14.00">a</text>
</g>
<!-- 3 -->
<g id="node4" class="node"><title>3</title>
<ellipse fill="lightblue" stroke="black" cx="18" cy="-22" rx="18" ry="18"/>
<text text-anchor="middle" x="18" y="-18.3" font-family="Times,serif" font-size="14.00">3</text>
</g>
<!-- 0&#45;&gt;3 -->
<g id="edge2" class="edge"><title>0&#45;&gt;3</title>
<path fill="none" stroke="black" d="M62.1369,-186.697C47.5538,-164.587 20.8982,-120.237 11,-78 8.85316,-68.8391 9.36639,-58.6552 10.8213,-49.5652"/>
<polygon fill="black" stroke="black" points="14.3003,-50.0199 12.8588,-39.5236 7.44006,-48.6279 14.3003,-50.0199"/>
<text text-anchor="middle" x="33.5" y="-110.3" font-family="Times,serif" font-size="14.00">b</text>
</g>
<!-- 2 -->
<g id="node3" class="node"><title>2</title>
<ellipse fill="green" stroke="black" cx="118" cy="-22" rx="17.5909" ry="18"/>
<ellipse fill="none" stroke="black" cx="118" cy="-22" rx="21.5" ry="22"/>
<text text-anchor="middle" x="118" y="-18.3" font-family="Times,serif" font-size="14.00">2</text>
</g>
<!-- 1&#45;&gt;2 -->
<g id="edge3" class="edge"><title>1&#45;&gt;2</title>
<path fill="none" stroke="black" d="M76.9926,-96.4772C80.3575,-86.2704 85.2286,-73.0566 91,-62 93.415,-57.3734 96.289,-52.6474 99.2468,-48.1547"/>
<polygon fill="black" stroke="black" points="102.149,-50.1112 104.939,-39.8903 96.3842,-46.1405 102.149,-50.1112"/>
<text text-anchor="middle" x="94.5" y="-66.3" font-family="Times,serif" font-size="14.00">b</text>
</g>
<!-- 1&#45;&gt;3 -->
<g id="edge4" class="edge"><title>1&#45;&gt;3</title>
<path fill="none" stroke="black" d="M63.083,-98.1383C54.7192,-84.1986 42.0708,-63.118 32.2979,-46.8299"/>
<polygon fill="black" stroke="black" points="35.0765,-44.6579 26.9302,-37.8837 29.074,-48.2594 35.0765,-44.6579"/>
<text text-anchor="middle" x="52.5" y="-66.3" font-family="Times,serif" font-size="14.00">a</text>
</g>
<!-- 2&#45;&gt;0 -->
<g id="edge5" class="edge"><title>2&#45;&gt;0</title>
<path fill="none" stroke="black" d="M117.449,-44.0126C116.932,-54.3141 115.931,-66.8691 114,-78 107.932,-112.977 93.4601,-151.418 83.2051,-175.854"/>
<polygon fill="black" stroke="black" points="79.9599,-174.542 79.2396,-185.112 86.3945,-177.298 79.9599,-174.542"/>
<text text-anchor="middle" x="112.5" y="-110.3" font-family="Times,serif" font-size="14.00">b</text>
</g>
<!-- 2&#45;&gt;1 -->
<g id="edge6" class="edge"><title>2&#45;&gt;1</title>
<path fill="none" stroke="black" d="M111.183,-43.0768C107.274,-53.7111 101.962,-66.8436 96,-78 93.7515,-82.2075 91.1051,-86.5257 88.4058,-90.6293"/>
<polygon fill="black" stroke="black" points="85.3321,-88.922 82.5465,-99.1441 91.0987,-92.8902 85.3321,-88.922"/>
<text text-anchor="middle" x="106.5" y="-66.3" font-family="Times,serif" font-size="14.00">a</text>
</g>
<!-- 3&#45;&gt;1 -->
<g id="edge7" class="edge"><title>3&#45;&gt;1</title>
<path fill="none" stroke="black" d="M14.7996,-39.9381C13.5128,-51.3932 13.5934,-66.4752 20,-78 25.8293,-88.4863 36.2822,-96.432 46.2951,-102.08"/>
<polygon fill="black" stroke="black" points="44.7226,-105.207 55.2216,-106.629 47.9006,-98.9703 44.7226,-105.207"/>
<text text-anchor="middle" x="28.5" y="-66.3" font-family="Times,serif" font-size="14.00">b,a</text>
</g>
</g>
</svg>
