<?xml version="1.0" encoding="UTF-8" standalone="no"?>
<!DOCTYPE svg PUBLIC "-//W3C//DTD SVG 1.1//EN"
 "http://www.w3.org/Graphics/SVG/1.1/DTD/svg11.dtd">
<!-- Generated by graphviz version 2.36.0 (20140111.2315)
 -->
<!-- Title: %3 Pages: 1 -->
<svg width="125pt" height="404pt"
 viewBox="0.00 0.00 125.00 404.00" xmlns="http://www.w3.org/2000/svg" xmlns:xlink="http://www.w3.org/1999/xlink">
<g id="graph0" class="graph" transform="scale(1 1) rotate(0) translate(4 400)">
<title>%3</title>
<polygon fill="white" stroke="none" points="-4,4 -4,-400 121,-400 121,4 -4,4"/>
<!-- 0 -->
<g id="node1" class="node"><title>0</title>
<ellipse fill="lightblue" stroke="black" cx="85" cy="-378" rx="18" ry="18"/>
<text text-anchor="middle" x="85" y="-374.3" font-family="Times,serif" font-size="14.00">0</text>
</g>
<!-- 3 -->
<g id="node4" class="node"><title>3</title>
<ellipse fill="lightblue" stroke="black" cx="45" cy="-290" rx="18" ry="18"/>
<text text-anchor="middle" x="45" y="-286.3" font-family="Times,serif" font-size="14.00">3</text>
</g>
<!-- 0&#45;&gt;3 -->
<g id="edge1" class="edge"><title>0&#45;&gt;3</title>
<path fill="none" stroke="black" d="M69.9336,-368.005C61.2133,-361.882 51.0007,-352.918 46,-342 42.6153,-334.61 41.5291,-325.964 41.5282,-317.912"/>
<polygon fill="black" stroke="black" points="45.0287,-317.992 42.0503,-307.824 38.038,-317.63 45.0287,-317.992"/>
<text text-anchor="middle" x="54.5" y="-330.3" font-family="Times,serif" font-size="14.00">b,a</text>
</g>
<!-- 1 -->
<g id="node2" class="node"><title>1</title>
<ellipse fill="lightblue" stroke="black" cx="18" cy="-202" rx="18" ry="18"/>
<text text-anchor="middle" x="18" y="-198.3" font-family="Times,serif" font-size="14.00">1</text>
</g>
<!-- 1&#45;&gt;3 -->
<g id="edge2" class="edge"><title>1&#45;&gt;3</title>
<path fill="none" stroke="black" d="M23.1899,-219.531C27.0331,-231.772 32.3469,-248.698 36.7672,-262.777"/>
<polygon fill="black" stroke="black" points="33.4594,-263.926 39.7941,-272.418 40.138,-261.829 33.4594,-263.926"/>
<text text-anchor="middle" x="37.5" y="-242.3" font-family="Times,serif" font-size="14.00">b</text>
</g>
<!-- 4 -->
<g id="node5" class="node"><title>4</title>
<ellipse fill="green" stroke="black" cx="18" cy="-114" rx="18" ry="18"/>
<text text-anchor="middle" x="18" y="-110.3" font-family="Times,serif" font-size="14.00">4</text>
</g>
<!-- 1&#45;&gt;4 -->
<g id="edge3" class="edge"><title>1&#45;&gt;4</title>
<path fill="none" stroke="black" d="M18,-183.597C18,-171.746 18,-155.817 18,-142.292"/>
<polygon fill="black" stroke="black" points="21.5001,-142.084 18,-132.084 14.5001,-142.084 21.5001,-142.084"/>
<text text-anchor="middle" x="21.5" y="-154.3" font-family="Times,serif" font-size="14.00">a</text>
</g>
<!-- 2 -->
<g id="node3" class="node"><title>2</title>
<ellipse fill="lightblue" stroke="black" cx="64" cy="-22" rx="17.5909" ry="18"/>
<ellipse fill="none" stroke="black" cx="64" cy="-22" rx="21.5" ry="22"/>
<text text-anchor="middle" x="64" y="-18.3" font-family="Times,serif" font-size="14.00">2</text>
</g>
<!-- 2&#45;&gt;0 -->
<g id="edge4" class="edge"><title>2&#45;&gt;0</title>
<path fill="none" stroke="black" d="M78.0515,-38.9938C91.5792,-56.0832 110,-84.5729 110,-113 110,-291 110,-291 110,-291 110,-312.117 102.964,-335.033 96.357,-351.895"/>
<polygon fill="black" stroke="black" points="92.9547,-350.964 92.3656,-361.542 99.4229,-353.64 92.9547,-350.964"/>
<text text-anchor="middle" x="113.5" y="-198.3" font-family="Times,serif" font-size="14.00">b</text>
</g>
<!-- 2&#45;&gt;3 -->
<g id="edge5" class="edge"><title>2&#45;&gt;3</title>
<path fill="none" stroke="black" d="M62.4837,-44.2283C59.0576,-92.1943 50.7227,-208.882 46.9329,-261.939"/>
<polygon fill="black" stroke="black" points="43.4389,-261.732 46.2174,-271.956 50.4211,-262.231 43.4389,-261.732"/>
<text text-anchor="middle" x="57.5" y="-154.3" font-family="Times,serif" font-size="14.00">a</text>
</g>
<!-- 3&#45;&gt;0 -->
<g id="edge6" class="edge"><title>3&#45;&gt;0</title>
<path fill="none" stroke="black" d="M53.1124,-306.222C56.29,-312.324 59.9076,-319.451 63,-326 66.8637,-334.183 70.851,-343.22 74.3522,-351.385"/>
<polygon fill="black" stroke="black" points="71.216,-352.955 78.3407,-360.796 77.6612,-350.223 71.216,-352.955"/>
<text text-anchor="middle" x="72.5" y="-330.3" font-family="Times,serif" font-size="14.00">a</text>
</g>
<!-- 3&#45;&gt;1 -->
<g id="edge7" class="edge"><title>3&#45;&gt;1</title>
<path fill="none" stroke="black" d="M32.7246,-276.501C27.4437,-270.274 21.8392,-262.309 19,-254 16.4408,-246.51 15.5466,-238.034 15.4668,-230.173"/>
<polygon fill="black" stroke="black" points="18.971,-230.089 15.783,-219.985 11.9744,-229.872 18.971,-230.089"/>
<text text-anchor="middle" x="22.5" y="-242.3" font-family="Times,serif" font-size="14.00">b</text>
</g>
<!-- 4&#45;&gt;2 -->
<g id="edge8" class="edge"><title>4&#45;&gt;2</title>
<path fill="none" stroke="black" d="M21.3068,-95.8364C23.6903,-85.6338 27.4721,-72.6486 33,-62 35.8082,-56.5905 39.4194,-51.2039 43.1786,-46.2376"/>
<polygon fill="black" stroke="black" points="45.9862,-48.3315 49.5294,-38.3466 40.5329,-43.9426 45.9862,-48.3315"/>
<text text-anchor="middle" x="41.5" y="-66.3" font-family="Times,serif" font-size="14.00">b,a</text>
</g>
</g>
</svg>
