<?xml version="1.0" encoding="UTF-8" standalone="no"?>
<!DOCTYPE svg PUBLIC "-//W3C//DTD SVG 1.1//EN"
 "http://www.w3.org/Graphics/SVG/1.1/DTD/svg11.dtd">
<!-- Generated by graphviz version 2.36.0 (20140111.2315)
 -->
<!-- Title: %3 Pages: 1 -->
<svg width="217pt" height="228pt"
 viewBox="0.00 0.00 217.00 228.00" xmlns="http://www.w3.org/2000/svg" xmlns:xlink="http://www.w3.org/1999/xlink">
<g id="graph0" class="graph" transform="scale(1 1) rotate(0) translate(4 224)">
<title>%3</title>
<polygon fill="white" stroke="none" points="-4,4 -4,-224 213,-224 213,4 -4,4"/>
<!-- 0 -->
<g id="node1" class="node"><title>0</title>
<ellipse fill="green" stroke="black" cx="23" cy="-202" rx="18" ry="18"/>
<text text-anchor="middle" x="23" y="-198.3" font-family="Times,serif" font-size="14.00">0</text>
</g>
<!-- 0&#45;&gt;0 -->
<g id="edge1" class="edge"><title>0&#45;&gt;0</title>
<path fill="none" stroke="black" d="M39.2903,-209.668C49.3892,-211.517 59,-208.961 59,-202 59,-197.541 55.0557,-194.889 49.5656,-194.045"/>
<polygon fill="black" stroke="black" points="49.1887,-190.554 39.2903,-194.332 49.384,-197.552 49.1887,-190.554"/>
<text text-anchor="middle" x="62.5" y="-198.3" font-family="Times,serif" font-size="14.00">b</text>
</g>
<!-- 2 -->
<g id="node3" class="node"><title>2</title>
<ellipse fill="lightblue" stroke="black" cx="53" cy="-114" rx="18" ry="18"/>
<text text-anchor="middle" x="53" y="-110.3" font-family="Times,serif" font-size="14.00">2</text>
</g>
<!-- 0&#45;&gt;2 -->
<g id="edge2" class="edge"><title>0&#45;&gt;2</title>
<path fill="none" stroke="black" d="M31.7181,-186.032C34.9792,-179.965 38.4957,-172.796 41,-166 43.8428,-158.285 46.1742,-149.66 48.0008,-141.73"/>
<polygon fill="black" stroke="black" points="51.4473,-142.349 50.1119,-131.839 44.6015,-140.888 51.4473,-142.349"/>
<text text-anchor="middle" x="48.5" y="-154.3" font-family="Times,serif" font-size="14.00">a</text>
</g>
<!-- 1 -->
<g id="node2" class="node"><title>1</title>
<ellipse fill="lightblue" stroke="black" cx="21" cy="-22" rx="17.5909" ry="18"/>
<ellipse fill="none" stroke="black" cx="21" cy="-22" rx="21.5" ry="22"/>
<text text-anchor="middle" x="21" y="-18.3" font-family="Times,serif" font-size="14.00">1</text>
</g>
<!-- 1&#45;&gt;0 -->
<g id="edge3" class="edge"><title>1&#45;&gt;0</title>
<path fill="none" stroke="black" d="M20.0137,-44.3071C19.1363,-66.2814 18.1179,-101.541 19,-132 19.3976,-145.73 20.2394,-160.977 21.0486,-173.639"/>
<polygon fill="black" stroke="black" points="17.5817,-174.253 21.7394,-183.998 24.5662,-173.788 17.5817,-174.253"/>
<text text-anchor="middle" x="22.5" y="-110.3" font-family="Times,serif" font-size="14.00">b</text>
</g>
<!-- 1&#45;&gt;1 -->
<g id="edge4" class="edge"><title>1&#45;&gt;1</title>
<path fill="none" stroke="black" d="M41.0663,-30.7341C51.0736,-31.9426 60,-29.0312 60,-22 60,-17.4956 56.3366,-14.682 51.0725,-13.5592"/>
<polygon fill="black" stroke="black" points="51.1646,-10.0605 41.0663,-13.2659 50.9594,-17.0575 51.1646,-10.0605"/>
<text text-anchor="middle" x="63.5" y="-18.3" font-family="Times,serif" font-size="14.00">a</text>
</g>
<!-- 2&#45;&gt;0 -->
<g id="edge5" class="edge"><title>2&#45;&gt;0</title>
<path fill="none" stroke="black" d="M44.6913,-130.387C41.6732,-136.389 38.4148,-143.403 36,-150 33.1612,-157.756 30.7063,-166.393 28.7182,-174.322"/>
<polygon fill="black" stroke="black" points="25.2767,-173.667 26.3805,-184.204 32.0887,-175.279 25.2767,-173.667"/>
<text text-anchor="middle" x="39.5" y="-154.3" font-family="Times,serif" font-size="14.00">b</text>
</g>
<!-- 2&#45;&gt;1 -->
<g id="edge6" class="edge"><title>2&#45;&gt;1</title>
<path fill="none" stroke="black" d="M47.279,-96.9098C42.9263,-84.6677 36.8135,-67.4754 31.5787,-52.7526"/>
<polygon fill="black" stroke="black" points="34.7752,-51.2951 28.1273,-43.0455 28.1797,-53.6402 34.7752,-51.2951"/>
<text text-anchor="middle" x="42.5" y="-66.3" font-family="Times,serif" font-size="14.00">a</text>
</g>
<!-- 3 -->
<g id="node4" class="node"><title>3</title>
<ellipse fill="lightblue" stroke="black" cx="102" cy="-202" rx="18" ry="18"/>
<text text-anchor="middle" x="102" y="-198.3" font-family="Times,serif" font-size="14.00">3</text>
</g>
<!-- 3&#45;&gt;2 -->
<g id="edge7" class="edge"><title>3&#45;&gt;2</title>
<path fill="none" stroke="black" d="M93.4649,-186.02C86.0624,-173.028 75.216,-153.991 66.6156,-138.897"/>
<polygon fill="black" stroke="black" points="69.5933,-137.053 61.6017,-130.097 63.5113,-140.518 69.5933,-137.053"/>
<text text-anchor="middle" x="89.5" y="-154.3" font-family="Times,serif" font-size="14.00">b,a</text>
</g>
<!-- 4 -->
<g id="node5" class="node"><title>4</title>
<ellipse fill="lightblue" stroke="black" cx="156" cy="-202" rx="18" ry="18"/>
<text text-anchor="middle" x="156" y="-198.3" font-family="Times,serif" font-size="14.00">4</text>
</g>
<!-- 4&#45;&gt;4 -->
<g id="edge8" class="edge"><title>4&#45;&gt;4</title>
<path fill="none" stroke="black" d="M172.29,-209.668C182.389,-211.517 192,-208.961 192,-202 192,-197.541 188.056,-194.889 182.566,-194.045"/>
<polygon fill="black" stroke="black" points="182.189,-190.554 172.29,-194.332 182.384,-197.552 182.189,-190.554"/>
<text text-anchor="middle" x="200.5" y="-198.3" font-family="Times,serif" font-size="14.00">b,a</text>
</g>
</g>
</svg>
