<?xml version="1.0" encoding="UTF-8" standalone="no"?>
<!DOCTYPE svg PUBLIC "-//W3C//DTD SVG 1.1//EN"
 "http://www.w3.org/Graphics/SVG/1.1/DTD/svg11.dtd">
<!-- Generated by graphviz version 2.36.0 (20140111.2315)
 -->
<!-- Title: %3 Pages: 1 -->
<svg width="165pt" height="228pt"
 viewBox="0.00 0.00 165.00 228.00" xmlns="http://www.w3.org/2000/svg" xmlns:xlink="http://www.w3.org/1999/xlink">
<g id="graph0" class="graph" transform="scale(1 1) rotate(0) translate(4 224)">
<title>%3</title>
<polygon fill="white" stroke="none" points="-4,4 -4,-224 161,-224 161,4 -4,4"/>
<!-- 0 -->
<g id="node1" class="node"><title>0</title>
<ellipse fill="lightblue" stroke="black" cx="50" cy="-202" rx="18" ry="18"/>
<text text-anchor="middle" x="50" y="-198.3" font-family="Times,serif" font-size="14.00">0</text>
</g>
<!-- 2 -->
<g id="node3" class="node"><title>2</title>
<ellipse fill="lightblue" stroke="black" cx="18" cy="-114" rx="18" ry="18"/>
<text text-anchor="middle" x="18" y="-110.3" font-family="Times,serif" font-size="14.00">2</text>
</g>
<!-- 0&#45;&gt;2 -->
<g id="edge1" class="edge"><title>0&#45;&gt;2</title>
<path fill="none" stroke="black" d="M34.8581,-192.039C26.1094,-185.929 15.8934,-176.967 11,-166 7.56876,-158.31 7.61139,-149.373 9.0356,-141.147"/>
<polygon fill="black" stroke="black" points="12.4787,-141.799 11.421,-131.257 5.67387,-140.158 12.4787,-141.799"/>
<text text-anchor="middle" x="19.5" y="-154.3" font-family="Times,serif" font-size="14.00">b,a</text>
</g>
<!-- 1 -->
<g id="node2" class="node"><title>1</title>
<ellipse fill="lightblue" stroke="black" cx="104" cy="-202" rx="18" ry="18"/>
<text text-anchor="middle" x="104" y="-198.3" font-family="Times,serif" font-size="14.00">1</text>
</g>
<!-- 1&#45;&gt;1 -->
<g id="edge2" class="edge"><title>1&#45;&gt;1</title>
<path fill="none" stroke="black" d="M120.29,-209.668C130.389,-211.517 140,-208.961 140,-202 140,-197.541 136.056,-194.889 130.566,-194.045"/>
<polygon fill="black" stroke="black" points="130.189,-190.554 120.29,-194.332 130.384,-197.552 130.189,-190.554"/>
<text text-anchor="middle" x="148.5" y="-198.3" font-family="Times,serif" font-size="14.00">b,a</text>
</g>
<!-- 2&#45;&gt;0 -->
<g id="edge3" class="edge"><title>2&#45;&gt;0</title>
<path fill="none" stroke="black" d="M23.992,-131.103C28.5885,-143.457 35.0263,-160.758 40.3467,-175.057"/>
<polygon fill="black" stroke="black" points="37.2134,-176.672 43.981,-184.824 43.7739,-174.231 37.2134,-176.672"/>
<text text-anchor="middle" x="39.5" y="-154.3" font-family="Times,serif" font-size="14.00">a</text>
</g>
<!-- 3 -->
<g id="node4" class="node"><title>3</title>
<ellipse fill="green" stroke="black" cx="48" cy="-22" rx="17.5909" ry="18"/>
<ellipse fill="none" stroke="black" cx="48" cy="-22" rx="21.5" ry="22"/>
<text text-anchor="middle" x="48" y="-18.3" font-family="Times,serif" font-size="14.00">3</text>
</g>
<!-- 2&#45;&gt;3 -->
<g id="edge4" class="edge"><title>2&#45;&gt;3</title>
<path fill="none" stroke="black" d="M16.7325,-96.0192C16.5254,-85.8813 17.2402,-72.9001 21,-62 22.7345,-56.9714 25.3127,-51.9975 28.1983,-47.3708"/>
<polygon fill="black" stroke="black" points="31.1899,-49.1978 33.9855,-38.9784 25.4272,-45.224 31.1899,-49.1978"/>
<text text-anchor="middle" x="24.5" y="-66.3" font-family="Times,serif" font-size="14.00">b</text>
</g>
<!-- 3&#45;&gt;0 -->
<g id="edge5" class="edge"><title>3&#45;&gt;0</title>
<path fill="none" stroke="black" d="M48.2372,-44.1069C48.6002,-76.4168 49.2936,-138.132 49.6941,-173.771"/>
<polygon fill="black" stroke="black" points="46.196,-173.973 49.8082,-183.933 53.1956,-173.894 46.196,-173.973"/>
<text text-anchor="middle" x="52.5" y="-110.3" font-family="Times,serif" font-size="14.00">b</text>
</g>
<!-- 3&#45;&gt;2 -->
<g id="edge6" class="edge"><title>3&#45;&gt;2</title>
<path fill="none" stroke="black" d="M41.2721,-43.1837C36.9612,-56.1164 31.3241,-73.0278 26.6776,-86.9672"/>
<polygon fill="black" stroke="black" points="23.3444,-85.899 23.5025,-96.4926 29.9852,-88.1126 23.3444,-85.899"/>
<text text-anchor="middle" x="37.5" y="-66.3" font-family="Times,serif" font-size="14.00">a</text>
</g>
</g>
</svg>
