<?xml version="1.0" encoding="UTF-8" standalone="no"?>
<!DOCTYPE svg PUBLIC "-//W3C//DTD SVG 1.1//EN"
 "http://www.w3.org/Graphics/SVG/1.1/DTD/svg11.dtd">
<!-- Generated by graphviz version 2.36.0 (20140111.2315)
 -->
<!-- Title: %3 Pages: 1 -->
<svg width="122pt" height="316pt"
 viewBox="0.00 0.00 122.00 316.00" xmlns="http://www.w3.org/2000/svg" xmlns:xlink="http://www.w3.org/1999/xlink">
<g id="graph0" class="graph" transform="scale(1 1) rotate(0) translate(4 312)">
<title>%3</title>
<polygon fill="white" stroke="none" points="-4,4 -4,-312 118,-312 118,4 -4,4"/>
<!-- 0 -->
<g id="node1" class="node"><title>0</title>
<ellipse fill="green" stroke="black" cx="71" cy="-290" rx="18" ry="18"/>
<text text-anchor="middle" x="71" y="-286.3" font-family="Times,serif" font-size="14.00">0</text>
</g>
<!-- 0&#45;&gt;0 -->
<g id="edge1" class="edge"><title>0&#45;&gt;0</title>
<path fill="none" stroke="black" d="M87.2903,-297.668C97.3892,-299.517 107,-296.961 107,-290 107,-285.541 103.056,-282.889 97.5656,-282.045"/>
<polygon fill="black" stroke="black" points="97.1887,-278.554 87.2903,-282.332 97.384,-285.552 97.1887,-278.554"/>
<text text-anchor="middle" x="110.5" y="-286.3" font-family="Times,serif" font-size="14.00">b</text>
</g>
<!-- 3 -->
<g id="node4" class="node"><title>3</title>
<ellipse fill="lightblue" stroke="black" cx="18" cy="-202" rx="18" ry="18"/>
<text text-anchor="middle" x="18" y="-198.3" font-family="Times,serif" font-size="14.00">3</text>
</g>
<!-- 0&#45;&gt;3 -->
<g id="edge2" class="edge"><title>0&#45;&gt;3</title>
<path fill="none" stroke="black" d="M61.7681,-274.02C53.7123,-260.948 41.8855,-241.758 32.5561,-226.619"/>
<polygon fill="black" stroke="black" points="35.3523,-224.485 27.1261,-217.808 29.393,-228.158 35.3523,-224.485"/>
<text text-anchor="middle" x="53.5" y="-242.3" font-family="Times,serif" font-size="14.00">a</text>
</g>
<!-- 1 -->
<g id="node2" class="node"><title>1</title>
<ellipse fill="lightblue" stroke="black" cx="66" cy="-22" rx="17.5909" ry="18"/>
<ellipse fill="none" stroke="black" cx="66" cy="-22" rx="21.5" ry="22"/>
<text text-anchor="middle" x="66" y="-18.3" font-family="Times,serif" font-size="14.00">1</text>
</g>
<!-- 1&#45;&gt;0 -->
<g id="edge3" class="edge"><title>1&#45;&gt;0</title>
<path fill="none" stroke="black" d="M67.4317,-44.072C68.3539,-58.6469 69.4753,-78.492 70,-96 71.7723,-155.138 71.5755,-224.512 71.2828,-261.869"/>
<polygon fill="black" stroke="black" points="67.7823,-261.925 71.1951,-271.955 74.782,-261.986 67.7823,-261.925"/>
<text text-anchor="middle" x="74.5" y="-154.3" font-family="Times,serif" font-size="14.00">b</text>
</g>
<!-- 1&#45;&gt;1 -->
<g id="edge4" class="edge"><title>1&#45;&gt;1</title>
<path fill="none" stroke="black" d="M86.0663,-30.7341C96.0736,-31.9426 105,-29.0312 105,-22 105,-17.4956 101.337,-14.682 96.0725,-13.5592"/>
<polygon fill="black" stroke="black" points="96.1646,-10.0605 86.0663,-13.2659 95.9594,-17.0575 96.1646,-10.0605"/>
<text text-anchor="middle" x="108.5" y="-18.3" font-family="Times,serif" font-size="14.00">a</text>
</g>
<!-- 2 -->
<g id="node3" class="node"><title>2</title>
<ellipse fill="lightblue" stroke="black" cx="18" cy="-114" rx="18" ry="18"/>
<text text-anchor="middle" x="18" y="-110.3" font-family="Times,serif" font-size="14.00">2</text>
</g>
<!-- 2&#45;&gt;1 -->
<g id="edge5" class="edge"><title>2&#45;&gt;1</title>
<path fill="none" stroke="black" d="M26.1425,-97.7327C32.9648,-84.941 42.8813,-66.3476 51.116,-50.9075"/>
<polygon fill="black" stroke="black" points="54.3656,-52.252 55.9833,-41.7813 48.1891,-48.9578 54.3656,-52.252"/>
<text text-anchor="middle" x="48.5" y="-66.3" font-family="Times,serif" font-size="14.00">a</text>
</g>
<!-- 2&#45;&gt;2 -->
<g id="edge6" class="edge"><title>2&#45;&gt;2</title>
<path fill="none" stroke="black" d="M34.2903,-121.668C44.3892,-123.517 54,-120.961 54,-114 54,-109.541 50.0557,-106.889 44.5656,-106.045"/>
<polygon fill="black" stroke="black" points="44.1887,-102.554 34.2903,-106.332 44.384,-109.552 44.1887,-102.554"/>
<text text-anchor="middle" x="57.5" y="-110.3" font-family="Times,serif" font-size="14.00">b</text>
</g>
<!-- 3&#45;&gt;2 -->
<g id="edge7" class="edge"><title>3&#45;&gt;2</title>
<path fill="none" stroke="black" d="M18,-183.597C18,-171.746 18,-155.817 18,-142.292"/>
<polygon fill="black" stroke="black" points="21.5001,-142.084 18,-132.084 14.5001,-142.084 21.5001,-142.084"/>
<text text-anchor="middle" x="21.5" y="-154.3" font-family="Times,serif" font-size="14.00">a</text>
</g>
<!-- 3&#45;&gt;3 -->
<g id="edge8" class="edge"><title>3&#45;&gt;3</title>
<path fill="none" stroke="black" d="M34.2903,-209.668C44.3892,-211.517 54,-208.961 54,-202 54,-197.541 50.0557,-194.889 44.5656,-194.045"/>
<polygon fill="black" stroke="black" points="44.1887,-190.554 34.2903,-194.332 44.384,-197.552 44.1887,-190.554"/>
<text text-anchor="middle" x="57.5" y="-198.3" font-family="Times,serif" font-size="14.00">b</text>
</g>
</g>
</svg>
