<?xml version="1.0" encoding="UTF-8" standalone="no"?>
<!DOCTYPE svg PUBLIC "-//W3C//DTD SVG 1.1//EN"
 "http://www.w3.org/Graphics/SVG/1.1/DTD/svg11.dtd">
<!-- Generated by graphviz version 2.36.0 (20140111.2315)
 -->
<!-- Title: %3 Pages: 1 -->
<svg width="125pt" height="404pt"
 viewBox="0.00 0.00 125.00 404.00" xmlns="http://www.w3.org/2000/svg" xmlns:xlink="http://www.w3.org/1999/xlink">
<g id="graph0" class="graph" transform="scale(1 1) rotate(0) translate(4 400)">
<title>%3</title>
<polygon fill="white" stroke="none" points="-4,4 -4,-400 121,-400 121,4 -4,4"/>
<!-- 0 -->
<g id="node1" class="node"><title>0</title>
<ellipse fill="green" stroke="black" cx="52" cy="-194" rx="18" ry="18"/>
<text text-anchor="middle" x="52" y="-190.3" font-family="Times,serif" font-size="14.00">0</text>
</g>
<!-- 0&#45;&gt;0 -->
<g id="edge1" class="edge"><title>0&#45;&gt;0</title>
<path fill="none" stroke="black" d="M68.2903,-201.668C78.3892,-203.517 88,-200.961 88,-194 88,-189.541 84.0557,-186.889 78.5656,-186.045"/>
<polygon fill="black" stroke="black" points="78.1887,-182.554 68.2903,-186.332 78.384,-189.552 78.1887,-182.554"/>
<text text-anchor="middle" x="91.5" y="-190.3" font-family="Times,serif" font-size="14.00">b</text>
</g>
<!-- 3 -->
<g id="node4" class="node"><title>3</title>
<ellipse fill="lightblue" stroke="black" cx="99" cy="-106" rx="18" ry="18"/>
<text text-anchor="middle" x="99" y="-102.3" font-family="Times,serif" font-size="14.00">3</text>
</g>
<!-- 0&#45;&gt;3 -->
<g id="edge2" class="edge"><title>0&#45;&gt;3</title>
<path fill="none" stroke="black" d="M65.8338,-182.408C73.1698,-176.085 81.7308,-167.459 87,-158 91.0011,-150.817 93.6728,-142.349 95.4551,-134.398"/>
<polygon fill="black" stroke="black" points="98.9277,-134.868 97.3226,-124.395 92.0466,-133.583 98.9277,-134.868"/>
<text text-anchor="middle" x="96.5" y="-146.3" font-family="Times,serif" font-size="14.00">a</text>
</g>
<!-- 1 -->
<g id="node2" class="node"><title>1</title>
<ellipse fill="lightblue" stroke="black" cx="46" cy="-18" rx="18" ry="18"/>
<text text-anchor="middle" x="46" y="-14.3" font-family="Times,serif" font-size="14.00">1</text>
</g>
<!-- 1&#45;&gt;0 -->
<g id="edge3" class="edge"><title>1&#45;&gt;0</title>
<path fill="none" stroke="black" d="M46.5886,-36.0697C47.6299,-66.266 49.8046,-129.334 51.057,-165.653"/>
<polygon fill="black" stroke="black" points="47.5711,-166.126 51.4138,-175.999 54.567,-165.885 47.5711,-166.126"/>
<text text-anchor="middle" x="52.5" y="-102.3" font-family="Times,serif" font-size="14.00">b</text>
</g>
<!-- 1&#45;&gt;1 -->
<g id="edge4" class="edge"><title>1&#45;&gt;1</title>
<path fill="none" stroke="black" d="M62.2903,-25.6679C72.3892,-27.5169 82,-24.9609 82,-18 82,-13.5406 78.0557,-10.8891 72.5656,-10.0454"/>
<polygon fill="black" stroke="black" points="72.1887,-6.55441 62.2903,-10.3321 72.384,-13.5517 72.1887,-6.55441"/>
<text text-anchor="middle" x="85.5" y="-14.3" font-family="Times,serif" font-size="14.00">a</text>
</g>
<!-- 2 -->
<g id="node3" class="node"><title>2</title>
<ellipse fill="lightblue" stroke="black" cx="21" cy="-378" rx="18" ry="18"/>
<text text-anchor="middle" x="21" y="-374.3" font-family="Times,serif" font-size="14.00">2</text>
</g>
<!-- 2&#45;&gt;1 -->
<g id="edge5" class="edge"><title>2&#45;&gt;1</title>
<path fill="none" stroke="black" d="M14.9259,-361.004C8.72383,-343.209 0,-313.474 0,-287 0,-287 0,-287 0,-105 0,-80.3438 14.8834,-55.9118 27.7184,-39.4265"/>
<polygon fill="black" stroke="black" points="30.524,-41.5247 34.1539,-31.571 25.1091,-37.0886 30.524,-41.5247"/>
<text text-anchor="middle" x="3.5" y="-190.3" font-family="Times,serif" font-size="14.00">b</text>
</g>
<!-- 4 -->
<g id="node5" class="node"><title>4</title>
<ellipse fill="lightblue" stroke="black" cx="52" cy="-286" rx="17.5909" ry="18"/>
<ellipse fill="none" stroke="black" cx="52" cy="-286" rx="21.5" ry="22"/>
<text text-anchor="middle" x="52" y="-282.3" font-family="Times,serif" font-size="14.00">4</text>
</g>
<!-- 2&#45;&gt;4 -->
<g id="edge6" class="edge"><title>2&#45;&gt;4</title>
<path fill="none" stroke="black" d="M26.6859,-360.493C30.9181,-348.206 36.8086,-331.104 41.8425,-316.49"/>
<polygon fill="black" stroke="black" points="45.2122,-317.454 45.1597,-306.859 38.5938,-315.174 45.2122,-317.454"/>
<text text-anchor="middle" x="41.5" y="-330.3" font-family="Times,serif" font-size="14.00">a</text>
</g>
<!-- 3&#45;&gt;0 -->
<g id="edge7" class="edge"><title>3&#45;&gt;0</title>
<path fill="none" stroke="black" d="M90.6701,-122.242C83.674,-135.043 73.5452,-153.577 65.4088,-168.465"/>
<polygon fill="black" stroke="black" points="62.1271,-167.171 60.4027,-177.625 68.2696,-170.528 62.1271,-167.171"/>
<text text-anchor="middle" x="82.5" y="-146.3" font-family="Times,serif" font-size="14.00">b</text>
</g>
<!-- 3&#45;&gt;1 -->
<g id="edge8" class="edge"><title>3&#45;&gt;1</title>
<path fill="none" stroke="black" d="M89.7681,-90.0199C81.7123,-76.9482 69.8855,-57.7576 60.5561,-42.6194"/>
<polygon fill="black" stroke="black" points="63.3523,-40.4853 55.1261,-33.8084 57.393,-44.1579 63.3523,-40.4853"/>
<text text-anchor="middle" x="80.5" y="-58.3" font-family="Times,serif" font-size="14.00">a</text>
</g>
<!-- 4&#45;&gt;0 -->
<g id="edge9" class="edge"><title>4&#45;&gt;0</title>
<path fill="none" stroke="black" d="M52,-263.671C52,-251.284 52,-235.552 52,-222.272"/>
<polygon fill="black" stroke="black" points="55.5001,-222.258 52,-212.258 48.5001,-222.258 55.5001,-222.258"/>
<text text-anchor="middle" x="55.5" y="-234.3" font-family="Times,serif" font-size="14.00">a</text>
</g>
<!-- 4&#45;&gt;3 -->
<g id="edge10" class="edge"><title>4&#45;&gt;3</title>
<path fill="none" stroke="black" d="M66.9584,-270.07C79.5914,-256.322 96.7493,-234.676 104,-212 112.178,-186.423 109.304,-155.56 105.38,-133.937"/>
<polygon fill="black" stroke="black" points="108.752,-132.953 103.35,-123.839 101.889,-134.333 108.752,-132.953"/>
<text text-anchor="middle" x="112.5" y="-190.3" font-family="Times,serif" font-size="14.00">b</text>
</g>
</g>
</svg>
