<?xml version="1.0" encoding="UTF-8" standalone="no"?>
<!DOCTYPE svg PUBLIC "-//W3C//DTD SVG 1.1//EN"
 "http://www.w3.org/Graphics/SVG/1.1/DTD/svg11.dtd">
<!-- Generated by graphviz version 2.36.0 (20140111.2315)
 -->
<!-- Title: %3 Pages: 1 -->
<svg width="101pt" height="316pt"
 viewBox="0.00 0.00 101.00 316.00" xmlns="http://www.w3.org/2000/svg" xmlns:xlink="http://www.w3.org/1999/xlink">
<g id="graph0" class="graph" transform="scale(1 1) rotate(0) translate(4 312)">
<title>%3</title>
<polygon fill="white" stroke="none" points="-4,4 -4,-312 97,-312 97,4 -4,4"/>
<!-- 0 -->
<g id="node1" class="node"><title>0</title>
<ellipse fill="lightblue" stroke="black" cx="37" cy="-202" rx="18" ry="18"/>
<text text-anchor="middle" x="37" y="-198.3" font-family="Times,serif" font-size="14.00">0</text>
</g>
<!-- 3 -->
<g id="node4" class="node"><title>3</title>
<ellipse fill="lightblue" stroke="black" cx="53" cy="-114" rx="18" ry="18"/>
<text text-anchor="middle" x="53" y="-110.3" font-family="Times,serif" font-size="14.00">3</text>
</g>
<!-- 0&#45;&gt;3 -->
<g id="edge1" class="edge"><title>0&#45;&gt;3</title>
<path fill="none" stroke="black" d="M40.1611,-184.009C42.3963,-171.995 45.4389,-155.641 48.0011,-141.869"/>
<polygon fill="black" stroke="black" points="51.4573,-142.427 49.8455,-131.956 44.5754,-141.147 51.4573,-142.427"/>
<text text-anchor="middle" x="54.5" y="-154.3" font-family="Times,serif" font-size="14.00">b,a</text>
</g>
<!-- 1 -->
<g id="node2" class="node"><title>1</title>
<ellipse fill="green" stroke="black" cx="21" cy="-22" rx="17.5909" ry="18"/>
<ellipse fill="none" stroke="black" cx="21" cy="-22" rx="21.5" ry="22"/>
<text text-anchor="middle" x="21" y="-18.3" font-family="Times,serif" font-size="14.00">1</text>
</g>
<!-- 1&#45;&gt;0 -->
<g id="edge2" class="edge"><title>1&#45;&gt;0</title>
<path fill="none" stroke="black" d="M18.811,-43.9948C16.9357,-66.0168 15.0985,-101.588 19,-132 20.8461,-146.39 24.7739,-162.064 28.4907,-174.832"/>
<polygon fill="black" stroke="black" points="25.2573,-176.23 31.5128,-184.781 31.9551,-174.195 25.2573,-176.23"/>
<text text-anchor="middle" x="22.5" y="-110.3" font-family="Times,serif" font-size="14.00">b</text>
</g>
<!-- 1&#45;&gt;1 -->
<g id="edge3" class="edge"><title>1&#45;&gt;1</title>
<path fill="none" stroke="black" d="M41.0663,-30.7341C51.0736,-31.9426 60,-29.0312 60,-22 60,-17.4956 56.3366,-14.682 51.0725,-13.5592"/>
<polygon fill="black" stroke="black" points="51.1646,-10.0605 41.0663,-13.2659 50.9594,-17.0575 51.1646,-10.0605"/>
<text text-anchor="middle" x="63.5" y="-18.3" font-family="Times,serif" font-size="14.00">a</text>
</g>
<!-- 2 -->
<g id="node3" class="node"><title>2</title>
<ellipse fill="lightblue" stroke="black" cx="75" cy="-290" rx="18" ry="18"/>
<text text-anchor="middle" x="75" y="-286.3" font-family="Times,serif" font-size="14.00">2</text>
</g>
<!-- 2&#45;&gt;0 -->
<g id="edge4" class="edge"><title>2&#45;&gt;0</title>
<path fill="none" stroke="black" d="M68.0302,-273.226C62.4594,-260.619 54.5445,-242.706 48.1029,-228.128"/>
<polygon fill="black" stroke="black" points="51.1687,-226.406 43.9256,-218.674 44.7659,-229.235 51.1687,-226.406"/>
<text text-anchor="middle" x="62.5" y="-242.3" font-family="Times,serif" font-size="14.00">a</text>
</g>
<!-- 2&#45;&gt;3 -->
<g id="edge5" class="edge"><title>2&#45;&gt;3</title>
<path fill="none" stroke="black" d="M75.7769,-271.636C76.5689,-245.081 76.5575,-192.942 67,-150 66.2749,-146.742 65.283,-143.393 64.1595,-140.119"/>
<polygon fill="black" stroke="black" points="67.3872,-138.761 60.5291,-130.685 60.8542,-141.275 67.3872,-138.761"/>
<text text-anchor="middle" x="78.5" y="-198.3" font-family="Times,serif" font-size="14.00">b</text>
</g>
<!-- 3&#45;&gt;0 -->
<g id="edge6" class="edge"><title>3&#45;&gt;0</title>
<path fill="none" stroke="black" d="M43.9834,-129.78C40.7956,-135.822 37.6051,-143.022 36,-150 34.2531,-157.595 33.8254,-165.995 34.0163,-173.748"/>
<polygon fill="black" stroke="black" points="30.5251,-174.003 34.5943,-183.785 37.5135,-173.601 30.5251,-174.003"/>
<text text-anchor="middle" x="39.5" y="-154.3" font-family="Times,serif" font-size="14.00">a</text>
</g>
<!-- 3&#45;&gt;1 -->
<g id="edge7" class="edge"><title>3&#45;&gt;1</title>
<path fill="none" stroke="black" d="M47.279,-96.9098C42.9263,-84.6677 36.8135,-67.4754 31.5787,-52.7526"/>
<polygon fill="black" stroke="black" points="34.7752,-51.2951 28.1273,-43.0455 28.1797,-53.6402 34.7752,-51.2951"/>
<text text-anchor="middle" x="42.5" y="-66.3" font-family="Times,serif" font-size="14.00">b</text>
</g>
</g>
</svg>
