<?xml version="1.0" encoding="UTF-8" standalone="no"?>
<!DOCTYPE svg PUBLIC "-//W3C//DTD SVG 1.1//EN"
 "http://www.w3.org/Graphics/SVG/1.1/DTD/svg11.dtd">
<!-- Generated by graphviz version 2.36.0 (20140111.2315)
 -->
<!-- Title: %3 Pages: 1 -->
<svg width="156pt" height="316pt"
 viewBox="0.00 0.00 156.00 316.00" xmlns="http://www.w3.org/2000/svg" xmlns:xlink="http://www.w3.org/1999/xlink">
<g id="graph0" class="graph" transform="scale(1 1) rotate(0) translate(4 312)">
<title>%3</title>
<polygon fill="white" stroke="none" points="-4,4 -4,-312 152,-312 152,4 -4,4"/>
<!-- 0 -->
<g id="node1" class="node"><title>0</title>
<ellipse fill="lightblue" stroke="black" cx="76" cy="-202" rx="18" ry="18"/>
<text text-anchor="middle" x="76" y="-198.3" font-family="Times,serif" font-size="14.00">0</text>
</g>
<!-- 0&#45;&gt;0 -->
<g id="edge1" class="edge"><title>0&#45;&gt;0</title>
<path fill="none" stroke="black" d="M92.2903,-209.668C102.389,-211.517 112,-208.961 112,-202 112,-197.541 108.056,-194.889 102.566,-194.045"/>
<polygon fill="black" stroke="black" points="102.189,-190.554 92.2903,-194.332 102.384,-197.552 102.189,-190.554"/>
<text text-anchor="middle" x="115.5" y="-198.3" font-family="Times,serif" font-size="14.00">a</text>
</g>
<!-- 4 -->
<g id="node5" class="node"><title>4</title>
<ellipse fill="lightblue" stroke="black" cx="76" cy="-114" rx="18" ry="18"/>
<text text-anchor="middle" x="76" y="-110.3" font-family="Times,serif" font-size="14.00">4</text>
</g>
<!-- 0&#45;&gt;4 -->
<g id="edge2" class="edge"><title>0&#45;&gt;4</title>
<path fill="none" stroke="black" d="M76,-183.597C76,-171.746 76,-155.817 76,-142.292"/>
<polygon fill="black" stroke="black" points="79.5001,-142.084 76,-132.084 72.5001,-142.084 79.5001,-142.084"/>
<text text-anchor="middle" x="79.5" y="-154.3" font-family="Times,serif" font-size="14.00">b</text>
</g>
<!-- 1 -->
<g id="node2" class="node"><title>1</title>
<ellipse fill="green" stroke="black" cx="130" cy="-290" rx="18" ry="18"/>
<text text-anchor="middle" x="130" y="-286.3" font-family="Times,serif" font-size="14.00">1</text>
</g>
<!-- 1&#45;&gt;0 -->
<g id="edge3" class="edge"><title>1&#45;&gt;0</title>
<path fill="none" stroke="black" d="M120.84,-274.411C112.616,-261.315 100.397,-241.855 90.7902,-226.555"/>
<polygon fill="black" stroke="black" points="93.4871,-224.268 85.2053,-217.66 87.5589,-227.99 93.4871,-224.268"/>
<text text-anchor="middle" x="110.5" y="-242.3" font-family="Times,serif" font-size="14.00">b</text>
</g>
<!-- 1&#45;&gt;4 -->
<g id="edge4" class="edge"><title>1&#45;&gt;4</title>
<path fill="none" stroke="black" d="M132.801,-272.079C135.619,-250.852 138.234,-213.643 128,-184 121.433,-164.978 107.468,-146.944 95.6627,-134.086"/>
<polygon fill="black" stroke="black" points="98.1195,-131.591 88.6767,-126.786 93.0624,-136.431 98.1195,-131.591"/>
<text text-anchor="middle" x="137.5" y="-198.3" font-family="Times,serif" font-size="14.00">a</text>
</g>
<!-- 2 -->
<g id="node3" class="node"><title>2</title>
<ellipse fill="lightblue" stroke="black" cx="46" cy="-22" rx="17.5909" ry="18"/>
<ellipse fill="none" stroke="black" cx="46" cy="-22" rx="21.5" ry="22"/>
<text text-anchor="middle" x="46" y="-18.3" font-family="Times,serif" font-size="14.00">2</text>
</g>
<!-- 2&#45;&gt;4 -->
<g id="edge5" class="edge"><title>2&#45;&gt;4</title>
<path fill="none" stroke="black" d="M52.7279,-43.1837C57.0388,-56.1164 62.6759,-73.0278 67.3224,-86.9672"/>
<polygon fill="black" stroke="black" points="64.0148,-88.1126 70.4975,-96.4926 70.6556,-85.899 64.0148,-88.1126"/>
<text text-anchor="middle" x="72.5" y="-66.3" font-family="Times,serif" font-size="14.00">b,a</text>
</g>
<!-- 3 -->
<g id="node4" class="node"><title>3</title>
<ellipse fill="lightblue" stroke="black" cx="18" cy="-202" rx="18" ry="18"/>
<text text-anchor="middle" x="18" y="-198.3" font-family="Times,serif" font-size="14.00">3</text>
</g>
<!-- 3&#45;&gt;2 -->
<g id="edge6" class="edge"><title>3&#45;&gt;2</title>
<path fill="none" stroke="black" d="M20.6848,-183.933C25.4016,-153.947 35.2368,-91.4231 41.1638,-53.7441"/>
<polygon fill="black" stroke="black" points="44.6279,-54.2457 42.7244,-43.8232 37.7129,-53.1579 44.6279,-54.2457"/>
<text text-anchor="middle" x="38.5" y="-110.3" font-family="Times,serif" font-size="14.00">b</text>
</g>
<!-- 3&#45;&gt;4 -->
<g id="edge7" class="edge"><title>3&#45;&gt;4</title>
<path fill="none" stroke="black" d="M27.8389,-186.411C36.8086,-173.111 50.205,-153.248 60.5935,-137.844"/>
<polygon fill="black" stroke="black" points="63.6167,-139.621 66.3064,-129.373 57.8132,-135.707 63.6167,-139.621"/>
<text text-anchor="middle" x="56.5" y="-154.3" font-family="Times,serif" font-size="14.00">a</text>
</g>
<!-- 4&#45;&gt;0 -->
<g id="edge8" class="edge"><title>4&#45;&gt;0</title>
<path fill="none" stroke="black" d="M80.5979,-131.603C81.9822,-137.378 83.3151,-143.93 84,-150 84.7973,-157.066 84.7973,-158.934 84,-166 83.6897,-168.75 83.2463,-171.6 82.7253,-174.431"/>
<polygon fill="black" stroke="black" points="79.2628,-173.886 80.5979,-184.397 86.1086,-175.348 79.2628,-173.886"/>
<text text-anchor="middle" x="88.5" y="-154.3" font-family="Times,serif" font-size="14.00">b</text>
</g>
<!-- 4&#45;&gt;2 -->
<g id="edge9" class="edge"><title>4&#45;&gt;2</title>
<path fill="none" stroke="black" d="M63.671,-100.853C58.1373,-94.588 52.1543,-86.4886 49,-78 46.2207,-70.5207 44.9345,-62.0743 44.4632,-54.0856"/>
<polygon fill="black" stroke="black" points="47.9601,-53.8935 44.2561,-43.9673 40.9616,-54.0368 47.9601,-53.8935"/>
<text text-anchor="middle" x="52.5" y="-66.3" font-family="Times,serif" font-size="14.00">a</text>
</g>
</g>
</svg>
