<?xml version="1.0" encoding="UTF-8" standalone="no"?>
<!DOCTYPE svg PUBLIC "-//W3C//DTD SVG 1.1//EN"
 "http://www.w3.org/Graphics/SVG/1.1/DTD/svg11.dtd">
<!-- Generated by graphviz version 2.36.0 (20140111.2315)
 -->
<!-- Title: %3 Pages: 1 -->
<svg width="202pt" height="228pt"
 viewBox="0.00 0.00 202.00 228.00" xmlns="http://www.w3.org/2000/svg" xmlns:xlink="http://www.w3.org/1999/xlink">
<g id="graph0" class="graph" transform="scale(1 1) rotate(0) translate(4 224)">
<title>%3</title>
<polygon fill="white" stroke="none" points="-4,4 -4,-224 198,-224 198,4 -4,4"/>
<!-- 0 -->
<g id="node1" class="node"><title>0</title>
<ellipse fill="lightblue" stroke="black" cx="74" cy="-198" rx="17.5909" ry="18"/>
<ellipse fill="none" stroke="black" cx="74" cy="-198" rx="21.5" ry="22"/>
<text text-anchor="middle" x="74" y="-194.3" font-family="Times,serif" font-size="14.00">0</text>
</g>
<!-- 2 -->
<g id="node3" class="node"><title>2</title>
<ellipse fill="lightblue" stroke="black" cx="18" cy="-106" rx="18" ry="18"/>
<text text-anchor="middle" x="18" y="-102.3" font-family="Times,serif" font-size="14.00">2</text>
</g>
<!-- 0&#45;&gt;2 -->
<g id="edge1" class="edge"><title>0&#45;&gt;2</title>
<path fill="none" stroke="black" d="M55.1399,-186.435C44.8532,-179.663 32.8532,-169.913 26,-158 21.8982,-150.87 19.7093,-142.297 18.5888,-134.232"/>
<polygon fill="black" stroke="black" points="22.0573,-133.727 17.6604,-124.087 15.0864,-134.365 22.0573,-133.727"/>
<text text-anchor="middle" x="29.5" y="-146.3" font-family="Times,serif" font-size="14.00">a</text>
</g>
<!-- 3 -->
<g id="node4" class="node"><title>3</title>
<ellipse fill="green" stroke="black" cx="97" cy="-106" rx="18" ry="18"/>
<text text-anchor="middle" x="97" y="-102.3" font-family="Times,serif" font-size="14.00">3</text>
</g>
<!-- 0&#45;&gt;3 -->
<g id="edge2" class="edge"><title>0&#45;&gt;3</title>
<path fill="none" stroke="black" d="M79.2191,-176.578C82.472,-163.849 86.6922,-147.335 90.2048,-133.59"/>
<polygon fill="black" stroke="black" points="93.6402,-134.283 92.7253,-123.727 86.8582,-132.549 93.6402,-134.283"/>
<text text-anchor="middle" x="91.5" y="-146.3" font-family="Times,serif" font-size="14.00">b</text>
</g>
<!-- 1 -->
<g id="node2" class="node"><title>1</title>
<ellipse fill="lightblue" stroke="black" cx="151" cy="-18" rx="18" ry="18"/>
<text text-anchor="middle" x="151" y="-14.3" font-family="Times,serif" font-size="14.00">1</text>
</g>
<!-- 1&#45;&gt;0 -->
<g id="edge3" class="edge"><title>1&#45;&gt;0</title>
<path fill="none" stroke="black" d="M154.461,-35.8285C158.047,-57.2823 161.543,-95.0592 149,-124 138.94,-147.21 117.641,-166.765 100.302,-179.776"/>
<polygon fill="black" stroke="black" points="98.2473,-176.943 92.1752,-185.625 102.336,-182.625 98.2473,-176.943"/>
<text text-anchor="middle" x="161.5" y="-102.3" font-family="Times,serif" font-size="14.00">a</text>
</g>
<!-- 1&#45;&gt;1 -->
<g id="edge4" class="edge"><title>1&#45;&gt;1</title>
<path fill="none" stroke="black" d="M167.29,-25.6679C177.389,-27.5169 187,-24.9609 187,-18 187,-13.5406 183.056,-10.8891 177.566,-10.0454"/>
<polygon fill="black" stroke="black" points="177.189,-6.55441 167.29,-10.3321 177.384,-13.5517 177.189,-6.55441"/>
<text text-anchor="middle" x="190.5" y="-14.3" font-family="Times,serif" font-size="14.00">b</text>
</g>
<!-- 2&#45;&gt;0 -->
<g id="edge5" class="edge"><title>2&#45;&gt;0</title>
<path fill="none" stroke="black" d="M27.0986,-121.623C35.2096,-134.658 47.29,-154.073 57.1591,-169.934"/>
<polygon fill="black" stroke="black" points="54.4128,-172.146 62.6676,-178.787 60.3562,-168.448 54.4128,-172.146"/>
<text text-anchor="middle" x="53.5" y="-146.3" font-family="Times,serif" font-size="14.00">a</text>
</g>
<!-- 2&#45;&gt;2 -->
<g id="edge6" class="edge"><title>2&#45;&gt;2</title>
<path fill="none" stroke="black" d="M34.2903,-113.668C44.3892,-115.517 54,-112.961 54,-106 54,-101.541 50.0557,-98.8891 44.5656,-98.0454"/>
<polygon fill="black" stroke="black" points="44.1887,-94.5544 34.2903,-98.3321 44.384,-101.552 44.1887,-94.5544"/>
<text text-anchor="middle" x="57.5" y="-102.3" font-family="Times,serif" font-size="14.00">b</text>
</g>
<!-- 3&#45;&gt;1 -->
<g id="edge7" class="edge"><title>3&#45;&gt;1</title>
<path fill="none" stroke="black" d="M106.16,-90.4113C114.384,-77.315 126.603,-57.8546 136.21,-42.5548"/>
<polygon fill="black" stroke="black" points="139.441,-43.9904 141.795,-33.6603 133.513,-40.268 139.441,-43.9904"/>
<text text-anchor="middle" x="132.5" y="-58.3" font-family="Times,serif" font-size="14.00">b</text>
</g>
<!-- 3&#45;&gt;3 -->
<g id="edge8" class="edge"><title>3&#45;&gt;3</title>
<path fill="none" stroke="black" d="M113.29,-113.668C123.389,-115.517 133,-112.961 133,-106 133,-101.541 129.056,-98.8891 123.566,-98.0454"/>
<polygon fill="black" stroke="black" points="123.189,-94.5544 113.29,-98.3321 123.384,-101.552 123.189,-94.5544"/>
<text text-anchor="middle" x="136.5" y="-102.3" font-family="Times,serif" font-size="14.00">a</text>
</g>
</g>
</svg>
