<?xml version="1.0" encoding="UTF-8" standalone="no"?>
<!DOCTYPE svg PUBLIC "-//W3C//DTD SVG 1.1//EN"
 "http://www.w3.org/Graphics/SVG/1.1/DTD/svg11.dtd">
<!-- Generated by graphviz version 2.36.0 (20140111.2315)
 -->
<!-- Title: %3 Pages: 1 -->
<svg width="127pt" height="404pt"
 viewBox="0.00 0.00 127.00 404.00" xmlns="http://www.w3.org/2000/svg" xmlns:xlink="http://www.w3.org/1999/xlink">
<g id="graph0" class="graph" transform="scale(1 1) rotate(0) translate(4 400)">
<title>%3</title>
<polygon fill="white" stroke="none" points="-4,4 -4,-400 123,-400 123,4 -4,4"/>
<!-- 0 -->
<g id="node1" class="node"><title>0</title>
<ellipse fill="lightblue" stroke="black" cx="51" cy="-202" rx="18" ry="18"/>
<text text-anchor="middle" x="51" y="-198.3" font-family="Times,serif" font-size="14.00">0</text>
</g>
<!-- 1 -->
<g id="node2" class="node"><title>1</title>
<ellipse fill="lightblue" stroke="black" cx="18" cy="-114" rx="18" ry="18"/>
<text text-anchor="middle" x="18" y="-110.3" font-family="Times,serif" font-size="14.00">1</text>
</g>
<!-- 0&#45;&gt;1 -->
<g id="edge1" class="edge"><title>0&#45;&gt;1</title>
<path fill="none" stroke="black" d="M35.4798,-192.127C26.5106,-186.051 16.0331,-177.092 11,-166 7.42934,-158.131 7.55438,-148.931 9.09283,-140.528"/>
<polygon fill="black" stroke="black" points="12.4909,-141.366 11.517,-130.816 5.69928,-139.671 12.4909,-141.366"/>
<text text-anchor="middle" x="19.5" y="-154.3" font-family="Times,serif" font-size="14.00">b,a</text>
</g>
<!-- 1&#45;&gt;0 -->
<g id="edge2" class="edge"><title>1&#45;&gt;0</title>
<path fill="none" stroke="black" d="M24.1792,-131.103C28.9654,-143.576 35.6875,-161.095 41.2046,-175.472"/>
<polygon fill="black" stroke="black" points="37.9427,-176.742 44.793,-184.824 44.4781,-174.234 37.9427,-176.742"/>
<text text-anchor="middle" x="40.5" y="-154.3" font-family="Times,serif" font-size="14.00">b</text>
</g>
<!-- 3 -->
<g id="node4" class="node"><title>3</title>
<ellipse fill="lightblue" stroke="black" cx="72" cy="-22" rx="17.5909" ry="18"/>
<ellipse fill="none" stroke="black" cx="72" cy="-22" rx="21.5" ry="22"/>
<text text-anchor="middle" x="72" y="-18.3" font-family="Times,serif" font-size="14.00">3</text>
</g>
<!-- 1&#45;&gt;3 -->
<g id="edge3" class="edge"><title>1&#45;&gt;3</title>
<path fill="none" stroke="black" d="M26.917,-98.1383C34.7299,-85.1168 46.2815,-65.8641 55.7355,-50.1075"/>
<polygon fill="black" stroke="black" points="58.8716,-51.6834 61.0153,-41.3078 52.8691,-48.0819 58.8716,-51.6834"/>
<text text-anchor="middle" x="51.5" y="-66.3" font-family="Times,serif" font-size="14.00">a</text>
</g>
<!-- 2 -->
<g id="node3" class="node"><title>2</title>
<ellipse fill="lightblue" stroke="black" cx="94" cy="-290" rx="18" ry="18"/>
<text text-anchor="middle" x="94" y="-286.3" font-family="Times,serif" font-size="14.00">2</text>
</g>
<!-- 2&#45;&gt;0 -->
<g id="edge4" class="edge"><title>2&#45;&gt;0</title>
<path fill="none" stroke="black" d="M86.3125,-273.625C79.9316,-260.863 70.7361,-242.472 63.3282,-227.656"/>
<polygon fill="black" stroke="black" points="66.3687,-225.911 58.766,-218.532 60.1077,-229.041 66.3687,-225.911"/>
<text text-anchor="middle" x="79.5" y="-242.3" font-family="Times,serif" font-size="14.00">b</text>
</g>
<!-- 2&#45;&gt;3 -->
<g id="edge5" class="edge"><title>2&#45;&gt;3</title>
<path fill="none" stroke="black" d="M93.7645,-271.835C93.0636,-233.854 90.3385,-139.891 80,-62 79.6374,-59.2679 79.1936,-56.4407 78.7028,-53.6143"/>
<polygon fill="black" stroke="black" points="82.095,-52.7182 76.78,-43.553 75.2194,-54.0323 82.095,-52.7182"/>
<text text-anchor="middle" x="92.5" y="-154.3" font-family="Times,serif" font-size="14.00">a</text>
</g>
<!-- 3&#45;&gt;0 -->
<g id="edge6" class="edge"><title>3&#45;&gt;0</title>
<path fill="none" stroke="black" d="M69.5099,-44.1069C65.698,-76.4168 58.4171,-138.132 54.2124,-173.771"/>
<polygon fill="black" stroke="black" points="50.7094,-173.591 53.0136,-183.933 57.6612,-174.412 50.7094,-173.591"/>
<text text-anchor="middle" x="66.5" y="-110.3" font-family="Times,serif" font-size="14.00">a</text>
</g>
<!-- 3&#45;&gt;3 -->
<g id="edge7" class="edge"><title>3&#45;&gt;3</title>
<path fill="none" stroke="black" d="M92.0663,-30.7341C102.074,-31.9426 111,-29.0312 111,-22 111,-17.4956 107.337,-14.682 102.072,-13.5592"/>
<polygon fill="black" stroke="black" points="102.165,-10.0605 92.0663,-13.2659 101.959,-17.0575 102.165,-10.0605"/>
<text text-anchor="middle" x="114.5" y="-18.3" font-family="Times,serif" font-size="14.00">b</text>
</g>
<!-- 4 -->
<g id="node5" class="node"><title>4</title>
<ellipse fill="green" stroke="black" cx="70" cy="-378" rx="18" ry="18"/>
<text text-anchor="middle" x="70" y="-374.3" font-family="Times,serif" font-size="14.00">4</text>
</g>
<!-- 4&#45;&gt;0 -->
<g id="edge8" class="edge"><title>4&#45;&gt;0</title>
<path fill="none" stroke="black" d="M67.2572,-360.022C65.0724,-346.078 62.0506,-325.797 60,-308 56.9683,-281.688 54.4874,-251.557 52.9038,-230.341"/>
<polygon fill="black" stroke="black" points="56.377,-229.845 52.1593,-220.126 49.3955,-230.354 56.377,-229.845"/>
<text text-anchor="middle" x="63.5" y="-286.3" font-family="Times,serif" font-size="14.00">b</text>
</g>
<!-- 4&#45;&gt;2 -->
<g id="edge9" class="edge"><title>4&#45;&gt;2</title>
<path fill="none" stroke="black" d="M74.6274,-360.418C78.0472,-348.164 82.7713,-331.236 86.6983,-317.165"/>
<polygon fill="black" stroke="black" points="90.0699,-318.104 89.3868,-307.531 83.3275,-316.222 90.0699,-318.104"/>
<text text-anchor="middle" x="87.5" y="-330.3" font-family="Times,serif" font-size="14.00">a</text>
</g>
</g>
</svg>
