<?xml version="1.0" encoding="UTF-8" standalone="no"?>
<!DOCTYPE svg PUBLIC "-//W3C//DTD SVG 1.1//EN"
 "http://www.w3.org/Graphics/SVG/1.1/DTD/svg11.dtd">
<!-- Generated by graphviz version 2.36.0 (20140111.2315)
 -->
<!-- Title: %3 Pages: 1 -->
<svg width="162pt" height="316pt"
 viewBox="0.00 0.00 162.04 316.00" xmlns="http://www.w3.org/2000/svg" xmlns:xlink="http://www.w3.org/1999/xlink">
<g id="graph0" class="graph" transform="scale(1 1) rotate(0) translate(4 312)">
<title>%3</title>
<polygon fill="white" stroke="none" points="-4,4 -4,-312 158.035,-312 158.035,4 -4,4"/>
<!-- 0 -->
<g id="node1" class="node"><title>0</title>
<ellipse fill="lightblue" stroke="black" cx="48.0354" cy="-202" rx="18" ry="18"/>
<text text-anchor="middle" x="48.0354" y="-198.3" font-family="Times,serif" font-size="14.00">0</text>
</g>
<!-- 1 -->
<g id="node2" class="node"><title>1</title>
<ellipse fill="lightblue" stroke="black" cx="93.0354" cy="-114" rx="18" ry="18"/>
<text text-anchor="middle" x="93.0354" y="-110.3" font-family="Times,serif" font-size="14.00">1</text>
</g>
<!-- 0&#45;&gt;1 -->
<g id="edge1" class="edge"><title>0&#45;&gt;1</title>
<path fill="none" stroke="black" d="M58.8317,-187.547C63.5752,-181.242 68.9767,-173.483 73.0354,-166 77.2907,-158.155 81.1138,-149.208 84.2497,-141.021"/>
<polygon fill="black" stroke="black" points="87.5703,-142.132 87.7169,-131.538 80.9959,-139.728 87.5703,-142.132"/>
<text text-anchor="middle" x="83.5354" y="-154.3" font-family="Times,serif" font-size="14.00">a</text>
</g>
<!-- 2 -->
<g id="node3" class="node"><title>2</title>
<ellipse fill="lightblue" stroke="black" cx="65.0354" cy="-22" rx="17.5909" ry="18"/>
<ellipse fill="none" stroke="black" cx="65.0354" cy="-22" rx="21.5" ry="22"/>
<text text-anchor="middle" x="65.0354" y="-18.3" font-family="Times,serif" font-size="14.00">2</text>
</g>
<!-- 0&#45;&gt;2 -->
<g id="edge2" class="edge"><title>0&#45;&gt;2</title>
<path fill="none" stroke="black" d="M35.6686,-188.42C29.8353,-182.051 23.0682,-173.991 18.0354,-166 1.07896,-139.077 -3.52711,-127.133 3.03539,-96 6.44197,-79.8388 8.08173,-75.1801 18.0354,-62 23.9481,-54.1707 31.7269,-46.906 39.2503,-40.8206"/>
<polygon fill="black" stroke="black" points="41.4112,-43.5741 47.2134,-34.7093 37.1494,-38.021 41.4112,-43.5741"/>
<text text-anchor="middle" x="6.53539" y="-110.3" font-family="Times,serif" font-size="14.00">b</text>
</g>
<!-- 1&#45;&gt;0 -->
<g id="edge3" class="edge"><title>1&#45;&gt;0</title>
<path fill="none" stroke="black" d="M82.2391,-128.453C77.4956,-134.758 72.0941,-142.517 68.0354,-150 63.78,-157.845 59.957,-166.792 56.821,-174.979"/>
<polygon fill="black" stroke="black" points="53.5004,-173.868 53.3538,-184.462 60.0748,-176.272 53.5004,-173.868"/>
<text text-anchor="middle" x="71.5354" y="-154.3" font-family="Times,serif" font-size="14.00">a</text>
</g>
<!-- 1&#45;&gt;2 -->
<g id="edge4" class="edge"><title>1&#45;&gt;2</title>
<path fill="none" stroke="black" d="M87.8998,-96.4926C84.1028,-84.2881 78.828,-67.3335 74.3016,-52.7842"/>
<polygon fill="black" stroke="black" points="77.6275,-51.6926 71.3148,-43.1837 70.9435,-53.7721 77.6275,-51.6926"/>
<text text-anchor="middle" x="84.5354" y="-66.3" font-family="Times,serif" font-size="14.00">b</text>
</g>
<!-- 2&#45;&gt;0 -->
<g id="edge5" class="edge"><title>2&#45;&gt;0</title>
<path fill="none" stroke="black" d="M62.1771,-44.0311C61.4309,-49.8463 60.6613,-56.1629 60.0354,-62 55.8864,-100.696 52.2185,-145.572 50.0621,-173.629"/>
<polygon fill="black" stroke="black" points="46.5526,-173.623 49.2857,-183.859 53.5325,-174.152 46.5526,-173.623"/>
<text text-anchor="middle" x="59.5354" y="-110.3" font-family="Times,serif" font-size="14.00">b</text>
</g>
<!-- 2&#45;&gt;1 -->
<g id="edge6" class="edge"><title>2&#45;&gt;1</title>
<path fill="none" stroke="black" d="M63.457,-44.1696C63.3555,-54.6223 64.2686,-67.2618 68.0354,-78 69.7084,-82.7695 72.2445,-87.4637 75.0703,-91.7889"/>
<polygon fill="black" stroke="black" points="72.3757,-94.0343 81.0937,-100.055 78.0331,-89.9118 72.3757,-94.0343"/>
<text text-anchor="middle" x="71.5354" y="-66.3" font-family="Times,serif" font-size="14.00">a</text>
</g>
<!-- 3 -->
<g id="node4" class="node"><title>3</title>
<ellipse fill="lightblue" stroke="black" cx="136.035" cy="-202" rx="18" ry="18"/>
<text text-anchor="middle" x="136.035" y="-198.3" font-family="Times,serif" font-size="14.00">3</text>
</g>
<!-- 3&#45;&gt;1 -->
<g id="edge7" class="edge"><title>3&#45;&gt;1</title>
<path fill="none" stroke="black" d="M128.348,-185.625C121.967,-172.863 112.771,-154.472 105.364,-139.656"/>
<polygon fill="black" stroke="black" points="108.404,-137.911 100.801,-130.532 102.143,-141.041 108.404,-137.911"/>
<text text-anchor="middle" x="121.535" y="-154.3" font-family="Times,serif" font-size="14.00">a</text>
</g>
<!-- 3&#45;&gt;2 -->
<g id="edge8" class="edge"><title>3&#45;&gt;2</title>
<path fill="none" stroke="black" d="M136.038,-183.918C135.467,-162.525 132.544,-125.145 120.035,-96 112.106,-77.5244 98.5526,-59.4552 86.885,-45.9158"/>
<polygon fill="black" stroke="black" points="89.1956,-43.2477 79.931,-38.1079 83.9682,-47.9034 89.1956,-43.2477"/>
<text text-anchor="middle" x="133.535" y="-110.3" font-family="Times,serif" font-size="14.00">b</text>
</g>
<!-- 4 -->
<g id="node5" class="node"><title>4</title>
<ellipse fill="green" stroke="black" cx="48.0354" cy="-290" rx="18" ry="18"/>
<text text-anchor="middle" x="48.0354" y="-286.3" font-family="Times,serif" font-size="14.00">4</text>
</g>
<!-- 4&#45;&gt;0 -->
<g id="edge9" class="edge"><title>4&#45;&gt;0</title>
<path fill="none" stroke="black" d="M48.0354,-271.597C48.0354,-259.746 48.0354,-243.817 48.0354,-230.292"/>
<polygon fill="black" stroke="black" points="51.5355,-230.084 48.0354,-220.084 44.5355,-230.084 51.5355,-230.084"/>
<text text-anchor="middle" x="56.5354" y="-242.3" font-family="Times,serif" font-size="14.00">b,a</text>
</g>
</g>
</svg>
