<?xml version="1.0" encoding="UTF-8" standalone="no"?>
<!DOCTYPE svg PUBLIC "-//W3C//DTD SVG 1.1//EN"
 "http://www.w3.org/Graphics/SVG/1.1/DTD/svg11.dtd">
<!-- Generated by graphviz version 2.36.0 (20140111.2315)
 -->
<!-- Title: %3 Pages: 1 -->
<svg width="176pt" height="316pt"
 viewBox="0.00 0.00 176.00 316.00" xmlns="http://www.w3.org/2000/svg" xmlns:xlink="http://www.w3.org/1999/xlink">
<g id="graph0" class="graph" transform="scale(1 1) rotate(0) translate(4 312)">
<title>%3</title>
<polygon fill="white" stroke="none" points="-4,4 -4,-312 172,-312 172,4 -4,4"/>
<!-- 0 -->
<g id="node1" class="node"><title>0</title>
<ellipse fill="lightblue" stroke="black" cx="53" cy="-286" rx="18" ry="18"/>
<text text-anchor="middle" x="53" y="-282.3" font-family="Times,serif" font-size="14.00">0</text>
</g>
<!-- 1 -->
<g id="node2" class="node"><title>1</title>
<ellipse fill="lightblue" stroke="black" cx="18" cy="-194" rx="18" ry="18"/>
<text text-anchor="middle" x="18" y="-190.3" font-family="Times,serif" font-size="14.00">1</text>
</g>
<!-- 0&#45;&gt;1 -->
<g id="edge1" class="edge"><title>0&#45;&gt;1</title>
<path fill="none" stroke="black" d="M38.2156,-274.947C29.3655,-267.984 18.9102,-257.854 14,-246 10.8806,-238.469 10.5121,-229.783 11.3229,-221.737"/>
<polygon fill="black" stroke="black" points="14.8079,-222.11 12.936,-211.682 7.89621,-221.001 14.8079,-222.11"/>
<text text-anchor="middle" x="22.5" y="-234.3" font-family="Times,serif" font-size="14.00">b,a</text>
</g>
<!-- 1&#45;&gt;0 -->
<g id="edge2" class="edge"><title>1&#45;&gt;0</title>
<path fill="none" stroke="black" d="M24.2031,-210.951C29.413,-224.348 36.9557,-243.743 43.0147,-259.324"/>
<polygon fill="black" stroke="black" points="39.8562,-260.858 46.7427,-268.91 46.3802,-258.321 39.8562,-260.858"/>
<text text-anchor="middle" x="40.5" y="-234.3" font-family="Times,serif" font-size="14.00">b</text>
</g>
<!-- 4 -->
<g id="node5" class="node"><title>4</title>
<ellipse fill="green" stroke="black" cx="26" cy="-106" rx="18" ry="18"/>
<text text-anchor="middle" x="26" y="-102.3" font-family="Times,serif" font-size="14.00">4</text>
</g>
<!-- 1&#45;&gt;4 -->
<g id="edge3" class="edge"><title>1&#45;&gt;4</title>
<path fill="none" stroke="black" d="M14.5983,-175.91C13.1311,-165.963 12.1311,-153.213 14,-142 14.5217,-138.87 15.2891,-135.644 16.1877,-132.476"/>
<polygon fill="black" stroke="black" points="19.5891,-133.335 19.3664,-122.742 12.9349,-131.162 19.5891,-133.335"/>
<text text-anchor="middle" x="17.5" y="-146.3" font-family="Times,serif" font-size="14.00">a</text>
</g>
<!-- 2 -->
<g id="node3" class="node"><title>2</title>
<ellipse fill="lightblue" stroke="black" cx="53" cy="-18" rx="18" ry="18"/>
<text text-anchor="middle" x="53" y="-14.3" font-family="Times,serif" font-size="14.00">2</text>
</g>
<!-- 2&#45;&gt;0 -->
<g id="edge4" class="edge"><title>2&#45;&gt;0</title>
<path fill="none" stroke="black" d="M53,-36.2465C53,-81.3175 53,-202.909 53,-257.642"/>
<polygon fill="black" stroke="black" points="49.5001,-257.956 53,-267.956 56.5001,-257.956 49.5001,-257.956"/>
<text text-anchor="middle" x="56.5" y="-146.3" font-family="Times,serif" font-size="14.00">b</text>
</g>
<!-- 2&#45;&gt;4 -->
<g id="edge5" class="edge"><title>2&#45;&gt;4</title>
<path fill="none" stroke="black" d="M47.8101,-35.5308C43.9669,-47.7721 38.6531,-64.6975 34.2328,-78.777"/>
<polygon fill="black" stroke="black" points="30.862,-77.8291 31.2059,-88.4183 37.5406,-79.9259 30.862,-77.8291"/>
<text text-anchor="middle" x="44.5" y="-58.3" font-family="Times,serif" font-size="14.00">a</text>
</g>
<!-- 3 -->
<g id="node4" class="node"><title>3</title>
<ellipse fill="lightblue" stroke="black" cx="111" cy="-286" rx="17.5909" ry="18"/>
<ellipse fill="none" stroke="black" cx="111" cy="-286" rx="21.5" ry="22"/>
<text text-anchor="middle" x="111" y="-282.3" font-family="Times,serif" font-size="14.00">3</text>
</g>
<!-- 3&#45;&gt;3 -->
<g id="edge6" class="edge"><title>3&#45;&gt;3</title>
<path fill="none" stroke="black" d="M131.066,-294.734C141.074,-295.943 150,-293.031 150,-286 150,-281.496 146.337,-278.682 141.072,-277.559"/>
<polygon fill="black" stroke="black" points="141.165,-274.061 131.066,-277.266 140.959,-281.057 141.165,-274.061"/>
<text text-anchor="middle" x="158.5" y="-282.3" font-family="Times,serif" font-size="14.00">b,a</text>
</g>
<!-- 4&#45;&gt;1 -->
<g id="edge7" class="edge"><title>4&#45;&gt;1</title>
<path fill="none" stroke="black" d="M24.4227,-123.956C23.3169,-135.844 21.8146,-151.993 20.541,-165.684"/>
<polygon fill="black" stroke="black" points="17.0219,-165.728 19.5805,-176.009 23.9918,-166.376 17.0219,-165.728"/>
<text text-anchor="middle" x="25.5" y="-146.3" font-family="Times,serif" font-size="14.00">b</text>
</g>
<!-- 4&#45;&gt;2 -->
<g id="edge8" class="edge"><title>4&#45;&gt;2</title>
<path fill="none" stroke="black" d="M23.3009,-88.0153C22.3441,-77.8761 22.2861,-64.8948 26,-54 27.7805,-48.7768 30.691,-43.7265 33.9562,-39.164"/>
<polygon fill="black" stroke="black" points="36.924,-41.0588 40.4684,-31.0744 31.4713,-36.6693 36.924,-41.0588"/>
<text text-anchor="middle" x="29.5" y="-58.3" font-family="Times,serif" font-size="14.00">a</text>
</g>
</g>
</svg>
