<?xml version="1.0" encoding="UTF-8" standalone="no"?>
<!DOCTYPE svg PUBLIC "-//W3C//DTD SVG 1.1//EN"
 "http://www.w3.org/Graphics/SVG/1.1/DTD/svg11.dtd">
<!-- Generated by graphviz version 2.36.0 (20140111.2315)
 -->
<!-- Title: %3 Pages: 1 -->
<svg width="170pt" height="316pt"
 viewBox="0.00 0.00 169.89 316.00" xmlns="http://www.w3.org/2000/svg" xmlns:xlink="http://www.w3.org/1999/xlink">
<g id="graph0" class="graph" transform="scale(1 1) rotate(0) translate(4 312)">
<title>%3</title>
<polygon fill="white" stroke="none" points="-4,4 -4,-312 165.89,-312 165.89,4 -4,4"/>
<!-- 0 -->
<g id="node1" class="node"><title>0</title>
<ellipse fill="lightblue" stroke="black" cx="48.8904" cy="-290" rx="18" ry="18"/>
<text text-anchor="middle" x="48.8904" y="-286.3" font-family="Times,serif" font-size="14.00">0</text>
</g>
<!-- 1 -->
<g id="node2" class="node"><title>1</title>
<ellipse fill="lightblue" stroke="black" cx="75.8904" cy="-202" rx="18" ry="18"/>
<text text-anchor="middle" x="75.8904" y="-198.3" font-family="Times,serif" font-size="14.00">1</text>
</g>
<!-- 0&#45;&gt;1 -->
<g id="edge1" class="edge"><title>0&#45;&gt;1</title>
<path fill="none" stroke="black" d="M54.0963,-272.418C57.9436,-260.164 63.2582,-243.236 67.676,-229.165"/>
<polygon fill="black" stroke="black" points="71.0444,-230.12 70.7006,-219.531 64.3658,-228.023 71.0444,-230.12"/>
<text text-anchor="middle" x="68.3904" y="-242.3" font-family="Times,serif" font-size="14.00">b</text>
</g>
<!-- 2 -->
<g id="node3" class="node"><title>2</title>
<ellipse fill="green" stroke="black" cx="45.8904" cy="-18" rx="18" ry="18"/>
<text text-anchor="middle" x="45.8904" y="-14.3" font-family="Times,serif" font-size="14.00">2</text>
</g>
<!-- 0&#45;&gt;2 -->
<g id="edge2" class="edge"><title>0&#45;&gt;2</title>
<path fill="none" stroke="black" d="M35.302,-278.072C28.397,-271.769 20.5102,-263.268 15.8904,-254 -1.80904,-218.492 4.23569,-205.534 0.890446,-166 -2.67134,-123.907 15.3582,-55.1549 15.8904,-54 18.4653,-48.4124 22.199,-43.0244 26.1634,-38.2201"/>
<polygon fill="black" stroke="black" points="28.7967,-40.5262 32.8891,-30.7536 23.5957,-35.8412 28.7967,-40.5262"/>
<text text-anchor="middle" x="4.39045" y="-154.3" font-family="Times,serif" font-size="14.00">a</text>
</g>
<!-- 1&#45;&gt;1 -->
<g id="edge3" class="edge"><title>1&#45;&gt;1</title>
<path fill="none" stroke="black" d="M92.1807,-209.668C102.28,-211.517 111.89,-208.961 111.89,-202 111.89,-197.541 107.946,-194.889 102.456,-194.045"/>
<polygon fill="black" stroke="black" points="102.079,-190.554 92.1807,-194.332 102.274,-197.552 102.079,-190.554"/>
<text text-anchor="middle" x="115.39" y="-198.3" font-family="Times,serif" font-size="14.00">a</text>
</g>
<!-- 4 -->
<g id="node5" class="node"><title>4</title>
<ellipse fill="lightblue" stroke="black" cx="88.8904" cy="-110" rx="17.5909" ry="18"/>
<ellipse fill="none" stroke="black" cx="88.8904" cy="-110" rx="21.5" ry="22"/>
<text text-anchor="middle" x="88.8904" y="-106.3" font-family="Times,serif" font-size="14.00">4</text>
</g>
<!-- 1&#45;&gt;4 -->
<g id="edge4" class="edge"><title>1&#45;&gt;4</title>
<path fill="none" stroke="black" d="M78.3356,-184.072C80.0354,-172.305 82.351,-156.273 84.3802,-142.225"/>
<polygon fill="black" stroke="black" points="87.8956,-142.369 85.8612,-131.971 80.9675,-141.368 87.8956,-142.369"/>
<text text-anchor="middle" x="86.3904" y="-154.3" font-family="Times,serif" font-size="14.00">b</text>
</g>
<!-- 2&#45;&gt;0 -->
<g id="edge5" class="edge"><title>2&#45;&gt;0</title>
<path fill="none" stroke="black" d="M46.0811,-36.1564C46.5872,-81.7103 47.9683,-206.009 48.5855,-261.551"/>
<polygon fill="black" stroke="black" points="45.0872,-261.739 48.6982,-271.7 52.0868,-261.661 45.0872,-261.739"/>
<text text-anchor="middle" x="51.3904" y="-154.3" font-family="Times,serif" font-size="14.00">b</text>
</g>
<!-- 2&#45;&gt;4 -->
<g id="edge6" class="edge"><title>2&#45;&gt;4</title>
<path fill="none" stroke="black" d="M56.8866,-32.348C61.6705,-38.6322 67.0483,-46.4037 70.8904,-54 74.8235,-61.7761 78.1577,-70.5965 80.8473,-78.8608"/>
<polygon fill="black" stroke="black" points="77.54,-80.0145 83.8054,-88.5583 84.2354,-77.9722 77.54,-80.0145"/>
<text text-anchor="middle" x="80.3904" y="-58.3" font-family="Times,serif" font-size="14.00">a</text>
</g>
<!-- 3 -->
<g id="node4" class="node"><title>3</title>
<ellipse fill="lightblue" stroke="black" cx="134.89" cy="-18" rx="18" ry="18"/>
<text text-anchor="middle" x="134.89" y="-14.3" font-family="Times,serif" font-size="14.00">3</text>
</g>
<!-- 3&#45;&gt;0 -->
<g id="edge7" class="edge"><title>3&#45;&gt;0</title>
<path fill="none" stroke="black" d="M138.547,-35.6624C145.53,-71.4689 157.578,-157.563 127.89,-220 116.332,-244.309 91.784,-263.55 73.0998,-275.471"/>
<polygon fill="black" stroke="black" points="71.1977,-272.531 64.4813,-280.725 74.8416,-278.508 71.1977,-272.531"/>
<text text-anchor="middle" x="153.39" y="-154.3" font-family="Times,serif" font-size="14.00">b,a</text>
</g>
<!-- 4&#45;&gt;2 -->
<g id="edge8" class="edge"><title>4&#45;&gt;2</title>
<path fill="none" stroke="black" d="M77.512,-91.0761C73.5953,-84.5635 69.3328,-77.0668 65.8904,-70 61.9819,-61.9762 58.2514,-52.9817 55.0935,-44.8065"/>
<polygon fill="black" stroke="black" points="58.3402,-43.4959 51.5523,-35.3611 51.7857,-45.9534 58.3402,-43.4959"/>
<text text-anchor="middle" x="69.3904" y="-58.3" font-family="Times,serif" font-size="14.00">a</text>
</g>
<!-- 4&#45;&gt;3 -->
<g id="edge9" class="edge"><title>4&#45;&gt;3</title>
<path fill="none" stroke="black" d="M98.6459,-89.9133C105.569,-76.3686 114.92,-58.0725 122.39,-43.4573"/>
<polygon fill="black" stroke="black" points="125.548,-44.9688 126.983,-34.4716 119.315,-41.783 125.548,-44.9688"/>
<text text-anchor="middle" x="119.39" y="-58.3" font-family="Times,serif" font-size="14.00">b</text>
</g>
</g>
</svg>
