<?xml version="1.0" encoding="UTF-8" standalone="no"?>
<!DOCTYPE svg PUBLIC "-//W3C//DTD SVG 1.1//EN"
 "http://www.w3.org/Graphics/SVG/1.1/DTD/svg11.dtd">
<!-- Generated by graphviz version 2.36.0 (20140111.2315)
 -->
<!-- Title: %3 Pages: 1 -->
<svg width="134pt" height="404pt"
 viewBox="0.00 0.00 134.00 404.00" xmlns="http://www.w3.org/2000/svg" xmlns:xlink="http://www.w3.org/1999/xlink">
<g id="graph0" class="graph" transform="scale(1 1) rotate(0) translate(4 400)">
<title>%3</title>
<polygon fill="white" stroke="none" points="-4,4 -4,-400 130,-400 130,4 -4,4"/>
<!-- 0 -->
<g id="node1" class="node"><title>0</title>
<ellipse fill="lightblue" stroke="black" cx="71" cy="-378" rx="18" ry="18"/>
<text text-anchor="middle" x="71" y="-374.3" font-family="Times,serif" font-size="14.00">0</text>
</g>
<!-- 1 -->
<g id="node2" class="node"><title>1</title>
<ellipse fill="lightblue" stroke="black" cx="71" cy="-290" rx="18" ry="18"/>
<text text-anchor="middle" x="71" y="-286.3" font-family="Times,serif" font-size="14.00">1</text>
</g>
<!-- 0&#45;&gt;1 -->
<g id="edge1" class="edge"><title>0&#45;&gt;1</title>
<path fill="none" stroke="black" d="M64.3664,-361.258C62.201,-355.332 60.0772,-348.463 59,-342 57.8309,-334.986 57.8309,-333.014 59,-326 59.5217,-322.87 60.2891,-319.644 61.1877,-316.476"/>
<polygon fill="black" stroke="black" points="64.5891,-317.335 64.3664,-306.742 57.9349,-315.162 64.5891,-317.335"/>
<text text-anchor="middle" x="62.5" y="-330.3" font-family="Times,serif" font-size="14.00">a</text>
</g>
<!-- 2 -->
<g id="node3" class="node"><title>2</title>
<ellipse fill="lightblue" stroke="black" cx="38" cy="-18" rx="18" ry="18"/>
<text text-anchor="middle" x="38" y="-14.3" font-family="Times,serif" font-size="14.00">2</text>
</g>
<!-- 0&#45;&gt;2 -->
<g id="edge2" class="edge"><title>0&#45;&gt;2</title>
<path fill="none" stroke="black" d="M55.9427,-367.976C35.1013,-354.21 0,-325.85 0,-291 0,-291 0,-291 0,-105 0,-81.862 11.6506,-57.9802 22.0497,-41.2725"/>
<polygon fill="black" stroke="black" points="25.0622,-43.0611 27.6163,-32.7787 19.2075,-39.224 25.0622,-43.0611"/>
<text text-anchor="middle" x="3.5" y="-194.3" font-family="Times,serif" font-size="14.00">b</text>
</g>
<!-- 1&#45;&gt;0 -->
<g id="edge3" class="edge"><title>1&#45;&gt;0</title>
<path fill="none" stroke="black" d="M71,-308.084C71,-319.861 71,-335.774 71,-349.342"/>
<polygon fill="black" stroke="black" points="67.5001,-349.597 71,-359.597 74.5001,-349.597 67.5001,-349.597"/>
<text text-anchor="middle" x="74.5" y="-330.3" font-family="Times,serif" font-size="14.00">b</text>
</g>
<!-- 3 -->
<g id="node4" class="node"><title>3</title>
<ellipse fill="lightblue" stroke="black" cx="88" cy="-198" rx="17.5909" ry="18"/>
<ellipse fill="none" stroke="black" cx="88" cy="-198" rx="21.5" ry="22"/>
<text text-anchor="middle" x="88" y="-194.3" font-family="Times,serif" font-size="14.00">3</text>
</g>
<!-- 1&#45;&gt;3 -->
<g id="edge4" class="edge"><title>1&#45;&gt;3</title>
<path fill="none" stroke="black" d="M75.0385,-272.311C76.378,-266.529 77.8256,-259.994 79,-254 80.5262,-246.21 81.9986,-237.763 83.2948,-229.882"/>
<polygon fill="black" stroke="black" points="86.7601,-230.377 84.8872,-219.949 79.8484,-229.269 86.7601,-230.377"/>
<text text-anchor="middle" x="84.5" y="-242.3" font-family="Times,serif" font-size="14.00">a</text>
</g>
<!-- 2&#45;&gt;1 -->
<g id="edge5" class="edge"><title>2&#45;&gt;1</title>
<path fill="none" stroke="black" d="M38.9978,-36.0146C41.1684,-70.7392 46.9485,-152.216 57,-220 59.0871,-234.075 62.1708,-249.616 64.9133,-262.38"/>
<polygon fill="black" stroke="black" points="61.5409,-263.341 67.1073,-272.356 68.3775,-261.838 61.5409,-263.341"/>
<text text-anchor="middle" x="52.5" y="-146.3" font-family="Times,serif" font-size="14.00">a</text>
</g>
<!-- 2&#45;&gt;2 -->
<g id="edge6" class="edge"><title>2&#45;&gt;2</title>
<path fill="none" stroke="black" d="M54.2903,-25.6679C64.3892,-27.5169 74,-24.9609 74,-18 74,-13.5406 70.0557,-10.8891 64.5656,-10.0454"/>
<polygon fill="black" stroke="black" points="64.1887,-6.55441 54.2903,-10.3321 64.384,-13.5517 64.1887,-6.55441"/>
<text text-anchor="middle" x="77.5" y="-14.3" font-family="Times,serif" font-size="14.00">b</text>
</g>
<!-- 3&#45;&gt;1 -->
<g id="edge7" class="edge"><title>3&#45;&gt;1</title>
<path fill="none" stroke="black" d="M79.7572,-218.526C77.5069,-224.655 75.3259,-231.516 74,-238 72.4363,-245.647 71.5932,-254.063 71.16,-261.816"/>
<polygon fill="black" stroke="black" points="67.6612,-261.721 70.7942,-271.842 74.6566,-261.976 67.6612,-261.721"/>
<text text-anchor="middle" x="77.5" y="-242.3" font-family="Times,serif" font-size="14.00">a</text>
</g>
<!-- 4 -->
<g id="node5" class="node"><title>4</title>
<ellipse fill="green" stroke="black" cx="88" cy="-106" rx="18" ry="18"/>
<text text-anchor="middle" x="88" y="-102.3" font-family="Times,serif" font-size="14.00">4</text>
</g>
<!-- 3&#45;&gt;4 -->
<g id="edge8" class="edge"><title>3&#45;&gt;4</title>
<path fill="none" stroke="black" d="M88,-175.671C88,-163.284 88,-147.552 88,-134.272"/>
<polygon fill="black" stroke="black" points="91.5001,-134.258 88,-124.258 84.5001,-134.258 91.5001,-134.258"/>
<text text-anchor="middle" x="91.5" y="-146.3" font-family="Times,serif" font-size="14.00">b</text>
</g>
<!-- 4&#45;&gt;0 -->
<g id="edge9" class="edge"><title>4&#45;&gt;0</title>
<path fill="none" stroke="black" d="M96.685,-122.019C104.009,-135.609 113.93,-156.433 118,-176 131.331,-240.094 101.704,-315.064 83.6395,-352.752"/>
<polygon fill="black" stroke="black" points="80.3981,-351.411 79.1124,-361.928 86.6757,-354.508 80.3981,-351.411"/>
<text text-anchor="middle" x="122.5" y="-242.3" font-family="Times,serif" font-size="14.00">b</text>
</g>
<!-- 4&#45;&gt;2 -->
<g id="edge10" class="edge"><title>4&#45;&gt;2</title>
<path fill="none" stroke="black" d="M79.2907,-90.0199C71.6908,-76.9482 60.5335,-57.7576 51.7322,-42.6194"/>
<polygon fill="black" stroke="black" points="54.6616,-40.6943 46.6095,-33.8084 48.61,-44.2127 54.6616,-40.6943"/>
<text text-anchor="middle" x="70.5" y="-58.3" font-family="Times,serif" font-size="14.00">a</text>
</g>
</g>
</svg>
