<?xml version="1.0" encoding="UTF-8" standalone="no"?>
<!DOCTYPE svg PUBLIC "-//W3C//DTD SVG 1.1//EN"
 "http://www.w3.org/Graphics/SVG/1.1/DTD/svg11.dtd">
<!-- Generated by graphviz version 2.36.0 (20140111.2315)
 -->
<!-- Title: %3 Pages: 1 -->
<svg width="104pt" height="316pt"
 viewBox="0.00 0.00 103.73 316.00" xmlns="http://www.w3.org/2000/svg" xmlns:xlink="http://www.w3.org/1999/xlink">
<g id="graph0" class="graph" transform="scale(1 1) rotate(0) translate(4 312)">
<title>%3</title>
<polygon fill="white" stroke="none" points="-4,4 -4,-312 99.7323,-312 99.7323,4 -4,4"/>
<!-- 0 -->
<g id="node1" class="node"><title>0</title>
<ellipse fill="lightblue" stroke="black" cx="27.7323" cy="-290" rx="18" ry="18"/>
<text text-anchor="middle" x="27.7323" y="-286.3" font-family="Times,serif" font-size="14.00">0</text>
</g>
<!-- 1 -->
<g id="node2" class="node"><title>1</title>
<ellipse fill="lightblue" stroke="black" cx="54.7323" cy="-198" rx="17.5909" ry="18"/>
<ellipse fill="none" stroke="black" cx="54.7323" cy="-198" rx="21.5" ry="22"/>
<text text-anchor="middle" x="54.7323" y="-194.3" font-family="Times,serif" font-size="14.00">1</text>
</g>
<!-- 0&#45;&gt;1 -->
<g id="edge1" class="edge"><title>0&#45;&gt;1</title>
<path fill="none" stroke="black" d="M32.6845,-272.493C36.3459,-260.288 41.4322,-243.333 45.797,-228.784"/>
<polygon fill="black" stroke="black" points="49.156,-229.768 48.6772,-219.184 42.4512,-227.756 49.156,-229.768"/>
<text text-anchor="middle" x="46.2323" y="-242.3" font-family="Times,serif" font-size="14.00">a</text>
</g>
<!-- 2 -->
<g id="node3" class="node"><title>2</title>
<ellipse fill="green" stroke="black" cx="24.7323" cy="-18" rx="18" ry="18"/>
<text text-anchor="middle" x="24.7323" y="-14.3" font-family="Times,serif" font-size="14.00">2</text>
</g>
<!-- 0&#45;&gt;2 -->
<g id="edge2" class="edge"><title>0&#45;&gt;2</title>
<path fill="none" stroke="black" d="M20.311,-273.29C17.8191,-267.368 15.2818,-260.493 13.7323,-254 -3.41817,-182.132 -0.657059,-161.689 4.73229,-88 5.84637,-72.767 5.57814,-68.6979 9.73229,-54 10.6965,-50.5885 11.9149,-47.0705 13.2388,-43.6403"/>
<polygon fill="black" stroke="black" points="16.488,-44.9425 17.1253,-34.3668 10.032,-42.2367 16.488,-44.9425"/>
<text text-anchor="middle" x="4.23229" y="-146.3" font-family="Times,serif" font-size="14.00">b</text>
</g>
<!-- 3 -->
<g id="node4" class="node"><title>3</title>
<ellipse fill="lightblue" stroke="black" cx="31.7323" cy="-106" rx="18" ry="18"/>
<text text-anchor="middle" x="31.7323" y="-102.3" font-family="Times,serif" font-size="14.00">3</text>
</g>
<!-- 1&#45;&gt;3 -->
<g id="edge3" class="edge"><title>1&#45;&gt;3</title>
<path fill="none" stroke="black" d="M49.5132,-176.578C46.2602,-163.849 42.04,-147.335 38.5275,-133.59"/>
<polygon fill="black" stroke="black" points="41.8741,-132.549 36.007,-123.727 35.0921,-134.283 41.8741,-132.549"/>
<text text-anchor="middle" x="52.2323" y="-146.3" font-family="Times,serif" font-size="14.00">b,a</text>
</g>
<!-- 2&#45;&gt;0 -->
<g id="edge4" class="edge"><title>2&#45;&gt;0</title>
<path fill="none" stroke="black" d="M35.2808,-33.3086C58.3879,-66.4925 109.503,-151.12 84.7323,-220 77.5237,-240.045 61.6891,-258.409 48.5347,-271.144"/>
<polygon fill="black" stroke="black" points="46.136,-268.595 41.1847,-277.962 50.8965,-273.727 46.136,-268.595"/>
<text text-anchor="middle" x="92.2323" y="-146.3" font-family="Times,serif" font-size="14.00">a</text>
</g>
<!-- 2&#45;&gt;3 -->
<g id="edge5" class="edge"><title>2&#45;&gt;3</title>
<path fill="none" stroke="black" d="M26.1124,-35.9555C27.08,-47.8438 28.3945,-63.9933 29.5089,-77.6845"/>
<polygon fill="black" stroke="black" points="26.0495,-78.3261 30.3493,-88.0092 33.0264,-77.7582 26.0495,-78.3261"/>
<text text-anchor="middle" x="32.2323" y="-58.3" font-family="Times,serif" font-size="14.00">b</text>
</g>
<!-- 3&#45;&gt;0 -->
<g id="edge6" class="edge"><title>3&#45;&gt;0</title>
<path fill="none" stroke="black" d="M27.0841,-123.568C23.4448,-137.444 18.6836,-157.839 16.7323,-176 13.5694,-205.438 17.9054,-239.235 22.0291,-262.14"/>
<polygon fill="black" stroke="black" points="18.6258,-262.977 23.9418,-272.142 25.5013,-261.663 18.6258,-262.977"/>
<text text-anchor="middle" x="20.2323" y="-194.3" font-family="Times,serif" font-size="14.00">a</text>
</g>
<!-- 3&#45;&gt;2 -->
<g id="edge7" class="edge"><title>3&#45;&gt;2</title>
<path fill="none" stroke="black" d="M23.0721,-89.8164C20.1284,-83.8388 17.2106,-76.7894 15.7323,-70 13.9767,-61.9369 14.6367,-53.1 16.206,-45.0805"/>
<polygon fill="black" stroke="black" points="19.6605,-45.6909 18.666,-35.1429 12.8656,-44.0089 19.6605,-45.6909"/>
<text text-anchor="middle" x="19.2323" y="-58.3" font-family="Times,serif" font-size="14.00">b</text>
</g>
</g>
</svg>
