<?xml version="1.0" encoding="UTF-8" standalone="no"?>
<!DOCTYPE svg PUBLIC "-//W3C//DTD SVG 1.1//EN"
 "http://www.w3.org/Graphics/SVG/1.1/DTD/svg11.dtd">
<!-- Generated by graphviz version 2.36.0 (20140111.2315)
 -->
<!-- Title: %3 Pages: 1 -->
<svg width="105pt" height="316pt"
 viewBox="0.00 0.00 105.00 316.00" xmlns="http://www.w3.org/2000/svg" xmlns:xlink="http://www.w3.org/1999/xlink">
<g id="graph0" class="graph" transform="scale(1 1) rotate(0) translate(4 312)">
<title>%3</title>
<polygon fill="white" stroke="none" points="-4,4 -4,-312 101,-312 101,4 -4,4"/>
<!-- 0 -->
<g id="node1" class="node"><title>0</title>
<ellipse fill="lightblue" stroke="black" cx="21" cy="-198" rx="17.5909" ry="18"/>
<ellipse fill="none" stroke="black" cx="21" cy="-198" rx="21.5" ry="22"/>
<text text-anchor="middle" x="21" y="-194.3" font-family="Times,serif" font-size="14.00">0</text>
</g>
<!-- 2 -->
<g id="node3" class="node"><title>2</title>
<ellipse fill="lightblue" stroke="black" cx="71" cy="-106" rx="18" ry="18"/>
<text text-anchor="middle" x="71" y="-102.3" font-family="Times,serif" font-size="14.00">2</text>
</g>
<!-- 0&#45;&gt;2 -->
<g id="edge1" class="edge"><title>0&#45;&gt;2</title>
<path fill="none" stroke="black" d="M31.36,-178.352C38.9625,-164.668 49.3537,-145.963 57.5898,-131.138"/>
<polygon fill="black" stroke="black" points="60.843,-132.489 62.6399,-122.048 54.7239,-129.09 60.843,-132.489"/>
<text text-anchor="middle" x="53.5" y="-146.3" font-family="Times,serif" font-size="14.00">b</text>
</g>
<!-- 3 -->
<g id="node4" class="node"><title>3</title>
<ellipse fill="lightblue" stroke="black" cx="54" cy="-18" rx="18" ry="18"/>
<text text-anchor="middle" x="54" y="-14.3" font-family="Times,serif" font-size="14.00">3</text>
</g>
<!-- 0&#45;&gt;3 -->
<g id="edge2" class="edge"><title>0&#45;&gt;3</title>
<path fill="none" stroke="black" d="M23.4756,-176.003C26.2137,-153.978 31.037,-118.406 37,-88 39.7639,-73.907 43.5292,-58.3638 46.8137,-45.6033"/>
<polygon fill="black" stroke="black" points="50.2775,-46.1924 49.4271,-35.6318 43.5061,-44.4177 50.2775,-46.1924"/>
<text text-anchor="middle" x="40.5" y="-102.3" font-family="Times,serif" font-size="14.00">a</text>
</g>
<!-- 1 -->
<g id="node2" class="node"><title>1</title>
<ellipse fill="green" stroke="black" cx="59" cy="-290" rx="18" ry="18"/>
<text text-anchor="middle" x="59" y="-286.3" font-family="Times,serif" font-size="14.00">1</text>
</g>
<!-- 1&#45;&gt;0 -->
<g id="edge3" class="edge"><title>1&#45;&gt;0</title>
<path fill="none" stroke="black" d="M52.2064,-272.91C46.9177,-260.384 39.4411,-242.676 33.1319,-227.733"/>
<polygon fill="black" stroke="black" points="36.3033,-226.246 29.1892,-218.395 29.8546,-228.969 36.3033,-226.246"/>
<text text-anchor="middle" x="46.5" y="-242.3" font-family="Times,serif" font-size="14.00">b</text>
</g>
<!-- 1&#45;&gt;2 -->
<g id="edge4" class="edge"><title>1&#45;&gt;2</title>
<path fill="none" stroke="black" d="M60.1289,-271.878C62.2106,-240.307 66.6699,-172.673 69.1824,-134.568"/>
<polygon fill="black" stroke="black" points="72.6997,-134.418 69.8653,-124.209 65.7149,-133.957 72.6997,-134.418"/>
<text text-anchor="middle" x="69.5" y="-194.3" font-family="Times,serif" font-size="14.00">a</text>
</g>
<!-- 2&#45;&gt;3 -->
<g id="edge5" class="edge"><title>2&#45;&gt;3</title>
<path fill="none" stroke="black" d="M68.2122,-87.9598C66.5329,-78.0298 64.2829,-65.2798 62,-54 61.4509,-51.2871 60.8517,-48.4623 60.2361,-45.646"/>
<polygon fill="black" stroke="black" points="63.6073,-44.6846 57.9958,-35.6979 56.7783,-46.2226 63.6073,-44.6846"/>
<text text-anchor="middle" x="72.5" y="-58.3" font-family="Times,serif" font-size="14.00">b,a</text>
</g>
<!-- 3&#45;&gt;2 -->
<g id="edge6" class="edge"><title>3&#45;&gt;2</title>
<path fill="none" stroke="black" d="M53.6449,-36.1898C53.7765,-46.1698 54.5265,-58.9198 57,-70 57.7272,-73.2575 58.7203,-76.6062 59.8444,-79.8804"/>
<polygon fill="black" stroke="black" points="56.6169,-81.2388 63.4754,-89.3142 63.1497,-78.7244 56.6169,-81.2388"/>
<text text-anchor="middle" x="60.5" y="-58.3" font-family="Times,serif" font-size="14.00">b</text>
</g>
<!-- 3&#45;&gt;3 -->
<g id="edge7" class="edge"><title>3&#45;&gt;3</title>
<path fill="none" stroke="black" d="M70.2903,-25.6679C80.3892,-27.5169 90,-24.9609 90,-18 90,-13.5406 86.0557,-10.8891 80.5656,-10.0454"/>
<polygon fill="black" stroke="black" points="80.1887,-6.55441 70.2903,-10.3321 80.384,-13.5517 80.1887,-6.55441"/>
<text text-anchor="middle" x="93.5" y="-14.3" font-family="Times,serif" font-size="14.00">a</text>
</g>
</g>
</svg>
