<?xml version="1.0" encoding="UTF-8" standalone="no"?>
<!DOCTYPE svg PUBLIC "-//W3C//DTD SVG 1.1//EN"
 "http://www.w3.org/Graphics/SVG/1.1/DTD/svg11.dtd">
<!-- Generated by graphviz version 2.36.0 (20140111.2315)
 -->
<!-- Title: %3 Pages: 1 -->
<svg width="96pt" height="404pt"
 viewBox="0.00 0.00 96.00 404.00" xmlns="http://www.w3.org/2000/svg" xmlns:xlink="http://www.w3.org/1999/xlink">
<g id="graph0" class="graph" transform="scale(1 1) rotate(0) translate(4 400)">
<title>%3</title>
<polygon fill="white" stroke="none" points="-4,4 -4,-400 92,-400 92,4 -4,4"/>
<!-- 0 -->
<g id="node1" class="node"><title>0</title>
<ellipse fill="lightblue" stroke="black" cx="45" cy="-282" rx="18" ry="18"/>
<text text-anchor="middle" x="45" y="-278.3" font-family="Times,serif" font-size="14.00">0</text>
</g>
<!-- 1 -->
<g id="node2" class="node"><title>1</title>
<ellipse fill="lightblue" stroke="black" cx="18" cy="-194" rx="18" ry="18"/>
<text text-anchor="middle" x="18" y="-190.3" font-family="Times,serif" font-size="14.00">1</text>
</g>
<!-- 0&#45;&gt;1 -->
<g id="edge1" class="edge"><title>0&#45;&gt;1</title>
<path fill="none" stroke="black" d="M32.4684,-268.926C26.8867,-262.677 20.9219,-254.571 18,-246 15.4467,-238.51 14.6762,-230.033 14.7549,-222.172"/>
<polygon fill="black" stroke="black" points="18.2606,-222.158 15.3009,-211.985 11.2706,-221.783 18.2606,-222.158"/>
<text text-anchor="middle" x="21.5" y="-234.3" font-family="Times,serif" font-size="14.00">a</text>
</g>
<!-- 4 -->
<g id="node5" class="node"><title>4</title>
<ellipse fill="lightblue" stroke="black" cx="45" cy="-18" rx="18" ry="18"/>
<text text-anchor="middle" x="45" y="-14.3" font-family="Times,serif" font-size="14.00">4</text>
</g>
<!-- 0&#45;&gt;4 -->
<g id="edge2" class="edge"><title>0&#45;&gt;4</title>
<path fill="none" stroke="black" d="M45,-263.809C45,-219.396 45,-100.533 45,-46.4614"/>
<polygon fill="black" stroke="black" points="48.5001,-46.2538 45,-36.2538 41.5001,-46.2539 48.5001,-46.2538"/>
<text text-anchor="middle" x="48.5" y="-146.3" font-family="Times,serif" font-size="14.00">b</text>
</g>
<!-- 1&#45;&gt;0 -->
<g id="edge3" class="edge"><title>1&#45;&gt;0</title>
<path fill="none" stroke="black" d="M23.1899,-211.531C27.0331,-223.772 32.3469,-240.698 36.7672,-254.777"/>
<polygon fill="black" stroke="black" points="33.4594,-255.926 39.7941,-264.418 40.138,-253.829 33.4594,-255.926"/>
<text text-anchor="middle" x="37.5" y="-234.3" font-family="Times,serif" font-size="14.00">a</text>
</g>
<!-- 2 -->
<g id="node3" class="node"><title>2</title>
<ellipse fill="lightblue" stroke="black" cx="18" cy="-106" rx="18" ry="18"/>
<text text-anchor="middle" x="18" y="-102.3" font-family="Times,serif" font-size="14.00">2</text>
</g>
<!-- 1&#45;&gt;2 -->
<g id="edge4" class="edge"><title>1&#45;&gt;2</title>
<path fill="none" stroke="black" d="M18,-175.597C18,-163.746 18,-147.817 18,-134.292"/>
<polygon fill="black" stroke="black" points="21.5001,-134.084 18,-124.084 14.5001,-134.084 21.5001,-134.084"/>
<text text-anchor="middle" x="21.5" y="-146.3" font-family="Times,serif" font-size="14.00">b</text>
</g>
<!-- 2&#45;&gt;4 -->
<g id="edge5" class="edge"><title>2&#45;&gt;4</title>
<path fill="none" stroke="black" d="M9.44148,-89.7886C4.77172,-79.3875 0.885056,-65.463 6,-54 9.4407,-46.2891 15.5128,-39.5689 21.856,-34.1346"/>
<polygon fill="black" stroke="black" points="24.0784,-36.8406 29.8581,-27.961 19.8025,-31.2983 24.0784,-36.8406"/>
<text text-anchor="middle" x="14.5" y="-58.3" font-family="Times,serif" font-size="14.00">b,a</text>
</g>
<!-- 3 -->
<g id="node4" class="node"><title>3</title>
<ellipse fill="green" stroke="black" cx="45" cy="-374" rx="17.5909" ry="18"/>
<ellipse fill="none" stroke="black" cx="45" cy="-374" rx="21.5" ry="22"/>
<text text-anchor="middle" x="45" y="-370.3" font-family="Times,serif" font-size="14.00">3</text>
</g>
<!-- 3&#45;&gt;0 -->
<g id="edge6" class="edge"><title>3&#45;&gt;0</title>
<path fill="none" stroke="black" d="M45,-351.671C45,-339.284 45,-323.552 45,-310.272"/>
<polygon fill="black" stroke="black" points="48.5001,-310.258 45,-300.258 41.5001,-310.258 48.5001,-310.258"/>
<text text-anchor="middle" x="53.5" y="-322.3" font-family="Times,serif" font-size="14.00">b,a</text>
</g>
<!-- 4&#45;&gt;2 -->
<g id="edge7" class="edge"><title>4&#45;&gt;2</title>
<path fill="none" stroke="black" d="M39.8101,-35.5308C35.9669,-47.7721 30.6531,-64.6975 26.2328,-78.777"/>
<polygon fill="black" stroke="black" points="22.862,-77.8291 23.2059,-88.4183 29.5406,-79.9259 22.862,-77.8291"/>
<text text-anchor="middle" x="37.5" y="-58.3" font-family="Times,serif" font-size="14.00">a</text>
</g>
<!-- 4&#45;&gt;4 -->
<g id="edge8" class="edge"><title>4&#45;&gt;4</title>
<path fill="none" stroke="black" d="M61.2903,-25.6679C71.3892,-27.5169 81,-24.9609 81,-18 81,-13.5406 77.0557,-10.8891 71.5656,-10.0454"/>
<polygon fill="black" stroke="black" points="71.1887,-6.55441 61.2903,-10.3321 71.384,-13.5517 71.1887,-6.55441"/>
<text text-anchor="middle" x="84.5" y="-14.3" font-family="Times,serif" font-size="14.00">b</text>
</g>
</g>
</svg>
