<?xml version="1.0" encoding="UTF-8" standalone="no"?>
<!DOCTYPE svg PUBLIC "-//W3C//DTD SVG 1.1//EN"
 "http://www.w3.org/Graphics/SVG/1.1/DTD/svg11.dtd">
<!-- Generated by graphviz version 2.36.0 (20140111.2315)
 -->
<!-- Title: %3 Pages: 1 -->
<svg width="104pt" height="316pt"
 viewBox="0.00 0.00 103.62 316.00" xmlns="http://www.w3.org/2000/svg" xmlns:xlink="http://www.w3.org/1999/xlink">
<g id="graph0" class="graph" transform="scale(1 1) rotate(0) translate(4 312)">
<title>%3</title>
<polygon fill="white" stroke="none" points="-4,4 -4,-312 99.6207,-312 99.6207,4 -4,4"/>
<!-- 0 -->
<g id="node1" class="node"><title>0</title>
<ellipse fill="green" stroke="black" cx="42.6207" cy="-290" rx="18" ry="18"/>
<text text-anchor="middle" x="42.6207" y="-286.3" font-family="Times,serif" font-size="14.00">0</text>
</g>
<!-- 0&#45;&gt;0 -->
<g id="edge1" class="edge"><title>0&#45;&gt;0</title>
<path fill="none" stroke="black" d="M58.911,-297.668C69.0099,-299.517 78.6207,-296.961 78.6207,-290 78.6207,-285.541 74.6765,-282.889 69.1864,-282.045"/>
<polygon fill="black" stroke="black" points="68.8095,-278.554 58.911,-282.332 69.0048,-285.552 68.8095,-278.554"/>
<text text-anchor="middle" x="82.1207" y="-286.3" font-family="Times,serif" font-size="14.00">a</text>
</g>
<!-- 2 -->
<g id="node3" class="node"><title>2</title>
<ellipse fill="lightblue" stroke="black" cx="36.6207" cy="-198" rx="17.5909" ry="18"/>
<ellipse fill="none" stroke="black" cx="36.6207" cy="-198" rx="21.5" ry="22"/>
<text text-anchor="middle" x="36.6207" y="-194.3" font-family="Times,serif" font-size="14.00">2</text>
</g>
<!-- 0&#45;&gt;2 -->
<g id="edge2" class="edge"><title>0&#45;&gt;2</title>
<path fill="none" stroke="black" d="M35.9872,-273.258C33.8217,-267.332 31.6979,-260.463 30.6207,-254 29.3032,-246.095 29.4819,-237.5 30.3214,-229.505"/>
<polygon fill="black" stroke="black" points="33.8088,-229.838 31.7355,-219.448 26.877,-228.864 33.8088,-229.838"/>
<text text-anchor="middle" x="34.1207" y="-242.3" font-family="Times,serif" font-size="14.00">b</text>
</g>
<!-- 1 -->
<g id="node2" class="node"><title>1</title>
<ellipse fill="lightblue" stroke="black" cx="34.6207" cy="-18" rx="18" ry="18"/>
<text text-anchor="middle" x="34.6207" y="-14.3" font-family="Times,serif" font-size="14.00">1</text>
</g>
<!-- 1&#45;&gt;0 -->
<g id="edge3" class="edge"><title>1&#45;&gt;0</title>
<path fill="none" stroke="black" d="M28.2105,-34.8511C15.2622,-69.0815 -11.3868,-152.294 5.62075,-220 9.77783,-236.549 18.7546,-253.459 26.8248,-266.397"/>
<polygon fill="black" stroke="black" points="24.0708,-268.582 32.4591,-275.054 29.9376,-264.764 24.0708,-268.582"/>
<text text-anchor="middle" x="5.12075" y="-146.3" font-family="Times,serif" font-size="14.00">a</text>
</g>
<!-- 1&#45;&gt;2 -->
<g id="edge4" class="edge"><title>1&#45;&gt;2</title>
<path fill="none" stroke="black" d="M34.813,-36.1141C35.1478,-65.9087 35.8424,-127.727 36.2664,-165.464"/>
<polygon fill="black" stroke="black" points="32.7712,-165.922 36.3835,-175.882 39.7708,-165.843 32.7712,-165.922"/>
<text text-anchor="middle" x="39.1207" y="-102.3" font-family="Times,serif" font-size="14.00">b</text>
</g>
<!-- 2&#45;&gt;0 -->
<g id="edge5" class="edge"><title>2&#45;&gt;0</title>
<path fill="none" stroke="black" d="M38.0275,-220.101C38.8527,-232.48 39.9046,-248.258 40.7934,-261.59"/>
<polygon fill="black" stroke="black" points="37.3064,-261.902 41.4639,-271.647 44.2909,-261.436 37.3064,-261.902"/>
<text text-anchor="middle" x="43.1207" y="-242.3" font-family="Times,serif" font-size="14.00">b</text>
</g>
<!-- 3 -->
<g id="node4" class="node"><title>3</title>
<ellipse fill="lightblue" stroke="black" cx="77.6207" cy="-106" rx="18" ry="18"/>
<text text-anchor="middle" x="77.6207" y="-102.3" font-family="Times,serif" font-size="14.00">3</text>
</g>
<!-- 2&#45;&gt;3 -->
<g id="edge6" class="edge"><title>2&#45;&gt;3</title>
<path fill="none" stroke="black" d="M45.5171,-177.471C51.6023,-164.114 59.7213,-146.291 66.2719,-131.912"/>
<polygon fill="black" stroke="black" points="69.5514,-133.156 70.512,-122.605 63.1812,-130.254 69.5514,-133.156"/>
<text text-anchor="middle" x="64.1207" y="-146.3" font-family="Times,serif" font-size="14.00">a</text>
</g>
<!-- 3&#45;&gt;0 -->
<g id="edge7" class="edge"><title>3&#45;&gt;0</title>
<path fill="none" stroke="black" d="M77.2193,-124.043C76.4091,-146.335 73.9676,-186.499 66.6207,-220 63.3836,-234.761 57.9609,-250.728 53.0882,-263.582"/>
<polygon fill="black" stroke="black" points="49.733,-262.552 49.3507,-273.14 56.2522,-265.101 49.733,-262.552"/>
<text text-anchor="middle" x="76.1207" y="-194.3" font-family="Times,serif" font-size="14.00">b</text>
</g>
<!-- 3&#45;&gt;1 -->
<g id="edge8" class="edge"><title>3&#45;&gt;1</title>
<path fill="none" stroke="black" d="M69.9332,-89.6249C63.5524,-76.8633 54.3568,-58.4721 46.949,-43.6565"/>
<polygon fill="black" stroke="black" points="49.9894,-41.9109 42.3867,-34.5319 43.7284,-45.0415 49.9894,-41.9109"/>
<text text-anchor="middle" x="63.1207" y="-58.3" font-family="Times,serif" font-size="14.00">a</text>
</g>
</g>
</svg>
