<?xml version="1.0" encoding="UTF-8" standalone="no"?>
<!DOCTYPE svg PUBLIC "-//W3C//DTD SVG 1.1//EN"
 "http://www.w3.org/Graphics/SVG/1.1/DTD/svg11.dtd">
<!-- Generated by graphviz version 2.36.0 (20140111.2315)
 -->
<!-- Title: %3 Pages: 1 -->
<svg width="121pt" height="404pt"
 viewBox="0.00 0.00 121.00 404.00" xmlns="http://www.w3.org/2000/svg" xmlns:xlink="http://www.w3.org/1999/xlink">
<g id="graph0" class="graph" transform="scale(1 1) rotate(0) translate(4 400)">
<title>%3</title>
<polygon fill="white" stroke="none" points="-4,4 -4,-400 117,-400 117,4 -4,4"/>
<!-- 0 -->
<g id="node1" class="node"><title>0</title>
<ellipse fill="lightblue" stroke="black" cx="54" cy="-198" rx="17.5909" ry="18"/>
<ellipse fill="none" stroke="black" cx="54" cy="-198" rx="21.5" ry="22"/>
<text text-anchor="middle" x="54" y="-194.3" font-family="Times,serif" font-size="14.00">0</text>
</g>
<!-- 1 -->
<g id="node2" class="node"><title>1</title>
<ellipse fill="lightblue" stroke="black" cx="18" cy="-106" rx="18" ry="18"/>
<text text-anchor="middle" x="18" y="-102.3" font-family="Times,serif" font-size="14.00">1</text>
</g>
<!-- 0&#45;&gt;1 -->
<g id="edge1" class="edge"><title>0&#45;&gt;1</title>
<path fill="none" stroke="black" d="M46.1885,-177.471C40.8791,-164.198 33.8062,-146.515 28.0735,-132.184"/>
<polygon fill="black" stroke="black" points="31.3207,-130.878 24.3571,-122.893 24.8214,-133.477 31.3207,-130.878"/>
<text text-anchor="middle" x="42.5" y="-146.3" font-family="Times,serif" font-size="14.00">a</text>
</g>
<!-- 4 -->
<g id="node5" class="node"><title>4</title>
<ellipse fill="lightblue" stroke="black" cx="61" cy="-18" rx="18" ry="18"/>
<text text-anchor="middle" x="61" y="-14.3" font-family="Times,serif" font-size="14.00">4</text>
</g>
<!-- 0&#45;&gt;4 -->
<g id="edge2" class="edge"><title>0&#45;&gt;4</title>
<path fill="none" stroke="black" d="M54.8305,-175.882C56.1006,-143.584 58.5255,-81.9218 59.9272,-46.279"/>
<polygon fill="black" stroke="black" points="63.4312,-46.2439 60.327,-36.1141 56.4366,-45.9688 63.4312,-46.2439"/>
<text text-anchor="middle" x="61.5" y="-102.3" font-family="Times,serif" font-size="14.00">b</text>
</g>
<!-- 1&#45;&gt;4 -->
<g id="edge3" class="edge"><title>1&#45;&gt;4</title>
<path fill="none" stroke="black" d="M11.1277,-88.994C7.7133,-78.5006 5.3869,-64.7808 11,-54 16.2657,-43.8864 25.9392,-36.0911 35.3844,-30.452"/>
<polygon fill="black" stroke="black" points="37.0695,-33.5198 44.219,-25.7009 33.754,-27.3548 37.0695,-33.5198"/>
<text text-anchor="middle" x="19.5" y="-58.3" font-family="Times,serif" font-size="14.00">b,a</text>
</g>
<!-- 2 -->
<g id="node3" class="node"><title>2</title>
<ellipse fill="lightblue" stroke="black" cx="71" cy="-378" rx="18" ry="18"/>
<text text-anchor="middle" x="71" y="-374.3" font-family="Times,serif" font-size="14.00">2</text>
</g>
<!-- 2&#45;&gt;0 -->
<g id="edge4" class="edge"><title>2&#45;&gt;0</title>
<path fill="none" stroke="black" d="M68.1556,-360.034C65.9119,-346.095 62.8603,-325.818 61,-308 58.2756,-281.905 56.4513,-252.178 55.3501,-230.367"/>
<polygon fill="black" stroke="black" points="58.8445,-230.166 54.8667,-220.346 51.8527,-230.503 58.8445,-230.166"/>
<text text-anchor="middle" x="64.5" y="-286.3" font-family="Times,serif" font-size="14.00">b</text>
</g>
<!-- 3 -->
<g id="node4" class="node"><title>3</title>
<ellipse fill="green" stroke="black" cx="95" cy="-290" rx="18" ry="18"/>
<text text-anchor="middle" x="95" y="-286.3" font-family="Times,serif" font-size="14.00">3</text>
</g>
<!-- 2&#45;&gt;3 -->
<g id="edge5" class="edge"><title>2&#45;&gt;3</title>
<path fill="none" stroke="black" d="M75.6274,-360.418C79.0472,-348.164 83.7713,-331.236 87.6983,-317.165"/>
<polygon fill="black" stroke="black" points="91.0699,-318.104 90.3868,-307.531 84.3275,-316.222 91.0699,-318.104"/>
<text text-anchor="middle" x="88.5" y="-330.3" font-family="Times,serif" font-size="14.00">a</text>
</g>
<!-- 3&#45;&gt;0 -->
<g id="edge6" class="edge"><title>3&#45;&gt;0</title>
<path fill="none" stroke="black" d="M87.8583,-273.323C82.137,-260.764 73.9567,-242.807 67.0702,-227.691"/>
<polygon fill="black" stroke="black" points="70.1011,-225.901 62.7704,-218.252 63.731,-228.803 70.1011,-225.901"/>
<text text-anchor="middle" x="81.5" y="-242.3" font-family="Times,serif" font-size="14.00">b</text>
</g>
<!-- 3&#45;&gt;4 -->
<g id="edge7" class="edge"><title>3&#45;&gt;4</title>
<path fill="none" stroke="black" d="M94.7818,-271.979C93.9845,-232.978 90.2731,-134.323 73,-54 72.3458,-50.9581 71.5096,-47.8143 70.5837,-44.7161"/>
<polygon fill="black" stroke="black" points="73.8869,-43.5567 67.4329,-35.1545 67.2385,-45.7476 73.8869,-43.5567"/>
<text text-anchor="middle" x="91.5" y="-146.3" font-family="Times,serif" font-size="14.00">a</text>
</g>
<!-- 4&#45;&gt;1 -->
<g id="edge8" class="edge"><title>4&#45;&gt;1</title>
<path fill="none" stroke="black" d="M53.234,-34.5319C46.8303,-47.3394 37.6306,-65.7389 30.2374,-80.5251"/>
<polygon fill="black" stroke="black" points="27.0292,-79.1154 25.6875,-89.6249 33.2902,-82.2459 27.0292,-79.1154"/>
<text text-anchor="middle" x="47.5" y="-58.3" font-family="Times,serif" font-size="14.00">a</text>
</g>
<!-- 4&#45;&gt;4 -->
<g id="edge9" class="edge"><title>4&#45;&gt;4</title>
<path fill="none" stroke="black" d="M77.2903,-25.6679C87.3892,-27.5169 97,-24.9609 97,-18 97,-13.5406 93.0557,-10.8891 87.5656,-10.0454"/>
<polygon fill="black" stroke="black" points="87.1887,-6.55441 77.2903,-10.3321 87.384,-13.5517 87.1887,-6.55441"/>
<text text-anchor="middle" x="100.5" y="-14.3" font-family="Times,serif" font-size="14.00">b</text>
</g>
</g>
</svg>
