<?xml version="1.0" encoding="UTF-8" standalone="no"?>
<!DOCTYPE svg PUBLIC "-//W3C//DTD SVG 1.1//EN"
 "http://www.w3.org/Graphics/SVG/1.1/DTD/svg11.dtd">
<!-- Generated by graphviz version 2.36.0 (20140111.2315)
 -->
<!-- Title: %3 Pages: 1 -->
<svg width="189pt" height="228pt"
 viewBox="0.00 0.00 189.33 228.00" xmlns="http://www.w3.org/2000/svg" xmlns:xlink="http://www.w3.org/1999/xlink">
<g id="graph0" class="graph" transform="scale(1 1) rotate(0) translate(4 224)">
<title>%3</title>
<polygon fill="white" stroke="none" points="-4,4 -4,-224 185.333,-224 185.333,4 -4,4"/>
<!-- 0 -->
<g id="node1" class="node"><title>0</title>
<ellipse fill="lightblue" stroke="black" cx="31.3328" cy="-198" rx="17.5909" ry="18"/>
<ellipse fill="none" stroke="black" cx="31.3328" cy="-198" rx="21.5" ry="22"/>
<text text-anchor="middle" x="31.3328" y="-194.3" font-family="Times,serif" font-size="14.00">0</text>
</g>
<!-- 2 -->
<g id="node3" class="node"><title>2</title>
<ellipse fill="lightblue" stroke="black" cx="31.3328" cy="-18" rx="18" ry="18"/>
<text text-anchor="middle" x="31.3328" y="-14.3" font-family="Times,serif" font-size="14.00">2</text>
</g>
<!-- 0&#45;&gt;2 -->
<g id="edge1" class="edge"><title>0&#45;&gt;2</title>
<path fill="none" stroke="black" d="M21.5123,-178.082C14.6172,-163.687 5.99795,-143.153 2.33281,-124 -0.67434,-108.285 -0.829234,-103.684 2.33281,-88 5.46377,-72.4697 12.1903,-56.0816 18.3773,-43.1753"/>
<polygon fill="black" stroke="black" points="21.5949,-44.5662 22.9349,-34.0564 15.3334,-41.4367 21.5949,-44.5662"/>
<text text-anchor="middle" x="5.83281" y="-102.3" font-family="Times,serif" font-size="14.00">b</text>
</g>
<!-- 3 -->
<g id="node4" class="node"><title>3</title>
<ellipse fill="green" stroke="black" cx="84.3328" cy="-106" rx="18" ry="18"/>
<text text-anchor="middle" x="84.3328" y="-102.3" font-family="Times,serif" font-size="14.00">3</text>
</g>
<!-- 0&#45;&gt;3 -->
<g id="edge2" class="edge"><title>0&#45;&gt;3</title>
<path fill="none" stroke="black" d="M42.0581,-178.787C50.224,-164.921 61.532,-145.718 70.3981,-130.663"/>
<polygon fill="black" stroke="black" points="73.4945,-132.302 75.5531,-121.909 67.4627,-128.75 73.4945,-132.302"/>
<text text-anchor="middle" x="65.8328" y="-146.3" font-family="Times,serif" font-size="14.00">a</text>
</g>
<!-- 1 -->
<g id="node2" class="node"><title>1</title>
<ellipse fill="lightblue" stroke="black" cx="138.333" cy="-106" rx="18" ry="18"/>
<text text-anchor="middle" x="138.333" y="-102.3" font-family="Times,serif" font-size="14.00">1</text>
</g>
<!-- 1&#45;&gt;1 -->
<g id="edge3" class="edge"><title>1&#45;&gt;1</title>
<path fill="none" stroke="black" d="M154.623,-113.668C164.722,-115.517 174.333,-112.961 174.333,-106 174.333,-101.541 170.389,-98.8891 164.898,-98.0454"/>
<polygon fill="black" stroke="black" points="164.522,-94.5544 154.623,-98.3321 164.717,-101.552 164.522,-94.5544"/>
<text text-anchor="middle" x="177.833" y="-102.3" font-family="Times,serif" font-size="14.00">a</text>
</g>
<!-- 4 -->
<g id="node5" class="node"><title>4</title>
<ellipse fill="lightblue" stroke="black" cx="120.333" cy="-18" rx="18" ry="18"/>
<text text-anchor="middle" x="120.333" y="-14.3" font-family="Times,serif" font-size="14.00">4</text>
</g>
<!-- 1&#45;&gt;4 -->
<g id="edge4" class="edge"><title>1&#45;&gt;4</title>
<path fill="none" stroke="black" d="M134.777,-88.0092C132.246,-75.9167 128.795,-59.4284 125.9,-45.6011"/>
<polygon fill="black" stroke="black" points="129.295,-44.7338 123.82,-35.6629 122.443,-46.1679 129.295,-44.7338"/>
<text text-anchor="middle" x="133.833" y="-58.3" font-family="Times,serif" font-size="14.00">b</text>
</g>
<!-- 2&#45;&gt;0 -->
<g id="edge5" class="edge"><title>2&#45;&gt;0</title>
<path fill="none" stroke="black" d="M31.3328,-36.1141C31.3328,-65.9087 31.3328,-127.727 31.3328,-165.464"/>
<polygon fill="black" stroke="black" points="27.8329,-165.882 31.3328,-175.882 34.8329,-165.882 27.8329,-165.882"/>
<text text-anchor="middle" x="39.8328" y="-102.3" font-family="Times,serif" font-size="14.00">b,a</text>
</g>
<!-- 3&#45;&gt;2 -->
<g id="edge6" class="edge"><title>3&#45;&gt;2</title>
<path fill="none" stroke="black" d="M75.1009,-90.0199C67.0451,-76.9482 55.2183,-57.7576 45.889,-42.6194"/>
<polygon fill="black" stroke="black" points="48.6851,-40.4853 40.4589,-33.8084 42.7258,-44.1579 48.6851,-40.4853"/>
<text text-anchor="middle" x="65.8328" y="-58.3" font-family="Times,serif" font-size="14.00">a</text>
</g>
<!-- 3&#45;&gt;4 -->
<g id="edge7" class="edge"><title>3&#45;&gt;4</title>
<path fill="none" stroke="black" d="M90.9358,-89.2263C96.1804,-76.6974 103.618,-58.9298 109.7,-44.4014"/>
<polygon fill="black" stroke="black" points="113.017,-45.5409 113.65,-34.965 106.56,-42.8379 113.017,-45.5409"/>
<text text-anchor="middle" x="108.833" y="-58.3" font-family="Times,serif" font-size="14.00">b</text>
</g>
<!-- 4&#45;&gt;4 -->
<g id="edge8" class="edge"><title>4&#45;&gt;4</title>
<path fill="none" stroke="black" d="M136.623,-25.6679C146.722,-27.5169 156.333,-24.9609 156.333,-18 156.333,-13.5406 152.389,-10.8891 146.898,-10.0454"/>
<polygon fill="black" stroke="black" points="146.522,-6.55441 136.623,-10.3321 146.717,-13.5517 146.522,-6.55441"/>
<text text-anchor="middle" x="164.833" y="-14.3" font-family="Times,serif" font-size="14.00">b,a</text>
</g>
</g>
</svg>
