<?xml version="1.0" encoding="UTF-8" standalone="no"?>
<!DOCTYPE svg PUBLIC "-//W3C//DTD SVG 1.1//EN"
 "http://www.w3.org/Graphics/SVG/1.1/DTD/svg11.dtd">
<!-- Generated by graphviz version 2.36.0 (20140111.2315)
 -->
<!-- Title: %3 Pages: 1 -->
<svg width="179pt" height="228pt"
 viewBox="0.00 0.00 179.00 228.00" xmlns="http://www.w3.org/2000/svg" xmlns:xlink="http://www.w3.org/1999/xlink">
<g id="graph0" class="graph" transform="scale(1 1) rotate(0) translate(4 224)">
<title>%3</title>
<polygon fill="white" stroke="none" points="-4,4 -4,-224 175,-224 175,4 -4,4"/>
<!-- 0 -->
<g id="node1" class="node"><title>0</title>
<ellipse fill="lightblue" stroke="black" cx="141" cy="-202" rx="18" ry="18"/>
<text text-anchor="middle" x="141" y="-198.3" font-family="Times,serif" font-size="14.00">0</text>
</g>
<!-- 1 -->
<g id="node2" class="node"><title>1</title>
<ellipse fill="green" stroke="black" cx="18" cy="-114" rx="18" ry="18"/>
<text text-anchor="middle" x="18" y="-110.3" font-family="Times,serif" font-size="14.00">1</text>
</g>
<!-- 0&#45;&gt;1 -->
<g id="edge1" class="edge"><title>0&#45;&gt;1</title>
<path fill="none" stroke="black" d="M126.35,-191.312C115.887,-184.351 101.508,-174.699 89,-166 72.6464,-154.627 54.3988,-141.51 40.498,-131.427"/>
<polygon fill="black" stroke="black" points="42.2008,-128.338 32.0544,-125.288 38.0843,-133.999 42.2008,-128.338"/>
<text text-anchor="middle" x="92.5" y="-154.3" font-family="Times,serif" font-size="14.00">b</text>
</g>
<!-- 2 -->
<g id="node3" class="node"><title>2</title>
<ellipse fill="lightblue" stroke="black" cx="72" cy="-114" rx="18" ry="18"/>
<text text-anchor="middle" x="72" y="-110.3" font-family="Times,serif" font-size="14.00">2</text>
</g>
<!-- 0&#45;&gt;2 -->
<g id="edge2" class="edge"><title>0&#45;&gt;2</title>
<path fill="none" stroke="black" d="M130.219,-187.562C119.245,-173.885 102.065,-152.472 89.2073,-136.447"/>
<polygon fill="black" stroke="black" points="91.9212,-134.236 82.9333,-128.627 86.4613,-138.617 91.9212,-134.236"/>
<text text-anchor="middle" x="115.5" y="-154.3" font-family="Times,serif" font-size="14.00">a</text>
</g>
<!-- 3 -->
<g id="node4" class="node"><title>3</title>
<ellipse fill="lightblue" stroke="black" cx="146" cy="-22" rx="17.5909" ry="18"/>
<ellipse fill="none" stroke="black" cx="146" cy="-22" rx="21.5" ry="22"/>
<text text-anchor="middle" x="146" y="-18.3" font-family="Times,serif" font-size="14.00">3</text>
</g>
<!-- 0&#45;&gt;3 -->
<g id="edge3" class="edge"><title>0&#45;&gt;3</title>
<path fill="none" stroke="black" d="M141.859,-183.991C142.535,-170.028 143.452,-149.737 144,-132 144.809,-105.826 145.328,-76.1046 145.634,-54.3163"/>
<polygon fill="black" stroke="black" points="149.133,-54.3536 145.767,-44.3078 142.134,-54.2602 149.133,-54.3536"/>
<text text-anchor="middle" x="147.5" y="-110.3" font-family="Times,serif" font-size="14.00">c</text>
</g>
<!-- 1&#45;&gt;3 -->
<g id="edge4" class="edge"><title>1&#45;&gt;3</title>
<path fill="none" stroke="black" d="M29.8755,-100.275C40.5137,-89.313 56.8811,-73.4874 73,-62 86.8808,-52.1077 103.572,-43.0091 117.489,-36.0927"/>
<polygon fill="black" stroke="black" points="119.14,-39.1819 126.611,-31.6701 116.086,-32.883 119.14,-39.1819"/>
<text text-anchor="middle" x="86.5" y="-66.3" font-family="Times,serif" font-size="14.00">b,c,a</text>
</g>
<!-- 2&#45;&gt;2 -->
<g id="edge5" class="edge"><title>2&#45;&gt;2</title>
<path fill="none" stroke="black" d="M88.2903,-121.668C98.3892,-123.517 108,-120.961 108,-114 108,-109.541 104.056,-106.889 98.5656,-106.045"/>
<polygon fill="black" stroke="black" points="98.1887,-102.554 88.2903,-106.332 98.384,-109.552 98.1887,-102.554"/>
<text text-anchor="middle" x="121.5" y="-110.3" font-family="Times,serif" font-size="14.00">b,c,a</text>
</g>
<!-- 3&#45;&gt;0 -->
<g id="edge6" class="edge"><title>3&#45;&gt;0</title>
<path fill="none" stroke="black" d="M153.875,-42.5298C155.973,-48.6589 157.948,-55.5187 159,-62 166.405,-107.634 167.348,-120.942 157,-166 156.198,-169.492 155.03,-173.057 153.684,-176.51"/>
<polygon fill="black" stroke="black" points="150.421,-175.237 149.579,-185.798 156.823,-178.067 150.421,-175.237"/>
<text text-anchor="middle" x="167.5" y="-110.3" font-family="Times,serif" font-size="14.00">b</text>
</g>
<!-- 3&#45;&gt;1 -->
<g id="edge7" class="edge"><title>3&#45;&gt;1</title>
<path fill="none" stroke="black" d="M134.935,-40.884C126.657,-52.9166 114.327,-68.2976 100,-78 78.7038,-92.4224 68.2802,-85.0656 45,-96 43.8155,-96.5563 42.6197,-97.1548 41.4247,-97.7828"/>
<polygon fill="black" stroke="black" points="39.3777,-94.9239 32.4833,-102.969 42.8896,-100.979 39.3777,-94.9239"/>
<text text-anchor="middle" x="125" y="-66.3" font-family="Times,serif" font-size="14.00">c,a</text>
</g>
</g>
</svg>
