<?xml version="1.0" encoding="UTF-8" standalone="no"?>
<!DOCTYPE svg PUBLIC "-//W3C//DTD SVG 1.1//EN"
 "http://www.w3.org/Graphics/SVG/1.1/DTD/svg11.dtd">
<!-- Generated by graphviz version 2.36.0 (20140111.2315)
 -->
<!-- Title: %3 Pages: 1 -->
<svg width="169pt" height="316pt"
 viewBox="0.00 0.00 169.00 316.00" xmlns="http://www.w3.org/2000/svg" xmlns:xlink="http://www.w3.org/1999/xlink">
<g id="graph0" class="graph" transform="scale(1 1) rotate(0) translate(4 312)">
<title>%3</title>
<polygon fill="white" stroke="none" points="-4,4 -4,-312 165,-312 165,4 -4,4"/>
<!-- 0 -->
<g id="node1" class="node"><title>0</title>
<ellipse fill="green" stroke="black" cx="110" cy="-290" rx="18" ry="18"/>
<text text-anchor="middle" x="110" y="-286.3" font-family="Times,serif" font-size="14.00">0</text>
</g>
<!-- 1 -->
<g id="node2" class="node"><title>1</title>
<ellipse fill="lightblue" stroke="black" cx="75" cy="-202" rx="18" ry="18"/>
<text text-anchor="middle" x="75" y="-198.3" font-family="Times,serif" font-size="14.00">1</text>
</g>
<!-- 0&#45;&gt;1 -->
<g id="edge1" class="edge"><title>0&#45;&gt;1</title>
<path fill="none" stroke="black" d="M103.417,-272.824C98.3004,-260.252 91.1113,-242.588 85.2443,-228.172"/>
<polygon fill="black" stroke="black" points="88.4469,-226.756 81.4355,-218.813 81.9633,-229.395 88.4469,-226.756"/>
<text text-anchor="middle" x="98.5" y="-242.3" font-family="Times,serif" font-size="14.00">c</text>
</g>
<!-- 2 -->
<g id="node3" class="node"><title>2</title>
<ellipse fill="lightblue" stroke="black" cx="18" cy="-114" rx="18" ry="18"/>
<text text-anchor="middle" x="18" y="-110.3" font-family="Times,serif" font-size="14.00">2</text>
</g>
<!-- 0&#45;&gt;2 -->
<g id="edge2" class="edge"><title>0&#45;&gt;2</title>
<path fill="none" stroke="black" d="M94.5734,-280.33C84.2178,-273.982 70.7399,-264.643 61,-254 32.4728,-222.829 22.8669,-173.045 19.6351,-142.282"/>
<polygon fill="black" stroke="black" points="23.1153,-141.904 18.7372,-132.256 16.1432,-142.528 23.1153,-141.904"/>
<text text-anchor="middle" x="41.5" y="-198.3" font-family="Times,serif" font-size="14.00">a</text>
</g>
<!-- 3 -->
<g id="node4" class="node"><title>3</title>
<ellipse fill="lightblue" stroke="black" cx="114" cy="-22" rx="17.5909" ry="18"/>
<ellipse fill="none" stroke="black" cx="114" cy="-22" rx="21.5" ry="22"/>
<text text-anchor="middle" x="114" y="-18.3" font-family="Times,serif" font-size="14.00">3</text>
</g>
<!-- 0&#45;&gt;3 -->
<g id="edge3" class="edge"><title>0&#45;&gt;3</title>
<path fill="none" stroke="black" d="M110.765,-271.774C112.321,-235.79 115.806,-150.011 117,-78 117.118,-70.8899 117.273,-69.1059 117,-62 116.902,-59.4468 116.768,-56.8017 116.611,-54.1468"/>
<polygon fill="black" stroke="black" points="120.093,-53.7692 115.915,-44.0328 113.109,-54.2493 120.093,-53.7692"/>
<text text-anchor="middle" x="118.5" y="-154.3" font-family="Times,serif" font-size="14.00">b</text>
</g>
<!-- 1&#45;&gt;0 -->
<g id="edge4" class="edge"><title>1&#45;&gt;0</title>
<path fill="none" stroke="black" d="M68.8022,-219.317C65.8756,-229.687 63.9972,-243.152 69,-254 72.6927,-262.007 79.2209,-268.862 85.9972,-274.327"/>
<polygon fill="black" stroke="black" points="84.3643,-277.465 94.5186,-280.489 88.4661,-271.793 84.3643,-277.465"/>
<text text-anchor="middle" x="77" y="-242.3" font-family="Times,serif" font-size="14.00">c,a</text>
</g>
<!-- 1&#45;&gt;2 -->
<g id="edge5" class="edge"><title>1&#45;&gt;2</title>
<path fill="none" stroke="black" d="M69.7172,-184.576C65.9443,-174.163 60.2568,-160.691 53,-150 48.9793,-144.076 43.8687,-138.301 38.8034,-133.206"/>
<polygon fill="black" stroke="black" points="41.1999,-130.655 31.5469,-126.288 36.3698,-135.721 41.1999,-130.655"/>
<text text-anchor="middle" x="64.5" y="-154.3" font-family="Times,serif" font-size="14.00">b</text>
</g>
<!-- 2&#45;&gt;1 -->
<g id="edge6" class="edge"><title>2&#45;&gt;1</title>
<path fill="none" stroke="black" d="M26.1857,-130.032C31.9639,-140.353 40.0613,-154.255 48,-166 51.0379,-170.494 54.4568,-175.175 57.8145,-179.597"/>
<polygon fill="black" stroke="black" points="55.1816,-181.913 64.0801,-187.664 60.7099,-177.619 55.1816,-181.913"/>
<text text-anchor="middle" x="51.5" y="-154.3" font-family="Times,serif" font-size="14.00">b</text>
</g>
<!-- 2&#45;&gt;2 -->
<g id="edge7" class="edge"><title>2&#45;&gt;2</title>
<path fill="none" stroke="black" d="M34.2903,-121.668C44.3892,-123.517 54,-120.961 54,-114 54,-109.541 50.0557,-106.889 44.5656,-106.045"/>
<polygon fill="black" stroke="black" points="44.1887,-102.554 34.2903,-106.332 44.384,-109.552 44.1887,-102.554"/>
<text text-anchor="middle" x="57.5" y="-110.3" font-family="Times,serif" font-size="14.00">c</text>
</g>
<!-- 2&#45;&gt;3 -->
<g id="edge8" class="edge"><title>2&#45;&gt;3</title>
<path fill="none" stroke="black" d="M30.947,-100.862C46.2624,-86.504 72.0466,-62.3313 90.8302,-44.7217"/>
<polygon fill="black" stroke="black" points="93.4992,-47.0171 98.4008,-37.6243 88.7116,-41.9103 93.4992,-47.0171"/>
<text text-anchor="middle" x="74.5" y="-66.3" font-family="Times,serif" font-size="14.00">a</text>
</g>
<!-- 3&#45;&gt;0 -->
<g id="edge9" class="edge"><title>3&#45;&gt;0</title>
<path fill="none" stroke="black" d="M123.925,-41.5257C126.8,-47.8388 129.553,-55.0586 131,-62 132.451,-68.9614 131.066,-70.8892 131,-78 130.275,-156.264 142.982,-177.826 125,-254 124.186,-257.45 123.054,-260.991 121.774,-264.432"/>
<polygon fill="black" stroke="black" points="118.523,-263.135 117.914,-273.713 124.986,-265.824 118.523,-263.135"/>
<text text-anchor="middle" x="137.5" y="-154.3" font-family="Times,serif" font-size="14.00">c</text>
</g>
<!-- 3&#45;&gt;1 -->
<g id="edge10" class="edge"><title>3&#45;&gt;1</title>
<path fill="none" stroke="black" d="M109.479,-43.6322C102.41,-75.8995 88.7363,-138.306 80.8999,-174.072"/>
<polygon fill="black" stroke="black" points="77.3904,-173.737 78.669,-184.254 84.2282,-175.235 77.3904,-173.737"/>
<text text-anchor="middle" x="100.5" y="-110.3" font-family="Times,serif" font-size="14.00">b</text>
</g>
<!-- 3&#45;&gt;3 -->
<g id="edge11" class="edge"><title>3&#45;&gt;3</title>
<path fill="none" stroke="black" d="M134.066,-30.7341C144.074,-31.9426 153,-29.0312 153,-22 153,-17.4956 149.337,-14.682 144.072,-13.5592"/>
<polygon fill="black" stroke="black" points="144.165,-10.0605 134.066,-13.2659 143.959,-17.0575 144.165,-10.0605"/>
<text text-anchor="middle" x="156.5" y="-18.3" font-family="Times,serif" font-size="14.00">a</text>
</g>
</g>
</svg>
