<?xml version="1.0" encoding="UTF-8" standalone="no"?>
<!DOCTYPE svg PUBLIC "-//W3C//DTD SVG 1.1//EN"
 "http://www.w3.org/Graphics/SVG/1.1/DTD/svg11.dtd">
<!-- Generated by graphviz version 2.36.0 (20140111.2315)
 -->
<!-- Title: %3 Pages: 1 -->
<svg width="93pt" height="316pt"
 viewBox="0.00 0.00 92.65 316.00" xmlns="http://www.w3.org/2000/svg" xmlns:xlink="http://www.w3.org/1999/xlink">
<g id="graph0" class="graph" transform="scale(1 1) rotate(0) translate(4 312)">
<title>%3</title>
<polygon fill="white" stroke="none" points="-4,4 -4,-312 88.6527,-312 88.6527,4 -4,4"/>
<!-- 0 -->
<g id="node1" class="node"><title>0</title>
<ellipse fill="lightblue" stroke="black" cx="41.6527" cy="-290" rx="18" ry="18"/>
<text text-anchor="middle" x="41.6527" y="-286.3" font-family="Times,serif" font-size="14.00">0</text>
</g>
<!-- 2 -->
<g id="node3" class="node"><title>2</title>
<ellipse fill="lightblue" stroke="black" cx="41.6527" cy="-106" rx="18" ry="18"/>
<text text-anchor="middle" x="41.6527" y="-102.3" font-family="Times,serif" font-size="14.00">2</text>
</g>
<!-- 0&#45;&gt;2 -->
<g id="edge1" class="edge"><title>0&#45;&gt;2</title>
<path fill="none" stroke="black" d="M31.2199,-275.098C21.9146,-261.764 8.96599,-240.662 3.65274,-220 -1.21758,-201.061 -1.21758,-194.939 3.65274,-176 7.92825,-159.374 17.1478,-142.462 25.4346,-129.543"/>
<polygon fill="black" stroke="black" points="28.5646,-131.159 31.2199,-120.902 22.748,-127.264 28.5646,-131.159"/>
<text text-anchor="middle" x="7.15274" y="-194.3" font-family="Times,serif" font-size="14.00">a</text>
</g>
<!-- 3 -->
<g id="node4" class="node"><title>3</title>
<ellipse fill="green" stroke="black" cx="41.6527" cy="-198" rx="17.5909" ry="18"/>
<ellipse fill="none" stroke="black" cx="41.6527" cy="-198" rx="21.5" ry="22"/>
<text text-anchor="middle" x="41.6527" y="-194.3" font-family="Times,serif" font-size="14.00">3</text>
</g>
<!-- 0&#45;&gt;3 -->
<g id="edge2" class="edge"><title>0&#45;&gt;3</title>
<path fill="none" stroke="black" d="M41.6527,-271.647C41.6527,-259.924 41.6527,-244.114 41.6527,-230.237"/>
<polygon fill="black" stroke="black" points="45.1528,-230.101 41.6527,-220.101 38.1528,-230.101 45.1528,-230.101"/>
<text text-anchor="middle" x="45.1527" y="-242.3" font-family="Times,serif" font-size="14.00">b</text>
</g>
<!-- 1 -->
<g id="node2" class="node"><title>1</title>
<ellipse fill="lightblue" stroke="black" cx="41.6527" cy="-18" rx="18" ry="18"/>
<text text-anchor="middle" x="41.6527" y="-14.3" font-family="Times,serif" font-size="14.00">1</text>
</g>
<!-- 1&#45;&gt;1 -->
<g id="edge3" class="edge"><title>1&#45;&gt;1</title>
<path fill="none" stroke="black" d="M57.943,-25.6679C68.0419,-27.5169 77.6527,-24.9609 77.6527,-18 77.6527,-13.5406 73.7084,-10.8891 68.2184,-10.0454"/>
<polygon fill="black" stroke="black" points="67.8415,-6.55441 57.943,-10.3321 68.0368,-13.5517 67.8415,-6.55441"/>
<text text-anchor="middle" x="81.1527" y="-14.3" font-family="Times,serif" font-size="14.00">b</text>
</g>
<!-- 1&#45;&gt;2 -->
<g id="edge4" class="edge"><title>1&#45;&gt;2</title>
<path fill="none" stroke="black" d="M41.6527,-36.084C41.6527,-47.8607 41.6527,-63.7741 41.6527,-77.342"/>
<polygon fill="black" stroke="black" points="38.1528,-77.5966 41.6527,-87.5966 45.1528,-77.5967 38.1528,-77.5966"/>
<text text-anchor="middle" x="45.1527" y="-58.3" font-family="Times,serif" font-size="14.00">a</text>
</g>
<!-- 2&#45;&gt;0 -->
<g id="edge5" class="edge"><title>2&#45;&gt;0</title>
<path fill="none" stroke="black" d="M51.3939,-121.16C55.3165,-127.347 59.6202,-134.819 62.6527,-142 76.2291,-174.147 78.7587,-185.834 71.6527,-220 68.4097,-235.592 61.4511,-251.983 55.0516,-264.876"/>
<polygon fill="black" stroke="black" points="51.8269,-263.492 50.3377,-273.981 58.0433,-266.71 51.8269,-263.492"/>
<text text-anchor="middle" x="78.1527" y="-194.3" font-family="Times,serif" font-size="14.00">b</text>
</g>
<!-- 2&#45;&gt;1 -->
<g id="edge6" class="edge"><title>2&#45;&gt;1</title>
<path fill="none" stroke="black" d="M35.453,-88.8629C33.5086,-83.0135 31.6188,-76.2957 30.6527,-70 29.5742,-62.9712 29.5742,-61.0288 30.6527,-54 31.1056,-51.0489 31.7614,-48.005 32.5306,-45.0013"/>
<polygon fill="black" stroke="black" points="35.9682,-45.7194 35.453,-35.1371 29.2566,-43.7309 35.9682,-45.7194"/>
<text text-anchor="middle" x="34.1527" y="-58.3" font-family="Times,serif" font-size="14.00">a</text>
</g>
<!-- 3&#45;&gt;2 -->
<g id="edge7" class="edge"><title>3&#45;&gt;2</title>
<path fill="none" stroke="black" d="M41.6527,-175.671C41.6527,-163.284 41.6527,-147.552 41.6527,-134.272"/>
<polygon fill="black" stroke="black" points="45.1528,-134.258 41.6527,-124.258 38.1528,-134.258 45.1528,-134.258"/>
<text text-anchor="middle" x="50.1527" y="-146.3" font-family="Times,serif" font-size="14.00">b,a</text>
</g>
</g>
</svg>
