<?xml version="1.0" encoding="UTF-8" standalone="no"?>
<!DOCTYPE svg PUBLIC "-//W3C//DTD SVG 1.1//EN"
 "http://www.w3.org/Graphics/SVG/1.1/DTD/svg11.dtd">
<!-- Generated by graphviz version 2.36.0 (20140111.2315)
 -->
<!-- Title: %3 Pages: 1 -->
<svg width="113pt" height="228pt"
 viewBox="0.00 0.00 113.00 228.00" xmlns="http://www.w3.org/2000/svg" xmlns:xlink="http://www.w3.org/1999/xlink">
<g id="graph0" class="graph" transform="scale(1 1) rotate(0) translate(4 224)">
<title>%3</title>
<polygon fill="white" stroke="none" points="-4,4 -4,-224 109,-224 109,4 -4,4"/>
<!-- 0 -->
<g id="node1" class="node"><title>0</title>
<ellipse fill="green" stroke="black" cx="21" cy="-198" rx="17.5909" ry="18"/>
<ellipse fill="none" stroke="black" cx="21" cy="-198" rx="21.5" ry="22"/>
<text text-anchor="middle" x="21" y="-194.3" font-family="Times,serif" font-size="14.00">0</text>
</g>
<!-- 3 -->
<g id="node4" class="node"><title>3</title>
<ellipse fill="lightblue" stroke="black" cx="45" cy="-106" rx="18" ry="18"/>
<text text-anchor="middle" x="45" y="-102.3" font-family="Times,serif" font-size="14.00">3</text>
</g>
<!-- 0&#45;&gt;3 -->
<g id="edge1" class="edge"><title>0&#45;&gt;3</title>
<path fill="none" stroke="black" d="M26.446,-176.578C29.8404,-163.849 34.2441,-147.335 37.9094,-133.59"/>
<polygon fill="black" stroke="black" points="41.3445,-134.291 40.5394,-123.727 34.5809,-132.488 41.3445,-134.291"/>
<text text-anchor="middle" x="43.5" y="-146.3" font-family="Times,serif" font-size="14.00">b,a</text>
</g>
<!-- 1 -->
<g id="node2" class="node"><title>1</title>
<ellipse fill="lightblue" stroke="black" cx="45" cy="-18" rx="18" ry="18"/>
<text text-anchor="middle" x="45" y="-14.3" font-family="Times,serif" font-size="14.00">1</text>
</g>
<!-- 1&#45;&gt;0 -->
<g id="edge2" class="edge"><title>1&#45;&gt;0</title>
<path fill="none" stroke="black" d="M35.4926,-33.3321C27.1705,-46.798 15.6972,-67.8405 11,-88 4.89482,-114.202 8.60098,-144.761 13.1336,-166.843"/>
<polygon fill="black" stroke="black" points="9.72622,-167.644 15.3137,-176.646 16.5593,-166.125 9.72622,-167.644"/>
<text text-anchor="middle" x="14.5" y="-102.3" font-family="Times,serif" font-size="14.00">a</text>
</g>
<!-- 1&#45;&gt;1 -->
<g id="edge3" class="edge"><title>1&#45;&gt;1</title>
<path fill="none" stroke="black" d="M61.2903,-25.6679C71.3892,-27.5169 81,-24.9609 81,-18 81,-13.5406 77.0557,-10.8891 71.5656,-10.0454"/>
<polygon fill="black" stroke="black" points="71.1887,-6.55441 61.2903,-10.3321 71.384,-13.5517 71.1887,-6.55441"/>
<text text-anchor="middle" x="84.5" y="-14.3" font-family="Times,serif" font-size="14.00">b</text>
</g>
<!-- 2 -->
<g id="node3" class="node"><title>2</title>
<ellipse fill="lightblue" stroke="black" cx="87" cy="-198" rx="18" ry="18"/>
<text text-anchor="middle" x="87" y="-194.3" font-family="Times,serif" font-size="14.00">2</text>
</g>
<!-- 2&#45;&gt;1 -->
<g id="edge4" class="edge"><title>2&#45;&gt;1</title>
<path fill="none" stroke="black" d="M86.7855,-179.692C85.9378,-152.202 82.1586,-97.2506 66,-54 64.4655,-49.8927 62.446,-45.7262 60.2655,-41.7691"/>
<polygon fill="black" stroke="black" points="63.1794,-39.8225 55.0383,-33.0421 57.1743,-43.4194 63.1794,-39.8225"/>
<text text-anchor="middle" x="85.5" y="-102.3" font-family="Times,serif" font-size="14.00">a</text>
</g>
<!-- 2&#45;&gt;3 -->
<g id="edge5" class="edge"><title>2&#45;&gt;3</title>
<path fill="none" stroke="black" d="M79.6842,-181.323C73.3003,-167.643 63.9281,-147.56 56.5351,-131.718"/>
<polygon fill="black" stroke="black" points="59.6326,-130.079 52.232,-122.497 53.2893,-133.039 59.6326,-130.079"/>
<text text-anchor="middle" x="71.5" y="-146.3" font-family="Times,serif" font-size="14.00">b</text>
</g>
<!-- 3&#45;&gt;1 -->
<g id="edge6" class="edge"><title>3&#45;&gt;1</title>
<path fill="none" stroke="black" d="M45,-87.5966C45,-75.7459 45,-59.8169 45,-46.2917"/>
<polygon fill="black" stroke="black" points="48.5001,-46.084 45,-36.084 41.5001,-46.084 48.5001,-46.084"/>
<text text-anchor="middle" x="53.5" y="-58.3" font-family="Times,serif" font-size="14.00">b,a</text>
</g>
</g>
</svg>
