<?xml version="1.0" encoding="UTF-8" standalone="no"?>
<!DOCTYPE svg PUBLIC "-//W3C//DTD SVG 1.1//EN"
 "http://www.w3.org/Graphics/SVG/1.1/DTD/svg11.dtd">
<!-- Generated by graphviz version 2.36.0 (20140111.2315)
 -->
<!-- Title: %3 Pages: 1 -->
<svg width="168pt" height="404pt"
 viewBox="0.00 0.00 168.00 404.00" xmlns="http://www.w3.org/2000/svg" xmlns:xlink="http://www.w3.org/1999/xlink">
<g id="graph0" class="graph" transform="scale(1 1) rotate(0) translate(4 400)">
<title>%3</title>
<polygon fill="white" stroke="none" points="-4,4 -4,-400 164,-400 164,4 -4,4"/>
<!-- 0 -->
<g id="node1" class="node"><title>0</title>
<ellipse fill="lightblue" stroke="black" cx="72" cy="-286" rx="17.5909" ry="18"/>
<ellipse fill="none" stroke="black" cx="72" cy="-286" rx="21.5" ry="22"/>
<text text-anchor="middle" x="72" y="-282.3" font-family="Times,serif" font-size="14.00">0</text>
</g>
<!-- 1 -->
<g id="node2" class="node"><title>1</title>
<ellipse fill="lightblue" stroke="black" cx="18" cy="-194" rx="18" ry="18"/>
<text text-anchor="middle" x="18" y="-190.3" font-family="Times,serif" font-size="14.00">1</text>
</g>
<!-- 0&#45;&gt;1 -->
<g id="edge1" class="edge"><title>0&#45;&gt;1</title>
<path fill="none" stroke="black" d="M53.0151,-275.422C41.96,-268.768 28.8816,-258.799 22,-246 18.1399,-238.821 16.5335,-230.234 16.0609,-222.171"/>
<polygon fill="black" stroke="black" points="19.5601,-222.016 15.9987,-212.037 12.5603,-222.059 19.5601,-222.016"/>
<text text-anchor="middle" x="25.5" y="-234.3" font-family="Times,serif" font-size="14.00">a</text>
</g>
<!-- 4 -->
<g id="node5" class="node"><title>4</title>
<ellipse fill="lightblue" stroke="black" cx="36" cy="-106" rx="18" ry="18"/>
<text text-anchor="middle" x="36" y="-102.3" font-family="Times,serif" font-size="14.00">4</text>
</g>
<!-- 0&#45;&gt;4 -->
<g id="edge2" class="edge"><title>0&#45;&gt;4</title>
<path fill="none" stroke="black" d="M67.7999,-264.233C61.2613,-231.903 48.651,-169.552 41.4301,-133.849"/>
<polygon fill="black" stroke="black" points="44.7877,-132.794 39.3748,-123.686 37.9267,-134.182 44.7877,-132.794"/>
<text text-anchor="middle" x="59.5" y="-190.3" font-family="Times,serif" font-size="14.00">b</text>
</g>
<!-- 1&#45;&gt;0 -->
<g id="edge3" class="edge"><title>1&#45;&gt;0</title>
<path fill="none" stroke="black" d="M26.9454,-209.909C34.7742,-222.957 46.3412,-242.235 55.7947,-257.991"/>
<polygon fill="black" stroke="black" points="52.9261,-260.013 61.0723,-266.787 58.9285,-256.411 52.9261,-260.013"/>
<text text-anchor="middle" x="51.5" y="-234.3" font-family="Times,serif" font-size="14.00">b</text>
</g>
<!-- 1&#45;&gt;4 -->
<g id="edge4" class="edge"><title>1&#45;&gt;4</title>
<path fill="none" stroke="black" d="M21.5562,-176.009C24.0872,-163.917 27.5382,-147.428 30.4323,-133.601"/>
<polygon fill="black" stroke="black" points="33.8895,-134.168 32.5124,-123.663 27.0379,-132.734 33.8895,-134.168"/>
<text text-anchor="middle" x="31.5" y="-146.3" font-family="Times,serif" font-size="14.00">a</text>
</g>
<!-- 2 -->
<g id="node3" class="node"><title>2</title>
<ellipse fill="green" stroke="black" cx="107" cy="-18" rx="18" ry="18"/>
<text text-anchor="middle" x="107" y="-14.3" font-family="Times,serif" font-size="14.00">2</text>
</g>
<!-- 2&#45;&gt;0 -->
<g id="edge5" class="edge"><title>2&#45;&gt;0</title>
<path fill="none" stroke="black" d="M104.775,-35.9109C99.0068,-79.7483 83.505,-197.562 76.0772,-254.014"/>
<polygon fill="black" stroke="black" points="72.5809,-253.756 74.7464,-264.127 79.5211,-254.67 72.5809,-253.756"/>
<text text-anchor="middle" x="93.5" y="-146.3" font-family="Times,serif" font-size="14.00">a</text>
</g>
<!-- 2&#45;&gt;2 -->
<g id="edge6" class="edge"><title>2&#45;&gt;2</title>
<path fill="none" stroke="black" d="M123.29,-25.6679C133.389,-27.5169 143,-24.9609 143,-18 143,-13.5406 139.056,-10.8891 133.566,-10.0454"/>
<polygon fill="black" stroke="black" points="133.189,-6.55441 123.29,-10.3321 133.384,-13.5517 133.189,-6.55441"/>
<text text-anchor="middle" x="146.5" y="-14.3" font-family="Times,serif" font-size="14.00">b</text>
</g>
<!-- 3 -->
<g id="node4" class="node"><title>3</title>
<ellipse fill="lightblue" stroke="black" cx="127" cy="-378" rx="18" ry="18"/>
<text text-anchor="middle" x="127" y="-374.3" font-family="Times,serif" font-size="14.00">3</text>
</g>
<!-- 3&#45;&gt;0 -->
<g id="edge7" class="edge"><title>3&#45;&gt;0</title>
<path fill="none" stroke="black" d="M117.918,-362.138C109.909,-349.033 98.0437,-329.617 88.3808,-313.805"/>
<polygon fill="black" stroke="black" points="91.1927,-311.694 82.9917,-304.986 85.2198,-315.344 91.1927,-311.694"/>
<text text-anchor="middle" x="107.5" y="-330.3" font-family="Times,serif" font-size="14.00">b</text>
</g>
<!-- 3&#45;&gt;2 -->
<g id="edge8" class="edge"><title>3&#45;&gt;2</title>
<path fill="none" stroke="black" d="M134.381,-361.461C142.068,-343.825 153,-313.998 153,-287 153,-287 153,-287 153,-105 153,-80.3438 138.117,-55.9118 125.282,-39.4265"/>
<polygon fill="black" stroke="black" points="127.891,-37.0886 118.846,-31.571 122.476,-41.5247 127.891,-37.0886"/>
<text text-anchor="middle" x="156.5" y="-190.3" font-family="Times,serif" font-size="14.00">a</text>
</g>
<!-- 4&#45;&gt;2 -->
<g id="edge9" class="edge"><title>4&#45;&gt;2</title>
<path fill="none" stroke="black" d="M47.0938,-91.5625C58.4523,-77.8042 76.2718,-56.22 89.527,-40.1645"/>
<polygon fill="black" stroke="black" points="92.3167,-42.283 95.9842,-32.3431 86.9186,-37.8264 92.3167,-42.283"/>
<text text-anchor="middle" x="80.5" y="-58.3" font-family="Times,serif" font-size="14.00">b</text>
</g>
<!-- 4&#45;&gt;4 -->
<g id="edge10" class="edge"><title>4&#45;&gt;4</title>
<path fill="none" stroke="black" d="M52.2903,-113.668C62.3892,-115.517 72,-112.961 72,-106 72,-101.541 68.0557,-98.8891 62.5656,-98.0454"/>
<polygon fill="black" stroke="black" points="62.1887,-94.5544 52.2903,-98.3321 62.384,-101.552 62.1887,-94.5544"/>
<text text-anchor="middle" x="75.5" y="-102.3" font-family="Times,serif" font-size="14.00">a</text>
</g>
</g>
</svg>
